<?xml version="1.0" encoding="UTF-8"?><svg xmlns="http://www.w3.org/2000/svg" xmlns:xlink="http://www.w3.org/1999/xlink" viewBox="0 0 164.78 175.62"><defs><style>.cls-1{fill:none;}.cls-2{fill:url(#linear-gradient);}.cls-3{clip-path:url(#clippath);}.cls-4{fill:#fff;}.cls-5{fill:#19142e;}.cls-6{mix-blend-mode:screen;}.cls-7{fill:url(#linear-gradient-3);}.cls-8{fill:url(#linear-gradient-4);}.cls-9{fill:url(#linear-gradient-2);}.cls-10{fill:url(#Degradado_sin_nombre_13);}.cls-11{opacity:.39;}.cls-12{isolation:isolate;}.cls-13{fill:url(#Degradado_sin_nombre_10);mix-blend-mode:overlay;}</style><linearGradient id="linear-gradient" x1="-340.39" y1="-170.88" x2="-352.63" y2="-120.54" gradientTransform="translate(-11.36 -290.8) rotate(-95.81) scale(1 -1)" gradientUnits="userSpaceOnUse"><stop offset="0" stop-color="#00dbba"/><stop offset="1" stop-color="#0050c6"/></linearGradient><clipPath id="clippath"><circle class="cls-1" cx="77.71" cy="85.47" r="53.05" transform="translate(-19.49 147.88) rotate(-80.43)"/></clipPath><linearGradient id="linear-gradient-2" x1="-233.21" y1="97" x2="-175.64" y2="97" gradientTransform="translate(-191.76 18.05) rotate(169.86) scale(1 -1)" gradientUnits="userSpaceOnUse"><stop offset="0" stop-color="#eab9ff"/><stop offset="1" stop-color="#6f1ff8"/></linearGradient><linearGradient id="Degradado_sin_nombre_13" x1="236.19" y1="-1796.69" x2="262.25" y2="-1796.69" gradientTransform="translate(-1516.96 873.79) rotate(56.63)" gradientUnits="userSpaceOnUse"><stop offset="0" stop-color="#00a1ac"/><stop offset="1" stop-color="#5af9e7"/></linearGradient><linearGradient id="linear-gradient-3" x1="236.25" y1="-1803.12" x2="264.86" y2="-1803.12" gradientTransform="translate(-1516.96 873.79) rotate(56.63)" xlink:href="#linear-gradient-2"/><linearGradient id="linear-gradient-4" x1="69.18" y1="63.45" x2="130.93" y2="63.45" gradientTransform="translate(-11 6.53) rotate(8.41)" gradientUnits="userSpaceOnUse"><stop offset="0" stop-color="#ffb6fc"/><stop offset="1" stop-color="#a8d3fa"/></linearGradient><linearGradient id="Degradado_sin_nombre_10" x1="102.17" y1="21.32" x2="95.13" y2="161.22" gradientTransform="translate(-11 6.53) rotate(8.41)" gradientUnits="userSpaceOnUse"><stop offset="0" stop-color="#89b8f2"/><stop offset=".2" stop-color="#5af9e7"/><stop offset=".41" stop-color="#c3ff9c"/><stop offset=".62" stop-color="#ff9ea8"/><stop offset=".78" stop-color="#cfa0fa"/><stop offset="1" stop-color="#6bf6ea"/></linearGradient></defs><g class="cls-12"><g id="Capa_1"><g><path class="cls-2" d="M125.83,28.56c1.45,2.71,2.05,6.88,2.67,10.49,.62,3.62-.33,10.9-1.36,13.81-.48,1.35-.96,2.28-1.34,2.89,.72-.54,1.44-1.08,2.14-1.65,.35-.29,.7-.58,1.05-.87,.15-.94,1.57-9.77,2.36-14.88,.83-5.4,1.31-8.33,1.08-10.37-.24-2.04-.76-7.64-.76-7.64,0,0,2.43,8.45,2.73,11.47,.3,3.02-.61,11.82-1.62,14.84-.65,1.94-1.87,4.24-2.66,5.64,.9-.77,1.8-1.53,2.74-2.26,.42-.32,.84-.64,1.26-.95,.3-1.31,.87-3.92,1.23-5.94,.5-2.82,2.11-9.45,3.2-12.04s3.34-8.02,3.34-8.02c0,0,.22,2.59,.25,4.67,.03,2.08-3.88,14.46-5.09,16.97-.67,1.39-1.55,2.83-2.21,3.85,1.09-.79,2.18-1.57,3.26-2.38,.29-1.06,1.2-4.36,1.57-5.97,.44-1.94,1.25-7.44,2.97-10.8,1.73-3.36,5.13-8.43,5.13-8.43,0,0-.51,2.17-.99,4.44-.49,2.27-2.76,9.45-3.83,12.81-.84,2.64-3.41,6.26-4.47,7.68,.37-.28,.75-.57,1.14-.85,0,0-.01,0-.01,0,0-.03,.03-.03,.04,0,.23-.17,.46-.33,.7-.49,.27-.43,2.69-4.32,3.61-5.61,.97-1.37,5.17-7.56,6.76-9.15,1.59-1.59,5.24-3.96,5.24-3.96,0,0-1.63,3.89-2.44,5.56-.81,1.67-2.93,4-5.03,6.44-.53,.61-1.3,1.34-2.16,2.08,2.38-1.01,7.86-3.09,10.1-3.66,2.62-.67,8.4-2.09,8.4-2.09,0,0-5.8,4.5-11.54,6.79-4.79,1.92-10.61,3.17-12.4,3.53-.7,.45-1.35,.99-1.98,1.5,1.06-.15,3.27-.44,5.38-.65,2.91-.28,3.76-.42,8.06,.37,4.3,.8,9.81,4.24,9.81,4.24,0,0-4.67-1.72-6.91-1.99-2.24-.27-8.68-.16-10.65-.15-1.73,0-6.08-.55-7.12-.69-1.01,.78-2.02,1.56-3.01,2.37,1.23-.05,4.28-.16,5.6-.04,1.67,.15,9.17,2.38,11.69,3.04,2.52,.66,8.18,4.3,8.18,4.3,0,0-15.62-4.23-17.76-4.63-2.15-.4-8.22-2.24-8.22-2.24-1.3,1.11-2.57,2.25-3.86,3.38,1.8-.02,5.39-.01,7.28,.23,2.57,.33,7.8,1.41,12.2,2.84,4.41,1.44,8.63,4.99,8.63,4.99,0,0-2.24-.93-4.09-1.49-1.85-.56-8.24-2.1-13.07-2.8-4.07-.6-10.06-2.42-11.84-2.98-1.11,.96-2.24,1.9-3.4,2.79,.9,.19,2.45,.48,3.35,.47,1.31,0,8.97,2.52,13.2,4.2,4.23,1.69,8.61,6.19,8.61,6.19,0,0-6.77-3.11-11.78-4.88-4.38-1.55-12.34-4.57-14.29-5.31-.23,.17-.46,.34-.69,.5-.88,.61-1.72,1.27-2.55,1.96,1.69,.31,7.33,1.38,10.55,2.4,3.82,1.21,8.05,3.55,10.72,5.07,2.67,1.52,10.54,5.32,10.54,5.32,0,0-5.47-.6-7.85-1.07s-9.6-3.62-13.37-5.16c-3.36-1.38-9.9-5.16-11.29-5.97-.56,.48-1.11,.97-1.66,1.47-.45,.41-.91,.82-1.37,1.23,.73,.11,2.86,.43,4.25,.72,1.71,.37,9.12,4.03,11.75,5.98,2.63,1.96,6.91,7.14,6.91,7.14,0,0-2.83-1.82-4.89-3-2.06-1.18-5.28-2.71-8.73-4.31-3.45-1.6-9.78-5.99-9.78-5.99l.07-.17c-.18,.16-.35,.32-.53,.48-.78,.71-1.58,1.4-2.38,2.1-.17,.15-.35,.3-.53,.45,1.02,.02,3.29,.1,4.61,.54,1.74,.58,5.03,1.88,7.38,4.76,2.35,2.88,3.2,9.09,3.2,9.09,0,0-2.08-5.12-3.81-6.9-1.73-1.79-4.73-2.7-7.38-4.76-1.96-1.53-3.7-2.13-4.48-2.34-.76,.59-1.55,1.15-2.35,1.71,1.03,.26,3.11,.78,4.84,1.2,2.4,.58,4.35,1.77,6.92,3.96,2.56,2.19,4.31,8.57,4.31,8.57,0,0-2.41-3.2-4.87-6.07-2.46-2.86-5.51-2.78-8.04-4.1-1.97-1.03-3.08-2.53-3.56-3.29-.37,.26-.74,.52-1.11,.79-.6,.43-1.2,.86-1.81,1.28,1.39,.28,5.09,1.07,6.39,2,1.62,1.15,3.19,2.63,4.42,4.72,1.23,2.09,3.24,9.96,3.24,9.96,0,0-1.73-2.44-2.48-3.63-.75-1.19-2.77-5.33-5.59-8.35-2.82-3.02-6.6-4.25-6.6-4.25-.79,.55-1.56,1.11-2.37,1.63-1.93,1.23-3.95,2.31-6,3.33-1.02,.5-2.04,1-3.06,1.49-1,.49-2.02,.99-3.11,1.25-.26,.06-.42-.31-.22-.47,1.57-1.21,3.56-1.88,5.32-2.75,1.83-.9,3.66-1.84,5.41-2.88,.66-.39,1.31-.81,1.95-1.24-1.42-.33-5.09-1.23-7.26-2.25-2.74-1.28-5.13-3.72-6.71-5.97-1.59-2.25-3.52-6.52-3.52-6.52,0,0,5.08,5.37,6.61,6.64,1.53,1.27,3.93,3.16,6.14,4.54,2.21,1.38,5.35,3.15,5.35,3.15,.5-.35,1-.71,1.49-1.06-.09-.34-.27-.8-.68-1.28-.82-.95-6.04-6.52-8.31-9.53-2.27-3.01-8.14-12.41-8.14-12.41,0,0,6.23,4.41,8.61,6.19,2.39,1.78,6.87,8.79,7.94,11.24,.86,1.96,1.23,4.34,1.35,5.22,.07-.05,.14-.1,.22-.16,.71-.53,1.46-1,2.19-1.5-.28-.97-1.24-3.73-3.91-7.04-3.34-4.14-5.99-6.86-8.26-9.87s-5.62-7.91-5.62-7.91c0,0,7.97,4.99,10.18,7.02,2.21,2.03,6.57,8.95,7.52,11.96,.69,2.17,.75,4.33,.73,5.37,.73-.53,1.43-1.1,2.16-1.63,.21-.16,.42-.32,.62-.48-.19-.91-.74-3.26-1.85-5.74-1.41-3.15-7.98-12.76-9.49-15.79-1.5-3.03-3.12-6.69-3.12-6.69,0,0,4.93,3.87,6.89,5.72,1.96,1.86,5.76,7.45,6.74,11.22,.89,3.47,1.35,9.77,1.42,10.78,.37-.32,.74-.64,1.1-.98,.62-.57,1.27-1.12,1.88-1.7-.11-.48-.25-1.12-.35-1.68-.18-1.06-1.45-4.02-2.19-6.41-.74-2.39-3.92-13.35-4.84-16.8s-4.13-6.85-4.13-6.85c2.76,1.39,5.38,4.56,7.47,8.47,2.09,3.91,4.45,12.6,4.68,16.5,.15,2.61-.11,5.08-.29,6.44,.05-.05,.11-.1,.16-.15,.74-.74,1.56-1.36,2.32-2.07,.3-.28,.62-.54,.95-.8,.11-.95,.22-2.61-.15-3.94-.56-1.99-3.57-14.5-3.6-16.58-.03-2.08-1.52-6.31-3.48-8.17-1.96-1.86-5-2.32-5-2.32,0,0,2.88,.17,4.46,1.1,1.58,.93,3.92,3.71,5.34,7.52,1.42,3.81,4.08,16.17,4.25,18.44,.09,1.17-.43,2.38-.95,3.28,.24-.17,.47-.35,.7-.52,.77-.58,1.56-1.15,2.33-1.72,.21-1.33,.77-5.04,.69-6.55-.1-1.85-.4-11.98-.41-13.95,0-1.97,.31-5.86-.97-8.27-1.29-2.41-4.45-2.96-4.45-2.96,2.22,.17,4.39,1.33,5.84,4.04Z"/><g><circle class="cls-5" cx="77.71" cy="85.47" r="53.05" transform="translate(-19.49 147.88) rotate(-80.43)"/><g class="cls-3"><g class="cls-11"><g class="cls-6"><path class="cls-4" d="M66.82,73.24c-.2,0-.37,.17-.37,.37s.17,.37,.37,.37,.37-.17,.37-.37-.17-.37-.37-.37Z"/><circle class="cls-4" cx="69.8" cy="62.93" r=".79"/><path class="cls-4" d="M91.38,71.85c-.44,0-.79,.35-.79,.79s.35,.79,.79,.79,.79-.35,.79-.79-.35-.79-.79-.79Z"/><path class="cls-4" d="M82.88,58.93c-.44,0-.79,.35-.79,.79s.35,.79,.79,.79,.79-.35,.79-.79-.35-.79-.79-.79Z"/><path class="cls-4" d="M78.19,64.73c-.2,0-.37,.17-.37,.37s.17,.37,.37,.37,.37-.17,.37-.37-.17-.37-.37-.37Z"/><path class="cls-4" d="M99.89,72.87c-.2,0-.37,.17-.37,.37s.17,.37,.37,.37,.37-.17,.37-.37-.17-.37-.37-.37Z"/><path class="cls-4" d="M71.5,47.42c-.2,0-.37,.17-.37,.37s.17,.37,.37,.37,.37-.17,.37-.37-.17-.37-.37-.37Z"/><path class="cls-4" d="M61.5,45.58c0,.44-.35,.79-.79,.79s-.79-.35-.79-.79,.35-.79,.79-.79,.79,.35,.79,.79Z"/><path class="cls-4" d="M53.42,29.31c.16,.4-.04,.86-.44,1.02-.4,.16-.86-.04-1.02-.44-.16-.4,.04-.86,.44-1.02,.4-.16,.86,.04,1.02,.44Z"/><path class="cls-4" d="M23.89,5.58c.16,.4-.04,.86-.44,1.02-.4,.16-.86-.04-1.02-.44-.16-.4,.04-.86,.44-1.02,.4-.16,.86,.04,1.02,.44Z"/><path class="cls-4" d="M32.59,39.3c.16,.4-.04,.86-.44,1.02-.4,.16-.86-.04-1.02-.44-.16-.4,.04-.86,.44-1.02,.4-.16,.86,.04,1.02,.44Z"/><path class="cls-4" d="M40.67,35.24c.08,.19-.02,.4-.21,.48-.19,.08-.4-.02-.48-.21-.08-.19,.02-.4,.21-.48,.19-.08,.4,.02,.48,.21Z"/><path class="cls-4" d="M52.85,38.69c.08,.19-.02,.4-.21,.48-.19,.08-.4-.02-.48-.21s.02-.4,.21-.48c.19-.08,.4,.02,.48,.21Z"/><path class="cls-4" d="M19.61,68.58c.29,.32,.27,.82-.05,1.11-.32,.29-.82,.27-1.11-.05-.29-.32-.27-.82,.05-1.11,.32-.29,.82-.27,1.11,.05Z"/><path class="cls-4" d="M16.56,41.21c.29,.32,.27,.82-.05,1.11-.32,.29-.82,.27-1.11-.05-.29-.32-.27-.82,.05-1.11,.32-.29,.82-.27,1.11,.05Z"/><path class="cls-4" d="M11.25,53.51c.14,.15,.13,.38-.02,.52-.15,.14-.38,.13-.52-.02s-.13-.38,.02-.52c.15-.14,.38-.13,.52,.02Z"/><path class="cls-4" d="M28.52,46.74c.14,.15,.13,.38-.02,.52-.15,.14-.38,.13-.52-.02-.14-.15-.13-.38,.02-.52,.15-.14,.38-.13,.52,.02Z"/><path class="cls-4" d="M8.81,29.53c0,.44-.35,.79-.79,.79s-.79-.35-.79-.79,.35-.79,.79-.79,.79,.35,.79,.79Z"/><path class="cls-4" d="M18.45,15.67c0,.44-.35,.79-.79,.79s-.79-.35-.79-.79,.35-.79,.79-.79,.79,.35,.79,.79Z"/><path class="cls-4" d="M27.11,32.6c.14,.15,.13,.38-.02,.52-.15,.14-.38,.13-.52-.02s-.13-.38,.02-.52c.15-.14,.38-.13,.52,.02Z"/><path class="cls-4" d="M23.53,27.83c0,.2-.17,.37-.37,.37s-.37-.17-.37-.37,.17-.37,.37-.37,.37,.17,.37,.37Z"/><path class="cls-4" d="M30.36,17.58c.14,.15,.13,.38-.02,.52-.15,.14-.38,.13-.52-.02-.14-.15-.13-.38,.02-.52s.38-.13,.52,.02Z"/><circle class="cls-4" cx="26.41" cy="12.8" r=".37"/><path class="cls-4" d="M9.18,.37c0,.2-.17,.37-.37,.37s-.37-.17-.37-.37,.17-.37,.37-.37,.37,.17,.37,.37Z"/><path class="cls-4" d="M16.97,23.27c-.32,.29-.34,.79-.05,1.11s.79,.34,1.11,.05c.32-.29,.34-.79,.05-1.11-.29-.32-.79-.34-1.11-.05Z"/><path class="cls-4" d="M38.23,31.01c-.44,0-.79,.35-.79,.79s.35,.79,.79,.79,.79-.35,.79-.79-.35-.79-.79-.79Z"/><path class="cls-4" d="M39.01,22c-.2,0-.37,.17-.37,.37s.17,.37,.37,.37,.37-.17,.37-.37-.17-.37-.37-.37Z"/><path class="cls-4" d="M39.23,12.45c-.19,.07-.4-.03-.47-.22-.07-.19,.03-.4,.22-.47,.19-.07,.4,.03,.47,.22s-.03,.4-.22,.47Z"/><path class="cls-4" d="M45.38,3.1c-.19,.07-.4-.03-.47-.22-.07-.19,.03-.4,.22-.47,.19-.07,.4,.03,.47,.22,.07,.19-.03,.4-.22,.47Z"/><path class="cls-4" d="M43.53,10.13c.01-.44-.33-.8-.77-.81-.44-.01-.8,.33-.81,.77-.01,.44,.33,.8,.77,.81,.44,.01,.8-.33,.81-.77Z"/><path class="cls-4" d="M52.51,11.18c0-.2-.15-.37-.36-.38-.2,0-.37,.15-.38,.36,0,.2,.15,.37,.36,.38,.2,0,.37-.15,.38-.36Z"/><path class="cls-4" d="M13.41,31.97c-.15,.14-.16,.37-.02,.52s.37,.16,.52,.02c.15-.14,.16-.37,.02-.52-.14-.15-.37-.16-.52-.02Z"/><path class="cls-4" d="M37.64,73.92c-.44,0-.79,.35-.79,.79s.35,.79,.79,.79,.79-.35,.79-.79-.35-.79-.79-.79Z"/><path class="cls-4" d="M38.43,56.36c-.44,0-.79,.35-.79,.79s.35,.79,.79,.79,.79-.35,.79-.79-.35-.79-.79-.79Z"/><path class="cls-4" d="M53.48,52.09c-.44,0-.79,.35-.79,.79s.35,.79,.79,.79,.79-.35,.79-.79-.35-.79-.79-.79Z"/><path class="cls-4" d="M23.73,63.92c-.2,0-.37,.17-.37,.37s.17,.37,.37,.37,.37-.17,.37-.37-.17-.37-.37-.37Z"/><path class="cls-4" d="M49.3,63.55c-.2,0-.37,.17-.37,.37s.17,.37,.37,.37,.37-.17,.37-.37-.17-.37-.37-.37Z"/><path class="cls-4" d="M23.73,50.08c-.2,0-.37,.17-.37,.37s.17,.37,.37,.37,.37-.17,.37-.37-.17-.37-.37-.37Z"/><path class="cls-4" d="M41.52,48.41c-.2,0-.37,.17-.37,.37s.17,.37,.37,.37,.37-.17,.37-.37-.17-.37-.37-.37Z"/><path class="cls-4" d="M4.15,71.9c.14,.15,.13,.38-.02,.52-.15,.14-.38,.13-.52-.02-.14-.15-.13-.38,.02-.52,.15-.14,.38-.13,.52,.02Z"/><path class="cls-4" d="M69.8,87.28c-.44,0-.79-.35-.79-.79s.35-.79,.79-.79,.79,.35,.79,.79-.35,.79-.79,.79Z"/><path class="cls-4" d="M82.88,90.5c-.44,0-.79-.35-.79-.79s.35-.79,.79-.79,.79,.35,.79,.79-.35,.79-.79,.79Z"/><path class="cls-4" d="M78.19,84.69c-.2,0-.37-.17-.37-.37s.17-.37,.37-.37,.37,.17,.37,.37-.17,.37-.37,.37Z"/><path class="cls-4" d="M19.61,80.84c.29-.32,.27-.82-.05-1.11-.32-.29-.82-.27-1.11,.05-.29,.32-.27,.82,.05,1.11s.82,.27,1.11-.05Z"/><path class="cls-4" d="M11.25,95.91c.14-.15,.13-.38-.02-.52-.15-.14-.38-.13-.52,.02-.14,.15-.13,.38,.02,.52,.15,.14,.38,.13,.52-.02Z"/><path class="cls-4" d="M37.64,75.5c-.44,0-.79-.35-.79-.79s.35-.79,.79-.79,.79,.35,.79,.79-.35,.79-.79,.79Z"/><circle class="cls-4" cx="38.43" cy="92.28" r=".79"/><path class="cls-4" d="M23.73,85.5c-.2,0-.37-.17-.37-.37s.17-.37,.37-.37,.37,.17,.37,.37-.17,.37-.37,.37Z"/><path class="cls-4" d="M49.3,85.87c-.2,0-.37-.17-.37-.37s.17-.37,.37-.37,.37,.17,.37,.37-.17,.37-.37,.37Z"/><path class="cls-4" d="M4.15,77.52c.14-.15,.13-.38-.02-.52-.15-.14-.38-.13-.52,.02s-.13,.38,.02,.52c.15,.14,.38,.13,.52-.02Z"/><path class="cls-4" d="M145.48,76.18c.2,0,.37-.17,.37-.37s-.17-.37-.37-.37-.37,.17-.37,.37,.17,.37,.37,.37Z"/><path class="cls-4" d="M142.49,87.28c.44,0,.79-.35,.79-.79s-.35-.79-.79-.79-.79,.35-.79,.79,.35,.79,.79,.79Z"/><path class="cls-4" d="M129.42,90.5c.44,0,.79-.35,.79-.79s-.35-.79-.79-.79-.79,.35-.79,.79,.35,.79,.79,.79Z"/><path class="cls-4" d="M116.68,104.16c.44,0,.79-.35,.79-.79s-.35-.79-.79-.79-.79,.35-.79,.79,.35,.79,.79,.79Z"/><path class="cls-4" d="M106.42,92.28c.44,0,.79-.35,.79-.79s-.35-.79-.79-.79-.79,.35-.79,.79,.35,.79,.79,.79Z"/><circle class="cls-4" cx="134.11" cy="84.32" r=".37"/><path class="cls-4" d="M91.38,98.39c.2,0,.37-.17,.37-.37s-.17-.37-.37-.37-.37,.17-.37,.37,.17,.37,.37,.37Z"/><path class="cls-4" d="M163,85.87c.2,0,.37-.17,.37-.37s-.17-.37-.37-.37-.37,.17-.37,.37,.17,.37,.37,.37Z"/></g><g class="cls-6"><path class="cls-4" d="M93.6,30.91c.2,0,.37-.17,.37-.37s-.17-.37-.37-.37-.37,.17-.37,.37,.17,.37,.37,.37Z"/><path class="cls-4" d="M90.61,42.01c.44,0,.79-.35,.79-.79s-.35-.79-.79-.79-.79,.35-.79,.79,.35,.79,.79,.79Z"/><path class="cls-4" d="M69.04,32.3c.44,0,.79-.35,.79-.79s-.35-.79-.79-.79-.79,.35-.79,.79,.35,.79,.79,.79Z"/><path class="cls-4" d="M77.54,45.23c.44,0,.79-.35,.79-.79s-.35-.79-.79-.79-.79,.35-.79,.79,.35,.79,.79,.79Z"/><path class="cls-4" d="M82.23,39.43c.2,0,.37-.17,.37-.37s-.17-.37-.37-.37-.37,.17-.37,.37,.17,.37,.37,.37Z"/><path class="cls-4" d="M60.52,31.28c.2,0,.37-.17,.37-.37s-.17-.37-.37-.37-.37,.17-.37,.37,.17,.37,.37,.37Z"/><path class="cls-4" d="M88.91,56.74c.2,0,.37-.17,.37-.37s-.17-.37-.37-.37-.37,.17-.37,.37,.17,.37,.37,.37Z"/><circle class="cls-4" cx="99.7" cy="58.58" r=".79"/><path class="cls-4" d="M106.99,74.85c-.16-.4,.04-.86,.44-1.02,.4-.16,.86,.04,1.02,.44,.16,.4-.04,.86-.44,1.02s-.86-.04-1.02-.44Z"/><path class="cls-4" d="M136.52,98.57c-.16-.4,.04-.86,.44-1.02,.4-.16,.86,.04,1.02,.44s-.04,.86-.44,1.02c-.4,.16-.86-.04-1.02-.44Z"/><path class="cls-4" d="M127.83,64.86c-.16-.4,.04-.86,.44-1.02,.4-.16,.86,.04,1.02,.44,.16,.4-.04,.86-.44,1.02-.4,.16-.86-.04-1.02-.44Z"/><path class="cls-4" d="M119.75,68.92c-.08-.19,.02-.4,.21-.48,.19-.08,.4,.02,.48,.21,.08,.19-.02,.4-.21,.48-.19,.08-.4-.02-.48-.21Z"/><path class="cls-4" d="M107.57,65.47c-.08-.19,.02-.4,.21-.48,.19-.08,.4,.02,.48,.21,.08,.19-.02,.4-.21,.48-.19,.08-.4-.02-.48-.21Z"/><path class="cls-4" d="M140.81,35.58c-.29-.32-.27-.82,.05-1.11,.32-.29,.82-.27,1.11,.05,.29,.32,.27,.82-.05,1.11-.32,.29-.82,.27-1.11-.05Z"/><path class="cls-4" d="M143.86,62.95c-.29-.32-.27-.82,.05-1.11,.32-.29,.82-.27,1.11,.05s.27,.82-.05,1.11c-.32,.29-.82,.27-1.11-.05Z"/><path class="cls-4" d="M149.17,50.64c-.14-.15-.13-.38,.02-.52,.15-.14,.38-.13,.52,.02,.14,.15,.13,.38-.02,.52-.15,.14-.38,.13-.52-.02Z"/><path class="cls-4" d="M131.9,57.42c-.14-.15-.13-.38,.02-.52,.15-.14,.38-.13,.52,.02,.14,.15,.13,.38-.02,.52-.15,.14-.38,.13-.52-.02Z"/><path class="cls-4" d="M151.61,74.63c0-.44,.35-.79,.79-.79s.79,.35,.79,.79-.35,.79-.79,.79-.79-.35-.79-.79Z"/><path class="cls-4" d="M141.96,88.49c0-.44,.35-.79,.79-.79s.79,.35,.79,.79-.35,.79-.79,.79-.79-.35-.79-.79Z"/><path class="cls-4" d="M133.31,71.55c-.14-.15-.13-.38,.02-.52,.15-.14,.38-.13,.52,.02,.14,.15,.13,.38-.02,.52-.15,.14-.38,.13-.52-.02Z"/><path class="cls-4" d="M136.89,76.33c0-.2,.17-.37,.37-.37s.37,.17,.37,.37-.17,.37-.37,.37-.37-.17-.37-.37Z"/><path class="cls-4" d="M130.06,86.58c-.14-.15-.13-.38,.02-.52,.15-.14,.38-.13,.52,.02,.14,.15,.13,.38-.02,.52-.15,.14-.38,.13-.52-.02Z"/><circle class="cls-4" cx="134.01" cy="91.35" r=".37"/><path class="cls-4" d="M151.24,103.79c0-.2,.17-.37,.37-.37s.37,.17,.37,.37-.17,.37-.37,.37-.37-.17-.37-.37Z"/><circle class="cls-4" cx="154.7" cy="87.33" r=".37"/><path class="cls-4" d="M143.44,80.89c.32-.29,.34-.79,.05-1.11-.29-.32-.79-.34-1.11-.05-.32,.29-.34,.79-.05,1.11,.29,.32,.79,.34,1.11,.05Z"/><path class="cls-4" d="M122.19,73.15c.44,0,.79-.35,.79-.79s-.35-.79-.79-.79-.79,.35-.79,.79,.35,.79,.79,.79Z"/><path class="cls-4" d="M155.49,60.15c.44,0,.79-.35,.79-.79s-.35-.79-.79-.79-.79,.35-.79,.79,.35,.79,.79,.79Z"/><path class="cls-4" d="M121.4,82.16c.2,0,.37-.17,.37-.37s-.17-.37-.37-.37-.37,.17-.37,.37,.17,.37,.37,.37Z"/><path class="cls-4" d="M121.18,91.7c.19-.07,.4,.03,.47,.22,.07,.19-.03,.4-.22,.47-.19,.07-.4-.03-.47-.22s.03-.4,.22-.47Z"/><path class="cls-4" d="M115.04,101.05c.19-.07,.4,.03,.47,.22,.07,.19-.03,.4-.22,.47-.19,.07-.4-.03-.47-.22-.07-.19,.03-.4,.22-.47Z"/><path class="cls-4" d="M116.89,94.03c-.01,.44,.33,.8,.77,.81,.44,.01,.8-.33,.81-.77,.01-.44-.33-.8-.77-.81-.44-.01-.8,.33-.81,.77Z"/><path class="cls-4" d="M107.91,92.98c0,.2,.15,.37,.36,.38,.2,0,.37-.15,.38-.36,0-.2-.15-.37-.36-.38-.2,0-.37,.15-.38,.36Z"/><path class="cls-4" d="M147,72.19c.15-.14,.16-.37,.02-.52-.14-.15-.37-.16-.52-.02-.15,.14-.16,.37-.02,.52,.14,.15,.37,.16,.52,.02Z"/><path class="cls-4" d="M122.78,30.23c.44,0,.79-.35,.79-.79s-.35-.79-.79-.79-.79,.35-.79,.79,.35,.79,.79,.79Z"/><path class="cls-4" d="M121.99,47.8c.44,0,.79-.35,.79-.79s-.35-.79-.79-.79-.79,.35-.79,.79,.35,.79,.79,.79Z"/><circle class="cls-4" cx="106.94" cy="51.28" r=".79"/><circle class="cls-4" cx="136.68" cy="39.87" r=".37"/><path class="cls-4" d="M111.12,40.61c.2,0,.37-.17,.37-.37s-.17-.37-.37-.37-.37,.17-.37,.37,.17,.37,.37,.37Z"/><path class="cls-4" d="M136.68,54.08c.2,0,.37-.17,.37-.37s-.17-.37-.37-.37-.37,.17-.37,.37,.17,.37,.37,.37Z"/><path class="cls-4" d="M118.89,55.75c.2,0,.37-.17,.37-.37s-.17-.37-.37-.37-.37,.17-.37,.37,.17,.37,.37,.37Z"/><path class="cls-4" d="M156.26,32.25c-.14-.15-.13-.38,.02-.52,.15-.14,.38-.13,.52,.02,.14,.15,.13,.38-.02,.52-.15,.14-.38,.13-.52-.02Z"/><circle class="cls-4" cx="90.61" cy="17.67" r=".79"/><path class="cls-4" d="M77.54,13.66c.44,0,.79,.35,.79,.79s-.35,.79-.79,.79-.79-.35-.79-.79,.35-.79,.79-.79Z"/><path class="cls-4" d="M82.23,19.46c.2,0,.37,.17,.37,.37s-.17,.37-.37,.37-.37-.17-.37-.37,.17-.37,.37-.37Z"/><path class="cls-4" d="M140.81,23.32c-.29,.32-.27,.82,.05,1.11s.82,.27,1.11-.05c.29-.32,.27-.82-.05-1.11-.32-.29-.82-.27-1.11,.05Z"/><path class="cls-4" d="M149.17,8.25c-.14,.15-.13,.38,.02,.52,.15,.14,.38,.13,.52-.02,.14-.15,.13-.38-.02-.52s-.38-.13-.52,.02Z"/><path class="cls-4" d="M122.78,28.66c.44,0,.79,.35,.79,.79s-.35,.79-.79,.79-.79-.35-.79-.79,.35-.79,.79-.79Z"/><path class="cls-4" d="M121.99,11.09c.44,0,.79,.35,.79,.79s-.35,.79-.79,.79-.79-.35-.79-.79,.35-.79,.79-.79Z"/><circle class="cls-4" cx="136.68" cy="19.03" r=".37"/><circle class="cls-4" cx="111.12" cy="18.66" r=".37"/><path class="cls-4" d="M156.26,26.64c-.14,.15-.13,.38,.02,.52,.15,.14,.38,.13,.52-.02,.14-.15,.13-.38-.02-.52-.15-.14-.38-.13-.52,.02Z"/><circle class="cls-4" cx="14.93" cy="28.35" r=".37"/><path class="cls-4" d="M17.92,16.88c-.44,0-.79,.35-.79,.79s.35,.79,.79,.79,.79-.35,.79-.79-.35-.79-.79-.79Z"/><path class="cls-4" d="M30.99,13.66c-.44,0-.79,.35-.79,.79s.35,.79,.79,.79,.79-.35,.79-.79-.35-.79-.79-.79Z"/><path class="cls-4" d="M43.73,0c-.44,0-.79,.35-.79,.79s.35,.79,.79,.79,.79-.35,.79-.79-.35-.79-.79-.79Z"/><path class="cls-4" d="M53.99,11.88c-.44,0-.79,.35-.79,.79s.35,.79,.79,.79,.79-.35,.79-.79-.35-.79-.79-.79Z"/><path class="cls-4" d="M26.3,19.46c-.2,0-.37,.17-.37,.37s.17,.37,.37,.37,.37-.17,.37-.37-.17-.37-.37-.37Z"/><path class="cls-4" d="M69.04,5.77c-.2,0-.37,.17-.37,.37s.17,.37,.37,.37,.37-.17,.37-.37-.17-.37-.37-.37Z"/></g><g class="cls-6"><path class="cls-4" d="M66.82,144.71c-.2,0-.37,.17-.37,.37s.17,.37,.37,.37,.37-.17,.37-.37-.17-.37-.37-.37Z"/><circle class="cls-4" cx="69.8" cy="134.4" r=".79"/><path class="cls-4" d="M91.38,143.32c-.44,0-.79,.35-.79,.79s.35,.79,.79,.79,.79-.35,.79-.79-.35-.79-.79-.79Z"/><path class="cls-4" d="M82.88,130.39c-.44,0-.79,.35-.79,.79s.35,.79,.79,.79,.79-.35,.79-.79-.35-.79-.79-.79Z"/><path class="cls-4" d="M78.19,136.2c-.2,0-.37,.17-.37,.37s.17,.37,.37,.37,.37-.17,.37-.37-.17-.37-.37-.37Z"/><path class="cls-4" d="M99.89,144.34c-.2,0-.37,.17-.37,.37s.17,.37,.37,.37,.37-.17,.37-.37-.17-.37-.37-.37Z"/><path class="cls-4" d="M71.5,118.89c-.2,0-.37,.17-.37,.37s.17,.37,.37,.37,.37-.17,.37-.37-.17-.37-.37-.37Z"/><path class="cls-4" d="M61.5,117.05c0,.44-.35,.79-.79,.79s-.79-.35-.79-.79,.35-.79,.79-.79,.79,.35,.79,.79Z"/><path class="cls-4" d="M53.42,100.77c.16,.4-.04,.86-.44,1.02-.4,.16-.86-.04-1.02-.44-.16-.4,.04-.86,.44-1.02,.4-.16,.86,.04,1.02,.44Z"/><path class="cls-4" d="M23.89,77.05c.16,.4-.04,.86-.44,1.02-.4,.16-.86-.04-1.02-.44-.16-.4,.04-.86,.44-1.02,.4-.16,.86,.04,1.02,.44Z"/><path class="cls-4" d="M32.59,110.77c.16,.4-.04,.86-.44,1.02-.4,.16-.86-.04-1.02-.44-.16-.4,.04-.86,.44-1.02,.4-.16,.86,.04,1.02,.44Z"/><path class="cls-4" d="M40.67,106.7c.08,.19-.02,.4-.21,.48-.19,.08-.4-.02-.48-.21-.08-.19,.02-.4,.21-.48,.19-.08,.4,.02,.48,.21Z"/><path class="cls-4" d="M52.85,110.16c.08,.19-.02,.4-.21,.48s-.4-.02-.48-.21c-.08-.19,.02-.4,.21-.48,.19-.08,.4,.02,.48,.21Z"/><path class="cls-4" d="M19.61,140.05c.29,.32,.27,.82-.05,1.11-.32,.29-.82,.27-1.11-.05-.29-.32-.27-.82,.05-1.11s.82-.27,1.11,.05Z"/><path class="cls-4" d="M16.56,112.68c.29,.32,.27,.82-.05,1.11-.32,.29-.82,.27-1.11-.05-.29-.32-.27-.82,.05-1.11,.32-.29,.82-.27,1.11,.05Z"/><path class="cls-4" d="M11.25,124.98c.14,.15,.13,.38-.02,.52-.15,.14-.38,.13-.52-.02-.14-.15-.13-.38,.02-.52,.15-.14,.38-.13,.52,.02Z"/><path class="cls-4" d="M28.52,118.21c.14,.15,.13,.38-.02,.52-.15,.14-.38,.13-.52-.02-.14-.15-.13-.38,.02-.52,.15-.14,.38-.13,.52,.02Z"/><circle class="cls-4" cx="8.02" cy="101" r=".79"/><path class="cls-4" d="M18.45,87.14c0,.44-.35,.79-.79,.79s-.79-.35-.79-.79,.35-.79,.79-.79,.79,.35,.79,.79Z"/><path class="cls-4" d="M27.11,104.07c.14,.15,.13,.38-.02,.52-.15,.14-.38,.13-.52-.02s-.13-.38,.02-.52c.15-.14,.38-.13,.52,.02Z"/><path class="cls-4" d="M23.53,99.3c0,.2-.17,.37-.37,.37s-.37-.17-.37-.37,.17-.37,.37-.37,.37,.17,.37,.37Z"/><path class="cls-4" d="M30.36,89.05c.14,.15,.13,.38-.02,.52-.15,.14-.38,.13-.52-.02-.14-.15-.13-.38,.02-.52s.38-.13,.52,.02Z"/><circle class="cls-4" cx="26.41" cy="84.27" r=".37"/><path class="cls-4" d="M9.18,71.84c0,.2-.17,.37-.37,.37s-.37-.17-.37-.37,.17-.37,.37-.37,.37,.17,.37,.37Z"/><path class="cls-4" d="M16.97,94.74c-.32,.29-.34,.79-.05,1.11s.79,.34,1.11,.05c.32-.29,.34-.79,.05-1.11-.29-.32-.79-.34-1.11-.05Z"/><path class="cls-4" d="M38.23,102.47c-.44,0-.79,.35-.79,.79s.35,.79,.79,.79,.79-.35,.79-.79-.35-.79-.79-.79Z"/><path class="cls-4" d="M39.01,93.47c-.2,0-.37,.17-.37,.37s.17,.37,.37,.37,.37-.17,.37-.37-.17-.37-.37-.37Z"/><path class="cls-4" d="M39.23,83.92c-.19,.07-.4-.03-.47-.22-.07-.19,.03-.4,.22-.47,.19-.07,.4,.03,.47,.22,.07,.19-.03,.4-.22,.47Z"/><path class="cls-4" d="M45.38,74.57c-.19,.07-.4-.03-.47-.22-.07-.19,.03-.4,.22-.47,.19-.07,.4,.03,.47,.22,.07,.19-.03,.4-.22,.47Z"/><path class="cls-4" d="M43.53,81.6c.01-.44-.33-.8-.77-.81-.44-.01-.8,.33-.81,.77-.01,.44,.33,.8,.77,.81,.44,.01,.8-.33,.81-.77Z"/><path class="cls-4" d="M52.51,82.64c0-.2-.15-.37-.36-.38-.2,0-.37,.15-.38,.36,0,.2,.15,.37,.36,.38,.2,0,.37-.15,.38-.36Z"/><path class="cls-4" d="M13.41,103.44c-.15,.14-.16,.37-.02,.52,.14,.15,.37,.16,.52,.02,.15-.14,.16-.37,.02-.52-.14-.15-.37-.16-.52-.02Z"/><path class="cls-4" d="M37.64,145.39c-.44,0-.79,.35-.79,.79s.35,.79,.79,.79,.79-.35,.79-.79-.35-.79-.79-.79Z"/><path class="cls-4" d="M38.43,127.82c-.44,0-.79,.35-.79,.79s.35,.79,.79,.79,.79-.35,.79-.79-.35-.79-.79-.79Z"/><path class="cls-4" d="M53.48,123.56c-.44,0-.79,.35-.79,.79s.35,.79,.79,.79,.79-.35,.79-.79-.35-.79-.79-.79Z"/><path class="cls-4" d="M23.73,135.39c-.2,0-.37,.17-.37,.37s.17,.37,.37,.37,.37-.17,.37-.37-.17-.37-.37-.37Z"/><path class="cls-4" d="M49.3,135.02c-.2,0-.37,.17-.37,.37s.17,.37,.37,.37,.37-.17,.37-.37-.17-.37-.37-.37Z"/><path class="cls-4" d="M23.73,121.55c-.2,0-.37,.17-.37,.37s.17,.37,.37,.37,.37-.17,.37-.37-.17-.37-.37-.37Z"/><path class="cls-4" d="M41.52,119.88c-.2,0-.37,.17-.37,.37s.17,.37,.37,.37,.37-.17,.37-.37-.17-.37-.37-.37Z"/><path class="cls-4" d="M4.15,143.37c.14,.15,.13,.38-.02,.52-.15,.14-.38,.13-.52-.02-.14-.15-.13-.38,.02-.52,.15-.14,.38-.13,.52,.02Z"/><path class="cls-4" d="M69.8,158.74c-.44,0-.79-.35-.79-.79s.35-.79,.79-.79,.79,.35,.79,.79-.35,.79-.79,.79Z"/><path class="cls-4" d="M82.88,161.96c-.44,0-.79-.35-.79-.79s.35-.79,.79-.79,.79,.35,.79,.79-.35,.79-.79,.79Z"/><path class="cls-4" d="M78.19,156.16c-.2,0-.37-.17-.37-.37s.17-.37,.37-.37,.37,.17,.37,.37-.17,.37-.37,.37Z"/><path class="cls-4" d="M19.61,152.31c.29-.32,.27-.82-.05-1.11-.32-.29-.82-.27-1.11,.05-.29,.32-.27,.82,.05,1.11s.82,.27,1.11-.05Z"/><path class="cls-4" d="M11.25,167.38c.14-.15,.13-.38-.02-.52-.15-.14-.38-.13-.52,.02s-.13,.38,.02,.52c.15,.14,.38,.13,.52-.02Z"/><path class="cls-4" d="M37.64,146.97c-.44,0-.79-.35-.79-.79s.35-.79,.79-.79,.79,.35,.79,.79-.35,.79-.79,.79Z"/><path class="cls-4" d="M38.43,164.53c-.44,0-.79-.35-.79-.79s.35-.79,.79-.79,.79,.35,.79,.79-.35,.79-.79,.79Z"/><path class="cls-4" d="M23.73,156.97c-.2,0-.37-.17-.37-.37s.17-.37,.37-.37,.37,.17,.37,.37-.17,.37-.37,.37Z"/><path class="cls-4" d="M49.3,157.34c-.2,0-.37-.17-.37-.37s.17-.37,.37-.37,.37,.17,.37,.37-.17,.37-.37,.37Z"/><path class="cls-4" d="M4.15,148.99c.14-.15,.13-.38-.02-.52-.15-.14-.38-.13-.52,.02-.14,.15-.13,.38,.02,.52,.15,.14,.38,.13,.52-.02Z"/><path class="cls-4" d="M145.48,147.65c.2,0,.37-.17,.37-.37s-.17-.37-.37-.37-.37,.17-.37,.37,.17,.37,.37,.37Z"/><path class="cls-4" d="M142.49,158.74c.44,0,.79-.35,.79-.79s-.35-.79-.79-.79-.79,.35-.79,.79,.35,.79,.79,.79Z"/><path class="cls-4" d="M129.42,161.96c.44,0,.79-.35,.79-.79s-.35-.79-.79-.79-.79,.35-.79,.79,.35,.79,.79,.79Z"/><path class="cls-4" d="M116.68,175.62c.44,0,.79-.35,.79-.79s-.35-.79-.79-.79-.79,.35-.79,.79,.35,.79,.79,.79Z"/><path class="cls-4" d="M106.42,163.74c.44,0,.79-.35,.79-.79s-.35-.79-.79-.79-.79,.35-.79,.79,.35,.79,.79,.79Z"/><circle class="cls-4" cx="134.11" cy="155.79" r=".37"/><path class="cls-4" d="M91.38,169.86c.2,0,.37-.17,.37-.37s-.17-.37-.37-.37-.37,.17-.37,.37,.17,.37,.37,.37Z"/><path class="cls-4" d="M163,157.34c.2,0,.37-.17,.37-.37s-.17-.37-.37-.37-.37,.17-.37,.37,.17,.37,.37,.37Z"/></g><g class="cls-6"><path class="cls-4" d="M93.6,102.38c.2,0,.37-.17,.37-.37s-.17-.37-.37-.37-.37,.17-.37,.37,.17,.37,.37,.37Z"/><circle class="cls-4" cx="90.61" cy="112.69" r=".79"/><path class="cls-4" d="M69.04,103.77c.44,0,.79-.35,.79-.79s-.35-.79-.79-.79-.79,.35-.79,.79,.35,.79,.79,.79Z"/><path class="cls-4" d="M77.54,116.7c.44,0,.79-.35,.79-.79s-.35-.79-.79-.79-.79,.35-.79,.79,.35,.79,.79,.79Z"/><path class="cls-4" d="M82.23,110.9c.2,0,.37-.17,.37-.37s-.17-.37-.37-.37-.37,.17-.37,.37,.17,.37,.37,.37Z"/><path class="cls-4" d="M60.52,102.75c.2,0,.37-.17,.37-.37s-.17-.37-.37-.37-.37,.17-.37,.37,.17,.37,.37,.37Z"/><path class="cls-4" d="M88.91,128.2c.2,0,.37-.17,.37-.37s-.17-.37-.37-.37-.37,.17-.37,.37,.17,.37,.37,.37Z"/><path class="cls-4" d="M98.91,130.05c0-.44,.35-.79,.79-.79s.79,.35,.79,.79-.35,.79-.79,.79-.79-.35-.79-.79Z"/><path class="cls-4" d="M106.99,146.32c-.16-.4,.04-.86,.44-1.02,.4-.16,.86,.04,1.02,.44,.16,.4-.04,.86-.44,1.02-.4,.16-.86-.04-1.02-.44Z"/><path class="cls-4" d="M136.52,170.04c-.16-.4,.04-.86,.44-1.02,.4-.16,.86,.04,1.02,.44,.16,.4-.04,.86-.44,1.02-.4,.16-.86-.04-1.02-.44Z"/><path class="cls-4" d="M127.83,136.32c-.16-.4,.04-.86,.44-1.02,.4-.16,.86,.04,1.02,.44,.16,.4-.04,.86-.44,1.02-.4,.16-.86-.04-1.02-.44Z"/><path class="cls-4" d="M119.75,140.39c-.08-.19,.02-.4,.21-.48s.4,.02,.48,.21c.08,.19-.02,.4-.21,.48-.19,.08-.4-.02-.48-.21Z"/><path class="cls-4" d="M107.57,136.93c-.08-.19,.02-.4,.21-.48,.19-.08,.4,.02,.48,.21,.08,.19-.02,.4-.21,.48-.19,.08-.4-.02-.48-.21Z"/><path class="cls-4" d="M140.81,107.04c-.29-.32-.27-.82,.05-1.11,.32-.29,.82-.27,1.11,.05,.29,.32,.27,.82-.05,1.11-.32,.29-.82,.27-1.11-.05Z"/><path class="cls-4" d="M143.86,134.41c-.29-.32-.27-.82,.05-1.11,.32-.29,.82-.27,1.11,.05,.29,.32,.27,.82-.05,1.11-.32,.29-.82,.27-1.11-.05Z"/><path class="cls-4" d="M149.17,122.11c-.14-.15-.13-.38,.02-.52,.15-.14,.38-.13,.52,.02,.14,.15,.13,.38-.02,.52s-.38,.13-.52-.02Z"/><path class="cls-4" d="M131.9,128.89c-.14-.15-.13-.38,.02-.52,.15-.14,.38-.13,.52,.02,.14,.15,.13,.38-.02,.52-.15,.14-.38,.13-.52-.02Z"/><path class="cls-4" d="M151.61,146.1c0-.44,.35-.79,.79-.79s.79,.35,.79,.79-.35,.79-.79,.79-.79-.35-.79-.79Z"/><path class="cls-4" d="M141.96,159.96c0-.44,.35-.79,.79-.79s.79,.35,.79,.79-.35,.79-.79,.79-.79-.35-.79-.79Z"/><path class="cls-4" d="M133.31,143.02c-.14-.15-.13-.38,.02-.52,.15-.14,.38-.13,.52,.02,.14,.15,.13,.38-.02,.52-.15,.14-.38,.13-.52-.02Z"/><path class="cls-4" d="M136.89,147.8c0-.2,.17-.37,.37-.37s.37,.17,.37,.37-.17,.37-.37,.37-.37-.17-.37-.37Z"/><path class="cls-4" d="M130.06,158.05c-.14-.15-.13-.38,.02-.52,.15-.14,.38-.13,.52,.02,.14,.15,.13,.38-.02,.52-.15,.14-.38,.13-.52-.02Z"/><path class="cls-4" d="M133.64,162.82c0-.2,.17-.37,.37-.37s.37,.17,.37,.37-.17,.37-.37,.37-.37-.17-.37-.37Z"/><path class="cls-4" d="M151.24,175.26c0-.2,.17-.37,.37-.37s.37,.17,.37,.37-.17,.37-.37,.37-.37-.17-.37-.37Z"/><path class="cls-4" d="M154.33,158.8c0-.2,.17-.37,.37-.37s.37,.17,.37,.37-.17,.37-.37,.37-.37-.17-.37-.37Z"/><path class="cls-4" d="M143.44,152.36c.32-.29,.34-.79,.05-1.11-.29-.32-.79-.34-1.11-.05-.32,.29-.34,.79-.05,1.11,.29,.32,.79,.34,1.11,.05Z"/><path class="cls-4" d="M122.19,144.62c.44,0,.79-.35,.79-.79s-.35-.79-.79-.79-.79,.35-.79,.79,.35,.79,.79,.79Z"/><path class="cls-4" d="M155.49,131.62c.44,0,.79-.35,.79-.79s-.35-.79-.79-.79-.79,.35-.79,.79,.35,.79,.79,.79Z"/><path class="cls-4" d="M121.4,153.63c.2,0,.37-.17,.37-.37s-.17-.37-.37-.37-.37,.17-.37,.37,.17,.37,.37,.37Z"/><path class="cls-4" d="M121.18,163.17c.19-.07,.4,.03,.47,.22,.07,.19-.03,.4-.22,.47-.19,.07-.4-.03-.47-.22-.07-.19,.03-.4,.22-.47Z"/><path class="cls-4" d="M115.04,172.52c.19-.07,.4,.03,.47,.22,.07,.19-.03,.4-.22,.47-.19,.07-.4-.03-.47-.22-.07-.19,.03-.4,.22-.47Z"/><path class="cls-4" d="M116.89,165.49c-.01,.44,.33,.8,.77,.81,.44,.01,.8-.33,.81-.77,.01-.44-.33-.8-.77-.81-.44-.01-.8,.33-.81,.77Z"/><path class="cls-4" d="M107.91,164.45c0,.2,.15,.37,.36,.38,.2,0,.37-.15,.38-.36,0-.2-.15-.37-.36-.38-.2,0-.37,.15-.38,.36Z"/><path class="cls-4" d="M147,143.65c.15-.14,.16-.37,.02-.52-.14-.15-.37-.16-.52-.02-.15,.14-.16,.37-.02,.52,.14,.15,.37,.16,.52,.02Z"/><path class="cls-4" d="M122.78,101.7c.44,0,.79-.35,.79-.79s-.35-.79-.79-.79-.79,.35-.79,.79,.35,.79,.79,.79Z"/><path class="cls-4" d="M121.99,119.27c.44,0,.79-.35,.79-.79s-.35-.79-.79-.79-.79,.35-.79,.79,.35,.79,.79,.79Z"/><path class="cls-4" d="M106.94,123.54c.44,0,.79-.35,.79-.79s-.35-.79-.79-.79-.79,.35-.79,.79,.35,.79,.79,.79Z"/><path class="cls-4" d="M136.68,111.7c.2,0,.37-.17,.37-.37s-.17-.37-.37-.37-.37,.17-.37,.37,.17,.37,.37,.37Z"/><circle class="cls-4" cx="111.12" cy="111.7" r=".37"/><path class="cls-4" d="M136.68,125.55c.2,0,.37-.17,.37-.37s-.17-.37-.37-.37-.37,.17-.37,.37,.17,.37,.37,.37Z"/><path class="cls-4" d="M118.89,127.21c.2,0,.37-.17,.37-.37s-.17-.37-.37-.37-.37,.17-.37,.37,.17,.37,.37,.37Z"/><path class="cls-4" d="M156.26,103.72c-.14-.15-.13-.38,.02-.52,.15-.14,.38-.13,.52,.02,.14,.15,.13,.38-.02,.52-.15,.14-.38,.13-.52-.02Z"/><path class="cls-4" d="M90.61,88.35c.44,0,.79,.35,.79,.79s-.35,.79-.79,.79-.79-.35-.79-.79,.35-.79,.79-.79Z"/><path class="cls-4" d="M77.54,85.13c.44,0,.79,.35,.79,.79s-.35,.79-.79,.79-.79-.35-.79-.79,.35-.79,.79-.79Z"/><path class="cls-4" d="M82.23,90.93c.2,0,.37,.17,.37,.37s-.17,.37-.37,.37-.37-.17-.37-.37,.17-.37,.37-.37Z"/><path class="cls-4" d="M140.81,94.78c-.29,.32-.27,.82,.05,1.11,.32,.29,.82,.27,1.11-.05,.29-.32,.27-.82-.05-1.11-.32-.29-.82-.27-1.11,.05Z"/><path class="cls-4" d="M149.17,79.72c-.14,.15-.13,.38,.02,.52,.15,.14,.38,.13,.52-.02,.14-.15,.13-.38-.02-.52s-.38-.13-.52,.02Z"/><path class="cls-4" d="M122.78,100.13c.44,0,.79,.35,.79,.79s-.35,.79-.79,.79-.79-.35-.79-.79,.35-.79,.79-.79Z"/><path class="cls-4" d="M121.99,82.56c.44,0,.79,.35,.79,.79s-.35,.79-.79,.79-.79-.35-.79-.79,.35-.79,.79-.79Z"/><path class="cls-4" d="M136.68,90.12c.2,0,.37,.17,.37,.37s-.17,.37-.37,.37-.37-.17-.37-.37,.17-.37,.37-.37Z"/><circle class="cls-4" cx="111.12" cy="90.12" r=".37"/><path class="cls-4" d="M156.26,98.11c-.14,.15-.13,.38,.02,.52,.15,.14,.38,.13,.52-.02,.14-.15,.13-.38-.02-.52-.15-.14-.38-.13-.52,.02Z"/><circle class="cls-4" cx="14.93" cy="99.82" r=".37"/><path class="cls-4" d="M17.92,88.35c-.44,0-.79,.35-.79,.79s.35,.79,.79,.79,.79-.35,.79-.79-.35-.79-.79-.79Z"/><path class="cls-4" d="M30.99,85.13c-.44,0-.79,.35-.79,.79s.35,.79,.79,.79,.79-.35,.79-.79-.35-.79-.79-.79Z"/><path class="cls-4" d="M43.73,71.47c-.44,0-.79,.35-.79,.79s.35,.79,.79,.79,.79-.35,.79-.79-.35-.79-.79-.79Z"/><path class="cls-4" d="M53.99,83.35c-.44,0-.79,.35-.79,.79s.35,.79,.79,.79,.79-.35,.79-.79-.35-.79-.79-.79Z"/><path class="cls-4" d="M26.3,90.93c-.2,0-.37,.17-.37,.37s.17,.37,.37,.37,.37-.17,.37-.37-.17-.37-.37-.37Z"/><path class="cls-4" d="M69.04,77.23c-.2,0-.37,.17-.37,.37s.17,.37,.37,.37,.37-.17,.37-.37-.17-.37-.37-.37Z"/></g></g></g></g><path class="cls-9" d="M44.94,58.48c-.7-.15-1.42-.28-2.12-.13-1.2,.26-2.06,1.28-2.82,2.23-.03-.21-.13-.43-.23-.65-.14-.32-.47-.52-.82-.49-1.53,.15-2.99,.95-3.92,2.17-.14,.18-.41,.13-.49-.08-.04-.11-.09-.23-.14-.34-.1-.22-.41-.21-.51,0-.2,.41-.44,.81-.71,1.18-.07,.1-.23,.07-.26-.05-.05-.25-.21-.52-.42-.74,.91-.64,1.53-1.62,2.14-2.54,.09-.14,.12-.32,.05-.48-.14-.3-.51-.44-.79-.63-.17-.12-.11-.39,.09-.43,.72-.15,1.36-.68,1.76-1.32,.47-.76,.66-1.66,.83-2.55,.55-2.97,.87-6.09,1.02-9.1h0c-2.1,.73-4.16,1.62-6.13,2.64-.63,.33-1.28,.69-1.72,1.25-.76,.96-.78,2.29-.76,3.52-.16-.14-.38-.25-.59-.35-.31-.16-.7-.1-.95,.14-1.09,1.08-1.7,2.63-1.66,4.17,0,.23-.24,.36-.43,.25-.11-.06-.22-.12-.33-.17-.22-.1-.45,.1-.39,.33,.11,.45,.18,.9,.2,1.36,0,.12-.14,.2-.24,.12-.11-.09-.25-.16-.39-.21,.28-1.04,.17-2.15,.09-3.22-.01-.17-.1-.33-.25-.41-.29-.15-.67-.03-1.01,0-.21,.01-.33-.24-.19-.4,.48-.56,.65-1.38,.57-2.12-.1-.89-.51-1.72-.92-2.51-1.4-2.68-3.08-5.32-4.82-7.79h0c-1.2,1.88-2.27,3.84-3.19,5.87-.3,.65-.58,1.33-.58,2.04,0,1.22,.8,2.28,1.57,3.24-.21-.02-.45,.04-.68,.08-.35,.07-.61,.35-.65,.7-.19,1.52,.29,3.12,1.27,4.3,.15,.17,.04,.43-.19,.46-.12,.02-.24,.04-.36,.07-.23,.05-.3,.35-.11,.5,.36,.28,.69,.6,1,.94,.08,.09,.01,.24-.11,.24-.5,0-1.15,.36-1.33,.79-.26,.63-.01,1.34,.26,1.97,.51,1.2,1.12,2.38,1.81,3.5,0,0,0,0,0,0-.04,.04-.07,.09-.1,.15,0,.02-.02,.04-.03,.06-.02,.04-.03,.07-.05,.11-.01,.03-.03,.07-.04,.1-.01,.03-.02,.06-.03,.09-.02,.06-.04,.11-.06,.17-.03,.08-.07,.16-.11,.23-.06,.09-.19,.03-.17-.08,.14-.54-.04-1.16-.38-1.62-.43-.58-1.07-.96-1.68-1.35-.09-.06-.21-.07-.31-.03-.19,.09-.27,.33-.39,.52-.07,.11-.25,.08-.28-.05-.11-.46-.46-.86-.88-1.11-.5-.29-1.08-.4-1.65-.49-1.92-.31-3.92-.46-5.86-.51h0c.5,1.34,1.1,2.64,1.8,3.9,.22,.4,.46,.81,.83,1.09,.63,.47,1.48,.46,2.27,.43-.09,.1-.15,.25-.22,.38-.1,.2-.06,.45,.11,.6,.71,.68,1.72,1.05,2.7,1,.15,0,.24,.15,.17,.27-.04,.07-.07,.14-.11,.21-.06,.14,.07,.29,.22,.25,.28-.08,.58-.13,.87-.15,.08,0,.13,.09,.08,.15-.19,.25-.26,.73-.1,.99,.22,.38,.69,.52,1.11,.62,.22,.05,.43,.1,.65,.14,.04,0,.09,.02,.13,.03,.22,.04,.44,.08,.65,.11,0,0,0,0,0,0-1.64,.49-3.23,1.17-4.72,1.97-.6,.32-1.24,.72-1.43,1.38-.13,.45,.15,1.14,.55,1.45,.1,.08,.06,.24-.07,.26-.45,.08-.91,.12-1.37,.12-.24,0-.38,.27-.23,.46,.08,.1,.16,.19,.24,.28,.16,.16,.08,.43-.14,.48-1.5,.31-2.87,1.26-3.67,2.57-.18,.3-.15,.68,.08,.95,.15,.18,.3,.37,.48,.49-1.2,.26-2.49,.59-3.25,1.55-.44,.56-.64,1.27-.82,1.96-.55,2.16-.93,4.36-1.16,6.58h0c2.9-.84,5.86-1.86,8.63-3.08,.82-.36,1.65-.76,2.29-1.39,.53-.53,.9-1.28,.88-2.01,0-.21,.24-.33,.4-.19,.25,.23,.48,.56,.8,.63,.16,.03,.34-.04,.45-.16,.73-.79,1.51-1.59,1.94-2.57,.15,.05,.3,.08,.44,.08,.12,0,.19,.15,.11,.24-.3,.34-.64,.66-1,.94-.19,.15-.13,.45,.1,.5,.12,.03,.24,.05,.36,.07,.23,.03,.33,.29,.18,.46-.99,1.17-1.48,2.76-1.3,4.29,.04,.35,.3,.63,.65,.7,.23,.05,.47,.1,.68,.09-.78,.95-1.59,2-1.59,3.23,0,.72,.28,1.4,.57,2.05,.91,2.04,1.96,4,3.15,5.89h0c1.76-2.45,3.46-5.08,4.88-7.75,.42-.79,.83-1.62,.94-2.51,.09-.75-.08-1.56-.55-2.13-.14-.16-.02-.41,.2-.4,.34,.02,.72,.14,1.01,0,.15-.07,.24-.24,.26-.41,.09-1.1,.22-2.25-.09-3.32,.29-.04,.59-.15,.79-.32,.1-.08,.24,0,.24,.12-.02,.46-.08,.91-.18,1.36-.05,.24,.18,.43,.4,.32,.11-.05,.22-.11,.32-.18,.19-.12,.44,.01,.44,.24-.03,1.53,.61,3.07,1.72,4.14,.25,.24,.64,.29,.95,.13,.21-.11,.43-.22,.58-.36,0,1.22,.04,2.56,.81,3.5,.45,.55,1.1,.9,1.74,1.22,1.99,1,4.06,1.85,6.17,2.55h0c-.19-3.01-.55-6.13-1.15-9.09-.18-.88-.38-1.78-.87-2.53-.4-.63-1.05-1.16-1.78-1.29-.21-.04-.27-.31-.1-.43,.28-.2,.65-.35,.78-.64,.07-.15,.04-.34-.06-.48-.63-.92-1.27-1.89-2.2-2.52-.74-.5-1.71-.74-2.54-.49-.16,.05-.27-.16-.13-.26,.51-.36,1.48-.42,1.6-1.11,.04-.2-.02-.41-.13-.58-.03-.05-.07-.1-.1-.16,1.12,1.02,2.21,2.06,3.28,3.12,.13,.13,.26,.26,.38,.38,1.58,1.58,3.1,3.2,4.57,4.86,.09,.1,.18,.21,.27,.31,1.52,1.74,2.98,3.52,4.39,5.35,.07,.09,.14,.18,.2,.27,1.39,1.82,2.73,3.69,4.02,5.6,.1,.15,.19,.29,.29,.44,2.18,3.26,4.2,6.65,6.09,10.16,.28,.52,.82,.8,1.36,.79,.22,0,.43-.06,.64-.16,.1-.05,.2-.11,.29-.19,.85-.7,1.74-1.33,2.7-1.83,.73-.37,1.05-1.24,.7-1.98-2.23-4.78-5-9.33-8.21-13.56h0s0-.01-.01-.02c-.21-.28-.43-.56-.64-.84,0,0,0,0,0,0h0c-1.35-1.73-2.78-3.41-4.28-5.02h0s0,0,0,0c-.24-.26-.49-.53-.74-.79,0,0,0,0,0,0h0c-3.49-3.67-7.34-7-11.45-9.93h0s0,0,0,0c-.3-.21-.6-.42-.9-.63,0,0,0,0,0,0h0c-1.47-1.01-2.97-1.98-4.5-2.88,1.37-.17,2.72-.48,4.01-.92,.19-.07,.37-.19,.46-.37,.33-.62-.39-1.27-.56-1.87-.05-.16,.17-.26,.26-.12,.49,.72,1.4,1.14,2.29,1.21,1.12,.08,2.22-.28,3.29-.6,.16-.05,.3-.17,.34-.34,.08-.32-.12-.66-.21-.99-.06-.2,.16-.37,.35-.27,.65,.35,1.49,.34,2.2,.1,.85-.29,1.57-.87,2.26-1.44,2.31-1.94,4.53-4.15,6.56-6.39h0c-2.09-.77-4.24-1.39-6.42-1.85Z"/><g><polygon class="cls-10" points="138.99 89.04 101.3 90.13 113.81 116.26 138.99 89.04"/><polygon class="cls-7" points="145.24 86.84 106.99 86.38 120.72 115.08 145.24 86.84"/></g><g><polygon class="cls-4" points="40.12 137.16 41.91 125.08 46.27 125.72 50.36 98.09 54.72 98.74 55.37 94.37 59.73 95.02 60.38 90.66 64.74 91.3 65.38 86.94 69.75 87.58 71.19 77.86 66.82 77.21 67.47 72.85 63.11 72.2 63.75 67.84 59.39 67.19 60.03 62.83 55.67 62.19 59.76 34.56 55.39 33.91 57.18 21.82 117.26 30.71 115.47 42.79 111.11 42.15 107.02 69.78 102.66 69.14 102.01 73.5 97.65 72.85 97.01 77.22 92.64 76.57 92 80.93 87.63 80.29 86.2 90.02 90.56 90.66 89.91 95.03 94.28 95.67 93.63 100.03 97.99 100.68 97.35 105.04 101.71 105.69 97.63 133.32 101.99 133.96 100.2 146.05 40.12 137.16"/><path class="cls-8" d="M59.3,94.44l-4.36-.65-.65,4.36,4.36,.65,.65-4.36Zm5.01-3.72l-4.36-.65-.65,4.36,4.36,.65,.65-4.36Zm5.01-3.72l-4.36-.65-.65,4.36,4.36,.65,.65-4.36Zm5.65-8.08l-4.36-.65-1.29,8.73,4.36,.65,1.29-8.73Zm-15.52-15.67l-.65,4.36,4.36,.65,.65-4.36-4.36-.65Zm3.72,5.01l-.65,4.36,4.36,.65,.65-4.36-4.36-.65Zm3.72,5.01l-.65,4.36,4.36,.65,.65-4.36-4.36-.65Zm31.03,31.34l.65-4.36-4.36-.65-.65,4.36,4.36,.65Zm-8.45,26.99l.65-4.36-4.36-.65-.65,4.36-4.97-.73,1.29-8.73-4.36-.65-1.29,8.73-4.36-.65,.65-4.36-4.36-.65-.65,4.36-16.85-2.49,4.09-27.63-4.36-.65-4.09,27.63-4.36-.65-1.94,13.09,61.08,9.03,1.94-13.09-4.36-.65,4.09-27.63-4.36-.65-4.09,27.63-4.36-.65Zm4.73-31.99l.65-4.36-4.36-.65-.65,4.36,4.36,.65Zm-3.72-5.01l.65-4.36-4.36-.65-.65,4.36,4.36,.65Zm-6.79-14.38l-1.29,8.73,4.36,.65,1.29-8.73-4.36-.65Zm14.38-6.79l4.36,.65,.65-4.36-4.36-.65-.65,4.36Zm9.09-31.35l-4.09,27.63,4.36,.65,4.09-27.63,4.36,.65,1.94-13.09-61.08-9.03-1.94,13.09,4.36,.65-4.09,27.63,4.36,.65,4.09-27.63,43.63,6.45Zm-14.1,35.07l4.36,.65,.65-4.36-4.36-.65-.65,4.36Zm-5.01,3.72l4.36,.65,.65-4.36-4.36-.65-.65,4.36Zm-8.08-5.65l-.65,4.36,4.36,.65,.65-4.36-4.36-.65Zm-8.23,25.53l4.36,.65,.65-4.36-4.36-.65-.65,4.36Zm1.61,15.1l-.65,4.36,4.36,.65,.65-4.36-4.36-.65Zm2.91-45.64l-.65,4.36,4.36,.65,.65-4.36-4.36-.65Zm5.01-3.72l4.36,.65,.65-4.36-4.36-.65-.65,4.36Zm10.02-7.44l-4.36-.65-.65,4.36,4.36,.65,.65-4.36Zm5.01-3.72l-4.36-.65-.65,4.36,4.36,.65,.65-4.36Zm-18.1,1.78l-4.36-.65-.65,4.36,4.36,.65,.65-4.36Zm-8.08-5.65l-.65,4.36,4.36,.65,.65-4.36-4.36-.65Zm13.09,1.94l-4.36-.65-.65,4.36,4.36,.65,.65-4.36Z"/><path class="cls-13" d="M59.3,94.44l-4.36-.65-.65,4.36,4.36,.65,.65-4.36Zm5.01-3.72l-4.36-.65-.65,4.36,4.36,.65,.65-4.36Zm5.01-3.72l-4.36-.65-.65,4.36,4.36,.65,.65-4.36Zm5.65-8.08l-4.36-.65-1.29,8.73,4.36,.65,1.29-8.73Zm-15.52-15.67l-.65,4.36,4.36,.65,.65-4.36-4.36-.65Zm3.72,5.01l-.65,4.36,4.36,.65,.65-4.36-4.36-.65Zm3.72,5.01l-.65,4.36,4.36,.65,.65-4.36-4.36-.65Zm31.03,31.34l.65-4.36-4.36-.65-.65,4.36,4.36,.65Zm-8.45,26.99l.65-4.36-4.36-.65-.65,4.36-4.97-.73,1.29-8.73-4.36-.65-1.29,8.73-4.36-.65,.65-4.36-4.36-.65-.65,4.36-16.85-2.49,4.09-27.63-4.36-.65-4.09,27.63-4.36-.65-1.94,13.09,61.08,9.03,1.94-13.09-4.36-.65,4.09-27.63-4.36-.65-4.09,27.63-4.36-.65Zm4.73-31.99l.65-4.36-4.36-.65-.65,4.36,4.36,.65Zm-3.72-5.01l.65-4.36-4.36-.65-.65,4.36,4.36,.65Zm-6.79-14.38l-1.29,8.73,4.36,.65,1.29-8.73-4.36-.65Zm14.38-6.79l4.36,.65,.65-4.36-4.36-.65-.65,4.36Zm9.09-31.35l-4.09,27.63,4.36,.65,4.09-27.63,4.36,.65,1.94-13.09-61.08-9.03-1.94,13.09,4.36,.65-4.09,27.63,4.36,.65,4.09-27.63,43.63,6.45Zm-14.1,35.07l4.36,.65,.65-4.36-4.36-.65-.65,4.36Zm-5.01,3.72l4.36,.65,.65-4.36-4.36-.65-.65,4.36Zm-8.08-5.65l-.65,4.36,4.36,.65,.65-4.36-4.36-.65Zm-8.23,25.53l4.36,.65,.65-4.36-4.36-.65-.65,4.36Zm1.61,15.1l-.65,4.36,4.36,.65,.65-4.36-4.36-.65Zm2.91-45.64l-.65,4.36,4.36,.65,.65-4.36-4.36-.65Zm5.01-3.72l4.36,.65,.65-4.36-4.36-.65-.65,4.36Zm10.02-7.44l-4.36-.65-.65,4.36,4.36,.65,.65-4.36Zm5.01-3.72l-4.36-.65-.65,4.36,4.36,.65,.65-4.36Zm-18.1,1.78l-4.36-.65-.65,4.36,4.36,.65,.65-4.36Zm-8.08-5.65l-.65,4.36,4.36,.65,.65-4.36-4.36-.65Zm13.09,1.94l-4.36-.65-.65,4.36,4.36,.65,.65-4.36Z"/></g></g></g></g></svg>