<?xml version="1.0" encoding="UTF-8"?><svg id="Capa_1" xmlns="http://www.w3.org/2000/svg" viewBox="0 0 30.08 30.08"><defs><style>.cls-1{fill:#58585a;}.cls-1,.cls-2,.cls-3,.cls-4,.cls-5,.cls-6{fill-rule:evenodd;}.cls-2{fill:#363638;}.cls-3{fill:#231f20;}.cls-4{fill:#a09d9d;}.cls-5{fill:#f13e2d;}.cls-6{fill:#fefefe;}</style></defs><g id="WS3Sdq"><g><path class="cls-3" d="M30.08,15.08c.09,7.55-6.08,14.91-14.91,14.99C6.84,30.15,0,23.49,0,15.07,0,6.39,6.98,.11,14.83,0c8.35-.11,15.27,6.63,15.25,15.08Z"/><path class="cls-5" d="M5.95,3.59c.51-.44,1.07-.8,1.64-1.14,1.72-1.02,3.57-1.68,5.56-1.91,4.38-.51,8.27,.66,11.6,3.57,2.52,2.21,4.06,5,4.69,8.3,.12,.6,.18,1.21,.22,1.83,.01,.21,0,.21-.18,.13-1.04-.42-2.06-.9-3.12-1.31-.84-.32-1.7-.58-2.59-.76-.16-.03-.22-.1-.26-.25-.54-2.11-2.45-3.69-4.62-3.83-2.23-.14-4.18,1.01-5.12,3.04-.07,.14-.14,.18-.29,.19-2.58,.08-5.11,.49-7.59,1.21-1.75,.51-3.47,1.13-5.17,1.8-.09,.03-.18,.07-.28,.1-.03-.18,0-.35,.01-.52,.24-3.29,1.46-6.18,3.63-8.67,.11-.13,.24-.25,.35-.38,.05,.09-.02,.15-.06,.21-.36,.53-.63,1.11-.74,1.75-.12,.77,.02,1.46,.57,2.03,.3,.31,.68,.5,1.1,.59,.81,.17,1.59,.05,2.35-.24,.71-.28,1.35-.7,1.89-1.24,.72-.72,1.26-1.56,1.4-2.6,.19-1.43-.64-2.41-1.93-2.59-.99-.14-1.9,.13-2.76,.6-.09,.05-.17,.16-.3,.1Z"/><path class="cls-6" d="M5.43,16.59c1.38-.37,2.78-.66,4.19-.87,.95-.14,1.9-.24,2.85-.31,.37-.03,.74-.03,1.11-.06,.12,0,.15,.05,.19,.14,.65,1.39,1.7,2.36,3.17,2.82,1.77,.55,3.4,.2,4.85-.95,.39-.31,.72-.68,.99-1.09,.07-.11,.14-.14,.26-.11,1.82,.38,3.59,.92,5.32,1.58,.27,.1,.53,.21,.8,.3,.14,.05,.15,.12,.12,.24-.15,.6-.32,1.2-.53,1.78-.3,.8-.65,1.59-1.1,2.32-.04,.07-.1,.13-.14,.2-.15,.23-.38,.37-.58,.55-.56,.51-1.16,.97-1.8,1.38-1.14,.73-2.37,1.25-3.67,1.61-.79,.21-1.6,.35-2.41,.41-2.2,.15-4.31-.21-6.33-1.1-.95-.42-1.84-.94-2.65-1.58-.83-.64-1.57-1.36-2.23-2.19-1.15-1.44-1.97-3.05-2.44-4.83-.02-.08-.06-.16,.04-.22Z"/><path class="cls-4" d="M5.43,16.59c-.04,.05-.02,.11,0,.17,.32,1.23,.81,2.39,1.48,3.48,.81,1.32,1.82,2.47,3.04,3.43,1.64,1.3,3.49,2.15,5.54,2.57,.67,.14,1.34,.21,2.02,.24,1.74,.08,3.42-.18,5.05-.77,1-.36,1.93-.84,2.81-1.43,.7-.46,1.32-1.01,1.95-1.56,.06-.05,.13-.1,.2-.15-.12,.31-.33,.56-.51,.83-.58,.85-1.27,1.61-2.02,2.31-.85,.79-1.79,1.47-2.8,2.04-1.18,.66-2.43,1.15-3.74,1.46-.78,.19-1.57,.3-2.37,.36-.34,.02-.69,.03-1.03,.04-.47,.01-.95-.02-1.42-.07-1.31-.13-2.58-.43-3.81-.9-1.58-.61-3.01-1.45-4.29-2.56-2.4-2.08-3.98-4.66-4.74-7.74-.04-.16,0-.22,.15-.27,1.41-.54,2.84-1.02,4.3-1.41,.07-.02,.15-.04,.22-.06Z"/><path class="cls-1" d="M1.49,14.44c.7-.27,1.41-.53,2.12-.78,.81-.28,1.62-.55,2.44-.77,1.03-.27,2.06-.53,3.11-.71,.81-.14,1.63-.26,2.45-.33,.52-.04,1.03-.09,1.55-.11,.21,0,.42-.03,.62-.03,.1,0,.13-.05,.16-.13,.4-1.02,1.07-1.81,1.99-2.38,.6-.37,1.25-.6,1.96-.68,1.32-.15,2.51,.17,3.56,.97,.93,.71,1.53,1.65,1.79,2.8,.04,.16,.11,.22,.26,.25,1.54,.29,2.99,.86,4.42,1.49,.55,.25,1.12,.48,1.68,.71,.1,.04,.16,.1,.16,.21,.03,.93,0,1.86-.21,2.77-.03,.14-.11,.11-.2,.07-.95-.38-1.9-.72-2.87-1.03-1.19-.38-2.4-.7-3.62-.95-.12-.03-.16,.04-.21,.11-.39,.63-.89,1.16-1.52,1.56-.68,.43-1.42,.69-2.22,.76-1.16,.1-2.2-.18-3.16-.82-.83-.55-1.41-1.31-1.79-2.22-.05-.13-.12-.15-.24-.15-.59,.04-1.19,.06-1.78,.11-.78,.07-1.56,.16-2.33,.27-1.06,.15-2.12,.36-3.17,.6-.39,.09-.77,.23-1.16,.33-.49,.12-.97,.27-1.45,.41-.09,.02-.16,.08-.25,.08-.18,.06-.34-.01-.5-.08-.94-.4-1.48-1.12-1.64-2.13-.01-.07-.02-.14,.06-.19Z"/><path class="cls-6" d="M5.95,3.59c.08,.01,.12-.05,.17-.08,.79-.46,1.63-.73,2.55-.71,1.09,.03,1.96,.63,2.24,1.57,.16,.54,.13,1.09-.03,1.62-.38,1.26-1.2,2.18-2.29,2.88-.85,.55-1.78,.86-2.81,.8-1.17-.06-2.04-.79-2.22-1.87-.1-.61,.02-1.19,.25-1.75,.14-.33,.31-.64,.52-.94,.03-.05,.09-.08,.08-.15,.15-.16,.29-.31,.44-.47,.33-.35,.71-.63,1.08-.92Z"/><path class="cls-2" d="M1.49,14.44c-.06,.17,0,.34,.05,.5,.27,.97,.9,1.6,1.87,1.88,.05,.01,.11,0,.16,.01-.48,.16-.96,.32-1.44,.49-.46,.16-.93,.31-1.38,.51-.11,.05-.13,0-.16-.09-.08-.3-.12-.6-.17-.91-.1-.59-.06-1.19-.07-1.78,0-.13,.04-.2,.17-.25,.33-.12,.64-.28,.98-.38Z"/><path class="cls-3" d="M18.63,9.68c1.96-.02,3.61,1.6,3.59,3.62-.02,1.97-1.59,3.57-3.61,3.57-2.02,0-3.58-1.64-3.58-3.6,0-1.97,1.61-3.62,3.61-3.59Z"/><path class="cls-6" d="M15.33,13.24c.02-1.82,1.51-3.29,3.32-3.27,1.86,.02,3.29,1.51,3.26,3.4-.02,1.77-1.55,3.2-3.38,3.17-1.76-.02-3.22-1.54-3.2-3.31Z"/><path class="cls-3" d="M18.62,10.74c1.41,0,2.54,1.15,2.53,2.55-.01,1.4-1.14,2.52-2.54,2.52-1.41,0-2.54-1.15-2.52-2.56,.01-1.38,1.15-2.51,2.53-2.5Z"/><path class="cls-6" d="M20.95,13.31c-.06,1.36-1.13,2.35-2.47,2.28-1.24-.06-2.26-1.17-2.19-2.4,.07-1.3,1.15-2.32,2.42-2.25,1.28,.06,2.3,1.15,2.25,2.37Z"/></g></g></svg>