<?xml version="1.0" encoding="UTF-8"?><svg id="Capa_1" xmlns="http://www.w3.org/2000/svg" viewBox="0 0 200 200"><defs><style>.cls-1{fill:#58585a;}.cls-1,.cls-2,.cls-3,.cls-4,.cls-5,.cls-6{fill-rule:evenodd;}.cls-2{fill:#363638;}.cls-3{fill:#231f20;}.cls-4{fill:#a09d9d;}.cls-5{fill:#f13e2d;}.cls-6{fill:#fefefe;}</style></defs><g id="WS3Sdq"><g><path class="cls-3" d="M199.47,100.3c.6,49.93-40.21,98.61-98.61,99.14C45.76,199.97,.53,155.92,.53,100.23S46.69,1.29,98.61,.57c55.22-.73,100.99,43.85,100.86,99.73Z"/><path class="cls-5" d="M39.88,24.31c3.37-2.91,7.08-5.29,10.85-7.54,11.38-6.75,23.61-11.11,36.77-12.63,28.97-3.37,54.69,4.37,76.72,23.61,16.67,14.62,26.85,33.07,31.02,54.89,.79,3.97,1.19,8,1.45,12.1,.07,1.39,0,1.39-1.19,.86-6.88-2.78-13.62-5.95-20.63-8.66-5.56-2.12-11.24-3.84-17.13-5.03-1.06-.2-1.45-.66-1.72-1.65-3.57-13.95-16.2-24.4-30.56-25.33-14.75-.93-27.65,6.68-33.86,20.11-.46,.93-.93,1.19-1.92,1.26-17.06,.53-33.8,3.24-50.2,8-11.57,3.37-22.95,7.47-34.19,11.9-.6,.2-1.19,.46-1.85,.66-.2-1.19,0-2.31,.07-3.44,1.59-21.76,9.66-40.87,24.01-57.34,.73-.86,1.59-1.65,2.31-2.51,.33,.6-.13,.99-.4,1.39-2.38,3.51-4.17,7.34-4.89,11.57-.79,5.09,.13,9.66,3.77,13.43,1.98,2.05,4.5,3.31,7.28,3.9,5.36,1.12,10.52,.33,15.54-1.59,4.7-1.85,8.93-4.63,12.5-8.2,4.76-4.76,8.33-10.32,9.26-17.2,1.26-9.46-4.23-15.94-12.76-17.13-6.55-.93-12.57,.86-18.25,3.97-.6,.33-1.12,1.06-1.98,.66v-.07Z"/><path class="cls-6" d="M36.44,110.29c9.13-2.45,18.39-4.37,27.71-5.75,6.28-.93,12.57-1.59,18.85-2.05,2.45-.2,4.89-.2,7.34-.4,.79,0,.99,.33,1.26,.93,4.3,9.19,11.24,15.61,20.97,18.65,11.71,3.64,22.49,1.32,32.08-6.28,2.58-2.05,4.76-4.5,6.55-7.21,.46-.73,.93-.93,1.72-.73,12.04,2.51,23.74,6.08,35.18,10.45,1.79,.66,3.51,1.39,5.29,1.98,.93,.33,.99,.79,.79,1.59-.99,3.97-2.12,7.94-3.51,11.77-1.98,5.29-4.3,10.52-7.28,15.34-.26,.46-.66,.86-.93,1.32-.99,1.52-2.51,2.45-3.84,3.64-3.7,3.37-7.67,6.42-11.9,9.13-7.54,4.83-15.67,8.27-24.27,10.65-5.22,1.39-10.58,2.31-15.94,2.71-14.55,.99-28.5-1.39-41.86-7.28-6.28-2.78-12.17-6.22-17.53-10.45-5.49-4.23-10.38-8.99-14.75-14.48-7.61-9.52-13.03-20.17-16.14-31.94-.13-.53-.4-1.06,.26-1.45l-.07-.13Z"/><path class="cls-4" d="M36.44,110.29c-.26,.33-.13,.73,0,1.12,2.12,8.13,5.36,15.81,9.79,23.02,5.36,8.73,12.04,16.34,20.11,22.68,10.85,8.6,23.08,14.22,36.64,17,4.43,.93,8.86,1.39,13.36,1.59,11.51,.53,22.62-1.19,33.4-5.09,6.61-2.38,12.76-5.56,18.58-9.46,4.63-3.04,8.73-6.68,12.9-10.32,.4-.33,.86-.66,1.32-.99-.79,2.05-2.18,3.7-3.37,5.49-3.84,5.62-8.4,10.65-13.36,15.28-5.62,5.22-11.84,9.72-18.52,13.49-7.8,4.37-16.07,7.61-24.74,9.66-5.16,1.26-10.38,1.98-15.67,2.38-2.25,.13-4.56,.2-6.81,.26-3.11,.07-6.28-.13-9.39-.46-8.66-.86-17.06-2.84-25.2-5.95-10.45-4.03-19.91-9.59-28.37-16.93-15.87-13.76-26.32-30.82-31.35-51.19-.26-1.06,0-1.45,.99-1.79,9.33-3.57,18.78-6.75,28.44-9.33,.46-.13,.99-.26,1.45-.4l-.2-.07Z"/><path class="cls-1" d="M10.38,96.07c4.63-1.79,9.33-3.51,14.02-5.16,5.36-1.85,10.71-3.64,16.14-5.09,6.81-1.79,13.62-3.51,20.57-4.7,5.36-.93,10.78-1.72,16.2-2.18,3.44-.26,6.81-.6,10.25-.73,1.39,0,2.78-.2,4.1-.2,.66,0,.86-.33,1.06-.86,2.65-6.75,7.08-11.97,13.16-15.74,3.97-2.45,8.27-3.97,12.96-4.5,8.73-.99,16.6,1.12,23.54,6.42,6.15,4.7,10.12,10.91,11.84,18.52,.26,1.06,.73,1.46,1.72,1.65,10.18,1.92,19.77,5.69,29.23,9.85,3.64,1.65,7.41,3.17,11.11,4.7,.66,.26,1.06,.66,1.06,1.39,.2,6.15,0,12.3-1.39,18.32-.2,.93-.73,.73-1.32,.46-6.28-2.51-12.57-4.76-18.98-6.81-7.87-2.51-15.87-4.63-23.94-6.28-.79-.2-1.06,.26-1.39,.73-2.58,4.17-5.89,7.67-10.05,10.32-4.5,2.84-9.39,4.56-14.68,5.03-7.67,.66-14.55-1.19-20.9-5.42-5.49-3.64-9.33-8.66-11.84-14.68-.33-.86-.79-.99-1.59-.99-3.9,.26-7.87,.4-11.77,.73-5.16,.46-10.32,1.06-15.41,1.79-7.01,.99-14.02,2.38-20.97,3.97-2.58,.6-5.09,1.52-7.67,2.18-3.24,.79-6.42,1.79-9.59,2.71-.6,.13-1.06,.53-1.65,.53-1.19,.4-2.25-.07-3.31-.53-6.22-2.65-9.79-7.41-10.85-14.09-.07-.46-.13-.93,.4-1.26l-.07-.07Z"/><path class="cls-6" d="M39.88,24.31c.53,.07,.79-.33,1.12-.53,5.22-3.04,10.78-4.83,16.86-4.7,7.21,.2,12.96,4.17,14.81,10.38,1.06,3.57,.86,7.21-.2,10.71-2.51,8.33-7.94,14.42-15.15,19.05-5.62,3.64-11.77,5.69-18.58,5.29-7.74-.4-13.49-5.22-14.68-12.37-.66-4.03,.13-7.87,1.65-11.57,.93-2.18,2.05-4.23,3.44-6.22,.2-.33,.6-.53,.53-.99,.99-1.06,1.92-2.05,2.91-3.11,2.18-2.31,4.7-4.17,7.14-6.08l.13,.13Z"/><path class="cls-2" d="M10.38,96.07c-.4,1.12,0,2.25,.33,3.31,1.79,6.42,5.95,10.58,12.37,12.43,.33,.07,.73,0,1.06,.07-3.17,1.06-6.35,2.12-9.52,3.24-3.04,1.06-6.15,2.05-9.13,3.37-.73,.33-.86,0-1.06-.6-.53-1.98-.79-3.97-1.12-6.02-.66-3.9-.4-7.87-.46-11.77,0-.86,.26-1.32,1.12-1.65,2.18-.79,4.23-1.85,6.48-2.51l-.07,.13Z"/><path class="cls-3" d="M123.74,64.59c12.96-.13,23.88,10.58,23.74,23.94-.13,13.03-10.52,23.61-23.88,23.61s-23.68-10.85-23.68-23.81,10.65-23.94,23.88-23.74h-.07Z"/><path class="cls-6" d="M101.91,88.13c.13-12.04,9.99-21.76,21.96-21.63,12.3,.13,21.76,9.99,21.56,22.49-.13,11.71-10.25,21.16-22.35,20.97-11.64-.13-21.3-10.19-21.16-21.89v.07Z"/><path class="cls-3" d="M123.67,71.6c9.33,0,16.8,7.61,16.73,16.86-.07,9.26-7.54,16.67-16.8,16.67s-16.8-7.61-16.67-16.93c.07-9.13,7.61-16.6,16.73-16.53v-.07Z"/><path class="cls-6" d="M139.08,88.59c-.4,8.99-7.47,15.54-16.34,15.08-8.2-.4-14.95-7.74-14.48-15.87,.46-8.6,7.61-15.34,16.01-14.88,8.47,.4,15.21,7.61,14.88,15.67h-.07Z"/></g></g></svg>