<?xml version="1.0" encoding="UTF-8"?><svg id="Capa_1" xmlns="http://www.w3.org/2000/svg" xmlns:xlink="http://www.w3.org/1999/xlink" viewBox="0 0 1694.04 432"><defs><style>.cls-1{fill:none;}.cls-2{clip-path:url(#clippath);}.cls-3{fill:#026bb0;}.cls-4{fill:#026baf;}.cls-5{fill:#026cb1;}.cls-6{fill:#0467aa;}.cls-7{fill:#0466a9;}.cls-8{fill:#0467ab;}.cls-9{fill:#016eb3;}.cls-10{fill:#016eb4;}.cls-11{fill:#016db2;}.cls-12{fill:#006fb5;}.cls-13{fill:#0070b6;}.cls-14{fill:#036aae;}.cls-15{fill:#0368ac;}.cls-16{fill:#0369ad;}.cls-17{fill:#0071b9;}.cls-18{fill:#ffcb05;}.cls-19{fill:#7d7f68;}.cls-20{fill:#3269b1;}.cls-21{fill:#2f6eb5;}.cls-22{fill:#2f6db4;}.cls-23{fill:#312370;}.cls-24{fill:#306cb3;}.cls-25{fill:#3368b0;}.cls-26{fill:#c7a008;}.cls-27{fill:#144e8b;}.cls-28{fill:#125d9e;}.cls-29{fill:#144f8c;}.cls-30{fill:#13437b;}.cls-31{fill:#13437c;}.cls-32{fill:#115c9d;}.cls-33{fill:#115b9c;}.cls-34{fill:#13447d;}.cls-35{fill:#115a9a;}.cls-36{fill:#115a9b;}.cls-37{fill:#115d9e;}.cls-38{fill:#14508e;}.cls-39{fill:#14508d;}.cls-40{fill:#145290;}.cls-41{fill:#145391;}.cls-42{fill:#14518f;}.cls-43{fill:#12467f;}.cls-44{fill:#12457e;}.cls-45{fill:#124780;}.cls-46{fill:#105d9f;}.cls-47{fill:#105fa1;}.cls-48{fill:#135290;}.cls-49{fill:#135391;}.cls-50{fill:#135392;}.cls-51{fill:#114882;}.cls-52{fill:#114781;}.cls-53{fill:#114983;}.cls-54{fill:#105ea0;}.cls-55{fill:#21386e;}.cls-56{fill:#183e75;}.cls-57{fill:#17437c;}.cls-58{fill:#183f77;}.cls-59{fill:#183f76;}.cls-60{fill:#184078;}.cls-61{fill:#17447d;}.cls-62{fill:#18376c;}.cls-63{fill:#18386d;}.cls-64{fill:#184179;}.cls-65{fill:#174681;}.cls-66{fill:#174680;}.cls-67{fill:#17457e;}.cls-68{fill:#17457f;}.cls-69{fill:#18396e;}.cls-70{fill:#18427a;}.cls-71{fill:#174984;}.cls-72{fill:#174883;}.cls-73{fill:#174782;}.cls-74{fill:#173a70;}.cls-75{fill:#17396f;}.cls-76{fill:#17427a;}.cls-77{fill:#17427b;}.cls-78{fill:#173b71;}.cls-79{fill:#163d74;}.cls-80{fill:#163c73;}.cls-81{fill:#164985;}.cls-82{fill:#164984;}.cls-83{fill:#163c72;}.cls-84{fill:#164b87;}.cls-85{fill:#164d89;}.cls-86{fill:#164c88;}.cls-87{fill:#164a85;}.cls-88{fill:#164a86;}.cls-89{fill:#164681;}.cls-90{fill:#164782;}.cls-91{fill:#164883;}.cls-92{fill:#1e2d5f;}.cls-93{fill:#125695;}.cls-94{fill:#125c9d;}.cls-95{fill:#125797;}.cls-96{fill:#125796;}.cls-97{fill:#125898;}.cls-98{fill:#125999;}.cls-99{fill:#125b9c;}.cls-100{fill:#0b5594;}.cls-101{fill:#0c5593;}.cls-102{fill:#085c9d;}.cls-103{fill:#085e9f;}.cls-104{fill:#0c5391;}.cls-105{fill:#085d9e;}.cls-106{fill:#075fa0;}.cls-107{fill:#0760a1;}.cls-108{fill:#0760a2;}.cls-109{fill:#0563a6;}.cls-110{fill:#153f76;}.cls-111{fill:#154077;}.cls-112{fill:#153e75;}.cls-113{fill:#0565a8;}.cls-114{fill:#0564a7;}.cls-115{fill:#0662a4;}.cls-116{fill:#0661a3;}.cls-117{fill:#145492;}.cls-118{fill:#145493;}.cls-119{fill:#145695;}.cls-120{fill:#145594;}.cls-121{fill:#144078;}.cls-122{fill:#14427a;}.cls-123{fill:#144179;}.cls-124{fill:#0663a5;}.cls-125{fill:#154c89;}.cls-126{fill:#154c88;}.cls-127{fill:#135594;}.cls-128{fill:#154f8c;}.cls-129{fill:#154a86;}.cls-130{fill:#154d8a;}.cls-131{fill:#154b87;}.cls-132{fill:#135796;}.cls-133{fill:#135493;}.cls-134{fill:#135999;}.cls-135{fill:#135b9b;}.cls-136{fill:#135a9a;}.cls-137{fill:#135898;}.cls-138{fill:#135897;}.cls-139{fill:#1b3165;}.cls-140{fill:#1b3063;}.cls-141{fill:#1b3164;}.cls-142{fill:#15518e;}.cls-143{fill:#154e8b;}.cls-144{fill:#15508d;}.cls-145{fill:#15518f;}.cls-146{fill:#0a5998;}.cls-147{fill:#0a5999;}.cls-148{fill:#0a5897;}.cls-149{fill:#0c5492;}.cls-150{fill:#095b9b;}.cls-151{fill:#095c9c;}.cls-152{fill:#095a9a;}.cls-153{fill:#193d74;}.cls-154{fill:#193e75;}.cls-155{fill:#193b71;}.cls-156{fill:#193b72;}.cls-157{fill:#193a70;}.cls-158{fill:#193f76;}.cls-159{fill:#193f77;}.cls-160{fill:#193c73;}.cls-161{fill:#104b86;}.cls-162{fill:#104a84;}.cls-163{fill:#104a85;}.cls-164{fill:#0f4c87;}.cls-165{fill:#1d2c5e;}.cls-166{fill:#1d2d5f;}.cls-167{fill:#1d2e60;}.cls-168{fill:#0f4e89;}.cls-169{fill:#0f4d88;}.cls-170{fill:#0e4f8c;}.cls-171{fill:#0e508d;}.cls-172{fill:#1c3165;}.cls-173{fill:#1c3063;}.cls-174{fill:#1c2f62;}.cls-175{fill:#1c3164;}.cls-176{fill:#0e4e8b;}.cls-177{fill:#1c2e60;}.cls-178{fill:#1c2e61;}.cls-179{fill:#0d518e;}.cls-180{fill:#3663ad;}.cls-181{fill:#3662ac;}.cls-182{fill:#3564ae;}.cls-183{fill:#3567b0;}.cls-184{fill:#1b3468;}.cls-185{fill:#1b3367;}.cls-186{fill:#1b3266;}.cls-187{fill:#1b3569;}.cls-188{fill:#1b356a;}.cls-189{fill:#1a366b;}.cls-190{fill:#1a3468;}.cls-191{fill:#1a386e;}.cls-192{fill:#1a386d;}.cls-193{fill:#1a3a70;}.cls-194{fill:#1a396f;}.cls-195{fill:#1a3b71;}.cls-196{fill:#1a376c;}.cls-197{fill:#1a3c72;}.cls-198{fill:#1a3367;}.cls-199{fill:#19366b;}.cls-200{fill:#193569;}.cls-201{fill:#19356a;}.cls-202{fill:#18447d;}.cls-203{fill:#18437c;}.cls-204{fill:#18437b;}.cls-205{fill:#0b5695;}.cls-206{fill:#0b5796;}.cls-207{fill:#0d5290;}.cls-208{fill:#0d528f;}.cls-209{fill:#1a3266;}.cls-210{fill:#1c3266;}.cls-211{fill:#1b376c;}.cls-212{fill:#1b366b;}.cls-213{fill:#2a75bb;}.cls-214{fill:#2c72b8;}.cls-215{fill:#2c71b7;}.cls-216{fill:#2b73b9;}.cls-217{fill:#2e6fb6;}.cls-218{fill:#2d70b7;}.cls-219{fill:#3761ac;}.cls-220{fill:#316ab2;}.cls-221{fill:#316bb3;}.cls-222{fill:#395ea9;}.cls-223{fill:#3a5da8;}.cls-224{fill:#3467b0;}.cls-225{fill:#3466af;}.cls-226{fill:#3465af;}.cls-227{fill:#3c5aa6;}.cls-228{fill:#3860ab;}.cls-229{fill:#385faa;}.cls-230{fill:#3b5ba7;}.cls-231{fill:#3b5ca8;}.cls-232{clip-path:url(#clippath-1);}.cls-233{clip-path:url(#clippath-4);}.cls-234{clip-path:url(#clippath-3);}.cls-235{clip-path:url(#clippath-2);}.cls-236{clip-path:url(#clippath-7);}.cls-237{clip-path:url(#clippath-8);}.cls-238{clip-path:url(#clippath-6);}.cls-239{clip-path:url(#clippath-5);}</style><clipPath id="clippath"><polygon class="cls-1" points="735.96 160.04 766.91 212.3 779.32 200.39 745.48 150.27 735.96 160.04"/></clipPath><clipPath id="clippath-1"><polygon class="cls-1" points="1109.27 71.7 1061.65 126.33 1075.56 122.45 1120.92 65.81 1109.39 71.7 1109.27 71.7"/></clipPath><clipPath id="clippath-2"><polygon class="cls-1" points="933.2 134.35 934.71 168.06 949.37 162.42 944.98 127.96 933.08 134.35 933.2 134.35"/></clipPath><clipPath id="clippath-3"><polygon class="cls-1" points="1302.87 123.95 1291.35 130.34 1291.6 165.05 1303.5 159.17 1307.14 142.12 1303 123.83 1302.87 123.95"/></clipPath><clipPath id="clippath-4"><polygon class="cls-1" points="1161.77 119.32 1150.24 125.71 1129.69 251.9 1141.22 245.76 1161.02 174.95 1161.77 119.32"/></clipPath><clipPath id="clippath-5"><path class="cls-1" d="M881.7,223.95l-11.9,8.27s2.63,13.41,5.89,22.68c3.38,9.27,11.03,16.79,11.03,16.79,5.14,4.89,11.03,8.52,18.05,10.53,13.16,3.88,28.07,1.25,40.98-6.89,3.38-2,8.02-5.39,10.78-8.27-12.66,7.77-74.94-42.98-74.94-42.98h0l.13-.13Z"/></clipPath><clipPath id="clippath-6"><polygon class="cls-1" points="778.44 207.16 828.44 320.19 875.81 305.03 887.34 297.26 788.97 194.25 776.56 201.77 766.79 212.3 778.32 207.16 778.44 207.16"/></clipPath><clipPath id="clippath-7"><path class="cls-1" d="M955.01,202.52c0,6.14-5.64,11.03-12.41,11.03s-12.41-4.89-12.41-11.03c0-5.64,4.89-10.53,11.28-11.03-1.25-.25-2.63-.25-3.88-.25-11.53,0-20.55,8.52-20.55,18.8s9.02,19.3,20.3,19.3,20.55-8.52,20.55-19.3c0-3.88-1.25-7.27-3.38-10.28,0,.75,.25,1.75,.25,2.88"/></clipPath><clipPath id="clippath-8"><path class="cls-1" d="M1375.93,140.24l-5.14,21.05-4.64-23.43-63.28-13.91,.5,35.21,9.52,2-.75,6.39s-.25,0-.25-.25c-11.9-6.14-26.57-6.89-40.23-1.5-4.64,1.75-9.02,4.14-12.91,6.89l-9.52-60.28h-41.98l-1,6.89h-44.24l-5.14,30.95-3.63-4.64c-10.78-13.16-26.32-20.3-43.48-20.8l37.59-20.05-26.32-38.97-47.37,54.64,8.27,10.03c-7.52,3.13-13.91,7.27-19.3,12.41l-40.73-36.09-14.16,27.07,.5-26.32-63.53,20.3,1.75,33.96,10.78-2.88,1.5,17.29c-12.41-5.64-27.32-5.39-40.98,.5-4.14,1.75-8.02,3.88-11.28,6.39,2.26-10.53,1.75-20.8-2.26-30.08-4.64-10.78-13.16-20.05-23.18-25.69-7.27-4.89-15.66-7.77-24.69-8.77-21.93-3.88-48.37,0-74.44,11.03-9.52,4.14-18.55,8.77-26.57,13.91l-10.03,6.39,6.14,10.28,19.05,32.46,5.89,9.77,10.28-5.14,1.5-.75,47.37,105.51,4.64,10.02,10.53-3.38,25.44-8.27,11.28-3.63-2.88-11.28-13.66-52c3.88-2.88,7.52-5.89,10.78-9.27-.75,6.14-.25,12.66,1.25,18.55,3.63,12.66,11.9,22.68,23.43,28.07,12.41,5.89,27.57,5.89,41.48,0,6.89-3.13,13.41-7.27,18.55-12.66l1.75,20.8,44.74-6.64v-40.23l93.48,46.37v-44.49c3.88-.25,7.52-1,11.28-1.75,10.28-2.63,19.05-5.89,27.07-10.53l-3.88,23.93,50.5,8.02,2.88-18.3,13.16,24.44,8.02-15.41,2.88,25.44,57.14,10.02-3.13-19.3c7.77,.75,15.91-.25,23.93-3.13,1.75-.75,3.88-1.5,5.39-2.63l-2.26,20.55,38.1,5.39,.25,15.66,39.6,12.41,51.75-155.76-53.51-13.16h0l.38,.38Zm-223.43,23.18l2.63-2.88-3.13,19.55-8.27-7.52,8.77-9.27v.13Zm-33.46-80.33l13.91,18.8-39.6,19.55-2.88-4.14s28.57-34.21,28.57-34.21Zm-262.4,145.24l15.66,60.78-25.44,8.27-52.63-117.54c-2.88,1.5-8.27,4.14-12.91,6.39l-19.05-32.21c7.52-4.89,15.91-9.02,24.69-12.91,24.69-10.53,48.37-13.66,67.17-10.28,6.64,.75,13.66,2.88,19.8,6.89,8.52,4.89,14.91,11.53,18.8,20.3,9.27,21.05-5.89,51.5-36.34,70.05h0l.25,.25Zm117.67-10.78c-.25,9.02-3.63,18.05-9.27,25.69-5.39,7.52-12.66,13.41-21.43,17.29-22.18,9.52-44.24,0-50.25-21.05-5.64-20.3,7.77-44.49,29.07-53.76,13.66-5.89,27.57-4.39,37.34,2.26,6.14,4.14,10.78,10.28,12.91,18.04,.25,.75,.5,1.75,.5,2.63,1,3.13,1,6.14,1,9.02l.13-.13Zm120.8,42.98l-92.98-46.37,.25,48.62-23.93,3.38-1.75-20.05c7.52-12.66,10.02-27.82,6.14-41.48-2-7.52-5.89-14.16-11.28-19.3l-3.38-40.98-10.78,2.88-.5-10.28,38.6-11.53,2.26,39.6,28.32-39.85,28.07,26.57-38.85,40.98,36.59,14.41c4.14,7.77,10.28,14.16,18.05,19.05,7.52,4.64,16.17,7.52,25.19,8.27v26.32h0v-.25Zm-48.12-67.42l-12.91-4.89,12.16-11.53c-.75,5.39-.5,10.78,.75,16.42Zm100.88,12.41c-9.02,7.52-19.05,12.16-32.46,15.41-2.88,.75-5.89,1.25-8.52,1.25-21.43,2-39.1-7.77-45.86-23.43-.75-1.75-1.5-3.88-2-5.89-3.13-13.41-.5-25.19,6.14-34.71,1.75-2.88,4.14-5.14,6.64-7.52,6.14-5.64,14.16-9.52,23.18-11.9,20.3-4.89,38.09,1.25,49.12,14.66l-38.6,41.23c2.63,.5,6.64-.25,9.77-1,9.27-2.26,14.41-7.27,18.8-12.41l15.41,13.91,4.64,4.14c-2,2.26-4.14,4.39-6.39,6.14l.13,.13Zm82.08,54.89l-8.52-55.64-11.9,30.58-17.79-38.35h-.25l-6.89,44.49-29.57-5.14,4.14-24.69c1-1,2.26-2,3.38-3.38l9.52-9.77-9.27-8.52,10.02-59.27h29.82l7.52,40.98,8.52-47.37h21.43l9.02,57.64c-11.28,12.91-16.79,30.07-13.16,46.12,2.88,12.41,10.53,22.18,21.43,28.07,1,.5,2.26,1,3.38,1.5l1,7.52-31.7-4.89-.13,.13Zm73.93-18.3c-3.38,2.26-6.89,4.39-10.78,5.64-7.77,2.88-15.16,3.63-22.18,2-4.64-1-9.02-2.88-12.91-5.39-5.89-4.39-10.28-10.53-12.41-18.55-2.26-9.52-.25-19.8,4.89-28.82,2.63-4.39,5.89-8.52,9.77-12.16,4.39-3.88,9.52-7.27,14.91-9.27,13.16-4.89,26.06-3.13,34.96,3.38,3.38,2.26,6.14,5.39,8.27,9.02,1.5,2.88,2.88,5.89,3.63,9.27,2.88,11.53-.5,23.93-7.77,33.71-2.26,4.39-6.14,8.02-10.53,11.03h0l.13,.13Zm66.92,52.51l-21.93-6.39-1.75-80.83-11.03,62.28-23.93-3.88,1.75-18.04c15.66-13.16,23.93-33.96,19.3-53.01-2-8.27-6.14-15.66-12.41-21.05l2-21.05-9.02-2.26,.25-11.28,41.23,8.27,13.91,65.66,14.16-59.02,31.45,6.89-43.98,133.83h0v-.13Z"/></clipPath></defs><rect class="cls-18" x="0" width="1694.04" height="432" rx="59.56" ry="59.56"/><polygon class="cls-227" points="1506.27 282.5 1492.13 268.35 1544.48 216 1492.13 163.65 1506.27 149.5 1572.76 216 1506.27 282.5"/><g><g id="polygon16"><g class="cls-2"><g><polygon class="cls-13" points="758.14 212.3 757.26 210.54 779.19 198.76 779.19 212.3 758.14 212.3"/><polygon class="cls-13" points="757.26 210.54 756.89 210.04 779.19 198.01 779.19 198.76 757.26 210.54"/><polygon class="cls-12" points="756.89 210.04 756.64 209.54 779.19 197.39 779.19 198.01 756.89 210.04"/><polygon class="cls-10" points="756.64 209.54 756.39 208.91 779.19 196.63 779.19 197.39 756.64 209.54"/><polygon class="cls-9" points="756.39 208.91 756.01 208.41 779.19 196.01 779.19 196.63 756.39 208.91"/><polygon class="cls-11" points="756.01 208.41 755.76 207.79 779.19 195.26 779.19 196.01 756.01 208.41"/><polygon class="cls-5" points="755.76 207.79 755.51 207.29 779.19 194.5 779.19 195.26 755.76 207.79"/><polygon class="cls-3" points="755.51 207.29 755.13 206.78 779.19 193.88 779.19 194.5 755.51 207.29"/><polygon class="cls-4" points="755.13 206.78 754.88 206.16 779.19 193.12 779.19 193.88 755.13 206.78"/><polygon class="cls-14" points="754.88 206.16 754.63 205.66 779.19 192.5 779.19 193.12 754.88 206.16"/><polygon class="cls-16" points="754.63 205.66 754.26 205.15 779.19 191.75 779.19 192.5 754.63 205.66"/><polygon class="cls-15" points="754.26 205.15 754.01 204.53 779.19 190.99 779.19 191.75 754.26 205.15"/><polygon class="cls-8" points="754.01 204.53 753.75 204.03 779.19 190.37 779.19 190.99 754.01 204.53"/><polygon class="cls-6" points="753.75 204.03 753.38 203.53 779.19 189.62 779.19 190.37 753.75 204.03"/><polygon class="cls-7" points="753.38 203.53 753.13 202.9 778.94 189.11 779.19 189.62 779.19 189.62 753.38 203.53"/><rect class="cls-113" x="751.21" y="195.35" width="29.32" height=".63" transform="translate(-1.49 385.41) rotate(-28.22)"/><rect class="cls-114" x="751.01" y="194.91" width="29.32" height=".63" transform="translate(-1.3 385.26) rotate(-28.22)"/><rect class="cls-109" x="750.69" y="194.39" width="29.32" height=".63" transform="translate(-1.1 385.04) rotate(-28.22)"/><rect class="cls-124" x="750.42" y="193.71" width="29.32" height=".63" transform="translate(-.81 384.84) rotate(-28.22)"/><rect class="cls-115" x="750.09" y="193.26" width="29.32" height=".63" transform="translate(-.63 384.63) rotate(-28.22)"/><rect class="cls-116" x="749.71" y="192.63" width="29.32" height=".63" transform="translate(-.38 384.37) rotate(-28.22)"/><rect class="cls-108" x="749.5" y="192.06" width="29.32" height=".63" transform="translate(-.14 384.21) rotate(-28.22)"/><rect class="cls-107" x="749.3" y="191.61" width="29.32" height=".63" transform="translate(.05 384.06) rotate(-28.22)"/><rect class="cls-106" x="748.79" y="190.99" width="29.32" height=".63" transform="translate(.29 383.74) rotate(-28.22)"/><rect class="cls-103" x="748.59" y="190.54" width="29.32" height=".63" transform="translate(.48 383.59) rotate(-28.22)"/><rect class="cls-105" x="748.38" y="189.96" width="29.32" height=".63" transform="translate(.72 383.43) rotate(-28.22)"/><rect class="cls-102" x="748" y="189.34" width="29.32" height=".63" transform="translate(.97 383.17) rotate(-28.22)"/><rect class="cls-151" x="747.8" y="188.89" width="29.32" height=".63" transform="translate(1.16 383.02) rotate(-28.22)"/><rect class="cls-150" x="747.46" y="188.32" width="29.32" height=".63" transform="translate(1.39 382.8) rotate(-28.22)"/><rect class="cls-152" x="747.09" y="187.69" width="29.32" height=".63" transform="translate(1.64 382.55) rotate(-28.22)"/><rect class="cls-147" x="746.88" y="187.24" width="29.32" height=".63" transform="translate(1.83 382.39) rotate(-28.22)"/><rect class="cls-146" x="746.67" y="186.67" width="29.32" height=".63" transform="translate(2.08 382.23) rotate(-28.22)"/><rect class="cls-148" x="746.17" y="186.17" width="29.32" height=".63" transform="translate(2.25 381.93) rotate(-28.22)"/><rect class="cls-206" x="745.96" y="185.6" width="29.32" height=".63" transform="translate(2.5 381.77) rotate(-28.22)"/><rect class="cls-205" x="745.7" y="184.91" width="29.32" height=".63" transform="translate(2.79 381.56) rotate(-28.22)"/><rect class="cls-100" x="745.38" y="184.52" width="29.32" height=".63" transform="translate(2.94 381.36) rotate(-28.22)"/><rect class="cls-101" x="745.17" y="183.95" width="29.32" height=".63" transform="translate(3.19 381.2) rotate(-28.22)"/><rect class="cls-149" x="744.78" y="183.26" width="29.32" height=".63" transform="translate(3.46 380.93) rotate(-28.22)"/><rect class="cls-104" x="744.46" y="182.88" width="29.32" height=".63" transform="translate(3.61 380.73) rotate(-28.22)"/><rect class="cls-207" x="744.25" y="182.3" width="29.32" height=".63" transform="translate(3.86 380.57) rotate(-28.22)"/><rect class="cls-208" x="743.88" y="181.8" width="29.32" height=".63" transform="translate(4.05 380.33) rotate(-28.22)"/><rect class="cls-179" x="743.67" y="181.23" width="29.32" height=".63" transform="translate(4.29 380.16) rotate(-28.22)"/><rect class="cls-171" x="743.34" y="180.65" width="29.32" height=".63" transform="translate(4.53 379.94) rotate(-28.22)"/><rect class="cls-170" x="742.96" y="180.15" width="29.32" height=".63" transform="translate(4.72 379.7) rotate(-28.22)"/><rect class="cls-176" x="742.75" y="179.58" width="29.32" height=".63" transform="translate(4.96 379.53) rotate(-28.22)"/><rect class="cls-168" x="742.55" y="179.01" width="29.32" height=".63" transform="translate(5.21 379.37) rotate(-28.22)"/><rect class="cls-169" x="742.04" y="178.51" width="29.32" height=".63" transform="translate(5.39 379.07) rotate(-28.22)"/><rect class="cls-164" x="741.84" y="177.93" width="29.32" height=".63" transform="translate(5.63 378.9) rotate(-28.22)"/><rect class="cls-161" x="741.57" y="177.37" width="29.32" height=".63" transform="translate(5.87 378.71) rotate(-28.22)"/><rect class="cls-163" x="741.25" y="176.86" width="29.32" height=".63" transform="translate(6.07 378.5) rotate(-28.22)"/><rect class="cls-162" x="741.05" y="176.29" width="29.32" height=".63" transform="translate(6.32 378.33) rotate(-28.22)"/><rect class="cls-53" x="740.65" y="175.73" width="29.32" height=".63" transform="translate(6.54 378.08) rotate(-28.22)"/><rect class="cls-51" x="740.34" y="175.21" width="29.32" height=".63" transform="translate(6.74 377.87) rotate(-28.22)"/><rect class="cls-52" x="740.13" y="174.64" width="29.32" height=".63" transform="translate(6.99 377.7) rotate(-28.22)"/><rect class="cls-45" x="739.86" y="174.08" width="29.32" height=".63" transform="translate(7.22 377.51) rotate(-28.22)"/><rect class="cls-43" x="739.42" y="173.57" width="29.32" height=".63" transform="translate(7.41 377.24) rotate(-28.22)"/><rect class="cls-44" x="739.21" y="173.12" width="29.32" height=".63" transform="translate(7.6 377.09) rotate(-28.22)"/><rect class="cls-34" x="738.95" y="172.43" width="29.32" height=".63" transform="translate(7.89 376.88) rotate(-28.22)"/><rect class="cls-31" x="738.63" y="171.92" width="29.32" height=".63" transform="translate(8.1 376.67) rotate(-28.22)"/><rect class="cls-30" x="738.42" y="171.47" width="29.32" height=".63" transform="translate(8.28 376.52) rotate(-28.22)"/><rect class="cls-122" x="738.03" y="170.79" width="29.32" height=".63" transform="translate(8.56 376.25) rotate(-28.22)"/><rect class="cls-123" x="737.71" y="170.27" width="29.32" height=".63" transform="translate(8.77 376.04) rotate(-28.22)"/><rect class="cls-121" x="737.45" y="169.71" width="29.32" height=".63" transform="translate(9 375.85) rotate(-28.22)"/><rect class="cls-111" x="737.24" y="169.14" width="29.32" height=".63" transform="translate(9.25 375.68) rotate(-28.22)"/><rect class="cls-110" x="736.92" y="168.75" width="29.32" height=".63" transform="translate(9.39 375.49) rotate(-28.22)"/><rect class="cls-112" x="736.53" y="168.07" width="29.32" height=".63" transform="translate(9.67 375.22) rotate(-28.22)"/><rect class="cls-79" x="736.32" y="167.49" width="29.32" height=".63" transform="translate(9.92 375.05) rotate(-28.22)"/><rect class="cls-80" x="736" y="167.1" width="29.32" height=".63" transform="translate(10.06 374.86) rotate(-28.22)"/><rect class="cls-83" x="735.74" y="166.42" width="29.32" height=".63" transform="translate(10.35 374.65) rotate(-28.22)"/><rect class="cls-78" x="735.4" y="165.84" width="29.32" height=".63" transform="translate(10.59 374.42) rotate(-28.22)"/><rect class="cls-74" x="735.09" y="165.46" width="29.32" height=".63" transform="translate(10.73 374.23) rotate(-28.22)"/><rect class="cls-75" x="734.82" y="164.77" width="29.32" height=".63" transform="translate(11.02 374.02) rotate(-28.22)"/><rect class="cls-69" x="734.61" y="164.32" width="29.32" height=".63" transform="translate(11.21 373.87) rotate(-28.22)"/><polygon class="cls-63" points="736.09 171.2 735.96 170.94 735.96 170.69 761.65 156.91 761.9 157.41 736.09 171.2"/><polygon class="cls-62" points="735.96 169.94 761.4 156.28 761.65 156.91 735.96 170.69 735.96 169.94"/><polygon class="cls-199" points="735.96 169.19 761.02 155.78 761.4 156.28 735.96 169.94 735.96 169.19"/><polygon class="cls-201" points="735.96 168.56 760.77 155.16 761.02 155.78 735.96 169.19 735.96 168.56"/><polygon class="cls-200" points="735.96 167.81 760.52 154.65 760.77 155.16 735.96 168.56 735.96 167.81"/><polygon class="cls-190" points="735.96 167.06 760.15 154.15 760.52 154.65 735.96 167.81 735.96 167.06"/><polygon class="cls-198" points="735.96 166.43 759.9 153.53 760.15 154.15 735.96 167.06 735.96 166.43"/><polygon class="cls-209" points="735.96 165.68 759.64 153.02 759.9 153.53 735.96 166.43 735.96 165.68"/><polygon class="cls-139" points="735.96 165.05 759.27 152.52 759.64 153.02 735.96 165.68 735.96 165.05"/><polygon class="cls-141" points="735.96 164.3 759.02 151.9 759.27 152.52 735.96 165.05 735.96 164.3"/><polygon class="cls-140" points="735.96 163.55 758.77 151.4 759.02 151.9 735.96 164.3 735.96 163.55"/><polygon class="cls-174" points="735.96 162.92 758.39 150.89 758.77 151.4 735.96 163.55 735.96 162.92"/><polygon class="cls-178" points="735.96 162.17 758.14 150.27 758.39 150.89 735.96 162.92 735.96 162.17"/><polygon class="cls-177" points="735.96 161.55 756.89 150.27 758.14 150.27 758.14 150.27 735.96 162.17 735.96 161.55"/><polygon class="cls-166" points="735.96 160.79 755.63 150.27 756.89 150.27 735.96 161.55 735.96 160.79"/><polygon class="cls-165" points="735.96 160.04 754.26 150.27 755.63 150.27 735.96 160.79 735.96 160.04"/><polygon class="cls-165" points="754.26 150.27 735.96 160.04 735.96 150.27 754.26 150.27"/></g></g></g><g id="polygon18"><path class="cls-17" d="M1195.86,118.81l-1.25,6.89,14.66-4.89-1.75-8.52-11.53,6.39-.13,.13Z"/></g><g id="polygon25"><g class="cls-232"><g><polygon class="cls-13" points="1061.65 115.18 1077.31 98.51 1092.1 112.3 1078.94 126.33 1061.65 126.33 1061.65 115.18"/><rect class="cls-13" x="1084.58" y="94.98" width=".5" height="20.3" transform="translate(267.84 826.54) rotate(-46.98)"/><rect class="cls-12" x="1084.93" y="94.7" width=".5" height="20.3" transform="translate(268.16 826.71) rotate(-46.98)"/><rect class="cls-10" x="1085.42" y="94.29" width=".5" height="20.3" transform="translate(268.61 826.93) rotate(-46.98)"/><rect class="cls-9" x="1085.77" y="93.89" width=".5" height="20.3" transform="translate(269.02 827.07) rotate(-46.98)"/><rect class="cls-11" x="1086.13" y="93.48" width=".5" height="20.3" transform="translate(269.43 827.2) rotate(-46.98)"/><rect class="cls-5" x="1086.4" y="92.99" width=".5" height="20.3" transform="translate(269.87 827.24) rotate(-46.98)"/><rect class="cls-3" x="1086.88" y="92.58" width=".5" height="20.3" transform="translate(270.32 827.46) rotate(-46.98)"/><rect class="cls-4" x="1087.24" y="92.3" width=".5" height="20.3" transform="translate(270.64 827.63) rotate(-46.98)"/><rect class="cls-14" x="1087.6" y="91.9" width=".5" height="20.3" transform="translate(271.05 827.77) rotate(-46.98)"/><rect class="cls-16" x="1087.95" y="91.49" width=".5" height="20.3" transform="translate(271.46 827.9) rotate(-46.98)"/><rect class="cls-15" x="1088.34" y="91" width=".5" height="20.3" transform="translate(271.94 828.03) rotate(-46.98)"/><rect class="cls-8" x="1088.7" y="90.59" width=".5" height="20.3" transform="translate(272.36 828.16) rotate(-46.98)"/><rect class="cls-6" x="1089.06" y="90.19" width=".5" height="20.3" transform="translate(272.77 828.29) rotate(-46.98)"/><rect class="cls-7" x="1089.54" y="89.91" width=".5" height="20.3" transform="translate(273.12 828.56) rotate(-46.98)"/><rect class="cls-113" x="1089.9" y="89.5" width=".5" height="20.3" transform="translate(273.53 828.69) rotate(-46.98)"/><rect class="cls-114" x="1090.26" y="89.09" width=".5" height="20.3" transform="translate(273.95 828.82) rotate(-46.98)"/><rect class="cls-109" x="1090.52" y="88.6" width=".5" height="20.3" transform="translate(274.39 828.86) rotate(-46.98)"/><rect class="cls-124" x="1091.01" y="88.2" width=".5" height="20.3" transform="translate(274.84 829.08) rotate(-46.98)"/><rect class="cls-115" x="1091.36" y="87.79" width=".5" height="20.3" transform="translate(275.25 829.22) rotate(-46.98)"/><rect class="cls-116" x="1091.72" y="87.39" width=".5" height="20.3" transform="translate(275.66 829.35) rotate(-46.98)"/><rect class="cls-108" x="1092.08" y="87.1" width=".5" height="20.3" transform="translate(275.98 829.52) rotate(-46.98)"/><rect class="cls-107" x="1092.47" y="86.61" width=".5" height="20.3" transform="translate(276.46 829.65) rotate(-46.98)"/><rect class="cls-106" x="1092.83" y="86.21" width=".5" height="20.3" transform="translate(276.87 829.78) rotate(-46.98)"/><rect class="cls-103" x="1093.18" y="85.8" width=".5" height="20.3" transform="translate(277.28 829.92) rotate(-46.98)"/><rect class="cls-105" x="1093.54" y="85.39" width=".5" height="20.3" transform="translate(277.69 830.05) rotate(-46.98)"/><rect class="cls-102" x="1093.94" y="85.08" width=".5" height="20.3" transform="translate(278.05 830.24) rotate(-46.98)"/><rect class="cls-151" x="1094.3" y="84.8" width=".5" height="20.3" transform="translate(278.37 830.41) rotate(-46.98)"/><rect class="cls-150" x="1094.56" y="84.31" width=".5" height="20.3" transform="translate(278.81 830.45) rotate(-46.98)"/><rect class="cls-152" x="1095.05" y="83.9" width=".5" height="20.3" transform="translate(279.26 830.67) rotate(-46.98)"/><rect class="cls-147" x="1095.4" y="83.5" width=".5" height="20.3" transform="translate(279.67 830.81) rotate(-46.98)"/><rect class="cls-146" x="1095.76" y="83.09" width=".5" height="20.3" transform="translate(280.08 830.94) rotate(-46.98)"/><rect class="cls-148" x="1096.12" y="82.68" width=".5" height="20.3" transform="translate(280.49 831.07) rotate(-46.98)"/><rect class="cls-206" x="1096.51" y="82.32" width=".5" height="20.3" transform="translate(280.89 831.24) rotate(-46.98)"/><rect class="cls-205" x="1096.87" y="81.91" width=".5" height="20.3" transform="translate(281.3 831.37) rotate(-46.98)"/><rect class="cls-100" x="1097.23" y="81.51" width=".5" height="20.3" transform="translate(281.71 831.51) rotate(-46.98)"/><rect class="cls-101" x="1097.58" y="81.1" width=".5" height="20.3" transform="translate(282.12 831.64) rotate(-46.98)"/><rect class="cls-149" x="1098.07" y="80.69" width=".5" height="20.3" transform="translate(282.57 831.86) rotate(-46.98)"/><rect class="cls-104" x="1098.42" y="80.29" width=".5" height="20.3" transform="translate(282.98 831.99) rotate(-46.98)"/><rect class="cls-207" x="1098.69" y="79.8" width=".5" height="20.3" transform="translate(283.42 832.03) rotate(-46.98)"/><rect class="cls-208" x="1099.17" y="79.52" width=".5" height="20.3" transform="translate(283.78 832.3) rotate(-46.98)"/><rect class="cls-179" x="1099.53" y="79.11" width=".5" height="20.3" transform="translate(284.19 832.43) rotate(-46.98)"/><rect class="cls-171" x="1099.89" y="78.7" width=".5" height="20.3" transform="translate(284.6 832.56) rotate(-46.98)"/><rect class="cls-170" x="1100.24" y="78.3" width=".5" height="20.3" transform="translate(285.01 832.69) rotate(-46.98)"/><rect class="cls-176" x="1100.73" y="77.89" width=".5" height="20.3" transform="translate(285.46 832.92) rotate(-46.98)"/><rect class="cls-168" x="1100.99" y="77.4" width=".5" height="20.3" transform="translate(285.91 832.96) rotate(-46.98)"/><rect class="cls-169" x="1101.35" y="77.12" width=".5" height="20.3" transform="translate(286.23 833.13) rotate(-46.98)"/><rect class="cls-164" x="1101.71" y="76.71" width=".5" height="20.3" transform="translate(286.64 833.26) rotate(-46.98)"/><rect class="cls-161" x="1102.19" y="76.31" width=".5" height="20.3" transform="translate(287.09 833.48) rotate(-46.98)"/><rect class="cls-163" x="1102.55" y="75.9" width=".5" height="20.3" transform="translate(287.5 833.62) rotate(-46.98)"/><rect class="cls-162" x="1102.82" y="75.41" width=".5" height="20.3" transform="translate(287.94 833.66) rotate(-46.98)"/><rect class="cls-53" x="1103.17" y="75" width=".5" height="20.3" transform="translate(288.35 833.79) rotate(-46.98)"/><rect class="cls-51" x="1103.66" y="74.72" width=".5" height="20.3" transform="translate(288.71 834.05) rotate(-46.98)"/><rect class="cls-52" x="1104.01" y="74.32" width=".5" height="20.3" transform="translate(289.12 834.18) rotate(-46.98)"/><rect class="cls-45" x="1104.37" y="73.91" width=".5" height="20.3" transform="translate(289.53 834.32) rotate(-46.98)"/><rect class="cls-43" x="1104.85" y="73.5" width=".5" height="20.3" transform="translate(289.98 834.54) rotate(-46.98)"/><rect class="cls-44" x="1105.12" y="73.01" width=".5" height="20.3" transform="translate(290.43 834.58) rotate(-46.98)"/><rect class="cls-34" x="1105.48" y="72.61" width=".5" height="20.3" transform="translate(290.84 834.71) rotate(-46.98)"/><rect class="cls-31" x="1105.75" y="72.42" width=".5" height="20.3" transform="translate(291.06 834.85) rotate(-46.98)"/><rect class="cls-30" x="1106.23" y="72.01" width=".5" height="20.3" transform="translate(291.51 835.07) rotate(-46.98)"/><rect class="cls-122" x="1106.59" y="71.61" width=".5" height="20.3" transform="translate(291.92 835.21) rotate(-46.98)"/><rect class="cls-123" x="1106.86" y="71.11" width=".5" height="20.3" transform="translate(292.36 835.24) rotate(-46.98)"/><rect class="cls-121" x="1107.21" y="70.71" width=".5" height="20.3" transform="translate(292.78 835.38) rotate(-46.98)"/><rect class="cls-111" x="1107.7" y="70.3" width=".5" height="20.3" transform="translate(293.23 835.6) rotate(-46.98)"/><rect class="cls-110" x="1108.05" y="69.9" width=".5" height="20.3" transform="translate(293.64 835.73) rotate(-46.98)"/><rect class="cls-112" x="1108.41" y="69.62" width=".5" height="20.3" transform="translate(293.95 835.91) rotate(-46.98)"/><rect class="cls-79" x="1108.77" y="69.21" width=".5" height="20.3" transform="translate(294.37 836.04) rotate(-46.98)"/><rect class="cls-80" x="1109.16" y="68.72" width=".5" height="20.3" transform="translate(294.85 836.17) rotate(-46.98)"/><rect class="cls-83" x="1109.52" y="68.31" width=".5" height="20.3" transform="translate(295.26 836.3) rotate(-46.98)"/><rect class="cls-78" x="1109.88" y="67.91" width=".5" height="20.3" transform="translate(295.67 836.43) rotate(-46.98)"/><rect class="cls-74" x="1110.36" y="67.5" width=".5" height="20.3" transform="translate(296.12 836.66) rotate(-46.98)"/><rect class="cls-75" x="1110.72" y="67.22" width=".5" height="20.3" transform="translate(296.44 836.83) rotate(-46.98)"/><rect class="cls-69" x="1110.98" y="66.73" width=".5" height="20.3" transform="translate(296.88 836.87) rotate(-46.98)"/><rect class="cls-63" x="1111.34" y="66.32" width=".5" height="20.3" transform="translate(297.29 837) rotate(-46.98)"/><rect class="cls-62" x="1111.82" y="65.92" width=".5" height="20.3" transform="translate(297.74 837.22) rotate(-46.98)"/><rect class="cls-199" x="1112.18" y="65.51" width=".5" height="20.3" transform="translate(298.15 837.36) rotate(-46.98)"/><rect class="cls-201" x="1112.54" y="65.1" width=".5" height="20.3" transform="translate(298.56 837.49) rotate(-46.98)"/><rect class="cls-200" x="1112.89" y="64.82" width=".5" height="20.3" transform="translate(298.88 837.66) rotate(-46.98)"/><polygon class="cls-190" points="1105.88 67.81 1106.26 67.31 1120.92 80.97 1120.92 81.47 1120.8 81.6 1105.88 67.81"/><polygon class="cls-198" points="1106.26 67.31 1106.63 66.94 1120.92 80.22 1120.92 80.97 1106.26 67.31"/><polygon class="cls-209" points="1106.63 66.94 1107.01 66.56 1120.92 79.47 1120.92 80.22 1106.63 66.94"/><polygon class="cls-139" points="1107.01 66.56 1107.39 66.18 1120.92 78.71 1120.92 79.47 1107.01 66.56"/><polygon class="cls-141" points="1107.39 66.18 1107.76 65.81 1107.89 65.81 1120.92 77.96 1120.92 78.71 1107.39 66.18"/><polygon class="cls-140" points="1108.64 65.81 1120.92 77.21 1120.92 77.96 1107.89 65.81 1108.64 65.81"/><polygon class="cls-174" points="1109.39 65.81 1120.92 76.46 1120.92 77.21 1108.64 65.81 1109.39 65.81"/><polygon class="cls-178" points="1110.27 65.81 1120.92 75.71 1120.92 76.46 1109.39 65.81 1110.27 65.81"/><polygon class="cls-177" points="1111.02 65.81 1120.92 74.96 1120.92 75.71 1110.27 65.81 1111.02 65.81"/><polygon class="cls-166" points="1111.9 65.81 1120.92 74.2 1120.92 74.96 1111.02 65.81 1111.9 65.81"/><polygon class="cls-165" points="1112.65 65.81 1120.92 73.45 1120.92 74.2 1111.9 65.81 1112.65 65.81"/><polygon class="cls-165" points="1120.92 73.45 1112.65 65.81 1120.92 65.81 1120.92 73.45"/></g></g></g><g id="polygon27"><path class="cls-165" d="M1364.4,146.38l11.53-6.14-3.38,29.32-8.27-23.18h.13Z"/></g><g id="polygon29"><path class="cls-165" d="M1291.6,165.18l10.53,2.26,13.16-6.39-11.53-4.39s-12.16,8.52-12.16,8.52Z"/></g><g id="polygon36"><g class="cls-235"><g><polygon class="cls-13" points="933.2 164.93 949.37 163.05 949.37 168.06 933.2 168.06 933.2 164.93"/><polygon class="cls-13" points="933.2 164.55 949.37 162.67 949.37 163.05 933.2 164.93 933.2 164.55"/><polygon class="cls-12" points="933.2 164.18 949.37 162.3 949.37 162.67 933.2 164.55 933.2 164.18"/><polygon class="cls-10" points="933.2 163.8 949.37 161.92 949.37 162.3 933.2 164.18 933.2 163.8"/><polygon class="cls-9" points="933.2 163.43 949.37 161.55 949.37 161.92 933.2 163.8 933.2 163.43"/><polygon class="cls-11" points="933.2 163.05 949.37 161.17 949.37 161.55 933.2 163.43 933.2 163.05"/><polygon class="cls-5" points="933.2 162.67 949.37 160.79 949.37 161.17 933.2 163.05 933.2 162.67"/><polygon class="cls-3" points="933.2 162.3 949.37 160.42 949.37 160.79 933.2 162.67 933.2 162.3"/><polygon class="cls-4" points="933.2 161.92 949.37 160.04 949.37 160.42 933.2 162.3 933.2 161.92"/><polygon class="cls-14" points="933.2 161.55 949.37 159.67 949.37 160.04 933.2 161.92 933.2 161.55"/><polygon class="cls-16" points="933.2 161.17 949.37 159.29 949.37 159.67 933.2 161.55 933.2 161.17"/><polygon class="cls-15" points="933.2 160.79 949.37 158.91 949.37 159.29 933.2 161.17 933.2 160.79"/><polygon class="cls-8" points="933.2 160.42 949.37 158.54 949.37 158.91 933.2 160.79 933.2 160.42"/><polygon class="cls-6" points="933.2 160.04 949.37 158.16 949.37 158.54 933.2 160.42 933.2 160.04"/><polygon class="cls-7" points="933.2 159.67 949.37 157.66 949.37 158.16 933.2 160.04 933.2 159.67"/><polygon class="cls-113" points="933.2 159.29 949.37 157.29 949.37 157.66 933.2 159.67 933.2 159.29"/><polygon class="cls-114" points="933.2 158.91 949.37 156.91 949.37 157.29 933.2 159.29 933.2 158.91"/><polygon class="cls-109" points="933.2 158.54 949.37 156.53 949.37 156.91 933.2 158.91 933.2 158.54"/><polygon class="cls-124" points="933.2 158.16 949.37 156.16 949.37 156.53 933.2 158.54 933.2 158.16"/><polygon class="cls-115" points="933.2 157.79 949.37 155.78 949.37 156.16 933.2 158.16 933.2 157.79"/><polygon class="cls-116" points="933.2 157.41 949.37 155.41 949.37 155.78 933.2 157.79 933.2 157.41"/><polygon class="cls-108" points="933.2 157.03 949.37 155.03 949.37 155.41 933.2 157.41 933.2 157.03"/><polygon class="cls-107" points="933.2 156.66 949.37 154.65 949.37 155.03 933.2 157.03 933.2 156.66"/><polygon class="cls-106" points="933.2 156.28 949.37 154.28 949.37 154.65 933.2 156.66 933.2 156.28"/><polygon class="cls-103" points="933.2 155.91 949.37 153.9 949.37 154.28 933.2 156.28 933.2 155.91"/><polygon class="cls-105" points="933.2 155.53 949.37 153.53 949.37 153.9 933.2 155.91 933.2 155.53"/><polygon class="cls-102" points="933.2 155.16 949.37 153.15 949.37 153.53 933.2 155.53 933.2 155.16"/><polygon class="cls-151" points="933.2 154.78 949.37 152.77 949.37 153.15 933.2 155.16 933.2 154.78"/><polygon class="cls-150" points="933.2 154.4 949.37 152.4 949.37 152.77 933.2 154.78 933.2 154.4"/><polygon class="cls-152" points="933.2 154.03 949.37 152.02 949.37 152.4 933.2 154.4 933.2 154.03"/><polygon class="cls-147" points="933.2 153.65 949.37 151.65 949.37 152.02 933.2 154.03 933.2 153.65"/><polygon class="cls-146" points="933.2 153.28 949.37 151.27 949.37 151.65 933.2 153.65 933.2 153.28"/><polygon class="cls-148" points="933.2 152.9 949.37 150.89 949.37 151.27 933.2 153.28 933.2 152.9"/><polygon class="cls-206" points="933.2 152.52 949.37 150.52 949.37 150.89 933.2 152.9 933.2 152.52"/><polygon class="cls-205" points="933.2 152.15 949.37 150.14 949.37 150.52 933.2 152.52 933.2 152.15"/><polygon class="cls-100" points="933.2 151.77 949.37 149.77 949.37 150.14 933.2 152.15 933.2 151.77"/><polygon class="cls-101" points="933.2 151.4 949.37 149.39 949.37 149.77 933.2 151.77 933.2 151.4"/><polygon class="cls-149" points="933.2 151.02 949.37 149.01 949.37 149.39 933.2 151.4 933.2 151.02"/><polygon class="cls-104" points="933.2 150.64 949.37 148.64 949.37 149.01 933.2 151.02 933.2 150.64"/><polygon class="cls-207" points="933.2 150.14 949.37 148.26 949.37 148.64 933.2 150.64 933.2 150.14"/><polygon class="cls-208" points="933.2 149.77 949.37 147.89 949.37 148.26 933.2 150.14 933.2 149.77"/><polygon class="cls-179" points="933.2 149.39 949.37 147.51 949.37 147.89 933.2 149.77 933.2 149.39"/><polygon class="cls-171" points="933.2 149.01 949.37 147.14 949.37 147.51 933.2 149.39 933.2 149.01"/><polygon class="cls-170" points="933.2 148.64 949.37 146.76 949.37 147.14 933.2 149.01 933.2 148.64"/><polygon class="cls-176" points="933.2 148.26 949.37 146.38 949.37 146.76 933.2 148.64 933.2 148.26"/><polygon class="cls-168" points="933.2 147.89 949.37 146.01 949.37 146.38 933.2 148.26 933.2 147.89"/><polygon class="cls-169" points="933.2 147.51 949.37 145.63 949.37 146.01 933.2 147.89 933.2 147.51"/><polygon class="cls-164" points="933.2 147.14 949.37 145.26 949.37 145.63 933.2 147.51 933.2 147.14"/><polygon class="cls-161" points="933.2 146.76 949.37 144.88 949.37 145.26 933.2 147.14 933.2 146.76"/><polygon class="cls-163" points="933.2 146.38 949.37 144.5 949.37 144.88 933.2 146.76 933.2 146.38"/><polygon class="cls-162" points="933.2 146.01 949.37 144.13 949.37 144.5 933.2 146.38 933.2 146.01"/><polygon class="cls-53" points="933.2 145.63 949.37 143.75 949.37 144.13 933.2 146.01 933.2 145.63"/><polygon class="cls-51" points="933.2 145.26 949.37 143.38 949.37 143.75 933.2 145.63 933.2 145.26"/><polygon class="cls-52" points="933.2 144.88 949.37 143 949.37 143.38 933.2 145.26 933.2 144.88"/><polygon class="cls-45" points="933.2 144.5 949.37 142.62 949.37 143 933.2 144.88 933.2 144.5"/><polygon class="cls-43" points="933.2 144.13 949.37 142.25 949.37 142.62 933.2 144.5 933.2 144.13"/><polygon class="cls-44" points="933.2 143.75 949.37 141.87 949.37 142.25 933.2 144.13 933.2 143.75"/><polygon class="cls-34" points="933.2 143.38 949.37 141.5 949.37 141.87 933.2 143.75 933.2 143.38"/><polygon class="cls-31" points="933.2 143 949.37 141.12 949.37 141.5 933.2 143.38 933.2 143"/><polygon class="cls-30" points="933.2 142.62 949.37 140.74 949.37 141.12 933.2 143 933.2 142.62"/><polygon class="cls-122" points="933.2 142.25 949.37 140.37 949.37 140.74 933.2 142.62 933.2 142.25"/><polygon class="cls-123" points="933.2 141.87 949.37 139.99 949.37 140.37 933.2 142.25 933.2 141.87"/><polygon class="cls-121" points="933.2 141.5 949.37 139.62 949.37 139.99 933.2 141.87 933.2 141.5"/><polygon class="cls-111" points="933.2 141.12 949.37 139.24 949.37 139.62 933.2 141.5 933.2 141.12"/><polygon class="cls-110" points="933.2 140.74 949.37 138.86 949.37 139.24 933.2 141.12 933.2 140.74"/><polygon class="cls-112" points="933.2 140.37 949.37 138.49 949.37 138.86 933.2 140.74 933.2 140.37"/><polygon class="cls-79" points="933.2 139.99 949.37 138.11 949.37 138.49 933.2 140.37 933.2 139.99"/><polygon class="cls-80" points="933.2 139.62 949.37 137.74 949.37 138.11 933.2 139.99 933.2 139.62"/><polygon class="cls-83" points="933.2 139.24 949.37 137.36 949.37 137.74 933.2 139.62 933.2 139.24"/><polygon class="cls-78" points="933.2 138.86 949.37 136.98 949.37 137.36 933.2 139.24 933.2 138.86"/><polygon class="cls-74" points="933.2 138.49 949.37 136.61 949.37 136.98 933.2 138.86 933.2 138.49"/><polygon class="cls-75" points="933.2 138.11 949.37 136.23 949.37 136.61 933.2 138.49 933.2 138.11"/><polygon class="cls-69" points="933.2 137.74 949.37 135.86 949.37 136.23 933.2 138.11 933.2 137.74"/><polygon class="cls-63" points="933.2 137.36 949.37 135.48 949.37 135.86 933.2 137.74 933.2 137.36"/><polygon class="cls-62" points="933.2 136.98 949.37 135.11 949.37 135.48 933.2 137.36 933.2 136.98"/><polygon class="cls-199" points="933.2 136.61 949.37 134.73 949.37 135.11 933.2 136.98 933.2 136.61"/><polygon class="cls-201" points="933.2 136.23 949.37 134.23 949.37 134.73 933.2 136.61 933.2 136.23"/><polygon class="cls-200" points="933.2 135.86 949.37 133.85 949.37 134.23 933.2 136.23 933.2 135.86"/><polygon class="cls-190" points="933.2 135.48 949.37 133.48 949.37 133.85 933.2 135.86 933.2 135.48"/><polygon class="cls-198" points="933.2 135.11 949.37 133.1 949.37 133.48 933.2 135.48 933.2 135.11"/><polygon class="cls-209" points="933.2 134.73 949.37 132.72 949.37 133.1 933.2 135.11 933.2 134.73"/><polygon class="cls-139" points="933.2 134.35 949.37 132.35 949.37 132.72 933.2 134.73 933.2 134.35"/><polygon class="cls-141" points="933.2 133.98 949.37 131.97 949.37 132.35 933.2 134.35 933.2 133.98"/><polygon class="cls-140" points="933.2 133.6 949.37 131.6 949.37 131.97 933.2 133.98 933.2 133.6"/><polygon class="cls-174" points="933.2 133.23 949.37 131.22 949.37 131.6 933.2 133.6 933.2 133.23"/><polygon class="cls-178" points="933.2 132.85 949.37 130.84 949.37 131.22 933.2 133.23 933.2 132.85"/><polygon class="cls-177" points="933.2 132.47 949.37 130.47 949.37 130.84 933.2 132.85 933.2 132.47"/><polygon class="cls-166" points="933.2 132.1 949.37 130.09 949.37 130.47 933.2 132.47 933.2 132.1"/><polygon class="cls-165" points="933.2 131.72 949.37 129.72 949.37 130.09 933.2 132.1 933.2 131.72"/><polygon class="cls-165" points="949.37 129.72 933.2 131.72 933.2 127.84 949.37 127.84 949.37 129.72"/></g></g></g><g id="polygon43"><g class="cls-234"><g><polygon class="cls-28" points="1291.35 158.04 1307.01 157.16 1307.01 165.18 1291.35 165.18 1291.35 158.04"/><polygon class="cls-28" points="1291.35 157.54 1307.01 156.78 1307.01 157.16 1291.35 158.04 1291.35 157.54"/><polygon class="cls-94" points="1291.35 157.03 1307.01 156.28 1307.01 156.78 1291.35 157.54 1291.35 157.03"/><polygon class="cls-99" points="1291.35 156.66 1307.01 155.78 1307.01 156.28 1291.35 157.03 1291.35 156.66"/><polygon class="cls-135" points="1291.35 156.16 1307.01 155.28 1307.01 155.78 1291.35 156.66 1291.35 156.16"/><polygon class="cls-136" points="1291.35 155.66 1307.01 154.9 1307.01 155.28 1291.35 156.16 1291.35 155.66"/><polygon class="cls-134" points="1291.35 155.28 1307.01 154.4 1307.01 154.9 1291.35 155.66 1291.35 155.28"/><polygon class="cls-137" points="1291.35 154.78 1307.01 153.9 1307.01 154.4 1291.35 155.28 1291.35 154.78"/><polygon class="cls-138" points="1291.35 154.28 1307.01 153.53 1307.01 153.9 1291.35 154.78 1291.35 154.28"/><polygon class="cls-132" points="1291.35 153.9 1307.01 153.02 1307.01 153.53 1291.35 154.28 1291.35 153.9"/><polygon class="cls-119" points="1291.35 153.4 1307.01 152.52 1307.01 153.02 1291.35 153.9 1291.35 153.4"/><polygon class="cls-120" points="1291.35 152.9 1307.01 152.15 1307.01 152.52 1291.35 153.4 1291.35 152.9"/><polygon class="cls-118" points="1291.35 152.4 1307.01 151.65 1307.01 152.15 1291.35 152.9 1291.35 152.4"/><polygon class="cls-117" points="1291.35 152.02 1307.01 151.15 1307.01 151.65 1291.35 152.4 1291.35 152.02"/><polygon class="cls-41" points="1291.35 151.52 1307.01 150.64 1307.01 151.15 1291.35 152.02 1291.35 151.52"/><polygon class="cls-40" points="1291.35 151.02 1307.01 150.27 1307.01 150.64 1291.35 151.52 1291.35 151.02"/><polygon class="cls-145" points="1291.35 150.64 1307.01 149.77 1307.01 150.27 1291.35 151.02 1291.35 150.64"/><polygon class="cls-142" points="1291.35 150.14 1307.01 149.27 1307.01 149.77 1291.35 150.64 1291.35 150.14"/><polygon class="cls-144" points="1291.35 149.64 1307.01 148.89 1307.01 149.27 1291.35 150.14 1291.35 149.64"/><polygon class="cls-128" points="1291.35 149.27 1307.01 148.39 1307.01 148.89 1291.35 149.64 1291.35 149.27"/><polygon class="cls-143" points="1291.35 148.76 1307.01 147.89 1307.01 148.39 1291.35 149.27 1291.35 148.76"/><polygon class="cls-130" points="1291.35 148.26 1307.01 147.51 1307.01 147.89 1291.35 148.76 1291.35 148.26"/><polygon class="cls-85" points="1291.35 147.76 1307.01 147.01 1307.01 147.51 1291.35 148.26 1291.35 147.76"/><polygon class="cls-86" points="1291.35 147.39 1307.01 146.51 1307.01 147.01 1291.35 147.76 1291.35 147.39"/><polygon class="cls-84" points="1291.35 146.88 1307.01 146.01 1307.01 146.51 1291.35 147.39 1291.35 146.88"/><polygon class="cls-88" points="1291.35 146.38 1307.01 145.63 1307.01 146.01 1291.35 146.88 1291.35 146.38"/><polygon class="cls-87" points="1291.35 146.01 1307.01 145.13 1307.01 145.63 1291.35 146.38 1291.35 146.01"/><polygon class="cls-71" points="1291.35 145.51 1307.01 144.63 1307.01 145.13 1291.35 146.01 1291.35 145.51"/><polygon class="cls-72" points="1291.35 145 1307.01 144.25 1307.01 144.63 1291.35 145.51 1291.35 145"/><polygon class="cls-73" points="1291.35 144.63 1307.01 143.75 1307.01 144.25 1291.35 145 1291.35 144.63"/><polygon class="cls-65" points="1291.35 144.13 1307.01 143.25 1307.01 143.75 1291.35 144.63 1291.35 144.13"/><polygon class="cls-66" points="1291.35 143.63 1307.01 142.87 1307.01 143.25 1291.35 144.13 1291.35 143.63"/><polygon class="cls-68" points="1291.35 143.13 1307.01 142.37 1307.01 142.87 1291.35 143.63 1291.35 143.13"/><polygon class="cls-202" points="1291.35 142.75 1307.01 141.87 1307.01 142.37 1291.35 143.13 1291.35 142.75"/><polygon class="cls-203" points="1291.35 142.25 1307.01 141.37 1307.01 141.87 1291.35 142.75 1291.35 142.25"/><polygon class="cls-204" points="1291.35 141.75 1307.01 140.99 1307.01 141.37 1291.35 142.25 1291.35 141.75"/><polygon class="cls-70" points="1291.35 141.37 1307.01 140.49 1307.01 140.99 1291.35 141.75 1291.35 141.37"/><polygon class="cls-64" points="1291.35 140.87 1307.01 139.99 1307.01 140.49 1291.35 141.37 1291.35 140.87"/><polygon class="cls-60" points="1291.35 140.37 1307.01 139.62 1307.01 139.99 1291.35 140.87 1291.35 140.37"/><polygon class="cls-159" points="1291.35 139.99 1307.01 139.12 1307.01 139.62 1291.35 140.37 1291.35 139.99"/><polygon class="cls-158" points="1291.35 139.49 1307.01 138.61 1307.01 139.12 1291.35 139.99 1291.35 139.49"/><polygon class="cls-154" points="1291.35 138.99 1307.01 138.24 1307.01 138.61 1291.35 139.49 1291.35 138.99"/><polygon class="cls-153" points="1291.35 138.49 1307.01 137.74 1307.01 138.24 1291.35 138.99 1291.35 138.49"/><polygon class="cls-160" points="1291.35 138.11 1307.01 137.24 1307.01 137.74 1291.35 138.49 1291.35 138.11"/><polygon class="cls-197" points="1291.35 137.61 1307.01 136.73 1307.01 137.24 1291.35 138.11 1291.35 137.61"/><polygon class="cls-195" points="1291.35 137.11 1307.01 136.36 1307.01 136.73 1291.35 137.61 1291.35 137.11"/><polygon class="cls-193" points="1291.35 136.73 1307.01 135.86 1307.01 136.36 1291.35 137.11 1291.35 136.73"/><polygon class="cls-194" points="1291.35 136.23 1307.01 135.36 1307.01 135.86 1291.35 136.73 1291.35 136.23"/><polygon class="cls-191" points="1291.35 135.73 1307.01 134.98 1307.01 135.36 1291.35 136.23 1291.35 135.73"/><polygon class="cls-192" points="1291.35 135.36 1307.01 134.48 1307.01 134.98 1291.35 135.73 1291.35 135.36"/><polygon class="cls-211" points="1291.35 134.85 1307.01 133.98 1307.01 134.48 1291.35 135.36 1291.35 134.85"/><polygon class="cls-212" points="1291.35 134.35 1307.01 133.6 1307.01 133.98 1291.35 134.85 1291.35 134.35"/><polygon class="cls-188" points="1291.35 133.85 1307.01 133.1 1307.01 133.6 1291.35 134.35 1291.35 133.85"/><polygon class="cls-187" points="1291.35 133.48 1307.01 132.6 1307.01 133.1 1291.35 133.85 1291.35 133.48"/><polygon class="cls-184" points="1291.35 132.97 1307.01 132.1 1307.01 132.6 1291.35 133.48 1291.35 132.97"/><polygon class="cls-185" points="1291.35 132.47 1307.01 131.72 1307.01 132.1 1291.35 132.97 1291.35 132.47"/><polygon class="cls-210" points="1291.35 132.1 1307.01 131.22 1307.01 131.72 1291.35 132.47 1291.35 132.1"/><polygon class="cls-172" points="1291.35 131.6 1307.01 130.72 1307.01 131.22 1291.35 132.1 1291.35 131.6"/><polygon class="cls-175" points="1291.35 131.1 1307.01 130.34 1307.01 130.72 1291.35 131.6 1291.35 131.1"/><polygon class="cls-173" points="1291.35 130.59 1307.01 129.84 1307.01 130.34 1291.35 131.1 1291.35 130.59"/><polygon class="cls-174" points="1291.35 130.22 1307.01 129.34 1307.01 129.84 1291.35 130.59 1291.35 130.22"/><polygon class="cls-178" points="1291.35 129.72 1307.01 128.84 1307.01 129.34 1291.35 130.22 1291.35 129.72"/><polygon class="cls-167" points="1291.35 129.22 1307.01 128.46 1307.01 128.84 1291.35 129.72 1291.35 129.22"/><polygon class="cls-166" points="1291.35 128.84 1307.01 127.96 1307.01 128.46 1291.35 129.22 1291.35 128.84"/><polygon class="cls-165" points="1291.35 128.34 1307.01 127.46 1307.01 127.96 1291.35 128.84 1291.35 128.34"/><polygon class="cls-165" points="1307.01 127.46 1291.35 128.34 1291.35 123.95 1307.01 123.95 1307.01 127.46"/></g></g></g><g id="polygon45"><path class="cls-23" d="M1301.37,167.56l-12.91,114.28,20.55-4.14,3.88-116.42-11.53,6.14v.13Z"/></g><g id="polygon47"><path class="cls-55" d="M1326.31,287.23l.5,15.41,39.35,12.66,11.9-6.14-38.85-30.07-39.1-3.38-11.53,6.14,37.84,5.39h-.13Z"/></g><g id="polygon49"><path class="cls-55" d="M1180.07,259.92l9.52-5.14,6.39,11.28,9.02-4.89,1.75,14.91,57.39,10.28,11.28-6.39-79.07-48.12-56.14,9.52-10.78,10.53,50.5,8.02h.13Z"/></g><g id="polygon56"><g class="cls-233"><g><polygon class="cls-128" points="1161.77 119.69 1161.4 119.32 1161.77 119.32 1161.77 119.69"/><polygon class="cls-143" points="1161.77 120.82 1159.39 119.32 1161.4 119.32 1161.77 119.69 1161.77 120.82"/><polygon class="cls-130" points="1161.77 122.07 1157.51 119.32 1159.39 119.32 1161.77 120.82 1161.77 122.07"/><polygon class="cls-85" points="1161.77 123.2 1155.63 119.32 1157.51 119.32 1161.77 122.07 1161.77 123.2"/><polygon class="cls-86" points="1161.77 124.45 1153.75 119.32 1155.63 119.32 1161.77 123.2 1161.77 124.45"/><polygon class="cls-84" points="1161.77 125.58 1151.87 119.32 1153.75 119.32 1161.77 124.45 1161.77 125.58"/><polygon class="cls-88" points="1161.77 126.83 1149.99 119.32 1151.87 119.32 1161.77 125.58 1161.77 126.83"/><polygon class="cls-87" points="1161.77 127.96 1148.11 119.44 1148.24 119.32 1149.99 119.32 1161.77 126.83 1161.77 127.96"/><polygon class="cls-71" points="1161.77 129.22 1147.61 120.32 1148.11 119.44 1161.77 127.96 1161.77 129.22"/><polygon class="cls-72" points="1161.77 130.34 1147.11 121.07 1147.61 120.32 1161.77 129.22 1161.77 130.34"/><polygon class="cls-73" points="1161.77 131.6 1146.48 121.95 1147.11 121.07 1161.77 130.34 1161.77 131.6"/><polygon class="cls-65" points="1161.77 132.72 1145.98 122.82 1146.48 121.95 1161.77 131.6 1161.77 132.72"/><polygon class="cls-66" points="1161.77 133.98 1145.48 123.7 1145.98 122.82 1161.77 132.72 1161.77 133.98"/><polygon class="cls-68" points="1161.77 135.11 1144.98 124.58 1145.48 123.7 1161.77 133.98 1161.77 135.11"/><polygon class="cls-202" points="1161.77 136.36 1144.35 125.33 1144.98 124.58 1161.77 135.11 1161.77 136.36"/><polygon class="cls-203" points="1161.77 137.49 1143.85 126.21 1144.35 125.33 1161.77 136.36 1161.77 137.49"/><polygon class="cls-204" points="1161.77 138.74 1143.35 127.09 1143.85 126.21 1161.77 137.49 1161.77 138.74"/><polygon class="cls-70" points="1161.77 139.87 1142.72 127.96 1143.35 127.09 1161.77 138.74 1161.77 139.87"/><polygon class="cls-64" points="1161.77 141.12 1142.22 128.84 1142.72 127.96 1161.77 139.87 1161.77 141.12"/><polygon class="cls-60" points="1161.77 142.25 1141.72 129.72 1142.22 128.84 1161.77 141.12 1161.77 142.25"/><polygon class="cls-159" points="1161.77 143.5 1141.22 130.47 1141.72 129.72 1161.77 142.25 1161.77 143.5"/><polygon class="cls-158" points="1161.77 144.63 1140.59 131.35 1141.22 130.47 1161.77 143.5 1161.77 144.63"/><polygon class="cls-154" points="1161.77 145.88 1140.09 132.22 1140.59 131.35 1161.77 144.63 1161.77 145.88"/><polygon class="cls-153" points="1161.77 147.01 1139.59 133.1 1140.09 132.22 1161.77 145.88 1161.77 147.01"/><polygon class="cls-160" points="1161.77 148.26 1139.09 133.98 1139.59 133.1 1161.77 147.01 1161.77 148.26"/><polygon class="cls-197" points="1161.77 149.39 1138.46 134.73 1139.09 133.98 1161.77 148.26 1161.77 149.39"/><polygon class="cls-195" points="1161.77 150.64 1137.96 135.61 1138.46 134.73 1161.77 149.39 1161.77 150.64"/><polygon class="cls-193" points="1161.77 151.77 1137.46 136.48 1137.96 135.61 1161.77 150.64 1161.77 151.77"/><polygon class="cls-194" points="1161.77 153.02 1136.84 137.36 1137.46 136.48 1161.77 151.77 1161.77 153.02"/><polygon class="cls-191" points="1161.77 154.15 1136.33 138.24 1136.84 137.36 1161.77 153.02 1161.77 154.15"/><polygon class="cls-192" points="1161.77 155.41 1135.83 139.12 1136.33 138.24 1161.77 154.15 1161.77 155.41"/><polygon class="cls-211" points="1161.77 156.53 1135.33 139.87 1135.83 139.12 1161.77 155.41 1161.77 156.53"/><polygon class="cls-212" points="1161.77 157.79 1134.7 140.74 1135.33 139.87 1161.77 156.53 1161.77 157.79"/><polygon class="cls-188" points="1161.77 158.91 1134.2 141.62 1134.7 140.74 1161.77 157.79 1161.77 158.91"/><polygon class="cls-187" points="1161.77 160.17 1133.7 142.5 1134.2 141.62 1161.77 158.91 1161.77 160.17"/><polygon class="cls-184" points="1161.77 161.3 1133.08 143.38 1133.7 142.5 1161.77 160.17 1161.77 161.3"/><polygon class="cls-185" points="1161.77 162.55 1132.57 144.13 1133.08 143.38 1161.77 161.3 1161.77 162.55"/><polygon class="cls-210" points="1161.77 163.68 1132.07 145 1132.57 144.13 1161.77 162.55 1161.77 163.68"/><polygon class="cls-172" points="1161.77 164.93 1131.57 145.88 1132.07 145 1161.77 163.68 1161.77 164.93"/><polygon class="cls-175" points="1161.77 166.18 1130.95 146.76 1131.57 145.88 1161.77 164.93 1161.77 166.18"/><polygon class="cls-173" points="1161.77 167.31 1130.44 147.64 1130.95 146.76 1161.77 166.18 1161.77 167.31"/><polygon class="cls-174" points="1161.77 168.56 1129.94 148.39 1130.44 147.64 1161.77 167.31 1161.77 168.56"/><polygon class="cls-178" points="1161.77 169.69 1129.57 149.52 1129.57 148.89 1129.94 148.39 1161.77 168.56 1161.77 169.69"/><polygon class="cls-167" points="1161.77 170.94 1129.57 150.64 1129.57 149.52 1161.77 169.69 1161.77 170.94"/><polygon class="cls-166" points="1161.77 172.07 1129.57 151.9 1129.57 150.64 1161.77 170.94 1161.77 172.07"/><polygon class="cls-165" points="1161.77 173.33 1129.57 153.02 1129.57 151.9 1161.77 172.07 1161.77 173.33"/><polygon class="cls-165" points="1161.77 222.7 1143.35 251.9 1129.57 251.9 1129.57 153.02 1161.77 173.33 1161.77 222.7"/></g></g></g><g id="polygon58"><path class="cls-165" d="M1070.17,136.36l-9.27,4.89,.75,3.13,21.93-13.91-9.52-10.28-12.41,6.14,8.52,10.03Z"/></g><g id="polygon60"><path class="cls-55" d="M1095.11,285.48l-93.48-46.37,11.53-9.02,93.48,48.87-11.53,6.39v.13Z"/></g><g id="polygon62"><path class="cls-165" d="M1010.39,112.92l-14.16,26.82,14.91-4.39,10.78-28.82s-11.53,6.39-11.53,6.39Z"/></g><g id="path69"><g class="cls-239"><g><polygon class="cls-50" points="871.55 223.95 869.79 224.7 869.79 223.95 869.92 223.95 871.55 223.95"/><polygon class="cls-49" points="873.3 223.95 869.79 225.58 869.79 224.7 871.55 223.95 873.3 223.95"/><polygon class="cls-48" points="874.93 223.95 869.79 226.46 869.79 225.58 873.3 223.95 874.93 223.95"/><polygon class="cls-42" points="876.69 223.95 869.79 227.34 869.79 226.46 874.93 223.95 876.69 223.95"/><polygon class="cls-38" points="878.32 223.95 869.79 228.21 869.79 227.34 876.69 223.95 878.32 223.95"/><polygon class="cls-39" points="880.07 223.95 869.79 229.09 869.79 228.21 878.32 223.95 880.07 223.95"/><polygon class="cls-29" points="881.82 223.95 869.79 229.97 869.79 229.09 880.07 223.95 881.82 223.95"/><polygon class="cls-27" points="883.45 223.95 869.79 230.84 869.79 229.97 881.82 223.95 883.45 223.95"/><polygon class="cls-130" points="885.21 223.95 869.79 231.72 869.79 230.84 883.45 223.95 885.21 223.95"/><polygon class="cls-125" points="886.84 223.95 869.79 232.6 869.79 231.72 885.21 223.95 886.84 223.95"/><polygon class="cls-126" points="888.59 223.95 869.79 233.48 869.79 232.6 886.84 223.95 888.59 223.95"/><polygon class="cls-131" points="890.35 223.95 869.79 234.23 869.79 233.48 888.59 223.95 890.35 223.95"/><polygon class="cls-129" points="891.97 223.95 869.79 235.1 869.79 234.23 890.35 223.95 891.97 223.95"/><polygon class="cls-81" points="893.73 223.95 869.79 235.98 869.79 235.1 891.97 223.95 893.73 223.95"/><polygon class="cls-82" points="895.36 223.95 869.79 236.86 869.79 235.98 893.73 223.95 895.36 223.95"/><polygon class="cls-91" points="897.11 223.95 869.79 237.74 869.79 236.86 895.36 223.95 897.11 223.95"/><polygon class="cls-90" points="898.74 223.95 869.79 238.61 869.79 237.74 897.11 223.95 898.74 223.95"/><polygon class="cls-89" points="900.5 223.95 869.79 239.49 869.79 238.61 898.74 223.95 900.5 223.95"/><polygon class="cls-66" points="902.25 223.95 869.79 240.37 869.79 239.49 900.5 223.95 902.25 223.95"/><polygon class="cls-67" points="903.88 223.95 869.79 241.24 869.79 240.37 902.25 223.95 903.88 223.95"/><polygon class="cls-61" points="905.63 223.95 869.79 242.12 869.79 241.24 903.88 223.95 905.63 223.95"/><polygon class="cls-57" points="907.26 223.95 869.79 243 869.79 242.12 905.63 223.95 907.26 223.95"/><polygon class="cls-77" points="909.02 223.95 869.79 243.75 869.79 243 907.26 223.95 909.02 223.95"/><polygon class="cls-76" points="910.65 223.95 869.79 244.63 869.79 243.75 909.02 223.95 910.65 223.95"/><polygon class="cls-64" points="912.4 223.95 869.79 245.51 869.79 244.63 910.65 223.95 912.4 223.95"/><polygon class="cls-60" points="914.15 223.95 869.79 246.38 869.79 245.51 912.4 223.95 914.15 223.95"/><polygon class="cls-58" points="915.78 223.95 869.79 247.26 869.79 246.38 914.15 223.95 915.78 223.95"/><polygon class="cls-59" points="917.54 223.95 869.79 248.14 869.79 247.26 915.78 223.95 917.54 223.95"/><polygon class="cls-56" points="919.17 223.95 869.79 249.01 869.79 248.14 917.54 223.95 919.17 223.95"/><polygon class="cls-153" points="920.92 223.95 869.79 249.89 869.79 249.01 919.17 223.95 920.92 223.95"/><polygon class="cls-160" points="922.68 223.95 869.79 250.77 869.79 249.89 920.92 223.95 922.68 223.95"/><polygon class="cls-156" points="924.31 223.95 869.79 251.65 869.79 250.77 922.68 223.95 924.31 223.95"/><polygon class="cls-155" points="926.06 223.95 869.79 252.4 869.79 251.65 924.31 223.95 926.06 223.95"/><polygon class="cls-157" points="927.69 223.95 869.79 253.27 869.79 252.4 926.06 223.95 927.69 223.95"/><polygon class="cls-194" points="929.44 223.95 869.79 254.15 869.79 253.27 927.69 223.95 929.44 223.95"/><polygon class="cls-191" points="931.07 223.95 869.79 255.03 869.79 254.15 929.44 223.95 931.07 223.95"/><polygon class="cls-192" points="932.83 223.95 869.79 255.91 869.79 255.03 931.07 223.95 932.83 223.95"/><polygon class="cls-196" points="934.58 223.95 869.79 256.78 869.79 255.91 932.83 223.95 934.58 223.95"/><polygon class="cls-189" points="936.21 223.95 870.04 257.54 869.79 257.16 869.79 256.78 934.58 223.95 936.21 223.95"/><polygon class="cls-188" points="937.96 223.95 870.42 258.29 870.04 257.54 936.21 223.95 937.96 223.95"/><polygon class="cls-187" points="939.59 223.95 870.67 258.91 870.42 258.29 937.96 223.95 939.59 223.95"/><polygon class="cls-184" points="940.47 223.95 940.72 224.2 871.05 259.67 870.67 258.91 939.59 223.95 940.47 223.95"/><rect class="cls-185" x="867" y="241.85" width="78.07" height=".75" transform="translate(-11.39 436.93) rotate(-26.95)"/><rect class="cls-186" x="867.43" y="242.6" width="78.07" height=".75" transform="translate(-11.68 437.21) rotate(-26.95)"/><rect class="cls-172" x="867.68" y="243.3" width="78.07" height=".75" transform="translate(-11.97 437.4) rotate(-26.95)"/><rect class="cls-175" x="868.11" y="244.05" width="78.07" height=".75" transform="translate(-12.26 437.67) rotate(-26.95)"/><rect class="cls-173" x="868.35" y="244.69" width="78.07" height=".75" transform="translate(-12.53 437.85) rotate(-26.95)"/><rect class="cls-174" x="868.72" y="245.2" width="78.07" height=".75" transform="translate(-12.72 438.07) rotate(-26.95)"/><rect class="cls-178" x="869.14" y="245.95" width="78.07" height=".75" transform="translate(-13.01 438.35) rotate(-26.95)"/><rect class="cls-167" x="869.4" y="246.65" width="78.07" height=".75" transform="translate(-13.3 438.54) rotate(-26.95)"/><rect class="cls-166" x="869.83" y="247.4" width="78.07" height=".75" transform="translate(-13.59 438.82) rotate(-26.95)"/><rect class="cls-165" x="870.19" y="248.04" width="78.07" height=".75" transform="translate(-13.84 439.05) rotate(-26.95)"/><polygon class="cls-165" points="944.23 231.09 956.64 255.53 956.64 285.98 884.46 285.98 874.56 266.43 944.23 231.09"/></g></g></g><g id="polygon71"><path class="cls-165" d="M945.73,165.43l10.78,120.17,44.74-6.39,11.9-6.14-55.39-114.79-11.28,3.88-11.9,5.89,11.03-2.63h.13Z"/></g><g id="polygon78"><g class="cls-238"><g><polygon class="cls-47" points="780.7 194.25 766.91 200.27 766.91 194.25 780.7 194.25"/><polygon class="cls-47" points="783.2 194.25 766.91 201.4 766.91 200.27 780.7 194.25 783.2 194.25"/><polygon class="cls-54" points="785.83 194.25 766.91 202.4 766.91 201.4 783.2 194.25 785.83 194.25"/><polygon class="cls-46" points="788.34 194.25 766.91 203.53 766.91 202.4 785.83 194.25 788.34 194.25"/><polygon class="cls-37" points="790.97 194.25 766.91 204.65 766.91 203.53 788.34 194.25 790.97 194.25"/><polygon class="cls-32" points="793.48 194.25 766.91 205.78 766.91 204.65 790.97 194.25 793.48 194.25"/><polygon class="cls-33" points="796.11 194.25 766.91 206.91 766.91 205.78 793.48 194.25 796.11 194.25"/><polygon class="cls-36" points="798.74 194.25 766.91 208.04 766.91 206.91 796.11 194.25 798.74 194.25"/><polygon class="cls-35" points="801.25 194.25 766.91 209.16 766.91 208.04 798.74 194.25 801.25 194.25"/><polygon class="cls-98" points="803.88 194.25 766.91 210.29 766.91 209.16 801.25 194.25 803.88 194.25"/><polygon class="cls-97" points="806.39 194.25 766.91 211.3 766.91 210.29 803.88 194.25 806.39 194.25"/><polygon class="cls-95" points="809.02 194.25 766.91 212.42 766.91 211.3 806.39 194.25 809.02 194.25"/><polygon class="cls-96" points="811.65 194.25 766.91 213.55 766.91 212.42 809.02 194.25 811.65 194.25"/><polygon class="cls-93" points="814.16 194.25 766.91 214.68 766.91 213.55 811.65 194.25 814.16 194.25"/><polygon class="cls-127" points="816.79 194.25 766.91 215.81 766.91 214.68 814.16 194.25 816.79 194.25"/><polygon class="cls-133" points="819.29 194.25 766.91 216.93 766.91 215.81 816.79 194.25 819.29 194.25"/><polygon class="cls-50" points="821.92 194.25 766.91 218.06 766.91 216.93 819.29 194.25 821.92 194.25"/><polygon class="cls-49" points="824.43 194.25 766.91 219.19 766.91 218.06 821.92 194.25 824.43 194.25"/><polygon class="cls-48" points="827.06 194.25 766.91 220.32 766.91 219.19 824.43 194.25 827.06 194.25"/><polygon class="cls-42" points="829.69 194.25 766.91 221.32 766.91 220.32 827.06 194.25 829.69 194.25"/><polygon class="cls-38" points="832.2 194.25 766.91 222.45 766.91 221.32 829.69 194.25 832.2 194.25"/><polygon class="cls-39" points="834.83 194.25 766.91 223.58 766.91 222.45 832.2 194.25 834.83 194.25"/><polygon class="cls-29" points="837.34 194.25 766.91 224.7 766.91 223.58 834.83 194.25 837.34 194.25"/><polygon class="cls-27" points="839.97 194.25 767.04 225.71 766.91 225.33 766.91 224.7 837.34 194.25 839.97 194.25"/><polygon class="cls-130" points="842.6 194.25 767.41 226.71 767.04 225.71 839.97 194.25 842.6 194.25"/><polygon class="cls-125" points="845.11 194.25 767.92 227.59 767.41 226.71 842.6 194.25 845.11 194.25"/><polygon class="cls-126" points="847.74 194.25 768.29 228.59 767.92 227.59 845.11 194.25 847.74 194.25"/><polygon class="cls-131" points="848.49 194.25 848.87 194.88 768.67 229.47 768.29 228.59 847.74 194.25 848.49 194.25"/><rect class="cls-129" x="765.22" y="212.23" width="87.34" height="1" transform="translate(-18.11 337.74) rotate(-23.33)"/><rect class="cls-81" x="765.67" y="213.02" width="87.34" height="1" transform="translate(-18.39 337.98) rotate(-23.33)"/><rect class="cls-82" x="766.15" y="213.99" width="87.34" height="1" transform="translate(-18.73 338.25) rotate(-23.33)"/><rect class="cls-91" x="766.46" y="214.9" width="87.34" height="1" transform="translate(-19.07 338.45) rotate(-23.33)"/><rect class="cls-90" x="766.95" y="215.92" width="87.34" height="1" transform="translate(-19.43 338.72) rotate(-23.33)"/><rect class="cls-89" x="767.27" y="216.83" width="87.34" height="1" transform="translate(-19.76 338.92) rotate(-23.33)"/><rect class="cls-66" x="767.64" y="217.85" width="87.34" height="1" transform="translate(-20.14 339.15) rotate(-23.33)"/><rect class="cls-67" x="768.07" y="218.71" width="87.34" height="1" transform="translate(-20.44 339.39) rotate(-23.33)"/><rect class="cls-61" x="768.56" y="219.73" width="87.34" height="1" transform="translate(-20.81 339.67) rotate(-23.33)"/><rect class="cls-57" x="768.88" y="220.63" width="87.34" height="1" transform="translate(-21.14 339.87) rotate(-23.33)"/><rect class="cls-77" x="769.24" y="221.53" width="87.34" height="1" transform="translate(-21.47 340.09) rotate(-23.33)"/><rect class="cls-76" x="769.8" y="222.39" width="87.34" height="1" transform="translate(-21.76 340.38) rotate(-23.33)"/><rect class="cls-64" x="770.17" y="223.41" width="87.34" height="1" transform="translate(-22.14 340.61) rotate(-23.33)"/><rect class="cls-60" x="770.48" y="224.32" width="87.34" height="1" transform="translate(-22.47 340.81) rotate(-23.33)"/><rect class="cls-58" x="770.98" y="225.34" width="87.34" height="1" transform="translate(-22.83 341.09) rotate(-23.33)"/><rect class="cls-59" x="771.41" y="226.2" width="87.34" height="1" transform="translate(-23.14 341.33) rotate(-23.33)"/><rect class="cls-56" x="771.77" y="227.22" width="87.34" height="1" transform="translate(-23.51 341.56) rotate(-23.33)"/><rect class="cls-153" x="772.09" y="228.13" width="87.34" height="1" transform="translate(-23.85 341.76) rotate(-23.33)"/><rect class="cls-160" x="772.58" y="229.15" width="87.34" height="1" transform="translate(-24.21 342.03) rotate(-23.33)"/><rect class="cls-156" x="772.9" y="229.93" width="87.34" height="1" transform="translate(-24.49 342.22) rotate(-23.33)"/><rect class="cls-155" x="773.38" y="230.9" width="87.34" height="1" transform="translate(-24.84 342.49) rotate(-23.33)"/><rect class="cls-157" x="773.82" y="231.81" width="87.34" height="1" transform="translate(-25.16 342.74) rotate(-23.33)"/><rect class="cls-194" x="774.19" y="232.83" width="87.34" height="1" transform="translate(-25.54 342.97) rotate(-23.33)"/><rect class="cls-191" x="774.5" y="233.74" width="87.34" height="1" transform="translate(-25.87 343.17) rotate(-23.33)"/><rect class="cls-192" x="775.11" y="234.71" width="87.34" height="1" transform="translate(-26.21 343.49) rotate(-23.33)"/><rect class="cls-196" x="775.43" y="235.62" width="87.34" height="1" transform="translate(-26.54 343.69) rotate(-23.33)"/><rect class="cls-189" x="775.79" y="236.64" width="87.34" height="1" transform="translate(-26.92 343.92) rotate(-23.33)"/><rect class="cls-188" x="776.11" y="237.55" width="87.34" height="1" transform="translate(-27.25 344.12) rotate(-23.33)"/><rect class="cls-187" x="776.72" y="238.4" width="87.34" height="1" transform="translate(-27.53 344.43) rotate(-23.33)"/><rect class="cls-184" x="777.03" y="239.31" width="87.34" height="1" transform="translate(-27.87 344.63) rotate(-23.33)"/><rect class="cls-185" x="777.35" y="240.21" width="87.34" height="1" transform="translate(-28.2 344.83) rotate(-23.33)"/><rect class="cls-186" x="777.84" y="241.23" width="87.34" height="1" transform="translate(-28.57 345.11) rotate(-23.33)"/><rect class="cls-172" x="778.16" y="242.14" width="87.34" height="1" transform="translate(-28.9 345.31) rotate(-23.33)"/><rect class="cls-175" x="778.64" y="243.11" width="87.34" height="1" transform="translate(-29.25 345.58) rotate(-23.33)"/><rect class="cls-173" x="779.08" y="244.02" width="87.34" height="1" transform="translate(-29.57 345.82) rotate(-23.33)"/><rect class="cls-174" x="779.45" y="245.04" width="87.34" height="1" transform="translate(-29.94 346.05) rotate(-23.33)"/><rect class="cls-178" x="779.77" y="245.95" width="87.34" height="1" transform="translate(-30.28 346.25) rotate(-23.33)"/><rect class="cls-167" x="780.25" y="246.92" width="87.34" height="1" transform="translate(-30.62 346.52) rotate(-23.33)"/><rect class="cls-166" x="780.69" y="247.71" width="87.34" height="1" transform="translate(-30.9 346.76) rotate(-23.33)"/><rect class="cls-165" x="781.05" y="248.73" width="87.34" height="1" transform="translate(-31.27 346.99) rotate(-23.33)"/><polygon class="cls-165" points="865.03 232.47 887.34 284.23 887.34 320.19 807.76 320.19 784.83 267.06 865.03 232.47"/></g></g></g><g id="path80"><path class="cls-165" d="M1272.55,260.42l.75,5.64c4.14-.5,8.27-1,12.16-2.26,4.39-1.5,13.66-5.64,17.04-8.77-1.5,.5-23.18,6.14-29.82,5.39"/></g><g id="path82"><path class="cls-165" d="M1104.88,231.6l1.75,9.02c9.52-1.5,17.79-4.89,26.06-9.77,5.14-3.13,10.53-7.52,12.41-8.77-1.25,.75-40.23,9.52-40.23,9.52h0Z"/></g><g id="g84"><g id="path86"><path class="cls-18" d="M841.35,309.41l-3.63-8.27-47.37-105.51-1-2-2,1-1.5,.75-8.52,4.14c-1.25-2-3.38-5.64-4.64-8.02l-19.05-32.21-4.89-8.52,8.27-5.14c7.77-4.89,16.42-9.52,26.32-13.66,19.05-8.02,38.35-12.41,56.14-12.41,5.89,0,11.53,.5,16.79,1.25,8.77,1,17.04,3.88,23.68,8.52,10.03,5.64,18.04,14.41,22.43,24.69,3.63,8.52,4.39,18.55,2,28.82l-1.25,6.14,5.14-3.63c3.38-2.63,6.89-4.64,10.78-6.14,6.64-2.88,13.66-4.39,20.55-4.39s12.91,1.25,18.55,3.88l3.63,1.5-.25-4.14-1.5-17.29-.25-2.88-2.63,.75-8.02,2-1.25-29.32,58.65-18.8-.5,22.93,4.39,1,12.91-24.44,38.35,33.96,1.5,1.5,1.5-1.5c5.14-4.89,11.53-9.02,18.55-11.9l2.88-1.25-2-2.63-6.89-8.52,43.86-50.25,23.18,34.46-35.21,19.05-7.77,4.14,9.02,.25c16.79,.25,31.7,7.52,41.73,19.8l3.63,4.64,2.26,2.88-3.88,4.14-2.63,2.88-8.77,9.52-1.5,1.75,1.75,1.5,8.27,7.52,3.13,2.88,.75-4.14,3.13-19.55,.75-5.14,.75-5.14,4.64-29.07h43.73l.25-2,.75-4.89h38.1l9.27,58.14,.5,3.88,3.13-2.26c3.88-2.88,8.02-4.89,12.41-6.64,5.89-2.26,11.9-3.38,18.04-3.38,7.27,0,14.16,1.5,20.05,4.89,.25,0,.25,.25,.75,.5l2.88,1,.25-3.13,.75-6.39,.25-2-2-.5-7.77-1.75-.25-30.33,59.02,12.91,4.39,21.93h4.64l4.64-18.8,49.12,11.9-50.5,151.63-35.84-11.28-.25-13.91v-2l-2-.25-35.84-5.14,2-18.3,.5-4.39-3.88,2c-1.75,1-3.63,1.75-5.39,2.26-5.89,2.26-11.9,3.38-17.79,3.38-1.75,0-3.38,0-5.14-.25l-3.13-.25,.5,3.13,2.63,15.91-52.26-9.27-2.88-23.68-.75-7.77-3.63,6.64-5.89,11.53-11.03-20.3-3.38-6.14-1,6.89-2.26,15.66-45.86-7.27,3.63-21.68,.75-4.89-4.39,2.63c-7.52,4.39-16.17,8.02-26.32,10.28-3.63,.75-7.27,1.5-11.03,1.75l-2,.25v43.23l-90.1-44.49-3.38-1.5v41.98l-40.48,5.89-1.75-18.3-.5-4.89-3.63,3.38c-5.39,5.14-11.28,9.27-17.79,12.16-6.64,2.88-13.66,4.39-20.3,4.39s-13.41-1.5-19.3-4.14c-10.78-5.14-18.8-14.66-22.18-26.82-1.5-5.64-2-11.53-1.25-17.79l.75-6.39-4.64,4.64c-3.38,3.13-6.89,6.14-10.78,9.02l-1.25,1,.5,1.5,13.66,52,2.26,9.27-9.02,2.88-25.44,8.27-8.77,2.26h0v-.25Zm11.28-139.85c-1.25,0-2.63,0-4.14,.25l-1.75,.25-2.63,.5,.75,2.63,.5,1.5,7.27,23.93,.75,2.26,1,3.38,2.63-2.26,1.75-1.5c7.27-6.39,9.52-12.91,8.02-21.05-1-4.89-4.64-7.27-6.89-8.27-1.5-1-4.39-1.5-7.27-1.5h0v-.13Zm196.24,.75l-4.64,4.39-12.16,11.53-2.63,2.63,3.38,1.25,12.91,4.89,3.88,1.5-.75-4.14c-1-5.39-1.25-10.78-.75-15.91,0,0,.75-6.14,.75-6.14Zm52.51-13.41c-4.89,0-9.77,2-13.16,5.89-5.14,5.64-6.14,14.16-2.63,20.8l1,1.75,1.5,2.88,2.26-2.63,1.5-1.5,17.79-20.05,1.25-1.5,2.26-2.63-3.13-1.25-2-.75c-2.63-.5-4.64-1-6.89-1h.25Z"/></g></g><g id="path88"><path class="cls-19" d="M1128.31,186.86l-.5,.5s.5-.25,.5-.5Z"/></g><g id="polygon90"><path class="cls-19" d="M1143.73,172.95l8.77-9.52-3.13,3.13v-.25l-2.63,2.88-8.77,9.27,8.27,7.52,1.5-9.27,4.14,3.63-8.27-7.27,.13-.13Z"/></g><g id="polygon92"><path class="cls-19" d="M1143.73,172.95l8.27,7.27,3.13-19.55-2.63,2.88-8.77,9.52v-.13Z"/></g><g id="path96"><path class="cls-26" d="M1082.83,196.38c.75,.75,0,.25,.75,.75l5.39-3.88c-.75-.5-1.5-1.25-2.26-1.75-7.77-7.27-5.64-23.18-.75-31.95-13.41,10.78-12.66,27.32-3.13,36.84"/></g><g id="path98"><path class="cls-26" d="M1147.86,205.41c-9.02,7.52-19.05,12.16-32.46,15.41-2.88,.75-5.89,1.25-8.52,1.25-21.43,2-39.1-7.77-45.86-23.43-.75-1.75-1.5-3.88-2-5.89-3.13-13.41-.5-25.19,6.14-34.71,.75-1,1.25-1.75,2-2.63-.25,.25-.75,.5-1,.75-2.63,2.26-4.89,4.64-6.64,7.52-6.64,9.27-9.27,21.43-6.14,34.71,.5,2,1,4.14,2,5.89,6.64,15.91,24.69,25.69,45.86,23.68,2.88-.25,5.64-.75,8.77-1.5,13.41-3.38,23.68-8.02,32.46-15.41,2-1.75,4.39-3.88,6.39-5.89l-.25-.25s-.75,.25-.75,.5"/></g><g id="polygon100"><path class="cls-26" d="M997.86,164.93l23.68-33.46-1-.75-22.93,32.21,.25,2Z"/></g><g id="polygon102"><path class="cls-26" d="M1155.13,160.54l-3.13,19.55-4.14-3.63-1.5,9.27-8.27-7.52,8.77-9.27,2.63-2.88v.25l3.13-3.13,2.63-2.88-.13,.25Z"/></g><g id="polygon104"><path class="cls-26" d="M1125.81,105.41l8.27-3.63-15.16-19.55-4.89,7.27,11.9,15.91h-.13Z"/></g><g id="path106"><path class="cls-26" d="M895.11,153.9c-38.6-46.87-107.89-21.68-132.58,.25l1,1.75c5.64-3.38,11.9-6.14,18.05-9.02,24.69-10.53,48.37-13.66,67.17-10.28,6.64,.75,13.66,2.88,19.8,6.89,8.52,4.89,14.91,11.53,18.8,20.3,6.64,15.41,.75,36.09-14.91,53.01,19.8-18.3,33.46-35.84,22.68-63.03h0v.13Z"/></g><g id="path108"><path class="cls-26" d="M973.55,208.41c-.25-.75-.25-1.75-.5-2.63-2-7.77-6.64-13.91-12.91-18.05-9.77-6.64-23.68-8.02-37.34-2.26-7.27,3.13-13.41,8.02-18.55,13.66,3.88-3.38,8.27-5.89,12.91-8.02,13.66-5.89,27.57-4.39,37.34,2.26,6.14,4.14,10.78,10.28,12.91,18.04,.25,.75,.5,1.75,.5,2.63,.5,3.13,.75,5.89,.75,9.02-.25,9.02-3.63,18.05-9.02,25.69-.75,1.25-1.75,2.26-2.88,3.63,3.13-2.88,5.89-5.64,8.27-9.02,5.64-7.77,8.77-16.79,9.27-25.69,0-3.13-.25-6.14-.75-9.27"/></g><g id="path110"><path class="cls-26" d="M935.71,197.13s5.64-5.64,5.39-5.64c-6.89-.25-10.03,6.39-10.28,6.89,1.5-.75,3.13-1,4.89-1.25"/></g><g id="path112"><path class="cls-26" d="M948.87,205.15c.25,1,.5,1.75,.5,2.88,0,1.5-.25,2.88-1,4.14,1-.5,9.27-4.64,6.14-12.91,.25,.5-5.89,5.89-5.64,5.89"/></g><g id="path114"><path class="cls-26" d="M916.91,210.04c0-3.38,5.89-11.9,7.77-14.66-9.27,5.89-13.41,13.91-13.41,20.05,0,10.78,9.52,19.55,20.8,19.55,5.39,0,15.16-2.88,21.68-13.16-3.38,2.26-11.9,7.52-16.42,7.52-11.28,0-20.3-8.52-20.3-19.3"/></g><g id="polygon116"><path class="cls-26" d="M996.49,219.82l.25,43.48,6.89,.5-1.5-49.75-5.64,5.64v.13Z"/></g><g id="polygon118"><path class="cls-26" d="M956.89,136.61v3.88l32.96-9.77,2.26,41.98,5.64-7.77-1.25-41.98s-39.6,13.66-39.6,13.66Z"/></g><g id="polygon120"><path class="cls-26" d="M1056.01,151.52l-30.58-28.32-3.88,8.27,27.32,25.44,7.27-5.39h-.13Z"/></g><g id="path122"><path class="cls-26" d="M1051.37,204.28l-36.34-12.16-5.14,5.64,36.09,14.41c4.14,7.77,10.28,14.41,18.05,19.05,7.52,4.64,16.17,7.52,25.19,8.27v17.79l5.64,2.88,1.75-26.82-45.36-29.07h.13Z"/></g><g id="path124"><path class="cls-26" d="M1109.52,199.39c9.02-2,13.91-6.64,18.55-11.9-3.38,2.88-19.8,6.39-22.68,7.27l-5.39,5.89c2.26,0,6.39-.5,9.52-1.25"/></g><g id="path126"><path class="cls-26" d="M1093.35,137.61c-16.42,2-24.94,15.91-26.32,17.54,6.14-5.14,13.66-9.02,22.18-10.78,20.3-4.89,38.09,1.25,49.12,14.91l6.89-5.64c-11.03-13.41-31.7-20.8-52-15.91"/></g><g id="path128"><path class="cls-26" d="M1148.36,204.78c2-1.5,5.39-3.38,7.52-5.39l-21.93-19.55c-1.75,2-3.13,5.39-5.14,6.89l19.55,18.04h0Z"/></g><g id="path130"><path class="cls-26" d="M1260.89,257.41c-22.93-19.05-21.68-59.52-10.28-72.31l-10.02-63.53-22.18,2.88-1,5.64h16.79l9.02,57.64c-11.28,12.91-16.79,30.07-13.16,46.12,2.88,12.41,10.53,22.18,21.43,27.82,1,.5,2.26,1,3.38,1.5l.25,.75,6.64,1s.5-6.89-.75-7.52h-.13Z"/></g><g id="polygon132"><path class="cls-26" d="M1172.67,130.72l-1,5.64h25.19l7.52,40.98,5.64-5.64-5.89-43.23s-31.45,2.26-31.45,2.26Z"/></g><g id="polygon134"><path class="cls-26" d="M1215.91,210.04l-8.27,21.05,2,5.64,11.53-32.21-5.39,5.39,.13,.13Z"/></g><g id="polygon136"><path class="cls-26" d="M1191.72,196.88l-5.64,5.64-6.14,38.09,5.89,2,5.89-45.86v.13Z"/></g><g id="path138"><path class="cls-26" d="M1305.26,184.48c3.38,2.26,6.14,5.39,8.27,9.02,1.75,2.88,2.88,5.64,3.88,9.27,2.88,11.53-.5,23.93-7.77,33.71-.75,1-1.5,2-2.26,2.88,2.88-2.63,38.85-29.07,3.88-63.91-38.6-12.66-53.26,12.41-54.64,14.16,4.14-3.38,8.77-6.39,13.91-8.27,12.91-5.14,25.69-3.38,34.71,3.13"/></g><g id="path140"><path class="cls-26" d="M1285.96,187.11l5.64-5.64c-6.89,.25-10.28,3.63-9.77,5.14-.5,.5-.75,1.25-1,1.75,1.25-.75,4.14-1.25,5.14-1.25"/></g><g id="path142"><path class="cls-26" d="M1298.74,195.88c.25,1,.25,1.75,.25,2.88,0,1.25-.5,2.63-1,3.63,1-.5,9.27-3.13,6.14-12.41,.25,.5-5.64,5.89-5.39,5.89"/></g><g id="path144"><path class="cls-26" d="M1280.44,224.95c7.77,.25,16.42-4.39,22.68-12.91-15.66,3.38-32.46-23.18-30.95-25.69-5.89,4.39-11.28,12.66-11.53,18.55-.5,10.78,8.52,19.55,19.8,20.05"/></g><g id="polygon146"><path class="cls-26" d="M1367.28,293.63l3.63,2.26,45.36-135.96-33.96-7.77-.25,8.02,27.32,5.89-41.98,127.44-.13,.13Z"/></g><g id="polygon148"><path class="cls-26" d="M1313.4,137.61l.25,7.77,36.09,7.27,13.91,65.91,5.64-5.64-13.41-66.67-42.48-8.52v-.13Z"/></g><g id="polygon150"><path class="cls-26" d="M1341.22,212.8l-10.02,56.14,5.64,1.75,10.02-63.53s-5.64,5.64-5.64,5.64Z"/></g><g id="polygon152"><path class="cls-26" d="M873.43,289.49l-16.79-61.28-6.14,4.39,15.66,58.4,7.27-1.5Z"/></g><g id="path154"><path class="cls-26" d="M869.04,197.64c-3.88,4.14-12.66,12.16-17.54,15.16l-3.13-9.52-6.39-21.05-4.14-14.16-4.14,5.14,4.14,14.16,6.39,20.8,3.13,9.52c6.89-3.88,16.79-12.16,21.68-20.05"/></g><g id="path156"><path class="cls-19" d="M1108.01,161.3c-5.39-2-12.91-1.5-17.04,3.13-1,1-2.88,3.63-3.38,4.89,3.88-3.13,11.03-3.88,15.41-2l4.89-5.89h0l.13-.13Z"/></g><g id="path158"><path class="cls-19" d="M864.41,180.34c-.5-3.13-3.63-5.64-5.14-6.39-2.63-1.25-7.52-1.5-10.78-.75,.5,2,1.25,4.64,1.5,5.64,1.25,.25,3.63,.5,4.89,1,1.5,.75,4.14,2.26,4.64,5.64,.75,4.14,.5,8.27-1.25,11.28,4.89-4.64,7.27-9.77,6.14-16.42"/></g><g id="g160"><g id="g162"><g id="path164"><path class="cls-227" d="M872.8,180.22c-2.26-12.41-18.55-19.3-34.71-10.53l4.14,14.16,6.39,21.05,3.13,9.52c12.16-7.52,24.19-17.04,21.05-34.21h0Zm-15.91,19.3c-1.75-5.64-5.64-18.05-5.64-18.05,0,0-.75-2.63-1.75-5.64,3.38-.5,6.64-.25,9.27,1,1.5,.75,4.14,2.26,4.64,5.64,1.5,6.64-.75,11.9-6.39,17.04h-.13Z"/></g></g></g><g id="g166"><g id="g168"><g id="path170"><path class="cls-183" d="M1116.41,160.54c-9.02-8.27-22.93-7.77-31.2,1.25-8.27,9.02-7.77,22.93,1.25,31.2,.75,.75,1.5,1.25,2.26,1.75l29.07-32.96s-1-.75-1.5-1.25h.13Zm-27.32,23.18c-2.88-5.14-2.26-11.9,2-16.42,4.14-4.39,10.28-5.64,15.66-3.63l-17.79,20.05h.13Z"/></g></g></g><g id="polygon172"><path class="cls-92" d="M1155.13,156.91l-15.91,15.41,15.16,13.66s.75-29.07,.75-29.07Z"/></g><g id="path174"><path class="cls-225" d="M1304.13,190.12c.25,1,.25,2,.25,3.13-.25,6.14-5.89,10.78-12.91,10.53-6.89-.25-12.41-5.39-12.16-11.53,.25-5.64,5.39-10.28,11.53-10.53-1.25-.25-2.63-.5-3.88-.5-11.53-.5-20.8,7.77-21.43,17.79-.5,10.78,8.27,19.8,19.55,20.05,11.53,.5,20.8-7.77,21.43-18.55,.75-3.63-.5-7.27-2.63-10.28"/></g><g id="path183"><g class="cls-236"><g><rect class="cls-227" x="917.16" y="191.25" width="1.13" height="38.09"/><rect class="cls-230" x="918.42" y="191.25" width="1.5" height="38.09"/><rect class="cls-231" x="919.92" y="191.25" width="1.5" height="38.09"/><rect class="cls-223" x="921.42" y="191.25" width="1.5" height="38.09"/><rect class="cls-222" x="922.93" y="191.25" width="1.5" height="38.09"/><rect class="cls-229" x="924.56" y="191.25" width="1.5" height="38.09"/><rect class="cls-228" x="926.06" y="191.25" width="1.5" height="38.09"/><rect class="cls-219" x="927.56" y="191.25" width="1.5" height="38.09"/><rect class="cls-181" x="929.07" y="191.25" width="1.5" height="38.09"/><rect class="cls-180" x="930.57" y="191.25" width="1.5" height="38.09"/><rect class="cls-182" x="932.2" y="191.25" width="1.5" height="38.09"/><rect class="cls-226" x="933.7" y="191.25" width="1.5" height="38.09"/><rect class="cls-224" x="935.21" y="191.25" width="1.5" height="38.09"/><rect class="cls-25" x="936.71" y="191.25" width="1.5" height="38.09"/><rect class="cls-20" x="938.21" y="191.25" width="1.5" height="38.09"/><rect class="cls-220" x="939.84" y="191.25" width="1.5" height="38.09"/><rect class="cls-221" x="941.35" y="191.25" width="1.5" height="38.09"/><rect class="cls-24" x="942.85" y="191.25" width="1.5" height="38.09"/><rect class="cls-22" x="944.36" y="191.25" width="1.5" height="38.09"/><rect class="cls-21" x="945.98" y="191.25" width="1.5" height="38.09"/><rect class="cls-217" x="947.49" y="191.25" width="1.5" height="38.09"/><rect class="cls-218" x="948.99" y="191.25" width="1.5" height="38.09"/><rect class="cls-215" x="950.5" y="191.25" width="1.5" height="38.09"/><rect class="cls-214" x="952" y="191.25" width="1.5" height="38.09"/><rect class="cls-216" x="953.63" y="191.25" width="1.5" height="38.09"/><rect class="cls-216" x="955.13" y="191.25" width="1.38" height="38.09"/><rect class="cls-213" x="956.51" y="191.25" width="1.38" height="38.09"/><rect class="cls-213" x="957.89" y="191.25" width=".25" height="38.09"/></g></g></g><g id="g185"><g id="g187"><g id="path196"><g class="cls-237"><g><rect class="cls-215" x="1312.02" y="138.74" width="20.55" height="155.76"/><rect class="cls-214" x="1332.57" y="138.74" width="25.56" height="155.76"/><rect class="cls-216" x="1358.14" y="138.74" width="25.56" height="155.76"/><rect class="cls-216" x="1383.58" y="138.74" width="22.93" height="155.76"/><rect class="cls-213" x="1406.51" y="138.74" width="8.27" height="155.76"/><rect class="cls-21" x="1243.35" y="170.69" width="12.66" height="80.58"/><rect class="cls-217" x="1256.01" y="170.69" width="25.56" height="80.58"/><rect class="cls-218" x="1281.45" y="170.69" width="25.56" height="80.58"/><rect class="cls-215" x="1307.01" y="170.69" width="17.92" height="80.58"/><rect class="cls-221" x="1155.01" y="124.33" width="24.44" height="140.85"/><rect class="cls-24" x="1179.32" y="124.33" width="25.56" height="140.85"/><rect class="cls-22" x="1204.88" y="124.33" width="25.56" height="140.85"/><rect class="cls-21" x="1230.44" y="124.33" width="25.56" height="140.85"/><rect class="cls-217" x="1256.01" y="124.33" width="5.64" height="140.85"/><rect class="cls-224" x="1055.88" y="133.85" width="21.43" height="90.35"/><rect class="cls-25" x="1077.19" y="133.85" width="25.56" height="90.35"/><rect class="cls-20" x="1102.75" y="133.85" width="25.56" height="90.35"/><rect class="cls-220" x="1128.31" y="133.85" width="25.56" height="90.35"/><rect class="cls-221" x="1153.88" y="133.85" width=".38" height="90.35"/><rect class="cls-226" x="1033.95" y="176.58" width="12.91" height="16.42"/><rect class="cls-181" x="956.76" y="125.08" width="18.42" height="141.1"/><rect class="cls-180" x="975.18" y="125.08" width="25.56" height="141.1"/><rect class="cls-182" x="1000.62" y="125.08" width="25.56" height="141.1"/><rect class="cls-226" x="1026.18" y="125.08" width="25.56" height="141.1"/><rect class="cls-224" x="1051.75" y="125.08" width="25.56" height="141.1"/><rect class="cls-25" x="1077.19" y="125.08" width="17.79" height="141.1"/><rect class="cls-229" x="887.71" y="179.59" width="10.78" height="90.35"/><rect class="cls-228" x="898.49" y="179.59" width="25.56" height="90.35"/><rect class="cls-219" x="924.05" y="179.59" width="25.56" height="90.35"/><rect class="cls-181" x="949.62" y="179.59" width="24.69" height="90.35"/><rect class="cls-227" x="762.4" y="127.59" width="8.52" height="169.67"/><rect class="cls-230" x="770.92" y="127.59" width="25.56" height="169.67"/><rect class="cls-231" x="796.36" y="127.59" width="25.56" height="169.67"/><rect class="cls-223" x="821.92" y="127.59" width="25.56" height="169.67"/><rect class="cls-222" x="847.49" y="127.59" width="25.56" height="169.67"/><rect class="cls-229" x="873.05" y="127.59" width="25.56" height="169.67"/><rect class="cls-228" x="898.49" y="127.59" width="3.63" height="169.67"/><rect class="cls-25" x="1090.34" y="83.1" width="12.41" height="38.35"/><rect class="cls-20" x="1102.75" y="83.1" width="25.56" height="38.35"/><rect class="cls-220" x="1128.31" y="83.1" width="4.51" height="38.35"/><rect class="cls-220" x="1143.6" y="160.54" width="10.15" height="19.55"/><rect class="cls-221" x="1153.88" y="160.54" width="1.13" height="19.55"/><rect class="cls-227" x="745.36" y="65.81" width="25.56" height="246.36"/><rect class="cls-230" x="770.92" y="65.81" width="25.56" height="246.36"/><rect class="cls-231" x="796.36" y="65.81" width="25.56" height="246.36"/><rect class="cls-223" x="821.92" y="65.81" width="25.56" height="246.36"/><rect class="cls-222" x="847.49" y="65.81" width="25.56" height="246.36"/><rect class="cls-229" x="873.05" y="65.81" width="25.56" height="246.36"/><rect class="cls-228" x="898.49" y="65.81" width="25.56" height="246.36"/><rect class="cls-219" x="924.05" y="65.81" width="25.56" height="246.36"/><rect class="cls-181" x="949.62" y="65.81" width="25.56" height="246.36"/><rect class="cls-180" x="975.18" y="65.81" width="25.56" height="246.36"/><rect class="cls-182" x="1000.62" y="65.81" width="25.56" height="246.36"/><rect class="cls-226" x="1026.18" y="65.81" width="25.56" height="246.36"/><rect class="cls-224" x="1051.75" y="65.81" width="25.56" height="246.36"/><rect class="cls-25" x="1077.19" y="65.81" width="25.56" height="246.36"/><rect class="cls-20" x="1102.75" y="65.81" width="25.56" height="246.36"/><rect class="cls-220" x="1128.31" y="65.81" width="25.56" height="246.36"/><rect class="cls-221" x="1153.88" y="65.81" width="25.56" height="246.36"/><rect class="cls-24" x="1179.32" y="65.81" width="25.56" height="246.36"/><rect class="cls-22" x="1204.88" y="65.81" width="25.56" height="246.36"/><rect class="cls-21" x="1230.44" y="65.81" width="25.56" height="246.36"/><rect class="cls-217" x="1256.01" y="65.81" width="25.56" height="246.36"/><rect class="cls-218" x="1281.45" y="65.81" width="25.56" height="246.36"/><rect class="cls-215" x="1307.01" y="65.81" width="25.56" height="246.36"/><rect class="cls-214" x="1332.57" y="65.81" width="25.56" height="246.36"/><rect class="cls-216" x="1358.14" y="65.81" width="25.56" height="246.36"/><rect class="cls-216" x="1383.58" y="65.81" width="22.93" height="246.36"/><rect class="cls-213" x="1406.51" y="65.81" width="22.93" height="246.36"/></g></g></g></g></g><g id="path198"><path d="M1400.24,285.48h1c1.25,0,2.26-.5,2.26-1.75,0-.75-.75-1.75-2.26-1.75h-1v3.63h0v-.13Zm0,5.39h-1.5v-9.77c.75-.25,1.5-.25,2.88-.25,1.5,0,2.63,.25,3.13,.75,.5,.5,1,1,1,2,0,1.25-.75,2-1.75,2.26,.75,.25,1.5,1,1.5,2.26,.25,1.5,.5,2,.5,2.26h-1.5s-.5-1.25-.75-2.63c-.25-1.25-.75-1.75-2-1.75h-1.25v4.64h0l-.25,.25Zm1.75-12.66c-3.88,0-6.89,3.38-6.89,7.52s3.13,7.52,7.27,7.52c3.88,0,6.89-3.38,6.89-7.52-.25-4.14-3.38-7.52-7.27-7.52Zm0-1.25c4.89,0,8.52,3.88,8.52,8.77s-3.88,8.77-8.77,8.77-8.77-3.88-8.77-8.77c.25-4.89,4.14-8.77,9.02-8.77Z"/></g></g><g><path class="cls-227" d="M213.17,276.06l-27.12-37.31h-12.92v37.31h-31.3v-120.12h47.14c26.39,0,46.41,15.83,46.41,41.32,0,15.11-7.28,27.12-18.93,34.22l31.67,44.59h-34.95Zm-40.04-64.61h16.02c8.74,0,14.38-5.64,14.38-14.2s-5.64-14.01-14.38-14.01h-16.02v28.21Z"/><path class="cls-227" d="M260.48,155.94h83.36v28.21h-52.05v16.56h37.13v26.21h-37.13v20.93h54.24v28.21h-85.54v-120.12Z"/><path class="cls-227" d="M357.67,251.31l21.11-16.02c5.82,7.83,13.29,15.47,26.75,15.47,8.37,0,12.38-2.91,12.38-8.74s-3.82-7.46-12.19-11.1l-12.38-5.46c-19.11-8.37-30.39-19.29-30.39-36.22,0-21.48,17.65-35.49,42.04-35.49,20.93,0,34.22,10.37,41.13,24.21l-20.93,16.02c-5.46-8.01-10.74-12.74-19.84-12.74-6.19,0-10.74,2.18-10.74,7.64,0,4.37,2.91,6.73,10.37,9.83l13.83,5.82c20.02,8.37,30.76,18.57,30.76,36.22,0,23.66-19.29,37.49-44.05,37.49-22.02,0-39.31-10.74-47.87-26.94Z"/><path class="cls-227" d="M467.42,155.94h83.36v28.21h-52.05v16.56h37.13v26.21h-37.13v20.93h54.24v28.21h-85.54v-120.12Z"/><path class="cls-227" d="M598.27,184.15h-36.04v-28.21h103.38v28.21h-36.04v91.91h-31.31v-91.91Z"/></g></svg>