<?xml version="1.0" encoding="UTF-8"?><svg id="Capa_1" xmlns="http://www.w3.org/2000/svg" xmlns:xlink="http://www.w3.org/1999/xlink" viewBox="0 0 2062.48 432"><defs><style>.cls-1{fill:none;}.cls-2{letter-spacing:-.04em;}.cls-3{clip-path:url(#clippath);}.cls-4{fill:#026bb0;}.cls-5{fill:#026baf;}.cls-6{fill:#026cb1;}.cls-7{fill:#0467aa;}.cls-8{fill:#0466a9;}.cls-9{fill:#0467ab;}.cls-10{fill:#016eb3;}.cls-11{fill:#016eb4;}.cls-12{fill:#016db2;}.cls-13{fill:#006fb5;}.cls-14{fill:#0070b6;}.cls-15{fill:#036aae;}.cls-16{fill:#0368ac;}.cls-17{fill:#0369ad;}.cls-18{fill:#0071b9;}.cls-19{fill:#ffcb05;}.cls-20{fill:#7d7f68;}.cls-21{fill:#3269b1;}.cls-22{fill:#2f6eb5;}.cls-23{fill:#2f6db4;}.cls-24{fill:#312370;}.cls-25{fill:#306cb3;}.cls-26{fill:#3368b0;}.cls-27{fill:#c7a008;}.cls-28{fill:#144e8b;}.cls-29{fill:#125d9e;}.cls-30{fill:#144f8c;}.cls-31{fill:#13437b;}.cls-32{fill:#13437c;}.cls-33{fill:#115c9d;}.cls-34{fill:#115b9c;}.cls-35{fill:#13447d;}.cls-36{fill:#115a9a;}.cls-37{fill:#115a9b;}.cls-38{fill:#115d9e;}.cls-39{fill:#14508e;}.cls-40{fill:#14508d;}.cls-41{fill:#145290;}.cls-42{fill:#145391;}.cls-43{fill:#14518f;}.cls-44{fill:#12467f;}.cls-45{fill:#12457e;}.cls-46{fill:#124780;}.cls-47{fill:#105d9f;}.cls-48{fill:#105fa1;}.cls-49{fill:#135290;}.cls-50{fill:#135391;}.cls-51{fill:#135392;}.cls-52{fill:#114882;}.cls-53{fill:#114781;}.cls-54{fill:#114983;}.cls-55{fill:#105ea0;}.cls-56{fill:#21386e;}.cls-57{fill:#183e75;}.cls-58{fill:#17437c;}.cls-59{fill:#183f77;}.cls-60{fill:#183f76;}.cls-61{fill:#184078;}.cls-62{fill:#17447d;}.cls-63{fill:#18376c;}.cls-64{fill:#18386d;}.cls-65{fill:#184179;}.cls-66{fill:#174681;}.cls-67{fill:#174680;}.cls-68{fill:#17457e;}.cls-69{fill:#17457f;}.cls-70{fill:#18396e;}.cls-71{fill:#18427a;}.cls-72{fill:#174984;}.cls-73{fill:#174883;}.cls-74{fill:#174782;}.cls-75{fill:#173a70;}.cls-76{fill:#17396f;}.cls-77{fill:#17427a;}.cls-78{fill:#17427b;}.cls-79{fill:#173b71;}.cls-80{fill:#163d74;}.cls-81{fill:#163c73;}.cls-82{fill:#164985;}.cls-83{fill:#164984;}.cls-84{fill:#163c72;}.cls-85{fill:#164b87;}.cls-86{fill:#164d89;}.cls-87{fill:#164c88;}.cls-88{fill:#164a85;}.cls-89{fill:#164a86;}.cls-90{fill:#164681;}.cls-91{fill:#164782;}.cls-92{fill:#164883;}.cls-93{fill:#1e2d5f;}.cls-94{fill:#125695;}.cls-95{fill:#125c9d;}.cls-96{fill:#125797;}.cls-97{fill:#125796;}.cls-98{fill:#125898;}.cls-99{fill:#125999;}.cls-100{fill:#125b9c;}.cls-101{fill:#0b5594;}.cls-102{fill:#0c5593;}.cls-103{fill:#085c9d;}.cls-104{fill:#085e9f;}.cls-105{fill:#0c5391;}.cls-106{fill:#085d9e;}.cls-107{fill:#075fa0;}.cls-108{fill:#0760a1;}.cls-109{fill:#0760a2;}.cls-110{fill:#0563a6;}.cls-111{fill:#153f76;}.cls-112{fill:#154077;}.cls-113{fill:#153e75;}.cls-114{fill:#0565a8;}.cls-115{fill:#0564a7;}.cls-116{fill:#0662a4;}.cls-117{fill:#0661a3;}.cls-118{fill:#145492;}.cls-119{fill:#145493;}.cls-120{fill:#145695;}.cls-121{fill:#145594;}.cls-122{fill:#144078;}.cls-123{fill:#14427a;}.cls-124{fill:#144179;}.cls-125{fill:#0663a5;}.cls-126{fill:#154c89;}.cls-127{fill:#154c88;}.cls-128{fill:#135594;}.cls-129{fill:#154f8c;}.cls-130{fill:#154a86;}.cls-131{fill:#154d8a;}.cls-132{fill:#154b87;}.cls-133{fill:#135796;}.cls-134{fill:#135493;}.cls-135{fill:#135999;}.cls-136{fill:#135b9b;}.cls-137{fill:#135a9a;}.cls-138{fill:#135898;}.cls-139{fill:#135897;}.cls-140{fill:#1b3165;}.cls-141{fill:#1b3063;}.cls-142{fill:#1b3164;}.cls-143{fill:#15518e;}.cls-144{fill:#154e8b;}.cls-145{fill:#15508d;}.cls-146{fill:#15518f;}.cls-147{fill:#0a5998;}.cls-148{fill:#0a5999;}.cls-149{fill:#0a5897;}.cls-150{fill:#0c5492;}.cls-151{fill:#095b9b;}.cls-152{fill:#095c9c;}.cls-153{fill:#095a9a;}.cls-154{fill:#193d74;}.cls-155{fill:#193e75;}.cls-156{fill:#193b71;}.cls-157{fill:#193b72;}.cls-158{fill:#193a70;}.cls-159{fill:#193f76;}.cls-160{fill:#193f77;}.cls-161{fill:#193c73;}.cls-162{fill:#104b86;}.cls-163{fill:#104a84;}.cls-164{fill:#104a85;}.cls-165{fill:#0f4c87;}.cls-166{fill:#1d2c5e;}.cls-167{fill:#1d2d5f;}.cls-168{fill:#1d2e60;}.cls-169{fill:#0f4e89;}.cls-170{fill:#0f4d88;}.cls-171{fill:#0e4f8c;}.cls-172{fill:#0e508d;}.cls-173{fill:#1c3165;}.cls-174{fill:#1c3063;}.cls-175{fill:#1c2f62;}.cls-176{fill:#1c3164;}.cls-177{fill:#0e4e8b;}.cls-178{fill:#1c2e60;}.cls-179{fill:#1c2e61;}.cls-180{fill:#0d518e;}.cls-181{fill:#3663ad;}.cls-182{fill:#3662ac;}.cls-183{fill:#3564ae;}.cls-184{fill:#3567b0;}.cls-185{fill:#1b3468;}.cls-186{fill:#1b3367;}.cls-187{fill:#1b3266;}.cls-188{fill:#1b3569;}.cls-189{fill:#1b356a;}.cls-190{fill:#1a366b;}.cls-191{fill:#1a3468;}.cls-192{fill:#1a386e;}.cls-193{fill:#1a386d;}.cls-194{fill:#1a3a70;}.cls-195{fill:#1a396f;}.cls-196{fill:#1a3b71;}.cls-197{fill:#1a376c;}.cls-198{fill:#1a3c72;}.cls-199{fill:#1a3367;}.cls-200{fill:#19366b;}.cls-201{fill:#193569;}.cls-202{fill:#19356a;}.cls-203{fill:#18447d;}.cls-204{fill:#18437c;}.cls-205{fill:#18437b;}.cls-206{fill:#0b5695;}.cls-207{fill:#0b5796;}.cls-208{fill:#0d5290;}.cls-209{fill:#0d528f;}.cls-210{fill:#1a3266;}.cls-211{fill:#1c3266;}.cls-212{fill:#1b376c;}.cls-213{fill:#1b366b;}.cls-214{fill:#2a75bb;}.cls-215{fill:#2c72b8;}.cls-216,.cls-217{fill:#2c71b7;}.cls-218{fill:#2b73b9;}.cls-219{fill:#2e6fb6;}.cls-220{fill:#2d70b7;}.cls-221{fill:#3761ac;}.cls-222{fill:#316ab2;}.cls-223{fill:#316bb3;}.cls-224{fill:#395ea9;}.cls-225{fill:#3a5da8;}.cls-226{fill:#3467b0;}.cls-227{fill:#3466af;}.cls-228{fill:#3465af;}.cls-229{fill:#3c5aa6;}.cls-230{fill:#3860ab;}.cls-231{fill:#385faa;}.cls-232{fill:#3b5ba7;}.cls-233{fill:#3b5ca8;}.cls-234{clip-path:url(#clippath-1);}.cls-235{clip-path:url(#clippath-4);}.cls-236{clip-path:url(#clippath-3);}.cls-237{clip-path:url(#clippath-2);}.cls-238{clip-path:url(#clippath-7);}.cls-239{clip-path:url(#clippath-8);}.cls-240{clip-path:url(#clippath-6);}.cls-241{clip-path:url(#clippath-5);}.cls-242{letter-spacing:-.08em;}.cls-217{font-family:CeraPro-Black, 'Cera Pro';font-size:182px;font-weight:800;}.cls-243{letter-spacing:-.05em;}.cls-244{letter-spacing:-.01em;}.cls-245{letter-spacing:0em;}</style><clipPath id="clippath"><polygon class="cls-1" points="93.19 176.05 117.86 217.71 127.75 208.22 100.78 168.27 93.19 176.05"/></clipPath><clipPath id="clippath-1"><polygon class="cls-1" points="390.78 105.63 352.82 149.18 363.91 146.09 400.07 100.94 390.88 105.63 390.78 105.63"/></clipPath><clipPath id="clippath-2"><polygon class="cls-1" points="250.42 155.57 251.63 182.45 263.31 177.95 259.81 150.48 250.33 155.57 250.42 155.57"/></clipPath><clipPath id="clippath-3"><polygon class="cls-1" points="545.11 147.28 535.93 152.38 536.13 180.05 545.62 175.36 548.52 161.77 545.22 147.19 545.11 147.28"/></clipPath><clipPath id="clippath-4"><polygon class="cls-1" points="432.63 143.59 423.44 148.69 407.06 249.28 416.25 244.39 432.03 187.94 432.63 143.59"/></clipPath><clipPath id="clippath-5"><path class="cls-1" d="M209.37,227l-9.49,6.59s2.1,10.69,4.7,18.08c2.69,7.39,8.79,13.38,8.79,13.38,4.1,3.9,8.79,6.79,14.39,8.39,10.49,3.09,22.38,1,32.67-5.49,2.69-1.59,6.39-4.3,8.59-6.59-10.09,6.19-59.74-34.26-59.74-34.26h0l.1-.1h-.02Z"/></clipPath><clipPath id="clippath-6"><polygon class="cls-1" points="127.05 213.62 166.91 303.72 204.67 291.64 213.86 285.44 135.44 203.33 125.55 209.32 117.76 217.71 126.95 213.62 127.05 213.62"/></clipPath><clipPath id="clippath-7"><path class="cls-1" d="M267.81,209.92c0,4.89-4.5,8.79-9.89,8.79s-9.89-3.9-9.89-8.79c0-4.5,3.9-8.39,8.99-8.79-1-.2-2.1-.2-3.09-.2-9.19,0-16.38,6.79-16.38,14.99s7.19,15.39,16.18,15.39,16.38-6.79,16.38-15.39c0-3.09-1-5.8-2.69-8.19,0,.6,.2,1.4,.2,2.3"/></clipPath><clipPath id="clippath-8"><path class="cls-1" d="M603.36,160.27l-4.1,16.78-3.7-18.68-50.45-11.09,.4,28.07,7.59,1.59-.6,5.09s-.2,0-.2-.2c-9.49-4.89-21.18-5.49-32.07-1.2-3.7,1.4-7.19,3.3-10.29,5.49l-7.59-48.05h-33.47l-.8,5.49h-35.27l-4.1,24.67-2.89-3.7c-8.59-10.49-20.98-16.18-34.66-16.58l29.97-15.98-20.98-31.07-37.76,43.56,6.59,8c-5.99,2.5-11.09,5.8-15.39,9.89l-32.47-28.77-11.29,21.58,.4-20.98-50.64,16.18,1.4,27.07,8.59-2.3,1.2,13.78c-9.89-4.5-21.78-4.3-32.67,.4-3.3,1.4-6.39,3.09-8.99,5.09,1.8-8.39,1.4-16.58-1.8-23.98-3.7-8.59-10.49-15.98-18.48-20.48-5.8-3.9-12.48-6.19-19.68-6.99-17.48-3.09-38.56,0-59.34,8.79-7.59,3.3-14.79,6.99-21.18,11.09l-8,5.09,4.89,8.19,15.19,25.88,4.7,7.79,8.2-4.1,1.2-.6,37.76,84.11,3.7,7.99,8.39-2.69,20.28-6.59,8.99-2.89-2.3-8.99-10.89-41.45c3.09-2.3,5.99-4.7,8.59-7.39-.6,4.89-.2,10.09,1,14.79,2.89,10.09,9.49,18.08,18.68,22.38,9.89,4.7,21.98,4.7,33.07,0,5.49-2.5,10.69-5.8,14.79-10.09l1.4,16.58,35.67-5.29v-32.07l74.52,36.97v-35.47c3.09-.2,5.99-.8,8.99-1.4,8.2-2.1,15.19-4.7,21.58-8.39l-3.09,19.08,40.26,6.39,2.3-14.59,10.49,19.48,6.39-12.28,2.3,20.28,45.55,7.99-2.5-15.39c6.19,.6,12.68-.2,19.08-2.5,1.4-.6,3.09-1.2,4.3-2.1l-1.8,16.38,30.37,4.3,.2,12.48,31.57,9.89,41.25-124.17-42.66-10.49h0l.3,.3h.02Zm-178.11,18.48l2.1-2.3-2.5,15.58-6.59-5.99,6.99-7.39v.1h0Zm-26.67-64.05l11.09,14.99-31.57,15.58-2.3-3.3s22.78-27.27,22.78-27.27Zm-209.18,115.78l12.48,48.45-20.28,6.59-41.96-93.7c-2.3,1.2-6.59,3.3-10.29,5.09l-15.19-25.68c5.99-3.9,12.68-7.19,19.68-10.29,19.68-8.39,38.56-10.89,53.55-8.19,5.29,.6,10.89,2.3,15.78,5.49,6.79,3.9,11.89,9.19,14.99,16.18,7.39,16.78-4.7,41.05-28.97,55.84h0l.2,.2h0Zm93.8-8.59c-.2,7.19-2.89,14.39-7.39,20.48-4.3,5.99-10.09,10.69-17.08,13.78-17.68,7.59-35.27,0-40.06-16.78-4.5-16.18,6.19-35.47,23.17-42.86,10.89-4.7,21.98-3.5,29.77,1.8,4.89,3.3,8.59,8.19,10.29,14.38,.2,.6,.4,1.4,.4,2.1,.8,2.5,.8,4.89,.8,7.19l.1-.1h0Zm96.3,34.27l-74.12-36.97,.2,38.76-19.08,2.69-1.4-15.98c5.99-10.09,7.99-22.18,4.89-33.07-1.59-5.99-4.7-11.29-8.99-15.39l-2.69-32.67-8.59,2.3-.4-8.19,30.77-9.19,1.8,31.57,22.58-31.77,22.38,21.18-30.97,32.67,29.17,11.49c3.3,6.19,8.2,11.29,14.39,15.19,5.99,3.7,12.89,5.99,20.08,6.59v20.98h0v-.2h-.02Zm-38.36-53.74l-10.29-3.9,9.69-9.19c-.6,4.3-.4,8.59,.6,13.09Zm80.42,9.89c-7.19,5.99-15.19,9.69-25.88,12.28-2.3,.6-4.7,1-6.79,1-17.08,1.59-31.17-6.19-36.56-18.68-.6-1.4-1.2-3.09-1.59-4.7-2.5-10.69-.4-20.08,4.89-27.67,1.4-2.3,3.3-4.1,5.29-5.99,4.89-4.5,11.29-7.59,18.48-9.49,16.18-3.9,30.36,1,39.16,11.69l-30.77,32.87c2.1,.4,5.29-.2,7.79-.8,7.39-1.8,11.49-5.8,14.99-9.89l12.28,11.09,3.7,3.3c-1.59,1.8-3.3,3.5-5.09,4.89l.1,.1h0Zm65.43,43.75l-6.79-44.35-9.49,24.38-14.18-30.57h-.2l-5.49,35.47-23.57-4.1,3.3-19.68c.8-.8,1.8-1.59,2.69-2.69l7.59-7.79-7.39-6.79,7.99-47.25h23.77l5.99,32.67,6.79-37.76h17.08l7.19,45.95c-8.99,10.29-13.38,23.97-10.49,36.77,2.3,9.89,8.39,17.68,17.08,22.38,.8,.4,1.8,.8,2.69,1.2l.8,5.99-25.27-3.9-.1,.1h0Zm58.94-14.6c-2.69,1.8-5.49,3.5-8.59,4.5-6.19,2.3-12.09,2.89-17.68,1.59-3.7-.8-7.19-2.3-10.29-4.3-4.7-3.5-8.2-8.39-9.89-14.79-1.8-7.59-.2-15.78,3.9-22.97,2.1-3.5,4.7-6.79,7.79-9.69,3.5-3.09,7.59-5.8,11.89-7.39,10.49-3.9,20.77-2.5,27.87,2.69,2.69,1.8,4.89,4.3,6.59,7.19,1.2,2.3,2.3,4.7,2.89,7.39,2.3,9.19-.4,19.08-6.19,26.87-1.8,3.5-4.89,6.39-8.39,8.79h0l.1,.1h.02Zm53.35,41.87l-17.48-5.09-1.4-64.44-8.79,49.65-19.08-3.09,1.4-14.38c12.48-10.49,19.08-27.07,15.39-42.26-1.59-6.59-4.89-12.48-9.89-16.78l1.59-16.78-7.19-1.8,.2-8.99,32.87,6.59,11.09,52.34,11.29-47.05,25.07,5.49-35.06,106.69h0v-.1h0Z"/></clipPath></defs><rect class="cls-19" width="2062.48" height="432" rx="59.56" ry="59.56"/><polygon class="cls-216" points="1874.71 282.5 1860.57 268.35 1912.92 216 1860.57 163.64 1874.71 149.5 1941.2 216 1874.71 282.5"/><g><path class="cls-19" d="M1327.33,158.12h47.14c26.39,0,46.41,15.83,46.41,41.32s-20.02,41.5-46.41,41.5h-15.83v37.31h-31.31v-120.12Zm47.32,55.51c8.74,0,14.38-5.64,14.38-14.2s-5.64-14.01-14.38-14.01h-16.02v28.21h16.02Z"/><path class="cls-19" d="M1437.8,158.12h31.3v91.91h49.69v28.21h-80.99v-120.12Z"/><path class="cls-19" d="M1604.69,268.23h-43.14l-4.37,10.01h-33.67l54.6-122.31h10.01l54.6,122.31h-33.67l-4.37-10.01Zm-21.48-52.96l-10.56,27.85h20.93l-10.37-27.85Z"/><path class="cls-19" d="M1700.61,232.19v46.05h-31.3v-45.68l-41.32-74.44h34.58l22.39,41.86,22.39-41.86h34.4l-41.13,74.08Z"/></g><text class="cls-217" transform="translate(745.75 277.54)"><tspan x="0" y="0">PL</tspan><tspan class="cls-242" x="207.84" y="0">A</tspan><tspan class="cls-2" x="312.31" y="0">Y</tspan><tspan class="cls-243" x="419.51" y="0"> </tspan><tspan class="cls-244" x="461.37" y="0">A</tspan><tspan class="cls-245" x="578.58" y="0">G</tspan><tspan x="712.71" y="0">AIN</tspan></text><g><g id="polygon16"><g class="cls-3"><g><polygon class="cls-14" points="110.87 217.71 110.17 216.31 127.65 206.92 127.65 217.71 110.87 217.71"/><polygon class="cls-14" points="110.17 216.31 109.87 215.91 127.65 206.32 127.65 206.92 110.17 216.31"/><polygon class="cls-13" points="109.87 215.91 109.67 215.51 127.65 205.83 127.65 206.32 109.87 215.91"/><polygon class="cls-11" points="109.67 215.51 109.47 215.01 127.65 205.22 127.65 205.83 109.67 215.51"/><polygon class="cls-10" points="109.47 215.01 109.17 214.61 127.65 204.73 127.65 205.22 109.47 215.01"/><polygon class="cls-12" points="109.17 214.61 108.97 214.12 127.65 204.13 127.65 204.73 109.17 214.61"/><polygon class="cls-6" points="108.97 214.12 108.77 213.72 127.65 203.52 127.65 204.13 108.97 214.12"/><polygon class="cls-4" points="108.77 213.72 108.47 213.31 127.65 203.03 127.65 203.52 108.77 213.72"/><polygon class="cls-5" points="108.47 213.31 108.27 212.82 127.65 202.42 127.65 203.03 108.47 213.31"/><polygon class="cls-15" points="108.27 212.82 108.07 212.42 127.65 201.93 127.65 202.42 108.27 212.82"/><polygon class="cls-17" points="108.07 212.42 107.77 212.01 127.65 201.33 127.65 201.93 108.07 212.42"/><polygon class="cls-16" points="107.77 212.01 107.58 211.52 127.65 200.73 127.65 201.33 107.77 212.01"/><polygon class="cls-9" points="107.58 211.52 107.37 211.12 127.65 200.23 127.65 200.73 107.58 211.52"/><polygon class="cls-7" points="107.37 211.12 107.07 210.72 127.65 199.63 127.65 200.23 107.37 211.12"/><polygon class="cls-8" points="107.07 210.72 106.87 210.22 127.45 199.23 127.65 199.63 127.65 199.63 107.07 210.72"/><rect class="cls-114" x="105.34" y="204.21" width="23.37" height=".5" transform="translate(-82.77 79.64) rotate(-28.22)"/><rect class="cls-115" x="105.19" y="203.85" width="23.37" height=".5" transform="translate(-82.62 79.53) rotate(-28.22)"/><rect class="cls-110" x="104.93" y="203.43" width="23.37" height=".5" transform="translate(-82.45 79.35) rotate(-28.22)"/><rect class="cls-125" x="104.71" y="202.9" width="23.37" height=".5" transform="translate(-82.23 79.19) rotate(-28.22)"/><rect class="cls-116" x="104.45" y="202.54" width="23.37" height=".5" transform="translate(-82.09 79.02) rotate(-28.22)"/><rect class="cls-117" x="104.15" y="202.03" width="23.37" height=".5" transform="translate(-81.88 78.82) rotate(-28.22)"/><rect class="cls-109" x="103.98" y="201.58" width="23.37" height=".5" transform="translate(-81.69 78.68) rotate(-28.22)"/><rect class="cls-108" x="103.82" y="201.22" width="23.37" height=".5" transform="translate(-81.54 78.57) rotate(-28.22)"/><rect class="cls-107" x="103.42" y="200.72" width="23.37" height=".5" transform="translate(-81.35 78.32) rotate(-28.22)"/><rect class="cls-104" x="103.26" y="200.36" width="23.37" height=".5" transform="translate(-81.2 78.2) rotate(-28.22)"/><rect class="cls-106" x="103.08" y="199.91" width="23.37" height=".5" transform="translate(-81.01 78.06) rotate(-28.22)"/><rect class="cls-103" x="102.78" y="199.41" width="23.37" height=".5" transform="translate(-80.8 77.86) rotate(-28.22)"/><rect class="cls-152" x="102.62" y="199.05" width="23.37" height=".5" transform="translate(-80.65 77.74) rotate(-28.22)"/><rect class="cls-151" x="102.35" y="198.6" width="23.37" height=".5" transform="translate(-80.47 77.56) rotate(-28.22)"/><rect class="cls-153" x="102.06" y="198.1" width="23.37" height=".5" transform="translate(-80.27 77.36) rotate(-28.22)"/><rect class="cls-148" x="101.89" y="197.73" width="23.37" height=".5" transform="translate(-80.12 77.24) rotate(-28.22)"/><rect class="cls-147" x="101.73" y="197.29" width="23.37" height=".5" transform="translate(-79.93 77.11) rotate(-28.22)"/><rect class="cls-149" x="101.32" y="196.88" width="23.37" height=".5" transform="translate(-79.78 76.87) rotate(-28.22)"/><rect class="cls-207" x="101.16" y="196.43" width="23.37" height=".5" transform="translate(-79.59 76.74) rotate(-28.22)"/><rect class="cls-206" x="100.95" y="195.88" width="23.37" height=".5" transform="translate(-79.35 76.57) rotate(-28.22)"/><rect class="cls-101" x="100.7" y="195.57" width="23.37" height=".5" transform="translate(-79.24 76.42) rotate(-28.22)"/><rect class="cls-102" x="100.53" y="195.12" width="23.37" height=".5" transform="translate(-79.04 76.29) rotate(-28.22)"/><rect class="cls-150" x="100.21" y="194.57" width="23.37" height=".5" transform="translate(-78.82 76.07) rotate(-28.22)"/><rect class="cls-105" x="99.97" y="194.26" width="23.37" height=".5" transform="translate(-78.71 75.92) rotate(-28.22)"/><rect class="cls-208" x="99.8" y="193.8" width="23.37" height=".5" transform="translate(-78.51 75.78) rotate(-28.22)"/><rect class="cls-209" x="99.5" y="193.4" width="23.37" height=".5" transform="translate(-78.35 75.59) rotate(-28.22)"/><rect class="cls-180" x="99.33" y="192.95" width="23.37" height=".5" transform="translate(-78.16 75.46) rotate(-28.22)"/><rect class="cls-172" x="99.07" y="192.49" width="23.37" height=".5" transform="translate(-77.97 75.28) rotate(-28.22)"/><rect class="cls-171" x="98.77" y="192.09" width="23.37" height=".5" transform="translate(-77.82 75.09) rotate(-28.22)"/><rect class="cls-177" x="98.6" y="191.63" width="23.37" height=".5" transform="translate(-77.62 74.96) rotate(-28.22)"/><rect class="cls-169" x="98.44" y="191.18" width="23.37" height=".5" transform="translate(-77.43 74.83) rotate(-28.22)"/><rect class="cls-170" x="98.04" y="190.78" width="23.37" height=".5" transform="translate(-77.29 74.59) rotate(-28.22)"/><rect class="cls-165" x="97.87" y="190.31" width="23.37" height=".5" transform="translate(-77.09 74.46) rotate(-28.22)"/><rect class="cls-162" x="97.66" y="189.87" width="23.37" height=".5" transform="translate(-76.9 74.3) rotate(-28.22)"/><rect class="cls-164" x="97.4" y="189.46" width="23.37" height=".5" transform="translate(-76.74 74.13) rotate(-28.22)"/><rect class="cls-163" x="97.25" y="189" width="23.37" height=".5" transform="translate(-76.54 74.01) rotate(-28.22)"/><rect class="cls-54" x="96.93" y="188.56" width="23.37" height=".5" transform="translate(-76.37 73.8) rotate(-28.22)"/><rect class="cls-52" x="96.68" y="188.15" width="23.37" height=".5" transform="translate(-76.21 73.63) rotate(-28.22)"/><rect class="cls-53" x="96.51" y="187.69" width="23.37" height=".5" transform="translate(-76.01 73.5) rotate(-28.22)"/><rect class="cls-46" x="96.3" y="187.25" width="23.37" height=".5" transform="translate(-75.82 73.35) rotate(-28.22)"/><rect class="cls-44" x="95.95" y="186.84" width="23.37" height=".5" transform="translate(-75.67 73.13) rotate(-28.22)"/><rect class="cls-45" x="95.78" y="186.48" width="23.37" height=".5" transform="translate(-75.52 73.01) rotate(-28.22)"/><rect class="cls-35" x="95.57" y="185.93" width="23.37" height=".5" transform="translate(-75.29 72.85) rotate(-28.22)"/><rect class="cls-32" x="95.32" y="185.52" width="23.37" height=".5" transform="translate(-75.13 72.68) rotate(-28.22)"/><rect class="cls-31" x="95.15" y="185.17" width="23.37" height=".5" transform="translate(-74.98 72.56) rotate(-28.22)"/><rect class="cls-123" x="94.84" y="184.62" width="23.37" height=".5" transform="translate(-74.76 72.35) rotate(-28.22)"/><rect class="cls-124" x="94.58" y="184.21" width="23.37" height=".5" transform="translate(-74.59 72.18) rotate(-28.22)"/><rect class="cls-122" x="94.37" y="183.76" width="23.37" height=".5" transform="translate(-74.41 72.02) rotate(-28.22)"/><rect class="cls-112" x="94.21" y="183.31" width="23.37" height=".5" transform="translate(-74.21 71.89) rotate(-28.22)"/><rect class="cls-111" x="93.95" y="183" width="23.37" height=".5" transform="translate(-74.1 71.73) rotate(-28.22)"/><rect class="cls-113" x="93.64" y="182.45" width="23.37" height=".5" transform="translate(-73.87 71.52) rotate(-28.22)"/><rect class="cls-80" x="93.48" y="181.99" width="23.37" height=".5" transform="translate(-73.67 71.39) rotate(-28.22)"/><rect class="cls-81" x="93.22" y="181.69" width="23.37" height=".5" transform="translate(-73.56 71.23) rotate(-28.22)"/><rect class="cls-84" x="93.01" y="181.14" width="23.37" height=".5" transform="translate(-73.33 71.07) rotate(-28.22)"/><rect class="cls-79" x="92.74" y="180.68" width="23.37" height=".5" transform="translate(-73.14 70.89) rotate(-28.22)"/><rect class="cls-75" x="92.49" y="180.37" width="23.37" height=".5" transform="translate(-73.03 70.73) rotate(-28.22)"/><rect class="cls-76" x="92.28" y="179.82" width="23.37" height=".5" transform="translate(-72.79 70.56) rotate(-28.22)"/><rect class="cls-70" x="92.11" y="179.47" width="23.37" height=".5" transform="translate(-72.64 70.44) rotate(-28.22)"/><polygon class="cls-64" points="93.29 184.95 93.19 184.74 93.19 184.54 113.67 173.56 113.86 173.96 93.29 184.95"/><polygon class="cls-63" points="93.19 183.95 113.47 173.06 113.67 173.56 93.19 184.54 93.19 183.95"/><polygon class="cls-200" points="93.19 183.35 113.16 172.66 113.47 173.06 93.19 183.95 93.19 183.35"/><polygon class="cls-202" points="93.19 182.85 112.96 172.16 113.16 172.66 93.19 183.35 93.19 182.85"/><polygon class="cls-201" points="93.19 182.25 112.76 171.76 112.96 172.16 93.19 182.85 93.19 182.25"/><polygon class="cls-191" points="93.19 181.65 112.47 171.36 112.76 171.76 93.19 182.25 93.19 181.65"/><polygon class="cls-199" points="93.19 181.15 112.27 170.86 112.47 171.36 93.19 181.65 93.19 181.15"/><polygon class="cls-210" points="93.19 180.55 112.06 170.46 112.27 170.86 93.19 181.15 93.19 180.55"/><polygon class="cls-140" points="93.19 180.05 111.77 170.06 112.06 170.46 93.19 180.55 93.19 180.05"/><polygon class="cls-142" points="93.19 179.45 111.57 169.56 111.77 170.06 93.19 180.05 93.19 179.45"/><polygon class="cls-141" points="93.19 178.85 111.37 169.17 111.57 169.56 93.19 179.45 93.19 178.85"/><polygon class="cls-175" points="93.19 178.35 111.07 168.76 111.37 169.17 93.19 178.85 93.19 178.35"/><polygon class="cls-179" points="93.19 177.75 110.87 168.27 111.07 168.76 93.19 178.35 93.19 177.75"/><polygon class="cls-178" points="93.19 177.26 109.87 168.27 110.87 168.27 110.87 168.27 93.19 177.75 93.19 177.26"/><polygon class="cls-167" points="93.19 176.65 108.87 168.27 109.87 168.27 93.19 177.26 93.19 176.65"/><polygon class="cls-166" points="93.19 176.05 107.77 168.27 108.87 168.27 93.19 176.65 93.19 176.05"/><polygon class="cls-166" points="107.77 168.27 93.19 176.05 93.19 168.27 107.77 168.27"/></g></g></g><g id="polygon18"><path class="cls-18" d="M459.81,143.19l-1,5.49,11.69-3.9-1.4-6.79-9.19,5.09s-.1,.1-.1,.1Z"/></g><g id="polygon25"><g class="cls-234"><g><polygon class="cls-14" points="352.82 140.29 365.3 127 377.09 138 366.6 149.18 352.82 149.18 352.82 140.29"/><rect class="cls-14" x="371.1" y="124.19" width=".4" height="16.18" transform="translate(21.27 313.49) rotate(-46.98)"/><rect class="cls-13" x="371.38" y="123.97" width=".4" height="16.18" transform="translate(21.52 313.63) rotate(-46.98)"/><rect class="cls-11" x="371.77" y="123.64" width=".4" height="16.18" transform="translate(21.88 313.81) rotate(-46.98)"/><rect class="cls-10" x="372.05" y="123.33" width=".4" height="16.18" transform="translate(22.2 313.92) rotate(-46.98)"/><rect class="cls-12" x="372.34" y="123" width=".4" height="16.18" transform="translate(22.53 314.02) rotate(-46.98)"/><rect class="cls-6" x="372.55" y="122.6" width=".4" height="16.18" transform="translate(22.89 314.05) rotate(-46.98)"/><rect class="cls-4" x="372.93" y="122.28" width=".4" height="16.18" transform="translate(23.25 314.22) rotate(-46.98)"/><rect class="cls-5" x="373.22" y="122.05" width=".4" height="16.18" transform="translate(23.5 314.36) rotate(-46.98)"/><rect class="cls-15" x="373.51" y="121.73" width=".4" height="16.18" transform="translate(23.83 314.47) rotate(-46.98)"/><rect class="cls-17" x="373.78" y="121.41" width=".4" height="16.18" transform="translate(24.15 314.57) rotate(-46.98)"/><rect class="cls-16" x="374.09" y="121.02" width=".4" height="16.18" transform="translate(24.53 314.68) rotate(-46.98)"/><rect class="cls-9" x="374.38" y="120.69" width=".4" height="16.18" transform="translate(24.87 314.78) rotate(-46.98)"/><rect class="cls-7" x="374.67" y="120.37" width=".4" height="16.18" transform="translate(25.2 314.89) rotate(-46.98)"/><rect class="cls-8" x="375.05" y="120.15" width=".4" height="16.18" transform="translate(25.47 315.1) rotate(-46.98)"/><rect class="cls-114" x="375.33" y="119.82" width=".4" height="16.18" transform="translate(25.81 315.2) rotate(-46.98)"/><rect class="cls-115" x="375.63" y="119.49" width=".4" height="16.18" transform="translate(26.14 315.31) rotate(-46.98)"/><rect class="cls-110" x="375.83" y="119.11" width=".4" height="16.18" transform="translate(26.49 315.34) rotate(-46.98)"/><rect class="cls-125" x="376.22" y="118.78" width=".4" height="16.18" transform="translate(26.85 315.52) rotate(-46.98)"/><rect class="cls-116" x="376.5" y="118.46" width=".4" height="16.18" transform="translate(27.17 315.63) rotate(-46.98)"/><rect class="cls-117" x="376.79" y="118.14" width=".4" height="16.18" transform="translate(27.5 315.73) rotate(-46.98)"/><rect class="cls-109" x="377.07" y="117.91" width=".4" height="16.18" transform="translate(27.76 315.87) rotate(-46.98)"/><rect class="cls-108" x="377.38" y="117.52" width=".4" height="16.18" transform="translate(28.14 315.97) rotate(-46.98)"/><rect class="cls-107" x="377.67" y="117.19" width=".4" height="16.18" transform="translate(28.47 316.08) rotate(-46.98)"/><rect class="cls-104" x="377.95" y="116.88" width=".4" height="16.18" transform="translate(28.79 316.18) rotate(-46.98)"/><rect class="cls-106" x="378.24" y="116.55" width=".4" height="16.18" transform="translate(29.12 316.28) rotate(-46.98)"/><rect class="cls-103" x="378.56" y="116.3" width=".4" height="16.18" transform="translate(29.41 316.44) rotate(-46.98)"/><rect class="cls-152" x="378.85" y="116.07" width=".4" height="16.18" transform="translate(29.66 316.58) rotate(-46.98)"/><rect class="cls-151" x="379.05" y="115.69" width=".4" height="16.18" transform="translate(30.01 316.61) rotate(-46.98)"/><rect class="cls-153" x="379.44" y="115.35" width=".4" height="16.18" transform="translate(30.38 316.78) rotate(-46.98)"/><rect class="cls-148" x="379.72" y="115.04" width=".4" height="16.18" transform="translate(30.69 316.89) rotate(-46.98)"/><rect class="cls-147" x="380.01" y="114.71" width=".4" height="16.18" transform="translate(31.02 317) rotate(-46.98)"/><rect class="cls-149" x="380.29" y="114.38" width=".4" height="16.18" transform="translate(31.36 317.1) rotate(-46.98)"/><rect class="cls-207" x="380.61" y="114.1" width=".4" height="16.18" transform="translate(31.67 317.24) rotate(-46.98)"/><rect class="cls-206" x="380.9" y="113.77" width=".4" height="16.18" transform="translate(32 317.34) rotate(-46.98)"/><rect class="cls-101" x="381.19" y="113.45" width=".4" height="16.18" transform="translate(32.32 317.46) rotate(-46.98)"/><rect class="cls-102" x="381.46" y="113.13" width=".4" height="16.18" transform="translate(32.65 317.56) rotate(-46.98)"/><rect class="cls-150" x="381.85" y="112.8" width=".4" height="16.18" transform="translate(33.01 317.73) rotate(-46.98)"/><rect class="cls-105" x="382.13" y="112.48" width=".4" height="16.18" transform="translate(33.34 317.84) rotate(-46.98)"/><rect class="cls-208" x="382.35" y="112.09" width=".4" height="16.18" transform="translate(33.69 317.87) rotate(-46.98)"/><rect class="cls-209" x="382.73" y="111.87" width=".4" height="16.18" transform="translate(33.97 318.08) rotate(-46.98)"/><rect class="cls-180" x="383.01" y="111.54" width=".4" height="16.18" transform="translate(34.3 318.19) rotate(-46.98)"/><rect class="cls-172" x="383.3" y="111.21" width=".4" height="16.18" transform="translate(34.63 318.29) rotate(-46.98)"/><rect class="cls-171" x="383.58" y="110.89" width=".4" height="16.18" transform="translate(34.95 318.4) rotate(-46.98)"/><rect class="cls-177" x="383.97" y="110.57" width=".4" height="16.18" transform="translate(35.31 318.57) rotate(-46.98)"/><rect class="cls-169" x="384.18" y="110.18" width=".4" height="16.18" transform="translate(35.67 318.61) rotate(-46.98)"/><rect class="cls-170" x="384.47" y="109.95" width=".4" height="16.18" transform="translate(35.92 318.75) rotate(-46.98)"/><rect class="cls-165" x="384.75" y="109.63" width=".4" height="16.18" transform="translate(36.25 318.85) rotate(-46.98)"/><rect class="cls-162" x="385.14" y="109.3" width=".4" height="16.18" transform="translate(36.61 319.03) rotate(-46.98)"/><rect class="cls-164" x="385.42" y="108.98" width=".4" height="16.18" transform="translate(36.94 319.14) rotate(-46.98)"/><rect class="cls-163" x="385.64" y="108.59" width=".4" height="16.18" transform="translate(37.29 319.17) rotate(-46.98)"/><rect class="cls-54" x="385.91" y="108.27" width=".4" height="16.18" transform="translate(37.61 319.27) rotate(-46.98)"/><rect class="cls-52" x="386.31" y="108.04" width=".4" height="16.18" transform="translate(37.91 319.48) rotate(-46.98)"/><rect class="cls-53" x="386.59" y="107.72" width=".4" height="16.18" transform="translate(38.23 319.59) rotate(-46.98)"/><rect class="cls-46" x="386.87" y="107.4" width=".4" height="16.18" transform="translate(38.56 319.69) rotate(-46.98)"/><rect class="cls-44" x="387.25" y="107.07" width=".4" height="16.18" transform="translate(38.92 319.87) rotate(-46.98)"/><rect class="cls-45" x="387.47" y="106.68" width=".4" height="16.18" transform="translate(39.27 319.9) rotate(-46.98)"/><rect class="cls-35" x="387.76" y="106.35" width=".4" height="16.18" transform="translate(39.6 320.01) rotate(-46.98)"/><rect class="cls-32" x="387.97" y="106.21" width=".4" height="16.18" transform="translate(39.78 320.12) rotate(-46.98)"/><rect class="cls-31" x="388.36" y="105.88" width=".4" height="16.18" transform="translate(40.14 320.29) rotate(-46.98)"/><rect class="cls-123" x="388.65" y="105.56" width=".4" height="16.18" transform="translate(40.46 320.4) rotate(-46.98)"/><rect class="cls-124" x="388.85" y="105.16" width=".4" height="16.18" transform="translate(40.82 320.43) rotate(-46.98)"/><rect class="cls-122" x="389.14" y="104.85" width=".4" height="16.18" transform="translate(41.14 320.54) rotate(-46.98)"/><rect class="cls-112" x="389.53" y="104.51" width=".4" height="16.18" transform="translate(41.51 320.72) rotate(-46.98)"/><rect class="cls-111" x="389.81" y="104.2" width=".4" height="16.18" transform="translate(41.83 320.82) rotate(-46.98)"/><rect class="cls-113" x="390.09" y="103.98" width=".4" height="16.18" transform="translate(42.08 320.96) rotate(-46.98)"/><rect class="cls-80" x="390.39" y="103.65" width=".4" height="16.18" transform="translate(42.41 321.07) rotate(-46.98)"/><rect class="cls-81" x="390.69" y="103.26" width=".4" height="16.18" transform="translate(42.8 321.17) rotate(-46.98)"/><rect class="cls-84" x="390.98" y="102.93" width=".4" height="16.18" transform="translate(43.13 321.27) rotate(-46.98)"/><rect class="cls-79" x="391.27" y="102.6" width=".4" height="16.18" transform="translate(43.46 321.38) rotate(-46.98)"/><rect class="cls-75" x="391.65" y="102.29" width=".4" height="16.18" transform="translate(43.81 321.56) rotate(-46.98)"/><rect class="cls-76" x="391.94" y="102.06" width=".4" height="16.18" transform="translate(44.07 321.7) rotate(-46.98)"/><rect class="cls-70" x="392.14" y="101.67" width=".4" height="16.18" transform="translate(44.42 321.72) rotate(-46.98)"/><rect class="cls-64" x="392.43" y="101.34" width=".4" height="16.18" transform="translate(44.75 321.83) rotate(-46.98)"/><rect class="cls-63" x="392.81" y="101.02" width=".4" height="16.18" transform="translate(45.1 322.01) rotate(-46.98)"/><rect class="cls-200" x="393.1" y="100.7" width=".4" height="16.18" transform="translate(45.43 322.11) rotate(-46.98)"/><rect class="cls-202" x="393.38" y="100.37" width=".4" height="16.18" transform="translate(45.76 322.22) rotate(-46.98)"/><rect class="cls-201" x="393.66" y="100.15" width=".4" height="16.18" transform="translate(46.01 322.35) rotate(-46.98)"/><polygon class="cls-191" points="388.08 102.53 388.38 102.13 400.07 113.02 400.07 113.42 399.97 113.52 388.08 102.53"/><polygon class="cls-199" points="388.38 102.13 388.68 101.84 400.07 112.42 400.07 113.02 388.38 102.13"/><polygon class="cls-210" points="388.68 101.84 388.98 101.53 400.07 111.83 400.07 112.42 388.68 101.84"/><polygon class="cls-140" points="388.98 101.53 389.28 101.23 400.07 111.22 400.07 111.83 388.98 101.53"/><polygon class="cls-142" points="389.28 101.23 389.58 100.94 389.68 100.94 400.07 110.62 400.07 111.22 389.28 101.23"/><polygon class="cls-141" points="390.28 100.94 400.07 110.02 400.07 110.62 389.68 100.94 390.28 100.94"/><polygon class="cls-175" points="390.88 100.94 400.07 109.43 400.07 110.02 390.28 100.94 390.88 100.94"/><polygon class="cls-179" points="391.58 100.94 400.07 108.83 400.07 109.43 390.88 100.94 391.58 100.94"/><polygon class="cls-178" points="392.18 100.94 400.07 108.23 400.07 108.83 391.58 100.94 392.18 100.94"/><polygon class="cls-167" points="392.88 100.94 400.07 107.62 400.07 108.23 392.18 100.94 392.88 100.94"/><polygon class="cls-166" points="393.47 100.94 400.07 107.03 400.07 107.62 392.88 100.94 393.47 100.94"/><polygon class="cls-166" points="400.07 107.03 393.47 100.94 400.07 100.94 400.07 107.03"/></g></g></g><g id="polygon27"><path class="cls-166" d="M594.16,165.16l9.19-4.89-2.69,23.37-6.59-18.48h.1Z"/></g><g id="polygon29"><path class="cls-166" d="M536.13,180.15l8.39,1.8,10.49-5.09-9.19-3.5-9.69,6.79Z"/></g><g id="polygon36"><g class="cls-237"><g><polygon class="cls-14" points="250.42 179.95 263.31 178.45 263.31 182.45 250.42 182.45 250.42 179.95"/><polygon class="cls-14" points="250.42 179.65 263.31 178.15 263.31 178.45 250.42 179.95 250.42 179.65"/><polygon class="cls-13" points="250.42 179.35 263.31 177.86 263.31 178.15 250.42 179.65 250.42 179.35"/><polygon class="cls-11" points="250.42 179.05 263.31 177.55 263.31 177.86 250.42 179.35 250.42 179.05"/><polygon class="cls-10" points="250.42 178.76 263.31 177.26 263.31 177.55 250.42 179.05 250.42 178.76"/><polygon class="cls-12" points="250.42 178.45 263.31 176.95 263.31 177.26 250.42 178.76 250.42 178.45"/><polygon class="cls-6" points="250.42 178.15 263.31 176.65 263.31 176.95 250.42 178.45 250.42 178.15"/><polygon class="cls-4" points="250.42 177.86 263.31 176.36 263.31 176.65 250.42 178.15 250.42 177.86"/><polygon class="cls-5" points="250.42 177.55 263.31 176.05 263.31 176.36 250.42 177.86 250.42 177.55"/><polygon class="cls-15" points="250.42 177.26 263.31 175.76 263.31 176.05 250.42 177.55 250.42 177.26"/><polygon class="cls-17" points="250.42 176.95 263.31 175.46 263.31 175.76 250.42 177.26 250.42 176.95"/><polygon class="cls-16" points="250.42 176.65 263.31 175.15 263.31 175.46 250.42 176.95 250.42 176.65"/><polygon class="cls-9" points="250.42 176.36 263.31 174.86 263.31 175.15 250.42 176.65 250.42 176.36"/><polygon class="cls-7" points="250.42 176.05 263.31 174.56 263.31 174.86 250.42 176.36 250.42 176.05"/><polygon class="cls-8" points="250.42 175.76 263.31 174.16 263.31 174.56 250.42 176.05 250.42 175.76"/><polygon class="cls-114" points="250.42 175.46 263.31 173.86 263.31 174.16 250.42 175.76 250.42 175.46"/><polygon class="cls-115" points="250.42 175.15 263.31 173.56 263.31 173.86 250.42 175.46 250.42 175.15"/><polygon class="cls-110" points="250.42 174.86 263.31 173.26 263.31 173.56 250.42 175.15 250.42 174.86"/><polygon class="cls-125" points="250.42 174.56 263.31 172.96 263.31 173.26 250.42 174.86 250.42 174.56"/><polygon class="cls-116" points="250.42 174.26 263.31 172.66 263.31 172.96 250.42 174.56 250.42 174.26"/><polygon class="cls-117" points="250.42 173.96 263.31 172.36 263.31 172.66 250.42 174.26 250.42 173.96"/><polygon class="cls-109" points="250.42 173.65 263.31 172.06 263.31 172.36 250.42 173.96 250.42 173.65"/><polygon class="cls-108" points="250.42 173.36 263.31 171.76 263.31 172.06 250.42 173.65 250.42 173.36"/><polygon class="cls-107" points="250.42 173.06 263.31 171.46 263.31 171.76 250.42 173.36 250.42 173.06"/><polygon class="cls-104" points="250.42 172.76 263.31 171.16 263.31 171.46 250.42 173.06 250.42 172.76"/><polygon class="cls-106" points="250.42 172.46 263.31 170.86 263.31 171.16 250.42 172.76 250.42 172.46"/><polygon class="cls-103" points="250.42 172.16 263.31 170.56 263.31 170.86 250.42 172.46 250.42 172.16"/><polygon class="cls-152" points="250.42 171.86 263.31 170.26 263.31 170.56 250.42 172.16 250.42 171.86"/><polygon class="cls-151" points="250.42 171.56 263.31 169.96 263.31 170.26 250.42 171.86 250.42 171.56"/><polygon class="cls-153" points="250.42 171.26 263.31 169.66 263.31 169.96 250.42 171.56 250.42 171.26"/><polygon class="cls-148" points="250.42 170.96 263.31 169.37 263.31 169.66 250.42 171.26 250.42 170.96"/><polygon class="cls-147" points="250.42 170.67 263.31 169.06 263.31 169.37 250.42 170.96 250.42 170.67"/><polygon class="cls-149" points="250.42 170.36 263.31 168.76 263.31 169.06 250.42 170.67 250.42 170.36"/><polygon class="cls-207" points="250.42 170.06 263.31 168.46 263.31 168.76 250.42 170.36 250.42 170.06"/><polygon class="cls-206" points="250.42 169.76 263.31 168.16 263.31 168.46 250.42 170.06 250.42 169.76"/><polygon class="cls-101" points="250.42 169.46 263.31 167.87 263.31 168.16 250.42 169.76 250.42 169.46"/><polygon class="cls-102" points="250.42 169.17 263.31 167.56 263.31 167.87 250.42 169.46 250.42 169.17"/><polygon class="cls-150" points="250.42 168.86 263.31 167.26 263.31 167.56 250.42 169.17 250.42 168.86"/><polygon class="cls-105" points="250.42 168.56 263.31 166.97 263.31 167.26 250.42 168.86 250.42 168.56"/><polygon class="cls-208" points="250.42 168.16 263.31 166.66 263.31 166.97 250.42 168.56 250.42 168.16"/><polygon class="cls-209" points="250.42 167.87 263.31 166.37 263.31 166.66 250.42 168.16 250.42 167.87"/><polygon class="cls-180" points="250.42 167.56 263.31 166.07 263.31 166.37 250.42 167.87 250.42 167.56"/><polygon class="cls-172" points="250.42 167.26 263.31 165.77 263.31 166.07 250.42 167.56 250.42 167.26"/><polygon class="cls-171" points="250.42 166.97 263.31 165.47 263.31 165.77 250.42 167.26 250.42 166.97"/><polygon class="cls-177" points="250.42 166.66 263.31 165.16 263.31 165.47 250.42 166.97 250.42 166.66"/><polygon class="cls-169" points="250.42 166.37 263.31 164.87 263.31 165.16 250.42 166.66 250.42 166.37"/><polygon class="cls-170" points="250.42 166.07 263.31 164.57 263.31 164.87 250.42 166.37 250.42 166.07"/><polygon class="cls-165" points="250.42 165.77 263.31 164.27 263.31 164.57 250.42 166.07 250.42 165.77"/><polygon class="cls-162" points="250.42 165.47 263.31 163.97 263.31 164.27 250.42 165.77 250.42 165.47"/><polygon class="cls-164" points="250.42 165.16 263.31 163.67 263.31 163.97 250.42 165.47 250.42 165.16"/><polygon class="cls-163" points="250.42 164.87 263.31 163.37 263.31 163.67 250.42 165.16 250.42 164.87"/><polygon class="cls-54" points="250.42 164.57 263.31 163.07 263.31 163.37 250.42 164.87 250.42 164.57"/><polygon class="cls-52" points="250.42 164.27 263.31 162.77 263.31 163.07 250.42 164.57 250.42 164.27"/><polygon class="cls-53" points="250.42 163.97 263.31 162.47 263.31 162.77 250.42 164.27 250.42 163.97"/><polygon class="cls-46" points="250.42 163.67 263.31 162.17 263.31 162.47 250.42 163.97 250.42 163.67"/><polygon class="cls-44" points="250.42 163.37 263.31 161.87 263.31 162.17 250.42 163.67 250.42 163.37"/><polygon class="cls-45" points="250.42 163.07 263.31 161.57 263.31 161.87 250.42 163.37 250.42 163.07"/><polygon class="cls-35" points="250.42 162.77 263.31 161.27 263.31 161.57 250.42 163.07 250.42 162.77"/><polygon class="cls-32" points="250.42 162.47 263.31 160.97 263.31 161.27 250.42 162.77 250.42 162.47"/><polygon class="cls-31" points="250.42 162.17 263.31 160.67 263.31 160.97 250.42 162.47 250.42 162.17"/><polygon class="cls-123" points="250.42 161.87 263.31 160.37 263.31 160.67 250.42 162.17 250.42 161.87"/><polygon class="cls-124" points="250.42 161.57 263.31 160.07 263.31 160.37 250.42 161.87 250.42 161.57"/><polygon class="cls-122" points="250.42 161.27 263.31 159.78 263.31 160.07 250.42 161.57 250.42 161.27"/><polygon class="cls-112" points="250.42 160.97 263.31 159.47 263.31 159.78 250.42 161.27 250.42 160.97"/><polygon class="cls-111" points="250.42 160.67 263.31 159.17 263.31 159.47 250.42 160.97 250.42 160.67"/><polygon class="cls-113" points="250.42 160.37 263.31 158.87 263.31 159.17 250.42 160.67 250.42 160.37"/><polygon class="cls-80" points="250.42 160.07 263.31 158.57 263.31 158.87 250.42 160.37 250.42 160.07"/><polygon class="cls-81" points="250.42 159.78 263.31 158.28 263.31 158.57 250.42 160.07 250.42 159.78"/><polygon class="cls-84" points="250.42 159.47 263.31 157.97 263.31 158.28 250.42 159.78 250.42 159.47"/><polygon class="cls-79" points="250.42 159.17 263.31 157.67 263.31 157.97 250.42 159.47 250.42 159.17"/><polygon class="cls-75" points="250.42 158.87 263.31 157.38 263.31 157.67 250.42 159.17 250.42 158.87"/><polygon class="cls-76" points="250.42 158.57 263.31 157.07 263.31 157.38 250.42 158.87 250.42 158.57"/><polygon class="cls-70" points="250.42 158.28 263.31 156.78 263.31 157.07 250.42 158.57 250.42 158.28"/><polygon class="cls-64" points="250.42 157.97 263.31 156.48 263.31 156.78 250.42 158.28 250.42 157.97"/><polygon class="cls-63" points="250.42 157.67 263.31 156.18 263.31 156.48 250.42 157.97 250.42 157.67"/><polygon class="cls-200" points="250.42 157.38 263.31 155.88 263.31 156.18 250.42 157.67 250.42 157.38"/><polygon class="cls-202" points="250.42 157.07 263.31 155.48 263.31 155.88 250.42 157.38 250.42 157.07"/><polygon class="cls-201" points="250.42 156.78 263.31 155.18 263.31 155.48 250.42 157.07 250.42 156.78"/><polygon class="cls-191" points="250.42 156.48 263.31 154.88 263.31 155.18 250.42 156.78 250.42 156.48"/><polygon class="cls-199" points="250.42 156.18 263.31 154.58 263.31 154.88 250.42 156.48 250.42 156.18"/><polygon class="cls-210" points="250.42 155.88 263.31 154.28 263.31 154.58 250.42 156.18 250.42 155.88"/><polygon class="cls-140" points="250.42 155.57 263.31 153.98 263.31 154.28 250.42 155.88 250.42 155.57"/><polygon class="cls-142" points="250.42 155.28 263.31 153.68 263.31 153.98 250.42 155.57 250.42 155.28"/><polygon class="cls-141" points="250.42 154.98 263.31 153.38 263.31 153.68 250.42 155.28 250.42 154.98"/><polygon class="cls-175" points="250.42 154.68 263.31 153.08 263.31 153.38 250.42 154.98 250.42 154.68"/><polygon class="cls-179" points="250.42 154.38 263.31 152.78 263.31 153.08 250.42 154.68 250.42 154.38"/><polygon class="cls-178" points="250.42 154.08 263.31 152.48 263.31 152.78 250.42 154.38 250.42 154.08"/><polygon class="cls-167" points="250.42 153.78 263.31 152.18 263.31 152.48 250.42 154.08 250.42 153.78"/><polygon class="cls-166" points="250.42 153.48 263.31 151.88 263.31 152.18 250.42 153.78 250.42 153.48"/><polygon class="cls-166" points="263.31 151.88 250.42 153.48 250.42 150.38 263.31 150.38 263.31 151.88"/></g></g></g><g id="polygon43"><g class="cls-236"><g><polygon class="cls-29" points="535.93 174.46 548.41 173.76 548.41 180.15 535.93 180.15 535.93 174.46"/><polygon class="cls-29" points="535.93 174.06 548.41 173.46 548.41 173.76 535.93 174.46 535.93 174.06"/><polygon class="cls-95" points="535.93 173.65 548.41 173.06 548.41 173.46 535.93 174.06 535.93 173.65"/><polygon class="cls-100" points="535.93 173.36 548.41 172.66 548.41 173.06 535.93 173.65 535.93 173.36"/><polygon class="cls-136" points="535.93 172.96 548.41 172.26 548.41 172.66 535.93 173.36 535.93 172.96"/><polygon class="cls-137" points="535.93 172.56 548.41 171.96 548.41 172.26 535.93 172.96 535.93 172.56"/><polygon class="cls-135" points="535.93 172.26 548.41 171.56 548.41 171.96 535.93 172.56 535.93 172.26"/><polygon class="cls-138" points="535.93 171.86 548.41 171.16 548.41 171.56 535.93 172.26 535.93 171.86"/><polygon class="cls-139" points="535.93 171.46 548.41 170.86 548.41 171.16 535.93 171.86 535.93 171.46"/><polygon class="cls-133" points="535.93 171.16 548.41 170.46 548.41 170.86 535.93 171.46 535.93 171.16"/><polygon class="cls-120" points="535.93 170.76 548.41 170.06 548.41 170.46 535.93 171.16 535.93 170.76"/><polygon class="cls-121" points="535.93 170.36 548.41 169.76 548.41 170.06 535.93 170.76 535.93 170.36"/><polygon class="cls-119" points="535.93 169.96 548.41 169.37 548.41 169.76 535.93 170.36 535.93 169.96"/><polygon class="cls-118" points="535.93 169.66 548.41 168.97 548.41 169.37 535.93 169.96 535.93 169.66"/><polygon class="cls-42" points="535.93 169.26 548.41 168.56 548.41 168.97 535.93 169.66 535.93 169.26"/><polygon class="cls-41" points="535.93 168.86 548.41 168.27 548.41 168.56 535.93 169.26 535.93 168.86"/><polygon class="cls-146" points="535.93 168.56 548.41 167.87 548.41 168.27 535.93 168.86 535.93 168.56"/><polygon class="cls-143" points="535.93 168.16 548.41 167.47 548.41 167.87 535.93 168.56 535.93 168.16"/><polygon class="cls-145" points="535.93 167.76 548.41 167.17 548.41 167.47 535.93 168.16 535.93 167.76"/><polygon class="cls-129" points="535.93 167.47 548.41 166.77 548.41 167.17 535.93 167.76 535.93 167.47"/><polygon class="cls-144" points="535.93 167.06 548.41 166.37 548.41 166.77 535.93 167.47 535.93 167.06"/><polygon class="cls-131" points="535.93 166.66 548.41 166.07 548.41 166.37 535.93 167.06 535.93 166.66"/><polygon class="cls-86" points="535.93 166.26 548.41 165.67 548.41 166.07 535.93 166.66 535.93 166.26"/><polygon class="cls-87" points="535.93 165.97 548.41 165.27 548.41 165.67 535.93 166.26 535.93 165.97"/><polygon class="cls-85" points="535.93 165.56 548.41 164.87 548.41 165.27 535.93 165.97 535.93 165.56"/><polygon class="cls-89" points="535.93 165.16 548.41 164.57 548.41 164.87 535.93 165.56 535.93 165.16"/><polygon class="cls-88" points="535.93 164.87 548.41 164.17 548.41 164.57 535.93 165.16 535.93 164.87"/><polygon class="cls-72" points="535.93 164.47 548.41 163.77 548.41 164.17 535.93 164.87 535.93 164.47"/><polygon class="cls-73" points="535.93 164.06 548.41 163.47 548.41 163.77 535.93 164.47 535.93 164.06"/><polygon class="cls-74" points="535.93 163.77 548.41 163.07 548.41 163.47 535.93 164.06 535.93 163.77"/><polygon class="cls-66" points="535.93 163.37 548.41 162.67 548.41 163.07 535.93 163.77 535.93 163.37"/><polygon class="cls-67" points="535.93 162.97 548.41 162.37 548.41 162.67 535.93 163.37 535.93 162.97"/><polygon class="cls-69" points="535.93 162.57 548.41 161.97 548.41 162.37 535.93 162.97 535.93 162.57"/><polygon class="cls-203" points="535.93 162.27 548.41 161.57 548.41 161.97 535.93 162.57 535.93 162.27"/><polygon class="cls-204" points="535.93 161.87 548.41 161.17 548.41 161.57 535.93 162.27 535.93 161.87"/><polygon class="cls-205" points="535.93 161.47 548.41 160.87 548.41 161.17 535.93 161.87 535.93 161.47"/><polygon class="cls-71" points="535.93 161.17 548.41 160.47 548.41 160.87 535.93 161.47 535.93 161.17"/><polygon class="cls-65" points="535.93 160.77 548.41 160.07 548.41 160.47 535.93 161.17 535.93 160.77"/><polygon class="cls-61" points="535.93 160.37 548.41 159.78 548.41 160.07 535.93 160.77 535.93 160.37"/><polygon class="cls-160" points="535.93 160.07 548.41 159.38 548.41 159.78 535.93 160.37 535.93 160.07"/><polygon class="cls-159" points="535.93 159.67 548.41 158.97 548.41 159.38 535.93 160.07 535.93 159.67"/><polygon class="cls-155" points="535.93 159.27 548.41 158.68 548.41 158.97 535.93 159.67 535.93 159.27"/><polygon class="cls-154" points="535.93 158.87 548.41 158.28 548.41 158.68 535.93 159.27 535.93 158.87"/><polygon class="cls-161" points="535.93 158.57 548.41 157.88 548.41 158.28 535.93 158.87 535.93 158.57"/><polygon class="cls-198" points="535.93 158.17 548.41 157.47 548.41 157.88 535.93 158.57 535.93 158.17"/><polygon class="cls-196" points="535.93 157.77 548.41 157.18 548.41 157.47 535.93 158.17 535.93 157.77"/><polygon class="cls-194" points="535.93 157.47 548.41 156.78 548.41 157.18 535.93 157.77 535.93 157.47"/><polygon class="cls-195" points="535.93 157.07 548.41 156.38 548.41 156.78 535.93 157.47 535.93 157.07"/><polygon class="cls-192" points="535.93 156.67 548.41 156.08 548.41 156.38 535.93 157.07 535.93 156.67"/><polygon class="cls-193" points="535.93 156.38 548.41 155.68 548.41 156.08 535.93 156.67 535.93 156.38"/><polygon class="cls-212" points="535.93 155.97 548.41 155.28 548.41 155.68 535.93 156.38 535.93 155.97"/><polygon class="cls-213" points="535.93 155.57 548.41 154.98 548.41 155.28 535.93 155.97 535.93 155.57"/><polygon class="cls-189" points="535.93 155.18 548.41 154.58 548.41 154.98 535.93 155.57 535.93 155.18"/><polygon class="cls-188" points="535.93 154.88 548.41 154.18 548.41 154.58 535.93 155.18 535.93 154.88"/><polygon class="cls-185" points="535.93 154.47 548.41 153.78 548.41 154.18 535.93 154.88 535.93 154.47"/><polygon class="cls-186" points="535.93 154.08 548.41 153.48 548.41 153.78 535.93 154.47 535.93 154.08"/><polygon class="cls-211" points="535.93 153.78 548.41 153.08 548.41 153.48 535.93 154.08 535.93 153.78"/><polygon class="cls-173" points="535.93 153.38 548.41 152.68 548.41 153.08 535.93 153.78 535.93 153.38"/><polygon class="cls-176" points="535.93 152.98 548.41 152.38 548.41 152.68 535.93 153.38 535.93 152.98"/><polygon class="cls-174" points="535.93 152.58 548.41 151.98 548.41 152.38 535.93 152.98 535.93 152.58"/><polygon class="cls-175" points="535.93 152.28 548.41 151.58 548.41 151.98 535.93 152.58 535.93 152.28"/><polygon class="cls-179" points="535.93 151.88 548.41 151.18 548.41 151.58 535.93 152.28 535.93 151.88"/><polygon class="cls-168" points="535.93 151.49 548.41 150.88 548.41 151.18 535.93 151.88 535.93 151.49"/><polygon class="cls-167" points="535.93 151.18 548.41 150.48 548.41 150.88 535.93 151.49 535.93 151.18"/><polygon class="cls-166" points="535.93 150.78 548.41 150.08 548.41 150.48 535.93 151.18 535.93 150.78"/><polygon class="cls-166" points="548.41 150.08 535.93 150.78 535.93 147.28 548.41 147.28 548.41 150.08"/></g></g></g><g id="polygon45"><path class="cls-24" d="M543.92,182.05l-10.29,91.1,16.38-3.3,3.09-92.81-9.19,4.89v.1h0Z"/></g><g id="polygon47"><path class="cls-56" d="M563.8,277.45l.4,12.28,31.37,10.09,9.49-4.89-30.97-23.97-31.17-2.69-9.19,4.89,30.17,4.3h-.09Z"/></g><g id="polygon49"><path class="cls-56" d="M447.22,255.68l7.59-4.1,5.09,8.99,7.19-3.9,1.4,11.89,45.75,8.19,8.99-5.09-63.03-38.36-44.75,7.59-8.59,8.39,40.26,6.39h.11Z"/></g><g id="polygon56"><g class="cls-235"><g><polygon class="cls-129" points="432.63 143.89 432.34 143.59 432.63 143.59 432.63 143.89"/><polygon class="cls-144" points="432.63 144.79 430.73 143.59 432.34 143.59 432.63 143.89 432.63 144.79"/><polygon class="cls-131" points="432.63 145.79 429.24 143.59 430.73 143.59 432.63 144.79 432.63 145.79"/><polygon class="cls-86" points="432.63 146.69 427.74 143.59 429.24 143.59 432.63 145.79 432.63 146.69"/><polygon class="cls-87" points="432.63 147.68 426.24 143.59 427.74 143.59 432.63 146.69 432.63 147.68"/><polygon class="cls-85" points="432.63 148.58 424.74 143.59 426.24 143.59 432.63 147.68 432.63 148.58"/><polygon class="cls-89" points="432.63 149.58 423.24 143.59 424.74 143.59 432.63 148.58 432.63 149.58"/><polygon class="cls-88" points="432.63 150.48 421.74 143.69 421.85 143.59 423.24 143.59 432.63 149.58 432.63 150.48"/><polygon class="cls-72" points="432.63 151.49 421.34 144.39 421.74 143.69 432.63 150.48 432.63 151.49"/><polygon class="cls-73" points="432.63 152.38 420.95 144.99 421.34 144.39 432.63 151.49 432.63 152.38"/><polygon class="cls-74" points="432.63 153.38 420.44 145.69 420.95 144.99 432.63 152.38 432.63 153.38"/><polygon class="cls-66" points="432.63 154.28 420.04 146.38 420.44 145.69 432.63 153.38 432.63 154.28"/><polygon class="cls-67" points="432.63 155.28 419.65 147.08 420.04 146.38 432.63 154.28 432.63 155.28"/><polygon class="cls-69" points="432.63 156.18 419.25 147.79 419.65 147.08 432.63 155.28 432.63 156.18"/><polygon class="cls-203" points="432.63 157.18 418.75 148.38 419.25 147.79 432.63 156.18 432.63 157.18"/><polygon class="cls-204" points="432.63 158.08 418.35 149.09 418.75 148.38 432.63 157.18 432.63 158.08"/><polygon class="cls-205" points="432.63 159.07 417.95 149.79 418.35 149.09 432.63 158.08 432.63 159.07"/><polygon class="cls-71" points="432.63 159.97 417.45 150.48 417.95 149.79 432.63 159.07 432.63 159.97"/><polygon class="cls-65" points="432.63 160.97 417.05 151.18 417.45 150.48 432.63 159.97 432.63 160.97"/><polygon class="cls-61" points="432.63 161.87 416.65 151.88 417.05 151.18 432.63 160.97 432.63 161.87"/><polygon class="cls-160" points="432.63 162.87 416.25 152.48 416.65 151.88 432.63 161.87 432.63 162.87"/><polygon class="cls-159" points="432.63 163.77 415.75 153.18 416.25 152.48 432.63 162.87 432.63 163.77"/><polygon class="cls-155" points="432.63 164.77 415.35 153.88 415.75 153.18 432.63 163.77 432.63 164.77"/><polygon class="cls-154" points="432.63 165.67 414.95 154.58 415.35 153.88 432.63 164.77 432.63 165.67"/><polygon class="cls-161" points="432.63 166.66 414.55 155.28 414.95 154.58 432.63 165.67 432.63 166.66"/><polygon class="cls-198" points="432.63 167.56 414.05 155.88 414.55 155.28 432.63 166.66 432.63 167.56"/><polygon class="cls-196" points="432.63 168.56 413.65 156.58 414.05 155.88 432.63 167.56 432.63 168.56"/><polygon class="cls-194" points="432.63 169.46 413.25 157.27 413.65 156.58 432.63 168.56 432.63 169.46"/><polygon class="cls-195" points="432.63 170.46 412.76 157.97 413.25 157.27 432.63 169.46 432.63 170.46"/><polygon class="cls-192" points="432.63 171.36 412.35 158.68 412.76 157.97 432.63 170.46 432.63 171.36"/><polygon class="cls-193" points="432.63 172.36 411.95 159.38 412.35 158.68 432.63 171.36 432.63 172.36"/><polygon class="cls-212" points="432.63 173.26 411.55 159.97 411.95 159.38 432.63 172.36 432.63 173.26"/><polygon class="cls-213" points="432.63 174.26 411.05 160.67 411.55 159.97 432.63 173.26 432.63 174.26"/><polygon class="cls-189" points="432.63 175.15 410.65 161.37 411.05 160.67 432.63 174.26 432.63 175.15"/><polygon class="cls-188" points="432.63 176.16 410.26 162.07 410.65 161.37 432.63 175.15 432.63 176.16"/><polygon class="cls-185" points="432.63 177.06 409.76 162.77 410.26 162.07 432.63 176.16 432.63 177.06"/><polygon class="cls-186" points="432.63 178.05 409.35 163.37 409.76 162.77 432.63 177.06 432.63 178.05"/><polygon class="cls-211" points="432.63 178.96 408.96 164.06 409.35 163.37 432.63 178.05 432.63 178.96"/><polygon class="cls-173" points="432.63 179.95 408.56 164.77 408.96 164.06 432.63 178.96 432.63 179.95"/><polygon class="cls-176" points="432.63 180.95 408.06 165.47 408.56 164.77 432.63 179.95 432.63 180.95"/><polygon class="cls-174" points="432.63 181.85 407.66 166.17 408.06 165.47 432.63 180.95 432.63 181.85"/><polygon class="cls-175" points="432.63 182.85 407.26 166.77 407.66 166.17 432.63 181.85 432.63 182.85"/><polygon class="cls-179" points="432.63 183.75 406.96 167.67 406.96 167.17 407.26 166.77 432.63 182.85 432.63 183.75"/><polygon class="cls-168" points="432.63 184.74 406.96 168.56 406.96 167.67 432.63 183.75 432.63 184.74"/><polygon class="cls-167" points="432.63 185.64 406.96 169.56 406.96 168.56 432.63 184.74 432.63 185.64"/><polygon class="cls-166" points="432.63 186.65 406.96 170.46 406.96 169.56 432.63 185.64 432.63 186.65"/><polygon class="cls-166" points="432.63 226.01 417.95 249.28 406.96 249.28 406.96 170.46 432.63 186.65 432.63 226.01"/></g></g></g><g id="polygon58"><path class="cls-166" d="M359.61,157.18l-7.39,3.9,.6,2.5,17.48-11.09-7.59-8.19-9.89,4.89,6.79,8Z"/></g><g id="polygon60"><path class="cls-56" d="M379.49,276.05l-74.52-36.97,9.19-7.19,74.52,38.96-9.19,5.09v.1h0Z"/></g><g id="polygon62"><path class="cls-166" d="M311.96,138.49l-11.29,21.38,11.89-3.5,8.59-22.97s-9.19,5.09-9.19,5.09Z"/></g><g id="path69"><g class="cls-241"><g><polygon class="cls-51" points="201.28 227 199.87 227.6 199.87 227 199.98 227 201.28 227"/><polygon class="cls-50" points="202.67 227 199.87 228.3 199.87 227.6 201.28 227 202.67 227"/><polygon class="cls-49" points="203.97 227 199.87 229 199.87 228.3 202.67 227 203.97 227"/><polygon class="cls-43" points="205.37 227 199.87 229.7 199.87 229 203.97 227 205.37 227"/><polygon class="cls-39" points="206.67 227 199.87 230.4 199.87 229.7 205.37 227 206.67 227"/><polygon class="cls-40" points="208.07 227 199.87 231.1 199.87 230.4 206.67 227 208.07 227"/><polygon class="cls-30" points="209.46 227 199.87 231.8 199.87 231.1 208.07 227 209.46 227"/><polygon class="cls-28" points="210.76 227 199.87 232.49 199.87 231.8 209.46 227 210.76 227"/><polygon class="cls-131" points="212.16 227 199.87 233.2 199.87 232.49 210.76 227 212.16 227"/><polygon class="cls-126" points="213.46 227 199.87 233.9 199.87 233.2 212.16 227 213.46 227"/><polygon class="cls-127" points="214.86 227 199.87 234.6 199.87 233.9 213.46 227 214.86 227"/><polygon class="cls-132" points="216.26 227 199.87 235.2 199.87 234.6 214.86 227 216.26 227"/><polygon class="cls-130" points="217.55 227 199.87 235.89 199.87 235.2 216.26 227 217.55 227"/><polygon class="cls-82" points="218.96 227 199.87 236.59 199.87 235.89 217.55 227 218.96 227"/><polygon class="cls-83" points="220.26 227 199.87 237.29 199.87 236.59 218.96 227 220.26 227"/><polygon class="cls-92" points="221.65 227 199.87 237.99 199.87 237.29 220.26 227 221.65 227"/><polygon class="cls-91" points="222.95 227 199.87 238.69 199.87 237.99 221.65 227 222.95 227"/><polygon class="cls-90" points="224.35 227 199.87 239.39 199.87 238.69 222.95 227 224.35 227"/><polygon class="cls-67" points="225.75 227 199.87 240.09 199.87 239.39 224.35 227 225.75 227"/><polygon class="cls-68" points="227.05 227 199.87 240.78 199.87 240.09 225.75 227 227.05 227"/><polygon class="cls-62" points="228.44 227 199.87 241.49 199.87 240.78 227.05 227 228.44 227"/><polygon class="cls-58" points="229.74 227 199.87 242.19 199.87 241.49 228.44 227 229.74 227"/><polygon class="cls-78" points="231.15 227 199.87 242.79 199.87 242.19 229.74 227 231.15 227"/><polygon class="cls-77" points="232.44 227 199.87 243.49 199.87 242.79 231.15 227 232.44 227"/><polygon class="cls-65" points="233.84 227 199.87 244.19 199.87 243.49 232.44 227 233.84 227"/><polygon class="cls-61" points="235.24 227 199.87 244.88 199.87 244.19 233.84 227 235.24 227"/><polygon class="cls-59" points="236.53 227 199.87 245.58 199.87 244.88 235.24 227 236.53 227"/><polygon class="cls-60" points="237.94 227 199.87 246.29 199.87 245.58 236.53 227 237.94 227"/><polygon class="cls-57" points="239.24 227 199.87 246.98 199.87 246.29 237.94 227 239.24 227"/><polygon class="cls-154" points="240.63 227 199.87 247.68 199.87 246.98 239.24 227 240.63 227"/><polygon class="cls-161" points="242.03 227 199.87 248.38 199.87 247.68 240.63 227 242.03 227"/><polygon class="cls-157" points="243.33 227 199.87 249.08 199.87 248.38 242.03 227 243.33 227"/><polygon class="cls-156" points="244.73 227 199.87 249.68 199.87 249.08 243.33 227 244.73 227"/><polygon class="cls-158" points="246.03 227 199.87 250.37 199.87 249.68 244.73 227 246.03 227"/><polygon class="cls-195" points="247.42 227 199.87 251.08 199.87 250.37 246.03 227 247.42 227"/><polygon class="cls-192" points="248.72 227 199.87 251.78 199.87 251.08 247.42 227 248.72 227"/><polygon class="cls-193" points="250.13 227 199.87 252.48 199.87 251.78 248.72 227 250.13 227"/><polygon class="cls-197" points="251.52 227 199.87 253.17 199.87 252.48 250.13 227 251.52 227"/><polygon class="cls-190" points="252.82 227 200.07 253.78 199.87 253.48 199.87 253.17 251.52 227 252.82 227"/><polygon class="cls-189" points="254.22 227 200.37 254.38 200.07 253.78 252.82 227 254.22 227"/><polygon class="cls-188" points="255.52 227 200.57 254.87 200.37 254.38 254.22 227 255.52 227"/><polygon class="cls-185" points="256.22 227 256.42 227.2 200.88 255.48 200.57 254.87 255.52 227 256.22 227"/><rect class="cls-186" x="197.65" y="241.27" width="62.24" height=".6" transform="translate(-84.64 129.91) rotate(-26.95)"/><rect class="cls-187" x="197.99" y="241.87" width="62.24" height=".6" transform="translate(-84.87 130.13) rotate(-26.95)"/><rect class="cls-173" x="198.19" y="242.43" width="62.24" height=".6" transform="translate(-85.11 130.28) rotate(-26.95)"/><rect class="cls-176" x="198.54" y="243.02" width="62.24" height=".6" transform="translate(-85.34 130.51) rotate(-26.95)"/><rect class="cls-174" x="198.72" y="243.53" width="62.24" height=".6" transform="translate(-85.55 130.65) rotate(-26.95)"/><rect class="cls-175" x="199.02" y="243.94" width="62.24" height=".6" transform="translate(-85.7 130.82) rotate(-26.95)"/><rect class="cls-179" x="199.36" y="244.54" width="62.24" height=".6" transform="translate(-85.94 131.04) rotate(-26.95)"/><rect class="cls-168" x="199.56" y="245.1" width="62.24" height=".6" transform="translate(-86.17 131.2) rotate(-26.95)"/><rect class="cls-167" x="199.91" y="245.7" width="62.24" height=".6" transform="translate(-86.4 131.42) rotate(-26.95)"/><rect class="cls-166" x="200.2" y="246.21" width="62.24" height=".6" transform="translate(-86.6 131.6) rotate(-26.95)"/><polygon class="cls-166" points="259.21 232.69 269.11 252.18 269.11 276.45 211.57 276.45 203.67 260.87 259.21 232.69"/></g></g></g><g id="polygon71"><path class="cls-166" d="M260.41,180.35l8.59,95.8,35.67-5.09,9.49-4.89-44.16-91.51-8.99,3.09-9.49,4.7,8.79-2.1h.1Z"/></g><g id="polygon78"><g class="cls-240"><g><polygon class="cls-48" points="128.85 203.33 117.86 208.12 117.86 203.33 128.85 203.33"/><polygon class="cls-48" points="130.84 203.33 117.86 209.03 117.86 208.12 128.85 203.33 130.84 203.33"/><polygon class="cls-55" points="132.94 203.33 117.86 209.82 117.86 209.03 130.84 203.33 132.94 203.33"/><polygon class="cls-47" points="134.94 203.33 117.86 210.72 117.86 209.82 132.94 203.33 134.94 203.33"/><polygon class="cls-38" points="137.04 203.33 117.86 211.62 117.86 210.72 134.94 203.33 137.04 203.33"/><polygon class="cls-33" points="139.04 203.33 117.86 212.52 117.86 211.62 137.04 203.33 139.04 203.33"/><polygon class="cls-34" points="141.14 203.33 117.86 213.42 117.86 212.52 139.04 203.33 141.14 203.33"/><polygon class="cls-37" points="143.23 203.33 117.86 214.32 117.86 213.42 141.14 203.33 143.23 203.33"/><polygon class="cls-36" points="145.23 203.33 117.86 215.21 117.86 214.32 143.23 203.33 145.23 203.33"/><polygon class="cls-99" points="147.33 203.33 117.86 216.11 117.86 215.21 145.23 203.33 147.33 203.33"/><polygon class="cls-98" points="149.33 203.33 117.86 216.92 117.86 216.11 147.33 203.33 149.33 203.33"/><polygon class="cls-96" points="151.43 203.33 117.86 217.81 117.86 216.92 149.33 203.33 151.43 203.33"/><polygon class="cls-97" points="153.52 203.33 117.86 218.71 117.86 217.81 151.43 203.33 153.52 203.33"/><polygon class="cls-94" points="155.53 203.33 117.86 219.61 117.86 218.71 153.52 203.33 155.53 203.33"/><polygon class="cls-128" points="157.62 203.33 117.86 220.51 117.86 219.61 155.53 203.33 157.62 203.33"/><polygon class="cls-134" points="159.61 203.33 117.86 221.41 117.86 220.51 157.62 203.33 159.61 203.33"/><polygon class="cls-51" points="161.71 203.33 117.86 222.31 117.86 221.41 159.61 203.33 161.71 203.33"/><polygon class="cls-50" points="163.71 203.33 117.86 223.21 117.86 222.31 161.71 203.33 163.71 203.33"/><polygon class="cls-49" points="165.81 203.33 117.86 224.11 117.86 223.21 163.71 203.33 165.81 203.33"/><polygon class="cls-43" points="167.91 203.33 117.86 224.91 117.86 224.11 165.81 203.33 167.91 203.33"/><polygon class="cls-39" points="169.91 203.33 117.86 225.81 117.86 224.91 167.91 203.33 169.91 203.33"/><polygon class="cls-40" points="172 203.33 117.86 226.71 117.86 225.81 169.91 203.33 172 203.33"/><polygon class="cls-30" points="174 203.33 117.86 227.6 117.86 226.71 172 203.33 174 203.33"/><polygon class="cls-28" points="176.1 203.33 117.96 228.4 117.86 228.1 117.86 227.6 174 203.33 176.1 203.33"/><polygon class="cls-131" points="178.2 203.33 118.26 229.2 117.96 228.4 176.1 203.33 178.2 203.33"/><polygon class="cls-126" points="180.2 203.33 118.66 229.9 118.26 229.2 178.2 203.33 180.2 203.33"/><polygon class="cls-127" points="182.29 203.33 118.96 230.7 118.66 229.9 180.2 203.33 182.29 203.33"/><polygon class="cls-132" points="182.89 203.33 183.2 203.83 119.26 231.4 118.96 230.7 182.29 203.33 182.89 203.33"/><rect class="cls-130" x="116.51" y="217.66" width="69.63" height=".8" transform="translate(-73.99 77.76) rotate(-23.33)"/><rect class="cls-82" x="116.87" y="218.29" width="69.63" height=".8" transform="translate(-74.21 77.95) rotate(-23.33)"/><rect class="cls-83" x="117.25" y="219.06" width="69.63" height=".8" transform="translate(-74.48 78.17) rotate(-23.33)"/><rect class="cls-92" x="117.5" y="219.79" width="69.63" height=".8" transform="translate(-74.75 78.32) rotate(-23.33)"/><rect class="cls-91" x="117.89" y="220.6" width="69.63" height=".8" transform="translate(-75.04 78.54) rotate(-23.33)"/><rect class="cls-90" x="118.15" y="221.32" width="69.63" height=".8" transform="translate(-75.3 78.71) rotate(-23.33)"/><rect class="cls-67" x="118.44" y="222.14" width="69.63" height=".8" transform="translate(-75.6 78.89) rotate(-23.33)"/><rect class="cls-68" x="118.79" y="222.82" width="69.63" height=".8" transform="translate(-75.84 79.08) rotate(-23.33)"/><rect class="cls-62" x="119.17" y="223.64" width="69.63" height=".8" transform="translate(-76.13 79.3) rotate(-23.33)"/><rect class="cls-58" x="119.43" y="224.35" width="69.63" height=".8" transform="translate(-76.4 79.46) rotate(-23.33)"/><rect class="cls-78" x="119.71" y="225.07" width="69.63" height=".8" transform="translate(-76.66 79.63) rotate(-23.33)"/><rect class="cls-77" x="120.16" y="225.76" width="69.63" height=".8" transform="translate(-76.89 79.87) rotate(-23.33)"/><rect class="cls-65" x="120.45" y="226.57" width="69.63" height=".8" transform="translate(-77.19 80.05) rotate(-23.33)"/><rect class="cls-61" x="120.7" y="227.3" width="69.63" height=".8" transform="translate(-77.46 80.21) rotate(-23.33)"/><rect class="cls-59" x="121.1" y="228.11" width="69.63" height=".8" transform="translate(-77.75 80.43) rotate(-23.33)"/><rect class="cls-60" x="121.44" y="228.8" width="69.63" height=".8" transform="translate(-77.99 80.62) rotate(-23.33)"/><rect class="cls-57" x="121.73" y="229.61" width="69.63" height=".8" transform="translate(-78.29 80.8) rotate(-23.33)"/><rect class="cls-154" x="121.99" y="230.34" width="69.63" height=".8" transform="translate(-78.56 80.96) rotate(-23.33)"/><rect class="cls-161" x="122.38" y="231.14" width="69.63" height=".8" transform="translate(-78.85 81.18) rotate(-23.33)"/><rect class="cls-157" x="122.64" y="231.77" width="69.63" height=".8" transform="translate(-79.07 81.34) rotate(-23.33)"/><rect class="cls-156" x="123.01" y="232.54" width="69.63" height=".8" transform="translate(-79.35 81.55) rotate(-23.33)"/><rect class="cls-158" x="123.37" y="233.27" width="69.63" height=".8" transform="translate(-79.6 81.75) rotate(-23.33)"/><rect class="cls-195" x="123.66" y="234.08" width="69.63" height=".8" transform="translate(-79.9 81.93) rotate(-23.33)"/><rect class="cls-192" x="123.91" y="234.81" width="69.63" height=".8" transform="translate(-80.17 82.09) rotate(-23.33)"/><rect class="cls-193" x="124.39" y="235.58" width="69.63" height=".8" transform="translate(-80.44 82.34) rotate(-23.33)"/><rect class="cls-197" x="124.65" y="236.3" width="69.63" height=".8" transform="translate(-80.7 82.5) rotate(-23.33)"/><rect class="cls-190" x="124.93" y="237.12" width="69.63" height=".8" transform="translate(-81 82.68) rotate(-23.33)"/><rect class="cls-189" x="125.19" y="237.85" width="69.63" height=".8" transform="translate(-81.27 82.84) rotate(-23.33)"/><rect class="cls-188" x="125.68" y="238.52" width="69.63" height=".8" transform="translate(-81.5 83.09) rotate(-23.33)"/><rect class="cls-185" x="125.93" y="239.25" width="69.63" height=".8" transform="translate(-81.76 83.25) rotate(-23.33)"/><rect class="cls-186" x="126.18" y="239.97" width="69.63" height=".8" transform="translate(-82.03 83.41) rotate(-23.33)"/><rect class="cls-187" x="126.57" y="240.78" width="69.63" height=".8" transform="translate(-82.32 83.63) rotate(-23.33)"/><rect class="cls-173" x="126.83" y="241.51" width="69.63" height=".8" transform="translate(-82.59 83.79) rotate(-23.33)"/><rect class="cls-176" x="127.2" y="242.28" width="69.63" height=".8" transform="translate(-82.86 84) rotate(-23.33)"/><rect class="cls-174" x="127.56" y="243" width="69.63" height=".8" transform="translate(-83.12 84.2) rotate(-23.33)"/><rect class="cls-175" x="127.86" y="243.81" width="69.63" height=".8" transform="translate(-83.41 84.39) rotate(-23.33)"/><rect class="cls-179" x="128.11" y="244.54" width="69.63" height=".8" transform="translate(-83.68 84.55) rotate(-23.33)"/><rect class="cls-168" x="128.49" y="245.31" width="69.63" height=".8" transform="translate(-83.96 84.76) rotate(-23.33)"/><rect class="cls-167" x="128.84" y="245.94" width="69.63" height=".8" transform="translate(-84.18 84.95) rotate(-23.33)"/><rect class="cls-166" x="129.13" y="246.76" width="69.63" height=".8" transform="translate(-84.48 85.13) rotate(-23.33)"/><polygon class="cls-166" points="196.08 233.79 213.86 275.06 213.86 303.72 150.42 303.72 132.14 261.37 196.08 233.79"/></g></g></g><g id="path80"><path class="cls-166" d="M520.94,256.07l.6,4.5c3.3-.4,6.59-.8,9.69-1.8,3.5-1.2,10.89-4.5,13.58-6.99-1.2,.4-18.48,4.89-23.77,4.3"/></g><g id="path82"><path class="cls-166" d="M387.28,233.1l1.4,7.19c7.59-1.2,14.18-3.9,20.77-7.79,4.1-2.5,8.39-5.99,9.89-6.99-1,.6-32.07,7.59-32.07,7.59h0Z"/></g><g id="g84"><g id="path86"><path class="cls-19" d="M177.2,295.13l-2.89-6.59-37.76-84.11-.8-1.59-1.59,.8-1.2,.6-6.79,3.3c-1-1.59-2.69-4.5-3.7-6.39l-15.19-25.68-3.9-6.79,6.59-4.1c6.19-3.9,13.09-7.59,20.98-10.89,15.19-6.39,30.57-9.89,44.75-9.89,4.7,0,9.19,.4,13.38,1,6.99,.8,13.58,3.09,18.88,6.79,8,4.5,14.38,11.49,17.88,19.68,2.89,6.79,3.5,14.79,1.59,22.97l-1,4.89,4.1-2.89c2.69-2.1,5.49-3.7,8.59-4.89,5.29-2.3,10.89-3.5,16.38-3.5s10.29,1,14.79,3.09l2.89,1.2-.2-3.3-1.2-13.78-.2-2.3-2.1,.6-6.39,1.59-1-23.37,46.75-14.99-.4,18.28,3.5,.8,10.29-19.48,30.57,27.07,1.2,1.2,1.2-1.2c4.1-3.9,9.19-7.19,14.79-9.49l2.3-1-1.59-2.1-5.49-6.79,34.96-40.06,18.48,27.47-28.07,15.19-6.19,3.3,7.19,.2c13.38,.2,25.27,5.99,33.27,15.78l2.89,3.7,1.8,2.3-3.09,3.3-2.1,2.3-6.99,7.59-1.2,1.4,1.4,1.2,6.59,5.99,2.5,2.3,.6-3.3,2.5-15.58,.6-4.1,.6-4.1,3.7-23.17h34.86l.2-1.59,.6-3.9h30.37l7.39,46.35,.4,3.09,2.5-1.8c3.09-2.3,6.39-3.9,9.89-5.29,4.7-1.8,9.49-2.69,14.38-2.69,5.8,0,11.29,1.2,15.98,3.9,.2,0,.2,.2,.6,.4l2.3,.8,.2-2.5,.6-5.09,.2-1.59-1.59-.4-6.19-1.4-.2-24.18,47.05,10.29,3.5,17.48h3.7l3.7-14.99,39.16,9.49-40.26,120.88-28.57-8.99-.2-11.09v-1.59l-1.59-.2-28.57-4.1,1.59-14.59,.4-3.5-3.09,1.59c-1.4,.8-2.89,1.4-4.3,1.8-4.7,1.8-9.49,2.69-14.18,2.69-1.4,0-2.69,0-4.1-.2l-2.5-.2,.4,2.5,2.1,12.68-41.66-7.39-2.3-18.88-.6-6.19-2.89,5.29-4.7,9.19-8.79-16.18-2.69-4.89-.8,5.49-1.8,12.48-36.56-5.8,2.89-17.28,.6-3.9-3.5,2.1c-5.99,3.5-12.89,6.39-20.98,8.19-2.89,.6-5.8,1.2-8.79,1.4l-1.59,.2v34.46l-71.83-35.47-2.69-1.2v33.47l-32.27,4.7-1.4-14.59-.4-3.9-2.89,2.69c-4.3,4.1-8.99,7.39-14.18,9.69-5.29,2.3-10.89,3.5-16.18,3.5s-10.69-1.2-15.39-3.3c-8.59-4.1-14.99-11.69-17.68-21.38-1.2-4.5-1.59-9.19-1-14.18l.6-5.09-3.7,3.7c-2.69,2.5-5.49,4.89-8.59,7.19l-1,.8,.4,1.2,10.89,41.45,1.8,7.39-7.19,2.3-20.28,6.59-6.99,1.8h0v-.2l-.03,.06Zm8.99-111.49c-1,0-2.1,0-3.3,.2l-1.4,.2-2.1,.4,.6,2.1,.4,1.2,5.8,19.08,.6,1.8,.8,2.69,2.1-1.8,1.4-1.2c5.8-5.09,7.59-10.29,6.39-16.78-.8-3.9-3.7-5.8-5.49-6.59-1.2-.8-3.5-1.2-5.8-1.2h0v-.1h0Zm156.44,.61l-3.7,3.5-9.69,9.19-2.1,2.1,2.69,1,10.29,3.9,3.09,1.2-.6-3.3c-.8-4.3-1-8.59-.6-12.68l.6-4.89h0Zm41.86-10.69c-3.9,0-7.79,1.59-10.49,4.7-4.1,4.5-4.89,11.29-2.1,16.58l.8,1.4,1.2,2.3,1.8-2.1,1.2-1.2,14.18-15.98,1-1.2,1.8-2.1-2.5-1-1.59-.6c-2.1-.4-3.7-.8-5.49-.8h.2Z"/></g></g><g id="path88"><path class="cls-20" d="M405.96,197.43l-.4,.4s.4-.2,.4-.4Z"/></g><g id="polygon90"><path class="cls-20" d="M418.25,186.35l6.99-7.59-2.5,2.5v-.2l-2.1,2.3-6.99,7.39,6.59,5.99,1.2-7.39,3.3,2.89-6.59-5.8,.1-.1h0Z"/></g><g id="polygon92"><path class="cls-20" d="M418.25,186.35l6.59,5.8,2.5-15.58-2.1,2.3-6.99,7.59v-.1h0Z"/></g><g id="path96"><path class="cls-27" d="M369.7,205.02c.6,.6,0,.2,.6,.6l4.3-3.09c-.6-.4-1.2-1-1.8-1.4-6.19-5.8-4.5-18.48-.6-25.47-10.69,8.59-10.09,21.78-2.5,29.37"/></g><g id="path98"><path class="cls-27" d="M421.54,212.22c-7.19,5.99-15.19,9.69-25.88,12.28-2.3,.6-4.7,1-6.79,1-17.08,1.59-31.17-6.19-36.56-18.68-.6-1.4-1.2-3.09-1.59-4.7-2.5-10.69-.4-20.08,4.89-27.67,.6-.8,1-1.4,1.59-2.1-.2,.2-.6,.4-.8,.6-2.1,1.8-3.9,3.7-5.29,5.99-5.29,7.39-7.39,17.08-4.89,27.67,.4,1.59,.8,3.3,1.59,4.7,5.29,12.68,19.68,20.48,36.56,18.88,2.3-.2,4.5-.6,6.99-1.2,10.69-2.69,18.88-6.39,25.88-12.28,1.59-1.4,3.5-3.09,5.09-4.7l-.2-.2s-.6,.2-.6,.4"/></g><g id="polygon100"><path class="cls-27" d="M301.97,179.95l18.88-26.67-.8-.6-18.28,25.68,.2,1.59Z"/></g><g id="polygon102"><path class="cls-27" d="M427.34,176.45l-2.5,15.58-3.3-2.89-1.2,7.39-6.59-5.99,6.99-7.39,2.1-2.3v.2l2.5-2.5,2.1-2.3-.1,.2h0Z"/></g><g id="polygon104"><path class="cls-27" d="M403.97,132.5l6.59-2.89-12.09-15.58-3.9,5.8,9.49,12.68h-.1Z"/></g><g id="path106"><path class="cls-27" d="M220.06,171.16c-30.77-37.36-86.01-17.28-105.69,.2l.8,1.4c4.5-2.69,9.49-4.89,14.39-7.19,19.68-8.39,38.56-10.89,53.55-8.19,5.29,.6,10.89,2.3,15.78,5.49,6.79,3.9,11.89,9.19,14.99,16.18,5.29,12.28,.6,28.77-11.89,42.26,15.78-14.59,26.67-28.57,18.08-50.25h0v.1h0Z"/></g><g id="path108"><path class="cls-27" d="M282.59,214.61c-.2-.6-.2-1.4-.4-2.1-1.59-6.19-5.29-11.09-10.29-14.39-7.79-5.29-18.88-6.39-29.77-1.8-5.8,2.5-10.69,6.39-14.79,10.89,3.09-2.69,6.59-4.7,10.29-6.39,10.89-4.7,21.98-3.5,29.77,1.8,4.89,3.3,8.59,8.19,10.29,14.38,.2,.6,.4,1.4,.4,2.1,.4,2.5,.6,4.7,.6,7.19-.2,7.19-2.89,14.39-7.19,20.48-.6,1-1.4,1.8-2.3,2.89,2.5-2.3,4.7-4.5,6.59-7.19,4.5-6.19,6.99-13.38,7.39-20.48,0-2.5-.2-4.89-.6-7.39"/></g><g id="path110"><path class="cls-27" d="M252.42,205.62s4.5-4.5,4.3-4.5c-5.49-.2-8,5.09-8.2,5.49,1.2-.6,2.5-.8,3.9-1"/></g><g id="path112"><path class="cls-27" d="M262.91,212.01c.2,.8,.4,1.4,.4,2.3,0,1.2-.2,2.3-.8,3.3,.8-.4,7.39-3.7,4.89-10.29,.2,.4-4.7,4.7-4.5,4.7"/></g><g id="path114"><path class="cls-27" d="M237.44,215.91c0-2.69,4.7-9.49,6.19-11.69-7.39,4.7-10.69,11.09-10.69,15.98,0,8.59,7.59,15.58,16.58,15.58,4.3,0,12.09-2.3,17.28-10.49-2.69,1.8-9.49,5.99-13.09,5.99-8.99,0-16.18-6.79-16.18-15.39"/></g><g id="polygon116"><path class="cls-27" d="M300.87,223.71l.2,34.66,5.49,.4-1.2-39.66-4.5,4.5v.1h0Z"/></g><g id="polygon118"><path class="cls-27" d="M269.31,157.38v3.09l26.27-7.79,1.8,33.47,4.5-6.19-1-33.47-31.57,10.89h0Z"/></g><g id="polygon120"><path class="cls-27" d="M348.32,169.26l-24.38-22.58-3.09,6.59,21.78,20.28,5.8-4.3h-.1Z"/></g><g id="path122"><path class="cls-27" d="M344.62,211.32l-28.97-9.69-4.1,4.5,28.77,11.49c3.3,6.19,8.2,11.49,14.39,15.19,5.99,3.7,12.89,5.99,20.08,6.59v14.18l4.5,2.3,1.4-21.38-36.16-23.17h.1Z"/></g><g id="path124"><path class="cls-27" d="M390.98,207.42c7.19-1.59,11.09-5.29,14.79-9.49-2.69,2.3-15.78,5.09-18.08,5.8l-4.3,4.7c1.8,0,5.09-.4,7.59-1"/></g><g id="path126"><path class="cls-27" d="M378.09,158.17c-13.09,1.59-19.88,12.68-20.98,13.98,4.89-4.1,10.89-7.19,17.68-8.59,16.18-3.9,30.36,1,39.16,11.89l5.49-4.5c-8.79-10.69-25.27-16.58-41.45-12.68"/></g><g id="path128"><path class="cls-27" d="M421.94,211.72c1.59-1.2,4.3-2.69,5.99-4.3l-17.48-15.58c-1.4,1.59-2.5,4.3-4.1,5.49l15.58,14.38h0Z"/></g><g id="path130"><path class="cls-27" d="M511.65,253.68c-18.28-15.19-17.28-47.45-8.2-57.64l-7.99-50.64-17.68,2.3-.8,4.5h13.38l7.19,45.95c-8.99,10.29-13.38,23.97-10.49,36.77,2.3,9.89,8.39,17.68,17.08,22.18,.8,.4,1.8,.8,2.69,1.2l.2,.6,5.29,.8s.4-5.49-.6-5.99h-.1Z"/></g><g id="polygon132"><path class="cls-27" d="M441.32,152.68l-.8,4.5h20.08l5.99,32.67,4.5-4.5-4.7-34.46-25.07,1.8h0Z"/></g><g id="polygon134"><path class="cls-27" d="M475.79,215.91l-6.59,16.78,1.59,4.5,9.19-25.68-4.3,4.3,.1,.1Z"/></g><g id="polygon136"><path class="cls-27" d="M456.51,205.42l-4.5,4.5-4.89,30.36,4.7,1.59,4.7-36.56v.1Z"/></g><g id="path138"><path class="cls-27" d="M547.02,195.54c2.69,1.8,4.89,4.3,6.59,7.19,1.4,2.3,2.3,4.5,3.09,7.39,2.3,9.19-.4,19.08-6.19,26.87-.6,.8-1.2,1.59-1.8,2.3,2.3-2.1,30.97-23.17,3.09-50.95-30.77-10.09-42.46,9.89-43.56,11.29,3.3-2.69,6.99-5.09,11.09-6.59,10.29-4.1,20.48-2.69,27.67,2.5"/></g><g id="path140"><path class="cls-27" d="M531.63,197.63l4.5-4.5c-5.49,.2-8.2,2.89-7.79,4.1-.4,.4-.6,1-.8,1.4,1-.6,3.3-1,4.1-1"/></g><g id="path142"><path class="cls-27" d="M541.82,204.62c.2,.8,.2,1.4,.2,2.3,0,1-.4,2.1-.8,2.89,.8-.4,7.39-2.5,4.89-9.89,.2,.4-4.5,4.7-4.3,4.7"/></g><g id="path144"><path class="cls-27" d="M527.23,227.8c6.19,.2,13.09-3.5,18.08-10.29-12.48,2.69-25.88-18.48-24.67-20.48-4.7,3.5-8.99,10.09-9.19,14.79-.4,8.59,6.79,15.58,15.78,15.98"/></g><g id="polygon146"><path class="cls-27" d="M596.46,282.55l2.89,1.8,36.16-108.38-27.07-6.19-.2,6.39,21.78,4.7-33.47,101.59-.1,.1h0Z"/></g><g id="polygon148"><path class="cls-27" d="M553.51,158.17l.2,6.19,28.77,5.8,11.09,52.54,4.5-4.5-10.69-53.15-33.86-6.79v-.1h0Z"/></g><g id="polygon150"><path class="cls-27" d="M575.69,218.11l-7.99,44.75,4.5,1.4,7.99-50.64-4.5,4.5Z"/></g><g id="polygon152"><path class="cls-27" d="M202.77,279.25l-13.38-48.85-4.89,3.5,12.48,46.56,5.8-1.2h0Z"/></g><g id="path154"><path class="cls-27" d="M199.27,206.03c-3.09,3.3-10.09,9.69-13.98,12.09l-2.5-7.59-5.09-16.78-3.3-11.29-3.3,4.1,3.3,11.29,5.09,16.58,2.5,7.59c5.49-3.09,13.38-9.69,17.28-15.98"/></g><g id="path156"><path class="cls-20" d="M389.78,177.06c-4.3-1.59-10.29-1.2-13.58,2.5-.8,.8-2.3,2.89-2.69,3.9,3.09-2.5,8.79-3.09,12.28-1.59l3.9-4.7h0l.1-.1h0Z"/></g><g id="path158"><path class="cls-20" d="M195.58,192.24c-.4-2.5-2.89-4.5-4.1-5.09-2.1-1-5.99-1.2-8.59-.6,.4,1.59,1,3.7,1.2,4.5,1,.2,2.89,.4,3.9,.8,1.2,.6,3.3,1.8,3.7,4.5,.6,3.3,.4,6.59-1,8.99,3.9-3.7,5.8-7.79,4.89-13.09"/></g><g id="g160"><g id="g162"><g id="path164"><path class="cls-229" d="M202.27,192.14c-1.8-9.89-14.79-15.39-27.67-8.39l3.3,11.29,5.09,16.78,2.5,7.59c9.69-5.99,19.28-13.58,16.78-27.27h0Zm-12.68,15.39c-1.4-4.5-4.5-14.39-4.5-14.39,0,0-.6-2.1-1.4-4.5,2.69-.4,5.29-.2,7.39,.8,1.2,.6,3.3,1.8,3.7,4.5,1.2,5.29-.6,9.49-5.09,13.58h-.1Z"/></g></g></g><g id="g166"><g id="g168"><g id="path170"><path class="cls-184" d="M396.47,176.45c-7.19-6.59-18.28-6.19-24.87,1-6.59,7.19-6.19,18.28,1,24.87,.6,.6,1.2,1,1.8,1.4l23.17-26.27s-.8-.6-1.2-1h.1Zm-21.78,18.49c-2.3-4.1-1.8-9.49,1.59-13.09,3.3-3.5,8.2-4.5,12.48-2.89l-14.18,15.98h.1Z"/></g></g></g><g id="polygon172"><path class="cls-93" d="M427.34,173.56l-12.68,12.28,12.09,10.89,.6-23.17Z"/></g><g id="path174"><path class="cls-227" d="M546.12,200.03c.2,.8,.2,1.59,.2,2.5-.2,4.89-4.7,8.59-10.29,8.39-5.49-.2-9.89-4.3-9.69-9.19,.2-4.5,4.3-8.19,9.19-8.39-1-.2-2.1-.4-3.09-.4-9.19-.4-16.58,6.19-17.08,14.18-.4,8.59,6.59,15.78,15.58,15.98,9.19,.4,16.58-6.19,17.08-14.79,.6-2.89-.4-5.8-2.1-8.19"/></g><g id="path183"><g class="cls-238"><g><rect class="cls-229" x="237.63" y="200.93" width=".9" height="30.36"/><rect class="cls-232" x="238.64" y="200.93" width="1.2" height="30.36"/><rect class="cls-233" x="239.83" y="200.93" width="1.2" height="30.36"/><rect class="cls-225" x="241.03" y="200.93" width="1.2" height="30.36"/><rect class="cls-224" x="242.23" y="200.93" width="1.2" height="30.36"/><rect class="cls-231" x="243.53" y="200.93" width="1.2" height="30.36"/><rect class="cls-230" x="244.73" y="200.93" width="1.2" height="30.36"/><rect class="cls-221" x="245.93" y="200.93" width="1.2" height="30.36"/><rect class="cls-182" x="247.13" y="200.93" width="1.2" height="30.36"/><rect class="cls-181" x="248.32" y="200.93" width="1.2" height="30.36"/><rect class="cls-183" x="249.62" y="200.93" width="1.2" height="30.36"/><rect class="cls-228" x="250.82" y="200.93" width="1.2" height="30.36"/><rect class="cls-226" x="252.02" y="200.93" width="1.2" height="30.36"/><rect class="cls-26" x="253.22" y="200.93" width="1.2" height="30.36"/><rect class="cls-21" x="254.42" y="200.93" width="1.2" height="30.36"/><rect class="cls-222" x="255.71" y="200.93" width="1.2" height="30.36"/><rect class="cls-223" x="256.92" y="200.93" width="1.2" height="30.36"/><rect class="cls-25" x="258.11" y="200.93" width="1.2" height="30.36"/><rect class="cls-23" x="259.32" y="200.93" width="1.2" height="30.36"/><rect class="cls-22" x="260.61" y="200.93" width="1.2" height="30.36"/><rect class="cls-219" x="261.81" y="200.93" width="1.2" height="30.36"/><rect class="cls-220" x="263.01" y="200.93" width="1.2" height="30.36"/><rect class="cls-216" x="264.21" y="200.93" width="1.2" height="30.36"/><rect class="cls-215" x="265.41" y="200.93" width="1.2" height="30.36"/><rect class="cls-218" x="266.71" y="200.93" width="1.2" height="30.36"/><rect class="cls-218" x="267.9" y="200.93" width="1.1" height="30.36"/><rect class="cls-214" x="269" y="200.93" width="1.1" height="30.36"/><rect class="cls-214" x="270.1" y="200.93" width=".2" height="30.36"/></g></g></g><g id="g185"><g id="g187"><g id="path196"><g class="cls-239"><g><rect class="cls-216" x="552.41" y="159.07" width="16.38" height="124.17"/><rect class="cls-215" x="568.79" y="159.07" width="20.38" height="124.17"/><rect class="cls-218" x="589.17" y="159.07" width="20.38" height="124.17"/><rect class="cls-218" x="609.45" y="159.07" width="18.28" height="124.17"/><rect class="cls-214" x="627.73" y="159.07" width="6.59" height="124.17"/><rect class="cls-22" x="497.67" y="184.54" width="10.09" height="64.24"/><rect class="cls-219" x="507.76" y="184.54" width="20.38" height="64.24"/><rect class="cls-220" x="528.04" y="184.54" width="20.38" height="64.24"/><rect class="cls-216" x="548.41" y="184.54" width="14.29" height="64.24"/><rect class="cls-223" x="427.24" y="147.59" width="19.48" height="112.28"/><rect class="cls-25" x="446.62" y="147.59" width="20.38" height="112.28"/><rect class="cls-23" x="467" y="147.59" width="20.38" height="112.28"/><rect class="cls-22" x="487.37" y="147.59" width="20.38" height="112.28"/><rect class="cls-219" x="507.76" y="147.59" width="4.5" height="112.28"/><rect class="cls-226" x="348.22" y="155.18" width="17.08" height="72.02"/><rect class="cls-26" x="365.21" y="155.18" width="20.38" height="72.02"/><rect class="cls-21" x="385.58" y="155.18" width="20.38" height="72.02"/><rect class="cls-222" x="405.96" y="155.18" width="20.38" height="72.02"/><rect class="cls-223" x="426.34" y="155.18" width=".3" height="72.02"/><rect class="cls-228" x="330.74" y="189.24" width="10.29" height="13.09"/><rect class="cls-182" x="269.2" y="148.18" width="14.68" height="112.48"/><rect class="cls-181" x="283.89" y="148.18" width="20.38" height="112.48"/><rect class="cls-183" x="304.17" y="148.18" width="20.38" height="112.48"/><rect class="cls-228" x="324.54" y="148.18" width="20.38" height="112.48"/><rect class="cls-226" x="344.93" y="148.18" width="20.38" height="112.48"/><rect class="cls-26" x="365.21" y="148.18" width="14.18" height="112.48"/><rect class="cls-231" x="214.16" y="191.64" width="8.59" height="72.02"/><rect class="cls-230" x="222.75" y="191.64" width="20.38" height="72.02"/><rect class="cls-221" x="243.13" y="191.64" width="20.38" height="72.02"/><rect class="cls-182" x="263.51" y="191.64" width="19.68" height="72.02"/><rect class="cls-229" x="114.26" y="150.19" width="6.79" height="135.26"/><rect class="cls-232" x="121.06" y="150.19" width="20.38" height="135.26"/><rect class="cls-233" x="141.34" y="150.19" width="20.38" height="135.26"/><rect class="cls-225" x="161.71" y="150.19" width="20.38" height="135.26"/><rect class="cls-224" x="182.1" y="150.19" width="20.38" height="135.26"/><rect class="cls-231" x="202.47" y="150.19" width="20.38" height="135.26"/><rect class="cls-230" x="222.75" y="150.19" width="2.89" height="135.26"/><rect class="cls-26" x="375.69" y="114.72" width="9.89" height="30.57"/><rect class="cls-21" x="385.58" y="114.72" width="20.38" height="30.57"/><rect class="cls-222" x="405.96" y="114.72" width="3.6" height="30.57"/><rect class="cls-222" x="418.15" y="176.45" width="8.09" height="15.58"/><rect class="cls-223" x="426.34" y="176.45" width=".9" height="15.58"/><rect class="cls-229" x="100.68" y="100.94" width="20.38" height="196.39"/><rect class="cls-232" x="121.06" y="100.94" width="20.38" height="196.39"/><rect class="cls-233" x="141.34" y="100.94" width="20.38" height="196.39"/><rect class="cls-225" x="161.71" y="100.94" width="20.38" height="196.39"/><rect class="cls-224" x="182.1" y="100.94" width="20.38" height="196.39"/><rect class="cls-231" x="202.47" y="100.94" width="20.38" height="196.39"/><rect class="cls-230" x="222.75" y="100.94" width="20.38" height="196.39"/><rect class="cls-221" x="243.13" y="100.94" width="20.38" height="196.39"/><rect class="cls-182" x="263.51" y="100.94" width="20.38" height="196.39"/><rect class="cls-181" x="283.89" y="100.94" width="20.38" height="196.39"/><rect class="cls-183" x="304.17" y="100.94" width="20.38" height="196.39"/><rect class="cls-228" x="324.54" y="100.94" width="20.38" height="196.39"/><rect class="cls-226" x="344.93" y="100.94" width="20.38" height="196.39"/><rect class="cls-26" x="365.21" y="100.94" width="20.38" height="196.39"/><rect class="cls-21" x="385.58" y="100.94" width="20.38" height="196.39"/><rect class="cls-222" x="405.96" y="100.94" width="20.38" height="196.39"/><rect class="cls-223" x="426.34" y="100.94" width="20.38" height="196.39"/><rect class="cls-25" x="446.62" y="100.94" width="20.38" height="196.39"/><rect class="cls-23" x="467" y="100.94" width="20.38" height="196.39"/><rect class="cls-22" x="487.37" y="100.94" width="20.38" height="196.39"/><rect class="cls-219" x="507.76" y="100.94" width="20.38" height="196.39"/><rect class="cls-220" x="528.04" y="100.94" width="20.38" height="196.39"/><rect class="cls-216" x="548.41" y="100.94" width="20.38" height="196.39"/><rect class="cls-215" x="568.79" y="100.94" width="20.38" height="196.39"/><rect class="cls-218" x="589.17" y="100.94" width="20.38" height="196.39"/><rect class="cls-218" x="609.45" y="100.94" width="18.28" height="196.39"/><rect class="cls-214" x="627.73" y="100.94" width="18.28" height="196.39"/></g></g></g></g></g></g></svg>