<?xml version="1.0" encoding="utf-8"?>
<!-- Generator: Adobe Illustrator 27.0.0, SVG Export Plug-In . SVG Version: 6.00 Build 0)  -->
<svg version="1.1" id="Capa_1" xmlns="http://www.w3.org/2000/svg" xmlns:xlink="http://www.w3.org/1999/xlink" x="0px" y="0px"
	 viewBox="0 0 2062.5 432" style="enable-background:new 0 0 2062.5 432;" xml:space="preserve">
<style type="text/css">
	.st0{fill:#FFCB05;}
	.st1{fill:#2C71B7;}
	.st2{enable-background:new    ;}
	.st3{clip-path:url(#SVGID_00000138548359926458157460000004919473242151384251_);}
	.st4{fill:#0070B6;}
	.st5{fill:#006FB5;}
	.st6{fill:#016EB4;}
	.st7{fill:#016EB3;}
	.st8{fill:#016DB2;}
	.st9{fill:#026CB1;}
	.st10{fill:#026BB0;}
	.st11{fill:#026BAF;}
	.st12{fill:#036AAE;}
	.st13{fill:#0369AD;}
	.st14{fill:#0368AC;}
	.st15{fill:#0467AB;}
	.st16{fill:#0467AA;}
	.st17{fill:#0466A9;}
	.st18{fill:#0565A8;}
	.st19{fill:#0564A7;}
	.st20{fill:#0563A6;}
	.st21{fill:#0663A5;}
	.st22{fill:#0662A4;}
	.st23{fill:#0661A3;}
	.st24{fill:#0760A2;}
	.st25{fill:#0760A1;}
	.st26{fill:#075FA0;}
	.st27{fill:#085E9F;}
	.st28{fill:#085D9E;}
	.st29{fill:#085C9D;}
	.st30{fill:#095C9C;}
	.st31{fill:#095B9B;}
	.st32{fill:#095A9A;}
	.st33{fill:#0A5999;}
	.st34{fill:#0A5998;}
	.st35{fill:#0A5897;}
	.st36{fill:#0B5796;}
	.st37{fill:#0B5695;}
	.st38{fill:#0B5594;}
	.st39{fill:#0C5593;}
	.st40{fill:#0C5492;}
	.st41{fill:#0C5391;}
	.st42{fill:#0D5290;}
	.st43{fill:#0D528F;}
	.st44{fill:#0D518E;}
	.st45{fill:#0E508D;}
	.st46{fill:#0E4F8C;}
	.st47{fill:#0E4E8B;}
	.st48{fill:#0F4E89;}
	.st49{fill:#0F4D88;}
	.st50{fill:#0F4C87;}
	.st51{fill:#104B86;}
	.st52{fill:#104A85;}
	.st53{fill:#104A84;}
	.st54{fill:#114983;}
	.st55{fill:#114882;}
	.st56{fill:#114781;}
	.st57{fill:#124780;}
	.st58{fill:#12467F;}
	.st59{fill:#12457E;}
	.st60{fill:#13447D;}
	.st61{fill:#13437C;}
	.st62{fill:#13437B;}
	.st63{fill:#14427A;}
	.st64{fill:#144179;}
	.st65{fill:#144078;}
	.st66{fill:#154077;}
	.st67{fill:#153F76;}
	.st68{fill:#153E75;}
	.st69{fill:#163D74;}
	.st70{fill:#163C73;}
	.st71{fill:#163C72;}
	.st72{fill:#173B71;}
	.st73{fill:#173A70;}
	.st74{fill:#17396F;}
	.st75{fill:#18396E;}
	.st76{fill:#18386D;}
	.st77{fill:#18376C;}
	.st78{fill:#19366B;}
	.st79{fill:#19356A;}
	.st80{fill:#193569;}
	.st81{fill:#1A3468;}
	.st82{fill:#1A3367;}
	.st83{fill:#1A3266;}
	.st84{fill:#1B3165;}
	.st85{fill:#1B3164;}
	.st86{fill:#1B3063;}
	.st87{fill:#1C2F62;}
	.st88{fill:#1C2E61;}
	.st89{fill:#1C2E60;}
	.st90{fill:#1D2D5F;}
	.st91{fill:#1D2C5E;}
	.st92{fill:#0071B9;}
	.st93{clip-path:url(#SVGID_00000071540318996296750780000010987319359304362122_);}
	.st94{clip-path:url(#SVGID_00000008854349444702757680000008052337934270877334_);}
	.st95{clip-path:url(#SVGID_00000097465563109440360950000001679549364409987721_);}
	.st96{fill:#125D9E;}
	.st97{fill:#125C9D;}
	.st98{fill:#125B9C;}
	.st99{fill:#135B9B;}
	.st100{fill:#135A9A;}
	.st101{fill:#135999;}
	.st102{fill:#135898;}
	.st103{fill:#135897;}
	.st104{fill:#135796;}
	.st105{fill:#145695;}
	.st106{fill:#145594;}
	.st107{fill:#145493;}
	.st108{fill:#145492;}
	.st109{fill:#145391;}
	.st110{fill:#145290;}
	.st111{fill:#15518F;}
	.st112{fill:#15518E;}
	.st113{fill:#15508D;}
	.st114{fill:#154F8C;}
	.st115{fill:#154E8B;}
	.st116{fill:#154D8A;}
	.st117{fill:#164D89;}
	.st118{fill:#164C88;}
	.st119{fill:#164B87;}
	.st120{fill:#164A86;}
	.st121{fill:#164A85;}
	.st122{fill:#174984;}
	.st123{fill:#174883;}
	.st124{fill:#174782;}
	.st125{fill:#174681;}
	.st126{fill:#174680;}
	.st127{fill:#17457F;}
	.st128{fill:#18447D;}
	.st129{fill:#18437C;}
	.st130{fill:#18437B;}
	.st131{fill:#18427A;}
	.st132{fill:#184179;}
	.st133{fill:#184078;}
	.st134{fill:#193F77;}
	.st135{fill:#193F76;}
	.st136{fill:#193E75;}
	.st137{fill:#193D74;}
	.st138{fill:#193C73;}
	.st139{fill:#1A3C72;}
	.st140{fill:#1A3B71;}
	.st141{fill:#1A3A70;}
	.st142{fill:#1A396F;}
	.st143{fill:#1A386E;}
	.st144{fill:#1A386D;}
	.st145{fill:#1B376C;}
	.st146{fill:#1B366B;}
	.st147{fill:#1B356A;}
	.st148{fill:#1B3569;}
	.st149{fill:#1B3468;}
	.st150{fill:#1B3367;}
	.st151{fill:#1C3266;}
	.st152{fill:#1C3165;}
	.st153{fill:#1C3164;}
	.st154{fill:#1C3063;}
	.st155{fill:#1D2E60;}
	.st156{fill:#312370;}
	.st157{fill:#21386E;}
	.st158{clip-path:url(#SVGID_00000044143357510131662110000000503883968440260542_);}
	.st159{clip-path:url(#SVGID_00000178170413180677350050000017920047794700539545_);}
	.st160{fill:#135392;}
	.st161{fill:#135391;}
	.st162{fill:#135290;}
	.st163{fill:#14518F;}
	.st164{fill:#14508E;}
	.st165{fill:#14508D;}
	.st166{fill:#144F8C;}
	.st167{fill:#144E8B;}
	.st168{fill:#154C89;}
	.st169{fill:#154C88;}
	.st170{fill:#154B87;}
	.st171{fill:#154A86;}
	.st172{fill:#164985;}
	.st173{fill:#164984;}
	.st174{fill:#164883;}
	.st175{fill:#164782;}
	.st176{fill:#164681;}
	.st177{fill:#17457E;}
	.st178{fill:#17447D;}
	.st179{fill:#17437C;}
	.st180{fill:#17427B;}
	.st181{fill:#17427A;}
	.st182{fill:#183F77;}
	.st183{fill:#183F76;}
	.st184{fill:#183E75;}
	.st185{fill:#193B72;}
	.st186{fill:#193B71;}
	.st187{fill:#193A70;}
	.st188{fill:#1A376C;}
	.st189{fill:#1A366B;}
	.st190{fill:#1B3266;}
	.st191{clip-path:url(#SVGID_00000008150669193940978420000017614248646075310737_);}
	.st192{fill:#105FA1;}
	.st193{fill:#105EA0;}
	.st194{fill:#105D9F;}
	.st195{fill:#115D9E;}
	.st196{fill:#115C9D;}
	.st197{fill:#115B9C;}
	.st198{fill:#115A9B;}
	.st199{fill:#115A9A;}
	.st200{fill:#125999;}
	.st201{fill:#125898;}
	.st202{fill:#125797;}
	.st203{fill:#125796;}
	.st204{fill:#125695;}
	.st205{fill:#135594;}
	.st206{fill:#135493;}
	.st207{fill:#7D7F68;}
	.st208{fill:#C7A008;}
	.st209{fill:#3C5AA6;}
	.st210{fill:#3567B0;}
	.st211{fill:#1E2D5F;}
	.st212{fill:#3466AF;}
	.st213{clip-path:url(#SVGID_00000013153768313670617740000010437887368957183361_);}
	.st214{fill:#3B5BA7;}
	.st215{fill:#3B5CA8;}
	.st216{fill:#3A5DA8;}
	.st217{fill:#395EA9;}
	.st218{fill:#385FAA;}
	.st219{fill:#3860AB;}
	.st220{fill:#3761AC;}
	.st221{fill:#3662AC;}
	.st222{fill:#3663AD;}
	.st223{fill:#3564AE;}
	.st224{fill:#3465AF;}
	.st225{fill:#3467B0;}
	.st226{fill:#3368B0;}
	.st227{fill:#3269B1;}
	.st228{fill:#316AB2;}
	.st229{fill:#316BB3;}
	.st230{fill:#306CB3;}
	.st231{fill:#2F6DB4;}
	.st232{fill:#2F6EB5;}
	.st233{fill:#2E6FB6;}
	.st234{fill:#2D70B7;}
	.st235{fill:#2C72B8;}
	.st236{fill:#2B73B9;}
	.st237{fill:#2A75BB;}
	.st238{clip-path:url(#SVGID_00000016761529783265556210000009239418888682678406_);}
</style>
<g>
	<path class="st0" d="M59.6,0h1943.4c32.9,0,59.6,26.7,59.6,59.6v312.9c0,32.9-26.7,59.6-59.6,59.6H59.6C26.7,432,0,405.3,0,372.4
		V59.6C0,26.7,26.7,0,59.6,0z"/>
	<polygon class="st1" points="1874.7,282.5 1860.6,268.4 1912.9,216 1860.6,163.6 1874.7,149.5 1941.2,216 	"/>
	<g class="st2">
		<path class="st1" d="M759.6,157.4h45.1c8.4,0,15.8,1.6,22.4,4.8c6.6,3.2,11.7,7.8,15.4,13.6c3.7,5.9,5.6,12.6,5.6,20.3
			c0,7.6-1.9,14.4-5.6,20.3c-3.7,5.9-8.8,10.5-15.4,13.7c-6.6,3.3-14,4.9-22.4,4.9h-20.6v42.4h-24.6V157.4z M804.7,212.9
			c5.7,0,10.2-1.5,13.4-4.6c3.2-3.1,4.8-7.2,4.8-12.2c0-4.9-1.6-8.9-4.9-11.9s-7.7-4.6-13.3-4.6h-20.6v33.3H804.7z"/>
		<path class="st1" d="M867.7,157.4h24.6v97.9h52.6v22.2h-77.2V157.4z"/>
	</g>
	<g class="st2">
		<path class="st1" d="M1038.2,261.9h-49.1l-6.7,15.7H956l53.7-122.3h8.2l53.5,122.3H1045L1038.2,261.9z M1013.6,201.1l-16,38.6h32
			L1013.6,201.1z"/>
	</g>
	<g class="st2">
		<path class="st1" d="M1127.2,230.2v47.3h-24.6v-47.1l-41.5-73h27.3l26.6,47.7l26.4-47.7h27.1L1127.2,230.2z"/>
	</g>
	<g class="st2">
		<path class="st1" d="M1291.8,261.9h-49.1l-6.7,15.7h-26.4l53.7-122.3h8.2l53.5,122.3h-26.4L1291.8,261.9z M1267.2,201.1l-16,38.6
			h32L1267.2,201.1z"/>
	</g>
	<g class="st2">
		<path class="st1" d="M1363,271.5c-9.8-5.5-17.5-13-23.2-22.5c-5.7-9.5-8.6-20-8.6-31.6c0-11.6,2.8-22.2,8.5-31.7
			c5.6-9.5,13.4-16.9,23.2-22.4s20.7-8.2,32.6-8.2c10.6,0,20.2,2.3,28.8,6.8c8.7,4.5,15.9,10.9,21.7,19.1l-17.5,14.3
			c-8.5-12-19.7-18-33.5-18c-7.6,0-14.4,1.7-20.2,5.1c-5.8,3.4-10.3,8.1-13.6,14.1c-3.2,6-4.8,12.8-4.8,20.5c0,7.8,1.7,14.8,5,20.8
			c3.3,6.1,8,10.9,14.1,14.4c6.1,3.5,13,5.2,20.9,5.2c6.9,0,13.1-1.3,18.5-3.8c5.4-2.6,9.8-6,13.2-10.4v-9.4h-33.1v-22.2h57.7v35.5
			c-5.5,9.7-13.3,17.6-23.4,23.6c-10.1,6-21.4,9-33.9,9C1383.6,279.7,1372.8,277,1363,271.5z"/>
	</g>
	<g class="st2">
		<path class="st1" d="M1543.1,261.9H1494l-6.7,15.7h-26.4l53.7-122.3h8.2l53.5,122.3h-26.4L1543.1,261.9z M1518.5,201.1l-16,38.6
			h32L1518.5,201.1z"/>
		<path class="st1" d="M1592.6,157.4h24.6v120.1h-24.6V157.4z"/>
		<path class="st1" d="M1746.9,157.4v122.3h-8.2l-69.5-74.3v72.1h-24.6V155.2h8l69.7,73.9v-71.7H1746.9z"/>
	</g>
	<g>
		<g id="polygon16">
			<g>
				<defs>
					<polygon id="SVGID_1_" points="93.2,176.1 117.9,217.7 127.8,208.2 100.8,168.3 					"/>
				</defs>
				<clipPath id="SVGID_00000145037975097826497920000015280590706438502032_">
					<use xlink:href="#SVGID_1_"  style="overflow:visible;"/>
				</clipPath>
				<g style="clip-path:url(#SVGID_00000145037975097826497920000015280590706438502032_);">
					<g>
						<polygon class="st4" points="110.9,217.7 110.2,216.3 127.7,206.9 127.7,217.7 						"/>
						<polygon class="st4" points="110.2,216.3 109.9,215.9 127.7,206.3 127.7,206.9 						"/>
						<polygon class="st5" points="109.9,215.9 109.7,215.5 127.7,205.8 127.7,206.3 						"/>
						<polygon class="st6" points="109.7,215.5 109.5,215 127.7,205.2 127.7,205.8 						"/>
						<polygon class="st7" points="109.5,215 109.2,214.6 127.7,204.7 127.7,205.2 						"/>
						<polygon class="st8" points="109.2,214.6 109,214.1 127.7,204.1 127.7,204.7 						"/>
						<polygon class="st9" points="109,214.1 108.8,213.7 127.7,203.5 127.7,204.1 						"/>
						<polygon class="st10" points="108.8,213.7 108.5,213.3 127.7,203 127.7,203.5 						"/>
						<polygon class="st11" points="108.5,213.3 108.3,212.8 127.7,202.4 127.7,203 						"/>
						<polygon class="st12" points="108.3,212.8 108.1,212.4 127.7,201.9 127.7,202.4 						"/>
						<polygon class="st13" points="108.1,212.4 107.8,212 127.7,201.3 127.7,201.9 						"/>
						<polygon class="st14" points="107.8,212 107.6,211.5 127.7,200.7 127.7,201.3 						"/>
						<polygon class="st15" points="107.6,211.5 107.4,211.1 127.7,200.2 127.7,200.7 						"/>
						<polygon class="st16" points="107.4,211.1 107.1,210.7 127.7,199.6 127.7,200.2 						"/>
						<polygon class="st17" points="107.1,210.7 106.9,210.2 127.4,199.2 127.7,199.6 127.7,199.6 						"/>
						
							<rect x="105.3" y="204.2" transform="matrix(0.8811 -0.4729 0.4729 0.8811 -82.7714 79.6392)" class="st18" width="23.4" height="0.5"/>
						
							<rect x="105.2" y="203.9" transform="matrix(0.8811 -0.4729 0.4729 0.8811 -82.621 79.5248)" class="st19" width="23.4" height="0.5"/>
						
							<rect x="104.9" y="203.4" transform="matrix(0.8811 -0.4729 0.4729 0.8811 -82.4497 79.3522)" class="st20" width="23.4" height="0.5"/>
						
							<rect x="104.7" y="202.9" transform="matrix(0.8811 -0.4729 0.4729 0.8811 -82.2291 79.1839)" class="st21" width="23.4" height="0.5"/>
						
							<rect x="104.4" y="202.5" transform="matrix(0.8811 -0.4729 0.4729 0.8811 -82.0876 79.018)" class="st22" width="23.4" height="0.5"/>
						
							<rect x="104.2" y="202" transform="matrix(0.8811 -0.4729 0.4729 0.8811 -81.8828 78.8179)" class="st23" width="23.4" height="0.5"/>
						
							<rect x="104" y="201.6" transform="matrix(0.8811 -0.4729 0.4729 0.8811 -81.6876 78.6821)" class="st24" width="23.4" height="0.5"/>
						
							<rect x="103.8" y="201.2" transform="matrix(0.8811 -0.4729 0.4729 0.8811 -81.5405 78.5641)" class="st25" width="23.4" height="0.5"/>
						
							<rect x="103.4" y="200.7" transform="matrix(0.8811 -0.4729 0.4729 0.8811 -81.3508 78.3159)" class="st26" width="23.4" height="0.5"/>
						
							<rect x="103.3" y="200.4" transform="matrix(0.8811 -0.4729 0.4729 0.8811 -81.199 78.1967)" class="st27" width="23.4" height="0.5"/>
						
							<rect x="103.1" y="199.9" transform="matrix(0.8811 -0.4729 0.4729 0.8811 -81.0071 78.0572)" class="st28" width="23.4" height="0.5"/>
						
							<rect x="102.8" y="199.4" transform="matrix(0.8811 -0.4729 0.4729 0.8811 -80.8059 77.8605)" class="st29" width="23.4" height="0.5"/>
						
							<rect x="102.6" y="199.1" transform="matrix(0.8811 -0.4729 0.4729 0.8811 -80.6541 77.7413)" class="st30" width="23.4" height="0.5"/>
						
							<rect x="102.4" y="198.6" transform="matrix(0.8811 -0.4729 0.4729 0.8811 -80.474 77.5599)" class="st31" width="23.4" height="0.5"/>
						
							<rect x="102.1" y="198.1" transform="matrix(0.8811 -0.4729 0.4729 0.8811 -80.2707 77.362)" class="st32" width="23.4" height="0.5"/>
						
							<rect x="101.9" y="197.7" transform="matrix(0.8811 -0.4729 0.4729 0.8811 -80.1185 77.2359)" class="st33" width="23.4" height="0.5"/>
						
							<rect x="101.7" y="197.3" transform="matrix(0.8811 -0.4729 0.4729 0.8811 -79.9284 77.1082)" class="st34" width="23.4" height="0.5"/>
						
							<rect x="101.3" y="196.9" transform="matrix(0.8811 -0.4729 0.4729 0.8811 -79.784 76.8682)" class="st35" width="23.4" height="0.5"/>
						
							<rect x="101.2" y="196.4" transform="matrix(0.8811 -0.4729 0.4729 0.8811 -79.5902 76.7372)" class="st36" width="23.4" height="0.5"/>
						
							<rect x="101" y="195.9" transform="matrix(0.8811 -0.4729 0.4729 0.8811 -79.352 76.5742)" class="st37" width="23.4" height="0.5"/>
						
							<rect x="100.7" y="195.6" transform="matrix(0.8811 -0.4729 0.4729 0.8811 -79.2383 76.4165)" class="st38" width="23.4" height="0.5"/>
						
							<rect x="100.5" y="195.1" transform="matrix(0.8811 -0.4729 0.4729 0.8811 -79.0467 76.2866)" class="st39" width="23.4" height="0.5"/>
						
							<rect x="100.2" y="194.6" transform="matrix(0.8811 -0.4729 0.4729 0.8811 -78.8234 76.0685)" class="st40" width="23.4" height="0.5"/>
						
							<rect x="100" y="194.3" transform="matrix(0.8811 -0.4729 0.4729 0.8811 -78.7064 75.9144)" class="st41" width="23.4" height="0.5"/>
						
							<rect x="99.8" y="193.8" transform="matrix(0.8811 -0.4729 0.4729 0.8811 -78.5065 75.78)" class="st42" width="23.4" height="0.5"/>
						
							<rect x="99.5" y="193.4" transform="matrix(0.8811 -0.4729 0.4729 0.8811 -78.3519 75.5936)" class="st43" width="23.4" height="0.5"/>
						
							<rect x="99.3" y="193" transform="matrix(0.8811 -0.4729 0.4729 0.8811 -78.1615 75.459)" class="st44" width="23.4" height="0.5"/>
						
							<rect x="99.1" y="192.5" transform="matrix(0.8811 -0.4729 0.4729 0.8811 -77.9733 75.2827)" class="st45" width="23.4" height="0.5"/>
						
							<rect x="98.8" y="192.1" transform="matrix(0.8811 -0.4729 0.4729 0.8811 -77.82 75.0916)" class="st46" width="23.4" height="0.5"/>
						
							<rect x="98.6" y="191.6" transform="matrix(0.8811 -0.4729 0.4729 0.8811 -77.6247 74.9584)" class="st47" width="23.4" height="0.5"/>
						
							<rect x="98.4" y="191.2" transform="matrix(0.8811 -0.4729 0.4729 0.8811 -77.431 74.8274)" class="st48" width="23.4" height="0.5"/>
						
							<rect x="98" y="190.8" transform="matrix(0.8811 -0.4729 0.4729 0.8811 -77.288 74.5895)" class="st49" width="23.4" height="0.5"/>
						
							<rect x="97.9" y="190.3" transform="matrix(0.8811 -0.4729 0.4729 0.8811 -77.0892 74.4531)" class="st50" width="23.4" height="0.5"/>
						
							<rect x="97.7" y="189.9" transform="matrix(0.8811 -0.4729 0.4729 0.8811 -76.9013 74.3037)" class="st51" width="23.4" height="0.5"/>
						
							<rect x="97.4" y="189.5" transform="matrix(0.8811 -0.4729 0.4729 0.8811 -76.7395 74.1308)" class="st52" width="23.4" height="0.5"/>
						
							<rect x="97.3" y="189" transform="matrix(0.8811 -0.4729 0.4729 0.8811 -76.5424 74.0061)" class="st53" width="23.4" height="0.5"/>
						
							<rect x="96.9" y="188.6" transform="matrix(0.8811 -0.4729 0.4729 0.8811 -76.3694 73.8017)" class="st54" width="23.4" height="0.5"/>
						
							<rect x="96.7" y="188.1" transform="matrix(0.8811 -0.4729 0.4729 0.8811 -76.2043 73.6324)" class="st55" width="23.4" height="0.5"/>
						
							<rect x="96.5" y="187.7" transform="matrix(0.8811 -0.4729 0.4729 0.8811 -76.009 73.4992)" class="st56" width="23.4" height="0.5"/>
						
							<rect x="96.3" y="187.3" transform="matrix(0.8811 -0.4729 0.4729 0.8811 -75.8259 73.3511)" class="st57" width="23.4" height="0.5"/>
						
							<rect x="96" y="186.8" transform="matrix(0.8811 -0.4729 0.4729 0.8811 -75.6712 73.1351)" class="st58" width="23.4" height="0.5"/>
						
							<rect x="95.8" y="186.5" transform="matrix(0.8811 -0.4729 0.4729 0.8811 -75.5226 73.0123)" class="st59" width="23.4" height="0.5"/>
						
							<rect x="95.6" y="185.9" transform="matrix(0.8811 -0.4729 0.4729 0.8811 -75.2903 72.8457)" class="st60" width="23.4" height="0.5"/>
						
							<rect x="95.3" y="185.5" transform="matrix(0.8811 -0.4729 0.4729 0.8811 -75.1252 72.6764)" class="st61" width="23.4" height="0.5"/>
						
							<rect x="95.1" y="185.2" transform="matrix(0.8811 -0.4729 0.4729 0.8811 -74.9803 72.5569)" class="st62" width="23.4" height="0.5"/>
						
							<rect x="94.8" y="184.6" transform="matrix(0.8811 -0.4729 0.4729 0.8811 -74.7584 72.3437)" class="st63" width="23.4" height="0.5"/>
						
							<rect x="94.6" y="184.2" transform="matrix(0.8811 -0.4729 0.4729 0.8811 -74.5954 72.1755)" class="st64" width="23.4" height="0.5"/>
						
							<rect x="94.4" y="183.8" transform="matrix(0.8811 -0.4729 0.4729 0.8811 -74.4051 72.0182)" class="st65" width="23.4" height="0.5"/>
						
							<rect x="94.2" y="183.3" transform="matrix(0.8811 -0.4729 0.4729 0.8811 -74.2102 71.8919)" class="st66" width="23.4" height="0.5"/>
						
							<rect x="93.9" y="183" transform="matrix(0.8811 -0.4729 0.4729 0.8811 -74.0951 71.7294)" class="st67" width="23.4" height="0.5"/>
						
							<rect x="93.6" y="182.5" transform="matrix(0.8811 -0.4729 0.4729 0.8811 -73.872 71.5208)" class="st68" width="23.4" height="0.5"/>
						
							<rect x="93.5" y="182" transform="matrix(0.8811 -0.4729 0.4729 0.8811 -73.6734 71.3913)" class="st69" width="23.4" height="0.5"/>
						
							<rect x="93.2" y="181.7" transform="matrix(0.8811 -0.4729 0.4729 0.8811 -73.562 71.232)" class="st70" width="23.4" height="0.5"/>
						
							<rect x="93" y="181.1" transform="matrix(0.8811 -0.4729 0.4729 0.8811 -73.3297 71.0655)" class="st71" width="23.4" height="0.5"/>
						
							<rect x="92.7" y="180.7" transform="matrix(0.8811 -0.4729 0.4729 0.8811 -73.1448 70.8856)" class="st72" width="23.4" height="0.5"/>
						
							<rect x="92.5" y="180.4" transform="matrix(0.8811 -0.4729 0.4729 0.8811 -73.0264 70.7267)" class="st73" width="23.4" height="0.5"/>
						
							<rect x="92.3" y="179.8" transform="matrix(0.8811 -0.4729 0.4729 0.8811 -72.7882 70.5637)" class="st74" width="23.4" height="0.5"/>
						
							<rect x="92.1" y="179.5" transform="matrix(0.8811 -0.4729 0.4729 0.8811 -72.6433 70.4442)" class="st75" width="23.4" height="0.5"/>
						<polygon class="st76" points="93.3,184.9 93.2,184.7 93.2,184.5 113.7,173.6 113.9,174 						"/>
						<polygon class="st77" points="93.2,183.9 113.5,173.1 113.7,173.6 93.2,184.5 						"/>
						<polygon class="st78" points="93.2,183.4 113.2,172.7 113.5,173.1 93.2,183.9 						"/>
						<polygon class="st79" points="93.2,182.9 113,172.2 113.2,172.7 93.2,183.4 						"/>
						<polygon class="st80" points="93.2,182.2 112.8,171.8 113,172.2 93.2,182.9 						"/>
						<polygon class="st81" points="93.2,181.6 112.5,171.4 112.8,171.8 93.2,182.2 						"/>
						<polygon class="st82" points="93.2,181.1 112.3,170.9 112.5,171.4 93.2,181.6 						"/>
						<polygon class="st83" points="93.2,180.6 112.1,170.5 112.3,170.9 93.2,181.1 						"/>
						<polygon class="st84" points="93.2,180.1 111.8,170.1 112.1,170.5 93.2,180.6 						"/>
						<polygon class="st85" points="93.2,179.4 111.6,169.6 111.8,170.1 93.2,180.1 						"/>
						<polygon class="st86" points="93.2,178.9 111.4,169.2 111.6,169.6 93.2,179.4 						"/>
						<polygon class="st87" points="93.2,178.4 111.1,168.8 111.4,169.2 93.2,178.9 						"/>
						<polygon class="st88" points="93.2,177.8 110.9,168.3 111.1,168.8 93.2,178.4 						"/>
						<polygon class="st89" points="93.2,177.3 109.9,168.3 110.9,168.3 110.9,168.3 93.2,177.8 						"/>
						<polygon class="st90" points="93.2,176.6 108.9,168.3 109.9,168.3 93.2,177.3 						"/>
						<polygon class="st91" points="93.2,176.1 107.8,168.3 108.9,168.3 93.2,176.6 						"/>
						<polygon class="st91" points="107.8,168.3 93.2,176.1 93.2,168.3 						"/>
					</g>
				</g>
			</g>
		</g>
		<g id="polygon18">
			<path class="st92" d="M459.8,143.2l-1,5.5l11.7-3.9l-1.4-6.8l-9.2,5.1L459.8,143.2L459.8,143.2z"/>
		</g>
		<g id="polygon25">
			<g>
				<defs>
					<polygon id="SVGID_00000066504301761358161790000008198507856901977479_" points="390.8,105.6 352.8,149.2 363.9,146.1 
						400.1,100.9 390.9,105.6 					"/>
				</defs>
				<clipPath id="SVGID_00000134216141136733342140000004937412142151513506_">
					<use xlink:href="#SVGID_00000066504301761358161790000008198507856901977479_"  style="overflow:visible;"/>
				</clipPath>
				<g style="clip-path:url(#SVGID_00000134216141136733342140000004937412142151513506_);">
					<g>
						<polygon class="st4" points="352.8,140.3 365.3,127 377.1,138 366.6,149.2 352.8,149.2 						"/>
						
							<rect x="371.1" y="124.2" transform="matrix(0.6823 -0.7311 0.7311 0.6823 21.2716 313.4952)" class="st4" width="0.4" height="16.2"/>
						
							<rect x="371.4" y="124" transform="matrix(0.6823 -0.7311 0.7311 0.6823 21.5177 313.6318)" class="st5" width="0.4" height="16.2"/>
						
							<rect x="371.8" y="123.6" transform="matrix(0.6823 -0.7311 0.7311 0.6823 21.8814 313.8082)" class="st6" width="0.4" height="16.2"/>
						
							<rect x="372.1" y="123.3" transform="matrix(0.6823 -0.7311 0.7311 0.6823 22.1956 313.9188)" class="st7" width="0.4" height="16.2"/>
						
							<rect x="372.3" y="123" transform="matrix(0.6823 -0.7311 0.7311 0.6823 22.5332 314.0212)" class="st8" width="0.4" height="16.2"/>
						
							<rect x="372.5" y="122.6" transform="matrix(0.6823 -0.7311 0.7311 0.6823 22.89 314.0494)" class="st9" width="0.4" height="16.2"/>
						
							<rect x="372.9" y="122.3" transform="matrix(0.6823 -0.7311 0.7311 0.6823 23.2509 314.2274)" class="st10" width="0.4" height="16.2"/>
						
							<rect x="373.2" y="122" transform="matrix(0.6823 -0.7311 0.7311 0.6823 23.5072 314.3592)" class="st11" width="0.4" height="16.2"/>
						
							<rect x="373.5" y="121.7" transform="matrix(0.6823 -0.7311 0.7311 0.6823 23.8348 314.4723)" class="st12" width="0.4" height="16.2"/>
						
							<rect x="373.8" y="121.4" transform="matrix(0.6823 -0.7311 0.7311 0.6823 24.1515 314.5695)" class="st13" width="0.4" height="16.2"/>
						
							<rect x="374.1" y="121" transform="matrix(0.6823 -0.7311 0.7311 0.6823 24.5286 314.6719)" class="st14" width="0.4" height="16.2"/>
						
							<rect x="374.4" y="120.7" transform="matrix(0.6823 -0.7311 0.7311 0.6823 24.8694 314.7816)" class="st15" width="0.4" height="16.2"/>
						
							<rect x="374.7" y="120.4" transform="matrix(0.6823 -0.7311 0.7311 0.6823 25.197 314.8947)" class="st16" width="0.4" height="16.2"/>
						
							<rect x="375" y="120.2" transform="matrix(0.6823 -0.7311 0.7311 0.6823 25.4733 315.0948)" class="st17" width="0.4" height="16.2"/>
						
							<rect x="375.3" y="119.8" transform="matrix(0.6823 -0.7311 0.7311 0.6823 25.8066 315.2019)" class="st18" width="0.4" height="16.2"/>
						
							<rect x="375.6" y="119.5" transform="matrix(0.6823 -0.7311 0.7311 0.6823 26.1444 315.3101)" class="st19" width="0.4" height="16.2"/>
						
							<rect x="375.8" y="119.1" transform="matrix(0.6823 -0.7311 0.7311 0.6823 26.4852 315.3433)" class="st20" width="0.4" height="16.2"/>
						
							<rect x="376.2" y="118.8" transform="matrix(0.6823 -0.7311 0.7311 0.6823 26.8489 315.5197)" class="st21" width="0.4" height="16.2"/>
						
							<rect x="376.5" y="118.5" transform="matrix(0.6823 -0.7311 0.7311 0.6823 27.1658 315.6228)" class="st22" width="0.4" height="16.2"/>
						
							<rect x="376.8" y="118.1" transform="matrix(0.6823 -0.7311 0.7311 0.6823 27.5007 315.7327)" class="st23" width="0.4" height="16.2"/>
						
							<rect x="377.1" y="117.9" transform="matrix(0.6823 -0.7311 0.7311 0.6823 27.7526 315.8691)" class="st24" width="0.4" height="16.2"/>
						
							<rect x="377.4" y="117.5" transform="matrix(0.6823 -0.7311 0.7311 0.6823 28.1371 315.9683)" class="st25" width="0.4" height="16.2"/>
						
							<rect x="377.7" y="117.2" transform="matrix(0.6823 -0.7311 0.7311 0.6823 28.4674 316.0739)" class="st26" width="0.4" height="16.2"/>
						
							<rect x="378" y="116.9" transform="matrix(0.6823 -0.7311 0.7311 0.6823 28.7889 316.1813)" class="st27" width="0.4" height="16.2"/>
						
							<rect x="378.2" y="116.5" transform="matrix(0.6823 -0.7311 0.7311 0.6823 29.1265 316.2837)" class="st28" width="0.4" height="16.2"/>
						
							<rect x="378.6" y="116.3" transform="matrix(0.6823 -0.7311 0.7311 0.6823 29.4087 316.4441)" class="st29" width="0.4" height="16.2"/>
						
							<rect x="378.8" y="116.1" transform="matrix(0.6823 -0.7311 0.7311 0.6823 29.665 316.5758)" class="st30" width="0.4" height="16.2"/>
						
							<rect x="379.1" y="115.7" transform="matrix(0.6823 -0.7311 0.7311 0.6823 30.0058 316.609)" class="st31" width="0.4" height="16.2"/>
						
							<rect x="379.4" y="115.3" transform="matrix(0.6823 -0.7311 0.7311 0.6823 30.3827 316.782)" class="st32" width="0.4" height="16.2"/>
						
							<rect x="379.7" y="115" transform="matrix(0.6823 -0.7311 0.7311 0.6823 30.6937 316.8853)" class="st33" width="0.4" height="16.2"/>
						
							<rect x="380" y="114.7" transform="matrix(0.6823 -0.7311 0.7311 0.6823 31.024 316.9909)" class="st34" width="0.4" height="16.2"/>
						
							<rect x="380.3" y="114.4" transform="matrix(0.6823 -0.7311 0.7311 0.6823 31.3572 317.098)" class="st35" width="0.4" height="16.2"/>
						
							<rect x="380.6" y="114.1" transform="matrix(0.6823 -0.7311 0.7311 0.6823 31.6684 317.244)" class="st36" width="0.4" height="16.2"/>
						
							<rect x="380.9" y="113.8" transform="matrix(0.6823 -0.7311 0.7311 0.6823 32.006 317.3464)" class="st37" width="0.4" height="16.2"/>
						
							<rect x="381.2" y="113.5" transform="matrix(0.6823 -0.7311 0.7311 0.6823 32.3231 317.4553)" class="st38" width="0.4" height="16.2"/>
						
							<rect x="381.5" y="113.1" transform="matrix(0.6823 -0.7311 0.7311 0.6823 32.6429 317.5599)" class="st39" width="0.4" height="16.2"/>
						
							<rect x="381.8" y="112.8" transform="matrix(0.6823 -0.7311 0.7311 0.6823 33.014 317.7332)" class="st40" width="0.4" height="16.2"/>
						
							<rect x="382.1" y="112.5" transform="matrix(0.6823 -0.7311 0.7311 0.6823 33.3341 317.8436)" class="st41" width="0.4" height="16.2"/>
						
							<rect x="382.4" y="112.1" transform="matrix(0.6823 -0.7311 0.7311 0.6823 33.6926 317.8746)" class="st42" width="0.4" height="16.2"/>
						
							<rect x="382.7" y="111.9" transform="matrix(0.6823 -0.7311 0.7311 0.6823 33.9722 318.082)" class="st43" width="0.4" height="16.2"/>
						
							<rect x="383" y="111.5" transform="matrix(0.6823 -0.7311 0.7311 0.6823 34.2949 318.1849)" class="st44" width="0.4" height="16.2"/>
						
							<rect x="383.3" y="111.2" transform="matrix(0.6823 -0.7311 0.7311 0.6823 34.6325 318.2873)" class="st45" width="0.4" height="16.2"/>
						
							<rect x="383.6" y="110.9" transform="matrix(0.6823 -0.7311 0.7311 0.6823 34.9494 318.3904)" class="st46" width="0.4" height="16.2"/>
						
							<rect x="384" y="110.6" transform="matrix(0.6823 -0.7311 0.7311 0.6823 35.3178 318.5712)" class="st47" width="0.4" height="16.2"/>
						
							<rect x="384.2" y="110.2" transform="matrix(0.6823 -0.7311 0.7311 0.6823 35.6646 318.61)" class="st48" width="0.4" height="16.2"/>
						
							<rect x="384.5" y="110" transform="matrix(0.6823 -0.7311 0.7311 0.6823 35.9209 318.7418)" class="st49" width="0.4" height="16.2"/>
						
							<rect x="384.8" y="109.6" transform="matrix(0.6823 -0.7311 0.7311 0.6823 36.2483 318.849)" class="st50" width="0.4" height="16.2"/>
						
							<rect x="385.1" y="109.3" transform="matrix(0.6823 -0.7311 0.7311 0.6823 36.612 319.0254)" class="st51" width="0.4" height="16.2"/>
						
							<rect x="385.4" y="109" transform="matrix(0.6823 -0.7311 0.7311 0.6823 36.9321 319.1358)" class="st52" width="0.4" height="16.2"/>
						
							<rect x="385.6" y="108.6" transform="matrix(0.6823 -0.7311 0.7311 0.6823 37.2906 319.1669)" class="st53" width="0.4" height="16.2"/>
						
							<rect x="385.9" y="108.3" transform="matrix(0.6823 -0.7311 0.7311 0.6823 37.6073 319.2641)" class="st54" width="0.4" height="16.2"/>
						
							<rect x="386.3" y="108" transform="matrix(0.6823 -0.7311 0.7311 0.6823 37.9109 319.484)" class="st55" width="0.4" height="16.2"/>
						
							<rect x="386.6" y="107.7" transform="matrix(0.6823 -0.7311 0.7311 0.6823 38.2278 319.5871)" class="st56" width="0.4" height="16.2"/>
						
							<rect x="386.9" y="107.4" transform="matrix(0.6823 -0.7311 0.7311 0.6823 38.5552 319.6943)" class="st57" width="0.4" height="16.2"/>
						
							<rect x="387.3" y="107.1" transform="matrix(0.6823 -0.7311 0.7311 0.6823 38.9114 319.868)" class="st58" width="0.4" height="16.2"/>
						
							<rect x="387.5" y="106.7" transform="matrix(0.6823 -0.7311 0.7311 0.6823 39.2699 319.8991)" class="st59" width="0.4" height="16.2"/>
						
							<rect x="387.8" y="106.4" transform="matrix(0.6823 -0.7311 0.7311 0.6823 39.6002 320.0047)" class="st60" width="0.4" height="16.2"/>
						
							<rect x="388" y="106.2" transform="matrix(0.6823 -0.7311 0.7311 0.6823 39.772 320.122)" class="st61" width="0.4" height="16.2"/>
						
							<rect x="388.4" y="105.9" transform="matrix(0.6823 -0.7311 0.7311 0.6823 40.1431 320.2952)" class="st62" width="0.4" height="16.2"/>
						
							<rect x="388.6" y="105.6" transform="matrix(0.6823 -0.7311 0.7311 0.6823 40.4675 320.401)" class="st63" width="0.4" height="16.2"/>
						
							<rect x="388.8" y="105.2" transform="matrix(0.6823 -0.7311 0.7311 0.6823 40.8168 320.4265)" class="st64" width="0.4" height="16.2"/>
						
							<rect x="389.1" y="104.9" transform="matrix(0.6823 -0.7311 0.7311 0.6823 41.1386 320.5398)" class="st65" width="0.4" height="16.2"/>
						
							<rect x="389.5" y="104.5" transform="matrix(0.6823 -0.7311 0.7311 0.6823 41.5082 320.716)" class="st66" width="0.4" height="16.2"/>
						
							<rect x="389.8" y="104.2" transform="matrix(0.6823 -0.7311 0.7311 0.6823 41.8297 320.8234)" class="st67" width="0.4" height="16.2"/>
						
							<rect x="390.1" y="104" transform="matrix(0.6823 -0.7311 0.7311 0.6823 42.0758 320.96)" class="st68" width="0.4" height="16.2"/>
						
							<rect x="390.4" y="103.6" transform="matrix(0.6823 -0.7311 0.7311 0.6823 42.4136 321.0683)" class="st69" width="0.4" height="16.2"/>
						
							<rect x="390.7" y="103.3" transform="matrix(0.6823 -0.7311 0.7311 0.6823 42.7937 321.1721)" class="st70" width="0.4" height="16.2"/>
						
							<rect x="391" y="102.9" transform="matrix(0.6823 -0.7311 0.7311 0.6823 43.1313 321.2745)" class="st71" width="0.4" height="16.2"/>
						
							<rect x="391.3" y="102.6" transform="matrix(0.6823 -0.7311 0.7311 0.6823 43.4615 321.3801)" class="st72" width="0.4" height="16.2"/>
						
							<rect x="391.7" y="102.3" transform="matrix(0.6823 -0.7311 0.7311 0.6823 43.8092 321.5615)" class="st73" width="0.4" height="16.2"/>
						
							<rect x="391.9" y="102.1" transform="matrix(0.6823 -0.7311 0.7311 0.6823 44.0687 321.7006)" class="st74" width="0.4" height="16.2"/>
						
							<rect x="392.1" y="101.7" transform="matrix(0.6823 -0.7311 0.7311 0.6823 44.4195 321.7231)" class="st75" width="0.4" height="16.2"/>
						
							<rect x="392.4" y="101.3" transform="matrix(0.6823 -0.7311 0.7311 0.6823 44.7497 321.8287)" class="st76" width="0.4" height="16.2"/>
						
							<rect x="392.8" y="101" transform="matrix(0.6823 -0.7311 0.7311 0.6823 45.1001 322.0026)" class="st77" width="0.4" height="16.2"/>
						
							<rect x="393.1" y="100.7" transform="matrix(0.6823 -0.7311 0.7311 0.6823 45.435 322.1125)" class="st78" width="0.4" height="16.2"/>
						
							<rect x="393.4" y="100.4" transform="matrix(0.6823 -0.7311 0.7311 0.6823 45.7578 322.2154)" class="st79" width="0.4" height="16.2"/>
						
							<rect x="393.7" y="100.1" transform="matrix(0.6823 -0.7311 0.7311 0.6823 46.0112 322.3488)" class="st80" width="0.4" height="16.2"/>
						<polygon class="st81" points="388.1,102.5 388.4,102.1 400.1,113 400.1,113.4 400,113.5 						"/>
						<polygon class="st82" points="388.4,102.1 388.7,101.8 400.1,112.4 400.1,113 						"/>
						<polygon class="st83" points="388.7,101.8 389,101.5 400.1,111.8 400.1,112.4 						"/>
						<polygon class="st84" points="389,101.5 389.3,101.2 400.1,111.2 400.1,111.8 						"/>
						<polygon class="st85" points="389.3,101.2 389.6,100.9 389.7,100.9 400.1,110.6 400.1,111.2 						"/>
						<polygon class="st86" points="390.3,100.9 400.1,110 400.1,110.6 389.7,100.9 						"/>
						<polygon class="st87" points="390.9,100.9 400.1,109.4 400.1,110 390.3,100.9 						"/>
						<polygon class="st88" points="391.6,100.9 400.1,108.8 400.1,109.4 390.9,100.9 						"/>
						<polygon class="st89" points="392.2,100.9 400.1,108.2 400.1,108.8 391.6,100.9 						"/>
						<polygon class="st90" points="392.9,100.9 400.1,107.6 400.1,108.2 392.2,100.9 						"/>
						<polygon class="st91" points="393.5,100.9 400.1,107 400.1,107.6 392.9,100.9 						"/>
						<polygon class="st91" points="400.1,107 393.5,100.9 400.1,100.9 						"/>
					</g>
				</g>
			</g>
		</g>
		<g id="polygon27">
			<path class="st91" d="M594.2,165.2l9.2-4.9l-2.7,23.4L594.2,165.2L594.2,165.2L594.2,165.2z"/>
		</g>
		<g id="polygon29">
			<path class="st91" d="M536.1,180.1l8.4,1.8l10.5-5.1l-9.2-3.5L536.1,180.1z"/>
		</g>
		<g id="polygon36">
			<g>
				<defs>
					<polygon id="SVGID_00000099663114005703162630000008869957823748736665_" points="250.4,155.6 251.6,182.4 263.3,177.9 
						259.8,150.5 250.3,155.6 					"/>
				</defs>
				<clipPath id="SVGID_00000106120421360368461030000005786539553814542993_">
					<use xlink:href="#SVGID_00000099663114005703162630000008869957823748736665_"  style="overflow:visible;"/>
				</clipPath>
				<g style="clip-path:url(#SVGID_00000106120421360368461030000005786539553814542993_);">
					<g>
						<polygon class="st4" points="250.4,179.9 263.3,178.4 263.3,182.4 250.4,182.4 						"/>
						<polygon class="st4" points="250.4,179.6 263.3,178.1 263.3,178.4 250.4,179.9 						"/>
						<polygon class="st5" points="250.4,179.4 263.3,177.9 263.3,178.1 250.4,179.6 						"/>
						<polygon class="st6" points="250.4,179.1 263.3,177.6 263.3,177.9 250.4,179.4 						"/>
						<polygon class="st7" points="250.4,178.8 263.3,177.3 263.3,177.6 250.4,179.1 						"/>
						<polygon class="st8" points="250.4,178.4 263.3,176.9 263.3,177.3 250.4,178.8 						"/>
						<polygon class="st9" points="250.4,178.1 263.3,176.6 263.3,176.9 250.4,178.4 						"/>
						<polygon class="st10" points="250.4,177.9 263.3,176.4 263.3,176.6 250.4,178.1 						"/>
						<polygon class="st11" points="250.4,177.6 263.3,176.1 263.3,176.4 250.4,177.9 						"/>
						<polygon class="st12" points="250.4,177.3 263.3,175.8 263.3,176.1 250.4,177.6 						"/>
						<polygon class="st13" points="250.4,176.9 263.3,175.5 263.3,175.8 250.4,177.3 						"/>
						<polygon class="st14" points="250.4,176.6 263.3,175.1 263.3,175.5 250.4,176.9 						"/>
						<polygon class="st15" points="250.4,176.4 263.3,174.9 263.3,175.1 250.4,176.6 						"/>
						<polygon class="st16" points="250.4,176.1 263.3,174.6 263.3,174.9 250.4,176.4 						"/>
						<polygon class="st17" points="250.4,175.8 263.3,174.2 263.3,174.6 250.4,176.1 						"/>
						<polygon class="st18" points="250.4,175.5 263.3,173.9 263.3,174.2 250.4,175.8 						"/>
						<polygon class="st19" points="250.4,175.1 263.3,173.6 263.3,173.9 250.4,175.5 						"/>
						<polygon class="st20" points="250.4,174.9 263.3,173.3 263.3,173.6 250.4,175.1 						"/>
						<polygon class="st21" points="250.4,174.6 263.3,173 263.3,173.3 250.4,174.9 						"/>
						<polygon class="st22" points="250.4,174.3 263.3,172.7 263.3,173 250.4,174.6 						"/>
						<polygon class="st23" points="250.4,174 263.3,172.4 263.3,172.7 250.4,174.3 						"/>
						<polygon class="st24" points="250.4,173.6 263.3,172.1 263.3,172.4 250.4,174 						"/>
						<polygon class="st25" points="250.4,173.4 263.3,171.8 263.3,172.1 250.4,173.6 						"/>
						<polygon class="st26" points="250.4,173.1 263.3,171.5 263.3,171.8 250.4,173.4 						"/>
						<polygon class="st27" points="250.4,172.8 263.3,171.2 263.3,171.5 250.4,173.1 						"/>
						<polygon class="st28" points="250.4,172.5 263.3,170.9 263.3,171.2 250.4,172.8 						"/>
						<polygon class="st29" points="250.4,172.2 263.3,170.6 263.3,170.9 250.4,172.5 						"/>
						<polygon class="st30" points="250.4,171.9 263.3,170.3 263.3,170.6 250.4,172.2 						"/>
						<polygon class="st31" points="250.4,171.6 263.3,170 263.3,170.3 250.4,171.9 						"/>
						<polygon class="st32" points="250.4,171.3 263.3,169.7 263.3,170 250.4,171.6 						"/>
						<polygon class="st33" points="250.4,171 263.3,169.4 263.3,169.7 250.4,171.3 						"/>
						<polygon class="st34" points="250.4,170.7 263.3,169.1 263.3,169.4 250.4,171 						"/>
						<polygon class="st35" points="250.4,170.4 263.3,168.8 263.3,169.1 250.4,170.7 						"/>
						<polygon class="st36" points="250.4,170.1 263.3,168.5 263.3,168.8 250.4,170.4 						"/>
						<polygon class="st37" points="250.4,169.8 263.3,168.2 263.3,168.5 250.4,170.1 						"/>
						<polygon class="st38" points="250.4,169.5 263.3,167.9 263.3,168.2 250.4,169.8 						"/>
						<polygon class="st39" points="250.4,169.2 263.3,167.6 263.3,167.9 250.4,169.5 						"/>
						<polygon class="st40" points="250.4,168.9 263.3,167.3 263.3,167.6 250.4,169.2 						"/>
						<polygon class="st41" points="250.4,168.6 263.3,167 263.3,167.3 250.4,168.9 						"/>
						<polygon class="st42" points="250.4,168.2 263.3,166.7 263.3,167 250.4,168.6 						"/>
						<polygon class="st43" points="250.4,167.9 263.3,166.4 263.3,166.7 250.4,168.2 						"/>
						<polygon class="st44" points="250.4,167.6 263.3,166.1 263.3,166.4 250.4,167.9 						"/>
						<polygon class="st45" points="250.4,167.3 263.3,165.8 263.3,166.1 250.4,167.6 						"/>
						<polygon class="st46" points="250.4,167 263.3,165.5 263.3,165.8 250.4,167.3 						"/>
						<polygon class="st47" points="250.4,166.7 263.3,165.2 263.3,165.5 250.4,167 						"/>
						<polygon class="st48" points="250.4,166.4 263.3,164.9 263.3,165.2 250.4,166.7 						"/>
						<polygon class="st49" points="250.4,166.1 263.3,164.6 263.3,164.9 250.4,166.4 						"/>
						<polygon class="st50" points="250.4,165.8 263.3,164.3 263.3,164.6 250.4,166.1 						"/>
						<polygon class="st51" points="250.4,165.5 263.3,164 263.3,164.3 250.4,165.8 						"/>
						<polygon class="st52" points="250.4,165.2 263.3,163.7 263.3,164 250.4,165.5 						"/>
						<polygon class="st53" points="250.4,164.9 263.3,163.4 263.3,163.7 250.4,165.2 						"/>
						<polygon class="st54" points="250.4,164.6 263.3,163.1 263.3,163.4 250.4,164.9 						"/>
						<polygon class="st55" points="250.4,164.3 263.3,162.8 263.3,163.1 250.4,164.6 						"/>
						<polygon class="st56" points="250.4,164 263.3,162.5 263.3,162.8 250.4,164.3 						"/>
						<polygon class="st57" points="250.4,163.7 263.3,162.2 263.3,162.5 250.4,164 						"/>
						<polygon class="st58" points="250.4,163.4 263.3,161.9 263.3,162.2 250.4,163.7 						"/>
						<polygon class="st59" points="250.4,163.1 263.3,161.6 263.3,161.9 250.4,163.4 						"/>
						<polygon class="st60" points="250.4,162.8 263.3,161.3 263.3,161.6 250.4,163.1 						"/>
						<polygon class="st61" points="250.4,162.5 263.3,161 263.3,161.3 250.4,162.8 						"/>
						<polygon class="st62" points="250.4,162.2 263.3,160.7 263.3,161 250.4,162.5 						"/>
						<polygon class="st63" points="250.4,161.9 263.3,160.4 263.3,160.7 250.4,162.2 						"/>
						<polygon class="st64" points="250.4,161.6 263.3,160.1 263.3,160.4 250.4,161.9 						"/>
						<polygon class="st65" points="250.4,161.3 263.3,159.8 263.3,160.1 250.4,161.6 						"/>
						<polygon class="st66" points="250.4,161 263.3,159.5 263.3,159.8 250.4,161.3 						"/>
						<polygon class="st67" points="250.4,160.7 263.3,159.2 263.3,159.5 250.4,161 						"/>
						<polygon class="st68" points="250.4,160.4 263.3,158.9 263.3,159.2 250.4,160.7 						"/>
						<polygon class="st69" points="250.4,160.1 263.3,158.6 263.3,158.9 250.4,160.4 						"/>
						<polygon class="st70" points="250.4,159.8 263.3,158.3 263.3,158.6 250.4,160.1 						"/>
						<polygon class="st71" points="250.4,159.5 263.3,158 263.3,158.3 250.4,159.8 						"/>
						<polygon class="st72" points="250.4,159.2 263.3,157.7 263.3,158 250.4,159.5 						"/>
						<polygon class="st73" points="250.4,158.9 263.3,157.4 263.3,157.7 250.4,159.2 						"/>
						<polygon class="st74" points="250.4,158.6 263.3,157.1 263.3,157.4 250.4,158.9 						"/>
						<polygon class="st75" points="250.4,158.3 263.3,156.8 263.3,157.1 250.4,158.6 						"/>
						<polygon class="st76" points="250.4,158 263.3,156.5 263.3,156.8 250.4,158.3 						"/>
						<polygon class="st77" points="250.4,157.7 263.3,156.2 263.3,156.5 250.4,158 						"/>
						<polygon class="st78" points="250.4,157.4 263.3,155.9 263.3,156.2 250.4,157.7 						"/>
						<polygon class="st79" points="250.4,157.1 263.3,155.5 263.3,155.9 250.4,157.4 						"/>
						<polygon class="st80" points="250.4,156.8 263.3,155.2 263.3,155.5 250.4,157.1 						"/>
						<polygon class="st81" points="250.4,156.5 263.3,154.9 263.3,155.2 250.4,156.8 						"/>
						<polygon class="st82" points="250.4,156.2 263.3,154.6 263.3,154.9 250.4,156.5 						"/>
						<polygon class="st83" points="250.4,155.9 263.3,154.3 263.3,154.6 250.4,156.2 						"/>
						<polygon class="st84" points="250.4,155.6 263.3,154 263.3,154.3 250.4,155.9 						"/>
						<polygon class="st85" points="250.4,155.3 263.3,153.7 263.3,154 250.4,155.6 						"/>
						<polygon class="st86" points="250.4,155 263.3,153.4 263.3,153.7 250.4,155.3 						"/>
						<polygon class="st87" points="250.4,154.7 263.3,153.1 263.3,153.4 250.4,155 						"/>
						<polygon class="st88" points="250.4,154.4 263.3,152.8 263.3,153.1 250.4,154.7 						"/>
						<polygon class="st89" points="250.4,154.1 263.3,152.5 263.3,152.8 250.4,154.4 						"/>
						<polygon class="st90" points="250.4,153.8 263.3,152.2 263.3,152.5 250.4,154.1 						"/>
						<polygon class="st91" points="250.4,153.5 263.3,151.9 263.3,152.2 250.4,153.8 						"/>
						<polygon class="st91" points="263.3,151.9 250.4,153.5 250.4,150.4 263.3,150.4 						"/>
					</g>
				</g>
			</g>
		</g>
		<g id="polygon43">
			<g>
				<defs>
					<polygon id="SVGID_00000042698017957266977370000013534310689689608874_" points="545.1,147.3 535.9,152.4 536.1,180.1 
						545.6,175.4 548.5,161.8 545.2,147.2 					"/>
				</defs>
				<clipPath id="SVGID_00000060720680354129829930000000965808681379116964_">
					<use xlink:href="#SVGID_00000042698017957266977370000013534310689689608874_"  style="overflow:visible;"/>
				</clipPath>
				<g style="clip-path:url(#SVGID_00000060720680354129829930000000965808681379116964_);">
					<g>
						<polygon class="st96" points="535.9,174.5 548.4,173.8 548.4,180.1 535.9,180.1 						"/>
						<polygon class="st96" points="535.9,174.1 548.4,173.5 548.4,173.8 535.9,174.5 						"/>
						<polygon class="st97" points="535.9,173.6 548.4,173.1 548.4,173.5 535.9,174.1 						"/>
						<polygon class="st98" points="535.9,173.4 548.4,172.7 548.4,173.1 535.9,173.6 						"/>
						<polygon class="st99" points="535.9,173 548.4,172.3 548.4,172.7 535.9,173.4 						"/>
						<polygon class="st100" points="535.9,172.6 548.4,172 548.4,172.3 535.9,173 						"/>
						<polygon class="st101" points="535.9,172.3 548.4,171.6 548.4,172 535.9,172.6 						"/>
						<polygon class="st102" points="535.9,171.9 548.4,171.2 548.4,171.6 535.9,172.3 						"/>
						<polygon class="st103" points="535.9,171.5 548.4,170.9 548.4,171.2 535.9,171.9 						"/>
						<polygon class="st104" points="535.9,171.2 548.4,170.5 548.4,170.9 535.9,171.5 						"/>
						<polygon class="st105" points="535.9,170.8 548.4,170.1 548.4,170.5 535.9,171.2 						"/>
						<polygon class="st106" points="535.9,170.4 548.4,169.8 548.4,170.1 535.9,170.8 						"/>
						<polygon class="st107" points="535.9,170 548.4,169.4 548.4,169.8 535.9,170.4 						"/>
						<polygon class="st108" points="535.9,169.7 548.4,169 548.4,169.4 535.9,170 						"/>
						<polygon class="st109" points="535.9,169.3 548.4,168.6 548.4,169 535.9,169.7 						"/>
						<polygon class="st110" points="535.9,168.9 548.4,168.3 548.4,168.6 535.9,169.3 						"/>
						<polygon class="st111" points="535.9,168.6 548.4,167.9 548.4,168.3 535.9,168.9 						"/>
						<polygon class="st112" points="535.9,168.2 548.4,167.5 548.4,167.9 535.9,168.6 						"/>
						<polygon class="st113" points="535.9,167.8 548.4,167.2 548.4,167.5 535.9,168.2 						"/>
						<polygon class="st114" points="535.9,167.5 548.4,166.8 548.4,167.2 535.9,167.8 						"/>
						<polygon class="st115" points="535.9,167.1 548.4,166.4 548.4,166.8 535.9,167.5 						"/>
						<polygon class="st116" points="535.9,166.7 548.4,166.1 548.4,166.4 535.9,167.1 						"/>
						<polygon class="st117" points="535.9,166.3 548.4,165.7 548.4,166.1 535.9,166.7 						"/>
						<polygon class="st118" points="535.9,166 548.4,165.3 548.4,165.7 535.9,166.3 						"/>
						<polygon class="st119" points="535.9,165.6 548.4,164.9 548.4,165.3 535.9,166 						"/>
						<polygon class="st120" points="535.9,165.2 548.4,164.6 548.4,164.9 535.9,165.6 						"/>
						<polygon class="st121" points="535.9,164.9 548.4,164.2 548.4,164.6 535.9,165.2 						"/>
						<polygon class="st122" points="535.9,164.5 548.4,163.8 548.4,164.2 535.9,164.9 						"/>
						<polygon class="st123" points="535.9,164.1 548.4,163.5 548.4,163.8 535.9,164.5 						"/>
						<polygon class="st124" points="535.9,163.8 548.4,163.1 548.4,163.5 535.9,164.1 						"/>
						<polygon class="st125" points="535.9,163.4 548.4,162.7 548.4,163.1 535.9,163.8 						"/>
						<polygon class="st126" points="535.9,163 548.4,162.4 548.4,162.7 535.9,163.4 						"/>
						<polygon class="st127" points="535.9,162.6 548.4,162 548.4,162.4 535.9,163 						"/>
						<polygon class="st128" points="535.9,162.3 548.4,161.6 548.4,162 535.9,162.6 						"/>
						<polygon class="st129" points="535.9,161.9 548.4,161.2 548.4,161.6 535.9,162.3 						"/>
						<polygon class="st130" points="535.9,161.5 548.4,160.9 548.4,161.2 535.9,161.9 						"/>
						<polygon class="st131" points="535.9,161.2 548.4,160.5 548.4,160.9 535.9,161.5 						"/>
						<polygon class="st132" points="535.9,160.8 548.4,160.1 548.4,160.5 535.9,161.2 						"/>
						<polygon class="st133" points="535.9,160.4 548.4,159.8 548.4,160.1 535.9,160.8 						"/>
						<polygon class="st134" points="535.9,160.1 548.4,159.4 548.4,159.8 535.9,160.4 						"/>
						<polygon class="st135" points="535.9,159.7 548.4,159 548.4,159.4 535.9,160.1 						"/>
						<polygon class="st136" points="535.9,159.3 548.4,158.7 548.4,159 535.9,159.7 						"/>
						<polygon class="st137" points="535.9,158.9 548.4,158.3 548.4,158.7 535.9,159.3 						"/>
						<polygon class="st138" points="535.9,158.6 548.4,157.9 548.4,158.3 535.9,158.9 						"/>
						<polygon class="st139" points="535.9,158.2 548.4,157.5 548.4,157.9 535.9,158.6 						"/>
						<polygon class="st140" points="535.9,157.8 548.4,157.2 548.4,157.5 535.9,158.2 						"/>
						<polygon class="st141" points="535.9,157.5 548.4,156.8 548.4,157.2 535.9,157.8 						"/>
						<polygon class="st142" points="535.9,157.1 548.4,156.4 548.4,156.8 535.9,157.5 						"/>
						<polygon class="st143" points="535.9,156.7 548.4,156.1 548.4,156.4 535.9,157.1 						"/>
						<polygon class="st144" points="535.9,156.4 548.4,155.7 548.4,156.1 535.9,156.7 						"/>
						<polygon class="st145" points="535.9,156 548.4,155.3 548.4,155.7 535.9,156.4 						"/>
						<polygon class="st146" points="535.9,155.6 548.4,155 548.4,155.3 535.9,156 						"/>
						<polygon class="st147" points="535.9,155.2 548.4,154.6 548.4,155 535.9,155.6 						"/>
						<polygon class="st148" points="535.9,154.9 548.4,154.2 548.4,154.6 535.9,155.2 						"/>
						<polygon class="st149" points="535.9,154.5 548.4,153.8 548.4,154.2 535.9,154.9 						"/>
						<polygon class="st150" points="535.9,154.1 548.4,153.5 548.4,153.8 535.9,154.5 						"/>
						<polygon class="st151" points="535.9,153.8 548.4,153.1 548.4,153.5 535.9,154.1 						"/>
						<polygon class="st152" points="535.9,153.4 548.4,152.7 548.4,153.1 535.9,153.8 						"/>
						<polygon class="st153" points="535.9,153 548.4,152.4 548.4,152.7 535.9,153.4 						"/>
						<polygon class="st154" points="535.9,152.6 548.4,152 548.4,152.4 535.9,153 						"/>
						<polygon class="st87" points="535.9,152.3 548.4,151.6 548.4,152 535.9,152.6 						"/>
						<polygon class="st88" points="535.9,151.9 548.4,151.2 548.4,151.6 535.9,152.3 						"/>
						<polygon class="st155" points="535.9,151.5 548.4,150.9 548.4,151.2 535.9,151.9 						"/>
						<polygon class="st90" points="535.9,151.2 548.4,150.5 548.4,150.9 535.9,151.5 						"/>
						<polygon class="st91" points="535.9,150.8 548.4,150.1 548.4,150.5 535.9,151.2 						"/>
						<polygon class="st91" points="548.4,150.1 535.9,150.8 535.9,147.3 548.4,147.3 						"/>
					</g>
				</g>
			</g>
		</g>
		<g id="polygon45">
			<path class="st156" d="M543.9,182.1l-10.3,91.1l16.4-3.3l3.1-92.8l-9.2,4.9L543.9,182.1L543.9,182.1L543.9,182.1z"/>
		</g>
		<g id="polygon47">
			<path class="st157" d="M563.8,277.5l0.4,12.3l31.4,10.1l9.5-4.9l-31-24l-31.2-2.7l-9.2,4.9l30.2,4.3L563.8,277.5L563.8,277.5z"/>
		</g>
		<g id="polygon49">
			<path class="st157" d="M447.2,255.7l7.6-4.1l5.1,9l7.2-3.9l1.4,11.9l45.8,8.2l9-5.1l-63-38.4l-44.8,7.6l-8.6,8.4l40.3,6.4
				L447.2,255.7L447.2,255.7z"/>
		</g>
		<g id="polygon56">
			<g>
				<defs>
					<polygon id="SVGID_00000155130221883014920170000000297080817389422229_" points="432.6,143.6 423.4,148.7 407.1,249.3 
						416.2,244.4 432,187.9 					"/>
				</defs>
				<clipPath id="SVGID_00000092428941691276519830000007155669903052815771_">
					<use xlink:href="#SVGID_00000155130221883014920170000000297080817389422229_"  style="overflow:visible;"/>
				</clipPath>
				<g style="clip-path:url(#SVGID_00000092428941691276519830000007155669903052815771_);">
					<g>
						<polygon class="st114" points="432.6,143.9 432.3,143.6 432.6,143.6 						"/>
						<polygon class="st115" points="432.6,144.8 430.7,143.6 432.3,143.6 432.6,143.9 						"/>
						<polygon class="st116" points="432.6,145.8 429.2,143.6 430.7,143.6 432.6,144.8 						"/>
						<polygon class="st117" points="432.6,146.7 427.7,143.6 429.2,143.6 432.6,145.8 						"/>
						<polygon class="st118" points="432.6,147.7 426.2,143.6 427.7,143.6 432.6,146.7 						"/>
						<polygon class="st119" points="432.6,148.6 424.7,143.6 426.2,143.6 432.6,147.7 						"/>
						<polygon class="st120" points="432.6,149.6 423.2,143.6 424.7,143.6 432.6,148.6 						"/>
						<polygon class="st121" points="432.6,150.5 421.7,143.7 421.9,143.6 423.2,143.6 432.6,149.6 						"/>
						<polygon class="st122" points="432.6,151.5 421.3,144.4 421.7,143.7 432.6,150.5 						"/>
						<polygon class="st123" points="432.6,152.4 421,145 421.3,144.4 432.6,151.5 						"/>
						<polygon class="st124" points="432.6,153.4 420.4,145.7 421,145 432.6,152.4 						"/>
						<polygon class="st125" points="432.6,154.3 420,146.4 420.4,145.7 432.6,153.4 						"/>
						<polygon class="st126" points="432.6,155.3 419.6,147.1 420,146.4 432.6,154.3 						"/>
						<polygon class="st127" points="432.6,156.2 419.2,147.8 419.6,147.1 432.6,155.3 						"/>
						<polygon class="st128" points="432.6,157.2 418.8,148.4 419.2,147.8 432.6,156.2 						"/>
						<polygon class="st129" points="432.6,158.1 418.4,149.1 418.8,148.4 432.6,157.2 						"/>
						<polygon class="st130" points="432.6,159.1 418,149.8 418.4,149.1 432.6,158.1 						"/>
						<polygon class="st131" points="432.6,160 417.5,150.5 418,149.8 432.6,159.1 						"/>
						<polygon class="st132" points="432.6,161 417,151.2 417.5,150.5 432.6,160 						"/>
						<polygon class="st133" points="432.6,161.9 416.6,151.9 417,151.2 432.6,161 						"/>
						<polygon class="st134" points="432.6,162.9 416.2,152.5 416.6,151.9 432.6,161.9 						"/>
						<polygon class="st135" points="432.6,163.8 415.8,153.2 416.2,152.5 432.6,162.9 						"/>
						<polygon class="st136" points="432.6,164.8 415.4,153.9 415.8,153.2 432.6,163.8 						"/>
						<polygon class="st137" points="432.6,165.7 415,154.6 415.4,153.9 432.6,164.8 						"/>
						<polygon class="st138" points="432.6,166.7 414.5,155.3 415,154.6 432.6,165.7 						"/>
						<polygon class="st139" points="432.6,167.6 414,155.9 414.5,155.3 432.6,166.7 						"/>
						<polygon class="st140" points="432.6,168.6 413.6,156.6 414,155.9 432.6,167.6 						"/>
						<polygon class="st141" points="432.6,169.5 413.2,157.3 413.6,156.6 432.6,168.6 						"/>
						<polygon class="st142" points="432.6,170.5 412.8,158 413.2,157.3 432.6,169.5 						"/>
						<polygon class="st143" points="432.6,171.4 412.4,158.7 412.8,158 432.6,170.5 						"/>
						<polygon class="st144" points="432.6,172.4 412,159.4 412.4,158.7 432.6,171.4 						"/>
						<polygon class="st145" points="432.6,173.3 411.5,160 412,159.4 432.6,172.4 						"/>
						<polygon class="st146" points="432.6,174.3 411,160.7 411.5,160 432.6,173.3 						"/>
						<polygon class="st147" points="432.6,175.1 410.6,161.4 411,160.7 432.6,174.3 						"/>
						<polygon class="st148" points="432.6,176.2 410.3,162.1 410.6,161.4 432.6,175.1 						"/>
						<polygon class="st149" points="432.6,177.1 409.8,162.8 410.3,162.1 432.6,176.2 						"/>
						<polygon class="st150" points="432.6,178.1 409.4,163.4 409.8,162.8 432.6,177.1 						"/>
						<polygon class="st151" points="432.6,179 409,164.1 409.4,163.4 432.6,178.1 						"/>
						<polygon class="st152" points="432.6,179.9 408.6,164.8 409,164.1 432.6,179 						"/>
						<polygon class="st153" points="432.6,180.9 408.1,165.5 408.6,164.8 432.6,179.9 						"/>
						<polygon class="st154" points="432.6,181.9 407.7,166.2 408.1,165.5 432.6,180.9 						"/>
						<polygon class="st87" points="432.6,182.9 407.3,166.8 407.7,166.2 432.6,181.9 						"/>
						<polygon class="st88" points="432.6,183.8 407,167.7 407,167.2 407.3,166.8 432.6,182.9 						"/>
						<polygon class="st155" points="432.6,184.7 407,168.6 407,167.7 432.6,183.8 						"/>
						<polygon class="st90" points="432.6,185.6 407,169.6 407,168.6 432.6,184.7 						"/>
						<polygon class="st91" points="432.6,186.6 407,170.5 407,169.6 432.6,185.6 						"/>
						<polygon class="st91" points="432.6,226 418,249.3 407,249.3 407,170.5 432.6,186.6 						"/>
					</g>
				</g>
			</g>
		</g>
		<g id="polygon58">
			<path class="st91" d="M359.6,157.2l-7.4,3.9l0.6,2.5l17.5-11.1l-7.6-8.2l-9.9,4.9L359.6,157.2L359.6,157.2z"/>
		</g>
		<g id="polygon60">
			<path class="st157" d="M379.5,276l-74.5-37l9.2-7.2l74.5,39l-9.2,5.1V276L379.5,276L379.5,276z"/>
		</g>
		<g id="polygon62">
			<path class="st91" d="M312,138.5l-11.3,21.4l11.9-3.5l8.6-23L312,138.5z"/>
		</g>
		<g id="path69">
			<g>
				<defs>
					<path id="SVGID_00000060736974677156738040000008154548389545703825_" d="M209.4,227l-9.5,6.6c0,0,2.1,10.7,4.7,18.1
						c2.7,7.4,8.8,13.4,8.8,13.4c4.1,3.9,8.8,6.8,14.4,8.4c10.5,3.1,22.4,1,32.7-5.5c2.7-1.6,6.4-4.3,8.6-6.6
						c-10.1,6.2-59.7-34.3-59.7-34.3l0,0L209.4,227L209.4,227L209.4,227z"/>
				</defs>
				<clipPath id="SVGID_00000111150823661423634020000014189952002229282492_">
					<use xlink:href="#SVGID_00000060736974677156738040000008154548389545703825_"  style="overflow:visible;"/>
				</clipPath>
				<g style="clip-path:url(#SVGID_00000111150823661423634020000014189952002229282492_);">
					<g>
						<polygon class="st160" points="201.3,227 199.9,227.6 199.9,227 200,227 						"/>
						<polygon class="st161" points="202.7,227 199.9,228.3 199.9,227.6 201.3,227 						"/>
						<polygon class="st162" points="204,227 199.9,229 199.9,228.3 202.7,227 						"/>
						<polygon class="st163" points="205.4,227 199.9,229.7 199.9,229 204,227 						"/>
						<polygon class="st164" points="206.7,227 199.9,230.4 199.9,229.7 205.4,227 						"/>
						<polygon class="st165" points="208.1,227 199.9,231.1 199.9,230.4 206.7,227 						"/>
						<polygon class="st166" points="209.5,227 199.9,231.8 199.9,231.1 208.1,227 						"/>
						<polygon class="st167" points="210.8,227 199.9,232.5 199.9,231.8 209.5,227 						"/>
						<polygon class="st116" points="212.2,227 199.9,233.2 199.9,232.5 210.8,227 						"/>
						<polygon class="st168" points="213.5,227 199.9,233.9 199.9,233.2 212.2,227 						"/>
						<polygon class="st169" points="214.9,227 199.9,234.6 199.9,233.9 213.5,227 						"/>
						<polygon class="st170" points="216.3,227 199.9,235.2 199.9,234.6 214.9,227 						"/>
						<polygon class="st171" points="217.6,227 199.9,235.9 199.9,235.2 216.3,227 						"/>
						<polygon class="st172" points="219,227 199.9,236.6 199.9,235.9 217.6,227 						"/>
						<polygon class="st173" points="220.3,227 199.9,237.3 199.9,236.6 219,227 						"/>
						<polygon class="st174" points="221.6,227 199.9,238 199.9,237.3 220.3,227 						"/>
						<polygon class="st175" points="222.9,227 199.9,238.7 199.9,238 221.6,227 						"/>
						<polygon class="st176" points="224.4,227 199.9,239.4 199.9,238.7 222.9,227 						"/>
						<polygon class="st126" points="225.8,227 199.9,240.1 199.9,239.4 224.4,227 						"/>
						<polygon class="st177" points="227.1,227 199.9,240.8 199.9,240.1 225.8,227 						"/>
						<polygon class="st178" points="228.4,227 199.9,241.5 199.9,240.8 227.1,227 						"/>
						<polygon class="st179" points="229.7,227 199.9,242.2 199.9,241.5 228.4,227 						"/>
						<polygon class="st180" points="231.1,227 199.9,242.8 199.9,242.2 229.7,227 						"/>
						<polygon class="st181" points="232.4,227 199.9,243.5 199.9,242.8 231.1,227 						"/>
						<polygon class="st132" points="233.8,227 199.9,244.2 199.9,243.5 232.4,227 						"/>
						<polygon class="st133" points="235.2,227 199.9,244.9 199.9,244.2 233.8,227 						"/>
						<polygon class="st182" points="236.5,227 199.9,245.6 199.9,244.9 235.2,227 						"/>
						<polygon class="st183" points="237.9,227 199.9,246.3 199.9,245.6 236.5,227 						"/>
						<polygon class="st184" points="239.2,227 199.9,247 199.9,246.3 237.9,227 						"/>
						<polygon class="st137" points="240.6,227 199.9,247.7 199.9,247 239.2,227 						"/>
						<polygon class="st138" points="242,227 199.9,248.4 199.9,247.7 240.6,227 						"/>
						<polygon class="st185" points="243.3,227 199.9,249.1 199.9,248.4 242,227 						"/>
						<polygon class="st186" points="244.7,227 199.9,249.7 199.9,249.1 243.3,227 						"/>
						<polygon class="st187" points="246,227 199.9,250.4 199.9,249.7 244.7,227 						"/>
						<polygon class="st142" points="247.4,227 199.9,251.1 199.9,250.4 246,227 						"/>
						<polygon class="st143" points="248.7,227 199.9,251.8 199.9,251.1 247.4,227 						"/>
						<polygon class="st144" points="250.1,227 199.9,252.5 199.9,251.8 248.7,227 						"/>
						<polygon class="st188" points="251.5,227 199.9,253.2 199.9,252.5 250.1,227 						"/>
						<polygon class="st189" points="252.8,227 200.1,253.8 199.9,253.5 199.9,253.2 251.5,227 						"/>
						<polygon class="st147" points="254.2,227 200.4,254.4 200.1,253.8 252.8,227 						"/>
						<polygon class="st148" points="255.5,227 200.6,254.9 200.4,254.4 254.2,227 						"/>
						<polygon class="st149" points="256.2,227 256.4,227.2 200.9,255.5 200.6,254.9 255.5,227 						"/>
						
							<rect x="197.6" y="241.3" transform="matrix(0.8914 -0.4532 0.4532 0.8914 -84.6364 129.9143)" class="st150" width="62.2" height="0.6"/>
						
							<rect x="198" y="241.9" transform="matrix(0.8914 -0.4532 0.4532 0.8914 -84.8712 130.1359)" class="st190" width="62.2" height="0.6"/>
						
							<rect x="198.2" y="242.4" transform="matrix(0.8914 -0.4532 0.4532 0.8914 -85.1035 130.2836)" class="st152" width="62.2" height="0.6"/>
						
							<rect x="198.5" y="243" transform="matrix(0.8914 -0.4532 0.4532 0.8914 -85.3363 130.5068)" class="st153" width="62.2" height="0.6"/>
						
							<rect x="198.7" y="243.5" transform="matrix(0.8914 -0.4532 0.4532 0.8914 -85.549 130.6448)" class="st154" width="62.2" height="0.6"/>
						
							<rect x="199" y="243.9" transform="matrix(0.8914 -0.4532 0.4532 0.8914 -85.6972 130.8256)" class="st87" width="62.2" height="0.6"/>
						
							<rect x="199.4" y="244.5" transform="matrix(0.8914 -0.4532 0.4532 0.8914 -85.9331 131.0427)" class="st88" width="62.2" height="0.6"/>
						
							<rect x="199.6" y="245.1" transform="matrix(0.8914 -0.4532 0.4532 0.8914 -86.1688 131.196)" class="st155" width="62.2" height="0.6"/>
						
							<rect x="199.9" y="245.7" transform="matrix(0.8914 -0.4532 0.4532 0.8914 -86.4006 131.4212)" class="st90" width="62.2" height="0.6"/>
						
							<rect x="200.2" y="246.2" transform="matrix(0.8914 -0.4532 0.4532 0.8914 -86.5972 131.6071)" class="st91" width="62.2" height="0.6"/>
						<polygon class="st91" points="259.2,232.7 269.1,252.2 269.1,276.5 211.6,276.5 203.7,260.9 						"/>
					</g>
				</g>
			</g>
		</g>
		<g id="polygon71">
			<path class="st91" d="M260.4,180.4l8.6,95.8l35.7-5.1l9.5-4.9L270,174.7l-9,3.1l-9.5,4.7l8.8-2.1L260.4,180.4L260.4,180.4z"/>
		</g>
		<g id="polygon78">
			<g>
				<defs>
					<polygon id="SVGID_00000034064831811995036500000007170572248635915149_" points="127.1,213.6 166.9,303.7 204.7,291.6 
						213.9,285.4 135.4,203.3 125.6,209.3 117.8,217.7 126.9,213.6 					"/>
				</defs>
				<clipPath id="SVGID_00000004525861684684305090000017349250171809723523_">
					<use xlink:href="#SVGID_00000034064831811995036500000007170572248635915149_"  style="overflow:visible;"/>
				</clipPath>
				<g style="clip-path:url(#SVGID_00000004525861684684305090000017349250171809723523_);">
					<g>
						<polygon class="st192" points="128.9,203.3 117.9,208.1 117.9,203.3 						"/>
						<polygon class="st192" points="130.8,203.3 117.9,209 117.9,208.1 128.9,203.3 						"/>
						<polygon class="st193" points="132.9,203.3 117.9,209.8 117.9,209 130.8,203.3 						"/>
						<polygon class="st194" points="134.9,203.3 117.9,210.7 117.9,209.8 132.9,203.3 						"/>
						<polygon class="st195" points="137,203.3 117.9,211.6 117.9,210.7 134.9,203.3 						"/>
						<polygon class="st196" points="139,203.3 117.9,212.5 117.9,211.6 137,203.3 						"/>
						<polygon class="st197" points="141.1,203.3 117.9,213.4 117.9,212.5 139,203.3 						"/>
						<polygon class="st198" points="143.2,203.3 117.9,214.3 117.9,213.4 141.1,203.3 						"/>
						<polygon class="st199" points="145.2,203.3 117.9,215.2 117.9,214.3 143.2,203.3 						"/>
						<polygon class="st200" points="147.3,203.3 117.9,216.1 117.9,215.2 145.2,203.3 						"/>
						<polygon class="st201" points="149.3,203.3 117.9,216.9 117.9,216.1 147.3,203.3 						"/>
						<polygon class="st202" points="151.4,203.3 117.9,217.8 117.9,216.9 149.3,203.3 						"/>
						<polygon class="st203" points="153.5,203.3 117.9,218.7 117.9,217.8 151.4,203.3 						"/>
						<polygon class="st204" points="155.5,203.3 117.9,219.6 117.9,218.7 153.5,203.3 						"/>
						<polygon class="st205" points="157.6,203.3 117.9,220.5 117.9,219.6 155.5,203.3 						"/>
						<polygon class="st206" points="159.6,203.3 117.9,221.4 117.9,220.5 157.6,203.3 						"/>
						<polygon class="st160" points="161.7,203.3 117.9,222.3 117.9,221.4 159.6,203.3 						"/>
						<polygon class="st161" points="163.7,203.3 117.9,223.2 117.9,222.3 161.7,203.3 						"/>
						<polygon class="st162" points="165.8,203.3 117.9,224.1 117.9,223.2 163.7,203.3 						"/>
						<polygon class="st163" points="167.9,203.3 117.9,224.9 117.9,224.1 165.8,203.3 						"/>
						<polygon class="st164" points="169.9,203.3 117.9,225.8 117.9,224.9 167.9,203.3 						"/>
						<polygon class="st165" points="172,203.3 117.9,226.7 117.9,225.8 169.9,203.3 						"/>
						<polygon class="st166" points="174,203.3 117.9,227.6 117.9,226.7 172,203.3 						"/>
						<polygon class="st167" points="176.1,203.3 118,228.4 117.9,228.1 117.9,227.6 174,203.3 						"/>
						<polygon class="st116" points="178.2,203.3 118.3,229.2 118,228.4 176.1,203.3 						"/>
						<polygon class="st168" points="180.2,203.3 118.7,229.9 118.3,229.2 178.2,203.3 						"/>
						<polygon class="st169" points="182.3,203.3 119,230.7 118.7,229.9 180.2,203.3 						"/>
						<polygon class="st170" points="182.9,203.3 183.2,203.8 119.3,231.4 119,230.7 182.3,203.3 						"/>
						
							<rect x="116.5" y="217.7" transform="matrix(0.9182 -0.396 0.396 0.9182 -73.9865 77.7557)" class="st171" width="69.6" height="0.8"/>
						
							<rect x="116.9" y="218.3" transform="matrix(0.9182 -0.396 0.396 0.9182 -74.2049 77.9495)" class="st172" width="69.6" height="0.8"/>
						
							<rect x="117.2" y="219.1" transform="matrix(0.9182 -0.396 0.396 0.9182 -74.481 78.165)" class="st173" width="69.6" height="0.8"/>
						
							<rect x="117.5" y="219.8" transform="matrix(0.9182 -0.396 0.396 0.9182 -74.7464 78.3224)" class="st174" width="69.6" height="0.8"/>
						
							<rect x="117.9" y="220.6" transform="matrix(0.9182 -0.396 0.396 0.9182 -75.0351 78.5426)" class="st175" width="69.6" height="0.8"/>
						
							<rect x="118.2" y="221.3" transform="matrix(0.9182 -0.396 0.396 0.9182 -75.3019 78.7067)" class="st176" width="69.6" height="0.8"/>
						
							<rect x="118.4" y="222.1" transform="matrix(0.9182 -0.396 0.396 0.9182 -75.6021 78.8888)" class="st126" width="69.6" height="0.8"/>
						
							<rect x="118.8" y="222.8" transform="matrix(0.9182 -0.396 0.396 0.9182 -75.841 79.0829)" class="st177" width="69.6" height="0.8"/>
						
							<rect x="119.2" y="223.6" transform="matrix(0.9182 -0.396 0.396 0.9182 -76.1354 79.3021)" class="st178" width="69.6" height="0.8"/>
						
							<rect x="119.4" y="224.3" transform="matrix(0.9182 -0.396 0.396 0.9182 -76.3957 79.4591)" class="st179" width="69.6" height="0.8"/>
						
							<rect x="119.7" y="225.1" transform="matrix(0.9182 -0.396 0.396 0.9182 -76.6579 79.6297)" class="st180" width="69.6" height="0.8"/>
						
							<rect x="120.2" y="225.8" transform="matrix(0.9182 -0.396 0.396 0.9182 -76.896 79.8674)" class="st181" width="69.6" height="0.8"/>
						
							<rect x="120.5" y="226.6" transform="matrix(0.9182 -0.396 0.396 0.9182 -77.1929 80.0472)" class="st132" width="69.6" height="0.8"/>
						
							<rect x="120.7" y="227.3" transform="matrix(0.9182 -0.396 0.396 0.9182 -77.4621 80.2055)" class="st133" width="69.6" height="0.8"/>
						
							<rect x="121.1" y="228.1" transform="matrix(0.9182 -0.396 0.396 0.9182 -77.7485 80.429)" class="st182" width="69.6" height="0.8"/>
						
							<rect x="121.4" y="228.8" transform="matrix(0.9182 -0.396 0.396 0.9182 -77.9931 80.6221)" class="st183" width="69.6" height="0.8"/>
						
							<rect x="121.7" y="229.6" transform="matrix(0.9182 -0.396 0.396 0.9182 -78.29 80.8019)" class="st184" width="69.6" height="0.8"/>
						
							<rect x="122" y="230.3" transform="matrix(0.9182 -0.396 0.396 0.9182 -78.557 80.9635)" class="st137" width="69.6" height="0.8"/>
						
							<rect x="122.4" y="231.1" transform="matrix(0.9182 -0.396 0.396 0.9182 -78.8424 81.1814)" class="st138" width="69.6" height="0.8"/>
						
							<rect x="122.6" y="231.8" transform="matrix(0.9182 -0.396 0.396 0.9182 -79.0721 81.3396)" class="st185" width="69.6" height="0.8"/>
						
							<rect x="123" y="232.5" transform="matrix(0.9182 -0.396 0.396 0.9182 -79.3475 81.547)" class="st186" width="69.6" height="0.8"/>
						
							<rect x="123.4" y="233.3" transform="matrix(0.9182 -0.396 0.396 0.9182 -79.6054 81.7529)" class="st187" width="69.6" height="0.8"/>
						
							<rect x="123.7" y="234.1" transform="matrix(0.9182 -0.396 0.396 0.9182 -79.9023 81.9327)" class="st142" width="69.6" height="0.8"/>
						
							<rect x="123.9" y="234.8" transform="matrix(0.9182 -0.396 0.396 0.9182 -80.1716 82.091)" class="st143" width="69.6" height="0.8"/>
						
							<rect x="124.4" y="235.6" transform="matrix(0.9182 -0.396 0.396 0.9182 -80.4365 82.3421)" class="st144" width="69.6" height="0.8"/>
						
							<rect x="124.7" y="236.3" transform="matrix(0.9182 -0.396 0.396 0.9182 -80.6993 82.5053)" class="st188" width="69.6" height="0.8"/>
						
							<rect x="124.9" y="237.1" transform="matrix(0.9182 -0.396 0.396 0.9182 -81.0018 82.6841)" class="st189" width="69.6" height="0.8"/>
						
							<rect x="125.2" y="237.8" transform="matrix(0.9182 -0.396 0.396 0.9182 -81.2688 82.8457)" class="st147" width="69.6" height="0.8"/>
						
							<rect x="125.7" y="238.5" transform="matrix(0.9182 -0.396 0.396 0.9182 -81.4949 83.0928)" class="st148" width="69.6" height="0.8"/>
						
							<rect x="125.9" y="239.2" transform="matrix(0.9182 -0.396 0.396 0.9182 -81.7634 83.255)" class="st149" width="69.6" height="0.8"/>
						
							<rect x="126.2" y="240" transform="matrix(0.9182 -0.396 0.396 0.9182 -82.0293 83.4109)" class="st150" width="69.6" height="0.8"/>
						
							<rect x="126.6" y="240.8" transform="matrix(0.9182 -0.396 0.396 0.9182 -82.3181 83.6311)" class="st190" width="69.6" height="0.8"/>
						
							<rect x="126.8" y="241.5" transform="matrix(0.9182 -0.396 0.396 0.9182 -82.585 83.7927)" class="st152" width="69.6" height="0.8"/>
						
							<rect x="127.2" y="242.3" transform="matrix(0.9182 -0.396 0.396 0.9182 -82.8595 84.0041)" class="st153" width="69.6" height="0.8"/>
						
							<rect x="127.6" y="243" transform="matrix(0.9182 -0.396 0.396 0.9182 -83.115 84.2037)" class="st154" width="69.6" height="0.8"/>
						
							<rect x="127.9" y="243.8" transform="matrix(0.9182 -0.396 0.396 0.9182 -83.4127 84.3916)" class="st87" width="69.6" height="0.8"/>
						
							<rect x="128.1" y="244.5" transform="matrix(0.9182 -0.396 0.396 0.9182 -83.682 84.5499)" class="st88" width="69.6" height="0.8"/>
						
							<rect x="128.5" y="245.3" transform="matrix(0.9182 -0.396 0.396 0.9182 -83.955 84.7606)" class="st155" width="69.6" height="0.8"/>
						
							<rect x="128.8" y="245.9" transform="matrix(0.9182 -0.396 0.396 0.9182 -84.1758 84.9511)" class="st90" width="69.6" height="0.8"/>
						
							<rect x="129.1" y="246.8" transform="matrix(0.9182 -0.396 0.396 0.9182 -84.476 85.1332)" class="st91" width="69.6" height="0.8"/>
						<polygon class="st91" points="196.1,233.8 213.9,275.1 213.9,303.7 150.4,303.7 132.1,261.4 						"/>
					</g>
				</g>
			</g>
		</g>
		<g id="path80">
			<path class="st91" d="M520.9,256.1l0.6,4.5c3.3-0.4,6.6-0.8,9.7-1.8c3.5-1.2,10.9-4.5,13.6-7
				C543.6,252.2,526.3,256.7,520.9,256.1"/>
		</g>
		<g id="path82">
			<path class="st91" d="M387.3,233.1l1.4,7.2c7.6-1.2,14.2-3.9,20.8-7.8c4.1-2.5,8.4-6,9.9-7C418.3,226.1,387.3,233.1,387.3,233.1
				L387.3,233.1L387.3,233.1z"/>
		</g>
		<g id="g84">
			<g id="path86">
				<path class="st0" d="M177.2,295.1l-2.9-6.6l-37.8-84.1l-0.8-1.6l-1.6,0.8l-1.2,0.6l-6.8,3.3c-1-1.6-2.7-4.5-3.7-6.4l-15.2-25.7
					l-3.9-6.8l6.6-4.1c6.2-3.9,13.1-7.6,21-10.9c15.2-6.4,30.6-9.9,44.8-9.9c4.7,0,9.2,0.4,13.4,1c7,0.8,13.6,3.1,18.9,6.8
					c8,4.5,14.4,11.5,17.9,19.7c2.9,6.8,3.5,14.8,1.6,23l-1,4.9l4.1-2.9c2.7-2.1,5.5-3.7,8.6-4.9c5.3-2.3,10.9-3.5,16.4-3.5
					s10.3,1,14.8,3.1l2.9,1.2l-0.2-3.3l-1.2-13.8l-0.2-2.3l-2.1,0.6l-6.4,1.6l-1-23.4l46.8-15l-0.4,18.3l3.5,0.8l10.3-19.5
					l30.6,27.1l1.2,1.2l1.2-1.2c4.1-3.9,9.2-7.2,14.8-9.5l2.3-1l-1.6-2.1l-5.5-6.8l35-40.1l18.5,27.5l-28.1,15.2l-6.2,3.3l7.2,0.2
					c13.4,0.2,25.3,6,33.3,15.8l2.9,3.7l1.8,2.3l-3.1,3.3l-2.1,2.3l-7,7.6l-1.2,1.4l1.4,1.2l6.6,6l2.5,2.3l0.6-3.3l2.5-15.6l0.6-4.1
					l0.6-4.1l3.7-23.2h34.9l0.2-1.6l0.6-3.9h30.4l7.4,46.4l0.4,3.1l2.5-1.8c3.1-2.3,6.4-3.9,9.9-5.3c4.7-1.8,9.5-2.7,14.4-2.7
					c5.8,0,11.3,1.2,16,3.9c0.2,0,0.2,0.2,0.6,0.4l2.3,0.8l0.2-2.5l0.6-5.1l0.2-1.6l-1.6-0.4l-6.2-1.4l-0.2-24.2l47,10.3l3.5,17.5
					h3.7l3.7-15l39.2,9.5L604,292.9l-28.6-9l-0.2-11.1v-1.6l-1.6-0.2l-28.6-4.1l1.6-14.6l0.4-3.5l-3.1,1.6c-1.4,0.8-2.9,1.4-4.3,1.8
					c-4.7,1.8-9.5,2.7-14.2,2.7c-1.4,0-2.7,0-4.1-0.2l-2.5-0.2l0.4,2.5l2.1,12.7l-41.7-7.4l-2.3-18.9l-0.6-6.2l-2.9,5.3l-4.7,9.2
					l-8.8-16.2l-2.7-4.9l-0.8,5.5l-1.8,12.5l-36.6-5.8l2.9-17.3l0.6-3.9l-3.5,2.1c-6,3.5-12.9,6.4-21,8.2c-2.9,0.6-5.8,1.2-8.8,1.4
					l-1.6,0.2v34.5l-71.8-35.5l-2.7-1.2v33.5l-32.3,4.7l-1.4-14.6l-0.4-3.9l-2.9,2.7c-4.3,4.1-9,7.4-14.2,9.7
					c-5.3,2.3-10.9,3.5-16.2,3.5s-10.7-1.2-15.4-3.3c-8.6-4.1-15-11.7-17.7-21.4c-1.2-4.5-1.6-9.2-1-14.2l0.6-5.1l-3.7,3.7
					c-2.7,2.5-5.5,4.9-8.6,7.2l-1,0.8l0.4,1.2l10.9,41.4l1.8,7.4l-7.2,2.3l-20.3,6.6l-7,1.8l0,0L177.2,295.1L177.2,295.1
					L177.2,295.1z M186.2,183.6c-1,0-2.1,0-3.3,0.2l-1.4,0.2l-2.1,0.4l0.6,2.1l0.4,1.2l5.8,19.1l0.6,1.8l0.8,2.7l2.1-1.8l1.4-1.2
					c5.8-5.1,7.6-10.3,6.4-16.8c-0.8-3.9-3.7-5.8-5.5-6.6c-1.2-0.8-3.5-1.2-5.8-1.2l0,0V183.6L186.2,183.6z M342.6,184.3l-3.7,3.5
					l-9.7,9.2l-2.1,2.1l2.7,1l10.3,3.9l3.1,1.2l-0.6-3.3c-0.8-4.3-1-8.6-0.6-12.7L342.6,184.3L342.6,184.3L342.6,184.3z
					 M384.5,173.6c-3.9,0-7.8,1.6-10.5,4.7c-4.1,4.5-4.9,11.3-2.1,16.6l0.8,1.4l1.2,2.3l1.8-2.1l1.2-1.2l14.2-16l1-1.2l1.8-2.1
					l-2.5-1l-1.6-0.6c-2.1-0.4-3.7-0.8-5.5-0.8L384.5,173.6L384.5,173.6z"/>
			</g>
		</g>
		<g id="path88">
			<path class="st207" d="M406,197.4l-0.4,0.4C405.6,197.8,406,197.6,406,197.4z"/>
		</g>
		<g id="polygon90">
			<path class="st207" d="M418.2,186.4l7-7.6l-2.5,2.5v-0.2l-2.1,2.3l-7,7.4l6.6,6l1.2-7.4l3.3,2.9l-6.6-5.8L418.2,186.4
				L418.2,186.4L418.2,186.4z"/>
		</g>
		<g id="polygon92">
			<path class="st207" d="M418.2,186.4l6.6,5.8l2.5-15.6l-2.1,2.3l-7,7.6V186.4L418.2,186.4L418.2,186.4z"/>
		</g>
		<g id="path96">
			<path class="st208" d="M369.7,205c0.6,0.6,0,0.2,0.6,0.6l4.3-3.1c-0.6-0.4-1.2-1-1.8-1.4c-6.2-5.8-4.5-18.5-0.6-25.5
				C361.5,184.3,362.1,197.4,369.7,205"/>
		</g>
		<g id="path98">
			<path class="st208" d="M421.5,212.2c-7.2,6-15.2,9.7-25.9,12.3c-2.3,0.6-4.7,1-6.8,1c-17.1,1.6-31.2-6.2-36.6-18.7
				c-0.6-1.4-1.2-3.1-1.6-4.7c-2.5-10.7-0.4-20.1,4.9-27.7c0.6-0.8,1-1.4,1.6-2.1c-0.2,0.2-0.6,0.4-0.8,0.6c-2.1,1.8-3.9,3.7-5.3,6
				c-5.3,7.4-7.4,17.1-4.9,27.7c0.4,1.6,0.8,3.3,1.6,4.7c5.3,12.7,19.7,20.5,36.6,18.9c2.3-0.2,4.5-0.6,7-1.2
				c10.7-2.7,18.9-6.4,25.9-12.3c1.6-1.4,3.5-3.1,5.1-4.7l-0.2-0.2C422.1,211.8,421.5,212,421.5,212.2"/>
		</g>
		<g id="polygon100">
			<path class="st208" d="M302,179.9l18.9-26.7l-0.8-0.6l-18.3,25.7L302,179.9L302,179.9z"/>
		</g>
		<g id="polygon102">
			<path class="st208" d="M427.3,176.4l-2.5,15.6l-3.3-2.9l-1.2,7.4l-6.6-6l7-7.4l2.1-2.3v0.2l2.5-2.5l2.1-2.3L427.3,176.4
				L427.3,176.4L427.3,176.4z"/>
		</g>
		<g id="polygon104">
			<path class="st208" d="M404,132.5l6.6-2.9L398.5,114l-3.9,5.8L404,132.5L404,132.5L404,132.5z"/>
		</g>
		<g id="path106">
			<path class="st208" d="M220.1,171.2c-30.8-37.4-86-17.3-105.7,0.2l0.8,1.4c4.5-2.7,9.5-4.9,14.4-7.2c19.7-8.4,38.6-10.9,53.6-8.2
				c5.3,0.6,10.9,2.3,15.8,5.5c6.8,3.9,11.9,9.2,15,16.2c5.3,12.3,0.6,28.8-11.9,42.3c15.8-14.6,26.7-28.6,18.1-50.2l0,0
				L220.1,171.2L220.1,171.2L220.1,171.2z"/>
		</g>
		<g id="path108">
			<path class="st208" d="M282.6,214.6c-0.2-0.6-0.2-1.4-0.4-2.1c-1.6-6.2-5.3-11.1-10.3-14.4c-7.8-5.3-18.9-6.4-29.8-1.8
				c-5.8,2.5-10.7,6.4-14.8,10.9c3.1-2.7,6.6-4.7,10.3-6.4c10.9-4.7,22-3.5,29.8,1.8c4.9,3.3,8.6,8.2,10.3,14.4
				c0.2,0.6,0.4,1.4,0.4,2.1c0.4,2.5,0.6,4.7,0.6,7.2c-0.2,7.2-2.9,14.4-7.2,20.5c-0.6,1-1.4,1.8-2.3,2.9c2.5-2.3,4.7-4.5,6.6-7.2
				c4.5-6.2,7-13.4,7.4-20.5C283.2,219.5,283,217.1,282.6,214.6"/>
		</g>
		<g id="path110">
			<path class="st208" d="M252.4,205.6c0,0,4.5-4.5,4.3-4.5c-5.5-0.2-8,5.1-8.2,5.5C249.7,206,251,205.8,252.4,205.6"/>
		</g>
		<g id="path112">
			<path class="st208" d="M262.9,212c0.2,0.8,0.4,1.4,0.4,2.3c0,1.2-0.2,2.3-0.8,3.3c0.8-0.4,7.4-3.7,4.9-10.3
				C267.6,207.7,262.7,212,262.9,212"/>
		</g>
		<g id="path114">
			<path class="st208" d="M237.4,215.9c0-2.7,4.7-9.5,6.2-11.7c-7.4,4.7-10.7,11.1-10.7,16c0,8.6,7.6,15.6,16.6,15.6
				c4.3,0,12.1-2.3,17.3-10.5c-2.7,1.8-9.5,6-13.1,6C244.7,231.3,237.5,224.5,237.4,215.9"/>
		</g>
		<g id="polygon116">
			<path class="st208" d="M300.9,223.7l0.2,34.7l5.5,0.4l-1.2-39.7l-4.5,4.5L300.9,223.7L300.9,223.7L300.9,223.7z"/>
		</g>
		<g id="polygon118">
			<path class="st208" d="M269.3,157.4v3.1l26.3-7.8l1.8,33.5l4.5-6.2l-1-33.5L269.3,157.4L269.3,157.4L269.3,157.4z"/>
		</g>
		<g id="polygon120">
			<path class="st208" d="M348.3,169.3l-24.4-22.6l-3.1,6.6l21.8,20.3l5.8-4.3L348.3,169.3L348.3,169.3z"/>
		</g>
		<g id="path122">
			<path class="st208" d="M344.6,211.3l-29-9.7l-4.1,4.5l28.8,11.5c3.3,6.2,8.2,11.5,14.4,15.2c6,3.7,12.9,6,20.1,6.6v14.2l4.5,2.3
				l1.4-21.4L344.6,211.3L344.6,211.3L344.6,211.3z"/>
		</g>
		<g id="path124">
			<path class="st208" d="M391,207.4c7.2-1.6,11.1-5.3,14.8-9.5c-2.7,2.3-15.8,5.1-18.1,5.8l-4.3,4.7
				C385.2,208.4,388.5,208,391,207.4"/>
		</g>
		<g id="path126">
			<path class="st208" d="M378.1,158.2c-13.1,1.6-19.9,12.7-21,14c4.9-4.1,10.9-7.2,17.7-8.6c16.2-3.9,30.4,1,39.2,11.9l5.5-4.5
				c-8.8-10.7-25.3-16.6-41.5-12.7"/>
		</g>
		<g id="path128">
			<path class="st208" d="M421.9,211.7c1.6-1.2,4.3-2.7,6-4.3l-17.5-15.6c-1.4,1.6-2.5,4.3-4.1,5.5L421.9,211.7L421.9,211.7
				L421.9,211.7z"/>
		</g>
		<g id="path130">
			<path class="st208" d="M511.6,253.7c-18.3-15.2-17.3-47.4-8.2-57.6l-8-50.6l-17.7,2.3l-0.8,4.5h13.4l7.2,45.9
				c-9,10.3-13.4,24-10.5,36.8c2.3,9.9,8.4,17.7,17.1,22.2c0.8,0.4,1.8,0.8,2.7,1.2l0.2,0.6l5.3,0.8
				C512.3,259.7,512.7,254.2,511.6,253.7L511.6,253.7L511.6,253.7z"/>
		</g>
		<g id="polygon132">
			<path class="st208" d="M441.3,152.7l-0.8,4.5h20.1l6,32.7l4.5-4.5l-4.7-34.5L441.3,152.7L441.3,152.7L441.3,152.7z"/>
		</g>
		<g id="polygon134">
			<path class="st208" d="M475.8,215.9l-6.6,16.8l1.6,4.5l9.2-25.7l-4.3,4.3L475.8,215.9L475.8,215.9z"/>
		</g>
		<g id="polygon136">
			<path class="st208" d="M456.5,205.4l-4.5,4.5l-4.9,30.4l4.7,1.6l4.7-36.6L456.5,205.4L456.5,205.4z"/>
		</g>
		<g id="path138">
			<path class="st208" d="M547,195.5c2.7,1.8,4.9,4.3,6.6,7.2c1.4,2.3,2.3,4.5,3.1,7.4c2.3,9.2-0.4,19.1-6.2,26.9
				c-0.6,0.8-1.2,1.6-1.8,2.3c2.3-2.1,31-23.2,3.1-50.9c-30.8-10.1-42.5,9.9-43.6,11.3c3.3-2.7,7-5.1,11.1-6.6
				C529.6,188.9,539.8,190.3,547,195.5"/>
		</g>
		<g id="path140">
			<path class="st208" d="M531.6,197.6l4.5-4.5c-5.5,0.2-8.2,2.9-7.8,4.1c-0.4,0.4-0.6,1-0.8,1.4C528.5,198,530.8,197.6,531.6,197.6
				"/>
		</g>
		<g id="path142">
			<path class="st208" d="M541.8,204.6c0.2,0.8,0.2,1.4,0.2,2.3c0,1-0.4,2.1-0.8,2.9c0.8-0.4,7.4-2.5,4.9-9.9
				C546.3,200.3,541.6,204.6,541.8,204.6"/>
		</g>
		<g id="path144">
			<path class="st208" d="M527.2,227.8c6.2,0.2,13.1-3.5,18.1-10.3c-12.5,2.7-25.9-18.5-24.7-20.5c-4.7,3.5-9,10.1-9.2,14.8
				C511.1,220.4,518.2,227.4,527.2,227.8"/>
		</g>
		<g id="polygon146">
			<path class="st208" d="M596.5,282.5l2.9,1.8L635.5,176l-27.1-6.2l-0.2,6.4l21.8,4.7L596.5,282.5L596.5,282.5L596.5,282.5
				L596.5,282.5z"/>
		</g>
		<g id="polygon148">
			<path class="st208" d="M553.5,158.2l0.2,6.2l28.8,5.8l11.1,52.5l4.5-4.5l-10.7-53.1L553.5,158.2L553.5,158.2L553.5,158.2
				L553.5,158.2z"/>
		</g>
		<g id="polygon150">
			<path class="st208" d="M575.7,218.1l-8,44.7l4.5,1.4l8-50.6L575.7,218.1L575.7,218.1z"/>
		</g>
		<g id="polygon152">
			<path class="st208" d="M202.8,279.2l-13.4-48.9l-4.9,3.5l12.5,46.6L202.8,279.2L202.8,279.2L202.8,279.2z"/>
		</g>
		<g id="path154">
			<path class="st208" d="M199.3,206c-3.1,3.3-10.1,9.7-14,12.1l-2.5-7.6l-5.1-16.8l-3.3-11.3l-3.3,4.1l3.3,11.3l5.1,16.6l2.5,7.6
				C187.5,218.9,195.4,212.3,199.3,206"/>
		</g>
		<g id="path156">
			<path class="st207" d="M389.8,177.1c-4.3-1.6-10.3-1.2-13.6,2.5c-0.8,0.8-2.3,2.9-2.7,3.9c3.1-2.5,8.8-3.1,12.3-1.6l3.9-4.7l0,0
				L389.8,177.1L389.8,177.1L389.8,177.1z"/>
		</g>
		<g id="path158">
			<path class="st207" d="M195.6,192.2c-0.4-2.5-2.9-4.5-4.1-5.1c-2.1-1-6-1.2-8.6-0.6c0.4,1.6,1,3.7,1.2,4.5c1,0.2,2.9,0.4,3.9,0.8
				c1.2,0.6,3.3,1.8,3.7,4.5c0.6,3.3,0.4,6.6-1,9C194.6,201.6,196.5,197.6,195.6,192.2"/>
		</g>
		<g id="g160">
			<g id="g162">
				<g id="path164">
					<path class="st209" d="M202.3,192.1c-1.8-9.9-14.8-15.4-27.7-8.4l3.3,11.3l5.1,16.8l2.5,7.6
						C195.2,213.4,204.8,205.8,202.3,192.1L202.3,192.1L202.3,192.1z M189.6,207.5c-1.4-4.5-4.5-14.4-4.5-14.4s-0.6-2.1-1.4-4.5
						c2.7-0.4,5.3-0.2,7.4,0.8c1.2,0.6,3.3,1.8,3.7,4.5c1.2,5.3-0.6,9.5-5.1,13.6L189.6,207.5L189.6,207.5z"/>
				</g>
			</g>
		</g>
		<g id="g166">
			<g id="g168">
				<g id="path170">
					<path class="st210" d="M396.5,176.4c-7.2-6.6-18.3-6.2-24.9,1s-6.2,18.3,1,24.9c0.6,0.6,1.2,1,1.8,1.4l23.2-26.3
						c0,0-0.8-0.6-1.2-1L396.5,176.4L396.5,176.4z M374.7,194.9c-2.3-4.1-1.8-9.5,1.6-13.1c3.3-3.5,8.2-4.5,12.5-2.9l-14.2,16H374.7
						L374.7,194.9z"/>
				</g>
			</g>
		</g>
		<g id="polygon172">
			<path class="st211" d="M427.3,173.6l-12.7,12.3l12.1,10.9L427.3,173.6L427.3,173.6z"/>
		</g>
		<g id="path174">
			<path class="st212" d="M546.1,200c0.2,0.8,0.2,1.6,0.2,2.5c-0.2,4.9-4.7,8.6-10.3,8.4c-5.5-0.2-9.9-4.3-9.7-9.2
				c0.2-4.5,4.3-8.2,9.2-8.4c-1-0.2-2.1-0.4-3.1-0.4c-9.2-0.4-16.6,6.2-17.1,14.2c-0.4,8.6,6.6,15.8,15.6,16
				c9.2,0.4,16.6-6.2,17.1-14.8c0.6-2.9-0.4-5.8-2.1-8.2"/>
		</g>
		<g id="path183">
			<g>
				<defs>
					<path id="SVGID_00000057136455577829893340000004788828075802123911_" d="M267.8,209.9c0,4.9-4.5,8.8-9.9,8.8s-9.9-3.9-9.9-8.8
						c0-4.5,3.9-8.4,9-8.8c-1-0.2-2.1-0.2-3.1-0.2c-9.2,0-16.4,6.8-16.4,15s7.2,15.4,16.2,15.4s16.4-6.8,16.4-15.4
						c0-3.1-1-5.8-2.7-8.2c0,0.6,0.2,1.4,0.2,2.3"/>
				</defs>
				<clipPath id="SVGID_00000101787146941043947380000001988580313896492991_">
					<use xlink:href="#SVGID_00000057136455577829893340000004788828075802123911_"  style="overflow:visible;"/>
				</clipPath>
				<g style="clip-path:url(#SVGID_00000101787146941043947380000001988580313896492991_);">
					<g>
						<rect x="237.6" y="200.9" class="st209" width="0.9" height="30.4"/>
						<rect x="238.6" y="200.9" class="st214" width="1.2" height="30.4"/>
						<rect x="239.8" y="200.9" class="st215" width="1.2" height="30.4"/>
						<rect x="241" y="200.9" class="st216" width="1.2" height="30.4"/>
						<rect x="242.2" y="200.9" class="st217" width="1.2" height="30.4"/>
						<rect x="243.5" y="200.9" class="st218" width="1.2" height="30.4"/>
						<rect x="244.7" y="200.9" class="st219" width="1.2" height="30.4"/>
						<rect x="245.9" y="200.9" class="st220" width="1.2" height="30.4"/>
						<rect x="247.1" y="200.9" class="st221" width="1.2" height="30.4"/>
						<rect x="248.3" y="200.9" class="st222" width="1.2" height="30.4"/>
						<rect x="249.6" y="200.9" class="st223" width="1.2" height="30.4"/>
						<rect x="250.8" y="200.9" class="st224" width="1.2" height="30.4"/>
						<rect x="252" y="200.9" class="st225" width="1.2" height="30.4"/>
						<rect x="253.2" y="200.9" class="st226" width="1.2" height="30.4"/>
						<rect x="254.4" y="200.9" class="st227" width="1.2" height="30.4"/>
						<rect x="255.7" y="200.9" class="st228" width="1.2" height="30.4"/>
						<rect x="256.9" y="200.9" class="st229" width="1.2" height="30.4"/>
						<rect x="258.1" y="200.9" class="st230" width="1.2" height="30.4"/>
						<rect x="259.3" y="200.9" class="st231" width="1.2" height="30.4"/>
						<rect x="260.6" y="200.9" class="st232" width="1.2" height="30.4"/>
						<rect x="261.8" y="200.9" class="st233" width="1.2" height="30.4"/>
						<rect x="263" y="200.9" class="st234" width="1.2" height="30.4"/>
						<rect x="264.2" y="200.9" class="st1" width="1.2" height="30.4"/>
						<rect x="265.4" y="200.9" class="st235" width="1.2" height="30.4"/>
						<rect x="266.7" y="200.9" class="st236" width="1.2" height="30.4"/>
						<rect x="267.9" y="200.9" class="st236" width="1.1" height="30.4"/>
						<rect x="269" y="200.9" class="st237" width="1.1" height="30.4"/>
						<rect x="270.1" y="200.9" class="st237" width="0.2" height="30.4"/>
					</g>
				</g>
			</g>
		</g>
		<g id="g185">
			<g id="g187">
				<g id="path196">
					<g>
						<defs>
							<path id="SVGID_00000164473353444935940670000016858748021662044606_" d="M603.4,160.3l-4.1,16.8l-3.7-18.7l-50.5-11.1
								l0.4,28.1l7.6,1.6l-0.6,5.1c0,0-0.2,0-0.2-0.2c-9.5-4.9-21.2-5.5-32.1-1.2c-3.7,1.4-7.2,3.3-10.3,5.5l-7.6-48.1h-33.5
								l-0.8,5.5h-35.3l-4.1,24.7l-2.9-3.7c-8.6-10.5-21-16.2-34.7-16.6l30-16l-21-31.1l-37.8,43.6l6.6,8c-6,2.5-11.1,5.8-15.4,9.9
								l-32.5-28.8l-11.3,21.6l0.4-21l-50.6,16.2l1.4,27.1l8.6-2.3l1.2,13.8c-9.9-4.5-21.8-4.3-32.7,0.4c-3.3,1.4-6.4,3.1-9,5.1
								c1.8-8.4,1.4-16.6-1.8-24c-3.7-8.6-10.5-16-18.5-20.5c-5.8-3.9-12.5-6.2-19.7-7c-17.5-3.1-38.6,0-59.3,8.8
								c-7.6,3.3-14.8,7-21.2,11.1l-8,5.1l4.9,8.2l15.2,25.9l4.7,7.8l8.2-4.1l1.2-0.6l37.8,84.1l3.7,8l8.4-2.7l20.3-6.6l9-2.9
								l-2.3-9l-10.9-41.4c3.1-2.3,6-4.7,8.6-7.4c-0.6,4.9-0.2,10.1,1,14.8c2.9,10.1,9.5,18.1,18.7,22.4c9.9,4.7,22,4.7,33.1,0
								c5.5-2.5,10.7-5.8,14.8-10.1l1.4,16.6l35.7-5.3v-32.1l74.5,37V235c3.1-0.2,6-0.8,9-1.4c8.2-2.1,15.2-4.7,21.6-8.4l-3.1,19.1
								l40.3,6.4l2.3-14.6l10.5,19.5l6.4-12.3l2.3,20.3l45.6,8l-2.5-15.4c6.2,0.6,12.7-0.2,19.1-2.5c1.4-0.6,3.1-1.2,4.3-2.1
								l-1.8,16.4l30.4,4.3l0.2,12.5l31.6,9.9l41.2-124.2L603,159.9l0,0L603.4,160.3L603.4,160.3L603.4,160.3z M425.2,178.8l2.1-2.3
								l-2.5,15.6l-6.6-6l7-7.4V178.8L425.2,178.8z M398.6,114.7l11.1,15l-31.6,15.6l-2.3-3.3L398.6,114.7z M189.4,230.5l12.5,48.4
								l-20.3,6.6l-42-93.7c-2.3,1.2-6.6,3.3-10.3,5.1l-15.2-25.7c6-3.9,12.7-7.2,19.7-10.3c19.7-8.4,38.6-10.9,53.6-8.2
								c5.3,0.6,10.9,2.3,15.8,5.5c6.8,3.9,11.9,9.2,15,16.2c7.4,16.8-4.7,41.1-29,55.8l0,0L189.4,230.5L189.4,230.5L189.4,230.5z
								 M283.2,221.9c-0.2,7.2-2.9,14.4-7.4,20.5c-4.3,6-10.1,10.7-17.1,13.8c-17.7,7.6-35.3,0-40.1-16.8
								c-4.5-16.2,6.2-35.5,23.2-42.9c10.9-4.7,22-3.5,29.8,1.8c4.9,3.3,8.6,8.2,10.3,14.4c0.2,0.6,0.4,1.4,0.4,2.1
								c0.8,2.5,0.8,4.9,0.8,7.2L283.2,221.9L283.2,221.9L283.2,221.9z M379.5,256.2l-74.1-37l0.2,38.8l-19.1,2.7l-1.4-16
								c6-10.1,8-22.2,4.9-33.1c-1.6-6-4.7-11.3-9-15.4l-2.7-32.7l-8.6,2.3l-0.4-8.2l30.8-9.2l1.8,31.6l22.6-31.8l22.4,21.2
								l-31,32.7l29.2,11.5c3.3,6.2,8.2,11.3,14.4,15.2c6,3.7,12.9,6,20.1,6.6v21l0,0L379.5,256.2L379.5,256.2L379.5,256.2z
								 M341.1,202.4l-10.3-3.9l9.7-9.2C339.9,193.6,340.1,197.9,341.1,202.4z M421.6,212.3c-7.2,6-15.2,9.7-25.9,12.3
								c-2.3,0.6-4.7,1-6.8,1c-17.1,1.6-31.2-6.2-36.6-18.7c-0.6-1.4-1.2-3.1-1.6-4.7c-2.5-10.7-0.4-20.1,4.9-27.7
								c1.4-2.3,3.3-4.1,5.3-6c4.9-4.5,11.3-7.6,18.5-9.5c16.2-3.9,30.4,1,39.2,11.7l-30.8,32.9c2.1,0.4,5.3-0.2,7.8-0.8
								c7.4-1.8,11.5-5.8,15-9.9l12.3,11.1l3.7,3.3c-1.6,1.8-3.3,3.5-5.1,4.9L421.6,212.3L421.6,212.3L421.6,212.3z M487,256.1
								l-6.8-44.4l-9.5,24.4l-14.2-30.6h-0.2l-5.5,35.5l-23.6-4.1l3.3-19.7c0.8-0.8,1.8-1.6,2.7-2.7l7.6-7.8l-7.4-6.8l8-47.2h23.8
								l6,32.7l6.8-37.8h17.1l7.2,45.9c-9,10.3-13.4,24-10.5,36.8c2.3,9.9,8.4,17.7,17.1,22.4c0.8,0.4,1.8,0.8,2.7,1.2l0.8,6
								L487,256.1L487,256.1L487,256.1L487,256.1z M545.9,241.5c-2.7,1.8-5.5,3.5-8.6,4.5c-6.2,2.3-12.1,2.9-17.7,1.6
								c-3.7-0.8-7.2-2.3-10.3-4.3c-4.7-3.5-8.2-8.4-9.9-14.8c-1.8-7.6-0.2-15.8,3.9-23c2.1-3.5,4.7-6.8,7.8-9.7
								c3.5-3.1,7.6-5.8,11.9-7.4c10.5-3.9,20.8-2.5,27.9,2.7c2.7,1.8,4.9,4.3,6.6,7.2c1.2,2.3,2.3,4.7,2.9,7.4
								c2.3,9.2-0.4,19.1-6.2,26.9c-1.8,3.5-4.9,6.4-8.4,8.8l0,0L545.9,241.5L545.9,241.5L545.9,241.5z M599.3,283.3l-17.5-5.1
								l-1.4-64.4l-8.8,49.6l-19.1-3.1l1.4-14.4c12.5-10.5,19.1-27.1,15.4-42.3c-1.6-6.6-4.9-12.5-9.9-16.8l1.6-16.8l-7.2-1.8l0.2-9
								l32.9,6.6l11.1,52.3l11.3-47.1l25.1,5.5l-35.1,106.7l0,0L599.3,283.3L599.3,283.3L599.3,283.3z"/>
						</defs>
						<clipPath id="SVGID_00000062875702048345718520000011990711385598336648_">
							<use xlink:href="#SVGID_00000164473353444935940670000016858748021662044606_"  style="overflow:visible;"/>
						</clipPath>
						<g style="clip-path:url(#SVGID_00000062875702048345718520000011990711385598336648_);">
							<g>
								<rect x="552.4" y="159.1" class="st1" width="16.4" height="124.2"/>
								<rect x="568.8" y="159.1" class="st235" width="20.4" height="124.2"/>
								<rect x="589.2" y="159.1" class="st236" width="20.4" height="124.2"/>
								<rect x="609.5" y="159.1" class="st236" width="18.3" height="124.2"/>
								<rect x="627.7" y="159.1" class="st237" width="6.6" height="124.2"/>
								<rect x="497.7" y="184.5" class="st232" width="10.1" height="64.2"/>
								<rect x="507.8" y="184.5" class="st233" width="20.4" height="64.2"/>
								<rect x="528" y="184.5" class="st234" width="20.4" height="64.2"/>
								<rect x="548.4" y="184.5" class="st1" width="14.3" height="64.2"/>
								<rect x="427.2" y="147.6" class="st229" width="19.5" height="112.3"/>
								<rect x="446.6" y="147.6" class="st230" width="20.4" height="112.3"/>
								<rect x="467" y="147.6" class="st231" width="20.4" height="112.3"/>
								<rect x="487.4" y="147.6" class="st232" width="20.4" height="112.3"/>
								<rect x="507.8" y="147.6" class="st233" width="4.5" height="112.3"/>
								<rect x="348.2" y="155.2" class="st225" width="17.1" height="72"/>
								<rect x="365.2" y="155.2" class="st226" width="20.4" height="72"/>
								<rect x="385.6" y="155.2" class="st227" width="20.4" height="72"/>
								<rect x="406" y="155.2" class="st228" width="20.4" height="72"/>
								<rect x="426.3" y="155.2" class="st229" width="0.3" height="72"/>
								<rect x="330.7" y="189.2" class="st224" width="10.3" height="13.1"/>
								<rect x="269.2" y="148.2" class="st221" width="14.7" height="112.5"/>
								<rect x="283.9" y="148.2" class="st222" width="20.4" height="112.5"/>
								<rect x="304.2" y="148.2" class="st223" width="20.4" height="112.5"/>
								<rect x="324.5" y="148.2" class="st224" width="20.4" height="112.5"/>
								<rect x="344.9" y="148.2" class="st225" width="20.4" height="112.5"/>
								<rect x="365.2" y="148.2" class="st226" width="14.2" height="112.5"/>
								<rect x="214.2" y="191.6" class="st218" width="8.6" height="72"/>
								<rect x="222.8" y="191.6" class="st219" width="20.4" height="72"/>
								<rect x="243.1" y="191.6" class="st220" width="20.4" height="72"/>
								<rect x="263.5" y="191.6" class="st221" width="19.7" height="72"/>
								<rect x="114.3" y="150.2" class="st209" width="6.8" height="135.3"/>
								<rect x="121.1" y="150.2" class="st214" width="20.4" height="135.3"/>
								<rect x="141.3" y="150.2" class="st215" width="20.4" height="135.3"/>
								<rect x="161.7" y="150.2" class="st216" width="20.4" height="135.3"/>
								<rect x="182.1" y="150.2" class="st217" width="20.4" height="135.3"/>
								<rect x="202.5" y="150.2" class="st218" width="20.4" height="135.3"/>
								<rect x="222.8" y="150.2" class="st219" width="2.9" height="135.3"/>
								<rect x="375.7" y="114.7" class="st226" width="9.9" height="30.6"/>
								<rect x="385.6" y="114.7" class="st227" width="20.4" height="30.6"/>
								<rect x="406" y="114.7" class="st228" width="3.6" height="30.6"/>
								<rect x="418.1" y="176.4" class="st228" width="8.1" height="15.6"/>
								<rect x="426.3" y="176.4" class="st229" width="0.9" height="15.6"/>
								<rect x="100.7" y="100.9" class="st209" width="20.4" height="196.4"/>
								<rect x="121.1" y="100.9" class="st214" width="20.4" height="196.4"/>
								<rect x="141.3" y="100.9" class="st215" width="20.4" height="196.4"/>
								<rect x="161.7" y="100.9" class="st216" width="20.4" height="196.4"/>
								<rect x="182.1" y="100.9" class="st217" width="20.4" height="196.4"/>
								<rect x="202.5" y="100.9" class="st218" width="20.4" height="196.4"/>
								<rect x="222.8" y="100.9" class="st219" width="20.4" height="196.4"/>
								<rect x="243.1" y="100.9" class="st220" width="20.4" height="196.4"/>
								<rect x="263.5" y="100.9" class="st221" width="20.4" height="196.4"/>
								<rect x="283.9" y="100.9" class="st222" width="20.4" height="196.4"/>
								<rect x="304.2" y="100.9" class="st223" width="20.4" height="196.4"/>
								<rect x="324.5" y="100.9" class="st224" width="20.4" height="196.4"/>
								<rect x="344.9" y="100.9" class="st225" width="20.4" height="196.4"/>
								<rect x="365.2" y="100.9" class="st226" width="20.4" height="196.4"/>
								<rect x="385.6" y="100.9" class="st227" width="20.4" height="196.4"/>
								<rect x="406" y="100.9" class="st228" width="20.4" height="196.4"/>
								<rect x="426.3" y="100.9" class="st229" width="20.4" height="196.4"/>
								<rect x="446.6" y="100.9" class="st230" width="20.4" height="196.4"/>
								<rect x="467" y="100.9" class="st231" width="20.4" height="196.4"/>
								<rect x="487.4" y="100.9" class="st232" width="20.4" height="196.4"/>
								<rect x="507.8" y="100.9" class="st233" width="20.4" height="196.4"/>
								<rect x="528" y="100.9" class="st234" width="20.4" height="196.4"/>
								<rect x="548.4" y="100.9" class="st1" width="20.4" height="196.4"/>
								<rect x="568.8" y="100.9" class="st235" width="20.4" height="196.4"/>
								<rect x="589.2" y="100.9" class="st236" width="20.4" height="196.4"/>
								<rect x="609.5" y="100.9" class="st236" width="18.3" height="196.4"/>
								<rect x="627.7" y="100.9" class="st237" width="18.3" height="196.4"/>
							</g>
						</g>
					</g>
				</g>
			</g>
		</g>
	</g>
</g>
</svg>
