<?xml version="1.0" encoding="utf-8"?>
<!-- Generator: Adobe Illustrator 27.0.0, SVG Export Plug-In . SVG Version: 6.00 Build 0)  -->
<svg version="1.1" id="Capa_1" xmlns="http://www.w3.org/2000/svg" xmlns:xlink="http://www.w3.org/1999/xlink" x="0px" y="0px"
	 viewBox="0 0 1694 432" style="enable-background:new 0 0 1694 432;" xml:space="preserve">
<style type="text/css">
	.st0{fill:#FFFFFF;}
	.st1{fill:#09234E;}
	.st2{enable-background:new    ;}
	.st3{fill:#5B5B5C;}
	.st4{fill:#0A234F;}
	.st5{fill:#BCBDBE;}
	.st6{fill:#BDBDBE;}
	.st7{fill:#0C4DA1;}
	.st8{fill:#073375;}
	.st9{fill:#0E4EA2;}
	.st10{fill:#B5E3FB;}
	.st11{fill:#063375;}
	.st12{fill:#FCFCFC;}
	.st13{fill:#0C2550;}
	.st14{fill:#FC1E27;}
</style>
<path class="st0" d="M59.6,0h1574.9c32.9,0,59.6,26.7,59.6,59.6v312.9c0,32.9-26.7,59.6-59.6,59.6H59.6C26.7,432,0,405.3,0,372.4
	V59.6C0,26.7,26.7,0,59.6,0z"/>
<polygon class="st1" points="216.1,149.5 230.3,163.6 177.9,216 230.3,268.4 216.1,282.5 149.6,216 "/>
<g class="st2">
	<path class="st1" d="M1112.9,221.2c3.8,5.1,5.6,11.4,5.6,18.9c0,6.9-1.7,13.2-5,18.7c-3.3,5.5-8,9.8-14,12.8s-12.8,4.5-20.5,4.5
		h-53.5V155.9h42.6c7.3,0,13.8,1.4,19.7,4.2c5.8,2.8,10.3,6.6,13.6,11.5c3.2,4.9,4.8,10.6,4.8,17c0,8.5-3,15.6-8.9,21.1
		C1103.9,212.2,1109.2,216,1112.9,221.2z M1049.2,178.1v24.4h16.9c5,0,8.8-1.1,11.6-3.3c2.7-2.2,4.1-5.2,4.1-9
		c0-3.8-1.4-6.7-4.1-8.9c-2.7-2.2-6.6-3.2-11.6-3.2H1049.2z M1089.8,250c3-2.6,4.5-6.1,4.5-10.7c0-4.4-1.5-8-4.5-10.6
		c-3-2.6-7.2-3.9-12.6-3.9h-28v29.1h28C1082.6,253.9,1086.8,252.6,1089.8,250z"/>
</g>
<g class="st2">
	<path class="st1" d="M1208.1,260.4H1159l-6.7,15.7h-26.4l53.7-122.3h8.2l53.5,122.3h-26.4L1208.1,260.4z M1183.5,199.6l-16,38.6h32
		L1183.5,199.6z"/>
</g>
<g class="st2">
	<path class="st1" d="M1279.2,270.1c-9.8-5.5-17.5-13-23.1-22.5c-5.6-9.5-8.5-20-8.5-31.6c0-11.5,2.8-22.1,8.6-31.6
		c5.7-9.5,13.4-17,23.2-22.5c9.8-5.5,20.5-8.2,32.3-8.2c11.4,0,21.7,2.6,31,7.9c9.3,5.3,16.6,12.5,21.9,21.8l-18.6,13
		c-8.5-13.7-20-20.6-34.4-20.6c-7.4,0-14,1.7-19.9,5.2c-5.9,3.4-10.5,8.2-13.8,14.3c-3.3,6.1-5,13-5,20.8c0,7.8,1.7,14.6,5,20.7
		c3.3,6,7.9,10.7,13.8,14.1c5.9,3.4,12.5,5.1,19.9,5.1c14.4,0,25.9-6.9,34.4-20.6l18.6,13c-5.2,9.3-12.5,16.6-21.8,21.8
		c-9.3,5.3-19.8,7.9-31.3,7.9C1299.7,278.2,1288.9,275.5,1279.2,270.1z"/>
	<path class="st1" d="M1461.6,276.1l-51.5-62.6v62.6h-24.6V155.9h24.6v55.7l45.9-55.7h29.3l-46,56.6l52.1,63.5H1461.6z"/>
</g>
<g>
	<path class="st3" d="M479.4,370.3c-1.1-1.1-2.5-0.7-3.8-0.8c-68.2-7-124.2-59.3-135.8-126.9c-14.3-83.7,40.7-162.8,124.1-178.2
		c61.4-11.4,124.2,15.8,158,68.4c1.1,1.8,0.8,2.6-0.5,4c-7.4,7.3-14.7,14.6-22.1,22c-0.6,0.6-1.4,1-2.1,1.5c0.8,1.2,1.5,0.8,2.1,0.8
		c10.7,0,21.4,0,32.1,0.1c1.7,0,2.3-0.6,2.9-2c22-51.6,60.3-83.7,115.3-94.5c81.8-16.1,162.4,38.3,179.2,119.9
		c1.2,6.1,2.2,12.3,2.8,18.5c0.1,0.6-0.2,1.3,0.5,1.7V228c-0.8,0.4-0.5,1.1-0.6,1.7c-0.6,5.2-1.3,10.4-2.2,15.6
		c-12.6,66.3-68.2,117.3-135.3,124.1c-1.4,0.1-3-0.2-4.3,0.9h-23c-0.5-0.8-1.3-0.5-2-0.5c-5.1-0.5-10.2-1-15.2-2.1
		c-53.2-11.2-91.2-41.5-113.7-91c-0.3-0.6-0.3-1.4-1.2-1.7c-0.2,0.5-0.5,1-0.7,1.5c-24.2,52.6-64.8,83.5-122.1,92.5
		c-3.1,0.5-6.3,0.3-9.4,1.3L479.4,370.3L479.4,370.3z M634.8,258.4c11.7,36.3,33.2,64.9,65.8,84.6c32.6,19.8,68,26.1,105.3,18.9
		c66.1-12.7,115.9-67.6,120.3-136.7c4.3-67.7-37.8-131.6-106.8-151.9c-32.8-9.7-65.5-8.2-97.2,4.8c-43.9,18.1-72.7,50.5-87.5,96.1
		c-0.8-2.2-1.4-3.8-1.8-5.5c-0.4-1.7-1.3-2.2-3-2.2c-14.5,0.1-29.1,0.1-43.6,0c-0.8,0-1.7,0.2-3.1-0.6c1-0.7,1.8-1.1,2.4-1.8
		c9.6-9.5,19.1-19.1,28.7-28.6c1.2-1.2,1.5-2.1,0.4-3.6c-3.8-5.6-8-11-12.6-15.9c-13.6-14.8-29.5-26.5-47.7-35
		c-17.1-7.9-35.1-12.4-53.9-13.6c-12.4-0.8-24.7,0-36.9,2.4c-27,5.4-51,17.2-71.5,35.7c-13.7,12.3-24.8,26.8-33.1,43.3
		c-9.2,18.1-14.4,37.4-15.7,57.7c-0.8,11.7-0.2,23.4,2,35c3,16.2,8.2,31.6,16.2,46c5.7,10.3,12.4,19.9,20.4,28.5
		c13.8,15,29.9,26.8,48.4,35.2c16.7,7.6,34.3,12,52.6,13.1c12.1,0.8,24.2,0,36.2-2.3c16.4-3.1,31.8-8.7,46.3-16.9
		c16.1-9.2,30.1-20.9,41.8-35.3c8.8-10.9,16.1-22.8,21.6-35.7C630.9,269.1,632.7,263.7,634.8,258.4L634.8,258.4L634.8,258.4z"/>
	<path class="st4" d="M634.8,258.4c-2.1,5.3-3.8,10.7-6,15.9c-5.5,12.9-12.7,24.8-21.6,35.7c-11.7,14.4-25.7,26.1-41.8,35.3
		c-14.5,8.2-29.9,13.8-46.3,16.9c-12,2.3-24.1,3-36.2,2.3c-18.3-1.1-35.8-5.5-52.6-13.1c-18.6-8.4-34.7-20.2-48.4-35.2
		c-8-8.6-14.7-18.2-20.4-28.5c-8-14.5-13.2-29.8-16.2-46c-2.1-11.6-2.7-23.3-2-35c1.3-20.2,6.5-39.5,15.7-57.7
		c8.3-16.5,19.4-30.9,33.1-43.3c20.5-18.5,44.4-30.3,71.5-35.7c12.2-2.4,24.5-3.2,36.9-2.4c18.8,1.2,36.8,5.6,53.9,13.6
		c18.3,8.5,34.1,20.2,47.7,35c4.6,5,8.7,10.3,12.6,15.9c1.1,1.6,0.8,2.4-0.4,3.6c-9.6,9.5-19.1,19.1-28.7,28.6
		c-0.6,0.6-1.4,1.1-2.4,1.8c1.4,0.8,2.3,0.6,3.1,0.6c14.5,0,29.1,0.1,43.6,0c1.8,0,2.6,0.5,3,2.2c0.4,1.7,1.1,3.3,1.8,5.5
		c14.8-45.6,43.5-78,87.5-96.1c31.7-13,64.3-14.5,97.2-4.8c69,20.3,111.2,84.2,106.8,151.9c-4.4,69.1-54.2,124-120.3,136.7
		c-37.3,7.2-72.7,0.8-105.3-18.9C668,323.3,646.5,294.7,634.8,258.4L634.8,258.4L634.8,258.4z M560,176.7c-0.1-0.2-0.3-0.5-0.4-0.8
		c0.6-0.5,1.4-0.9,1.9-1.4c13.3-13.2,26.5-26.5,39.9-39.8c1.2-1.2,1.5-2,0.3-3.5c-4.7-5.8-9.5-11.4-15-16.4
		c-34.2-30.8-74.2-43.1-119.4-35C391,93.3,341.4,166.1,355.7,242.1c13,69.3,77.5,118.3,147.8,112c35.4-3.2,65.8-17.3,89.7-43.5
		c34.5-37.8,44.8-82,32.5-131.6c-0.5-1.8-1.3-2.3-3.1-2.3c-20.1,0.1-40.1,0-60.2,0H560z M916.4,216c0-76.4-62-138.4-138.4-138.5
		c-76.8-0.1-138.9,61.8-138.9,138.5c0,76.5,62,138.6,138.5,138.6C854.4,354.7,916.4,292.7,916.4,216L916.4,216L916.4,216z"/>
	<path class="st5" d="M560,176.7h2.3c20.1,0,40.1,0,60.2,0c1.8,0,2.7,0.4,3.1,2.3c12.4,49.6,2,93.8-32.5,131.6
		c-23.9,26.2-54.3,40.4-89.7,43.5c-70.2,6.3-134.7-42.7-147.8-112C341.4,166.1,391,93.3,467.2,79.8c45.3-8,85.2,4.2,119.4,35.1
		c5.5,5,10.4,10.6,15,16.4c1.2,1.5,1,2.3-0.3,3.5c-13.3,13.2-26.6,26.5-39.9,39.8c-0.6,0.6-1.3,1-1.9,1.4
		C559.7,176.2,559.9,176.5,560,176.7L560,176.7L560,176.7z M432.4,232.1l-1.4-6.1c-0.6-6.3-0.8-12.6,0-18.9
		c3.6-28,28.5-51.2,56.8-52.5c21.4-1,39,6.8,52.6,23.4c0.8,0.9,1.2,1.7,2.5,0.4c14.9-15,29.9-30,44.9-44.9c1.1-1.1,0.9-1.8,0-2.7
		c-2.1-2.2-4.1-4.5-6.3-6.6c-31.9-29.8-69.4-41.6-112.5-34.2c-27.3,4.6-50.6,17.5-69.7,37.5c-19.9,20.9-31.4,45.8-34.7,74.3
		c-1.4,11.8-1.1,23.6,1.1,35.3c0.2,2.1,0.5,4.2,1.1,6.2c0.3,1.5,0.7,2.9,1,4.4c0.5,2,0.9,4.1,1.8,6c0.9,3.5,2.1,6.9,3.6,10.2
		c0.2,0.7,0.4,1.4,0.7,2c7.9,18.6,19.5,34.6,35,47.5c27.1,22.7,58.4,32.8,93.7,30c24.2-1.9,46.1-10.4,65.6-24.8
		c8.3-6.1,15.9-13.1,22.2-21.3c6.1-6.9,11-14.5,15.1-22.6c7.5-14.6,12.2-29.9,13.6-46.3l0.6-6.3c0-1.5,0-3.1,0.1-4.6
		c0-2.1-0.1-4.3-0.1-6.4c0.3-1.4-0.4-2.7-0.4-4c0.1-5.9-1.2-11.6-2.1-17.3c-0.3-2.3-1.3-2.9-3.6-2.9c-40.7,0.1-81.3,0.1-122,0.1
		c-0.4,0-0.8,0-1.2,0c-1.2-0.1-1.7,0.4-1.7,1.6c0.1,9.9,0.1,19.8,0.1,29.7c0,2.1-0.1,4.2-0.1,6.3c0,1.6,0,3.1,0,4.7
		c0,2.1,0.1,4.1,0.1,6.2c0,1.6,0,3.2-0.1,4.8c-0.2,2,0.6,2.4,2.4,2.3c17.6-0.1,35.1,0,52.7,0c0.6,0,1.1,0,1.7,0c1,0,1.4,0.3,0.8,1.2
		c-0.3,0.6-0.7,1.3-1,1.9c-17.5,31.5-58.4,41.2-88.3,21c-9.3-6.3-16.2-14.6-21.2-24.6c-0.8-2-1.5-4-2.3-5.9
		C433.3,235,432.8,233.6,432.4,232.1L432.4,232.1L432.4,232.1z M523.7,176.7c-10-9.4-31.6-16.5-52.7-7.1
		c-19.8,8.8-32.1,30-29.8,51.7c2.3,21.9,18.7,40,39.9,44.6c19.5,4.2,38.3-4.6,44.8-12.6h-2.7c-13.9,0-27.8-0.1-41.7,0.1
		c-2.2,0-3-0.4-3-2.8c0.1-23.7,0.1-47.4,0-71.1c0-2.3,0.7-2.7,2.8-2.7C495.3,176.8,509.3,176.7,523.7,176.7L523.7,176.7L523.7,176.7
		z"/>
	<path class="st6" d="M916.4,216c0,76.7-62,138.6-138.8,138.6C701,354.6,639,292.6,639.1,216c0-76.7,62.2-138.6,138.9-138.5
		C854.4,77.6,916.4,139.6,916.4,216L916.4,216z M902.4,244.4c1-2,1.2-4.1,1.4-6.3c2.2-11,2.6-22,1.5-33.1c-3-32.3-16.1-60-39.9-82.1
		c-30.7-28.5-67.4-40.3-108.7-33c-50,8.8-83.5,38.3-100.7,86.1c-4.1,11.5-6.1,23.4-6.3,35.7c-0.2,2.1-0.3,4.1-0.1,6.2l0,4.5
		c0.2,2.1,0.4,4.1,0.6,6.2c1,12.2,4,24,8.6,35.4c4.1,10.2,9.2,19.8,16.1,28.4c2.2,3.2,4.6,6.2,7.3,9c2,2.5,4.2,4.8,6.6,6.9
		c2.2,2.4,4.7,4.6,7.3,6.5c0.5,0.4,0.9,0.7,1.4,1.1c2.5,2.4,5.3,4.3,8.2,6.2c3.9,2.8,7.9,5.3,12.3,7.3c1.7,1.2,3.5,2.1,5.4,2.8
		c10.8,5.1,22.2,8.8,34.1,10.5c4.3,0.9,8.7,1.3,13.1,1.5c15.5,0.8,30.8-1,45.6-5.8c10.5-3.3,20.5-7.6,29.6-13.8
		c11.4-7,21.3-15.5,29.7-25.9c2.4-2.5,4.5-5.2,6.3-8.1c7.2-9.7,12.7-20.3,16.5-31.7c1.3-3.3,2.5-6.5,3-10.1
		C902.3,247.4,902.4,246,902.4,244.4L902.4,244.4L902.4,244.4z"/>
	<path class="st1" d="M365.6,237.3c-2.2-11.7-2.5-23.5-1.1-35.3c3.3-28.6,14.8-53.5,34.7-74.3c19.1-20,42.4-32.9,69.7-37.5
		c43.1-7.3,80.6,4.5,112.5,34.2c2.2,2.1,4.2,4.4,6.3,6.6c0.9,0.9,1.1,1.6,0,2.7c-15,14.9-30,29.9-44.9,44.9
		c-1.3,1.3-1.7,0.5-2.5-0.4c-13.6-16.6-31.1-24.4-52.6-23.4c-28.2,1.3-53.2,24.5-56.8,52.5c-0.8,6.3-0.6,12.6,0,18.9
		c-1.4,0.2-2.8,0.3-4.2,0.5c-11.3,1.9-22.7,3.7-34,5.6C383.7,233.8,374.7,235.6,365.6,237.3L365.6,237.3z M483.2,124.5
		c-1.2,0.2-2.1,0.9-2.1,2.2c0,1.4,0.9,2.2,2.3,2.1c1.3-0.1,2-0.9,1.9-2.2C485.3,125.2,484.4,124.6,483.2,124.5L483.2,124.5
		L483.2,124.5z M455.4,149.8c-0.2-1.1-0.8-2-2.1-2s-2.1,0.8-2.1,2.1c0,1.4,0.8,2.2,2.2,2.2C454.7,152,455.3,151.2,455.4,149.8
		L455.4,149.8z M391.9,206.6c-0.9,0.2-1.3,0.7-1.3,1.5c0,0.9,0.6,1.5,1.6,1.4c0.8-0.1,1.3-0.7,1.1-1.5
		C393.1,207.2,392.7,206.7,391.9,206.6L391.9,206.6L391.9,206.6z M565.5,121c0-0.8-0.4-1.4-1.2-1.5c-0.9-0.1-1.5,0.4-1.6,1.3
		c-0.1,0.8,0.4,1.4,1.2,1.5C564.9,122.4,565.4,121.8,565.5,121z M417.3,144.4c0.8-0.1,1.4-0.6,1.3-1.4c0-0.9-0.7-1.5-1.6-1.4
		c-0.8,0.1-1.3,0.7-1.2,1.5C415.9,143.9,416.5,144.3,417.3,144.4L417.3,144.4L417.3,144.4z M434.4,172.9c0.9-0.1,1.5-0.6,1.5-1.5
		c0-0.8-0.6-1.3-1.4-1.3c-0.9,0-1.5,0.6-1.4,1.5C433,172.4,433.6,172.8,434.4,172.9L434.4,172.9L434.4,172.9z M470.2,139.5
		c-0.1-0.8-0.5-1.4-1.4-1.3c-1,0-1.5,0.6-1.4,1.6c0.1,0.8,0.6,1.3,1.5,1.2C469.7,140.9,470.2,140.4,470.2,139.5L470.2,139.5
		L470.2,139.5z M418.7,123.2c-0.1-0.8-0.6-1.3-1.4-1.3c-0.8,0-1.4,0.5-1.4,1.3c0,0.9,0.5,1.5,1.5,1.5
		C418.2,124.6,418.6,124,418.7,123.2L418.7,123.2L418.7,123.2z M409,219.9c0.9-0.1,1.4-0.5,1.4-1.3c0-0.8-0.5-1.4-1.3-1.4
		c-0.9-0.1-1.5,0.5-1.5,1.4C407.7,219.4,408.2,219.8,409,219.9L409,219.9z M538.9,128.4c-0.9,0-1.4,0.4-1.5,1.3s0.4,1.4,1.2,1.5
		c1,0.1,1.5-0.4,1.6-1.4C540.2,129,539.7,128.6,538.9,128.4L538.9,128.4L538.9,128.4z M520.6,125.9c-0.1-0.8-0.5-1.4-1.3-1.4
		c-0.8-0.1-1.4,0.4-1.5,1.2c-0.1,0.9,0.5,1.5,1.4,1.5C520.1,127.2,520.5,126.6,520.6,125.9L520.6,125.9L520.6,125.9z M405.9,163.5
		c0-0.8-0.5-1.4-1.3-1.4c-0.8-0.1-1.4,0.4-1.5,1.2c-0.1,0.9,0.4,1.5,1.4,1.6C405.3,164.8,405.8,164.3,405.9,163.5L405.9,163.5
		L405.9,163.5z M493.8,122.2c-0.7,0-1.4,0.2-1.3,1c0,0.7,0.6,1.3,1.3,1.2c0.6-0.1,1.5-0.3,1.4-1.3
		C495.2,122.3,494.5,122.1,493.8,122.2z"/>
	<path class="st7" d="M590.6,297.5c-6.3,8.2-13.9,15.1-22.2,21.3c-19.5,14.5-41.4,22.9-65.6,24.8c-35.3,2.8-66.6-7.3-93.7-30
		c-15.5-13-27.1-28.9-35-47.5c-0.3-0.7-0.5-1.4-0.7-2c12.8-0.8,25.6-1.4,38.7,1c-1,1.6-2.1,1.8-3.1,2.3c-3,1.4-6.2,2-9.3,3.1
		c-1.2,0.5-2.8,0.8-2.6,2.6c0.2,1.8,1.6,2.1,3.1,2.4c6.8,1.3,13.6,1,20.4,1.3c12.4,0.6,24.9-0.3,37.3-0.4c2.3,0,4.7,0.4,6.9-0.1
		c3.3-0.7,4.8,0,5.8,3.6c1.4,4.9,6.1,6.6,10.7,7.9c5.7,1.6,11.5,2.1,17.4,1.5c1.4-0.1,3.6,1,4.1-1.2c0.5-2.1-1.8-2-2.9-2.8
		c-0.5-0.4-1.5-0.6-1.4-1.4c0.1-0.7,1.1-0.7,1.8-0.9c5.5-1.6,11.2-1.4,16.8-1.8c8.6-0.5,17.2,0.3,25.8,1c1.7,0.1,3.7,0.2,5.7,1.4
		c-4.5,1.2-8.8,1.9-13,2.4c-4.6,0.5-9.1,1.4-13.6,2.4c-1.1,0.3-2.2,1-2.1,2.2c0.1,1.4,1.3,1.6,2.6,1.6c0.8,0,1.6,0.3,2.4,0.2
		c5.6-0.5,11.3-0.5,16.9-1.1c8-0.9,16.1-1.8,24-3.5c2.2-0.5,4.9-0.8,5.7-3.3c0.5-1.5,1.4-1.7,2.4-1.8c6.7-0.5,13.5-0.7,20.2,0.1
		c0.1,0,0.1,0.2,0.2,0.4c-0.2,0.1-0.4,0.3-0.6,0.3c-16.7,4.1-33.3,8.5-49.7,13.5c-3.7,1.1-7.4,2.4-10.9,4.3c-1,0.5-2,1.2-1.8,2.6
		c0.2,1.4,1.4,1.7,2.5,1.9c2,0.4,4.2,0.5,6.2,0.1c9-1.7,17.9-3.7,26.8-5.3C574.6,299.2,582.5,297.7,590.6,297.5L590.6,297.5
		L590.6,297.5z"/>
	<path class="st8" d="M590.6,297.5c-8,0.2-15.9,1.7-23.8,3.2c-9,1.6-17.9,3.6-26.8,5.3c-2,0.4-4.1,0.4-6.2-0.1
		c-1.1-0.2-2.3-0.6-2.5-1.9c-0.2-1.3,0.8-2,1.8-2.6c3.4-1.9,7.1-3.2,10.9-4.3c16.4-5,33-9.4,49.7-13.5c0.2,0,0.4-0.2,0.6-0.3
		c-0.1-0.2-0.2-0.4-0.2-0.4c-6.7-0.8-13.5-0.6-20.2-0.1c-1,0.1-2,0.3-2.4,1.8c-0.8,2.6-3.5,2.8-5.7,3.3c-7.9,1.8-15.9,2.7-24,3.5
		c-5.6,0.6-11.3,0.7-16.9,1.1c-0.8,0.1-1.6-0.2-2.4-0.2c-1.2,0-2.4-0.2-2.6-1.6c-0.1-1.3,0.9-2,2.1-2.2c4.5-1,9-1.9,13.6-2.4
		c4.2-0.5,8.4-1.1,13-2.4c-2-1.2-4-1.2-5.7-1.4c-8.6-0.7-17.2-1.5-25.8-1c-5.6,0.4-11.3,0.2-16.8,1.8c-0.7,0.2-1.6,0.2-1.8,0.9
		c-0.2,0.8,0.9,1,1.4,1.4c1.1,0.8,3.5,0.7,2.9,2.8c-0.6,2.2-2.7,1-4.1,1.2c-5.9,0.6-11.7,0.1-17.4-1.5c-4.5-1.3-9.3-3-10.7-7.9
		c-1-3.6-2.5-4.3-5.8-3.6c-2.2,0.4-4.6,0.1-6.9,0.1c-12.4,0.1-24.9,1-37.3,0.4c-6.8-0.3-13.7,0-20.4-1.3c-1.5-0.3-2.9-0.6-3.1-2.4
		c-0.2-1.9,1.4-2.2,2.6-2.6c3-1.2,6.3-1.7,9.3-3.1c1-0.5,2.1-0.6,3.1-2.3c-13.1-2.3-25.9-1.8-38.7-1c-1.5-3.3-2.8-6.6-3.6-10.1
		c5.7-1.1,11.4-2.3,17-3.3c8.8-1.6,17.7-3.1,26.5-4.5c7.7-1.3,15.4-2.4,23-3.6c5,9.9,11.9,18.3,21.2,24.6
		c29.8,20.2,70.8,10.5,88.3-21c0.3-0.6,0.7-1.3,1-1.9c0.5-1,0.2-1.3-0.8-1.2c-0.6,0-1.1,0-1.7,0c-17.6,0-35.1,0-52.7,0
		c-1.8,0-2.7-0.4-2.4-2.3c0.2-1.6,0.1-3.2,0.1-4.8c7.9-0.8,15.8-1.8,23.7-2.4c8.2-0.6,16.3-1.2,24.5-1.9c8.4-0.7,16.8-1.1,25.2-1.4
		c7.1-0.2,14.1-0.6,21.2-1c6.4-0.4,12.7,0.1,19.1-0.4c5.5-0.4,11-0.1,16.5-0.1c-1.4,16.4-6.2,31.7-13.6,46.3
		C601.6,283,596.7,290.6,590.6,297.5L590.6,297.5L590.6,297.5z"/>
	<path class="st1" d="M523.7,176.7c-14.4,0-28.4,0-42.4-0.1c-2.1,0-2.8,0.4-2.8,2.7c0.1,23.7,0.1,47.4,0,71.1c0,2.4,0.7,2.9,3,2.8
		c13.9-0.1,27.8-0.1,41.7-0.1h2.7c-6.5,8-25.3,16.8-44.8,12.6c-21.2-4.6-37.6-22.7-39.9-44.6c-2.3-21.6,10.1-42.8,29.8-51.7
		C492,160.2,513.7,167.3,523.7,176.7L523.7,176.7L523.7,176.7z"/>
	<path class="st1" d="M489.1,218.5c0-9.9,0-19.8-0.1-29.7c0-1.3,0.4-1.8,1.7-1.6c0.4,0,0.8,0,1.2,0c40.7,0,81.3,0,122-0.1
		c2.3,0,3.2,0.6,3.6,2.9c0.8,5.8,2.2,11.4,2.1,17.3c0,1.3,0.7,2.6,0.4,4c-3.4,0.1-6.8,0.2-10.3,0.4c-7.9,0.4-15.8,0.2-23.7,0.4
		c-10,0.3-19.9,0.9-29.8,1.2c-3.1,0.1-6.2,0.2-9.3,0.4c-8.4,0.6-16.8,1.2-25.2,1.9c-4.5,0.3-9,0.7-13.5,1.1
		C501.8,217.3,495.5,217.9,489.1,218.5L489.1,218.5L489.1,218.5z M500.7,208.8c-0.2-1.2-0.9-2.1-2.2-2.1c-1.3,0-2.1,0.8-2.1,2.1
		c0,1.3,0.8,2.1,2.1,2.1C499.9,211,500.5,210.1,500.7,208.8z M525.5,212.6c-0.2-0.7-0.7-1.3-1.6-1.2c-0.8,0.1-1.3,0.6-1.3,1.4
		s0.5,1.3,1.3,1.4C524.9,214.2,525.4,213.6,525.5,212.6L525.5,212.6L525.5,212.6z"/>
	<path class="st9" d="M489.1,218.5c6.3-0.6,12.6-1.2,19-1.8c4.5-0.4,9-0.7,13.5-1.1c8.4-0.6,16.8-1.3,25.2-1.9
		c3.1-0.2,6.2-0.4,9.3-0.4c10-0.3,19.9-0.9,29.8-1.2c7.9-0.2,15.8-0.1,23.7-0.4c3.4-0.2,6.8-0.3,10.3-0.4c0,2.1,0.1,4.3,0.1,6.4
		c-0.5,0-1,0-1.4,0c-21.5,0.4-43.1,0.9-64.6,2.1c-13.5,0.8-26.9,1.8-40.3,2.9c-8.2,0.7-16.4,1.4-24.5,2.1
		C489.1,222.7,489.1,220.6,489.1,218.5L489.1,218.5L489.1,218.5z"/>
	<path class="st9" d="M619.3,228.5c-5.5,0-11-0.3-16.5,0.1c-6.4,0.5-12.8,0.1-19.1,0.4c-7.1,0.4-14.1,0.7-21.2,1
		c-8.4,0.3-16.8,0.8-25.2,1.4c-8.2,0.7-16.3,1.3-24.5,1.9c-7.9,0.6-15.8,1.6-23.7,2.4c0-2.1-0.1-4.1-0.1-6.2
		c16.1-2,32.4-3.1,48.6-4.3c15.8-1.2,31.5-1.9,47.3-2.4c11.6-0.3,23.3-0.8,34.9-0.6L619.3,228.5L619.3,228.5L619.3,228.5z"/>
	<path class="st10" d="M619.9,222.3c-11.7-0.2-23.3,0.3-34.9,0.6c-15.8,0.4-31.6,1.2-47.3,2.4c-16.2,1.2-32.5,2.3-48.6,4.3
		c0-1.6,0-3.1,0-4.7c8.2-0.7,16.4-1.5,24.5-2.1c13.4-1.1,26.9-2.1,40.3-2.9c21.5-1.2,43-1.7,64.6-2.1c0.5,0,1,0,1.4,0
		C620,219.2,619.9,220.7,619.9,222.3L619.9,222.3L619.9,222.3z"/>
	<path class="st9" d="M436.2,242.4c-7.7,1.2-15.4,2.4-23,3.6c-8.8,1.5-17.7,3-26.5,4.5c-5.7,1-11.4,2.2-17,3.3c-0.9-1.9-1.3-4-1.8-6
		c5-1,10-1.9,15-2.9c17-3.2,34-6.1,51.1-8.5C434.6,238.5,435.4,240.5,436.2,242.4L436.2,242.4L436.2,242.4z"/>
	<path class="st9" d="M365.6,237.3c9-1.7,18.1-3.4,27.1-5c11.3-2,22.7-3.8,34-5.6c1.4-0.2,2.8-0.4,4.2-0.5c0.5,2,0.9,4,1.4,6.1
		c-10.1,1.6-20.1,3.1-30.2,4.8c-11.8,2.1-23.6,4.3-35.5,6.5C366.2,241.4,365.8,239.4,365.6,237.3L365.6,237.3L365.6,237.3z"/>
	<path class="st10" d="M366.8,243.5c11.8-2.2,23.6-4.4,35.5-6.5c10-1.7,20.1-3.2,30.2-4.8c0.5,1.4,1,2.9,1.5,4.3
		c-17.1,2.4-34.1,5.3-51.1,8.5c-5,0.9-10,1.9-15,2.9C367.4,246.4,367.1,244.9,366.8,243.5L366.8,243.5L366.8,243.5z"/>
	<path class="st1" d="M649.8,211.7c0.2-12.2,2.2-24.2,6.3-35.7c17.2-47.7,50.8-77.2,100.7-86.1c41.3-7.3,78,4.5,108.7,33
		c23.8,22.1,36.8,49.8,39.9,82.1c1,11.1,0.6,22.1-1.5,33.1c-7.6-1.3-15.2-2.6-22.7-4c-14.2-2.6-28.5-4.8-42.8-7
		c0.2-1.7,0.5-3.5,0.7-5.2c4.2-46.3-42.2-80.4-85.2-62.4c-11.1,4.6-22.1,13.2-29.6,26.4c-5,8.8-7.5,18.3-8,28.3
		c-7.7-0.5-15.4-1-23.1-1.4c-9.3-0.4-18.5-0.7-27.8-1C660.1,211.7,654.9,211.7,649.8,211.7L649.8,211.7L649.8,211.7z M842.5,178.7
		c0.7,0.6,0.9,0.2,0.9-0.5c0.6-1,1-2.1-0.2-3c-1.1-0.8-2.1-0.4-2.9,0.6c-0.5,0.8-0.6,1.5,0.3,2.1c0,0.1,0.1,0.2,0.2,0.2
		C841.1,179,841.9,178.7,842.5,178.7z M867.8,202.2c-0.3-1.4-1.3-1-2.2-0.9c-0.8,0.1-1.2,0.5-1,1.4c-0.4,1.1,0.1,1.8,1.1,2.2
		c0.7,0.3,1.4,0.1,1.9-0.4C868.3,203.8,868.6,203,867.8,202.2L867.8,202.2L867.8,202.2z M776.9,89.9c-1.3,0.2-2.1,0.9-2.1,2.2
		c0,1.4,0.9,2.2,2.3,2.1c1.3-0.1,2-0.9,1.9-2.2C779,90.6,778.1,90,776.9,89.9z M689.7,188.1c1.3-0.1,2-0.8,2.1-2.1
		c0-1.3-0.7-2.1-2-2.1c-1.4,0-2.2,0.8-2.2,2.2C687.6,187.3,688.4,188,689.7,188.1L689.7,188.1L689.7,188.1z M815.9,152.5
		c-0.1-1.3-0.7-2.1-2-2.2c-1.4-0.1-2.3,0.8-2.3,2.1c0,1.3,0.8,2,2.1,2.1C815,154.5,815.7,153.8,815.9,152.5L815.9,152.5z
		 M826.3,155.2c-0.2-1.3-0.9-2.1-2.2-2.1s-2.1,0.8-2.1,2.1s0.8,2.1,2.1,2.1S826.2,156.5,826.3,155.2L826.3,155.2z M888,188
		c0.8-0.1,1.3-0.6,1.3-1.4c0-0.9-0.5-1.5-1.5-1.4c-0.8,0-1.3,0.5-1.3,1.4C886.5,187.5,887.1,188,888,188L888,188L888,188z
		 M834.1,156.7c0-0.8-0.3-1.4-1.1-1.6c-0.9-0.2-1.6,0.3-1.7,1.2c-0.1,0.8,0.4,1.4,1.2,1.5C833.3,158,833.9,157.5,834.1,156.7
		L834.1,156.7z M674.5,187.3c-0.1-0.9-0.5-1.5-1.5-1.5c-0.8,0-1.3,0.6-1.4,1.3c0,0.9,0.5,1.5,1.4,1.5
		C673.9,188.7,674.4,188.2,674.5,187.3L674.5,187.3L674.5,187.3z M870.8,151.8c-0.1-0.8-0.6-1.3-1.4-1.3c-0.8,0-1.4,0.5-1.4,1.4
		c0,0.9,0.5,1.5,1.5,1.4C870.4,153.2,870.8,152.6,870.8,151.8L870.8,151.8L870.8,151.8z M765.4,115c-0.8,0-1.4,0.4-1.5,1.2
		c-0.1,0.9,0.4,1.5,1.3,1.6c0.9,0.1,1.5-0.5,1.5-1.4C766.7,115.6,766.2,115.1,765.4,115L765.4,115L765.4,115z M729.6,158.7
		c-0.1-0.8-0.6-1.4-1.4-1.3c-0.8,0-1.4,0.5-1.4,1.4c0,0.9,0.5,1.5,1.5,1.4C729.1,160.1,729.5,159.5,729.6,158.7L729.6,158.7
		L729.6,158.7z M698.3,157.5c-0.8,0.1-1.4,0.6-1.3,1.4c0.1,0.9,0.7,1.5,1.6,1.3c0.8-0.1,1.3-0.7,1.2-1.5
		C699.7,157.9,699.2,157.4,698.3,157.5L698.3,157.5L698.3,157.5z M827.4,140.3c-0.1-0.7-0.5-1.2-1.4-1.3c-0.8,0-1.4,0.4-1.4,1.3
		c0,0.9,0.5,1.5,1.5,1.5C826.9,141.7,827.3,141.2,827.4,140.3L827.4,140.3L827.4,140.3z M774.2,99.1c-0.1-0.8-0.6-1.4-1.4-1.4
		c-1,0-1.5,0.6-1.4,1.5c0.1,0.8,0.6,1.3,1.5,1.2C773.7,100.5,774.1,99.9,774.2,99.1L774.2,99.1z M799.6,150.6
		c-0.2-0.8-0.6-1.3-1.4-1.3c-0.9,0.1-1.5,0.6-1.3,1.6c0.1,0.8,0.7,1.2,1.5,1.2C799.2,152,799.6,151.5,799.6,150.6z M758.1,140.3
		c-0.8,0.1-1.3,0.5-1.4,1.3c0,0.8,0.4,1.4,1.2,1.5c0.9,0.1,1.5-0.5,1.5-1.4C759.4,140.9,758.9,140.4,758.1,140.3L758.1,140.3
		L758.1,140.3z"/>
	<path class="st11" d="M675,292.3c-6.8-8.6-12-18.2-16.1-28.4c-4.6-11.4-7.6-23.1-8.6-35.4c9.4,0.1,18.8,0.5,28.2,0.9
		c6.4,0.3,12.8,0.4,19.1,0.5c0.4,0,0.8,0.1,1.2,0.1c6.4,0.4,12.8,0.8,19.3,1.2c0.3,0.8,0.5,1.7,0.8,2.5
		c12.3,40.2,59.9,56.7,94.3,32.6c8.5-6,15-13.8,19.8-23c2.4,0.4,4.9,0.7,7.3,1.1c9.5,1.5,19.1,3.1,28.6,4.7c3,0.5,5.9,1.1,8.9,1.7
		c-0.5,0.6-0.9,0.8-1.3,1c-0.5,0.3-1.5,0.1-1.5,0.9c0,0.7,0.7,1,1.3,1.3s1.1,0.6,1.7,0.8c6.7,2.2,13.4,3.9,20.5,3.9
		c-3.8,11.4-9.3,22-16.5,31.7c-1-0.2-2-0.3-3-0.5c-5.3-1-10.6-2.3-16-2c-1.1,0.1-2.5-0.2-2.9,1c-0.4,1.1,1,1.6,1.7,2.4
		c0.2,0.2,0.5,0.3,0.8,0.5c4.1,2.9,8.6,4.8,13.2,6.6c-8.4,10.4-18.4,18.9-29.7,25.9c-0.5,0-1.1,0-1.7,0.1c-13,3.4-26,6.4-39.2,9.2
		c-4.9,1-9.8,2-14.8,2.2c-1.3,0-2.7,0.2-3.2-1.4c-0.5-1.6,0.8-2.2,1.7-3.1c0.8-0.8,2.7-0.9,2.4-1.9c-0.4-1.4-2.4-0.6-3.6-1.2
		c-0.1-0.1-0.3,0-0.5,0c-5,0.6-9.8,1.9-13.7,5.1c-4.8,4.1-10.1,6.8-15.8,9c-11.9-1.7-23.2-5.3-34.1-10.5c1.1-1.7,3.7-1,4.9-2.8
		h-10.3c-4.4-2-8.4-4.5-12.3-7.3c0.4-0.7,1-1,1.8-0.9c2,0.2,4-0.2,5.9-0.5c3-0.5,6.2-0.8,9.1-2.8c-3.5-1.4-6.9-1.6-10.2-1.8
		c-4.9-0.4-9.9-0.1-14.8-0.1c-0.5-0.4-0.9-0.7-1.4-1.1c0-0.8,0.1-1.5,0.6-2.2c1.5-2.4,0.9-3.6-1.8-4.6c-2.1-0.7-4.1,0.1-6.1,0.3
		c-2.4-2.1-4.6-4.4-6.6-6.9c1.8-1.1,4.1-1.8,5.8-1c6.2,3.1,12.7,2.7,19.2,1.9c1.8-0.2,3.7-0.3,5.5-1.5c-2.5-1-4.8-0.8-7.2-0.9
		c-1.1,0-2-0.5-2.1-1.6c-0.1-1.3,0.9-1.7,2.1-1.8c0.6,0,1.1,0,1.7,0c0.6,0,0.9-0.4,0.6-0.9c-1.4-2.3,0.3-2.4,1.8-2.4
		c3.5,0,7,0.1,10.5-0.5c2.6-0.4,5.3-0.4,8.2-1.7c-5.5-1.8-10.7-2.5-16-3.1c-2-0.2-4-1.2-6,0.2c-2.6,1.9-5.7,2.8-8.8,3.5
		c-3.8,0.9-7.4,0.9-10.8-1.4c-0.8-0.5-1.5-0.4-2.3-0.1C681.4,291.4,678.2,291.7,675,292.3L675,292.3L675,292.3z"/>
	<path class="st9" d="M757.6,342.4c5.7-2.2,11.1-5,15.8-9c3.8-3.3,8.7-4.5,13.7-5.1c0.2,0,0.3-0.1,0.5,0c1.2,0.6,3.2-0.2,3.6,1.2
		c0.3,1-1.7,1.2-2.4,1.9c-0.9,0.9-2.3,1.5-1.7,3.1c0.5,1.5,2,1.4,3.2,1.4c5-0.1,9.9-1.1,14.8-2.2c13.1-2.8,26.2-5.8,39.2-9.2
		c0.5-0.1,1.1-0.1,1.7-0.1c-9.1,6.2-19.2,10.5-29.6,13.8c-14.8,4.8-30.1,6.6-45.6,5.8C766.3,343.7,761.9,343.3,757.6,342.4
		L757.6,342.4L757.6,342.4z"/>
	<path class="st9" d="M898.4,258.8c-7.1,0-13.8-1.8-20.5-3.9c-0.6-0.2-1.2-0.5-1.7-0.8c-0.6-0.3-1.3-0.6-1.3-1.3
		c0-0.8,1-0.6,1.5-0.9c0.4-0.2,0.9-0.4,1.3-1c-3-0.6-5.9-1.2-8.9-1.7c-9.5-1.6-19.1-3.1-28.6-4.7c-2.4-0.4-4.9-0.7-7.3-1.1
		c0.9-2,1.5-4.1,2.8-5.9c3.9,0.6,7.9,1.2,11.8,1.8c18,2.8,36,6,53.9,9.4C901,252.2,899.7,255.5,898.4,258.8L898.4,258.8L898.4,258.8
		z"/>
	<path class="st9" d="M718,231.3c-6.4-0.4-12.8-0.8-19.3-1.2c-0.4,0-0.8-0.1-1.2-0.1c-6.4-0.2-12.8-0.2-19.1-0.5
		c-9.4-0.4-18.8-0.8-28.2-0.9c-0.2-2.1-0.4-4.1-0.6-6.2c1.1,0,2.2-0.1,3.3-0.1c21.3,0.5,42.5,1.2,63.8,2.7
		C717.2,227.1,717.6,229.2,718,231.3L718,231.3L718,231.3z"/>
	<path class="st9" d="M649.8,211.7c5.2,0,10.4,0,15.5,0.1c9.3,0.3,18.5,0.6,27.8,1c7.7,0.4,15.4,0.9,23.1,1.4c0,2.1,0.1,4.2,0.1,6.2
		c-0.8,0-1.6,0-2.4,0c-21.4-1.4-42.8-2.2-64.2-2.5C649.5,215.8,649.5,213.7,649.8,211.7L649.8,211.7L649.8,211.7z"/>
	<path class="st9" d="M838.3,227.1c14.3,2.2,28.5,4.4,42.8,7c7.6,1.4,15.2,2.7,22.7,4c-0.2,2.2-0.4,4.3-1.4,6.3
		c-7.4-1.4-14.9-2.9-22.3-4.2c-14.3-2.5-28.6-4.9-43-6.9C837.1,231.1,837.9,229.1,838.3,227.1L838.3,227.1L838.3,227.1z"/>
	<path class="st7" d="M675,292.3c3.2-0.6,6.5-0.9,9.5-2.1c0.8-0.3,1.5-0.5,2.3,0.1c3.3,2.4,7,2.3,10.8,1.4c3.1-0.7,6.2-1.6,8.8-3.5
		c2-1.4,4-0.4,6-0.2c5.3,0.6,10.5,1.3,16,3.1c-2.9,1.3-5.6,1.2-8.2,1.7c-3.5,0.6-7,0.5-10.5,0.5c-1.6,0-3.2,0-1.8,2.4
		c0.3,0.6,0,0.9-0.6,0.9c-0.6,0-1.1,0-1.7,0c-1.2,0-2.2,0.5-2.1,1.8c0.1,1.1,1,1.5,2.1,1.6c2.4,0,4.7-0.2,7.2,0.9
		c-1.8,1.1-3.7,1.3-5.5,1.5c-6.5,0.8-12.9,1.2-19.2-1.9c-1.7-0.9-4-0.1-5.8,1C679.6,298.5,677.1,295.5,675,292.3L675,292.3
		L675,292.3z"/>
	<path class="st10" d="M837.1,233.3c14.4,2,28.7,4.4,43,6.9c7.5,1.3,14.9,2.8,22.3,4.2c0,1.5-0.2,3-1,4.3
		c-17.9-3.4-35.9-6.6-53.9-9.4c-3.9-0.6-7.9-1.2-11.8-1.8C835.8,236,836.2,234.5,837.1,233.3L837.1,233.3L837.1,233.3z"/>
	<path class="st10" d="M649.7,217.9c21.4,0.3,42.8,1.1,64.2,2.5c0.8,0.1,1.6,0,2.4,0c0.2,1.5,0.3,3.1,0.5,4.6
		c-21.2-1.5-42.5-2.2-63.8-2.7c-1.1,0-2.2,0-3.3,0.1L649.7,217.9L649.7,217.9z"/>
	<path class="st7" d="M875.6,298.5c-4.6-1.8-9.2-3.7-13.2-6.6c-0.3-0.2-0.6-0.3-0.8-0.5c-0.7-0.8-2-1.2-1.7-2.4c0.4-1.3,1.8-1,2.9-1
		c5.5-0.3,10.7,1,16,2c1,0.2,2,0.3,3,0.5C880,293.3,878,296,875.6,298.5L875.6,298.5L875.6,298.5z"/>
	<path class="st7" d="M697.6,315.7c4.9,0,9.9-0.2,14.8,0.1c3.3,0.2,6.6,0.4,10.2,1.8c-2.9,2-6,2.3-9.1,2.8c-2,0.3-3.9,0.8-5.9,0.5
		c-0.8-0.1-1.4,0.2-1.8,0.9C702.8,320.1,700.1,318.1,697.6,315.7L697.6,315.7L697.6,315.7z"/>
	<path class="st9" d="M688.8,308.2c2-0.2,4-1,6.1-0.3c2.7,0.9,3.3,2.2,1.8,4.6c-0.5,0.7-0.6,1.4-0.6,2.2
		C693.5,312.7,691.1,310.6,688.8,308.2L688.8,308.2z"/>
	<path class="st9" d="M718.1,329.2h10.3c-1.2,1.8-3.7,1.1-4.9,2.8C721.6,331.3,719.7,330.5,718.1,329.2L718.1,329.2z"/>
	<path class="st6" d="M483.2,124.5c1.2,0.1,2.1,0.7,2.2,2c0.1,1.3-0.6,2.1-1.9,2.2c-1.4,0.1-2.3-0.6-2.3-2.1
		C481.1,125.4,481.9,124.8,483.2,124.5L483.2,124.5L483.2,124.5z"/>
	<path class="st6" d="M455.4,149.8c-0.1,1.4-0.7,2.2-2,2.3c-1.4,0-2.2-0.8-2.2-2.2c0-1.2,0.8-2.1,2.1-2.1S455.2,148.6,455.4,149.8
		L455.4,149.8z"/>
	<path class="st5" d="M391.9,206.6c0.8,0,1.2,0.6,1.4,1.3c0.2,0.8-0.3,1.4-1.1,1.5c-1,0.1-1.5-0.4-1.6-1.4
		C390.5,207.3,391,206.8,391.9,206.6L391.9,206.6L391.9,206.6z"/>
	<path class="st5" d="M565.5,120.9c-0.2,0.8-0.7,1.4-1.6,1.3c-0.8-0.1-1.3-0.7-1.2-1.5c0.1-0.9,0.6-1.4,1.6-1.3
		C565.1,119.6,565.5,120.1,565.5,120.9z"/>
	<path class="st6" d="M417.3,144.4c-0.8-0.1-1.4-0.5-1.5-1.3s0.4-1.4,1.2-1.5c0.9-0.1,1.6,0.4,1.6,1.4
		C418.7,143.8,418.1,144.2,417.3,144.4L417.3,144.4L417.3,144.4z"/>
	<path class="st5" d="M434.4,172.9c-0.8-0.1-1.3-0.5-1.4-1.4c0-0.9,0.5-1.5,1.4-1.5c0.8,0,1.3,0.5,1.4,1.3
		C435.8,172.3,435.2,172.8,434.4,172.9L434.4,172.9L434.4,172.9z"/>
	<path class="st6" d="M470.2,139.5c0,0.8-0.5,1.4-1.3,1.4c-0.8,0.1-1.4-0.4-1.5-1.2c-0.1-0.9,0.4-1.5,1.4-1.6
		C469.7,138.2,470.1,138.7,470.2,139.5L470.2,139.5L470.2,139.5z"/>
	<path class="st6" d="M418.6,123.2c-0.1,0.8-0.5,1.4-1.3,1.5c-1,0.1-1.5-0.5-1.5-1.5c0-0.8,0.6-1.3,1.4-1.3
		C418,121.9,418.5,122.4,418.6,123.2L418.6,123.2L418.6,123.2z"/>
	<path class="st5" d="M409,219.9c-0.8-0.1-1.4-0.5-1.4-1.3c0-0.9,0.6-1.5,1.5-1.4c0.8,0.1,1.3,0.6,1.3,1.4
		C410.4,219.4,409.9,219.8,409,219.9L409,219.9z"/>
	<path class="st5" d="M538.9,128.4c0.8,0.1,1.3,0.6,1.3,1.4c0,0.9-0.6,1.5-1.6,1.4c-0.8-0.1-1.3-0.7-1.2-1.5S538,128.5,538.9,128.4
		L538.9,128.4L538.9,128.4z"/>
	<path class="st6" d="M520.6,125.9c-0.1,0.8-0.5,1.3-1.4,1.3c-0.9,0-1.5-0.6-1.4-1.5c0.1-0.8,0.6-1.3,1.5-1.2
		C520.1,124.5,520.6,125,520.6,125.9L520.6,125.9L520.6,125.9z"/>
	<path class="st6" d="M405.9,163.5c-0.1,0.8-0.6,1.3-1.4,1.3c-1,0-1.5-0.6-1.4-1.6c0.1-0.8,0.7-1.3,1.5-1.2S405.9,162.7,405.9,163.5
		L405.9,163.5L405.9,163.5z"/>
	<path class="st10" d="M493.8,122.1c0.7,0,1.3,0.2,1.4,0.9c0.1,0.9-0.8,1.2-1.4,1.3c-0.7,0.1-1.3-0.5-1.3-1.2
		C492.4,122.3,493.1,122.2,493.8,122.1L493.8,122.1L493.8,122.1z"/>
	<path class="st6" d="M500.7,208.8c-0.2,1.3-0.8,2.2-2.1,2.2s-2.1-0.8-2.1-2.1c0-1.4,0.8-2.1,2.1-2.1
		C499.8,206.7,500.5,207.6,500.7,208.8z"/>
	<path class="st5" d="M525.5,212.6c-0.2,1-0.7,1.6-1.6,1.5c-0.8,0-1.3-0.6-1.3-1.4s0.5-1.3,1.3-1.4
		C524.9,211.3,525.3,211.9,525.5,212.6L525.5,212.6L525.5,212.6z"/>
	<path class="st6" d="M716.8,225c-0.2-1.5-0.3-3.1-0.5-4.6c0-2.1-0.1-4.2-0.1-6.2c0.5-10,3-19.5,8-28.3
		c7.5-13.2,18.5-21.7,29.6-26.4c43-18,89.4,16.1,85.2,62.4c-0.2,1.8-0.4,3.5-0.7,5.2c-0.4,2.1-1.3,4.1-1.2,6.2
		c-1,1.2-1.3,2.7-1.4,4.2c-1.3,1.8-1.8,3.9-2.8,5.9c-4.8,9.2-11.3,17-19.8,23c-34.4,24.1-82,7.6-94.3-32.6c-0.3-0.8-0.5-1.7-0.8-2.5
		C717.6,229.2,717.2,227.1,716.8,225L716.8,225L716.8,225z M828.8,216c-0.2-28.2-23.3-51.1-51.3-50.9c-28.1,0.2-50.9,23.2-50.7,51.2
		c0.2,28.1,23.2,50.9,51.1,50.8C806,266.9,829,243.8,828.8,216L828.8,216L828.8,216z"/>
	<path class="st6" d="M776.9,89.9c1.2,0.1,2.1,0.7,2.2,2c0.1,1.3-0.6,2.1-1.9,2.2c-1.4,0.1-2.3-0.7-2.3-2.1
		C774.8,90.9,775.6,90.2,776.9,89.9z"/>
	<path class="st6" d="M689.7,188.1c-1.3-0.1-2.1-0.8-2.2-2.1c0-1.4,0.8-2.2,2.2-2.2c1.3,0,2,0.9,2,2.1
		C691.8,187.2,691,187.9,689.7,188.1L689.7,188.1L689.7,188.1z"/>
	<path class="st5" d="M815.9,152.5c-0.2,1.3-0.8,2.1-2.2,2c-1.3,0-2.1-0.8-2.1-2.1c0-1.4,0.9-2.2,2.3-2.1
		C815.2,150.3,815.8,151.2,815.9,152.5L815.9,152.5z M813.8,153.6c0.6-0.2,1.2-0.6,1.1-1.3c-0.1-0.8-0.6-1.3-1.4-1.2
		c-0.6,0.1-1.2,0.6-1,1.4C812.6,153.1,813.1,153.6,813.8,153.6z"/>
	<path class="st5" d="M826.3,155.2c-0.2,1.3-0.9,2.1-2.2,2.1s-2.1-0.8-2.1-2.1s0.8-2.1,2.1-2.1S826.2,153.9,826.3,155.2L826.3,155.2
		z M822.9,155.2c0.1,0.7,0.5,1.2,1.2,1.2c0.8,0,1.3-0.5,1.3-1.3c0-0.6-0.5-1.2-1.3-1.1C823.5,154,823.1,154.5,822.9,155.2
		L822.9,155.2L822.9,155.2z"/>
	<path class="st5" d="M888,188c-0.9-0.1-1.5-0.5-1.5-1.4c0-0.8,0.5-1.3,1.3-1.4c1-0.1,1.5,0.5,1.5,1.4
		C889.3,187.4,888.8,187.9,888,188L888,188L888,188z"/>
	<path class="st12" d="M867.8,202.2c0.8,0.8,0.6,1.6-0.1,2.3c-0.5,0.6-1.2,0.7-1.9,0.4c-1-0.4-1.5-1.1-1.1-2.2
		C865.7,202.3,866.7,202,867.8,202.2L867.8,202.2L867.8,202.2z"/>
	<path class="st5" d="M834.1,156.7c-0.2,0.8-0.7,1.3-1.6,1.2c-0.8-0.1-1.3-0.7-1.2-1.5c0.1-0.9,0.7-1.4,1.7-1.2
		C833.8,155.3,834.1,155.9,834.1,156.7L834.1,156.7z"/>
	<path class="st5" d="M674.5,187.4c-0.1,0.8-0.6,1.3-1.4,1.3c-0.9,0-1.5-0.5-1.4-1.5c0-0.8,0.6-1.3,1.4-1.3
		C673.9,185.9,674.4,186.5,674.5,187.4L674.5,187.4L674.5,187.4z"/>
	<path class="st5" d="M870.8,151.8c0,0.8-0.4,1.4-1.3,1.5c-1,0.1-1.5-0.5-1.5-1.4c0-0.8,0.5-1.3,1.4-1.4S870.7,151,870.8,151.8
		L870.8,151.8L870.8,151.8z"/>
	<path class="st5" d="M765.4,115c0.8,0.1,1.3,0.6,1.3,1.4c0,0.9-0.6,1.5-1.5,1.4c-0.9-0.1-1.4-0.7-1.3-1.6
		C764,115.4,764.6,115,765.4,115L765.4,115L765.4,115z"/>
	<path class="st12" d="M840.3,175.8c0.8-1,1.8-1.4,2.9-0.6c1.1,0.9,0.8,1.9,0.2,3c-0.3,0-0.6,0.1-0.9,0.1c-0.5-0.7-1-0.6-1.7-0.2
		c-0.1,0-0.2-0.1-0.2-0.2C841,177.2,841.3,176.4,840.3,175.8L840.3,175.8z"/>
	<path class="st6" d="M729.6,158.7c-0.1,0.8-0.5,1.4-1.3,1.4c-1,0.1-1.5-0.5-1.5-1.4c0-0.8,0.6-1.3,1.4-1.4
		C728.9,157.4,729.4,157.9,729.6,158.7L729.6,158.7L729.6,158.7z"/>
	<path class="st6" d="M698.3,157.5c0.8,0,1.4,0.4,1.5,1.2c0.1,0.8-0.4,1.4-1.2,1.5c-1,0.1-1.5-0.4-1.6-1.3
		C696.9,158.1,697.5,157.6,698.3,157.5L698.3,157.5L698.3,157.5z"/>
	<path class="st6" d="M827.4,140.3c-0.1,0.9-0.5,1.5-1.3,1.5c-1,0-1.5-0.5-1.5-1.5c0-0.8,0.6-1.3,1.4-1.3
		C826.9,139,827.3,139.6,827.4,140.3L827.4,140.3L827.4,140.3z"/>
	<path class="st5" d="M774.2,99.1c-0.1,0.8-0.5,1.3-1.3,1.4c-0.8,0.1-1.4-0.4-1.5-1.2c-0.1-0.9,0.5-1.5,1.4-1.5
		C773.6,97.8,774.1,98.3,774.2,99.1L774.2,99.1z"/>
	<path class="st6" d="M799.6,150.6c0,0.8-0.4,1.4-1.2,1.5s-1.4-0.4-1.5-1.2c-0.1-0.9,0.4-1.5,1.3-1.6
		C799.1,149.3,799.5,149.9,799.6,150.6z"/>
	<path class="st6" d="M758.1,140.3c0.8,0.1,1.3,0.6,1.3,1.4c0,0.9-0.6,1.5-1.5,1.4c-0.8-0.1-1.3-0.7-1.2-1.5
		C756.7,140.8,757.3,140.4,758.1,140.3L758.1,140.3L758.1,140.3z"/>
	<path class="st5" d="M867.8,202.2c-1.1-0.2-2.1,0.1-3.1,0.5c-0.3-0.9,0.2-1.4,1-1.4C866.5,201.3,867.5,200.8,867.8,202.2
		L867.8,202.2L867.8,202.2z"/>
	<path class="st6" d="M840.3,175.8c1,0.6,0.7,1.4,0.3,2.1C839.7,177.3,839.8,176.6,840.3,175.8z"/>
	<path class="st6" d="M840.8,178.1c0.6-0.4,1.2-0.4,1.7,0.2c0,0.1,0,0.2,0,0.4C841.9,178.7,841.1,179,840.8,178.1L840.8,178.1
		L840.8,178.1z"/>
	<path class="st3" d="M842.5,178.7c0-0.1,0-0.2,0-0.4c0.3,0,0.6-0.1,0.9-0.1C843.4,179,843.2,179.3,842.5,178.7L842.5,178.7z"/>
	<path class="st13" d="M828.8,216c0.2,27.8-22.8,50.9-50.9,51c-28,0.1-51-22.7-51.1-50.8c-0.2-28,22.6-50.9,50.7-51.2
		C805.5,164.9,828.6,187.8,828.8,216L828.8,216z M745.3,212.7c3.2,0,6.4-0.1,9.6,0c1.4,0,2-0.4,2.4-1.9c2.6-9.6,10.7-15.8,20.3-15.9
		c9.7,0,17.9,6.2,20.5,15.9c0.4,1.5,1.1,1.8,2.5,1.8c6.4-0.1,12.8-0.1,19.2,0c1.6,0,2-0.4,1.8-2c-3.2-24.9-26-42-51-38.1
		c-18.9,2.9-34.4,19.1-36.6,38c-0.2,2,0.4,2.3,2.1,2.2C739.1,212.6,742.2,212.7,745.3,212.7L745.3,212.7L745.3,212.7z M745.4,219.5
		c-3.2,0-6.4,0.1-9.6,0c-1.7-0.1-2.1,0.3-1.9,2.1c2.6,21.8,21.6,38.6,43.7,38.7c22.3,0.1,41.3-16.9,44-39c0.2-1.7-0.4-1.8-1.8-1.8
		c-6.5,0.1-13,0.1-19.4,0c-1.3,0-1.9,0.3-2.2,1.7c-2.6,9.7-10.8,16-20.5,16s-17.8-6.3-20.4-16.1c-0.4-1.4-1-1.7-2.3-1.7
		C751.8,219.5,748.6,219.5,745.4,219.5L745.4,219.5L745.4,219.5z M792,216.4c0.3-7.5-6.2-14.2-14-14.5c-7.5-0.3-14.2,6.1-14.5,13.9
		c-0.3,7.5,6.2,14.2,13.9,14.5C784.9,230.6,791.7,224.2,792,216.4L792,216.4z"/>
	<path class="st12" d="M813.8,153.6c-0.7,0-1.2-0.5-1.3-1.1c-0.1-0.7,0.4-1.2,1-1.4c0.8-0.2,1.4,0.4,1.4,1.2
		C815,153,814.4,153.4,813.8,153.6z"/>
	<path class="st12" d="M822.9,155.2c0.1-0.7,0.5-1.2,1.2-1.2c0.7-0.1,1.2,0.5,1.3,1.1c0.1,0.8-0.5,1.4-1.3,1.3
		C823.5,156.4,823.1,155.9,822.9,155.2L822.9,155.2L822.9,155.2z"/>
	<path class="st14" d="M745.3,212.7c-3.1,0-6.2-0.1-9.3,0c-1.7,0.1-2.3-0.2-2.1-2.2c2.2-18.9,17.7-35,36.6-38
		c25-3.9,47.8,13.2,51,38.1c0.2,1.7-0.2,2.1-1.8,2c-6.4-0.1-12.8-0.1-19.2,0c-1.4,0-2-0.2-2.5-1.8c-2.6-9.7-10.8-15.9-20.5-15.9
		c-9.6,0-17.7,6.3-20.3,15.9c-0.4,1.5-1,1.9-2.4,1.9C751.7,212.6,748.5,212.7,745.3,212.7L745.3,212.7L745.3,212.7z"/>
	<path class="st12" d="M745.4,219.5c3.2,0,6.4,0.1,9.6,0c1.3,0,1.9,0.2,2.3,1.7c2.6,9.8,10.7,16,20.4,16.1c9.7,0,17.9-6.3,20.5-16
		c0.4-1.4,0.9-1.7,2.2-1.7c6.5,0.1,13,0.1,19.4,0c1.3,0,2,0.1,1.8,1.8c-2.6,22.1-21.7,39-44,39c-22.1-0.1-41.1-16.9-43.7-38.7
		c-0.2-1.8,0.2-2.2,1.9-2.1C739,219.6,742.2,219.5,745.4,219.5L745.4,219.5L745.4,219.5z"/>
	<path class="st12" d="M792,216.4c-0.3,7.8-7,14.2-14.5,13.9c-7.8-0.3-14.2-7-13.9-14.5c0.3-7.8,7-14.2,14.5-13.9
		C785.8,202.2,792.3,208.9,792,216.4L792,216.4z"/>
</g>
</svg>
