<?xml version="1.0" encoding="UTF-8"?><svg id="Capa_1" xmlns="http://www.w3.org/2000/svg" viewBox="0 0 1694.04 432"><defs><style>.cls-1{fill:#fc1e27;}.cls-2{fill:#fcfcfc;}.cls-3{fill:#fff;}.cls-4{fill:#b5e3fb;}.cls-5{fill:#bcbdbe;}.cls-6{fill:#bdbdbe;}.cls-7,.cls-8{fill:#09234e;}.cls-9{fill:#063375;}.cls-10{fill:#073375;}.cls-11{fill:#0c4da1;}.cls-12{fill:#0a234f;}.cls-13{fill:#0e4ea2;}.cls-14{fill:#0c2550;}.cls-15{fill:#5b5b5c;}.cls-8{font-family:CeraPro-Black, 'Cera Pro';font-size:182px;font-weight:800;}.cls-16{letter-spacing:-.01em;}.cls-17{letter-spacing:0em;}</style></defs><rect class="cls-3" x="0" width="1694.04" height="432" rx="59.56" ry="59.56"/><polygon class="cls-7" points="216.15 149.5 230.29 163.65 177.94 216 230.29 268.35 216.15 282.5 149.65 216 216.15 149.5"/><text class="cls-8" transform="translate(1011.73 276.06)"><tspan class="cls-17" x="0" y="0">B</tspan><tspan class="cls-16" x="111.75" y="0">A</tspan><tspan x="228.96" y="0">CK</tspan></text><g><path class="cls-15" d="M479.44,370.34c-1.09-1.07-2.53-.71-3.8-.84-68.19-6.96-124.25-59.32-135.83-126.93-14.33-83.69,40.7-162.76,124.08-178.25,61.44-11.42,124.24,15.8,157.99,68.4,1.12,1.75,.85,2.62-.52,3.96-7.41,7.27-14.72,14.65-22.08,21.97-.61,.61-1.41,1.04-2.06,1.5,.79,1.16,1.49,.83,2.06,.83,10.71,.02,21.42-.02,32.12,.06,1.65,0,2.31-.55,2.93-2.03,21.96-51.56,60.32-83.7,115.31-94.53,81.78-16.09,162.43,38.31,179.19,119.92,1.25,6.11,2.15,12.26,2.76,18.46,.06,.58-.23,1.32,.53,1.7v23.48c-.77,.36-.5,1.1-.56,1.68-.56,5.24-1.26,10.45-2.25,15.64-12.59,66.29-68.24,117.33-135.32,124.14-1.43,.15-3.01-.17-4.29,.85h-23.02c-.5-.75-1.3-.45-1.97-.51-5.09-.48-10.18-1.03-15.19-2.08-53.24-11.16-91.17-41.47-113.74-90.95-.27-.6-.26-1.43-1.19-1.74-.24,.52-.47,1.01-.7,1.5-24.15,52.63-64.81,83.49-122.09,92.49-3.11,.49-6.32,.33-9.36,1.29h-23Zm155.36-111.94c11.69,36.28,33.17,64.86,65.8,84.65,32.61,19.78,67.97,26.11,105.29,18.94,66.13-12.72,115.91-67.57,120.33-136.7,4.33-67.7-37.78-131.59-106.83-151.9-32.84-9.66-65.53-8.17-97.18,4.83-43.94,18.05-72.65,50.49-87.46,96.07-.75-2.21-1.4-3.81-1.82-5.47-.41-1.68-1.26-2.2-3.01-2.19-14.54,.08-29.09,.05-43.63,.03-.81,0-1.69,.22-3.09-.58,.99-.72,1.78-1.15,2.4-1.76,9.57-9.52,19.09-19.09,28.68-28.59,1.23-1.21,1.49-2.05,.42-3.6-3.85-5.59-7.98-10.96-12.57-15.94-13.61-14.78-29.45-26.52-47.73-35-17.13-7.95-35.12-12.42-53.9-13.58-12.37-.76-24.72,0-36.9,2.43-27.04,5.41-50.96,17.22-71.45,35.67-13.71,12.34-24.75,26.81-33.09,43.29-9.18,18.15-14.38,37.43-15.7,57.67-.77,11.7-.18,23.41,1.95,35,2.96,16.19,8.25,31.55,16.21,45.99,5.69,10.32,12.43,19.87,20.39,28.52,13.78,14.96,29.86,26.77,48.44,35.21,16.74,7.6,34.29,11.95,52.57,13.08,12.11,.75,24.21,.02,36.19-2.26,16.36-3.12,31.84-8.66,46.29-16.91,16.09-9.18,30.1-20.91,41.79-35.32,8.84-10.9,16.07-22.77,21.56-35.71,2.2-5.19,3.97-10.54,6.04-15.87h.01Z"/><path class="cls-12" d="M634.8,258.42c-2.07,5.33-3.84,10.68-6.04,15.87-5.49,12.93-12.72,24.81-21.56,35.71-11.69,14.41-25.69,26.14-41.79,35.32-14.45,8.25-29.92,13.79-46.29,16.91-11.98,2.28-24.08,3.01-36.19,2.26-18.28-1.13-35.82-5.48-52.57-13.08-18.59-8.43-34.67-20.25-48.44-35.21-7.96-8.65-14.71-18.2-20.39-28.52-7.96-14.45-13.25-29.8-16.21-45.99-2.12-11.58-2.71-23.3-1.95-35,1.33-20.24,6.52-39.53,15.7-57.67,8.34-16.47,19.38-30.95,33.09-43.29,20.5-18.45,44.41-30.26,71.45-35.67,12.17-2.43,24.53-3.19,36.9-2.43,18.78,1.16,36.77,5.63,53.9,13.58,18.28,8.48,34.12,20.22,47.73,35,4.59,4.98,8.72,10.35,12.57,15.94,1.06,1.55,.8,2.39-.42,3.6-9.59,9.5-19.12,19.06-28.68,28.59-.62,.61-1.41,1.05-2.4,1.76,1.41,.8,2.28,.58,3.09,.58,14.54,.02,29.09,.05,43.63-.03,1.75,0,2.6,.51,3.01,2.19,.41,1.66,1.07,3.27,1.82,5.47,14.81-45.58,43.52-78.02,87.46-96.07,31.65-13,64.33-14.49,97.18-4.83,69.05,20.31,111.16,84.2,106.83,151.9-4.42,69.13-54.2,123.98-120.33,136.7-37.32,7.18-72.68,.84-105.29-18.94-32.64-19.79-54.11-48.38-65.8-84.65h-.01Zm-74.82-81.69c-.13-.25-.27-.51-.4-.76,.64-.48,1.36-.88,1.92-1.44,13.29-13.25,26.55-26.54,39.87-39.77,1.24-1.23,1.49-2,.3-3.49-4.67-5.79-9.51-11.42-15.05-16.4-34.18-30.82-74.16-43.08-119.43-35.05-76.2,13.51-125.78,86.25-111.52,162.31,13.01,69.33,77.54,118.31,147.75,112.03,35.39-3.16,65.78-17.32,89.68-43.55,34.45-37.81,44.84-82.04,32.48-131.64-.46-1.84-1.29-2.29-3.12-2.28-20.06,.07-40.12,.04-60.18,.04h-2.3Zm356.43,39.31c-.01-76.45-61.96-138.45-138.41-138.52-76.78-.08-138.9,61.84-138.93,138.49-.03,76.55,61.97,138.6,138.54,138.64,76.75,.04,138.82-61.94,138.8-138.61h0Z"/><path class="cls-5" d="M559.97,176.72h2.31c20.06,0,40.12,.03,60.18-.04,1.83,0,2.66,.45,3.12,2.28,12.36,49.6,1.97,93.82-32.48,131.64-23.9,26.24-54.29,40.39-89.68,43.55-70.21,6.27-134.74-42.7-147.75-112.03-14.27-76.06,35.31-148.8,111.52-162.31,45.27-8.03,85.25,4.23,119.43,35.05,5.53,4.99,10.37,10.61,15.05,16.4,1.2,1.49,.95,2.26-.3,3.49-13.32,13.23-26.58,26.51-39.87,39.77-.56,.56-1.28,.96-1.92,1.44,.13,.25,.27,.51,.4,.76h-.01Zm-127.59,55.43l-1.37-6.06c-.62-6.28-.84-12.55-.04-18.86,3.59-27.99,28.54-51.15,56.75-52.48,21.43-1.01,38.98,6.81,52.56,23.42,.77,.94,1.21,1.71,2.49,.42,14.93-15,29.9-29.96,44.91-44.88,1.1-1.09,.89-1.79-.03-2.73-2.12-2.17-4.09-4.5-6.3-6.57-31.88-29.76-69.4-41.57-112.46-34.24-27.29,4.64-50.56,17.48-69.67,37.5-19.9,20.85-31.39,45.75-34.73,74.35-1.38,11.79-1.12,23.57,1.11,35.27,.16,2.1,.54,4.16,1.13,6.17,.34,1.47,.69,2.94,1.03,4.41,.52,2.04,.93,4.12,1.83,6.04,.86,3.51,2.07,6.88,3.62,10.15,.24,.67,.44,1.36,.72,2.02,7.9,18.63,19.52,34.58,35.04,47.54,27.14,22.66,58.44,32.75,93.73,29.97,24.24-1.91,46.12-10.35,65.64-24.82,8.3-6.15,15.9-13.07,22.23-21.28,6.06-6.87,10.97-14.52,15.13-22.64,7.47-14.57,12.22-29.95,13.62-46.31l.57-6.26c.02-1.53,.04-3.06,.06-4.59-.03-2.13-.06-4.26-.09-6.39,.32-1.38-.41-2.66-.39-3.99,.12-5.87-1.22-11.55-2.06-17.3-.33-2.26-1.26-2.88-3.56-2.88-40.66,.08-81.32,.06-121.98,.06-.4,0-.8,.04-1.2,0-1.23-.13-1.67,.35-1.66,1.62,.07,9.89,.08,19.79,.11,29.68-.03,2.11-.06,4.22-.1,6.33,.01,1.57,.02,3.14,.03,4.72,.03,2.07,.06,4.14,.08,6.2-.03,1.59,.05,3.2-.13,4.78-.24,1.99,.61,2.35,2.42,2.34,17.57-.06,35.14-.04,52.71-.04,.56,0,1.12,.02,1.68,0,.98-.04,1.37,.28,.82,1.25-.35,.62-.66,1.28-1.01,1.9-17.48,31.46-58.42,41.2-88.26,21.01-9.28-6.28-16.18-14.6-21.19-24.55-.77-1.98-1.55-3.96-2.32-5.94-.5-1.45-1-2.9-1.49-4.34h.02Zm91.3-55.43c-9.98-9.39-31.65-16.53-52.7-7.12-19.75,8.83-32.11,30.04-29.83,51.66,2.32,21.9,18.68,40.03,39.91,44.63,19.53,4.24,38.34-4.59,44.84-12.62h-2.73c-13.9,0-27.8-.05-41.7,.05-2.23,.02-2.97-.43-2.96-2.84,.1-23.7,.1-47.41,0-71.12,0-2.29,.71-2.71,2.81-2.7,13.97,.09,27.94,.05,42.35,.05h.01Z"/><path class="cls-6" d="M916.4,216.03c.01,76.67-62.05,138.65-138.8,138.61-76.57-.04-138.58-62.09-138.54-138.64,.03-76.65,62.15-138.57,138.93-138.49,76.45,.08,138.4,62.07,138.41,138.52Zm-13.99,28.42c1.05-1.96,1.22-4.13,1.43-6.28,2.16-10.96,2.59-22.01,1.54-33.11-3.05-32.33-16.07-60.02-39.87-82.1-30.74-28.51-67.44-40.27-108.71-32.99-49.97,8.81-83.51,38.33-100.73,86.06-4.14,11.47-6.13,23.44-6.33,35.67-.25,2.07-.27,4.13-.06,6.2l.03,4.5c.19,2.06,.37,4.11,.56,6.17,.99,12.25,4.03,24,8.62,35.37,4.1,10.17,9.24,19.76,16.07,28.39,2.15,3.23,4.62,6.21,7.31,9,1.99,2.48,4.15,4.79,6.57,6.85,2.24,2.4,4.7,4.56,7.34,6.52,.46,.35,.92,.7,1.38,1.06,2.5,2.36,5.29,4.34,8.19,6.17,3.9,2.78,7.93,5.33,12.3,7.32,1.65,1.25,3.51,2.07,5.44,2.76,10.85,5.15,22.17,8.76,34.09,10.45,4.31,.89,8.68,1.29,13.07,1.52,15.54,.82,30.77-1.02,45.6-5.77,10.45-3.34,20.48-7.63,29.61-13.83,11.37-6.96,21.35-15.5,29.74-25.87,2.4-2.46,4.45-5.19,6.32-8.07,7.2-9.68,12.67-20.26,16.52-31.68,1.29-3.26,2.54-6.53,2.98-10.05,.83-1.3,1.01-2.76,1.01-4.26h-.02Z"/><path class="cls-7" d="M365.61,237.29c-2.23-11.7-2.49-23.47-1.11-35.27,3.34-28.61,14.83-53.5,34.73-74.35,19.12-20.03,42.38-32.86,69.67-37.5,43.06-7.32,80.58,4.48,112.46,34.24,2.21,2.07,4.18,4.4,6.3,6.57,.92,.94,1.13,1.64,.03,2.73-15.01,14.92-29.98,29.88-44.91,44.88-1.28,1.29-1.72,.52-2.49-.42-13.59-16.61-31.13-24.43-52.56-23.42-28.21,1.33-53.16,24.49-56.75,52.48-.81,6.31-.59,12.57,.04,18.86-1.42,.17-2.84,.3-4.25,.53-11.34,1.87-22.69,3.68-34.02,5.65-9.06,1.58-18.1,3.34-27.14,5.02Zm117.58-112.79c-1.25,.24-2.11,.89-2.08,2.2,.03,1.44,.94,2.16,2.33,2.06,1.28-.09,2.01-.92,1.92-2.23-.09-1.31-.96-1.89-2.17-2.04h0Zm-27.78,25.27c-.17-1.12-.8-1.97-2.12-1.97s-2.11,.81-2.14,2.06c-.03,1.37,.8,2.23,2.22,2.2,1.32-.03,1.93-.89,2.04-2.29h0Zm-63.54,56.86c-.86,.16-1.34,.66-1.3,1.47,.05,.92,.62,1.46,1.57,1.35,.82-.1,1.26-.66,1.09-1.51-.14-.74-.55-1.29-1.37-1.31h0Zm173.65-85.67c-.01-.85-.42-1.38-1.23-1.48-.93-.11-1.51,.4-1.57,1.32-.06,.8,.4,1.36,1.2,1.46,.94,.11,1.43-.45,1.6-1.3Zm-148.19,23.42c.8-.14,1.35-.6,1.31-1.43-.04-.94-.66-1.47-1.6-1.37-.84,.09-1.28,.67-1.19,1.5,.09,.82,.63,1.25,1.48,1.3h0Zm17.02,28.51c.9-.11,1.49-.58,1.45-1.5-.03-.79-.58-1.31-1.37-1.32-.92,0-1.46,.55-1.42,1.48,.03,.81,.55,1.24,1.35,1.35h-.01Zm35.88-33.36c-.12-.79-.54-1.35-1.39-1.32-.95,.03-1.47,.6-1.38,1.55,.08,.83,.62,1.29,1.46,1.22,.83-.07,1.25-.61,1.3-1.45h.01Zm-51.58-16.34c-.1-.81-.6-1.3-1.41-1.32-.83-.02-1.38,.48-1.39,1.32-.01,.93,.52,1.52,1.49,1.46,.83-.05,1.25-.61,1.32-1.46h-.01Zm-9.61,96.68c.85-.07,1.37-.51,1.41-1.34,.04-.84-.45-1.38-1.27-1.43-.94-.06-1.53,.48-1.51,1.43,.02,.82,.57,1.26,1.37,1.34h0Zm129.83-91.44c-.86,.02-1.41,.45-1.49,1.27s.37,1.4,1.2,1.49c.95,.11,1.54-.41,1.58-1.35,.03-.83-.5-1.29-1.29-1.41h0Zm-18.25-2.57c-.06-.84-.48-1.38-1.31-1.43-.82-.05-1.39,.4-1.46,1.23-.08,.95,.45,1.52,1.4,1.53,.84,0,1.27-.54,1.37-1.34h0Zm-114.72,37.64c-.04-.81-.45-1.35-1.28-1.43-.82-.08-1.42,.38-1.51,1.18-.11,.92,.4,1.54,1.36,1.56,.83,.02,1.29-.5,1.43-1.32h0Zm87.91-41.35c-.67,.03-1.37,.2-1.34,.97,.03,.69,.58,1.34,1.32,1.21,.61-.11,1.52-.35,1.43-1.26-.07-.72-.7-.96-1.41-.92Z"/><path class="cls-11" d="M590.58,297.49c-6.34,8.21-13.94,15.13-22.23,21.28-19.52,14.47-41.39,22.91-65.64,24.82-35.29,2.79-66.59-7.31-93.73-29.97-15.52-12.96-27.14-28.91-35.04-47.54-.28-.66-.48-1.35-.72-2.02,12.82-.83,25.63-1.36,38.72,.95-1,1.65-2.15,1.84-3.13,2.29-2.98,1.37-6.23,1.95-9.28,3.11-1.19,.45-2.81,.77-2.57,2.65,.23,1.78,1.63,2.15,3.1,2.43,6.76,1.29,13.63,1.02,20.44,1.33,12.44,.58,24.88-.29,37.33-.38,2.32-.02,4.7,.35,6.93-.1,3.32-.66,4.78-.02,5.81,3.61,1.4,4.91,6.15,6.64,10.66,7.93,5.68,1.62,11.53,2.07,17.42,1.48,1.44-.14,3.58,1,4.14-1.16,.54-2.09-1.81-1.98-2.94-2.79-.54-.39-1.55-.62-1.4-1.4,.15-.73,1.12-.7,1.8-.89,5.49-1.59,11.19-1.42,16.79-1.78,8.59-.54,17.19,.27,25.76,.96,1.74,.14,3.68,.2,5.69,1.37-4.55,1.22-8.75,1.89-12.99,2.36-4.58,.5-9.09,1.43-13.58,2.44-1.14,.26-2.21,.98-2.08,2.25,.14,1.35,1.35,1.57,2.56,1.57,.79,0,1.58,.31,2.36,.25,5.62-.49,11.26-.54,16.88-1.15,8.05-.88,16.09-1.77,23.99-3.55,2.17-.49,4.87-.76,5.71-3.33,.48-1.45,1.42-1.69,2.44-1.76,6.74-.45,13.49-.71,20.23,.11,.08,.01,.14,.25,.23,.42-.2,.11-.39,.27-.6,.32-16.68,4.1-33.29,8.47-49.72,13.49-3.73,1.14-7.44,2.41-10.86,4.32-.97,.54-1.97,1.24-1.8,2.58,.18,1.36,1.36,1.69,2.45,1.93,2.05,.44,4.17,.46,6.19,.08,8.96-1.71,17.87-3.7,26.85-5.34,7.88-1.45,15.76-2.97,23.81-3.16h.02Z"/><path class="cls-10" d="M590.58,297.49c-8.05,.19-15.94,1.71-23.81,3.16-8.97,1.65-17.88,3.63-26.85,5.34-2.02,.39-4.14,.36-6.19-.08-1.09-.24-2.27-.57-2.45-1.93-.18-1.33,.83-2.04,1.8-2.58,3.43-1.91,7.13-3.18,10.86-4.32,16.43-5.02,33.04-9.4,49.72-13.49,.21-.05,.39-.21,.6-.32-.09-.17-.15-.41-.23-.42-6.74-.82-13.49-.56-20.23-.11-1.03,.07-1.97,.31-2.44,1.76-.84,2.57-3.54,2.84-5.71,3.33-7.9,1.79-15.94,2.68-23.99,3.55-5.62,.61-11.26,.66-16.88,1.15-.77,.07-1.57-.24-2.36-.25-1.22,0-2.42-.22-2.56-1.57-.13-1.26,.94-1.99,2.08-2.25,4.49-1.01,9-1.94,13.58-2.44,4.24-.46,8.44-1.14,12.99-2.36-2.01-1.17-3.95-1.23-5.69-1.37-8.57-.69-17.17-1.5-25.76-.96-5.6,.35-11.3,.19-16.79,1.78-.68,.2-1.65,.16-1.8,.89-.16,.79,.85,1.01,1.4,1.4,1.13,.82,3.48,.71,2.94,2.79-.56,2.17-2.7,1.02-4.14,1.16-5.89,.59-11.74,.15-17.42-1.48-4.51-1.29-9.26-3.02-10.66-7.93-1.04-3.63-2.49-4.26-5.81-3.61-2.23,.44-4.62,.08-6.93,.1-12.44,.09-24.89,.96-37.33,.38-6.81-.32-13.69-.04-20.44-1.33-1.47-.28-2.87-.65-3.1-2.43-.24-1.88,1.38-2.19,2.57-2.65,3.05-1.16,6.29-1.74,9.28-3.11,.98-.45,2.13-.64,3.13-2.29-13.09-2.31-25.9-1.78-38.72-.95-1.54-3.26-2.76-6.64-3.62-10.15,5.68-1.12,11.35-2.31,17.05-3.33,8.82-1.58,17.66-3.08,26.51-4.53,7.67-1.26,15.35-2.42,23.03-3.63,5.01,9.95,11.91,18.27,21.19,24.55,29.84,20.19,70.78,10.45,88.26-21.01,.35-.63,.65-1.28,1.01-1.9,.55-.97,.17-1.28-.82-1.25-.56,.02-1.12,0-1.68,0-17.57,0-35.14-.02-52.71,.04-1.81,0-2.66-.35-2.42-2.34,.19-1.58,.1-3.18,.13-4.78,7.89-.8,15.77-1.76,23.67-2.36,8.15-.62,16.3-1.24,24.45-1.91,8.39-.69,16.81-1.15,25.22-1.45,7.07-.25,14.14-.57,21.21-.96,6.36-.36,12.73,.07,19.11-.43,5.48-.43,11.01-.09,16.52-.09-1.4,16.36-6.16,31.74-13.62,46.31-4.16,8.12-9.08,15.77-15.13,22.64l-.02,.02Z"/><path class="cls-7" d="M523.68,176.72c-14.41,0-28.38,.04-42.35-.05-2.1,0-2.82,.41-2.81,2.7,.09,23.71,.1,47.41,0,71.12,0,2.41,.73,2.86,2.96,2.84,13.9-.1,27.8-.05,41.7-.05h2.73c-6.5,8.03-25.31,16.85-44.84,12.62-21.23-4.6-37.59-22.73-39.91-44.63-2.29-21.62,10.08-42.82,29.83-51.66,21.05-9.42,42.71-2.27,52.7,7.12h-.01Z"/><path class="cls-7" d="M489.14,218.49c-.03-9.89-.04-19.79-.11-29.68,0-1.27,.44-1.75,1.66-1.62,.39,.04,.8,0,1.2,0,40.66,0,81.32,.02,121.98-.06,2.31,0,3.23,.62,3.56,2.88,.85,5.75,2.19,11.43,2.06,17.3-.03,1.32,.7,2.61,.39,3.99-3.42,.08-6.84,.17-10.26,.35-7.87,.4-15.77,.22-23.66,.45-9.95,.29-19.88,.94-29.83,1.23-3.09,.09-6.2,.22-9.29,.44-8.4,.6-16.8,1.22-25.19,1.86-4.52,.34-9.03,.67-13.54,1.08-6.33,.56-12.65,1.19-18.97,1.79h0Zm11.55-9.7c-.19-1.24-.87-2.08-2.19-2.06-1.28,.02-2.13,.76-2.09,2.12,.04,1.3,.81,2.1,2.13,2.11,1.35,0,1.95-.9,2.15-2.17Zm24.83,3.82c-.23-.69-.65-1.32-1.59-1.24-.81,.07-1.27,.6-1.27,1.4s.49,1.34,1.29,1.38c.92,.05,1.42-.51,1.57-1.54h0Z"/><path class="cls-13" d="M489.14,218.49c6.32-.6,12.64-1.23,18.97-1.79,4.51-.4,9.03-.74,13.54-1.08,8.4-.63,16.79-1.26,25.19-1.86,3.09-.22,6.21-.35,9.29-.44,9.95-.29,19.88-.94,29.83-1.23,7.89-.23,15.78-.05,23.66-.45,3.42-.17,6.84-.26,10.26-.35,.03,2.13,.06,4.26,.09,6.39-.48,0-.96-.02-1.44,0-21.54,.4-43.08,.87-64.59,2.12-13.46,.78-26.91,1.76-40.35,2.87-8.19,.68-16.37,1.43-24.55,2.15,.03-2.11,.06-4.22,.1-6.33h0Z"/><path class="cls-13" d="M619.34,228.54c-5.51,0-11.04-.34-16.52,.09-6.38,.5-12.75,.07-19.11,.43-7.07,.4-14.13,.71-21.21,.96-8.41,.3-16.83,.75-25.22,1.45-8.15,.67-16.3,1.29-24.45,1.91-7.9,.6-15.78,1.56-23.67,2.36-.03-2.07-.06-4.14-.08-6.2,16.15-2.01,32.38-3.11,48.6-4.31,15.75-1.16,31.52-1.94,47.3-2.36,11.64-.31,23.28-.84,34.93-.59l-.57,6.26h0Z"/><path class="cls-4" d="M619.91,222.28c-11.65-.25-23.29,.28-34.93,.59-15.78,.42-31.56,1.2-47.3,2.36-16.22,1.19-32.45,2.3-48.6,4.31,0-1.57-.02-3.14-.03-4.72,8.18-.72,16.36-1.47,24.55-2.15,13.44-1.12,26.88-2.09,40.35-2.87,21.52-1.25,43.05-1.72,64.59-2.12,.48,0,.96,0,1.44,0-.02,1.53-.04,3.06-.06,4.59h0Z"/><path class="cls-13" d="M436.2,242.43c-7.68,1.2-15.36,2.36-23.03,3.63-8.84,1.46-17.68,2.96-26.51,4.53-5.7,1.02-11.37,2.21-17.05,3.33-.91-1.92-1.32-4-1.84-6.04,5-.96,10-1.94,15-2.89,16.97-3.23,33.99-6.1,51.1-8.5,.77,1.98,1.55,3.96,2.32,5.94h.01Z"/><path class="cls-13" d="M365.61,237.29c9.05-1.68,18.08-3.45,27.14-5.02,11.32-1.97,22.67-3.79,34.02-5.65,1.41-.23,2.83-.36,4.25-.53,.46,2.02,.91,4.04,1.37,6.06-10.06,1.6-20.14,3.08-30.18,4.82-11.84,2.05-23.64,4.32-35.46,6.5-.59-2.02-.97-4.08-1.13-6.17h-.01Z"/><path class="cls-4" d="M366.75,243.47c11.82-2.18,23.62-4.45,35.46-6.5,10.04-1.74,20.12-3.22,30.18-4.82,.5,1.45,1,2.9,1.49,4.34-17.11,2.4-34.13,5.27-51.1,8.5-5,.95-10,1.93-15,2.89-.34-1.47-.69-2.94-1.03-4.41h0Z"/><path class="cls-7" d="M649.75,211.68c.2-12.23,2.19-24.2,6.33-35.67,17.22-47.72,50.76-77.24,100.73-86.06,41.27-7.28,77.97,4.48,108.71,32.99,23.8,22.08,36.82,49.77,39.87,82.1,1.05,11.11,.62,22.15-1.54,33.11-7.58-1.34-15.17-2.63-22.74-4.04-14.2-2.65-28.48-4.82-42.76-7.04,.22-1.74,.49-3.48,.65-5.23,4.23-46.34-42.24-80.37-85.2-62.39-11.12,4.65-22.12,13.16-29.62,26.38-4.98,8.78-7.48,18.26-8,28.3-7.69-.46-15.37-1-23.07-1.35-9.27-.42-18.54-.72-27.81-.97-5.18-.14-10.36-.09-15.54-.13h0Zm192.73-32.98c.7,.56,.91,.24,.89-.49,.58-1.02,.96-2.1-.17-2.96-1.08-.82-2.07-.44-2.88,.55-.51,.79-.62,1.53,.3,2.13,.03,.1,.1,.16,.2,.19,.32,.87,1.03,.59,1.66,.58Zm25.31,23.51c-.27-1.39-1.35-.97-2.18-.91-.78,.06-1.24,.52-.95,1.4-.36,1.11,.11,1.83,1.13,2.23,.73,.29,1.43,.13,1.94-.45,.62-.71,.87-1.5,.06-2.27h0Zm-90.92-112.26c-1.27,.21-2.1,.91-2.08,2.19,.02,1.4,.89,2.19,2.32,2.07,1.3-.11,1.98-.95,1.92-2.24-.06-1.33-.92-1.92-2.16-2.02Zm-87.15,98.13c1.28-.13,2.04-.83,2.06-2.13,.01-1.29-.7-2.12-2.01-2.15-1.42-.03-2.25,.84-2.21,2.21,.04,1.25,.86,1.97,2.16,2.07h0Zm126.15-35.61c-.08-1.26-.7-2.14-2-2.2-1.4-.07-2.26,.76-2.27,2.15,0,1.29,.82,2.04,2.1,2.08,1.31,.04,2.01-.73,2.17-2.03Zm10.48,2.74c-.19-1.27-.86-2.12-2.17-2.12s-2.11,.8-2.11,2.11,.79,2.11,2.11,2.11,1.99-.84,2.18-2.1h-.01Zm61.61,32.8c.85-.09,1.33-.58,1.34-1.37,0-.92-.52-1.48-1.47-1.43-.8,.04-1.34,.54-1.34,1.35,0,.93,.58,1.39,1.48,1.45h-.01Zm-53.88-31.33c.04-.8-.32-1.42-1.12-1.58-.94-.19-1.57,.31-1.68,1.25-.09,.83,.41,1.37,1.23,1.49,.84,.12,1.36-.32,1.57-1.16h0Zm-159.6,30.67c-.09-.89-.52-1.5-1.45-1.49-.8,0-1.32,.55-1.36,1.34-.05,.93,.51,1.47,1.43,1.47,.8,0,1.26-.51,1.39-1.31h-.01Zm196.35-35.53c-.12-.83-.61-1.31-1.44-1.29-.82,.02-1.39,.51-1.37,1.35,.02,.92,.55,1.52,1.53,1.43,.84-.08,1.23-.66,1.27-1.49h0Zm-105.45-36.8c-.8,.02-1.38,.41-1.47,1.21-.11,.91,.39,1.54,1.3,1.61,.92,.06,1.47-.52,1.49-1.43,.01-.81-.52-1.26-1.31-1.38h-.01Zm-35.82,43.66c-.14-.82-.62-1.35-1.43-1.33-.8,0-1.38,.51-1.36,1.35,.02,.91,.54,1.51,1.52,1.43,.83-.07,1.22-.64,1.28-1.45h-.01Zm-31.25-1.22c-.8,.15-1.36,.59-1.3,1.43,.06,.93,.65,1.47,1.6,1.33,.8-.12,1.28-.69,1.18-1.52-.1-.81-.63-1.25-1.47-1.25h-.01Zm129.1-17.19c-.13-.7-.54-1.25-1.38-1.27-.83-.02-1.38,.45-1.42,1.28-.04,.94,.5,1.5,1.46,1.47,.84-.03,1.25-.58,1.35-1.49h0Zm-53.22-41.13c-.11-.84-.56-1.36-1.39-1.36-.96,0-1.49,.59-1.41,1.53,.07,.81,.63,1.28,1.47,1.22,.83-.06,1.25-.59,1.32-1.39h.01Zm25.46,51.48c-.16-.77-.59-1.33-1.43-1.28-.94,.05-1.45,.64-1.32,1.59,.11,.82,.69,1.25,1.51,1.17,.82-.09,1.22-.64,1.24-1.48Zm-41.58-10.31c-.82,.07-1.35,.5-1.4,1.32-.05,.83,.41,1.4,1.22,1.48,.94,.09,1.53-.46,1.53-1.4,0-.81-.53-1.28-1.34-1.4h-.01Z"/><path class="cls-9" d="M674.97,292.31c-6.83-8.63-11.97-18.22-16.07-28.39-4.58-11.37-7.63-23.12-8.62-35.37,9.4,.15,18.79,.46,28.18,.89,6.37,.3,12.75,.36,19.12,.53,.4,0,.79,.1,1.19,.12,6.42,.39,12.84,.78,19.26,1.17,.26,.84,.53,1.67,.79,2.51,12.27,40.19,59.94,56.65,94.31,32.58,8.55-5.99,14.99-13.78,19.83-22.96,2.43,.36,4.86,.7,7.29,1.09,9.55,1.54,19.1,3.08,28.64,4.66,2.97,.49,5.91,1.1,8.87,1.66-.48,.63-.92,.8-1.34,1-.54,.27-1.47,.13-1.52,.91-.04,.68,.71,.99,1.28,1.27,.57,.28,1.13,.61,1.73,.81,6.67,2.17,13.43,3.93,20.52,3.95-3.85,11.42-9.32,22-16.52,31.68-1.02-.17-2.04-.32-3.05-.5-5.31-.97-10.58-2.29-16.05-1.99-1.09,.06-2.5-.23-2.91,1.04-.37,1.15,1.01,1.65,1.67,2.4,.2,.23,.54,.34,.79,.52,4.06,2.9,8.63,4.79,13.24,6.59-8.39,10.38-18.37,18.92-29.74,25.87-.55,.04-1.13-.01-1.66,.13-12.98,3.38-26.04,6.44-39.17,9.2-4.89,1.03-9.79,2.01-14.81,2.17-1.29,.04-2.71,.18-3.25-1.35-.55-1.56,.85-2.24,1.73-3.1,.78-.75,2.73-.89,2.43-1.92-.4-1.4-2.42-.59-3.58-1.23-.12-.07-.32-.03-.47-.01-4.97,.62-9.84,1.88-13.66,5.15-4.75,4.06-10.1,6.83-15.83,9.05-11.91-1.69-23.24-5.3-34.09-10.45,1.12-1.69,3.66-1,4.86-2.76h-10.3c-4.37-1.99-8.4-4.54-12.3-7.32,.39-.73,1.04-.97,1.81-.9,2.01,.21,3.97-.22,5.92-.54,3.02-.5,6.16-.76,9.07-2.79-3.53-1.41-6.9-1.56-10.16-1.8-4.92-.36-9.88-.13-14.82-.15-.46-.35-.92-.7-1.38-1.06-.03-.8,.11-1.5,.56-2.24,1.47-2.4,.87-3.63-1.82-4.57-2.11-.74-4.06,.13-6.08,.29-2.43-2.06-4.59-4.37-6.57-6.85,1.84-1.08,4.14-1.82,5.85-.97,6.22,3.08,12.66,2.68,19.16,1.88,1.79-.22,3.73-.34,5.48-1.47-2.46-1.02-4.84-.82-7.2-.85-1.08-.01-2.01-.48-2.06-1.57-.06-1.26,.92-1.73,2.09-1.77,.56-.02,1.12,0,1.67-.05,.59-.05,.91-.36,.56-.94-1.39-2.34,.27-2.39,1.83-2.37,3.51,.04,7.02,.07,10.48-.51,2.6-.43,5.32-.4,8.18-1.67-5.46-1.8-10.72-2.49-15.99-3.07-1.99-.22-4.02-1.2-6.01,.22-2.64,1.88-5.71,2.78-8.81,3.52-3.75,.89-7.43,.94-10.75-1.44-.76-.54-1.48-.39-2.26-.08-3.06,1.21-6.32,1.51-9.51,2.14h-.03Z"/><path class="cls-13" d="M757.58,342.44c5.73-2.23,11.08-4.99,15.83-9.05,3.82-3.27,8.69-4.53,13.66-5.15,.16-.02,.35-.06,.47,.01,1.16,.65,3.18-.17,3.58,1.23,.3,1.03-1.66,1.17-2.43,1.92-.88,.85-2.28,1.54-1.73,3.1,.54,1.53,1.96,1.39,3.25,1.35,5.02-.15,9.92-1.14,14.81-2.17,13.13-2.76,26.19-5.82,39.17-9.2,.53-.14,1.11-.09,1.66-.13-9.12,6.2-19.16,10.48-29.6,13.83-14.83,4.75-30.06,6.59-45.6,5.77-4.38-.23-8.76-.63-13.07-1.52h0Z"/><path class="cls-13" d="M898.43,258.75c-7.09-.02-13.84-1.78-20.52-3.95-.6-.2-1.16-.53-1.73-.81-.58-.28-1.33-.59-1.28-1.27,.05-.78,.98-.65,1.52-.91,.42-.21,.86-.37,1.34-1-2.95-.56-5.9-1.17-8.87-1.66-9.54-1.58-19.09-3.12-28.64-4.66-2.43-.39-4.86-.73-7.29-1.09,.9-1.97,1.47-4.1,2.75-5.89,3.93,.61,7.87,1.22,11.8,1.83,18.02,2.81,35.98,5.97,53.89,9.36-.44,3.51-1.69,6.79-2.98,10.05h.01Z"/><path class="cls-13" d="M718.03,231.27c-6.42-.39-12.84-.78-19.26-1.17-.4-.02-.79-.11-1.19-.12-6.37-.17-12.75-.24-19.12-.53-9.39-.44-18.78-.75-28.18-.89-.19-2.06-.37-4.11-.56-6.17,1.11-.02,2.23-.08,3.34-.05,21.27,.49,42.52,1.2,63.75,2.66,.4,2.09,.81,4.19,1.21,6.28h.01Z"/><path class="cls-13" d="M649.75,211.68c5.18,.04,10.37-.02,15.54,.13,9.27,.26,18.55,.55,27.81,.97,7.69,.35,15.38,.89,23.07,1.35,.05,2.08,.09,4.17,.14,6.25-.8,0-1.59,.02-2.39-.04-21.39-1.38-42.8-2.18-64.23-2.46-.22-2.07-.2-4.14,.06-6.2h0Z"/><path class="cls-13" d="M838.35,227.08c14.27,2.22,28.55,4.38,42.76,7.04,7.57,1.41,15.16,2.7,22.74,4.04-.21,2.16-.38,4.32-1.43,6.28-7.44-1.4-14.87-2.89-22.33-4.2-14.29-2.51-28.59-4.94-42.96-6.95-.04-2.16,.81-4.15,1.22-6.22h0Z"/><path class="cls-11" d="M674.97,292.31c3.19-.63,6.46-.93,9.51-2.14,.78-.31,1.5-.46,2.26,.08,3.32,2.38,7,2.33,10.75,1.44,3.1-.74,6.17-1.64,8.81-3.52,1.99-1.42,4.02-.43,6.01-.22,5.27,.58,10.53,1.27,15.99,3.07-2.86,1.27-5.57,1.23-8.18,1.67-3.46,.58-6.97,.55-10.48,.51-1.56-.02-3.22,.03-1.83,2.37,.35,.58,.03,.89-.56,.94-.56,.05-1.12,.03-1.67,.05-1.17,.03-2.16,.5-2.09,1.77,.06,1.09,.98,1.55,2.06,1.57,2.36,.03,4.74-.17,7.2,.85-1.75,1.13-3.69,1.26-5.48,1.47-6.5,.8-12.94,1.2-19.16-1.88-1.72-.85-4.02-.11-5.85,.97-2.69-2.79-5.16-5.77-7.31-9h.02Z"/><path class="cls-4" d="M837.13,233.3c14.37,2.01,28.67,4.44,42.96,6.95,7.46,1.31,14.88,2.79,22.33,4.2,.01,1.5-.17,2.96-1,4.26-17.92-3.39-35.88-6.55-53.89-9.36-3.93-.61-7.87-1.22-11.8-1.83,.06-1.54,.42-2.98,1.42-4.2l-.02-.02Z"/><path class="cls-4" d="M649.69,217.89c21.43,.28,42.84,1.09,64.23,2.46,.79,.05,1.59,.03,2.39,.04,.17,1.54,.34,3.07,.5,4.61-21.23-1.46-42.48-2.17-63.75-2.66-1.11-.03-2.23,.03-3.34,.05l-.03-4.5Z"/><path class="cls-11" d="M875.59,298.49c-4.61-1.8-9.18-3.69-13.24-6.59-.26-.18-.59-.29-.79-.52-.65-.75-2.03-1.25-1.67-2.4,.41-1.28,1.82-.98,2.91-1.04,5.47-.3,10.74,1.01,16.05,1.99,1.01,.19,2.04,.34,3.05,.5-1.87,2.88-3.91,5.61-6.32,8.07h0Z"/><path class="cls-11" d="M697.57,315.74c4.94,.02,9.9-.21,14.82,.15,3.26,.24,6.63,.38,10.16,1.8-2.92,2.03-6.05,2.29-9.07,2.79-1.95,.32-3.91,.75-5.92,.54-.77-.08-1.42,.17-1.81,.9-2.9-1.83-5.69-3.81-8.19-6.17h.01Z"/><path class="cls-13" d="M688.85,308.17c2.02-.16,3.98-1.03,6.08-.29,2.69,.94,3.29,2.18,1.82,4.57-.45,.74-.59,1.44-.56,2.24-2.64-1.95-5.1-4.12-7.34-6.52h0Z"/><path class="cls-13" d="M718.06,329.23h10.3c-1.2,1.77-3.74,1.07-4.86,2.76-1.93-.7-3.79-1.52-5.44-2.76h0Z"/><path class="cls-6" d="M483.19,124.5c1.21,.14,2.08,.73,2.17,2.04,.09,1.31-.64,2.13-1.92,2.23-1.39,.1-2.3-.62-2.33-2.06-.03-1.31,.83-1.96,2.08-2.2h0Z"/><path class="cls-6" d="M455.41,149.76c-.1,1.4-.72,2.25-2.04,2.29-1.42,.04-2.25-.83-2.22-2.2,.03-1.24,.84-2.06,2.14-2.06s1.95,.84,2.12,1.97h0Z"/><path class="cls-5" d="M391.87,206.62c.82,.02,1.22,.57,1.37,1.31,.17,.84-.27,1.4-1.09,1.51-.95,.12-1.52-.43-1.57-1.35-.05-.81,.44-1.31,1.3-1.47h0Z"/><path class="cls-5" d="M565.52,120.95c-.17,.85-.66,1.41-1.6,1.3-.81-.1-1.26-.66-1.2-1.46,.07-.92,.64-1.43,1.57-1.32,.8,.09,1.22,.63,1.23,1.48Z"/><path class="cls-6" d="M417.34,144.37c-.84-.05-1.39-.47-1.48-1.3-.09-.83,.35-1.42,1.19-1.5,.94-.1,1.56,.42,1.6,1.37,.04,.84-.51,1.29-1.31,1.43h0Z"/><path class="cls-5" d="M434.35,172.88c-.79-.11-1.32-.54-1.35-1.35-.04-.93,.5-1.49,1.42-1.48,.8,0,1.34,.53,1.37,1.32,.04,.92-.55,1.39-1.45,1.5h.01Z"/><path class="cls-6" d="M470.23,139.53c-.05,.84-.47,1.38-1.3,1.45-.84,.08-1.38-.39-1.46-1.22-.09-.95,.43-1.53,1.38-1.55,.85-.02,1.27,.54,1.39,1.32h-.01Z"/><path class="cls-6" d="M418.65,123.19c-.07,.85-.48,1.41-1.32,1.46-.97,.06-1.5-.54-1.49-1.46,.01-.84,.57-1.34,1.39-1.32,.81,.02,1.31,.51,1.41,1.32h.01Z"/><path class="cls-5" d="M409.05,219.88c-.8-.08-1.35-.52-1.37-1.34-.02-.95,.56-1.49,1.51-1.43,.82,.05,1.31,.59,1.27,1.43-.04,.83-.56,1.27-1.41,1.34h0Z"/><path class="cls-5" d="M538.87,128.44c.79,.12,1.32,.58,1.29,1.41-.03,.94-.62,1.46-1.58,1.35-.83-.09-1.28-.67-1.2-1.49s.62-1.24,1.49-1.27h0Z"/><path class="cls-6" d="M520.62,125.86c-.1,.8-.54,1.35-1.37,1.34-.94,0-1.48-.58-1.4-1.53,.07-.83,.63-1.28,1.46-1.23,.83,.05,1.25,.59,1.31,1.43h0Z"/><path class="cls-6" d="M405.91,163.49c-.14,.82-.6,1.34-1.43,1.32-.96-.02-1.47-.64-1.36-1.56,.09-.8,.69-1.26,1.51-1.18s1.24,.62,1.28,1.43h0Z"/><path class="cls-4" d="M493.82,122.13c.7-.04,1.34,.2,1.4,.92,.09,.92-.82,1.15-1.43,1.26-.74,.13-1.29-.52-1.32-1.21-.03-.78,.68-.94,1.34-.97h0Z"/><path class="cls-6" d="M500.69,208.8c-.21,1.26-.8,2.17-2.15,2.17s-2.09-.81-2.13-2.11c-.04-1.35,.81-2.09,2.09-2.12,1.31-.03,2,.82,2.19,2.06Z"/><path class="cls-5" d="M525.52,212.62c-.15,1.03-.65,1.59-1.57,1.54-.8-.04-1.29-.57-1.29-1.38s.46-1.34,1.27-1.4c.94-.08,1.36,.55,1.59,1.24h0Z"/><path class="cls-6" d="M716.82,224.99c-.17-1.54-.34-3.07-.5-4.61-.05-2.08-.09-4.17-.14-6.25,.52-10.04,3.02-19.52,8-28.3,7.5-13.22,18.51-21.73,29.62-26.38,42.96-17.97,89.43,16.05,85.2,62.39-.16,1.75-.43,3.48-.65,5.23-.41,2.07-1.26,4.06-1.22,6.22-.99,1.23-1.35,2.67-1.42,4.2-1.29,1.79-1.85,3.92-2.76,5.89-4.84,9.18-11.28,16.98-19.83,22.96-34.37,24.07-82.04,7.61-94.31-32.58-.26-.84-.52-1.67-.79-2.51-.4-2.09-.81-4.19-1.21-6.28v.02Zm112-9c-.19-28.18-23.3-51.09-51.32-50.88-28.11,.21-50.89,23.19-50.73,51.16,.16,28.06,23.16,50.89,51.14,50.76,28.07-.14,51.11-23.23,50.92-51.04h-.01Z"/><path class="cls-6" d="M776.87,89.95c1.24,.11,2.1,.69,2.16,2.02,.06,1.29-.62,2.13-1.92,2.24-1.43,.12-2.29-.67-2.32-2.07-.02-1.28,.81-1.98,2.08-2.19Z"/><path class="cls-6" d="M689.72,188.08c-1.3-.1-2.12-.83-2.16-2.07-.04-1.37,.79-2.24,2.21-2.21,1.3,.03,2.02,.85,2.01,2.15-.01,1.3-.77,2-2.06,2.13h0Z"/><path class="cls-5" d="M815.87,152.48c-.15,1.3-.85,2.07-2.17,2.03-1.28-.04-2.11-.79-2.1-2.08,0-1.39,.87-2.22,2.27-2.15,1.3,.06,1.91,.95,2,2.2Zm-2.07,1.15c.62-.23,1.2-.6,1.12-1.31-.08-.77-.62-1.33-1.44-1.16-.63,.13-1.15,.65-1.01,1.36,.12,.63,.6,1.07,1.33,1.11Z"/><path class="cls-5" d="M826.35,155.21c-.19,1.26-.86,2.1-2.18,2.1s-2.11-.81-2.11-2.11,.79-2.11,2.11-2.11,1.99,.85,2.17,2.12h.01Zm-3.41,0c.12,.69,.54,1.21,1.2,1.23,.8,.03,1.35-.54,1.29-1.33-.05-.64-.55-1.18-1.27-1.13-.68,.05-1.08,.54-1.22,1.22h0Z"/><path class="cls-5" d="M887.96,188.02c-.9-.06-1.49-.52-1.48-1.45,0-.81,.54-1.31,1.34-1.35,.95-.05,1.48,.52,1.47,1.43,0,.79-.49,1.29-1.34,1.37h.01Z"/><path class="cls-2" d="M867.79,202.21c.81,.78,.57,1.56-.06,2.27-.51,.58-1.21,.74-1.94,.45-1.02-.4-1.49-1.12-1.13-2.23,1-.42,2.02-.71,3.12-.5h.01Z"/><path class="cls-5" d="M834.08,156.68c-.21,.84-.73,1.29-1.57,1.16-.82-.12-1.32-.66-1.23-1.49,.1-.94,.74-1.44,1.68-1.25,.8,.16,1.16,.78,1.12,1.58h0Z"/><path class="cls-5" d="M674.48,187.35c-.12,.8-.58,1.31-1.39,1.31-.92,0-1.48-.53-1.43-1.47,.04-.79,.56-1.33,1.36-1.34,.93,0,1.37,.6,1.45,1.49h.01Z"/><path class="cls-5" d="M870.83,151.83c-.05,.83-.44,1.41-1.27,1.49-.98,.09-1.51-.51-1.53-1.43-.02-.84,.54-1.33,1.37-1.35s1.32,.47,1.44,1.29h0Z"/><path class="cls-5" d="M765.38,115.03c.79,.13,1.32,.57,1.31,1.38-.01,.91-.57,1.49-1.49,1.43-.9-.06-1.41-.7-1.3-1.61,.1-.79,.67-1.19,1.48-1.21h0Z"/><path class="cls-2" d="M840.33,175.81c.81-.99,1.8-1.37,2.88-.55,1.13,.86,.75,1.93,.17,2.96-.3,.04-.6,.07-.9,.11-.48-.66-1.04-.64-1.65-.2-.1-.02-.17-.09-.2-.19,.37-.77,.72-1.55-.3-2.13Z"/><path class="cls-6" d="M729.56,158.7c-.06,.8-.45,1.37-1.28,1.45-.98,.09-1.5-.52-1.52-1.43-.02-.84,.56-1.34,1.36-1.35,.81,0,1.29,.51,1.43,1.33h.01Z"/><path class="cls-6" d="M698.3,157.48c.84,0,1.37,.44,1.47,1.25,.1,.83-.38,1.4-1.18,1.52-.95,.14-1.54-.4-1.6-1.33-.05-.84,.5-1.28,1.3-1.43h.01Z"/><path class="cls-6" d="M827.41,140.28c-.09,.91-.51,1.46-1.35,1.49-.96,.03-1.5-.53-1.46-1.47,.04-.83,.6-1.3,1.42-1.28,.84,.02,1.25,.56,1.38,1.27h0Z"/><path class="cls-5" d="M774.18,99.14c-.07,.8-.49,1.33-1.32,1.39-.84,.06-1.4-.41-1.47-1.22-.08-.94,.45-1.53,1.41-1.53,.83,0,1.28,.53,1.39,1.36h-.01Z"/><path class="cls-6" d="M799.64,150.63c-.02,.84-.42,1.4-1.24,1.48s-1.39-.35-1.51-1.17c-.13-.95,.38-1.54,1.32-1.59,.84-.05,1.27,.51,1.43,1.28Z"/><path class="cls-6" d="M758.07,140.31c.81,.12,1.34,.59,1.34,1.4,0,.94-.59,1.49-1.53,1.4-.81-.08-1.27-.66-1.22-1.48,.05-.83,.59-1.25,1.4-1.32h.01Z"/><path class="cls-5" d="M867.79,202.21c-1.1-.21-2.12,.08-3.12,.5-.29-.88,.17-1.35,.95-1.4,.83-.06,1.91-.48,2.18,.91h-.01Z"/><path class="cls-6" d="M840.33,175.81c1.02,.58,.67,1.35,.3,2.13-.91-.6-.8-1.33-.3-2.13Z"/><path class="cls-6" d="M840.82,178.12c.61-.44,1.17-.45,1.65,.2,.03,.13,.03,.25,0,.38-.62,0-1.34,.28-1.66-.58h.01Z"/><path class="cls-15" d="M842.48,178.71c.03-.13,.02-.25,0-.38,.3-.04,.6-.08,.9-.11,.02,.74-.2,1.05-.89,.49h-.01Z"/><path class="cls-14" d="M828.8,215.99c.19,27.81-22.85,50.9-50.92,51.04-27.97,.14-50.98-22.69-51.14-50.76-.16-27.97,22.63-50.95,50.73-51.16,28.02-.21,51.14,22.7,51.32,50.88h.01Zm-83.45-3.31c3.19,0,6.39-.07,9.58,.03,1.44,.04,2.01-.38,2.41-1.85,2.6-9.57,10.72-15.84,20.31-15.87,9.73-.02,17.88,6.22,20.52,15.92,.42,1.54,1.1,1.8,2.47,1.79,6.39-.05,12.78-.06,19.16,0,1.6,.02,1.97-.36,1.75-2.03-3.19-24.9-26.04-42.02-51-38.13-18.92,2.95-34.43,19.11-36.61,37.97-.23,1.99,.36,2.26,2.07,2.19,3.11-.12,6.23-.03,9.34-.03h0Zm.06,6.8c-3.2,0-6.4,.09-9.59-.04-1.69-.07-2.11,.33-1.9,2.1,2.61,21.76,21.6,38.61,43.72,38.68,22.26,.06,41.32-16.87,43.95-38.97,.21-1.72-.41-1.81-1.75-1.8-6.47,.05-12.95,.06-19.42,0-1.34,0-1.87,.33-2.25,1.72-2.6,9.7-10.76,16-20.48,16s-17.79-6.29-20.43-16.05c-.39-1.44-1-1.69-2.28-1.66-3.19,.07-6.39,.02-9.59,.02h.02Zm46.56-3.11c.29-7.51-6.15-14.2-13.95-14.51-7.51-.3-14.21,6.13-14.52,13.94-.3,7.5,6.15,14.21,13.94,14.51,7.5,.29,14.23-6.16,14.52-13.94h.01Z"/><path class="cls-2" d="M813.79,153.63c-.73-.04-1.2-.48-1.33-1.11-.14-.71,.38-1.24,1.01-1.36,.82-.16,1.36,.4,1.44,1.16,.07,.71-.5,1.08-1.12,1.31Z"/><path class="cls-2" d="M822.94,155.21c.14-.68,.54-1.18,1.22-1.22,.72-.05,1.22,.48,1.27,1.13,.06,.8-.49,1.36-1.29,1.33-.67-.02-1.08-.55-1.2-1.23h0Z"/><path class="cls-1" d="M745.35,212.67c-3.11,0-6.23-.08-9.34,.03-1.71,.06-2.3-.2-2.07-2.19,2.18-18.86,17.69-35.03,36.61-37.97,24.96-3.89,47.81,13.24,51,38.13,.21,1.67-.15,2.05-1.75,2.03-6.39-.07-12.78-.06-19.16,0-1.37,0-2.05-.25-2.47-1.79-2.64-9.7-10.79-15.94-20.52-15.92-9.59,.02-17.71,6.29-20.31,15.87-.4,1.47-.97,1.9-2.41,1.85-3.19-.1-6.39-.03-9.58-.03h0Z"/><path class="cls-2" d="M745.41,219.47c3.2,0,6.39,.05,9.59-.02,1.28-.03,1.89,.22,2.28,1.66,2.64,9.76,10.73,16.04,20.43,16.05,9.72,0,17.88-6.3,20.48-16,.37-1.39,.9-1.73,2.25-1.72,6.47,.06,12.95,.05,19.42,0,1.34,0,1.96,.08,1.75,1.8-2.64,22.1-21.69,39.03-43.95,38.97-22.12-.06-41.11-16.91-43.72-38.68-.21-1.77,.2-2.17,1.9-2.1,3.19,.13,6.39,.04,9.59,.04h-.02Z"/><path class="cls-2" d="M791.97,216.36c-.3,7.78-7.02,14.23-14.52,13.94-7.8-.3-14.24-7.01-13.94-14.51,.31-7.8,7.01-14.23,14.52-13.94,7.8,.31,14.23,7,13.95,14.51h-.01Z"/></g></svg>