<?xml version="1.0" encoding="utf-8"?>
<!-- Generator: Adobe Illustrator 27.0.0, SVG Export Plug-In . SVG Version: 6.00 Build 0)  -->
<svg version="1.1" id="Capa_1" xmlns="http://www.w3.org/2000/svg" xmlns:xlink="http://www.w3.org/1999/xlink" x="0px" y="0px"
	 viewBox="0 0 1544 432" style="enable-background:new 0 0 1544 432;" xml:space="preserve">
<style type="text/css">
	.st0{fill:#09234E;}
	.st1{fill:#5B5B5C;}
	.st2{fill:#0A234F;}
	.st3{fill:#BCBDBE;}
	.st4{fill:#BDBDBE;}
	.st5{fill:#0C4DA1;}
	.st6{fill:#073375;}
	.st7{fill:#0E4EA2;}
	.st8{fill:#B5E3FB;}
	.st9{fill:#063375;}
	.st10{fill:#FCFCFC;}
	.st11{fill:#0C2550;}
	.st12{fill:#FC1E27;}
	.st13{fill:#FFFFFF;}
</style>
<path class="st0" d="M59.6,0h1424.9c32.9,0,59.6,26.7,59.6,59.6v312.9c0,32.9-26.7,59.6-59.6,59.6H59.6C26.7,432,0,405.3,0,372.4
	V59.6C0,26.7,26.7,0,59.6,0z"/>
<g>
	<path class="st1" d="M249.4,370.3c-1.1-1.1-2.5-0.7-3.8-0.8c-68.2-7-124.2-59.3-135.8-126.9C95.5,158.9,150.5,79.8,233.9,64.3
		c61.4-11.4,124.2,15.8,158,68.4c1.1,1.8,0.8,2.6-0.5,4c-7.4,7.3-14.7,14.6-22.1,22c-0.6,0.6-1.4,1-2.1,1.5c0.8,1.2,1.5,0.8,2.1,0.8
		c10.7,0,21.4,0,32.1,0.1c1.7,0,2.3-0.6,2.9-2c22-51.6,60.3-83.7,115.3-94.5c81.8-16.1,162.4,38.3,179.2,119.9
		c1.2,6.1,2.2,12.3,2.8,18.5c0.1,0.6-0.2,1.3,0.5,1.7V228c-0.8,0.4-0.5,1.1-0.6,1.7c-0.6,5.2-1.3,10.4-2.2,15.6
		c-12.6,66.3-68.2,117.3-135.3,124.1c-1.4,0.1-3-0.2-4.3,0.9h-23c-0.5-0.8-1.3-0.5-2-0.5c-5.1-0.5-10.2-1-15.2-2.1
		c-53.2-11.2-91.2-41.5-113.7-91c-0.3-0.6-0.3-1.4-1.2-1.7c-0.2,0.5-0.5,1-0.7,1.5c-24.2,52.6-64.8,83.5-122.1,92.5
		c-3.1,0.5-6.3,0.3-9.4,1.3L249.4,370.3L249.4,370.3z M404.8,258.4c11.7,36.3,33.2,64.9,65.8,84.6c32.6,19.8,68,26.1,105.3,18.9
		c66.1-12.7,115.9-67.6,120.3-136.7c4.3-67.7-37.8-131.6-106.8-151.9c-32.8-9.7-65.5-8.2-97.2,4.8c-43.9,18.1-72.7,50.5-87.5,96.1
		c-0.8-2.2-1.4-3.8-1.8-5.5c-0.4-1.7-1.3-2.2-3-2.2c-14.5,0.1-29.1,0.1-43.6,0c-0.8,0-1.7,0.2-3.1-0.6c1-0.7,1.8-1.1,2.4-1.8
		c9.6-9.5,19.1-19.1,28.7-28.6c1.2-1.2,1.5-2.1,0.4-3.6c-3.8-5.6-8-11-12.6-15.9c-13.6-14.8-29.5-26.5-47.7-35
		c-17.1-7.9-35.1-12.4-53.9-13.6c-12.4-0.8-24.7,0-36.9,2.4c-27,5.4-51,17.2-71.5,35.7c-13.7,12.3-24.8,26.8-33.1,43.3
		c-9.2,18.1-14.4,37.4-15.7,57.7c-0.8,11.7-0.2,23.4,2,35c3,16.2,8.2,31.6,16.2,46c5.7,10.3,12.4,19.9,20.4,28.5
		c13.8,15,29.9,26.8,48.4,35.2c16.7,7.6,34.3,12,52.6,13.1c12.1,0.8,24.2,0,36.2-2.3c16.4-3.1,31.8-8.7,46.3-16.9
		c16.1-9.2,30.1-20.9,41.8-35.3c8.8-10.9,16.1-22.8,21.6-35.7C400.9,269.1,402.7,263.7,404.8,258.4L404.8,258.4z"/>
	<path class="st2" d="M404.8,258.4c-2.1,5.3-3.8,10.7-6,15.9c-5.5,12.9-12.7,24.8-21.6,35.7c-11.7,14.4-25.7,26.1-41.8,35.3
		c-14.5,8.2-29.9,13.8-46.3,16.9c-12,2.3-24.1,3-36.2,2.3c-18.3-1.1-35.8-5.5-52.6-13.1c-18.6-8.4-34.7-20.2-48.4-35.2
		c-8-8.6-14.7-18.2-20.4-28.5c-8-14.5-13.2-29.8-16.2-46c-2.1-11.6-2.7-23.3-2-35c1.3-20.2,6.5-39.5,15.7-57.7
		c8.3-16.5,19.4-30.9,33.1-43.3c20.5-18.5,44.4-30.3,71.5-35.7c12.2-2.4,24.5-3.2,36.9-2.4c18.8,1.2,36.8,5.6,53.9,13.6
		c18.3,8.5,34.1,20.2,47.7,35c4.6,5,8.7,10.3,12.6,15.9c1.1,1.6,0.8,2.4-0.4,3.6c-9.6,9.5-19.1,19.1-28.7,28.6
		c-0.6,0.6-1.4,1.1-2.4,1.8c1.4,0.8,2.3,0.6,3.1,0.6c14.5,0,29.1,0.1,43.6,0c1.8,0,2.6,0.5,3,2.2c0.4,1.7,1.1,3.3,1.8,5.5
		c14.8-45.6,43.5-78,87.5-96.1c31.7-13,64.3-14.5,97.2-4.8c69.1,20.3,111.2,84.2,106.8,151.9c-4.4,69.1-54.2,124-120.3,136.7
		c-37.3,7.2-72.7,0.8-105.3-18.9C438,323.3,416.5,294.7,404.8,258.4L404.8,258.4z M330,176.7c-0.1-0.2-0.3-0.5-0.4-0.8
		c0.6-0.5,1.4-0.9,1.9-1.4c13.3-13.2,26.5-26.5,39.9-39.8c1.2-1.2,1.5-2,0.3-3.5c-4.7-5.8-9.5-11.4-15-16.4
		c-34.2-30.8-74.2-43.1-119.4-35C161,93.3,111.4,166.1,125.7,242.1c13,69.3,77.5,118.3,147.8,112c35.4-3.2,65.8-17.3,89.7-43.5
		c34.5-37.8,44.8-82,32.5-131.6c-0.5-1.8-1.3-2.3-3.1-2.3c-20.1,0.1-40.1,0-60.2,0C331.5,176.7,330.7,176.7,330,176.7L330,176.7z
		 M686.4,216c0-76.4-62-138.4-138.4-138.5c-76.8-0.1-138.9,61.8-138.9,138.5c0,76.5,62,138.6,138.5,138.6
		C624.3,354.7,686.4,292.7,686.4,216L686.4,216z"/>
	<path class="st3" d="M330,176.7c0.8,0,1.5,0,2.3,0c20.1,0,40.1,0,60.2,0c1.8,0,2.7,0.4,3.1,2.3c12.4,49.6,2,93.8-32.5,131.6
		c-23.9,26.2-54.3,40.4-89.7,43.5c-70.2,6.3-134.7-42.7-147.8-112C111.4,166.1,161,93.3,237.2,79.8c45.3-8,85.2,4.2,119.4,35.1
		c5.5,5,10.4,10.6,15,16.4c1.2,1.5,1,2.3-0.3,3.5c-13.3,13.2-26.6,26.5-39.9,39.8c-0.6,0.6-1.3,1-1.9,1.4
		C329.7,176.2,329.8,176.5,330,176.7L330,176.7z M202.4,232.1l-1.4-6.1c-0.6-6.3-0.8-12.6,0-18.9c3.6-28,28.5-51.2,56.8-52.5
		c21.4-1,39,6.8,52.6,23.4c0.8,0.9,1.2,1.7,2.5,0.4c14.9-15,29.9-30,44.9-44.9c1.1-1.1,0.9-1.8,0-2.7c-2.1-2.2-4.1-4.5-6.3-6.6
		c-31.9-29.8-69.4-41.6-112.5-34.2c-27.3,4.6-50.6,17.5-69.7,37.5c-19.9,20.9-31.4,45.8-34.7,74.3c-1.4,11.8-1.1,23.6,1.1,35.3
		c0.2,2.1,0.5,4.2,1.1,6.2c0.3,1.5,0.7,2.9,1,4.4c0.5,2,0.9,4.1,1.8,6c0.9,3.5,2.1,6.9,3.6,10.2c0.2,0.7,0.4,1.4,0.7,2
		c7.9,18.6,19.5,34.6,35,47.5c27.1,22.7,58.4,32.8,93.7,30c24.2-1.9,46.1-10.4,65.6-24.8c8.3-6.1,15.9-13.1,22.2-21.3
		c6.1-6.9,11-14.5,15.1-22.6c7.5-14.6,12.2-29.9,13.6-46.3l0.6-6.3c0-1.5,0-3.1,0.1-4.6c0-2.1-0.1-4.3-0.1-6.4
		c0.3-1.4-0.4-2.7-0.4-4c0.1-5.9-1.2-11.6-2.1-17.3c-0.3-2.3-1.3-2.9-3.6-2.9c-40.7,0.1-81.3,0.1-122,0.1c-0.4,0-0.8,0-1.2,0
		c-1.2-0.1-1.7,0.4-1.7,1.6c0.1,9.9,0.1,19.8,0.1,29.7c0,2.1-0.1,4.2-0.1,6.3c0,1.6,0,3.1,0,4.7c0,2.1,0.1,4.1,0.1,6.2
		c0,1.6,0,3.2-0.1,4.8c-0.2,2,0.6,2.4,2.4,2.3c17.6-0.1,35.1,0,52.7,0c0.6,0,1.1,0,1.7,0c1,0,1.4,0.3,0.8,1.2
		c-0.3,0.6-0.7,1.3-1,1.9c-17.5,31.5-58.4,41.2-88.3,21c-9.3-6.3-16.2-14.6-21.2-24.6c-0.8-2-1.5-4-2.3-5.9
		C203.3,235,202.8,233.6,202.4,232.1L202.4,232.1z M293.7,176.7c-10-9.4-31.7-16.5-52.7-7.1c-19.8,8.8-32.1,30-29.8,51.7
		c2.3,21.9,18.7,40,39.9,44.6c19.5,4.2,38.3-4.6,44.8-12.6c-1,0-1.9,0-2.7,0c-13.9,0-27.8-0.1-41.7,0.1c-2.2,0-3-0.4-3-2.8
		c0.1-23.7,0.1-47.4,0-71.1c0-2.3,0.7-2.7,2.8-2.7C265.3,176.7,279.2,176.7,293.7,176.7L293.7,176.7z"/>
	<path class="st4" d="M686.4,216c0,76.7-62.1,138.6-138.8,138.6C471,354.6,409,292.5,409,216c0-76.7,62.1-138.6,138.9-138.5
		C624.4,77.6,686.4,139.6,686.4,216z M672.4,244.4c1.1-2,1.2-4.1,1.4-6.3c2.2-11,2.6-22,1.5-33.1c-3.1-32.3-16.1-60-39.9-82.1
		c-30.7-28.5-67.4-40.3-108.7-33c-50,8.8-83.5,38.3-100.7,86.1c-4.1,11.5-6.1,23.4-6.3,35.7c-0.2,2.1-0.3,4.1-0.1,6.2
		c0,1.5,0,3,0,4.5c0.2,2.1,0.4,4.1,0.6,6.2c1,12.2,4,24,8.6,35.4c4.1,10.2,9.2,19.8,16.1,28.4c2.2,3.2,4.6,6.2,7.3,9
		c2,2.5,4.2,4.8,6.6,6.9c2.2,2.4,4.7,4.6,7.3,6.5c0.5,0.4,0.9,0.7,1.4,1.1c2.5,2.4,5.3,4.3,8.2,6.2c3.9,2.8,7.9,5.3,12.3,7.3
		c1.7,1.2,3.5,2.1,5.4,2.8c10.8,5.1,22.2,8.8,34.1,10.5c4.3,0.9,8.7,1.3,13.1,1.5c15.5,0.8,30.8-1,45.6-5.8
		c10.4-3.3,20.5-7.6,29.6-13.8c11.4-7,21.3-15.5,29.7-25.9c2.4-2.5,4.4-5.2,6.3-8.1c7.2-9.7,12.7-20.3,16.5-31.7
		c1.3-3.3,2.5-6.5,3-10.1C672.2,247.4,672.4,245.9,672.4,244.4L672.4,244.4z"/>
	<path class="st0" d="M135.6,237.3c-2.2-11.7-2.5-23.5-1.1-35.3c3.3-28.6,14.8-53.5,34.7-74.3c19.1-20,42.4-32.9,69.7-37.5
		c43.1-7.3,80.6,4.5,112.5,34.2c2.2,2.1,4.2,4.4,6.3,6.6c0.9,0.9,1.1,1.6,0,2.7c-15,14.9-30,29.9-44.9,44.9
		c-1.3,1.3-1.7,0.5-2.5-0.4c-13.6-16.6-31.1-24.4-52.6-23.4c-28.2,1.3-53.2,24.5-56.8,52.5c-0.8,6.3-0.6,12.6,0,18.9
		c-1.4,0.2-2.8,0.3-4.2,0.5c-11.3,1.9-22.7,3.7-34,5.6C153.7,233.8,144.6,235.6,135.6,237.3z M253.2,124.5c-1.2,0.2-2.1,0.9-2.1,2.2
		c0,1.4,0.9,2.2,2.3,2.1c1.3-0.1,2-0.9,1.9-2.2C255.3,125.2,254.4,124.6,253.2,124.5L253.2,124.5z M225.4,149.8
		c-0.2-1.1-0.8-2-2.1-2c-1.3,0-2.1,0.8-2.1,2.1c0,1.4,0.8,2.2,2.2,2.2C224.7,152,225.3,151.1,225.4,149.8L225.4,149.8z M161.9,206.6
		c-0.9,0.2-1.3,0.7-1.3,1.5c0,0.9,0.6,1.5,1.6,1.4c0.8-0.1,1.3-0.7,1.1-1.5C163.1,207.2,162.7,206.6,161.9,206.6L161.9,206.6z
		 M335.5,120.9c0-0.8-0.4-1.4-1.2-1.5c-0.9-0.1-1.5,0.4-1.6,1.3c-0.1,0.8,0.4,1.4,1.2,1.5C334.8,122.3,335.3,121.8,335.5,120.9z
		 M187.3,144.4c0.8-0.1,1.3-0.6,1.3-1.4c0-0.9-0.7-1.5-1.6-1.4c-0.8,0.1-1.3,0.7-1.2,1.5C185.9,143.9,186.5,144.3,187.3,144.4
		L187.3,144.4z M204.3,172.9c0.9-0.1,1.5-0.6,1.5-1.5c0-0.8-0.6-1.3-1.4-1.3c-0.9,0-1.5,0.6-1.4,1.5
		C203,172.3,203.5,172.8,204.3,172.9L204.3,172.9z M240.2,139.5c-0.1-0.8-0.5-1.4-1.4-1.3c-1,0-1.5,0.6-1.4,1.6
		c0.1,0.8,0.6,1.3,1.5,1.2C239.7,140.9,240.2,140.4,240.2,139.5L240.2,139.5z M188.6,123.2c-0.1-0.8-0.6-1.3-1.4-1.3
		c-0.8,0-1.4,0.5-1.4,1.3c0,0.9,0.5,1.5,1.5,1.5C188.2,124.6,188.6,124,188.6,123.2L188.6,123.2z M179,219.9
		c0.8-0.1,1.4-0.5,1.4-1.3c0-0.8-0.5-1.4-1.3-1.4c-0.9-0.1-1.5,0.5-1.5,1.4C177.7,219.3,178.2,219.8,179,219.9L179,219.9z
		 M308.9,128.4c-0.9,0-1.4,0.4-1.5,1.3s0.4,1.4,1.2,1.5c1,0.1,1.5-0.4,1.6-1.4C310.2,129,309.6,128.5,308.9,128.4L308.9,128.4z
		 M290.6,125.8c-0.1-0.8-0.5-1.4-1.3-1.4c-0.8-0.1-1.4,0.4-1.5,1.2c-0.1,0.9,0.5,1.5,1.4,1.5C290.1,127.2,290.5,126.6,290.6,125.8
		L290.6,125.8z M175.9,163.5c0-0.8-0.5-1.4-1.3-1.4c-0.8-0.1-1.4,0.4-1.5,1.2c-0.1,0.9,0.4,1.5,1.4,1.6
		C175.3,164.8,175.7,164.3,175.9,163.5L175.9,163.5z M263.8,122.1c-0.7,0-1.4,0.2-1.3,1c0,0.7,0.6,1.3,1.3,1.2
		c0.6-0.1,1.5-0.3,1.4-1.3C265.1,122.3,264.5,122.1,263.8,122.1z"/>
	<path class="st5" d="M360.6,297.5c-6.3,8.2-13.9,15.1-22.2,21.3c-19.5,14.5-41.4,22.9-65.6,24.8c-35.3,2.8-66.6-7.3-93.7-30
		c-15.5-13-27.1-28.9-35-47.5c-0.3-0.7-0.5-1.4-0.7-2c12.8-0.8,25.6-1.4,38.7,1c-1,1.6-2.2,1.8-3.1,2.3c-3,1.4-6.2,2-9.3,3.1
		c-1.2,0.5-2.8,0.8-2.6,2.6c0.2,1.8,1.6,2.1,3.1,2.4c6.8,1.3,13.6,1,20.4,1.3c12.4,0.6,24.9-0.3,37.3-0.4c2.3,0,4.7,0.4,6.9-0.1
		c3.3-0.7,4.8,0,5.8,3.6c1.4,4.9,6.2,6.6,10.7,7.9c5.7,1.6,11.5,2.1,17.4,1.5c1.4-0.1,3.6,1,4.1-1.2c0.5-2.1-1.8-2-2.9-2.8
		c-0.5-0.4-1.5-0.6-1.4-1.4c0.2-0.7,1.1-0.7,1.8-0.9c5.5-1.6,11.2-1.4,16.8-1.8c8.6-0.5,17.2,0.3,25.8,1c1.7,0.1,3.7,0.2,5.7,1.4
		c-4.5,1.2-8.8,1.9-13,2.4c-4.6,0.5-9.1,1.4-13.6,2.4c-1.1,0.3-2.2,1-2.1,2.2c0.1,1.4,1.3,1.6,2.6,1.6c0.8,0,1.6,0.3,2.4,0.2
		c5.6-0.5,11.3-0.5,16.9-1.1c8-0.9,16.1-1.8,24-3.5c2.2-0.5,4.9-0.8,5.7-3.3c0.5-1.5,1.4-1.7,2.4-1.8c6.7-0.5,13.5-0.7,20.2,0.1
		c0.1,0,0.1,0.2,0.2,0.4c-0.2,0.1-0.4,0.3-0.6,0.3c-16.7,4.1-33.3,8.5-49.7,13.5c-3.7,1.1-7.4,2.4-10.9,4.3c-1,0.5-2,1.2-1.8,2.6
		c0.2,1.4,1.4,1.7,2.5,1.9c2,0.4,4.2,0.5,6.2,0.1c9-1.7,17.9-3.7,26.8-5.3C344.6,299.2,352.5,297.7,360.6,297.5L360.6,297.5z"/>
	<path class="st6" d="M360.6,297.5c-8,0.2-15.9,1.7-23.8,3.2c-9,1.6-17.9,3.6-26.8,5.3c-2,0.4-4.1,0.4-6.2-0.1
		c-1.1-0.2-2.3-0.6-2.5-1.9c-0.2-1.3,0.8-2,1.8-2.6c3.4-1.9,7.1-3.2,10.9-4.3c16.4-5,33-9.4,49.7-13.5c0.2,0,0.4-0.2,0.6-0.3
		c-0.1-0.2-0.2-0.4-0.2-0.4c-6.7-0.8-13.5-0.6-20.2-0.1c-1,0.1-2,0.3-2.4,1.8c-0.8,2.6-3.5,2.8-5.7,3.3c-7.9,1.8-15.9,2.7-24,3.5
		c-5.6,0.6-11.3,0.7-16.9,1.1c-0.8,0.1-1.6-0.2-2.4-0.2c-1.2,0-2.4-0.2-2.6-1.6c-0.1-1.3,0.9-2,2.1-2.2c4.5-1,9-1.9,13.6-2.4
		c4.2-0.5,8.4-1.1,13-2.4c-2-1.2-4-1.2-5.7-1.4c-8.6-0.7-17.2-1.5-25.8-1c-5.6,0.4-11.3,0.2-16.8,1.8c-0.7,0.2-1.7,0.2-1.8,0.9
		c-0.2,0.8,0.8,1,1.4,1.4c1.1,0.8,3.5,0.7,2.9,2.8c-0.6,2.2-2.7,1-4.1,1.2c-5.9,0.6-11.7,0.1-17.4-1.5c-4.5-1.3-9.3-3-10.7-7.9
		c-1-3.6-2.5-4.3-5.8-3.6c-2.2,0.4-4.6,0.1-6.9,0.1c-12.4,0.1-24.9,1-37.3,0.4c-6.8-0.3-13.7,0-20.4-1.3c-1.5-0.3-2.9-0.6-3.1-2.4
		c-0.2-1.9,1.4-2.2,2.6-2.6c3-1.2,6.3-1.7,9.3-3.1c1-0.5,2.1-0.6,3.1-2.3c-13.1-2.3-25.9-1.8-38.7-1c-1.5-3.3-2.8-6.6-3.6-10.1
		c5.7-1.1,11.3-2.3,17-3.3c8.8-1.6,17.7-3.1,26.5-4.5c7.7-1.3,15.3-2.4,23-3.6c5,9.9,11.9,18.3,21.2,24.6
		c29.8,20.2,70.8,10.5,88.3-21c0.3-0.6,0.7-1.3,1-1.9c0.5-1,0.2-1.3-0.8-1.2c-0.6,0-1.1,0-1.7,0c-17.6,0-35.1,0-52.7,0
		c-1.8,0-2.7-0.4-2.4-2.3c0.2-1.6,0.1-3.2,0.1-4.8c7.9-0.8,15.8-1.8,23.7-2.4c8.2-0.6,16.3-1.2,24.5-1.9c8.4-0.7,16.8-1.1,25.2-1.4
		c7.1-0.2,14.1-0.6,21.2-1c6.4-0.4,12.7,0.1,19.1-0.4c5.5-0.4,11-0.1,16.5-0.1c-1.4,16.4-6.2,31.7-13.6,46.3
		C371.6,282.9,366.6,290.6,360.6,297.5L360.6,297.5z"/>
	<path class="st0" d="M293.7,176.7c-14.4,0-28.4,0-42.3-0.1c-2.1,0-2.8,0.4-2.8,2.7c0.1,23.7,0.1,47.4,0,71.1c0,2.4,0.7,2.9,3,2.8
		c13.9-0.1,27.8-0.1,41.7-0.1c0.9,0,1.7,0,2.7,0c-6.5,8-25.3,16.8-44.8,12.6c-21.2-4.6-37.6-22.7-39.9-44.6
		c-2.3-21.6,10.1-42.8,29.8-51.7C262,160.2,283.7,167.3,293.7,176.7L293.7,176.7z"/>
	<path class="st0" d="M259.1,218.5c0-9.9,0-19.8-0.1-29.7c0-1.3,0.4-1.8,1.7-1.6c0.4,0,0.8,0,1.2,0c40.7,0,81.3,0,122-0.1
		c2.3,0,3.2,0.6,3.6,2.9c0.8,5.8,2.2,11.4,2.1,17.3c0,1.3,0.7,2.6,0.4,4c-3.4,0.1-6.8,0.2-10.3,0.4c-7.9,0.4-15.8,0.2-23.7,0.4
		c-10,0.3-19.9,0.9-29.8,1.2c-3.1,0.1-6.2,0.2-9.3,0.4c-8.4,0.6-16.8,1.2-25.2,1.9c-4.5,0.3-9,0.7-13.5,1.1
		C271.8,217.3,265.4,217.9,259.1,218.5L259.1,218.5z M270.7,208.8c-0.2-1.2-0.9-2.1-2.2-2.1c-1.3,0-2.1,0.8-2.1,2.1
		c0,1.3,0.8,2.1,2.1,2.1C269.9,211,270.5,210.1,270.7,208.8z M295.5,212.6c-0.2-0.7-0.7-1.3-1.6-1.2c-0.8,0.1-1.3,0.6-1.3,1.4
		c0,0.8,0.5,1.3,1.3,1.4C294.9,214.2,295.4,213.6,295.5,212.6L295.5,212.6z"/>
	<path class="st7" d="M259.1,218.5c6.3-0.6,12.6-1.2,19-1.8c4.5-0.4,9-0.7,13.5-1.1c8.4-0.6,16.8-1.3,25.2-1.9
		c3.1-0.2,6.2-0.4,9.3-0.4c10-0.3,19.9-0.9,29.8-1.2c7.9-0.2,15.8-0.1,23.7-0.4c3.4-0.2,6.8-0.3,10.3-0.4c0,2.1,0.1,4.3,0.1,6.4
		c-0.5,0-1,0-1.4,0c-21.5,0.4-43.1,0.9-64.6,2.1c-13.5,0.8-26.9,1.8-40.3,2.9c-8.2,0.7-16.4,1.4-24.5,2.1
		C259.1,222.7,259.1,220.6,259.1,218.5L259.1,218.5z"/>
	<path class="st7" d="M389.3,228.5c-5.5,0-11-0.3-16.5,0.1c-6.4,0.5-12.8,0.1-19.1,0.4c-7.1,0.4-14.1,0.7-21.2,1
		c-8.4,0.3-16.8,0.8-25.2,1.4c-8.2,0.7-16.3,1.3-24.5,1.9c-7.9,0.6-15.8,1.6-23.7,2.4c0-2.1-0.1-4.1-0.1-6.2
		c16.2-2,32.4-3.1,48.6-4.3c15.8-1.2,31.5-1.9,47.3-2.4c11.6-0.3,23.3-0.8,34.9-0.6L389.3,228.5L389.3,228.5z"/>
	<path class="st8" d="M389.9,222.3c-11.7-0.2-23.3,0.3-34.9,0.6c-15.8,0.4-31.6,1.2-47.3,2.4c-16.2,1.2-32.5,2.3-48.6,4.3
		c0-1.6,0-3.1,0-4.7c8.2-0.7,16.4-1.5,24.5-2.1c13.4-1.1,26.9-2.1,40.3-2.9c21.5-1.2,43-1.7,64.6-2.1c0.5,0,1,0,1.4,0
		C389.9,219.2,389.9,220.7,389.9,222.3L389.9,222.3z"/>
	<path class="st7" d="M206.2,242.4c-7.7,1.2-15.4,2.4-23,3.6c-8.8,1.5-17.7,3-26.5,4.5c-5.7,1-11.4,2.2-17,3.3c-0.9-1.9-1.3-4-1.8-6
		c5-1,10-1.9,15-2.9c17-3.2,34-6.1,51.1-8.5C204.6,238.5,205.4,240.4,206.2,242.4L206.2,242.4z"/>
	<path class="st7" d="M135.6,237.3c9-1.7,18.1-3.4,27.1-5c11.3-2,22.7-3.8,34-5.6c1.4-0.2,2.8-0.4,4.2-0.5c0.5,2,0.9,4,1.4,6.1
		c-10.1,1.6-20.1,3.1-30.2,4.8c-11.8,2.1-23.6,4.3-35.5,6.5C136.1,241.4,135.8,239.4,135.6,237.3L135.6,237.3z"/>
	<path class="st8" d="M136.7,243.5c11.8-2.2,23.6-4.4,35.5-6.5c10-1.7,20.1-3.2,30.2-4.8c0.5,1.4,1,2.9,1.5,4.3
		c-17.1,2.4-34.1,5.3-51.1,8.5c-5,0.9-10,1.9-15,2.9C137.4,246.4,137.1,244.9,136.7,243.5L136.7,243.5z"/>
	<path class="st0" d="M419.7,211.7c0.2-12.2,2.2-24.2,6.3-35.7c17.2-47.7,50.8-77.2,100.7-86.1c41.3-7.3,78,4.5,108.7,33
		c23.8,22.1,36.8,49.8,39.9,82.1c1.1,11.1,0.6,22.1-1.5,33.1c-7.6-1.3-15.2-2.6-22.7-4c-14.2-2.6-28.5-4.8-42.8-7
		c0.2-1.7,0.5-3.5,0.7-5.2c4.2-46.3-42.2-80.4-85.2-62.4c-11.1,4.6-22.1,13.2-29.6,26.4c-5,8.8-7.5,18.3-8,28.3
		c-7.7-0.5-15.4-1-23.1-1.4c-9.3-0.4-18.5-0.7-27.8-1C430.1,211.7,424.9,211.7,419.7,211.7L419.7,211.7z M612.5,178.7
		c0.7,0.6,0.9,0.2,0.9-0.5c0.6-1,1-2.1-0.2-3c-1.1-0.8-2.1-0.4-2.9,0.6c-0.5,0.8-0.6,1.5,0.3,2.1c0,0.1,0.1,0.2,0.2,0.2
		C611.1,179,611.8,178.7,612.5,178.7z M637.8,202.2c-0.3-1.4-1.3-1-2.2-0.9c-0.8,0.1-1.2,0.5-0.9,1.4c-0.4,1.1,0.1,1.8,1.1,2.2
		c0.7,0.3,1.4,0.1,1.9-0.4C638.3,203.8,638.6,203,637.8,202.2L637.8,202.2z M546.9,89.9c-1.3,0.2-2.1,0.9-2.1,2.2
		c0,1.4,0.9,2.2,2.3,2.1c1.3-0.1,2-0.9,1.9-2.2C549,90.6,548.1,90,546.9,89.9z M459.7,188.1c1.3-0.1,2-0.8,2.1-2.1
		c0-1.3-0.7-2.1-2-2.1c-1.4,0-2.2,0.8-2.2,2.2C457.6,187.2,458.4,188,459.7,188.1L459.7,188.1z M585.9,152.5c-0.1-1.3-0.7-2.1-2-2.2
		c-1.4-0.1-2.3,0.8-2.3,2.1c0,1.3,0.8,2,2.1,2.1C585,154.5,585.7,153.8,585.9,152.5z M596.3,155.2c-0.2-1.3-0.9-2.1-2.2-2.1
		s-2.1,0.8-2.1,2.1c0,1.3,0.8,2.1,2.1,2.1C595.5,157.3,596.2,156.5,596.3,155.2L596.3,155.2z M657.9,188c0.8-0.1,1.3-0.6,1.3-1.4
		c0-0.9-0.5-1.5-1.5-1.4c-0.8,0-1.3,0.5-1.3,1.4C656.5,187.5,657.1,187.9,657.9,188L657.9,188z M604.1,156.7c0-0.8-0.3-1.4-1.1-1.6
		c-0.9-0.2-1.6,0.3-1.7,1.2c-0.1,0.8,0.4,1.4,1.2,1.5C603.3,157.9,603.9,157.5,604.1,156.7L604.1,156.7z M444.5,187.3
		c-0.1-0.9-0.5-1.5-1.4-1.5c-0.8,0-1.3,0.6-1.4,1.3c-0.1,0.9,0.5,1.5,1.4,1.5C443.9,188.7,444.3,188.1,444.5,187.3L444.5,187.3z
		 M640.8,151.8c-0.1-0.8-0.6-1.3-1.4-1.3c-0.8,0-1.4,0.5-1.4,1.4c0,0.9,0.6,1.5,1.5,1.4C640.4,153.2,640.8,152.6,640.8,151.8
		L640.8,151.8z M535.4,115c-0.8,0-1.4,0.4-1.5,1.2c-0.1,0.9,0.4,1.5,1.3,1.6c0.9,0.1,1.5-0.5,1.5-1.4
		C536.7,115.6,536.2,115.1,535.4,115L535.4,115z M499.5,158.7c-0.1-0.8-0.6-1.4-1.4-1.3c-0.8,0-1.4,0.5-1.4,1.4
		c0,0.9,0.5,1.5,1.5,1.4C499.1,160.1,499.5,159.5,499.5,158.7L499.5,158.7z M468.3,157.5c-0.8,0.1-1.4,0.6-1.3,1.4
		c0.1,0.9,0.7,1.5,1.6,1.3c0.8-0.1,1.3-0.7,1.2-1.5C469.7,157.9,469.1,157.5,468.3,157.5L468.3,157.5z M597.4,140.3
		c-0.1-0.7-0.5-1.2-1.4-1.3c-0.8,0-1.4,0.4-1.4,1.3c0,0.9,0.5,1.5,1.5,1.5C596.9,141.7,597.3,141.2,597.4,140.3L597.4,140.3z
		 M544.2,99.1c-0.1-0.8-0.6-1.4-1.4-1.4c-1,0-1.5,0.6-1.4,1.5c0.1,0.8,0.6,1.3,1.5,1.2C543.7,100.5,544.1,99.9,544.2,99.1
		L544.2,99.1z M569.6,150.6c-0.2-0.8-0.6-1.3-1.4-1.3c-0.9,0.1-1.4,0.6-1.3,1.6c0.1,0.8,0.7,1.2,1.5,1.2
		C569.2,152,569.6,151.4,569.6,150.6z M528.1,140.3c-0.8,0.1-1.3,0.5-1.4,1.3c-0.1,0.8,0.4,1.4,1.2,1.5c0.9,0.1,1.5-0.5,1.5-1.4
		C529.4,140.9,528.9,140.4,528.1,140.3L528.1,140.3z"/>
	<path class="st9" d="M445,292.3c-6.8-8.6-12-18.2-16.1-28.4c-4.6-11.4-7.6-23.1-8.6-35.4c9.4,0.1,18.8,0.5,28.2,0.9
		c6.4,0.3,12.8,0.4,19.1,0.5c0.4,0,0.8,0.1,1.2,0.1c6.4,0.4,12.8,0.8,19.3,1.2c0.3,0.8,0.5,1.7,0.8,2.5
		c12.3,40.2,59.9,56.7,94.3,32.6c8.6-6,15-13.8,19.8-23c2.4,0.4,4.9,0.7,7.3,1.1c9.6,1.5,19.1,3.1,28.6,4.7c3,0.5,5.9,1.1,8.9,1.7
		c-0.5,0.6-0.9,0.8-1.3,1c-0.5,0.3-1.5,0.1-1.5,0.9c0,0.7,0.7,1,1.3,1.3c0.6,0.3,1.1,0.6,1.7,0.8c6.7,2.2,13.4,3.9,20.5,3.9
		c-3.8,11.4-9.3,22-16.5,31.7c-1-0.2-2-0.3-3.1-0.5c-5.3-1-10.6-2.3-16.1-2c-1.1,0.1-2.5-0.2-2.9,1c-0.4,1.1,1,1.6,1.7,2.4
		c0.2,0.2,0.5,0.3,0.8,0.5c4.1,2.9,8.6,4.8,13.2,6.6c-8.4,10.4-18.4,18.9-29.7,25.9c-0.6,0-1.1,0-1.7,0.1c-13,3.4-26,6.4-39.2,9.2
		c-4.9,1-9.8,2-14.8,2.2c-1.3,0-2.7,0.2-3.2-1.4c-0.6-1.6,0.8-2.2,1.7-3.1c0.8-0.8,2.7-0.9,2.4-1.9c-0.4-1.4-2.4-0.6-3.6-1.2
		c-0.1-0.1-0.3,0-0.5,0c-5,0.6-9.8,1.9-13.7,5.1c-4.8,4.1-10.1,6.8-15.8,9c-11.9-1.7-23.2-5.3-34.1-10.5c1.1-1.7,3.7-1,4.9-2.8H488
		c-4.4-2-8.4-4.5-12.3-7.3c0.4-0.7,1-1,1.8-0.9c2,0.2,4-0.2,5.9-0.5c3-0.5,6.2-0.8,9.1-2.8c-3.5-1.4-6.9-1.6-10.2-1.8
		c-4.9-0.4-9.9-0.1-14.8-0.1c-0.5-0.4-0.9-0.7-1.4-1.1c0-0.8,0.1-1.5,0.6-2.2c1.5-2.4,0.9-3.6-1.8-4.6c-2.1-0.7-4.1,0.1-6.1,0.3
		c-2.4-2.1-4.6-4.4-6.6-6.9c1.8-1.1,4.1-1.8,5.8-1c6.2,3.1,12.7,2.7,19.2,1.9c1.8-0.2,3.7-0.3,5.5-1.5c-2.5-1-4.8-0.8-7.2-0.9
		c-1.1,0-2-0.5-2.1-1.6c-0.1-1.3,0.9-1.7,2.1-1.8c0.6,0,1.1,0,1.7,0c0.6,0,0.9-0.4,0.6-0.9c-1.4-2.3,0.3-2.4,1.8-2.4
		c3.5,0,7,0.1,10.5-0.5c2.6-0.4,5.3-0.4,8.2-1.7c-5.5-1.8-10.7-2.5-16-3.1c-2-0.2-4-1.2-6,0.2c-2.6,1.9-5.7,2.8-8.8,3.5
		c-3.8,0.9-7.4,0.9-10.8-1.4c-0.8-0.5-1.5-0.4-2.3-0.1C451.4,291.4,448.2,291.7,445,292.3L445,292.3z"/>
	<path class="st7" d="M527.6,342.4c5.7-2.2,11.1-5,15.8-9c3.8-3.3,8.7-4.5,13.7-5.1c0.2,0,0.3-0.1,0.5,0c1.2,0.6,3.2-0.2,3.6,1.2
		c0.3,1-1.7,1.2-2.4,1.9c-0.9,0.9-2.3,1.5-1.7,3.1c0.5,1.5,2,1.4,3.2,1.4c5-0.1,9.9-1.1,14.8-2.2c13.1-2.8,26.2-5.8,39.2-9.2
		c0.5-0.1,1.1-0.1,1.7-0.1c-9.1,6.2-19.2,10.5-29.6,13.8c-14.8,4.8-30.1,6.6-45.6,5.8C536.3,343.7,531.9,343.3,527.6,342.4
		L527.6,342.4z"/>
	<path class="st7" d="M668.4,258.7c-7.1,0-13.8-1.8-20.5-3.9c-0.6-0.2-1.2-0.5-1.7-0.8c-0.6-0.3-1.3-0.6-1.3-1.3
		c0.1-0.8,1-0.6,1.5-0.9c0.4-0.2,0.9-0.4,1.3-1c-2.9-0.6-5.9-1.2-8.9-1.7c-9.5-1.6-19.1-3.1-28.6-4.7c-2.4-0.4-4.9-0.7-7.3-1.1
		c0.9-2,1.5-4.1,2.8-5.9c3.9,0.6,7.9,1.2,11.8,1.8c18,2.8,36,6,53.9,9.4C670.9,252.2,669.7,255.5,668.4,258.7L668.4,258.7z"/>
	<path class="st7" d="M488,231.3c-6.4-0.4-12.8-0.8-19.3-1.2c-0.4,0-0.8-0.1-1.2-0.1c-6.4-0.2-12.8-0.2-19.1-0.5
		c-9.4-0.4-18.8-0.8-28.2-0.9c-0.2-2.1-0.4-4.1-0.6-6.2c1.1,0,2.2-0.1,3.3-0.1c21.3,0.5,42.5,1.2,63.8,2.7
		C487.2,227.1,487.6,229.2,488,231.3L488,231.3z"/>
	<path class="st7" d="M419.7,211.7c5.2,0,10.4,0,15.5,0.1c9.3,0.3,18.6,0.6,27.8,1c7.7,0.4,15.4,0.9,23.1,1.4
		c0.1,2.1,0.1,4.2,0.1,6.2c-0.8,0-1.6,0-2.4,0c-21.4-1.4-42.8-2.2-64.2-2.5C419.5,215.8,419.5,213.7,419.7,211.7L419.7,211.7z"/>
	<path class="st7" d="M608.3,227.1c14.3,2.2,28.6,4.4,42.8,7c7.6,1.4,15.2,2.7,22.7,4c-0.2,2.2-0.4,4.3-1.4,6.3
		c-7.4-1.4-14.9-2.9-22.3-4.2c-14.3-2.5-28.6-4.9-43-6.9C607.1,231.1,607.9,229.1,608.3,227.1L608.3,227.1z"/>
	<path class="st5" d="M445,292.3c3.2-0.6,6.5-0.9,9.5-2.1c0.8-0.3,1.5-0.5,2.3,0.1c3.3,2.4,7,2.3,10.8,1.4c3.1-0.7,6.2-1.6,8.8-3.5
		c2-1.4,4-0.4,6-0.2c5.3,0.6,10.5,1.3,16,3.1c-2.9,1.3-5.6,1.2-8.2,1.7c-3.5,0.6-7,0.5-10.5,0.5c-1.6,0-3.2,0-1.8,2.4
		c0.3,0.6,0,0.9-0.6,0.9c-0.6,0-1.1,0-1.7,0c-1.2,0-2.2,0.5-2.1,1.8c0.1,1.1,1,1.5,2.1,1.6c2.4,0,4.7-0.2,7.2,0.9
		c-1.8,1.1-3.7,1.3-5.5,1.5c-6.5,0.8-12.9,1.2-19.2-1.9c-1.7-0.9-4-0.1-5.8,1C449.6,298.5,447.1,295.5,445,292.3L445,292.3z"/>
	<path class="st8" d="M607.1,233.3c14.4,2,28.7,4.4,43,6.9c7.5,1.3,14.9,2.8,22.3,4.2c0,1.5-0.2,3-1,4.3
		c-17.9-3.4-35.9-6.6-53.9-9.4c-3.9-0.6-7.9-1.2-11.8-1.8C605.8,236,606.1,234.5,607.1,233.3L607.1,233.3z"/>
	<path class="st8" d="M419.7,217.9c21.4,0.3,42.8,1.1,64.2,2.5c0.8,0.1,1.6,0,2.4,0c0.2,1.5,0.3,3.1,0.5,4.6
		c-21.2-1.5-42.5-2.2-63.8-2.7c-1.1,0-2.2,0-3.3,0.1C419.7,220.9,419.7,219.4,419.7,217.9z"/>
	<path class="st5" d="M645.6,298.5c-4.6-1.8-9.2-3.7-13.2-6.6c-0.3-0.2-0.6-0.3-0.8-0.5c-0.7-0.8-2-1.2-1.7-2.4c0.4-1.3,1.8-1,2.9-1
		c5.5-0.3,10.7,1,16.1,2c1,0.2,2,0.3,3.1,0.5C650,293.3,648,296,645.6,298.5L645.6,298.5z"/>
	<path class="st5" d="M467.6,315.7c4.9,0,9.9-0.2,14.8,0.1c3.3,0.2,6.6,0.4,10.2,1.8c-2.9,2-6.1,2.3-9.1,2.8
		c-1.9,0.3-3.9,0.8-5.9,0.5c-0.8-0.1-1.4,0.2-1.8,0.9C472.8,320.1,470,318.1,467.6,315.7L467.6,315.7z"/>
	<path class="st7" d="M458.8,308.2c2-0.2,4-1,6.1-0.3c2.7,0.9,3.3,2.2,1.8,4.6c-0.4,0.7-0.6,1.4-0.6,2.2
		C463.5,312.7,461.1,310.6,458.8,308.2L458.8,308.2z"/>
	<path class="st7" d="M488,329.2h10.3c-1.2,1.8-3.7,1.1-4.9,2.8C491.6,331.3,489.7,330.5,488,329.2L488,329.2z"/>
	<path class="st4" d="M253.2,124.5c1.2,0.1,2.1,0.7,2.2,2c0.1,1.3-0.6,2.1-1.9,2.2c-1.4,0.1-2.3-0.6-2.3-2.1
		C251.1,125.4,251.9,124.7,253.2,124.5L253.2,124.5z"/>
	<path class="st4" d="M225.4,149.8c-0.1,1.4-0.7,2.2-2,2.3c-1.4,0-2.2-0.8-2.2-2.2c0-1.2,0.8-2.1,2.1-2.1
		C224.6,147.8,225.2,148.6,225.4,149.8L225.4,149.8z"/>
	<path class="st3" d="M161.9,206.6c0.8,0,1.2,0.6,1.4,1.3c0.2,0.8-0.3,1.4-1.1,1.5c-1,0.1-1.5-0.4-1.6-1.4
		C160.5,207.3,161,206.8,161.9,206.6L161.9,206.6z"/>
	<path class="st3" d="M335.5,120.9c-0.2,0.8-0.7,1.4-1.6,1.3c-0.8-0.1-1.3-0.7-1.2-1.5c0.1-0.9,0.6-1.4,1.6-1.3
		C335.1,119.6,335.5,120.1,335.5,120.9z"/>
	<path class="st4" d="M187.3,144.4c-0.8-0.1-1.4-0.5-1.5-1.3c-0.1-0.8,0.3-1.4,1.2-1.5c0.9-0.1,1.6,0.4,1.6,1.4
		C188.7,143.8,188.1,144.2,187.3,144.4L187.3,144.4z"/>
	<path class="st3" d="M204.3,172.9c-0.8-0.1-1.3-0.5-1.3-1.4c0-0.9,0.5-1.5,1.4-1.5c0.8,0,1.3,0.5,1.4,1.3
		C205.8,172.3,205.2,172.8,204.3,172.9L204.3,172.9z"/>
	<path class="st4" d="M240.2,139.5c0,0.8-0.5,1.4-1.3,1.4c-0.8,0.1-1.4-0.4-1.5-1.2c-0.1-0.9,0.4-1.5,1.4-1.6
		C239.7,138.2,240.1,138.7,240.2,139.5L240.2,139.5z"/>
	<path class="st4" d="M188.6,123.2c-0.1,0.8-0.5,1.4-1.3,1.5c-1,0.1-1.5-0.5-1.5-1.5c0-0.8,0.6-1.3,1.4-1.3
		C188,121.9,188.5,122.4,188.6,123.2L188.6,123.2z"/>
	<path class="st3" d="M179,219.9c-0.8-0.1-1.3-0.5-1.4-1.3c0-0.9,0.6-1.5,1.5-1.4c0.8,0.1,1.3,0.6,1.3,1.4
		C180.4,219.4,179.9,219.8,179,219.9L179,219.9z"/>
	<path class="st3" d="M308.9,128.4c0.8,0.1,1.3,0.6,1.3,1.4c0,0.9-0.6,1.5-1.6,1.4c-0.8-0.1-1.3-0.7-1.2-1.5S308,128.5,308.9,128.4
		L308.9,128.4z"/>
	<path class="st4" d="M290.6,125.8c-0.1,0.8-0.5,1.3-1.4,1.3c-0.9,0-1.5-0.6-1.4-1.5c0.1-0.8,0.6-1.3,1.5-1.2
		C290.1,124.5,290.5,125,290.6,125.8L290.6,125.8z"/>
	<path class="st4" d="M175.9,163.5c-0.1,0.8-0.6,1.3-1.4,1.3c-1,0-1.5-0.6-1.4-1.6c0.1-0.8,0.7-1.3,1.5-1.2S175.9,162.7,175.9,163.5
		L175.9,163.5z"/>
	<path class="st8" d="M263.8,122.1c0.7,0,1.3,0.2,1.4,0.9c0.1,0.9-0.8,1.2-1.4,1.3c-0.7,0.1-1.3-0.5-1.3-1.2
		C262.4,122.3,263.1,122.2,263.8,122.1L263.8,122.1z"/>
	<path class="st4" d="M270.7,208.8c-0.2,1.3-0.8,2.2-2.2,2.2c-1.3,0-2.1-0.8-2.1-2.1c0-1.4,0.8-2.1,2.1-2.1
		C269.8,206.7,270.5,207.6,270.7,208.8z"/>
	<path class="st3" d="M295.5,212.6c-0.2,1-0.7,1.6-1.6,1.5c-0.8,0-1.3-0.6-1.3-1.4s0.5-1.3,1.3-1.4
		C294.9,211.3,295.3,211.9,295.5,212.6L295.5,212.6z"/>
	<path class="st4" d="M486.8,225c-0.2-1.5-0.3-3.1-0.5-4.6c-0.1-2.1-0.1-4.2-0.1-6.2c0.5-10,3-19.5,8-28.3
		c7.5-13.2,18.5-21.7,29.6-26.4c43-18,89.4,16.1,85.2,62.4c-0.2,1.8-0.4,3.5-0.7,5.2c-0.4,2.1-1.3,4.1-1.2,6.2
		c-1,1.2-1.3,2.7-1.4,4.2c-1.3,1.8-1.8,3.9-2.8,5.9c-4.8,9.2-11.3,17-19.8,23c-34.4,24.1-82,7.6-94.3-32.6c-0.3-0.8-0.5-1.7-0.8-2.5
		C487.6,229.1,487.2,227,486.8,225L486.8,225z M598.8,216c-0.2-28.2-23.3-51.1-51.3-50.9c-28.1,0.2-50.9,23.2-50.7,51.2
		c0.2,28.1,23.2,50.9,51.1,50.8C576,266.9,599,243.8,598.8,216L598.8,216z"/>
	<path class="st4" d="M546.9,89.9c1.2,0.1,2.1,0.7,2.2,2c0.1,1.3-0.6,2.1-1.9,2.2c-1.4,0.1-2.3-0.7-2.3-2.1
		C544.8,90.8,545.6,90.1,546.9,89.9z"/>
	<path class="st4" d="M459.7,188.1c-1.3-0.1-2.1-0.8-2.2-2.1c0-1.4,0.8-2.2,2.2-2.2c1.3,0,2,0.9,2,2.1
		C461.8,187.2,461,187.9,459.7,188.1L459.7,188.1z"/>
	<path class="st3" d="M585.9,152.5c-0.2,1.3-0.8,2.1-2.2,2c-1.3,0-2.1-0.8-2.1-2.1c0-1.4,0.9-2.2,2.3-2.1
		C585.2,150.3,585.8,151.2,585.9,152.5z M583.8,153.6c0.6-0.2,1.2-0.6,1.1-1.3c-0.1-0.8-0.6-1.3-1.4-1.2c-0.6,0.1-1.2,0.6-1,1.4
		C582.6,153.1,583.1,153.6,583.8,153.6z"/>
	<path class="st3" d="M596.3,155.2c-0.2,1.3-0.9,2.1-2.2,2.1c-1.3,0-2.1-0.8-2.1-2.1c0-1.3,0.8-2.1,2.1-2.1
		C595.5,153.1,596.1,153.9,596.3,155.2L596.3,155.2z M592.9,155.2c0.1,0.7,0.5,1.2,1.2,1.2c0.8,0,1.3-0.5,1.3-1.3
		c-0.1-0.6-0.6-1.2-1.3-1.1C593.5,154,593.1,154.5,592.9,155.2L592.9,155.2z"/>
	<path class="st3" d="M657.9,188c-0.9-0.1-1.5-0.5-1.5-1.4c0-0.8,0.5-1.3,1.3-1.4c0.9-0.1,1.5,0.5,1.5,1.4
		C659.3,187.4,658.8,187.9,657.9,188L657.9,188z"/>
	<path class="st10" d="M637.8,202.2c0.8,0.8,0.6,1.6-0.1,2.3c-0.5,0.6-1.2,0.7-1.9,0.4c-1-0.4-1.5-1.1-1.1-2.2
		C635.6,202.3,636.7,202,637.8,202.2L637.8,202.2z"/>
	<path class="st3" d="M604.1,156.7c-0.2,0.8-0.7,1.3-1.6,1.2c-0.8-0.1-1.3-0.7-1.2-1.5c0.1-0.9,0.7-1.4,1.7-1.2
		C603.7,155.2,604.1,155.9,604.1,156.7L604.1,156.7z"/>
	<path class="st3" d="M444.5,187.3c-0.1,0.8-0.6,1.3-1.4,1.3c-0.9,0-1.5-0.5-1.4-1.5c0-0.8,0.6-1.3,1.4-1.3
		C443.9,185.8,444.4,186.4,444.5,187.3L444.5,187.3z"/>
	<path class="st3" d="M640.8,151.8c-0.1,0.8-0.4,1.4-1.3,1.5c-1,0.1-1.5-0.5-1.5-1.4c0-0.8,0.5-1.3,1.4-1.4S640.7,151,640.8,151.8
		L640.8,151.8z"/>
	<path class="st3" d="M535.4,115c0.8,0.1,1.3,0.6,1.3,1.4c0,0.9-0.6,1.5-1.5,1.4c-0.9-0.1-1.4-0.7-1.3-1.6
		C534,115.4,534.6,115,535.4,115L535.4,115z"/>
	<path class="st10" d="M610.3,175.8c0.8-1,1.8-1.4,2.9-0.6c1.1,0.9,0.8,1.9,0.2,3c-0.3,0-0.6,0.1-0.9,0.1c-0.5-0.7-1-0.6-1.7-0.2
		c-0.1,0-0.2-0.1-0.2-0.2C611,177.2,611.3,176.4,610.3,175.8z"/>
	<path class="st4" d="M499.5,158.7c-0.1,0.8-0.4,1.4-1.3,1.4c-1,0.1-1.5-0.5-1.5-1.4c0-0.8,0.6-1.3,1.4-1.4
		C498.9,157.4,499.4,157.9,499.5,158.7L499.5,158.7z"/>
	<path class="st4" d="M468.3,157.5c0.8,0,1.4,0.4,1.5,1.2c0.1,0.8-0.4,1.4-1.2,1.5c-0.9,0.1-1.5-0.4-1.6-1.3
		C466.9,158.1,467.5,157.6,468.3,157.5L468.3,157.5z"/>
	<path class="st4" d="M597.4,140.3c-0.1,0.9-0.5,1.5-1.3,1.5c-1,0-1.5-0.5-1.5-1.5c0-0.8,0.6-1.3,1.4-1.3
		C596.8,139,597.3,139.6,597.4,140.3L597.4,140.3z"/>
	<path class="st3" d="M544.2,99.1c-0.1,0.8-0.5,1.3-1.3,1.4c-0.8,0.1-1.4-0.4-1.5-1.2c-0.1-0.9,0.4-1.5,1.4-1.5
		C543.6,97.8,544.1,98.3,544.2,99.1L544.2,99.1z"/>
	<path class="st4" d="M569.6,150.6c0,0.8-0.4,1.4-1.2,1.5s-1.4-0.4-1.5-1.2c-0.1-0.9,0.4-1.5,1.3-1.6
		C569,149.3,569.5,149.8,569.6,150.6z"/>
	<path class="st4" d="M528.1,140.3c0.8,0.1,1.3,0.6,1.3,1.4c0,0.9-0.6,1.5-1.5,1.4c-0.8-0.1-1.3-0.7-1.2-1.5
		C526.7,140.8,527.2,140.4,528.1,140.3L528.1,140.3z"/>
	<path class="st3" d="M637.8,202.2c-1.1-0.2-2.1,0.1-3.1,0.5c-0.3-0.9,0.2-1.4,0.9-1.4C636.4,201.2,637.5,200.8,637.8,202.2
		L637.8,202.2z"/>
	<path class="st4" d="M610.3,175.8c1,0.6,0.7,1.4,0.3,2.1C609.7,177.3,609.8,176.6,610.3,175.8z"/>
	<path class="st4" d="M610.8,178.1c0.6-0.4,1.2-0.4,1.7,0.2c0,0.1,0,0.2,0,0.4C611.8,178.7,611.1,179,610.8,178.1L610.8,178.1z"/>
	<path class="st1" d="M612.5,178.7c0-0.1,0-0.2,0-0.4c0.3,0,0.6-0.1,0.9-0.1C613.4,178.9,613.2,179.3,612.5,178.7L612.5,178.7z"/>
	<path class="st11" d="M598.8,216c0.2,27.8-22.8,50.9-50.9,51c-28,0.1-51-22.7-51.1-50.8c-0.2-28,22.6-50.9,50.7-51.2
		C575.5,164.9,598.6,187.8,598.8,216L598.8,216z M515.3,212.7c3.2,0,6.4-0.1,9.6,0c1.4,0,2-0.4,2.4-1.9c2.6-9.6,10.7-15.8,20.3-15.9
		c9.7,0,17.9,6.2,20.5,15.9c0.4,1.5,1.1,1.8,2.5,1.8c6.4-0.1,12.8-0.1,19.2,0c1.6,0,2-0.4,1.8-2c-3.2-24.9-26-42-51-38.1
		c-18.9,2.9-34.4,19.1-36.6,38c-0.2,2,0.4,2.3,2.1,2.2C509.1,212.6,512.2,212.7,515.3,212.7L515.3,212.7z M515.4,219.5
		c-3.2,0-6.4,0.1-9.6,0c-1.7-0.1-2.1,0.3-1.9,2.1c2.6,21.8,21.6,38.6,43.7,38.7c22.3,0.1,41.3-16.9,43.9-39c0.2-1.7-0.4-1.8-1.8-1.8
		c-6.5,0.1-12.9,0.1-19.4,0c-1.3,0-1.9,0.3-2.2,1.7c-2.6,9.7-10.8,16-20.5,16c-9.7,0-17.8-6.3-20.4-16.1c-0.4-1.4-1-1.7-2.3-1.7
		C521.8,219.5,518.6,219.5,515.4,219.5L515.4,219.5z M562,216.3c0.3-7.5-6.2-14.2-13.9-14.5c-7.5-0.3-14.2,6.1-14.5,13.9
		c-0.3,7.5,6.2,14.2,13.9,14.5C554.9,230.6,561.7,224.1,562,216.3L562,216.3z"/>
	<path class="st10" d="M583.8,153.6c-0.7,0-1.2-0.5-1.3-1.1c-0.1-0.7,0.4-1.2,1-1.4c0.8-0.2,1.4,0.4,1.4,1.2
		C585,153,584.4,153.4,583.8,153.6z"/>
	<path class="st10" d="M592.9,155.2c0.1-0.7,0.5-1.2,1.2-1.2c0.7-0.1,1.2,0.5,1.3,1.1c0.1,0.8-0.5,1.4-1.3,1.3
		C593.5,156.4,593,155.9,592.9,155.2L592.9,155.2z"/>
	<path class="st12" d="M515.3,212.7c-3.1,0-6.2-0.1-9.3,0c-1.7,0.1-2.3-0.2-2.1-2.2c2.2-18.9,17.7-35,36.6-38
		c25-3.9,47.8,13.2,51,38.1c0.2,1.7-0.2,2.1-1.8,2c-6.4-0.1-12.8-0.1-19.2,0c-1.4,0-2.1-0.2-2.5-1.8c-2.6-9.7-10.8-15.9-20.5-15.9
		c-9.6,0-17.7,6.3-20.3,15.9c-0.4,1.5-1,1.9-2.4,1.9C521.7,212.6,518.5,212.7,515.3,212.7L515.3,212.7z"/>
	<path class="st10" d="M515.4,219.5c3.2,0,6.4,0.1,9.6,0c1.3,0,1.9,0.2,2.3,1.7c2.6,9.8,10.7,16,20.4,16.1c9.7,0,17.9-6.3,20.5-16
		c0.4-1.4,0.9-1.7,2.2-1.7c6.5,0.1,12.9,0.1,19.4,0c1.3,0,2,0.1,1.8,1.8c-2.6,22.1-21.7,39-43.9,39c-22.1-0.1-41.1-16.9-43.7-38.7
		c-0.2-1.8,0.2-2.2,1.9-2.1C509,219.6,512.2,219.5,515.4,219.5L515.4,219.5z"/>
	<path class="st10" d="M562,216.4c-0.3,7.8-7,14.2-14.5,13.9c-7.8-0.3-14.2-7-13.9-14.5c0.3-7.8,7-14.2,14.5-13.9
		C555.8,202.2,562.2,208.8,562,216.4L562,216.4z"/>
</g>
<polygon class="st13" points="1356.3,282.5 1342.1,268.4 1394.5,216 1342.1,163.6 1356.3,149.5 1422.8,216 "/>
<g>
	<path class="st13" d="M808.9,158.1H856c26.4,0,46.4,15.8,46.4,41.3c0,24.9-20,41.5-46.4,41.5h-15.8v37.3h-31.3V158.1z M856.2,213.6
		c8.7,0,14.4-5.6,14.4-14.2c0-8.4-5.6-14-14.4-14h-16v28.2H856.2z"/>
	<path class="st13" d="M919.4,158.1h31.3V250h49.7v28.2h-81V158.1z"/>
	<path class="st13" d="M1086.3,268.2h-43.1l-4.4,10h-33.7l54.6-122.3h10l54.6,122.3h-33.7L1086.3,268.2z M1064.8,215.3l-10.6,27.8
		h20.9L1064.8,215.3z"/>
	<path class="st13" d="M1182.2,232.2v46h-31.3v-45.7l-41.3-74.4h34.6l22.4,41.9l22.4-41.9h34.4L1182.2,232.2z"/>
</g>
</svg>
