<?xml version="1.0" encoding="UTF-8"?><svg id="Capa_1" xmlns="http://www.w3.org/2000/svg" viewBox="0 0 141.02 115.97"><defs><style>.cls-1{fill:#f97500;}.cls-2{fill:#f97400;}.cls-3{fill:#eae3c0;}.cls-4{fill:#e6e6da;}.cls-5{fill:#fafbf0;}.cls-6{fill:#fcfcfc;}.cls-7{fill:#fbfbfb;}.cls-8{fill:#e5e6d9;}.cls-9{fill:#fb9dcd;}.cls-10{fill:#fdad00;}.cls-11{fill:#fecf00;}.cls-12{fill:#fead00;}.cls-13{fill:#929080;}.cls-14{fill:#32363a;}.cls-15{fill:#333639;}.cls-16{fill:#33363a;}.cls-17{fill:#ad5200;}.cls-18{fill:#d9cda9;}.cls-19{fill:#ded1ac;}.cls-20{fill:#dccfab;}.cls-21{fill:#343739;}.cls-22{fill:#504b48;}</style></defs><g id="lNk2tY.tif"><g><path class="cls-14" d="M69.96,115.97c-.36-.55-.92-.27-1.37-.28-11.76-.4-22.82-3.23-32.94-9.36-4.78-2.9-9.05-6.41-12.55-10.8-.56-.7-1.02-.78-1.85-.54-5.97,1.75-11.97,3.44-17.95,5.15-.44,.13-.87,.31-1.32,.36-.81,.09-1.43-.26-1.8-.99-.34-.66-.13-1.26,.33-1.76,.24-.27,.55-.49,.84-.71,4.83-3.73,9.65-7.47,14.51-11.15,.8-.6,.97-1.12,.59-2.03-.93-2.26-1.44-4.63-1.74-7.05-.08-.65-.35-1.05-.86-1.44-3.97-3.03-7.92-6.1-11.89-9.15-.8-.62-1.33-1.34-.82-2.35,.51-1.01,1.41-1.03,2.38-.74,.13,.04,.26,.07,.4,.11,3.26,.94,6.51,1.88,9.77,2.81,.43,.12,.88,.22,1.39,.35,.31-2,.79-3.9,1.46-5.75,.28-.77-.11-1.18-.55-1.66-4.14-4.59-6.92-9.92-8.13-15.97-1.92-9.61,0-18.46,5.57-26.54,.6-.88,1.38-1.07,2.36-1.05,9.81,.19,18.07,3.87,24.78,11.02,.18,.19,.33,.42,.51,.65,.45-.44,.25-.87,.25-1.24-.11-5.37-.24-10.73-.36-16.1,0-.32-.03-.64-.03-.96,0-.91,.31-1.64,1.29-1.84,.95-.19,1.58,.27,1.95,1.14,1.15,2.69,2.31,5.38,3.46,8.07,1.08,2.52,2.16,5.05,3.25,7.57,.11,.26,.12,.73,.58,.59,.31-.1,.22-.46,.23-.73,.02-2.75-.05-5.51,.07-8.26C52.09,7.07,59.01,.25,67.27,.1c3.38-.06,6.78-.36,10.13,.52,6.61,1.73,11.62,7.88,11.86,14.71,.1,2.7,.04,5.41,.06,8.12,0,.33-.18,.83,.33,.9,.4,.05,.4-.44,.52-.71,2.08-4.83,4.14-9.67,6.21-14.51,.11-.25,.21-.51,.32-.76,.37-.93,.93-1.62,2.06-1.41,1.15,.22,1.34,1.1,1.31,2.09-.09,3.39-.19,6.79-.24,10.18-.04,2.56,0,5.13,0,7.73,.36,.07,.47-.38,.69-.61,6.71-7.08,14.93-10.72,24.69-10.94,1.2-.03,1.95,.4,2.62,1.37,8.89,12.93,7.94,29.87-2.44,41.74-.87,.99-1.09,1.81-.64,3.02,.45,1.19,.8,2.45,.95,3.71,.14,1.16,.6,1.12,1.5,.85,3.37-1.02,6.77-1.98,10.15-2.95,.92-.27,1.87-.42,2.45,.57,.66,1.11,.05,1.88-.83,2.56-3.9,2.98-7.77,6-11.67,8.98-.57,.44-.92,.89-1.01,1.66-.28,2.42-.83,4.79-1.76,7.04-.37,.89-.1,1.35,.62,1.9,4.82,3.67,9.6,7.38,14.4,11.07,.55,.42,1.08,.84,1.46,1.41v1.1c-.63,1.41-1.18,1.65-2.99,1.14-4.76-1.35-9.52-2.72-14.29-4.07-1.15-.33-2.31-.6-3.43-1-1.06-.37-1.76-.17-2.5,.72-5.69,6.88-13,11.51-21.15,14.88-5.97,2.46-12.21,3.94-18.64,4.52-2.04,.18-4.11,.26-6.18,.2-.44-.01-.91-.15-1.33,.13h-.55Z"/><path class="cls-3" d="M116.44,51c2.89,4.6,4.95,9.54,6.1,14.87,.23,1.07,.05,1.62-1.13,1.91-2.71,.67-5.38,1.49-8.06,2.26-.65,.19-1.37,.33-1.72,1.02-.31,.62-.3,1.26,.15,1.81,.52,.64,1.19,.73,1.98,.5,3.47-1.01,6.95-1.99,10.42-2.98,1.78-.51,3.56-1,5.35-1.5,.07,.12,.13,.24,.2,.36-4.56,3.48-9.12,6.96-13.68,10.44-1.01-.07-.95-.98-1.17-1.59-.74-2.06-.67-2.02-2.32-.53-3.72,3.37-7.76,6.3-12.18,8.7-.48,.26-.96,.56-1.56,.43-.56-.22-.74-.78-1.05-1.22-.83-1.19-2.03-1.82-3.41-2.1-.81-.17-1.63-.03-1.89,.9-.26,.96,.39,1.39,1.22,1.64,1.06,.32,2.17,.62,2.06,2.1-.27,.68-.92,.84-1.51,1.07-1.87,.71-3.77,1.32-5.69,1.9-.59,.11-1.19,.1-1.78,.1-10.84,0-21.68,0-32.52,0-.59,0-1.19,.01-1.78-.09-1.91-.59-3.81-1.19-5.68-1.9-.58-.22-1.23-.39-1.53-1.05-.18-.87,.3-1.37,.99-1.75,.36-.2,.76-.31,1.15-.42,.79-.22,1.35-.68,1.14-1.57-.21-.87-.96-1.09-1.73-.96-1.44,.24-2.68,.87-3.55,2.09-.31,.44-.49,.99-1.04,1.24-.75,.17-1.33-.26-1.92-.59-4.52-2.54-8.7-5.54-12.46-9.12-1-.95-.99-.95-1.44,.35-.18,.52-.31,1.06-.54,1.55-.18,.38-.25,.94-.9,.81-4.57-3.48-9.14-6.97-13.86-10.57,.76-.34,1.21-.01,1.64,.11,4.58,1.28,9.14,2.6,13.71,3.91,.35,.1,.7,.21,1.06,.29,.94,.2,1.66-.14,1.96-1.05,.33-.97-.05-1.76-1.03-2.08-1.56-.52-3.15-.94-4.73-1.4-1.45-.42-2.88-.9-4.35-1.23-.96-.21-1.09-.68-.92-1.53,.72-3.8,2.03-7.4,3.74-10.85,.73-1.47,1.4-2.98,2.4-4.3,.54-.36,.86-.94,1.31-1.39,2.93-3.24,6.5-5.63,10.29-7.71,4.19-2.31,8.61-4.09,13.22-5.35,1.17-.32,1.93-.75,1.81-2.09-.02-.23,.11-.44,.32-.57,.41,2.22,.06,4.46,.14,6.69,.06,1.7,.07,3.39,.5,5.05,1.75,6.76,7.4,11.65,14.49,12.13,4.09,.28,8.25,.54,12.24-.98,6.01-2.29,10.16-7.99,10.36-14.42,.08-2.34,0-4.67,.02-7.01,0-.49-.17-1.01,.17-1.46,.12,.08,.26,.18,.25,.31-.15,1.76,1.03,2.14,2.4,2.52,5.64,1.57,10.95,3.94,15.88,7.08,2.7,1.72,5.33,3.57,7.33,6.15,.4,.32,.67,.78,1.11,1.06Z"/><path class="cls-19" d="M98.84,86.53c2.47-.89,4.6-2.39,6.72-3.86,2.84-1.97,5.59-4.06,7.99-6.57,.53-.56,.78-.58,1.09,.24,.43,1.13,.46,2.44,1.4,3.35-.2,.19-.4,.37-.59,.56-1.04,1.06-.78,2.13,.44,2.91,5.16,3.31,9.73,7.41,14.86,11.14-.65,.3-1,.1-1.36,0-4.75-1.36-9.51-2.72-14.26-4.08-.31-.09-.62-.18-.93-.26-.99-.25-1.78,.06-2.09,1.04-.33,1.04,.14,1.78,1.18,2.12,.56,.19,1.13,.36,1.86,.59-1.33,1.77-2.83,3.21-4.4,4.58-8.05,7.04-17.5,11.13-27.94,12.97-14.36,2.53-28.22,.91-41.4-5.49-5.54-2.69-10.41-6.33-14.6-10.85-.31-.33-.56-.71-.85-1.08,.47-.5,1.11-.48,1.65-.66,1.1-.36,1.65-1.08,1.29-2.18-.34-1.04-1.19-1.28-2.23-.98-4.75,1.37-9.51,2.72-14.27,4.07-.68,.19-1.35,.53-2.33,.42,3.9-3.01,7.61-5.91,11.36-8.75,1.27-.96,2.41-2.09,3.92-2.75,1.05-.46,1.18-1.66,.41-2.54-.24-.27-.52-.51-.78-.76,.9-.83,.96-2.04,1.3-3.09,.35-1.07,.64-1.06,1.39-.31,3.75,3.75,8.06,6.78,12.64,9.43,.59,.34,1.17,.72,1.87,.81,.34,.41,.19,.87,.16,1.32-.18,3.04,1.87,5.43,4.89,5.69,1.7,.15,1.73,.16,1.93,1.84,.09,.72,.21,1.46,1.08,1.51,.92,.05,1.18-.71,1.36-1.45,.43-1.83,.46-1.88,2.35-1.88,11.04,0,22.09,0,33.13,0,1.89,0,1.93,.05,2.35,1.88,.17,.74,.43,1.51,1.35,1.46,.87-.05,1.07-.79,1.07-1.51-.01-1.24,.52-1.77,1.8-1.86,3.23-.21,5.2-2.56,5.02-5.81-.02-.41-.13-.82,.17-1.18Z"/><path class="cls-11" d="M55.15,14.93c.24-5.12,4.4-10.13,9.82-11.16,4.18-.79,8.49-.91,12.65,.44,4.59,1.48,8.26,6.54,8.27,11.27-1.07-.04-2.16,.02-3.12-.61-.3-.87-.38-1.89-1.52-2.18-.71-.18-1.39-.43-2.05-.78-1.82-.97-3.82-1.26-5.84-1.41-3.58-.27-7.15-.23-10.6,.98-1.03,.36-1.93,1.06-3.05,1.23-1.19,.3-1.14,1.46-1.59,2.28-1.01,.49-2.01,.58-2.99-.05Z"/><path class="cls-12" d="M85.95,38.32c.04,2.5,.29,5.03-.69,7.44-.8,.57-1.59,.48-2.38-.03-1.47-1.85-2.72-1.78-4.52,.24-.53,.21-1.06,.2-1.58-.05-.79-1.2-1.92-1.49-3.31-1.42-2.01,.1-4.03,.09-6.04,0-1.33-.06-2.44,.18-3.18,1.39-.51,.28-1.04,.28-1.58,.13-.21-.08-.38-.22-.53-.4-1.35-1.65-2.66-1.62-4.01,.09-.87,.51-1.72,.75-2.47-.19-.9-2.23-.68-4.57-.6-6.88,.7-.6,1.56-.45,2.36-.45,8.55-.01,17.11-.02,25.66,0,.94,0,1.91-.31,2.84,.14Z"/><path class="cls-12" d="M55.07,35.05v-6.89c.67-.57,1.48-.44,2.25-.44,8.35,0,16.71-.02,25.06,.01,1.19,0,2.37-.24,3.56-.12,0,2.67,0,5.33,0,8-1.03,.16-1.98-.22-2.97-.39-.33-.19-.47-.55-.72-.81-.85-.85-2.09-.86-2.92,0-.31,.32-.49,.78-.99,.9-.53,.12-1.06,.11-1.56-.12-.98-1.22-2.28-1.52-3.8-1.44-1.69,.09-3.39,.08-5.09,0-1.46-.07-2.72,.22-3.66,1.42-.5,.25-1.03,.26-1.57,.15-.32-.08-.52-.31-.74-.55-1.19-1.36-2.26-1.35-3.46,0-.18,.2-.35,.41-.61,.51-.96,.17-1.91,.35-2.8-.25Z"/><path class="cls-9" d="M20.86,50.58c-2.17-3.46-3.14-7.1-2.86-11.04,.2-2.87,1.04-5.57,2.55-8.04,.27-.45,.48-.76,1.14-.71,4.02,.3,7.55,1.77,10.61,4.37,.4,.34,.91,.61,.2,1.25-4.44,3.97-8.08,8.62-11.22,13.66-.09,.14-.21,.26-.42,.52Z"/><path class="cls-9" d="M120.1,50.58c-1.63-2.33-3.01-4.64-4.7-6.75-2.04-2.54-4.17-5.01-6.62-7.16-.78-.69-.69-1.06,.05-1.64,3.05-2.45,6.47-3.93,10.4-4.22,.61-.04,.89,.12,1.2,.61,3.55,5.56,3.47,13.66-.32,19.16Z"/><path class="cls-22" d="M125.1,18.7c2.88,4.39,4.62,8.86,5.22,13.83,.52,4.35,.1,8.55-1.15,12.71-1.14,3.82-3.12,7.2-5.55,10.34-.54,.7-.77,.58-1.16-.25-.48-1.01-.41-1.75,.22-2.63,2.66-3.74,3.82-8,3.7-12.52-.12-4.28-1.42-8.26-3.99-11.76-.05-.07-.11-.17-.18-.2-1.88-.87-1.03-1.93-.34-3.14,1.12-1.99,2.08-4.07,3.23-6.37Z"/><path class="cls-22" d="M15.9,18.79c1.47,2.79,2.83,5.38,4.19,7.97,.15,.29,.12,.46-.18,.67-2.36,1.63-3.31,4.19-4.18,6.73-1.52,4.42-1.45,8.88,0,13.3,.67,2.05,1.59,3.99,2.87,5.74,.42,.57,.21,2.35-.33,2.74-.48,.35-.67-.15-.86-.38-2.38-3-4.28-6.29-5.45-9.93-1.14-3.55-1.69-7.2-1.47-10.94,.34-5.73,2.01-11.01,5.42-15.91Z"/><path class="cls-12" d="M55.08,24.58c0-2.02,0-4.03,0-6.05,.66-.57,1.47-.44,2.24-.45,8.35,0,16.71-.02,25.06,.01,1.19,0,2.37-.24,3.56-.13,0,2.39,0,4.78,0,7.17-1.02,.06-2-.18-2.98-.4-.44-.32-.58-.9-1.08-1.18-.83-.47-1.93-.32-2.57,.4-.29,.33-.48,.77-.97,.9-.54,.12-1.07,.11-1.57-.13-.85-1.21-2.04-1.49-3.46-1.42-1.91,.08-3.83,.09-5.74,0-1.38-.07-2.5,.26-3.33,1.41-.51,.26-1.04,.27-1.58,.16-.32-.08-.53-.31-.74-.56-1.21-1.42-2.34-1.4-3.54,.07-.15,.18-.29,.35-.51,.44-.96,.2-1.92,.37-2.82-.24Z"/><path class="cls-12" d="M83.31,49.38c-2.1,2.9-4.95,4.57-8.49,4.94-3.73,.39-7.49,.62-11.14-.57-2.45-.8-4.49-2.22-5.97-4.38,.5-.54,1.17-.47,1.8-.47,7.33-.02,14.67-.02,22,0,.63,0,1.3-.07,1.8,.47Z"/><path class="cls-1" d="M85.94,17.97c-.58,.55-1.29,.57-2.04,.57-9.6-.01-19.21,0-28.81,0-.1-1.2-.09-2.4,.07-3.6,.99-.1,2.03,.29,2.98-.26,1.45,.91,2.89,.84,4.32-.04,.7-.09,1.39-.11,2.08,.05,1.07,.58,2.22,.73,3.43,.7,1.69-.04,3.37-.04,5.06,0,1.21,.03,2.36-.1,3.44-.69,.69-.17,1.39-.15,2.09-.07,.27,.04,.53,.12,.75,.28,1.27,.94,2.43,.3,3.6-.23,.93,.55,2.14,.03,3.01,.81,.14,.83,.13,1.66,.04,2.49Z"/><path class="cls-5" d="M115.41,50.19c-2.78-2.64-5.71-5.08-9.05-7.02-4.56-2.66-9.38-4.68-14.42-6.19-2.31-.69-2.3-.73-2.46-3.1,.09-.18,.17-.35,.26-.53,2.07,.19,3.88,1.18,5.79,1.89,.53,.2,.4,.76,.57,1.17,.2,1.05,.81,1.69,1.9,1.54,1.09-.16,1.45-1,1.44-2.02,0-.78,0-1.56,0-2.68,1.42,1.06,2.66,1.95,3.84,2.89,4.4,3.5,8.21,7.57,11.44,12.18,.36,.52,.64,1.09,.96,1.64,.06,.24-.02,.32-.26,.24Z"/><path class="cls-5" d="M51.54,33.89c-.16,2.35-.15,2.4-2.47,3.09-5.63,1.67-10.97,3.99-15.95,7.12-2.63,1.66-4.97,3.69-7.23,5.81-.27,.02-.42-.07-.32-.37,3.2-5.2,7.41-9.5,12.09-13.35,1.19-.97,2.45-1.86,3.94-2.98,0,1.12,0,1.92,0,2.73,0,1.03,.36,1.86,1.45,2.01,1.09,.15,1.69-.5,1.89-1.54,.17-.4,.04-.97,.57-1.16,1.9-.7,3.71-1.7,5.78-1.88,.21,.12,.24,.32,.26,.53Z"/><path class="cls-1" d="M62.48,24.59c.57,0,1.14,0,1.7,0,1,1.13,2.27,1.35,3.71,1.28,1.74-.09,3.49-.09,5.23,0,1.44,.07,2.72-.15,3.71-1.28,.57,0,1.14,0,1.7,0,.66,.29,.86,1.13,1.69,1.28,1.27,.23,2.04-.42,2.74-1.29,1.03,0,2.07-.09,2.98,.57,0,.82,0,1.65,0,2.47-.59,.54-1.3,.56-2.05,.56-9.6-.01-19.21,0-28.81,0,0-1.19,0-2.39,0-3.58,.99,0,1.98,0,2.97-.01,.71,.86,1.47,1.53,2.74,1.29,.83-.15,1.03-.98,1.69-1.28Z"/><path class="cls-2" d="M76.83,35.05h1.72c.62,.34,.84,1.14,1.68,1.28,1.27,.21,2.04-.42,2.74-1.29,1.04-.06,2.05,.06,2.99,.57,0,.91,0,1.81,0,2.72-.74,.26-1.51,.31-2.29,.31-9.53-.01-19.05,0-28.58,0,0-1.19,0-2.39-.01-3.58,.99,0,1.99,0,2.98-.01,.71,.87,1.47,1.5,2.74,1.29,.84-.14,1.06-.94,1.68-1.27,.57,0,1.14,0,1.72-.01,.87,1.12,2.04,1.32,3.39,1.27,1.95-.08,3.91-.08,5.86,0,1.34,.05,2.52-.15,3.39-1.27Z"/><path class="cls-1" d="M83.31,49.38c-8.53,0-17.07,0-25.6,0-.99-1.12-1.65-2.42-2.02-3.86,.79,.36,1.58,.38,2.37-.01,1.22,1.48,2.26,1.83,3.32,1.18,.42-.26,.5-.91,1.11-.93,.56,0,1.13,0,1.69,0,1.29,1.25,2.88,1.37,4.56,1.29,1.23-.06,2.46-.07,3.69,0,1.65,.1,3.16-.13,4.42-1.29,.56,0,1.13,0,1.69,0,.1-.02,.19-.01,.26,.05,1.83,1.71,2.57,1.66,4.17-.29,.73,.44,1.54,.2,2.31,.26-.4,1.34-1.02,2.57-1.96,3.62Z"/><path class="cls-3" d="M96.08,36.41c-.25-.63-.72-.94-1.37-1.16-1.68-.57-3.32-1.25-4.98-1.89,2.1-4.98,4.21-9.96,6.31-14.94,.05-.13,.09-.26,.14-.39,.77,.94,.23,2,.27,3-.12,5.13-.24,10.25-.36,15.38Z"/><path class="cls-3" d="M51.29,33.36c-1.66,.64-3.3,1.32-4.98,1.89-.66,.22-1.12,.53-1.37,1.16-.12-5.13-.24-10.25-.36-15.38,.04-1.01-.5-2.06,.27-3,2,4.68,3.99,9.37,5.98,14.05,.18,.42,.31,.85,.46,1.28Z"/><path class="cls-18" d="M18.53,78.98c1.14,.89,2.07,1.61,3.03,2.36-.63,.64-1.23,1.1-1.94,1.49-.54-1.16-.91-2.32-1.1-3.85Z"/><path class="cls-18" d="M122.49,78.98c-.16,1.51-.58,2.66-1.1,3.94-.67-.52-1.26-.98-1.99-1.53,1.01-.79,1.93-1.51,3.08-2.41Z"/><path class="cls-13" d="M96.45,21.03c-.29-.98,.24-2.04-.27-3,.09-.14,.16-.39,.27-.41,.23-.05,.24,.19,.23,.36-.09,1.02,.16,2.06-.23,3.05Z"/><path class="cls-13" d="M44.84,18.02c-.51,.96,.01,2.02-.27,3-.39-.99-.14-2.04-.22-3.05-.02-.2-.03-.51,.33-.29,.09,.05,.11,.23,.16,.35Z"/><path class="cls-4" d="M25.57,49.54c.11,.12,.21,.25,.32,.37-.34,.48-.65,.99-1.31,1.09,.26-.53,.54-1.05,.99-1.46Z"/><path class="cls-8" d="M115.41,50.19c.09-.08,.17-.16,.26-.24,.43,.22,.58,.66,.77,1.05-.52-.05-.8-.4-1.03-.82Z"/><path class="cls-14" d="M43.54,80.81c-5.9-.15-10.55-4.98-10.35-10.76,.2-5.85,4.96-10.41,10.71-10.26,5.89,.15,10.52,4.97,10.36,10.77-.16,5.8-4.97,10.4-10.72,10.25Z"/><path class="cls-14" d="M97.32,80.81c-5.83,.03-10.53-4.67-10.57-10.55-.04-5.67,4.69-10.45,10.36-10.48,5.94-.03,10.77,4.73,10.72,10.55-.05,5.79-4.73,10.45-10.51,10.48Z"/><path class="cls-14" d="M98.84,86.53c.66,3.79-.73,6.4-3.87,7.25-.09,.02-.18,.09-.26,.08-1.64-.09-2.79,.2-2.5,2.32,.11,.79-.72,1.27-1.52,1.27-.89,0-1.39-.57-1.63-1.41-.19-.65,.3-1.63-.3-1.92-.68-.33-1.61-.15-2.43-.15-10.97,0-21.93,.01-32.9-.03-1.12,0-1.56,.23-1.46,1.42,.1,1.13-.41,2.08-1.66,2.09-1.26,0-1.65-.92-1.65-2.08,0-.6,.33-1.35-.87-1.42-4.48-.27-6.45-2.91-5.63-7.42,.93-1.85,2.29-3.16,4.4-3.52,1.07-.18,2.05-.04,2.41,1.19,.3,1.03-.33,1.74-1.75,2.07-.89,.2-1.64,.56-1.82,1.58,.36,1.78,1,2.39,2.7,2.4,1.32,.01,2.64,.05,3.94,.36,6.08,.02,12.17,.05,18.25,.05,6.22,0,12.44-.03,18.66-.05,1.3-.31,2.61-.34,3.94-.36,1.7-.01,2.35-.62,2.7-2.4-.22-1.07-1-1.45-1.96-1.59-1.12-.17-1.8-.76-1.63-1.92,.18-1.18,1.08-1.49,2.15-1.36,2.24,.27,3.69,1.61,4.67,3.55Z"/><path class="cls-5" d="M70.5,82.87c-4.03,.33-8.04-.18-12.07-.27-1.66-.04-3.37-.18-4.98-.79-1.04-.39-1.02-.95-.3-1.6,1.17-1.07,2.6-1.69,4.06-2.25,4.75-1.82,9.69-2.68,14.75-2.43,5,.24,9.87,1.22,14.35,3.6,.87,.46,2.12,.93,1.96,2.02-.14,.96-1.48,.87-2.33,1.05-1.11,.24-2.25,.42-3.38,.42-4.03,0-8.04,.56-12.07,.24Z"/><path class="cls-20" d="M52.05,90.61c-1.54,.01-3.09,.09-4.63,.03-1.58-.06-2.35-1.21-2.01-2.79,.52,.8,1.44,.86,2.21,1.16,1.46,.57,2.95,1.07,4.43,1.6Z"/><path class="cls-20" d="M95.6,87.85c.35,1.58-.43,2.72-2.01,2.79-1.54,.06-3.09-.01-4.63-.03,1.94-.71,3.87-1.44,5.82-2.13,.36-.13,.66-.28,.82-.63Z"/><path class="cls-10" d="M64.45,14.93c-.74,0-1.49,0-2.23,0-.02-1.8-1.47-2.06-2.73-2.53,1.87-.53,3.5-1.71,5.46-1.98,2.93-.4,5.85-.46,8.82-.29,2.83,.16,5.21,1.4,7.75,2.27-.06,.13-.16,.26-.29,.26-1.51,0-2.26,.82-2.44,2.26-.74,0-1.49,0-2.23,0q-.76-2.08-3.03-2.08c-2.02,0-4.04,0-6.05,0q-2.28,0-3.03,2.08Z"/><path class="cls-21" d="M78.8,14.93c-.32-2.07,.1-2.45,2.73-2.53,1.18,.31,1.52,1.14,1.37,2.26-1.2,1.39-2.53,1.48-4.09,.26Z"/><path class="cls-21" d="M59.49,12.4c.36,0,.72,0,1.07,.03,1.5,.08,1.93,.73,1.65,2.5-1.56,1.21-2.9,1.13-4.09-.26-.16-1.13,.19-1.95,1.37-2.26Z"/><path class="cls-15" d="M76.84,45.76c-.36,1.21-1.25,1.59-2.42,1.59-2.61-.01-5.22-.01-7.83,0-1.17,0-2.06-.37-2.42-1.59,.25-1.3,1.04-1.78,2.35-1.76,2.66,.06,5.31,.06,7.97,0,1.31-.03,2.1,.46,2.35,1.76Z"/><path class="cls-15" d="M82.96,45.5c-.06,1.15-.73,1.67-1.81,1.8-1.27,.15-2.2-.26-2.62-1.55,.02-1.1,.69-1.6,1.68-1.7,1.21-.12,2.4-.11,2.75,1.45Z"/><path class="cls-15" d="M62.49,45.75c-.38,1.23-1.27,1.67-2.49,1.57-1.12-.1-1.88-.58-1.94-1.82,.26-1.23,1.14-1.46,2.25-1.5,1.3-.05,1.92,.59,2.18,1.75Z"/><path class="cls-15" d="M76.83,35.05c-.23,1.24-.96,1.73-2.22,1.7-2.73-.05-5.47-.05-8.2,0-1.26,.02-1.99-.47-2.22-1.7,.34-1.18,1.15-1.65,2.35-1.63,2.64,.03,5.29,.03,7.93,0,1.21-.01,2.01,.45,2.35,1.63Z"/><path class="cls-21" d="M82.96,35.04c-.13,1.13-.75,1.66-1.9,1.71-1.3,.06-2.26-.26-2.51-1.69,.31-1.17,1.09-1.68,2.28-1.64,1.1,.04,1.92,.41,2.13,1.62Z"/><path class="cls-21" d="M62.47,35.06c-.26,1.43-1.21,1.75-2.51,1.69-1.15-.06-1.77-.58-1.91-1.71,.22-1.2,1.03-1.58,2.14-1.61,1.19-.04,1.97,.47,2.28,1.64Z"/><path class="cls-14" d="M76.84,24.58c-.29,1.2-1.04,1.69-2.29,1.67-2.69-.05-5.39-.05-8.08,0-1.25,.02-2-.47-2.29-1.67,.32-1.27,1.15-1.7,2.43-1.67,2.6,.06,5.19,.06,7.79,0,1.28-.03,2.11,.4,2.43,1.67Z"/><path class="cls-15" d="M82.97,24.57c-.16,1.14-.83,1.62-1.97,1.68-1.28,.07-2.14-.36-2.45-1.66,.33-1.25,1.13-1.76,2.43-1.68,1.12,.07,1.81,.53,1.99,1.66Z"/><path class="cls-15" d="M62.48,24.59c-.31,1.35-1.23,1.73-2.52,1.66-1.12-.07-1.75-.58-1.91-1.68,.19-1.13,.88-1.59,2-1.66,1.3-.08,2.1,.43,2.43,1.68Z"/><path class="cls-16" d="M64.45,14.93c-.35-1.79,.18-2.49,1.96-2.5,2.73-.02,5.47-.02,8.2,0,1.78,.01,2.31,.71,1.96,2.5-.62,.62-1.37,.82-2.23,.81-2.55-.03-5.1-.03-7.65,0-.87,.01-1.61-.19-2.23-.81Z"/><path class="cls-17" d="M43.88,72.19c1.95-.08,3.89,.53,5.87,.83,.95,.14,.35,.64,.19,.94-1.41,2.71-5.09,4.19-8.15,3.3-1.83-.53-3.26-1.61-4.25-3.24-.34-.56-.48-.91,.45-1.04,1.94-.26,3.83-.86,5.89-.79Z"/><path class="cls-6" d="M39.26,65.47c1.02-.02,1.95,.85,2,1.87,.05,1.04-.93,2.05-1.98,2.04-1.01-.01-1.89-.92-1.89-1.96,0-1.07,.83-1.93,1.88-1.95Z"/><path class="cls-17" d="M90.84,73.22c4.05-1.3,8.13-1.3,12.24-.24,.55,.14,.87,.17,.52,.82-.94,1.74-3.25,3.96-6.98,3.66-2.52-.2-5.04-2-5.77-4.24Z"/><path class="cls-7" d="M94.78,67.45c-.02,1.05-.9,1.92-1.93,1.92-1.01,0-1.93-.91-1.95-1.93-.02-1.08,.93-2,2.02-1.96,1.07,.03,1.87,.89,1.85,1.97Z"/></g></g></svg>