<?xml version="1.0" encoding="UTF-8"?><svg id="Capa_1" xmlns="http://www.w3.org/2000/svg" viewBox="0 0 62.79 29.46"><defs><style>.cls-1{fill:#fff;}.cls-2{fill:#b3ac8a;}.cls-3{fill:#dbd2a9;}.cls-4{fill:#0d131a;}</style></defs><path class="cls-3" d="M11.97,9.47c.28,.46,.54,.97,.79,1.53,.11,.26,.15,.63,.1,1.1l-.14,1.01c.36-.02,.68,.29,.97,.94,.23,.49,.36,.93,.39,1.32,.01,.17-.14,.47-.45,.9-.38,.52-.62,.9-.71,1.13-.15,.36-.47,.68-.97,.95-.43,.24-.89,.39-1.37,.45,.13,.27,.39,.46,.76,.57l1.23,.25c.42,.09,1.09,.57,2.01,1.45,.78,.75,1.34,1.36,1.69,1.83,.22,.3,.4,.62,.53,.96l.29,.91c.29-.16,.44-.43,.43-.82l-.12-.77c-.02-.13,.07-.33,.27-.58l.62-.7c.35-.38,.83-.62,1.45-.72l2,3.99c-.16,.22-.79,.61-1.9,1.15l-1.99,.95c-.18,.1-.32,.27-.4,.51-.08,.22-.16,.35-.26,.38-.25,.08-.55,.09-.91,.02-.37-.07-.72-.21-1.04-.41-.24-.16-.57-.23-.99-.23l-1.69-.12c-1.54-.52-3.05-1.53-4.53-3.02-.46-.47-.89-.95-1.29-1.46l-.46-.62c-.03-.08-.09-.16-.17-.24-.16-.16-.36-.25-.61-.26-.28-.02-.83-.36-1.67-1.01-.8-.63-1.47-1.24-2-1.83-.43-.48-.76-1.18-1.01-2.13l-.47-2.12c-.13-.54-.15-.99-.05-1.34,.08-.3,.29-.66,.62-1.08,.29-.36,.58-.62,.86-.77,.22-.12,.51-.22,.88-.28-.07-.21-.1-.38-.08-.52,.04-.26,.25-.52,.65-.78,.43-.28,.86-.47,1.3-.56l.93,.03c.02-.14,.13-.28,.34-.44,.21-.16,.46-.28,.75-.38,.28-.1,.64-.15,1.08-.15,.42,0,.76,.03,1.01,.11,.05-.12,.36-.2,.91-.23l1.31,.03c.29,.03,.65,.4,1.08,1.12"/><path class="cls-2" d="M10.36,14.27c-.32-.32-.55-.39-.67-.21l-.49,1c-.14,.37-.13,.71,0,.99,.55,.63,1.25,.85,2.08,.65,.78-.18,1.32-.59,1.6-1.23,.08-.18-.07-.27-.47-.27l-1.01-.04c-.22-.11-.58-.41-1.07-.89m1.56-3.07l.57-.18,.27-.02c.11,.26,.15,.63,.1,1.1l-.14,1.01c.36-.02,.68,.29,.97,.94,.23,.49,.36,.93,.39,1.32,.01,.17-.14,.47-.45,.9-.38,.52-.62,.9-.71,1.13-.15,.36-.47,.68-.97,.95-.43,.24-.89,.39-1.37,.45,.13,.27,.39,.46,.76,.57l1.23,.25c.42,.09,1.09,.57,2.01,1.45,.78,.75,1.34,1.36,1.69,1.83,.22,.3,.4,.62,.53,.96l.29,.91c.3-.16,.44-.45,.43-.85,.07,.41,.27,.62,.59,.65l.84-.13-.62,1.01c-.33,.56-.59,.88-.75,.94h-.37c-.04-.07-.07-.26-.1-.58-.02-.23-.31-.46-.86-.69-.87-.36-1.35-.57-1.45-.63,.3-.29,.27-.75-.07-1.36-.3-.53-.77-1.09-1.43-1.68-.63-.56-1.23-.98-1.79-1.24-.6-.28-.98-.29-1.13-.03-.22,.38-.87,.59-1.96,.62l-1.12-.08c-.33-.07-.49-.16-.49-.28,0-1.48-.42-2.48-1.25-2.98-.37-.23-.85-.34-1.43-.34,0-.11,.08-.25,.24-.43,.16-.17,.23-.32,.23-.43,0-.31-.17-.65-.5-1.02-.34-.37-.51-.64-.51-.78,0-.11,.11-.19,.33-.24l.74-.12c.73-.14,1.13-.5,1.19-1.07,.4,.05,.78-.03,1.15-.25,.37-.21,.67-.53,.91-.96l.88-.03c.69-.06,1.33-.29,1.91-.7,.23,.25,.64,.3,1.23,.14"/><path class="cls-2" d="M21.75,25.14c-.2,.27-1.12,.79-2.76,1.56,.5-.67,.65-1.58,.45-2.74,.29-.4,.37-.85,.22-1.36-.16-.53-.51-.88-1.04-1.04,.31-.21,.68-.36,1.12-.43l2,3.99"/><path class="cls-2" d="M12.53,26.73c.45-.09,.52-.48,.21-1.15-.23-.49-.13-.56,.32-.19,.29,.25,.69,.65,1.2,1.2l.75,.67c.41,.37,.61,.6,.62,.7l-.38-.21c-.24-.16-.57-.23-.99-.23l-1.69-.12c-.64-.21-1.31-.54-2.01-.97,.98,.27,1.64,.37,1.97,.29"/><path class="cls-3" d="M38.35,12.67c.36,.23,.67,.61,.93,1.15,.13,.27,.22,.51,.28,.73l.88,.64c.18,.14,.46,.68,.86,1.64,.4,.96,.64,1.7,.71,2.19l-.82,4.68c-.37,1.01-.7,1.69-1.01,2.03-.26,.28-.59,.43-1.01,.43-.22,.52-1.16,1.15-2.82,1.87-1.25,.55-2.33,.94-3.23,1.17-.44,.11-1.53,.09-3.28-.08l-2.94-.35c-.61-.09-1.28-.39-2.02-.9-.32-.23-.75-.67-1.27-1.32l-.68-.91c-.91-.39-1.52-.61-1.83-.67-.21-.04-.48-.37-.8-.99-.27-.53-.5-1.1-.68-1.69-.12-.39,.03-.97,.46-1.73,.47-.83,.7-1.31,.7-1.43s-.09-.49-.27-1.12c-.21-.71-.33-1.19-.38-1.44-.08-.42,.21-1.05,.86-1.89,.35-.45,.81-.99,1.4-1.62,.18-.21,.44-.29,.77-.25,.17,.02,.32,.06,.45,.12l1.08-1.34c.8-.93,1.38-1.48,1.76-1.66s1.15-.24,2.34-.17l1.67,.14,.1-.14c.11-.12,.28-.23,.49-.32,.32-.15,1.08-.19,2.29-.12,1.31,.08,2.14,.29,2.5,.62,.14,.13,.42,.65,.84,1.56l.53,.38c.42,.3,.81,.56,1.17,.78"/><path class="cls-2" d="M30.47,9.9c-.25,.45-.7,1-1.36,1.65-.69,.68-1.01,.84-.97,.5,.04-.37,.02-.76-.06-1.18-.08-.42-.21-.8-.39-1.13l2.79,.16"/><path class="cls-2" d="M22.38,13.06c.18-.21,.42-.31,.73-.29,.16,.01,.29,.05,.4,.1l.7-.82c.64,.53,1.14,1.06,1.49,1.58,.37,.56,.51,1.02,.4,1.37-.07,.25-.07,.61-.01,1.08,0,.26-.21,.19-.62-.19-.97-.92-2.15-1.69-3.55-2.3l.45-.53"/><path class="cls-2" d="M23.6,16.46c.24,.1,.36,.51,.37,1.25,0,.75-.15,1.17-.47,1.26-.44,.12-1.03-.25-1.78-1.1-.74-.85-1.01-1.44-.82-1.76,.17-.29,.5-.38,.99-.27,.25,.05,.82,.26,1.72,.62"/><path class="cls-2" d="M33.94,11.95c.22-.24,.28-.69,.17-1.34-.1-.61-.26-1.03-.47-1.26,1.14,.1,1.87,.3,2.18,.6,.14,.13,.42,.65,.84,1.56l.53,.38c.42,.3,.81,.56,1.17,.78,.36,.23,.67,.61,.93,1.15,.13,.27,.22,.51,.28,.73l.88,.64c.18,.14,.46,.68,.86,1.64,.4,.96,.64,1.7,.71,2.19l-.82,4.68c-.37,1.01-.7,1.69-1.01,2.03-.26,.28-.59,.43-1.01,.43-.21,.5-1.09,1.1-2.63,1.8-1.26,.58-2.32,.97-3.18,1.18-.54,.13-1.09,.18-1.65,.14l-1.93-.23c2.34-.15,3.45-.56,3.35-1.22-.04-.21-.2-.44-.49-.69-.21-.17-.39-.29-.54-.36-.48-.21-.87-.36-1.18-.44-.38-.11-.8-.17-1.25-.19,.95-.35,1.85-.87,2.71-1.55,1.07-.84,1.34-1.48,.83-1.92-1.01-.77-2.28-1.01-3.79-.72-.37,.07-.91,.21-1.62,.43-.57,.17-.96,.26-1.15,.26-.35,0-1.04-.08-2.09-.25-.89-.14-1.45-.18-1.7-.12-.21,.05-.39,.19-.52,.39-.12,.19-.18,.38-.18,.58,0,.09,.14,.45,.41,1.09,.27,.62,.39,1.05,.36,1.3-.91-.39-1.52-.61-1.83-.67-.13-.02-.29-.17-.49-.45-.01-.49,.13-1.04,.43-1.65,.33-.68,.75-1.15,1.25-1.41,.21-.11,.51-.16,.9-.13l1.68,.28,1.09,.09,.83-.03c.34-.07,.83-.33,1.47-.77,.6-.41,1.16-.65,1.68-.71,.64-.07,1.42,.1,2.32,.51,.96,.43,1.68,.65,2.15,.65,.2,0,.46-.1,.8-.29,.34-.2,.65-.44,.91-.71,.69-.72,.77-1.28,.24-1.67-.26-.19-.5-.53-.73-1.03l-.59-1.46c-.53-1.33-1.09-2.14-1.71-2.45-.42,.13-.88,.34-1.39,.64-.53,.31-1.18,.76-1.94,1.34-.19,.14-.47,.39-.84,.75-.3,.29-.53,.48-.69,.56-.45,.17-.77,.12-.98-.16-.11-.29-.19-.44-.23-.47,.19,.04,.81-.45,1.87-1.45,1.32-1.25,2.2-2.02,2.66-2.32,.4-.26,.84-.4,1.32-.42,.42-.02,.69-.11,.84-.27"/><path class="cls-3" d="M62.5,5.55c.09,.37,.08,1.2-.02,2.49-.11,1.44-.29,2.4-.56,2.88-.59,1.1-1.24,2.13-1.95,3.1-1.18,1.6-2.3,2.66-3.36,3.17-.1,.15-.24,.45-.43,.91l-.55,1.34c-.57,1.25-1.26,2.19-2.06,2.83l-2.61,2.11c-.83,.67-1.46,1.08-1.87,1.23-.29,.11-.96,.41-2.03,.9-.91,.41-1.44,.63-1.6,.67-.22,.04-.5-.08-.84-.36-.37-.3-.57-.62-.6-.97-.29-.5-.71-.95-1.28-1.34-.62-.44-1.3-.75-2.04-.91-.79-.17-1.31-.34-1.58-.5-.26-.15-.4-.37-.45-.67-.04-.17-.08-.38-.11-.63-.07-.5-.1-.96-.08-1.36,.07-1.2,.43-1.84,1.07-1.92l1.96-.06c.46,.11,.77,.4,.93,.9,.17,.52,.43,1.01,.77,1.47,.34,.46,.65,.75,.95,.86,.24,.1,.48,.12,.71,.07,.11-.03,.2-.06,.27-.11,.12-.63,.26-1.28,.41-1.96,.32-1.36,.59-2.16,.8-2.4,.34-.39,1.38-1.28,3.11-2.65-.39-.25-.77-.55-1.14-.9-.75-.69-1.08-1.28-1-1.75-.04-.14-.18-.35-.44-.64l-.75-.83c-.65-.79-.89-1.5-.72-2.12,.24-.87,.53-1.5,.86-1.91,.24-.28,.56-.5,.96-.64-.19-.75-.3-1.29-.33-1.64-.05-.52,.02-.93,.22-1.23,.22-.34,.78-.88,1.67-1.6,.91-.74,1.51-1.12,1.79-1.17,.39-.05,.82-.05,1.28-.01,.58,.05,.93,.16,1.06,.33l.84-.14c.41-.02,.84,.05,1.31,.21,.51,.18,.9,.4,1.19,.66,.25,.22,.37,.43,.37,.63h.74c.36,.01,.72,.12,1.09,.31,.57,.3,.96,.54,1.19,.72,.34,.28,.5,.58,.48,.9,.32,.04,.75,.24,1.3,.6,.62,.4,.97,.78,1.05,1.13"/><path class="cls-2" d="M61.46,5.53c.21-.14,.44-.2,.69-.16,.21,.03,.33,.09,.36,.18,.09,.37,.08,1.2-.02,2.49-.11,1.44-.29,2.4-.56,2.88-.59,1.1-1.24,2.13-1.95,3.1-1.18,1.6-2.3,2.66-3.36,3.17-.1,.15-.24,.45-.43,.91l-.55,1.34c-.57,1.25-1.26,2.19-2.06,2.83l-2.61,2.11c-.83,.67-1.46,1.08-1.87,1.23-.29,.11-.96,.41-2.03,.9-.91,.41-1.44,.63-1.6,.67-.18,.03-.41-.05-.7-.25-.31-.21-.52-.46-.65-.75,.37,.13,.67,.09,.91-.13,.32-.3,.62-.47,.91-.51,.74-.12,1.4-.28,1.97-.47,.84-.28,1.37-.61,1.59-.97l1.16-1.24c.61-.64,1.04-1.15,1.28-1.52l.97-1.66c.32-.58,.61-1.05,.88-1.42l.66-1.09c.17-.3,.37-.49,.6-.57,.38-.14,.65-.52,.8-1.12,.17-.71-.03-1.34-.59-1.87-.57-.55-1.21-.88-1.92-.99-.58-.09-1.07-.04-1.49,.15-.47-.61-1-.98-1.58-1.12-.63-.06-1.1-.16-1.41-.3-.4-.18-.74-.44-1.03-.8l-.31-.47c1.17,.39,2.19,.25,3.07-.43,.36-.28,.63-.61,.82-1,.19-.38,.27-.75,.23-1.1-.15-.04-.48-.31-.98-.8l-1.01-.99c-.16-.14-.6-.16-1.34-.05l-1.08,.05c-.08-.23-.16-.61-.25-1.12-.1-.57-.06-.71,.1-.41,.17,.32,.6,.52,1.27,.58,.64,.05,1.08-.03,1.31-.26,.31,.39,.74,.7,1.3,.93,.59,.24,1.14,.3,1.65,.17,.44,.54,.91,.89,1.43,1.04,.42,.12,.91,.13,1.47,.01,.03,.56,.49,1,1.4,1.34,.37,.13,.71,.19,1.01,.18,.32-.02,.52-.12,.6-.31,.13-.33,.61-.78,1.44-1.36,.43-.3,.95-.64,1.56-1.01"/><path class="cls-2" d="M45.08,21.84c.46,.05,.8,.05,1.01,0,.12-.03,.16,.01,.12,.12-.04,.11-.13,.23-.28,.37-.41,.38-.89,.59-1.43,.61l-1.91-.1c-.75-.17-1.45-.56-2.09-1.15,.68-.34,.74-.96,.19-1.87-.29-.43-.47-.73-.55-.89-.13-.27-.09-.42,.11-.47,1.2-.27,1.95,.02,2.23,.86,.17,.52,.43,1.01,.77,1.47,.34,.46,.65,.75,.95,.86,.17,.07,.47,.12,.88,.16"/><path class="cls-2" d="M50.28,15.14c.56,.27,.97,.42,1.23,.44,.16,.01,.24,.06,.26,.14,.01,.07-.03,.2-.14,.38l-1.25,1.91c-.5,.57-1.2,1.29-2.1,2.17s-1.23,1.15-.98,.83c1.25-1.65,1.68-2.92,1.28-3.82-.12-.28-.32-.51-.6-.69l-.37-.18,1.89-1.58,.77,.4"/><path class="cls-1" d="M28.45,17.03l1.77-1.43c1.16-.93,1.99-1.48,2.5-1.65,.47,.27,.77,.91,.9,1.95,.12,.99,.05,1.75-.23,2.29l-2.24-.17c-1.24-.09-2.01-.09-2.32,0-.09-.17-.18-.39-.27-.64l-.11-.34"/><path class="cls-1" d="M25.06,18.35c-.25,.21-.78,.43-1.6,.67l-1.16,.29c-.2-.28-.37-.64-.52-1.06-.3-.85-.32-1.62-.08-2.32,.3-.08,.87,.08,1.71,.47,.64,.3,1.17,.59,1.59,.88,.05,.11,.09,.26,.1,.46,.01,.21,0,.41-.03,.6"/><path class="cls-4" d="M9.61,9.84c-.55-.67-.88-1.04-.99-1.12-.14-.09-.43-.14-.86-.15-.45,0-.82,.03-1.1,.12-.22,.08-.43,.18-.62,.31-.16,.11-.27,.22-.34,.32,.45,.23,.91,.52,1.39,.88,.61,.45,.97,.83,1.08,1.12,.1,.26,.21,.66,.34,1.22,.15,.64,.25,1.16,.29,1.56,.05-.22,.12-.41,.19-.57,.15-.35,.35-.59,.61-.7,.21-.1,.46-.12,.76-.06l.09-.7,.05-.93c0-.16-.29-.6-.88-1.32m-4.96-.3c-.42,.08-.85,.27-1.3,.58-.22,.15-.38,.32-.49,.53-.1,.19-.12,.33-.06,.44l.62,.14c.22,.06,.73,.39,1.51,.99,.77,.59,1.21,.97,1.32,1.15,.09,.15,.17,.48,.24,.99,.07,.51,.09,.97,.07,1.36l.44,.07,.62-.05c.14-.04,.28-.16,.43-.37,.12-.17,.23-.38,.32-.62,.06-.15,.03-.66-.11-1.52-.13-.85-.27-1.44-.4-1.79-.09-.24-.44-.59-1.04-1.03-.54-.4-1.01-.68-1.4-.86l-.77-.02m7.93,3.73l-.71,.05-1.15-.1c-.37-.12-.66-.14-.86-.05-.21,.08-.39,.29-.53,.62-.19,.43-.25,.88-.2,1.32,.07,.56,.34,.99,.81,1.28,.41,.26,.85,.35,1.33,.25,.36-.07,.71-.23,1.06-.48,.27-.18,.43-.24,.47-.16,.04,.07-.04,.21-.24,.41-.37,.37-.82,.58-1.36,.65-.58,.08-1.11-.04-1.61-.36-.59-.38-.89-.96-.9-1.76-.12,.24-.25,.46-.4,.65-.2,.25-.4,.4-.58,.46l-.58,.12c.83,.28,1.29,.61,1.36,.98,.06,.25,.11,.58,.16,1.01,.09,.66,.08,1.08,0,1.25-.14,.27-.22,.05-.24-.66l-.14-.61-.19-.74c-.03-.14-.19-.32-.47-.53-.33-.25-.72-.45-1.17-.59-.11,.25-.32,.45-.62,.6-.22,.11-.55,.22-1,.33-.44,.11-.87,.03-1.27-.24-.4-.27-.6-.6-.59-1-.32,.03-.62-.07-.88-.3-.19-.17-.34-.37-.44-.62-.07-.18-.11-.34-.1-.47,0-.13,.06-.11,.15,.04,.16,.27,.34,.49,.54,.68,.3,.28,.57,.39,.82,.32l.08-.14c.06-.1,.13-.16,.21-.18,.06-.02,.08,0,.05,.08-.06,.15-.09,.3-.08,.46,.03,.38,.23,.68,.59,.88,.31,.18,.59,.24,.82,.17,.88-.24,1.36-.52,1.44-.84,.07-.27,.08-.72,.01-1.37-.06-.62-.14-1-.23-1.15-.09-.15-.5-.5-1.23-1.06-.75-.57-1.21-.88-1.4-.94l-.36-.12-.28-.03c-.59,.16-1.08,.45-1.48,.88-.47,.5-.71,1.1-.74,1.82,0,.11,.08,.56,.24,1.34,.16,.79,.3,1.39,.43,1.8,.22,.69,.5,1.22,.84,1.6,.44,.49,.98,1,1.61,1.53,.64,.53,1.15,.91,1.54,1.12l.59,.23c.33,.15,.57,.31,.72,.49l.62,.72c.48,.54,.97,1.05,1.47,1.52,1.57,1.5,2.92,2.42,4.05,2.74,.28,.08,.61,.13,.99,.15h.78c-.67-.49-.8-.66-.39-.5,.37,.15,.73,.33,1.07,.56,.37,.24,.72,.42,1.02,.53,.37,.15,.65,.19,.84,.12l.21-.1c.11-.07,.18-.14,.2-.21,.05-.15,.1-.26,.14-.33,.09-.13,.2-.24,.35-.32l.8-.4,1.76-.84c.73-.37,1.16-.64,1.28-.8l.27,.19c-.16,.22-.46,.46-.9,.71-.5,.28-1.25,.61-2.24,.99l-.8,.45c-.05,.03-.14,.16-.25,.39-.11,.23-.26,.41-.45,.52-.23,.15-.56,.17-.98,.08-.37-.09-.75-.25-1.11-.49-.15-.09-.3-.15-.47-.18l-.56-.03h-.67s-.93-.12-.93-.12c-.95-.25-1.95-.77-3-1.54-1.28-.96-2.41-2.17-3.39-3.63-.08-.13-.26-.25-.53-.36-.32-.11-.53-.2-.65-.26-.48-.24-1.07-.64-1.78-1.2-.7-.55-1.25-1.05-1.65-1.49-.36-.4-.65-1-.87-1.8-.07-.26-.21-.92-.42-1.97C.09,14.49,0,14.02,0,13.89c-.02-.66,.29-1.3,.92-1.9,.5-.49,.96-.78,1.39-.87-.04-.11,0-.28,.1-.51,.15-.35,.42-.64,.83-.88,.75-.43,1.45-.61,2.13-.51,.18-.36,.5-.61,.95-.76,.35-.11,.76-.19,1.22-.23,.53-.04,.9,0,1.1,.13,.2-.15,.65-.22,1.34-.22l1,.05c.33,.04,.75,.45,1.23,1.23,.3,.48,.59,1.02,.85,1.62,.08,.19,.12,.43,.12,.7,0,.13-.04,.36-.13,.69l-.14,.53c.32,.08,.64,.42,.95,1.01,.31,.59,.43,1.08,.38,1.49-.03,.24-.09,.44-.19,.58l-.36,.46-.36,.47c-.12,.17-.21,.33-.27,.48-.15,.37-.47,.69-.98,.97-.42,.22-.9,.38-1.43,.48,.29,.18,.65,.32,1.08,.43l1.01,.19c.44,.09,1.12,.59,2.04,1.48,.72,.71,1.26,1.3,1.6,1.78,.2,.28,.37,.57,.49,.87,.07,.17,.16,.44,.27,.8v.02c.12-.13,.18-.3,.18-.52l-.05-.34c-.04-.18-.06-.33-.06-.45,0-.16,.08-.36,.24-.62,.16-.25,.37-.51,.64-.78,.24-.25,.52-.44,.84-.58,.25-.11,.57-.19,.95-.26l-.12,.38c-.28,.05-.54,.13-.8,.26-.22,.11-.41,.25-.56,.4-.59,.62-.87,1-.86,1.15l.07,.72c0,.5-.09,.8-.29,.91,.19,.2,.22,.32,.1,.35-.11,.03-.22,0-.35-.08-.08-.05-.16-.2-.23-.45l-.1-.36-.21-.59c-.08-.15-.22-.36-.42-.64-.33-.45-.88-1.05-1.66-1.79-.91-.86-1.56-1.34-1.94-1.42l-.5-.09c-.4-.07-.72-.15-.95-.24-.3-.11-.53-.26-.69-.45-.38,.2-.58,.28-.61,.25-.02-.01,.04-.11,.16-.29,.09-.11,.21-.2,.38-.27l.23-.06c.47-.06,.91-.21,1.32-.43,.46-.25,.75-.54,.88-.86,.1-.26,.32-.61,.67-1.07l.34-.5c.11-.17,.16-.3,.15-.38-.03-.34-.18-.76-.45-1.26-.31-.58-.61-.86-.89-.84m.13-1.45c.01-.32-.02-.57-.1-.75-.29-.67-.6-1.24-.91-1.72-.35-.53-.62-.81-.83-.83l-1.08-.04-.84,.09c.36,.34,.73,.77,1.12,1.27,.51,.64,.76,1.09,.76,1.32l-.04,.86c-.03,.41-.07,.69-.11,.84l.15,.05,1.45,.05,.3-.02,.04-.31,.1-.81"/><path class="cls-4" d="M10.23,19.99c-.05-.15-.01-.18,.12-.1,.14,.09,.23,.19,.26,.29,.02,.09,.24,.38,.65,.89l1.08,1.32c.3,.37,.45,.58,.44,.62,0,.03-.15-.05-.43-.23-.24-.16-.64-.64-1.21-1.42-.53-.72-.83-1.18-.91-1.37"/><path class="cls-4" d="M7.92,21.41c-.13-.09-.18-.16-.14-.23h.3c.17,.05,.64,.4,1.41,1.01,.77,.62,1.24,1.03,1.4,1.24,.17,.22,.25,.34,.24,.36-.01,.02-.14-.05-.38-.23-1.71-1.32-2.64-2.04-2.82-2.15"/><path class="cls-4" d="M13.78,24.23c-.11-.13-.16-.22-.14-.27,.02-.05,.11-.02,.26,.1,.15,.11,.39,.21,.72,.29l.75,.14c.18,.02,.26,.05,.25,.08,0,.03-.1,.08-.27,.14-.16,.05-.44,.02-.82-.1-.38-.12-.63-.25-.74-.38"/><path class="cls-4" d="M18.38,24.5l.58-.29c.25-.14,.42-.26,.51-.35,.12-.12,.19-.16,.19-.12l-.08,.19c-.07,.11-.23,.24-.46,.41-.28,.2-.51,.32-.7,.36-.2,.04-.29,.03-.27-.03,.02-.05,.09-.11,.23-.16"/><path class="cls-4" d="M39.83,20.5c.14,.32,.35,.65,.62,.99,.31,.38,.62,.65,.92,.8,.23,.12,.35,.2,.36,.24,0,.04-.13,0-.41-.1-.38-.14-.77-.45-1.16-.93-.33-.4-.53-.71-.58-.93-.05-.19-.04-.29,.03-.31,.06-.02,.13,.05,.21,.23"/><path class="cls-4" d="M51.36,16.01c.03-.12,.09-.14,.19-.05,.09,.09,.13,.21,.13,.38-.01,.21-.53,.91-1.54,2.11-1.08,1.28-1.95,2.16-2.61,2.64-.14,.11-.22,.12-.25,.05s0-.15,.1-.24c.71-.61,1.57-1.57,2.59-2.87,.9-1.16,1.36-1.82,1.4-2"/><path class="cls-4" d="M52.53,20.35c.05-.27,.27-.74,.63-1.39,.33-.6,.58-.99,.74-1.17,.14-.16,.27-.2,.4-.14,.13,.05,.12,.16-.03,.33-.19,.21-.44,.57-.75,1.07-.37,.58-.62,1.04-.74,1.39-.13,.36-.22,.51-.27,.47-.05-.05-.04-.23,.03-.54"/><path class="cls-4" d="M52.63,.49c-.35-.14-1.01-.14-1.97-.02-.25,.03-.81,.42-1.69,1.15-.88,.73-1.44,1.27-1.66,1.62-.16,.26-.23,.58-.21,.97,.02,.27,.12,.74,.28,1.39,1.09-.27,1.79-.3,2.11-.09-.1-.41-.15-.84-.16-1.28-.01-.48,.03-.87,.13-1.16,.13-.36,.61-.85,1.44-1.47,.69-.52,1.28-.88,1.74-1.1m3.85,1.3c-.04-.15-.17-.3-.39-.46-.25-.18-.6-.35-1.04-.51-.4-.14-.76-.22-1.08-.25l-.74,.05c-.52,.31-1.04,.64-1.58,1.01-1.07,.74-1.66,1.25-1.77,1.54-.12,.36-.17,.83-.14,1.41,.03,.56,.11,1,.25,1.32h0s.87,.77,.87,.77c.36,.29,.61,.45,.75,.49,.1,.02,.22,.09,.35,.2,.14,.11,.24,.21,.3,.32-.01-.79,.01-1.51,.08-2.17,.08-.83,.22-1.39,.4-1.7,.2-.33,.77-.73,1.72-1.21,.86-.44,1.53-.72,2.02-.82m2.99,1.17c-.21-.16-.56-.37-1.05-.62-.63-.32-1.43-.31-2.42,.05-.54,.21-1.09,.48-1.64,.82-.63,.38-1.04,.72-1.21,1.01-.25,.41-.43,1.15-.52,2.2-.09,1.02-.06,1.83,.08,2.41,.13,.55,.41,.96,.85,1.22,.17,.11,.38,.15,.63,.14l.71-.11c-.05-.47-.04-1.14,.04-2.02,.09-.97,.22-1.61,.39-1.92,.14-.26,.64-.66,1.48-1.21,.54-.35,1.14-.71,1.79-1.08,.16-.09,.4-.16,.69-.21l.69-.03c-.05-.22-.22-.44-.51-.67m3.27,2.48c.03,.14,.05,.46,.05,.97,0,.85-.04,1.68-.13,2.48-.11,1.02-.27,1.73-.48,2.11-.83,1.55-1.75,2.93-2.76,4.13-1.07,1.26-1.95,1.99-2.67,2.17-.11,.16-.27,.51-.48,1.05l-.72,1.91c-.37,.78-.85,1.41-1.47,1.89l-2,1.65c-1.4,1.12-2.25,1.74-2.56,1.86-.04,.01-.74,.32-2.12,.91-1.22,.53-1.89,.8-2,.82-.32,.06-.62-.05-.93-.33-.32-.29-.51-.67-.58-1.15-.27-.45-.69-.87-1.27-1.27-.68-.47-1.4-.76-2.16-.88-.59-.1-1.03-.25-1.31-.45-.27-.2-.46-.5-.56-.9-.05-.18-.05-.29-.01-.35,.04-.05,.1,.05,.19,.32,.1,.28,.28,.49,.54,.62,.22,.11,.71,.25,1.47,.42,1.58,.36,2.66,1.04,3.26,2.06l.09-.14c.07-.09,.12-.11,.16-.08,.04,.03,.04,.13,0,.29-.04,.19-.05,.32-.03,.39,.11,.29,.29,.55,.53,.77,.25,.23,.47,.32,.67,.29l1.71-.73,1.88-.82c.29-.11,1.11-.7,2.48-1.76l1.96-1.56c.55-.43,1.02-.97,1.41-1.61,.32-.53,.68-1.28,1.07-2.27l.34-.94-.49-.18c-.32-.13-.43-.21-.33-.25,.08-.04,.27-.03,.56,0l.71,.05c.46-.05,1.35-.93,2.67-2.65,1.13-1.47,1.92-2.62,2.37-3.44,.25-.46,.43-1.4,.53-2.83,.1-1.28,.1-2.09,.02-2.43-.09-.4-.53-.79-1.32-1.17-.87-.42-1.63-.48-2.28-.17l-.34,.21c-1.57,.98-2.47,1.67-2.69,2.06-.16,.3-.28,.94-.35,1.93-.07,.93-.06,1.53,.01,1.8,.1,.32,.42,.59,.98,.83,.53,.22,.96,.3,1.28,.22,.36-.08,.67-.28,.95-.59,.33-.38,.48-.83,.45-1.35l-.04-.47c0-.19,.05-.3,.14-.32,.09-.02,.16,.05,.22,.21l.11,.32c.06,.09,.22,.11,.47,.06,.3-.05,.62-.2,.96-.45l.36-.23c.09-.02,.06,.12-.08,.43-.12,.25-.33,.42-.64,.53l-1.08,.05c0,.69-.2,1.25-.56,1.67-.27,.31-.58,.51-.94,.59-.38,.09-.9,.02-1.57-.22-.71-.25-1.16-.56-1.36-.93-.3,.05-.63,.06-.98,.02-.26,.15-.53,.37-.82,.67-.3,.31-.54,.61-.71,.91-.26,.44-.43,.89-.49,1.34-.06,.43-.03,.78,.1,1.06,.13,.27,.15,.41,.08,.45-.07,.03-.2-.07-.38-.31-.18-.24-.24-.63-.19-1.19,.06-.57,.23-1.1,.51-1.59,.19-.33,.42-.62,.69-.88,.25-.24,.51-.42,.76-.53-.18-.05-.35-.12-.51-.23-.25-.16-.42-.37-.51-.62-.11,.3-.31,.58-.6,.84-.3,.27-.64,.48-1.04,.62-.35,.13-.7,.2-1.06,.23-.56,.04-1.05-.05-1.49-.28-.36-.18-.64-.4-.86-.64-.26-.29-.45-.66-.58-1.1-.12-.43-.13-.66-.02-.69,.1-.03,.21,.16,.32,.56,.07,.25,.21,.51,.42,.77,.23,.29,.48,.5,.74,.64,.38,.2,.84,.28,1.36,.24,.35-.03,.68-.1,.99-.21,.43-.16,.78-.37,1.06-.63,.29-.28,.45-.56,.46-.84,.02-.34-.03-.67-.15-1-.12-.33-.27-.53-.45-.59-.3-.1-.77-.44-1.41-1.03-.59-.54-.95-.81-1.07-.81-.78,0-1.48,.14-2.11,.43-.28,.13-.52,.32-.72,.57-.32,.39-.58,.94-.77,1.65-.11,.42-.03,.88,.26,1.36,.17,.28,.48,.68,.95,1.18l.45,.51c.13,.17,.21,.31,.25,.43v.04s0,.03,0,.03c-.06,.37,.16,.82,.68,1.36,.38,.39,.78,.72,1.19,.97,.8,.49,1.16,.8,1.09,.92-.03,.04-.12,.02-.28-.06l-.58-.33c-.13,.04-.6,.41-1.41,1.13-.79,.7-1.31,1.2-1.56,1.5-.17,.2-.43,.89-.75,2.07-.33,1.17-.46,1.84-.4,2.01,.05,.12,.18,.16,.4,.12l.51-.02c.14,.07,.02,.15-.36,.24-.38,.09-.7,.1-.96,.01-.13,.05-.29,.07-.49,.07-.22-.01-.4-.06-.55-.14-.3-.17-.61-.5-.95-.98-.33-.49-.59-1.01-.77-1.55-.11-.34-.38-.56-.81-.66-.43-.11-1.1-.11-2.01-.01h-.36s.11-.11,.32-.22c.33-.18,.86-.26,1.59-.24,.89,.03,1.41,.29,1.58,.8,.18,.54,.42,1.06,.72,1.55,.33,.54,.62,.87,.88,.97,.29,.11,.54,.12,.76,0,.11-.61,.28-1.33,.51-2.17,.31-1.17,.57-1.88,.79-2.13,.28-.32,1.28-1.17,3.02-2.55-.61-.29-1.13-.67-1.55-1.16-.44-.51-.64-.98-.61-1.41l-.2-.35c-.15-.24-.28-.42-.41-.56l-.94-1.05c-.34-.45-.53-.87-.55-1.28-.03-.55,.19-1.2,.65-1.93,.43-.68,.82-1.08,1.17-1.22-.19-.72-.28-1.31-.28-1.76,0-.32,.13-.69,.4-1.1,.23-.36,.79-.9,1.69-1.63,.94-.76,1.57-1.17,1.89-1.21,.3-.04,.68-.05,1.13-.03,.64,.03,1.07,.14,1.28,.32l.46-.18c.43-.06,1.01,.03,1.75,.27,.99,.33,1.52,.76,1.58,1.29h.2l.72,.03c.35,.05,.67,.15,.98,.31,.49,.26,.85,.49,1.08,.69,.33,.29,.51,.6,.53,.94,.43,.11,.89,.33,1.39,.65,.6,.38,.95,.76,1.03,1.12"/><path class="cls-4" d="M26.37,22.26l-1.73-.22c-.85-.15-1.49-.22-1.93-.22-.25,0-.48,.15-.69,.44-.23,.32-.38,.75-.47,1.29,.12,.25,.62,.93,1.49,2.04,.95,1.19,1.59,1.91,1.92,2.14,.71,.5,1.36,.79,1.95,.86h.08c1.55,.22,2.89,.35,4.01,.41,1.04,.05,1.72,.04,2.05-.04,.91-.24,1.93-.6,3.09-1.08,1.52-.63,2.44-1.18,2.78-1.65,.17-.33,.17-.7,.01-1.12-.21-.55-.65-1.13-1.33-1.73-.57-.51-1.12-.88-1.64-1.12-.31,.21-.58,.32-.8,.32-.23,0-.94-.3-2.11-.91-1.17-.61-2.01-.91-2.51-.91-.22,0-.84,.25-1.87,.75-1.03,.5-1.8,.75-2.31,.75m10.5-10.02c-.06,.02-.15-.1-.26-.35l-.49-1.06c-.22-.46-.36-.72-.41-.77-.32-.3-1.12-.49-2.39-.58-1.17-.07-1.92-.04-2.22,.1-.08,.04-.28,.22-.59,.55l-1.01,1.07c-1.02,1.04-1.86,1.67-2.5,1.89-.32,.11-.47,.14-.45,.1,.01-.04,.18-.13,.5-.29,.39-.19,.77-.45,1.14-.78,.39-.36,1.06-1.05,1.99-2.08l-1.97-.08c-.83,.01-1.38,.09-1.66,.23-.32,.15-.81,.56-1.48,1.23-.53,.52-.96,.98-1.29,1.39,.24,.15,.55,.32,.92,.51,.44,.22,.43,.27-.04,.16-.39-.1-.79-.25-1.21-.45l-.37-.08c-.25-.01-.43,.06-.56,.23-.5,.55-.93,1.05-1.29,1.49-.69,.87-1.01,1.48-.95,1.84,.04,.23,.16,.72,.36,1.46,.16,.6,.24,.99,.24,1.15,0,.3-.19,.81-.57,1.53s-.57,1.21-.57,1.47c0,.33,.19,.86,.58,1.59,.38,.71,.65,1.08,.81,1.1,.24,.04,.65,.18,1.22,.41l-.5-.67c-.17-.25-.29-.45-.36-.6,0,.18-.04,.28-.12,.28-.06,0-.08-.16-.05-.49,.07-.74,.26-1.31,.55-1.71,.28-.39,.64-.59,1.08-.59,.21,0,.75,.09,1.64,.26,.89,.17,1.51,.25,1.87,.25,.38,0,1.1-.26,2.17-.77,1.07-.52,1.71-.78,1.91-.78,.48,0,1.32,.29,2.51,.86,1.19,.57,1.86,.85,2.01,.85,.28,0,.55-.08,.82-.27l.88-.67c.14-.1,.22-.11,.26-.05,.03,.05,0,.13-.1,.25l-.73,.73c.58,.3,1.17,.72,1.78,1.26,.73,.65,1.2,1.27,1.41,1.84,.1,.26,.08,.51-.03,.77,.31-.03,.6-.22,.88-.57,.33-.42,.6-1.01,.8-1.77l.32,.11c-.13,.79-.42,1.41-.86,1.87-.37,.39-.77,.59-1.19,.6-.32,.58-1.35,1.26-3.07,2.06-1.31,.61-2.3,1-2.97,1.17l-3.51-.12-2.83-.3c-.55-.08-1.27-.42-2.15-1.03-.63-.43-1.38-1.26-2.26-2.48-.11-.05-.34-.12-.67-.22l-.82-.2c-.26-.04-.59-.45-1-1.22-.39-.75-.59-1.31-.59-1.68,0-.42,.2-1.02,.6-1.79,.39-.77,.59-1.21,.59-1.32,0-.22-.11-.63-.33-1.21-.22-.6-.35-1.05-.36-1.35-.02-.43,.25-1.07,.82-1.89,.46-.67,.92-1.22,1.38-1.66,.25-.24,.47-.37,.66-.39,.16-.02,.43,.03,.81,.14,.34-.48,.8-1.02,1.39-1.65,.64-.68,1.1-1.08,1.39-1.22,.37-.18,1.02-.26,1.95-.23,.75,.03,1.4,.1,1.95,.22l.23-.26c.14-.13,.28-.23,.44-.3,.34-.16,1.12-.2,2.35-.13,1.36,.07,2.24,.29,2.63,.67,.09,.09,.23,.34,.43,.75l.37,.8,2,1.28c.34,.22,.6,.55,.77,.99,.09,.23,.16,.5,.21,.8l.97,.6c.2,.12,.44,.52,.71,1.19,.3,.76,.52,1.6,.67,2.54l-.36-.17c-.08-.5-.29-1.15-.62-1.95-.32-.76-.56-1.2-.71-1.32l-.3-.22c-.28-.18-.63-.36-1.04-.55-.48-.21-.68-.35-.6-.42,.08-.06,.35-.03,.81,.12,0-.19-.06-.4-.17-.62-.17-.32-.43-.6-.77-.82-.32-.2-.62-.41-.91-.62l-.51-.37c.07,.26,.08,.4,.02,.42"/><path class="cls-4" d="M25.22,26.89c0-.11,.05-.23,.14-.34,.08-.11,.13-.15,.16-.12,.03,.03,0,.12-.08,.28-.06,.13-.06,.29,.01,.47,.09,.23,.28,.44,.56,.63,.11,.08,.15,.13,.13,.16-.02,.03-.09,.02-.21-.03-.19-.09-.35-.23-.5-.44-.15-.21-.22-.42-.22-.6"/><path class="cls-4" d="M26.41,26.14c-.3,.03-.45,.03-.45,0,0-.02,.13-.07,.42-.13,.75-.17,1.77-.17,3.09,0,1.2,.16,2,.36,2.4,.6,.19,.11,.28,.18,.26,.19l-.31-.08c-.79-.27-1.72-.45-2.8-.56-.99-.1-1.86-.11-2.61-.03"/><path class="cls-4" d="M33.05,27.7c-.03-.1-.03-.17,0-.2s.07,.02,.12,.16c.09,.25,.04,.47-.15,.68-.18,.19-.42,.3-.73,.34l-.24-.02s.04-.07,.23-.11c.29-.06,.51-.18,.65-.36,.13-.16,.17-.33,.12-.5"/><path class="cls-4" d="M22.66,14.08c-.21-.05-.28-.1-.23-.15,.04-.04,.13-.07,.28-.09,.13-.02,.41,.09,.85,.33,.48,.26,.79,.51,.93,.74,.14,.25,.2,.37,.16,.38l-.32-.24c-.18-.16-.44-.34-.78-.55-.37-.22-.67-.36-.89-.42"/><path class="cls-4" d="M29.85,12.3c1.11-.54,1.93-.82,2.45-.84l.33,.04s-.1,.07-.27,.1c-.67,.12-1.53,.45-2.58,.98-.9,.45-1.6,.87-2.11,1.26-.37,.28-.53,.37-.49,.26,.04-.1,.16-.23,.34-.4,.48-.42,1.26-.89,2.32-1.41"/><path class="cls-4" d="M33.46,11.75c.43,.39,.66,.78,.71,1.17,.02,.2,.02,.31-.02,.33-.04,.02-.09-.08-.16-.29-.08-.25-.18-.48-.3-.67l-.34-.45c-.09-.11-.12-.17-.08-.18,.04,0,.1,.02,.18,.1"/><path class="cls-4" d="M28.9,17.87l1.4-.07,1.79,.08,1.04,.16h.15l.07-.1c.12-.34,.18-.77,.18-1.28,0-.56-.07-1.07-.21-1.53-.15-.52-.36-.86-.62-1.04-.62,.23-1.77,1.05-3.46,2.46l-.65,.53c.11,.33,.22,.59,.31,.78m3.66-4c.27-.11,.5-.19,.69-.23h.29c.07,.05-.12,.17-.56,.35,.48,.28,.78,.88,.9,1.79,.11,.85,.03,1.58-.23,2.18-.08,.19-.16,.31-.23,.36l-.4,.03-.84-.12-3.04-.14c-.2,.01-.35,0-.43-.06-.05-.04-.1-.11-.16-.23l-.25-.58c-.55,.21-.93-.03-1.14-.71-.13-.44-.18-.96-.14-1.56,.02-.3,.06-.42,.12-.37,.05,.05,.08,.19,.07,.39-.02,.43,.02,.83,.12,1.19,.11,.38,.24,.61,.42,.71,.14,.07,.29,.1,.46,.08,.13-.01,.23-.05,.32-.1l1.56-1.33c1-.84,1.83-1.39,2.48-1.66"/><path class="cls-4" d="M22.97,16.06c.8,.32,1.45,.68,1.96,1.08,.17,.14,.24,.22,.21,.24-.03,.01-.13-.02-.31-.1-.59-.3-1.14-.56-1.65-.77-.98-.43-1.61-.62-1.87-.56-.06,.01-.16,.07-.29,.17-.1,.08-.16,.11-.19,.09-.02-.02,0-.08,.03-.19,.05-.16,.19-.26,.39-.31,.32-.08,.9,.04,1.71,.36"/><path class="cls-4" d="M24.89,18.36l.23-.02s-.02,.11-.13,.18c-.25,.17-.63,.35-1.13,.52-.47,.16-.92,.27-1.36,.36-.06,.01-.14,0-.23-.07-.09-.05-.16-.13-.22-.21-.28-.4-.47-.99-.57-1.76-.08-.63-.08-1.14-.02-1.53l.42,.12c-.07,.46-.09,.97-.04,1.53,.05,.7,.21,1.22,.45,1.55,.05,.07,.13,.1,.21,.08,.95-.16,1.74-.41,2.39-.74"/><path class="cls-4" d="M24.19,16.72c.11,.43,.12,.85,.03,1.26-.08,.37-.19,.57-.32,.59-.17,.04-.3-.15-.4-.56-.11-.45-.13-1-.04-1.65l.73,.36"/><path class="cls-4" d="M30.4,15.48c.11,.81,.11,1.41,0,1.8-.07,.27-.18,.4-.32,.4-.16,0-.29-.17-.4-.51-.1-.3-.15-.62-.15-.95,0-.06,.14-.21,.43-.45,.29-.24,.44-.33,.45-.29"/><path class="cls-1" d="M29.99,15.96c.05,0,.1,.03,.14,.09,.05,.06,.07,.14,.08,.24l-.05,.24c-.04,.07-.08,.11-.14,.12-.06,0-.11-.03-.15-.1s-.06-.15-.07-.23c0-.08,.01-.16,.05-.23,.04-.07,.08-.11,.13-.12"/><path class="cls-1" d="M23.87,16.82c.06,0,.11,.03,.14,.09,.04,.05,.05,.13,.05,.23,0,.08-.02,.15-.05,.21-.03,.07-.08,.1-.14,.1-.05,0-.1-.03-.14-.09-.04-.06-.06-.14-.06-.22,0-.09,.02-.16,.05-.22,.03-.06,.08-.1,.13-.1"/></svg>