<?xml version="1.0" encoding="UTF-8"?><svg id="Capa_1" xmlns="http://www.w3.org/2000/svg" viewBox="0 0 116.32 54.69"><defs><style>.cls-1{fill:#fff;}.cls-2{fill:#b3ac8a;}.cls-3{fill:#dbd2a9;}.cls-4{fill:#0d131a;}</style></defs><path class="cls-3" d="M22.17,17.71c.52,.85,1,1.8,1.46,2.83,.2,.48,.28,1.17,.19,2.04l-.26,1.87c.67-.04,1.26,.54,1.8,1.74,.43,.91,.67,1.72,.72,2.44,.02,.31-.26,.87-.83,1.67-.7,.96-1.15,1.67-1.32,2.09-.28,.67-.87,1.26-1.8,1.76-.8,.44-1.65,.72-2.54,.83,.24,.5,.72,.85,1.41,1.06l2.28,.46c.78,.17,2.02,1.06,3.72,2.69,1.44,1.39,2.48,2.52,3.13,3.39,.41,.56,.74,1.15,.98,1.78l.54,1.69c.54-.3,.81-.8,.8-1.52l-.22-1.43c-.04-.24,.13-.61,.5-1.07l1.15-1.3c.65-.7,1.54-1.15,2.69-1.33l3.7,7.39c-.3,.41-1.46,1.13-3.52,2.13l-3.69,1.76c-.33,.19-.59,.5-.74,.94-.15,.41-.3,.65-.48,.7-.46,.15-1.02,.17-1.69,.04-.69-.13-1.33-.39-1.93-.76-.44-.3-1.06-.43-1.83-.43l-3.13-.22c-2.85-.96-5.65-2.83-8.39-5.59-.85-.87-1.65-1.76-2.39-2.7l-.85-1.15c-.06-.15-.17-.3-.31-.44-.3-.3-.67-.46-1.13-.48-.52-.04-1.54-.67-3.09-1.87-1.48-1.17-2.72-2.3-3.7-3.39-.8-.89-1.41-2.19-1.87-3.95l-.87-3.93c-.24-1-.28-1.83-.09-2.48,.15-.56,.54-1.22,1.15-2,.54-.67,1.07-1.15,1.59-1.43,.41-.22,.94-.41,1.63-.52-.13-.39-.19-.7-.15-.96,.07-.48,.46-.96,1.2-1.44,.8-.52,1.59-.87,2.41-1.04l1.72,.06c.04-.26,.24-.52,.63-.81s.85-.52,1.39-.7c.52-.19,1.19-.28,2-.28s1.41,.06,1.87,.2c.09-.22,.67-.37,1.69-.43l2.43,.06c.54,.06,1.2,.74,2,2.07"/><path class="cls-2" d="M19.19,26.6c-.59-.59-1.02-.72-1.24-.39l-.91,1.85c-.26,.69-.24,1.32,0,1.83,1.02,1.17,2.32,1.57,3.85,1.2,1.44-.33,2.44-1.09,2.96-2.28,.15-.33-.13-.5-.87-.5l-1.87-.07c-.41-.2-1.07-.76-1.98-1.65m2.89-5.69l1.06-.33,.5-.04c.2,.48,.28,1.17,.19,2.04l-.26,1.87c.67-.04,1.26,.54,1.8,1.74,.43,.91,.67,1.72,.72,2.44,.02,.31-.26,.87-.83,1.67-.7,.96-1.15,1.67-1.32,2.09-.28,.67-.87,1.26-1.8,1.76-.8,.44-1.65,.72-2.54,.83,.24,.5,.72,.85,1.41,1.06l2.28,.46c.78,.17,2.02,1.06,3.72,2.69,1.44,1.39,2.48,2.52,3.13,3.39,.41,.56,.74,1.15,.98,1.78l.54,1.69c.56-.3,.81-.83,.8-1.57,.13,.76,.5,1.15,1.09,1.2l1.56-.24-1.15,1.87c-.61,1.04-1.09,1.63-1.39,1.74h-.69c-.07-.13-.13-.48-.19-1.07-.04-.43-.57-.85-1.59-1.28-1.61-.67-2.5-1.06-2.69-1.17,.56-.54,.5-1.39-.13-2.52-.56-.98-1.43-2.02-2.65-3.11-1.17-1.04-2.28-1.82-3.32-2.3-1.11-.52-1.82-.54-2.09-.06-.41,.7-1.61,1.09-3.63,1.15l-2.07-.15c-.61-.13-.91-.3-.91-.52,0-2.74-.78-4.59-2.32-5.52-.69-.43-1.57-.63-2.65-.63,0-.2,.15-.46,.44-.8,.3-.31,.43-.59,.43-.8,0-.57-.31-1.2-.93-1.89-.63-.69-.94-1.19-.94-1.44,0-.2,.2-.35,.61-.44l1.37-.22c1.35-.26,2.09-.93,2.2-1.98,.74,.09,1.44-.06,2.13-.46,.69-.39,1.24-.98,1.69-1.78l1.63-.06c1.28-.11,2.46-.54,3.54-1.3,.43,.46,1.19,.56,2.28,.26"/><path class="cls-2" d="M40.29,46.73c-.37,.5-2.07,1.46-5.11,2.89,.93-1.24,1.2-2.93,.83-5.07,.54-.74,.69-1.57,.41-2.52-.3-.98-.94-1.63-1.93-1.93,.57-.39,1.26-.67,2.07-.8l3.7,7.39"/><path class="cls-2" d="M23.21,49.68c.83-.17,.96-.89,.39-2.13-.43-.91-.24-1.04,.59-.35,.54,.46,1.28,1.2,2.22,2.22l1.39,1.24c.76,.69,1.13,1.11,1.15,1.3l-.7-.39c-.44-.3-1.06-.43-1.83-.43l-3.13-.22c-1.19-.39-2.43-1-3.72-1.8,1.82,.5,3.04,.69,3.65,.54"/><path class="cls-3" d="M71.03,23.63c.67,.43,1.24,1.13,1.72,2.13,.24,.5,.41,.94,.52,1.35l1.63,1.19c.33,.26,.85,1.26,1.59,3.04,.74,1.78,1.19,3.15,1.32,4.06l-1.52,8.67c-.69,1.87-1.3,3.13-1.87,3.76-.48,.52-1.09,.8-1.87,.8-.41,.96-2.15,2.13-5.22,3.46-2.32,1.02-4.32,1.74-5.98,2.17-.81,.2-2.83,.17-6.08-.15l-5.45-.65c-1.13-.17-2.37-.72-3.74-1.67-.59-.43-1.39-1.24-2.35-2.44l-1.26-1.69c-1.69-.72-2.82-1.13-3.39-1.24-.39-.07-.89-.69-1.48-1.83-.5-.98-.93-2.04-1.26-3.13-.22-.72,.06-1.8,.85-3.2,.87-1.54,1.3-2.43,1.3-2.65s-.17-.91-.5-2.07c-.39-1.32-.61-2.2-.7-2.67-.15-.78,.39-1.94,1.59-3.5,.65-.83,1.5-1.83,2.59-3,.33-.39,.81-.54,1.43-.46,.31,.04,.59,.11,.83,.22l2-2.48c1.48-1.72,2.56-2.74,3.26-3.07s2.13-.44,4.33-.31l3.09,.26,.19-.26c.2-.22,.52-.43,.91-.59,.59-.28,2-.35,4.24-.22,2.43,.15,3.96,.54,4.63,1.15,.26,.24,.78,1.2,1.56,2.89l.98,.7c.78,.56,1.5,1.04,2.17,1.44"/><path class="cls-2" d="M56.44,18.5c-.46,.83-1.3,1.85-2.52,3.06-1.28,1.26-1.87,1.56-1.8,.93,.07-.69,.04-1.41-.11-2.19s-.39-1.48-.72-2.09l5.17,.3"/><path class="cls-2" d="M41.45,24.36c.33-.39,.78-.57,1.35-.54,.3,.02,.54,.09,.74,.19l1.3-1.52c1.19,.98,2.11,1.96,2.76,2.93,.69,1.04,.94,1.89,.74,2.54-.13,.46-.13,1.13-.02,2,0,.48-.39,.35-1.15-.35-1.8-1.7-3.98-3.13-6.58-4.26l.83-.98"/><path class="cls-2" d="M43.71,30.65c.44,.19,.67,.94,.69,2.32,0,1.39-.28,2.17-.87,2.33-.81,.22-1.91-.46-3.3-2.04-1.37-1.57-1.87-2.67-1.52-3.26,.31-.54,.93-.7,1.83-.5,.46,.09,1.52,.48,3.19,1.15"/><path class="cls-2" d="M62.86,22.3c.41-.44,.52-1.28,.31-2.48-.19-1.13-.48-1.91-.87-2.33,2.11,.19,3.46,.56,4.04,1.11,.26,.24,.78,1.2,1.56,2.89l.98,.7c.78,.56,1.5,1.04,2.17,1.44,.67,.43,1.24,1.13,1.72,2.13,.24,.5,.41,.94,.52,1.35l1.63,1.19c.33,.26,.85,1.26,1.59,3.04,.74,1.78,1.19,3.15,1.32,4.06l-1.52,8.67c-.69,1.87-1.3,3.13-1.87,3.76-.48,.52-1.09,.8-1.87,.8-.39,.93-2.02,2.04-4.87,3.33-2.33,1.07-4.3,1.8-5.89,2.19-1,.24-2.02,.33-3.06,.26l-3.57-.43c4.33-.28,6.39-1.04,6.2-2.26-.07-.39-.37-.81-.91-1.28-.39-.31-.72-.54-1-.67-.89-.39-1.61-.67-2.19-.81-.7-.2-1.48-.31-2.32-.35,1.76-.65,3.43-1.61,5.02-2.87,1.98-1.56,2.48-2.74,1.54-3.56-1.87-1.43-4.22-1.87-7.02-1.33-.69,.13-1.69,.39-3,.8-1.06,.31-1.78,.48-2.13,.48-.65,0-1.93-.15-3.87-.46-1.65-.26-2.69-.33-3.15-.22-.39,.09-.72,.35-.96,.72-.22,.35-.33,.7-.33,1.07,0,.17,.26,.83,.76,2.02,.5,1.15,.72,1.94,.67,2.41-1.69-.72-2.82-1.13-3.39-1.24-.24-.04-.54-.31-.91-.83-.02-.91,.24-1.93,.8-3.06,.61-1.26,1.39-2.13,2.32-2.61,.39-.2,.94-.3,1.67-.24l3.11,.52,2.02,.17,1.54-.06c.63-.13,1.54-.61,2.72-1.43,1.11-.76,2.15-1.2,3.11-1.32,1.19-.13,2.63,.19,4.3,.94,1.78,.8,3.11,1.2,3.98,1.2,.37,0,.85-.19,1.48-.54,.63-.37,1.2-.81,1.69-1.32,1.28-1.33,1.43-2.37,.44-3.09-.48-.35-.93-.98-1.35-1.91l-1.09-2.7c-.98-2.46-2.02-3.96-3.17-4.54-.78,.24-1.63,.63-2.57,1.19-.98,.57-2.19,1.41-3.59,2.48-.35,.26-.87,.72-1.56,1.39-.56,.54-.98,.89-1.28,1.04-.83,.31-1.43,.22-1.82-.3-.2-.54-.35-.81-.43-.87,.35,.07,1.5-.83,3.46-2.69,2.44-2.32,4.07-3.74,4.93-4.3,.74-.48,1.56-.74,2.44-.78,.78-.04,1.28-.2,1.56-.5"/><path class="cls-3" d="M115.76,10.45c.17,.69,.15,2.22-.04,4.61-.2,2.67-.54,4.45-1.04,5.33-1.09,2.04-2.3,3.95-3.61,5.74-2.19,2.96-4.26,4.93-6.22,5.87-.19,.28-.44,.83-.8,1.69l-1.02,2.48c-1.06,2.32-2.33,4.06-3.82,5.24l-4.83,3.91c-1.54,1.24-2.7,2-3.46,2.28-.54,.2-1.78,.76-3.76,1.67-1.69,.76-2.67,1.17-2.96,1.24-.41,.07-.93-.15-1.56-.67-.69-.56-1.06-1.15-1.11-1.8-.54-.93-1.32-1.76-2.37-2.48-1.15-.81-2.41-1.39-3.78-1.69-1.46-.31-2.43-.63-2.93-.93-.48-.28-.74-.69-.83-1.24-.07-.31-.15-.7-.2-1.17-.13-.93-.19-1.78-.15-2.52,.13-2.22,.8-3.41,1.98-3.56l3.63-.11c.85,.2,1.43,.74,1.72,1.67,.31,.96,.8,1.87,1.43,2.72s1.2,1.39,1.76,1.59c.44,.19,.89,.22,1.32,.13,.2-.06,.37-.11,.5-.2,.22-1.17,.48-2.37,.76-3.63,.59-2.52,1.09-4,1.48-4.45,.63-.72,2.56-2.37,5.76-4.91-.72-.46-1.43-1.02-2.11-1.67-1.39-1.28-2-2.37-1.85-3.24-.07-.26-.33-.65-.81-1.19l-1.39-1.54c-1.2-1.46-1.65-2.78-1.33-3.93,.44-1.61,.98-2.78,1.59-3.54,.44-.52,1.04-.93,1.78-1.19-.35-1.39-.56-2.39-.61-3.04-.09-.96,.04-1.72,.41-2.28,.41-.63,1.44-1.63,3.09-2.96,1.69-1.37,2.8-2.07,3.32-2.17,.72-.09,1.52-.09,2.37-.02,1.07,.09,1.72,.3,1.96,.61l1.56-.26c.76-.04,1.56,.09,2.43,.39,.94,.33,1.67,.74,2.2,1.22,.46,.41,.69,.8,.69,1.17h1.37c.67,.02,1.33,.22,2.02,.57,1.06,.56,1.78,1,2.2,1.33,.63,.52,.93,1.07,.89,1.67,.59,.07,1.39,.44,2.41,1.11,1.15,.74,1.8,1.44,1.94,2.09"/><path class="cls-2" d="M113.84,10.41c.39-.26,.81-.37,1.28-.3,.39,.06,.61,.17,.67,.33,.17,.69,.15,2.22-.04,4.61-.2,2.67-.54,4.45-1.04,5.33-1.09,2.04-2.3,3.95-3.61,5.74-2.19,2.96-4.26,4.93-6.22,5.87-.19,.28-.44,.83-.8,1.69l-1.02,2.48c-1.06,2.32-2.33,4.06-3.82,5.24l-4.83,3.91c-1.54,1.24-2.7,2-3.46,2.28-.54,.2-1.78,.76-3.76,1.67-1.69,.76-2.67,1.17-2.96,1.24-.33,.06-.76-.09-1.3-.46-.57-.39-.96-.85-1.2-1.39,.69,.24,1.24,.17,1.69-.24,.59-.56,1.15-.87,1.69-.94,1.37-.22,2.59-.52,3.65-.87,1.56-.52,2.54-1.13,2.94-1.8l2.15-2.3c1.13-1.19,1.93-2.13,2.37-2.82l1.8-3.07c.59-1.07,1.13-1.94,1.63-2.63l1.22-2.02c.31-.56,.69-.91,1.11-1.06,.7-.26,1.2-.96,1.48-2.07,.31-1.32-.06-2.48-1.09-3.46-1.06-1.02-2.24-1.63-3.56-1.83-1.07-.17-1.98-.07-2.76,.28-.87-1.13-1.85-1.82-2.93-2.07-1.17-.11-2.04-.3-2.61-.56-.74-.33-1.37-.81-1.91-1.48l-.57-.87c2.17,.72,4.06,.46,5.69-.8,.67-.52,1.17-1.13,1.52-1.85,.35-.7,.5-1.39,.43-2.04-.28-.07-.89-.57-1.82-1.48l-1.87-1.83c-.3-.26-1.11-.3-2.48-.09l-2,.09c-.15-.43-.3-1.13-.46-2.07-.19-1.06-.11-1.32,.19-.76,.31,.59,1.11,.96,2.35,1.07,1.19,.09,2-.06,2.43-.48,.57,.72,1.37,1.3,2.41,1.72,1.09,.44,2.11,.56,3.06,.31,.81,1,1.69,1.65,2.65,1.93,.78,.22,1.69,.24,2.72,.02,.06,1.04,.91,1.85,2.59,2.48,.69,.24,1.32,.35,1.87,.33,.59-.04,.96-.22,1.11-.57,.24-.61,1.13-1.44,2.67-2.52,.8-.56,1.76-1.19,2.89-1.87"/><path class="cls-2" d="M83.5,40.62c.85,.09,1.48,.09,1.87,0,.22-.06,.3,.02,.22,.22s-.24,.43-.52,.69c-.76,.7-1.65,1.09-2.65,1.13l-3.54-.19c-1.39-.31-2.69-1.04-3.87-2.13,1.26-.63,1.37-1.78,.35-3.46-.54-.8-.87-1.35-1.02-1.65-.24-.5-.17-.78,.2-.87,2.22-.5,3.61,.04,4.13,1.59,.31,.96,.8,1.87,1.43,2.72s1.2,1.39,1.76,1.59c.31,.13,.87,.22,1.63,.3"/><path class="cls-2" d="M93.13,28.21c1.04,.5,1.8,.78,2.28,.81,.3,.02,.44,.11,.48,.26,.02,.13-.06,.37-.26,.7l-2.32,3.54c-.93,1.06-2.22,2.39-3.89,4.02s-2.28,2.13-1.82,1.54c2.32-3.06,3.11-5.41,2.37-7.08-.22-.52-.59-.94-1.11-1.28l-.69-.33,3.5-2.93,1.43,.74"/><path class="cls-1" d="M52.7,31.71l3.28-2.65c2.15-1.72,3.69-2.74,4.63-3.06,.87,.5,1.43,1.69,1.67,3.61,.22,1.83,.09,3.24-.43,4.24l-4.15-.31c-2.3-.17-3.72-.17-4.3,0-.17-.31-.33-.72-.5-1.19l-.2-.63"/><path class="cls-1" d="M46.42,34.15c-.46,.39-1.44,.8-2.96,1.24l-2.15,.54c-.37-.52-.69-1.19-.96-1.96-.56-1.57-.59-3-.15-4.3,.56-.15,1.61,.15,3.17,.87,1.19,.56,2.17,1.09,2.94,1.63,.09,.2,.17,.48,.19,.85,.02,.39,0,.76-.06,1.11"/><path class="cls-4" d="M17.8,18.39c-1.02-1.24-1.63-1.93-1.83-2.07-.26-.17-.8-.26-1.59-.28-.83,0-1.52,.06-2.04,.22-.41,.15-.8,.33-1.15,.57-.3,.2-.5,.41-.63,.59,.83,.43,1.69,.96,2.57,1.63,1.13,.83,1.8,1.54,2,2.07,.19,.48,.39,1.22,.63,2.26,.28,1.19,.46,2.15,.54,2.89,.09-.41,.22-.76,.35-1.06,.28-.65,.65-1.09,1.13-1.3,.39-.19,.85-.22,1.41-.11l.17-1.3,.09-1.72c0-.3-.54-1.11-1.63-2.44m-9.19-.56c-.78,.15-1.57,.5-2.41,1.07-.41,.28-.7,.59-.91,.98-.19,.35-.22,.61-.11,.81l1.15,.26c.41,.11,1.35,.72,2.8,1.83,1.43,1.09,2.24,1.8,2.44,2.13,.17,.28,.31,.89,.44,1.83,.13,.94,.17,1.8,.13,2.52l.81,.13,1.15-.09c.26-.07,.52-.3,.8-.69,.22-.31,.43-.7,.59-1.15,.11-.28,.06-1.22-.2-2.82-.24-1.57-.5-2.67-.74-3.32-.17-.44-.81-1.09-1.93-1.91-1-.74-1.87-1.26-2.59-1.59l-1.43-.04m14.69,6.91l-1.32,.09-2.13-.19c-.69-.22-1.22-.26-1.59-.09-.39,.15-.72,.54-.98,1.15-.35,.8-.46,1.63-.37,2.44,.13,1.04,.63,1.83,1.5,2.37,.76,.48,1.57,.65,2.46,.46,.67-.13,1.32-.43,1.96-.89,.5-.33,.8-.44,.87-.3,.07,.13-.07,.39-.44,.76-.69,.69-1.52,1.07-2.52,1.2-1.07,.15-2.06-.07-2.98-.67-1.09-.7-1.65-1.78-1.67-3.26-.22,.44-.46,.85-.74,1.2-.37,.46-.74,.74-1.07,.85l-1.07,.22c1.54,.52,2.39,1.13,2.52,1.82,.11,.46,.2,1.07,.3,1.87,.17,1.22,.15,2,0,2.32-.26,.5-.41,.09-.44-1.22l-.26-1.13-.35-1.37c-.06-.26-.35-.59-.87-.98-.61-.46-1.33-.83-2.17-1.09-.2,.46-.59,.83-1.15,1.11-.41,.2-1.02,.41-1.85,.61-.81,.2-1.61,.06-2.35-.44s-1.11-1.11-1.09-1.85c-.59,.06-1.15-.13-1.63-.56-.35-.31-.63-.69-.81-1.15-.13-.33-.2-.63-.19-.87,0-.24,.11-.2,.28,.07,.3,.5,.63,.91,1,1.26,.56,.52,1.06,.72,1.52,.59l.15-.26c.11-.19,.24-.3,.39-.33,.11-.04,.15,0,.09,.15-.11,.28-.17,.56-.15,.85,.06,.7,.43,1.26,1.09,1.63,.57,.33,1.09,.44,1.52,.31,1.63-.44,2.52-.96,2.67-1.56,.13-.5,.15-1.33,.02-2.54-.11-1.15-.26-1.85-.43-2.13s-.93-.93-2.28-1.96c-1.39-1.06-2.24-1.63-2.59-1.74l-.67-.22-.52-.06c-1.09,.3-2,.83-2.74,1.63-.87,.93-1.32,2.04-1.37,3.37,0,.2,.15,1.04,.44,2.48,.3,1.46,.56,2.57,.8,3.33,.41,1.28,.93,2.26,1.56,2.96,.81,.91,1.82,1.85,2.98,2.83,1.19,.98,2.13,1.69,2.85,2.07l1.09,.43c.61,.28,1.06,.57,1.33,.91l1.15,1.33c.89,1,1.8,1.94,2.72,2.82,2.91,2.78,5.41,4.48,7.5,5.07,.52,.15,1.13,.24,1.83,.28h1.44c-1.24-.91-1.48-1.22-.72-.93,.69,.28,1.35,.61,1.98,1.04,.69,.44,1.33,.78,1.89,.98,.69,.28,1.2,.35,1.56,.22l.39-.19c.2-.13,.33-.26,.37-.39,.09-.28,.19-.48,.26-.61,.17-.24,.37-.44,.65-.59l1.48-.74,3.26-1.56c1.35-.69,2.15-1.19,2.37-1.48l.5,.35c-.3,.41-.85,.85-1.67,1.32-.93,.52-2.32,1.13-4.15,1.83l-1.48,.83c-.09,.06-.26,.3-.46,.72s-.48,.76-.83,.96c-.43,.28-1.04,.31-1.82,.15-.69-.17-1.39-.46-2.06-.91-.28-.17-.56-.28-.87-.33l-1.04-.06h-1.24l-1.72-.22c-1.76-.46-3.61-1.43-5.56-2.85-2.37-1.78-4.46-4.02-6.28-6.72-.15-.24-.48-.46-.98-.67-.59-.2-.98-.37-1.2-.48-.89-.44-1.98-1.19-3.3-2.22-1.3-1.02-2.32-1.94-3.06-2.76-.67-.74-1.2-1.85-1.61-3.33-.13-.48-.39-1.7-.78-3.65C.17,27,0,26.13,0,25.89c-.04-1.22,.54-2.41,1.7-3.52,.93-.91,1.78-1.44,2.57-1.61-.07-.2,0-.52,.19-.94,.28-.65,.78-1.19,1.54-1.63,1.39-.8,2.69-1.13,3.95-.94,.33-.67,.93-1.13,1.76-1.41,.65-.2,1.41-.35,2.26-.43,.98-.07,1.67,0,2.04,.24,.37-.28,1.2-.41,2.48-.41l1.85,.09c.61,.07,1.39,.83,2.28,2.28,.56,.89,1.09,1.89,1.57,3,.15,.35,.22,.8,.22,1.3,0,.24-.07,.67-.24,1.28l-.26,.98c.59,.15,1.19,.78,1.76,1.87,.57,1.09,.8,2,.7,2.76-.06,.44-.17,.81-.35,1.07l-.67,.85-.67,.87c-.22,.31-.39,.61-.5,.89-.28,.69-.87,1.28-1.82,1.8-.78,.41-1.67,.7-2.65,.89,.54,.33,1.2,.59,2,.8l1.87,.35c.81,.17,2.07,1.09,3.78,2.74,1.33,1.32,2.33,2.41,2.96,3.3,.37,.52,.69,1.06,.91,1.61,.13,.31,.3,.81,.5,1.48v.04c.22-.24,.33-.56,.33-.96l-.09-.63c-.07-.33-.11-.61-.11-.83,0-.3,.15-.67,.44-1.15,.3-.46,.69-.94,1.19-1.44,.44-.46,.96-.81,1.56-1.07,.46-.2,1.06-.35,1.76-.48l-.22,.7c-.52,.09-1,.24-1.48,.48-.41,.2-.76,.46-1.04,.74-1.09,1.15-1.61,1.85-1.59,2.13l.13,1.33c0,.93-.17,1.48-.54,1.69,.35,.37,.41,.59,.19,.65-.2,.06-.41,0-.65-.15-.15-.09-.3-.37-.43-.83l-.19-.67-.39-1.09c-.15-.28-.41-.67-.78-1.19-.61-.83-1.63-1.94-3.07-3.32-1.69-1.59-2.89-2.48-3.59-2.63l-.93-.17c-.74-.13-1.33-.28-1.76-.44-.56-.2-.98-.48-1.28-.83-.7,.37-1.07,.52-1.13,.46-.04-.02,.07-.2,.3-.54,.17-.2,.39-.37,.7-.5l.43-.11c.87-.11,1.69-.39,2.44-.8,.85-.46,1.39-1,1.63-1.59,.19-.48,.59-1.13,1.24-1.98l.63-.93c.2-.31,.3-.56,.28-.7-.06-.63-.33-1.41-.83-2.33-.57-1.07-1.13-1.59-1.65-1.56m.24-2.69c.02-.59-.04-1.06-.19-1.39-.54-1.24-1.11-2.3-1.69-3.19-.65-.98-1.15-1.5-1.54-1.54l-2-.07-1.56,.17c.67,.63,1.35,1.43,2.07,2.35,.94,1.19,1.41,2.02,1.41,2.44l-.07,1.59c-.06,.76-.13,1.28-.2,1.56l.28,.09,2.69,.09,.56-.04,.07-.57,.19-1.5"/><path class="cls-4" d="M18.95,37.19c-.09-.28-.02-.33,.22-.19,.26,.17,.43,.35,.48,.54,.04,.17,.44,.7,1.2,1.65l2,2.44c.56,.69,.83,1.07,.81,1.15,0,.06-.28-.09-.8-.43-.44-.3-1.19-1.19-2.24-2.63-.98-1.33-1.54-2.19-1.69-2.54"/><path class="cls-4" d="M14.67,39.82c-.24-.17-.33-.3-.26-.43h.56c.31,.09,1.19,.74,2.61,1.87,1.43,1.15,2.3,1.91,2.59,2.3,.31,.41,.46,.63,.44,.67s-.26-.09-.7-.43c-3.17-2.44-4.89-3.78-5.22-3.98"/><path class="cls-4" d="M25.52,45.04c-.2-.24-.3-.41-.26-.5,.04-.09,.2-.04,.48,.19,.28,.2,.72,.39,1.33,.54l1.39,.26c.33,.04,.48,.09,.46,.15,0,.06-.19,.15-.5,.26-.3,.09-.81,.04-1.52-.19s-1.17-.46-1.37-.7"/><path class="cls-4" d="M34.04,45.55l1.07-.54c.46-.26,.78-.48,.94-.65,.22-.22,.35-.3,.35-.22l-.15,.35c-.13,.2-.43,.44-.85,.76-.52,.37-.94,.59-1.3,.67-.37,.07-.54,.06-.5-.06,.04-.09,.17-.2,.43-.3"/><path class="cls-4" d="M73.77,38.14c.26,.59,.65,1.2,1.15,1.83,.57,.7,1.15,1.2,1.7,1.48,.43,.22,.65,.37,.67,.44,0,.07-.24,0-.76-.19-.7-.26-1.43-.83-2.15-1.72-.61-.74-.98-1.32-1.07-1.72-.09-.35-.07-.54,.06-.57,.11-.04,.24,.09,.39,.43"/><path class="cls-4" d="M95.13,29.82c.06-.22,.17-.26,.35-.09,.17,.17,.24,.39,.24,.7-.02,.39-.98,1.69-2.85,3.91-2,2.37-3.61,4-4.83,4.89-.26,.2-.41,.22-.46,.09s0-.28,.19-.44c1.32-1.13,2.91-2.91,4.8-5.32,1.67-2.15,2.52-3.37,2.59-3.7"/><path class="cls-4" d="M97.3,37.86c.09-.5,.5-1.37,1.17-2.57,.61-1.11,1.07-1.83,1.37-2.17,.26-.3,.5-.37,.74-.26,.24,.09,.22,.3-.06,.61-.35,.39-.81,1.06-1.39,1.98-.69,1.07-1.15,1.93-1.37,2.57-.24,.67-.41,.94-.5,.87-.09-.09-.07-.43,.06-1"/><path class="cls-4" d="M97.48,1.07c-.65-.26-1.87-.26-3.65-.04-.46,.06-1.5,.78-3.13,2.13-1.63,1.35-2.67,2.35-3.07,3-.3,.48-.43,1.07-.39,1.8,.04,.5,.22,1.37,.52,2.57,2.02-.5,3.32-.56,3.91-.17-.19-.76-.28-1.56-.3-2.37-.02-.89,.06-1.61,.24-2.15,.24-.67,1.13-1.57,2.67-2.72,1.28-.96,2.37-1.63,3.22-2.04m7.13,2.41c-.07-.28-.31-.56-.72-.85-.46-.33-1.11-.65-1.93-.94-.74-.26-1.41-.41-2-.46l-1.37,.09c-.96,.57-1.93,1.19-2.93,1.87-1.98,1.37-3.07,2.32-3.28,2.85-.22,.67-.31,1.54-.26,2.61,.06,1.04,.2,1.85,.46,2.44h0l1.61,1.43c.67,.54,1.13,.83,1.39,.91,.19,.04,.41,.17,.65,.37,.26,.2,.44,.39,.56,.59-.02-1.46,.02-2.8,.15-4.02,.15-1.54,.41-2.57,.74-3.15,.37-.61,1.43-1.35,3.19-2.24,1.59-.81,2.83-1.33,3.74-1.52m5.54,2.17c-.39-.3-1.04-.69-1.94-1.15-1.17-.59-2.65-.57-4.48,.09-1,.39-2.02,.89-3.04,1.52-1.17,.7-1.93,1.33-2.24,1.87-.46,.76-.8,2.13-.96,4.07-.17,1.89-.11,3.39,.15,4.46,.24,1.02,.76,1.78,1.57,2.26,.31,.2,.7,.28,1.17,.26l1.32-.2c-.09-.87-.07-2.11,.07-3.74,.17-1.8,.41-2.98,.72-3.56,.26-.48,1.19-1.22,2.74-2.24,1-.65,2.11-1.32,3.32-2,.3-.17,.74-.3,1.28-.39l1.28-.06c-.09-.41-.41-.81-.94-1.24m6.06,4.59c.06,.26,.09,.85,.09,1.8,0,1.57-.07,3.11-.24,4.59-.2,1.89-.5,3.2-.89,3.91-1.54,2.87-3.24,5.43-5.11,7.65-1.98,2.33-3.61,3.69-4.95,4.02-.2,.3-.5,.94-.89,1.94l-1.33,3.54c-.69,1.44-1.57,2.61-2.72,3.5l-3.7,3.06c-2.59,2.07-4.17,3.22-4.74,3.45-.07,.02-1.37,.59-3.93,1.69-2.26,.98-3.5,1.48-3.7,1.52-.59,.11-1.15-.09-1.72-.61-.59-.54-.94-1.24-1.07-2.13-.5-.83-1.28-1.61-2.35-2.35-1.26-.87-2.59-1.41-4-1.63-1.09-.19-1.91-.46-2.43-.83-.5-.37-.85-.93-1.04-1.67-.09-.33-.09-.54-.02-.65,.07-.09,.19,.09,.35,.59,.19,.52,.52,.91,1,1.15,.41,.2,1.32,.46,2.72,.78,2.93,.67,4.93,1.93,6.04,3.82l.17-.26c.13-.17,.22-.2,.3-.15s.07,.24,0,.54c-.07,.35-.09,.59-.06,.72,.2,.54,.54,1.02,.98,1.43,.46,.43,.87,.59,1.24,.54l3.17-1.35,3.48-1.52c.54-.2,2.06-1.3,4.59-3.26l3.63-2.89c1.02-.8,1.89-1.8,2.61-2.98,.59-.98,1.26-2.37,1.98-4.2l.63-1.74-.91-.33c-.59-.24-.8-.39-.61-.46,.15-.07,.5-.06,1.04,0l1.32,.09c.85-.09,2.5-1.72,4.95-4.91,2.09-2.72,3.56-4.85,4.39-6.37,.46-.85,.8-2.59,.98-5.24,.19-2.37,.19-3.87,.04-4.5-.17-.74-.98-1.46-2.44-2.17-1.61-.78-3.02-.89-4.22-.31l-.63,.39c-2.91,1.82-4.57,3.09-4.98,3.82-.3,.56-.52,1.74-.65,3.57-.13,1.72-.11,2.83,.02,3.33,.19,.59,.78,1.09,1.82,1.54,.98,.41,1.78,.56,2.37,.41,.67-.15,1.24-.52,1.76-1.09,.61-.7,.89-1.54,.83-2.5l-.07-.87c0-.35,.09-.56,.26-.59,.17-.04,.3,.09,.41,.39l.2,.59c.11,.17,.41,.2,.87,.11,.56-.09,1.15-.37,1.78-.83l.67-.43c.17-.04,.11,.22-.15,.8-.22,.46-.61,.78-1.19,.98l-2,.09c0,1.28-.37,2.32-1.04,3.09-.5,.57-1.07,.94-1.74,1.09-.7,.17-1.67,.04-2.91-.41-1.32-.46-2.15-1.04-2.52-1.72-.56,.09-1.17,.11-1.82,.04-.48,.28-.98,.69-1.52,1.24-.56,.57-1,1.13-1.32,1.69-.48,.81-.8,1.65-.91,2.48-.11,.8-.06,1.44,.19,1.96,.24,.5,.28,.76,.15,.83-.13,.06-.37-.13-.7-.57-.33-.44-.44-1.17-.35-2.2,.11-1.06,.43-2.04,.94-2.94,.35-.61,.78-1.15,1.28-1.63,.46-.44,.94-.78,1.41-.98-.33-.09-.65-.22-.94-.43-.46-.3-.78-.69-.94-1.15-.2,.56-.57,1.07-1.11,1.56-.56,.5-1.19,.89-1.93,1.15-.65,.24-1.3,.37-1.96,.43-1.04,.07-1.94-.09-2.76-.52-.67-.33-1.19-.74-1.59-1.19-.48-.54-.83-1.22-1.07-2.04-.22-.8-.24-1.22-.04-1.28,.19-.06,.39,.3,.59,1.04,.13,.46,.39,.94,.78,1.43,.43,.54,.89,.93,1.37,1.19,.7,.37,1.56,.52,2.52,.44,.65-.06,1.26-.19,1.83-.39,.8-.3,1.44-.69,1.96-1.17,.54-.52,.83-1.04,.85-1.56,.04-.63-.06-1.24-.28-1.85-.22-.61-.5-.98-.83-1.09-.56-.19-1.43-.81-2.61-1.91-1.09-1-1.76-1.5-1.98-1.5-1.44,0-2.74,.26-3.91,.8-.52,.24-.96,.59-1.33,1.06-.59,.72-1.07,1.74-1.43,3.06-.2,.78-.06,1.63,.48,2.52,.31,.52,.89,1.26,1.76,2.19l.83,.94c.24,.31,.39,.57,.46,.8v.13c-.11,.69,.3,1.52,1.26,2.52,.7,.72,1.44,1.33,2.2,1.8,1.48,.91,2.15,1.48,2.02,1.7-.06,.07-.22,.04-.52-.11l-1.07-.61c-.24,.07-1.11,.76-2.61,2.09-1.46,1.3-2.43,2.22-2.89,2.78-.31,.37-.8,1.65-1.39,3.83-.61,2.17-.85,3.41-.74,3.72,.09,.22,.33,.3,.74,.22l.94-.04c.26,.13,.04,.28-.67,.44s-1.3,.19-1.78,.02c-.24,.09-.54,.13-.91,.13-.41-.02-.74-.11-1.02-.26-.56-.31-1.13-.93-1.76-1.82-.61-.91-1.09-1.87-1.43-2.87-.2-.63-.7-1.04-1.5-1.22-.8-.2-2.04-.2-3.72-.02h-.67s.2-.2,.59-.41c.61-.33,1.59-.48,2.94-.44,1.65,.06,2.61,.54,2.93,1.48,.33,1,.78,1.96,1.33,2.87,.61,1,1.15,1.61,1.63,1.8,.54,.2,1,.22,1.41,0,.2-1.13,.52-2.46,.94-4.02,.57-2.17,1.06-3.48,1.46-3.95,.52-.59,2.37-2.17,5.59-4.72-1.13-.54-2.09-1.24-2.87-2.15-.81-.94-1.19-1.82-1.13-2.61l-.37-.65c-.28-.44-.52-.78-.76-1.04l-1.74-1.94c-.63-.83-.98-1.61-1.02-2.37-.06-1.02,.35-2.22,1.2-3.57,.8-1.26,1.52-2,2.17-2.26-.35-1.33-.52-2.43-.52-3.26,0-.59,.24-1.28,.74-2.04,.43-.67,1.46-1.67,3.13-3.02,1.74-1.41,2.91-2.17,3.5-2.24C94.24,0,94.94-.02,95.78,.02c1.19,.06,1.98,.26,2.37,.59l.85-.33c.8-.11,1.87,.06,3.24,.5,1.83,.61,2.82,1.41,2.93,2.39h.37l1.33,.06c.65,.09,1.24,.28,1.82,.57,.91,.48,1.57,.91,2,1.28,.61,.54,.94,1.11,.98,1.74,.8,.2,1.65,.61,2.57,1.2,1.11,.7,1.76,1.41,1.91,2.07"/><path class="cls-4" d="M48.84,41.4l-3.2-.41c-1.57-.28-2.76-.41-3.57-.41-.46,0-.89,.28-1.28,.81-.43,.59-.7,1.39-.87,2.39,.22,.46,1.15,1.72,2.76,3.78,1.76,2.2,2.94,3.54,3.56,3.96,1.32,.93,2.52,1.46,3.61,1.59h.15c2.87,.41,5.35,.65,7.43,.76,1.93,.09,3.19,.07,3.8-.07,1.69-.44,3.57-1.11,5.72-2,2.82-1.17,4.52-2.19,5.15-3.06,.31-.61,.31-1.3,.02-2.07-.39-1.02-1.2-2.09-2.46-3.2-1.06-.94-2.07-1.63-3.04-2.07-.57,.39-1.07,.59-1.48,.59s-1.74-.56-3.91-1.69c-2.17-1.13-3.72-1.69-4.65-1.69-.41,0-1.56,.46-3.46,1.39s-3.33,1.39-4.28,1.39m19.45-18.56c-.11,.04-.28-.19-.48-.65l-.91-1.96c-.41-.85-.67-1.33-.76-1.43-.59-.56-2.07-.91-4.43-1.07-2.17-.13-3.56-.07-4.11,.19-.15,.07-.52,.41-1.09,1.02l-1.87,1.98c-1.89,1.93-3.45,3.09-4.63,3.5-.59,.2-.87,.26-.83,.19,.02-.07,.33-.24,.93-.54,.72-.35,1.43-.83,2.11-1.44,.72-.67,1.96-1.94,3.69-3.85l-3.65-.15c-1.54,.02-2.56,.17-3.07,.43-.59,.28-1.5,1.04-2.74,2.28-.98,.96-1.78,1.82-2.39,2.57,.44,.28,1.02,.59,1.7,.94,.81,.41,.8,.5-.07,.3-.72-.19-1.46-.46-2.24-.83l-.69-.15c-.46-.02-.8,.11-1.04,.43-.93,1.02-1.72,1.94-2.39,2.76-1.28,1.61-1.87,2.74-1.76,3.41,.07,.43,.3,1.33,.67,2.7,.3,1.11,.44,1.83,.44,2.13,0,.56-.35,1.5-1.06,2.83s-1.06,2.24-1.06,2.72c0,.61,.35,1.59,1.07,2.94,.7,1.32,1.2,2,1.5,2.04,.44,.07,1.2,.33,2.26,.76l-.93-1.24c-.31-.46-.54-.83-.67-1.11,0,.33-.07,.52-.22,.52-.11,0-.15-.3-.09-.91,.13-1.37,.48-2.43,1.02-3.17,.52-.72,1.19-1.09,2-1.09,.39,0,1.39,.17,3.04,.48s2.8,.46,3.46,.46c.7,0,2.04-.48,4.02-1.43,1.98-.96,3.17-1.44,3.54-1.44,.89,0,2.44,.54,4.65,1.59s3.45,1.57,3.72,1.57c.52,0,1.02-.15,1.52-.5l1.63-1.24c.26-.19,.41-.2,.48-.09,.06,.09,0,.24-.19,.46l-1.35,1.35c1.07,.56,2.17,1.33,3.3,2.33,1.35,1.2,2.22,2.35,2.61,3.41,.19,.48,.15,.94-.06,1.43,.57-.06,1.11-.41,1.63-1.06,.61-.78,1.11-1.87,1.48-3.28l.59,.2c-.24,1.46-.78,2.61-1.59,3.46-.69,.72-1.43,1.09-2.2,1.11-.59,1.07-2.5,2.33-5.69,3.82-2.43,1.13-4.26,1.85-5.5,2.17l-6.5-.22-5.24-.56c-1.02-.15-2.35-.78-3.98-1.91-1.17-.8-2.56-2.33-4.19-4.59-.2-.09-.63-.22-1.24-.41l-1.52-.37c-.48-.07-1.09-.83-1.85-2.26-.72-1.39-1.09-2.43-1.09-3.11,0-.78,.37-1.89,1.11-3.32,.72-1.43,1.09-2.24,1.09-2.44,0-.41-.2-1.17-.61-2.24-.41-1.11-.65-1.94-.67-2.5-.04-.8,.46-1.98,1.52-3.5,.85-1.24,1.7-2.26,2.56-3.07,.46-.44,.87-.69,1.22-.72,.3-.04,.8,.06,1.5,.26,.63-.89,1.48-1.89,2.57-3.06,1.19-1.26,2.04-2,2.57-2.26,.69-.33,1.89-.48,3.61-.43,1.39,.06,2.59,.19,3.61,.41l.43-.48c.26-.24,.52-.43,.81-.56,.63-.3,2.07-.37,4.35-.24,2.52,.13,4.15,.54,4.87,1.24,.17,.17,.43,.63,.8,1.39l.69,1.48,3.7,2.37c.63,.41,1.11,1.02,1.43,1.83,.17,.43,.3,.93,.39,1.48l1.8,1.11c.37,.22,.81,.96,1.32,2.2,.56,1.41,.96,2.96,1.24,4.7l-.67-.31c-.15-.93-.54-2.13-1.15-3.61-.59-1.41-1.04-2.22-1.32-2.44l-.56-.41c-.52-.33-1.17-.67-1.93-1.02-.89-.39-1.26-.65-1.11-.78,.15-.11,.65-.06,1.5,.22,0-.35-.11-.74-.31-1.15-.31-.59-.8-1.11-1.43-1.52-.59-.37-1.15-.76-1.69-1.15l-.94-.69c.13,.48,.15,.74,.04,.78"/><path class="cls-4" d="M46.71,49.97c0-.2,.09-.43,.26-.63,.15-.2,.24-.28,.3-.22,.06,.06,0,.22-.15,.52-.11,.24-.11,.54,.02,.87,.17,.43,.52,.81,1.04,1.17,.2,.15,.28,.24,.24,.3s-.17,.04-.39-.06c-.35-.17-.65-.43-.93-.81-.28-.39-.41-.78-.41-1.11"/><path class="cls-4" d="M48.92,48.58c-.56,.06-.83,.06-.83,0,0-.04,.24-.13,.78-.24,1.39-.31,3.28-.31,5.72,0,2.22,.3,3.7,.67,4.45,1.11,.35,.2,.52,.33,.48,.35l-.57-.15c-1.46-.5-3.19-.83-5.19-1.04-1.83-.19-3.45-.2-4.83-.06"/><path class="cls-4" d="M61.22,51.47c-.06-.19-.06-.31,0-.37s.13,.04,.22,.3c.17,.46,.07,.87-.28,1.26-.33,.35-.78,.56-1.35,.63l-.44-.04s.07-.13,.43-.2c.54-.11,.94-.33,1.2-.67,.24-.3,.31-.61,.22-.93"/><path class="cls-4" d="M41.97,26.25c-.39-.09-.52-.19-.43-.28,.07-.07,.24-.13,.52-.17,.24-.04,.76,.17,1.57,.61,.89,.48,1.46,.94,1.72,1.37,.26,.46,.37,.69,.3,.7l-.59-.44c-.33-.3-.81-.63-1.44-1.02-.69-.41-1.24-.67-1.65-.78"/><path class="cls-4" d="M55.29,22.95c2.06-1,3.57-1.52,4.54-1.56l.61,.07s-.19,.13-.5,.19c-1.24,.22-2.83,.83-4.78,1.82-1.67,.83-2.96,1.61-3.91,2.33-.69,.52-.98,.69-.91,.48,.07-.19,.3-.43,.63-.74,.89-.78,2.33-1.65,4.3-2.61"/><path class="cls-4" d="M61.98,21.93c.8,.72,1.22,1.44,1.32,2.17,.04,.37,.04,.57-.04,.61-.07,.04-.17-.15-.3-.54-.15-.46-.33-.89-.56-1.24l-.63-.83c-.17-.2-.22-.31-.15-.33,.07,0,.19,.04,.33,.19"/><path class="cls-4" d="M53.53,33.27l2.59-.13,3.32,.15,1.93,.3h.28l.13-.19c.22-.63,.33-1.43,.33-2.37,0-1.04-.13-1.98-.39-2.83-.28-.96-.67-1.59-1.15-1.93-1.15,.43-3.28,1.94-6.41,4.56l-1.2,.98c.2,.61,.41,1.09,.57,1.44m6.78-7.41c.5-.2,.93-.35,1.28-.43h.54c.13,.09-.22,.31-1.04,.65,.89,.52,1.44,1.63,1.67,3.32,.2,1.57,.06,2.93-.43,4.04-.15,.35-.3,.57-.43,.67l-.74,.06-1.56-.22-5.63-.26c-.37,.02-.65,0-.8-.11-.09-.07-.19-.2-.3-.43l-.46-1.07c-1.02,.39-1.72-.06-2.11-1.32-.24-.81-.33-1.78-.26-2.89,.04-.56,.11-.78,.22-.69,.09,.09,.15,.35,.13,.72-.04,.8,.04,1.54,.22,2.2,.2,.7,.44,1.13,.78,1.32,.26,.13,.54,.19,.85,.15,.24-.02,.43-.09,.59-.19l2.89-2.46c1.85-1.56,3.39-2.57,4.59-3.07"/><path class="cls-4" d="M42.55,29.91c1.48,.59,2.69,1.26,3.63,2,.31,.26,.44,.41,.39,.44-.06,.02-.24-.04-.57-.19-1.09-.56-2.11-1.04-3.06-1.43-1.82-.8-2.98-1.15-3.46-1.04-.11,.02-.3,.13-.54,.31-.19,.15-.3,.2-.35,.17-.04-.04,0-.15,.06-.35,.09-.3,.35-.48,.72-.57,.59-.15,1.67,.07,3.17,.67"/><path class="cls-4" d="M46.1,34.17l.43-.04s-.04,.2-.24,.33c-.46,.31-1.17,.65-2.09,.96-.87,.3-1.7,.5-2.52,.67-.11,.02-.26,0-.43-.13-.17-.09-.3-.24-.41-.39-.52-.74-.87-1.83-1.06-3.26-.15-1.17-.15-2.11-.04-2.83l.78,.22c-.13,.85-.17,1.8-.07,2.83,.09,1.3,.39,2.26,.83,2.87,.09,.13,.24,.19,.39,.15,1.76-.3,3.22-.76,4.43-1.37"/><path class="cls-4" d="M44.81,31.14c.2,.8,.22,1.57,.06,2.33-.15,.69-.35,1.06-.59,1.09-.31,.07-.56-.28-.74-1.04-.2-.83-.24-1.85-.07-3.06l1.35,.67"/><path class="cls-4" d="M56.31,28.84c.2,1.5,.2,2.61,0,3.33-.13,.5-.33,.74-.59,.74-.3,0-.54-.31-.74-.94-.19-.56-.28-1.15-.28-1.76,0-.11,.26-.39,.8-.83,.54-.44,.81-.61,.83-.54"/><path class="cls-1" d="M55.55,29.73c.09,0,.19,.06,.26,.17,.09,.11,.13,.26,.15,.44l-.09,.44c-.07,.13-.15,.2-.26,.22-.11,0-.2-.06-.28-.19s-.11-.28-.13-.43c0-.15,.02-.3,.09-.43,.07-.13,.15-.2,.24-.22"/><path class="cls-1" d="M44.21,31.32c.11,0,.2,.06,.26,.17,.07,.09,.09,.24,.09,.43,0,.15-.04,.28-.09,.39-.06,.13-.15,.19-.26,.19-.09,0-.19-.06-.26-.17-.07-.11-.11-.26-.11-.41,0-.17,.04-.3,.09-.41,.06-.11,.15-.19,.24-.19"/></svg>