<?xml version="1.0" encoding="utf-8"?>
<!-- Generator: Adobe Illustrator 27.0.0, SVG Export Plug-In . SVG Version: 6.00 Build 0)  -->
<svg version="1.1" id="Capa_1" xmlns="http://www.w3.org/2000/svg" xmlns:xlink="http://www.w3.org/1999/xlink" x="0px" y="0px"
	 viewBox="0 0 120 120" style="enable-background:new 0 0 120 120;" xml:space="preserve">
<style type="text/css">
	.st0{fill:#DE3612;}
	.st1{fill:#FFFF00;}
	.st2{fill:#FF8700;}
	.st3{fill:#FEE387;}
	.st4{fill:#DAC374;}
	.st5{fill:#C86B21;}
	.st6{fill:#DBF2F7;}
	.st7{fill:#C7D7DA;}
	.st8{fill:#FFFFFF;}
	.st9{fill:#377C49;}
	.st10{fill:#E7827C;}
	.st11{fill:#A45556;}
</style>
<g>
	<g>
		<path class="st0" d="M92.9,44.9l-0.5,0.4c-0.1,0.1-0.2,0.2-0.2,0.5l-0.5-0.7c-0.1,0.1-0.2,0.3-0.4,0.7c-0.2-0.5-0.3-1.1-0.2-1.9
			c-0.4,0.8-0.7,1.5-1.1,2.1c-0.2,0-0.5,0.4-0.8,1.2C89,48,88.9,48.8,89,49.4c0.1,0.5,0.4,1.2,0.9,1.9l0.8,1.3
			c0.2,0.5,0.3,1,0.3,1.7c0.2,1.3-0.2,1.6-1,0.8c0.2,0.5,0.2,1,0.1,1.3c-0.2,0.2-0.4,0.1-0.7-0.5l0.1,0.5l0.3,0.8
			c0.2,0.3,0.2,0.9,0.1,1.8l-0.3,2.1c-0.1,0.6,0.1,1,0.5,1.3c0.4,0.2,0.7,0.4,1,0.3c0.2,0.8,0.6,1.5,1.2,2.3c0.5,0.5,1,0.8,1.5,0.8
			c0.4,0,0.7-0.2,1-0.5l2.7,0.5c0.5,0.2,1.2-0.7,2.1-2.6l0.2-1.5c0.1-0.8,0.4-1.5,0.7-1.9c0.7-0.9,1.1-2.3,1.1-4v-3l-0.2,0.5
			c-0.1,0.3-0.2,0.4-0.5,0.5l-0.2,0.6l-0.7-4c-0.4-2.4-0.4-4.3-0.1-5.8C99.6,45,99,45.9,98,47.4c-0.1-0.4-0.1-0.7-0.2-0.8l-0.3,0.5
			L97,47.6l-0.5-1.5c-0.2-0.8-0.4-1.3-0.3-1.5c0-0.2-0.1-0.8-0.4-1.6l-0.5-1.4l0.1-3.3c-0.4,1.8-0.6,2.9-0.7,3s-0.2,0.2-0.5,0.3
			c-0.2,0.1-0.4,0.3-0.4,0.5c0,0.8-0.1,1.5-0.3,2.1C93.4,44.3,93.2,44.6,92.9,44.9L92.9,44.9z"/>
		<path class="st0" d="M94.9,64.9L94.9,64.9l-0.3-0.3v-0.1h0.1L94.9,64.9C95,64.8,95,64.9,94.9,64.9C95,64.9,95,64.9,94.9,64.9
			L94.9,64.9z"/>
		<path class="st0" d="M95.4,64.4C95.4,64.4,95.3,64.4,95.4,64.4l-0.2-0.1v-0.1h0.1L95.4,64.4C95.4,64.3,95.5,64.4,95.4,64.4
			L95.4,64.4L95.4,64.4z"/>
		<path class="st0" d="M96.2,64.6C96.2,64.6,96.1,64.6,96.2,64.6L96,64.3l-0.2,0.1h-0.1l-0.1-0.2v-0.1h0.1l0.1,0.2H96h0.1L96.2,64.6
			C96.2,64.5,96.2,64.5,96.2,64.6L96.2,64.6L96.2,64.6z"/>
		<path class="st0" d="M96.8,64.8L96.8,64.8l-0.4-0.3v-0.1h0.1l0.3,0.2C96.9,64.6,96.9,64.7,96.8,64.8
			C96.9,64.8,96.9,64.8,96.8,64.8L96.8,64.8z"/>
		<path class="st1" d="M97.1,55.2c-0.7,1.1-1.1,2.1-1.2,2.9l0.1,0.8L95.7,58l-0.2,0.9c-0.2-0.1-0.5-1-0.8-3
			c-0.1-1.1-0.1-2.1,0.1-3.2l0.4-1.6c0-0.2-0.2-1.1-0.6-2.6c0.1,0.4,0,1.2-0.2,2.2L94,52.3h-0.4l-0.5,0.9l-0.5,1.3l0.1-1.8
			c-0.1-0.6-0.5-1-1.3-1c-0.1-0.1-0.2-0.7-0.5-1.9l-0.4,1.1l-0.1,0.7l0.5,0.9l0.3,1.6c0.1,0.8,0.1,1.2-0.1,1.3h-0.4L90,55l0.1,0.7
			c0.1,0.4,0,0.5-0.1,0.5s-0.2-0.1-0.5-0.5c-0.1,0.2,0,0.4,0.1,0.6c0.1,0.3,0.2,0.7,0.3,1.2c0.1,0.3,0,1.1-0.2,2.4
			c-0.2,1-0.1,1.6,0.1,2c0.2,0.3,0.5,0.5,0.8,0.7l0.5,0.1c0.1,0.8,0.5,1.5,1,2.1c0.5,0.5,1,0.8,1.5,1c0.4,0.1,0.7-0.2,1-0.6l1.9,0.4
			c0.2-0.1,0.6-0.4,1.1-1c0.5-0.7,0.8-1.2,0.9-1.6l0.2-3.4l-1.2-1.5C97.1,57.3,97,56.4,97.1,55.2L97.1,55.2z"/>
		<path class="st2" d="M33.9,35.6c-1.2,1.7-1.8,3-1.9,4.1c-0.1,1,0.2,2.1,0.9,3.2l0.7,1c0.1,0.8,0.7,1.8,1.5,3.2
			c0.7,1.1,1.5,2.1,2.4,3c1.5,1.9,3.3,3,5.5,3.2c2.1,0.4,4.7,0.1,7.8-0.8c3.2-0.9,5.5-2.1,6.8-3.5c0.7,0.2-0.1,1.6-2.4,3.9
			c1.2,0.9,2.4,2.4,3.7,4.4c1.1,1.8,2.2,3.9,3.2,6.6c1.2,3.2,1.9,6,1.9,8.3c0.2,2.1,0.1,4.3-0.2,6.7c-0.4,2.9-1.1,5-2.1,6.6
			c-1,2.7-1.4,5.2-1,7.2c0,0.2-0.1,0.6-0.3,1.2l-0.5,1.7c-0.3,1.6,0.1,2.9,1.2,3.8l0.2-1.4c0.1-0.4,0.4-0.7,0.8-0.8
			c0.5-0.1,1.1,0.2,1.6,0.7c0.6,0.6,0.8,1.2,0.8,1.8c0.3,0.2,0.5,0.2,0.8,0.1c-0.4-0.4-0.5-0.9-0.4-1.5c0-0.7,0.4-1.2,1.1-1.2
			s1.2,0.3,1.4,0.9c0.2,0.5,0.2,1,0.1,1.6l1-0.3c0.2-1.5,0.7-2.4,1.4-2.7c1.2-0.1,1.6,0.6,1.3,2.3c1.2-0.4,1.6-1.2,1.3-2.5
			c-0.2-1-0.7-1.9-1.6-2.9c1-0.8,1.7-1.6,2.1-2.5l0.5-1.9c0.8-2.7,0.7-5.2-0.3-7.6c0.5-0.8,0.6-2.3,0.3-4.7c-0.2-1.7-0.5-3.5-1-5.1
			c-0.3-1.3-0.8-3.1-1.7-5.6c-0.8-2.5-1.5-4.3-2.1-5.6l-3,0.3c-0.7-1-1-1.8-0.8-2.3c0.1-0.7,1-0.8,2.5-0.2l2.9,0.4
			c1-0.1,2.3-0.4,3.8-0.8c0.5-0.5,1.2-1.2,1.8-2l1.2-1.6c1.4-0.9,2.2-1.7,2.3-2.4c-0.1-0.2-0.5-0.5-1-0.7c-0.6-0.3-1-0.5-1.1-0.8
			c-0.1-0.2,0.1-0.7,0.4-1.3c0.4-0.7,0.5-1.3,0.5-1.8c-0.5-0.5-1.9-0.2-4.3,1l-4.7,1.5c-2.3,0.6-3.8,0.9-4.5,0.8
			c-0.3-0.4-0.5-1.3-0.7-2.7c-0.3-1.2-0.4-3.6-0.2-7.4l0.1-5.5c-0.3-4.7-1.4-8.3-3.3-10.9c-1.7-2.1-3.6-3.6-5.8-4.5
			c-1.9-0.8-3.7-1.1-5.5-0.9c-1.3,0.1-3,0.8-5.1,1.9c-2.3,1.2-3.6,2.3-4.1,3.2c-0.2,0.3-0.3,0.5-0.1,0.8c0.2-0.2,0.4-0.3,0.5-0.2
			c0.2,0.1,0.2,0.4,0.2,0.8l-0.8,3.9c-0.7,2.3-1.3,3.7-1.9,4.2c-0.4,0.2-0.7,0.3-0.8,0.1L36.6,33C35.8,33.2,35,34.1,33.9,35.6z
			 M35.4,45.3l-0.8-0.5l-0.7-0.6l0.9,0.7c1.2,0.8,2.4,1.5,3.5,1.8c2,0.7,4.3,0.9,7.1,0.7l5.9-0.9c4-0.5,6.5-1,7.5-1.4
			c-0.9,1.2-2.3,2.4-4,3.5c-1.8,1.1-3.7,1.9-5.7,2.5c-3.7,1-6.6,0.9-8.6-0.3c-1.1-0.7-1.9-1.4-2.7-2.2l-1.5-1.9
			C36.1,46.7,35.8,46.3,35.4,45.3L35.4,45.3z"/>
		<path class="st2" d="M40.8,58.7l1.8-5.4c-1.7-0.3-3.4-1.3-5-3.1c-0.7-0.2-2.3-0.9-4.9-2.2c-2.3-1.2-3.5-1.6-3.9-1.4
			c-0.2,0.2-0.3,0.8-0.1,1.5c0.1,0.8,0.2,1.2,0.1,1.4s-0.5,0.5-1.1,0.8l-0.9,0.9c0.1,0.2,0.2,0.4,0.6,0.6l0.8,0.6l4.4,4.8
			c1.9,0.9,3.8,1.4,5.7,1.5C38.1,58.9,40.8,58.7,40.8,58.7z"/>
		<path class="st2" d="M36.1,85.5c-0.2,1.7,0.4,3.2,1.7,4.4c1,0.7,2,1.2,3.2,1.6c1.7,0.5,3,0.2,3.8-0.8c0.4-0.5,0.7-1,0.7-1.5
			l-0.1-1.3c-0.1-1.1,0.6-2.3,2.1-3.5c-3-2.4-4.9-4.7-5.5-6.8c-1.3,0.7-2.5,1.8-3.7,3.3C36.8,82.7,36.1,84.2,36.1,85.5L36.1,85.5z"
			/>
		<path class="st2" d="M32.5,93.8c0.5,0.4,0.8,0.8,0.8,1.2c1-0.1,1.6,0.1,1.8,0.6c0.1,0.1,0.1,0.5-0.1,1.2l1.8-0.1
			c0.4,0.2,0.6,0.5,0.5,0.8s1,0.1,3.3-0.7c2.3-0.8,3.3-1.4,3.3-1.9c0-0.3-0.2-0.5-0.4-0.6l-1.2-0.4c-1.3-0.5-2.5-1.4-3.6-2.7
			L32.5,93.8L32.5,93.8z"/>
		<path class="st2" d="M96.2,75.1c0.5-1,0.7-2.9,0.8-5.4c0.1-2,0.1-3.5,0-4.6c-0.2-0.5-0.6-0.8-1.1-0.8s-0.8,0.2-1,0.7
			c0.2,1.9-0.4,4.4-1.9,7.2c-1.7,3.2-3.8,5.4-6.4,6.5c-2.8,0.9-5.1,1.4-7,1.3c-2.1-0.1-4.2-0.7-6.1-2.1c0.2,1.3,0.1,2.5-0.4,3.8
			c0.8,1.7,1,3.9,0.5,6.5l8,0.2c1.7-0.4,3.5-1,5.6-1.9c1.6-0.8,3.3-2.3,4.9-4.2C94,80.1,95.3,77.7,96.2,75.1L96.2,75.1z"/>
		<path class="st3" d="M55.1,52.9c-2.1,2.1-3.9,3.5-5.3,4.2c-1.1,0.7-2.1,0.9-3.2,0.8c-0.8,0-1.7-0.6-2.5-1.6s-1.3-1.9-1.6-2.8
			c-0.4,1-0.9,2.4-1.4,4c-0.7,2.4-1.1,4.5-1.3,6.6c-0.1,1.9,0.1,4.1,0.4,6.6c0.4,2.7,1,5,1.8,6.9c0.6,1.6,1.4,2.9,2.3,3.8l3.2,3
			c-0.4-0.5-0.4-0.8-0.2-0.9l1.1,0.1l4.2,1.3c1.9,0.4,3.4,0.5,4.4,0.5c1.6-0.1,3.5-0.7,5.5-1.7c1-2.2,1.5-4.9,1.6-8.2
			c0-2.4-0.2-4.8-0.5-7.1c-0.4-2.1-1.3-4.6-2.7-7.7C59,57.1,57.1,54.5,55.1,52.9L55.1,52.9z"/>
		<path class="st3" d="M74,88.2c0.6,1.1,1.9,1.8,4,2.3l3.9,0.3c2.5-0.4,4.6-1.5,6.3-3c2.1-1.7,3.9-3.8,5.4-6.3
			c1.4-2.2,2.1-4.1,2.4-5.5c-0.7,1.6-1.5,3.1-2.5,4.6c-1.8,2.5-3.7,4.4-6,5.6c-1.4,0.9-3.2,1.6-5.2,2.1C79.4,88.8,76.8,88.8,74,88.2
			z"/>
		<path class="st4" d="M73.6,88.1l-0.5,2.3c1,0.3,2.3,0.5,4,0.7l4.6-0.2c-4.3-0.1-6.7-1-7.5-2.5C74.1,88.2,73.6,88.1,73.6,88.1z"/>
		<path class="st4" d="M46.9,58c1.8,0.2,4.6-1.5,8.3-5.1l-1.8-1.2c-1.8,0.6-3.2,1-4.1,1.2l-6.5,0.4l-0.1,0.2
			c0.6,1.7,1.3,2.9,2.1,3.6C45.2,57.6,46,57.9,46.9,58L46.9,58z"/>
		<path class="st4" d="M57.9,85.2c-0.7,0.1-1.8,0.1-3.1,0c-0.9-0.1-2.3-0.4-4.1-1l-2.8-0.8h-0.7c-0.2,0.2-0.2,0.4,0.1,0.8
			c1.9,1.9,4.1,3.1,6.3,3.8c1.3,0.4,3,0.7,5,0.7c0.7-0.4,1.6-1.2,2.5-2.5c0.8-1.2,1.3-2.1,1.3-2.6C60.6,84.6,59.1,85.1,57.9,85.2z"
			/>
		<path class="st5" d="M76.6,50.2h-0.7c-0.4,0.6-0.6,1-0.6,1.3c0,1,0.2,1.5,0.7,1.7c0.5,0.1,1.1-0.2,1.5-0.9c0.3-0.4,0.1-1-0.4-1.6
			C77,50.6,76.6,50.2,76.6,50.2z"/>
		<path class="st5" d="M69.8,58.7l-4.7-0.5c-0.8,0.2-0.7,1.2,0.4,2.8c3.3,0.2,6.1-0.8,8.4-3.1C72.7,58.5,71.4,58.7,69.8,58.7z"/>
		<path class="st5" d="M55.1,52.9l1.9-2.1c0.8-1,1-1.6,0.5-1.8c-1.1,1.2-2.5,2.1-4.3,2.7L55.1,52.9L55.1,52.9z"/>
		<path class="st5" d="M35.9,60.6c1.9,1.6,3.2,2.3,4.1,2.3c0.3-1.9,0.5-3.3,0.8-4.3l-3.6,0.1c-1.9-0.3-3.6-0.8-4.8-1.5
			C32.7,57.6,33.9,58.8,35.9,60.6L35.9,60.6z"/>
		<path class="st5" d="M60.5,92.7c-0.2-1.4-0.2-2.7,0.1-4.1l0.8-2.9c-0.2,0.4-0.7,0.9-1.4,1.8l-1.3,1.3
			C58.7,89.3,59.3,90.5,60.5,92.7L60.5,92.7z"/>
		<path class="st5" d="M53.2,87.9c-2.4-1-4.4-2.3-6-3.8l-1.3,1.4c-0.2,0.3-0.4,0.8-0.4,1.5l0.1,2c0,0.7-0.4,1.4-1,2
			c-1.2,1-3.4,0.6-6.7-1.3l0.7,0.8c0.2,0.7,1,1.5,2.5,2.7c0.3,0.2,0.9,0.4,1.8,0.8c0.7,0.2,1.1,0.5,1.1,0.8c0.1,0.4-0.7,0.9-2.4,1.6
			s-3,1-4.1,1.1c-0.1,0.2-0.2,0.5-0.5,0.8l5.4-0.2c4.1-0.1,6.7-0.5,7.7-0.9c1.2-0.4,1.8-1,1.8-1.8c0.1-0.4-0.1-0.9-0.4-1.3l-0.7-1
			c-0.4-0.6-0.4-1.1-0.2-1.6L53.2,87.9L53.2,87.9z"/>
		<path class="st5" d="M69.7,92.3l-2.5,0.2c-1.6-0.1-2.7-0.2-3.3-0.5c-0.4-0.2-0.6-0.1-0.8,0.1s-0.2,0.5,0.1,0.9
			c1.5,1.7,2.7,2.5,3.6,2.4c0.5-0.1,1.1-0.2,1.6-0.5l1.2-0.7c1.4-0.7,2.4-1.5,2.7-2.4c0.1-0.2,0.1-0.4-0.1-0.4
			c-0.1-0.2-0.2-0.1-0.5,0.1C71.5,91.9,70.9,92.2,69.7,92.3L69.7,92.3z"/>
		<path class="st6" d="M33.2,94.2c-0.2-0.2-0.4-0.4-0.7-0.5l-1.3,0.7l-1.4,1.2c-0.3,0.2-0.3,0.4,0,0.5l1.7,0.1
			c-0.8,0.7-0.8,1.2-0.4,1.3l3-0.2c-0.5,0.3-0.7,0.5-0.7,0.7l0.2,0.3c0.2-0.2,1.5-0.6,3.8-1c0.1-0.4-0.2-0.8-0.8-1l-0.7,0.1
			l-0.8,0.2c0.2-0.6,0.1-1.1-0.1-1.4c-0.2-0.4-0.8-0.5-1.8-0.4C33.4,94.8,33.4,94.6,33.2,94.2L33.2,94.2z"/>
		<path class="st6" d="M61.9,97.3c-0.7,0-1,0.8-1,2.2c0.1,0.3,0.7,0.7,1.6,1.2c0.9,0.4,1.5,0.5,1.6,0.2c0.2-0.2,0.2-0.8,0.2-1.8
			c-0.2-0.5-0.6-1-1-1.4C62.8,97.5,62.4,97.2,61.9,97.3L61.9,97.3z"/>
		<path class="st6" d="M67.2,98c-0.3-0.5-0.7-0.7-1.3-0.7c-0.8,0.2-1.3,0.6-1.2,1.3c0.2,1.2,0.6,1.9,1.5,2.2c0.3,0.1,0.5,0,0.7-0.2
			l0.4-0.8C67.5,99.1,67.4,98.5,67.2,98z"/>
		<path class="st6" d="M70.3,100.1c0.4-0.5,0.7-0.9,0.8-1.2c0.2-1.2,0-1.9-0.7-2.1c-0.6-0.2-1.2,0.1-1.5,0.7
			c-0.3,0.3-0.5,1.2-0.5,2.5c0.1,0.5,0.3,0.8,0.7,0.8C69.3,100.9,69.7,100.6,70.3,100.1z"/>
		<path class="st7" d="M37.4,97.5l-2,0.4c-1.1,0.2-1.7,0.4-1.8,0.6c0.2,0.2,1.3,0.2,3.3-0.1C37.2,98,37.3,97.8,37.4,97.5z"/>
		<path class="st8" d="M40.5,24.9c0-0.5-0.2-0.6-0.5-0.5l-0.2,0.2l-0.1,0.1l-1,1.6c-0.5,1-0.7,1.6-0.7,2c-0.1,0.5,0.1,0.8,0.2,0.8
			c0.2,0,0.3-0.2,0.5-0.4c0.2-0.2,0.5-0.7,1-1.6C40.3,26.1,40.5,25.4,40.5,24.9L40.5,24.9z"/>
		<path class="st8" d="M56.9,28.8c0-0.3-0.2-0.5-0.5-0.6l-0.8-0.1c-0.2,0.1-0.7,0.7-1.3,1.6l-1.1,3c0.2,0.7,0.8,1,1.7,0.7
			c0.2-0.1,0.5-0.3,0.8-0.7s0.5-0.8,0.7-1.2c0.1-0.4,0.3-0.8,0.4-1.5L56.9,28.8L56.9,28.8z"/>
		<path class="st8" d="M58.3,38.4l0.6-0.4c0.2-0.3,0.4-1,0.6-2.2c0.1-1.2,0.1-2-0.1-2.5c-0.6,3-1.2,4.7-1.8,5.3
			C57.7,38.6,57.9,38.5,58.3,38.4L58.3,38.4z"/>
		<path d="M38,28.1l-0.8,2.4c0.2-0.2,0.4-0.1,0.2,0.4c-0.1,0.8-0.1,1.3,0.1,1.4c0.2,0,0.5-0.3,0.8-1c0.2-0.7,0.4-0.9,0.6-0.7
			C39,30.8,39,31,39,31.3c0.2-0.1,0.4-0.8,0.8-2.3c0.4-1.5,0.5-2.4,0.5-2.9l-1.6,2.7C38.3,29.2,38.1,29,38,28.1z"/>
		<path d="M58.4,29.2l-1-1c-0.5-0.4-1-0.5-1.6-0.2l0.2,0.1l0.4,0.1c0.3,0.2,0.5,0.5,0.5,1.1c-0.2,2.1-0.8,3.5-1.9,4.1
			c-0.7,0.5-1.3,0.3-1.8-0.6l-0.5,1.9l-0.2,2l0.7,0.9C53,36.8,53,36.3,53,36.1l0.3-0.5l0.6,0.7c0.3,0.4,0.8,0.5,1.5,0.6
			c1,0.1,1.7-0.4,2.3-1.3c0.5-1.4,0.8-1.9,1-1.6l0.2,1.3c0.2-0.7,0.4-1.5,0.5-2.3c0.1-0.5-0.1-1.2-0.2-1.9
			C59,30.2,58.7,29.6,58.4,29.2L58.4,29.2z"/>
		<g>
			<path class="st9" d="M58.8,33.8c-0.2-0.3-0.4,0.1-0.7,1.2c-0.2,0.8-0.8,1.5-1.7,1.7c-1,0.3-1.8,0.1-2.4-0.5
				c-0.2-0.5-0.4-0.7-0.7-0.6s-0.3,0.7-0.1,2.1c0.5,0.7,1.4,1.2,2.4,1.3c0.8,0.1,1.5,0,2.1-0.2c0.8-0.9,1.2-2.1,1.3-3.7
				C58.9,34.4,58.9,34.1,58.8,33.8L58.8,33.8z"/>
			<path d="M56.1,38.9c-0.2,0-0.4,0-0.5,0c-1-0.1-1.9-0.6-2.4-1.3l0,0c-0.3-2,0.1-2.1,0.2-2.1c0.3-0.1,0.5,0.2,0.7,0.6
				c0.6,0.6,1.3,0.8,2.3,0.5c0.8-0.2,1.4-0.8,1.7-1.7c0.3-1.1,0.5-1.3,0.6-1.3s0.1,0,0.2,0.1l0,0C59,34,59,34.4,59,34.9
				c-0.1,1.6-0.6,2.8-1.4,3.8l0,0C57.2,38.8,56.7,38.9,56.1,38.9L56.1,38.9z M53.2,37.5c0.5,0.7,1.3,1.1,2.3,1.2
				c0.8,0.1,1.5,0,2-0.2c0.8-0.9,1.2-2.1,1.3-3.7c0-0.5-0.1-0.8-0.2-1.1c0,0,0-0.1-0.1-0.1s-0.2,0.1-0.5,1.2
				c-0.3,0.9-0.9,1.5-1.7,1.7c-1,0.3-1.8,0.1-2.4-0.6l0,0c-0.3-0.5-0.4-0.6-0.6-0.6C53.2,35.6,53,35.8,53.2,37.5L53.2,37.5z"/>
		</g>
		<path class="st9" d="M38.4,30.9c-0.5,1-0.8,1.5-1,1.3c-0.2-0.1-0.2-0.5-0.1-1c0.1-0.4,0.1-0.6,0.1-0.7c-0.1-0.1-0.2,0-0.2,0.2
			c-0.3,0.8-0.4,1.6-0.4,2.3c-0.1,0.3,0.1,0.5,0.4,0.5c0.3,0.1,0.5,0.1,0.7-0.1c0.6-0.4,1-1.1,1.3-1.9c0.1-0.3,0.1-0.6-0.1-0.8
			C38.8,30.3,38.6,30.4,38.4,30.9L38.4,30.9z"/>
		<path class="st6" d="M36.1,46.6c0.1-0.1,0.4-0.3,0.6-0.6l-1.3-0.7L36.1,46.6L36.1,46.6z"/>
		<path class="st6" d="M38.4,49.1c0.4,0.5,0.7,0.8,0.7,0.7l0.1-0.8c0-0.6-0.1-0.8-0.2-0.9L38.4,49.1z"/>
		<path class="st6" d="M51.5,50.2l1.3-0.6c0.1-0.2,0.1-0.5,0-0.8c-0.1-0.4-0.2-0.5-0.4-0.5c-0.1,0.1-0.3,0.4-0.6,1
			S51.4,50.2,51.5,50.2L51.5,50.2z"/>
		<path class="st6" d="M53.5,46.2l-1.6,0.2l0.2,0.7l0.4,0.4c0,0,0.3-0.2,0.5-0.7C53.4,46.5,53.5,46.2,53.5,46.2z"/>
		<path class="st10" d="M53.5,46.2c-0.1,0.2-0.2,0.4-0.3,0.5c-0.2,0.3-0.4,0.6-0.7,0.8l-0.4-0.6l-0.2-0.5l-7.6,0.9l-3-0.1l-2.4-0.5
			c-0.7-0.2-1.3-0.4-2-0.7l-0.5,0.5l2.1,2.5l0.4-0.7l0.2-0.2l0.1,0.2l0.1,1.3l-0.1,0.1l1.2,0.8c0.5,0.3,1,0.5,1.6,0.7l2,0.2l3.4-0.3
			c1.4-0.3,2.7-0.7,4.1-1.1l0.4-1l0.5-1l0.4,0.6l0.1,0.3l-0.1,0.5c1.1-0.7,2.1-1.4,3.1-2.1c1-0.8,1.9-1.6,2.9-2.4L53.5,46.2
			L53.5,46.2z"/>
		<path class="st11" d="M58,45.4l-0.9,0.2l-3.6,0.6v0.2l-0.8,1.2h-0.2L52,47l-0.2-0.6l-4.6,0.7l-5.1,0.3L39.7,47l-1.5-0.4L36.8,46
			l-0.4,0.5l1.5,2.1c0.1-0.3,0.5-0.5,1.2-0.5l7.8,0.3l3.4,0.5c0.9,0.2,1.1,0.7,0.6,1.4l0.6-0.1l0.1-0.5l0.2-0.6l0.5-0.9l0.3,0.2
			l0.2,0.5v0.5l3.2-2l2.3-1.8l0.4-0.6L58,45.4L58,45.4z"/>
		<path d="M53.7,28C53.7,28,53.6,28,53.7,28C53.6,28,53.6,27.9,53.7,28c0.8-1.5,1.8-2.2,2.7-2.3c0,0,0.1,0,0.1,0.1
			c0,0,0,0.1-0.1,0.1C55.5,25.9,54.6,26.6,53.7,28L53.7,28L53.7,28z"/>
		<g>
			<path d="M52.6,37.6C52.6,37.6,52.6,37.5,52.6,37.6l-0.2-0.8c0,0,0-0.1,0.1-0.1c0,0,0.1,0,0.1,0.1L52.6,37.6
				C52.7,37.5,52.7,37.6,52.6,37.6L52.6,37.6L52.6,37.6z"/>
			<path d="M56,38.9c-1.5,0-2.7-0.7-3.6-2.2l0,0c-0.1-1.4,0.5-3.6,1.6-6.4c0.4-1,0.9-1.8,1.4-2.2c0.9-0.7,1.7-0.6,2.6,0.4
				c0.8,1,1.4,2.1,1.5,3.6v2.6c0,1.6-0.2,2.7-0.6,3.3l0,0l-0.8,0.5l0,0c-0.6,0.2-1.2,0.4-1.7,0.4C56.3,38.9,56.2,38.9,56,38.9
				L56,38.9z M52.6,36.7c0.9,1.5,2.2,2.2,3.8,2.1c0.5,0,1.1-0.2,1.7-0.4l0.8-0.5c0.4-0.5,0.5-1.6,0.5-3.2v-2.5
				c-0.2-1.4-0.7-2.5-1.5-3.5c-0.9-1-1.6-1.1-2.4-0.4c-0.5,0.4-1,1.2-1.4,2.2C53,33.2,52.5,35.3,52.6,36.7L52.6,36.7z"/>
		</g>
		<path d="M54.5,33.6c0,0-0.1,0-0.2,0l0,0c-0.3,0-0.6-0.1-0.8-0.4c-0.2-0.3-0.3-0.5-0.2-0.7c0,0,0.1-0.1,0.1,0c0,0,0.1,0.1,0,0.1
			c-0.1,0.2,0,0.4,0.2,0.6c0.2,0.2,0.5,0.3,0.7,0.3c0.8,0.1,1.5-0.5,2.1-2c0.5-1.6,0.6-2.6,0.3-3.1c-0.2-0.2-0.5-0.3-0.9-0.3
			c0,0-0.1,0-0.1-0.1c0,0,0-0.1,0.1-0.1c0.5,0,0.8,0.1,1.1,0.4c0.4,0.5,0.3,1.6-0.3,3.2C55.9,33,55.3,33.7,54.5,33.6L54.5,33.6z"/>
		<path d="M57.6,38.7C57.6,38.7,57.5,38.7,57.6,38.7C57.5,38.6,57.5,38.6,57.6,38.7c0.2-0.4,0.6-0.9,0.9-1.6
			c0.3-0.9,0.4-1.7,0.4-2.5c-0.1-0.8-0.2-0.8-0.2-0.8s-0.2,0-0.5,1.3c-0.5,1.1-1.3,1.7-2.3,1.9c-0.9,0.1-1.6-0.3-2.1-0.9
			c-0.2-0.3-0.3-0.4-0.4-0.4c0,0-0.1,0.1-0.2,0.4c-0.2,0.5-0.1,1,0.1,1.6v0.1h-0.1c-0.3-0.6-0.3-1.2-0.1-1.7
			c0.1-0.3,0.2-0.5,0.3-0.5s0.3,0.1,0.5,0.4c0.4,0.6,1.1,0.9,1.9,0.9c1-0.1,1.7-0.7,2.2-1.8c0.3-1.2,0.5-1.4,0.6-1.4s0.3,0.1,0.3,1
			c0.1,0.7-0.1,1.6-0.4,2.5C58.3,37.8,58,38.4,57.6,38.7L57.6,38.7L57.6,38.7z"/>
		<path d="M58.7,36.4L58.7,36.4C58.7,36.4,58.6,36.3,58.7,36.4l0.5-2.2l0.2-1.8c0,0,0-0.1,0.1-0.1c0,0,0.1,0,0.1,0.1l-0.2,1.8
			L58.7,36.4C58.8,36.3,58.7,36.4,58.7,36.4L58.7,36.4z"/>
		<path d="M36.7,33.3C36.7,33.3,36.6,33.3,36.7,33.3C36.6,33.2,36.7,33.2,36.7,33.3l1.1-0.2c0.6-0.5,1.2-1.9,1.8-4.3
			c0.5-1.9,0.8-3.3,0.8-4.1c0-0.2,0-0.3-0.1-0.4h-0.1l-0.5,0.3c-0.6,0.7-1.2,2.1-2,4.2s-1.1,3.4-1,4c0,0,0,0.1-0.1,0.1
			c0,0-0.1,0-0.1-0.1c-0.1-0.6,0.3-1.9,1-4c0.8-2.2,1.5-3.5,2.1-4.3l0,0l0.5-0.3l0,0c0.1,0,0.2,0,0.2,0c0.1,0.1,0.2,0.2,0.2,0.5
			c0,0.8-0.3,2.2-0.8,4.2c-0.6,2.5-1.2,3.9-1.9,4.4l0,0L36.7,33.3L36.7,33.3L36.7,33.3z"/>
		<path d="M38.3,29.1L38.3,29.1c-0.1,0-0.2-0.1-0.2-0.3c-0.1-0.2-0.1-0.5-0.1-1c0,0,0-0.1,0.1-0.1c0,0,0.1,0,0.1,0.1
			c-0.1,0.5,0,0.8,0.1,1l0,0C38.3,28.9,38.3,28.9,38.3,29.1c0.2-0.1,0.3-0.2,0.5-0.4c0.7-0.9,1.2-1.9,1.6-3c0,0,0.1-0.1,0.1,0
			c0,0,0.1,0.1,0,0.1c-0.4,1.1-0.9,2.1-1.6,3.1C38.6,29,38.5,29.1,38.3,29.1L38.3,29.1z"/>
		<path d="M37.5,32.2c-0.1,0-0.2,0-0.2-0.1c-0.1-0.1-0.1-0.3-0.1-0.5l0.1-1.1v-0.1c0,0,0,0.1-0.1,0.2c0,0-0.1,0.1-0.1,0
			c0,0-0.1-0.1,0-0.1c0.1-0.3,0.1-0.3,0.2-0.3c0.1,0,0.1,0.1,0.2,0.3l0,0l-0.1,1.2C37.4,31.9,37.4,32,37.5,32.2
			c0-0.1,0.1-0.1,0.2-0.1c0.2-0.1,0.5-0.5,0.8-1.1c0.2-0.6,0.3-0.6,0.4-0.6c0.1,0,0.2,0.2,0.2,0.3v0.7c0,0,0,0.1-0.1,0.1
			c0,0-0.1,0-0.1-0.1v-0.7c0-0.2-0.1-0.2-0.1-0.2s-0.1,0-0.3,0.5C38,31.9,37.8,32.2,37.5,32.2L37.5,32.2L37.5,32.2z"/>
		<path d="M37.7,42.9L37.7,42.9c-0.2-0.1-0.4-0.4-0.4-0.9c0,0,0-0.1,0.1-0.1c0,0,0.1,0,0.1,0.1c0,0.4,0.2,0.7,0.3,0.7
			C37.7,42.8,37.8,42.9,37.7,42.9L37.7,42.9z"/>
		<path d="M42.2,43.9L42.2,43.9C42.1,43.8,42.1,43.8,42.2,43.9l0.1-0.3l0.5-0.5h0.1v0.1l-0.5,0.5l0,0L42.2,43.9
			C42.3,43.9,42.2,43.9,42.2,43.9L42.2,43.9z"/>
		<path d="M31.3,52.3c-0.4,0-0.8-0.2-1.2-0.4c-0.5-0.3-0.8-0.5-0.8-0.8c-0.1-0.3,0.1-0.5,0.5-0.9l1-0.8h0.1v0.1l-1,0.8
			c-0.3,0.3-0.5,0.6-0.5,0.8l0,0c0,0.2,0.2,0.4,0.7,0.7c0.4,0.2,0.8,0.4,1.1,0.4C31.4,52.2,31.4,52.2,31.3,52.3
			C31.4,52.3,31.4,52.3,31.3,52.3L31.3,52.3z"/>
		<path d="M75.7,50.1L75.7,50.1c-0.2-0.3-0.6-0.4-1.3-0.4h-1.5c0,0-0.1,0-0.1-0.1s0-0.1,0.1-0.1h1.5c0.7,0,1.2,0.1,1.4,0.4
			C75.8,50,75.8,50,75.7,50.1C75.8,50,75.8,50,75.7,50.1L75.7,50.1z"/>
		<path d="M74.8,52.3L74.8,52.3C74.8,52.3,74.8,52.2,74.8,52.3l0.4-1c0.3-0.4,0.4-0.7,0.5-1.1c0,0,0-0.1,0.1,0c0,0,0.1,0,0,0.1
			c-0.1,0.4-0.3,0.8-0.5,1.2L74.8,52.3C74.9,52.3,74.8,52.3,74.8,52.3L74.8,52.3z"/>
		<path d="M36.1,46.7L36.1,46.7l-0.4-0.6l-0.4-0.8v-0.1h0.1l0.4,0.8l0.3,0.5c0.1,0,0.3-0.2,0.5-0.6h0.1V46
			C36.5,46.4,36.2,46.7,36.1,46.7L36.1,46.7z"/>
		<path d="M39.2,49.9C39.2,49.9,39.1,49.8,39.2,49.9l-0.1-1L39,48.2c-0.2,0-0.4,0.6-0.5,1c0,0-0.1,0.1-0.1,0s-0.1-0.1,0-0.1
			c0.3-0.8,0.5-1.2,0.8-1.1c0,0,0,0,0,0.1l0.1,0.8L39.2,49.9C39.3,49.8,39.2,49.9,39.2,49.9L39.2,49.9z"/>
		<path d="M52.5,47.6L52.5,47.6L52.5,47.6l-0.4-0.5l0,0l-0.3-0.7v-0.1h0.1l0.3,0.7l0.3,0.4c0.8-0.8,0.9-1.1,0.8-1.2
			c0,0,0-0.1,0.1-0.1c0,0,0.1,0,0.1,0.1C53.6,46.5,53.2,46.9,52.5,47.6C52.6,47.6,52.5,47.6,52.5,47.6L52.5,47.6z"/>
		<path d="M51.5,50.2L51.5,50.2C51.4,50.2,51.4,50.1,51.5,50.2l0.4-1.2l0,0l0.5-0.7c0,0,0,0,0.1,0c0,0,0,0,0.1,0l0.4,0.4l0,0
			c0.1,0.4,0.2,0.7,0.1,1H53v-0.1c0.1-0.2,0.1-0.5-0.1-0.8l-0.3-0.3L52,49L51.5,50.2C51.5,50.1,51.5,50.2,51.5,50.2z"/>
		<path d="M64.6,50.7L64.6,50.7c-0.5-0.5-0.8-1.9-1-4.7c-0.1-2.3-0.1-4.3,0-6.1c0.4-6.1-0.3-10.8-2.1-13.9c-1.1-2.2-2.7-3.9-4.8-5.2
			c-2-1.3-4-2-6.1-2.1c-1.8-0.1-3.9,0.5-6.5,1.9c-2,1.2-3.2,2-3.7,2.6s-0.7,0.9-0.7,1.2c0,0.1,0,0.1,0.1,0.2v0.1h-0.1
			c-0.1-0.1-0.2-0.2-0.2-0.3c0-0.3,0.2-0.6,0.7-1.3c0.6-0.6,1.7-1.4,3.8-2.6c2.6-1.4,4.8-2,6.6-1.9c2.1,0.1,4.2,0.8,6.2,2.1
			c2.1,1.4,3.7,3.1,4.8,5.3c1.8,3.2,2.5,7.9,2.1,14c-0.1,1.8-0.1,3.8,0,6.1C63.9,48.8,64.2,50.3,64.6,50.7
			C64.7,50.6,64.7,50.6,64.6,50.7C64.6,50.6,64.6,50.7,64.6,50.7L64.6,50.7z"/>
		<path d="M43.5,47.5c-2.4,0-4.4-0.4-6.1-1.2c-1.5-0.8-2.5-1.3-2.9-1.7c-1.1-0.8-1.8-2-2.3-3.4c-0.4-1.4,0-3.1,1.3-5.1
			c1.1-1.6,2.2-2.7,3.2-3.3h0.1v0.1c-1,0.6-2,1.7-3.1,3.3c-1.3,2-1.7,3.6-1.3,5s1.2,2.5,2.2,3.3c0.5,0.4,1.5,0.9,2.9,1.7
			c1.9,0.9,4.2,1.3,7.1,1.1l12.7-1.9c1.4-0.3,2.2-0.7,2.4-1.2c0.1-0.2,0.1-0.5,0-0.8v-0.1h0.1c0.1,0.3,0.2,0.6,0,0.9
			c-0.3,0.5-1.1,1-2.5,1.3l-12.7,1.9C44.1,47.5,43.8,47.5,43.5,47.5L43.5,47.5z"/>
		<path d="M44.4,51.8c-0.6,0-1.2-0.1-1.8-0.2c-1.5-0.3-2.8-1.1-4.1-2.3c-1.1-1-1.8-1.9-2.3-2.8v-0.1h0.1c0.5,0.8,1.2,1.7,2.2,2.7
			c1.3,1.2,2.6,2,4,2.3c1.9,0.4,4.2,0.1,7.2-0.8c3.5-1.2,6.6-3.1,9-5.8h0.1v0.1c-2.5,2.7-5.5,4.7-9.1,5.9
			C47.7,51.5,45.9,51.8,44.4,51.8z"/>
		<path d="M44.8,53.5c-0.6,0-1.2,0-1.8-0.1c-1.7-0.2-3.1-0.9-4.4-2c-1.2-1.2-2.3-2.5-3.3-3.9c-1-1.5-1.6-2.7-1.7-3.6
			c0,0,0-0.1,0.1-0.1c0,0,0.1,0,0.1,0.1c0.1,0.9,0.7,2,1.7,3.5c1,1.4,2.1,2.7,3.3,3.9c1.2,1.1,2.6,1.7,4.3,2s3.9,0.1,6.5-0.5
			c4.4-1,7.5-2.8,9.3-5.3H59v0.1c-1.8,2.5-5,4.3-9.4,5.3C47.8,53.3,46.2,53.5,44.8,53.5L44.8,53.5z"/>
		<path d="M40,63L40,63c-1.5-0.1-3.8-1.8-6.9-4.9c-2.2-2.2-3.7-3.8-4.8-5.3l-1-0.8c-0.3-0.2-0.6-0.4-0.7-0.7l0,0
			c0-0.3,0.6-0.7,0.9-0.9c0.6-0.5,1-0.8,1.1-1l-0.2-1.9c0-0.4,0.1-0.7,0.3-0.8c0.2-0.2,0.5-0.1,1,0l4.2,1.9c1.8,0.9,3.1,1.5,3.7,1.6
			c0,0,0.1,0,0.1,0.1c0,0,0,0.1-0.1,0.1c-0.6-0.1-1.9-0.7-3.7-1.6l-4.2-1.9c-0.4-0.2-0.7-0.2-0.9,0c-0.2,0.1-0.2,0.3-0.2,0.7
			l0.2,1.9l0,0c-0.1,0.3-0.4,0.6-1.1,1.1c-0.6,0.4-0.9,0.6-0.9,0.8c0.1,0.2,0.3,0.4,0.7,0.6l1,0.8l0,0c1.1,1.4,2.6,3.1,4.8,5.3
			c3,3.1,5.3,4.7,6.8,4.8C40.1,62.8,40.1,62.9,40,63C40.1,63,40,63,40,63L40,63z"/>
		<path d="M65.8,61.1c-0.1,0-0.2,0-0.3,0c0,0-0.1,0-0.1-0.1s0-0.1,0.1-0.1c3.3,0.1,6.2-1,8.5-3.2c0.7-0.6,1.3-1.4,1.9-2.2l0.1-0.1
			l0.8-1.1l0,0c0.2-0.1,0.6-0.5,1.3-1.1c1-1,0.9-1.2,0.9-1.2l-1-0.8c-0.6-0.4-1-0.7-1.1-0.9l0,0c0-0.2,0.4-1.2,0.5-1.6
			c0.4-0.9,0.4-1.3,0.4-1.4l-1.7,0.1c-0.9,0.2-1.7,0.5-2.5,0.9c-6,2-9.4,2.7-10.7,2.3c0,0-0.1-0.1,0-0.1c0,0,0.1-0.1,0.1,0
			c1.3,0.4,4.6-0.3,10.6-2.3c0.8-0.4,1.6-0.7,2.5-0.9l0,0l1.7-0.1c0,0,0,0,0.1,0c0.2,0.2-0.1,1-0.4,1.6c-0.4,1-0.5,1.4-0.5,1.5
			c0.1,0.1,0.4,0.4,1.1,0.8l1,0.8c0,0,0.2,0.2-0.9,1.4c-0.8,0.7-1.2,1-1.3,1.1l-0.8,1.1L76,55.6c-0.6,0.8-1.2,1.5-1.9,2.2
			C71.9,59.9,69.1,61,65.8,61.1L65.8,61.1z"/>
		<path d="M63.9,101.1c-0.3,0-0.7-0.1-1.3-0.4c-0.8-0.4-1.5-0.9-2-1.6c-0.8-1.1-1.1-2.3-0.7-3.6l0.5-1.6c0.2-0.5,0.3-0.9,0.3-1.2
			l-1-1.8c-0.4-0.7-0.7-1.4-0.8-2c-2.9,0-5.5-0.6-7.7-1.9c-1.5-0.8-3.5-2.4-5.8-4.6c-1.8-1.6-3-3.8-3.9-6.7c-0.6-1.9-1-4.6-1.3-8.4
			c-0.2-2.5,0.1-5.4,0.9-8.7c0.5-2.1,1.2-3.9,1.8-5.3c0,0,0.1-0.1,0.1,0c0,0,0.1,0.1,0,0.1c-0.6,1.4-1.2,3.2-1.8,5.3
			c-0.8,3.3-1.2,6.2-0.9,8.7c0.3,3.7,0.7,6.5,1.3,8.3c0.9,2.9,2.1,5,3.9,6.6c2.4,2.3,4.3,3.8,5.8,4.6c2.2,1.2,4.8,1.9,7.7,1.9
			c0,0,0.1,0,0.1,0.1c0.1,0.7,0.4,1.4,0.8,2l1,1.8l0,0c0,0.4-0.1,0.8-0.3,1.3l-0.5,1.6c-0.3,1.3-0.1,2.5,0.7,3.5
			c0.6,0.6,1.2,1.2,2,1.6c0.7,0.3,1.2,0.4,1.4,0.4c0.1,0,0.3-0.2,0.3-0.4l0.1-0.9c0,0,0,0,0-0.1c0,0,0,0,0.1,0l0.8,0.2l0,0
			c0.3,0.5,0.7,0.7,1.1,0.7l0,0c0.2,0,0.4-0.1,0.5-0.5l0,0l0.5-0.7l0,0l0.8-0.2c0,0,0,0,0.1,0s0,0,0,0.1v0.7
			c0.1,0.3,0.2,0.5,0.4,0.7c0.4,0.2,0.9-0.2,1.3-0.6c0.5-0.4,0.8-0.8,0.8-1.2c0,0,0,0,0-0.1c1.2-0.4,1.6-1.1,1.4-2.3
			c-0.2-1-0.7-2-1.6-2.9v-0.1h0.1c0.9,0.9,1.4,2,1.6,3c0.2,1.3-0.2,2-1.4,2.4c-0.1,0.4-0.4,0.8-0.9,1.2c-0.6,0.6-1.1,0.8-1.5,0.6
			l0,0c-0.2-0.2-0.4-0.5-0.5-0.8l0,0v-0.6l-0.7,0.2l-0.5,0.6c-0.1,0.3-0.4,0.6-0.7,0.5c-0.4,0-0.8-0.2-1.2-0.7l-0.7-0.2l-0.1,0.8
			C64.3,100.7,64.2,100.9,63.9,101.1L63.9,101.1L63.9,101.1z"/>
		<path d="M69.6,94.4L69.6,94.4C69.5,94.3,69.5,94.3,69.6,94.4c1-0.6,1.6-1,2-1.4c0.8-0.7,1.3-1.7,1.6-3.1c0.8-3.3,0.8-5.9,0-7.9
			c-0.5-1.2-1.6-1.9-3.3-2.3c-1.7-0.4-2.9-0.2-3.5,0.7h-0.1v-0.1c0.6-0.9,1.9-1.2,3.6-0.8c1.7,0.4,2.9,1.2,3.4,2.4
			c0.8,2,0.8,4.6,0,7.9c-0.3,1.3-0.9,2.4-1.7,3.1C71.3,93.4,70.6,93.8,69.6,94.4L69.6,94.4L69.6,94.4z"/>
		<path d="M73.1,81.7L73.1,81.7C73,81.7,73,81.6,73.1,81.7c1.2-3.5-0.3-10.5-4.5-20.8v-0.1h0.1C72.9,71.2,74.4,78.2,73.1,81.7
			C73.2,81.7,73.1,81.7,73.1,81.7L73.1,81.7z"/>
		<path d="M64.4,99.7L64.4,99.7c-0.1-0.5-0.3-1-0.6-1.4c-0.4-0.5-0.7-0.8-1.2-1s-0.8-0.1-1.1,0.2c-0.4,0.4-0.5,1-0.5,1.9
			c0,0,0,0.1-0.1,0.1s-0.1,0-0.1-0.1c0-1,0.2-1.6,0.6-2c0.3-0.3,0.7-0.4,1.2-0.2c0.5,0.2,0.9,0.5,1.3,1S64.5,99.2,64.4,99.7
			C64.5,99.7,64.5,99.7,64.4,99.7z"/>
		<path d="M65.2,100.1L65.2,100.1c-0.6-1-0.7-1.7-0.4-2.3c0.2-0.4,0.5-0.6,1-0.6c0.4-0.1,0.8,0.1,1.2,0.5c0.5,0.5,0.5,1.3,0.3,2.2
			c0,0,0,0.1-0.1,0c0,0-0.1-0.1,0-0.1c0.3-0.9,0.2-1.6-0.2-2.1c-0.4-0.4-0.7-0.5-1.1-0.5c-0.5,0-0.7,0.3-0.9,0.6
			C64.7,98.4,64.8,99.1,65.2,100.1C65.3,100,65.3,100.1,65.2,100.1L65.2,100.1z"/>
		<path d="M68.3,99.5C68.3,99.5,68.2,99.5,68.3,99.5c-0.1-0.4,0-0.8,0.1-1.2v-0.2c0.2-0.6,0.5-1.1,1-1.3l0,0h1.1l0,0l0.1,0.1
			c0.2,0.2,0.4,0.3,0.4,0.5l0,0l0.1,0.7l0,0L71,99c0,0,0,0.1-0.1,0.1c0,0-0.1,0-0.1-0.1l0.1-1l0.1-0.7c-0.1-0.1-0.2-0.3-0.4-0.4
			h-0.1h-1.1c-0.4,0.2-0.6,0.6-0.9,1.2v0.2C68.5,98.7,68.4,99.1,68.3,99.5C68.4,99.4,68.4,99.5,68.3,99.5L68.3,99.5z"/>
		<path d="M42.1,92.6L42.1,92.6c-2-0.5-3.6-1.7-5-3.5c-0.8-1-1.1-2.4-0.8-3.9c0.2-1.5,0.7-2.7,1.7-3.7c2-2.1,3.3-3.4,4.1-3.8h0.1
			v0.1c-0.8,0.5-2.1,1.7-4.1,3.8c-0.9,1-1.5,2.2-1.6,3.6c-0.3,1.5,0,2.8,0.8,3.8c1.4,1.8,3,3,4.9,3.5C42.1,92.4,42.1,92.5,42.1,92.6
			C42.1,92.5,42.1,92.6,42.1,92.6L42.1,92.6z"/>
		<path d="M41.4,93.4L41.4,93.4c-0.5-0.1-1.1-0.5-1.9-1.2c-0.7-0.7-1.1-1.3-1.3-1.7v-0.1h0.1c0.2,0.5,0.6,1,1.3,1.7
			C40.4,92.8,40.9,93.2,41.4,93.4C41.5,93.3,41.5,93.3,41.4,93.4C41.5,93.4,41.5,93.4,41.4,93.4L41.4,93.4z"/>
		<path d="M35.1,98.5l-1.7-0.1l0,0c0,0-0.1-0.1-0.1-0.2s0.1-0.3,0.4-0.5l0.2-0.2l-1.4,0.2c-1.1,0.1-1.6,0.1-1.7-0.2
			c-0.1-0.2,0-0.5,0.3-0.8l0.2-0.3h-0.7c-0.5,0-0.9-0.1-1.2-0.3c0,0,0,0,0-0.1c0.5-1,2.2-2,5.4-3.4l4-1.5h0.1v0.1l-4,1.5
			C31.7,94,30,95.1,29.5,96c0.2,0.2,0.5,0.2,1,0.2h0.8c0,0,0,0,0.1,0v0.1l-0.3,0.4c-0.2,0.3-0.3,0.5-0.2,0.7
			c0.1,0.2,0.6,0.3,1.6,0.1l1.6-0.2h0.1v0.1l-0.3,0.4l0,0c-0.3,0.2-0.3,0.3-0.3,0.4l0,0l1.7,0.1L47,97.7c1.5-0.2,2.6-0.4,3.1-0.6
			c1-0.4,1.5-0.9,1.6-1.6c0-0.6-0.3-1.2-0.8-1.8c-0.5-0.8-0.7-1.4-0.6-2.1c0,0,0-0.1,0.1,0c0,0,0.1,0,0,0.1c-0.2,0.6,0,1.2,0.5,1.9
			c0.5,0.6,0.9,1.3,0.9,1.9c-0.1,0.8-0.6,1.4-1.7,1.8c-0.6,0.2-1.6,0.4-3.2,0.6L35.1,98.5L35.1,98.5z"/>
		<path d="M36.8,98.4L36.8,98.4C36.7,98.4,36.7,98.3,36.8,98.4c0.6-0.7,0.7-1.1,0.5-1.4c-0.2-0.4-0.5-0.5-0.9-0.6
			c-0.5,0-1.2,0.4-2.3,1.1H34v-0.1c1.1-0.7,1.9-1.1,2.4-1.1c0.5,0.1,0.8,0.3,1,0.6C37.7,97.3,37.5,97.8,36.8,98.4
			C36.9,98.4,36.8,98.4,36.8,98.4L36.8,98.4z"/>
		<path d="M35.1,96.8L35.1,96.8L35.1,96.8c0.2-0.9,0-1.4-0.4-1.7L33.4,95c-0.2,0.1-0.8,0.4-2,1.4h-0.1v-0.1c0.8-0.8,1.6-1.3,2-1.5
			l0,0l1.3,0.1l0,0C35.3,95.3,35.4,95.9,35.1,96.8C35.2,96.8,35.1,96.8,35.1,96.8z"/>
		<path d="M33.3,95L33.3,95C33.2,95,33.2,94.9,33.3,95c0-0.2,0-0.4,0-0.5c-0.1-0.2-0.3-0.5-0.8-0.7v-0.1h0.1
			c0.5,0.3,0.8,0.5,0.9,0.8C33.5,94.6,33.4,94.8,33.3,95L33.3,95L33.3,95z"/>
		<path d="M49.7,92.9L49.7,92.9C49.7,92.9,49.7,92.8,49.7,92.9c0-0.4,0.5-1.2,1.6-2.7l1.9-2.3h0.1V88l-1.9,2.3
			C50.4,91.7,49.8,92.5,49.7,92.9C49.8,92.8,49.7,92.9,49.7,92.9L49.7,92.9z"/>
		<path d="M80.2,79.9c-0.8,0-1.5-0.1-2.3-0.2c-1.5-0.2-3-0.9-4.4-1.8v-0.1h0.1c1.4,1,2.8,1.6,4.4,1.8c2.2,0.4,4.6,0.2,7.6-0.7
			c2.9-0.9,5.4-3.1,7.2-6.5c0.7-1.3,1.3-2.6,1.7-4.1c0.3-1.3,0.5-2.3,0.4-3.1c0,0,0-0.1,0.1-0.1s0.1,0,0.1,0.1
			c0.1,0.8-0.1,1.9-0.4,3.2c-0.4,1.5-1,2.9-1.7,4.2c-1.9,3.4-4.3,5.6-7.3,6.5C83.6,79.6,81.8,79.9,80.2,79.9z"/>
		<path d="M78.4,91.2c-2.1,0-3.9-0.3-5.4-0.7c0,0-0.1-0.1,0-0.1c0,0,0.1-0.1,0.1,0c1.6,0.5,3.6,0.8,6,0.7c3.7-0.1,6.7-1.2,9.1-3.4
			c3-2.7,5.3-5.7,6.7-8.9c1.6-3.8,2.2-8.4,2-13.6c0,0,0-0.1,0.1-0.1c0,0,0.1,0,0.1,0.1c0.2,5.3-0.4,9.9-2,13.7
			c-1.4,3.3-3.7,6.3-6.8,9c-2.4,2.2-5.4,3.3-9.2,3.4C78.9,91.2,78.7,91.2,78.4,91.2L78.4,91.2z"/>
		<path d="M79.5,88.6l-4.9-0.2c0,0-0.1,0-0.1-0.1c0,0,0-0.1,0.1-0.1l4.9,0.2c2.9-0.1,5.5-0.9,8.1-2.4c2.6-1.4,4.8-3.7,6.6-6.8
			c1.1-1.9,1.9-3.7,2.2-5.3c0,0,0-0.1,0.1-0.1c0,0,0.1,0,0.1,0.1c-0.4,1.6-1.1,3.4-2.3,5.3c-1.8,3.2-4.1,5.5-6.6,6.9
			C85.1,87.7,82.4,88.5,79.5,88.6z"/>
		<path d="M59.4,88.2C59.4,88.2,59.3,88.2,59.4,88.2C59.3,88.1,59.3,88.1,59.4,88.2c3.7-3.3,5.2-9.3,4.3-17.7
			c-0.3-3.2-1.5-6.8-3.7-10.9c-2.3-4.4-4.6-7-6.8-7.8c0,0-0.1-0.1,0-0.1c0,0,0.1-0.1,0.1,0c2.2,0.8,4.5,3.5,6.8,7.9
			c2.2,4.1,3.4,7.7,3.7,10.9C64.7,78.9,63.2,84.9,59.4,88.2L59.4,88.2L59.4,88.2z"/>
	</g>
</g>
</svg>
