<?xml version="1.0" encoding="utf-8"?>
<!-- Generator: Adobe Illustrator 27.0.0, SVG Export Plug-In . SVG Version: 6.00 Build 0)  -->
<svg version="1.1" id="Capa_1" xmlns="http://www.w3.org/2000/svg" xmlns:xlink="http://www.w3.org/1999/xlink" x="0px" y="0px"
	 viewBox="0 0 120 120" style="enable-background:new 0 0 120 120;" xml:space="preserve">
<style type="text/css">
	.st0{fill-rule:evenodd;clip-rule:evenodd;fill:#C5D3D6;}
	.st1{fill-rule:evenodd;clip-rule:evenodd;fill:#E1EDF0;}
	.st2{fill-rule:evenodd;clip-rule:evenodd;}
	.st3{fill-rule:evenodd;clip-rule:evenodd;fill:#FFFFFF;}
	.st4{fill-rule:evenodd;clip-rule:evenodd;fill:#F1F2D9;}
	.st5{fill-rule:evenodd;clip-rule:evenodd;fill:#E5E66E;}
	.st6{fill-rule:evenodd;clip-rule:evenodd;fill:#C1AE62;}
	.st7{fill-rule:evenodd;clip-rule:evenodd;fill:#D5C9BA;}
</style>
<g>
	<path class="st0" d="M65.6,71h1.2c0.9,0,1.9,0,2.7-0.2v0c0.9,0.4,1.4,0.9,1.3,1.2c0,0.1-0.1,0.3-1,0.3C68,72.3,66.8,71.7,65.6,71
		L65.6,71z M89.7,92.4c-0.7-0.2-2.1-0.5-3,0c1.5,2.2,3,5.4,4.1,9.3c0.2,0,0.4-0.1,0.6-0.1c0.1-0.1,0.2-0.2,0.3-0.5
		C92.1,99.5,91.5,95.2,89.7,92.4L89.7,92.4L89.7,92.4z M36.6,97.7c-0.1-1.1-0.5-2-1.1-2.7c-0.8,0.9-1.7,2.3-2.7,4.1
		C34,98.7,35.3,98.2,36.6,97.7L36.6,97.7z M25.7,99.5c0.1,0.2,0.1,0.3,0.2,0.4s0.3,0.4,1,0c0.2-0.9,1.2-2.5,3.4-5.3
		c0-0.8-0.2-1.4-0.6-1.8C28.2,94.3,26.4,96.7,25.7,99.5z M46.2,69.2c0-0.2,0-0.4,0-0.8c-0.1-1.2-0.1-2.5-0.8-2.9
		c-0.4-0.3-1.1-0.2-1.9,0.2C43.4,67.1,44.9,68,46.2,69.2L46.2,69.2L46.2,69.2L46.2,69.2z M65.6,70.7h1.2c1.4,0,2.9,0,3.2-0.7
		c0.2-0.3,0-0.9-0.4-1.6c-1.1,0.9-3.1,2-5.6,2.2C64.3,70.7,65,70.7,65.6,70.7L65.6,70.7z"/>
	<path class="st1" d="M65.9,61.6L65.9,61.6c0.1,0,0.1,0,0.1,0c0.1,0,0.1,0,0.2-0.1v0.1c0.2,0,0.3,0,0.4,0c0.3,0.2,0.5,0.7,0.5,1.2
		c0.1,1.7-0.4,2-1.5,2.5c-0.4,0.2-0.9,0.5-1.5,0.9c-0.7,0.5-0.8,0.3-0.8,0.3c-0.2-0.2,0.4-1.9,1.7-3.9
		C65.3,62.1,65.6,61.8,65.9,61.6L65.9,61.6L65.9,61.6L65.9,61.6z M41.9,73c-0.1-0.1-0.2-0.2-0.4-0.3l-0.1,0.1
		c-0.3-0.2-0.5-0.3-0.8-0.6c0.1-0.6,0.5-1.1,1.1-1.3c0.7-0.3,1.6-0.3,2.3,0.1c2.1,1.5,2,2.1,2,2.2c-0.1,0.3-0.6,0.4-1.3,0.3
		C43.6,73.5,42.8,73.4,41.9,73L41.9,73L41.9,73z M41.7,73.6c-0.2,0.3-1.2,0.5-2.3,0c0.2-0.6,0.6-0.9,1.1-1.1
		c0.4,0.3,0.8,0.6,1.2,0.8C41.8,73.4,41.8,73.5,41.7,73.6z M89,102.8c-0.3,0.4-1,0.1-1.5-0.2c-3.9-2.3-6.9-4-8.9-5.9
		c0.9-2.6,3.6-2.2,5.7-1.9c0.3,0,0.6,0.1,0.9,0.1C88.1,97.7,89.7,101.8,89,102.8L89,102.8z"/>
	<path class="st1" d="M86.5,92.5c-0.6,0.4-0.9,1.1-1,2.1c1.8,1.8,3.3,4.3,3.8,6.2h0.1c0,0,0.2,0.6,0.8,0.8c0.2,0.1,0.4,0.1,0.6,0.1
		c-1.1-3.9-2.6-7.1-4.1-9.3C86.6,92.4,86.5,92.5,86.5,92.5L86.5,92.5L86.5,92.5L86.5,92.5z M34,94c-1.2-0.4-2.4-0.1-3.3,0.8
		c-1,1.3-3.1,3.9-3.3,5.2l0.1,0.1c0,0-0.1,0-0.1,0.1c0,0.1,0,0.2,0.1,0.3c0.1,0.2,0.6,0.2,1.4,0c1.4-0.4,2.7-0.8,4-1.3
		c1-1.8,1.9-3.2,2.7-4.1C35,94.6,34.5,94.2,34,94L34,94z M29.7,92.8c0,0-0.1-0.1-0.2-0.2c-0.5-0.4-1.3-0.5-2.2-0.2
		c-1.1,1.1-2.1,5.5-1.6,7.2C26.4,96.7,28.2,94.2,29.7,92.8z M43.5,65.6c0,0-0.2,0.1-0.3,0.1c-0.3,0.1-0.8,0.4-0.8,0.9
		c0,0.5,0.5,1.1,1.5,1.6c0.4,0.2,0.7,0.4,1,0.6c0.5,0.3,1.1,0.7,1.2,0.6c0,0,0.1-0.1,0.1-0.3C44.9,68,43.4,67.1,43.5,65.6L43.5,65.6
		L43.5,65.6L43.5,65.6z M67.5,66.7c-1,0-2,0.8-2.8,2c-0.5,0.8-0.9,1.5-0.8,1.8c0,0.1,0.1,0.1,0.2,0.1c2.5-0.2,4.5-1.3,5.6-2.2
		c-0.2-0.3-0.4-0.7-0.7-1C68.5,66.9,68,66.6,67.5,66.7C67.5,66.7,67.5,66.7,67.5,66.7z"/>
	<path class="st2" d="M69.4,35.1c-0.3-0.1-0.5-0.2-0.8-0.3c0.6,1.2,0.3,2.9-0.3,3.8c-0.8,1.1-1.5,1.8-2.5,1.5
		c-0.5-0.1-0.8-0.8-0.9-1.6c-0.7,2.4-1.2,6.5,0.8,8c0.6,0.4,1.1,0.5,1.5,0.4c1.3-0.4,2.2-2.9,2.9-4.6C71.1,39.9,70.6,35.7,69.4,35.1
		L69.4,35.1L69.4,35.1L69.4,35.1z"/>
	<path class="st3" d="M65.9,40.1c0.9,0.3,1.7-0.3,2.5-1.5c0.6-0.9,0.9-2.6,0.3-3.8c-0.4-0.1-0.8-0.1-1.1,0.1
		c-0.8,0.3-1.5,1.2-2.1,2.6c-0.2,0.3-0.3,0.7-0.4,1C65.1,39.3,65.5,39.9,65.9,40.1L65.9,40.1L65.9,40.1L65.9,40.1z M38.6,38.2
		c0.4,1.5,1,2.7,2.1,2.5c0.6-0.1,0.7-0.7,0.8-1.5c-0.7-1.3-1.6-2.2-2.4-2.5C38.7,36.9,38.4,37.4,38.6,38.2z"/>
	<path class="st2" d="M41.7,39.5c-0.1-0.1-0.1-0.2-0.2-0.4c0,0.8-0.2,1.4-0.8,1.5c-1.1,0.2-1.7-1-2.1-2.5c-0.2-0.8,0.1-1.3,0.5-1.6
		c-0.1,0-0.2-0.1-0.3-0.1c-0.4-0.1-0.8,0.1-1.2,0.5c-0.8,1-1,2.2-0.8,3.7c0,0.1,0,0.2,0,0.2c0.1,0.7,0.3,1.4,0.5,2.1
		c0.4,1.6,1.5,3.8,2.9,4.5c0.5,0.3,1.1,0.3,1.6,0.1c0.6-0.2,1-0.7,1.2-1.3C43.6,44.9,43.1,42.3,41.7,39.5L41.7,39.5L41.7,39.5
		L41.7,39.5z"/>
	<path class="st4" d="M62.4,51.9c2-1.5,2.8-3.2,3.2-5.1c-1.5-1.1-1.7-3.4-1.4-5.5c-0.1,0.2-0.3,0.4-0.4,0.7c-1.8,3-5.6,9.2-11,9.2
		c-4.5,0-7.5-3.9-9.3-7.7c0.2,1.2,0.2,2.3-0.1,3.1c-0.3,0.7-0.8,1.2-1.4,1.5c-0.6,0.3-1.2,0.2-1.9-0.1c-0.9-0.4-1.6-1.3-2.1-2.4
		c1.1,3.3,2.8,5.7,5,7.2c2.8,1.9,4,3.2,4.8,4.2c0.3,0.3,0.5,0.6,0.8,0.9c0.3,0.3,0.4,0.5,0.6,0.7c0.5,0.7,0.8,1,3.7,1.4
		c2.6,0.3,4-0.2,5.1-1.1C57.5,55.5,60,53.7,62.4,51.9L62.4,51.9L62.4,51.9L62.4,51.9z"/>
	<path class="st4" d="M71,72.3L71,72.3c-0.2,0.2-0.6,0.3-1.2,0.3c-2,0-3.4-0.8-4.7-1.7c-0.8,0-1.3-0.1-1.5-0.4
		c-0.2-0.4,0.1-1,0.8-2.1c0.3-0.4,0.5-0.7,0.9-1l0.1-1.6c-0.4,0.2-0.7,0.4-1.1,0.6c-0.4,0.3-0.9,0.6-1.2,0.3
		c-0.2-0.2-0.1-0.8,0.1-1.5c-5.6,0.7-8.3-2.1-10.4-5h-0.1c-3-0.3-3.4-0.8-3.9-1.5c-0.2-0.2-0.3-0.4-0.5-0.6
		c-0.3-0.3-0.5-0.6-0.8-0.9c-0.9-1-1.9-2.3-4.7-4.2c-1-0.6-1.8-1.4-2.5-2.3c0.1,4.1,2.5,7.3,4.4,9.7l0,0.1c1.5,1.9,1.6,3.3,1.4,5
		h-0.1c0.5,0.6,0.6,1.7,0.7,2.9c0.1,0.8,0,1.2-0.3,1.3c-0.3,0.2-0.7,0-1.3-0.4c0,0.4-0.1,1.2-0.4,1.5c1.5,1.1,2.2,1.9,1.9,2.5
		c-0.2,0.4-0.7,0.6-1.7,0.6c-1.1-0.1-1.9-0.2-2.7-0.4c0,0.1,0,0.2-0.1,0.3c-0.3,0.5-1.5,0.7-2.5,0.2c1,4.1,2.7,7.3,5.1,9.8
		c3.1-3,9.1-2.5,15.9-1.7c5.2,0.6,10.2-0.1,13.7-1.3c3.2-4,4-8,4.4-12.4C76.3,71,75.4,71.5,71,72.3L71,72.3L71,72.3L71,72.3z
		 M35.9,31.5c0.3,0.6,0.5,1,0.6,1.3c0.2-0.6,0.4-1.3,0.7-1.9l-0.1,0c0.1-0.3,0.2-0.7,0.3-1c0.1-0.6,0.3-1.2,0.6-1.8
		c-1.5-1.4-2.7-2-3.9-2.3C34.6,28.1,35.3,30.3,35.9,31.5L35.9,31.5L35.9,31.5z"/>
	<path class="st5" d="M84,62.2c-0.6-0.2-1.1-0.3-1.7-0.3c0.6-1.8,1-3.8,1.3-5.8C83.9,57.9,84.3,59.8,84,62.2L84,62.2z M38.2,47.3
		c-1.9-0.3-6.4,0.2-8.3,4.1c1.1-6.8,4.5-12.6,6.2-14.6C36.2,39.9,36.7,43.9,38.2,47.3z"/>
	<path class="st5" d="M29.8,52.1l0.1,0.1c0.4-1,0.9-1.7,1.5-2.3c-0.6,2.8-0.7,5.4-0.1,7.9c-0.5,0.9-0.8,2-0.9,3.2
		c-0.1-0.2-0.1-0.4-0.2-0.6C29.5,57.6,29.5,54.8,29.8,52.1L29.8,52.1L29.8,52.1z M39.2,73.8c0.2,0.8,0.4,1.7,0.7,2.5
		c-2.8,0.9-8.8,0.9-11.9-2.4c0.5-2.6,1.7-5.5,3.8-8.1C34,70.1,37.1,73.5,39.2,73.8L39.2,73.8L39.2,73.8L39.2,73.8z"/>
	<path class="st5" d="M27.9,74.2c1.6,1.7,3.9,2.5,6.3,2.8c-0.1,1.8,0.2,6.4,1.8,8.6c-0.5-0.1-0.9-0.1-1.4-0.2
		c-3-0.6-5.5-1.8-6.7-2.4c-0.3-1-0.4-2-0.5-3C27.5,78.7,27.5,76.6,27.9,74.2L27.9,74.2L27.9,74.2z M59.7,22
		c-6.5-1.9-11.1-0.3-12.4,0.4c-0.9,0.4-1.8,0.8-2.7,1.3c-0.1,0.8-0.3,6.4,0.9,9.1c3-1.3,6.1-2.3,7.2-1.8c0.2,0.1,0.4,0.3,0.5,0.5
		c0.3-0.4,0.9-0.6,1.7-0.7c1.4-0.2,3.3,0,5.2,0.5C59.3,29.4,59.6,24.3,59.7,22L59.7,22L59.7,22z M43.5,24.3
		c-2.8,1.7-5.4,4.2-6.8,8.9l-0.1,0c0.1,0.3,0,0.5,0,0.8c-0.1,0.4-0.1,0.8-0.1,1.2v1.1l0.1,0.1c0,0,0,0,0,0.1c0,0.7,0.1,1.3,0.1,2
		c0.1-0.6,0.4-1.1,0.8-1.6c0.4-0.5,0.9-0.7,1.5-0.6c0.2,0,0.4,0.1,0.5,0.2l-0.1-0.1c0.7-0.7,3-2,5.4-3.1
		C43.1,31.5,43.2,26.9,43.5,24.3L43.5,24.3L43.5,24.3L43.5,24.3z M69.1,28.3c-1.6-2.5-3.7-3.9-5.4-4.8c-0.4-0.2-0.9-0.4-1.3-0.6
		c0,0.9-0.3,6.3-1,8.8c2.5,0.8,4.8,1.9,6,2.9c0.1,0,0.1-0.1,0.2-0.1c0.2-0.1,0.4-0.1,0.7-0.1C67.9,32.2,68.5,30.1,69.1,28.3
		C69.1,28.3,69.1,28.3,69.1,28.3z M72.3,32.5c-0.3,0.4-0.5,1-0.6,1.7l0,0.2h-0.1c0,0.3,0,0.6,0.1,0.9c0.6,3.9-0.3,7.7-1.9,10.8
		c0.2,0.7,0.3,1.4,0.3,2.2c0.8-0.7,2.6-2.1,5-2.3C75.7,40.5,73.9,35.1,72.3,32.5L72.3,32.5L72.3,32.5L72.3,32.5z M76.1,37.1
		c0.8,2.6,1.3,5.6,1.5,9c1.3,0.3,2.6,0.9,3.8,1.9c0-2.5-1-5.7-2.3-8.5C77.8,38.2,76.7,37.3,76.1,37.1L76.1,37.1L76.1,37.1L76.1,37.1
		z"/>
	<path class="st5" d="M79.2,47c-1-0.5-1.9-0.7-3-0.8c-3.1-0.1-5.4,1.8-6,2.5c0,1.6-0.3,3.4-0.7,5.2c1.8-1,5.3-1,8.3,0.6
		c0.6,0.3,1.1,0.7,1.6,1.1C80.4,53,79.9,49.8,79.2,47L79.2,47L79.2,47L79.2,47z M82.5,49.7c-0.6-0.7-1.3-1.4-2-1.8
		c0.2,2.1,0.2,6-0.3,8.7h0c0.6,0.7,1.1,1.6,1.4,2.5C82.2,56.2,82.7,52.5,82.5,49.7L82.5,49.7z M75,63.1c-1.9-1.7-4.9-1.7-8-1.6
		c0.3,0.3,0.4,0.8,0.4,1.2c0.1,2-0.6,2.3-1.7,2.8l-0.1,0.1h0l-0.1,1.4c0.6-0.5,1.3-0.8,1.9-0.8c0.7,0,1.3,0.3,1.7,0.8
		c0.6,0.8,1,1.5,1.2,2c2.8-0.3,4.9-1.5,6.5-3.1C76.4,64.9,75.8,63.9,75,63.1L75,63.1L75,63.1z"/>
	<path class="st5" d="M77.7,54.9c-0.3-0.2-0.6-0.3-0.9-0.4c0,2.6-0.8,6.8-1.9,8.2c0.1,0.1,0.2,0.2,0.3,0.3c0.8,0.7,1.5,1.7,1.9,3
		c2.3-2.5,3.4-5.7,3.8-7.7C80.2,56.8,79.1,55.7,77.7,54.9C77.7,54.9,77.7,54.9,77.7,54.9z M69.5,54.4L69.5,54.4
		c-0.8,2.5-1.9,5-3.2,6.8c0.1,0,0.2,0,0.2,0c0,0,0.1,0,0.1,0.1c2.2-0.2,4.4-0.2,6.3,0.4c1.6-2.5,2.4-5.4,2.8-7.6
		C73.2,53.3,70.7,53.5,69.5,54.4L69.5,54.4L69.5,54.4z M90.2,42.2c-1.5-0.3-2.8,0.2-3.5,0.8l0,0c-0.5,2.5-0.9,4.1-1.4,5.8
		c1.5-0.7,3.6-0.7,5.4,0c0.3,0.1,0.5,0.2,0.7,0.3c-0.1-2.4-0.3-4.7-0.8-6.8C90.6,42.2,90.4,42.2,90.2,42.2
		C90.2,42.1,90.2,42.2,90.2,42.2z"/>
	<path class="st5" d="M87.3,40.3c-0.2,0.8-0.3,1.5-0.4,2.2c0.9-0.6,2.3-0.9,3.5-0.6c0.1,0,0.2,0.1,0.3,0.1c-0.4-1.7-1.1-3.2-1.8-4.4
		C88.1,37.9,87.6,38.8,87.3,40.3L87.3,40.3L87.3,40.3z M91.5,49.5c-0.3-0.2-0.6-0.3-0.9-0.4c-1.8-0.7-3.9-0.7-5.4,0.1l0-0.1
		c-0.2,0.6-0.4,1.2-0.5,1.8l-0.2-0.1c0.4,1.3,0.7,2.8,0.9,4.3c0.9,0.1,3.6,0.4,5.6,2.1C91.4,54.8,91.6,52.1,91.5,49.5L91.5,49.5
		L91.5,49.5L91.5,49.5z"/>
	<path class="st5" d="M87,63.4l-0.3-0.1c0.9-2.1,0.8-6.9,0.8-7.6c-0.7-0.2-1.3-0.3-2-0.3c0.4,2.8,0.7,5.6,0.5,7.6
		c1.1,0.5,2.1,1.2,2.9,2c0.8-1.6,1.5-4.3,2-7.4c-1-0.9-2.1-1.4-3.2-1.7C87.8,56.8,87.9,61.4,87,63.4L87,63.4L87,63.4z M80.2,66.3
		c-0.1,0.2-0.2,0.3-0.3,0.4l-0.2,0.2c-0.3,0.3-0.5,0.6-0.7,0.9c-0.2,2.5-0.5,4.9-1.3,7.2c2.9,0,5.4-0.4,7.4-1.1
		C84.4,71.2,82.8,68.5,80.2,66.3L80.2,66.3L80.2,66.3z M72.3,83.1c-0.6,0.5-1.2,1-1.8,1.5c-0.7,0.5-1.4,1-2.3,1.4
		c0.5,1.4,1.4,2.5,2.5,3.3h0.1v0.1c2.1,1.4,5,2,7.6,1.8c2.3-1.7,4.3-4.2,5.6-7C80.8,85,76.7,85,72.3,83.1L72.3,83.1L72.3,83.1
		L72.3,83.1z"/>
	<path class="st5" d="M85.2,74.3c-2.1,0.7-4.6,1.1-7.6,1.1c-0.9,2.6-2.4,5.1-5,7.6c2.8,1.1,5.4,1.6,7.7,1.5c1.5-2.4,2.3-6.8,2.2-9.4
		h0.3c0.1,2.6-0.7,7-2.1,9.4c1.2-0.1,2.4-0.2,3.5-0.5C85.5,80.9,85.9,77.5,85.2,74.3L85.2,74.3L85.2,74.3L85.2,74.3z M84.5,89.8
		c-1.4,0.9-3,1.4-5.6,1.7c-2.7,0.3-5.7-0.2-8-1.7c0.4,1.6,2.9,3.3,5.1,4.9c0.8,0.6,1.6,1.1,2.3,1.7c1-2.7,3.9-2.3,6.1-2
		c0.3,0,0.5,0.1,0.8,0.1c0.1-1.1,0.4-1.8,1.1-2.3c0.1,0,0.1-0.1,0.2-0.1C85.8,91.2,85.1,90.4,84.5,89.8L84.5,89.8L84.5,89.8
		L84.5,89.8z M40.2,77.1c-0.1-0.2-0.1-0.4-0.2-0.6c-1.4,0.5-3.4,0.7-5.4,0.5c-0.1,1.9,0.2,6.6,2,8.6c1.1,0.1,2.1,0.1,3,0
		C38.5,82.5,39.2,79.3,40.2,77.1L40.2,77.1L40.2,77.1z M38.2,93.1c0.7-0.2,1.7-0.5,2.3-1.3c-0.6,0-1.3,0.1-1.9,0.1
		c-3.6,0.1-6.3-1.3-8.1-3.4l0.2,0.3c-1.3,0.8-2.2,1.7-3,3.2c0.9-0.2,1.6,0,2.1,0.4c0.6,0.4,0.9,1.1,0.9,2c1-0.8,2.2-1.1,3.4-0.6
		c0.6,0.2,1.1,0.6,1.6,1.1C36.6,93.8,37.5,93.3,38.2,93.1C38.2,93.1,38.2,93.1,38.2,93.1z"/>
	<path class="st5" d="M40.2,87.1c-0.2-0.4-0.4-0.8-0.5-1.2c-1.6,0.2-3.3,0.1-5.1-0.2c-2.8-0.6-5.2-1.7-6.5-2.3
		c1.3,4.6,4.7,8.4,10.4,8.2c0.8,0,1.5-0.1,2.2-0.1C41.3,90.6,41.3,89.2,40.2,87.1L40.2,87.1L40.2,87.1z M43.3,62.6
		c-1.8,0.1-4,0.6-5.7,1.8c-1.7,1.2-2.7,3-2.9,5.1h-0.2c1.7,2.2,3.4,3.7,4.7,3.9c0.2-0.6,0.6-1,1.3-1.3c0.1-0.7,0.6-1.2,1.3-1.6
		c0.8-0.4,1.7-0.3,2.5,0.1c0.3-0.3,0.4-1,0.4-1.6c-0.3-0.2-0.6-0.4-0.9-0.6c-1.1-0.7-1.7-1.3-1.6-1.9c0-0.5,0.4-0.9,1-1.1
		c0.2-0.1,0.3-0.1,0.4-0.2C43.7,64.3,43.8,63.6,43.3,62.6L43.3,62.6L43.3,62.6z"/>
	<path class="st5" d="M39.6,54.1c-1.1-0.1-2.2,0-3.3,0.3c0.3,1.5,1.6,7.3,2.6,8.9l-0.1,0.1c1.5-0.7,3-1,4.4-1.1
		c-0.3-0.5-0.7-1.1-1.3-1.9C40.9,59.2,40.1,56.7,39.6,54.1L39.6,54.1L39.6,54.1z"/>
	<path class="st5" d="M38.4,47.7c-1.2-0.3-4.3-0.1-6.5,1.7c-0.7,2.8-0.8,5.4-0.3,7.8c0.4-0.6,0.8-1.1,1.3-1.5c0.8-0.7,1.9-1.2,3-1.6
		v0l0.3-0.1l0,0c1.1-0.3,2.2-0.4,3.3-0.3c-0.4-2.1-0.8-4.2-0.9-5.7C38.5,47.9,38.5,47.8,38.4,47.7L38.4,47.7L38.4,47.7z"/>
	<path class="st5" d="M33.1,56c-1.6,1.4-2.5,3.4-2.5,5.9c0.9,2.8,2.3,5.4,3.7,7.4c0.3-2.2,1.3-3.9,3.1-5.2c0.2-0.1,0.4-0.3,0.6-0.4
		c-1.8-2.2-2.3-6.6-2.6-9.1C34.6,55,33.8,55.4,33.1,56L33.1,56L33.1,56z M52.8,20.8v-2.2c-2.7,0.3-5.5,0.9-7.6,2.1l-0.4,0.2
		c-0.9,0.5-1.7,0.9-2.6,0.9c-0.7,1.8-0.8,1.9-2.2,1c-1.1-0.7-1.6-1.5-2-2.5c-2-0.6-4.4-1-5.2-0.3c-0.3,0.2-0.3,0.5-0.2,1
		c0,0.1,0.1,0.2,0.1,0.4c0-0.1,0.1-0.1,0.1-0.1c0.3-0.3,0.9-0.2,2,0.4l0.7,0.3c1.9,0.9,4.1,1.9,4.4,3.2c0.1,0.5-0.1,0.9-0.5,1.4
		c-1.1,1.1-1.5,2.5-1.8,3.6c2.4-4.5,6.3-6.3,9.5-7.8c0.9-0.4,2.9-1.2,5.9-1.3l0,0L52.8,20.8L52.8,20.8L52.8,20.8z M71.8,18.8
		c1.6-0.9,2.6-0.2,3.6,1.4c0-0.2-0.1-0.4-0.1-0.6c-0.3-1.3-0.4-2.1-0.9-2.4c-0.3-0.2-0.9-0.2-1.7,0.1c-2.2,0.6-5.3,1.8-7.3,2.7
		c-1.3,0.5-2,0.2-3.2-0.4c-0.2-0.1-0.5-0.2-0.7-0.3c-1.5-0.7-4-1-6.7-0.9c0.1,0.7-0.1,1.5-0.6,2.4c2.7,0.1,6,0.6,9.7,2.4
		c0.2,0.1,0.4,0.2,0.6,0.3C65,21.7,69.9,19.9,71.8,18.8L71.8,18.8L71.8,18.8z M39.6,36.5c1,0.5,1.8,1.7,2.4,2.9
		c0.4,0.7,0.7,1.5,1,2.3H43c0.3,0.8,0.6,1.5,1,2.2c1.1-1.8,6-3.6,8.7-3.8c-0.7-1.8-0.9-6.6-1-8.8C48.8,31.3,41.2,35,39.6,36.5
		C39.6,36.4,39.6,36.5,39.6,36.5z"/>
	<path class="st5" d="M53.3,40.3L53.3,40.3h-0.4c-3,0.2-7.8,2.2-8.7,3.8h0c1.8,3.4,4.6,6.7,8.6,6.7c1.2,0,2.3-0.3,3.3-0.8
		c0.2-2.7,1.8-5.7,3.6-8.4C57.7,40.8,55.1,40.3,53.3,40.3L53.3,40.3L53.3,40.3z M66.2,34.3c-2.7-1.8-8.4-3.6-11.4-3.1
		c-0.1,0-0.2,0-0.3,0.1C53.7,33,53.9,36.8,54,40c1.8,0.1,4.1,0.6,5.9,1.3C62.1,38.2,64.7,35.5,66.2,34.3L66.2,34.3L66.2,34.3z"/>
	<path class="st6" d="M85.1,55.1v0.3h0.1c0.4,2.7,0.7,5.5,0.6,7.5c-0.5-0.2-0.9-0.4-1.4-0.5c0.3-2.7-0.1-4.8-0.5-6.8l-0.1-0.5
		c0.2-1.8,0.3-3.5,0.2-5.1C84.4,51.5,84.8,53.3,85.1,55.1L85.1,55.1L85.1,55.1z M82,43.4c-1.9-3.6-4.6-6.3-6-6.7l0,0.1
		c-0.6-1.9-1.5-3.6-2.5-5C76.8,33.7,79.9,38,82,43.4L82,43.4z M40.1,22.7c1.4,0.9,1.5,0.8,2.2-1c-0.4,0-0.8-0.1-1.3-0.4
		c-0.5-0.3-1.6-0.7-2.9-1.1C38.5,21.2,38.9,22,40.1,22.7L40.1,22.7L40.1,22.7z M62,22.8c-0.7-0.3-1.5-0.5-2.3-0.8
		c-0.2,2.2-0.4,7.4,0.3,9.3c0.3,0.1,0.6,0.2,0.9,0.3C61.7,29,62,22.9,62,22.8C62,22.8,62,22.8,62,22.8z M44.7,33.2
		c0.2-0.1,0.3-0.1,0.4-0.2c-1.2-2.7-1-7.8-0.9-9.1c-0.3,0.2-0.5,0.3-0.8,0.4C43.2,26.9,43,31.5,44.7,33.2z M77.2,46.1
		c-0.3-6.2-1.7-10.9-4.2-14.3c-0.1,0.2-0.3,0.3-0.4,0.4c-0.1,0.1-0.2,0.2-0.3,0.4c1.6,2.6,3.3,8,3,13.4c0.3,0,0.6-0.1,1,0
		C76.6,46,76.9,46,77.2,46.1L77.2,46.1L77.2,46.1z"/>
	<path class="st6" d="M83.6,50.5c0-1.6-0.2-3.1-0.6-4.3c0-0.1-0.1-0.2-0.1-0.4l-0.1,0c-1-2.6-2.4-4.8-3.8-6.4c1.4,2.8,2.3,6,2.3,8.5
		C82.1,48.7,82.9,49.5,83.6,50.5L83.6,50.5C83.6,50.5,83.6,50.5,83.6,50.5z M80.1,47.6L80.1,47.6c-0.3-0.2-0.6-0.4-0.9-0.5
		c0.7,2.9,1.2,6,0.2,8.7c0.2,0.2,0.3,0.3,0.5,0.5C80.4,53.4,80.4,49.4,80.1,47.6L80.1,47.6L80.1,47.6z M83.6,51.1
		c-0.3-0.5-0.7-1-1.1-1.4c0.2,2.8-0.3,6.6-0.9,9.3c0.3,0.8,0.4,1.5,0.5,2.3c0.6-1.9,1-4.1,1.3-6.2V55l0,0
		C83.6,53.7,83.6,52.3,83.6,51.1L83.6,51.1L83.6,51.1z M70.3,70.1c-0.1,0.2-0.3,0.4-0.5,0.5c0.7,0.4,1.3,0.9,1.3,1.3
		c3.6-0.6,4.8-1.1,6.4-2.9h-0.2c-0.1-1.1-0.3-2.1-0.5-2.9c-1.6,1.6-3.7,2.8-6.5,3.1C70.4,69.5,70.4,69.8,70.3,70.1L70.3,70.1
		L70.3,70.1z M80.9,58.1c-0.4,2-1.5,5.3-3.8,7.7c0.3,0.9,0.5,1.9,0.6,3c0.5-0.6,1.1-1.3,1.8-2.2l0.2-0.2c0.9-1.1,1.6-2.6,2.2-4.2
		C81.9,60.7,81.5,59.3,80.9,58.1z M76.5,54.3c-0.2-0.1-0.5-0.2-0.7-0.2c-0.4,2.2-1.2,5.1-2.8,7.6c0.6,0.2,1.2,0.4,1.7,0.8
		C75.7,61.1,76.5,56.8,76.5,54.3L76.5,54.3L76.5,54.3z M94.2,51.5c-0.1-2.4-0.3-4.6-0.8-6.5l-0.1,0c-0.7-1.7-1.8-2.4-2.7-2.7
		c0.5,2.1,0.7,4.4,0.8,6.8C92.7,49.7,93.6,50.5,94.2,51.5L94.2,51.5L94.2,51.5L94.2,51.5z"/>
	<path class="st6" d="M93.2,44c-0.2-1-0.5-1.9-0.8-2.9c-0.8-2.2-2.1-3.7-3.2-3.6c-0.1,0-0.3,0-0.4,0.1c0.8,1.2,1.4,2.7,1.8,4.4
		C91.5,42.2,92.5,42.8,93.2,44L93.2,44L93.2,44z M93.4,61c0.6-3.2,0.9-6.1,0.8-8.8c-0.6-1.2-1.5-2.1-2.7-2.8c0,2.6-0.2,5.3-0.5,7.7
		C92.1,58.1,93,59.3,93.4,61L93.4,61L93.4,61z"/>
	<path class="st6" d="M91.3,68.5c0.8-2.3,1.4-4.6,1.9-6.7c-0.3-2-1.2-3.3-2.3-4.3c-0.5,3.2-1.2,5.8-2,7.4
		C90,65.9,90.8,67.1,91.3,68.5L91.3,68.5L91.3,68.5z"/>
	<path class="st6" d="M91.2,69c-1.5-3.8-4.5-6.2-9-6.8v0.1c0,0,0,0.1,0,0.1h0c-0.5,1.5-1.2,2.9-1.9,3.9c2.7,2.3,4.2,4.9,4.9,7.7
		C88,73,90,71.3,91.2,69C91.1,69,91.2,69,91.2,69z M78.4,91.3c0.2,0,0.3,0,0.4,0c4.3-0.5,5.8-1.7,8.5-4.2c2-1.9,3.4-4.3,4.2-6.9
		c-1.4,1.5-4,3.4-7.6,4.2C82.8,87.1,80.8,89.6,78.4,91.3L78.4,91.3z"/>
	<path class="st6" d="M91.6,70.4c-0.1-0.3-0.2-0.7-0.3-1c-1.2,2.3-3.2,3.9-6.1,4.8c0.7,3.2,0.3,6.6-1,9.6c3.8-1,6.5-3.1,7.6-4.6l0,0
		C92.5,76.5,92.4,73.5,91.6,70.4L91.6,70.4L91.6,70.4L91.6,70.4z M89.4,91.9L89.4,91.9c-0.6-0.9-1.7-2.8-3-3.6
		c-0.6,0.6-1.2,1-1.9,1.4c0.6,0.6,1.3,1.3,2,2.3C87.3,91.6,88.5,91.7,89.4,91.9L89.4,91.9L89.4,91.9z M40.2,77.1
		c-1,2.1-1.7,5.4-0.6,8.5c1.7-0.2,3.4-0.8,4.8-1.7C42.6,82.1,41.2,79.9,40.2,77.1L40.2,77.1z M40.5,91.8c-0.6,0.8-1.6,1.1-2.3,1.3
		c-0.7,0.2-1.6,0.6-2.5,1.7c0.6,0.7,1.1,1.7,1.2,2.8c0.9-0.4,2-0.9,3.2-1.3c3-1.2,6.3-2.5,7.1-4.2c0.2-0.4,0.2-0.8,0-1.2
		C45.1,91.4,42.9,91.7,40.5,91.8L40.5,91.8L40.5,91.8L40.5,91.8z"/>
	<path class="st6" d="M48.2,86.9c-1.3-0.7-2.5-1.7-3.6-2.7c-1.5,0.9-3.2,1.5-5,1.7c0.2,0.4,0.3,0.8,0.5,1.2c1.1,2.1,1.1,3.5,0.5,4.4
		c4.3-0.3,7.7-1.1,10.7-3.4C50.2,87.8,49.2,87.4,48.2,86.9L48.2,86.9L48.2,86.9z M45.6,65.2c0,0,0.1,0.1,0.1,0.1
		c0.1-0.9,0.1-1.7-0.2-2.6c-0.5-0.1-1.3-0.2-2.2-0.2c0.5,1,0.4,1.7,0.2,2.7C44.5,64.9,45.1,64.9,45.6,65.2L45.6,65.2L45.6,65.2z
		 M45.4,62.4c-0.2-0.5-0.5-1.1-1-1.7l0-0.1c-1.3-1.7-2.9-3.8-3.8-6.4c-0.3-0.1-0.7-0.1-1-0.1c0.6,2.6,1.4,5,2.3,6.2
		c0.6,0.8,1,1.4,1.3,1.9C44,62.2,44.8,62.2,45.4,62.4L45.4,62.4L45.4,62.4L45.4,62.4z M39.9,50.5h0.2c-0.6-0.8-1.1-1.6-1.5-2.5
		c0.1,1.5,0.5,3.6,0.9,5.7c0.3,0,0.6,0.1,0.9,0.1C40.1,52.8,39.9,51.7,39.9,50.5L39.9,50.5L39.9,50.5z M36,54.5
		c-0.2,0.1-0.4,0.1-0.5,0.2c0.2,2.4,0.7,6.9,2.6,9.1c0.2-0.1,0.4-0.2,0.6-0.3C37.6,61.8,36.3,56,36,54.5L36,54.5z M71.8,18.8
		c-1.9,1.1-6.9,2.9-7.4,4.7c2.7,1.4,5.8,4.3,7.2,9.9c0.2-0.6,0.4-1.1,0.8-1.5c1.6-1.6,3.6-7.7,3.1-11.7
		C74.5,18.6,73.4,17.9,71.8,18.8L71.8,18.8z M54.7,18.4c-0.5,0-1,0.1-1.5,0.1v2.3H53v0h1C54.6,19.9,54.7,19.1,54.7,18.4
		C54.7,18.4,54.7,18.4,54.7,18.4z M54.6,31.2c-0.7,0.1-1.1,0.4-1.4,0.8c0,4.3,0.1,7.9,0.1,8h-0.1v0H54
		C53.9,36.8,53.7,32.9,54.6,31.2L54.6,31.2C54.6,31.2,54.6,31.2,54.6,31.2z"/>
	<path class="st6" d="M53.3,40L53.3,40l-0.2,0c0,0-0.1-3.7-0.1-8c0-0.3-0.1-0.5-0.4-0.6c-0.2-0.1-0.5-0.1-0.8-0.1
		c0.1,2.1,0.3,6.9,1,8.8L53.3,40L53.3,40L53.3,40z M62.5,43.1c-0.5-0.5-1.5-1-2.8-1.5c-1.8,2.7-3.4,5.7-3.6,8.4
		c2.9-1.5,5.2-4.7,6.7-7c0,0-0.1,0-0.1-0.1L62.5,43.1C62.5,43.1,62.5,43.1,62.5,43.1z"/>
	<path class="st6" d="M59.8,41.3c1.3,0.5,2.4,1,2.8,1.5l-0.1,0.1c0,0,0.1,0,0.1,0.1c0.3-0.4,0.5-0.8,0.7-1.2
		c0.2-0.3,0.4-0.6,0.6-0.9l0.2,0.1c0.2-1.5,0.6-2.9,0.9-3.7c0.5-1.3,1.2-2.1,1.8-2.5c-0.2-0.2-0.5-0.3-0.7-0.5
		C64.7,35.4,62.1,38.1,59.8,41.3L59.8,41.3L59.8,41.3z M71,42.5c0.6-2.2,0.9-4.6,0.5-7c-0.1-0.4-0.1-0.7,0-1.1
		c-0.5-2.5-1.3-4.5-2.3-6.1c-0.6,1.8-1.2,3.9-1,6.2c0.5,0,0.9,0.1,1.5,0.4c1.5,0.8,1.8,5.1,1,7.6l0,0.1L71,42.5L71,42.5z"/>
	<path class="st7" d="M69.3,21.7c0.7-0.4,1.4-0.9,2.1-1.3c0.7-0.4,1.2-0.5,1.5-0.3c1.3,0.9,0.6,5.9,0,8.2c-0.3,1.5-0.8,1.6-0.9,1.6
		c-0.2,0-0.5-0.2-0.6-0.7c-0.6-1.4-1.5-3-3.6-4.6c-0.6-0.4-0.8-0.8-0.8-1C66.9,23.1,67.8,22.6,69.3,21.7L69.3,21.7L69.3,21.7z
		 M60.5,82c-6.7-0.8-12.7-1.3-15.9,1.7c1.1,1.1,2.4,2.1,3.8,2.9c5.5,3.1,16.5,1.9,21.9-2.2c1.6-1.2,2.9-2.5,3.9-3.8
		C70.7,81.9,65.6,82.6,60.5,82L60.5,82L60.5,82z M63.1,65.3c0.5-1.2,1.5-2.8,1.5-2.8c0.4-0.7,0.8-1,1.1-1.2
		c2.3-3.2,4.2-8.5,4.2-12.6l0,0v0c0-0.7-0.1-1.4-0.3-2.1c-1.6,3.1-3.8,5.4-5.4,6.5c-2.3,1.4-3.1,2.5-4,3.7c-0.3,0.3-0.5,0.7-0.9,1.1
		c-1.5,1.7-2.8,2.9-6.6,2.5C54.8,63.2,57.5,66,63.1,65.3L63.1,65.3L63.1,65.3z M39.6,25c-0.2-1.1-2.4-2.1-4.2-2.9l-0.7-0.3
		c-1.2-0.6-1.6-0.5-1.7-0.4c-0.2,0.2,0,0.8,0.2,1.3c0.2,0.4,0.3,0.8,0.3,1.2h-0.1c0.2,0.7,0.3,1.3,0.5,2c1.2,0.3,2.4,0.8,3.9,2.3
		c0.3-0.7,0.7-1.4,1.3-2C39.6,25.7,39.7,25.3,39.6,25L39.6,25L39.6,25z"/>
	<path class="st7" d="M70.5,42.5c-0.7,1.8-1.6,4.3-3.1,4.7c-0.6,0.2-1.2,0-1.8-0.4l0,0c-0.5,1.9-1.2,3.6-3.2,5.1
		c-2.4,1.7-4.8,3.6-4.5,7c0.4-0.4,0.8-0.8,1.2-1.3c0.3-0.4,0.6-0.7,0.9-1.1c0.9-1.1,1.8-2.3,4.1-3.7c2.3-1.4,5.5-5.4,6.9-10.3
		L70.5,42.5L70.5,42.5z"/>
	<path d="M88.6,103.3c-0.3,0-0.7-0.1-1.3-0.4c-4-2.3-7-4.1-9.1-6c-0.7-0.6-1.6-1.2-2.5-1.8c-2.5-1.7-5.2-3.5-5.3-5.4
		c-1.2-0.9-2.1-2-2.6-3.4c-2.4,1.2-5.4,2-8.5,2.3c-2.7,0.3-5.3,0.2-7.6-0.3c-1.4,1.1-2.8,1.8-4.4,2.4c0.2,0.5,0.2,1,0,1.4
		c-0.8,1.8-4.2,3.2-7.2,4.4c-1.2,0.5-2.4,1-3.3,1.4L36.6,98l0,0c-2,0.8-4.6,1.8-7.8,2.7c-0.9,0.3-1.5,0.2-1.7-0.1
		c-0.1-0.1-0.1-0.2-0.1-0.3c-0.7,0.3-1,0.1-1.2-0.2c-1.1-1.4,0.3-6.8,1.5-8c0.9-1.8,1.9-2.7,3.3-3.6c-2-2.3-3-5.4-3.2-8.5
		c-0.1-2.6,0-9.3,4.5-14.6c-0.5-1-0.9-2.1-1.3-3.1h-0.1v-0.3c-0.2-0.5-0.3-1-0.4-1.5c-2.6-10.5,4-21.6,6.3-24.1v-1
		c0-0.6,0.1-1,0.1-1.3c0.1-0.6,0.1-0.8-0.6-2.3c-0.8-1.6-1.7-5-2.5-7.9c-0.3-1-0.5-2-0.8-2.8c-0.2-0.7,0.1-1.1,0.3-1.4
		c1.6-1.2,7.3,0.7,8.5,1.4c1.3,0.8,2.3,0.2,3.6-0.5c0.1-0.1,0.3-0.1,0.4-0.2c4.7-2.5,13-2.8,16.4-1.3c0.3,0.1,0.5,0.2,0.7,0.3
		c1.2,0.5,1.8,0.8,2.9,0.3c2-0.8,5.2-2,7.4-2.7c1-0.3,1.6-0.3,2,0c0.6,0.4,0.8,1.2,1.1,2.6c0.8,3.8-0.9,9.5-2.5,11.9
		c0,0,0,0.1,0.1,0.1l0.1-0.2c4.1,2.2,7.9,7.9,10,14.8c0.3,0.9,0.4,2,0.5,3.2l0.2-0.1c0.2,0.4,0.3,0.8,0.4,1.3
		c1.1-3.4,1.4-4.9,2.5-10.3c0.5-2.5,1.5-3,2.2-3.1c1.3-0.1,2.8,1.5,3.6,3.8c1,2.8,1.8,6.5,1.9,11.2c0.1,0.1,0.1,0.2,0.1,0.3
		l-0.1,0.1c0,2.8-0.3,5.9-1,9.3c0,0.1,0,0.2,0,0.3h-0.1c-0.5,2.1-1.1,4.4-1.9,6.7L91.6,69c0.2,0.4,0.3,0.9,0.4,1.3
		c1.7,6.5,0.1,12.8-4.3,16.9c-0.3,0.3-0.7,0.6-1,0.9c1.3,0.8,2.4,2.6,3,3.6c0.1,0.2,0.2,0.3,0.3,0.4l0.3,0.4h0
		c1.7,2.8,2.2,7,1.7,8.6c-0.1,0.4-0.3,0.6-0.5,0.7c-0.5,0.2-1,0.2-1.4,0c-0.2-0.1-0.3-0.2-0.5-0.3c0.1,0.6,0,1.1-0.2,1.4
		C89.3,103.1,89.1,103.2,88.6,103.3L88.6,103.3L88.6,103.3z M78.6,96.6c2,1.9,5,3.7,8.9,5.9c0.5,0.3,1.2,0.6,1.5,0.2
		c0.7-0.9-0.9-5.1-3.8-7.9c-0.3,0-0.6-0.1-0.9-0.1C82.2,94.4,79.5,94.1,78.6,96.6z M89.4,100.8c0,0,0.2,0.6,0.8,0.8
		c0.3,0.2,0.7,0.1,1.1,0c0.1-0.1,0.2-0.2,0.3-0.5c0.5-1.6-0.1-5.9-1.9-8.7c-0.8-0.3-2.2-0.5-3.2,0.2c-0.6,0.4-0.9,1.1-1,2.1
		C87.3,96.4,88.7,98.9,89.4,100.8L89.4,100.8C89.3,100.8,89.4,100.8,89.4,100.8z M27.2,100.1c0,0.1,0,0.2,0.1,0.3
		c0.1,0.2,0.6,0.2,1.4,0c3.2-0.9,5.9-1.9,7.9-2.7c-0.2-1.8-1.2-3.2-2.6-3.7c-1.2-0.4-2.4-0.1-3.3,0.8c-1,1.2-3.1,3.9-3.3,5.2
		l0.1,0.1C27.3,100,27.3,100.1,27.2,100.1z M27.3,92.4c-1.2,1.2-2.3,6.5-1.4,7.6c0.1,0.1,0.3,0.4,1,0c0.2-0.9,1.2-2.5,3.4-5.3
		c0-0.9-0.3-1.6-0.8-2C29,92.2,28.2,92.2,27.3,92.4C27.3,92.4,27.3,92.4,27.3,92.4z M32.8,93.5c0.4,0,0.8,0.1,1.2,0.2
		c1.5,0.6,2.5,2,2.8,3.8c0.9-0.4,2-0.9,3.2-1.3c3-1.2,6.3-2.5,7.1-4.2c0.2-0.4,0.2-0.8,0-1.2c-2.5,0.8-5.4,1.1-8.6,1.2
		c-3.6,0.1-6.2-1.3-8.1-3.4l0.2,0.3c-1.3,0.8-2.2,1.7-3,3.2c0.9-0.2,1.6,0,2.2,0.4c0.5,0.4,0.9,1.1,0.9,2
		C31.3,93.8,32,93.5,32.8,93.5L32.8,93.5L32.8,93.5z M70.9,89.9c0.3,1.6,2.9,3.3,5.1,4.9c0.8,0.6,1.6,1.1,2.3,1.7
		c1-2.7,3.9-2.3,6.1-2c0.3,0,0.5,0.1,0.8,0.1c0.1-1.1,0.4-1.8,1.1-2.3c0.9-0.6,2.2-0.6,3.1-0.3c0,0,0,0,0,0c-0.5-0.9-1.7-2.8-3-3.5
		c-2,1.8-3.8,2.8-7.5,3.2c-2.2,0.2-4.6-0.1-6.5-0.9C71.8,90.4,71.3,90.1,70.9,89.9L70.9,89.9L70.9,89.9z M28.1,83.4
		c1.3,4.5,4.5,8.2,10,8.2h0.4c5.4-0.2,9.5-0.8,12.9-3.5c-1.2-0.3-2.3-0.7-3.2-1.2c-1.3-0.8-2.5-1.7-3.6-2.7c-2.8,1.7-6.2,2.3-10,1.5
		C31.8,85.2,29.3,84,28.1,83.4L28.1,83.4z M70.9,89.4c1.9,1.3,4.6,2.2,8,1.8c4.3-0.5,5.8-1.7,8.5-4.2c2-1.9,3.4-4.3,4.2-6.9
		c-2.6,2.9-10,7-19.4,3.1c-0.5,0.5-1.1,1-1.8,1.5c-0.7,0.5-1.4,1-2.3,1.4C68.6,87.3,69.5,88.5,70.9,89.4L70.9,89.4L70.9,89.4
		L70.9,89.4L70.9,89.4z M51.8,87.9c2.2,0.5,4.8,0.6,7.6,0.4c4.3-0.4,8.3-1.8,10.9-3.8c6.6-5.2,7.8-10.4,8.3-16.2
		c-2.3,2.8-3.2,3.3-7.7,4.1l0,0c-0.2,0.2-0.6,0.3-1.2,0.3c-2,0-3.4-0.8-4.7-1.7c-0.8,0-1.3-0.1-1.5-0.4c-0.2-0.4,0.1-1,0.8-2.1
		c0.3-0.4,0.6-0.8,0.9-1.1l0.1-1.6c-0.3,0.2-0.7,0.4-1.1,0.6c-0.4,0.3-0.9,0.6-1.2,0.3c-0.7-0.7,1.6-4.2,1.6-4.3
		c0.4-0.7,0.8-1,1.1-1.2c3.4-4.6,4.7-11.3,3.9-14.7C68,49.7,65.9,52,64.2,53c-2.3,1.4-3.1,2.5-4,3.7c-0.3,0.3-0.5,0.7-0.9,1.1
		c-1.5,1.7-2.9,3-6.6,2.5c-3-0.3-3.4-0.8-3.9-1.5c-0.2-0.2-0.3-0.4-0.5-0.6c-0.3-0.3-0.5-0.6-0.8-0.9c-0.9-1-1.9-2.3-4.7-4.2
		c-0.9-0.6-1.8-1.4-2.5-2.3c0.1,4.1,2.5,7.3,4.4,9.7l0,0.1c1.5,1.9,1.6,3.3,1.4,5h-0.1c0.5,0.6,0.6,1.7,0.7,2.8
		c0.1,0.9,0,1.2-0.3,1.4c-0.3,0.2-0.7,0-1.3-0.4c0,0.4-0.1,1.2-0.4,1.5c1.5,1.1,2.2,1.9,1.9,2.5c-0.2,0.4-0.7,0.6-1.7,0.6
		c-1.1-0.1-1.9-0.2-2.7-0.4c0,0.2-0.1,0.2-0.1,0.3c-0.3,0.5-1.5,0.7-2.5,0.2c1.5,6,4.4,10.2,8.9,12.7C49.3,87.1,50.5,87.5,51.8,87.9
		L51.8,87.9L51.8,87.9L51.8,87.9z M36.5,85.7c2.9,0.3,5.6-0.3,7.9-1.7c-1.9-1.9-3.4-4.4-4.4-7.4c-1.5,0.5-3.5,0.7-5.4,0.5
		C34.5,79,34.7,83.7,36.5,85.7L36.5,85.7L36.5,85.7L36.5,85.7z M28,83c1.1,0.6,3.6,1.8,6.7,2.4c0.5,0.1,0.9,0.2,1.4,0.2
		c-1.7-2.2-1.9-6.8-1.8-8.6c-0.1,0-0.1,0-0.2,0c-1.8-0.2-4.3-0.9-6.1-2.8c-0.5,2.4-0.5,4.5-0.4,5.7C27.6,81,27.7,82,28,83L28,83z
		 M72.5,83c2.8,1.1,5.4,1.6,7.7,1.5c1.5-2.4,2.3-6.8,2.2-9.4h0.3c0.1,2.6-0.7,7-2.1,9.4c5.6-0.3,9.7-3.2,11.1-5.1l0,0
		c0.6-2.8,0.6-5.8-0.2-8.8c-0.1-0.3-0.2-0.7-0.3-1c-2.1,3.9-6.7,5.9-13.7,5.9C76.6,78,75.1,80.5,72.5,83L72.5,83L72.5,83z M28,73.8
		c3,3.3,9,3.4,11.9,2.4c-0.3-0.8-0.5-1.6-0.7-2.5c-1.4-0.2-3.2-1.8-5-4.2c-0.9-1.2-1.6-2.5-2.3-3.8C29.7,68.3,28.6,71.2,28,73.8z
		 M79,67.8c-0.2,2.5-0.5,4.9-1.3,7.2c7,0,11.6-2.1,13.5-6c-1.5-3.8-4.5-6.2-9-6.8c0,0,0,0,0,0.1v0.1h0c-0.6,1.7-1.4,3.2-2.2,4.3
		l-0.2,0.2C79.4,67.2,79.2,67.5,79,67.8L79,67.8L79,67.8z M39.5,73.5c1,0.6,2.1,0.3,2.3,0c0.1-0.1,0-0.2,0-0.3
		c-0.4-0.2-0.8-0.5-1.2-0.8C40.1,72.7,39.7,72.9,39.5,73.5z M42,73c0.8,0.4,1.7,0.5,2.9,0.6c0.7,0,1.2-0.1,1.3-0.3
		c0.1-0.2,0.1-0.8-2-2.2c-0.7-0.4-1.6-0.4-2.3-0.1c-0.6,0.3-1,0.8-1.1,1.3c0.3,0.2,0.5,0.4,0.8,0.6l0.1-0.1
		C41.8,72.8,41.9,72.9,42,73L42,73z M34.5,69.5c1.7,2.2,3.4,3.7,4.7,3.9c0.2-0.6,0.6-1,1.3-1.3c0.1-0.7,0.6-1.2,1.3-1.6
		c0.8-0.4,1.7-0.4,2.5,0.1c0.3-0.3,0.4-1,0.4-1.6c-0.3-0.2-0.6-0.3-0.9-0.6c-1.1-0.7-1.7-1.3-1.6-1.9c0-0.5,0.4-0.9,1-1.1l0,0
		c1.1-0.5,1.9-0.6,2.5-0.2c0,0,0.1,0.1,0.1,0.1c0.1-0.9,0.1-1.7-0.2-2.6c-1.7-0.4-5.4-0.2-7.9,1.7c-1.7,1.2-2.7,3-3,5.1L34.5,69.5
		L34.5,69.5L34.5,69.5z M65.6,71c1.2,0.7,2.4,1.3,4.1,1.3c0.9,0,1-0.2,1-0.3c0.1-0.3-0.4-0.8-1.4-1.2v0C68.7,71,67.7,71,66.7,71
		H65.6z M69.8,70.6c0.7,0.4,1.3,0.9,1.3,1.3c3.6-0.6,4.8-1.1,6.4-2.9h-0.2c-0.2-2.8-1-4.7-2.4-5.9c-1.9-1.7-4.9-1.7-8-1.6
		c0.3,0.3,0.4,0.8,0.4,1.2l0,0c0.1,2-0.6,2.3-1.7,2.8c0,0-0.1,0-0.1,0.1h0l-0.1,1.4c0.6-0.5,1.3-0.8,1.9-0.8c0.7,0,1.3,0.3,1.7,0.8
		c1.1,1.4,1.4,2.3,1.1,3C70.2,70.3,70,70.5,69.8,70.6L69.8,70.6z M67.5,66.7L67.5,66.7c-1,0-2.1,0.8-2.9,2c-0.5,0.8-0.9,1.5-0.8,1.8
		c0.2,0.3,1,0.3,1.8,0.2h1.2c1.4,0,2.9,0,3.2-0.7c0.2-0.5-0.1-1.4-1.1-2.6l0,0C68.6,66.9,68.1,66.7,67.5,66.7L67.5,66.7L67.5,66.7z
		 M44.8,65.3c-0.4,0-0.9,0.1-1.5,0.4l0,0c-0.3,0.1-0.8,0.4-0.8,0.9c0,0.5,0.5,1.1,1.5,1.6c0.4,0.2,0.7,0.4,1,0.6
		c0.5,0.3,1.1,0.7,1.2,0.6c0.1,0,0.2-0.3,0.1-1.1c-0.1-1.2-0.1-2.5-0.8-2.9C45.3,65.4,45,65.3,44.8,65.3L44.8,65.3L44.8,65.3z
		 M30.6,61.9c0.9,2.8,2.3,5.4,3.7,7.4c0.3-2.2,1.3-3.9,3.1-5.2c0.4-0.3,0.8-0.5,1.2-0.7c-1-1.6-2.3-7.5-2.6-8.9
		c-1.1,0.3-2.1,0.8-2.9,1.5C31.5,57.4,30.6,59.4,30.6,61.9L30.6,61.9L30.6,61.9z M74.9,62.6c0.1,0.1,0.2,0.2,0.3,0.3
		c1.4,1.2,2.2,3.2,2.5,6c0.5-0.6,1.1-1.3,1.8-2.2l0.2-0.2c0.9-1.1,1.6-2.6,2.2-4.3c0.1-3.2-1.4-5.8-4.1-7.4
		c-0.3-0.2-0.6-0.3-0.9-0.4C76.8,57,76,61.2,74.9,62.6z M86,63c2.4,1.1,4.2,3,5.3,5.6c0.8-2.3,1.4-4.6,1.9-6.7
		c-0.6-3.8-3.3-5.4-5.4-6c0,1,0.1,5.5-0.8,7.6l-0.3-0.1c0.9-2.1,0.8-6.9,0.8-7.6c-0.8-0.2-1.6-0.3-2-0.3C85.9,58.1,86.2,61,86,63
		C86,62.9,86,63,86,63z M65.9,61.6c-0.3,0.2-0.6,0.5-0.9,1c-1.3,1.9-1.9,3.7-1.7,3.9c0,0,0.1,0.1,0.8-0.3c0.6-0.4,1.1-0.7,1.5-0.9
		c1.1-0.6,1.6-0.8,1.5-2.5l0,0c0-0.5-0.2-1-0.5-1.2c-0.2,0-0.3,0-0.4,0v-0.1c0,0-0.1,0-0.2,0C66,61.6,65.9,61.6,65.9,61.6L65.9,61.6
		L65.9,61.6L65.9,61.6z M36.3,54.4c0.3,1.5,1.6,7.3,2.6,8.9l-0.1,0.1c2.4-1.1,5.1-1.3,6.6-1c-0.2-0.5-0.5-1.1-1-1.7l0-0.1
		c-1.3-1.7-2.9-3.8-3.8-6.4C39.1,54,37.6,54,36.3,54.4L36.3,54.4L36.3,54.4z M84.3,62.3c0.5,0.2,1,0.3,1.4,0.5
		c0.1-1.9-0.1-4.7-0.6-7.4h-0.1v-0.3c-0.3-1.8-0.7-3.6-1.2-5.1c0.1,1.6,0,3.3-0.2,5.1c0,0.2,0.1,0.3,0.1,0.5
		C84.2,57.5,84.6,59.6,84.3,62.3z M69,61.1c2.1,0,4,0.3,5.5,1.3c1.1-1.3,1.9-5.6,1.8-8.2c-2.7-1.1-5.6-0.9-7,0.1l0-0.1
		c-0.7,2.5-1.8,5-3.1,6.9c0.1,0,0.2,0,0.2,0c0.1,0,0.1,0,0.2,0.1C67.4,61.2,68.2,61.2,69,61.1L69,61.1L69,61.1z M82.3,61.9
		c0.6,0.1,1.2,0.2,1.7,0.3c0.3-2.4,0-4.3-0.4-6.1C83.3,58.1,82.8,60,82.3,61.9L82.3,61.9z M80.2,56.5c1.1,1.3,1.8,2.9,1.9,4.8
		c0.6-1.9,1-4.1,1.3-6.2V55l0,0c0.2-1.4,0.2-2.7,0.2-3.9l0,0c-1-1.4-2-2.5-3.1-3.3C80.7,49.9,80.7,53.8,80.2,56.5L80.2,56.5
		L80.2,56.5L80.2,56.5z M85.4,55c1.4,0.1,6.6,0.8,8,6c0.6-3.2,0.9-6.1,0.8-8.8c-0.7-1.4-1.9-2.5-3.6-3.2c-1.8-0.7-3.9-0.7-5.4,0.1
		l0-0.1c-0.2,0.5-0.3,1.1-0.5,1.8l-0.2-0.1C84.8,52,85.1,53.5,85.4,55L85.4,55L85.4,55z M29.8,52.1c-0.4,2.7-0.3,5.5,0.4,8.2
		c0.1,0.2,0.1,0.4,0.1,0.6c0.1-1.2,0.4-2.3,0.9-3.2c-0.5-2.5-0.5-5.1,0.1-7.9c-0.6,0.6-1.1,1.4-1.5,2.3L29.8,52.1L29.8,52.1
		L29.8,52.1z M38,45.7c1,2.8,2.5,5.4,5,7.1c2.8,1.9,4,3.2,4.8,4.2c0.3,0.3,0.5,0.6,0.8,0.9c0.3,0.3,0.4,0.5,0.6,0.7
		c0.5,0.7,0.8,1,3.7,1.4c3.6,0.4,4.9-0.7,6.3-2.4c0.3-0.4,0.6-0.7,0.9-1.1c0.9-1.1,1.8-2.3,4.1-3.7c1.5-0.9,3.7-3.2,5.3-6.4
		c1.3-2.5,2.8-6.5,2-11c-0.1-0.4-0.1-0.8,0-1.1c-1.2-6.5-4.9-9.5-7.8-10.8c-0.4-0.2-0.9-0.4-1.3-0.6c0,0.9-0.3,6.3-1,8.8
		c2.5,0.8,4.8,1.9,6,2.9c0.1,0,0.1,0,0.2-0.1c0.6-0.2,1.4-0.2,2.2,0.2c1.5,0.8,1.8,5.1,1,7.6c-0.7,1.8-1.6,4.4-3.1,4.9
		c-0.6,0.2-1.2,0-1.8-0.4c-1.5-1.1-1.7-3.4-1.5-5.5c-0.1,0.2-0.3,0.4-0.4,0.7c-1.8,3-5.6,9.2-11,9.2c-4.5,0-7.5-3.9-9.3-7.7
		c0.2,1.2,0.2,2.3-0.1,3.1c-0.3,0.7-0.8,1.2-1.4,1.5c-0.6,0.3-1.2,0.2-1.9-0.1C39.2,47.5,38.5,46.6,38,45.7L38,45.7L38,45.7z
		 M31.8,49.4c-0.7,2.8-0.8,5.4-0.3,7.8c0.4-0.6,0.8-1.1,1.3-1.5c0.8-0.7,1.9-1.2,3-1.6l0,0l0.3-0.1c1.3-0.3,2.8-0.4,4.3-0.2
		c-0.3-1-0.5-2.2-0.5-3.3h0.2c-0.6-0.8-1.2-1.8-1.7-2.9C37.2,47.4,34.1,47.5,31.8,49.4L31.8,49.4L31.8,49.4z M72.7,53.2
		c1.6,0,3.5,0.4,5.1,1.3c0.8,0.5,1.5,1,2.1,1.6c0.5-2.8,0.4-6.8,0.2-8.6l0,0c-1.2-0.8-2.5-1.2-3.9-1.3c-3.1-0.1-5.4,1.8-6,2.5
		c0,1.6-0.3,3.4-0.7,5.2C70.3,53.5,71.4,53.2,72.7,53.2L72.7,53.2z M87.9,48.2c0.9,0,1.9,0.2,2.9,0.5c1.5,0.6,2.7,1.5,3.4,2.8
		c-0.1-2.4-0.3-4.6-0.8-6.5l-0.1,0c-0.8-1.9-2.2-2.6-3.1-2.8c-1.5-0.3-2.8,0.2-3.5,0.8l0,0c-0.5,2.5-0.9,4.1-1.4,5.8
		C86.1,48.4,87,48.2,87.9,48.2L87.9,48.2z M36.1,36.8c-1.7,2-5.1,7.8-6.2,14.6c1.9-3.9,6.4-4.4,8.3-4.1c-0.5-1.2-1-2.6-1.3-4.1
		C36.5,41.3,36.2,39.1,36.1,36.8L36.1,36.8z M44.2,44.1c1.8,3.5,4.6,6.7,8.6,6.7c5.2,0,8.9-6.1,10.7-9c0.2-0.3,0.4-0.7,0.6-0.9
		l0.2,0.1c0.2-1.5,0.6-2.9,0.9-3.7c0.5-1.3,1.2-2.1,1.8-2.5c-2.3-1.9-8.9-4.1-12-3.6c-0.8,0.1-1.4,0.4-1.6,0.8c0,4.3,0.1,7.9,0.1,8
		h-0.3c0,0-0.1-3.7-0.1-8c0-0.3-0.1-0.5-0.4-0.6c-2.1-0.9-11.2,3.6-13,5.1c1,0.5,1.8,1.7,2.4,2.9c0.4,0.8,0.7,1.5,1,2.3H43
		c0.3,0.7,0.6,1.5,1,2.2c1.2-1.8,6.1-3.6,8.8-3.8c2.6-0.2,8.3,1.3,9.8,2.8l-0.2,0.2c-1.3-1.3-6.6-3-9.6-2.7
		C49.9,40.6,45.1,42.5,44.2,44.1L44.2,44.1L44.2,44.1L44.2,44.1z M77.6,46.1c2.2,0.5,4.2,1.9,6.1,4.4c0-1.6-0.2-3.1-0.6-4.3
		c0-0.1-0.1-0.2-0.1-0.4l-0.1,0c-1.8-4.8-5.3-8.3-6.8-8.9C76.9,39.6,77.4,42.6,77.6,46.1L77.6,46.1z M69.9,46.1
		c0.2,0.7,0.3,1.4,0.3,2.2c0.9-0.8,3.2-2.4,6-2.4c0.3,0,0.6,0,0.9,0.1c-0.3-6.2-1.7-10.9-4.2-14.3c-0.1,0.2-0.3,0.3-0.4,0.4l0,0
		c-0.4,0.4-0.8,1.2-0.9,2.1l0,0c0,0.1,0,0.1,0,0.2h-0.1c0,0.3,0,0.6,0.1,0.9C72.4,39.2,71.5,43,69.9,46.1L69.9,46.1z M37,41.9
		c0.1,0.4,0.2,0.8,0.3,1.3c0.4,1.6,1.5,3.8,2.9,4.5c0.5,0.3,1.1,0.3,1.6,0.1c0.6-0.2,1-0.7,1.2-1.3c0.6-1.5,0.1-4.1-1.3-6.9l0,0
		c-0.8-1.7-2-2.8-2.9-2.9c-0.4-0.1-0.8,0.1-1.2,0.5c-0.8,0.9-1,2-0.8,3.3C36.9,40.8,36.9,41.3,37,41.9L37,41.9z M68.2,34.8
		c-0.2,0-0.4,0-0.6,0.1c-0.8,0.3-1.5,1.2-2.1,2.6c-0.8,2-1.9,7.4,0.4,9c0.5,0.4,1.1,0.5,1.5,0.4c1.3-0.4,2.2-2.9,2.9-4.6
		c0.9-2.4,0.4-6.5-0.8-7.2C69,34.9,68.6,34.8,68.2,34.8L68.2,34.8z M89.3,41.8c0.3,0,0.7,0,1,0.1c0.9,0.2,2.1,0.7,2.9,2.1
		c-0.3-1-0.6-2-0.8-2.8c-0.8-2.2-2.1-3.7-3.2-3.6c-0.9,0.1-1.5,1.1-1.9,2.8c-0.2,0.8-0.3,1.5-0.4,2.2C87.5,42.1,88.4,41.8,89.3,41.8
		L89.3,41.8L89.3,41.8z M76,36.7c1.4,0.4,4.2,3.1,6.1,6.7c-2.1-5.4-5.2-9.7-8.6-11.6c1.1,1.5,1.9,3.1,2.5,5L76,36.7L76,36.7z
		 M36.5,36.5c0,0.6,0.1,1.2,0.1,1.9c0.1-0.6,0.4-1.1,0.8-1.6c0.4-0.5,0.9-0.7,1.5-0.6c0.2,0,0.3,0.1,0.5,0.1l-0.1-0.1
		c0.8-0.7,3.2-2.1,5.8-3.3c-1.2-2.7-1-7.8-0.9-9.1c-3,1.7-6.1,4.2-7.6,9.3l-0.1,0c0.1,0.3,0,0.5,0,0.8c0,0.3-0.1,0.6-0.1,1.2v1.1
		L36.5,36.5L36.5,36.5L36.5,36.5L36.5,36.5z M53.7,20.8c2.7,0,6.1,0.6,10.1,2.4c2.8,1.3,6.4,4.1,7.8,10.2c0.2-0.6,0.5-1.1,0.8-1.5
		l0,0c1.7-1.7,3.8-8.3,3-12.3c-0.3-1.3-0.4-2.1-0.9-2.4c-0.3-0.2-0.9-0.2-1.7,0.1c-2.2,0.6-5.3,1.8-7.3,2.7c-1.3,0.5-2,0.2-3.2-0.4
		c-0.2-0.1-0.5-0.2-0.7-0.3c-1.8-0.8-5-1.1-8.2-0.8v2.3h-0.3v-2.2c-2.7,0.3-5.5,0.9-7.6,2.1c-0.1,0.1-0.3,0.1-0.4,0.2
		c-1.2,0.7-2.4,1.3-3.9,0.5c-1.4-0.8-6.8-2.4-8.1-1.4c-0.3,0.2-0.4,0.5-0.2,1c0,0.1,0.1,0.2,0.1,0.4c0-0.1,0.1-0.1,0.1-0.1
		c0.3-0.3,0.9-0.2,2,0.4c0.2,0.1,0.5,0.2,0.7,0.3c1.9,0.9,4.1,1.9,4.4,3.2c0.1,0.5-0.1,0.9-0.6,1.4c-1.1,1.1-1.5,2.5-1.8,3.6
		c2.4-4.5,6.3-6.3,9.5-7.8C48.1,21.6,50.4,20.8,53.7,20.8L53.7,20.8L53.7,20.8z M44.6,23.7c-0.1,0.8-0.3,6.4,0.9,9.1
		c3-1.3,6.1-2.3,7.3-1.8c0.2,0.1,0.4,0.3,0.5,0.5c0.3-0.4,0.9-0.6,1.6-0.7c1.6-0.2,3.9,0.1,6.1,0.8c0.8-2.6,1-8.7,1-8.8
		c-7.7-3-13.2-1.1-14.7-0.4C46.4,22.8,45.5,23.2,44.6,23.7C44.6,23.7,44.6,23.7,44.6,23.7z M33.4,23.8c0.8,2.9,1.6,6.1,2.4,7.7
		c0.3,0.6,0.5,0.9,0.6,1.3c0.2-0.7,0.4-1.3,0.7-1.9l-0.1,0c0.1-0.3,0.2-0.7,0.3-1c0.3-1.2,0.7-2.6,1.9-3.8c0.4-0.4,0.5-0.7,0.5-1.1
		c-0.2-1.1-2.4-2.1-4.2-2.9c-0.2-0.1-0.5-0.2-0.7-0.3c-1.2-0.6-1.6-0.5-1.7-0.4c-0.2,0.2,0,0.8,0.2,1.3c0.1,0.4,0.3,0.8,0.3,1.2
		L33.4,23.8L33.4,23.8L33.4,23.8z M71.9,30.3c-0.3,0-0.7-0.3-0.9-0.9l0,0c-0.6-1.4-1.4-2.9-3.5-4.5c-0.7-0.5-0.9-0.9-0.9-1.3
		c0-0.7,0.9-1.2,2.5-2.2c0.6-0.4,1.3-0.8,2.1-1.3c0.8-0.5,1.4-0.6,1.9-0.3c1.6,1.1,0.6,6.6,0.2,8.6C72.9,29.6,72.5,30.3,71.9,30.3
		C72,30.3,71.9,30.3,71.9,30.3z M72.4,20c-0.3,0-0.6,0.1-1.1,0.4c-0.8,0.5-1.5,0.9-2.1,1.3c-1.5,0.9-2.4,1.5-2.4,2
		c0,0.3,0.2,0.6,0.8,1c2.2,1.7,3,3.2,3.6,4.6l0,0c0.2,0.4,0.4,0.7,0.6,0.7c0.1,0,0.6-0.2,0.9-1.6c0.5-2.3,1.3-7.3,0-8.2
		C72.8,20,72.6,20,72.4,20L72.4,20z"/>
</g>
</svg>
