<?xml version="1.0" encoding="UTF-8"?><svg id="Capa_1" xmlns="http://www.w3.org/2000/svg" xmlns:xlink="http://www.w3.org/1999/xlink" viewBox="0 0 55.34 20.3"><defs><style>.cls-1{fill:none;}.cls-2{clip-path:url(#clippath);}.cls-3{fill:#026bb0;}.cls-4{fill:#026baf;}.cls-5{fill:#026cb1;}.cls-6{fill:#0467aa;}.cls-7{fill:#0466a9;}.cls-8{fill:#0467ab;}.cls-9{fill:#016eb3;}.cls-10{fill:#016eb4;}.cls-11{fill:#016db2;}.cls-12{fill:#006fb5;}.cls-13{fill:#0070b6;}.cls-14{fill:#036aae;}.cls-15{fill:#0368ac;}.cls-16{fill:#0369ad;}.cls-17{fill:#0071b9;}.cls-18{fill:#ffcb05;}.cls-19{fill:#7d7f68;}.cls-20{fill:#3269b1;}.cls-21{fill:#2f6eb5;}.cls-22{fill:#2f6db4;}.cls-23{fill:#312370;}.cls-24{fill:#306cb3;}.cls-25{fill:#3368b0;}.cls-26{fill:#c7a008;}.cls-27{fill:#144e8b;}.cls-28{fill:#125d9e;}.cls-29{fill:#144f8c;}.cls-30{fill:#13437b;}.cls-31{fill:#13437c;}.cls-32{fill:#115c9d;}.cls-33{fill:#115b9c;}.cls-34{fill:#13447d;}.cls-35{fill:#115a9a;}.cls-36{fill:#115a9b;}.cls-37{fill:#115d9e;}.cls-38{fill:#14508e;}.cls-39{fill:#14508d;}.cls-40{fill:#145290;}.cls-41{fill:#145391;}.cls-42{fill:#14518f;}.cls-43{fill:#12467f;}.cls-44{fill:#12457e;}.cls-45{fill:#124780;}.cls-46{fill:#105d9f;}.cls-47{fill:#105fa1;}.cls-48{fill:#135290;}.cls-49{fill:#135391;}.cls-50{fill:#135392;}.cls-51{fill:#114882;}.cls-52{fill:#114781;}.cls-53{fill:#114983;}.cls-54{fill:#105ea0;}.cls-55{fill:#21386e;}.cls-56{fill:#183e75;}.cls-57{fill:#17437c;}.cls-58{fill:#183f77;}.cls-59{fill:#183f76;}.cls-60{fill:#184078;}.cls-61{fill:#17447d;}.cls-62{fill:#18376c;}.cls-63{fill:#18386d;}.cls-64{fill:#184179;}.cls-65{fill:#174681;}.cls-66{fill:#174680;}.cls-67{fill:#17457e;}.cls-68{fill:#17457f;}.cls-69{fill:#18396e;}.cls-70{fill:#18427a;}.cls-71{fill:#174984;}.cls-72{fill:#174883;}.cls-73{fill:#174782;}.cls-74{fill:#173a70;}.cls-75{fill:#17396f;}.cls-76{fill:#17427a;}.cls-77{fill:#17427b;}.cls-78{fill:#173b71;}.cls-79{fill:#163d74;}.cls-80{fill:#163c73;}.cls-81{fill:#164985;}.cls-82{fill:#164984;}.cls-83{fill:#163c72;}.cls-84{fill:#164b87;}.cls-85{fill:#164d89;}.cls-86{fill:#164c88;}.cls-87{fill:#164a85;}.cls-88{fill:#164a86;}.cls-89{fill:#164681;}.cls-90{fill:#164782;}.cls-91{fill:#164883;}.cls-92{fill:#1e2d5f;}.cls-93{fill:#125695;}.cls-94{fill:#125c9d;}.cls-95{fill:#125797;}.cls-96{fill:#125796;}.cls-97{fill:#125898;}.cls-98{fill:#125999;}.cls-99{fill:#125b9c;}.cls-100{fill:#0b5594;}.cls-101{fill:#0c5593;}.cls-102{fill:#085c9d;}.cls-103{fill:#085e9f;}.cls-104{fill:#0c5391;}.cls-105{fill:#085d9e;}.cls-106{fill:#075fa0;}.cls-107{fill:#0760a1;}.cls-108{fill:#0760a2;}.cls-109{fill:#0563a6;}.cls-110{fill:#153f76;}.cls-111{fill:#154077;}.cls-112{fill:#153e75;}.cls-113{fill:#0565a8;}.cls-114{fill:#0564a7;}.cls-115{fill:#0662a4;}.cls-116{fill:#0661a3;}.cls-117{fill:#145492;}.cls-118{fill:#145493;}.cls-119{fill:#145695;}.cls-120{fill:#145594;}.cls-121{fill:#144078;}.cls-122{fill:#14427a;}.cls-123{fill:#144179;}.cls-124{fill:#0663a5;}.cls-125{fill:#154c89;}.cls-126{fill:#154c88;}.cls-127{fill:#135594;}.cls-128{fill:#154f8c;}.cls-129{fill:#154a86;}.cls-130{fill:#154d8a;}.cls-131{fill:#154b87;}.cls-132{fill:#135796;}.cls-133{fill:#135493;}.cls-134{fill:#135999;}.cls-135{fill:#135b9b;}.cls-136{fill:#135a9a;}.cls-137{fill:#135898;}.cls-138{fill:#135897;}.cls-139{fill:#1b3165;}.cls-140{fill:#1b3063;}.cls-141{fill:#1b3164;}.cls-142{fill:#15518e;}.cls-143{fill:#154e8b;}.cls-144{fill:#15508d;}.cls-145{fill:#15518f;}.cls-146{fill:#0a5998;}.cls-147{fill:#0a5999;}.cls-148{fill:#0a5897;}.cls-149{fill:#0c5492;}.cls-150{fill:#095b9b;}.cls-151{fill:#095c9c;}.cls-152{fill:#095a9a;}.cls-153{fill:#193d74;}.cls-154{fill:#193e75;}.cls-155{fill:#193b71;}.cls-156{fill:#193b72;}.cls-157{fill:#193a70;}.cls-158{fill:#193f76;}.cls-159{fill:#193f77;}.cls-160{fill:#193c73;}.cls-161{fill:#104b86;}.cls-162{fill:#104a84;}.cls-163{fill:#104a85;}.cls-164{fill:#0f4c87;}.cls-165{fill:#1d2c5e;}.cls-166{fill:#1d2d5f;}.cls-167{fill:#1d2e60;}.cls-168{fill:#0f4e89;}.cls-169{fill:#0f4d88;}.cls-170{fill:#0e4f8c;}.cls-171{fill:#0e508d;}.cls-172{fill:#1c3165;}.cls-173{fill:#1c3063;}.cls-174{fill:#1c2f62;}.cls-175{fill:#1c3164;}.cls-176{fill:#0e4e8b;}.cls-177{fill:#1c2e60;}.cls-178{fill:#1c2e61;}.cls-179{fill:#0d518e;}.cls-180{fill:#3663ad;}.cls-181{fill:#3662ac;}.cls-182{fill:#3564ae;}.cls-183{fill:#3567b0;}.cls-184{fill:#1b3468;}.cls-185{fill:#1b3367;}.cls-186{fill:#1b3266;}.cls-187{fill:#1b3569;}.cls-188{fill:#1b356a;}.cls-189{fill:#1a366b;}.cls-190{fill:#1a3468;}.cls-191{fill:#1a386e;}.cls-192{fill:#1a386d;}.cls-193{fill:#1a3a70;}.cls-194{fill:#1a396f;}.cls-195{fill:#1a3b71;}.cls-196{fill:#1a376c;}.cls-197{fill:#1a3c72;}.cls-198{fill:#1a3367;}.cls-199{fill:#19366b;}.cls-200{fill:#193569;}.cls-201{fill:#19356a;}.cls-202{fill:#18447d;}.cls-203{fill:#18437c;}.cls-204{fill:#18437b;}.cls-205{fill:#0b5695;}.cls-206{fill:#0b5796;}.cls-207{fill:#0d5290;}.cls-208{fill:#0d528f;}.cls-209{fill:#1a3266;}.cls-210{fill:#1c3266;}.cls-211{fill:#1b376c;}.cls-212{fill:#1b366b;}.cls-213{fill:#2a75bb;}.cls-214{fill:#2c72b8;}.cls-215{fill:#2c71b7;}.cls-216{fill:#2b73b9;}.cls-217{fill:#2e6fb6;}.cls-218{fill:#2d70b7;}.cls-219{fill:#3761ac;}.cls-220{fill:#316ab2;}.cls-221{fill:#316bb3;}.cls-222{fill:#395ea9;}.cls-223{fill:#3a5da8;}.cls-224{fill:#3467b0;}.cls-225{fill:#3466af;}.cls-226{fill:#3465af;}.cls-227{fill:#3c5aa6;}.cls-228{fill:#3860ab;}.cls-229{fill:#385faa;}.cls-230{fill:#3b5ba7;}.cls-231{fill:#3b5ca8;}.cls-232{clip-path:url(#clippath-1);}.cls-233{clip-path:url(#clippath-4);}.cls-234{clip-path:url(#clippath-3);}.cls-235{clip-path:url(#clippath-2);}.cls-236{clip-path:url(#clippath-7);}.cls-237{clip-path:url(#clippath-8);}.cls-238{clip-path:url(#clippath-6);}.cls-239{clip-path:url(#clippath-5);}</style><clipPath id="clippath"><path class="cls-1" d="M0,7.52l2.47,4.17,.99-.95L.76,6.74l-.76,.78Z"/></clipPath><clipPath id="clippath-1"><path class="cls-1" d="M29.79,.47l-3.8,4.36,1.11-.31L30.72,0l-.92,.47Z"/></clipPath><clipPath id="clippath-2"><path class="cls-1" d="M15.74,5.47l.12,2.69,1.17-.45-.35-2.75-.95,.51Z"/></clipPath><clipPath id="clippath-3"><path class="cls-1" d="M45.24,4.64l-.92,.51,.02,2.77,.95-.47,.29-1.36-.33-1.46Z"/></clipPath><clipPath id="clippath-4"><path class="cls-1" d="M33.98,4.27l-.92,.51-1.64,10.07,.92-.49,1.58-5.65,.06-4.44Z"/></clipPath><clipPath id="clippath-5"><path class="cls-1" d="M11.63,12.62l-.95,.66s.21,1.07,.47,1.81c.27,.74,.88,1.34,.88,1.34,.41,.39,.88,.68,1.44,.84,1.05,.31,2.24,.1,3.27-.55,.27-.16,.64-.43,.86-.66-1.01,.62-5.98-3.43-5.98-3.43h0Z"/></clipPath><clipPath id="clippath-6"><path class="cls-1" d="M3.39,11.28l3.99,9.02,3.78-1.21,.92-.62L4.23,10.25l-.99,.6-.78,.84,.92-.41Z"/></clipPath><clipPath id="clippath-7"><path class="cls-1" d="M17.48,10.91c0,.49-.45,.88-.99,.88s-.99-.39-.99-.88c0-.45,.39-.84,.9-.88-.1-.02-.21-.02-.31-.02-.92,0-1.64,.68-1.64,1.5,0,.86,.72,1.54,1.62,1.54s1.64-.68,1.64-1.54c0-.31-.1-.58-.27-.82,0,.06,.02,.14,.02,.23"/></clipPath><clipPath id="clippath-8"><path class="cls-1" d="M51.07,5.94l-.41,1.68-.37-1.87-5.05-1.11,.04,2.81,.76,.16-.06,.51s-.02,0-.02-.02c-.95-.49-2.12-.55-3.21-.12-.37,.14-.72,.33-1.03,.55l-.76-4.81h-3.35l-.08,.55h-3.53l-.41,2.47-.29-.37c-.86-1.05-2.1-1.62-3.47-1.66l3-1.6L30.73,0l-3.78,4.36,.66,.8c-.6,.25-1.11,.58-1.54,.99l-3.25-2.88-1.13,2.16,.04-2.1-5.07,1.62,.14,2.71,.86-.23,.12,1.38c-.99-.45-2.18-.43-3.27,.04-.33,.14-.64,.31-.9,.51,.18-.84,.14-1.66-.18-2.4-.37-.86-1.05-1.6-1.85-2.05-.58-.39-1.25-.62-1.97-.7-1.75-.31-3.86,0-5.94,.88-.76,.33-1.48,.7-2.12,1.11l-.8,.51,.49,.82,1.52,2.59,.47,.78,.82-.41,.12-.06,3.78,8.42,.37,.8,.84-.27,2.03-.66,.9-.29-.23-.9-1.09-4.15c.31-.23,.6-.47,.86-.74-.06,.49-.02,1.01,.1,1.48,.29,1.01,.95,1.81,1.87,2.24,.99,.47,2.2,.47,3.31,0,.55-.25,1.07-.58,1.48-1.01l.14,1.66,3.57-.53v-3.21l7.46,3.7v-3.55c.31-.02,.6-.08,.9-.14,.82-.21,1.52-.47,2.16-.84l-.31,1.91,4.03,.64,.23-1.46,1.05,1.95,.64-1.23,.23,2.03,4.56,.8-.25-1.54c.62,.06,1.27-.02,1.91-.25,.14-.06,.31-.12,.43-.21l-.18,1.64,3.04,.43,.02,1.25,3.16,.99,4.13-12.43-4.27-1.05h0Zm-17.83,1.85l.21-.23-.25,1.56-.66-.6,.7-.74Zm-2.67-6.41l1.11,1.5-3.16,1.56-.23-.33s2.28-2.73,2.28-2.73ZM9.63,12.97l1.25,4.85-2.03,.66L4.65,9.1c-.23,.12-.66,.33-1.03,.51l-1.52-2.57c.6-.39,1.27-.72,1.97-1.03,1.97-.84,3.86-1.09,5.36-.82,.53,.06,1.09,.23,1.58,.55,.68,.39,1.19,.92,1.5,1.62,.74,1.68-.47,4.11-2.9,5.59h0Zm9.39-.86c-.02,.72-.29,1.44-.74,2.05-.43,.6-1.01,1.07-1.71,1.38-1.77,.76-3.53,0-4.01-1.68-.45-1.62,.62-3.55,2.32-4.29,1.09-.47,2.2-.35,2.98,.18,.49,.33,.86,.82,1.03,1.44,.02,.06,.04,.14,.04,.21,.08,.25,.08,.49,.08,.72Zm9.64,3.43l-7.42-3.7,.02,3.88-1.91,.27-.14-1.6c.6-1.01,.8-2.22,.49-3.31-.16-.6-.47-1.13-.9-1.54l-.27-3.27-.86,.23-.04-.82,3.08-.92,.18,3.16,2.26-3.18,2.24,2.12-3.1,3.27,2.92,1.15c.33,.62,.82,1.13,1.44,1.52,.6,.37,1.29,.6,2.01,.66v2.1h0Zm-3.84-5.38l-1.03-.39,.97-.92c-.06,.43-.04,.86,.06,1.31Zm8.05,.99c-.72,.6-1.52,.97-2.59,1.23-.23,.06-.47,.1-.68,.1-1.71,.16-3.12-.62-3.66-1.87-.06-.14-.12-.31-.16-.47-.25-1.07-.04-2.01,.49-2.77,.14-.23,.33-.41,.53-.6,.49-.45,1.13-.76,1.85-.95,1.62-.39,3.04,.1,3.92,1.17l-3.08,3.29c.21,.04,.53-.02,.78-.08,.74-.18,1.15-.58,1.5-.99l1.23,1.11,.37,.33c-.16,.18-.33,.35-.51,.49Zm6.55,4.38l-.68-4.44-.95,2.44-1.42-3.06h-.02l-.55,3.55-2.36-.41,.33-1.97c.08-.08,.18-.16,.27-.27l.76-.78-.74-.68,.8-4.73h2.38l.6,3.27,.68-3.78h1.71l.72,4.6c-.9,1.03-1.34,2.4-1.05,3.68,.23,.99,.84,1.77,1.71,2.24,.08,.04,.18,.08,.27,.12l.08,.6-2.53-.39Zm5.9-1.46c-.27,.18-.55,.35-.86,.45-.62,.23-1.21,.29-1.77,.16-.37-.08-.72-.23-1.03-.43-.47-.35-.82-.84-.99-1.48-.18-.76-.02-1.58,.39-2.3,.21-.35,.47-.68,.78-.97,.35-.31,.76-.58,1.19-.74,1.05-.39,2.08-.25,2.79,.27,.27,.18,.49,.43,.66,.72,.12,.23,.23,.47,.29,.74,.23,.92-.04,1.91-.62,2.69-.18,.35-.49,.64-.84,.88h0Zm5.34,4.19l-1.75-.51-.14-6.45-.88,4.97-1.91-.31,.14-1.44c1.25-1.05,1.91-2.71,1.54-4.23-.16-.66-.49-1.25-.99-1.68l.16-1.68-.72-.18,.02-.9,3.29,.66,1.11,5.24,1.13-4.71,2.51,.55-3.51,10.68h0Z"/></clipPath></defs><g id="polygon16"><g class="cls-2"><polygon class="cls-13" points="1.77 11.69 1.7 11.55 3.45 10.61 3.45 11.69 1.77 11.69"/><polygon class="cls-13" points="1.7 11.55 1.67 11.51 3.45 10.55 3.45 10.61 1.7 11.55"/><polygon class="cls-12" points="1.67 11.51 1.65 11.47 3.45 10.5 3.45 10.55 1.67 11.51"/><polygon class="cls-10" points="1.65 11.47 1.63 11.42 3.45 10.44 3.45 10.5 1.65 11.47"/><polygon class="cls-9" points="1.63 11.42 1.6 11.38 3.45 10.39 3.45 10.44 1.63 11.42"/><polygon class="cls-11" points="1.6 11.38 1.58 11.33 3.45 10.33 3.45 10.39 1.6 11.38"/><polygon class="cls-5" points="1.58 11.33 1.56 11.29 3.45 10.27 3.45 10.33 1.58 11.33"/><polygon class="cls-3" points="1.56 11.29 1.53 11.25 3.45 10.22 3.45 10.27 1.56 11.29"/><polygon class="cls-4" points="1.53 11.25 1.51 11.2 3.45 10.16 3.45 10.22 1.53 11.25"/><polygon class="cls-14" points="1.51 11.2 1.49 11.16 3.45 10.11 3.45 10.16 1.51 11.2"/><polygon class="cls-16" points="1.49 11.16 1.46 11.12 3.45 10.05 3.45 10.11 1.49 11.16"/><polygon class="cls-15" points="1.46 11.12 1.44 11.07 3.45 9.99 3.45 10.05 1.46 11.12"/><polygon class="cls-8" points="1.44 11.07 1.42 11.03 3.45 9.94 3.45 9.99 1.44 11.07"/><polygon class="cls-6" points="1.42 11.03 1.39 10.99 3.45 9.88 3.45 9.94 1.42 11.03"/><polygon class="cls-7" points="1.39 10.99 1.37 10.94 3.43 9.84 3.45 9.88 3.45 9.88 1.39 10.99"/><rect class="cls-113" x="1.22" y="10.34" width="2.34" height=".05" transform="translate(-4.62 2.36) rotate(-28.22)"/><rect class="cls-114" x="1.2" y="10.3" width="2.34" height=".05" transform="translate(-4.6 2.35) rotate(-28.22)"/><rect class="cls-109" x="1.17" y="10.26" width="2.34" height=".05" transform="translate(-4.58 2.33) rotate(-28.22)"/><rect class="cls-124" x="1.15" y="10.21" width="2.34" height=".05" transform="translate(-4.56 2.31) rotate(-28.22)"/><rect class="cls-115" x="1.13" y="10.17" width="2.34" height=".05" transform="translate(-4.55 2.3) rotate(-28.22)"/><rect class="cls-116" x="1.1" y="10.12" width="2.34" height=".05" transform="translate(-4.53 2.28) rotate(-28.22)"/><rect class="cls-108" x="1.08" y="10.08" width="2.34" height=".05" transform="translate(-4.51 2.26) rotate(-28.22)"/><rect class="cls-107" x="1.06" y="10.04" width="2.34" height=".05" transform="translate(-4.49 2.25) rotate(-28.22)"/><rect class="cls-106" x="1.03" y="9.99" width="2.34" height=".05" transform="translate(-4.48 2.23) rotate(-28.22)"/><rect class="cls-103" x="1.01" y="9.95" width="2.34" height=".05" transform="translate(-4.46 2.22) rotate(-28.22)"/><rect class="cls-105" x=".99" y="9.91" width="2.34" height=".05" transform="translate(-4.44 2.2) rotate(-28.22)"/><rect class="cls-102" x=".96" y="9.86" width="2.34" height=".05" transform="translate(-4.42 2.18) rotate(-28.22)"/><rect class="cls-151" x=".94" y="9.82" width="2.34" height=".05" transform="translate(-4.4 2.17) rotate(-28.22)"/><rect class="cls-150" x=".92" y="9.78" width="2.34" height=".05" transform="translate(-4.39 2.15) rotate(-28.22)"/><rect class="cls-152" x=".89" y="9.73" width="2.34" height=".05" transform="translate(-4.37 2.13) rotate(-28.22)"/><rect class="cls-147" x=".87" y="9.69" width="2.34" height=".05" transform="translate(-4.35 2.12) rotate(-28.22)"/><rect class="cls-146" x=".85" y="9.65" width="2.34" height=".05" transform="translate(-4.33 2.1) rotate(-28.22)"/><rect class="cls-148" x=".82" y="9.6" width="2.34" height=".05" transform="translate(-4.32 2.09) rotate(-28.22)"/><rect class="cls-206" x=".8" y="9.56" width="2.34" height=".05" transform="translate(-4.3 2.07) rotate(-28.22)"/><rect class="cls-205" x=".78" y="9.51" width="2.34" height=".05" transform="translate(-4.28 2.05) rotate(-28.22)"/><rect class="cls-100" x=".75" y="9.47" width="2.34" height=".05" transform="translate(-4.26 2.04) rotate(-28.22)"/><rect class="cls-101" x=".73" y="9.43" width="2.34" height=".05" transform="translate(-4.24 2.02) rotate(-28.22)"/><rect class="cls-149" x=".71" y="9.38" width="2.34" height=".05" transform="translate(-4.23 2) rotate(-28.22)"/><rect class="cls-104" x=".68" y="9.34" width="2.34" height=".05" transform="translate(-4.21 1.99) rotate(-28.22)"/><rect class="cls-207" x=".66" y="9.3" width="2.34" height=".05" transform="translate(-4.19 1.97) rotate(-28.22)"/><rect class="cls-208" x=".63" y="9.25" width="2.34" height=".05" transform="translate(-4.17 1.96) rotate(-28.22)"/><rect class="cls-179" x=".61" y="9.21" width="2.34" height=".05" transform="translate(-4.15 1.94) rotate(-28.22)"/><rect class="cls-171" x=".59" y="9.17" width="2.34" height=".05" transform="translate(-4.14 1.92) rotate(-28.22)"/><rect class="cls-170" x=".56" y="9.12" width="2.34" height=".05" transform="translate(-4.12 1.91) rotate(-28.22)"/><rect class="cls-176" x=".54" y="9.08" width="2.34" height=".05" transform="translate(-4.1 1.89) rotate(-28.22)"/><rect class="cls-168" x=".52" y="9.04" width="2.34" height=".05" transform="translate(-4.08 1.87) rotate(-28.22)"/><rect class="cls-169" x=".49" y="8.99" width="2.34" height=".05" transform="translate(-4.07 1.86) rotate(-28.22)"/><rect class="cls-164" x=".47" y="8.95" width="2.34" height=".05" transform="translate(-4.05 1.84) rotate(-28.22)"/><rect class="cls-161" x=".45" y="8.9" width="2.34" height=".05" transform="translate(-4.03 1.83) rotate(-28.22)"/><rect class="cls-163" x=".42" y="8.86" width="2.34" height=".05" transform="translate(-4.01 1.81) rotate(-28.22)"/><rect class="cls-162" x=".4" y="8.82" width="2.34" height=".05" transform="translate(-3.99 1.79) rotate(-28.22)"/><rect class="cls-53" x=".38" y="8.77" width="2.34" height=".05" transform="translate(-3.98 1.78) rotate(-28.22)"/><rect class="cls-51" x=".35" y="8.73" width="2.34" height=".05" transform="translate(-3.96 1.76) rotate(-28.22)"/><rect class="cls-52" x=".33" y="8.69" width="2.34" height=".05" transform="translate(-3.94 1.74) rotate(-28.22)"/><rect class="cls-45" x=".31" y="8.64" width="2.34" height=".05" transform="translate(-3.92 1.73) rotate(-28.22)"/><rect class="cls-43" x=".28" y="8.6" width="2.34" height=".05" transform="translate(-3.91 1.71) rotate(-28.22)"/><rect class="cls-44" x=".26" y="8.56" width="2.34" height=".05" transform="translate(-3.89 1.7) rotate(-28.22)"/><rect class="cls-34" x=".24" y="8.51" width="2.34" height=".05" transform="translate(-3.87 1.68) rotate(-28.22)"/><rect class="cls-31" x=".21" y="8.47" width="2.34" height=".05" transform="translate(-3.85 1.66) rotate(-28.22)"/><rect class="cls-30" x=".19" y="8.43" width="2.34" height=".05" transform="translate(-3.83 1.65) rotate(-28.22)"/><rect class="cls-122" x=".17" y="8.38" width="2.34" height=".05" transform="translate(-3.82 1.63) rotate(-28.22)"/><rect class="cls-123" x=".14" y="8.34" width="2.34" height=".05" transform="translate(-3.8 1.61) rotate(-28.22)"/><rect class="cls-121" x=".12" y="8.29" width="2.34" height=".05" transform="translate(-3.78 1.6) rotate(-28.22)"/><rect class="cls-111" x=".1" y="8.25" width="2.34" height=".05" transform="translate(-3.76 1.58) rotate(-28.22)"/><rect class="cls-110" x=".07" y="8.21" width="2.34" height=".05" transform="translate(-3.74 1.57) rotate(-28.22)"/><rect class="cls-112" x=".05" y="8.16" width="2.34" height=".05" transform="translate(-3.73 1.55) rotate(-28.22)"/><rect class="cls-79" x=".03" y="8.12" width="2.34" height=".05" transform="translate(-3.71 1.53) rotate(-28.22)"/><rect class="cls-80" x="0" y="8.08" width="2.34" height=".05" transform="translate(-3.69 1.52) rotate(-28.22)"/><rect class="cls-83" x="-.02" y="8.03" width="2.34" height=".05" transform="translate(-3.67 1.5) rotate(-28.22)"/><rect class="cls-78" x="-.04" y="7.99" width="2.34" height=".05" transform="translate(-3.66 1.48) rotate(-28.22)"/><rect class="cls-74" x="-.07" y="7.95" width="2.34" height=".05" transform="translate(-3.64 1.47) rotate(-28.22)"/><rect class="cls-75" x="-.09" y="7.9" width="2.34" height=".05" transform="translate(-3.62 1.45) rotate(-28.22)"/><rect class="cls-69" x="-.11" y="7.86" width="2.34" height=".05" transform="translate(-3.6 1.44) rotate(-28.22)"/><polygon class="cls-63" points=".01 8.41 0 8.39 0 8.37 2.05 7.27 2.07 7.31 .01 8.41"/><polygon class="cls-62" points="0 8.31 2.03 7.22 2.05 7.27 0 8.37 0 8.31"/><polygon class="cls-199" points="0 8.25 2 7.18 2.03 7.22 0 8.31 0 8.25"/><polygon class="cls-201" points="0 8.2 1.98 7.13 2 7.18 0 8.25 0 8.2"/><polygon class="cls-200" points="0 8.14 1.96 7.09 1.98 7.13 0 8.2 0 8.14"/><polygon class="cls-190" points="0 8.08 1.93 7.05 1.96 7.09 0 8.14 0 8.08"/><polygon class="cls-198" points="0 8.03 1.91 7 1.93 7.05 0 8.08 0 8.03"/><polygon class="cls-209" points="0 7.97 1.89 6.96 1.91 7 0 8.03 0 7.97"/><polygon class="cls-139" points="0 7.92 1.86 6.92 1.89 6.96 0 7.97 0 7.92"/><polygon class="cls-141" points="0 7.86 1.84 6.87 1.86 6.92 0 7.92 0 7.86"/><polygon class="cls-140" points="0 7.8 1.82 6.83 1.84 6.87 0 7.86 0 7.8"/><polygon class="cls-174" points="0 7.75 1.79 6.79 1.82 6.83 0 7.8 0 7.75"/><polygon class="cls-178" points="0 7.69 1.77 6.74 1.79 6.79 0 7.75 0 7.69"/><polygon class="cls-177" points="0 7.64 1.67 6.74 1.77 6.74 1.77 6.74 0 7.69 0 7.64"/><polygon class="cls-166" points="0 7.58 1.57 6.74 1.67 6.74 0 7.64 0 7.58"/><polygon class="cls-165" points="0 7.52 1.46 6.74 1.57 6.74 0 7.58 0 7.52"/><polygon class="cls-165" points="1.46 6.74 0 7.52 0 6.74 1.46 6.74"/></g></g><g id="polygon18"><path class="cls-17" d="M36.7,4.23l-.1,.55,1.17-.39-.14-.68-.92,.51Z"/></g><g id="polygon25"><g class="cls-232"><polygon class="cls-13" points="25.99 3.94 27.24 2.61 28.42 3.71 27.37 4.83 25.99 4.83 25.99 3.94"/><rect class="cls-13" x="27.82" y="2.33" width=".04" height="1.62" transform="translate(6.55 21.35) rotate(-46.98)"/><rect class="cls-12" x="27.85" y="2.3" width=".04" height="1.62" transform="translate(6.58 21.37) rotate(-46.98)"/><rect class="cls-10" x="27.88" y="2.27" width=".04" height="1.62" transform="translate(6.62 21.38) rotate(-46.98)"/><rect class="cls-9" x="27.91" y="2.24" width=".04" height="1.62" transform="translate(6.65 21.39) rotate(-46.98)"/><rect class="cls-11" x="27.94" y="2.21" width=".04" height="1.62" transform="translate(6.68 21.4) rotate(-46.98)"/><rect class="cls-5" x="27.97" y="2.17" width=".04" height="1.62" transform="translate(6.71 21.41) rotate(-46.98)"/><rect class="cls-3" x="28" y="2.14" width=".04" height="1.62" transform="translate(6.75 21.42) rotate(-46.98)"/><rect class="cls-4" x="28.03" y="2.11" width=".04" height="1.62" transform="translate(6.78 21.44) rotate(-46.98)"/><rect class="cls-14" x="28.06" y="2.08" width=".04" height="1.62" transform="translate(6.81 21.45) rotate(-46.98)"/><rect class="cls-16" x="28.09" y="2.05" width=".04" height="1.62" transform="translate(6.84 21.46) rotate(-46.98)"/><rect class="cls-15" x="28.12" y="2.01" width=".04" height="1.62" transform="translate(6.88 21.47) rotate(-46.98)"/><rect class="cls-8" x="28.15" y="1.98" width=".04" height="1.62" transform="translate(6.91 21.48) rotate(-46.98)"/><rect class="cls-6" x="28.18" y="1.95" width=".04" height="1.62" transform="translate(6.94 21.49) rotate(-46.98)"/><rect class="cls-7" x="28.21" y="1.92" width=".04" height="1.62" transform="translate(6.98 21.51) rotate(-46.98)"/><rect class="cls-113" x="28.24" y="1.89" width=".04" height="1.62" transform="translate(7.01 21.52) rotate(-46.98)"/><rect class="cls-114" x="28.27" y="1.86" width=".04" height="1.62" transform="translate(7.04 21.53) rotate(-46.98)"/><rect class="cls-109" x="28.3" y="1.82" width=".04" height="1.62" transform="translate(7.07 21.54) rotate(-46.98)"/><rect class="cls-124" x="28.33" y="1.79" width=".04" height="1.62" transform="translate(7.11 21.55) rotate(-46.98)"/><rect class="cls-115" x="28.36" y="1.76" width=".04" height="1.62" transform="translate(7.14 21.56) rotate(-46.98)"/><rect class="cls-116" x="28.39" y="1.73" width=".04" height="1.62" transform="translate(7.17 21.57) rotate(-46.98)"/><rect class="cls-108" x="28.42" y="1.7" width=".04" height="1.62" transform="translate(7.2 21.59) rotate(-46.98)"/><rect class="cls-107" x="28.45" y="1.66" width=".04" height="1.62" transform="translate(7.24 21.6) rotate(-46.98)"/><rect class="cls-106" x="28.48" y="1.63" width=".04" height="1.62" transform="translate(7.27 21.61) rotate(-46.98)"/><rect class="cls-103" x="28.51" y="1.6" width=".04" height="1.62" transform="translate(7.3 21.62) rotate(-46.98)"/><rect class="cls-105" x="28.54" y="1.57" width=".04" height="1.62" transform="translate(7.33 21.63) rotate(-46.98)"/><rect class="cls-102" x="28.56" y="1.54" width=".04" height="1.62" transform="translate(7.37 21.64) rotate(-46.98)"/><rect class="cls-151" x="28.59" y="1.51" width=".04" height="1.62" transform="translate(7.4 21.66) rotate(-46.98)"/><rect class="cls-150" x="28.62" y="1.47" width=".04" height="1.62" transform="translate(7.43 21.67) rotate(-46.98)"/><rect class="cls-152" x="28.65" y="1.44" width=".04" height="1.62" transform="translate(7.47 21.68) rotate(-46.98)"/><rect class="cls-147" x="28.68" y="1.41" width=".04" height="1.62" transform="translate(7.5 21.69) rotate(-46.98)"/><rect class="cls-146" x="28.71" y="1.38" width=".04" height="1.62" transform="translate(7.53 21.7) rotate(-46.98)"/><rect class="cls-148" x="28.74" y="1.35" width=".04" height="1.62" transform="translate(7.56 21.71) rotate(-46.98)"/><rect class="cls-206" x="28.77" y="1.31" width=".04" height="1.62" transform="translate(7.6 21.73) rotate(-46.98)"/><rect class="cls-205" x="28.8" y="1.28" width=".04" height="1.62" transform="translate(7.63 21.74) rotate(-46.98)"/><rect class="cls-100" x="28.83" y="1.25" width=".04" height="1.62" transform="translate(7.66 21.75) rotate(-46.98)"/><rect class="cls-101" x="28.86" y="1.22" width=".04" height="1.62" transform="translate(7.69 21.76) rotate(-46.98)"/><rect class="cls-149" x="28.89" y="1.19" width=".04" height="1.62" transform="translate(7.73 21.77) rotate(-46.98)"/><rect class="cls-104" x="28.92" y="1.16" width=".04" height="1.62" transform="translate(7.76 21.78) rotate(-46.98)"/><rect class="cls-207" x="28.95" y="1.12" width=".04" height="1.62" transform="translate(7.79 21.79) rotate(-46.98)"/><rect class="cls-208" x="28.98" y="1.09" width=".04" height="1.62" transform="translate(7.83 21.81) rotate(-46.98)"/><rect class="cls-179" x="29.01" y="1.06" width=".04" height="1.62" transform="translate(7.86 21.82) rotate(-46.98)"/><rect class="cls-171" x="29.04" y="1.03" width=".04" height="1.62" transform="translate(7.89 21.83) rotate(-46.98)"/><rect class="cls-170" x="29.07" y="1" width=".04" height="1.62" transform="translate(7.92 21.84) rotate(-46.98)"/><rect class="cls-176" x="29.1" y=".97" width=".04" height="1.62" transform="translate(7.96 21.85) rotate(-46.98)"/><rect class="cls-168" x="29.13" y=".93" width=".04" height="1.62" transform="translate(7.99 21.86) rotate(-46.98)"/><rect class="cls-169" x="29.16" y=".9" width=".04" height="1.62" transform="translate(8.02 21.88) rotate(-46.98)"/><rect class="cls-164" x="29.19" y=".87" width=".04" height="1.62" transform="translate(8.05 21.89) rotate(-46.98)"/><rect class="cls-161" x="29.22" y=".84" width=".04" height="1.62" transform="translate(8.09 21.9) rotate(-46.98)"/><rect class="cls-163" x="29.25" y=".81" width=".04" height="1.62" transform="translate(8.12 21.91) rotate(-46.98)"/><rect class="cls-162" x="29.28" y=".77" width=".04" height="1.62" transform="translate(8.15 21.92) rotate(-46.98)"/><rect class="cls-53" x="29.31" y=".74" width=".04" height="1.62" transform="translate(8.18 21.93) rotate(-46.98)"/><rect class="cls-51" x="29.34" y=".71" width=".04" height="1.62" transform="translate(8.22 21.95) rotate(-46.98)"/><rect class="cls-52" x="29.37" y=".68" width=".04" height="1.62" transform="translate(8.25 21.96) rotate(-46.98)"/><rect class="cls-45" x="29.4" y=".65" width=".04" height="1.62" transform="translate(8.28 21.97) rotate(-46.98)"/><rect class="cls-43" x="29.43" y=".62" width=".04" height="1.62" transform="translate(8.32 21.98) rotate(-46.98)"/><rect class="cls-44" x="29.46" y=".58" width=".04" height="1.62" transform="translate(8.35 21.99) rotate(-46.98)"/><rect class="cls-34" x="29.49" y=".55" width=".04" height="1.62" transform="translate(8.38 22) rotate(-46.98)"/><rect class="cls-31" x="29.51" y=".52" width=".04" height="1.62" transform="translate(8.41 22.02) rotate(-46.98)"/><rect class="cls-30" x="29.54" y=".49" width=".04" height="1.62" transform="translate(8.45 22.03) rotate(-46.98)"/><rect class="cls-122" x="29.57" y=".46" width=".04" height="1.62" transform="translate(8.48 22.04) rotate(-46.98)"/><rect class="cls-123" x="29.6" y=".42" width=".04" height="1.62" transform="translate(8.51 22.05) rotate(-46.98)"/><rect class="cls-121" x="29.63" y=".39" width=".04" height="1.62" transform="translate(8.54 22.06) rotate(-46.98)"/><rect class="cls-111" x="29.66" y=".36" width=".04" height="1.62" transform="translate(8.58 22.07) rotate(-46.98)"/><rect class="cls-110" x="29.69" y=".33" width=".04" height="1.62" transform="translate(8.61 22.08) rotate(-46.98)"/><rect class="cls-112" x="29.72" y=".3" width=".04" height="1.62" transform="translate(8.64 22.1) rotate(-46.98)"/><rect class="cls-79" x="29.75" y=".27" width=".04" height="1.62" transform="translate(8.67 22.11) rotate(-46.98)"/><rect class="cls-80" x="29.78" y=".23" width=".04" height="1.62" transform="translate(8.71 22.12) rotate(-46.98)"/><rect class="cls-83" x="29.81" y=".2" width=".04" height="1.62" transform="translate(8.74 22.13) rotate(-46.98)"/><rect class="cls-78" x="29.84" y=".17" width=".04" height="1.62" transform="translate(8.77 22.14) rotate(-46.98)"/><rect class="cls-74" x="29.87" y=".14" width=".04" height="1.62" transform="translate(8.81 22.15) rotate(-46.98)"/><rect class="cls-75" x="29.9" y=".11" width=".04" height="1.62" transform="translate(8.84 22.17) rotate(-46.98)"/><rect class="cls-69" x="29.93" y=".07" width=".04" height="1.62" transform="translate(8.87 22.18) rotate(-46.98)"/><rect class="cls-63" x="29.96" y=".04" width=".04" height="1.62" transform="translate(8.9 22.19) rotate(-46.98)"/><rect class="cls-62" x="29.99" y=".01" width=".04" height="1.62" transform="translate(8.94 22.2) rotate(-46.98)"/><rect class="cls-199" x="30.02" y="-.02" width=".04" height="1.62" transform="translate(8.97 22.21) rotate(-46.98)"/><rect class="cls-201" x="30.05" y="-.05" width=".04" height="1.62" transform="translate(9 22.22) rotate(-46.98)"/><rect class="cls-200" x="30.08" y="-.08" width=".04" height="1.62" transform="translate(9.03 22.24) rotate(-46.98)"/><polygon class="cls-190" points="29.52 .16 29.55 .12 30.72 1.21 30.72 1.25 30.71 1.26 29.52 .16"/><polygon class="cls-198" points="29.55 .12 29.58 .09 30.72 1.15 30.72 1.21 29.55 .12"/><polygon class="cls-209" points="29.58 .09 29.61 .06 30.72 1.09 30.72 1.15 29.58 .09"/><polygon class="cls-139" points="29.61 .06 29.64 .03 30.72 1.03 30.72 1.09 29.61 .06"/><polygon class="cls-141" points="29.64 .03 29.67 0 29.68 0 30.72 .97 30.72 1.03 29.64 .03"/><polygon class="cls-140" points="29.74 0 30.72 .91 30.72 .97 29.68 0 29.74 0"/><polygon class="cls-174" points="29.8 0 30.72 .85 30.72 .91 29.74 0 29.8 0"/><polygon class="cls-178" points="29.87 0 30.72 .79 30.72 .85 29.8 0 29.87 0"/><polygon class="cls-177" points="29.93 0 30.72 .73 30.72 .79 29.87 0 29.93 0"/><polygon class="cls-166" points="30 0 30.72 .67 30.72 .73 29.93 0 30 0"/><polygon class="cls-165" points="30.06 0 30.72 .61 30.72 .67 30 0 30.06 0"/><polygon class="cls-165" points="30.72 .61 30.06 0 30.72 0 30.72 .61"/></g></g><g id="polygon27"><path class="cls-165" d="M50.15,6.43l.92-.49-.27,2.34-.66-1.85Z"/></g><g id="polygon29"><path class="cls-165" d="M44.34,7.93l.84,.18,1.05-.51-.92-.35-.97,.68Z"/></g><g id="polygon36"><g class="cls-235"><polygon class="cls-13" points="15.74 7.91 17.03 7.76 17.03 8.16 15.74 8.16 15.74 7.91"/><polygon class="cls-13" points="15.74 7.88 17.03 7.73 17.03 7.76 15.74 7.91 15.74 7.88"/><polygon class="cls-12" points="15.74 7.85 17.03 7.7 17.03 7.73 15.74 7.88 15.74 7.85"/><polygon class="cls-10" points="15.74 7.82 17.03 7.67 17.03 7.7 15.74 7.85 15.74 7.82"/><polygon class="cls-9" points="15.74 7.79 17.03 7.64 17.03 7.67 15.74 7.82 15.74 7.79"/><polygon class="cls-11" points="15.74 7.76 17.03 7.61 17.03 7.64 15.74 7.79 15.74 7.76"/><polygon class="cls-5" points="15.74 7.73 17.03 7.58 17.03 7.61 15.74 7.76 15.74 7.73"/><polygon class="cls-3" points="15.74 7.7 17.03 7.55 17.03 7.58 15.74 7.73 15.74 7.7"/><polygon class="cls-4" points="15.74 7.67 17.03 7.52 17.03 7.55 15.74 7.7 15.74 7.67"/><polygon class="cls-14" points="15.74 7.64 17.03 7.49 17.03 7.52 15.74 7.67 15.74 7.64"/><polygon class="cls-16" points="15.74 7.61 17.03 7.46 17.03 7.49 15.74 7.64 15.74 7.61"/><polygon class="cls-15" points="15.74 7.58 17.03 7.43 17.03 7.46 15.74 7.61 15.74 7.58"/><polygon class="cls-8" points="15.74 7.55 17.03 7.4 17.03 7.43 15.74 7.58 15.74 7.55"/><polygon class="cls-6" points="15.74 7.52 17.03 7.37 17.03 7.4 15.74 7.55 15.74 7.52"/><polygon class="cls-7" points="15.74 7.49 17.03 7.33 17.03 7.37 15.74 7.52 15.74 7.49"/><polygon class="cls-113" points="15.74 7.46 17.03 7.3 17.03 7.33 15.74 7.49 15.74 7.46"/><polygon class="cls-114" points="15.74 7.43 17.03 7.27 17.03 7.3 15.74 7.46 15.74 7.43"/><polygon class="cls-109" points="15.74 7.4 17.03 7.24 17.03 7.27 15.74 7.43 15.74 7.4"/><polygon class="cls-124" points="15.74 7.37 17.03 7.21 17.03 7.24 15.74 7.4 15.74 7.37"/><polygon class="cls-115" points="15.74 7.34 17.03 7.18 17.03 7.21 15.74 7.37 15.74 7.34"/><polygon class="cls-116" points="15.74 7.31 17.03 7.15 17.03 7.18 15.74 7.34 15.74 7.31"/><polygon class="cls-108" points="15.74 7.28 17.03 7.12 17.03 7.15 15.74 7.31 15.74 7.28"/><polygon class="cls-107" points="15.74 7.25 17.03 7.09 17.03 7.12 15.74 7.28 15.74 7.25"/><polygon class="cls-106" points="15.74 7.22 17.03 7.06 17.03 7.09 15.74 7.25 15.74 7.22"/><polygon class="cls-103" points="15.74 7.19 17.03 7.03 17.03 7.06 15.74 7.22 15.74 7.19"/><polygon class="cls-105" points="15.74 7.16 17.03 7 17.03 7.03 15.74 7.19 15.74 7.16"/><polygon class="cls-102" points="15.74 7.13 17.03 6.97 17.03 7 15.74 7.16 15.74 7.13"/><polygon class="cls-151" points="15.74 7.1 17.03 6.94 17.03 6.97 15.74 7.13 15.74 7.1"/><polygon class="cls-150" points="15.74 7.07 17.03 6.91 17.03 6.94 15.74 7.1 15.74 7.07"/><polygon class="cls-152" points="15.74 7.04 17.03 6.88 17.03 6.91 15.74 7.07 15.74 7.04"/><polygon class="cls-147" points="15.74 7.01 17.03 6.85 17.03 6.88 15.74 7.04 15.74 7.01"/><polygon class="cls-146" points="15.74 6.98 17.03 6.82 17.03 6.85 15.74 7.01 15.74 6.98"/><polygon class="cls-148" points="15.74 6.95 17.03 6.79 17.03 6.82 15.74 6.98 15.74 6.95"/><polygon class="cls-206" points="15.74 6.92 17.03 6.76 17.03 6.79 15.74 6.95 15.74 6.92"/><polygon class="cls-205" points="15.74 6.89 17.03 6.73 17.03 6.76 15.74 6.92 15.74 6.89"/><polygon class="cls-100" points="15.74 6.86 17.03 6.7 17.03 6.73 15.74 6.89 15.74 6.86"/><polygon class="cls-101" points="15.74 6.83 17.03 6.67 17.03 6.7 15.74 6.86 15.74 6.83"/><polygon class="cls-149" points="15.74 6.8 17.03 6.64 17.03 6.67 15.74 6.83 15.74 6.8"/><polygon class="cls-104" points="15.74 6.77 17.03 6.61 17.03 6.64 15.74 6.8 15.74 6.77"/><polygon class="cls-207" points="15.74 6.73 17.03 6.58 17.03 6.61 15.74 6.77 15.74 6.73"/><polygon class="cls-208" points="15.74 6.7 17.03 6.55 17.03 6.58 15.74 6.73 15.74 6.7"/><polygon class="cls-179" points="15.74 6.67 17.03 6.52 17.03 6.55 15.74 6.7 15.74 6.67"/><polygon class="cls-171" points="15.74 6.64 17.03 6.49 17.03 6.52 15.74 6.67 15.74 6.64"/><polygon class="cls-170" points="15.74 6.61 17.03 6.46 17.03 6.49 15.74 6.64 15.74 6.61"/><polygon class="cls-176" points="15.74 6.58 17.03 6.43 17.03 6.46 15.74 6.61 15.74 6.58"/><polygon class="cls-168" points="15.74 6.55 17.03 6.4 17.03 6.43 15.74 6.58 15.74 6.55"/><polygon class="cls-169" points="15.74 6.52 17.03 6.37 17.03 6.4 15.74 6.55 15.74 6.52"/><polygon class="cls-164" points="15.74 6.49 17.03 6.34 17.03 6.37 15.74 6.52 15.74 6.49"/><polygon class="cls-161" points="15.74 6.46 17.03 6.31 17.03 6.34 15.74 6.49 15.74 6.46"/><polygon class="cls-163" points="15.74 6.43 17.03 6.28 17.03 6.31 15.74 6.46 15.74 6.43"/><polygon class="cls-162" points="15.74 6.4 17.03 6.25 17.03 6.28 15.74 6.43 15.74 6.4"/><polygon class="cls-53" points="15.74 6.37 17.03 6.22 17.03 6.25 15.74 6.4 15.74 6.37"/><polygon class="cls-51" points="15.74 6.34 17.03 6.19 17.03 6.22 15.74 6.37 15.74 6.34"/><polygon class="cls-52" points="15.74 6.31 17.03 6.16 17.03 6.19 15.74 6.34 15.74 6.31"/><polygon class="cls-45" points="15.74 6.28 17.03 6.13 17.03 6.16 15.74 6.31 15.74 6.28"/><polygon class="cls-43" points="15.74 6.25 17.03 6.1 17.03 6.13 15.74 6.28 15.74 6.25"/><polygon class="cls-44" points="15.74 6.22 17.03 6.07 17.03 6.1 15.74 6.25 15.74 6.22"/><polygon class="cls-34" points="15.74 6.19 17.03 6.04 17.03 6.07 15.74 6.22 15.74 6.19"/><polygon class="cls-31" points="15.74 6.16 17.03 6.01 17.03 6.04 15.74 6.19 15.74 6.16"/><polygon class="cls-30" points="15.74 6.13 17.03 5.98 17.03 6.01 15.74 6.16 15.74 6.13"/><polygon class="cls-122" points="15.74 6.1 17.03 5.95 17.03 5.98 15.74 6.13 15.74 6.1"/><polygon class="cls-123" points="15.74 6.07 17.03 5.92 17.03 5.95 15.74 6.1 15.74 6.07"/><polygon class="cls-121" points="15.74 6.04 17.03 5.89 17.03 5.92 15.74 6.07 15.74 6.04"/><polygon class="cls-111" points="15.74 6.01 17.03 5.86 17.03 5.89 15.74 6.04 15.74 6.01"/><polygon class="cls-110" points="15.74 5.98 17.03 5.83 17.03 5.86 15.74 6.01 15.74 5.98"/><polygon class="cls-112" points="15.74 5.95 17.03 5.8 17.03 5.83 15.74 5.98 15.74 5.95"/><polygon class="cls-79" points="15.74 5.92 17.03 5.77 17.03 5.8 15.74 5.95 15.74 5.92"/><polygon class="cls-80" points="15.74 5.89 17.03 5.74 17.03 5.77 15.74 5.92 15.74 5.89"/><polygon class="cls-83" points="15.74 5.86 17.03 5.71 17.03 5.74 15.74 5.89 15.74 5.86"/><polygon class="cls-78" points="15.74 5.83 17.03 5.68 17.03 5.71 15.74 5.86 15.74 5.83"/><polygon class="cls-74" points="15.74 5.8 17.03 5.65 17.03 5.68 15.74 5.83 15.74 5.8"/><polygon class="cls-75" points="15.74 5.77 17.03 5.62 17.03 5.65 15.74 5.8 15.74 5.77"/><polygon class="cls-69" points="15.74 5.74 17.03 5.59 17.03 5.62 15.74 5.77 15.74 5.74"/><polygon class="cls-63" points="15.74 5.71 17.03 5.56 17.03 5.59 15.74 5.74 15.74 5.71"/><polygon class="cls-62" points="15.74 5.68 17.03 5.53 17.03 5.56 15.74 5.71 15.74 5.68"/><polygon class="cls-199" points="15.74 5.65 17.03 5.5 17.03 5.53 15.74 5.68 15.74 5.65"/><polygon class="cls-201" points="15.74 5.62 17.03 5.46 17.03 5.5 15.74 5.65 15.74 5.62"/><polygon class="cls-200" points="15.74 5.59 17.03 5.43 17.03 5.46 15.74 5.62 15.74 5.59"/><polygon class="cls-190" points="15.74 5.56 17.03 5.4 17.03 5.43 15.74 5.59 15.74 5.56"/><polygon class="cls-198" points="15.74 5.53 17.03 5.37 17.03 5.4 15.74 5.56 15.74 5.53"/><polygon class="cls-209" points="15.74 5.5 17.03 5.34 17.03 5.37 15.74 5.53 15.74 5.5"/><polygon class="cls-139" points="15.74 5.47 17.03 5.31 17.03 5.34 15.74 5.5 15.74 5.47"/><polygon class="cls-141" points="15.74 5.44 17.03 5.28 17.03 5.31 15.74 5.47 15.74 5.44"/><polygon class="cls-140" points="15.74 5.41 17.03 5.25 17.03 5.28 15.74 5.44 15.74 5.41"/><polygon class="cls-174" points="15.74 5.38 17.03 5.22 17.03 5.25 15.74 5.41 15.74 5.38"/><polygon class="cls-178" points="15.74 5.35 17.03 5.19 17.03 5.22 15.74 5.38 15.74 5.35"/><polygon class="cls-177" points="15.74 5.32 17.03 5.16 17.03 5.19 15.74 5.35 15.74 5.32"/><polygon class="cls-166" points="15.74 5.29 17.03 5.13 17.03 5.16 15.74 5.32 15.74 5.29"/><polygon class="cls-165" points="15.74 5.26 17.03 5.1 17.03 5.13 15.74 5.29 15.74 5.26"/><polygon class="cls-165" points="17.03 5.1 15.74 5.26 15.74 4.95 17.03 4.95 17.03 5.1"/></g></g><g id="polygon43"><g class="cls-234"><polygon class="cls-28" points="44.32 7.36 45.57 7.29 45.57 7.93 44.32 7.93 44.32 7.36"/><polygon class="cls-28" points="44.32 7.32 45.57 7.26 45.57 7.29 44.32 7.36 44.32 7.32"/><polygon class="cls-94" points="44.32 7.28 45.57 7.22 45.57 7.26 44.32 7.32 44.32 7.28"/><polygon class="cls-99" points="44.32 7.25 45.57 7.18 45.57 7.22 44.32 7.28 44.32 7.25"/><polygon class="cls-135" points="44.32 7.21 45.57 7.14 45.57 7.18 44.32 7.25 44.32 7.21"/><polygon class="cls-136" points="44.32 7.17 45.57 7.11 45.57 7.14 44.32 7.21 44.32 7.17"/><polygon class="cls-134" points="44.32 7.14 45.57 7.07 45.57 7.11 44.32 7.17 44.32 7.14"/><polygon class="cls-137" points="44.32 7.1 45.57 7.03 45.57 7.07 44.32 7.14 44.32 7.1"/><polygon class="cls-138" points="44.32 7.06 45.57 7 45.57 7.03 44.32 7.1 44.32 7.06"/><polygon class="cls-132" points="44.32 7.03 45.57 6.96 45.57 7 44.32 7.06 44.32 7.03"/><polygon class="cls-119" points="44.32 6.99 45.57 6.92 45.57 6.96 44.32 7.03 44.32 6.99"/><polygon class="cls-120" points="44.32 6.95 45.57 6.89 45.57 6.92 44.32 6.99 44.32 6.95"/><polygon class="cls-118" points="44.32 6.91 45.57 6.85 45.57 6.89 44.32 6.95 44.32 6.91"/><polygon class="cls-117" points="44.32 6.88 45.57 6.81 45.57 6.85 44.32 6.91 44.32 6.88"/><polygon class="cls-41" points="44.32 6.84 45.57 6.77 45.57 6.81 44.32 6.88 44.32 6.84"/><polygon class="cls-40" points="44.32 6.8 45.57 6.74 45.57 6.77 44.32 6.84 44.32 6.8"/><polygon class="cls-145" points="44.32 6.77 45.57 6.7 45.57 6.74 44.32 6.8 44.32 6.77"/><polygon class="cls-142" points="44.32 6.73 45.57 6.66 45.57 6.7 44.32 6.77 44.32 6.73"/><polygon class="cls-144" points="44.32 6.69 45.57 6.63 45.57 6.66 44.32 6.73 44.32 6.69"/><polygon class="cls-128" points="44.32 6.66 45.57 6.59 45.57 6.63 44.32 6.69 44.32 6.66"/><polygon class="cls-143" points="44.32 6.62 45.57 6.55 45.57 6.59 44.32 6.66 44.32 6.62"/><polygon class="cls-130" points="44.32 6.58 45.57 6.52 45.57 6.55 44.32 6.62 44.32 6.58"/><polygon class="cls-85" points="44.32 6.54 45.57 6.48 45.57 6.52 44.32 6.58 44.32 6.54"/><polygon class="cls-86" points="44.32 6.51 45.57 6.44 45.57 6.48 44.32 6.54 44.32 6.51"/><polygon class="cls-84" points="44.32 6.47 45.57 6.4 45.57 6.44 44.32 6.51 44.32 6.47"/><polygon class="cls-88" points="44.32 6.43 45.57 6.37 45.57 6.4 44.32 6.47 44.32 6.43"/><polygon class="cls-87" points="44.32 6.4 45.57 6.33 45.57 6.37 44.32 6.43 44.32 6.4"/><polygon class="cls-71" points="44.32 6.36 45.57 6.29 45.57 6.33 44.32 6.4 44.32 6.36"/><polygon class="cls-72" points="44.32 6.32 45.57 6.26 45.57 6.29 44.32 6.36 44.32 6.32"/><polygon class="cls-73" points="44.32 6.29 45.57 6.22 45.57 6.26 44.32 6.32 44.32 6.29"/><polygon class="cls-65" points="44.32 6.25 45.57 6.18 45.57 6.22 44.32 6.29 44.32 6.25"/><polygon class="cls-66" points="44.32 6.21 45.57 6.15 45.57 6.18 44.32 6.25 44.32 6.21"/><polygon class="cls-68" points="44.32 6.17 45.57 6.11 45.57 6.15 44.32 6.21 44.32 6.17"/><polygon class="cls-202" points="44.32 6.14 45.57 6.07 45.57 6.11 44.32 6.17 44.32 6.14"/><polygon class="cls-203" points="44.32 6.1 45.57 6.03 45.57 6.07 44.32 6.14 44.32 6.1"/><polygon class="cls-204" points="44.32 6.06 45.57 6 45.57 6.03 44.32 6.1 44.32 6.06"/><polygon class="cls-70" points="44.32 6.03 45.57 5.96 45.57 6 44.32 6.06 44.32 6.03"/><polygon class="cls-64" points="44.32 5.99 45.57 5.92 45.57 5.96 44.32 6.03 44.32 5.99"/><polygon class="cls-60" points="44.32 5.95 45.57 5.89 45.57 5.92 44.32 5.99 44.32 5.95"/><polygon class="cls-159" points="44.32 5.92 45.57 5.85 45.57 5.89 44.32 5.95 44.32 5.92"/><polygon class="cls-158" points="44.32 5.88 45.57 5.81 45.57 5.85 44.32 5.92 44.32 5.88"/><polygon class="cls-154" points="44.32 5.84 45.57 5.78 45.57 5.81 44.32 5.88 44.32 5.84"/><polygon class="cls-153" points="44.32 5.8 45.57 5.74 45.57 5.78 44.32 5.84 44.32 5.8"/><polygon class="cls-160" points="44.32 5.77 45.57 5.7 45.57 5.74 44.32 5.8 44.32 5.77"/><polygon class="cls-197" points="44.32 5.73 45.57 5.66 45.57 5.7 44.32 5.77 44.32 5.73"/><polygon class="cls-195" points="44.32 5.69 45.57 5.63 45.57 5.66 44.32 5.73 44.32 5.69"/><polygon class="cls-193" points="44.32 5.66 45.57 5.59 45.57 5.63 44.32 5.69 44.32 5.66"/><polygon class="cls-194" points="44.32 5.62 45.57 5.55 45.57 5.59 44.32 5.66 44.32 5.62"/><polygon class="cls-191" points="44.32 5.58 45.57 5.52 45.57 5.55 44.32 5.62 44.32 5.58"/><polygon class="cls-192" points="44.32 5.55 45.57 5.48 45.57 5.52 44.32 5.58 44.32 5.55"/><polygon class="cls-211" points="44.32 5.51 45.57 5.44 45.57 5.48 44.32 5.55 44.32 5.51"/><polygon class="cls-212" points="44.32 5.47 45.57 5.41 45.57 5.44 44.32 5.51 44.32 5.47"/><polygon class="cls-188" points="44.32 5.43 45.57 5.37 45.57 5.41 44.32 5.47 44.32 5.43"/><polygon class="cls-187" points="44.32 5.4 45.57 5.33 45.57 5.37 44.32 5.43 44.32 5.4"/><polygon class="cls-184" points="44.32 5.36 45.57 5.29 45.57 5.33 44.32 5.4 44.32 5.36"/><polygon class="cls-185" points="44.32 5.32 45.57 5.26 45.57 5.29 44.32 5.36 44.32 5.32"/><polygon class="cls-210" points="44.32 5.29 45.57 5.22 45.57 5.26 44.32 5.32 44.32 5.29"/><polygon class="cls-172" points="44.32 5.25 45.57 5.18 45.57 5.22 44.32 5.29 44.32 5.25"/><polygon class="cls-175" points="44.32 5.21 45.57 5.15 45.57 5.18 44.32 5.25 44.32 5.21"/><polygon class="cls-173" points="44.32 5.17 45.57 5.11 45.57 5.15 44.32 5.21 44.32 5.17"/><polygon class="cls-174" points="44.32 5.14 45.57 5.07 45.57 5.11 44.32 5.17 44.32 5.14"/><polygon class="cls-178" points="44.32 5.1 45.57 5.03 45.57 5.07 44.32 5.14 44.32 5.1"/><polygon class="cls-167" points="44.32 5.06 45.57 5 45.57 5.03 44.32 5.1 44.32 5.06"/><polygon class="cls-166" points="44.32 5.03 45.57 4.96 45.57 5 44.32 5.06 44.32 5.03"/><polygon class="cls-165" points="44.32 4.99 45.57 4.92 45.57 4.96 44.32 5.03 44.32 4.99"/><polygon class="cls-165" points="45.57 4.92 44.32 4.99 44.32 4.64 45.57 4.64 45.57 4.92"/></g></g><g id="polygon45"><path class="cls-23" d="M45.12,8.12l-1.03,9.12,1.64-.33,.31-9.29-.92,.49Z"/></g><g id="polygon47"><path class="cls-55" d="M47.11,17.67l.04,1.23,3.14,1.01,.95-.49-3.1-2.4-3.12-.27-.92,.49,3.02,.43Z"/></g><g id="polygon49"><path class="cls-55" d="M35.44,15.49l.76-.41,.51,.9,.72-.39,.14,1.19,4.58,.82,.9-.51-6.31-3.84-4.48,.76-.86,.84,4.03,.64Z"/></g><g id="polygon56"><g class="cls-233"><polygon class="cls-128" points="33.98 4.3 33.95 4.27 33.98 4.27 33.98 4.3"/><polygon class="cls-143" points="33.98 4.39 33.79 4.27 33.95 4.27 33.98 4.3 33.98 4.39"/><polygon class="cls-130" points="33.98 4.49 33.64 4.27 33.79 4.27 33.98 4.39 33.98 4.49"/><polygon class="cls-85" points="33.98 4.58 33.49 4.27 33.64 4.27 33.98 4.49 33.98 4.58"/><polygon class="cls-86" points="33.98 4.68 33.34 4.27 33.49 4.27 33.98 4.58 33.98 4.68"/><polygon class="cls-84" points="33.98 4.77 33.19 4.27 33.34 4.27 33.98 4.68 33.98 4.77"/><polygon class="cls-88" points="33.98 4.87 33.04 4.27 33.19 4.27 33.98 4.77 33.98 4.87"/><polygon class="cls-87" points="33.98 4.96 32.89 4.28 32.9 4.27 33.04 4.27 33.98 4.87 33.98 4.96"/><polygon class="cls-71" points="33.98 5.06 32.85 4.35 32.89 4.28 33.98 4.96 33.98 5.06"/><polygon class="cls-72" points="33.98 5.15 32.81 4.41 32.85 4.35 33.98 5.06 33.98 5.15"/><polygon class="cls-73" points="33.98 5.25 32.76 4.48 32.81 4.41 33.98 5.15 33.98 5.25"/><polygon class="cls-65" points="33.98 5.34 32.72 4.55 32.76 4.48 33.98 5.25 33.98 5.34"/><polygon class="cls-66" points="33.98 5.44 32.68 4.62 32.72 4.55 33.98 5.34 33.98 5.44"/><polygon class="cls-68" points="33.98 5.53 32.64 4.69 32.68 4.62 33.98 5.44 33.98 5.53"/><polygon class="cls-202" points="33.98 5.63 32.59 4.75 32.64 4.69 33.98 5.53 33.98 5.63"/><polygon class="cls-203" points="33.98 5.72 32.55 4.82 32.59 4.75 33.98 5.63 33.98 5.72"/><polygon class="cls-204" points="33.98 5.82 32.51 4.89 32.55 4.82 33.98 5.72 33.98 5.82"/><polygon class="cls-70" points="33.98 5.91 32.46 4.96 32.51 4.89 33.98 5.82 33.98 5.91"/><polygon class="cls-64" points="33.98 6.01 32.42 5.03 32.46 4.96 33.98 5.91 33.98 6.01"/><polygon class="cls-60" points="33.98 6.1 32.38 5.1 32.42 5.03 33.98 6.01 33.98 6.1"/><polygon class="cls-159" points="33.98 6.2 32.34 5.16 32.38 5.1 33.98 6.1 33.98 6.2"/><polygon class="cls-158" points="33.98 6.29 32.29 5.23 32.34 5.16 33.98 6.2 33.98 6.29"/><polygon class="cls-154" points="33.98 6.39 32.25 5.3 32.29 5.23 33.98 6.29 33.98 6.39"/><polygon class="cls-153" points="33.98 6.48 32.21 5.37 32.25 5.3 33.98 6.39 33.98 6.48"/><polygon class="cls-160" points="33.98 6.58 32.17 5.44 32.21 5.37 33.98 6.48 33.98 6.58"/><polygon class="cls-197" points="33.98 6.67 32.12 5.5 32.17 5.44 33.98 6.58 33.98 6.67"/><polygon class="cls-195" points="33.98 6.77 32.08 5.57 32.12 5.5 33.98 6.67 33.98 6.77"/><polygon class="cls-193" points="33.98 6.86 32.04 5.64 32.08 5.57 33.98 6.77 33.98 6.86"/><polygon class="cls-194" points="33.98 6.96 31.99 5.71 32.04 5.64 33.98 6.86 33.98 6.96"/><polygon class="cls-191" points="33.98 7.05 31.95 5.78 31.99 5.71 33.98 6.96 33.98 7.05"/><polygon class="cls-192" points="33.98 7.15 31.91 5.85 31.95 5.78 33.98 7.05 33.98 7.15"/><polygon class="cls-211" points="33.98 7.24 31.87 5.91 31.91 5.85 33.98 7.15 33.98 7.24"/><polygon class="cls-212" points="33.98 7.34 31.82 5.98 31.87 5.91 33.98 7.24 33.98 7.34"/><polygon class="cls-188" points="33.98 7.43 31.78 6.05 31.82 5.98 33.98 7.34 33.98 7.43"/><polygon class="cls-187" points="33.98 7.53 31.74 6.12 31.78 6.05 33.98 7.43 33.98 7.53"/><polygon class="cls-184" points="33.98 7.62 31.69 6.19 31.74 6.12 33.98 7.53 33.98 7.62"/><polygon class="cls-185" points="33.98 7.72 31.65 6.25 31.69 6.19 33.98 7.62 33.98 7.72"/><polygon class="cls-210" points="33.98 7.81 31.61 6.32 31.65 6.25 33.98 7.72 33.98 7.81"/><polygon class="cls-172" points="33.98 7.91 31.57 6.39 31.61 6.32 33.98 7.81 33.98 7.91"/><polygon class="cls-175" points="33.98 8.01 31.52 6.46 31.57 6.39 33.98 7.91 33.98 8.01"/><polygon class="cls-173" points="33.98 8.1 31.48 6.53 31.52 6.46 33.98 8.01 33.98 8.1"/><polygon class="cls-174" points="33.98 8.2 31.44 6.59 31.48 6.53 33.98 8.1 33.98 8.2"/><polygon class="cls-178" points="33.98 8.29 31.41 6.68 31.41 6.63 31.44 6.59 33.98 8.2 33.98 8.29"/><polygon class="cls-167" points="33.98 8.39 31.41 6.77 31.41 6.68 33.98 8.29 33.98 8.39"/><polygon class="cls-166" points="33.98 8.48 31.41 6.87 31.41 6.77 33.98 8.39 33.98 8.48"/><polygon class="cls-165" points="33.98 8.58 31.41 6.96 31.41 6.87 33.98 8.48 33.98 8.58"/><polygon class="cls-165" points="33.98 12.52 32.51 14.85 31.41 14.85 31.41 6.96 33.98 8.58 33.98 12.52"/></g></g><g id="polygon58"><path class="cls-165" d="M26.67,5.63l-.74,.39,.06,.25,1.75-1.11-.76-.82-.99,.49,.68,.8Z"/></g><g id="polygon60"><path class="cls-55" d="M28.66,17.53l-7.46-3.7,.92-.72,7.46,3.9-.92,.51Z"/></g><g id="polygon62"><path class="cls-165" d="M21.9,3.76l-1.13,2.14,1.19-.35,.86-2.3-.92,.51Z"/></g><g id="path69"><g class="cls-239"><polygon class="cls-133" points="10.69 12.62 10.68 12.62 10.68 12.62 10.69 12.62"/><polygon class="cls-50" points="10.82 12.62 10.68 12.68 10.68 12.62 10.69 12.62 10.82 12.62"/><polygon class="cls-49" points="10.96 12.62 10.68 12.75 10.68 12.68 10.82 12.62 10.96 12.62"/><polygon class="cls-48" points="11.09 12.62 10.68 12.82 10.68 12.75 10.96 12.62 11.09 12.62"/><polygon class="cls-42" points="11.23 12.62 10.68 12.89 10.68 12.82 11.09 12.62 11.23 12.62"/><polygon class="cls-38" points="11.36 12.62 10.68 12.96 10.68 12.89 11.23 12.62 11.36 12.62"/><polygon class="cls-39" points="11.5 12.62 10.68 13.03 10.68 12.96 11.36 12.62 11.5 12.62"/><polygon class="cls-29" points="11.64 12.62 10.68 13.1 10.68 13.03 11.5 12.62 11.64 12.62"/><polygon class="cls-27" points="11.77 12.62 10.68 13.17 10.68 13.1 11.64 12.62 11.77 12.62"/><polygon class="cls-130" points="11.91 12.62 10.68 13.24 10.68 13.17 11.77 12.62 11.91 12.62"/><polygon class="cls-125" points="12.04 12.62 10.68 13.31 10.68 13.24 11.91 12.62 12.04 12.62"/><polygon class="cls-126" points="12.18 12.62 10.68 13.38 10.68 13.31 12.04 12.62 12.18 12.62"/><polygon class="cls-131" points="12.32 12.62 10.68 13.44 10.68 13.38 12.18 12.62 12.32 12.62"/><polygon class="cls-129" points="12.45 12.62 10.68 13.51 10.68 13.44 12.32 12.62 12.45 12.62"/><polygon class="cls-81" points="12.59 12.62 10.68 13.58 10.68 13.51 12.45 12.62 12.59 12.62"/><polygon class="cls-82" points="12.72 12.62 10.68 13.65 10.68 13.58 12.59 12.62 12.72 12.62"/><polygon class="cls-91" points="12.86 12.62 10.68 13.72 10.68 13.65 12.72 12.62 12.86 12.62"/><polygon class="cls-90" points="12.99 12.62 10.68 13.79 10.68 13.72 12.86 12.62 12.99 12.62"/><polygon class="cls-89" points="13.13 12.62 10.68 13.86 10.68 13.79 12.99 12.62 13.13 12.62"/><polygon class="cls-66" points="13.27 12.62 10.68 13.93 10.68 13.86 13.13 12.62 13.27 12.62"/><polygon class="cls-67" points="13.4 12.62 10.68 14 10.68 13.93 13.27 12.62 13.4 12.62"/><polygon class="cls-61" points="13.54 12.62 10.68 14.07 10.68 14 13.4 12.62 13.54 12.62"/><polygon class="cls-57" points="13.67 12.62 10.68 14.14 10.68 14.07 13.54 12.62 13.67 12.62"/><polygon class="cls-77" points="13.81 12.62 10.68 14.2 10.68 14.14 13.67 12.62 13.81 12.62"/><polygon class="cls-76" points="13.94 12.62 10.68 14.27 10.68 14.2 13.81 12.62 13.94 12.62"/><polygon class="cls-64" points="14.08 12.62 10.68 14.34 10.68 14.27 13.94 12.62 14.08 12.62"/><polygon class="cls-60" points="14.22 12.62 10.68 14.41 10.68 14.34 14.08 12.62 14.22 12.62"/><polygon class="cls-58" points="14.35 12.62 10.68 14.48 10.68 14.41 14.22 12.62 14.35 12.62"/><polygon class="cls-59" points="14.49 12.62 10.68 14.55 10.68 14.48 14.35 12.62 14.49 12.62"/><polygon class="cls-56" points="14.62 12.62 10.68 14.62 10.68 14.55 14.49 12.62 14.62 12.62"/><polygon class="cls-153" points="14.76 12.62 10.68 14.69 10.68 14.62 14.62 12.62 14.76 12.62"/><polygon class="cls-160" points="14.9 12.62 10.68 14.76 10.68 14.69 14.76 12.62 14.9 12.62"/><polygon class="cls-156" points="15.03 12.62 10.68 14.83 10.68 14.76 14.9 12.62 15.03 12.62"/><polygon class="cls-155" points="15.17 12.62 10.68 14.89 10.68 14.83 15.03 12.62 15.17 12.62"/><polygon class="cls-157" points="15.3 12.62 10.68 14.96 10.68 14.89 15.17 12.62 15.3 12.62"/><polygon class="cls-194" points="15.44 12.62 10.68 15.03 10.68 14.96 15.3 12.62 15.44 12.62"/><polygon class="cls-191" points="15.57 12.62 10.68 15.1 10.68 15.03 15.44 12.62 15.57 12.62"/><polygon class="cls-192" points="15.71 12.62 10.68 15.17 10.68 15.1 15.57 12.62 15.71 12.62"/><polygon class="cls-196" points="15.85 12.62 10.68 15.24 10.68 15.17 15.71 12.62 15.85 12.62"/><polygon class="cls-189" points="15.98 12.62 10.7 15.3 10.68 15.27 10.68 15.24 15.85 12.62 15.98 12.62"/><polygon class="cls-188" points="16.12 12.62 10.73 15.36 10.7 15.3 15.98 12.62 16.12 12.62"/><polygon class="cls-187" points="16.25 12.62 10.75 15.41 10.73 15.36 16.12 12.62 16.25 12.62"/><polygon class="cls-184" points="16.32 12.62 16.34 12.64 10.78 15.47 10.75 15.41 16.25 12.62 16.32 12.62"/><rect class="cls-185" x="10.46" y="14.05" width="6.23" height=".06" transform="translate(-4.91 7.68) rotate(-26.95)"/><rect class="cls-186" x="10.49" y="14.11" width="6.23" height=".06" transform="translate(-4.93 7.7) rotate(-26.95)"/><rect class="cls-172" x="10.51" y="14.16" width="6.23" height=".06" transform="translate(-4.95 7.72) rotate(-26.95)"/><rect class="cls-175" x="10.54" y="14.22" width="6.23" height=".06" transform="translate(-4.97 7.74) rotate(-26.95)"/><rect class="cls-173" x="10.57" y="14.27" width="6.23" height=".06" transform="translate(-5 7.76) rotate(-26.95)"/><rect class="cls-174" x="10.6" y="14.32" width="6.23" height=".06" transform="translate(-5.02 7.77) rotate(-26.95)"/><rect class="cls-178" x="10.63" y="14.38" width="6.23" height=".06" transform="translate(-5.04 7.79) rotate(-26.95)"/><rect class="cls-167" x="10.65" y="14.43" width="6.23" height=".06" transform="translate(-5.06 7.81) rotate(-26.95)"/><rect class="cls-166" x="10.68" y="14.49" width="6.23" height=".06" transform="translate(-5.08 7.83) rotate(-26.95)"/><rect class="cls-165" x="10.71" y="14.54" width="6.23" height=".06" transform="translate(-5.1 7.85) rotate(-26.95)"/><polygon class="cls-165" points="16.62 13.19 17.61 15.14 17.61 17.57 11.85 17.57 11.06 16.01 16.62 13.19"/></g></g><g id="polygon71"><path class="cls-165" d="M16.74,7.95l.86,9.59,3.57-.51,.95-.49-4.42-9.16-.9,.31-.95,.47,.88-.21Z"/></g><g id="polygon78"><g class="cls-238"><polygon class="cls-47" points="3.57 10.25 2.47 10.73 2.47 10.25 3.57 10.25"/><polygon class="cls-47" points="3.77 10.25 2.47 10.82 2.47 10.73 3.57 10.25 3.77 10.25"/><polygon class="cls-54" points="3.98 10.25 2.47 10.9 2.47 10.82 3.77 10.25 3.98 10.25"/><polygon class="cls-46" points="4.18 10.25 2.47 10.99 2.47 10.9 3.98 10.25 4.18 10.25"/><polygon class="cls-37" points="4.39 10.25 2.47 11.08 2.47 10.99 4.18 10.25 4.39 10.25"/><polygon class="cls-32" points="4.59 10.25 2.47 11.17 2.47 11.08 4.39 10.25 4.59 10.25"/><polygon class="cls-33" points="4.8 10.25 2.47 11.26 2.47 11.17 4.59 10.25 4.8 10.25"/><polygon class="cls-36" points="5.01 10.25 2.47 11.35 2.47 11.26 4.8 10.25 5.01 10.25"/><polygon class="cls-35" points="5.21 10.25 2.47 11.44 2.47 11.35 5.01 10.25 5.21 10.25"/><polygon class="cls-98" points="5.42 10.25 2.47 11.53 2.47 11.44 5.21 10.25 5.42 10.25"/><polygon class="cls-97" points="5.62 10.25 2.47 11.61 2.47 11.53 5.42 10.25 5.62 10.25"/><polygon class="cls-95" points="5.83 10.25 2.47 11.7 2.47 11.61 5.62 10.25 5.83 10.25"/><polygon class="cls-96" points="6.04 10.25 2.47 11.79 2.47 11.7 5.83 10.25 6.04 10.25"/><polygon class="cls-93" points="6.24 10.25 2.47 11.88 2.47 11.79 6.04 10.25 6.24 10.25"/><polygon class="cls-127" points="6.45 10.25 2.47 11.97 2.47 11.88 6.24 10.25 6.45 10.25"/><polygon class="cls-133" points="6.65 10.25 2.47 12.06 2.47 11.97 6.45 10.25 6.65 10.25"/><polygon class="cls-50" points="6.86 10.25 2.47 12.15 2.47 12.06 6.65 10.25 6.86 10.25"/><polygon class="cls-49" points="7.06 10.25 2.47 12.24 2.47 12.15 6.86 10.25 7.06 10.25"/><polygon class="cls-48" points="7.27 10.25 2.47 12.33 2.47 12.24 7.06 10.25 7.27 10.25"/><polygon class="cls-42" points="7.48 10.25 2.47 12.41 2.47 12.33 7.27 10.25 7.48 10.25"/><polygon class="cls-38" points="7.68 10.25 2.47 12.5 2.47 12.41 7.48 10.25 7.68 10.25"/><polygon class="cls-39" points="7.89 10.25 2.47 12.59 2.47 12.5 7.68 10.25 7.89 10.25"/><polygon class="cls-29" points="8.09 10.25 2.47 12.68 2.47 12.59 7.89 10.25 8.09 10.25"/><polygon class="cls-27" points="8.3 10.25 2.48 12.76 2.47 12.73 2.47 12.68 8.09 10.25 8.3 10.25"/><polygon class="cls-130" points="8.51 10.25 2.51 12.84 2.48 12.76 8.3 10.25 8.51 10.25"/><polygon class="cls-125" points="8.71 10.25 2.55 12.91 2.51 12.84 8.51 10.25 8.71 10.25"/><polygon class="cls-126" points="8.92 10.25 2.58 12.99 2.55 12.91 8.71 10.25 8.92 10.25"/><polygon class="cls-131" points="8.98 10.25 9.01 10.3 2.61 13.06 2.58 12.99 8.92 10.25 8.98 10.25"/><rect class="cls-129" x="2.34" y="11.68" width="6.97" height=".08" transform="translate(-4.17 3.27) rotate(-23.33)"/><rect class="cls-81" x="2.37" y="11.75" width="6.97" height=".08" transform="translate(-4.19 3.28) rotate(-23.33)"/><rect class="cls-82" x="2.41" y="11.83" width="6.97" height=".08" transform="translate(-4.22 3.3) rotate(-23.33)"/><rect class="cls-91" x="2.44" y="11.9" width="6.97" height=".08" transform="translate(-4.25 3.32) rotate(-23.33)"/><rect class="cls-90" x="2.47" y="11.98" width="6.97" height=".08" transform="translate(-4.27 3.34) rotate(-23.33)"/><rect class="cls-89" x="2.5" y="12.05" width="6.97" height=".08" transform="translate(-4.3 3.36) rotate(-23.33)"/><rect class="cls-66" x="2.53" y="12.13" width="6.97" height=".08" transform="translate(-4.33 3.38) rotate(-23.33)"/><rect class="cls-67" x="2.57" y="12.2" width="6.97" height=".08" transform="translate(-4.36 3.4) rotate(-23.33)"/><rect class="cls-61" x="2.6" y="12.28" width="6.97" height=".08" transform="translate(-4.38 3.42) rotate(-23.33)"/><rect class="cls-57" x="2.63" y="12.35" width="6.97" height=".08" transform="translate(-4.41 3.44) rotate(-23.33)"/><rect class="cls-77" x="2.66" y="12.43" width="6.97" height=".08" transform="translate(-4.44 3.45) rotate(-23.33)"/><rect class="cls-76" x="2.7" y="12.5" width="6.97" height=".08" transform="translate(-4.46 3.47) rotate(-23.33)"/><rect class="cls-64" x="2.73" y="12.58" width="6.97" height=".08" transform="translate(-4.49 3.49) rotate(-23.33)"/><rect class="cls-60" x="2.76" y="12.65" width="6.97" height=".08" transform="translate(-4.52 3.51) rotate(-23.33)"/><rect class="cls-58" x="2.79" y="12.73" width="6.97" height=".08" transform="translate(-4.54 3.53) rotate(-23.33)"/><rect class="cls-59" x="2.83" y="12.8" width="6.97" height=".08" transform="translate(-4.57 3.55) rotate(-23.33)"/><rect class="cls-56" x="2.86" y="12.88" width="6.97" height=".08" transform="translate(-4.6 3.57) rotate(-23.33)"/><rect class="cls-153" x="2.89" y="12.95" width="6.97" height=".08" transform="translate(-4.63 3.59) rotate(-23.33)"/><rect class="cls-160" x="2.92" y="13.03" width="6.97" height=".08" transform="translate(-4.65 3.61) rotate(-23.33)"/><rect class="cls-156" x="2.95" y="13.1" width="6.97" height=".08" transform="translate(-4.68 3.62) rotate(-23.33)"/><rect class="cls-155" x="2.99" y="13.18" width="6.97" height=".08" transform="translate(-4.71 3.64) rotate(-23.33)"/><rect class="cls-157" x="3.02" y="13.25" width="6.97" height=".08" transform="translate(-4.73 3.66) rotate(-23.33)"/><rect class="cls-194" x="3.05" y="13.33" width="6.97" height=".08" transform="translate(-4.76 3.68) rotate(-23.33)"/><rect class="cls-191" x="3.08" y="13.4" width="6.97" height=".08" transform="translate(-4.79 3.7) rotate(-23.33)"/><rect class="cls-192" x="3.12" y="13.48" width="6.97" height=".08" transform="translate(-4.81 3.72) rotate(-23.33)"/><rect class="cls-196" x="3.15" y="13.55" width="6.97" height=".08" transform="translate(-4.84 3.74) rotate(-23.33)"/><rect class="cls-189" x="3.18" y="13.63" width="6.97" height=".08" transform="translate(-4.87 3.76) rotate(-23.33)"/><rect class="cls-188" x="3.21" y="13.7" width="6.97" height=".08" transform="translate(-4.9 3.78) rotate(-23.33)"/><rect class="cls-187" x="3.25" y="13.78" width="6.97" height=".08" transform="translate(-4.92 3.79) rotate(-23.33)"/><rect class="cls-184" x="3.28" y="13.85" width="6.97" height=".08" transform="translate(-4.95 3.81) rotate(-23.33)"/><rect class="cls-185" x="3.31" y="13.92" width="6.97" height=".08" transform="translate(-4.98 3.83) rotate(-23.33)"/><rect class="cls-186" x="3.34" y="14" width="6.97" height=".08" transform="translate(-5 3.85) rotate(-23.33)"/><rect class="cls-172" x="3.37" y="14.07" width="6.97" height=".08" transform="translate(-5.03 3.87) rotate(-23.33)"/><rect class="cls-175" x="3.41" y="14.15" width="6.97" height=".08" transform="translate(-5.06 3.89) rotate(-23.33)"/><rect class="cls-173" x="3.44" y="14.22" width="6.97" height=".08" transform="translate(-5.08 3.91) rotate(-23.33)"/><rect class="cls-174" x="3.47" y="14.3" width="6.97" height=".08" transform="translate(-5.11 3.93) rotate(-23.33)"/><rect class="cls-178" x="3.5" y="14.37" width="6.97" height=".08" transform="translate(-5.14 3.95) rotate(-23.33)"/><rect class="cls-167" x="3.54" y="14.45" width="6.97" height=".08" transform="translate(-5.17 3.97) rotate(-23.33)"/><rect class="cls-166" x="3.57" y="14.52" width="6.97" height=".08" transform="translate(-5.19 3.98) rotate(-23.33)"/><rect class="cls-165" x="3.6" y="14.6" width="6.97" height=".08" transform="translate(-5.22 4) rotate(-23.33)"/><polygon class="cls-165" points="10.3 13.3 12.08 17.43 12.08 20.3 5.73 20.3 3.9 16.06 10.3 13.3"/></g></g><g id="path80"><path class="cls-165" d="M42.82,15.53l.06,.45c.33-.04,.66-.08,.97-.18,.35-.12,1.09-.45,1.36-.7-.12,.04-1.85,.49-2.38,.43"/></g><g id="path82"><path class="cls-165" d="M29.44,13.23l.14,.72c.76-.12,1.42-.39,2.08-.78,.41-.25,.84-.6,.99-.7-.1,.06-3.21,.76-3.21,.76h0Z"/></g><g id="g84"><g id="path86"><path class="cls-18" d="M8.41,19.44l-.29-.66-3.78-8.42-.08-.16-.16,.08-.12,.06-.68,.33c-.1-.16-.27-.45-.37-.64l-1.52-2.57-.39-.68,.66-.41c.62-.39,1.31-.76,2.1-1.09,1.52-.64,3.06-.99,4.48-.99,.47,0,.92,.04,1.34,.1,.7,.08,1.36,.31,1.89,.68,.8,.45,1.44,1.15,1.79,1.97,.29,.68,.35,1.48,.16,2.3l-.1,.49,.41-.29c.27-.21,.55-.37,.86-.49,.53-.23,1.09-.35,1.64-.35s1.03,.1,1.48,.31l.29,.12-.02-.33-.12-1.38-.02-.23-.21,.06-.64,.16-.1-2.34,4.68-1.5-.04,1.83,.35,.08,1.03-1.95,3.06,2.71,.12,.12,.12-.12c.41-.39,.92-.72,1.48-.95l.23-.1-.16-.21-.55-.68L30.73,.29l1.85,2.75-2.81,1.52-.62,.33,.72,.02c1.34,.02,2.53,.6,3.33,1.58l.29,.37,.18,.23-.31,.33-.21,.23-.7,.76-.12,.14,.14,.12,.66,.6,.25,.23,.06-.33,.25-1.56,.06-.41,.06-.41,.37-2.32h3.49l.02-.16,.06-.39h3.04l.74,4.64,.04,.31,.25-.18c.31-.23,.64-.39,.99-.53,.47-.18,.95-.27,1.44-.27,.58,0,1.13,.12,1.6,.39,.02,0,.02,.02,.06,.04l.23,.08,.02-.25,.06-.51,.02-.16-.16-.04-.62-.14-.02-2.42,4.71,1.03,.35,1.75h.37l.37-1.5,3.92,.95-4.03,12.1-2.86-.9-.02-1.11v-.16l-.16-.02-2.86-.41,.16-1.46,.04-.35-.31,.16c-.14,.08-.29,.14-.43,.18-.47,.18-.95,.27-1.42,.27-.14,0-.27,0-.41-.02l-.25-.02,.04,.25,.21,1.27-4.17-.74-.23-1.89-.06-.62-.29,.53-.47,.92-.88-1.62-.27-.49-.08,.55-.18,1.25-3.66-.58,.29-1.73,.06-.39-.35,.21c-.6,.35-1.29,.64-2.1,.82-.29,.06-.58,.12-.88,.14l-.16,.02v3.45l-7.19-3.55-.27-.12v3.35l-3.23,.47-.14-1.46-.04-.39-.29,.27c-.43,.41-.9,.74-1.42,.97-.53,.23-1.09,.35-1.62,.35s-1.07-.12-1.54-.33c-.86-.41-1.5-1.17-1.77-2.14-.12-.45-.16-.92-.1-1.42l.06-.51-.37,.37c-.27,.25-.55,.49-.86,.72l-.1,.08,.04,.12,1.09,4.15,.18,.74-.72,.23-2.03,.66-.7,.18h0Zm.9-11.16c-.1,0-.21,0-.33,.02l-.14,.02-.21,.04,.06,.21,.04,.12,.58,1.91,.06,.18,.08,.27,.21-.18,.14-.12c.58-.51,.76-1.03,.64-1.68-.08-.39-.37-.58-.55-.66-.12-.08-.35-.12-.58-.12h0Zm15.66,.06l-.37,.35-.97,.92-.21,.21,.27,.1,1.03,.39,.31,.12-.06-.33c-.08-.43-.1-.86-.06-1.27l.06-.49Zm4.19-1.07c-.39,0-.78,.16-1.05,.47-.41,.45-.49,1.13-.21,1.66l.08,.14,.12,.23,.18-.21,.12-.12,1.42-1.6,.1-.12,.18-.21-.25-.1-.16-.06c-.21-.04-.37-.08-.55-.08h0Z"/></g></g><g id="path88"><path class="cls-19" d="M31.31,9.66l-.04,.04s.04-.02,.04-.04Z"/></g><g id="polygon90"><path class="cls-19" d="M32.54,8.55l.7-.76-.25,.25v-.02l-.21,.23-.7,.74,.66,.6,.12-.74,.33,.29-.66-.58Z"/></g><g id="polygon92"><path class="cls-19" d="M32.54,8.55l.66,.58,.25-1.56-.21,.23-.7,.76Z"/></g><g id="path96"><path class="cls-26" d="M27.68,10.42c.06,.06,0,.02,.06,.06l.43-.31c-.06-.04-.12-.1-.18-.14-.62-.58-.45-1.85-.06-2.55-1.07,.86-1.01,2.18-.25,2.94"/></g><g id="path98"><path class="cls-26" d="M32.87,11.14c-.72,.6-1.52,.97-2.59,1.23-.23,.06-.47,.1-.68,.1-1.71,.16-3.12-.62-3.66-1.87-.06-.14-.12-.31-.16-.47-.25-1.07-.04-2.01,.49-2.77,.06-.08,.1-.14,.16-.21-.02,.02-.06,.04-.08,.06-.21,.18-.39,.37-.53,.6-.53,.74-.74,1.71-.49,2.77,.04,.16,.08,.33,.16,.47,.53,1.27,1.97,2.05,3.66,1.89,.23-.02,.45-.06,.7-.12,1.07-.27,1.89-.64,2.59-1.23,.16-.14,.35-.31,.51-.47l-.02-.02s-.06,.02-.06,.04"/></g><g id="polygon100"><path class="cls-26" d="M20.9,7.91l1.89-2.67-.08-.06-1.83,2.57,.02,.16Z"/></g><g id="polygon102"><path class="cls-26" d="M33.45,7.56l-.25,1.56-.33-.29-.12,.74-.66-.6,.7-.74,.21-.23v.02l.25-.25,.21-.23Z"/></g><g id="polygon104"><path class="cls-26" d="M31.11,3.16l.66-.29-1.21-1.56-.39,.58,.95,1.27Z"/></g><g id="path106"><path class="cls-26" d="M12.7,7.03c-3.08-3.74-8.61-1.73-10.58,.02l.08,.14c.45-.27,.95-.49,1.44-.72,1.97-.84,3.86-1.09,5.36-.82,.53,.06,1.09,.23,1.58,.55,.68,.39,1.19,.92,1.5,1.62,.53,1.23,.06,2.88-1.19,4.23,1.58-1.46,2.67-2.86,1.81-5.03h0Z"/></g><g id="path108"><path class="cls-26" d="M18.96,11.38c-.02-.06-.02-.14-.04-.21-.16-.62-.53-1.11-1.03-1.44-.78-.53-1.89-.64-2.98-.18-.58,.25-1.07,.64-1.48,1.09,.31-.27,.66-.47,1.03-.64,1.09-.47,2.2-.35,2.98,.18,.49,.33,.86,.82,1.03,1.44,.02,.06,.04,.14,.04,.21,.04,.25,.06,.47,.06,.72-.02,.72-.29,1.44-.72,2.05-.06,.1-.14,.18-.23,.29,.25-.23,.47-.45,.66-.72,.45-.62,.7-1.34,.74-2.05,0-.25-.02-.49-.06-.74"/></g><g id="path110"><path class="cls-26" d="M15.94,10.48s.45-.45,.43-.45c-.55-.02-.8,.51-.82,.55,.12-.06,.25-.08,.39-.1"/></g><g id="path112"><path class="cls-26" d="M16.99,11.12c.02,.08,.04,.14,.04,.23,0,.12-.02,.23-.08,.33,.08-.04,.74-.37,.49-1.03,.02,.04-.47,.47-.45,.47"/></g><g id="path114"><path class="cls-26" d="M14.44,11.51c0-.27,.47-.95,.62-1.17-.74,.47-1.07,1.11-1.07,1.6,0,.86,.76,1.56,1.66,1.56,.43,0,1.21-.23,1.73-1.05-.27,.18-.95,.6-1.31,.6-.9,0-1.62-.68-1.62-1.54"/></g><g id="polygon116"><path class="cls-26" d="M20.79,12.29l.02,3.47,.55,.04-.12-3.97-.45,.45Z"/></g><g id="polygon118"><path class="cls-26" d="M17.63,5.65v.31l2.63-.78,.18,3.35,.45-.62-.1-3.35-3.16,1.09Z"/></g><g id="polygon120"><path class="cls-26" d="M25.54,6.84l-2.44-2.26-.31,.66,2.18,2.03,.58-.43Z"/></g><g id="path122"><path class="cls-26" d="M25.17,11.05l-2.9-.97-.41,.45,2.88,1.15c.33,.62,.82,1.15,1.44,1.52,.6,.37,1.29,.6,2.01,.66v1.42l.45,.23,.14-2.14-3.62-2.32h0Z"/></g><g id="path124"><path class="cls-26" d="M29.81,10.66c.72-.16,1.11-.53,1.48-.95-.27,.23-1.58,.51-1.81,.58l-.43,.47c.18,0,.51-.04,.76-.1"/></g><g id="path126"><path class="cls-26" d="M28.52,5.73c-1.31,.16-1.99,1.27-2.1,1.4,.49-.41,1.09-.72,1.77-.86,1.62-.39,3.04,.1,3.92,1.19l.55-.45c-.88-1.07-2.53-1.66-4.15-1.27"/></g><g id="path128"><path class="cls-26" d="M32.91,11.09c.16-.12,.43-.27,.6-.43l-1.75-1.56c-.14,.16-.25,.43-.41,.55l1.56,1.44h0Z"/></g><g id="path130"><path class="cls-26" d="M41.89,15.29c-1.83-1.52-1.73-4.75-.82-5.77l-.8-5.07-1.77,.23-.08,.45h1.34l.72,4.6c-.9,1.03-1.34,2.4-1.05,3.68,.23,.99,.84,1.77,1.71,2.22,.08,.04,.18,.08,.27,.12l.02,.06,.53,.08s.04-.55-.06-.6h0Z"/></g><g id="polygon132"><path class="cls-26" d="M34.85,5.18l-.08,.45h2.01l.6,3.27,.45-.45-.47-3.45-2.51,.18Z"/></g><g id="polygon134"><path class="cls-26" d="M38.3,11.51l-.66,1.68,.16,.45,.92-2.57-.43,.43Z"/></g><g id="polygon136"><path class="cls-26" d="M36.37,10.46l-.45,.45-.49,3.04,.47,.16,.47-3.66Z"/></g><g id="path138"><path class="cls-26" d="M45.43,9.47c.27,.18,.49,.43,.66,.72,.14,.23,.23,.45,.31,.74,.23,.92-.04,1.91-.62,2.69-.06,.08-.12,.16-.18,.23,.23-.21,3.1-2.32,.31-5.1-3.08-1.01-4.25,.99-4.36,1.13,.33-.27,.7-.51,1.11-.66,1.03-.41,2.05-.27,2.77,.25"/></g><g id="path140"><path class="cls-26" d="M43.89,9.68s.45-.45,.45-.45c-.55,.02-.82,.29-.78,.41-.04,.04-.06,.1-.08,.14,.1-.06,.33-.1,.41-.1"/></g><g id="path142"><path class="cls-26" d="M44.91,10.38c.02,.08,.02,.14,.02,.23,0,.1-.04,.21-.08,.29,.08-.04,.74-.25,.49-.99,.02,.04-.45,.47-.43,.47"/></g><g id="path144"><path class="cls-26" d="M43.45,12.7c.62,.02,1.31-.35,1.81-1.03-1.25,.27-2.59-1.85-2.47-2.05-.47,.35-.9,1.01-.92,1.48-.04,.86,.68,1.56,1.58,1.6"/></g><g id="polygon146"><path class="cls-26" d="M50.38,18.18l.29,.18,3.62-10.85-2.71-.62-.02,.64,2.18,.47-3.35,10.17Z"/></g><g id="polygon148"><path class="cls-26" d="M46.08,5.73l.02,.62,2.88,.58,1.11,5.26,.45-.45-1.07-5.32-3.39-.68Z"/></g><g id="polygon150"><path class="cls-26" d="M48.3,11.73l-.8,4.48,.45,.14,.8-5.07-.45,.45Z"/></g><g id="polygon152"><path class="cls-26" d="M10.97,17.85l-1.34-4.89-.49,.35,1.25,4.66,.58-.12Z"/></g><g id="path154"><path class="cls-26" d="M10.62,10.52c-.31,.33-1.01,.97-1.4,1.21l-.25-.76-.51-1.68-.33-1.13-.33,.41,.33,1.13,.51,1.66,.25,.76c.55-.31,1.34-.97,1.73-1.6"/></g><g id="path156"><path class="cls-19" d="M29.69,7.62c-.43-.16-1.03-.12-1.36,.25-.08,.08-.23,.29-.27,.39,.31-.25,.88-.31,1.23-.16l.39-.47h0Z"/></g><g id="path158"><path class="cls-19" d="M10.25,9.14c-.04-.25-.29-.45-.41-.51-.21-.1-.6-.12-.86-.06,.04,.16,.1,.37,.12,.45,.1,.02,.29,.04,.39,.08,.12,.06,.33,.18,.37,.45,.06,.33,.04,.66-.1,.9,.39-.37,.58-.78,.49-1.31"/></g><g id="g160"><g id="g162"><g id="path164"><path class="cls-227" d="M10.92,9.13c-.18-.99-1.48-1.54-2.77-.84l.33,1.13,.51,1.68,.25,.76c.97-.6,1.93-1.36,1.68-2.73h0Zm-1.27,1.54c-.14-.45-.45-1.44-.45-1.44,0,0-.06-.21-.14-.45,.27-.04,.53-.02,.74,.08,.12,.06,.33,.18,.37,.45,.12,.53-.06,.95-.51,1.36h0Z"/></g></g></g><g id="g166"><g id="g168"><g id="path170"><path class="cls-183" d="M30.36,7.56c-.72-.66-1.83-.62-2.49,.1-.66,.72-.62,1.83,.1,2.49,.06,.06,.12,.1,.18,.14l2.32-2.63s-.08-.06-.12-.1Zm-2.18,1.85c-.23-.41-.18-.95,.16-1.31,.33-.35,.82-.45,1.25-.29l-1.42,1.6h0Z"/></g></g></g><g id="polygon172"><path class="cls-92" d="M33.45,7.27l-1.27,1.23,1.21,1.09,.06-2.32Z"/></g><g id="path174"><path class="cls-225" d="M45.34,9.92c.02,.08,.02,.16,.02,.25-.02,.49-.47,.86-1.03,.84-.55-.02-.99-.43-.97-.92,.02-.45,.43-.82,.92-.84-.1-.02-.21-.04-.31-.04-.92-.04-1.66,.62-1.71,1.42-.04,.86,.66,1.58,1.56,1.6,.92,.04,1.66-.62,1.71-1.48,.06-.29-.04-.58-.21-.82"/></g><g id="path183"><g class="cls-236"><rect class="cls-227" x="14.46" y="10.01" width=".09" height="3.04"/><rect class="cls-230" x="14.56" y="10.01" width=".12" height="3.04"/><rect class="cls-231" x="14.68" y="10.01" width=".12" height="3.04"/><rect class="cls-223" x="14.8" y="10.01" width=".12" height="3.04"/><rect class="cls-222" x="14.92" y="10.01" width=".12" height="3.04"/><rect class="cls-229" x="15.05" y="10.01" width=".12" height="3.04"/><rect class="cls-228" x="15.17" y="10.01" width=".12" height="3.04"/><rect class="cls-219" x="15.29" y="10.01" width=".12" height="3.04"/><rect class="cls-181" x="15.41" y="10.01" width=".12" height="3.04"/><rect class="cls-180" x="15.53" y="10.01" width=".12" height="3.04"/><rect class="cls-182" x="15.66" y="10.01" width=".12" height="3.04"/><rect class="cls-226" x="15.78" y="10.01" width=".12" height="3.04"/><rect class="cls-224" x="15.9" y="10.01" width=".12" height="3.04"/><rect class="cls-25" x="16.02" y="10.01" width=".12" height="3.04"/><rect class="cls-20" x="16.14" y="10.01" width=".12" height="3.04"/><rect class="cls-220" x="16.27" y="10.01" width=".12" height="3.04"/><rect class="cls-221" x="16.39" y="10.01" width=".12" height="3.04"/><rect class="cls-24" x="16.51" y="10.01" width=".12" height="3.04"/><rect class="cls-22" x="16.63" y="10.01" width=".12" height="3.04"/><rect class="cls-21" x="16.76" y="10.01" width=".12" height="3.04"/><rect class="cls-217" x="16.88" y="10.01" width=".12" height="3.04"/><rect class="cls-218" x="17" y="10.01" width=".12" height="3.04"/><rect class="cls-215" x="17.12" y="10.01" width=".12" height="3.04"/><rect class="cls-214" x="17.24" y="10.01" width=".12" height="3.04"/><rect class="cls-216" x="17.37" y="10.01" width=".12" height="3.04"/><rect class="cls-216" x="17.49" y="10.01" width=".11" height="3.04"/><rect class="cls-213" x="17.6" y="10.01" width=".11" height="3.04"/><rect class="cls-213" x="17.71" y="10.01" width=".02" height="3.04"/></g></g><g id="g185"><g id="g187"><g id="path196"><g class="cls-237"><rect class="cls-215" x="45.97" y="5.82" width="1.64" height="12.43"/><rect class="cls-214" x="47.61" y="5.82" width="2.04" height="12.43"/><rect class="cls-216" x="49.65" y="5.82" width="2.04" height="12.43"/><rect class="cls-216" x="51.68" y="5.82" width="1.83" height="12.43"/><rect class="cls-213" x="53.51" y="5.82" width=".66" height="12.43"/><rect class="cls-21" x="40.49" y="8.37" width="1.01" height="6.43"/><rect class="cls-217" x="41.5" y="8.37" width="2.04" height="6.43"/><rect class="cls-218" x="43.53" y="8.37" width="2.04" height="6.43"/><rect class="cls-215" x="45.57" y="8.37" width="1.43" height="6.43"/><rect class="cls-221" x="33.44" y="4.67" width="1.95" height="11.24"/><rect class="cls-24" x="35.38" y="4.67" width="2.04" height="11.24"/><rect class="cls-22" x="37.42" y="4.67" width="2.04" height="11.24"/><rect class="cls-21" x="39.46" y="4.67" width="2.04" height="11.24"/><rect class="cls-217" x="41.5" y="4.67" width=".45" height="11.24"/><rect class="cls-224" x="25.53" y="5.43" width="1.71" height="7.21"/><rect class="cls-25" x="27.23" y="5.43" width="2.04" height="7.21"/><rect class="cls-20" x="29.27" y="5.43" width="2.04" height="7.21"/><rect class="cls-220" x="31.31" y="5.43" width="2.04" height="7.21"/><rect class="cls-221" x="33.35" y="5.43" width=".03" height="7.21"/><rect class="cls-226" x="23.78" y="8.84" width="1.03" height="1.31"/><rect class="cls-181" x="17.62" y="4.73" width="1.47" height="11.26"/><rect class="cls-180" x="19.09" y="4.73" width="2.04" height="11.26"/><rect class="cls-182" x="21.12" y="4.73" width="2.04" height="11.26"/><rect class="cls-226" x="23.16" y="4.73" width="2.04" height="11.26"/><rect class="cls-224" x="25.2" y="4.73" width="2.04" height="11.26"/><rect class="cls-25" x="27.23" y="4.73" width="1.42" height="11.26"/><rect class="cls-229" x="12.11" y="9.08" width=".86" height="7.21"/><rect class="cls-228" x="12.97" y="9.08" width="2.04" height="7.21"/><rect class="cls-219" x="15.01" y="9.08" width="2.04" height="7.21"/><rect class="cls-181" x="17.05" y="9.08" width="1.97" height="7.21"/><rect class="cls-227" x="2.11" y="4.93" width=".68" height="13.54"/><rect class="cls-230" x="2.79" y="4.93" width="2.04" height="13.54"/><rect class="cls-231" x="4.82" y="4.93" width="2.04" height="13.54"/><rect class="cls-223" x="6.86" y="4.93" width="2.04" height="13.54"/><rect class="cls-222" x="8.9" y="4.93" width="2.04" height="13.54"/><rect class="cls-229" x="10.94" y="4.93" width="2.04" height="13.54"/><rect class="cls-228" x="12.97" y="4.93" width=".29" height="13.54"/><rect class="cls-25" x="28.28" y="1.38" width=".99" height="3.06"/><rect class="cls-20" x="29.27" y="1.38" width="2.04" height="3.06"/><rect class="cls-220" x="31.31" y="1.38" width=".36" height="3.06"/><rect class="cls-220" x="32.53" y="7.56" width=".81" height="1.56"/><rect class="cls-221" x="33.35" y="7.56" width=".09" height="1.56"/><rect class="cls-227" x=".75" y="0" width="2.04" height="19.66"/><rect class="cls-230" x="2.79" y="0" width="2.04" height="19.66"/><rect class="cls-231" x="4.82" y="0" width="2.04" height="19.66"/><rect class="cls-223" x="6.86" y="0" width="2.04" height="19.66"/><rect class="cls-222" x="8.9" y="0" width="2.04" height="19.66"/><rect class="cls-229" x="10.94" y="0" width="2.04" height="19.66"/><rect class="cls-228" x="12.97" y="0" width="2.04" height="19.66"/><rect class="cls-219" x="15.01" y="0" width="2.04" height="19.66"/><rect class="cls-181" x="17.05" y="0" width="2.04" height="19.66"/><rect class="cls-180" x="19.09" y="0" width="2.04" height="19.66"/><rect class="cls-182" x="21.12" y="0" width="2.04" height="19.66"/><rect class="cls-226" x="23.16" y="0" width="2.04" height="19.66"/><rect class="cls-224" x="25.2" y="0" width="2.04" height="19.66"/><rect class="cls-25" x="27.23" y="0" width="2.04" height="19.66"/><rect class="cls-20" x="29.27" y="0" width="2.04" height="19.66"/><rect class="cls-220" x="31.31" y="0" width="2.04" height="19.66"/><rect class="cls-221" x="33.35" y="0" width="2.04" height="19.66"/><rect class="cls-24" x="35.38" y="0" width="2.04" height="19.66"/><rect class="cls-22" x="37.42" y="0" width="2.04" height="19.66"/><rect class="cls-21" x="39.46" y="0" width="2.04" height="19.66"/><rect class="cls-217" x="41.5" y="0" width="2.04" height="19.66"/><rect class="cls-218" x="43.53" y="0" width="2.04" height="19.66"/><rect class="cls-215" x="45.57" y="0" width="2.04" height="19.66"/><rect class="cls-214" x="47.61" y="0" width="2.04" height="19.66"/><rect class="cls-216" x="49.65" y="0" width="2.04" height="19.66"/><rect class="cls-216" x="51.68" y="0" width="1.83" height="19.66"/><rect class="cls-213" x="53.51" y="0" width="1.83" height="19.66"/></g></g></g></g><g id="path198"><path d="M53.01,17.53h.08c.1,0,.18-.04,.18-.14,0-.06-.06-.14-.18-.14h-.08v.29h0Zm0,.43h-.12v-.78c.06-.02,.12-.02,.23-.02,.12,0,.21,.02,.25,.06,.04,.04,.08,.08,.08,.16,0,.1-.06,.16-.14,.18,.06,.02,.12,.08,.12,.18,.02,.12,.04,.16,.04,.18h-.12s-.04-.1-.06-.21c-.02-.1-.06-.14-.16-.14h-.1v.37h0Zm.14-1.01c-.31,0-.55,.27-.55,.6s.25,.6,.58,.6c.31,0,.55-.27,.55-.6-.02-.33-.27-.6-.58-.6Zm0-.1c.39,0,.68,.31,.68,.7s-.31,.7-.7,.7-.7-.31-.7-.7c.02-.39,.33-.7,.72-.7Z"/></g></svg>