<?xml version="1.0" encoding="utf-8"?>
<!-- Generator: Adobe Illustrator 27.0.0, SVG Export Plug-In . SVG Version: 6.00 Build 0)  -->
<svg version="1.1" id="Capa_1" xmlns="http://www.w3.org/2000/svg" xmlns:xlink="http://www.w3.org/1999/xlink" x="0px" y="0px"
	 viewBox="0 0 120 120" style="enable-background:new 0 0 120 120;" xml:space="preserve">
<style type="text/css">
	.st0{fill-rule:evenodd;clip-rule:evenodd;fill:#211814;}
	.st1{fill-rule:evenodd;clip-rule:evenodd;fill:#A2D6D4;}
	.st2{fill-rule:evenodd;clip-rule:evenodd;fill:#F4E97D;}
	.st3{fill-rule:evenodd;clip-rule:evenodd;fill:#DEEDEA;}
	.st4{fill-rule:evenodd;clip-rule:evenodd;fill:#C56713;}
	.st5{fill-rule:evenodd;clip-rule:evenodd;fill:#51A4AE;}
	.st6{fill-rule:evenodd;clip-rule:evenodd;fill:#F4E97E;}
	.st7{fill-rule:evenodd;clip-rule:evenodd;fill:#D0C45F;}
	.st8{fill-rule:evenodd;clip-rule:evenodd;fill:#AA4117;}
	.st9{fill-rule:evenodd;clip-rule:evenodd;fill:#B1CCC7;}
	.st10{fill-rule:evenodd;clip-rule:evenodd;fill:#231816;}
	.st11{fill-rule:evenodd;clip-rule:evenodd;fill:#261E1B;}
	.st12{fill-rule:evenodd;clip-rule:evenodd;fill:#27201D;}
	.st13{fill-rule:evenodd;clip-rule:evenodd;fill:#2C2724;}
	.st14{fill-rule:evenodd;clip-rule:evenodd;fill:#33322F;}
	.st15{fill-rule:evenodd;clip-rule:evenodd;fill:#231A17;}
	.st16{fill-rule:evenodd;clip-rule:evenodd;fill:#AF2125;}
	.st17{fill-rule:evenodd;clip-rule:evenodd;fill:#FEFEFE;}
	.st18{fill-rule:evenodd;clip-rule:evenodd;fill:#FDFDFD;}
	.st19{fill-rule:evenodd;clip-rule:evenodd;fill:#A8A4A3;}
	.st20{fill-rule:evenodd;clip-rule:evenodd;fill:#FBFBFA;}
</style>
<g>
	<g>
		<path class="st0" d="M31.7,52.8c-0.3-0.3-0.5-0.5-0.8-0.7c-0.5-0.4-0.9-0.9-1.2-1.5c-0.1-0.2-0.2-0.2-0.4-0.3
			c-1.2-0.4-1.8-1.4-1.6-2.5c0.1-0.4,0.2-0.7,0.4-1.1c0.1-0.2,0.1-0.3,0.1-0.5c0-1.2-0.1-2.4,0-3.5c0.2-1.8,0.3-3.5,0.9-5.2
			c0.7-1.8,1.8-3.3,3-4.8c2.7-3.1,6-4.9,10-5.6c3.6-0.7,7.2-0.5,10.8,0.6c3.2,1,6,2.8,8.1,5.3c1.6,1.9,2.6,4.1,3,6.6
			c0.2,0.9,0.3,1.9,0.3,2.8c0,0.1,0,0.3,0.2,0.3c0.8,0.4,1.3,1,1.7,1.7c0.1,0.1,0.2,0.2,0.3,0.3c3.6,1.5,6.5,3.8,8.8,6.9
			c0.7,0.9,1.2,1.8,1.8,2.8c0.4,0.7,0.9,1.4,1.2,2.1c1.2,2.7,2.1,5.5,2.3,8.5c0.1,1.6,0.3,3.3,0.2,4.9c-0.1,1.6-0.1,3.2-0.3,4.8
			c-0.3,1.6-0.8,3.2-1.4,4.8c0.2-0.1,0.3-0.2,0.5-0.3c0.5-0.5,0.9-1,1.2-1.7c0.4-0.8,0.8-1.6,1.3-2.4c1.7-3,4.2-5.2,7.4-6.3
			c1.3-0.5,2.6-0.4,3.9-0.3c0.7,0,1.4,0.1,2.1,0.4c2.3,0.8,4.1,2.3,5.3,4.5c1.7,3.1,2.1,6.3,1.2,9.7c-0.8,2.9-2.8,5-5.7,5.9
			c-1.3,0.4-2.7,0.4-4.1,0.1c-0.1,0-0.2,0-0.3,0c-1.4,0.6-2.9,0.8-4.3,0.9c-1.9,0.2-3.8,0.2-5.6,0.1c-1.6-0.1-3.2-0.3-4.9-0.5
			c-0.5-0.1-0.9-0.1-1.3-0.2c-0.2,0-0.2,0-0.3,0.2c-0.2,1.3-0.5,2.5-0.7,3.8c-0.1,0.5,0,1.1,0,1.6c0.1,0.9,0.2,1.9,0.3,2.8
			c0,0.5,0,0.5-0.5,0.4c-0.8-0.1-1.7-0.3-2.5-0.4c-0.8-0.2-1.5,0-2.2,0.4c-0.6,0.4-1.3,0.8-1.9,1.1c-0.3,0.2-0.5,0.1-0.7,0
			c-0.7-0.5-1.3-1-1.9-1.6c-0.1-0.1-0.3-0.2-0.5-0.2c-0.9,0-1.7,0-2.6,0c-0.3,0-0.4,0-0.3-0.4c0.1-0.6,0.5-1,0.7-1.5
			c0.2-0.3,0.2-0.5,0.1-0.8c-0.6-1.8-1-3.7-1.1-5.6c0-0.1,0-0.2-0.2-0.2c-2.3-0.1-4.6-0.6-6.8-1.1c-0.2,0-0.3,0-0.4,0.2
			c-0.4,0.8-0.8,1.6-1,2.4c-0.1,0.2-0.1,0.5,0,0.7c0.1,0.7,0.3,1.4,0.4,2.1c0.2,0.8,0.1,1.3-1,1.6c-1.1,0.3-2.2,0.4-3.3,0.6
			c-2.8,0.4-5.6,0.6-8.5,0.5c-0.4,0-0.4-0.1-0.3-0.4c0.1-0.3,0.4-0.5,0.6-0.7c-0.6-0.1-1.3-0.2-1.9-0.4C39,94.4,39,94.3,39.1,94
			c0.4-0.7,0.9-1.4,1.5-2c0.1-0.1,0.1-0.2,0-0.3c-0.8-1-1.6-2-1.9-3.3c-0.4-1.5-0.4-3,0.2-4.5c0.6-1.8,1.4-3.4,2.4-5
			c0.1-0.2,0.1-0.3,0-0.4c-1.3-1.5-2.5-3.1-3.3-5c-0.7-1.6-1.2-3.3-1.7-5c-0.1-0.4-0.1-0.9-0.3-1.1c-0.2-0.3-0.7-0.2-1.1-0.3
			c-2.1-0.6-4.1-1.5-5.9-2.9c-2-1.4-3.8-3-5.3-4.9c-0.1-0.1-0.2-0.1-0.2-0.2c-0.5-0.3-0.9-0.7-1.3-1c-0.5-0.4-0.5-0.5-0.1-1
			c0.5-0.6,1-1.2,1.5-1.8c0.1-0.1,0.2-0.2,0-0.4c-0.5-0.6-0.8-1.3-1.1-2c-0.2-0.4-0.1-0.6,0.4-0.6c1,0,2.1,0,3.2,0
			c1.5,0.1,2.9,0.2,4.4,0.4C30.7,52.6,31.2,52.7,31.7,52.8L31.7,52.8z"/>
		<path class="st1" d="M34.4,54.5c-1.2-0.8-2.3-1.7-3.4-2.7c-0.4-0.4-0.8-0.8-1.1-1.3c0.1,0,0.2,0,0.3,0.1c2.2,0.8,4.4,1.7,6.4,3
			c0.7,0.4,1.3,0.4,2,0.2c1.2-0.4,2.4-0.7,3.6-0.9c1.4-0.2,2.8-0.3,4.2-0.4c1.6-0.1,3.2-0.1,4.7-0.3c0.3,0,0.7-0.1,1-0.3
			c0.2-0.1,0.4-0.3,0.5-0.6c-0.1,0-0.1,0-0.1,0c-0.4,0.5-1,0.6-1.5,0.7c-1.1,0.1-2.1,0.1-3.2,0.2c-2.1,0.1-4.2,0.2-6.3,0.6
			c-0.9,0.2-1.9,0.4-2.8,0.7c-0.2,0-0.3,0.1-0.5,0.1c-0.5,0.2-0.9,0.1-1.3-0.2c-2.2-1.4-4.6-2.4-7.1-3.2c-0.2-0.1-0.5-0.1-0.7-0.2
			c-1-0.4-1.5-1.5-1.1-2.4c0.4-0.8,0.4-1.6,0.4-2.4c-0.1-2.1,0.1-4.1,0.5-6.1c0.3-1.7,1.2-3.2,2.2-4.6c1.5-2.2,3.4-4,5.8-5.3
			c2.2-1.2,4.5-1.9,6.9-2.1c2.9-0.3,5.8-0.1,8.6,0.7c3.5,1,6.4,2.8,8.7,5.6c1.5,1.9,2.4,4,2.8,6.3c0.5,2.7,0.4,5.5-0.3,8.2
			c0,0.1,0,0.2-0.1,0.3c-0.2,0.7-0.5,1.3-1.3,1.5c-0.5,0.1-0.9,0.4-1.4,0.6c-0.2,0.1-0.3,0.1-0.4-0.1c-0.5-0.7-1.1-1.3-1.8-1.9
			c-0.2-0.2-0.5-0.4-0.7-0.6c-0.2-0.1-0.3-0.1-0.4,0.1c-0.5,0.6-0.9,1.4-1.1,2.1c-0.3,0.9-0.8,1.5-1.5,1.9c-0.5,0.3-1,0.7-1.5,1.2
			c-0.3,0.3-0.3,0.4-0.1,0.7s0.4,0.5,0.6,0.8c0,0.2-0.2,0.2-0.3,0.3c-1.4,0.7-2.9,1.2-4.4,1.4c-1.2,0.2-2.3,0.3-3.5,0.3
			c-3.4,0.2-6.8-0.3-10-1.3C35.3,55,34.8,54.8,34.4,54.5L34.4,54.5z"/>
		<path class="st1" d="M96.9,79.8c-0.6-1-1.4-1.6-2.5-1.9c-0.8-0.2-1.7-0.2-2.5,0c-0.8,0.1-1.6,0.1-2.4,0.2
			c-1.8,0.4-3.3,1.1-4.7,2.3c-0.8,0.6-1.4,1.4-2.1,2c-1.5,1.5-3.3,2.6-5.3,3.3c-0.5,0.2-1,0.3-1.6,0.4c-0.1,0-0.2,0-0.3-0.1
			c-0.1-0.3,0-0.7-0.1-1c0-0.1,0.1-0.1,0.1-0.2c1.2-0.6,1.9-1.6,2-2.9c0-0.1,0-0.2,0.1-0.2c0.4-0.5,0.8-1.1,1.1-1.6
			c0-0.1,0.1-0.2,0.2-0.2c0.8-0.4,1.4-1.1,1.8-1.9c0.6-1.1,1-2.2,1.7-3.2c1.6-2.6,3.9-4.5,6.7-5.6c0.8-0.3,1.7-0.4,2.5-0.4
			c1.6-0.1,3.2,0,4.6,0.7c1.9,0.9,3.3,2.2,4.3,4c1.6,3,2,6.1,1.2,9.4c-0.2,0.7-0.5,1.3-0.8,1.9c-0.2,0-0.2-0.2-0.2-0.3
			c-0.3-0.9-0.7-1.7-1.3-2.5c-0.6-0.7-1.2-1.3-2-1.8C97.3,80,97.1,79.9,96.9,79.8L96.9,79.8z"/>
		<path class="st1" d="M57.5,61.6c-0.5-0.8-1-1.7-1.3-2.7c-0.4-1.2-0.9-2.4-1.2-3.6c0-0.2-0.1-0.2-0.2-0.4c-0.4-0.5-0.8-1-1.2-1.5
			c-0.1-0.2-0.1-0.3,0-0.5c0.7-0.6,1.4-1.2,2.2-1.6c0.3-0.1,0.4-0.4,0.5-0.6c0.4-1,0.7-1.9,1.3-2.7c0.1-0.2,0.2-0.2,0.5-0.1
			c0.9,0.7,1.6,1.5,2.3,2.3c0.2,0.2,0.3,0.3,0.6,0.1c0.6-0.3,1.3-0.6,1.9-0.9c0.2-0.1,0.3-0.1,0.4,0.2c0.4,0.9,0.6,1.8,0.8,2.7v0.1
			c0,0.1,0,0.2,0.1,0.2s0.1-0.2,0-0.3c0-0.1,0-0.1,0-0.2c0.1,0,0.2,0.1,0.3,0.1c1.7,1.2,3,2.8,3.9,4.7c0.6,1.3,1,2.6,0.9,4.1
			c0,0.3,0,0.5-0.1,0.8c0,0.1-0.1,0.1-0.2,0.1c-0.5,0-0.8,0.3-1,0.6c-0.7,1-1.6,1.6-2.8,1.7c-1,0.1-2,0-2.9-0.2
			c-1.5-0.4-3-1.1-4.2-2.1C57.9,62.1,57.7,61.8,57.5,61.6L57.5,61.6z"/>
		<path class="st2" d="M53.9,74.2c-1.5,0-3,0-4.5-0.1c-0.2,0-0.3,0-0.4-0.2c-1.2-3.1-2-6.4-2.5-9.7c0-0.3,0-0.6-0.1-0.9
			c0-0.2,0-0.2,0.2-0.2c1.1,0,2.2,0,3.3,0c2.1,0,4.3-0.2,6.4-0.6c0.3-0.1,0.6-0.1,0.9-0.2c0.2-0.1,0.3,0,0.4,0.1
			c0.9,1.3,2,2.3,3.4,3.1c0.6,0.3,1.2,0.6,1.8,0.7c0.2,0,0.2,0.1,0.1,0.3c-0.7,1.1-1.3,2.1-2,3.2c-0.8,1.4-1.6,2.9-2.3,4.3
			c-0.1,0.2-0.2,0.3-0.4,0.3C56.9,74.2,55.4,74.2,53.9,74.2L53.9,74.2z"/>
		<path class="st1" d="M27.8,63c-0.8-0.5-1.4-1.1-2.1-1.8c-0.6-0.6-1.2-1.2-1.7-1.9c-0.4-0.5-0.9-0.8-1.4-1.2
			c-0.2-0.2-0.5-0.4-0.7-0.6c-0.2-0.1-0.2-0.3,0-0.4c0.5-0.7,1.1-1.4,1.7-2c0.2-0.2,0.2-0.3,0-0.5c-0.5-0.6-0.8-1.2-1.1-1.9
			c-0.1-0.2-0.1-0.3,0.2-0.3c1.6-0.1,3.2,0,4.8,0.1c1.4,0.1,2.8,0.3,4.2,0.6c0.2,0,0.4,0.1,0.5,0.2c2.1,1.7,4.3,3,6.9,3.6
			c0.1,0,0.2,0.1,0.2,0.2c0,2.3-0.4,4.5-1.4,6.7c-0.1,0.1-0.2,0.1-0.4,0.2c-0.7,0.2-1.5,0.2-2.2,0.3c-1.3,0.1-2.6,0-3.9-0.2
			c-0.9-0.1-1.8-0.3-2.6-0.6C28.5,63.4,28.1,63.2,27.8,63L27.8,63z"/>
		<path class="st3" d="M68.5,69.8c0-0.9,0.2-1.8,0.3-2.7c0.2-1.4,0.5-2.7,0.5-4.1c0-0.5,0.2-1,0.2-1.5c0.1-1.4-0.2-2.7-0.7-4
			c-1-2.3-2.4-4.1-4.5-5.5c-0.1-0.1-0.2-0.2-0.3-0.4c-0.2-0.7-0.4-1.5-0.7-2.2c-0.1-0.1-0.1-0.3,0-0.5c0.6-1.3,0.8-2.7,0.9-4.1
			c0.1-0.7,0.1-1.4,0.1-2.1c0.5,0.3,0.9,0.6,1.2,1c0.9,1.1,1.2,2.3,1.3,3.7c0,0.9,0,1.7,0,2.6c0.1,1,0.5,1.8,1.2,2.4
			c1.1,0.9,2.1,1.9,3,3.1c1.1,1.5,2,3.1,2.2,5c0.2,1.1,0.2,2.1,0.1,3.2c-0.1,1.2-0.1,2.5-0.4,3.7c-0.2,1-0.5,2-0.6,3
			c-0.2,1.1,0,2,0.6,3c0.5,0.7,1.1,1.3,1.6,2c0.9,1.1,1.7,2.3,2.3,3.7c0.5,1.2,0.6,2.4,0.3,3.7c-0.2,1-0.9,1.6-1.8,2
			c0-0.3-0.1-0.5-0.1-0.8c0.6-1.3,0.4-2.6-0.1-3.9c-0.4-1-1.1-2-1.9-2.8c-0.7-0.7-1.4-1.3-2.1-2c-0.5-0.5-0.9-1.1-1.3-1.8
			c-0.5-0.8-1-1.7-1.2-2.7C68.6,70.5,68.6,70.2,68.5,69.8L68.5,69.8z"/>
		<path class="st1" d="M62.1,85.3c0.3-1.9,0.9-3.7,2.3-5.1c1-1,2.2-1.5,3.6-1.5c1.8-0.1,3.5,0.2,4.9,1.5c0.9,0.8,1.4,1.8,1.9,2.8
			c0.6,1.5,0.7,3,0.7,4.6c0,0.3,0,0.6-0.1,1c-0.2,0.3-0.6,0.5-0.9,0.7c-1.3,0.7-2.7,1.1-4.1,1.3c-0.8,0.1-1.6,0.1-2.4,0.1
			c-1.2,0-2.3-0.2-3.2-1c-1.1-1-2-2.1-2.6-3.5C62.1,85.8,62,85.5,62.1,85.3L62.1,85.3z"/>
		<path class="st4" d="M74.4,74.6c-0.3-0.3-0.6-0.6-0.9-1c-0.8-1.1-1.1-2.3-0.8-3.6c0.2-1.1,0.6-2.2,0.7-3.4
			c0.1-0.8,0.1-1.5,0.2-2.3c0.1-1,0.1-2.1,0-3.1c-0.1-1.2-0.4-2.3-0.9-3.3c-0.6-1.4-1.5-2.6-2.5-3.7c0,0-0.1-0.1-0.2-0.2
			c0.6,0,1.1,0,1.7,0c1.3,0.1,2.5,0.2,3.8,0.5c0.4,0.1,0.8,0.2,1.2,0.2c0.3,0.1,0.5,0.3,0.7,0.6c0.8,1.4,1.3,2.8,1.8,4.3
			c0.6,1.9,1,3.8,1.2,5.7c0,0.3,0.1,0.6,0,0.9c0,0.6-0.2,1.1-0.4,1.7c-0.7,1.6-1.6,3-2.7,4.3c-0.8,0.9-1.6,1.6-2.5,2.3
			C74.6,74.5,74.5,74.7,74.4,74.6L74.4,74.6z"/>
		<path class="st5" d="M75.6,86c0.1,0.1,0.3,0.1,0.5,0c2.1-0.4,4-1.3,5.6-2.7c0.7-0.5,1.3-1.2,1.9-1.8c1.4-1.5,3-2.6,4.9-3.2
			c1.1-0.4,2.3-0.5,3.5-0.4c-2.8,0.8-4,3.4-3.7,6c0,0.6,0.1,1.2,0.3,1.7c0.5,1.4,1.5,2.5,2.9,3.1c0,0,0.1,0,0.2,0.1
			c-0.9,0.4-1.8,0.5-2.7,0.7c-1.5,0.3-3.1,0.4-4.7,0.4c-1.5,0-3-0.1-4.4-0.2c-1.3-0.1-2.7-0.4-4-0.5c-0.3,0-0.3-0.1-0.3-0.4
			C75.7,87.9,75.6,86.9,75.6,86L75.6,86z"/>
		<path class="st2" d="M68.8,66.2c-0.1,0.8-0.3,1.7-0.4,2.5c-0.2,1.4-0.1,2.8,0.3,4.2c0.1,0.5,0.3,0.9,0.6,1.4
			c0.5,0.9,1.1,1.7,1.8,2.5c0.1,0.3,0,0.5-0.2,0.7c-0.2,0.4-0.6,0.7-0.9,0.9c0,0-0.1,0.1-0.2,0c-0.8-0.1-1.5-0.1-2.3,0
			c-1,0.1-1.9,0.5-2.7,1c-0.1,0.1-0.1,0-0.2,0c-1.9-1.7-3.9-3.3-5.6-5.1c-0.1-0.1-0.1-0.2-0.1-0.3c1.2-2.5,2.6-5,4.2-7.4l0,0
			c0.1,0,0.2,0,0.3,0c0.7,0.3,1.5,0.5,2.2,0.5c1,0,1.9-0.3,2.8-0.8c0.1-0.1,0.2-0.1,0.3-0.2C68.7,66.2,68.8,66.2,68.8,66.2
			L68.8,66.2z"/>
		<path class="st2" d="M38,64.4c0.4-0.9,0.8-1.8,1.1-2.8c0-0.1,0.1-0.1,0.2-0.1c2.2,0.9,4.4,1.2,6.7,1.4c0.2,0,0.2,0,0.3,0.2
			c0.4,3.6,1.3,7.2,2.6,10.6c0,0.1,0.1,0.2,0.1,0.2s0,0,0,0.1c-0.7,0-1.4-0.1-2.1-0.1c-1.5-0.1-3-0.3-4.5-0.5c-0.1,0-0.2,0-0.3-0.1
			c-1.5-2-3-4-4.3-6.2c-0.1-0.1,0-0.3,0-0.4c0.2-0.6,0.1-1.2,0.2-1.9C37.9,64.8,37.9,64.6,38,64.4L38,64.4z"/>
		<path class="st5" d="M48.1,84.4c1.5,1.1,3.1,2.1,4.8,2.8c0.4,0.1,0.7,0.3,1.1,0.4c0.2,0,0.2,0.1,0.1,0.3c-0.4,0.7-0.7,1.5-1,2.3
			c-0.2,0.5-0.1,1,0,1.5c0.1,0.6,0.2,1.3,0.4,1.9c0.1,0.4,0,0.6-0.4,0.8c-0.5,0.3-1,0.3-1.5,0.4c-1.8,0.3-3.7,0.6-5.6,0.7
			c-0.1,0-0.3,0.1-0.4,0c0-0.1,0.1-0.2,0-0.3c-1-1.1-2-2-3.4-2.5c-0.5-0.2-0.9-0.3-1.4-0.3c-0.1,0-0.2,0-0.3-0.1
			c0.1-0.2,0.2-0.3,0.4-0.4s0.3,0.2,0.5,0.1c-0.2-0.2-0.4-0.4-0.6-0.6c-0.7-0.9-1.4-1.8-1.8-2.9v-0.1c0.1,0,0.2,0,0.3,0.1
			c1.1,0.8,2.3,1.1,3.6,0.9c0.9-0.2,1.8-0.6,2.5-1.2C46.6,87.2,47.5,86,48.1,84.4C48.1,84.5,48.1,84.4,48.1,84.4L48.1,84.4z"/>
		<path class="st2" d="M53.5,82.1c-1.3-1.8-2.5-3.7-3.4-5.8c-0.3-0.6-0.6-1.3-0.8-1.9c0.6,0,1.2,0,1.7,0c2.5,0,4.9,0,7.4-0.1
			c0.2,0,0.4,0,0.6,0.2c1.7,1.8,3.6,3.3,5.4,4.9c0.2,0.2,0.2,0.3,0,0.5c-0.4,0.4-0.7,0.8-1,1.2c-0.6,0.4-1.4,0.6-2.1,0.8
			c-1.1,0.3-2.3,0.4-3.5,0.4c-0.8,0-1.6,0-2.4,0c-0.5,0-1-0.1-1.5-0.1C53.7,82.2,53.6,82.2,53.5,82.1z"/>
		<path class="st5" d="M96.9,79.8c1.9,1,3.3,2.5,3.9,4.6c0,0.1,0,0.2,0.1,0.3c-1,1.7-2.5,3-4.3,3.8c-0.6,0.2-1.1,0.3-1.7,0.4
			c-0.8,0.1-1.7,0.1-2.5-0.1c-1.9-0.4-3.6-2.1-3.9-4c-0.1-0.7-0.2-1.3-0.1-2c0.5-0.7,1.2-1.3,2-1.6c0.9-0.4,1.9-0.4,2.9-0.4
			c0.3,0,0.6,0,0.9,0.1c1,0.3,1.7,0.9,2.1,1.9c0,0.1-0.1,0.1-0.1,0.2c0.4-0.2,0.6-0.5,0.8-0.8c0.3-0.7,0.3-1.4,0.1-2.1
			C97,80,97,79.9,96.9,79.8L96.9,79.8z"/>
		<path class="st5" d="M62.1,85.3c0,0.3,0.1,0.5,0.2,0.8c0.7,1.5,1.6,2.8,3,3.7c0.6,0.4,1.3,0.6,2,0.6c0.5,0,1,0.1,1.6,0
			c1.9-0.1,3.7-0.4,5.4-1.3c0.4-0.2,0.7-0.5,1-0.7c-0.1,1.2-0.3,2.3-0.6,3.4c-0.2,0.9-0.4,1.7-0.3,2.6s0.2,1.8,0.3,2.7
			c0,0.1,0,0.3,0,0.4c-0.2,0-0.3-0.1-0.4-0.2c-0.9-0.7-1.9-1.2-2.9-1.7c-0.8-0.3-1.6-0.5-2.4-0.5c-1.6,0-3.3,0-4.9,0.3
			c-0.4,0.1-0.7,0.2-1.1,0.4c-0.1,0-0.2,0.1-0.4,0c0,0,0-0.1,0.1-0.2c0.4-0.5,0.3-0.9,0.2-1.5c-0.7-2.2-1.1-4.4-1-6.7
			C62,86.8,62,86,62.1,85.3L62.1,85.3z"/>
		<path class="st1" d="M48.1,84.4c0,0.4-0.2,0.7-0.4,1.1c-0.7,1.3-1.6,2.4-2.8,3.2c-1,0.6-2,1.1-3.2,1c-1-0.1-2-0.4-2.8-1.1
			c-0.3-0.9-0.4-1.8-0.3-2.8c0.1-1,0.4-2,0.8-2.9c0.6-1.4,1.2-2.7,1.9-3.9c0.1-0.3,0.3-0.3,0.5-0.2c0.4,0.2,0.8,0.5,1.1,0.8
			c0.6,0.6,1.2,1.3,1.8,1.9C45.8,82.5,46.9,83.5,48.1,84.4L48.1,84.4z"/>
		<path class="st6" d="M42.8,79.1c-0.4-0.3-0.9-0.6-1.4-0.7c-0.2-0.1-0.5-0.5-0.4-0.8c0.2-1.3,0.6-2.5,1-3.7c0-0.1,0.1-0.2,0.3-0.1
			c2.2,0.3,4.3,0.5,6.5,0.5c0.1,0,0.2,0,0.3,0.2c1,2.7,2.4,5.1,4,7.5c0,0.2-0.1,0.1-0.2,0.1c-1.3-0.1-2.6-0.4-3.9-0.6
			c-1.9-0.4-3.6-1.1-5.4-2C43.4,79.4,43.1,79.3,42.8,79.1L42.8,79.1z"/>
		<path class="st6" d="M55.3,57.1c0.2,0.5,0.4,1,0.5,1.5c0.4,1.1,0.9,2.2,1.6,3.3c-0.7,0.2-1.4,0.4-2.1,0.5c-3,0.5-6.1,0.6-9.1,0.4
			c-2.2-0.1-4.4-0.5-6.5-1.3c-0.5-0.2-0.5-0.2-0.4-0.8c0.2-0.8,0.2-1.6,0.3-2.4c0.1-0.2,0.3-0.1,0.4,0c0.9,0.4,1.9,0.8,2.9,1
			c1.5,0.4,3.1,0.5,4.6,0.5c2.4-0.1,4.6-0.8,6.6-2.1c0.3-0.2,0.6-0.5,0.8-0.7C55.1,57,55.2,56.9,55.3,57.1L55.3,57.1z"/>
		<path class="st4" d="M76.8,54.5c-0.8-0.1-1.6-0.3-2.4-0.4c-1.4-0.2-2.9-0.3-4.3-0.3c-0.2,0-0.3,0-0.5-0.2
			c-0.5-0.5-0.9-0.9-1.4-1.3c-0.8-0.6-1.1-1.5-1.2-2.4c0-0.7,0-1.4,0-2c0-1-0.1-2-0.5-2.9C71.2,46.9,74.5,50.2,76.8,54.5z"/>
		<path class="st7" d="M55.3,57.1c-0.1-0.1-0.1-0.1-0.3,0c-1.6,1.5-3.5,2.3-5.6,2.7C48.2,60,47,60.1,45.9,60
			c-1.9-0.1-3.8-0.5-5.6-1.4c-0.2-0.1-0.4-0.3-0.7-0.2c0-0.4,0-0.8,0-1.2c0-0.2,0.1-0.2,0.2-0.2c1.6,0.4,3.2,0.5,4.8,0.5
			c3.1,0,6.2-0.4,9.1-1.5c0.3-0.1,0.6-0.3,0.9-0.4c0.1,0,0.1-0.1,0.2,0C54.9,56.1,55.1,56.6,55.3,57.1L55.3,57.1z"/>
		<path class="st7" d="M42.8,79.1c0.7,0.2,1.3,0.6,1.9,0.9c1.6,0.8,3.2,1.2,4.9,1.6c0.9,0.2,1.9,0.3,2.8,0.5c0.2,0,0.5,0.1,0.7,0
			c0.5,0.6,0.9,1.3,1.4,2c0.1,0.1,0.1,0.2,0,0.4c-0.4,0.9-0.8,1.7-1.1,2.6c-0.1,0.2-0.2,0.1-0.3,0.1c-1.1-0.4-2.2-1.1-3.2-1.7
			c-2.2-1.3-4-3-5.7-4.9C43.7,80,43.3,79.5,42.8,79.1z"/>
		<path class="st1" d="M62.7,95.9L62.7,95.9c1.2-0.6,2.3-0.6,3.5-0.8c1-0.1,1.9-0.1,2.9,0c1.8,0,3.4,0.8,4.8,1.8
			c0.3,0.2,0.5,0.4,0.8,0.6c0.1,0.3,0,0.3-0.3,0.3c-0.8-0.1-1.6-0.3-2.5-0.4c-0.9-0.2-1.6,0-2.4,0.4c-0.6,0.4-1.3,0.8-1.9,1.1
			c-0.2,0.1-0.3,0.1-0.4,0c-0.7-0.5-1.3-1-1.9-1.6c-0.2-0.2-0.4-0.2-0.6-0.2c-0.9,0-1.8,0-2.7,0C62.2,96.7,62.4,96.3,62.7,95.9
			L62.7,95.9z"/>
		<path class="st8" d="M74.4,74.6c0.7-0.3,1.3-0.8,1.8-1.3c1.5-1.4,2.7-3,3.5-4.8c0.4-0.7,0.6-1.5,0.8-2.3c0.1,0.4,0.1,0.9,0.1,1.3
			c0.2,2.1-0.4,4.1-1.2,6.1c-0.6,1.4-1.2,2.9-2,4.1c-0.1,0.2-0.2,0.3-0.3,0.5c-0.1,0.2-0.2,0.1-0.3,0c-0.3-0.7-0.7-1.3-1.1-1.9
			C75.3,75.7,74.8,75.1,74.4,74.6z"/>
		<path class="st7" d="M61.8,86.2c-0.1,0.7-0.1,1.5-0.1,2.2c0,0.2-0.1,0.3-0.3,0.3c-1.5-0.1-2.9-0.3-4.4-0.6
			c-1.1-0.2-2.1-0.4-3.2-0.7c-0.2-0.1-0.3-0.1-0.2-0.4c0.3-0.8,0.7-1.6,1-2.5c0.1-0.1,0.1-0.2,0.3-0.1c1.7,0.6,3.5,1,5.3,1.2
			c0.4,0,0.8,0.1,1.2,0.1c0.3,0,0.4,0.1,0.3,0.4C61.8,86.1,61.8,86.1,61.8,86.2L61.8,86.2z"/>
		<path class="st7" d="M53.5,82.1c1.5,0.1,3,0.1,4.5,0.1c1.8,0,3.5-0.3,5.1-1c0,0,0.1,0,0.2,0c-0.8,1.3-1.2,2.7-1.5,4.2
			c0,0.1,0,0.2-0.2,0.2c-2.2-0.3-4.5-0.6-6.6-1.4c-0.1,0-0.2-0.1-0.3-0.2C54.3,83.3,53.9,82.8,53.5,82.1L53.5,82.1z"/>
		<path class="st1" d="M96.2,82.8C96.2,82.8,96.1,82.8,96.2,82.8c-0.6-1.2-1.5-1.8-2.8-1.9c-1-0.1-2-0.1-2.9,0.3
			c-0.5,0.2-1,0.5-1.4,0.9c-0.2,0.2-0.5,0.5-0.7,0.7c0.2-2.7,2-4.5,3.9-4.7c1.5-0.2,2.9,0,4,1.2C97.2,80.2,97.3,81.9,96.2,82.8
			L96.2,82.8z"/>
		<path class="st2" d="M37.6,67.6c1.2,2,2.7,4,4.1,5.9c0.1,0.2,0.2,0.3,0.1,0.5c-0.4,1.1-0.8,2.3-0.9,3.5c0,0,0,0,0,0.1
			c-0.1,0-0.1-0.1-0.2-0.1c-2-2.4-3.2-5.3-4-8.3c0-0.2-0.1-0.3-0.1-0.5c0.1-0.1,0.3-0.1,0.4-0.3c0.2-0.2,0.3-0.3,0.5-0.6
			C37.4,67.6,37.5,67.5,37.6,67.6L37.6,67.6z"/>
		<path class="st5" d="M34.4,54.5c0.7,0.3,1.4,0.5,2.1,0.7c1.4,0.4,2.7,0.7,4.1,0.9c1,0.1,2,0.2,2.9,0.3c1,0,1.9,0,2.8,0
			c1.8-0.1,3.6-0.3,5.4-0.9c0.7-0.2,1.4-0.5,2-0.8c0.1,0,0.2-0.1,0.3-0.2c0.2,0.2,0.4,0.5,0.6,0.7c0.1,0.2,0.1,0.2-0.1,0.3
			c-1.2,0.6-2.4,0.9-3.7,1.2c-2.3,0.5-4.6,0.7-7,0.6c-2.6-0.1-5.1-0.5-7.4-1.6C35.7,55.3,35,55,34.4,54.5z"/>
		<path class="st5" d="M57.5,61.6c0.8,0.8,1.8,1.4,2.9,1.9c1.5,0.7,3.1,1.1,4.8,0.9c0.8-0.1,1.5-0.4,2.1-0.9
			c0.3-0.3,0.6-0.6,0.8-0.9c0.2-0.4,0.6-0.6,1-0.6c0.1,0,0.2,0,0.2,0c-0.1,0.7-0.3,1.4-0.7,2c-0.4,0.7-1.1,1.2-1.8,1.5
			c-1.9,0.8-3.7,0.7-5.5-0.2C59.7,64.5,58.5,63.2,57.5,61.6C57.5,61.7,57.5,61.7,57.5,61.6L57.5,61.6z"/>
		<path class="st5" d="M27.8,63c0.7,0.3,1.5,0.6,2.3,0.7c1,0.2,1.9,0.3,2.9,0.4c0.5,0,1,0,1.4,0c1.2,0,2.4-0.1,3.6-0.4
			c-0.5,1.2-1.2,2.1-2,3c-0.1,0.1-0.2,0.1-0.3,0.1c-1.6-0.3-3.1-0.9-4.6-1.6C30,64.6,28.9,63.9,27.8,63L27.8,63z"/>
		<path class="st9" d="M68.5,69.8c0.1,0.3,0.1,0.6,0.2,1c0.2,1,0.7,1.8,1.2,2.6c0.4,0.6,0.8,1.2,1.3,1.7c0.8,0.8,1.6,1.5,2.4,2.4
			c0.4,0.4,0.7,0.8,1,1.2c0.5,0.9,1,1.8,1.1,2.8c0.1,0.7,0.1,1.4-0.2,2.1c0,0.1-0.1,0.3-0.2,0.4c-0.3-0.9-0.6-1.7-1.1-2.5
			c-0.3-0.5-0.6-0.9-0.7-1.5c-0.1-0.4-0.3-0.7-0.5-1.1c-0.4-0.7-0.9-1.3-1.5-2s-1.2-1.5-1.7-2.2c-0.8-1.2-1.2-2.5-1.2-4
			C68.5,70.4,68.5,70.1,68.5,69.8z"/>
		<path class="st1" d="M40.4,92.4c1.6-0.1,2.9,0.7,4.1,1.6c0.4,0.4,0.8,0.8,1.2,1.2c0.2,0.2,0.2,0.3-0.1,0.3
			c-1.5,0.1-3.1,0.2-4.6,0.2c-0.1,0-0.2,0-0.2,0c0-0.1,0-0.2,0.1-0.2c0.2-0.3,0.5-0.5,0.7-0.8c0.1-0.1,0.2-0.1,0.2-0.3l0,0
			c-0.3,0.3-0.7,0.1-1,0.1c-0.4-0.1-0.8-0.1-1.2-0.2c-0.2,0-0.2-0.1-0.1-0.2C39.6,93.4,40,92.9,40.4,92.4L40.4,92.4z"/>
		<path class="st8" d="M77.7,81.3c-0.1-0.6,0-1.3-0.3-1.8c-0.3-0.6-0.2-1,0.2-1.5c1-1.3,1.6-2.8,2.1-4.4c0.3-0.8,0.6-1.6,0.8-2.5
			C80.8,73.9,79.2,79.7,77.7,81.3z"/>
		<path class="st7" d="M68.8,66.2c-0.1-0.1-0.2,0-0.2,0.1c-0.8,0.5-1.6,0.8-2.5,0.9c-1,0.1-2-0.1-2.9-0.5c0.1-0.3,0.3-0.4,0.6-0.4
			c1.1,0.1,2.2,0,3.2-0.6c0.9-0.5,1.6-1,2-2c0,0.5,0,0.9-0.1,1.4C68.9,65.4,68.8,65.8,68.8,66.2z"/>
		<path class="st7" d="M69.8,78.4c0.4-0.3,0.9-0.7,1.1-1.2c0.1-0.1,0.1-0.3,0.1-0.5c0.9,1,1.7,2,2.3,3.3c-0.1,0-0.1,0-0.2-0.1
			c-0.9-0.9-2-1.4-3.2-1.6C69.9,78.5,69.9,78.4,69.8,78.4L69.8,78.4z"/>
		<path class="st7" d="M37.6,67.6c-0.1,0-0.1,0.2-0.2,0.3c-0.2,0.4-0.5,0.7-0.9,0.7c-0.1-0.5-0.3-1-0.4-1.4c0-0.1,0-0.2,0.1-0.3
			c0.2-0.2,0.3-0.4,0.5-0.5c0.1-0.1,0.2-0.1,0.2,0C37.1,66.8,37.4,67.2,37.6,67.6L37.6,67.6z"/>
		<path class="st7" d="M38,64.4c0,1,0,1.9-0.3,2.8c-0.2-0.4-0.4-0.8-0.7-1.1c0-0.1,0-0.1,0-0.2C37.4,65.4,37.7,64.9,38,64.4L38,64.4
			z"/>
		<path class="st10" d="M51.4,47.5c-0.9,0-1.8,0-2.7-0.1c-0.3,0-0.4-0.1-0.5-0.5c-0.3-2-0.5-3.9-0.3-5.9c0.1-0.9,0.3-1.8,0.6-2.6
			c0.8-1.6,2-2.2,3.7-2c0.3,0,0.6,0.2,0.9,0.4c1.2,0.9,1.8,2,2.1,3.4c0.4,2.2,0.4,4.5-0.3,6.7c-0.1,0.2-0.2,0.4-0.5,0.4
			C53.4,47.5,52.4,47.5,51.4,47.5z"/>
		<path class="st10" d="M28.8,44.3c0-1.5,0.1-3.1,0.4-4.6c0.2-0.8,0.5-1.6,1.1-2.2c0.8-0.7,1.9-0.6,2.3,0.4c0.4,0.7,0.5,1.5,0.5,2.3
			c0.1,1.4,0.2,2.8,0.1,4.3c0,0.7-0.1,1.4-0.2,2c0,0.2-0.1,0.3-0.3,0.3c-1.2,0-2.4,0-3.6-0.1c-0.3,0-0.4-0.1-0.4-0.4
			C28.8,45.6,28.8,44.9,28.8,44.3z"/>
		<path class="st11" d="M47.1,37.5c0.2-0.9,0.7-1.5,1.4-2C48,36.2,47.5,36.7,47.1,37.5z"/>
		<path class="st12" d="M34.7,38.1c-0.1-0.2-0.2-0.3-0.3-0.5c-0.2-0.4-0.4-0.8-0.7-1.1c0,0-0.1-0.1,0-0.1h0.1
			C34.2,36.8,34.6,37.3,34.7,38.1C34.8,38,34.7,38,34.7,38.1L34.7,38.1z"/>
		<path class="st13" d="M39.2,50.4c0.2-0.2,0.4-0.4,0.7-0.6H40c0,0.1,0,0.1,0,0.2C39.7,50.2,39.5,50.3,39.2,50.4
			C39.2,50.5,39.2,50.4,39.2,50.4L39.2,50.4z"/>
		<path class="st14" d="M36.2,50.2c-0.2-0.1-0.4-0.2-0.5-0.4v-0.1c0.1,0,0.1,0,0.2,0C35.9,49.9,36.1,50,36.2,50.2L36.2,50.2z"/>
		<path class="st5" d="M59.6,55.6c-1,0-1.8-0.4-2.6-0.9c-0.1-0.1-0.2-0.2-0.1-0.4c0.3-0.8,0.7-1.5,1.3-2c0.4-0.3,0.7-0.2,1.1-0.1
			c0.6,0.1,1.2,0.4,1.7,0.7c0.3,0.1,0.3,0.4,0.2,0.6c-0.1,0.8-0.6,1.4-1.1,2C60,55.7,59.8,55.6,59.6,55.6L59.6,55.6z"/>
		<path class="st15" d="M27.9,53.9c0,0,0.1,0,0.2,0.1c0,0.1,0,0.1-0.1,0.1c-0.2,0.1-0.5,0.1-0.7,0.2c-0.5,0.2-0.9,0.4-1.3,0.7
			c-0.2,0.1-0.2,0.2-0.1,0.4c0.4,0.5,0.7,1.1,1.1,1.6c0,0.1,0.2,0.1,0.1,0.2c-0.1,0.1-0.2,0-0.2-0.1c-0.4-0.5-0.8-1.1-1.2-1.7
			c-0.1-0.2-0.1-0.4,0-0.5C26.3,54.4,27.1,54.1,27.9,53.9L27.9,53.9z"/>
		<path class="st16" d="M48.7,43c0.2,0.6,0.4,1.1,0.8,1.5c1,1.2,2.1,0.8,2.9-0.1c0.4-0.5,0.6-1.2,0.6-1.9c0.5,0.3,0.7,0.7,0.9,1.2
			c0.4,1.1,0.5,2.2,0.1,3.3c-0.1,0.2-0.2,0.2-0.4,0.3c-1.2,0.1-2.3,0-3.5,0c-0.5,0-1-0.1-1.6-0.1c-0.1,0-0.2,0-0.2-0.1
			c-0.3-1.3-0.3-2.6,0.2-3.8C48.7,43.2,48.7,43.1,48.7,43z"/>
		<path class="st17" d="M51.6,38.3c0,1.3-0.5,2.2-1.5,2.9c-0.8,0.5-1.3,0.3-1.6-0.6c-0.3-1-0.1-1.9,0.5-2.7c0.4-0.5,0.8-0.9,1.4-1
			c0.3-0.1,0.6,0,0.8,0.3C51.6,37.5,51.6,38,51.6,38.3z"/>
		<path class="st18" d="M53.6,37.7c0.8,0.9,1.2,1.9,1.4,3.1c0.3,2,0.3,4.1-0.3,6.1c-0.1,0.3-0.1,0.3-0.5,0.3c0.1-0.5,0.3-1,0.3-1.6
			c0.3-2.2,0.4-4.3-0.3-6.4C54,38.7,53.8,38.2,53.6,37.7C53.5,37.7,53.5,37.7,53.6,37.7L53.6,37.7z"/>
		<path class="st19" d="M53.6,37.7L53.6,37.7c-0.2-0.1-0.4-0.3-0.5-0.4C53.3,37.4,53.5,37.5,53.6,37.7z"/>
		<path class="st16" d="M32.6,43c0.4,0.3,0.5,0.7,0.5,1.1c0.1,0.7-0.1,1.5-0.2,2.2c0,0.1-0.1,0.2-0.3,0.2c-0.9,0-1.8,0-2.7,0
			c-0.2,0-0.3,0-0.3-0.3c0-0.7-0.1-1.4,0-2.1c0.1-0.4,0.3-0.8,0.7-1.1c0,0.5,0.1,0.9,0.3,1.3c0.4,0.7,1.1,0.7,1.5,0
			C32.4,44,32.4,43.5,32.6,43L32.6,43z"/>
		<path class="st17" d="M31.7,39.3c0,0.6,0,1.4-0.5,2c-0.2,0.2-0.4,0.4-0.7,0.3c-0.2,0-0.4-0.2-0.5-0.3c-0.3-0.4-0.4-0.9-0.3-1.4
			c0.1-0.7,0.1-1.4,0.5-2c0.1-0.1,0.2-0.2,0.3-0.3c0.3-0.3,0.8-0.2,1,0.2C31.6,38.2,31.7,38.6,31.7,39.3L31.7,39.3z"/>
		<path class="st20" d="M29.4,40.4c-0.1,1.6-0.1,3.2-0.1,4.8c0,0.4,0,0.7,0.1,1.1c0,0.1,0,0.2-0.1,0.2s-0.2,0-0.3-0.1v-0.1
			c0-2.1-0.1-4.1,0.3-6.2C29.5,40.2,29.4,40.3,29.4,40.4L29.4,40.4z"/>
		<path class="st19" d="M29.4,40.4c-0.1-0.1,0-0.3-0.1-0.4c0-0.2,0.1-0.4,0.1-0.6C29.5,39.8,29.5,40.1,29.4,40.4z"/>
	</g>
</g>
</svg>
