<?xml version="1.0" encoding="utf-8"?>
<!-- Generator: Adobe Illustrator 27.0.0, SVG Export Plug-In . SVG Version: 6.00 Build 0)  -->
<svg version="1.1" id="Capa_1" xmlns="http://www.w3.org/2000/svg" xmlns:xlink="http://www.w3.org/1999/xlink" x="0px" y="0px"
	 viewBox="0 0 120 120" style="enable-background:new 0 0 120 120;" xml:space="preserve">
<style type="text/css">
	.st0{fill:#0D131A;}
	.st1{fill:#FFF1AC;}
	.st2{fill:#DCD096;}
	.st3{fill:#F9BE00;}
	.st4{fill:#D7A400;}
	.st5{fill:#FFFFFF;}
</style>
<g>
	<g>
		<path class="st0" d="M57.5,30.3l-4.9-0.5c-3.3-0.4-5-0.8-5.2-1.3c-0.2-0.3-0.2-1.1-0.1-2.2c0.1-1.1,0.3-1.8,0.5-2
			c0.4-0.3,1.9,0.1,4.7,1.4c1.4,0.6,2.7,1.3,4.1,2l-4.1-4.6c-2.7-3.2-4.1-5-4.1-5.4c0-0.5,0.3-1.1,1.1-1.7s1.4-0.9,1.9-0.9
			c0.6,0,1.8,1.3,3.5,3.8c1.8,2.7,3.2,5.4,4.3,8.2l-0.5-5.7c-0.3-3.8-0.4-5.9-0.2-6.2c0.3-0.3,0.8-0.4,1.7-0.3
			c0.8,0.1,1.4,0.3,1.7,0.6c0.2,0.2,0.2,2.7,0,7.3l-0.4,6.9L57.5,30.3"/>
		<path class="st0" d="M81.1,105c-0.8,0.2-2-0.2-3.6-1.2l-2.1-1.5l-3.1,1.4c-2.2,0.9-3.6,1.2-4.3,1c-0.4-0.1-0.6-0.9-0.5-2.4
			c0.1-1.4,0.3-2.7,0.6-3.9l14.3-4.9c2,1.1,3.9,2.8,5.7,4.9c1.9,2.2,2.6,3.7,2,4.4c-0.4,0.5-1.7,0.3-3.9-0.5L83,101l-0.5,1.9
			C82.2,104.2,81.7,104.9,81.1,105"/>
		<path class="st1" d="M82.8,99.1l-0.5,2.5c-0.4,1.4-0.8,2.2-1.3,2.3c-0.4,0.1-1.3-0.2-2.6-0.8c-1.5-0.8-2.7-1.8-3.5-3.1
			c-0.2-0.3-0.3-0.4-0.4-0.3s-0.1,0.3,0.1,0.6l0.4,1.1c-0.9,0.6-1.9,1.1-3.1,1.6c-1.4,0.6-2.3,0.8-2.8,0.6c-0.3-0.1-0.5-0.9-0.4-2.3
			c0.1-1.3,0.3-2.6,0.6-3.7l12-3.7c1.7,0.8,3.6,2.2,5.6,4.4c1.9,2.1,2.7,3.3,2.3,3.8c-0.2,0.2-1,0-2.4-0.5c-1.5-0.5-2.6-1.1-3.5-1.6
			v-0.6c0-0.3,0-0.5-0.1-0.5C83,98.7,82.9,98.8,82.8,99.1"/>
		<path class="st2" d="M76.4,98.6c-1.3,0.4-2.9,0.8-5,1.2l-2.7,0.5l0.2-1.7l12.8-4.7l1.7,1.3l-2.5,1.4
			C79.1,97.6,77.6,98.3,76.4,98.6"/>
		<path class="st0" d="M57.1,97.9c1,1.7,1.7,3,2.1,4c0.6,1.6,0.7,2.4,0.2,2.7c-0.7,0.3-2.1-0.1-4.3-1.1l-3.2-1.6l-1.9,1.7
			c-1.4,1.1-2.4,1.6-3.1,1.6c-0.6-0.1-1.2-0.6-1.7-1.7l-0.6-1.7l-4,0.9l-4.6,0.1c-0.5-0.6,0.4-2,2.8-4.2c2.3-2.2,4.5-3.7,6.4-4.5
			L57.1,97.9"/>
		<path class="st1" d="M57.9,101c0.6,1.5,0.8,2.4,0.5,2.6s-1.2,0-2.7-0.7c-1.5-0.6-2.6-1.3-3.3-1.9l0.2-0.7c0.1-0.3,0-0.4-0.1-0.5
			c-0.1,0-0.3,0.1-0.4,0.3c-0.5,0.7-1.3,1.6-2.7,2.5c-1.3,1-2.2,1.4-2.7,1.3c-0.9-0.1-1.6-1.4-2-3.9c-0.1-0.3-0.1-0.4-0.2-0.3
			c-0.1,0-0.1,0.2-0.2,0.5v0.5c-1.2,0.4-2.7,0.8-4.5,1l-2.8,0.1c-0.2-0.4,0.7-1.5,2.7-3.3c2.2-2.1,4.4-3.6,6.7-4.5l9.3,3.1
			C56.7,98.4,57.3,99.7,57.9,101"/>
		<path class="st2" d="M49.5,98.1c-1.1-0.4-2.3-1-3.6-1.8l-1.6-1.1l1.4-0.8l10.8,3.5l1,2L55,99.5C52.9,99.1,51.1,98.7,49.5,98.1"/>
		<path class="st0" d="M30.2,86.7c-1.7-1.5-3-2.9-3.9-4.3s-1.1-2.3-0.6-2.8c0.8-0.8,2.4-0.6,4.7,0.7c1.4,0.8,2.4,1.2,2.8,1.4
			c1.1,0.4,2,0.6,2.7,0.4l0.3,1.5c0.4,1.3,1.1,2.6,2,4s2.1,2.7,3.6,3.9c0.7,0.6,1.4,1.1,2,1.5C39.2,92.7,34.6,90.6,30.2,86.7"/>
		<path class="st3" d="M31.5,86.4c-1.7-1.4-3.1-2.7-4-3.9c-1-1.2-1.3-2-1-2.4s0.9-0.4,1.7-0.1c0.4,0.2,1.3,0.6,2.7,1.4
			c2.8,1.6,5,2.3,6.6,2.1l6,8.7C39.8,91.8,35.8,89.9,31.5,86.4"/>
		<path class="st4" d="M34.6,88.7c-2.9-1.9-5.1-3.7-6.5-5.4c3.4,3,6.6,5,9.7,5.8c1.5,0.4,2.7,0.6,3.6,0.4l1.9,2.8
			C40.8,91.9,37.9,90.7,34.6,88.7"/>
		<path class="st0" d="M89.9,39.5c2.1,2.5,3.5,5.2,4.2,8.2c0.8,3.4,0.5,6.9-0.7,10.7c-1.3,3.9-3.2,6.9-5.9,9l-10-12.2
			c0.8-0.9,1.5-2.1,2.1-3.5c1.3-2.8,1.7-5.5,1.1-8.2c-0.5-2.3-1.4-4.7-2.7-7c-0.9-1.7-1.3-2.7-1.2-2.9c0.2-0.2,0.6-0.3,1.2-0.2
			l0.7,0.2L78.5,33c-0.1-0.4,0-0.8,0.3-1h1.8l1.2,0.4c0-0.3,0.1-0.5,0.2-0.8c0.2-0.5,0.5-0.8,0.8-0.8c0.6-0.1,1.2,0.4,1.8,1.4
			l1.8,3.5C86.7,36.2,87.8,37.5,89.9,39.5"/>
		<path class="st3" d="M89,40c2.3,2.9,3.6,5.7,3.9,8.5c0.5,3.7,0.3,7-0.7,10.1s-2.7,5.8-5.2,8l-8.5-10.4c0.8-1.1,1.5-2.3,2.1-3.8
			c1.3-3,1.7-5.7,1.2-8.1c-0.5-2.2-1.3-4.4-2.5-6.7c-0.9-1.8-1.4-2.7-1.3-2.7c0.2-0.2,0.5-0.3,1-0.1c0.2,0.1,0.5,0.2,0.7,0.3
			c-0.1-0.3-0.2-0.6-0.3-0.9c-0.1-0.6-0.1-1.1,0.2-1.2c0.3-0.2,0.8-0.2,1.6,0.2l1.1,0.5v-0.8c0.1-0.5,0.2-0.8,0.4-0.9
			c0.3-0.1,0.7,0.3,1.3,1.2c0.5,0.8,1,1.8,1.5,3.1l1.1,1.2C87.6,38.3,88.4,39.1,89,40"/>
		<path class="st0" d="M91.4,79.9c-0.1,5.7-2.8,10.3-8.3,13.9c-5.3,3.5-12,5.2-20,5.1c-8.1-0.1-14.8-2-20.2-5.8
			c-5.3-3.8-8-8.4-7.9-13.9c0-2.9,0.8-6.2,2.3-9.7c1.5-3.6,3.5-7,6.1-10.1c2.7-3.4,5.7-6,9-7.9c3.6-2.1,7.3-3.2,11-3.1
			c3.8,0,7.5,1.2,11.1,3.5c3.2,2,6.2,4.8,8.9,8.3c2.5,3.2,4.4,6.6,5.9,10.3C90.8,74.1,91.5,77.2,91.4,79.9"/>
		<path class="st3" d="M90.3,79.6c-0.1,5.4-2.7,9.9-7.9,13.4c-5.1,3.4-11.5,5.1-19.1,5s-14-1.9-19.2-5.4c-5.3-3.6-7.9-8.1-7.9-13.5
			c0-2.8,0.8-5.9,2.2-9.3c1.5-3.4,3.4-6.6,5.9-9.6c2.7-3.2,5.5-5.7,8.7-7.5c3.5-2,7-3,10.5-2.9c3.6,0.1,7,1.1,10.5,3.2
			c3.1,1.9,5.9,4.4,8.5,7.7c2.4,3,4.3,6.3,5.7,9.7C89.6,73.8,90.3,76.9,90.3,79.6"/>
		<path class="st4" d="M66.1,50.3l1.6,0.1c3.3,0.8,6.6,2.5,9.7,5c2.8,2.3,5.3,5.1,7.5,8.5v0.6c0,3.9-1.8,7.2-5.5,10
			s-8.1,4.2-13.2,4.2s-9.6-1.4-13.2-4.2c-3.7-2.8-5.5-6.1-5.5-10s1.8-7.2,5.5-10C56.5,51.6,61,50.3,66.1,50.3"/>
		<path class="st4" d="M60.4,95.5c5,0.5,9.9,0.2,14.8-0.9c4.7-1,8.2-2.5,10.5-4.4c-2.4,2.5-5.6,4.4-9.5,5.8c-4,1.4-8.3,2.1-13,2
			c-7.6-0.1-14-1.9-19.2-5.4c-5.3-3.6-7.9-8.2-7.9-13.6c1.8,5,5,9,9.6,11.8C49.9,93.4,54.7,94.9,60.4,95.5"/>
		<path class="st0" d="M60.3,28.5c7.4-0.4,13.6,1.1,18.8,4.5c4.9,3.2,7.5,7.3,8,12.1c0.5,5.1-1.5,9.4-6,13c-4.4,3.6-10.3,5.6-17.4,6
			c-7.2,0.4-13.4-0.9-18.5-3.9c-5.2-3-8-7.1-8.4-12.1c-0.5-5.1,1.6-9.5,6.1-13.3C47.3,31,53.1,28.9,60.3,28.5"/>
		<path class="st3" d="M60.4,29.3c6.7-0.4,12.5,1,17.5,4.1s7.7,7,8.2,11.8c0.4,4.7-1.6,8.9-6,12.5s-10,5.6-16.6,6
			c-6.7,0.4-12.5-1-17.5-4.1s-7.8-7-8.2-11.8c-0.4-4.7,1.6-8.9,6-12.5C48.2,31.7,53.8,29.7,60.4,29.3"/>
		<path class="st0" d="M41.1,39.3v0.8l0.6-0.3c0.4-0.2,0.8-0.2,1.1,0s0.3,0.8,0.1,2.1c-0.3,1.7-0.5,3-0.5,3.8
			c0.1,1.9,0.3,4.3,0.6,7.2c0.3,2.2,0.6,4.3,0.9,6.2c0.6,3.6,0.7,6.6,0.1,9.1c-0.3,1.8-1,3.3-2,4.3l-1.7,1.1l-1.8,0.8
			c-1.7,0.4-3.1,0.3-4.4-0.3c-2.2-1.1-3.6-3.1-4.3-5.8c-0.7-2.5-0.8-5.8-0.4-10.1c0.3-3.2,1.2-6.4,2.7-9.6c1.5-2.7,2.2-4.2,2.3-4.5
			c0.3-1.9,0.6-3.2,0.7-3.9c0.3-1.2,0.8-1.8,1.3-1.9c0.3-0.1,0.7,0.2,1,0.7l0.4,0.8c0.3-0.3,0.6-0.6,1-0.8c0.7-0.5,1.3-0.7,1.6-0.6
			S41,38.7,41.1,39.3"/>
		<path class="st3" d="M37.5,40.7l1-0.8c0.7-0.5,1.2-0.7,1.5-0.6c0.3,0.1,0.5,0.5,0.5,1.2v0.9c0.2-0.2,0.4-0.3,0.6-0.4
			c0.4-0.3,0.8-0.3,1-0.1c0.1,0.1,0.1,0.6-0.1,1.6l-0.3,2.7c0,0.6,0.1,2.3,0.3,5.3c0.3,3.4,0.6,6.1,0.9,8c0.6,3.7,0.8,6.5,0.5,8.5
			c-0.2,1.4-0.8,2.9-1.7,4.5c-0.4,0.6-0.6,1.1-0.6,1.3c0.1,0.3,0.5,0.2,1.4-0.5L42,72.7c-0.4,0.4-0.9,0.8-1.5,1.2
			c-1,0.5-1.8,0.8-2.4,0.8c1.1-0.3,1.5-0.7,1.2-1s-0.8-0.4-1.6-0.2c-2.5,0.4-4.4-0.6-5.8-2.9c-1.5-2.6-2-6.6-1.5-11.9
			c0.3-3.3,1.2-6.7,2.6-10.1c1.4-2.8,2.2-4.3,2.2-4.5c0.2-1.3,0.4-2.4,0.6-3.3c0.3-1.1,0.6-1.6,0.9-1.6
			C37.1,39.2,37.3,39.7,37.5,40.7"/>
		<path class="st0" d="M65.4,48.5c0.9-0.1,2.1,0.4,3.6,1.3c1.8,1.1,3,1.8,3.8,2c0.9,0.3,2.2,0.4,3.9,0.4c1.4,0,2.2,0.2,2.5,0.4
			c0.3,0.3,0.5,0.9,0.5,1.9c0,1.1,0.2,1.9,0.6,2.4l1.3,1c0.9,0.6,1.6,1.2,2.2,1.7c1.9,1.8,2.8,4,2.6,6.5c-0.2,2.5-2.1,4.7-5.7,6.5
			c-3.9,2-8.5,2.9-14,2.7c-6-0.1-10.6-0.9-13.8-2.2c-3.8-1.6-5.6-4.2-5.5-7.6c0.1-1.1,0.3-2.3,0.6-3.6c0.3-1.2,0.5-2,0.4-2.5
			c0-0.4-0.2-1-0.6-1.7c-0.3-0.5-0.3-1-0.1-1.5c0.4-0.8,1.7-1.3,3.8-1.6c2.8-0.3,4.7-0.7,5.7-1.2c0.8-0.4,2.2-1.3,4.3-3
			C63.4,49.2,64.7,48.5,65.4,48.5"/>
		<path class="st1" d="M65.7,49.3c0.9-0.1,1.9,0.4,3.1,1.3c1.4,1.1,2.5,1.7,3.2,2c0.8,0.2,2.1,0.4,3.8,0.5c1.4,0.1,2.2,0.2,2.5,0.5
			s0.5,0.9,0.5,1.8c0.1,1,0.2,1.8,0.6,2.3c0.3,0.4,1.4,1.2,3.2,2.3c1.7,1.4,2.6,3.2,2.5,5.5c0,1.7-1,3.3-2.9,4.8
			c-1.5,1.2-3.4,2.2-5.8,3c-1,0.3-2.4,0.6-4.4,0.9l-7,0.3c-2.6-0.1-5.3-0.5-8-1.1c-2.4-0.6-4.2-1.1-5.1-1.7
			c-1.2-0.7-2.1-1.5-2.7-2.4c-0.7-1.1-1-2.4-0.9-4.1c0-0.9,0.2-2.1,0.5-3.4c0.2-1.2,0.3-2,0.3-2.4c0-0.3-0.2-0.8-0.5-1.5
			c-0.2-0.4-0.2-0.9,0-1.3c0.2-0.5,1.5-0.9,3.7-1.2c2.7-0.4,4.5-0.8,5.4-1.2l4-2.8C63.8,50.1,65.1,49.4,65.7,49.3"/>
		<path class="st0" d="M62.2,52.8c0.3,0.1,0.6,0.3,0.9,0.6c0.3,0.3,0.6,0.7,0.7,1c0.1,0.3,0.1,0.6-0.1,0.6c-0.2,0.1-0.4-0.1-0.6-0.3
			L62.6,54l-0.9-0.5c-0.4-0.2-0.4-0.4-0.2-0.6L62.2,52.8"/>
		<path class="st0" d="M69,53.9l-0.3,0.5c-0.2,0.2-0.3,0.3-0.5,0.2c-0.1,0-0.2-0.2-0.1-0.4s0.2-0.5,0.3-0.7c0.2-0.2,0.3-0.4,0.6-0.5
			h0.4c0.2,0.1,0.2,0.3,0,0.5L69,53.9"/>
		<path class="st2" d="M51.1,69.3c1.1,1,3.3,1.8,6.7,2.6C61.4,72.6,65,73,68.7,73c4.3,0,7.8-0.6,10.7-1.7c3.3-1.3,5.3-3.2,5.9-5.7
			c0,1.7-1,3.3-2.9,4.8c-1.5,1.2-3.4,2.2-5.8,3c-1,0.3-2.4,0.6-4.4,0.9l-7,0.3c-2.6-0.1-5.3-0.5-8-1.1c-2.4-0.6-4.2-1.1-5.1-1.7
			c-1.2-0.8-2.1-1.5-2.7-2.4c-0.7-1.1-1-2.4-1-4.1c0.1-1.1,0.2-1.9,0.3-2.6l0.4-1.7L49,64.1C49.1,66.4,49.8,68.1,51.1,69.3"/>
		<path class="st0" d="M69.5,47.3c-1.3-1.2-1.8-2.6-1.6-4c0.2-1.4,1.1-2.6,2.8-3.3c1.6-0.8,3.5-1,5.6-0.7s3.8,1.1,5.1,2.3
			c1.3,1.3,1.8,2.6,1.6,4c-0.2,1.4-1.1,2.6-2.8,3.4s-3.5,1-5.6,0.7C72.6,49.4,70.8,48.6,69.5,47.3"/>
		<path class="st5" d="M70.2,47c-1.2-1.1-1.7-2.2-1.5-3.5s1-2.2,2.5-2.9s3.1-0.9,5-0.6c1.9,0.3,3.4,0.9,4.6,2s1.7,2.2,1.4,3.5
			c-0.2,1.3-1,2.2-2.5,2.9s-3.1,0.9-5,0.6C72.9,48.7,71.4,48.1,70.2,47"/>
		<path class="st0" d="M73.7,44.9c-0.2,0-0.4-0.1-0.5-0.2S73,44.4,73,44.2s0.1-0.4,0.2-0.5s0.3-0.2,0.5-0.2s0.4,0.1,0.5,0.2
			s0.2,0.3,0.2,0.5s-0.1,0.4-0.2,0.5S74,44.9,73.7,44.9"/>
		<path class="st0" d="M59.4,48.5c-1.5,1.4-3.4,2.3-5.7,2.6s-4.4,0.1-6.2-0.8c-1.8-0.9-2.8-2.2-3.1-3.8c-0.2-1.6,0.4-3.1,1.9-4.5
			s3.4-2.2,5.7-2.6c2.3-0.3,4.4-0.1,6.2,0.9c1.8,0.9,2.8,2.2,3.1,3.8C61.5,45.6,60.9,47.1,59.4,48.5"/>
		<path class="st5" d="M58.8,48.1c-1.3,1.2-3,1.9-5.1,2.2s-3.9,0.1-5.6-0.7c-1.6-0.8-2.5-1.9-2.7-3.3c-0.2-1.4,0.3-2.7,1.7-3.9
			c1.3-1.2,3-1.9,5.1-2.2s3.9-0.1,5.6,0.7c1.6,0.8,2.5,1.9,2.7,3.3C60.7,45.6,60.1,46.9,58.8,48.1"/>
		<path class="st0" d="M53.8,45.7c-0.2,0-0.4,0-0.6-0.2C53.1,45.4,53,45.2,53,45s0.1-0.4,0.2-0.6c0.1-0.2,0.3-0.2,0.5-0.3
			c0.2,0,0.4,0.1,0.6,0.2c0.2,0.1,0.3,0.3,0.3,0.5s0,0.4-0.2,0.6C54.2,45.6,54.1,45.7,53.8,45.7"/>
	</g>
</g>
</svg>
