<?xml version="1.0" encoding="utf-8"?>
<!-- Generator: Adobe Illustrator 27.0.0, SVG Export Plug-In . SVG Version: 6.00 Build 0)  -->
<svg version="1.1" id="Capa_1" xmlns="http://www.w3.org/2000/svg" xmlns:xlink="http://www.w3.org/1999/xlink" x="0px" y="0px"
	 viewBox="0 0 120 120" style="enable-background:new 0 0 120 120;" xml:space="preserve">
<style type="text/css">
	.st0{clip-path:url(#SVGID_00000021839443963552848810000005498943217281723273_);}
	.st1{fill:#33348E;}
	.st2{fill:#34358F;}
	.st3{fill:#35368F;}
	.st4{fill:#363790;}
	.st5{fill:#373890;}
	.st6{fill:#383991;}
	.st7{fill:#393A91;}
	.st8{fill:#3A3B92;}
	.st9{fill:#3B3C92;}
	.st10{fill:#3C3D93;}
	.st11{fill:#3D3E94;}
	.st12{fill:#3E3F94;}
	.st13{fill:#3F4095;}
	.st14{fill:#404195;}
	.st15{fill:#414296;}
	.st16{fill:#424396;}
	.st17{fill:#434497;}
	.st18{fill:#444597;}
	.st19{fill:#454698;}
	.st20{fill:#464799;}
	.st21{fill:#474899;}
	.st22{fill:#48499A;}
	.st23{fill:#494A9A;}
	.st24{fill:#4A4B9B;}
	.st25{fill:#4B4C9B;}
	.st26{fill:#4C4D9C;}
	.st27{fill:#4D4E9C;}
	.st28{fill:#4E4F9D;}
	.st29{fill:#4F509E;}
	.st30{fill:#50519E;}
	.st31{fill:#51529F;}
	.st32{fill:#52539F;}
	.st33{fill:#5354A0;}
	.st34{fill:#5455A0;}
	.st35{fill:#5556A1;}
	.st36{fill:#5657A1;}
	.st37{fill:#5758A2;}
	.st38{fill:#5859A3;}
	.st39{fill:#595AA3;}
	.st40{fill:#5A5BA4;}
	.st41{fill:#5B5CA4;}
	.st42{fill:#5C5DA5;}
	.st43{fill:#5D5EA5;}
	.st44{fill:#5E5FA6;}
	.st45{fill:#5F60A6;}
	.st46{fill:#6061A7;}
	.st47{fill:#6162A8;}
	.st48{fill:#6263A8;}
	.st49{fill:#6364A9;}
	.st50{fill:#6465A9;}
	.st51{fill:#6566AA;}
	.st52{fill:#6667AA;}
	.st53{fill:#6768AB;}
	.st54{fill:#6869AC;}
	.st55{fill:#696AAC;}
	.st56{fill:#6A6BAD;}
	.st57{fill:#6B6CAD;}
	.st58{fill:#6C6DAE;}
	.st59{fill:#6D6EAE;}
	.st60{fill:#6E6FAF;}
	.st61{fill:#6F70AF;}
	.st62{fill:#7071B0;}
	.st63{fill:#7172B1;}
	.st64{fill:#7273B1;}
	.st65{fill:#7374B2;}
	.st66{fill:#7475B2;}
	.st67{fill:#7576B3;}
	.st68{fill:#7677B3;}
	.st69{fill:#7778B4;}
	.st70{fill:#7879B4;}
	.st71{fill:#797AB5;}
	.st72{fill:#7A7BB6;}
	.st73{fill:#7B7CB6;}
	.st74{fill:#7C7DB7;}
	.st75{fill:#7D7EB7;}
	.st76{fill:#7E7FB8;}
	.st77{fill:#7F80B8;}
	.st78{fill:#8081B9;}
	.st79{fill:#8182B9;}
	.st80{fill:#8283BA;}
	.st81{fill:#8384BB;}
	.st82{fill:#8485BB;}
	.st83{fill:#8586BC;}
	.st84{fill:#8687BC;}
	.st85{fill:#8788BD;}
	.st86{fill:#8889BD;}
	.st87{fill:#898ABE;}
	.st88{fill:#8A8BBE;}
	.st89{fill:#8B8CBF;}
	.st90{fill:#8C8DC0;}
	.st91{fill:#8D8EC0;}
	.st92{fill:#8E8FC1;}
	.st93{fill:#8F90C1;}
	.st94{fill:#9091C2;}
	.st95{fill:#9192C2;}
	.st96{fill:#9293C3;}
	.st97{fill:#9394C3;}
	.st98{fill:#9495C4;}
	.st99{fill:#9596C5;}
	.st100{fill:#9697C5;}
	.st101{fill:#9798C6;}
	.st102{fill:#9899C6;}
	.st103{fill:#9A9AC7;}
	.st104{fill:#9B9BC7;}
	.st105{fill:#9C9CC8;}
	.st106{fill:#9D9DC8;}
	.st107{fill:#9E9EC9;}
	.st108{fill:#9F9FCA;}
	.st109{fill:#A0A0CA;}
	.st110{fill:#A1A1CB;}
	.st111{fill:#A2A2CB;}
	.st112{fill:#A3A3CC;}
	.st113{fill:#A4A4CC;}
	.st114{fill:#A5A5CD;}
	.st115{fill:#A6A6CD;}
	.st116{fill:#A7A7CE;}
	.st117{fill:#A8A8CF;}
	.st118{fill:#A9A9CF;}
	.st119{fill:#AAAAD0;}
	.st120{fill:#ABABD0;}
	.st121{fill:#ACACD1;}
	.st122{fill:#ADADD1;}
	.st123{fill:#AEAED2;}
	.st124{fill:#AFAFD2;}
	.st125{fill:#B0B0D3;}
	.st126{fill:#B1B1D4;}
	.st127{fill:#B2B2D4;}
	.st128{fill:#B3B3D5;}
	.st129{fill:#B4B4D5;}
	.st130{fill:#B5B5D6;}
	.st131{fill:#B6B6D6;}
	.st132{fill:#B7B7D7;}
	.st133{fill:#B8B8D7;}
	.st134{fill:#B9B9D8;}
	.st135{fill:#BABAD9;}
	.st136{fill:#BBBBD9;}
	.st137{fill:#BCBCDA;}
	.st138{fill:#BDBDDA;}
	.st139{fill:#BEBEDB;}
	.st140{fill:#BFBFDB;}
	.st141{fill:#C0C0DC;}
	.st142{fill:#C1C1DC;}
	.st143{fill:#C2C2DD;}
	.st144{fill:#C3C3DE;}
	.st145{fill:#C4C4DE;}
	.st146{fill:#C5C5DF;}
	.st147{fill:#C6C6DF;}
	.st148{fill:#C7C7E0;}
	.st149{fill:#C8C8E0;}
	.st150{fill:#C9C9E1;}
	.st151{fill:#CACAE1;}
	.st152{fill:#CBCBE2;}
	.st153{fill:#CCCCE3;}
	.st154{fill:#CDCDE3;}
	.st155{fill:#CECEE4;}
	.st156{fill:#CFCFE4;}
	.st157{fill:#D0D0E5;}
	.st158{fill:#D1D1E5;}
	.st159{fill:#D2D2E6;}
	.st160{fill:#D3D3E7;}
	.st161{fill:#D4D4E7;}
	.st162{fill:#D5D5E8;}
	.st163{fill:#D6D6E8;}
	.st164{fill:#D7D7E9;}
	.st165{fill:#D8D8E9;}
	.st166{fill:#D9D9EA;}
	.st167{fill:#DADAEA;}
	.st168{fill:#DBDBEB;}
	.st169{fill:#DCDCEC;}
	.st170{fill:#DDDDEC;}
	.st171{fill:#DEDEED;}
	.st172{fill:#DFDFED;}
	.st173{fill:#E0E0EE;}
	.st174{fill:#E1E1EE;}
	.st175{fill:#E2E2EF;}
	.st176{fill:#E3E3EF;}
	.st177{fill:#E4E4F0;}
	.st178{fill:#E5E5F1;}
	.st179{fill:#E6E6F1;}
	.st180{fill:#E7E7F2;}
	.st181{fill:#E8E8F2;}
	.st182{fill:#E9E9F3;}
	.st183{fill:#EAEAF3;}
	.st184{fill:#EBEBF4;}
	.st185{fill:#ECECF4;}
	.st186{fill:#EDEDF5;}
	.st187{fill:#EEEEF6;}
	.st188{fill:#EFEFF6;}
	.st189{fill:#F0F0F7;}
	.st190{fill:#F1F1F7;}
	.st191{fill:#F2F2F8;}
	.st192{fill:#F3F3F8;}
	.st193{fill:#F4F4F9;}
	.st194{fill:#F5F5F9;}
	.st195{fill:#F6F6FA;}
	.st196{fill:#F7F7FB;}
	.st197{fill:#F8F8FB;}
	.st198{fill:#F9F9FC;}
	.st199{fill:#FAFAFC;}
	.st200{fill:#FBFBFD;}
	.st201{fill:#FCFCFD;}
	.st202{fill:#FDFDFE;}
	.st203{fill:#FEFEFE;}
	.st204{fill:#FFFFFF;}
	.st205{clip-path:url(#SVGID_00000093138778160018764760000014234836897510125750_);}
	.st206{fill-rule:evenodd;clip-rule:evenodd;fill:#E4AAAC;}
	.st207{fill-rule:evenodd;clip-rule:evenodd;fill:#BA8C8F;}
</style>
<g>
	<g>
		<g>
			<g>
				<g>
					<defs>
						<ellipse id="SVGID_1_" cx="68.4" cy="47.1" rx="2.6" ry="4.2"/>
					</defs>
					<clipPath id="SVGID_00000156585747850733726450000010571454323240314802_">
						<use xlink:href="#SVGID_1_"  style="overflow:visible;"/>
					</clipPath>
					<g style="clip-path:url(#SVGID_00000156585747850733726450000010571454323240314802_);">
						<rect x="65.8" y="42.9" class="st1" width="5.2" height="8.4"/>
						<path class="st1" d="M71.1,47v-3.4h0.2c-0.1-0.1-0.2-0.2-0.3-0.3c-0.2-0.2-0.5-0.3-0.7-0.4c-0.3-0.1-0.5-0.2-0.8-0.3v0.2h-1.8
							v-0.2c-0.3,0.1-0.6,0.1-0.8,0.3c-0.3,0.1-0.5,0.3-0.7,0.4c-0.1,0.1-0.2,0.2-0.3,0.3H66v6.8h-0.1c0.1,0.1,0.2,0.2,0.3,0.3
							c0.2,0.2,0.5,0.3,0.7,0.4c0.5,0.2,1.1,0.3,1.7,0.3s1.2-0.1,1.7-0.3c0.3-0.1,0.5-0.3,0.7-0.4c0.1-0.1,0.2-0.2,0.3-0.3h-0.2
							L71.1,47L71.1,47z"/>
						<path class="st2" d="M71.1,47v-3.4h0.2c-0.1-0.1-0.2-0.2-0.3-0.3c-0.2-0.2-0.5-0.3-0.7-0.4c-0.5-0.2-1.1-0.3-1.7-0.3
							s-1.2,0.1-1.7,0.3c-0.3,0.1-0.5,0.3-0.7,0.4c-0.1,0.1-0.2,0.2-0.3,0.3H66v6.8h-0.1c0.1,0.1,0.2,0.2,0.3,0.3
							c0.2,0.2,0.5,0.3,0.7,0.4c0.5,0.2,1.1,0.3,1.7,0.3s1.2-0.1,1.7-0.3c0.3-0.1,0.5-0.3,0.7-0.4c0.1-0.1,0.2-0.2,0.3-0.3h-0.2V47z
							"/>
						<path class="st3" d="M71.1,47v-3.4h0.2c-0.1-0.1-0.2-0.2-0.3-0.3c-0.2-0.2-0.5-0.3-0.7-0.4c-0.5-0.2-1.1-0.3-1.7-0.3
							s-1.2,0.1-1.7,0.3c-0.3,0.1-0.5,0.3-0.7,0.4c-0.1,0.1-0.2,0.2-0.3,0.3H66v6.7h-0.1c0.1,0.1,0.2,0.2,0.3,0.3
							c0.2,0.2,0.5,0.3,0.7,0.4c0.5,0.2,1.1,0.3,1.7,0.3s1.2-0.1,1.7-0.3c0.3-0.1,0.5-0.3,0.7-0.4c0.1-0.1,0.2-0.2,0.3-0.3h-0.2
							C71.1,50.4,71.1,47,71.1,47z"/>
						<path class="st4" d="M71.1,47v-3.3h0.2c-0.1-0.1-0.2-0.2-0.3-0.3c-0.2-0.2-0.5-0.3-0.7-0.4c-0.5-0.2-1.1-0.3-1.7-0.3
							s-1.2,0.1-1.7,0.3c-0.3,0.1-0.5,0.3-0.7,0.4c-0.1,0.1-0.2,0.2-0.3,0.3H66v6.7h-0.1c0.1,0.1,0.2,0.2,0.3,0.3
							c0.2,0.2,0.5,0.3,0.7,0.4c0.5,0.2,1.1,0.3,1.7,0.3s1.2-0.1,1.7-0.3c0.3-0.1,0.5-0.3,0.7-0.4c0.1-0.1,0.2-0.2,0.3-0.3h-0.2V47z
							"/>
						<path class="st5" d="M71.1,47v-3.3h0.1c-0.1-0.1-0.2-0.2-0.3-0.3c-0.2-0.2-0.5-0.3-0.7-0.4c-0.5-0.2-1.1-0.3-1.7-0.3
							s-1.2,0.1-1.7,0.3c-0.3,0.1-0.5,0.2-0.7,0.4c-0.1,0.1-0.2,0.2-0.3,0.3l0,0v6.7l0,0c0.1,0.1,0.2,0.2,0.3,0.3
							c0.2,0.2,0.5,0.3,0.7,0.4c0.5,0.2,1.1,0.3,1.7,0.3s1.2-0.1,1.7-0.3c0.3-0.1,0.5-0.2,0.7-0.4c0.1-0.1,0.2-0.2,0.3-0.3h-0.1V47
							L71.1,47z"/>
						<path class="st6" d="M71.1,47v-3.3h0.1c-0.1-0.1-0.2-0.2-0.3-0.3c-0.2-0.2-0.5-0.3-0.7-0.4c-0.5-0.2-1.1-0.3-1.7-0.3
							s-1.2,0.1-1.7,0.3c-0.3,0.1-0.5,0.2-0.7,0.4c-0.1,0.1-0.2,0.2-0.3,0.3l0,0v6.6l0,0c0.1,0.1,0.2,0.2,0.3,0.3
							c0.2,0.2,0.5,0.3,0.7,0.4c0.5,0.2,1.1,0.3,1.7,0.3s1.2-0.1,1.7-0.3c0.3-0.1,0.5-0.2,0.7-0.4c0.1-0.1,0.2-0.2,0.3-0.3h-0.1V47
							L71.1,47z"/>
						<path class="st7" d="M71.1,47v-3.3h0.1c-0.1-0.1-0.2-0.2-0.3-0.3c-0.2-0.2-0.5-0.3-0.7-0.4c-0.5-0.2-1.1-0.3-1.7-0.3
							s-1.1,0.1-1.7,0.3c-0.3,0.1-0.5,0.2-0.7,0.4c-0.1,0.1-0.2,0.2-0.3,0.3l0,0v6.6l0,0c0.1,0.1,0.2,0.2,0.3,0.3
							c0.2,0.2,0.5,0.3,0.7,0.4c0.5,0.2,1.1,0.3,1.7,0.3s1.1-0.1,1.7-0.3c0.3-0.1,0.5-0.2,0.7-0.4c0.1-0.1,0.2-0.2,0.3-0.3h-0.1V47
							L71.1,47z"/>
						<path class="st8" d="M71.1,47v-3.3h0.1c-0.1-0.1-0.2-0.2-0.3-0.3c-0.2-0.2-0.5-0.3-0.7-0.4c-0.5-0.2-1.1-0.3-1.6-0.3
							S67.5,42.8,67,43c-0.3,0.1-0.5,0.2-0.7,0.4c-0.1,0.1-0.2,0.2-0.3,0.3c-0.1,0-0.1,0.1-0.2,0.1H66v6.3h-0.2c0,0,0.1,0.1,0.2,0.1
							c0.1,0.1,0.2,0.2,0.3,0.3c0.2,0.2,0.5,0.3,0.7,0.4c0.5,0.2,1.1,0.3,1.6,0.3s1.1-0.1,1.6-0.3c0.3-0.1,0.5-0.2,0.7-0.4
							c0.1-0.1,0.2-0.2,0.3-0.3h-0.1C71.1,50.3,71.1,47,71.1,47z"/>
						<path class="st9" d="M71.1,47v-3.3h0.1c-0.1-0.1-0.2-0.2-0.3-0.3c-0.2-0.2-0.5-0.3-0.7-0.4c-0.5-0.2-1.1-0.3-1.6-0.3
							S67.5,42.8,67,43c-0.3,0.1-0.5,0.2-0.7,0.4c-0.1,0.1-0.2,0.2-0.3,0.3c-0.1,0-0.1,0.1-0.2,0.1h0.1V50h-0.1c0,0,0.1,0.1,0.2,0.1
							c0.1,0.1,0.2,0.2,0.3,0.3c0.2,0.2,0.5,0.3,0.7,0.4c0.5,0.2,1.1,0.3,1.6,0.3s1.1-0.1,1.6-0.3c0.3-0.1,0.5-0.2,0.7-0.4
							c0.1-0.1,0.2-0.2,0.3-0.3h-0.1C71.1,50.3,71.1,47,71.1,47z"/>
						<path class="st10" d="M71.1,47v-3.2h0.1c-0.1-0.1-0.2-0.2-0.3-0.2c-0.2-0.2-0.5-0.3-0.7-0.4c-0.5-0.2-1-0.3-1.6-0.3
							S67.5,43,67,43.2c-0.3,0.1-0.5,0.2-0.7,0.4c-0.1,0.1-0.2,0.2-0.3,0.2c-0.1,0-0.1,0.1-0.2,0.1h0.1v6.2h-0.1
							c0,0,0.1,0.1,0.2,0.1c0.1,0.1,0.2,0.2,0.3,0.2c0.2,0.2,0.5,0.3,0.7,0.4c0.5,0.2,1,0.3,1.6,0.3s1.1-0.1,1.6-0.3
							c0.3-0.1,0.5-0.2,0.7-0.4c0.1-0.1,0.2-0.2,0.3-0.2h-0.1V47z"/>
						<path class="st11" d="M71.1,47v-3.2h0.1c-0.1-0.1-0.2-0.2-0.3-0.2c-0.2-0.2-0.5-0.3-0.7-0.4c-0.5-0.2-1-0.3-1.6-0.3
							c-1.1,0-2.2,0.5-3,1.2h0.3V50h-0.3c0.8,0.8,1.8,1.2,3,1.2c0.6,0,1.1-0.1,1.6-0.3c0.3-0.1,0.5-0.2,0.7-0.4
							c0.1-0.1,0.2-0.2,0.3-0.2h-0.1C71.1,50.2,71.1,47,71.1,47z"/>
						<path class="st12" d="M71.1,47v-3.2h0.1c-0.1-0.1-0.2-0.2-0.3-0.2c-0.2-0.2-0.5-0.3-0.7-0.4c-0.5-0.2-1-0.3-1.6-0.3
							c-1.1,0-2.2,0.5-2.9,1.2h0.2V50h-0.2c0.8,0.8,1.8,1.2,2.9,1.2c0.6,0,1.1-0.1,1.6-0.3c0.3-0.1,0.5-0.2,0.7-0.4
							c0.1-0.1,0.2-0.2,0.3-0.2h-0.1V47L71.1,47z"/>
						<path class="st13" d="M71.1,47v-3.2l0,0c-0.1-0.1-0.2-0.2-0.3-0.2c-0.2-0.2-0.4-0.3-0.7-0.4c-0.5-0.2-1-0.3-1.6-0.3
							c-1.1,0-2.2,0.5-2.9,1.2h0.2v5.8h-0.2c0.8,0.8,1.8,1.2,2.9,1.2c0.6,0,1.1-0.1,1.6-0.3c0.3-0.1,0.5-0.2,0.7-0.4
							c0.1-0.1,0.2-0.2,0.3-0.2l0,0V47L71.1,47z"/>
						<path class="st14" d="M71.1,47v-3.2l0,0c-0.1-0.1-0.2-0.2-0.3-0.2c-0.2-0.2-0.4-0.3-0.7-0.4c-0.5-0.2-1-0.3-1.6-0.3
							c-1.1,0-2.2,0.5-2.9,1.2h0.2v5.8h-0.2c0.7,0.7,1.8,1.2,2.9,1.2c0.6,0,1.1-0.1,1.6-0.3c0.3-0.1,0.5-0.2,0.7-0.4
							c0.1-0.1,0.2-0.2,0.3-0.2l0,0V47L71.1,47z"/>
						<path class="st15" d="M71.1,47v-3.2l0,0c-0.1-0.1-0.2-0.2-0.3-0.2c-0.2-0.2-0.4-0.3-0.7-0.4c-0.5-0.2-1-0.3-1.6-0.3
							c-1.1,0-2.2,0.5-2.9,1.2h0.2v5.8h-0.2c0.7,0.7,1.8,1.2,2.9,1.2c0.6,0,1.1-0.1,1.6-0.3c0.3-0.1,0.5-0.2,0.7-0.4
							c0.1-0.1,0.2-0.2,0.3-0.2l0,0V47z"/>
						<path class="st16" d="M71.1,47v-3h0.1c0,0-0.1-0.1-0.2-0.1c-0.1-0.1-0.2-0.2-0.3-0.2c-0.2-0.2-0.4-0.3-0.7-0.4
							c-0.5-0.2-1-0.3-1.6-0.3c-1.1,0-2.1,0.4-2.9,1.2h0.2V50h-0.2c0.7,0.7,1.7,1.2,2.9,1.2c0.6,0,1.1-0.1,1.6-0.3
							c0.3-0.1,0.5-0.2,0.7-0.4c0.1-0.1,0.2-0.2,0.3-0.2c0.1,0,0.1-0.1,0.2-0.1h-0.1V47L71.1,47z"/>
						<path class="st17" d="M71.1,47v-3h0.1c0,0-0.1-0.1-0.2-0.1c-0.1-0.1-0.2-0.2-0.3-0.2c-0.2-0.1-0.4-0.3-0.7-0.4
							c-0.5-0.2-1-0.3-1.6-0.3c-1.1,0-2.1,0.4-2.9,1.2h0.2v5.7h-0.2c0.7,0.7,1.7,1.2,2.9,1.2c0.6,0,1.1-0.1,1.6-0.3
							c0.2-0.1,0.5-0.2,0.7-0.4c0.1-0.1,0.2-0.2,0.3-0.2c0.1,0,0.1-0.1,0.2-0.1h-0.1V47L71.1,47z"/>
						<path class="st18" d="M71.1,47v-2.9h0.3c-0.7-0.7-1.7-1.2-2.9-1.2s-2.1,0.4-2.9,1.2h0.1v5.7h-0.1c0.7,0.7,1.7,1.2,2.9,1.2
							s2.1-0.4,2.9-1.2h-0.3V47L71.1,47z"/>
						<path class="st19" d="M71.1,47v-2.8h0.2c-0.7-0.7-1.7-1.2-2.8-1.2s-2.1,0.4-2.8,1.2h0.1v5.7h-0.1c0.7,0.7,1.7,1.2,2.8,1.2
							s2.1-0.4,2.8-1.2h-0.2C71.1,49.8,71.1,47,71.1,47z"/>
						<path class="st20" d="M71.1,47v-2.8h0.2c-0.7-0.7-1.7-1.2-2.8-1.2s-2.1,0.4-2.8,1.2h0.1v5.6h-0.1c0.7,0.7,1.7,1.2,2.8,1.2
							s2.1-0.4,2.8-1.2h-0.2V47z"/>
						<path class="st21" d="M71.1,47v-2.8h0.2c-0.7-0.7-1.7-1.2-2.8-1.2c-1.1,0-2.1,0.4-2.8,1.2h0.1v5.6h-0.1
							c0.7,0.7,1.7,1.2,2.8,1.2c1.1,0,2.1-0.4,2.8-1.2h-0.2V47L71.1,47z"/>
						<path class="st22" d="M71.1,47v-2.8h0.2c-0.7-0.7-1.7-1.1-2.8-1.1c-1.1,0-2.1,0.4-2.8,1.1h0.1v5.6h-0.1
							c0.7,0.7,1.7,1.1,2.8,1.1c1.1,0,2.1-0.4,2.8-1.1h-0.2V47L71.1,47z"/>
						<path class="st23" d="M71.1,47v-2.8h0.2c-0.7-0.7-1.7-1.1-2.8-1.1s-2.1,0.4-2.8,1.1h0.1v5.6h-0.1c0.7,0.7,1.7,1.1,2.8,1.1
							s2.1-0.4,2.8-1.1h-0.2V47z"/>
						<path class="st24" d="M71.1,47v-2.8h0.2c-0.7-0.7-1.7-1.1-2.8-1.1s-2.1,0.4-2.8,1.1h0.1v5.5h-0.1c0.7,0.7,1.7,1.1,2.8,1.1
							s2.1-0.4,2.8-1.1h-0.2V47z"/>
						<path class="st25" d="M71.1,47v-2.7h0.2c-0.7-0.7-1.7-1.1-2.7-1.1s-2,0.4-2.7,1.1l0,0v5.5l0,0c0.7,0.7,1.7,1.1,2.7,1.1
							s2-0.4,2.7-1.1h-0.2V47L71.1,47z"/>
						<path class="st26" d="M71.1,47v-2.7h0.1c-0.7-0.7-1.7-1.1-2.7-1.1s-2,0.4-2.7,1.1l0,0v5.5l0,0c0.7,0.7,1.7,1.1,2.7,1.1
							s2-0.4,2.7-1.1h-0.1V47L71.1,47z"/>
						<path class="st27" d="M71.1,47v-2.7h0.1c-0.7-0.7-1.6-1.1-2.7-1.1s-2,0.4-2.7,1.1l0,0v5.4l0,0c0.7,0.7,1.6,1.1,2.7,1.1
							s2-0.4,2.7-1.1h-0.1V47L71.1,47z"/>
						<path class="st28" d="M71.1,47v-2.7h0.1c-0.7-0.7-1.6-1.1-2.7-1.1s-2,0.4-2.7,1.1c-0.1,0.1-0.2,0.2-0.3,0.3h0.2v4.9h-0.2
							c0,0,0.2,0.2,0.3,0.3c0.7,0.7,1.6,1.1,2.7,1.1s2-0.4,2.7-1.1h-0.1V47z"/>
						<path class="st29" d="M71.1,47v-2.7h0.1c-0.7-0.7-1.6-1.1-2.7-1.1c-1,0-2,0.4-2.7,1.1c-0.1,0.1-0.2,0.2-0.3,0.3h0.2v4.8h-0.2
							c0,0,0.2,0.2,0.3,0.3c0.7,0.7,1.6,1.1,2.7,1.1c1,0,2-0.4,2.7-1.1h-0.1V47z"/>
						<path class="st30" d="M71.1,47v-2.7h0.1c-0.7-0.7-1.6-1.1-2.7-1.1s-2,0.4-2.7,1.1c-0.1,0.1-0.2,0.2-0.3,0.3h0.2v4.8h-0.2
							c0,0,0.2,0.2,0.3,0.3c0.7,0.7,1.6,1.1,2.7,1.1s2-0.4,2.7-1.1h-0.1V47L71.1,47z"/>
						<path class="st31" d="M71.1,47v-2.7h0.1c-0.7-0.7-1.6-1.1-2.7-1.1s-2,0.4-2.7,1.1c-0.1,0.1-0.2,0.2-0.2,0.3h0.2v4.8h-0.2
							c0,0,0.2,0.2,0.2,0.3c0.7,0.7,1.6,1.1,2.7,1.1s2-0.4,2.7-1.1h-0.1V47z"/>
						<path class="st32" d="M71.1,47v-2.6l0,0c-0.7-0.7-1.6-1.1-2.6-1.1s-2,0.4-2.6,1.1c-0.1,0.1-0.2,0.2-0.2,0.3h0.2v4.7h-0.2
							c0,0,0.2,0.2,0.2,0.3c0.7,0.7,1.6,1.1,2.6,1.1s2-0.4,2.6-1.1l0,0V47z"/>
						<path class="st33" d="M71.1,47v-2.6l0,0c-0.7-0.7-1.6-1.1-2.6-1.1s-1.9,0.4-2.6,1.1c-0.1,0.1-0.2,0.2-0.2,0.3h0.2v4.7h-0.2
							c0,0,0.2,0.2,0.2,0.3c0.7,0.7,1.6,1.1,2.6,1.1s1.9-0.4,2.6-1.1l0,0V47L71.1,47z"/>
						<path class="st34" d="M71.1,47v-2.6l0,0c-0.7-0.7-1.6-1.1-2.6-1.1s-1.9,0.4-2.6,1.1c-0.1,0.1-0.2,0.2-0.2,0.3h0.1v4.7h-0.1
							c0,0,0.2,0.2,0.2,0.3c0.7,0.7,1.6,1.1,2.6,1.1s1.9-0.4,2.6-1.1l0,0V47L71.1,47z"/>
						<path class="st35" d="M71.1,47v-2.3h0.2c0,0-0.2-0.2-0.2-0.3c-0.7-0.7-1.6-1.1-2.6-1.1s-1.9,0.4-2.6,1.1
							c-0.1,0.1-0.2,0.2-0.2,0.3h0.1v4.7h-0.1c0,0,0.2,0.2,0.2,0.3c0.7,0.7,1.6,1.1,2.6,1.1s1.9-0.4,2.6-1.1
							c0.1-0.1,0.2-0.2,0.2-0.3h-0.2V47z"/>
						<path class="st36" d="M71.1,47v-2.3h0.2c0,0-0.2-0.2-0.2-0.3c-0.7-0.7-1.6-1.1-2.6-1.1s-1.9,0.4-2.6,1.1
							c-0.1,0.1-0.2,0.2-0.2,0.3h0.1v4.6h-0.1c0,0,0.2,0.2,0.2,0.3c0.7,0.7,1.6,1.1,2.6,1.1s1.9-0.4,2.6-1.1
							c0.1-0.1,0.2-0.2,0.2-0.3h-0.2V47L71.1,47z"/>
						<path class="st37" d="M71.1,47v-2.3h0.2c0,0-0.2-0.2-0.2-0.3c-0.7-0.7-1.6-1.1-2.6-1.1s-1.9,0.4-2.6,1.1
							c-0.1,0.1-0.2,0.2-0.2,0.3h0.1v4.6h-0.1c0,0,0.2,0.2,0.2,0.3c0.7,0.7,1.6,1.1,2.6,1.1s1.9-0.4,2.6-1.1
							c0.1-0.1,0.2-0.2,0.2-0.3h-0.2V47L71.1,47z"/>
						<path class="st38" d="M71.1,47v-2.3h0.2c0,0-0.2-0.2-0.2-0.3c-0.7-0.7-1.6-1-2.5-1s-1.9,0.4-2.5,1c-0.1,0.1-0.2,0.2-0.2,0.3
							H66v4.6h-0.1c0,0,0.2,0.2,0.2,0.3c0.7,0.7,1.6,1,2.5,1s1.9-0.4,2.5-1c0.1-0.1,0.2-0.2,0.2-0.3h-0.2V47z"/>
						<path class="st39" d="M71.1,47v-2.3h0.2c0,0-0.2-0.2-0.2-0.3c-0.6-0.6-1.5-1-2.5-1s-1.9,0.4-2.5,1c-0.1,0.1-0.2,0.2-0.2,0.3
							H66v4.5h-0.1c0,0,0.2,0.2,0.2,0.3c0.6,0.6,1.5,1,2.5,1s1.9-0.4,2.5-1c0.1-0.1,0.2-0.2,0.2-0.3h-0.2V47z"/>
						<path class="st40" d="M71.1,47v-2.3h0.2c0,0-0.2-0.2-0.2-0.3c-0.6-0.6-1.5-1-2.5-1s-1.9,0.4-2.5,1c-0.2,0.2-0.3,0.3-0.4,0.5
							H66v4h-0.3c0.1,0.2,0.3,0.4,0.4,0.5c0.6,0.6,1.5,1,2.5,1s1.9-0.4,2.5-1c0.1-0.1,0.2-0.2,0.2-0.3h-0.2V47L71.1,47z"/>
						<path class="st41" d="M71.1,47v-2.3h0.1c0,0-0.2-0.2-0.2-0.3c-0.6-0.6-1.5-1-2.5-1s-1.9,0.4-2.5,1c-0.2,0.2-0.3,0.3-0.4,0.5
							h0.2v4h-0.2c0.1,0.2,0.3,0.4,0.4,0.5c0.6,0.6,1.5,1,2.5,1s1.9-0.4,2.5-1c0.1-0.1,0.2-0.2,0.2-0.3h-0.1
							C71.1,49.2,71.1,47,71.1,47z"/>
						<path class="st42" d="M71.1,47v-2.2h0.1c0,0-0.2-0.2-0.2-0.3c-0.6-0.6-1.5-1-2.5-1s-1.8,0.4-2.5,1c-0.2,0.2-0.3,0.3-0.4,0.5
							h0.2v4h-0.2c0.1,0.2,0.3,0.4,0.4,0.5c0.6,0.6,1.5,1,2.5,1s1.8-0.4,2.5-1c0.1-0.1,0.2-0.2,0.2-0.3h-0.1V47z"/>
						<path class="st43" d="M71.1,47v-2.2h0.1c0,0-0.2-0.2-0.2-0.3c-0.6-0.6-1.5-1-2.5-1s-1.8,0.4-2.5,1c-0.2,0.2-0.3,0.3-0.4,0.5
							h0.2v4h-0.2c0.1,0.2,0.3,0.3,0.4,0.5c0.6,0.6,1.5,1,2.5,1s1.8-0.4,2.5-1c0.1-0.1,0.2-0.2,0.2-0.3h-0.1V47L71.1,47z"/>
						<path class="st44" d="M71.1,47v-2.2h0.1c0,0-0.1-0.2-0.2-0.3c-0.6-0.6-1.5-1-2.4-1s-1.8,0.4-2.4,1c-0.2,0.2-0.3,0.3-0.4,0.5
							H66v3.9h-0.2c0.1,0.2,0.3,0.3,0.4,0.5c0.6,0.6,1.5,1,2.4,1s1.8-0.4,2.4-1c0.1-0.1,0.2-0.2,0.2-0.3h-0.1V47L71.1,47z"/>
						<path class="st45" d="M71.1,47v-2.2h0.1c0,0-0.1-0.2-0.2-0.3c-0.6-0.6-1.5-1-2.4-1s-1.8,0.4-2.4,1c-0.2,0.2-0.3,0.3-0.4,0.5
							H66v3.9h-0.2c0.1,0.2,0.3,0.3,0.4,0.5c0.6,0.6,1.5,1,2.4,1s1.8-0.4,2.4-1c0.1-0.1,0.2-0.2,0.2-0.3h-0.1V47L71.1,47z"/>
						<path class="st46" d="M71.1,47v-1.9h0.3c-0.1-0.2-0.3-0.3-0.4-0.5c-0.6-0.6-1.5-1-2.4-1s-1.8,0.4-2.4,1
							c-0.2,0.2-0.3,0.3-0.4,0.5h0.1v3.8h-0.1c0.1,0.2,0.3,0.3,0.4,0.5c0.6,0.6,1.5,1,2.4,1s1.8-0.4,2.4-1c0.2-0.2,0.3-0.3,0.4-0.5
							h-0.3V47L71.1,47z"/>
						<path class="st47" d="M71.1,47v-1.9h0.2c-0.1-0.2-0.3-0.3-0.4-0.5c-0.6-0.6-1.5-1-2.4-1s-1.8,0.4-2.4,1
							c-0.2,0.2-0.3,0.3-0.4,0.5h0.1v3.8h-0.1c0.1,0.2,0.3,0.3,0.4,0.5c0.6,0.6,1.5,1,2.4,1s1.8-0.4,2.4-1c0.2-0.2,0.3-0.3,0.4-0.5
							h-0.2C71.1,48.9,71.1,47,71.1,47z"/>
						<path class="st48" d="M71.1,47v-1.9h0.2c-0.1-0.2-0.3-0.3-0.4-0.5c-0.6-0.6-1.5-1-2.4-1s-1.8,0.4-2.4,1
							c-0.2,0.2-0.3,0.3-0.4,0.5h0.1v3.8h-0.1c0.1,0.2,0.3,0.3,0.4,0.5c0.6,0.6,1.5,1,2.4,1s1.8-0.4,2.4-1c0.2-0.2,0.3-0.3,0.4-0.5
							h-0.2V47L71.1,47z"/>
						<path class="st49" d="M71.1,47v-1.9h0.2c-0.1-0.2-0.3-0.3-0.4-0.5c-0.6-0.6-1.5-1-2.4-1s-1.8,0.4-2.4,1
							c-0.2,0.2-0.3,0.3-0.4,0.5h0.1v3.8h-0.1c0.1,0.2,0.3,0.3,0.4,0.5c0.6,0.6,1.5,1,2.4,1s1.8-0.4,2.4-1c0.2-0.2,0.3-0.3,0.4-0.5
							h-0.2V47z"/>
						<path class="st50" d="M71.1,47v-1.9h0.2c-0.1-0.2-0.3-0.3-0.4-0.5c-0.6-0.6-1.4-1-2.4-1c-0.9,0-1.8,0.4-2.4,1
							c-0.2,0.2-0.3,0.3-0.4,0.5h0.1v3.7h-0.1c0.1,0.2,0.3,0.3,0.4,0.5c0.6,0.6,1.4,1,2.4,1c0.9,0,1.8-0.4,2.4-1
							c0.2-0.2,0.3-0.3,0.4-0.5h-0.2V47z"/>
						<path class="st51" d="M71.1,47v-1.9h0.2c-0.1-0.2-0.3-0.3-0.4-0.5c-0.6-0.6-1.4-1-2.3-1s-1.7,0.4-2.3,1
							c-0.2,0.2-0.3,0.3-0.4,0.5l0,0v3.7l0,0c0.1,0.2,0.3,0.3,0.4,0.5c0.6,0.6,1.4,1,2.3,1s1.7-0.4,2.3-1c0.2-0.2,0.3-0.3,0.4-0.5
							h-0.2V47L71.1,47z"/>
						<path class="st52" d="M71.1,47v-1.8h0.1c-0.1-0.2-0.3-0.3-0.4-0.5c-0.6-0.6-1.4-1-2.3-1s-1.7,0.4-2.3,1
							c-0.2,0.2-0.3,0.3-0.4,0.5l0,0v3.7l0,0c0.1,0.2,0.3,0.3,0.4,0.5c0.6,0.6,1.4,1,2.3,1s1.7-0.4,2.3-1c0.2-0.2,0.3-0.3,0.4-0.5
							h-0.1V47z"/>
						<path class="st53" d="M71.1,47v-1.8h0.1c-0.1-0.2-0.3-0.3-0.4-0.5c-0.6-0.6-1.4-1-2.3-1s-1.7,0.4-2.3,1
							c-0.2,0.2-0.3,0.3-0.4,0.5l0,0v3.7l0,0c0.1,0.2,0.3,0.3,0.4,0.5c0.6,0.6,1.4,1,2.3,1s1.7-0.4,2.3-1c0.2-0.2,0.3-0.3,0.4-0.5
							h-0.1V47L71.1,47z"/>
						<path class="st54" d="M71.1,47v-1.8h0.1c-0.1-0.2-0.3-0.3-0.4-0.5c-0.6-0.6-1.4-1-2.3-1s-1.7,0.4-2.3,1
							c-0.2,0.2-0.3,0.3-0.4,0.5c-0.1,0.1-0.1,0.2-0.2,0.3h0.2v3.1h-0.2c0,0,0.1,0.2,0.2,0.3c0.1,0.2,0.3,0.3,0.4,0.5
							c0.6,0.6,1.4,1,2.3,1s1.7-0.4,2.3-1c0.2-0.2,0.3-0.3,0.4-0.5h-0.1V47z"/>
						<path class="st55" d="M71.1,47v-1.8h0.1c-0.1-0.2-0.3-0.3-0.4-0.5c-0.6-0.6-1.4-1-2.3-1s-1.7,0.4-2.3,1
							c-0.2,0.2-0.3,0.3-0.4,0.5c-0.1,0.1-0.1,0.2-0.2,0.3h0.1v3.1h-0.1c0,0,0.1,0.2,0.2,0.3c0.1,0.2,0.3,0.3,0.4,0.5
							c0.6,0.6,1.4,1,2.3,1s1.7-0.4,2.3-1c0.2-0.2,0.3-0.3,0.4-0.5h-0.1V47L71.1,47z"/>
						<path class="st56" d="M71.1,47v-1.8h0.1c-0.1-0.2-0.3-0.3-0.4-0.5c-0.6-0.6-1.4-0.9-2.3-0.9s-1.7,0.4-2.3,0.9
							c-0.3,0.3-0.5,0.6-0.7,1h0.3v2.5h-0.3c0.2,0.4,0.4,0.7,0.7,1c0.6,0.6,1.4,0.9,2.3,0.9s1.7-0.4,2.3-0.9
							c0.1-0.1,0.3-0.3,0.4-0.5h-0.1V47L71.1,47z"/>
						<path class="st57" d="M71.1,47v-1.8l0,0c-0.1-0.2-0.3-0.3-0.4-0.5c-0.6-0.6-1.4-0.9-2.3-0.9s-1.7,0.3-2.3,0.9
							c-0.3,0.3-0.5,0.6-0.7,1h0.2v2.5h-0.2c0.2,0.4,0.4,0.7,0.7,1c0.6,0.6,1.4,0.9,2.3,0.9s1.7-0.3,2.3-0.9
							c0.1-0.1,0.3-0.3,0.4-0.5l0,0C71.1,48.8,71.1,47,71.1,47z"/>
						<path class="st58" d="M71.1,47v-1.8l0,0c-0.1-0.2-0.3-0.3-0.4-0.5c-0.6-0.6-1.4-0.9-2.2-0.9c-0.9,0-1.7,0.3-2.2,0.9
							c-0.3,0.3-0.5,0.6-0.7,1h0.2v2.5h-0.2c0.2,0.4,0.4,0.7,0.7,1c0.6,0.6,1.4,0.9,2.2,0.9c0.9,0,1.7-0.3,2.2-0.9
							c0.1-0.1,0.3-0.3,0.4-0.5l0,0V47L71.1,47z"/>
						<path class="st59" d="M71.1,47v-1.8l0,0c-0.1-0.2-0.2-0.3-0.4-0.5c-0.6-0.6-1.4-0.9-2.2-0.9s-1.6,0.3-2.2,0.9
							c-0.3,0.3-0.5,0.6-0.7,1h0.2v2.4h-0.2c0.2,0.4,0.4,0.7,0.7,1c0.6,0.6,1.4,0.9,2.2,0.9s1.6-0.3,2.2-0.9
							c0.1-0.1,0.3-0.3,0.4-0.5l0,0C71.1,48.8,71.1,47,71.1,47z"/>
						<path class="st60" d="M71.1,47v-1.5h0.2c0,0-0.1-0.2-0.2-0.3c-0.1-0.2-0.2-0.3-0.4-0.5c-0.6-0.6-1.3-0.9-2.2-0.9
							s-1.6,0.3-2.2,0.9c-0.3,0.3-0.5,0.6-0.7,1h0.2v2.4h-0.2c0.2,0.4,0.4,0.7,0.7,1c0.6,0.6,1.3,0.9,2.2,0.9s1.6-0.3,2.2-0.9
							c0.1-0.1,0.3-0.3,0.4-0.5c0.1-0.1,0.1-0.2,0.2-0.3h-0.2V47L71.1,47z"/>
						<path class="st61" d="M71.1,47v-1.5h0.1c0,0-0.1-0.2-0.2-0.3c-0.1-0.2-0.2-0.3-0.4-0.5c-0.6-0.6-1.3-0.9-2.2-0.9
							s-1.6,0.3-2.2,0.9c-0.3,0.3-0.5,0.6-0.7,1h0.2v2.4h-0.2c0.2,0.4,0.4,0.7,0.7,1c0.6,0.6,1.3,0.9,2.2,0.9s1.6-0.3,2.2-0.9
							c0.1-0.1,0.3-0.3,0.4-0.5c0.1-0.1,0.1-0.2,0.2-0.3h-0.1V47z"/>
						<path class="st62" d="M71.1,47v-1.2h0.2c-0.2-0.4-0.4-0.7-0.7-1c-0.6-0.6-1.3-0.9-2.2-0.9s-1.6,0.3-2.2,0.9
							c-0.3,0.3-0.5,0.6-0.7,1h0.1v2.4h-0.1c0.2,0.4,0.4,0.7,0.7,1c0.6,0.6,1.3,0.9,2.2,0.9s1.6-0.3,2.2-0.9c0.3-0.3,0.5-0.6,0.7-1
							h-0.2V47z"/>
						<path class="st63" d="M71.1,47v-1.2h0.2c-0.2-0.4-0.4-0.7-0.7-1c-0.6-0.6-1.3-0.9-2.2-0.9c-0.8,0-1.6,0.3-2.2,0.9
							c-0.3,0.3-0.5,0.6-0.7,1h0.1v2.4h-0.1c0.2,0.4,0.4,0.7,0.7,1c0.6,0.6,1.3,0.9,2.2,0.9c0.8,0,1.6-0.3,2.2-0.9
							c0.3-0.3,0.5-0.6,0.7-1h-0.2V47L71.1,47z"/>
						<path class="st64" d="M71.1,47v-1.2h0.2c-0.2-0.4-0.4-0.7-0.7-1c-0.5-0.5-1.3-0.9-2.2-0.9s-1.6,0.3-2.2,0.9
							c-0.3,0.3-0.5,0.6-0.7,1h0.1v2.4h-0.1c0.2,0.4,0.4,0.7,0.7,1c0.5,0.5,1.3,0.9,2.2,0.9s1.6-0.3,2.2-0.9c0.3-0.3,0.5-0.6,0.7-1
							h-0.2V47z"/>
						<path class="st65" d="M71.1,47v-1.2h0.2c-0.2-0.4-0.4-0.7-0.6-1c-0.5-0.5-1.3-0.9-2.1-0.9c-0.8,0-1.6,0.3-2.1,0.9
							c-0.3,0.3-0.5,0.6-0.6,1H66v2.3h-0.1c0.2,0.4,0.4,0.7,0.6,1c0.5,0.5,1.3,0.9,2.1,0.9c0.8,0,1.6-0.3,2.1-0.9
							c0.3-0.3,0.5-0.6,0.6-1h-0.2V47L71.1,47z"/>
						<path class="st66" d="M71.1,47v-1.2h0.2c-0.2-0.3-0.4-0.7-0.6-1C70,44.3,69.3,44,68.5,44s-1.6,0.3-2.1,0.9
							c-0.3,0.3-0.5,0.6-0.6,1h0.1v2.3h-0.1c0.2,0.3,0.4,0.7,0.6,1c0.5,0.5,1.3,0.9,2.1,0.9c0.8,0,1.6-0.3,2.1-0.9
							c0.3-0.3,0.5-0.6,0.6-1H71L71.1,47L71.1,47z"/>
						<path class="st67" d="M71.1,47v-1.2h0.1c-0.2-0.3-0.4-0.7-0.6-1C70,44.3,69.3,44,68.5,44s-1.6,0.3-2.1,0.9
							c-0.3,0.3-0.5,0.6-0.6,1l0,0v2.3l0,0c0.2,0.3,0.4,0.7,0.6,1c0.5,0.5,1.3,0.9,2.1,0.9c0.8,0,1.6-0.3,2.1-0.9
							c0.3-0.3,0.5-0.6,0.6-1h-0.1V47L71.1,47z"/>
						<path class="st68" d="M71.1,47v-1.1h0.1c-0.2-0.3-0.4-0.7-0.6-0.9c-0.6-0.6-1.3-1-2.2-1c-1.6,0-3,1.3-3,3c0,1.6,1.3,3,3,3
							c0.8,0,1.6-0.3,2.1-0.9c0.3-0.3,0.5-0.6,0.6-0.9H71L71.1,47L71.1,47z"/>
						<path class="st69" d="M71.1,47v-1.1h0.1c-0.2-0.3-0.4-0.7-0.6-0.9c-0.5-0.5-1.3-0.9-2.1-0.9c-1.6,0-2.9,1.3-2.9,2.9
							s1.3,2.9,2.9,2.9c0.8,0,1.5-0.3,2.1-0.9c0.3-0.3,0.5-0.6,0.6-0.9h-0.1V47z"/>
						<path class="st70" d="M71.1,47v-1.1h0.1c-0.2-0.3-0.4-0.7-0.6-0.9c-0.5-0.5-1.3-0.9-2.1-0.9c-1.6,0-2.9,1.3-2.9,2.9
							s1.3,2.9,2.9,2.9c0.8,0,1.5-0.3,2.1-0.9c0.3-0.3,0.5-0.6,0.6-0.9h-0.1V47z"/>
						<path class="st71" d="M71.1,47v-1.1h0.1c-0.2-0.3-0.3-0.7-0.6-0.9c-0.5-0.5-1.2-0.9-2-0.9c-1.6,0-2.9,1.3-2.9,2.9
							c0,1.6,1.3,2.9,2.9,2.9c0.8,0,1.5-0.3,2-0.9c0.3-0.3,0.5-0.6,0.6-0.9h-0.1V47z"/>
						<path class="st72" d="M71.1,47v-1.1l0,0c-0.1-0.3-0.3-0.7-0.6-0.9c-0.5-0.5-1.2-0.8-2-0.8c-1.6,0-2.9,1.3-2.9,2.9
							c0,1.6,1.3,2.9,2.9,2.9c0.8,0,1.5-0.3,2-0.8c0.3-0.3,0.5-0.6,0.6-0.9l0,0V47L71.1,47z"/>
						<circle class="st73" cx="68.5" cy="47" r="2.8"/>
						<circle class="st74" cx="68.5" cy="47" r="2.8"/>
						<circle class="st75" cx="68.5" cy="47" r="2.8"/>
						<circle class="st76" cx="68.5" cy="47" r="2.8"/>
						<circle class="st77" cx="68.5" cy="47" r="2.8"/>
						<circle class="st78" cx="68.5" cy="47" r="2.7"/>
						<circle class="st79" cx="68.5" cy="47" r="2.7"/>
						<circle class="st80" cx="68.5" cy="47" r="2.7"/>
						<circle class="st81" cx="68.5" cy="47" r="2.7"/>
						<circle class="st82" cx="68.5" cy="47" r="2.7"/>
						<circle class="st83" cx="68.5" cy="47" r="2.6"/>
						<circle class="st84" cx="68.5" cy="47" r="2.6"/>
						<circle class="st85" cx="68.5" cy="47" r="2.6"/>
						<circle class="st86" cx="68.5" cy="47" r="2.6"/>
						<circle class="st87" cx="68.5" cy="47" r="2.5"/>
						<circle class="st88" cx="68.5" cy="47" r="2.5"/>
						<circle class="st89" cx="68.5" cy="47" r="2.5"/>
						<circle class="st90" cx="68.5" cy="47" r="2.5"/>
						<circle class="st91" cx="68.5" cy="47" r="2.5"/>
						<circle class="st92" cx="68.5" cy="47" r="2.4"/>
						<circle class="st93" cx="68.5" cy="47" r="2.4"/>
						<circle class="st94" cx="68.5" cy="47" r="2.4"/>
						<circle class="st95" cx="68.5" cy="47" r="2.4"/>
						<circle class="st96" cx="68.5" cy="47" r="2.3"/>
						<circle class="st97" cx="68.5" cy="47" r="2.3"/>
						<circle class="st98" cx="68.5" cy="47" r="2.3"/>
						<circle class="st99" cx="68.5" cy="47" r="2.3"/>
						<circle class="st100" cx="68.5" cy="47" r="2.3"/>
						<circle class="st101" cx="68.5" cy="47" r="2.2"/>
						<circle class="st102" cx="68.5" cy="47" r="2.2"/>
						<circle class="st103" cx="68.5" cy="47" r="2.2"/>
						<circle class="st104" cx="68.5" cy="47" r="2.2"/>
						<circle class="st105" cx="68.5" cy="47" r="2.2"/>
						<circle class="st106" cx="68.5" cy="47" r="2.1"/>
						<circle class="st107" cx="68.5" cy="47" r="2.1"/>
						<circle class="st108" cx="68.5" cy="47" r="2.1"/>
						<circle class="st109" cx="68.5" cy="47" r="2.1"/>
						<circle class="st110" cx="68.5" cy="47" r="2"/>
						<circle class="st111" cx="68.5" cy="47" r="2"/>
						<circle class="st112" cx="68.5" cy="47" r="2"/>
						<circle class="st113" cx="68.5" cy="47" r="2"/>
						<circle class="st114" cx="68.5" cy="47" r="2"/>
						<circle class="st115" cx="68.5" cy="47" r="1.9"/>
						<circle class="st116" cx="68.5" cy="47" r="1.9"/>
						<circle class="st117" cx="68.5" cy="47" r="1.9"/>
						<circle class="st118" cx="68.5" cy="47" r="1.9"/>
						<circle class="st119" cx="68.5" cy="47" r="1.8"/>
						<circle class="st120" cx="68.5" cy="47" r="1.8"/>
						<circle class="st121" cx="68.5" cy="47" r="1.8"/>
						<circle class="st122" cx="68.5" cy="47" r="1.8"/>
						<circle class="st123" cx="68.5" cy="47" r="1.8"/>
						<circle class="st124" cx="68.5" cy="47" r="1.7"/>
						<circle class="st125" cx="68.5" cy="47" r="1.7"/>
						<circle class="st126" cx="68.5" cy="47" r="1.7"/>
						<circle class="st127" cx="68.5" cy="47" r="1.7"/>
						<circle class="st128" cx="68.5" cy="47" r="1.6"/>
						<circle class="st129" cx="68.5" cy="47" r="1.6"/>
						<circle class="st130" cx="68.5" cy="47" r="1.6"/>
						<circle class="st131" cx="68.5" cy="47" r="1.6"/>
						<circle class="st132" cx="68.5" cy="47" r="1.6"/>
						<circle class="st133" cx="68.5" cy="47" r="1.6"/>
						<circle class="st134" cx="68.5" cy="47" r="1.5"/>
						<circle class="st135" cx="68.5" cy="47" r="1.5"/>
						<circle class="st136" cx="68.5" cy="47" r="1.5"/>
						<circle class="st137" cx="68.5" cy="47" r="1.5"/>
						<circle class="st138" cx="68.5" cy="47" r="1.4"/>
						<circle class="st139" cx="68.5" cy="47" r="1.4"/>
						<circle class="st140" cx="68.5" cy="47" r="1.4"/>
						<circle class="st141" cx="68.5" cy="47" r="1.4"/>
						<circle class="st142" cx="68.5" cy="47" r="1.4"/>
						<circle class="st143" cx="68.5" cy="47" r="1.3"/>
						<circle class="st144" cx="68.5" cy="47" r="1.3"/>
						<circle class="st145" cx="68.5" cy="47" r="1.3"/>
						<circle class="st146" cx="68.5" cy="47" r="1.3"/>
						<circle class="st147" cx="68.5" cy="47" r="1.2"/>
						<circle class="st148" cx="68.5" cy="47" r="1.2"/>
						<circle class="st149" cx="68.5" cy="47" r="1.2"/>
						<circle class="st150" cx="68.5" cy="47" r="1.2"/>
						<circle class="st151" cx="68.5" cy="47" r="1.2"/>
						<circle class="st152" cx="68.5" cy="47" r="1.1"/>
						<circle class="st153" cx="68.5" cy="47" r="1.1"/>
						<circle class="st154" cx="68.5" cy="47" r="1.1"/>
						<circle class="st155" cx="68.5" cy="47" r="1.1"/>
						<circle class="st156" cx="68.5" cy="47" r="1"/>
						<circle class="st157" cx="68.5" cy="47" r="1"/>
						<circle class="st158" cx="68.5" cy="47" r="1"/>
						<circle class="st159" cx="68.5" cy="47" r="1"/>
						<circle class="st160" cx="68.5" cy="47" r="1"/>
						<circle class="st161" cx="68.5" cy="47" r="1"/>
						<circle class="st162" cx="68.5" cy="47" r="0.9"/>
						<circle class="st163" cx="68.5" cy="47" r="0.9"/>
						<circle class="st164" cx="68.5" cy="47" r="0.9"/>
						<circle class="st165" cx="68.5" cy="47" r="0.9"/>
						<circle class="st166" cx="68.5" cy="47" r="0.8"/>
						<circle class="st167" cx="68.5" cy="47" r="0.8"/>
						<circle class="st168" cx="68.5" cy="47" r="0.8"/>
						<circle class="st169" cx="68.5" cy="47" r="0.8"/>
						<circle class="st170" cx="68.5" cy="47" r="0.8"/>
						<circle class="st171" cx="68.5" cy="47" r="0.7"/>
						<circle class="st172" cx="68.5" cy="47" r="0.7"/>
						<circle class="st173" cx="68.5" cy="47" r="0.7"/>
						<circle class="st174" cx="68.5" cy="47" r="0.7"/>
						<circle class="st175" cx="68.5" cy="47" r="0.6"/>
						<circle class="st176" cx="68.5" cy="47" r="0.6"/>
						<circle class="st177" cx="68.5" cy="47" r="0.6"/>
						<circle class="st178" cx="68.5" cy="47" r="0.6"/>
						<circle class="st179" cx="68.5" cy="47" r="0.6"/>
						<circle class="st180" cx="68.5" cy="47" r="0.5"/>
						<circle class="st181" cx="68.5" cy="47" r="0.5"/>
						<circle class="st182" cx="68.5" cy="47" r="0.5"/>
						<circle class="st183" cx="68.5" cy="47" r="0.5"/>
						<circle class="st184" cx="68.5" cy="47" r="0.4"/>
						<circle class="st185" cx="68.5" cy="47" r="0.4"/>
						<circle class="st186" cx="68.5" cy="47" r="0.4"/>
						<circle class="st187" cx="68.5" cy="47" r="0.4"/>
						<circle class="st188" cx="68.5" cy="47" r="0.4"/>
						<circle class="st189" cx="68.5" cy="47" r="0.3"/>
						<circle class="st190" cx="68.5" cy="47" r="0.3"/>
						<circle class="st191" cx="68.5" cy="47" r="0.3"/>
						<circle class="st192" cx="68.5" cy="47" r="0.3"/>
						<circle class="st193" cx="68.5" cy="47" r="0.3"/>
						<circle class="st194" cx="68.5" cy="47" r="0.2"/>
						<circle class="st195" cx="68.5" cy="47" r="0.2"/>
						<circle class="st196" cx="68.5" cy="47" r="0.2"/>
						<circle class="st197" cx="68.5" cy="47" r="0.2"/>
						<circle class="st198" cx="68.5" cy="47" r="0.2"/>
						<circle class="st199" cx="68.5" cy="47" r="0.1"/>
						<circle class="st200" cx="68.5" cy="47" r="0.1"/>
						<circle class="st201" cx="68.5" cy="47" r="0.1"/>
						<circle class="st202" cx="68.5" cy="47" r="0.1"/>
						<rect x="68.5" y="47" class="st203" width="0" height="0"/>
						<rect x="68.5" y="47" class="st204" width="0" height="0"/>
					</g>
				</g>
			</g>
			<path d="M68.4,51.4c-0.8,0-1.5-0.5-2-1.3s-0.8-1.9-0.8-3s0.3-2.2,0.8-3s1.2-1.3,2-1.3s1.5,0.5,2,1.3s0.8,1.9,0.8,3
				s-0.3,2.2-0.8,3C69.9,51,69.2,51.4,68.4,51.4z M68.4,43.1c-1.3,0-2.4,1.8-2.4,4s1.1,4,2.4,4s2.4-1.8,2.4-4
				C70.9,44.9,69.8,43.1,68.4,43.1z"/>
		</g>
		<g>
			<g>
				<g>
					<defs>
						<ellipse id="SVGID_00000085209955387594112100000007852492943721779591_" cx="54.5" cy="47.1" rx="2.6" ry="4.2"/>
					</defs>
					<clipPath id="SVGID_00000057830890563356696380000007723689941403968174_">
						<use xlink:href="#SVGID_00000085209955387594112100000007852492943721779591_"  style="overflow:visible;"/>
					</clipPath>
					<g style="clip-path:url(#SVGID_00000057830890563356696380000007723689941403968174_);">
						<rect x="51.9" y="42.9" class="st1" width="5.2" height="8.4"/>
						<path class="st1" d="M57.1,47v-3.4h0.2c-0.1-0.1-0.2-0.2-0.3-0.3c-0.2-0.2-0.5-0.3-0.7-0.4c-0.3-0.1-0.5-0.2-0.8-0.3v0.2h-1.8
							v-0.2c-0.3,0.1-0.6,0.1-0.8,0.3c-0.3,0.1-0.5,0.3-0.7,0.4c-0.1,0.1-0.2,0.2-0.3,0.3H52v6.8h-0.1c0.1,0.1,0.2,0.2,0.3,0.3
							c0.2,0.2,0.5,0.3,0.7,0.4c0.5,0.2,1.1,0.3,1.7,0.3c0.6,0,1.2-0.1,1.7-0.3c0.3-0.1,0.5-0.3,0.7-0.4c0.1-0.1,0.2-0.2,0.3-0.3
							h-0.2L57.1,47L57.1,47z"/>
						<path class="st2" d="M57.1,47v-3.4h0.2c-0.1-0.1-0.2-0.2-0.3-0.3c-0.2-0.2-0.5-0.3-0.7-0.4c-0.5-0.2-1.1-0.3-1.7-0.3
							c-0.6,0-1.2,0.1-1.7,0.3c-0.3,0.1-0.5,0.3-0.7,0.4c-0.1,0.1-0.2,0.2-0.3,0.3H52v6.8h-0.1c0.1,0.1,0.2,0.2,0.3,0.3
							c0.2,0.2,0.5,0.3,0.7,0.4c0.5,0.2,1.1,0.3,1.7,0.3c0.6,0,1.2-0.1,1.7-0.3c0.3-0.1,0.5-0.3,0.7-0.4c0.1-0.1,0.2-0.2,0.3-0.3
							h-0.2V47z"/>
						<path class="st3" d="M57.1,47v-3.4h0.2c-0.1-0.1-0.2-0.2-0.3-0.3c-0.2-0.2-0.5-0.3-0.7-0.4c-0.5-0.2-1.1-0.3-1.7-0.3
							c-0.6,0-1.2,0.1-1.7,0.3c-0.3,0.1-0.5,0.3-0.7,0.4c-0.1,0.1-0.2,0.2-0.3,0.3H52v6.7h-0.1c0.1,0.1,0.2,0.2,0.3,0.3
							c0.2,0.2,0.5,0.3,0.7,0.4c0.5,0.2,1.1,0.3,1.7,0.3c0.6,0,1.2-0.1,1.7-0.3c0.3-0.1,0.5-0.3,0.7-0.4c0.1-0.1,0.2-0.2,0.3-0.3
							h-0.2C57.1,50.4,57.1,47,57.1,47z"/>
						<path class="st4" d="M57.1,47v-3.3h0.2c-0.1-0.1-0.2-0.2-0.3-0.3c-0.2-0.2-0.5-0.3-0.7-0.4c-0.5-0.2-1.1-0.3-1.7-0.3
							c-0.6,0-1.2,0.1-1.7,0.3c-0.3,0.1-0.5,0.3-0.7,0.4c-0.1,0.1-0.2,0.2-0.3,0.3H52v6.7h-0.1c0.1,0.1,0.2,0.2,0.3,0.3
							c0.2,0.2,0.5,0.3,0.7,0.4c0.5,0.2,1.1,0.3,1.7,0.3c0.6,0,1.2-0.1,1.7-0.3c0.3-0.1,0.5-0.3,0.7-0.4c0.1-0.1,0.2-0.2,0.3-0.3
							h-0.2V47z"/>
						<path class="st5" d="M57.1,47v-3.3h0.1c-0.1-0.1-0.2-0.2-0.3-0.3c-0.2-0.2-0.5-0.3-0.7-0.4c-0.5-0.2-1.1-0.3-1.7-0.3
							s-1.2,0.1-1.7,0.3c-0.3,0.1-0.5,0.2-0.7,0.4c-0.1,0.1-0.2,0.2-0.3,0.3l0,0v6.7l0,0c0.1,0.1,0.2,0.2,0.3,0.3
							c0.2,0.2,0.5,0.3,0.7,0.4c0.5,0.2,1.1,0.3,1.7,0.3s1.2-0.1,1.7-0.3c0.3-0.1,0.5-0.2,0.7-0.4c0.1-0.1,0.2-0.2,0.3-0.3h-0.1V47
							L57.1,47z"/>
						<path class="st6" d="M57.1,47v-3.3h0.1c-0.1-0.1-0.2-0.2-0.3-0.3c-0.2-0.2-0.5-0.3-0.7-0.4c-0.5-0.2-1.1-0.3-1.7-0.3
							c-0.6,0-1.2,0.1-1.7,0.3c-0.3,0.1-0.5,0.2-0.7,0.4c-0.1,0.1-0.2,0.2-0.3,0.3l0,0v6.6l0,0c0.1,0.1,0.2,0.2,0.3,0.3
							c0.2,0.2,0.5,0.3,0.7,0.4c0.5,0.2,1.1,0.3,1.7,0.3c0.6,0,1.2-0.1,1.7-0.3c0.3-0.1,0.5-0.2,0.7-0.4c0.1-0.1,0.2-0.2,0.3-0.3
							h-0.1V47L57.1,47z"/>
						<path class="st7" d="M57.1,47v-3.3h0.1c-0.1-0.1-0.2-0.2-0.3-0.3c-0.2-0.2-0.5-0.3-0.7-0.4c-0.5-0.2-1.1-0.3-1.7-0.3
							c-0.6,0-1.1,0.1-1.7,0.3c-0.3,0.1-0.5,0.2-0.7,0.4c-0.1,0.1-0.2,0.2-0.3,0.3l0,0v6.6l0,0c0.1,0.1,0.2,0.2,0.3,0.3
							c0.2,0.2,0.5,0.3,0.7,0.4c0.5,0.2,1.1,0.3,1.7,0.3c0.6,0,1.1-0.1,1.7-0.3c0.3-0.1,0.5-0.2,0.7-0.4c0.1-0.1,0.2-0.2,0.3-0.3
							h-0.1V47L57.1,47z"/>
						<path class="st8" d="M57.1,47v-3.3h0.1c-0.1-0.1-0.2-0.2-0.3-0.3c-0.2-0.2-0.5-0.3-0.7-0.4c-0.5-0.2-1.1-0.3-1.6-0.3
							c-0.6,0-1.1,0.1-1.6,0.3c-0.3,0.1-0.5,0.2-0.7,0.4c-0.1,0.1-0.2,0.2-0.3,0.3c-0.1,0-0.1,0.1-0.2,0.1H52v6.3h-0.2
							c0,0,0.1,0.1,0.2,0.1c0.1,0.1,0.2,0.2,0.3,0.3c0.2,0.2,0.5,0.3,0.7,0.4c0.5,0.2,1.1,0.3,1.6,0.3c0.6,0,1.1-0.1,1.6-0.3
							c0.3-0.1,0.5-0.2,0.7-0.4c0.1-0.1,0.2-0.2,0.3-0.3h-0.1C57.1,50.3,57.1,47,57.1,47z"/>
						<path class="st9" d="M57.1,47v-3.3h0.1c-0.1-0.1-0.2-0.2-0.3-0.3c-0.2-0.2-0.5-0.3-0.7-0.4c-0.5-0.2-1.1-0.3-1.6-0.3
							c-0.6,0-1.1,0.1-1.6,0.3c-0.3,0.1-0.5,0.2-0.7,0.4c-0.1,0.1-0.2,0.2-0.3,0.3c-0.1,0-0.1,0.1-0.2,0.1h0.1V50h-0.1
							c0,0,0.1,0.1,0.2,0.1c0.1,0.1,0.2,0.2,0.3,0.3c0.2,0.2,0.5,0.3,0.7,0.4c0.5,0.2,1.1,0.3,1.6,0.3c0.6,0,1.1-0.1,1.6-0.3
							c0.3-0.1,0.5-0.2,0.7-0.4c0.1-0.1,0.2-0.2,0.3-0.3h-0.1C57.1,50.3,57.1,47,57.1,47z"/>
						<path class="st10" d="M57.1,47v-3.2h0.1c-0.1-0.1-0.2-0.2-0.3-0.2c-0.2-0.2-0.5-0.3-0.7-0.4c-0.5-0.2-1-0.3-1.6-0.3
							S53.5,43,53,43.2c-0.3,0.1-0.5,0.2-0.7,0.4c-0.1,0.1-0.2,0.2-0.3,0.2s-0.1,0.1-0.2,0.1h0.1v6.2h-0.1c0,0,0.1,0.1,0.2,0.1
							c0.1,0.1,0.2,0.2,0.3,0.2c0.2,0.2,0.5,0.3,0.7,0.4c0.5,0.2,1,0.3,1.6,0.3s1.1-0.1,1.6-0.3c0.3-0.1,0.5-0.2,0.7-0.4
							c0.1-0.1,0.2-0.2,0.3-0.2h-0.1V47z"/>
						<path class="st11" d="M57.1,47v-3.2h0.1c-0.1-0.1-0.2-0.2-0.3-0.2c-0.2-0.2-0.5-0.3-0.7-0.4c-0.5-0.2-1-0.3-1.6-0.3
							c-1.1,0-2.2,0.5-3,1.2h0.3V50h-0.3c0.8,0.8,1.8,1.2,3,1.2c0.6,0,1.1-0.1,1.6-0.3c0.3-0.1,0.5-0.2,0.7-0.4
							c0.1-0.1,0.2-0.2,0.3-0.2h-0.1C57.1,50.2,57.1,47,57.1,47z"/>
						<path class="st12" d="M57.1,47v-3.2l0,0c-0.1-0.1-0.2-0.2-0.3-0.2c-0.2-0.2-0.5-0.3-0.7-0.4c-0.5-0.2-1-0.3-1.6-0.3
							c-1.1,0-2.2,0.5-2.9,1.2h0.2V50h-0.2c0.8,0.8,1.8,1.2,2.9,1.2c0.6,0,1.1-0.1,1.6-0.3c0.3-0.1,0.5-0.2,0.7-0.4
							c0.1-0.1,0.2-0.2,0.3-0.2l0,0V47L57.1,47z"/>
						<path class="st13" d="M57.1,47v-3.2l0,0c-0.1-0.1-0.2-0.2-0.3-0.2c-0.2-0.2-0.4-0.3-0.7-0.4c-0.5-0.2-1-0.3-1.6-0.3
							c-1.1,0-2.2,0.5-2.9,1.2h0.2v5.8h-0.2c0.8,0.8,1.8,1.2,2.9,1.2c0.6,0,1.1-0.1,1.6-0.3c0.3-0.1,0.5-0.2,0.7-0.4
							c0.1-0.1,0.2-0.2,0.3-0.2l0,0V47L57.1,47z"/>
						<path class="st14" d="M57.1,47v-3.2l0,0c-0.1-0.1-0.2-0.2-0.3-0.2c-0.2-0.2-0.4-0.3-0.7-0.4c-0.5-0.2-1-0.3-1.6-0.3
							c-1.1,0-2.2,0.5-2.9,1.2h0.2v5.8h-0.2c0.7,0.7,1.8,1.2,2.9,1.2c0.6,0,1.1-0.1,1.6-0.3c0.3-0.1,0.5-0.2,0.7-0.4
							c0.1-0.1,0.2-0.2,0.3-0.2l0,0V47L57.1,47z"/>
						<path class="st15" d="M57.1,47v-3.2l0,0c-0.1-0.1-0.2-0.2-0.3-0.2c-0.2-0.2-0.4-0.3-0.7-0.4c-0.5-0.2-1-0.3-1.6-0.3
							c-1.1,0-2.2,0.5-2.9,1.2h0.2v5.8h-0.2c0.7,0.7,1.8,1.2,2.9,1.2c0.6,0,1.1-0.1,1.6-0.3c0.3-0.1,0.5-0.2,0.7-0.4
							c0.1-0.1,0.2-0.2,0.3-0.2l0,0V47z"/>
						<path class="st16" d="M57.1,47v-3h0.1c0,0-0.1-0.1-0.2-0.1c-0.1-0.1-0.2-0.2-0.3-0.2c-0.2-0.2-0.4-0.3-0.7-0.4
							c-0.5-0.2-1-0.3-1.6-0.3c-1.1,0-2.1,0.4-2.9,1.2h0.2V50h-0.2c0.7,0.7,1.7,1.2,2.9,1.2c0.6,0,1.1-0.1,1.6-0.3
							c0.3-0.1,0.5-0.2,0.7-0.4c0.1-0.1,0.2-0.2,0.3-0.2s0.1-0.1,0.2-0.1h-0.1V47L57.1,47z"/>
						<path class="st17" d="M57.1,47v-3h0.1c0,0-0.1-0.1-0.2-0.1c-0.1-0.1-0.2-0.2-0.3-0.2c-0.2-0.1-0.4-0.3-0.7-0.4
							c-0.5-0.2-1-0.3-1.6-0.3c-1.1,0-2.1,0.4-2.9,1.2h0.2v5.7h-0.2c0.7,0.7,1.7,1.2,2.9,1.2c0.6,0,1.1-0.1,1.6-0.3
							c0.2-0.1,0.5-0.2,0.7-0.4c0.1-0.1,0.2-0.2,0.3-0.2s0.1-0.1,0.2-0.1h-0.1V47L57.1,47z"/>
						<path class="st18" d="M57.1,47v-2.9h0.3c-0.7-0.7-1.7-1.2-2.9-1.2c-1.1,0-2.1,0.4-2.9,1.2h0.1v5.7h-0.1
							c0.7,0.7,1.7,1.2,2.9,1.2c1.1,0,2.1-0.4,2.9-1.2h-0.3V47L57.1,47z"/>
						<path class="st19" d="M57.1,47v-2.8h0.2c-0.7-0.7-1.7-1.2-2.8-1.2s-2.1,0.4-2.8,1.2h0.1v5.7h-0.1c0.7,0.7,1.7,1.2,2.8,1.2
							s2.1-0.4,2.8-1.2h-0.2C57.1,49.8,57.1,47,57.1,47z"/>
						<path class="st20" d="M57.1,47v-2.8h0.2c-0.7-0.7-1.7-1.2-2.8-1.2s-2.1,0.4-2.8,1.2h0.1v5.6h-0.1c0.7,0.7,1.7,1.2,2.8,1.2
							s2.1-0.4,2.8-1.2h-0.2V47z"/>
						<path class="st21" d="M57.1,47v-2.8h0.2c-0.7-0.7-1.7-1.2-2.8-1.2s-2.1,0.4-2.8,1.2h0.1v5.6h-0.1c0.7,0.7,1.7,1.2,2.8,1.2
							s2.1-0.4,2.8-1.2h-0.2V47L57.1,47z"/>
						<path class="st22" d="M57.1,47v-2.8h0.2c-0.7-0.7-1.7-1.1-2.8-1.1s-2.1,0.4-2.8,1.1h0.1v5.6h-0.1c0.7,0.7,1.7,1.1,2.8,1.1
							s2.1-0.4,2.8-1.1h-0.2V47L57.1,47z"/>
						<path class="st23" d="M57.1,47v-2.8h0.2c-0.7-0.7-1.7-1.1-2.8-1.1s-2.1,0.4-2.8,1.1h0.1v5.6h-0.1c0.7,0.7,1.7,1.1,2.8,1.1
							s2.1-0.4,2.8-1.1h-0.2V47z"/>
						<path class="st24" d="M57.1,47v-2.8h0.2c-0.7-0.7-1.7-1.1-2.8-1.1s-2.1,0.4-2.8,1.1h0.1v5.5h-0.1c0.7,0.7,1.7,1.1,2.8,1.1
							s2.1-0.4,2.8-1.1h-0.2V47z"/>
						<path class="st25" d="M57.1,47v-2.7h0.2c-0.7-0.7-1.7-1.1-2.7-1.1c-1.1,0-2,0.4-2.7,1.1l0,0v5.5l0,0c0.7,0.7,1.7,1.1,2.7,1.1
							c1.1,0,2-0.4,2.7-1.1h-0.2V47L57.1,47z"/>
						<path class="st26" d="M57.1,47v-2.7h0.1c-0.7-0.7-1.7-1.1-2.7-1.1s-2,0.4-2.7,1.1l0,0v5.5l0,0c0.7,0.7,1.7,1.1,2.7,1.1
							s2-0.4,2.7-1.1h-0.1V47L57.1,47z"/>
						<path class="st27" d="M57.1,47v-2.7h0.1c-0.7-0.7-1.6-1.1-2.7-1.1s-2,0.4-2.7,1.1l0,0v5.4l0,0c0.7,0.7,1.6,1.1,2.7,1.1
							s2-0.4,2.7-1.1h-0.1V47L57.1,47z"/>
						<path class="st28" d="M57.1,47v-2.7h0.1c-0.7-0.7-1.6-1.1-2.7-1.1s-2,0.4-2.7,1.1c-0.1,0.1-0.2,0.2-0.3,0.3h0.2v4.9h-0.2
							c0,0,0.2,0.2,0.3,0.3c0.7,0.7,1.6,1.1,2.7,1.1s2-0.4,2.7-1.1h-0.1V47z"/>
						<path class="st29" d="M57.1,47v-2.7h0.1c-0.7-0.7-1.6-1.1-2.7-1.1s-2,0.4-2.7,1.1c-0.1,0.1-0.2,0.2-0.3,0.3h0.2v4.8h-0.2
							c0,0,0.2,0.2,0.3,0.3c0.7,0.7,1.6,1.1,2.7,1.1s2-0.4,2.7-1.1h-0.1V47z"/>
						<path class="st30" d="M57.1,47v-2.7h0.1c-0.7-0.7-1.6-1.1-2.7-1.1s-2,0.4-2.7,1.1c-0.1,0.1-0.2,0.2-0.3,0.3h0.2v4.8h-0.2
							c0,0,0.2,0.2,0.3,0.3c0.7,0.7,1.6,1.1,2.7,1.1s2-0.4,2.7-1.1h-0.1V47L57.1,47z"/>
						<path class="st31" d="M57.1,47v-2.7h0.1c-0.7-0.7-1.6-1.1-2.7-1.1s-2,0.4-2.7,1.1c-0.1,0.1-0.2,0.2-0.2,0.3h0.2v4.8h-0.2
							c0,0,0.2,0.2,0.2,0.3c0.7,0.7,1.6,1.1,2.7,1.1s2-0.4,2.7-1.1h-0.1V47z"/>
						<path class="st32" d="M57.1,47v-2.6l0,0c-0.7-0.7-1.6-1.1-2.6-1.1s-2,0.4-2.6,1.1c-0.1,0.1-0.2,0.2-0.2,0.3h0.2v4.7h-0.2
							c0,0,0.2,0.2,0.2,0.3c0.7,0.7,1.6,1.1,2.6,1.1s2-0.4,2.6-1.1l0,0V47z"/>
						<path class="st33" d="M57.1,47v-2.6l0,0c-0.7-0.7-1.6-1.1-2.6-1.1s-1.9,0.4-2.6,1.1c-0.1,0.1-0.2,0.2-0.2,0.3h0.2v4.7h-0.2
							c0,0,0.2,0.2,0.2,0.3c0.7,0.7,1.6,1.1,2.6,1.1s1.9-0.4,2.6-1.1l0,0V47L57.1,47z"/>
						<path class="st34" d="M57.1,47v-2.6l0,0c-0.7-0.7-1.6-1.1-2.6-1.1s-1.9,0.4-2.6,1.1c-0.1,0.1-0.2,0.2-0.2,0.3h0.1v4.7h-0.1
							c0,0,0.2,0.2,0.2,0.3c0.7,0.7,1.6,1.1,2.6,1.1s1.9-0.4,2.6-1.1l0,0V47L57.1,47z"/>
						<path class="st35" d="M57.1,47v-2.3h0.2c0,0-0.2-0.2-0.2-0.3c-0.7-0.7-1.6-1.1-2.6-1.1s-1.9,0.4-2.6,1.1
							c-0.1,0.1-0.2,0.2-0.2,0.3h0.1v4.7h-0.1c0,0,0.2,0.2,0.2,0.3c0.7,0.7,1.6,1.1,2.6,1.1s1.9-0.4,2.6-1.1
							c0.1-0.1,0.2-0.2,0.2-0.3h-0.2V47z"/>
						<path class="st36" d="M57.1,47v-2.3h0.2c0,0-0.2-0.2-0.2-0.3c-0.7-0.7-1.6-1.1-2.6-1.1s-1.9,0.4-2.6,1.1
							c-0.1,0.1-0.2,0.2-0.2,0.3h0.1v4.6h-0.1c0,0,0.2,0.2,0.2,0.3c0.7,0.7,1.6,1.1,2.6,1.1s1.9-0.4,2.6-1.1
							c0.1-0.1,0.2-0.2,0.2-0.3h-0.2V47L57.1,47z"/>
						<path class="st37" d="M57.1,47v-2.3h0.2c0,0-0.2-0.2-0.2-0.3c-0.7-0.7-1.6-1.1-2.6-1.1s-1.9,0.4-2.6,1.1
							c-0.1,0.1-0.2,0.2-0.2,0.3h0.1v4.6h-0.1c0,0,0.2,0.2,0.2,0.3c0.7,0.7,1.6,1.1,2.6,1.1s1.9-0.4,2.6-1.1
							c0.1-0.1,0.2-0.2,0.2-0.3h-0.2V47L57.1,47z"/>
						<path class="st38" d="M57.1,47v-2.3h0.2c0,0-0.2-0.2-0.2-0.3c-0.7-0.7-1.6-1-2.5-1c-1,0-1.9,0.4-2.5,1
							c-0.1,0.1-0.2,0.2-0.2,0.3H52v4.6h-0.1c0,0,0.2,0.2,0.2,0.3c0.7,0.7,1.6,1,2.5,1c1,0,1.9-0.4,2.5-1c0.1-0.1,0.2-0.2,0.2-0.3
							h-0.2V47z"/>
						<path class="st39" d="M57.1,47v-2.3h0.2c0,0-0.2-0.2-0.2-0.3c-0.6-0.6-1.5-1-2.5-1s-1.9,0.4-2.5,1c-0.1,0.1-0.2,0.2-0.2,0.3
							H52v4.5h-0.1c0,0,0.2,0.2,0.2,0.3c0.6,0.6,1.5,1,2.5,1s1.9-0.4,2.5-1c0.1-0.1,0.2-0.2,0.2-0.3h-0.2V47z"/>
						<path class="st40" d="M57.1,47v-2.3h0.2c0,0-0.2-0.2-0.2-0.3c-0.6-0.6-1.5-1-2.5-1s-1.9,0.4-2.5,1c-0.2,0.2-0.3,0.3-0.4,0.5
							H52v4h-0.3c0.1,0.2,0.3,0.4,0.4,0.5c0.6,0.6,1.5,1,2.5,1s1.9-0.4,2.5-1c0.1-0.1,0.2-0.2,0.2-0.3h-0.2V47L57.1,47z"/>
						<path class="st41" d="M57.1,47v-2.3h0.1c0,0-0.2-0.2-0.2-0.3c-0.6-0.6-1.5-1-2.5-1s-1.9,0.4-2.5,1c-0.2,0.2-0.3,0.3-0.4,0.5
							h0.2v4h-0.2c0.1,0.2,0.3,0.4,0.4,0.5c0.6,0.6,1.5,1,2.5,1s1.9-0.4,2.5-1c0.1-0.1,0.2-0.2,0.2-0.3h-0.1
							C57.1,49.2,57.1,47,57.1,47z"/>
						<path class="st42" d="M57.1,47v-2.2h0.1c0,0-0.2-0.2-0.2-0.3c-0.6-0.6-1.5-1-2.5-1s-1.8,0.4-2.5,1c-0.2,0.2-0.3,0.3-0.4,0.5
							h0.2v4h-0.2c0.1,0.2,0.3,0.4,0.4,0.5c0.6,0.6,1.5,1,2.5,1s1.8-0.4,2.5-1c0.1-0.1,0.2-0.2,0.2-0.3h-0.1V47z"/>
						<path class="st43" d="M57.1,47v-2.2h0.1c0,0-0.2-0.2-0.2-0.3c-0.6-0.6-1.5-1-2.5-1s-1.8,0.4-2.5,1c-0.2,0.2-0.3,0.3-0.4,0.5
							h0.2v4h-0.2c0.1,0.2,0.3,0.3,0.4,0.5c0.6,0.6,1.5,1,2.5,1s1.8-0.4,2.5-1c0.1-0.1,0.2-0.2,0.2-0.3h-0.1V47L57.1,47z"/>
						<path class="st44" d="M57.1,47v-2.2h0.1c0,0-0.1-0.2-0.2-0.3c-0.6-0.6-1.5-1-2.4-1c-1,0-1.8,0.4-2.4,1
							c-0.2,0.2-0.3,0.3-0.4,0.5H52v3.9h-0.2c0.1,0.2,0.3,0.3,0.4,0.5c0.6,0.6,1.5,1,2.4,1c1,0,1.8-0.4,2.4-1
							c0.1-0.1,0.2-0.2,0.2-0.3h-0.1V47L57.1,47z"/>
						<path class="st45" d="M57.1,47v-2.2h0.1c0,0-0.1-0.2-0.2-0.3c-0.6-0.6-1.5-1-2.4-1c-1,0-1.8,0.4-2.4,1
							c-0.2,0.2-0.3,0.3-0.4,0.5H52v3.9h-0.2c0.1,0.2,0.3,0.3,0.4,0.5c0.6,0.6,1.5,1,2.4,1c1,0,1.8-0.4,2.4-1
							c0.1-0.1,0.2-0.2,0.2-0.3h-0.1V47L57.1,47z"/>
						<path class="st46" d="M57.1,47v-1.9h0.3c-0.1-0.2-0.3-0.3-0.4-0.5c-0.6-0.6-1.5-1-2.4-1c-1,0-1.8,0.4-2.4,1
							c-0.2,0.2-0.3,0.3-0.4,0.5h0.1v3.8h-0.1c0.1,0.2,0.3,0.3,0.4,0.5c0.6,0.6,1.5,1,2.4,1c1,0,1.8-0.4,2.4-1
							c0.2-0.2,0.3-0.3,0.4-0.5h-0.3V47L57.1,47z"/>
						<path class="st47" d="M57.1,47v-1.9h0.2c-0.1-0.2-0.3-0.3-0.4-0.5c-0.6-0.6-1.5-1-2.4-1s-1.8,0.4-2.4,1
							c-0.2,0.2-0.3,0.3-0.4,0.5h0.1v3.8h-0.1c0.1,0.2,0.3,0.3,0.4,0.5c0.6,0.6,1.5,1,2.4,1s1.8-0.4,2.4-1c0.2-0.2,0.3-0.3,0.4-0.5
							h-0.2C57.1,48.9,57.1,47,57.1,47z"/>
						<path class="st48" d="M57.1,47v-1.9h0.2c-0.1-0.2-0.3-0.3-0.4-0.5c-0.6-0.6-1.5-1-2.4-1s-1.8,0.4-2.4,1
							c-0.2,0.2-0.3,0.3-0.4,0.5h0.1v3.8h-0.1c0.1,0.2,0.3,0.3,0.4,0.5c0.6,0.6,1.5,1,2.4,1s1.8-0.4,2.4-1c0.2-0.2,0.3-0.3,0.4-0.5
							h-0.2V47L57.1,47z"/>
						<path class="st49" d="M57.1,47v-1.9h0.2c-0.1-0.2-0.3-0.3-0.4-0.5c-0.6-0.6-1.5-1-2.4-1s-1.8,0.4-2.4,1
							c-0.2,0.2-0.3,0.3-0.4,0.5h0.1v3.8h-0.1c0.1,0.2,0.3,0.3,0.4,0.5c0.6,0.6,1.5,1,2.4,1s1.8-0.4,2.4-1c0.2-0.2,0.3-0.3,0.4-0.5
							h-0.2V47z"/>
						<path class="st50" d="M57.1,47v-1.9h0.2c-0.1-0.2-0.3-0.3-0.4-0.5c-0.6-0.6-1.4-1-2.4-1c-0.9,0-1.8,0.4-2.4,1
							c-0.2,0.2-0.3,0.3-0.4,0.5h0.1v3.7h-0.1c0.1,0.2,0.3,0.3,0.4,0.5c0.6,0.6,1.4,1,2.4,1c0.9,0,1.8-0.4,2.4-1
							c0.2-0.2,0.3-0.3,0.4-0.5h-0.2V47z"/>
						<path class="st51" d="M57.1,47v-1.9h0.2c-0.1-0.2-0.3-0.3-0.4-0.5c-0.6-0.6-1.4-1-2.3-1c-0.9,0-1.7,0.4-2.3,1
							c-0.2,0.2-0.3,0.3-0.4,0.5l0,0v3.7l0,0c0.1,0.2,0.3,0.3,0.4,0.5c0.6,0.6,1.4,1,2.3,1c0.9,0,1.7-0.4,2.3-1
							c0.2-0.2,0.3-0.3,0.4-0.5h-0.2V47L57.1,47z"/>
						<path class="st52" d="M57.1,47v-1.8h0.1c-0.1-0.2-0.3-0.3-0.4-0.5c-0.6-0.6-1.4-1-2.3-1c-0.9,0-1.7,0.4-2.3,1
							c-0.2,0.2-0.3,0.3-0.4,0.5l0,0v3.7l0,0c0.1,0.2,0.3,0.3,0.4,0.5c0.6,0.6,1.4,1,2.3,1c0.9,0,1.7-0.4,2.3-1
							c0.2-0.2,0.3-0.3,0.4-0.5h-0.1V47z"/>
						<path class="st53" d="M57.1,47v-1.8h0.1c-0.1-0.2-0.3-0.3-0.4-0.5c-0.6-0.6-1.4-1-2.3-1s-1.7,0.4-2.3,1
							c-0.2,0.2-0.3,0.3-0.4,0.5l0,0v3.7l0,0c0.1,0.2,0.3,0.3,0.4,0.5c0.6,0.6,1.4,1,2.3,1s1.7-0.4,2.3-1c0.2-0.2,0.3-0.3,0.4-0.5
							h-0.1V47L57.1,47z"/>
						<path class="st54" d="M57.1,47v-1.8h0.1c-0.1-0.2-0.3-0.3-0.4-0.5c-0.6-0.6-1.4-1-2.3-1c-0.9,0-1.7,0.4-2.3,1
							c-0.2,0.2-0.3,0.3-0.4,0.5c-0.1,0.1-0.1,0.2-0.2,0.3h0.2v3.1h-0.2c0,0,0.1,0.2,0.2,0.3c0.1,0.2,0.3,0.3,0.4,0.5
							c0.6,0.6,1.4,1,2.3,1c0.9,0,1.7-0.4,2.3-1c0.2-0.2,0.3-0.3,0.4-0.5h-0.1V47z"/>
						<path class="st55" d="M57.1,47v-1.8h0.1c-0.1-0.2-0.3-0.3-0.4-0.5c-0.6-0.6-1.4-1-2.3-1c-0.9,0-1.7,0.4-2.3,1
							c-0.2,0.2-0.3,0.3-0.4,0.5c-0.1,0.1-0.1,0.2-0.2,0.3h0.1v3.1h-0.1c0,0,0.1,0.2,0.2,0.3c0.1,0.2,0.3,0.3,0.4,0.5
							c0.6,0.6,1.4,1,2.3,1c0.9,0,1.7-0.4,2.3-1c0.2-0.2,0.3-0.3,0.4-0.5h-0.1V47L57.1,47z"/>
						<path class="st56" d="M57.1,47v-1.8h0.1c-0.1-0.2-0.3-0.3-0.4-0.5c-0.6-0.6-1.4-0.9-2.3-0.9c-0.9,0-1.7,0.4-2.3,0.9
							c-0.3,0.3-0.5,0.6-0.7,1h0.3v2.5h-0.3c0.2,0.4,0.4,0.7,0.7,1c0.6,0.6,1.4,0.9,2.3,0.9c0.9,0,1.7-0.4,2.3-0.9
							c0.1-0.1,0.3-0.3,0.4-0.5h-0.1V47L57.1,47z"/>
						<path class="st57" d="M57.1,47v-1.8l0,0c-0.1-0.2-0.3-0.3-0.4-0.5c-0.6-0.6-1.4-0.9-2.3-0.9s-1.7,0.3-2.3,0.9
							c-0.3,0.3-0.5,0.6-0.7,1h0.2v2.5h-0.2c0.2,0.4,0.4,0.7,0.7,1c0.6,0.6,1.4,0.9,2.3,0.9s1.7-0.3,2.3-0.9
							c0.1-0.1,0.3-0.3,0.4-0.5l0,0C57.1,48.8,57.1,47,57.1,47z"/>
						<path class="st58" d="M57.1,47v-1.8l0,0c-0.1-0.2-0.3-0.3-0.4-0.5c-0.6-0.6-1.4-0.9-2.2-0.9c-0.9,0-1.7,0.3-2.2,0.9
							c-0.3,0.3-0.5,0.6-0.7,1h0.2v2.5h-0.2c0.2,0.4,0.4,0.7,0.7,1c0.6,0.6,1.4,0.9,2.2,0.9c0.9,0,1.7-0.3,2.2-0.9
							c0.1-0.1,0.3-0.3,0.4-0.5l0,0V47L57.1,47z"/>
						<path class="st59" d="M57.1,47v-1.8l0,0c-0.1-0.2-0.2-0.3-0.4-0.5c-0.6-0.6-1.4-0.9-2.2-0.9s-1.6,0.3-2.2,0.9
							c-0.3,0.3-0.5,0.6-0.7,1h0.2v2.4h-0.2c0.2,0.4,0.4,0.7,0.7,1c0.6,0.6,1.4,0.9,2.2,0.9s1.6-0.3,2.2-0.9
							c0.1-0.1,0.3-0.3,0.4-0.5l0,0C57.1,48.8,57.1,47,57.1,47z"/>
						<path class="st60" d="M57.1,47v-1.5h0.2c0,0-0.1-0.2-0.2-0.3c-0.1-0.2-0.2-0.3-0.4-0.5c-0.6-0.6-1.3-0.9-2.2-0.9
							s-1.6,0.3-2.2,0.9c-0.3,0.3-0.5,0.6-0.7,1h0.2v2.4h-0.2c0.2,0.4,0.4,0.7,0.7,1c0.6,0.6,1.3,0.9,2.2,0.9s1.6-0.3,2.2-0.9
							c0.1-0.1,0.3-0.3,0.4-0.5c0.1-0.1,0.1-0.2,0.2-0.3h-0.2V47L57.1,47z"/>
						<path class="st61" d="M57.1,47v-1.5h0.1c0,0-0.1-0.2-0.2-0.3c-0.1-0.2-0.2-0.3-0.4-0.5c-0.6-0.6-1.3-0.9-2.2-0.9
							s-1.6,0.3-2.2,0.9c-0.3,0.3-0.5,0.6-0.7,1h0.2v2.4h-0.2c0.2,0.4,0.4,0.7,0.7,1c0.6,0.6,1.3,0.9,2.2,0.9s1.6-0.3,2.2-0.9
							c0.1-0.1,0.3-0.3,0.4-0.5c0.1-0.1,0.1-0.2,0.2-0.3h-0.1V47z"/>
						<path class="st62" d="M57.1,47v-1.2h0.2c-0.2-0.4-0.4-0.7-0.7-1c-0.6-0.6-1.3-0.9-2.2-0.9s-1.6,0.3-2.2,0.9
							c-0.3,0.3-0.5,0.6-0.7,1h0.1v2.4h-0.1c0.2,0.4,0.4,0.7,0.7,1c0.6,0.6,1.3,0.9,2.2,0.9s1.6-0.3,2.2-0.9c0.3-0.3,0.5-0.6,0.7-1
							h-0.2V47z"/>
						<path class="st63" d="M57.1,47v-1.2h0.2c-0.2-0.4-0.4-0.7-0.7-1c-0.6-0.6-1.3-0.9-2.2-0.9c-0.8,0-1.6,0.3-2.2,0.9
							c-0.3,0.3-0.5,0.6-0.7,1h0.1v2.4h-0.1c0.2,0.4,0.4,0.7,0.7,1c0.6,0.6,1.3,0.9,2.2,0.9c0.8,0,1.6-0.3,2.2-0.9
							c0.3-0.3,0.5-0.6,0.7-1h-0.2V47L57.1,47z"/>
						<path class="st64" d="M57.1,47v-1.2h0.2c-0.2-0.4-0.4-0.7-0.7-1c-0.5-0.5-1.3-0.9-2.2-0.9s-1.6,0.3-2.2,0.9
							c-0.3,0.3-0.5,0.6-0.7,1h0.1v2.4h-0.1c0.2,0.4,0.4,0.7,0.7,1c0.5,0.5,1.3,0.9,2.2,0.9s1.6-0.3,2.2-0.9c0.3-0.3,0.5-0.6,0.7-1
							h-0.2V47z"/>
						<path class="st65" d="M57.1,47v-1.2h0.2c-0.2-0.4-0.4-0.7-0.6-1c-0.5-0.5-1.3-0.9-2.1-0.9s-1.6,0.3-2.1,0.9
							c-0.3,0.3-0.5,0.6-0.6,1H52v2.3h-0.1c0.2,0.4,0.4,0.7,0.6,1c0.5,0.5,1.3,0.9,2.1,0.9s1.6-0.3,2.1-0.9c0.3-0.3,0.5-0.6,0.6-1
							h-0.2V47L57.1,47z"/>
						<path class="st66" d="M57.1,47v-1.2h0.2c-0.2-0.3-0.4-0.7-0.6-1c-0.5-0.5-1.3-0.9-2.1-0.9s-1.6,0.3-2.1,0.9
							c-0.3,0.3-0.5,0.6-0.6,1H52v2.3h-0.1c0.2,0.3,0.4,0.7,0.6,1c0.5,0.5,1.3,0.9,2.1,0.9s1.6-0.3,2.1-0.9c0.3-0.3,0.5-0.6,0.6-1
							h-0.2V47z"/>
						<path class="st67" d="M57.1,47v-1.2h0.1c-0.2-0.3-0.4-0.7-0.6-1c-0.5-0.5-1.3-0.9-2.1-0.9s-1.6,0.3-2.1,0.9
							c-0.3,0.3-0.5,0.6-0.6,1l0,0v2.3l0,0c0.2,0.3,0.4,0.7,0.6,1c0.5,0.5,1.3,0.9,2.1,0.9s1.6-0.3,2.1-0.9c0.3-0.3,0.5-0.6,0.6-1
							h-0.1V47L57.1,47z"/>
						<path class="st68" d="M57.1,47v-1.1h0.1c-0.2-0.3-0.4-0.7-0.6-0.9c-0.6-0.6-1.3-1-2.1-1c-1.6,0-3,1.3-3,3c0,1.6,1.3,3,3,3
							c0.8,0,1.6-0.3,2.1-0.9c0.3-0.3,0.5-0.6,0.6-0.9h-0.1V47z"/>
						<path class="st69" d="M57.1,47v-1.1h0.1c-0.2-0.3-0.4-0.7-0.6-0.9c-0.5-0.5-1.3-0.9-2.1-0.9c-1.6,0-2.9,1.3-2.9,2.9
							s1.3,2.9,2.9,2.9c0.8,0,1.5-0.3,2.1-0.9c0.3-0.3,0.5-0.6,0.6-0.9h-0.1V47z"/>
						<path class="st70" d="M57.1,47v-1.1h0.1c-0.2-0.3-0.4-0.7-0.6-0.9c-0.5-0.5-1.3-0.9-2.1-0.9c-1.6,0-2.9,1.3-2.9,2.9
							s1.3,2.9,2.9,2.9c0.8,0,1.5-0.3,2.1-0.9c0.3-0.3,0.5-0.6,0.6-0.9h-0.1V47z"/>
						<path class="st71" d="M57.1,47v-1.1h0.1c-0.2-0.3-0.3-0.7-0.6-0.9c-0.5-0.5-1.2-0.9-2-0.9c-1.6,0-2.9,1.3-2.9,2.9
							c0,1.6,1.3,2.9,2.9,2.9c0.8,0,1.5-0.3,2-0.9c0.3-0.3,0.5-0.6,0.6-0.9h-0.1V47z"/>
						<path class="st72" d="M57.1,47v-1.1l0,0c-0.1-0.3-0.3-0.7-0.6-0.9c-0.5-0.5-1.2-0.8-2-0.8c-1.6,0-2.9,1.3-2.9,2.9
							c0,1.6,1.3,2.9,2.9,2.9c0.8,0,1.5-0.3,2-0.8c0.3-0.3,0.5-0.6,0.6-0.9l0,0V47L57.1,47z"/>
						<circle class="st73" cx="54.5" cy="47" r="2.8"/>
						<circle class="st74" cx="54.5" cy="47" r="2.8"/>
						<circle class="st75" cx="54.5" cy="47" r="2.8"/>
						<circle class="st76" cx="54.5" cy="47" r="2.8"/>
						<circle class="st77" cx="54.5" cy="47" r="2.8"/>
						<circle class="st78" cx="54.5" cy="47" r="2.7"/>
						<circle class="st79" cx="54.5" cy="47" r="2.7"/>
						<circle class="st80" cx="54.5" cy="47" r="2.7"/>
						<circle class="st81" cx="54.5" cy="47" r="2.7"/>
						<circle class="st82" cx="54.5" cy="47" r="2.7"/>
						<circle class="st83" cx="54.5" cy="47" r="2.6"/>
						<circle class="st84" cx="54.5" cy="47" r="2.6"/>
						<circle class="st85" cx="54.5" cy="47" r="2.6"/>
						<circle class="st86" cx="54.5" cy="47" r="2.6"/>
						<circle class="st87" cx="54.5" cy="47" r="2.5"/>
						<circle class="st88" cx="54.5" cy="47" r="2.5"/>
						<circle class="st89" cx="54.5" cy="47" r="2.5"/>
						<circle class="st90" cx="54.5" cy="47" r="2.5"/>
						<circle class="st91" cx="54.5" cy="47" r="2.5"/>
						<circle class="st92" cx="54.5" cy="47" r="2.4"/>
						<circle class="st93" cx="54.5" cy="47" r="2.4"/>
						<circle class="st94" cx="54.5" cy="47" r="2.4"/>
						<circle class="st95" cx="54.5" cy="47" r="2.4"/>
						<circle class="st96" cx="54.5" cy="47" r="2.3"/>
						<circle class="st97" cx="54.5" cy="47" r="2.3"/>
						<circle class="st98" cx="54.5" cy="47" r="2.3"/>
						<circle class="st99" cx="54.5" cy="47" r="2.3"/>
						<circle class="st100" cx="54.5" cy="47" r="2.3"/>
						<circle class="st101" cx="54.5" cy="47" r="2.2"/>
						<circle class="st102" cx="54.5" cy="47" r="2.2"/>
						<circle class="st103" cx="54.5" cy="47" r="2.2"/>
						<circle class="st104" cx="54.5" cy="47" r="2.2"/>
						<circle class="st105" cx="54.5" cy="47" r="2.2"/>
						<circle class="st106" cx="54.5" cy="47" r="2.1"/>
						<circle class="st107" cx="54.5" cy="47" r="2.1"/>
						<circle class="st108" cx="54.5" cy="47" r="2.1"/>
						<circle class="st109" cx="54.5" cy="47" r="2.1"/>
						<circle class="st110" cx="54.5" cy="47" r="2"/>
						<circle class="st111" cx="54.5" cy="47" r="2"/>
						<circle class="st112" cx="54.5" cy="47" r="2"/>
						<circle class="st113" cx="54.5" cy="47" r="2"/>
						<circle class="st114" cx="54.5" cy="47" r="2"/>
						<circle class="st115" cx="54.5" cy="47" r="1.9"/>
						<circle class="st116" cx="54.5" cy="47" r="1.9"/>
						<circle class="st117" cx="54.5" cy="47" r="1.9"/>
						<circle class="st118" cx="54.5" cy="47" r="1.9"/>
						<circle class="st119" cx="54.5" cy="47" r="1.8"/>
						<circle class="st120" cx="54.5" cy="47" r="1.8"/>
						<circle class="st121" cx="54.5" cy="47" r="1.8"/>
						<circle class="st122" cx="54.5" cy="47" r="1.8"/>
						<circle class="st123" cx="54.5" cy="47" r="1.8"/>
						<circle class="st124" cx="54.5" cy="47" r="1.7"/>
						<circle class="st125" cx="54.5" cy="47" r="1.7"/>
						<circle class="st126" cx="54.5" cy="47" r="1.7"/>
						<circle class="st127" cx="54.5" cy="47" r="1.7"/>
						<circle class="st128" cx="54.5" cy="47" r="1.6"/>
						<circle class="st129" cx="54.5" cy="47" r="1.6"/>
						<circle class="st130" cx="54.5" cy="47" r="1.6"/>
						<circle class="st131" cx="54.5" cy="47" r="1.6"/>
						<circle class="st132" cx="54.5" cy="47" r="1.6"/>
						<circle class="st133" cx="54.5" cy="47" r="1.6"/>
						<circle class="st134" cx="54.5" cy="47" r="1.5"/>
						<circle class="st135" cx="54.5" cy="47" r="1.5"/>
						<circle class="st136" cx="54.5" cy="47" r="1.5"/>
						<circle class="st137" cx="54.5" cy="47" r="1.5"/>
						<circle class="st138" cx="54.5" cy="47" r="1.4"/>
						<circle class="st139" cx="54.5" cy="47" r="1.4"/>
						<circle class="st140" cx="54.5" cy="47" r="1.4"/>
						<circle class="st141" cx="54.5" cy="47" r="1.4"/>
						<circle class="st142" cx="54.5" cy="47" r="1.4"/>
						<circle class="st143" cx="54.5" cy="47" r="1.3"/>
						<circle class="st144" cx="54.5" cy="47" r="1.3"/>
						<circle class="st145" cx="54.5" cy="47" r="1.3"/>
						<circle class="st146" cx="54.5" cy="47" r="1.3"/>
						<circle class="st147" cx="54.5" cy="47" r="1.2"/>
						<circle class="st148" cx="54.5" cy="47" r="1.2"/>
						<circle class="st149" cx="54.5" cy="47" r="1.2"/>
						<circle class="st150" cx="54.5" cy="47" r="1.2"/>
						<circle class="st151" cx="54.5" cy="47" r="1.2"/>
						<circle class="st152" cx="54.5" cy="47" r="1.1"/>
						<circle class="st153" cx="54.5" cy="47" r="1.1"/>
						<circle class="st154" cx="54.5" cy="47" r="1.1"/>
						<circle class="st155" cx="54.5" cy="47" r="1.1"/>
						<circle class="st156" cx="54.5" cy="47" r="1"/>
						<circle class="st157" cx="54.5" cy="47" r="1"/>
						<circle class="st158" cx="54.5" cy="47" r="1"/>
						<circle class="st159" cx="54.5" cy="47" r="1"/>
						<circle class="st160" cx="54.5" cy="47" r="1"/>
						<circle class="st161" cx="54.5" cy="47" r="1"/>
						<circle class="st162" cx="54.5" cy="47" r="0.9"/>
						<circle class="st163" cx="54.5" cy="47" r="0.9"/>
						<circle class="st164" cx="54.5" cy="47" r="0.9"/>
						<circle class="st165" cx="54.5" cy="47" r="0.9"/>
						<circle class="st166" cx="54.5" cy="47" r="0.8"/>
						<circle class="st167" cx="54.5" cy="47" r="0.8"/>
						<circle class="st168" cx="54.5" cy="47" r="0.8"/>
						<circle class="st169" cx="54.5" cy="47" r="0.8"/>
						<circle class="st170" cx="54.5" cy="47" r="0.8"/>
						<circle class="st171" cx="54.5" cy="47" r="0.7"/>
						<circle class="st172" cx="54.5" cy="47" r="0.7"/>
						<circle class="st173" cx="54.5" cy="47" r="0.7"/>
						<circle class="st174" cx="54.5" cy="47" r="0.7"/>
						<circle class="st175" cx="54.5" cy="47" r="0.6"/>
						<circle class="st176" cx="54.5" cy="47" r="0.6"/>
						<circle class="st177" cx="54.5" cy="47" r="0.6"/>
						<circle class="st178" cx="54.5" cy="47" r="0.6"/>
						<circle class="st179" cx="54.5" cy="47" r="0.6"/>
						<circle class="st180" cx="54.5" cy="47" r="0.5"/>
						<circle class="st181" cx="54.5" cy="47" r="0.5"/>
						<circle class="st182" cx="54.5" cy="47" r="0.5"/>
						<circle class="st183" cx="54.5" cy="47" r="0.5"/>
						<circle class="st184" cx="54.5" cy="47" r="0.4"/>
						<circle class="st185" cx="54.5" cy="47" r="0.4"/>
						<circle class="st186" cx="54.5" cy="47" r="0.4"/>
						<circle class="st187" cx="54.5" cy="47" r="0.4"/>
						<circle class="st188" cx="54.5" cy="47" r="0.4"/>
						<circle class="st189" cx="54.5" cy="47" r="0.3"/>
						<circle class="st190" cx="54.5" cy="47" r="0.3"/>
						<circle class="st191" cx="54.5" cy="47" r="0.3"/>
						<circle class="st192" cx="54.5" cy="47" r="0.3"/>
						<circle class="st193" cx="54.5" cy="47" r="0.3"/>
						<circle class="st194" cx="54.5" cy="47" r="0.2"/>
						<circle class="st195" cx="54.5" cy="47" r="0.2"/>
						<circle class="st196" cx="54.5" cy="47" r="0.2"/>
						<circle class="st197" cx="54.5" cy="47" r="0.2"/>
						<circle class="st198" cx="54.5" cy="47" r="0.2"/>
						<circle class="st199" cx="54.5" cy="47" r="0.1"/>
						<circle class="st200" cx="54.5" cy="47" r="0.1"/>
						<circle class="st201" cx="54.5" cy="47" r="0.1"/>
						<circle class="st202" cx="54.5" cy="47" r="0.1"/>
						<rect x="54.5" y="47" class="st203" width="0" height="0"/>
						<rect x="54.5" y="47" class="st204" width="0" height="0"/>
					</g>
				</g>
			</g>
			<path d="M54.5,51.4c-0.8,0-1.5-0.5-2-1.3s-0.8-1.9-0.8-3s0.3-2.2,0.8-3s1.2-1.3,2-1.3s1.5,0.5,2,1.3s0.8,1.9,0.8,3
				s-0.3,2.2-0.8,3C55.9,51,55.2,51.4,54.5,51.4z M54.5,43.1c-1.3,0-2.4,1.8-2.4,4s1.1,4,2.4,4s2.4-1.8,2.4-4
				C56.9,44.9,55.8,43.1,54.5,43.1z"/>
		</g>
		<g>
			<path class="st206" d="M82.8,61.8c-3.7-2.7-11.3-3.4-19.4-4.1c-6.8-0.6-13.9-1.2-18.5-3.1C35.8,51,30.5,43.2,31.8,35.3
				c0.6-3.7,2.3-6.6,3.7-8.5c2.2,0.5,5.6-0.4,8-3.3c2.9-3.5,4.8-5.3,8.2-8.3c-3.7-1-8.6-0.3-11.4,0.6c-4.1,1.4-7,4-6.9,8
				c-2.6,3-4.4,6.9-5,10.8c-1.5,9.6,4.6,18.8,15.3,23.1c5.1,2.1,12.4,2.7,19.5,3.3c7.2,0.6,14.7,1.3,17.6,3.5
				c1.9,1.4,2.9,3.1,2.9,5.1c0,2.7-1.9,5.6-4.9,7.7C72.7,81.6,65.1,83,65,83c-1,0.2-1.6,1.1-1.4,2s1.1,1.6,2,1.4
				c0.3-0.1,8.5-1.5,15.1-6.2c3.9-2.8,6.3-6.7,6.4-10.5C87,67.6,86.3,64.5,82.8,61.8L82.8,61.8L82.8,61.8z"/>
			<path d="M65.3,86.7c-1,0-1.8-0.7-2-1.6c-0.2-1.1,0.5-2.1,1.6-2.3c0.1,0,7.7-1.4,13.6-5.6c2.9-2.1,4.8-4.9,4.8-7.5
				c0-1.9-0.9-3.5-2.8-4.9C77.7,62.7,70.2,62,63,61.4c-7-0.7-14.4-1.3-19.5-3.4c-10.8-4.3-17-13.7-15.5-23.4c0.3-2,0.9-3.9,1.8-5.8
				c0.9-1.8,1.9-3.6,3.2-5.1c0-2,0.7-3.7,2-5.1c1.2-1.3,2.9-2.3,5.1-3.1c3-1,7.9-1.6,11.5-0.7c0.1,0,0.2,0.1,0.2,0.2
				c0,0.1,0,0.2-0.1,0.3c-3.4,3-5.3,4.8-8.1,8.2c-1.1,1.4-2.6,2.4-4.2,3c-1.4,0.5-2.8,0.6-3.9,0.4c-1.3,1.7-3,4.6-3.6,8.3
				c-1.2,7.8,4,15.5,13,19.1c4.6,1.8,11.6,2.5,18.5,3.1c8.1,0.7,15.7,1.4,19.5,4.2c3.6,2.7,4.4,5.9,4.4,8.1c0,3.9-2.5,7.9-6.5,10.7
				c-6.6,4.7-14.8,6.2-15.2,6.2C65.5,86.7,65.4,86.8,65.3,86.7L65.3,86.7z M47.5,14.9c-0.6,0-1.2,0-1.8,0.1c-1.9,0.2-3.8,0.5-5.3,1
				c-2.1,0.7-3.8,1.7-4.9,3c-1.2,1.3-1.9,3-1.8,4.8c0,0.1,0,0.1-0.1,0.2c-1.3,1.5-2.3,3.2-3.2,5c-0.9,1.9-1.5,3.8-1.8,5.7
				c-1.5,9.4,4.6,18.6,15.1,22.8c5.1,2,12.4,2.7,19.4,3.3c7.3,0.6,14.8,1.3,17.7,3.5c2,1.5,3,3.3,3,5.3c0,2.7-1.9,5.8-5,7.9
				c-6,4.2-13.7,5.6-13.8,5.6c-0.8,0.1-1.4,0.9-1.2,1.7c0.1,0.8,0.9,1.4,1.7,1.2c0.3-0.1,8.4-1.5,15-6.2c3.9-2.7,6.2-6.6,6.3-10.3
				c0-2.1-0.7-5.1-4.2-7.7l0,0c-3.6-2.7-11.2-3.4-19.2-4.1c-6.9-0.6-13.9-1.2-18.6-3.1C35.6,50.9,30.2,43,31.5,35
				c0.6-3.9,2.4-6.8,3.8-8.6c0.1-0.1,0.2-0.1,0.3-0.1c1.1,0.2,2.5,0.1,3.8-0.4c1.5-0.6,2.9-1.6,4-2.8c2.8-3.4,4.6-5.2,7.8-8
				C50,15.1,48.8,15,47.5,14.9L47.5,14.9z"/>
		</g>
		<g>
			<path class="st206" d="M93.6,99.6c-1.1-1.3-6.4-4.3-10.6-6.1c-2.3-1-6.9-2.1-8.9-3s-4.9-2.7-5.4-3c-0.4-0.3-0.7-1.2,0.1-2.3
				c0.8-1,2.7-3,3.1-5.3c0.3-1.3,0.4-3.1,0-5.2c-0.3-2.4-2.8-8.1-3.1-9.5c0.2,0.1,0.4,0.1,0.6,0.2c2.7,0.9,4.3,1.2,5.4,1.2
				c0.2,0.2,0.4,0.4,0.6,0.7c1.2,1.2,2.5,1.9,2.8,1.6s-0.5-1.5-1.7-2.7c-0.1-0.1-0.1-0.1-0.2-0.2l0,0c0.3,0.2,0.6,0.3,0.9,0.4
				c1.6,0.7,3,1,3.2,0.6s-1-1.3-2.5-2c-0.3-0.2-0.7-0.3-1-0.4c0-0.1,0-0.2,0-0.2c0.2,0,0.3,0.1,0.5,0.1c1.7,0.4,3.1,0.3,3.2-0.1
				s-1.2-1-2.9-1.4c-0.7-0.2-1.4-0.3-2-0.3c-1.1-1-2.9-2-5-2.7c-1.1-0.4-2.1-0.9-3-1.2c-2.3-2.7-2.3-6.2-2.3-6.2l-10.1-0.3
				c0,0,0.8,2.6-1.2,5.8c-1.6-0.1-3.3,1.6-5.7,3.1c-1.9,1.1-3.5,2.5-4.3,3.7c-0.5,0.1-1.2,0.3-1.9,0.6c-1.6,0.7-2.7,1.6-2.6,2
				c0.2,0.4,1.6,0.1,3.2-0.6c0.1-0.1,0.3-0.1,0.4-0.2c0,0.1,0,0.2,0,0.2c-0.3,0.2-0.6,0.4-0.9,0.6c-1.4,1-2.3,2.1-2.1,2.5
				c0.3,0.3,1.6-0.2,3-1.2c0.3-0.2,0.6-0.4,0.8-0.7l0,0c0,0-0.1,0.1-0.1,0.2c-1,1.4-1.5,2.8-1.1,3c0.3,0.2,1.4-0.7,2.4-2.2
				c0.2-0.3,0.3-0.5,0.5-0.8c1-0.2,2.6-0.8,5-2.3c0.3-0.2,0.5-0.3,0.8-0.5c-0.4,0.9-3.5,7.4-3.7,10.1c-0.3,3.8,0.7,6.3,1.8,8.1
				c1.1,1.7,1.6,2.4,1.7,3.1c0.1,0.7,0.4,1-0.6,1.2c-1.1,0.2-2.4,0.3-5.6,1.4c-3.1,1.1-6.9,2.4-9.3,3.5c-2.3,1-4.1,1.8-5.8,3.3
				c-1.7,1.5-3.9,4.4-3.9,5s-1.1,1.7-0.1,2.4c1,0.7,0.6,0.5,1.3,1c0.7,0.5,3,0.7,4.5-0.3s5.4-3.8,7.2-4.9c1.8-1,1.4-1.1,6.2-3.4
				s7.6-2.9,8.8-4s1.9-0.9,2-2s-0.3-1.5-0.5-2c-0.1-0.4,0.4-1.4,0.9-2c1,0.2,2,0.3,3,0.3c1.3,0,2.6-0.2,3.9-0.5
				c0.2,0.2,0.3,0.4,0.2,0.7c-0.1,0.6-0.8,1.2-0.6,2c0.2,0.7,1.5,1.8,2.3,2.3c0.8,0.6,3.7,1.7,6.2,3.3c2.6,1.6,7.3,4.1,9.4,5.5
				c2.5,1.7,4.6,3.3,5.6,4s2.5,1.6,3.5,1.4c1-0.1,1.4-0.5,1.6-0.9c0.1-0.4-0.1-0.1,0.7-0.1c0.8,0,1.6-0.4,1.6-1
				c0.1-0.5,0.7-2.4-0.4-3.7l0,0L93.6,99.6z"/>
			<path d="M89.9,105.6c-1.1,0-2.4-0.9-3.4-1.5c-0.4-0.3-1-0.7-1.7-1.2c-1.1-0.8-2.4-1.8-3.9-2.8c-1.1-0.7-2.8-1.7-4.7-2.7
				c-1.7-1-3.4-1.9-4.7-2.7c-1.6-1-3.3-1.8-4.5-2.4c-0.8-0.4-1.4-0.7-1.7-0.9c-0.3-0.2-2.1-1.5-2.4-2.5c-0.2-0.6,0.1-1.1,0.3-1.5
				c0.1-0.2,0.2-0.4,0.3-0.6c0-0.1,0-0.3-0.1-0.4c-1.2,0.3-2.5,0.5-3.7,0.5l0,0c-1,0-1.9-0.1-2.9-0.3c-0.5,0.8-0.8,1.5-0.8,1.7
				c0,0.1,0.1,0.3,0.2,0.4c0.2,0.4,0.4,0.9,0.3,1.7c-0.1,0.8-0.5,1-1,1.4c-0.3,0.2-0.7,0.4-1.1,0.8c-0.7,0.6-1.8,1.1-3.6,1.8
				c-1.4,0.5-3.1,1.2-5.3,2.3c-3.5,1.6-4.3,2.2-5.1,2.7c-0.3,0.2-0.6,0.4-1.1,0.7c-1.2,0.7-3.6,2.4-5.4,3.6c-0.7,0.5-1.4,1-1.8,1.3
				c-0.7,0.5-1.7,0.8-2.7,0.8c-0.9,0-1.7-0.2-2.1-0.5c-0.3-0.2-0.4-0.3-0.5-0.4s-0.2-0.2-0.8-0.6c-0.8-0.6-0.4-1.4-0.2-2
				c0.1-0.2,0.2-0.4,0.2-0.6c0-0.5,0.8-1.6,1.3-2.3c0.8-1.1,1.8-2.2,2.6-2.9c1.6-1.4,3.3-2.2,5.3-3c0.2-0.1,0.4-0.2,0.6-0.3
				c2.1-0.9,5.2-2,8-3c0.4-0.2,0.9-0.3,1.3-0.5c2.5-0.9,3.9-1.1,4.9-1.3c0.3,0,0.5-0.1,0.7-0.1c0.4-0.1,0.5-0.2,0.5-0.2
				c0-0.1,0-0.2,0-0.3c0-0.1-0.1-0.3-0.1-0.4c-0.1-0.5-0.4-1.1-1.2-2.3c-0.1-0.2-0.3-0.5-0.5-0.7c-0.7-1-1.1-2.1-1.5-3.3
				c-0.4-1.5-0.5-3.1-0.4-4.9c0.1-1.6,1.3-4.9,3.4-9.5l-0.1,0.1c-2.2,1.3-3.8,2-5,2.3c-0.1,0.2-0.3,0.5-0.4,0.7
				c-0.5,0.7-1,1.3-1.5,1.7c-0.6,0.5-1,0.7-1.3,0.5s-0.3-0.6,0-1.4c0.1-0.3,0.3-0.7,0.5-1c-0.6,0.4-1.2,0.8-1.7,1
				c-0.7,0.3-1.2,0.3-1.4,0s-0.1-0.7,0.4-1.3c0.3-0.4,0.9-0.9,1.5-1.3c-0.4,0.2-0.9,0.3-1.2,0.3c-0.8,0.1-1.2,0-1.3-0.3
				s0.1-0.7,0.7-1.2c0.5-0.4,1.2-0.8,2-1.1c0.6-0.3,1.3-0.5,1.8-0.6c1-1.2,2.5-2.6,4.4-3.7c0.7-0.4,1.4-0.9,2-1.3
				c1.4-1,2.6-1.8,3.7-1.8c1-1.5,1.2-2.9,1.2-3.8c0-1-0.2-1.6-0.2-1.6c0-0.1,0-0.2,0-0.2c0.1-0.1,0.1-0.1,0.2-0.1l10.1,0.3
				c0.1,0,0.3,0.1,0.3,0.3c0,0,0.1,3.4,2.2,6c0.2,0.1,0.5,0.2,0.7,0.3c0.7,0.3,1.5,0.6,2.3,0.9c2,0.7,3.8,1.7,5,2.7
				c0.6,0,1.3,0.1,1.9,0.3c0.8,0.2,1.6,0.4,2.2,0.7c0.7,0.3,1,0.7,0.9,1s-0.5,0.5-1.3,0.5c-0.4,0-0.8,0-1.2-0.1
				c0.7,0.3,1.3,0.7,1.7,1c0.6,0.5,0.8,0.9,0.7,1.2c-0.1,0.3-0.6,0.4-1.3,0.3c-0.5-0.1-1.2-0.3-1.9-0.6c0.3,0.3,0.5,0.6,0.7,0.9
				c0.4,0.7,0.5,1.1,0.3,1.3c-0.2,0.3-0.7,0.2-1.4-0.2c-0.5-0.3-1.2-0.8-1.8-1.4c-0.2-0.2-0.4-0.4-0.6-0.6c-1.2,0-3-0.4-5.4-1.2
				c-0.1,0-0.1,0-0.2-0.1c0.2,0.7,0.6,1.7,1,2.9c0.8,2.3,1.8,4.8,2,6.3c0.3,1.7,0.3,3.5,0,5.3c-0.4,2-1.9,3.8-2.9,4.9
				c-0.1,0.2-0.3,0.3-0.3,0.4c-0.8,0.9-0.4,1.6-0.1,1.9s3.3,2.1,5.3,3c1,0.4,2.6,1,4.4,1.5c1.6,0.5,3.4,1,4.5,1.5
				c4.3,1.8,9.5,4.8,10.7,6.2l0,0c1,1.2,0.7,2.8,0.5,3.6c0,0.1-0.1,0.3-0.1,0.3c-0.1,0.7-1,1.2-1.9,1.2c-0.2,0-0.3,0-0.5,0
				c-0.2,0.5-0.8,0.9-1.7,1C90.1,105.5,90,105.5,89.9,105.6L89.9,105.6z M63.5,85.8c0,0,0.2,0,0.2,0.1c0.2,0.3,0.3,0.6,0.3,0.9
				s-0.2,0.5-0.3,0.8c-0.2,0.4-0.4,0.7-0.3,1.1c0.2,0.6,1.3,1.5,2.3,2.2c0.3,0.2,0.9,0.5,1.7,0.9c1.2,0.6,3,1.4,4.5,2.5
				c1.2,0.8,3,1.8,4.7,2.7c1.9,1,3.6,2,4.7,2.8c1.5,1,2.9,2,4,2.8c0.7,0.5,1.3,0.9,1.7,1.2c0.6,0.4,2.3,1.6,3.3,1.4
				c0.8-0.1,1.2-0.3,1.3-0.7c0-0.1,0-0.1,0-0.1c0-0.1,0-0.2,0.1-0.2c0.1-0.1,0.2,0,0.3,0c0,0,0.2,0.1,0.5,0.1c0.7,0,1.3-0.4,1.4-0.8
				c0-0.1,0-0.2,0.1-0.4c0.2-0.8,0.5-2.2-0.4-3.1l0,0c-1.1-1.3-6.3-4.3-10.5-6c-1.1-0.5-2.8-1-4.5-1.5s-3.4-1-4.4-1.5
				c-2-0.9-5-2.7-5.4-3s-0.9-1.4,0.1-2.6c0.1-0.1,0.2-0.3,0.4-0.4c0.9-1.1,2.4-2.8,2.7-4.7c0.3-1.7,0.3-3.4,0-5.1l0,0
				c-0.2-1.4-1.2-4-2-6.2c-0.5-1.5-1-2.8-1.1-3.4c0-0.1,0-0.2,0.1-0.2c0.1-0.1,0.2-0.1,0.3-0.1c0.3,0.1,0.5,0.2,0.7,0.2
				c2.4,0.8,4.2,1.2,5.3,1.2c0.1,0,0.2,0,0.2,0.1c0.2,0.2,0.4,0.4,0.6,0.6c0.5,0.5,1.1,1,1.6,1.3s0.8,0.3,0.8,0.3
				c0-0.1,0-0.3-0.4-0.8c-0.3-0.5-0.8-1-1.3-1.6c-0.1-0.1-0.1-0.1-0.2-0.2s-0.1-0.3,0-0.3l0,0c0.1-0.1,0.2-0.1,0.3-0.1
				c0.3,0.2,0.6,0.3,0.9,0.5c0.7,0.3,1.4,0.5,1.9,0.7c0.6,0.1,0.8,0.1,0.9,0c0-0.1-0.1-0.3-0.6-0.6c-0.5-0.3-1.1-0.7-1.8-1
				c-0.3-0.2-0.7-0.3-1-0.4c-0.1,0-0.2-0.1-0.2-0.2s0-0.1,0-0.2s0-0.2,0.1-0.2c0.1-0.1,0.2-0.1,0.2-0.1c0.2,0,0.3,0.1,0.4,0.1
				c0.7,0.2,1.5,0.3,2,0.3l0,0c0.6,0,0.8-0.1,0.9-0.1c0-0.1-0.2-0.2-0.7-0.5c-0.5-0.2-1.2-0.5-1.9-0.6c-0.7-0.2-1.4-0.2-1.9-0.3
				c-0.1,0-0.1,0-0.2-0.1c-1.1-1-2.9-2-4.9-2.7c-0.8-0.3-1.6-0.6-2.3-0.9c-0.3-0.1-0.5-0.2-0.8-0.3c0,0-0.1,0-0.1-0.1
				c-0.7-0.8-1.6-2.2-2.1-4.2c-0.2-0.9-0.3-1.6-0.3-1.9l-9.5-0.3c0.1,0.3,0.1,0.8,0.1,1.5c0,1-0.3,2.5-1.4,4.2
				c-0.1,0.1-0.1,0.1-0.2,0.1c-1-0.1-2.2,0.8-3.5,1.7c-0.6,0.4-1.3,0.9-2.1,1.4c-1.8,1.1-3.4,2.4-4.3,3.6c0,0-0.1,0.1-0.2,0.1
				c-0.5,0.1-1.2,0.3-1.8,0.6c-0.7,0.3-1.3,0.7-1.8,1c-0.5,0.4-0.6,0.6-0.6,0.6c0.1,0,0.3,0.1,0.9,0c0.6-0.1,1.2-0.3,1.9-0.7
				c0.1-0.1,0.3-0.1,0.4-0.2c0.1,0,0.2,0,0.3,0s0.1,0.1,0.1,0.2s0,0.1,0,0.2s0,0.2-0.1,0.3c-0.3,0.2-0.6,0.4-0.9,0.6
				c-0.6,0.4-1.2,0.9-1.5,1.4c-0.4,0.5-0.5,0.7-0.5,0.8c0.1,0,0.3,0,0.9-0.2c0.5-0.2,1.1-0.6,1.8-1c0.3-0.2,0.5-0.4,0.8-0.6
				c0.1-0.1,0.2-0.1,0.3,0l0,0c0.1,0.1,0.1,0.3,0.1,0.4s-0.1,0.1-0.1,0.2c-0.4,0.6-0.8,1.3-1,1.8C43,71,43,71.2,43,71.3
				c0.1,0,0.3-0.1,0.7-0.5s0.9-1,1.3-1.6c0.2-0.3,0.3-0.5,0.5-0.8c0-0.1,0.1-0.1,0.2-0.1c1.1-0.2,2.7-0.9,4.9-2.2
				c0.3-0.2,0.6-0.3,0.8-0.5c0.1-0.1,0.2,0,0.3,0c0.1,0.1,0.1,0.2,0.1,0.3c0,0.1-0.1,0.2-0.1,0.3c-2.8,6-3.5,8.7-3.6,9.8
				c-0.3,3,0.3,5.6,1.8,7.9c0.2,0.3,0.3,0.5,0.5,0.7c0.8,1.2,1.2,1.9,1.3,2.5c0,0.1,0,0.2,0.1,0.3c0.1,0.3,0.1,0.5,0,0.7
				s-0.4,0.3-0.9,0.4c-0.2,0-0.5,0.1-0.7,0.1c-1,0.2-2.3,0.4-4.8,1.2c-0.4,0.2-0.9,0.3-1.3,0.5c-2.8,1-5.9,2.1-7.9,3
				c-0.2,0.1-0.4,0.2-0.6,0.3c-2,0.9-3.7,1.6-5.2,3c-0.8,0.7-1.7,1.7-2.5,2.8c-0.9,1.2-1.2,1.8-1.2,2c0,0.3-0.1,0.5-0.3,0.8
				c-0.3,0.6-0.4,1.1,0,1.4c0.6,0.4,0.7,0.5,0.8,0.6c0.1,0.1,0.2,0.2,0.5,0.4c0.6,0.5,2.8,0.7,4.2-0.3c0.4-0.3,1.1-0.7,1.8-1.2
				c1.8-1.3,4.1-2.9,5.4-3.6c0.5-0.3,0.8-0.5,1.1-0.7c0.8-0.5,1.6-1.1,5.1-2.7c2.2-1,3.9-1.7,5.3-2.3c1.7-0.7,2.8-1.1,3.4-1.7
				c0.4-0.4,0.9-0.7,1.2-0.8c0.5-0.3,0.7-0.4,0.8-1c0.1-0.7-0.1-1.1-0.3-1.4c-0.1-0.2-0.2-0.3-0.2-0.5c-0.1-0.6,0.8-2,0.9-2.2
				c0.1-0.1,0.2-0.1,0.3-0.1c1,0.2,2,0.3,3,0.3l0,0C60.9,86.4,62.1,86.2,63.5,85.8C63.4,85.9,63.4,85.9,63.5,85.8L63.5,85.8z"/>
		</g>
		<g>
			<path class="st206" d="M67.7,54.7c-1.1,1.5-3.7,2.6-6.8,2.6c-2.9,0-5.4-1-6.6-2.3c-5.7-1.4-9.7-4.8-9.8-8.8
				c-0.1-1.4,0.3-2.7,1.1-3.9L45.5,42c0,0-2.3-2.2-2-7.8c3.3-0.2,5.8,0.6,7.2,1.2c2.1-1.9,5.7-3.2,9.8-3.2c3.2,0,6.2,0.8,8.3,2
				c1.1-0.5,3.8-1.5,7.4-1.4c0.2,3.5-0.8,5.6-1.4,6.6c1.7,1.5,2.8,3.4,2.9,5.4C77.8,49.2,73.7,53,67.7,54.7L67.7,54.7L67.7,54.7z
				 M55.6,45.7c-1-2.3-2.8-3.6-3.9-3.1c-0.1,0.1-0.3,0.2-0.4,0.3c-0.8,0.5-1.4,1.6-1.5,2.9c-0.2,1.9,0.6,3.6,1.8,3.7
				c0.3,0,0.6,0,0.9-0.2c1,1.2,2.1,1.8,2.9,1.5C56.5,50.2,56.6,47.9,55.6,45.7L55.6,45.7z M67.7,50.7c0.8,0.4,2-0.2,2.9-1.5
				c0.3,0.1,0.6,0.2,0.9,0.2c1.2-0.2,2-1.8,1.8-3.7c-0.2-1.3-0.8-2.4-1.5-2.9c-0.1-0.1-0.2-0.2-0.4-0.3c-1.1-0.5-2.9,0.9-3.9,3.1
				C66.5,47.9,66.6,50.2,67.7,50.7L67.7,50.7z"/>
			<path d="M60.9,57.6c-2.8,0-5.4-0.9-6.7-2.4c-2.8-0.7-5.3-1.9-7-3.5c-1.8-1.6-2.9-3.6-2.9-5.6c0-1.3,0.3-2.7,1.1-3.9l0,0
				c-0.1-0.1-0.6-0.7-1.1-1.9s-1.1-3.2-0.9-6.1c0-0.1,0.1-0.2,0.2-0.2c3.1-0.2,5.6,0.5,7.2,1.1c2.2-2,5.9-3.1,9.9-3.1
				c3.1,0,6.1,0.7,8.3,2c1.3-0.6,3.9-1.5,7.4-1.3c0.1,0,0.2,0.1,0.2,0.2c0.1,1.6-0.1,3-0.4,4.3c-0.3,1-0.6,1.7-0.9,2.2
				c1.8,1.6,2.7,3.5,2.8,5.5c0.1,2.1-0.9,4.2-2.8,6c-1.8,1.7-4.3,3.1-7.3,4C66.6,56.6,63.8,57.6,60.9,57.6L60.9,57.6z M43.7,34.5
				c-0.1,1.5,0.1,3.7,0.9,5.6c0.5,1.2,1,1.7,1.1,1.8l0,0l0.1,0.2c0,0,0.1,0.2,0,0.3c-0.8,1.2-1.1,2.5-1.1,3.8c0.1,1.9,1,3.7,2.8,5.2
				c1.7,1.5,4.1,2.7,6.9,3.4c0.1,0,0.1,0,0.1,0.1c0.6,0.7,1.5,1.2,2.6,1.6c1.1,0.4,2.5,0.6,3.8,0.6c1.5,0,2.9-0.3,4-0.7
				c1.1-0.4,2-1.1,2.6-1.8l0.1-0.1c3-0.9,5.4-2.2,7.2-3.9c1.8-1.7,2.7-3.6,2.6-5.6c-0.1-1.9-1-3.7-2.8-5.3c-0.1-0.1-0.1-0.2,0-0.3
				c0.6-0.9,1.5-2.9,1.4-6.2c-3.4-0.1-5.8,0.8-7,1.3c-0.1,0-0.2,0-0.2,0c-2.2-1.3-5.1-2-8.2-2c-2,0-3.9,0.3-5.6,0.9
				c-1.6,0.5-3,1.3-4,2.3c-0.1,0.1-0.2,0.1-0.3,0C49.1,35.1,46.7,34.4,43.7,34.5L43.7,34.5z M54.8,51c-0.8,0-1.7-0.5-2.5-1.5
				c-0.3,0.1-0.6,0.2-0.9,0.1c-0.7-0.1-1.3-0.6-1.6-1.3s-0.5-1.7-0.4-2.7c0.2-1.3,0.8-2.5,1.6-3c0.1-0.1,0.3-0.2,0.4-0.3
				c0.6-0.3,1.5-0.1,2.3,0.5s1.5,1.6,2,2.7c1.1,2.4,1,4.8-0.3,5.4C55.3,51,55.1,51.1,54.8,51L54.8,51z M52.4,49c0,0,0.2,0,0.2,0.1
				c0.9,1.1,1.9,1.7,2.6,1.4c1-0.5,1-2.6,0.1-4.7c-0.5-1-1.1-1.9-1.8-2.5c-0.7-0.5-1.3-0.7-1.7-0.5c-0.1,0.1-0.2,0.1-0.3,0.2l0,0
				c-0.7,0.5-1.3,1.5-1.4,2.7c-0.1,0.9,0,1.7,0.3,2.4c0.3,0.6,0.7,1,1.2,1.1C51.8,49.2,52.1,49.1,52.4,49L52.4,49L52.4,49z M68.3,51
				c-0.2,0-0.4,0-0.6-0.1c-0.6-0.3-1-1-1.1-2.1c0-1,0.2-2.2,0.7-3.3s1.2-2.1,2-2.7c0.8-0.7,1.6-0.9,2.3-0.5c0.2,0.1,0.3,0.2,0.4,0.3
				c0.8,0.6,1.5,1.7,1.6,3c0.1,1,0,1.9-0.4,2.7s-1,1.3-1.6,1.3c-0.3,0-0.6,0-0.9-0.1C69.9,50.5,69,51,68.3,51z M67.8,50.4
				c0.7,0.3,1.7-0.2,2.6-1.4c0.1-0.1,0.2-0.1,0.3-0.1c0.3,0.1,0.5,0.2,0.8,0.1c0.5-0.1,1-0.4,1.2-1.1c0.3-0.7,0.4-1.5,0.3-2.4
				c-0.2-1.2-0.7-2.2-1.4-2.7l0,0c-0.1-0.1-0.2-0.2-0.3-0.2c-0.5-0.2-1.1,0-1.7,0.5c-0.7,0.6-1.4,1.5-1.8,2.5c-0.5,1-0.7,2.1-0.7,3
				C67.1,49.6,67.4,50.2,67.8,50.4L67.8,50.4z"/>
		</g>
		<path d="M66.2,45.7L66.2,45.7c-0.2-0.1-0.3-0.2-0.3-0.3s0.6-1.6,1.4-2.4c0.1-0.1,0.3-0.1,0.3,0c0.1,0.1,0.1,0.3,0,0.3
			c-0.7,0.7-1.3,2.2-1.3,2.2C66.4,45.6,66.3,45.7,66.2,45.7L66.2,45.7z M57.4,45.4c-0.1,0-0.2-0.1-0.2-0.2c-0.4-1.1-1.1-2.4-1.1-2.4
			c-0.1-0.1,0-0.3,0.1-0.3c0.1-0.1,0.3,0,0.3,0.1c0,0,0.7,1.3,1.1,2.4C57.7,45.2,57.6,45.3,57.4,45.4L57.4,45.4L57.4,45.4z"/>
		<path d="M27.2,104.5c0,0-0.1,0-0.2-0.1s-0.1-0.3,0-0.3c0.1-0.1,3-3.5,5.8-5.2c0.1-0.1,0.3,0,0.3,0.1c0.1,0.1,0,0.3-0.1,0.3
			c-2.8,1.7-5.6,5-5.7,5C27.4,104.4,27.3,104.5,27.2,104.5L27.2,104.5z M91.6,104.2c0,0-0.1,0-0.2-0.1c0,0-2.6-3-5.2-4.2
			C86,99.8,86,99.7,86,99.6c0.1-0.1,0.2-0.2,0.3-0.1c2.8,1.2,5.3,4.2,5.4,4.3c0.1,0.1,0.1,0.3,0,0.3
			C91.7,104.2,91.6,104.2,91.6,104.2L91.6,104.2z M94,102.3L94,102.3c-0.2,0-5.4-3.5-6.5-3.9c-0.1,0-0.2-0.2-0.2-0.3
			c0-0.1,0.2-0.2,0.3-0.2c1.1,0.4,6.3,3.8,6.5,4c0.1,0.1,0.2,0.2,0.1,0.3C94.1,102.2,94,102.2,94,102.3L94,102.3z M26.4,101.9
			c0,0-0.1,0-0.2-0.1s-0.1-0.3,0-0.3c0.1-0.1,3.3-3.2,5.2-4.1c0.1-0.1,0.3,0,0.3,0.1c0.1,0.1,0,0.3-0.1,0.3
			C29.8,98.7,26.6,101.8,26.4,101.9C26.5,101.9,26.5,101.9,26.4,101.9L26.4,101.9z M56.5,86.6L56.5,86.6c-0.2-0.1-0.3-0.2-0.2-0.3
			c0,0,1-1.5,1.3-2.9c0.5-2.3,0.1-4.8-1.2-7.6c-0.1-0.1,0-0.3,0.1-0.3c0.1-0.1,0.3,0,0.3,0.1c1.4,2.9,1.8,5.5,1.3,7.9
			c-0.3,1.5-1.3,3-1.3,3.1C56.7,86.6,56.6,86.6,56.5,86.6L56.5,86.6z M63.5,86.2c-0.1,0-0.2-0.1-0.2-0.2c-0.1-0.1,0-0.3,0.1-0.3
			c0,0,3.5-1.5,4.6-4.3c0.8-2.1,1.3-5.1,0.7-6.7c-0.1-0.1,0-0.3,0.1-0.3c0.1-0.1,0.3,0,0.3,0.1c0.5,1.2,0.6,4-0.7,7.1
			c-0.3,0.9-1.1,2.2-2.9,3.5C64.6,85.8,63.7,86.2,63.5,86.2C63.6,86.2,63.6,86.2,63.5,86.2L63.5,86.2z"/>
		<g>
			<path class="st207" d="M63.7,87.2c0,0-0.5,0.6-0.4,1s0.3,0.7,0.8,1.3c1.1,1.6,4.5,2.4,5.6,3.1c1,0.7,4,2.3,5.2,3s3.6,2.1,4.4,2.7
				c0.8,0.5,2.6,1.6,3.4,2.3c0.8,0.7,4.3,2.9,4.8,3.4c0.4,0.5,1.9,0.9,2.2,0.9c0.3,0,1.1-0.3,1.1-0.3s-3.6-2.5-4.7-3.3
				s-3.6-2-4.4-2.8c-0.9-0.9-6.6-4-8.4-5.1c-1.7-1.1-4.9-2.9-6.4-3.8s-2-1.1-2-1.8C64.6,86.9,63.8,85.5,63.7,87.2L63.7,87.2
				L63.7,87.2z M55.7,89.4c0,0,0.3,0.6-0.5,1.4s-1.9,1.5-2.8,1.8c-0.9,0.3-5.4,2.6-7.1,3.2c-1.7,0.6-1.7,0.8-2.8,1.3s-4.1,2.3-5.1,3
				s-3.1,2.1-3.1,2.1s2.9-3,4.3-4.2c1.5-1.2,9-4.7,10.7-5.6c1.7-0.8,3.6-0.9,4.4-1.7C54.6,90,55.2,89,55.7,89.4L55.7,89.4z
				 M56.7,75.5c0,0,1.7,1.9,2.3,3.8s0.4,3.7,0.7,4.4s2.3,0.6,3.5,0.3c1.1-0.3,3.5-0.5,4.1-0.9s-0.9,0.6-1.4,1.2s-2.5,1.6-3.5,1.8
				s-3.5,0.2-4.2,0.2s-1.1-0.2-1.1-0.2s0.6-0.5,0.9-1.7c0.3-1.1,0.6-2.9,0.5-3.8S58.3,78.7,58,78C57.5,77.3,56.7,75.5,56.7,75.5
				L56.7,75.5L56.7,75.5z M55.9,56.3c0,0,2.1,1,4.3,1c2.1,0.1,3-0.1,4-0.4c1-0.3,1.6-0.6,1.6-0.6l-0.2,0.8c0,0-0.3,0.5-1.2,1
				c-1.7,1-3.4,1-4.9,0.5c-0.9-0.3-2.2-0.7-3.1-1.5C56.2,57,55.9,56.3,55.9,56.3L55.9,56.3L55.9,56.3z M68.8,65.6
				c0,0,1.4,4.2,1.9,5.5c0.6,1.3,1,3.2,1.2,4.6s0.1,4-0.5,5.2c-0.6,1.3-1.2,2.4-1.9,3.2c-0.7,0.8-1,1.2-0.6-0.3
				c0.4-1.4,1.4-2.4,1.8-4.3c0.4-1.7,0.3-3.7-0.2-6.1C70.2,72,68.8,65.6,68.8,65.6z M77.3,44.6c0,0-0.1,2.5-1,4.1
				c-1,1.7-2.1,2.4-2.8,3c-0.8,0.6-1.3,0.9-2.5,1.5s-2.7,1.1-3,1.3s0.2,0.1-0.7-0.7c-0.9-0.8,0-1.6,1-1.7c1.4-0.2,1.9,0,3.7-0.8
				s2.5-1.3,3.7-3.1C76.9,46.4,76.7,45.1,77.3,44.6L77.3,44.6z M44.8,45.1c0,0-0.3,2.1,0.8,4c1,1.7,2.1,2.4,2.8,3s1.3,0.9,2.5,1.5
				s2.8,1,3.1,1.1c0.4,0.1,0.5,0.3,0.6-0.5c0.2-1.2,0.8-1.7-1-1.7c-1.4,0-1.9,0-3.7-0.8s-2.5-1.3-3.7-3.1
				C45,46.8,45.4,45.6,44.8,45.1L44.8,45.1z M43.7,34.6c0,0-0.1,2.9,0.6,4.9c0.5,1.4,1.5,2.7,1.5,2.7s0.5-0.9,1.2-1.5
				C47.7,40,44.1,36.9,43.7,34.6L43.7,34.6L43.7,34.6z M75.8,33.1c0,0,0.3,2.6-0.6,4.9c-0.5,1.4-0.8,1.5-0.8,1.5s-0.5-0.9-1.2-1.5
				S75.2,37.3,75.8,33.1L75.8,33.1z M51.1,15.3c0,0-2.7,2.5-3.8,3.5s-2.4,2.3-3,3.2c-0.6,0.9-1.5,1.7-2,2.3
				c-0.6,0.6-2.8,1.7-2.8,1.7s1-0.8,2.1-2s1.7-2.4,2.8-4.2C45.5,18.1,47.1,15.2,51.1,15.3z M35.3,26.6c0,0-2.1,3-2.4,3.9
				c-0.3,0.9-1.3,3.4-1.5,5.2s0,3.8,0,3.8S31.1,39,31,38.3c-0.1-0.8-0.3-2.9,0.6-5.8c0.8-2.9,1.6-4.6,2.2-5.5c0.5-1,1-1.4,1-1.4
				S34.7,26.3,35.3,26.6L35.3,26.6L35.3,26.6z M44.4,34.5c0,0,3.5,0.2,5.3,1c1.8,0.9-0.1,0.3-0.7,0.7C48.5,36.5,47.2,35,44.4,34.5z
				 M70.4,34.9c0.7-0.7,2-1.3,4.3-1.7c0,0-3.5,0.2-5.3,1c-0.2,0.1-0.3,0.2-0.5,0.3c-0.2,0-0.3,0.1-0.3,0.1s-2.2-1.2-3.9-1.6
				c-1.7-0.3-4.3-0.6-5.5-0.5c-1.2,0.2,2.7,0.1,4.7,0.7c2.6,0.7,4.5,1.6,4.9,1.9c0.7,0.3,1.8,1,1.8,1S70.3,35.5,70.4,34.9L70.4,34.9
				L70.4,34.9z M46.3,15c0,0-5.8,0.1-9.5,2.7c-3.2,2.2-3.2,4.8-3.2,4.8s1.9-3.2,3.6-4.3C39.6,16.6,40.7,15.8,46.3,15L46.3,15
				L46.3,15z M36.9,53.8c0,0,3.2,2.8,9.1,4.6s4.8,1.2,4.8,1.2s0.5-0.5,0.9-0.7s0.8-0.9-0.6-0.7c-1.4,0.2-2.2-0.1-3.6-0.3
				c-1.4-0.2-5.5-1.5-6.8-2.1C39.4,55.1,36.9,53.7,36.9,53.8L36.9,53.8L36.9,53.8z M68.8,65c0,0-0.3-0.7-0.5-1
				c-0.1-0.3,0.7,0.5,1.6,1c1,0.4,3.1,1,3.8,1.1c0.7,0.1,1.3,0.1,1.5,0.4s2.5,2.2,2.5,2.2s-1.4-0.7-1.7-1c-0.3-0.3-0.6-0.8-0.8-0.9
				c-0.2-0.1-0.1-0.4-0.5-0.4s-1.3,0-2-0.2s-2.2-0.6-2.8-0.8S68.8,65,68.8,65L68.8,65z M76.5,65.8c0,0,1.5,0.8,2,0.9
				C79,66.9,80,67,80,67s-0.9-0.4-1.4-0.7c-0.5-0.3-1.6-0.5-1.8-0.6C76.7,65.6,76.3,65.5,76.5,65.8L76.5,65.8z M77,64.2
				c0,0-0.3-0.3,0.2-0.2c0.5,0.1,1.5,0.3,1.9,0.3s1.1-0.1,1.1-0.1l0.2,0.2c0,0-0.1,0.1-0.3,0.1c-0.3,0-0.5,0-1,0
				C78.6,64.5,77,64.3,77,64.2L77,64.2L77,64.2z"/>
			<path class="st207" d="M66,56.4c0,0,1,2.2,1.4,2.5s1.6,0.9,2.3,1.1c0.7,0.2,1.8,0.6,2.4,0.9c0.1,0,0.2,0.1,0.3,0.2
				c0.6,0.3,1.4,0.7,1.4,0.7s-3.7-1.5-4.4-1.6s-1.8-0.6-2.4-0.8s-1.4-1.6-1.6-2C65.2,57.1,65.2,56.3,66,56.4L66,56.4L66,56.4z
				 M51.7,65.5c0,0,0.2-0.8,0.8-1.4s-0.9,0.7-1.6,1.1c-0.7,0.5-2.2,1.2-2.7,1.6s-1.6,0.9-2,1s-0.8,0.2-1,0.5
				c-0.2,0.2-1.5,2.2-1.7,2.4c-0.2,0.3-0.5,0.5-0.4,0.4s0.6-0.4,1-0.8c0.5-0.7,1-1.3,1.1-1.5s0.2-0.4,0.5-0.5s1.3-0.3,2-0.7
				c0.5-0.2,2.2-1.2,2.6-1.5S51.8,65.5,51.7,65.5L51.7,65.5L51.7,65.5z M44.3,68.1c0,0-0.1-0.1-0.2-0.1c-0.1,0-0.8,0.5-1.1,0.8
				c-0.3,0.2-1,0.6-1.5,0.9s-0.8,0.3-1,0.3s0-0.3,0.2-0.5s1-0.1,1.4-0.4c0.5-0.3,0.8-0.5,1.1-0.7s0.6-0.5,0.7-0.5
				S44.4,67.9,44.3,68.1L44.3,68.1z M43.5,66.7c0,0,0-0.1-0.2-0.1s-0.4,0.2-0.8,0.3c-0.4,0.1-1.2,0.4-1.6,0.5
				c-0.3,0.1-0.5,0.1-0.7,0.1s-0.4-0.1,0.2-0.3c0.6-0.1,1.2-0.2,1.9-0.5c0.8-0.3,1.2-0.4,1.2-0.3S43.6,66.6,43.5,66.7L43.5,66.7z
				 M43.3,65.4c0,0,0.5-0.1,0.8,0.1s0.4,0.3,0.4,0.3s-0.4-0.4-0.1-0.7c0.2-0.3,0.6-0.8,0.6-0.8L44.2,65L43.3,65.4L43.3,65.4z
				 M50.8,59.9c0,0-0.6,0.3-1.6,1.1s-2,1.3-2,1.3s1.9-0.7,2.7-1.1c0.8-0.4,1.2-1.1,1.6-1.4c0.4-0.3,1.1-1,1.1-1L50.8,59.9L50.8,59.9
				z"/>
			<path class="st207" d="M65.8,57.1c0,0,1.3-2.1,2.1-2.9c0.8-0.8-0.3-0.4-0.8,0.3C66.7,55.1,65.9,56.7,65.8,57.1L65.8,57.1
				L65.8,57.1z M51.5,66.7c0,0-2.4,5.8-2.8,7.2s-0.8,3.3-0.6,4.4s0.4-1.9,0.8-3.6s1.8-4.8,2.1-5.9C51.4,67.7,51.5,66.7,51.5,66.7
				L51.5,66.7L51.5,66.7z M70.9,83.2l-1.7,2.1c0,0,3.3-1.1,5.1-1.9c1.7-0.7,2.4-1.1,3.9-1.9s4.7-3.1,5.8-4.6
				c1.1-1.5,2.1-3.3,2.4-4.7s0.5-2,0.4-3s-0.4,3.4-1.7,5s-3,3.8-5.8,5.4S74.2,82.4,70.9,83.2L70.9,83.2L70.9,83.2z M80.4,92.8
				c0,0,6.1,2.5,7.5,3.3c1.3,0.8,5.5,3,5.9,4.2c0.2,0.7,0.1,1.3,0.1,1.3l-1.6-1c0,0,1.1,0.4,1-0.2c-0.1-0.3-1.4-1.6-2.2-1.9
				c-0.8-0.4-2.1-1.5-3-1.9c-1-0.4-2.6-1.4-4-1.9c-1.3-0.5-4-1.9-4-1.9 M93.1,103.9l-1,0.2c0,0-0.3,0-0.3-0.2c0-0.1-1.1-1.3-1.7-1.8
				s-2.8-2.2-2.8-2.2s2.3,1.2,2.8,1.7s1.3,1.5,1.6,1.8C92.1,103.7,92.6,104,93.1,103.9L93.1,103.9z M50.6,84.7c0,0,0.6,1.2,0.9,2.1
				s0.5,1.2-0.1,1.5s-1.9,0.5-3.3,0.8c-1.4,0.4-3.6,0.8-5.1,1.6c-1.5,0.7-3.2,1.6,0.6,0.3c3.8-1.3,7.5-1.9,8.2-2.2
				c1-0.4,0.7-0.9,0.4-1.6c-0.3-0.8-0.4-1.3-0.6-1.6C51.1,85.1,50.6,84.7,50.6,84.7L50.6,84.7z M66.2,46l-0.4-0.2c0,0-0.1-0.2,0.4-1
				c0.5-0.7,1-1.8,1.9-2.5S66.8,43.2,66.2,46z M57.5,46l0.4-0.2c0,0,0.1-0.2-0.4-1c-0.5-0.7-1-1.8-1.9-2.5
				C54.6,41.7,56.9,43.2,57.5,46z"/>
		</g>
	</g>
</g>
</svg>
