<?xml version="1.0" encoding="UTF-8"?><svg id="Capa_1" xmlns="http://www.w3.org/2000/svg" viewBox="0 0 37.87 47.17"><defs><style>.cls-1{fill:#c5d3d6;}.cls-1,.cls-2,.cls-3,.cls-4,.cls-5,.cls-6,.cls-7,.cls-8{fill-rule:evenodd;}.cls-2{fill:#e1edf0;}.cls-3{fill:#d5c9ba;}.cls-4{fill:#c1ae62;}.cls-5{fill:#f1f2d9;}.cls-6{fill:#fff;}.cls-7{fill:#e5e66e;}</style></defs><path class="cls-1" d="M22,29.58c.19,0,.4,0,.63,0,.51,0,1.05,0,1.45-.11v.02c.48,.23,.76,.52,.73,.66,0,.04-.07,.16-.56,.16-.94,0-1.61-.33-2.24-.73,0,0,0,0,0,0h0Zm13.12,11.65c-.39-.13-1.12-.26-1.65,.02,.82,1.21,1.64,2.94,2.21,5.06,.11,0,.21-.03,.31-.07,.07-.03,.13-.12,.17-.27,.27-.86-.06-3.22-1.05-4.74h0Zm-28.95,2.9c-.06-.58-.28-1.08-.61-1.46-.45,.51-.95,1.24-1.49,2.25,.71-.25,1.41-.51,2.11-.79Zm-5.91,1c.03,.09,.06,.16,.11,.22,.05,.06,.18,.21,.56,0,.1-.5,.67-1.38,1.84-2.89,0-.43-.12-.77-.33-.99-.82,.79-1.82,2.14-2.18,3.66ZM11.45,28.58c.01-.09,.01-.22,0-.42-.04-.66-.07-1.34-.45-1.57-.23-.14-.58-.11-1.04,.08-.08,.78,.74,1.28,1.49,1.92h0Zm10.54,.82c.19,0,.41,0,.64,0,.74,0,1.58,.01,1.77-.37,.09-.19,.02-.49-.22-.88-.62,.5-1.71,1.11-3.05,1.21,.18,.06,.52,.06,.86,.04h0Z"/><path class="cls-2" d="M22.16,24.48l.03,.02s.02-.03,.04-.05c.03-.01,.05-.02,.08-.03v.05c.08,0,.16-.01,.23-.02,.17,.11,.27,.4,.28,.66,.04,.95-.21,1.08-.82,1.38-.23,.12-.52,.26-.84,.48-.36,.25-.44,.18-.44,.18-.13-.13,.24-1.06,.93-2.12,.18-.28,.36-.47,.52-.56h0Zm-13.05,6.19c-.05-.06-.12-.12-.19-.17l-.03,.05c-.14-.09-.28-.19-.41-.31,.06-.31,.28-.58,.6-.73,.4-.19,.86-.17,1.25,.05,1.12,.79,1.11,1.13,1.08,1.22-.05,.15-.32,.22-.72,.19-.65-.04-1.13-.08-1.59-.3h0Zm-.11,.31c-.11,.18-.67,.29-1.24-.02,.12-.34,.32-.48,.6-.58,.22,.19,.42,.33,.63,.44,.03,.05,.05,.11,.01,.16Zm25.77,15.91c-.16,.21-.54,.06-.84-.11-2.14-1.23-3.75-2.19-4.86-3.23,.47-1.4,1.94-1.2,3.13-1.04,.17,.02,.33,.04,.48,.06,1.59,1.55,2.45,3.82,2.08,4.32Z"/><path class="cls-2" d="M33.37,41.3c-.33,.22-.51,.61-.53,1.15,.98,.96,1.79,2.33,2.09,3.35h.03s.12,.31,.41,.44c.1,.04,.2,.06,.32,.05-.57-2.12-1.4-3.84-2.21-5.06-.03,.02-.07,.04-.1,.06h0Zm-28.62,.82c-.64-.23-1.32-.07-1.82,.42-.53,.69-1.67,2.14-1.82,2.81l.04,.06s-.04,.02-.06,.04c0,.07,0,.13,.03,.17,.08,.11,.34,.11,.74,0,.74-.21,1.47-.44,2.19-.7,.55-1.01,1.04-1.74,1.49-2.25-.22-.25-.49-.44-.8-.55h0Zm-2.31-.66s-.07-.07-.11-.11c-.28-.22-.69-.26-1.18-.13-.59,.62-1.17,3.02-.89,3.9,.37-1.53,1.36-2.88,2.18-3.66Zm7.52-14.81s-.09,.04-.14,.06c-.16,.07-.42,.22-.43,.47-.01,.26,.27,.58,.81,.89,.21,.12,.39,.24,.55,.34,.3,.19,.58,.36,.65,.32,.02-.01,.04-.05,.05-.14-.75-.64-1.57-1.14-1.49-1.92h0Zm13.06,.56c-.52,.02-1.11,.44-1.55,1.1-.28,.41-.52,.81-.44,.96,.02,.03,.06,.05,.11,.07,1.34-.11,2.43-.71,3.05-1.21-.11-.19-.24-.37-.38-.54-.21-.27-.48-.39-.79-.38h0Z"/><path class="cls-8" d="M24.08,10.01c-.15-.07-.29-.13-.42-.15,.35,.68,.19,1.6-.14,2.08-.42,.6-.82,.96-1.34,.79-.25-.08-.44-.41-.48-.85-.39,1.31-.67,3.57,.41,4.36,.3,.22,.58,.29,.84,.21,.73-.22,1.22-1.56,1.57-2.53,.48-1.31,.22-3.57-.44-3.9h0Z"/><path class="cls-6" d="M22.17,12.72c.52,.17,.92-.19,1.34-.79,.34-.48,.49-1.4,.14-2.08-.22-.05-.42-.04-.61,.03-.43,.16-.82,.63-1.15,1.41-.08,.19-.15,.38-.2,.57,.04,.44,.23,.76,.48,.85h0Zm-14.88-1.03c.24,.79,.55,1.46,1.15,1.34,.32-.06,.4-.36,.42-.83-.39-.71-.88-1.22-1.31-1.36-.24,.16-.39,.44-.26,.85Z"/><path class="cls-8" d="M8.97,12.4c-.03-.07-.07-.13-.1-.2-.02,.46-.1,.76-.42,.83-.61,.12-.91-.55-1.15-1.34-.13-.41,.03-.69,.26-.85-.05-.02-.11-.03-.16-.04-.24-.03-.45,.07-.64,.28-.46,.53-.55,1.21-.44,2.04,0,.04,.01,.09,.02,.13,.06,.36,.14,.74,.25,1.14,.24,.89,.8,2.07,1.56,2.45,.29,.14,.58,.16,.87,.04,.32-.13,.55-.37,.68-.71,.31-.83,.04-2.24-.73-3.78h0Z"/><path class="cls-5" d="M20.23,19.16c1.09-.81,1.51-1.73,1.76-2.78-.8-.59-.92-1.85-.79-3-.07,.11-.15,.24-.23,.38-.98,1.63-3.03,5.01-5.97,5.01-2.46,0-4.08-2.11-5.08-4.21,.12,.67,.11,1.24-.06,1.69-.15,.39-.41,.67-.78,.82-.34,.14-.68,.12-1.01-.05-.47-.23-.85-.73-1.15-1.29,.6,1.79,1.52,3.1,2.73,3.9,1.55,1.02,2.16,1.77,2.61,2.31,.15,.19,.29,.35,.44,.5,.14,.14,.23,.26,.31,.37,.27,.36,.43,.57,2,.76,1.4,.17,2.16-.11,2.77-.61-.19-1.83,1.15-2.83,2.45-3.79h0Z"/><path class="cls-5" d="M24.92,30.3h0c-.1,.12-.33,.18-.68,.18-1.1,0-1.84-.42-2.56-.9-.44,0-.71-.04-.81-.22-.12-.22,.05-.56,.45-1.15,.14-.21,.3-.4,.47-.57l.05-.86c-.2,.1-.39,.22-.58,.35-.21,.14-.51,.32-.67,.16-.13-.13-.07-.44,.07-.8-3.05,.37-4.54-1.16-5.64-2.74,0,0-.02,0-.03,0-1.65-.19-1.83-.43-2.13-.83-.08-.1-.17-.22-.3-.35-.16-.16-.3-.33-.45-.51-.47-.56-1.05-1.26-2.57-2.27-.53-.35-.98-.78-1.37-1.27,.03,2.22,1.39,4,2.38,5.3l.02,.03c.79,1.04,.87,1.79,.75,2.74h-.06c.3,.33,.33,.95,.37,1.56,.03,.46-.01,.66-.15,.73-.15,.09-.36-.02-.71-.24-.02,.24-.07,.63-.24,.84,.81,.59,1.17,1.05,1.06,1.36-.08,.23-.4,.34-.9,.31-.6-.04-1.05-.08-1.48-.24,0,.06-.02,.11-.05,.16-.18,.28-.79,.36-1.36,.1,.56,2.24,1.47,4,2.76,5.33,1.71-1.63,4.97-1.36,8.64-.95,2.81,.32,5.54-.04,7.49-.72,1.77-2.16,2.19-4.37,2.42-6.77-1.24,1.5-1.75,1.81-4.18,2.23h0ZM5.8,8.06c.15,.31,.25,.52,.31,.69,.11-.35,.23-.69,.38-1.02l-.07-.02c.06-.17,.1-.36,.15-.55,.08-.31,.16-.65,.31-1-.82-.78-1.47-1.09-2.12-1.23,.34,1.24,.7,2.46,1.03,3.14Z"/><path class="cls-7" d="M32.01,24.8c-.3-.08-.61-.14-.93-.18,.32-.98,.57-2.07,.72-3.15,.2,.98,.37,2.01,.21,3.34ZM7.08,16.67c-1.02-.16-3.51,.1-4.52,2.23,.58-3.69,2.46-6.86,3.38-7.95,.06,1.68,.32,3.85,1.14,5.72Z"/><path class="cls-7" d="M2.51,19.28l.08,.03c.19-.52,.47-.94,.79-1.27-.34,1.51-.36,2.95-.07,4.29-.28,.51-.45,1.1-.51,1.75-.03-.11-.06-.22-.09-.33-.37-1.5-.39-3.02-.2-4.47h0Zm5.08,11.8c.11,.45,.24,.9,.39,1.34-1.53,.51-4.81,.5-6.46-1.32,.3-1.42,.91-3.01,2.09-4.42,1.19,2.4,2.88,4.24,3.98,4.39h0Z"/><path class="cls-7" d="M1.47,31.33c.87,.91,2.15,1.37,3.42,1.53-.03,1.01,.1,3.49,1,4.68-.26-.03-.51-.07-.76-.12-1.64-.32-3.02-1-3.63-1.31-.14-.54-.22-1.1-.25-1.65-.04-.67-.04-1.81,.22-3.13h0ZM18.79,2.89c-3.56-1.03-6.03-.15-6.78,.2-.47,.22-.97,.44-1.47,.71-.03,.45-.18,3.48,.47,4.98,1.61-.71,3.3-1.25,3.95-.97,.13,.06,.22,.15,.27,.27,.19-.2,.5-.34,.91-.4,.74-.11,1.77,.02,2.82,.29-.39-1.05-.25-3.87-.17-5.08h0Zm-8.86,1.25c-1.51,.91-2.96,2.28-3.7,4.84l-.06-.02c.03,.16,.02,.28,0,.46-.03,.23-.05,.46-.05,.68,0,.2,0,.39,0,.58l.03,.03s-.02,.02-.02,.03c.01,.37,.03,.73,.06,1.08,.08-.32,.22-.61,.44-.87,.23-.27,.5-.38,.8-.35,.09,.01,.19,.04,.27,.08l-.04-.04c.4-.38,1.61-1.07,2.95-1.69-.89-.91-.82-3.42-.67-4.82h0Zm13.96,2.14c-.88-1.36-2.01-2.14-2.97-2.59-.24-.11-.48-.22-.72-.31-.02,.5-.15,3.45-.56,4.78,1.34,.42,2.62,1.02,3.27,1.59,.03-.01,.05-.03,.08-.04,.12-.04,.24-.07,.37-.07-.11-1.22,.22-2.37,.53-3.36h0Zm1.77,2.34c-.15,.24-.28,.57-.31,.95l.02,.1h-.03c0,.16,0,.32,.03,.49,.35,2.1-.18,4.17-1.02,5.87,.11,.36,.17,.76,.19,1.19,.43-.4,1.44-1.13,2.75-1.27,.19-2.99-.77-5.91-1.63-7.32h0Zm2.04,2.46c.46,1.41,.73,3.05,.82,4.93,.72,.15,1.41,.51,2.06,1.06,0-1.39-.53-3.13-1.27-4.65-.63-.72-1.23-1.19-1.6-1.33h0Z"/><path class="cls-7" d="M29.42,16.51c-.52-.25-1.05-.39-1.61-.41-1.67-.05-2.94,1-3.27,1.35,.01,.88-.14,1.85-.4,2.82,.96-.54,2.89-.57,4.53,.34,.31,.17,.6,.38,.87,.61,.54-1.44,.24-3.17-.12-4.72h0Zm1.8,1.44c-.35-.4-.72-.74-1.1-1.01,.12,1.12,.13,3.27-.14,4.73h-.01c.34,.4,.6,.85,.78,1.35,.29-1.49,.59-3.54,.47-5.07Zm-4.1,7.34c-1.05-.91-2.69-.95-4.34-.85,.14,.17,.21,.43,.22,.67,.05,1.07-.3,1.24-.92,1.55l-.07,.03h.02s-.05,.78-.05,.78c.33-.27,.69-.43,1.03-.44,.37-.01,.69,.14,.94,.45,.35,.45,.56,.82,.64,1.11,1.52-.15,2.67-.81,3.53-1.67-.22-.7-.55-1.24-1.01-1.64Z"/><path class="cls-7" d="M28.58,20.78c-.16-.09-.32-.17-.48-.24,.02,1.43-.44,3.72-1.04,4.47,.06,.04,.12,.09,.18,.14,.46,.4,.8,.94,1.03,1.62,1.26-1.34,1.86-3.11,2.08-4.22-.38-.73-.97-1.33-1.76-1.77Zm-4.48-.27l-.02-.03c-.4,1.38-1.01,2.74-1.71,3.75,.04,0,.08,0,.12,.02,.02,0,.05,.02,.07,.03,1.2-.08,2.41-.1,3.43,.21,.88-1.35,1.31-2.93,1.54-4.15-1.36-.42-2.74-.29-3.42,.17Zm11.33-6.63c-.8-.18-1.55,.1-1.91,.42l-.02-.02c-.29,1.39-.48,2.21-.76,3.16,.84-.37,1.96-.37,2.97,0,.14,.05,.27,.12,.4,.18-.03-1.29-.16-2.56-.43-3.69-.08-.03-.17-.05-.26-.07Z"/><path class="cls-7" d="M33.8,12.86c-.09,.44-.17,.83-.24,1.19,.49-.35,1.25-.5,1.92-.35,.05,.01,.11,.03,.17,.04-.24-.92-.57-1.73-1.01-2.38-.38,.16-.67,.67-.83,1.49Zm2.33,4.99c-.15-.08-.31-.16-.47-.22-.99-.38-2.15-.37-2.94,.03l-.02-.04c-.1,.32-.2,.64-.3,.96l-.11-.04c.2,.71,.37,1.52,.51,2.35,.51,.03,1.94,.2,3.05,1.14,.19-1.31,.29-2.76,.27-4.19h0Z"/><path class="cls-7" d="M33.68,25.45l-.17-.07c.47-1.13,.43-3.77,.42-4.12-.36-.1-.72-.16-1.09-.18,.24,1.5,.37,3.04,.3,4.13,.59,.27,1.12,.64,1.58,1.09,.44-.86,.84-2.33,1.1-4.04-.54-.48-1.16-.77-1.72-.94,.01,.53,.04,3-.43,4.13h0Zm-3.73,1.55c-.06,.08-.11,.16-.17,.23l-.08,.1c-.14,.17-.27,.34-.39,.49-.12,1.36-.29,2.67-.72,3.94,1.58,0,2.93-.2,4.04-.58-.38-1.49-1.23-2.94-2.69-4.18h0Zm-4.31,9.2c-.31,.29-.64,.56-.98,.82-.36,.28-.78,.54-1.23,.78,.27,.76,.77,1.35,1.39,1.79h.06s0,.03,0,.05c1.15,.79,2.72,1.08,4.12,.98,1.28-.93,2.36-2.28,3.05-3.82-1.79,.43-3.98,.42-6.42-.59h0Z"/><path class="cls-7" d="M32.68,31.36c-1.14,.38-2.53,.58-4.15,.58-.5,1.41-1.32,2.77-2.74,4.12,1.52,.62,2.94,.85,4.22,.82,.79-1.29,1.25-3.69,1.19-5.15h.18c.06,1.44-.39,3.81-1.16,5.14,.65-.03,1.3-.13,1.93-.29,.68-1.63,.93-3.46,.53-5.23h0Zm-.38,8.48c-.77,.49-1.65,.79-3.04,.94-1.45,.16-3.11-.1-4.36-.9,.2,.88,1.56,1.81,2.77,2.65,.46,.31,.89,.61,1.26,.9,.54-1.47,2.14-1.26,3.31-1.1,.15,.02,.29,.04,.42,.05,.04-.57,.24-.99,.61-1.23,.03-.02,.06-.04,.1-.05-.37-.53-.73-.95-1.07-1.25h0Zm-24.15-6.93c-.04-.1-.08-.2-.12-.31-.78,.27-1.86,.39-2.96,.28-.03,1.04,.1,3.61,1.08,4.69,.57,.05,1.12,.04,1.65-.02-.56-1.69-.2-3.47,.35-4.63Zm-1.09,8.72c.39-.08,.91-.28,1.25-.69-.35,.02-.71,.04-1.06,.05-1.94,.06-3.41-.69-4.43-1.87l.1,.15c-.69,.46-1.19,.9-1.64,1.73,.47-.09,.87-.02,1.17,.2,.3,.23,.47,.6,.51,1.08,.54-.45,1.22-.58,1.87-.34,.33,.12,.62,.32,.86,.59,.52-.55,.98-.82,1.38-.9h0Z"/><path class="cls-7" d="M8.14,38.35c-.11-.21-.21-.42-.29-.64-.86,.11-1.78,.07-2.76-.12-1.54-.3-2.86-.92-3.53-1.25,.7,2.5,2.55,4.56,5.67,4.46,.41-.01,.81-.03,1.2-.06,.3-.5,.33-1.26-.28-2.4Zm1.73-13.36c-.97,.04-2.18,.32-3.12,.99-.95,.67-1.49,1.61-1.61,2.79h-.08c.9,1.21,1.84,2.03,2.54,2.14,.12-.35,.33-.56,.71-.7,.07-.36,.33-.68,.7-.86,.43-.21,.94-.19,1.37,.03,.15-.14,.22-.55,.22-.85-.16-.1-.33-.2-.5-.3-.61-.36-.92-.71-.9-1.06,.01-.25,.21-.47,.54-.62,.08-.04,.16-.07,.24-.1,.1-.56,.14-.92-.12-1.46h0Z"/><path class="cls-7" d="M7.81,20.38c-.61-.05-1.22,0-1.79,.15,.17,.79,.89,4,1.41,4.83l-.07,.04c.79-.38,1.66-.56,2.41-.6-.16-.28-.39-.61-.72-1.03-.51-.64-.93-1.99-1.25-3.39h0Z"/><path class="cls-7" d="M7.17,16.87c-.68-.15-2.36-.08-3.56,.95-.37,1.51-.43,2.94-.16,4.28,.2-.31,.44-.59,.72-.83,.46-.39,1.02-.68,1.64-.86,0,0,0,0,0-.01l.18-.04h0c.57-.14,1.17-.2,1.78-.16-.24-1.14-.41-2.29-.49-3.12-.03-.07-.07-.14-.1-.21Z"/><path class="cls-7" d="M4.29,21.4c-.88,.75-1.34,1.86-1.34,3.2,.48,1.5,1.23,2.92,2.02,4.03,.15-1.19,.71-2.13,1.67-2.81,.1-.07,.2-.14,.31-.2-1.01-1.19-1.28-3.62-1.4-4.94-.47,.17-.9,.41-1.26,.72h0ZM15.04,2.21V.99c-1.49,.15-2.99,.52-4.12,1.12l-.21,.11c-.47,.26-.92,.5-1.42,.47-.4,.99-.43,1.01-1.21,.55-.62-.37-.88-.84-1.07-1.36-1.11-.31-2.41-.53-2.85-.18-.15,.12-.19,.29-.12,.54,.02,.06,.04,.13,.06,.2,.02-.03,.04-.06,.06-.08,.17-.15,.51-.09,1.11,.19l.37,.17c1.06,.48,2.25,1.03,2.38,1.72,.05,.25-.05,.5-.3,.74-.62,.62-.81,1.34-.97,1.98,1.31-2.48,3.42-3.45,5.18-4.25,.47-.22,1.59-.64,3.21-.69h0s-.11-.01-.11-.01h0Zm10.36-1.09c.87-.5,1.43-.11,1.97,.77-.01-.11-.03-.22-.05-.33-.14-.7-.24-1.14-.51-1.3-.19-.12-.49-.1-.95,.04-1.18,.35-2.9,1-4,1.45-.7,.29-1.1,.11-1.75-.19-.12-.06-.25-.11-.39-.17-.83-.36-2.19-.52-3.66-.47,.03,.38-.05,.81-.34,1.3,1.45,.03,3.24,.35,5.29,1.31,.11,.05,.23,.11,.35,.17,.3-1,2.99-1.97,4.05-2.58h0ZM7.82,10.75c.53,.28,1.01,.95,1.32,1.57,.2,.4,.38,.81,.52,1.23h.03c.17,.41,.35,.82,.56,1.22,.62-.99,3.24-1.94,4.76-2.08-.38-1-.5-3.61-.53-4.79-1.63,.03-5.8,2.08-6.65,2.84Z"/><path class="cls-7" d="M15.3,12.86v.04s0-.04,0-.04c-.08,0-.16,0-.23,0-1.64,.13-4.27,1.18-4.72,2.08h-.02c.99,1.87,2.49,3.63,4.68,3.63,.64,0,1.23-.17,1.78-.45,.13-1.47,.96-3.11,1.97-4.58-1.08-.4-2.46-.71-3.45-.69h0Zm7.05-3.29c-1.49-.97-4.6-1.95-6.19-1.71-.05,0-.1,.02-.15,.03-.51,.96-.4,3.07-.35,4.8,.98,.05,2.21,.35,3.19,.72,1.22-1.73,2.67-3.2,3.5-3.84h0Z"/><path class="cls-4" d="M32.62,20.91v.16h.03c.24,1.47,.37,2.99,.31,4.06-.25-.11-.51-.2-.78-.27,.19-1.49-.04-2.62-.26-3.7l-.05-.25c.11-.96,.15-1.91,.11-2.76,.25,.79,.47,1.76,.64,2.77Zm-1.66-6.4c-1.03-1.97-2.52-3.42-3.29-3.64l-.02,.06c-.35-1.03-.81-1.94-1.38-2.73,1.83,1.05,3.55,3.38,4.69,6.31h0ZM8.08,3.25c.78,.47,.8,.44,1.21-.55-.22-.01-.46-.08-.71-.22-.29-.17-.9-.4-1.58-.59,.2,.53,.45,.99,1.07,1.36Zm11.93,.06c-.4-.16-.81-.3-1.23-.42-.09,1.21-.23,4.03,.17,5.08,.17,.04,.34,.09,.51,.14,.43-1.4,.55-4.74,.55-4.8h0Zm-9.42,5.65c.08-.04,.16-.07,.24-.11-.64-1.46-.53-4.23-.49-4.95-.14,.08-.28,.16-.42,.24-.15,1.4-.22,3.9,.67,4.82Zm17.73,7.02c-.16-3.37-.91-5.93-2.31-7.8-.07,.09-.14,.17-.2,.24-.06,.06-.12,.13-.17,.21,.85,1.42,1.81,4.34,1.63,7.32,.18-.02,.35-.03,.53-.02,.17,0,.35,.02,.52,.05h0Z"/><path class="cls-4" d="M31.81,18.41c-.02-.89-.12-1.7-.31-2.32-.02-.07-.04-.13-.06-.2l-.06,.02c-.52-1.44-1.32-2.64-2.08-3.5,.74,1.52,1.27,3.27,1.27,4.65,.43,.36,.84,.81,1.24,1.34h0Zm-1.89-1.61h0c-.16-.11-.33-.2-.5-.29,.36,1.56,.67,3.29,.12,4.72,.1,.09,.19,.18,.28,.27,.26-1.51,.23-3.68,.1-4.7h0Zm1.9,1.92c-.19-.27-.39-.52-.6-.77,.12,1.53-.18,3.58-.47,5.07,.14,.41,.23,.83,.26,1.26,.32-1.05,.56-2.21,.69-3.36v-.05s0,0,0,0c.08-.74,.12-1.47,.12-2.15h0Zm-7.26,10.37c-.06,.12-.16,.21-.29,.28,.38,.2,.7,.48,.71,.73,1.95-.34,2.61-.62,3.5-1.59h-.08c-.04-.6-.14-1.13-.28-1.59-.86,.87-2.02,1.52-3.53,1.67,.05,.2,.04,.36-.02,.5h0Zm5.78-6.55c-.22,1.11-.82,2.88-2.08,4.22,.16,.47,.26,1.02,.31,1.63,.28-.32,.6-.71,.98-1.19l.08-.1c.47-.59,.87-1.39,1.2-2.31,.02-.84-.15-1.6-.49-2.25Zm-2.43-2.08c-.13-.05-.26-.09-.39-.13-.22,1.22-.66,2.8-1.54,4.15,.33,.1,.64,.24,.92,.42,.58-.7,1.05-3.05,1.01-4.44h0Zm9.69-1.49c-.04-1.33-.19-2.52-.41-3.56l-.04,.02c-.37-.9-.96-1.3-1.45-1.47,.27,1.13,.4,2.39,.43,3.69,.63,.32,1.13,.78,1.48,1.34h0Z"/><path class="cls-4" d="M37.06,14.86c-.13-.53-.28-1.05-.46-1.56-.42-1.21-1.15-2.02-1.77-1.98-.07,0-.14,.02-.2,.05,.44,.65,.78,1.46,1.01,2.38,.46,.14,1,.44,1.42,1.11h0Zm.09,9.28c.34-1.74,.47-3.33,.46-4.77-.31-.64-.82-1.16-1.48-1.52,.02,1.43-.09,2.87-.27,4.19,.56,.48,1.05,1.15,1.29,2.1h0Z"/><path class="cls-4" d="M36.02,28.24c.45-1.28,.79-2.49,1.04-3.65-.18-1.07-.65-1.82-1.23-2.33-.26,1.72-.66,3.18-1.1,4.04,.55,.53,.98,1.18,1.3,1.94h0Z"/><path class="cls-4" d="M35.93,28.5c-.8-2.09-2.48-3.37-4.91-3.7v.03s-.01,.03-.01,.05h-.02c-.29,.83-.64,1.56-1.05,2.13,1.46,1.24,2.31,2.69,2.69,4.18,1.58-.53,2.68-1.43,3.29-2.69h0Zm-6.93,12.13c.08,0,.16-.01,.24-.02,2.36-.26,3.18-.93,4.65-2.31,1.1-1.03,1.87-2.33,2.28-3.79-.74,.83-2.19,1.83-4.12,2.3-.69,1.55-1.77,2.9-3.05,3.82Z"/><path class="cls-4" d="M36.18,29.26c-.05-.18-.1-.36-.16-.54-.65,1.23-1.77,2.11-3.34,2.64,.4,1.77,.15,3.6-.53,5.23,2.07-.53,3.55-1.68,4.14-2.51h0c.35-1.5,.32-3.15-.11-4.81h0Zm-1.21,11.72v-.02c-.32-.49-.94-1.51-1.64-1.92-.35,.3-.68,.56-1.03,.79,.34,.3,.7,.73,1.07,1.25,.48-.26,1.1-.24,1.6-.11h0Zm-26.82-8.08c-.55,1.16-.91,2.94-.35,4.63,.95-.12,1.83-.42,2.63-.9-.97-.99-1.72-2.23-2.28-3.73Zm.15,8.04c-.34,.41-.86,.6-1.25,.69-.4,.09-.86,.35-1.38,.9,.35,.39,.59,.91,.66,1.51,.48-.24,1.08-.48,1.72-.73,1.62-.65,3.46-1.38,3.85-2.31,.09-.22,.09-.44,0-.66-1.09,.35-2.29,.52-3.61,.61h0Z"/><path class="cls-4" d="M12.53,38.25c-.72-.4-1.39-.9-1.97-1.48-.82,.51-1.72,.82-2.7,.95,.08,.22,.18,.43,.29,.64,.61,1.14,.58,1.9,.28,2.4,2.35-.16,4.21-.59,5.85-1.84-.65-.16-1.24-.38-1.74-.66Zm-1.44-11.82s.04,.03,.07,.05c.06-.5,.06-.94-.1-1.4-.3-.07-.72-.1-1.19-.08,.26,.54,.22,.9,.12,1.46,.48-.18,.84-.18,1.11-.02Zm-.11-1.56c-.12-.29-.3-.58-.55-.92l-.02-.03c-.71-.92-1.59-2.08-2.07-3.47-.18-.03-.36-.05-.53-.07,.31,1.4,.74,2.75,1.25,3.39,.33,.42,.56,.75,.72,1.03,.47-.03,.89,0,1.21,.06h0Zm-3-6.44h.12c-.32-.42-.6-.87-.83-1.35,.08,.82,.25,1.98,.49,3.12,.17,.01,.34,.03,.51,.06-.18-.57-.29-1.18-.29-1.82Zm-2.14,2.15c-.1,.03-.2,.07-.3,.1,.13,1.32,.4,3.75,1.4,4.94,.1-.06,.21-.12,.32-.17-.54-.88-1.25-4.06-1.42-4.87ZM25.39,1.12c-1.06,.61-3.75,1.58-4.05,2.58,1.47,.78,3.19,2.33,3.9,5.4,.09-.33,.24-.62,.45-.82,.88-.88,1.94-4.19,1.67-6.39-.54-.88-1.1-1.27-1.97-.77Zm-9.35-.2c-.28,0-.55,.03-.83,.05v1.24h-.07s0,0,0,.01c.19,0,.37,0,.56,0,.29-.5,.37-.92,.34-1.3h0Zm-.02,6.97c-.36,.08-.61,.22-.74,.43,0,2.33,.06,4.32,.06,4.34h-.05s0,.02,0,.02c.12,0,.25,0,.38,0-.05-1.74-.16-3.85,.35-4.8h0Z"/><path class="cls-4" d="M15.29,12.68v-.02s-.13,0-.13,0c0-.02-.06-2.03-.06-4.38,0-.15-.06-.25-.2-.31-.11-.05-.25-.07-.42-.06,.03,1.17,.14,3.78,.53,4.79,.02,0,.04,0,.06,0,.07,0,.15,0,.23,0h0Zm5,1.68c-.26-.26-.83-.55-1.53-.81-1.01,1.47-1.83,3.1-1.97,4.58,1.6-.81,2.83-2.55,3.63-3.82-.01-.01-.03-.02-.04-.04l-.09,.09h0Z"/><path class="cls-4" d="M18.86,13.41c.71,.26,1.29,.56,1.55,.83l-.04,.04s.03,.02,.04,.04c.14-.22,.27-.44,.4-.66,.1-.17,.2-.33,.31-.5l.1,.06c.11-.83,.33-1.6,.5-1.99,.3-.69,.63-1.15,1.01-1.39-.12-.1-.25-.19-.38-.27-.83,.64-2.28,2.1-3.5,3.84h0Zm6.07,.62c.34-1.21,.47-2.52,.25-3.84-.03-.2-.04-.4-.02-.6-.26-1.37-.72-2.45-1.27-3.3-.31,.99-.65,2.14-.53,3.36,.25,0,.51,.06,.8,.2,.81,.41,1.01,2.8,.53,4.12l-.02,.07c.08,0,.17,0,.26,0Z"/><path class="cls-3" d="M24.01,2.7c.38-.23,.75-.47,1.13-.71,.36-.23,.63-.28,.82-.15,.7,.49,.31,3.24,.01,4.49-.19,.81-.44,.9-.51,.9-.12,.01-.25-.13-.35-.37-.33-.77-.8-1.61-1.97-2.53-.31-.24-.44-.41-.44-.56,.01-.27,.5-.57,1.31-1.07h0Zm-4.82,32.86c-3.67-.41-6.93-.69-8.64,.95,.61,.62,1.29,1.15,2.07,1.59,2.98,1.67,9,1.06,11.93-1.21,.87-.68,1.57-1.36,2.14-2.05-1.94,.68-4.68,1.04-7.49,.72Zm1.46-9.07c.26-.67,.8-1.5,.83-1.55,.23-.36,.44-.55,.61-.64,1.26-1.75,2.3-4.66,2.26-6.89h0s0-.01,0-.01c0-.4-.05-.78-.14-1.13-.88,1.68-2.06,2.96-2.97,3.52-1.24,.75-1.7,1.36-2.18,1.99-.15,.19-.3,.4-.47,.6-.79,.92-1.55,1.6-3.58,1.37,1.1,1.58,2.59,3.11,5.64,2.74h0ZM7.84,4.48c-.11-.6-1.31-1.15-2.27-1.59l-.37-.17c-.66-.31-.85-.27-.91-.22-.1,.09,0,.44,.1,.72,.08,.23,.15,.45,.15,.63h-.06c.09,.36,.19,.72,.29,1.07,.65,.14,1.3,.45,2.12,1.23,.15-.37,.37-.75,.72-1.09,.2-.2,.28-.39,.25-.58h0Z"/><path class="cls-3" d="M24.67,14.03c-.37,1-.86,2.33-1.67,2.58-.32,.1-.65,.02-1-.23h0c-.25,1.06-.67,1.97-1.76,2.78-1.29,.95-2.63,1.96-2.44,3.79,.24-.2,.45-.43,.68-.69,.17-.2,.32-.4,.47-.59,.47-.62,.96-1.27,2.23-2.04,1.25-.76,3.02-2.94,3.77-5.6-.09,0-.18,0-.26,0Z"/><path d="M34.55,47.17c-.17,0-.39-.06-.7-.24-2.18-1.26-3.81-2.23-4.94-3.29-.39-.31-.85-.63-1.35-.97-1.38-.95-2.81-1.93-2.87-2.94-.67-.48-1.16-1.11-1.43-1.84-1.3,.65-2.92,1.09-4.64,1.27-1.49,.15-2.91,.08-4.12-.19-.74,.59-1.55,1.01-2.42,1.31,.09,.27,.09,.53-.02,.79-.41,1-2.29,1.75-3.95,2.41-.68,.27-1.33,.53-1.82,.78l-.12,.06h0c-1.08,.42-2.53,.97-4.27,1.46-.51,.15-.81,.12-.94-.07-.03-.05-.05-.1-.06-.17-.36,.16-.57,.05-.68-.09-.61-.74,.14-3.69,.8-4.37,.49-.97,1.04-1.47,1.78-1.96-1.07-1.24-1.64-2.94-1.74-4.66-.08-1.44,0-5.09,2.45-7.95-.27-.56-.5-1.13-.69-1.71h-.05c0-.06,0-.12,0-.17-.09-.28-.17-.56-.24-.84-1.41-5.72,2.18-11.78,3.41-13.12,0-.19,0-.38,0-.57,0-.34,.03-.56,.05-.71,.05-.34,.06-.44-.35-1.25-.45-.9-.93-2.71-1.35-4.31-.15-.56-.29-1.09-.42-1.54-.11-.4,.03-.62,.18-.74,.86-.67,3.98,.38,4.63,.75,.73,.42,1.27,.12,1.95-.25,.07-.04,.14-.08,.21-.11,2.56-1.37,7.06-1.55,8.95-.73,.14,.06,.27,.12,.39,.18,.65,.3,.97,.45,1.6,.19,1.1-.45,2.83-1.1,4.02-1.46,.52-.16,.86-.16,1.1-.02,.34,.2,.44,.65,.59,1.42,.41,2.07-.47,5.16-1.35,6.49,.01,.02,.02,.03,.04,.05l.05-.1c2.24,1.2,4.32,4.3,5.45,8.07,.14,.48,.24,1.07,.29,1.72l.08-.03c.08,.22,.15,.45,.22,.7,.59-1.83,.78-2.67,1.36-5.61,.27-1.34,.8-1.66,1.2-1.69,.71-.05,1.5,.79,1.95,2.1,.53,1.53,.99,3.57,1.02,6.08,.03,.06,.05,.11,.07,.17l-.07,.03c0,1.52-.16,3.22-.55,5.07,0,.05,.01,.1,.02,.15h-.05c-.25,1.16-.6,2.38-1.05,3.66l-.03,.1c.09,.23,.16,.47,.23,.73,.92,3.53,.05,6.97-2.33,9.2-.19,.18-.37,.35-.55,.51,.71,.45,1.31,1.42,1.64,1.95,.06,.09,.1,.17,.14,.22l.15,.23h-.01c.92,1.55,1.21,3.83,.95,4.68-.06,.2-.16,.33-.28,.38-.28,.11-.54,.12-.77,.02-.11-.05-.19-.11-.26-.19,.05,.34,.02,.61-.1,.77-.07,.09-.19,.17-.37,.17Zm-5.47-3.62c1.11,1.04,2.72,1.99,4.86,3.23,.29,.17,.67,.32,.84,.11,.38-.5-.49-2.77-2.08-4.32-.15-.02-.31-.04-.49-.06-1.19-.16-2.66-.36-3.13,1.04Zm5.87,2.24s.12,.32,.41,.45c.18,.08,.39,.07,.62-.02,.07-.03,.13-.12,.17-.27,.27-.86-.06-3.22-1.05-4.74-.41-.14-1.22-.28-1.74,.08-.33,.22-.51,.61-.54,1.15,.98,.96,1.79,2.34,2.09,3.36h.03Zm-33.87-.35c0,.07,0,.12,.03,.16,.08,.11,.34,.11,.74,0,1.76-.5,3.22-1.06,4.3-1.49-.11-.96-.64-1.72-1.41-2-.64-.23-1.32-.07-1.82,.42-.53,.68-1.66,2.14-1.82,2.81l.04,.06s-.04,.03-.06,.04Zm.06-4.22c-.65,.68-1.28,3.52-.78,4.12,.05,.06,.18,.21,.56,0,.1-.5,.67-1.38,1.84-2.89,0-.5-.16-.88-.44-1.09-.28-.22-.69-.26-1.18-.13Zm3.01,.6c.22,0,.44,.04,.65,.12,.82,.3,1.39,1.09,1.52,2.09,.48-.24,1.08-.48,1.72-.73,1.62-.65,3.46-1.38,3.85-2.31,.09-.22,.09-.44,.01-.66-1.38,.45-2.93,.6-4.68,.66-1.94,.06-3.4-.69-4.42-1.85l.09,.14c-.69,.46-1.19,.9-1.64,1.73,.47-.09,.87-.02,1.17,.2,.3,.23,.47,.59,.51,1.07,.36-.3,.78-.45,1.22-.45Zm20.74-1.96c.19,.88,1.56,1.82,2.77,2.65,.45,.31,.89,.61,1.26,.9,.54-1.47,2.14-1.25,3.31-1.1,.15,.02,.28,.04,.42,.05,.04-.57,.24-.99,.61-1.23,.48-.33,1.17-.3,1.69-.16,0,0,0-.01-.01-.02-.3-.49-.93-1.51-1.63-1.92-1.11,.97-2.05,1.51-4.07,1.73-1.21,.13-2.5-.04-3.54-.48-.3-.12-.57-.27-.82-.43ZM1.56,36.35c.69,2.44,2.47,4.47,5.46,4.47,.07,0,.14,0,.2,0,2.93-.09,5.15-.44,7.05-1.9-.65-.16-1.24-.39-1.74-.67-.73-.41-1.39-.9-1.98-1.48-1.55,.95-3.38,1.23-5.46,.83-1.54-.3-2.86-.92-3.53-1.25Zm23.31,3.28c1.02,.73,2.5,1.17,4.36,.97,2.36-.26,3.18-.93,4.65-2.31,1.11-1.04,1.88-2.34,2.29-3.79-1.41,1.59-5.47,3.83-10.55,1.71-.3,.27-.62,.55-.98,.82-.36,.28-.78,.54-1.23,.78,.23,.65,.71,1.29,1.41,1.79h.04s0,.02,0,.03Zm-10.41-.85c1.21,.28,2.63,.35,4.13,.2,2.37-.24,4.54-1,5.94-2.09,3.62-2.81,4.25-5.66,4.55-8.81-1.24,1.5-1.75,1.81-4.18,2.23h0c-.1,.12-.33,.18-.68,.18-1.1,0-1.84-.42-2.56-.9-.45,0-.71-.04-.81-.22-.12-.22,.05-.56,.45-1.15,.15-.22,.31-.41,.48-.58l.05-.86c-.18,.09-.37,.2-.58,.35-.21,.14-.51,.32-.67,.16-.38-.37,.85-2.27,.9-2.35,.23-.36,.44-.55,.62-.64,1.83-2.53,2.56-6.14,2.11-8.03-.88,1.67-2.06,2.96-2.97,3.51-1.24,.75-1.7,1.36-2.18,1.99-.15,.19-.3,.4-.47,.6-.79,.92-1.56,1.61-3.6,1.37-1.65-.19-1.83-.43-2.13-.83-.08-.1-.17-.22-.3-.35-.16-.16-.3-.33-.45-.51-.47-.56-1.05-1.26-2.57-2.27-.51-.34-.97-.76-1.38-1.27,.03,2.22,1.39,4,2.39,5.3l.02,.03c.79,1.04,.87,1.79,.75,2.74h-.06c.3,.33,.33,.95,.37,1.55,.03,.47-.01,.66-.15,.74-.15,.09-.36-.02-.71-.24-.02,.24-.07,.63-.24,.84,.81,.59,1.17,1.05,1.06,1.36-.08,.23-.4,.34-.9,.31-.6-.04-1.05-.08-1.48-.24,0,.08-.03,.13-.05,.16-.18,.28-.79,.36-1.37,.1,.82,3.29,2.4,5.56,4.83,6.91,.52,.29,1.14,.52,1.84,.68,0,0,0,0,0,0h0Zm-8.32-1.2c1.6,.14,3.04-.17,4.28-.93-1.03-1.06-1.83-2.4-2.4-4.04-.81,.27-1.9,.37-2.96,.27-.03,1.03,.1,3.61,1.08,4.69h0Zm-4.65-1.45c.61,.31,1.99,.99,3.63,1.31,.26,.05,.51,.09,.76,.12-.91-1.2-1.03-3.68-1-4.69-.03,0-.05,0-.08-.01-1-.13-2.37-.5-3.34-1.51-.26,1.32-.25,2.47-.22,3.13,.03,.56,.11,1.11,.25,1.65Zm24.29-.04c1.52,.62,2.94,.85,4.22,.82,.79-1.29,1.25-3.7,1.19-5.15h.18c.06,1.44-.39,3.81-1.16,5.15,3.07-.14,5.31-1.73,6.06-2.8h0c.35-1.5,.32-3.14-.11-4.81-.05-.18-.1-.36-.16-.54-1.12,2.13-3.64,3.21-7.49,3.22-.5,1.41-1.32,2.77-2.74,4.12ZM1.51,31.11c1.65,1.82,4.92,1.83,6.46,1.32-.14-.43-.27-.87-.38-1.34-.74-.11-1.75-.96-2.73-2.3-.47-.64-.89-1.35-1.26-2.09-1.18,1.41-1.79,3-2.09,4.41Zm27.8-3.29c-.12,1.36-.29,2.67-.72,3.94,3.83-.02,6.3-1.12,7.34-3.27-.8-2.09-2.48-3.37-4.91-3.7,0,.01,0,.02-.01,.03,0,.02,0,.03,0,.05h-.02c-.33,.94-.74,1.76-1.22,2.36l-.08,.1c-.14,.17-.27,.34-.39,.49Zm-21.54,3.14c.57,.31,1.13,.19,1.24,.02,.03-.05,.02-.11-.01-.16-.21-.11-.41-.25-.63-.44-.28,.1-.48,.25-.6,.58Zm1.35-.29c.45,.22,.93,.26,1.58,.3,.4,.02,.67-.05,.72-.19,.03-.09,.04-.43-1.08-1.22-.39-.22-.86-.24-1.25-.05-.32,.15-.54,.42-.6,.73,.14,.12,.27,.22,.41,.31l.03-.05c.09,.06,.15,.11,.19,.17Zm-4.06-1.91c.9,1.22,1.84,2.04,2.54,2.15,.12-.35,.33-.56,.71-.7,.07-.36,.33-.68,.7-.86,.43-.21,.94-.2,1.37,.03,.15-.14,.21-.56,.22-.85-.15-.09-.31-.19-.5-.3-.61-.36-.92-.71-.9-1.06,.01-.25,.21-.47,.54-.62h0c.6-.27,1.04-.31,1.35-.12,.02,.01,.05,.03,.07,.05,.06-.5,.06-.94-.1-1.4-.93-.22-2.92-.08-4.32,.9-.95,.67-1.49,1.61-1.61,2.79h-.08Zm16.94,.81c.63,.4,1.3,.73,2.24,.73,.49,0,.55-.13,.56-.16,.03-.14-.24-.44-.74-.66v-.02c-.39,.12-.93,.12-1.44,.11-.23,0-.44,0-.63,0,0,0,0,0,0,0Zm2.28-.2c.38,.2,.7,.48,.71,.73,1.95-.34,2.61-.62,3.5-1.59h-.08c-.11-1.52-.53-2.57-1.29-3.22-1.05-.91-2.69-.95-4.34-.85,.14,.17,.21,.43,.22,.67h0c.05,1.07-.3,1.24-.92,1.55-.02,.01-.05,.02-.07,.03h.02s-.05,.78-.05,.78c.33-.27,.69-.43,1.03-.44,.37-.02,.69,.14,.94,.45,.58,.74,.78,1.27,.62,1.61-.06,.12-.16,.21-.29,.28Zm-1.22-2.16s-.03,0-.04,0c-.52,.02-1.11,.44-1.55,1.1-.28,.41-.52,.81-.44,.96,.08,.14,.53,.14,.97,.12,.19,0,.41,0,.64,0,.74,0,1.58,.01,1.77-.37,.13-.27-.07-.75-.59-1.42h0c-.2-.25-.45-.38-.75-.38Zm-12.41-.72c-.22,0-.5,.07-.83,.22h0c-.16,.07-.42,.22-.43,.47-.01,.26,.27,.58,.81,.89,.21,.12,.39,.24,.55,.34,.3,.19,.58,.36,.65,.32,.04-.02,.08-.14,.06-.57-.04-.66-.07-1.34-.45-1.57-.1-.06-.21-.09-.35-.09Zm-7.7-1.89c.48,1.5,1.23,2.92,2.02,4.03,.15-1.19,.71-2.13,1.67-2.81,.2-.14,.41-.27,.63-.37-.54-.88-1.25-4.06-1.42-4.87-.59,.18-1.13,.45-1.56,.83-.88,.75-1.34,1.86-1.34,3.2Zm24.11,.4c.06,.04,.12,.09,.17,.14,.78,.67,1.22,1.74,1.34,3.26,.28-.32,.6-.71,.98-1.19l.08-.1c.47-.59,.87-1.39,1.2-2.32,.05-1.76-.75-3.19-2.25-4.02-.16-.09-.32-.17-.48-.24,.02,1.43-.44,3.72-1.04,4.47Zm6.08,.19c1.33,.62,2.3,1.64,2.88,3.03,.45-1.28,.79-2.5,1.04-3.65-.34-2.07-1.8-2.92-2.95-3.27,.01,.53,.04,3.01-.43,4.13l-.17-.07c.47-1.13,.43-3.77,.42-4.12-.46-.12-.86-.17-1.09-.18,.24,1.5,.37,3.04,.3,4.12Zm-10.98-.73c-.16,.09-.34,.28-.52,.56-.69,1.06-1.06,2-.93,2.12,0,0,.07,.07,.44-.18,.33-.22,.61-.37,.84-.48,.61-.31,.86-.43,.82-1.38h0c-.01-.26-.11-.55-.28-.66-.08,0-.15,.01-.23,.02v-.05s-.05,.01-.08,.02c-.01,.02-.03,.04-.04,.05l-.03-.02Zm-16.14-3.95c.17,.79,.89,4,1.41,4.84l-.05,.03c1.28-.61,2.76-.69,3.61-.53-.12-.29-.3-.58-.55-.92l-.02-.03c-.71-.92-1.59-2.08-2.07-3.47-.79-.14-1.59-.1-2.32,.08Zm26.16,4.32c.27,.08,.53,.17,.78,.28,.05-1.06-.07-2.58-.31-4.05-.01,0-.02,0-.03,0v-.16c-.17-1.01-.39-1.98-.64-2.77,.04,.85,0,1.8-.11,2.76,.02,.08,.03,.17,.05,.25,.22,1.08,.45,2.2,.26,3.69Zm-8.3-.63c1.13,0,2.2,.15,3.02,.69,.58-.7,1.04-3.05,1.01-4.44-1.49-.58-3.06-.47-3.81,.04l-.02-.03c-.4,1.38-1.01,2.74-1.71,3.75,.04,0,.08,0,.12,.02,.03,0,.05,.02,.08,.03,.44-.03,.88-.05,1.31-.05Zm7.2,.4c.32,.05,.63,.11,.92,.18,.16-1.33-.01-2.36-.21-3.34-.15,1.09-.4,2.17-.72,3.15Zm-1.12-2.95c.61,.71,.97,1.6,1.04,2.62,.32-1.05,.56-2.21,.69-3.35v-.05s0,0,0,0c.08-.74,.12-1.47,.12-2.15h0c-.54-.76-1.1-1.36-1.7-1.79,.12,1.12,.13,3.27-.14,4.73h-.01Zm2.84-.77c.77,.05,3.62,.41,4.34,3.24,.34-1.74,.47-3.34,.46-4.78-.38-.78-1.06-1.39-1.95-1.73-.99-.38-2.15-.37-2.94,.03l-.02-.04c-.09,.3-.19,.61-.3,.96l-.11-.04c.2,.71,.37,1.52,.51,2.35Zm-30.3-1.61c-.19,1.45-.17,2.97,.2,4.47,.03,.11,.05,.22,.08,.32,.06-.65,.23-1.24,.51-1.75-.29-1.34-.27-2.78,.07-4.29-.32,.33-.6,.75-.79,1.27l-.08-.03Zm4.45-3.51c.52,1.53,1.36,2.97,2.7,3.85,1.55,1.02,2.16,1.77,2.61,2.31,.15,.19,.29,.35,.44,.5,.14,.14,.23,.26,.31,.37,.27,.36,.43,.57,2,.76,1.96,.23,2.66-.4,3.44-1.31,.17-.2,.32-.4,.47-.59,.47-.62,.96-1.27,2.23-2.04,.8-.48,2.01-1.74,2.91-3.47,.73-1.39,1.52-3.55,1.11-5.97-.03-.2-.04-.41-.02-.61-.67-3.54-2.67-5.16-4.24-5.89-.24-.11-.49-.22-.72-.32-.02,.5-.15,3.45-.56,4.79,1.34,.42,2.61,1.02,3.27,1.58,.03-.01,.05-.02,.08-.03,.35-.13,.74-.09,1.17,.13,.81,.41,1.01,2.8,.53,4.12-.37,1.01-.87,2.39-1.69,2.65-.32,.1-.65,.02-1-.23-.81-.59-.92-1.85-.79-3.01-.07,.11-.15,.24-.23,.38-.98,1.63-3.03,5.01-5.97,5.01-2.46,0-4.07-2.11-5.07-4.21,.12,.67,.11,1.24-.06,1.68-.15,.39-.41,.67-.78,.82-.34,.14-.68,.12-1.01-.05-.45-.22-.83-.7-1.12-1.23Zm-3.34,2.04c-.37,1.51-.43,2.95-.17,4.28,.2-.31,.44-.59,.73-.83,.46-.39,1.02-.68,1.64-.86,0,0,0,0,0,0l.14-.03c.73-.19,1.54-.24,2.33-.11-.18-.57-.29-1.18-.29-1.82h.12c-.35-.45-.66-.97-.93-1.56-.67-.15-2.37-.09-3.57,.94Zm22.27,2.08c.88,0,1.88,.22,2.79,.72,.44,.25,.83,.54,1.15,.88,.26-1.51,.23-3.68,.1-4.7h0c-.67-.44-1.38-.67-2.11-.69-1.67-.05-2.94,.99-3.27,1.35,.01,.88-.14,1.85-.4,2.82,.43-.24,1.04-.38,1.74-.38Zm8.28-2.73c.52,0,1.06,.1,1.57,.29,.81,.31,1.46,.83,1.88,1.51-.04-1.32-.19-2.51-.41-3.56l-.04,.02c-.44-1.06-1.17-1.43-1.71-1.55-.8-.18-1.55,.1-1.91,.42l-.02-.02c-.29,1.39-.48,2.21-.76,3.16,.41-.18,.9-.27,1.4-.27ZM5.94,10.94c-.92,1.09-2.8,4.27-3.38,7.95,1.02-2.13,3.51-2.38,4.53-2.22-.29-.66-.53-1.4-.71-2.22-.25-1.08-.39-2.25-.44-3.51Zm4.38,3.99c.99,1.88,2.49,3.65,4.68,3.65,2.84,0,4.85-3.33,5.81-4.93,.12-.19,.22-.36,.31-.5l.1,.06c.11-.83,.33-1.6,.5-1.99,.3-.69,.63-1.15,1.01-1.39-1.27-1.05-4.83-2.25-6.56-1.98-.44,.07-.74,.22-.89,.46,0,2.33,.06,4.32,.06,4.34h-.18s-.06-2.03-.06-4.37c0-.15-.06-.25-.2-.31-1.13-.49-6.12,1.94-7.08,2.77,.53,.28,1.01,.95,1.32,1.57,.21,.43,.39,.84,.52,1.23h.03c.16,.39,.35,.81,.56,1.22,.63-1,3.31-1.97,4.82-2.08,1.4-.11,4.51,.7,5.36,1.54l-.13,.13c-.69-.69-3.61-1.62-5.21-1.49-1.64,.13-4.27,1.18-4.72,2.08h-.03Zm18.19,1.06c1.19,.25,2.3,1.06,3.3,2.4-.02-.89-.12-1.69-.31-2.32-.02-.07-.04-.13-.06-.2l-.06,.02c-.96-2.64-2.87-4.51-3.68-4.83,.46,1.41,.73,3.05,.82,4.93Zm-4.17,.02c.11,.36,.17,.76,.19,1.18,.48-.45,1.72-1.33,3.28-1.29,.17,0,.35,.02,.52,.05-.16-3.37-.91-5.93-2.3-7.8-.07,.09-.14,.17-.21,.24h0c-.23,.23-.43,.65-.48,1.15,0,0,0,0,0,0,0,.04,.01,.07,.02,.1h-.03c0,.16,0,.32,.03,.49,.35,2.1-.17,4.17-1.02,5.87ZM6.42,13.7c.05,.22,.11,.46,.17,.7,.24,.89,.8,2.07,1.56,2.45,.29,.14,.58,.16,.87,.04,.32-.13,.55-.37,.68-.71,.31-.83,.04-2.24-.73-3.78h0c-.46-.91-1.07-1.54-1.58-1.6-.24-.03-.45,.07-.64,.28-.41,.48-.53,1.08-.46,1.8,.04,.27,.08,.54,.13,.82Zm16.98-3.87c-.12,0-.24,.02-.35,.06-.43,.16-.82,.63-1.15,1.41-.46,1.07-1.05,4.01,.21,4.93,.3,.22,.58,.29,.84,.21,.73-.22,1.22-1.56,1.57-2.53,.48-1.31,.22-3.57-.44-3.9-.25-.12-.47-.18-.68-.18Zm11.54,3.82c.18,0,.37,.02,.54,.06,.49,.11,1.12,.4,1.58,1.15-.14-.57-.3-1.08-.46-1.55-.42-1.21-1.15-2.02-1.77-1.98-.47,.03-.84,.58-1.03,1.54-.09,.44-.17,.83-.24,1.19,.36-.26,.86-.4,1.37-.4Zm-7.27-2.77c.78,.22,2.26,1.67,3.3,3.64-1.14-2.93-2.86-5.26-4.69-6.31,.57,.79,1.02,1.7,1.38,2.73l.02-.05Zm-21.55-.13c0,.32,.03,.68,.06,1.06,.08-.31,.22-.59,.44-.85,.23-.27,.5-.38,.8-.35,.09,.01,.18,.04,.27,.07l-.04-.04c.42-.4,1.75-1.16,3.19-1.8-.63-1.46-.53-4.23-.49-4.95-1.66,.91-3.31,2.29-4.12,5.08l-.06-.02c.03,.16,.02,.28,0,.46-.02,.16-.05,.35-.05,.68,0,.18,0,.37,0,.59l.03,.03s-.02,.02-.02,.02ZM15.52,2.22c1.48,0,3.34,.31,5.48,1.31,1.54,.72,3.48,2.26,4.25,5.57,.09-.32,.25-.61,.45-.82h0c.93-.93,2.05-4.53,1.62-6.72-.14-.7-.24-1.14-.51-1.3-.19-.12-.49-.1-.95,.04-1.18,.35-2.9,1-4,1.45-.7,.29-1.1,.11-1.75-.19-.12-.05-.25-.11-.39-.17-.99-.43-2.71-.58-4.49-.42v1.24h-.18V.99c-1.49,.15-2.99,.52-4.12,1.12-.07,.04-.14,.08-.21,.11-.67,.37-1.31,.72-2.13,.25-.77-.44-3.71-1.33-4.43-.77-.15,.12-.19,.29-.12,.54,.02,.06,.04,.13,.06,.2,.02-.03,.04-.06,.06-.08,.17-.15,.51-.09,1.11,.19,.12,.06,.25,.11,.37,.17,1.06,.48,2.25,1.03,2.38,1.72,.05,.25-.05,.5-.3,.74-.62,.62-.81,1.34-.97,1.97,1.31-2.48,3.42-3.44,5.18-4.25,.51-.23,1.76-.7,3.58-.7Zm-4.98,1.58c-.03,.45-.18,3.48,.47,4.98,1.61-.71,3.3-1.25,3.96-.97,.13,.06,.23,.15,.27,.26,.19-.2,.5-.33,.9-.39,.86-.13,2.1,.07,3.32,.43,.43-1.4,.55-4.72,.55-4.8-4.22-1.66-7.17-.6-8.01-.22-.47,.22-.97,.44-1.47,.71Zm-6.07,.06c.42,1.57,.88,3.34,1.32,4.21,.15,.31,.25,.52,.31,.69,.11-.36,.24-.7,.38-1.02l-.07-.02c.06-.17,.1-.36,.15-.55,.16-.64,.36-1.43,1.02-2.09,.2-.2,.28-.39,.25-.58-.11-.6-1.31-1.15-2.27-1.59-.13-.06-.25-.12-.37-.17-.66-.31-.85-.27-.91-.22-.1,.09,0,.44,.1,.72,.08,.23,.15,.45,.15,.63h-.06Zm20.98,3.55c-.19,0-.37-.17-.51-.48h0c-.32-.75-.78-1.57-1.92-2.45-.37-.28-.52-.5-.51-.72,.02-.36,.48-.65,1.39-1.21,.33-.2,.7-.43,1.12-.71,.42-.28,.77-.33,1.03-.15,.85,.6,.35,3.58,.08,4.68-.16,.66-.39,1.02-.67,1.04,0,0-.02,0-.03,0Zm.27-5.64c-.16,0-.35,.07-.58,.22-.43,.28-.8,.51-1.13,.71-.81,.5-1.29,.8-1.31,1.07,0,.15,.13,.32,.44,.56,1.17,.91,1.64,1.75,1.97,2.53h0c.1,.24,.24,.38,.35,.37,.07,0,.31-.09,.51-.9,.3-1.25,.69-3.99-.01-4.49-.07-.05-.15-.07-.24-.07Z"/></svg>