<?xml version="1.0" encoding="utf-8"?>
<!-- Generator: Adobe Illustrator 27.0.0, SVG Export Plug-In . SVG Version: 6.00 Build 0)  -->
<svg version="1.1" id="Capa_1" xmlns="http://www.w3.org/2000/svg" xmlns:xlink="http://www.w3.org/1999/xlink" x="0px" y="0px"
	 viewBox="0 0 120 120" style="enable-background:new 0 0 120 120;" xml:space="preserve">
<style type="text/css">
	.st0{fill:#ED8599;}
	.st1{fill:#FFF1AC;}
	.st2{fill:#FFFFFF;}
	.st3{fill:#CE7486;}
	.st4{fill:#DCD096;}
	.st5{fill:#922F00;}
	.st6{fill:#DBDCDC;}
	.st7{fill:#0D131A;}
</style>
<g>
	<g>
		<path class="st0" d="M66.1,47.9c3.8,0.5,7.2,1.5,10.1,3.2c3.2,1.8,6.1,4.3,8.9,7.7c1.7,2,2.9,4.6,3.7,7.8c0.7,3,1,6.2,0.9,9.7
			C89.5,79.6,89,82.9,88,86c-1,3.2-2.2,5.9-3.8,8.1l-5.4,0.1c-0.5-0.7-1-2.1-1.7-4c-0.6-1.8-1-3.2-1.2-4.2c-3.5,2.4-9.1,3.7-16.7,4
			c-6.9,0.3-12.8-0.4-17.7-1.9L20.9,69.9c0.1-1,0.5-2.3,1.2-3.9c0.6-1.5,1.2-2.7,1.8-3.7c-0.4-0.2-0.7-0.7-1-1.4s-0.5-1.4-0.5-2.2
			c-0.1-2,0.5-3.3,2-4.2s3-1.1,4.6-0.7c1.5,0.4,2.5,1.2,3.3,2.4c1.6-0.5,3.3-0.9,5.2-1.1c2-0.2,3.5-0.2,4.7,0.1
			c2-2.6,5.3-4.6,9.9-6.1C56.8,47.6,61.5,47.2,66.1,47.9"/>
		<path class="st1" d="M26.6,67.4c1.3-0.3,2.5-0.4,3.6-0.3c1.5,0.2,3.1,0.8,4.7,1.8c2,1.2,4,2.4,6,3.4c2.2,1.1,4,1.9,5.5,2.4
			c1.6,0.5,2.7,1.3,3.3,2.5c0.7,1.2,0.5,2.6-0.3,4.1c-1.6,2.8-4,5-7.3,6.6c-2.9,1.4-5.8,2.1-8.8,2.1c-3.3,0-5.8-0.8-7.6-2.4
			c-1.9-1.7-2.7-4.1-2.5-7.2l-1-1.6C21.5,79,20.7,79,20,78.7s-1.2-0.8-1.5-1.6c-0.3-0.7-0.5-1.6-0.4-2.5c0.1-1,0.4-1.9,0.9-2.8
			c0.7-1.1,1.8-2,3.5-2.9C23.9,68.2,25.2,67.7,26.6,67.4"/>
		<path class="st0" d="M28.3,93.3c0-0.5,0-1.2,0.1-2.1s0.2-1.5,0.2-2.1c1.3,0.7,3.2,0.9,5.7,0.7c2.5-0.2,4.8-0.7,7-1.6
			c-0.6,1.4-1.8,2.9-3.7,4.4s-3.6,2.3-5.1,2.6L28.3,93.3"/>
		<path class="st0" d="M94.1,28.9c3.6,3,5.9,6.7,7,11c1,3.8,0.9,7.8-0.1,12.1c-0.9,3.8-2.5,7.4-4.7,10.7c-2.2,3.1-4.5,5.4-6.9,6.7
			c-0.2-2.3-1-4.8-2.4-7.5c-1.7-3.3-3.8-5.9-6.4-7.7c4.4-1.7,6.8-4.8,7.2-9.1c0.2-1.8,0-3.6-0.6-5.5c-0.6-1.7-1.4-3.2-2.5-4.4
			c-2.9-3.3-7-5.6-12.3-7C67,26.7,61.6,26.6,56.1,28c-1,0.2-1.7,0.1-2.1-0.3c-0.4-0.5-0.3-1,0.4-1.7c2.1-2,4.7-3.4,8-4.3
			c3.2-0.9,6.6-1.2,10.4-1s7.5,1,11.1,2.4C87.7,24.5,91.1,26.5,94.1,28.9"/>
		<path class="st2" d="M61.6,27.1c-2.2,0.2-4.1,0.5-5.7,1c-1,0.3-1.6,0.2-2-0.4c-0.3-0.6-0.2-1.2,0.4-1.7c1.9-1.6,3.9-2.9,6.3-3.7
			c2.4-0.9,5.3-1.5,8.7-1.7c-0.9,0.7-1.5,1.6-1.8,2.9c-0.3,1.4-0.1,2.7,0.8,3.8C66.1,27,63.9,26.9,61.6,27.1"/>
		<path class="st0" d="M29.3,78.3c0.4,0.1,1,0.3,1.9,0.6l2.3,0.8c1.6,0.5,3.6,0.8,5.9,0.8c2.3,0,4.3-0.3,5.9-0.9
			c-0.7,3-2.6,5.3-5.9,6.7c-2.8,1.2-5.6,1.6-8.6,1.1c-2.3-0.9-3.5-2.3-3.8-4.2C26.7,81.3,27.5,79.7,29.3,78.3"/>
		<path class="st2" d="M21.3,78.9c0.4,0,1.2-0.1,2.4-0.5c0.1,0.7,0.1,1.3-0.2,1.7c-0.1,0.2-0.4,0.3-0.9,0.4c-0.4,0-0.7,0-0.8-0.1
			c-0.1-0.1-0.2-0.3-0.3-0.7C21.4,79.4,21.4,79.1,21.3,78.9"/>
		<path class="st2" d="M27,94.4c0.1-0.4,0.4-0.7,1-0.9c0.6-0.3,1.3-0.3,2-0.2c0.7,0.1,1.3,0.4,1.8,0.8s0.7,0.8,0.6,1.2
			c-0.1,0.4-0.4,0.7-1,0.8c-0.5,0.1-1.1,0.1-1.7,0c-0.7-0.1-1.3-0.3-1.8-0.6C27.2,95.2,27,94.8,27,94.4"/>
		<path class="st2" d="M83.4,95.4c-0.5,0.3-1.1,0.4-1.8,0.5c-0.7,0.1-1.3,0-1.9-0.3c-0.7-0.3-1-0.6-1-1s0.2-0.8,0.8-1.1
			c0.5-0.3,1.2-0.5,2-0.5c0.7,0,1.4,0.1,1.9,0.3c0.5,0.3,0.8,0.7,0.8,1.2C84.2,94.8,84,95.1,83.4,95.4"/>
		<path class="st2" d="M24,62.4c0.5-0.4,0.9-0.6,1.3-0.6c0.5,0,0.8,0.4,1,1.1c0.1,0.6,0.1,1.4-0.1,2.4c-0.2,1.2-0.5,2-0.9,2.6
			c-0.6,0.2-1.3,0.5-2.2,0.8c-1,0.5-1.7,0.9-2.2,1.2c0.1-1,0.4-2.2,1.1-3.7C22.6,64.8,23.2,63.5,24,62.4"/>
		<path class="st2" d="M38.6,65.8c1-2,2.6-3,4.8-3c1.6,0,2.9,0.8,4,2.4c1,1.5,1.3,3.1,1.1,4.7c-0.2,1-0.7,1.9-1.6,2.7
			c-0.9,0.8-2,1.2-3.3,1.2l-4.8-2.5c-0.5-0.8-0.8-1.6-0.8-2.6C37.9,67.6,38.2,66.7,38.6,65.8"/>
		<path class="st3" d="M23,56.2c-0.2,0.9,0,1.8,0.4,2.8c0.5,1,1,1.7,1.8,1.8l-0.5,0.6l-0.6,0.8c-0.8-0.5-1.4-1.3-1.6-2.7
			C22.3,58.2,22.5,57.1,23,56.2"/>
		<path class="st3" d="M47.1,84.2c2,0.8,4.6,1.3,7.9,1.6c3.4,0.3,6.8,0.3,10.2,0c3.8-0.3,7-1,9.8-2.1c3.1-1.2,5.4-2.7,6.8-4.5
			c-0.6,2-2,4-4.4,5.8c-2.5,1.9-5.5,3.2-8.9,4c-3.8,0.8-8.2,1.2-13.2,1.1c-5.5-0.1-10-0.7-13.7-1.8C43.7,87,45.6,85.7,47.1,84.2"/>
		<path class="st3" d="M79.8,82.5c-0.4,1.4-0.5,3.2-0.5,5.5c0,2.2,0.2,3.9,0.6,5.2l-0.6,0.4c-0.3,0.2-0.5,0.4-0.6,0.5
			c-0.4-0.5-1-1.7-1.6-3.5c-0.7-1.9-1.1-3.5-1.2-4.8c0.7-0.4,1.4-0.9,2.1-1.5C78.8,83.7,79.4,83.1,79.8,82.5"/>
		<path class="st3" d="M61.1,91.9c-0.7-0.3-1.3-0.4-2-0.3l1.1-1.7c2-0.1,3.8-0.2,5.2-0.5c-0.3,0.6-0.7,1.2-1.3,1.9
			c-0.7,0.8-1.3,1.3-1.8,1.7C62.2,92.6,61.8,92.2,61.1,91.9"/>
		<path class="st3" d="M29.9,89.7c1.8,0.3,3.9,0.3,6.2,0c2-0.3,3.7-0.7,5.1-1.3c-0.6,1.4-1.9,2.9-3.9,4.4s-3.6,2.3-5,2.4
			c0-0.4-0.2-0.7-0.6-1.1c-0.3-0.3-0.7-0.5-1-0.6c0.1-0.5,0.1-1.1-0.1-1.8C30.4,90.8,30.2,90.2,29.9,89.7"/>
		<path class="st3" d="M101.5,41.9c0.4,3.1,0.3,6.3-0.4,9.6c-0.8,3.6-2.1,6.8-4,9.8c-2.1,3.3-4.7,6-7.8,8c-0.1-0.8-0.3-1.8-0.6-3
			c-0.3-1.2-0.7-2.3-1.2-3.2c5-3,8.6-7.1,10.8-12.1c2.4-5.5,2.6-11,0.4-16.6C100.2,36.4,101.1,38.8,101.5,41.9"/>
		<path class="st4" d="M46.6,78.7c0.3-0.2,0.6-0.2,1,0c0.3,0.3,0.6,0.7,0.7,1.3c0.4,1.5,0,2.9-1.3,4.2c-1.9,1.9-4.2,3.4-6.9,4.4
			s-5.5,1.4-8.5,1.3c-2.7-0.2-4.9-1.1-6.5-2.9c-1.7-1.8-2.3-4.1-1.8-6.7c0.2-0.2,0.3-0.4,0.3-0.7c0.1-0.4,0.1-0.7,0-1.2l0.6-0.2
			l0.7-0.1C24.3,79,24,80,24,81.1s0.2,2.1,0.8,3c1.3,2.1,3.5,3.3,6.6,3.4c3.1,0.2,5.8-0.3,8.2-1.5c2.9-1.4,4.7-3.5,5.5-6.5l0.7-0.3
			L46.6,78.7"/>
		<path class="st4" d="M31.7,79c-1.1-0.5-2.4-0.8-3.8-1c-1.8-0.2-3.4,0-4.9,0.5c-0.8,0.3-1.5,0.4-2.2,0.3c-0.6-0.1-1.1-0.3-1.6-0.6
			c-0.4-0.3-0.7-0.7-0.8-1c0.5,0.4,1,0.6,1.6,0.6c0.5,0,1.3-0.2,2.6-0.5c1.9-0.5,3.6-0.6,5-0.6c1.6,0.1,3.1,0.5,4.7,1.2
			c1.6,0.8,4,1.2,7,1.4c3.2,0.2,5.6,0,7.2-0.7c-1.7,1.1-4.1,1.7-7.3,1.7C36.3,80.5,33.8,80,31.7,79"/>
		<path class="st3" d="M40.3,80.4c2.3-0.1,3.9-0.4,4.9-0.8c-0.1,1-0.6,2.1-1.5,3.3c-0.7,0.9-1.5,1.7-2.3,2.3
			c-0.6-0.9-1.7-1.7-3.1-2.3c-1.3-0.6-2.7-1-4.3-1.2s-3-0.2-4.3,0c-1.4,0.2-2.3,0.6-2.9,1.3c-0.1-0.7,0.1-1.6,0.6-2.6s1.2-1.7,1.9-2
			l1.9,0.5l2.6,0.9C35.5,80.3,37.7,80.5,40.3,80.4"/>
		<path class="st5" d="M27.4,80.5c-0.4,0.9-0.5,1.8-0.3,2.7c0.2,1,0.5,1.8,1.2,2.5c0.7,0.8,1.5,1.3,2.5,1.7
			c-2.5-0.2-4.3-1.2-5.5-3.1c-1.2-1.9-1.2-4,0-6.2c1.2-0.3,2.6-0.2,4.1,0.2C28.4,78.9,27.8,79.6,27.4,80.5"/>
		<path class="st6" d="M27.3,93.9c0.2,0.6,0.8,0.8,1.8,0.8s1.6-0.5,1.7-1.2c0.5,0.2,0.9,0.5,1.2,0.9c0.3,0.4,0.4,0.8,0.2,1.1
			c-0.2,0.3-0.4,0.4-0.8,0.6l-1.8,0.1c-0.9-0.1-1.6-0.3-2-0.7C27.1,95,27,94.5,27.3,93.9"/>
		<path class="st6" d="M59.1,91.6c0.7-0.1,1.4,0,2.1,0.3c0.7,0.3,1.1,0.7,1.1,1.1c0,0.5-0.6,0.9-1.7,1.1c-1.2,0.2-2.2,0-3-0.5
			C57.9,93.3,58.4,92.6,59.1,91.6"/>
		<path class="st6" d="M83.6,95.2c-0.5,0.3-1.2,0.5-2,0.6c-0.9,0-1.7-0.1-2.3-0.5c-0.7-0.4-0.8-0.8-0.3-1.4c0.2,0.6,1,0.9,2.5,0.9
			c1.4,0,2.3-0.3,2.8-0.7C84.3,94.5,84.1,94.9,83.6,95.2"/>
		<path class="st2" d="M35.5,80.1l2.5,0.3c-0.1,0.8-0.3,1.3-0.6,1.5C37.3,82,37,82.1,36.5,82c-0.4,0-0.7-0.1-0.8-0.2
			C35.6,81.7,35.5,81.1,35.5,80.1"/>
		<path class="st7" d="M29.6,57.4c1.3-0.9,2.8-1.5,4.5-2c1.7-0.5,3.6-0.7,5.5-0.7c4.2,0,8,1.4,11.3,4.1c3.4,2.8,5.7,6.6,6.9,11.2
			c0.1,0.2,0,0.3-0.1,0.4c-0.1,0-0.2-0.1-0.2-0.3c-1.5-4.5-3.8-8-7-10.7s-6.9-4.1-11-4.1c-3.7,0-7,0.8-9.9,2.3
			c-0.2,0.1-0.3,0.1-0.4,0.1C29.3,57.7,29.4,57.6,29.6,57.4"/>
		<path class="st7" d="M25.7,60.1c0.2-0.2,0.3-0.2,0.4-0.1c0.1,0.1,0,0.2-0.2,0.4c-1,1-2,2.5-3,4.4c-0.9,1.9-1.5,3.6-1.7,5.1
			l-0.6,0.4c0.2-1.7,0.8-3.5,1.8-5.5C23.4,62.6,24.5,61.1,25.7,60.1"/>
		<path class="st7" d="M23.4,63.3l0.7-1.2c0.2-0.2,0.5-0.4,0.8-0.5h0.8c0.7,0.2,1,1.1,0.9,2.6c-0.1,1.4-0.4,2.6-1,3.6L24.9,68
			c0.7-1.2,1.1-2.5,1.2-3.8c0.1-1.3-0.1-2-0.5-2.1s-0.7,0-1.1,0.2S23.7,62.9,23.4,63.3"/>
		<path class="st7" d="M24.5,65.3l0.2,0.1l0.1,0.3L24.7,66c0,0-0.1,0.1-0.2,0.1L24.3,66c0-0.1-0.1-0.2-0.1-0.3
			C24.3,65.5,24.4,65.3,24.5,65.3"/>
		<path class="st7" d="M44.1,67.4c0.1,0,0.2,0,0.2,0.1c0.1,0.1,0.1,0.2,0.1,0.3s0,0.2-0.1,0.3c-0.1,0.1-0.2,0.2-0.3,0.1
			c-0.1,0-0.2,0-0.2-0.1c-0.1-0.1-0.1-0.2-0.1-0.3c0-0.1,0-0.2,0.1-0.3C43.9,67.4,44,67.4,44.1,67.4"/>
		<path class="st7" d="M23.3,74.8c-0.1-0.3,0-0.4,0.2-0.5c0.2,0,0.3,0.1,0.3,0.3c0.1,0.6,0.2,1,0.3,1.1c0.1,0.1,0.1,0.2,0,0.2h-0.2
			c-0.1-0.1-0.2-0.2-0.3-0.5C23.4,75.3,23.3,75,23.3,74.8"/>
		<path class="st7" d="M29.2,75.1c-0.2,0.3-0.6,0.6-1,0.8H28c0,0,0-0.1,0.1-0.2c0.4-0.3,0.6-0.6,0.8-0.9c0.1-0.2,0.2-0.2,0.4-0.1
			C29.3,74.9,29.3,75,29.2,75.1"/>
		<path class="st7" d="M35.3,80.1l0.5,0.1c0,0.3,0,0.6,0,0.9s0.1,0.5,0.2,0.6c0.1,0.1,0.3,0.2,0.6,0.2s0.6,0,0.7-0.1
			c0.2-0.2,0.3-0.6,0.4-1.3h0.5L38,81.3c-0.2,0.4-0.3,0.7-0.5,0.8c-0.2,0.2-0.5,0.2-1,0.2s-0.8-0.1-0.9-0.3
			c-0.1-0.2-0.2-0.4-0.3-0.8C35.3,80.8,35.3,80.4,35.3,80.1"/>
		<path class="st7" d="M27.1,67.6c-2.3,0.5-4.1,1.3-5.6,2.2c-1.4,1-2.4,2.1-2.8,3.4c-0.5,1.7-0.4,3.1,0.3,4.2c0.8,1.1,1.9,1.4,3.4,1
			c1.8-0.5,3.3-0.7,4.6-0.7c1.5,0,3.2,0.4,5.1,1.2c2.3,0.9,5,1.3,8,1.3c2.9-0.1,5.1-0.6,6.4-1.5c0.2-0.1,0.3-0.2,0.3-0.1
			c0.1,0.1,0,0.2-0.2,0.3c-1.3,1.1-3.5,1.7-6.6,1.8s-5.8-0.3-8.2-1.3c-1.8-0.7-3.5-1.1-4.9-1.2c-1.2,0-2.7,0.2-4.5,0.7
			c-1.7,0.5-3,0.2-4-1c-0.9-1.2-1.1-2.8-0.5-4.7c0.5-1.4,1.5-2.7,3.1-3.8c1.5-1.1,3.4-1.8,5.7-2.4c2.8-0.7,5.6-0.1,8.3,1.7
			c1.8,1.2,3.8,2.3,5.9,3.4c2.3,1.2,4,2,5.2,2.3c2.1,0.6,3.4,1.7,3.9,3.3c0.4,1.5,0,3-1.2,4.6c-1.8,2.5-4.2,4.4-7,5.8
			s-5.9,2.1-9.2,2.1c-3.6,0-6.3-1-8-3.1c-1.6-1.8-2.2-4.1-1.8-6.8l0.6-0.2c-0.4,2.5,0.2,4.7,1.6,6.4c1.7,2,4.2,3.1,7.7,3.1
			c3.2,0,6.2-0.7,8.9-2s5-3.2,6.8-5.6c1-1.4,1.4-2.7,1.1-4c-0.4-1.4-1.5-2.5-3.5-3c-1.3-0.4-3.1-1.2-5.5-2.5
			c-2.2-1.1-4.1-2.2-5.7-3.3c-1.2-0.7-2.3-1.2-3.6-1.5C29.9,67.4,28.5,67.4,27.1,67.6"/>
		<path class="st7" d="M39.3,71.3l-0.9-0.4c-0.5-0.7-0.8-1.6-0.8-2.6s0.2-1.9,0.7-2.8c1.1-2.1,2.8-3.1,5.1-3.1c1.5,0,2.8,0.7,3.9,2
			c1,1.3,1.6,2.8,1.5,4.7c0,1.4-0.6,2.6-1.7,3.6c-1,0.8-2.1,1.2-3.2,1.2l-0.8-0.6c1.1,0.2,2.2-0.1,3.3-0.8c1.2-0.9,1.8-2,1.8-3.3
			c0-1.6-0.5-3-1.3-4.2c-0.9-1.2-2.1-1.8-3.5-1.8c-1,0-2,0.3-2.8,0.8s-1.4,1.2-1.8,2.1c-0.4,0.9-0.6,1.8-0.5,2.7
			C38.3,69.8,38.7,70.6,39.3,71.3"/>
		<path class="st7" d="M44.9,79.7l0.6-0.2c-0.5,2.7-2.1,4.8-4.8,6.4c-2.6,1.5-5.5,2.2-8.9,2c-3.8-0.3-6.3-1.6-7.4-4.1
			c-0.4-1-0.6-2-0.4-3.1c0.1-1,0.4-1.8,0.9-2.5l0.6-0.1c-0.5,0.6-0.9,1.4-1.1,2.4s-0.1,2,0.3,2.9c1,2.3,3.3,3.6,7,3.9
			c3.2,0.2,6-0.4,8.5-1.8C42.9,84,44.4,82.1,44.9,79.7"/>
		<path class="st7" d="M29.1,78.2l0.6,0.2c-0.8,0.4-1.4,1-1.9,1.8s-0.7,1.7-0.6,2.6c0.2,2.2,1.7,3.7,4.5,4.6l-1.3-0.1
			c-2.4-0.9-3.7-2.5-3.7-4.7c0-0.9,0.2-1.8,0.6-2.6C27.7,79.3,28.4,78.6,29.1,78.2"/>
		<path class="st7" d="M27.3,94.5c0,0.3,0.2,0.6,0.6,0.8c0.4,0.2,0.9,0.4,1.5,0.5l1.9-0.1c0.5-0.1,0.8-0.3,0.8-0.5
			c0-0.4-0.2-0.7-0.6-1.1c-0.5-0.4-1.1-0.6-1.8-0.7c-0.7-0.1-1.2,0-1.7,0.2C27.6,93.9,27.3,94.1,27.3,94.5 M26.8,94.5
			c0-0.5,0.3-0.9,0.9-1.2c0.6-0.3,1.3-0.4,2.1-0.3c0.9,0.1,1.6,0.4,2.1,0.8c0.6,0.4,0.8,0.9,0.8,1.4s-0.4,0.8-1.1,1l-2.1,0.1
			c-0.6-0.1-1.2-0.3-1.7-0.6C27,95.3,26.7,94.9,26.8,94.5"/>
		<path class="st7" d="M28.6,91.3c-0.1,0.7-0.1,1.4-0.1,2l-0.4,0.1c-0.1-0.5-0.1-1.3,0-2.2c0.1-0.8,0.2-1.5,0.3-2.2l0.5,0.2
			C28.7,89.8,28.6,90.5,28.6,91.3"/>
		<path class="st7" d="M41,88.3l0.8-0.2c-0.8,1.7-2.2,3.3-4.1,4.8c-1.9,1.5-3.7,2.4-5.4,2.7v-0.5c1.4-0.3,3-1.1,4.7-2.4
			C38.9,91.3,40.2,89.8,41,88.3"/>
		<path class="st7" d="M41.1,88.3l0.6-0.4c4.3,1.1,9.1,1.7,14.5,1.8c5.3,0,9.9-0.5,13.5-1.5c3.2-0.9,5.7-2.2,7.7-3.7
			c1.9-1.5,3.3-3.2,4.2-5.4c0.1-0.2,0.2-0.3,0.3-0.3s0.1,0.2,0,0.4c-0.7,2.2-2,4.1-4,5.8c-2,1.7-4.7,3-8,3.9
			c-3.7,1.1-8.3,1.6-13.9,1.5C50.4,90.3,45.4,89.6,41.1,88.3"/>
		<path class="st7" d="M57.4,93.8l0.3-0.4c0.6,0.5,1.5,0.6,2.7,0.4s1.7-0.5,1.7-0.9s-0.4-0.7-1-0.9c-0.7-0.3-1.3-0.3-2.1-0.2
			l0.3-0.4c0.8-0.1,1.5,0,2.2,0.3s1,0.7,1.1,1.1c0.1,0.7-0.6,1.2-1.9,1.4C59.3,94.6,58.2,94.4,57.4,93.8"/>
		<path class="st7" d="M65.2,89.5h0.7c-0.5,0.7-1,1.5-1.7,2.2c-0.7,0.7-1.4,1.4-2,1.8l0.1-0.7C63.4,91.8,64.4,90.7,65.2,89.5"/>
		<path class="st7" d="M81.5,93.1c-0.8,0-1.4,0.2-1.9,0.5s-0.7,0.6-0.7,0.9s0.3,0.6,0.8,0.8c0.4,0.2,1,0.3,1.6,0.3s1.2-0.1,1.7-0.3
			c0.6-0.2,0.9-0.5,0.9-0.9c0-0.3-0.2-0.6-0.6-0.8C83,93.2,82.3,93.1,81.5,93.1 M83.8,93.2c0.5,0.3,0.7,0.7,0.7,1.2
			c-0.1,0.5-0.4,0.9-1.1,1.3c-0.6,0.3-1.3,0.5-2.1,0.5s-1.4-0.2-2-0.4c-0.6-0.3-0.9-0.7-0.9-1.2c0-0.4,0.3-0.8,0.9-1.2
			c0.7-0.4,1.4-0.6,2.2-0.6C82.5,92.7,83.2,92.9,83.8,93.2"/>
		<path class="st7" d="M75.7,86.1l0.6-0.3c0.1,1.2,0.5,2.7,1.1,4.5c0.6,1.7,1.1,3,1.6,3.7l-0.3,0.5c-0.5-0.7-1.1-2-1.7-3.7
			C76.2,88.9,75.8,87.3,75.7,86.1"/>
		<path class="st7" d="M75.3,51c-3.7-1.8-7.6-2.9-11.9-3.1c-4-0.2-7.9,0.4-11.7,1.7s-6.9,3.2-9.4,5.8l-0.8-0.2
			c2.6-2.7,5.8-4.7,9.7-6.1c3.9-1.4,7.9-2,12.1-1.8c4.4,0.2,8.5,1.2,12.3,3.2c4.1,2.1,7.5,5,10.2,8.7c3.3,4.6,4.6,10.7,4,18.3
			c-0.3,3.3-0.9,6.4-1.9,9.5c-1,3-2.2,5.6-3.7,7.7l-0.1-0.8c1.3-2.1,2.4-4.5,3.3-7.4c0.9-3,1.5-6,1.7-9.2c0.6-7.3-0.8-13.2-4-17.7
			C82.6,55.9,79.2,53,75.3,51"/>
		<path class="st7" d="M84.7,34.4c2.2,2.4,3.4,5.2,3.6,8.4c0.2,2.7-0.5,5.2-2,7.5c-1.4,2.2-3.2,3.5-5.4,4.2l-0.6-0.6
			c2-0.6,3.8-1.9,5.1-3.8c1.5-2.1,2.2-4.5,2-7.1c-0.2-2.9-1.3-5.5-3.4-7.8c-1.9-2.2-4.5-3.9-7.7-5.3c-3.1-1.3-6.5-2.1-10-2.3
			c-3.7-0.3-7.1,0-10.4,0.9c-1.2,0.3-1.9,0.1-2.2-0.7c-0.3-0.7-0.1-1.5,0.8-2.2c3.6-3.1,8.4-4.9,14.3-5.3c5.9-0.4,11.6,0.7,17.2,3.2
			c5.1,2.3,9.1,5.3,11.9,9s4.2,7.9,4.3,12.6c0.1,4.7-1.1,9.4-3.5,14.2c-2.5,4.9-5.6,8.4-9.3,10.6L89.2,69c3.4-2.1,6.4-5.5,8.7-10.2
			c2.4-4.7,3.5-9.2,3.4-13.7s-1.5-8.6-4.2-12.2s-6.6-6.5-11.5-8.7c-5.6-2.5-11.2-3.6-16.8-3.3c-5.6,0.3-10.3,2-14,5.2
			c-0.7,0.5-0.9,1-0.7,1.5s0.7,0.5,1.5,0.3c3.3-0.9,6.7-1.2,10.5-1c3.7,0.2,7.2,1,10.4,2.3C80,30.4,82.7,32.2,84.7,34.4"/>
		<path class="st7" d="M23.5,78.5l0.5-0.1c0,0.3,0,0.6,0,1c-0.1,0.4-0.2,0.7-0.3,0.9c-0.1,0.2-0.4,0.3-0.9,0.4s-0.9,0-1-0.2
			c-0.1-0.1-0.3-0.4-0.4-0.7c-0.1-0.3-0.2-0.6-0.2-0.9h0.5c0,0.3,0.1,0.5,0.1,0.8c0.1,0.2,0.2,0.4,0.2,0.5l0.7,0.1
			c0.4,0,0.6-0.1,0.7-0.3c0.1-0.1,0.1-0.3,0.1-0.6C23.5,79,23.5,78.8,23.5,78.5"/>
		<path class="st7" d="M32.6,56.2L32,56.4c-0.9-1.3-2.2-2.1-3.6-2.3c-1.3-0.2-2.6,0.1-3.7,0.8c-1.2,0.7-1.8,1.9-2,3.5
			c-0.1,1.6,0.4,2.8,1.5,3.7l-0.3,0.4c-1.3-0.9-1.9-2.3-1.8-4.1s0.8-3.2,2.2-4c1.3-0.8,2.7-1.1,4.2-0.8
			C30.1,53.9,31.5,54.7,32.6,56.2"/>
		<path class="st0" d="M53.3,53.9c1.6,0.1,2.9,0.8,3.8,2.2c0.8,1.2,1.2,2.4,1.3,3.8c0,1.2-0.3,2.3-1.2,3.1c-0.8,0.9-1.9,1.3-3.2,1.4
			c-1.3,0-2.2-0.3-3-1.2c-0.7-0.8-0.9-1.7-0.8-2.7c-0.2,0.5-0.8,0.8-1.8,0.7s-1.5-0.6-1.6-1.4c-0.2-2,0.3-3.5,1.5-4.6
			C49.6,54.2,51.3,53.7,53.3,53.9"/>
		<path class="st0" d="M50.8,81.1c0.5-0.7,1.4-1,2.8-1.1c1.2-0.1,2.6,0.1,4.2,0.5c1.5,0.3,2.7,0.8,3.7,1.3c1.1,0.6,1.6,1.1,1.5,1.6
			c-0.3,2.7-1.9,5.7-4.6,9.2c-2.5,3.2-4.7,5.1-6.6,6l-5.1-1.2c-0.4-3.2-0.2-6.3,0.8-9.4C48.2,85.4,49.3,83.1,50.8,81.1"/>
		<path class="st2" d="M45.9,98.4c0-0.5,0.3-0.8,0.9-1.1c0.5-0.3,1.2-0.4,2.1-0.4c0.8,0,1.5,0.1,2,0.3c0.6,0.3,0.9,0.6,0.9,1.1
			c0,0.4-0.3,0.7-1,1c-0.6,0.2-1.2,0.3-1.9,0.3c-0.8,0-1.5-0.1-2.1-0.3C46.2,99,45.9,98.8,45.9,98.4"/>
		<path class="st3" d="M51.8,98.4c0-0.6-0.4-1-1.2-1.2c2.3-1.2,4.6-3.1,7-5.6c2.7-2.8,4.4-5.4,5.3-7.9c-0.3,2.2-1.6,4.8-3.6,7.7
			C56.9,94.7,54.5,97,51.8,98.4"/>
		<path class="st6" d="M46.1,97.8c0.2,0.6,1,0.8,2.4,0.7c1.4-0.2,2.2-0.5,2.4-1.2c0.3,0.2,0.6,0.3,0.8,0.6c0.2,0.3,0.2,0.5,0.1,0.7
			c-0.2,0.3-0.5,0.5-1,0.7s-1.1,0.3-1.7,0.3c-1.2,0-2-0.2-2.6-0.4C45.9,98.8,45.8,98.4,46.1,97.8"/>
		<path class="st3" d="M51.4,63.4c-0.8-0.7-1.1-1.6-1-2.7c0.6,1.8,1.9,2.5,4,2.4c0.8-0.1,1.6-0.3,2.3-0.7s1.2-0.9,1.5-1.5
			c-0.1,0.9-0.5,1.7-1.3,2.4c-0.8,0.7-1.7,1.1-2.7,1.1C53.1,64.3,52.1,64,51.4,63.4"/>
		<path class="st7" d="M48.9,97.2c-0.9,0-1.7,0.1-2.2,0.4c-0.4,0.2-0.6,0.5-0.7,0.8c0,0.3,0.2,0.5,0.6,0.6c0.5,0.2,1.2,0.3,2.1,0.3
			c0.9,0,1.5-0.1,2-0.3c0.4-0.2,0.7-0.4,0.7-0.7c0-0.3-0.2-0.6-0.7-0.8C50.4,97.3,49.7,97.2,48.9,97.2 M45.6,98.3
			c0-0.5,0.3-0.9,0.8-1.2c0.6-0.3,1.5-0.5,2.5-0.5c0.9,0,1.7,0.2,2.3,0.5s0.8,0.7,0.8,1.1c0,0.5-0.3,0.8-1,1.1
			c-0.6,0.3-1.4,0.4-2.3,0.4c-1,0-1.7-0.2-2.3-0.4C45.9,99.1,45.6,98.8,45.6,98.3"/>
		<path class="st7" d="M51,80.9c0,0,0,0.2-0.1,0.3c-1.6,2.2-2.7,4.7-3.4,7.5c-0.7,2.7-0.9,5.6-0.6,8.6l-0.5,0.3
			c-0.4-3.1-0.2-6.1,0.6-9c0.7-2.9,2-5.4,3.7-7.5C50.8,80.9,50.9,80.8,51,80.9"/>
		<path class="st7" d="M51.7,98.8l0.1-0.6c2.1-1,4.3-3,6.6-6.2c2.5-3.2,3.9-6.1,4.3-8.6c0-0.2,0.1-0.4,0.2-0.3
			c0.1,0,0.1,0.1,0.1,0.4c-0.2,2.5-1.6,5.5-4.2,9C56.3,95.8,53.9,97.9,51.7,98.8"/>
		<path class="st7" d="M55,59.6c-0.7-1-1.6-1.3-2.7-1c-1.1,0.3-1.7,1.1-1.7,2.3c0,1,0.3,1.7,1,2.3s1.6,0.8,2.7,0.8
			c0.9,0,1.8-0.4,2.5-1.1c0.8-0.8,1.3-1.8,1.3-3.1c0-1.6-0.4-2.9-1.3-4c-1-1.2-2.4-1.8-4.2-1.8c-1.7,0-3.1,0.5-4.1,1.5
			c-1,1.1-1.5,2.4-1.3,4.1c0,0.2,0,0.3-0.1,0.3s-0.2-0.1-0.2-0.2c-0.4-1.7-0.1-3.2,1.1-4.5c1.2-1.2,2.7-1.8,4.6-1.8
			c1.9,0,3.5,0.6,4.6,1.9c1.1,1.2,1.6,2.7,1.6,4.5c0,1.3-0.5,2.5-1.4,3.5c-0.9,0.9-1.9,1.3-3,1.3c-1.2,0-2.2-0.3-3-1
			c-0.8-0.7-1.2-1.6-1.2-2.7c0-0.7,0.2-1.3,0.6-1.8c0.4-0.5,0.9-0.8,1.5-1s1.2-0.1,1.7,0.1c0.6,0.2,1,0.7,1.3,1.2
			c0.1,0.2,0.1,0.2,0,0.3C55.2,59.8,55.1,59.8,55,59.6"/>
	</g>
</g>
</svg>
