<?xml version="1.0" encoding="utf-8"?>
<!-- Generator: Adobe Illustrator 27.0.0, SVG Export Plug-In . SVG Version: 6.00 Build 0)  -->
<svg version="1.1" id="Capa_1" xmlns="http://www.w3.org/2000/svg" xmlns:xlink="http://www.w3.org/1999/xlink" x="0px" y="0px"
	 viewBox="0 0 120 120" style="enable-background:new 0 0 120 120;" xml:space="preserve">
<style type="text/css">
	.st0{fill-rule:evenodd;clip-rule:evenodd;fill:#FDE62F;}
	.st1{fill-rule:evenodd;clip-rule:evenodd;}
	.st2{fill-rule:evenodd;clip-rule:evenodd;fill:#FFFFFF;}
	.st3{fill-rule:evenodd;clip-rule:evenodd;fill:#CF4256;}
	.st4{fill-rule:evenodd;clip-rule:evenodd;fill:#773535;}
	.st5{fill-rule:evenodd;clip-rule:evenodd;fill:#BFA869;}
	.st6{fill-rule:evenodd;clip-rule:evenodd;fill:#925252;}
</style>
<g>
	<g>
		<path class="st0" d="M78.9,21.7c0,0,0.1-0.4,0.2-0.8s0.2-3,0.3-3.6c0-1-0.1-1.8-0.1-2.2c-0.1-0.5-0.2-2-0.5-1.9
			c-0.4,0.3-3.2,2.8-3.6,3.2s-2.5,2.5-2.8,2.9c0.5-0.5-2.4,2.5-3,3.8c-0.1,0.2-0.1,0.1-0.1,0.1s-0.4-0.1-0.5-0.2
			c-0.1,0-2.4-0.5-2.9-0.6s-3.5-0.2-5.4-0.1c-1.8,0.1-4.6,0.7-6.2,1.3c-1.2,0.4-4.4,1.7-5.1,2.5c-1-0.3-4.6-0.9-5.2-1
			c-0.6-0.1-5.3-0.4-5.8-0.4s-3.8,0-4.1,0c0.1,0.8,0.4,1.9,0.9,2.5c0.4,0.7,1.5,2.2,2.3,2.8s2.1,1.8,3.2,2.2
			c1.1,0.4,3.9,1.5,4.7,1.7c-0.1,0.5-0.4,2-0.4,2.6s-0.2,2.4-0.2,3.2c0,0.7,0,2.9,0.1,3.6c0.1,0.7,0.1,1.6,0.2,2
			c-0.4-0.3-1.7-1.1-1.7-1.1l-1.1-0.7L41.2,43L41,42.5c0,0-0.3-0.5-0.3-0.6l-0.3-0.3L40.1,42L40,42.5v0.4h-0.2l-0.6-0.1
			c0,0-0.4,0-0.4,0.1c-0.1,0-0.3,0.1-0.3,0.1v0.3l0.3,0.7H39h-0.4l-0.7-0.2l-0.2,0.1v0.4l0.3,0.5l0.4,0.4H38l-0.6,0.1L37,45.5v0.2
			l0.4,0.3l0.4,0.3l0.2,0.1h-0.6l-0.3,0.1l-0.2,0.2l0.3,0.2l0.3,0.2l0.3,0.2l0.3,0.4l0.9,1.7l1.9,3.5l1.3,2.5l1.4,2.2l1.2,1.8
			c0,0,0.8,1.1,0.9,1.1c0,0.1,0.8,0.9,0.8,0.9l-0.1,0.4c0,0-0.2,0.7-0.2,0.9s-0.4,3.3-0.4,3.6c0,0.3-0.1,3-0.1,3.2
			c0,0.3,0.2,2.9,0.2,3c0.1,0.7,0.4,2.4,0.7,3c0.2,0.4,1.2,2.6,1.7,3.1c0.4,0.5,1.3,1.8,1.9,2.2c0.6,0.4,1.6,1.1,2.9,1.4
			c1.5,0.4,2.9,0.6,5.1,0.4c2.3-0.2,3.1-0.4,4.9-0.4s4,0.5,4.5,0.7c0.1,0.3,0.4,1.4,0.4,1.4l0.6,1.7l0.6,1.6l0.6,1.5l0.7,1.8
			l0.5,1.4l0.3,0.4l0.3,0.1l0.2-0.3v-1.3l-0.2-1.3L71.4,89l0.4,1.4l0.4,1.1l0.4,0.8l0.4,0.3l0.3-0.1l0.2-0.3L73.3,89l0.3,1.6
			l0.4,0.8l0.3,0.2l0.2-0.1l0.1-0.4V90L74,87.9l-0.3-2.1l-0.3-1.1L73,83.9l0.7-0.3l1.4-0.8l1-1l0.8-1.1l0.4-0.9l0.5-1l0.6-1.4
			l0.4-1.2l0.4-1.8l0.2-1.6l0.2-1.4L79.5,68l-0.2-3L79,62.2l-0.4-2.6l-0.3-1.4l-0.1-0.5l0.4-0.5l0.7-1.1l0.6-1l0.7-1.5l0.6-1.4
			l0.8-2l0.8-2.3l0.5-1.4l0.5-1.7l0.7-2.3L85,41l0.2-1.2l0.1-0.7v-0.5l-0.1-0.3l0.2-0.3l0.2-0.4l0.1-0.4L85.5,37H85l-0.2,0.2
			l-0.2,0.1l0.2-0.4v-0.4l-0.3-0.2l-0.4,0.1L84,36.8L83.8,37l0.1-0.5l-0.1-0.4l-0.2-0.2L83.2,36c0,0-0.2,0.2-0.3,0.2
			c0,0.1-0.3,0.2-0.3,0.2L82.5,36c0,0-0.2-0.3-0.3-0.3c-0.1,0-0.2,0-0.3,0l-0.4,0.4l-0.2,0.3v0.1L81,36.1l-0.3-0.2l-0.2-0.1l0.1,0.2
			l-0.1,0.4l-0.1,0.4c0,0,0.1,0.3,0,0.3c0,0.1-0.2,0.2-0.2,0.2s-0.2,0.3-0.3,0.3c-0.1,0.1-0.3,0.4-0.4,0.5c0,0.1-0.2,0.3-0.2,0.3
			l-0.2,0.2L79,38.8h-0.1l-0.2-0.7l-0.3-0.8l-0.5-1l-0.7-0.8L77,35.3l0-1.4l-0.5-1.3l-0.6-1.5L75.4,30L75,29.1l-0.4-0.7l0.2-0.3
			l1.1-1.4l0.6-1l0.8-1.3l0.8-1.4l0.5-0.8L78.9,21.7L78.9,21.7L78.9,21.7z"/>
		<path class="st1" d="M53.9,31c-1.7,0-3,1.8-3,3c0.1,1.8,1.3,3,3,3c1.6,0,3-1.3,3-3S55.6,31,53.9,31z"/>
		<path class="st1" d="M53.8,35.9c1.3,0,2.4-1.1,2.4-2.3s-1.1-2.3-2.4-2.3s-2.4,1.1-2.4,2.3S52.5,35.9,53.8,35.9z"/>
		<path class="st2" d="M53.7,33.4c0.6,0,1-0.5,1-1.1c0-0.6-0.5-1.1-1-1.1c-0.6,0-1,0.5-1,1.1C52.7,32.9,53.2,33.4,53.7,33.4z"/>
		<path class="st1" d="M70.8,29.4c0.5,0,2.6,0.8,2.6,2.8c0,1.5-1.2,2.7-2.6,2.7c-1.5,0-2.7-1.1-2.7-2.7S69.5,29.4,70.8,29.4
			L70.8,29.4z"/>
		<path class="st1" d="M70.8,29.4c-1.3,0-2.3,1-2.3,2.2c0,1.2,1,2.2,2.3,2.2s2.3-1,2.3-2.2C73.1,30.4,72,29.4,70.8,29.4z"/>
		<path class="st2" d="M70.2,31.9c0.5,0,0.9-0.5,0.9-1.1s-0.4-1.1-0.9-1.1s-0.9,0.5-0.9,1.1S69.7,31.9,70.2,31.9z"/>
		<path class="st1" d="M66.2,35.7c0-0.3-3.4-0.1-3.3,0.5c0.1,0.4,1.6,0.8,1.9,0.8C65.2,36.9,66.2,36.1,66.2,35.7L66.2,35.7z"/>
		<path class="st3" d="M51.8,39.4c-2.1,0-3.7,1.7-3.7,3.7s1.6,3.3,3.7,3.3s3.7-1.6,3.7-3.5S53.9,39.4,51.8,39.4L51.8,39.4L51.8,39.4
			z M77.6,35.9c-0.2-0.1-0.4-0.2-0.5-0.1c-0.2,0.1-0.6,0.5-0.8,1.1c-0.2,0.5-0.4,1-0.5,1.6c-0.1,0.7-0.1,1.6,0.1,2.1
			c0.1,0.5,0.3,1.2,1.1,1.9c0.4,0.3,0.8,0.4,1,0.3c0.4-0.2,0.4-0.4,0.5-0.6c0.1-0.2,0.6-1.7,0.5-2.5c0-0.9-0.1-1.2-0.2-1.7
			c-0.2-0.5-0.5-1.1-0.7-1.4C77.9,36.2,77.6,35.9,77.6,35.9L77.6,35.9L77.6,35.9z"/>
		<path class="st4" d="M68,40.5c-0.6,0.1-1.3,0.1-1.7-0.2s-0.9-0.7-1.1-0.9c-0.6,0.5-0.9,0.8-1.2,1.1c0.6,0.1,0.8,0.2,1.4,0.4
			c0.8,0.5,1.7,1.2,1.7,2.7c0.4-0.8,0.6-1.4,0.7-1.9C67.9,41.2,68,40.5,68,40.5L68,40.5z"/>
		<path class="st3" d="M64.1,40.5c-0.6,0.5-1.9,1.3-3.2,1.1c0.5,2.1,2,4.7,3.6,4.6c1.5-0.1,2.6-2.5,2.7-2.9
			c-0.2-0.9-0.5-1.8-1.2-2.2C65.3,40.7,64.6,40.5,64.1,40.5L64.1,40.5z"/>
		<path class="st5" d="M47.6,32.6c-0.7-0.5-7.6-1.5-9.8-1.5c0.9,0.4,1.6,0.7,1.9,0.9s5.1,1.9,5.4,2c-0.4,0.9-0.6,3.5-0.7,4.1
			C45.1,37.6,47.9,33.5,47.6,32.6L47.6,32.6L47.6,32.6z"/>
		<path class="st1" d="M34.1,24.9c-1.1-0.1-6.8,0.4-6.8,1.2c-0.1,0.7,4.7,3.1,12.9,6.1C37.8,31.2,34,27.5,34.1,24.9z"/>
		<path class="st5" d="M73.7,27.1c0,0,0.4,0.4,0.4,0.5s0.4,0.7,0.4,0.7l0.3-0.1l1.2-1.7l1.8-2.9l0.9-1.5l0.2-0.4l0.1-0.4
			C77.9,22.8,75.3,26,73.7,27.1L73.7,27.1z"/>
		<path class="st1" d="M78.9,21.7c1.1-2.1,5.7-10.2,4.5-11.2c-0.7-0.6-4.2,2.3-4.7,2.8C79.4,13.3,79.7,19,78.9,21.7L78.9,21.7
			L78.9,21.7z"/>
		<path class="st5" d="M67.6,51.8c0.1-0.3-2,0.4-3.1,0.4s-3.3-0.3-3.3,0c-0.1,0.3,3,2.1,3.7,2C65.6,54.1,67.5,52.2,67.6,51.8
			L67.6,51.8z M46.8,61.8c0.6-0.4,1.6-2.4,1.3-3s-5.8-3.6-6.3-4.2c-0.5-0.7,1.3,2.2,1.5,2.5s1.9,3,2.2,3.2
			C45.7,60.5,46.8,61.8,46.8,61.8L46.8,61.8z M47,76.6c0.2-0.9,1.1-2.7,1.4-2.9c0.3-0.2,1.4-0.2,1.7-0.1c0-0.4,0-1.5,0.9-1.6
			c0.9-0.2,2.4,2.1,2.7,2.9s1.1,3.3,2.6,3.9s4,0.1,4.5-0.2c0.5-0.3,4-0.9,4.6-0.9s2.7-0.1,3.2,0.3c0.5,0.3,2.4,2.6,2.8,3.5
			c0.5,0.9,2.6,1.8,3.8,1.5c-0.4,0.3-0.5,0.4-0.5,0.4l-0.5,0.2c0,0-0.3,0.2-0.6,0.3c-0.5,0.2-1.4,0.2-1.4,0.2h0.3
			c0,0-0.8,0.7-1.1,0.9c-0.3,0.3-2.1,2.5-2.2,2.9c-0.1,0.3-0.2-0.2-0.2-0.2l-0.5-1.1l-0.8-2.3l-0.4-1l-0.1-0.4l-0.7-0.3
			c0,0-0.8-0.3-1.9-0.4c-1.2-0.1-3.8-0.1-5.1,0.1s-3.2,0.3-4.6,0.2c-1.3-0.1-2.7-0.5-3.5-0.9c-0.8-0.3-1.8-1.2-2.4-1.8
			C48.6,79.4,47.5,77.9,47,76.6L47,76.6L47,76.6z"/>
		<path class="st0" d="M49.9,80.9l-5.2,3l5.2,0.8L43.6,88l7.4,1.9l-10.4,8.2l14-0.2l-12.1,13.2c2.1-0.6,14.7-2.3,17.7-2l9.1-18.6
			c0,0-15.6,1.3-15.3,1.2s5.7-4.1,5.7-4.1l-8.3-1.1l5-2.5l-5.8-0.6l1.7-1.1L49.9,80.9L49.9,80.9z"/>
		<path class="st6" d="M50,80.8c-0.6,0.4-5,3-5,3l4.9,0.9l-6.2,3.2l5.1,1.3c0,0,2.8,0,2.6,0s-1.9-1.1-1.9-1.1l2.9,0.3l-1.7-1.2
			l3.8,1.1l-1.9-1.1l2.9-0.1l-4-0.6l4.7-2.6l-5.4-0.5l1.7-1.1L51.8,82L51,81.5l-0.4-0.2L50,80.8L50,80.8z"/>
		<path d="M42.6,111.1L42.6,111.1C42.6,111.1,42.5,111.1,42.6,111.1C42.5,111.1,42.5,111.1,42.6,111.1L42.6,111.1
			c-0.1-0.1-0.1-0.1-0.1-0.2c0,0,0,0,0-0.1l0,0l0,0l11.9-13L40.7,98l0,0c0,0-0.1,0-0.1-0.1s0-0.1,0-0.1l10.2-8.1L43.7,88l-0.1-0.1
			c0-0.1,0-0.1,0.1-0.1l6-3.1l-4.9-0.8l-0.1-0.1c0,0,0-0.1,0.1-0.1l5.1-3c-1.7-1.4-2.7-3.4-3.5-5.2c-1.6-3.7-0.8-11.8-0.1-14.3
			c-2.8-3.1-6.3-9.8-7.8-12.7c-0.4-0.8-0.7-1.4-0.8-1.4c-0.1-0.1-0.2-0.2-0.4-0.2c-0.2-0.1-0.4-0.1-0.5-0.4c0-0.1,0-0.2,0-0.2
			c0.1-0.2,0.4-0.2,0.7-0.2l0,0c-0.4-0.2-0.7-0.5-0.7-0.7c0-0.3,0.6-0.4,1.2-0.4l0,0c-0.3-0.3-0.6-0.9-0.5-1.2s0.5-0.2,0.9-0.1
			c0.1,0,0.2,0.1,0.3,0.1c-0.2-0.3-0.4-0.9-0.2-1.1c0.2-0.3,1-0.1,1.4,0c0-0.5,0.1-1.1,0.4-1.2c0.1,0,0.2,0,0.3,0.1
			c0.3,0.2,0.5,0.8,0.6,1.3c0.8,0.3,2,1.1,3.4,2.2c-0.5-2.5-0.3-8.8,0.4-11.1c-1.1-0.3-2.8-0.9-4.7-1.7l0,0
			C34.7,30.2,27,27,27.2,25.9c0-0.1,0.1-0.3,0.3-0.4c1-0.6,5-1,9.7-0.9s9.1,0.6,12.2,1.4c1.4-1.1,4.2-2.5,8-3.3
			c2.9-0.6,7.3-1,11.9,0.3c1.6-3,11-12.1,13.7-12.8c0.3-0.1,0.5,0,0.6,0.1s0.2,0.3,0.2,0.5c0.2,1.6-2.2,6.6-4.8,11v0.1
			c0,0,0,0.1-0.1,0.1c-1.5,2.6-3,5-4.2,6.4c1.4,2.4,2.5,5.4,2.8,7.1c0.6,0.6,1.5,1.8,1.6,3.2c0.4-0.6,0.9-1.3,1.3-1.5
			c0-0.4,0.1-1.3,0.3-1.4c0.2-0.1,0.6,0.2,0.8,0.5c0.1-0.2,0.3-0.5,0.5-0.6c0.1-0.1,0.3-0.1,0.4-0.1c0.3,0.1,0.4,0.4,0.4,0.7
			c0.3-0.2,0.7-0.5,1-0.4s0.3,0.5,0.3,0.8c0.2-0.2,0.5-0.4,0.8-0.3c0.3,0.2,0.2,0.6,0.1,0.9c0.2-0.1,0.4-0.2,0.6-0.1
			c0.1,0,0.2,0.1,0.2,0.2c0.1,0.2,0,0.5-0.1,0.6c-0.1,0.2-0.2,0.4-0.4,0.5c0.2,0.1,0.2,0.3,0.1,1.1c-0.1,1.1-3.3,13.4-7,18.3
			c0.6,2.3,1,6.5,1.3,11.6c0.3,6.1-2,10.4-2.8,11.6c-0.5,0.8-1.7,2.5-3.7,3.1c0.7,1.2,1.3,6.4,1,7.4c0,0.1-0.1,0.2-0.2,0.2
			c-0.1,0.1-0.3,0.1-0.4,0c-0.2-0.1-0.3-0.3-0.5-0.8c0,0.5,0.1,1,0.1,1.2c0,0.3-0.2,0.5-0.4,0.6c-0.2,0.1-0.4,0-0.6-0.2
			s-0.5-0.9-0.9-2c0.1,0.8,0.1,1.6,0.1,1.8c0,0.2-0.2,0.4-0.3,0.4c-0.2,0.1-0.5-0.1-0.6-0.3c-0.1-0.5-3-8.5-3.3-9.5l0,0
			c-0.4-0.1-0.8-0.2-1.3-0.3c-2.8-0.5-4.3-0.3-6-0.1c-1.3,0.2-2.6,0.3-4.7,0.2c-1-0.1-1.9-0.2-2.7-0.5l-1.4,0.9l5.4,0.5l0.1,0.1
			c0,0.1,0,0.1-0.1,0.1l-4.6,2.3l7.9,1.1l0.1,0.1c0,0,0,0.1-0.1,0.1c-1.1,0.8-4.2,3.1-5.3,3.9c2-0.2,10.3-0.8,14.9-1.2l0,0l0,0l0,0
			l0,0l0,0c0,0,0,0,0,0.1l0,0l0,0l0,0l0,0l-9.1,18.6l-0.1,0.1C57.2,108.8,44.5,110.5,42.6,111.1L42.6,111.1L42.6,111.1L42.6,111.1z
			 M54.7,97.7C54.7,97.7,54.8,97.7,54.7,97.7l0.1,0.2L43,110.8c2.8-0.7,14.2-2.2,17.3-1.9l9-18.4c-0.8,0.1-4.2,0.3-7.5,0.6
			c-1.9,0.2-3.8,0.3-5.3,0.4c-0.7,0.1-1.3,0.1-1.7,0.1c-0.3,0-0.5,0-0.6,0l0,0l0,0c-0.1,0-0.1,0-0.1-0.1s0-0.1,0.1-0.1
			c0.3-0.1,3.3-2.3,5.4-3.9l-8-1.1l-0.1-0.1c0-0.1,0-0.1,0.1-0.1l4.6-2.3l-5.4-0.5c0,0-0.1,0-0.1-0.1s0-0.1,0.1-0.1l1.6-1
			c-0.8-0.3-1.6-0.7-2.2-1.2l-4.9,2.8l4.9,0.8l0.1,0.1c0,0.1,0,0.1-0.1,0.1l-6.1,3.1l7.1,1.9l0.1,0.1c0,0.1,0,0.1,0,0.1l-10.2,8
			L54.7,97.7L54.7,97.7L54.7,97.7z M67.5,83.1c0.5,1.6,3.2,9,3.4,9.2c0.1,0.2,0.3,0.2,0.4,0.2s0.1-0.1,0.2-0.2
			c0.1-0.4-0.1-2.4-0.3-3.2c0-0.1,0-0.1-0.1-0.2c0-0.1,0-0.1,0.1-0.1s0.1,0,0.1,0.1s0,0.1,0.1,0.2c0.7,2.6,1.1,3.2,1.2,3.4
			c0.1,0.1,0.2,0.2,0.3,0.1c0.1-0.1,0.2-0.2,0.2-0.4c0-0.5-0.1-2.4-0.2-3.1l0,0c0-0.1,0-0.1,0.1-0.1s0.1,0,0.1,0.1l0,0
			c0.2,1.1,0.4,2.3,0.8,2.5c0.1,0,0.1,0,0.2,0c0.4-0.3-0.3-6.1-1-7.3l0,0c-0.3,0.1-0.7,0.1-1,0.1c-0.1,0-0.1-0.1-0.1-0.1
			c0-0.1,0.1-0.1,0.1-0.1c2.6,0,4.2-2.2,4.7-3.1c0.7-1.2,3-5.4,2.7-11.4c-0.3-6.1-0.9-10.9-1.6-12.7c0-0.1,0-0.1,0.1-0.2
			c0.1,0,0.1,0,0.2,0.1c0.1,0.2,0.2,0.5,0.3,0.9c3.6-5,6.8-16.9,6.9-18c0.1-0.8,0-0.8-0.1-0.9l-0.1-0.1v-0.1c0,0,0-0.1,0.1-0.1
			c0.1-0.1,0.3-0.2,0.4-0.5c0.1-0.2,0.1-0.4,0.1-0.4s0,0-0.1,0c-0.2,0-0.5,0.1-0.6,0.2c0,0-0.1,0.1-0.1,0c-0.1,0-0.1-0.1-0.1-0.1
			c0-0.1,0.1-0.2,0.1-0.3c0.1-0.3,0.2-0.5,0-0.6c-0.3-0.1-0.5,0.2-0.8,0.5c0,0-0.1,0.1-0.1,0c-0.1,0-0.1-0.1-0.1-0.1
			c0.1-0.6,0.1-0.9-0.1-1s-0.7,0.3-0.8,0.5c0,0.1-0.1,0.1-0.1,0.1c-0.1,0-0.1-0.1-0.1-0.1v-0.1c-0.1-0.3-0.1-0.6-0.3-0.6
			c-0.1,0-0.1,0-0.2,0.1c-0.2,0.2-0.4,0.5-0.5,0.7c0,0.1-0.1,0.1-0.1,0.1c-0.1,0-0.1,0-0.1-0.1c-0.1-0.3-0.5-0.6-0.6-0.6
			c-0.1,0.1-0.2,0.8-0.2,1.3c0,0.1,0,0.1-0.1,0.1c-0.3,0.2-1,1.1-1.4,1.8c0,1.1-0.2,2.2-0.5,3.2l0,0v0.1c-1.3,3.6-4.4,6.5-5.8,7.4
			c-0.1,0-0.1,0-0.2,0c0-0.1,0-0.1,0-0.2c1.2-0.9,4.1-3.5,5.5-6.8c-0.1,0.1-0.3,0.1-0.4,0.1c-0.9-0.1-1.9-1.4-2.1-3
			c-0.2-2.2,0.6-3.6,1.2-4.1c0.1-0.1,0.3-0.2,0.4-0.2c-0.5-2.6-2.9-8.6-5.1-10c-0.1,0-0.1-0.1,0-0.2c0-0.1,0.1-0.1,0.2,0
			c0.8,0.5,1.5,1.5,2.3,2.8c1.1-1.4,2.6-3.8,4.2-6.4c0.7-2,0.6-7.8,0-8.4c0,0,0,0-0.1,0c-3.6,3-8.1,7.6-9.3,9.8h0.1
			c0.1,0,0.1,0.1,0.1,0.2s-0.1,0.1-0.2,0.1c-4.7-1.4-9.2-1-12.1-0.4c-3.7,0.8-6.4,2.1-7.8,3.2c0.3,0.1,0.6,0.2,0.9,0.3
			c0.1,0,0.1,0.1,0.1,0.2s-0.1,0.1-0.2,0.1c-0.4-0.1-0.7-0.2-1.1-0.3l0,0c0,0,0,0-0.1,0c-4.3-1.1-10.4-1.5-15-1.4
			c0.2,2.6,3.4,5.8,6.2,7.3l0,0c2.6,1,4.7,1.7,5.5,1.9c0.1,0,0.1,0.1,0.1,0.1c0,0.1-0.1,0.1-0.1,0.1c-0.2,0-0.4-0.1-0.6-0.2
			c-0.7,2.4-0.8,8.9-0.3,11.2c0,0,0,0,0,0.1c2.5,1.9,5.3,4.4,6.7,6.2c0,0.1,0,0.1,0,0.2c-0.1,0-0.1,0-0.2,0c-2-2.7-8-7.6-10.3-8.6
			l-0.1-0.1c-0.1-0.4-0.3-1.1-0.5-1.2c0,0-0.1-0.1-0.1,0c-0.1,0-0.3,0.2-0.3,1.1c0,0,0,0.1-0.1,0.1h-0.1c-0.6-0.2-1.2-0.2-1.3-0.1
			c-0.1,0.2,0.2,0.8,0.4,1.1c0,0,0.1,0.1,0,0.1c0,0.1-0.1,0.1-0.1,0.1c-0.2,0-0.4-0.1-0.6-0.1c-0.3-0.1-0.6-0.2-0.7,0
			c-0.1,0.3,0.3,1,0.6,1.1c0.1,0,0.1,0.1,0.1,0.1c0,0.1-0.1,0.1-0.1,0.1c-0.1,0-0.2,0-0.3,0c-0.3,0-0.9,0.1-0.9,0.2
			c0,0.2,0.6,0.6,1,0.7c0.1,0,0.1,0.1,0.1,0.1c0,0.1,0,0.1-0.1,0.1c-0.1,0.1-0.3,0.1-0.5,0.1s-0.5,0-0.5,0.1l0,0
			c0.1,0.1,0.1,0.2,0.3,0.2c0.2,0.1,0.3,0.1,0.5,0.3c0.1,0.1,0.3,0.4,0.8,1.5c1.6,3.2,5.5,10.6,8.4,13.3c0.1,0.1,0.1,0.1,0,0.2
			c-0.1,0.1-0.1,0.1-0.2,0c-0.2-0.1-0.3-0.3-0.4-0.4c-0.6,2.6-1.3,10.3,0.2,14c1.3,3.1,3.5,6.8,8.6,7c2.1,0.1,3.4-0.1,4.7-0.2
			c1.7-0.2,3.3-0.4,6.1,0.1c2,0.4,3.3,1.2,3.6,1.4c0.1,0,0.1,0.1,0,0.2c0,0.1-0.1,0.1-0.2,0C69.2,83.9,68.5,83.5,67.5,83.1
			L67.5,83.1z M77.4,35.8c0,0-0.2,0-0.4,0.2c-0.6,0.5-1.3,1.8-1.1,3.9c0.1,1.7,1.2,2.7,1.9,2.8c0.3,0,0.5-0.1,0.6-0.4l0,0
			c0.4-1,0.6-2.1,0.5-3.1l0,0C78.9,37.6,77.8,36.3,77.4,35.8L77.4,35.8z M33.9,25c-3.2,0.1-5.7,0.4-6.4,0.9
			c-0.1,0.1-0.2,0.1-0.2,0.2c-0.1,0.4,2,1.8,8.1,4.3c1.3,0.5,2.5,1,3.7,1.5c-1.1-0.7-2.1-1.6-3-2.6C35.2,28.2,34.1,26.6,33.9,25
			L33.9,25z M78.9,13.3L78.9,13.3c0.7,0.6,0.8,5.4,0.3,7.8c0.4-0.7,0.7-1.3,1.1-2c2.1-4.1,3.4-7.1,3.2-8.2c0-0.2-0.1-0.3-0.1-0.3
			c-0.1-0.1-0.2-0.1-0.4,0C82.2,10.7,80.6,11.8,78.9,13.3L78.9,13.3z M54.1,81.8c-0.2,0-0.4-0.1-0.5-0.2c-1.9-1-3.5-7.1-3.5-7.1
			c-0.1-0.4-0.5-2-0.8-3.5c0-0.1,0-0.1,0-0.1c-0.5,0.5-1,1.1-1.3,1.7c0,0.1-0.1,0.1-0.2,0.1c-0.1,0-0.1-0.1-0.1-0.2
			c0.4-0.7,0.9-1.4,1.5-1.9c-0.5-2.4-0.2-2.5-0.1-2.6c0.4-0.2,0.8,0.6,1.5,2.3l0,0c-0.1-1.1-0.2-2.9,0-3.3c0.1-0.1,0.1-0.1,0.1-0.1
			c0.4,0,1,1.6,1.3,2.6c0-2.9,0.4-2.9,0.6-2.9c0.1,0,0.5,0,1.2,2.8l0,0c1.2,0.4,2.3,1.4,3.1,2.8c0,0.1,0,0.1-0.1,0.2
			c-0.1,0-0.1,0-0.2-0.1c-0.7-1.3-1.7-2.2-2.8-2.7c0.3,1.4,0.7,3,0.8,4v0.3c0.5,3.3,0.8,7.2-0.4,7.6l0,0
			C54.3,81.7,54.2,81.7,54.1,81.8L54.1,81.8z M49.3,68.3L49.3,68.3c-0.3,0.3,0.6,4.1,1.1,6.1c0.4,1.6,1.9,6.2,3.4,7
			c0.2,0.1,0.4,0.2,0.6,0.1l0,0c1.2-0.4,0.5-5.7,0.3-7.4v-0.3c-0.3-2.2-1.4-6.7-1.8-6.9c0,0-0.4,0.1-0.4,3.3v0.1c0,0,0,0.1-0.1,0.1
			s-0.1,0-0.1-0.1c-0.4-1.2-1-3-1.3-3.2c-0.2,0.4,0,3.1,0.1,3.8c0,0.1,0,0.1-0.1,0.1s-0.1,0-0.1-0.1c-0.1-0.1-0.2-0.4-0.3-0.7
			C49.9,69,49.5,68.3,49.3,68.3L49.3,68.3z M51.9,46.4C49.6,46.4,48,45,48,43s1.7-3.8,3.8-3.8l0,0c2.2,0,3.8,1.5,3.8,3.6
			C55.6,44.8,54,46.4,51.9,46.4L51.9,46.4z M51.8,39.5L51.8,39.5c-2,0-3.6,1.6-3.6,3.6c0,1.9,1.5,3.2,3.6,3.2c2,0,3.5-1.5,3.5-3.4
			S53.9,39.5,51.8,39.5L51.8,39.5L51.8,39.5z M64.4,46.3c-1.6,0-3-2.3-3.7-4.6c-0.7-0.1-1.3-0.5-1.9-1c-0.1-0.1,0-0.1,0-0.2
			c0.1-0.1,0.1,0,0.2,0c0.6,0.7,1.3,1,2.2,1s1.8-0.4,2.7-1.1c0,0,0,0,0.1,0c0.4-0.3,0.8-0.7,1.1-1.1h0.1c0,0,0.1,0,0.1,0.1
			c0.5,0.7,1.3,1.2,2.1,1.2l0,0c0.9,0,1.7-0.5,2.3-1.2c0-0.1,0.1-0.1,0.2,0c0.1,0,0.1,0.1,0,0.2c-0.5,0.6-1.1,1.1-1.8,1.2
			c-0.1,1.8-1.8,5.5-3.6,5.7C64.4,46.3,64.4,46.3,64.4,46.3L64.4,46.3z M61,41.7c0.7,2.2,2.1,4.5,3.6,4.3c0.9-0.1,1.8-1.3,2.5-2.6
			l0,0c-0.1-2-1.8-2.8-2.9-2.8c-1,0.7-2,1.1-2.9,1.1C61.1,41.7,61,41.7,61,41.7z M64.3,40.4c1.1,0.2,2.6,0.9,2.9,2.6
			c0.4-0.8,0.6-1.7,0.7-2.4c-0.2,0-0.3,0-0.5,0c-0.9,0-1.6-0.4-2.2-1.1C64.9,39.8,64.6,40.1,64.3,40.4z M64.7,37.1
			c-0.5,0-1.9-0.5-2-0.9c0-0.1,0-0.2,0.1-0.3c0.5-0.5,2.8-0.5,3.3-0.4c0.1,0,0.1,0.1,0.1,0.2l0,0C66.4,36.2,65.2,37.1,64.7,37.1
			C64.8,37.1,64.8,37.1,64.7,37.1L64.7,37.1z M65.3,35.7c-0.8,0-1.8,0.1-2.2,0.4L63,36.2c0.1,0.3,1.4,0.8,1.8,0.7
			c0.3,0,1.3-0.8,1.3-1.1C66,35.7,65.7,35.7,65.3,35.7L65.3,35.7z M53.9,37c-1.8,0-3-1.2-3.1-3.1c0-0.7,0.3-1.5,0.9-2.1
			c0.6-0.6,1.4-1,2.1-1c1.7,0,3.1,1.4,3.1,3.1C57,35.6,55.6,37,53.9,37z M53.9,31.1c-0.7,0-1.4,0.3-2,0.9c-0.6,0.6-0.9,1.3-0.9,1.9
			c0.1,1.7,1.2,2.9,2.8,2.9s2.8-1.3,2.8-2.8S55.5,31.1,53.9,31.1L53.9,31.1z M70.8,34.9c-1.6,0-2.8-1.2-2.8-2.8
			c0-1.6,1.4-2.8,2.7-2.9l0,0c0.3,0,1.2,0.2,1.9,0.9c0.6,0.6,0.9,1.3,0.9,2C73.5,33.7,72.4,34.9,70.8,34.9L70.8,34.9z M70.8,29.5
			L70.8,29.5c-1.2,0.1-2.5,1.2-2.5,2.7c0,1.4,1.1,2.5,2.6,2.5c1.4,0,2.5-1.1,2.5-2.5c0-0.7-0.3-1.4-0.8-1.9
			C71.9,29.7,71,29.4,70.8,29.5L70.8,29.5z"/>
	</g>
</g>
</svg>
