<?xml version="1.0" encoding="utf-8"?>
<!-- Generator: Adobe Illustrator 27.0.0, SVG Export Plug-In . SVG Version: 6.00 Build 0)  -->
<svg version="1.1" id="Capa_1" xmlns="http://www.w3.org/2000/svg" xmlns:xlink="http://www.w3.org/1999/xlink" x="0px" y="0px"
	 viewBox="0 0 120 120" style="enable-background:new 0 0 120 120;" xml:space="preserve">
<style type="text/css">
	.st0{fill:#BCB2BA;}
	.st1{fill:#A39AA1;}
	.st2{fill:#0D131A;}
	.st3{fill:#59BDEC;}
	.st4{fill:#4CA4CD;}
	.st5{fill:#FFFAC6;}
	.st6{fill:#DCD8AC;}
	.st7{fill:#ED8599;}
	.st8{fill:#FFFFFF;}
	.st9{fill:#36A0DA;}
</style>
<g>
	<g>
		<path class="st0" d="M79.9,79.1l-12.1,5.8l-12.1-19l3.1-6.6c2.3,0,4.8,0.6,7.5,1.9c2.4,1.2,4.2,2.5,5.5,4c2,2.2,3.5,4.1,4.5,5.7
			C78.2,73.7,79.4,76.4,79.9,79.1"/>
		<path class="st1" d="M79.1,76.4l0.8,2.6l-1.4,0.1c-1,0.1-1.8,0.2-2.3,0.3c-1.2,0.3-2.5,0.7-3.7,1.3c-0.5,0.2-1.1,0.5-1.7,0.9
			L70,82c-0.5-0.3-1.1-0.8-1.7-1.5c-0.6-0.6-0.9-1-1-1.2c-0.1-0.1-0.2-0.4-0.4-0.9l-0.3-0.7c0.2,0.1,0.7,0,1.6-0.2l1.4-0.3
			c0.7,0.1,1.6,0.1,2.6,0c1.7-0.2,2.9-0.6,3.7-1.3c0.3-0.3,0.5-0.4,0.9-0.6l0.6-0.3l1.5-0.9c0.9-0.5,1.3-0.9,1.4-1
			c0,0.2,0,0.4-0.1,0.7c-0.1,0.3-0.2,0.5-0.3,0.7L79.1,75l-0.3,0.3l0.1,0.4L79.1,76.4"/>
		<path class="st2" d="M79.8,79c-1.6-5.3-4.2-9.8-7.8-13.5c-4-4-8.3-6-13-6V59c5.2,0,9.8,2.1,13.8,6.3c1.8,1.8,3.3,4,4.6,6.4
			c1.2,2.3,2.2,4.7,2.8,7.2c0,0,0,0.1-0.2,0.1C79.9,79.1,79.8,79.1,79.8,79"/>
		<path class="st0" d="M65.9,54.3c0.5,0.1,0.9,0.4,1.1,0.7c0.3,0.5,0.4,1.1,0.3,1.9l-0.4,1.5l-0.3,1c-0.1,0.3-0.1,0.7-0.2,1.2
			s-0.1,1-0.1,1.3c0,0.7,0.1,1.2,0.3,1.6l0.4,0.8l-1,0.5l-5.4-3.2L59.9,60c0.2-0.2,0.6-0.4,1.2-0.6c0.5-0.4,1-1,1.5-1.9
			c0.1-0.2,0.5-0.8,1.1-1.7c0.3-0.5,0.7-0.8,1.1-1.1C65.3,54.3,65.6,54.2,65.9,54.3"/>
		<path class="st0" d="M78.3,66.2c0.1,0.4,0,0.7-0.1,1l-0.6,1c-0.3,0.5-0.5,0.8-0.6,1l-0.6,1c-0.2,0.4-0.4,0.7-0.4,0.9
			c0,0.2,0,0.5-0.1,0.7l-2-0.4l-2.7-1.8L70.7,67c0.5,0,1,0,1.7-0.2c0.6-0.1,1.1-0.3,1.4-0.5l1.2-0.7l1-0.6h1.1
			c0.5,0.1,0.8,0.2,0.9,0.4C78.2,65.6,78.3,65.8,78.3,66.2"/>
		<path class="st0" d="M77.6,72.2c0.7,0,1.4,0.1,1.9,0.3c0.5,0.2,0.8,0.5,0.7,0.8L80,74.1c-0.1,0.3-0.3,0.5-0.4,0.6l-0.8,0.6
			c-0.3,0.2-0.5,0.4-0.6,0.5l-0.4,0.7c-0.2,0.3-0.4,0.6-0.4,0.7c-0.1,0.1-0.3,0-0.8-0.3l-0.7-0.5l-1-4L77.6,72.2"/>
		<path class="st1" d="M67.3,55.7c0.1,0.2,0.1,0.4,0,0.8c0,0.4-0.1,0.9-0.3,1.4c-0.1,0.5-0.3,1.1-0.4,1.9c-0.1,0.7-0.2,1.3-0.2,1.7
			s0.1,0.8,0.3,1.5c0.2,0.5,0.3,0.9,0.5,1.2c0.1,0.1,0,0.1-0.1,0.1s-0.3-0.1-0.5-0.3c-0.5-0.4-0.9-0.8-1.1-1.3
			c-0.2-0.6-0.3-1.4-0.3-2.5c0.1-1.2,0.3-2,0.6-2.7c0.2-0.4,0.4-0.9,0.6-1.6c0.2-0.6,0.3-0.9,0.3-1l0.3,0.3L67.3,55.7"/>
		<path class="st1" d="M78,65.7l0.3,0.5c0.1,0.4,0.1,0.9-0.2,1.4c-0.9,1.4-1.4,2.3-1.5,2.6c0,0.1-0.1,0.4-0.2,0.9
			c-0.1,0.4-0.1,0.6-0.2,0.6c-0.2,0.1-0.3,0-0.4-0.3s-0.2-0.6-0.2-1.1c0-1.2,0.1-1.9,0.5-2.3c0.4-0.3,0.8-0.8,1.2-1.3
			C77.7,66.1,77.9,65.8,78,65.7"/>
		<path class="st1" d="M80.1,72.9c0,0.7-0.1,1.1-0.2,1.3c-0.1,0.1-0.3,0.3-0.6,0.6c-0.4,0.2-0.7,0.4-0.8,0.5
			c-0.2,0.2-0.6,0.8-1.2,1.9c-0.2,0.4-0.6,0.3-1.2-0.1c-0.2-0.2-0.4-0.4-0.5-0.6s-0.1-0.4,0-0.5c0.2-0.2,0.7-0.5,1.5-1
			c0.6-0.3,1.1-0.6,1.4-0.7c0.2-0.1,0.4-0.3,0.8-0.6L80.1,72.9"/>
		<path class="st2" d="M79.4,84.5c0.7,0,1.8-0.5,3.4-1.4l4.5-3.1c1.9-1.3,3.4-2.2,4.4-2.7c1.4-0.6,2.4-0.7,3-0.2
			c0.4,0.4,0.1,1.5-1,3.3c-1.1,1.9-2.6,3.8-4.5,5.7c-2.2,2.3-4.5,4.1-6.9,5.5c-2.8,1.6-5.6,2.5-8.2,2.5c-3,0-5.8-0.2-8.5-0.9
			c-2.6-0.6-4.8-1.4-6.5-2.5c-1.8-1.1-2.9-2.4-3.3-3.7c-0.5-1.5-0.1-3,1-4.5c0.7-0.9,1.9-1.3,3.6-1.3c1.3,0,3.2,0.3,5.6,0.8l6.7,1.6
			C75.4,84.2,77.6,84.5,79.4,84.5"/>
		<path class="st3" d="M78.9,84.8c0.7,0,2-0.4,3.7-1.4c0.8-0.4,2.4-1.4,4.8-3c2-1.3,3.5-2.2,4.5-2.6c1.4-0.7,2.3-0.8,2.7-0.3
			c0.3,0.3-0.2,1.3-1.3,3c-1.2,1.8-2.7,3.6-4.5,5.4c-2.2,2.2-4.4,4-6.6,5.3c-2.7,1.6-5.3,2.4-7.7,2.4c-2.8,0-5.6-0.2-8.2-0.8
			c-2.5-0.5-4.7-1.3-6.4-2.3c-1.8-1-2.9-2.2-3.4-3.5c-0.5-1.4-0.3-2.8,0.7-4.1c0.6-0.8,1.8-1.3,3.4-1.3c1.3,0,3.1,0.3,5.5,0.8
			l6.5,1.5C75.1,84.5,77.2,84.8,78.9,84.8"/>
		<path class="st4" d="M77.2,89.3c2.7,0,5.6-1.3,8.9-3.8c1.9-1.4,4.6-4.1,8.4-8.1l0,0c0.3,0.3-0.2,1.3-1.3,3
			c-1.2,1.8-2.7,3.6-4.5,5.4c-2.2,2.2-4.4,4-6.6,5.3c-2.7,1.6-5.3,2.4-7.7,2.4c-4.6,0.1-8.7-0.6-12.2-2c-3.6-1.4-5.6-3.2-6-5.2
			C63,88.3,70,89.3,77.2,89.3"/>
		<path class="st3" d="M82.4,79.7c1.4,0.4,2.7,0.9,4,1.4c1.1,0.5,2.5,0.9,4.2,1.3c1.4,0.3,2.5,0.5,3.3,0.5c0.5,0,1.6-0.1,3.3-0.3
			c1.6-0.2,2.6-0.4,3.1-0.5c0.4-0.1,0.8-0.2,1.2-0.2c0.4,0,0.7,0.1,1,0.3c0.4,0.3,0.5,0.7,0.5,1.3c0,0.3-0.1,0.6-0.2,0.8
			c-1.5,1-2.4,1.6-2.7,1.8c-0.2,0.1-0.8,0.6-2,1.6l-3.7,3.1c-2.1,1.8-4.6,3.2-7.3,4.3c-3.1,1.2-6.4,1.8-9.7,1.8c-7.5,0-13.2-2-17-6
			C56.1,86.5,54,79.6,54,70.1c0-1.4,0.1-3.4,0.2-5.9c0.2-2.6,0.3-4.3,0.5-5.1c0.2-0.9,0.3-2,0.4-3.6c0.1-1.6,0-2.8-0.1-3.7
			c0-0.2-0.1-0.8-0.1-1.9c0-0.4-0.2-0.7-0.6-0.9c-0.4,0.2-0.9,0.5-1.6,0.7c-1.3,0.5-2.7,0.7-4.1,0.7s-2.5-0.2-3.4-0.6
			c-0.3-0.1-0.5-0.3-0.7-0.4l-0.2-0.2c-0.1,0.2-0.7,0.3-1.7,0.3c-1.6,0-2.7-1-3.5-3c-0.6-1.5-0.9-3.4-0.9-5.7c0-1.8,0.4-3.7,1.3-5.8
			c0.3-0.7,0.5-1.3,0.9-1.9l0.4-0.7L40,31.8c-0.4-0.5-0.6-0.9-0.7-1.2c-0.1-0.3,0-0.7,0.3-1.1c0.2-0.3,0.4-0.6,0.7-0.8
			c0.2-0.2,0.6-0.2,1.2-0.1l0.9,0.2c-0.3-0.1-0.5-0.4-0.8-0.7c-0.5-0.7-0.8-1.7-0.8-2.8c0-1.6,0.5-2.8,1.6-3.8
			c1-0.9,2.1-1.3,3.5-1.3c0.5,0,1,0.1,1.5,0.2c0.6,0.1,1.2,0.4,1.9,0.8c0.6,0.3,1.2,1,1.8,2c0.3,0.5,0.5,1,0.7,1.4
			c1.7-0.4,3.5-0.3,5.4,0.3c1,0.3,1.7,0.6,2.3,1l0.2-0.3c0.2-0.2,0.5-0.5,0.7-0.7c0.9-0.7,1.9-1,3.1-1c1.7,0,3.2,0.6,4.7,1.7
			c1.7,1.3,2.5,3,2.5,5.1c0,2-0.8,3.6-2.3,4.9c-0.5,0.4-1.1,0.8-1.8,1.1c-0.5,0.2-0.9,0.3-1.2,0.3l-1.2-0.1l-0.6-0.1L63.5,38
			c-0.1,0.9-0.2,1.6-0.3,2.1c-0.1,0.6-0.4,1.7-1,3.3c-0.5,1.3-1,2.5-1.4,3.7c-0.4,0.9-0.7,2.2-1.1,3.8c-0.4,1.6-0.6,3.1-0.8,4.5
			c-0.1,1.2-0.1,2.9,0,5.3c0.1,1.2,0.2,2.2,0.3,3.2l0.7,0.8c0.6,0.6,1.1,1.2,1.5,1.6c1.1,1,2,2.2,2.6,3.5c0.3,0.7,0.7,1.8,1,3.2l1,4
			c0.3,1.2,1.1,2.3,2.2,3.6c0.6,0.6,1.1,1.1,1.6,1.5c1.9-1.1,3.8-1.9,5.6-2.4c1.1-0.3,2.4-0.4,4-0.5C80.1,79.1,81,79.2,82.4,79.7"/>
		<path class="st4" d="M49,50.6c1.2-0.1,2.4-0.4,3.6-0.8c1.4-0.6,2.7-1.4,3.9-2.4c-0.1,1.5-0.7,2.7-1.7,3.8c0-0.6,0-1,0-1.3
			s-0.2-0.5-0.6-0.7c-0.3,0.2-0.8,0.4-1.4,0.7C51.5,50.3,50.3,50.5,49,50.6"/>
		<path class="st5" d="M55.8,45.4c0.3-0.2,0.6-0.6,0.9-1.2l0.2-0.7c0.1-0.2,0.2-0.3,0.5-0.3c0.2,0,0.4,0.1,0.5,0.3s0.2,0.5,0.2,0.8
			c-0.1,0.9-0.5,1.9-1.5,3.1c-0.8,1-2,1.8-3.5,2.4c-1.5,0.5-2.9,0.8-4.5,0.8c-1.2,0-2.3-0.2-3.2-0.6l-1.1-0.7l2-0.8
			c0.5-0.2,1.6-0.6,3.5-1.1l4-1C54.8,46,55.5,45.7,55.8,45.4"/>
		<path class="st5" d="M30.5,86.2c0.6-0.4,1.1-0.7,1.5-0.9l1.4-0.1c0.8,0,1.2-0.1,1.3-0.2l1.4-2v1.7c-0.1,1.3-0.4,2.5-0.9,3.5
			c-0.7,1.6-1.4,2.8-2,3.7c-0.9,1.4-1.9,2.4-3,3.2c-1.3,0.9-2.9,1.7-4.9,2.4c-2.1,0.8-3.7,1.1-4.8,1L18,98.3c-0.6-0.1-0.9-0.3-1-0.5
			c-0.1-0.4-0.1-0.7,0-1c0.1-0.5,0.5-0.9,1-1.2c0.4,0.2,0.8,0.2,1.3,0.2c0.3,0,1.1-0.5,2.2-1.4c1.2-0.9,2-1.7,2.5-2.3
			c0.4-0.4,1.2-1.2,2.5-2.3c1.2-1.1,2-1.8,2.2-2.1C29.2,87.2,29.7,86.7,30.5,86.2"/>
		<path class="st6" d="M34.8,85l1.4-2v1.7c-0.1,1.3-0.4,2.5-0.9,3.5c-0.9,1.9-1.5,3.1-1.9,3.7c-0.9,1.4-1.8,2.5-2.9,3.2
			c-1.3,0.9-3,1.7-5,2.4c-2.1,0.8-3.7,1.1-4.8,1L18,98.4c-0.6-0.1-1-0.3-1.1-0.5c0-0.1,0-0.2,0.1-0.5l0.1-0.5
			c0.1,0.2,0.4,0.4,0.7,0.5c0.3,0.1,0.7,0.1,1.1,0.1c3.8,0,7.2-1.2,10.2-3.6C32,91.6,33.9,88.6,34.8,85"/>
		<path class="st3" d="M27.8,79.7c0.7-0.5,1.3-0.9,1.8-1.2c0.8-0.4,1.5-0.6,2.1-0.6c0.7,0,1.4,0.2,2.2,0.6c0.7,0.3,1.2,0.7,1.6,1.1
			c0.3,0.3,0.5,1,0.6,2.1c0.1,0.5,0.1,1,0.1,1.5L33.7,86c0,0-0.5,0.3-1.4,0.7c-0.9,0.4-1.6,0.8-2,1.2c-0.5,0.4-1.1,1.1-1.9,2l-2,2.5
			c-0.7,0.9-1.7,1.7-3,2.5s-2.5,1.3-3.6,1.6h-1.2c-0.3-0.1-0.6-0.3-0.7-0.5l2.9-2.7c0.3-0.3,0.7-1,1.3-2c0.4-0.9,0.8-1.7,1-2.3
			c0.1-0.3,0.4-1.1,1-2.5c0.5-1.3,0.9-2.1,1-2.4c0.1-0.5,0.5-1.2,1.2-2.2C26.7,80.8,27.3,80.1,27.8,79.7"/>
		<path class="st2" d="M24.7,83.7c1-2,2.1-3.6,3.5-4.6s3-1.4,4.7-1.2c1.8,0.3,2.9,1.3,3.2,3.2c0.5,1.6,0.5,3.4,0,5.4
			c-0.5,2.1-1.6,4.2-3.1,6.1c-2.3,3-5.5,4.9-9.8,5.8c-1.6,0.3-3,0.4-4.3,0.3c-1.2-0.1-1.9-0.3-2-0.7c-0.2-0.5-0.3-1-0.1-1.4
			c0.1-0.3,0.4-0.7,0.9-1l1.5-1.2c0.7-0.6,1.2-1.2,1.7-1.8c0.5-0.6,1.1-2,1.9-4.2C23.9,85.7,24.5,84.1,24.7,83.7 M23.3,89.1
			c-0.7,1.7-1.2,2.8-1.6,3.4s-1,1.2-1.6,1.8l-1.5,1.2c-0.5,0.4-0.9,0.7-1,1c-0.2,0.3-0.2,0.7-0.1,1s0.7,0.4,1.9,0.5
			c1.2,0.1,2.6-0.1,4-0.3c4-0.8,7.1-2.6,9.3-5.3c1.1-1.4,2-3,2.6-4.6s0.9-3,0.9-4.4s-0.3-2.6-0.9-3.4c-0.6-0.9-1.5-1.5-2.7-1.6
			c-1.6-0.1-3.1,0.4-4.5,1.8c-1.2,1.1-2.2,2.7-3.1,4.7L23.3,89.1"/>
		<path class="st7" d="M46.4,48.4l3.1-1.2c0.5-0.2,2.1-0.6,4.7-1.2c-0.2,0.6-0.5,1-1.1,1.4s-1.6,0.8-2.8,1.2
			c-1.1,0.3-2.1,0.4-2.9,0.2c-0.3-0.1-0.5-0.2-0.7-0.3L46.4,48.4"/>
		<path class="st5" d="M96.1,88.4c1.2-1.1,2.7-2.1,4.4-3c0.8-0.4,1.6-0.8,2.2-1c-0.9,1.8-2.1,3.6-3.7,5.4c-1.6,1.9-3.5,3.6-5.6,5
			c-4.8,3.4-9.6,5.2-14.4,5.2c-3.5,0-7-0.7-10.5-2.2c-1.1-0.4-2.2-1-3.2-1.5l-1.2-0.7c-0.8,0.3-1.8,0.5-2.9,0.8
			c-2.3,0.5-4.2,0.8-5.8,0.8c-7.6,0-13.4-1.5-17.3-4.6c-3.6-2.8-5.4-6.5-5.4-11.2c0-3.8,1-7.4,3-11c0.7-1.2,1.5-2.4,2.4-3.6l1.9-2.3
			c1-1.3,2-2.7,3.1-4.3c1.3-1.9,2.2-3.4,2.8-4.7c0.6-1.2,1-2.3,1.1-3.5l0.1-1.4c2.4,0,4.3-0.3,5.8-0.9c0.7-0.3,1.3-0.6,1.5-0.9
			c0.6,0,1.1,0.5,1.5,1.4c0.3,0.7,0.5,1.5,0.5,2.3c0,1.4-0.1,2.8-0.3,4.2l-0.6,3.8c-0.6,3.5-0.9,6.7-0.9,9.8
			c0,6.3,1.4,11.6,4.2,15.9c1.7,2.7,4.3,5.2,7.6,7.7c1.9,1.4,4.3,2.2,7.2,2.6c2.9,0.3,6.2,0.1,9.7-0.6
			C87.2,95.1,91.4,92.6,96.1,88.4"/>
		<path class="st6" d="M52.1,52.6c-1.7,0.6-3.4,0.6-5.2,0.1c0.1-0.6,0.2-1.1,0.2-1.6v-0.6c2.4,0,4.3-0.3,5.8-0.9
			c0.7-0.3,1.3-0.6,1.5-0.9c0.5,0,1,0.3,1.3,1C55,51.1,53.8,52,52.1,52.6"/>
		<path class="st6" d="M102.4,84.4h0.2c-0.9,1.8-2.1,3.6-3.7,5.4c-1.6,1.9-3.5,3.6-5.6,5c-4.8,3.4-9.6,5.2-14.4,5.2
			c-2.8,0-5.6-0.5-8.4-1.4c-1.9-0.6-3.6-1.4-5.2-2.3c3.7,1.6,7.7,2.3,11.9,2.3c5.6,0,10.6-1.3,15.2-3.9
			C97.1,92.1,100.4,88.6,102.4,84.4"/>
		<path class="st6" d="M34.2,73.6L34.2,73.6c-1.4,8.1,0.9,14,6.9,17.6c5.1,3.1,12.4,4.2,21.8,3.4h0.5l0.8,0.9l-3.4,0.9
			c-2.1,0.5-3.9,0.7-5.3,0.7c-7.6,0-13.4-1.5-17.3-4.6c-3.6-2.8-5.4-6.5-5.4-11.2C32.7,78.7,33.2,76.1,34.2,73.6"/>
		<path class="st8" d="M54.3,36.8l0.5,4.6l-2.6,1.1l-0.9,0.1c0-0.4,0.1-0.9,0.1-1.4c0.2-1.1,0.4-1.9,0.8-2.4
			c0.4-0.6,0.9-1.1,1.4-1.5C53.8,37.1,54.1,36.9,54.3,36.8"/>
		<path class="st4" d="M40.9,26.1c-0.2-0.9-0.2-1.7,0-2.4c-0.1,0.7,0.1,1.4,0.7,2.4c0.7,0.9,1.5,1.6,2.4,1.9l-1.2,1.2
			C41.8,28.3,41.2,27.3,40.9,26.1"/>
		<path class="st2" d="M55,45.9c-0.6,0.3-1.1,0.5-1.6,0.6l-3.8,1c-0.4,0.1-1.1,0.3-1.9,0.6c-0.9,0.3-1.5,0.6-2,0.9
			c-0.5,0.2-1,0.4-1.6,0.6c-0.5,0.1-1,0.2-1.5,0.2c-1.4,0-2.5-0.6-3.4-1.9c-1-1.5-1.5-3.7-1.5-6.7c0-2.5,0.7-5.2,2.1-8
			c1.4-2.8,3-4.8,4.9-6c0.2-0.1,0.4-0.2,0.4-0.1c0.1,0.1,0,0.2-0.2,0.3c-1.4,1-2.8,2.8-4.2,5.4c-1.6,2.9-2.3,5.8-2.3,8.4
			c0,2.5,0.4,4.5,1.1,6c0.7,1.4,1.8,2.2,3.1,2.2l1.2-0.2c0.5-0.1,0.9-0.3,1.3-0.4c1.5-0.7,3-1.2,4.5-1.6c4-1.1,6.1-1.8,6.4-2
			c0.2-0.2,0.4-0.4,0.5-0.6c0.1-0.2,0.2-0.4,0.3-0.7c0.1-0.2,0.1-0.3,0.2-0.3s0.1,0.1,0.1,0.4c0,0.3-0.1,0.6-0.3,0.9
			s-0.3,0.5-0.5,0.6C55.8,45.6,55.4,45.7,55,45.9"/>
		<path class="st2" d="M44.2,45.9c0,0,0,0.1,0,0.3L44,46.5l-0.2,0.2h-0.3c-0.1-0.1-0.1-0.1-0.1-0.2c0-0.1,0-0.2,0.1-0.2l0.4-0.3
			C44,45.9,44.1,45.8,44.2,45.9"/>
		<path class="st2" d="M39.9,46.3c0-0.1,0-0.2,0.1-0.2c0,0,0.1,0,0.1,0.1l0.1,0.2l0.2,0.3l0.1,0.2v0.2c0,0,0,0.1-0.1,0.1
			s-0.1,0-0.2,0C40.1,47.1,40,47,40,46.9C39.9,46.6,39.9,46.5,39.9,46.3"/>
		<path class="st2" d="M51.2,36.7c-0.4,0.7-0.6,1.5-0.8,2.3c-0.1,0.3-0.1,0.5-0.2,0.5c-0.1,0-0.1-0.2-0.1-0.6c0.1-1.1,0.4-2,0.8-2.7
			c0.4-0.7,0.9-1.2,1.6-1.7c0.2-0.1,0.3-0.2,0.4-0.1c0,0,0,0.1-0.2,0.3C52.1,35.4,51.6,36.1,51.2,36.7"/>
		<path class="st2" d="M46.4,48.4c0.5,0.2,1,0.3,1.6,0.3c1.1,0,2.2-0.2,3.4-0.7s2-1.1,2.6-1.8l0.7-0.3c-1.4,1.8-3.1,2.8-5,3.1
			c-1.4,0.2-2.7,0.1-3.7-0.5L46.4,48.4"/>
		<path class="st2" d="M59.8,25.5l-0.4,0.4c-1.5-0.9-3.1-1.3-4.8-1.4s-3.5,0.2-5.2,0.9c-0.3,0.1-0.4,0.1-0.4,0.1
			c0-0.1,0.1-0.2,0.3-0.3c1.5-0.9,3.2-1.3,5.2-1.2C56.5,24.1,58.2,24.6,59.8,25.5"/>
		<path class="st4" d="M61.3,33.3c0.1,0.3,0.5,0.6,1,1c0.8,0.5,1.7,0.8,2.6,0.8c1.2,0,2.4-0.4,3.6-1.3c1.3-0.8,1.9-1.7,2-2.6
			c0,1.1-0.4,2.2-1.2,3.3c-1,1.4-2.3,2.1-4,2.1c-1.5,0-2.7-0.6-3.4-1.8c-0.2-0.4-0.4-0.8-0.6-1.2L61.3,33.3"/>
		<path class="st2" d="M51.8,24.5l-0.4-0.2c-0.3-1-0.9-1.8-1.8-2.6c-1.1-0.9-2.4-1.4-3.8-1.4c-1.4,0-2.6,0.5-3.5,1.5
			s-1.4,2.1-1.4,3.4c0,0.6,0.1,1.2,0.4,1.8c0.3,0.7,0.8,1.4,1.4,1.9l-0.6-0.2c-0.3-0.2-0.6-0.6-1-1.3c-0.5-0.8-0.7-1.6-0.7-2.4
			c0-1.6,0.5-2.9,1.5-3.9s2.3-1.5,3.9-1.5c1.5,0,2.8,0.5,3.9,1.4C50.9,22,51.5,23.1,51.8,24.5"/>
		<path class="st2" d="M60,25c1-0.9,2.1-1.3,3.5-1.3c2.1,0,3.9,0.7,5.4,2.2c1.4,1.4,2.1,3.1,2.1,5c0,1.6-0.5,2.9-1.6,4.1
			c-1.1,1.2-2.4,1.8-4,1.8c-1.2,0-2.2-0.4-3.2-1.3c-0.9-0.8-1.3-1.8-1.3-2.8c0-1.2,0.4-2.1,1.1-2.8c0.7-0.7,1.5-1,2.5-1
			c0.7,0,1.3,0.2,1.7,0.7s0.7,1,0.7,1.7c0,0.3,0,0.5-0.1,0.5s-0.1-0.2-0.1-0.5c0-0.4-0.2-0.9-0.6-1.2c-0.4-0.4-0.9-0.6-1.5-0.6
			c-0.7,0-1.4,0.3-1.9,0.9c-0.6,0.6-0.9,1.4-0.9,2.4c0,0.9,0.4,1.6,1,2.4c0.8,0.8,1.7,1.2,2.8,1.2c1.2,0,2.2-0.5,3.3-1.5
			c1.1-1.1,1.7-2.4,1.7-4c0-1.9-0.7-3.5-2-4.8s-2.9-1.9-4.8-1.9c-1.2,0-2.2,0.4-3.1,1.1c-1,0.8-1.5,1.8-1.7,3.1
			c0,0.3-0.1,0.4-0.2,0.4c-0.1,0-0.1-0.2-0.1-0.4C58.5,27,59,25.9,60,25"/>
		<path class="st2" d="M64.2,36.6c-0.3,3.3-1,6-2.1,8.1c-1,1.8-1.7,3.9-2.2,6.2s-0.8,4.6-0.8,6.9c0,1.1,0.1,2.5,0.2,4.1
			c0.1,1.3,0.2,2.3,0.3,2.8c0.1,0.4,0,0.6-0.1,0.6s-0.2-0.1-0.3-0.5C59,64.4,59,63.5,58.8,62c-0.1-1.6-0.2-3-0.2-4.1
			c0-2.8,0.2-5.2,0.7-7.2c0.4-1.8,1.2-3.8,2.2-6.1c0.5-1,1-2.4,1.4-4.1c0.5-1.8,0.7-3.2,0.6-4.1L64.2,36.6"/>
		<path class="st2" d="M55.7,36.1c0.3,0.3,0.6,0.7,0.8,1.3s0.3,1.2,0.3,1.9c0,0.4,0,0.8-0.1,1.2h-0.1l-1,0.5c-0.3,0.2-1,0.4-1.9,0.7
			c-0.4-0.7-0.6-1.5-0.6-2.5c0-0.7,0.1-1.4,0.4-2c0.2-0.2,0.4-0.3,0.5-0.4C54.4,36.6,55,36.3,55.7,36.1"/>
		<path class="st2" d="M55.3,36.2c0.3,0.2,0.5,0.5,0.7,1.1s0.3,1.2,0.3,1.9c0,0.5-0.1,1-0.2,1.5L55.6,41c-0.4,0.2-0.9,0.4-1.5,0.6
			c-0.3-0.6-0.5-1.4-0.5-2.4c0-0.5,0.1-1,0.2-1.5c0.1-0.4,0.2-0.8,0.4-1.1C54.5,36.5,54.9,36.3,55.3,36.2"/>
		<path class="st8" d="M54.7,37c0.1-0.2,0.3-0.3,0.4-0.3c0.1,0,0.3,0.1,0.4,0.3c0.1,0.2,0.2,0.5,0.2,0.9s-0.1,0.7-0.2,1
			c-0.1,0.2-0.2,0.3-0.4,0.3c-0.4,0-0.6-0.4-0.6-1.2C54.5,37.6,54.5,37.3,54.7,37"/>
		<path class="st2" d="M55.9,35.9c0.2,0,0.3,0,0.3,0.1s-0.1,0.1-0.3,0.2c-1.4,0.4-2.5,1.2-3.3,2.3c-0.8,1.2-1.2,2.6-1.2,4.2
			c0,0.2-0.1,0.3-0.1,0.3c-0.1,0-0.1-0.1-0.2-0.3c-0.2-1.7,0.2-3.3,1.2-4.7C53.3,36.7,54.5,36,55.9,35.9"/>
		<path class="st2" d="M52.8,41.9l1.6-0.5c0.6-0.2,1.3-0.6,2.1-0.9h0.3c0,0,0,0.1-0.2,0.2c-0.8,0.5-1.7,0.9-2.7,1.3
			c-1,0.4-1.8,0.6-2.6,0.8c-0.1,0-0.1,0-0.1-0.2c0-0.1,0-0.2,0.1-0.2L52.8,41.9"/>
		<path class="st3" d="M46.7,30.2l1.4,0.1L49,31l-4.2,5.2L43,37c0-0.4-0.1-0.7-0.2-0.9L41.3,33l-1.1-1.2c-0.6-0.6-0.9-1.1-1-1.4
			c-0.1-0.4-0.1-0.7,0.1-0.9l0.4-0.6c0.1-0.2,0.3-0.3,0.6-0.4l0.8-0.2c0.2,0,0.7,0.1,1.7,0.6l2,0.9C45.1,30,45.7,30.1,46.7,30.2"/>
		<path class="st4" d="M39.4,29.8c0,0.2,0.4,0.6,1.1,1.1c0.9,0.6,1.5,1.1,1.8,1.4c0.4,0.4,0.8,1.2,1.2,2.3c0.4,1,0.5,1.6,0.4,1.9
			c-0.1,0.3-0.3,0.5-0.5,0.6c-0.3,0.1-0.5,0-0.5-0.4c-0.1-0.4-0.2-0.9-0.5-1.5c-0.2-0.6-0.4-1-0.6-1.2l-0.7-1
			c-0.3-0.4-0.5-0.6-0.7-0.7l-0.5-0.5l-0.5-0.5c-0.2-0.3-0.2-0.6-0.2-0.9L39.4,29.8"/>
		<path class="st2" d="M47.7,30.2c0.3,0,0.4,0,0.4,0.1s-0.1,0.1-0.4,0.1l-1.9-0.1c-0.8-0.1-1.4-0.2-1.8-0.4l-1.2-0.6
			c-0.5-0.2-0.8-0.4-0.9-0.5c-0.1-0.1-0.4-0.2-0.6-0.2c-0.3,0-0.5,0-0.7,0.1S40.2,29,40,29.3s-0.3,0.6-0.3,0.8c0,0.2,0,0.4,0.1,0.7
			c0.1,0.2,0.2,0.4,0.3,0.5l1,1.2c0.6,0.7,1,1.2,1.2,1.5c0.2,0.4,0.4,0.9,0.6,1.5c0.2,0.5,0.3,0.9,0.3,1.1c0,0.2,0,0.3,0,0.4
			c-0.1,0-0.1-0.1-0.2-0.3l-0.4-1.2c-0.2-0.6-0.4-1-0.6-1.3c-0.2-0.4-0.6-0.8-1.1-1.4c-0.5-0.6-0.8-1-1.1-1.2
			c-0.2-0.2-0.4-0.4-0.5-0.7C39,30.6,39,30.4,39,30.1c0-0.2,0.2-0.6,0.4-1c0.3-0.4,0.5-0.6,0.7-0.7c0.3-0.2,0.7-0.2,1-0.2
			s0.6,0.1,0.7,0.2c0.2,0.1,0.5,0.3,1,0.6c0.5,0.3,0.9,0.5,1.1,0.5c0.4,0.2,1,0.3,1.7,0.4C46.5,30.1,47.1,30.2,47.7,30.2"/>
		<path class="st9" d="M61.5,82.8c-0.2-0.3-0.4-0.6-0.4-0.9s0.1-0.5,0.4-0.6c0.3-0.1,0.6-0.1,0.9,0c0.3,0.1,0.5,0.4,0.6,0.8
			c0.1,0.3,0.1,0.6,0,0.8c-0.1,0.3-0.2,0.5-0.5,0.5c-0.3,0.1-0.5,0-0.6-0.1C61.9,83.3,61.8,83.1,61.5,82.8"/>
		<path class="st9" d="M59.8,73.9c-0.2-0.4-0.3-0.7-0.3-1s0.1-0.5,0.4-0.7c0.3-0.2,0.7-0.1,1.2,0.1c0.6,0.3,1.1,0.9,1.3,1.7
			c0.2,0.7,0.3,1.4,0.2,2s-0.3,0.9-0.6,1s-0.5,0-0.8-0.2c-0.4-0.2-0.6-0.7-0.7-1.3C60.3,75.1,60.1,74.5,59.8,73.9"/>
		<path class="st9" d="M61.9,76.7c-0.2,0.1-0.4,0-0.6-0.3c-0.2-0.3-0.4-0.7-0.5-1.2s-0.4-1.1-0.8-1.8c-0.1-0.2-0.2-0.4-0.2-0.4
			c0-0.1,0.1-0.3,0.3-0.4s0.5,0,1,0.4s0.8,0.9,0.9,1.3C62.4,75.7,62.4,76.5,61.9,76.7"/>
		<path class="st9" d="M62.4,83h-0.2l-0.3-0.4L61.6,82c-0.1-0.2,0-0.3,0.2-0.3s0.4,0,0.5,0.1c0.2,0.1,0.3,0.3,0.4,0.5
			c0.1,0.3,0.1,0.4,0.1,0.5C62.7,82.8,62.6,82.9,62.4,83"/>
		<path class="st2" d="M60.6,65.5c-0.7-0.7-1.2-1.3-1.5-1.8V63c0.3,0.6,0.8,1.3,1.5,2l1.8,1.9c1.5,1.7,2.5,3.8,2.9,6.3
			c0.3,1.8,0.8,3.4,1.6,4.9c0.9,1.7,2,2.9,3.4,3.7l-0.5,0.4c-1.5-1.1-2.6-2.5-3.4-4c-0.7-1.4-1.2-3.1-1.6-5.2
			c-0.3-2.1-1.2-4-2.5-5.7L60.6,65.5"/>
		<path class="st2" d="M64.6,66.1c-0.5-0.8-1.3-1.8-2.6-2.8c-1.1-0.9-2.1-1.6-3-1.9v-0.5c1,0.4,2.1,1,3.3,2.1c1.1,1,2,2,2.5,2.9
			c0.1,0.2,0.1,0.4,0.1,0.4C64.9,66.5,64.7,66.4,64.6,66.1"/>
		<path class="st2" d="M67.9,73.3c-0.1-0.3,0-0.5,0.1-0.5s0.2,0.1,0.3,0.4c0.3,1.6,0.9,3,1.8,4.3c0.8,1.2,1.9,2.2,3.1,2.9l-0.4,0.1
			c-1.2-0.6-2.1-1.5-2.9-2.6C68.8,76.7,68.2,75.1,67.9,73.3"/>
		<path class="st2" d="M83,79.4c0.6,0.2,1.7,0.6,3.4,1.3c3.2,1.3,5.6,1.9,7.3,1.9c0.9,0,2.2-0.1,3.9-0.4l3-0.5
			c0.9-0.2,1.6-0.1,2.1,0.4c0.6,0.5,0.6,1.2,0.1,2.1c-2.4,4.4-5.6,8.1-9.7,11c-4.5,3.2-9.2,4.9-13.9,4.9c-3.4,0-6.7-0.6-9.9-1.8
			c-2.7-1-4.8-2.2-6.1-3.5c-0.2-0.2-0.3-0.4-0.2-0.4s0.2,0,0.4,0.1c4.5,3.2,9.8,4.9,15.8,4.9c4.3,0,8.4-1.3,12.5-3.9
			c4.3-2.7,7.9-6.6,10.9-11.5c0.3-0.5,0.3-1-0.1-1.4s-1-0.6-1.8-0.4l-2.8,0.5c-1.7,0.3-3.1,0.4-4.1,0.4c-2,0-4.6-0.6-7.7-1.8
			c-1.9-0.7-3-1.2-3.3-1.3c-1.1-0.4-2-0.6-2.7-0.6c-2.4,0-4.5,0.4-6.6,1.2c-1.8,0.7-3.6,1.8-5.6,3.2C67.7,84,67.5,84,67.5,84
			s0.1-0.2,0.3-0.4c1.4-1.4,3.1-2.5,5.1-3.4c2.2-0.9,4.6-1.4,7.2-1.4C80.8,78.8,81.8,79,83,79.4"/>
		<path class="st2" d="M64.4,54.6c0.6-0.5,1.1-0.6,1.6-0.4c0.7,0.3,1.2,0.7,1.4,1.2c0.2,0.5,0.2,1,0.1,1.6c-0.1,0.4-0.3,1-0.4,1.7
			c-0.2,0.8-0.3,1.3-0.4,1.6c-0.1,0.6-0.1,1.3,0,2s0.2,1.3,0.4,1.7c0.1,0.3,0.2,0.4,0.1,0.4S67,64.3,66.9,64
			c-0.3-0.6-0.5-1.3-0.6-1.9c-0.1-0.6,0-1.2,0.1-1.9c0-0.1,0.1-0.7,0.3-1.5l0.4-1.8c0.1-0.6,0.1-1.1-0.1-1.4
			c-0.2-0.4-0.6-0.7-1.1-0.8c-0.4-0.1-0.9,0.1-1.4,0.6s-1,1.3-1.6,2.4c-0.3,0.5-0.6,1-1.1,1.5c-0.5,0.4-1,0.8-1.6,1.1h-0.4
			c0-0.1,0-0.2,0.2-0.3c0.6-0.3,1.1-0.7,1.5-1c0.3-0.3,0.7-0.8,1-1.5C63,56.1,63.7,55.2,64.4,54.6"/>
		<path class="st2" d="M78.7,66.2c0,0.4-0.1,0.8-0.3,1.2l-0.6,1c-0.4,0.6-0.6,0.9-0.7,1.1c-0.1,0.3-0.3,0.6-0.5,1
			c-0.1,0.4-0.3,0.7-0.3,1c0,0.2-0.1,0.2-0.2,0.2S76,71.6,76,71.4c0.1-0.8,0.3-1.5,0.7-2.2l1.2-2c0.3-0.6,0.3-1.2-0.2-1.7
			c-0.2-0.2-0.5-0.3-0.8-0.3s-0.5,0.1-0.8,0.2l-1.2,0.5c-0.7,0.3-1.1,0.5-1.4,0.6c-0.2,0.1-0.6,0.2-1.1,0.3l-1.3,0.1
			c-0.3,0-0.4-0.1-0.4-0.2s0.1-0.1,0.4-0.1l1.2-0.1c0.3-0.1,0.6-0.2,0.9-0.3s0.8-0.4,1.4-0.7l1.1-0.5c0.4-0.2,0.9-0.3,1.3-0.2
			c0.4,0,0.7,0.2,1,0.5C78.4,65.5,78.6,65.8,78.7,66.2"/>
		<path class="st2" d="M74.6,72.3c0-0.1,0.2-0.2,0.6-0.2h2.4c1.6,0,2.5,0.2,2.7,0.5s0.1,0.7,0,1.2c-0.2,0.6-0.7,1.1-1.4,1.6
			c-0.6,0.4-1.1,0.9-1.4,1.5c-0.1,0.3-0.3,0.4-0.3,0.3c-0.1,0-0.1-0.2,0-0.5c0-0.2,0.2-0.5,0.5-0.9s0.7-0.8,1-1
			c0.5-0.4,0.8-0.7,1-1.1s0.3-0.7,0.1-0.9c-0.1-0.2-0.8-0.3-2.2-0.4h-2.5C74.8,72.5,74.6,72.4,74.6,72.3"/>
		<path class="st2" d="M48.1,50.4c1.5,0,2.8-0.2,3.9-0.6c1.3-0.4,2.7-1.3,4.3-2.5c0.2-0.1,0.3-0.2,0.3-0.2s0,0.1-0.1,0.3
			c-0.8,1-2,1.9-3.6,2.5c-1.5,0.6-3.1,0.9-4.8,0.9c-0.7,0-1.5-0.1-2.5-0.4c-0.8-0.3-1.5-0.6-1.9-0.9l0.4-0.2l1.2,0.6
			C46.3,50.2,47.2,50.4,48.1,50.4"/>
		<path class="st2" d="M47.2,50.5h0.4c0,2.2-0.7,4.5-2.2,7c-0.6,1-1.3,2.1-2.3,3.3l-2.6,3.4c-2.3,2.9-3.9,5.5-4.9,7.5
			c-1.5,3.1-2.2,6.2-2.2,9.3c0,3.9,1.2,7.1,3.5,9.6c2,2.2,4.8,3.7,8.4,4.8c3,0.9,6.4,1.2,10.2,1.2c3.2-0.1,6.2-0.5,8.9-1.2l0.3,0.3
			c-1.1,0.5-2.6,0.9-4.7,1.2c-1.9,0.3-3.6,0.4-5.3,0.4c-6.6,0-11.8-1.3-15.6-3.9c-4.2-2.8-6.3-6.9-6.3-12.3c0-3.2,0.8-6.4,2.3-9.5
			c1.1-2.2,2.7-4.7,5.1-7.7l2.7-3.4c1-1.3,1.8-2.4,2.4-3.3C46.4,54.7,47.2,52.5,47.2,50.5"/>
		<path class="st9" d="M59.6,45.3c-0.1,0-0.1-0.4-0.1-1.2c0-0.4,0.1-0.8,0.2-1.4c0-0.2,0.2-0.3,0.6-0.3c0.3,0,0.5,0.1,0.5,0.2
			l0.1,0.4c0,0.1,0,0.3-0.1,0.5c-0.1,0.3-0.2,0.6-0.5,1C60,45.1,59.7,45.3,59.6,45.3"/>
		<path class="st9" d="M58.7,46.9c0.1,0,0.2,0.2,0.3,0.5s0.1,0.6,0,0.8s-0.2,0.4-0.3,0.6c-0.2,0.2-0.3,0.4-0.4,0.4
			c-0.1,0-0.2-0.1-0.3-0.3s-0.1-0.5,0-1c0-0.3,0.1-0.5,0.3-0.7C58.4,47,58.6,46.9,58.7,46.9"/>
	</g>
</g>
</svg>
