<?xml version="1.0" encoding="utf-8"?>
<!-- Generator: Adobe Illustrator 27.0.0, SVG Export Plug-In . SVG Version: 6.00 Build 0)  -->
<svg version="1.1" id="Capa_1" xmlns="http://www.w3.org/2000/svg" xmlns:xlink="http://www.w3.org/1999/xlink" x="0px" y="0px"
	 viewBox="0 0 120 120" style="enable-background:new 0 0 120 120;" xml:space="preserve">
<style type="text/css">
	.st0{fill:#1D1D1B;}
	.st1{fill-rule:evenodd;clip-rule:evenodd;fill:#8BC5AB;}
	.st2{fill-rule:evenodd;clip-rule:evenodd;fill:#6EAC57;}
	.st3{fill-rule:evenodd;clip-rule:evenodd;fill:#99C376;}
	.st4{fill-rule:evenodd;clip-rule:evenodd;fill:#377F5C;}
	.st5{fill-rule:evenodd;clip-rule:evenodd;fill:#FFFFFF;}
	.st6{fill-rule:evenodd;clip-rule:evenodd;fill:#BF0D0D;}
	.st7{fill-rule:evenodd;clip-rule:evenodd;fill:#D74A31;}
	.st8{fill-rule:evenodd;clip-rule:evenodd;fill:#1D1D1B;}
	.st9{fill-rule:evenodd;clip-rule:evenodd;fill:#AC4581;}
	.st10{fill-rule:evenodd;clip-rule:evenodd;fill:#ECECEC;}
	.st11{fill-rule:evenodd;clip-rule:evenodd;fill:#BD679A;}
</style>
<g>
	<g>
		<path class="st0" d="M43.2,37.9c1.7,0,3.3,0,4.9,0.2c1.5-5,5.8-8.4,12.4-9.8c1.3-0.3,2.7-0.5,4.1-0.6c1.4-0.1,3-0.2,4.6-0.1l0,0
			h0.1c4.3,0.1,7.6-0.2,10-1.1s3.9-2.3,4.5-4.4c0-0.1,0.1-0.1,0.2-0.1c0.8,0.1,1.3,0.5,1.8,1.1c0.4,0.5,0.6,1.2,0.9,1.9
			c0.5-0.7,1.1-1.2,1.8-1.5c0.8-0.4,1.7-0.6,2.7-0.7l0,0c0.1,0,0.2,0.1,0.2,0.2c0,0.7,0,1.5-0.2,2.2c-0.1,0.6-0.3,1.2-0.5,1.8
			c0.5-0.2,1-0.3,1.6-0.4c0.7-0.1,1.3-0.1,2-0.1c0,0,0.1,0,0.1,0.1c0.1,0.1,0.1,0.2,0,0.2c-4.6,5-1.9,9.8,1.4,15.5
			c2.5,4.4,5.2,9.3,5.4,15.3c0.2,5.1-1.6,8.9-4.4,11.6c-0.5,0.5-1.1,1-1.7,1.4c-0.5,0.4-1.1,0.8-1.7,1.1c1.4,2.5,2.6,5.3,3.1,8.1
			c0.1,0.6,0.2,1.1,0.2,1.7s0.1,1.1,0,1.7l0,0c-0.2,3.8-1.1,8-3.2,10.4l0,0c-0.4,0.5-0.9,0.9-1.4,1.2s-1,0.5-1.6,0.7
			c-0.4,0.7-0.9,1.1-1.3,1.1c-0.4,0.1-0.8-0.3-1.2-1.1c-0.2,0-0.4,0-0.7,0.1c-0.2,0-0.5,0.1-0.7,0.2l-0.2,0.1l0,0
			c-0.6,0.3-1.2,0.5-1.6,0.6c-0.6,0.1-1-0.2-1.1-1c-0.1,0-0.3,0-0.4,0c-0.2,0-0.4,0-0.5,0.1c-0.6,0.2-1.5,0.3-2.1,0.3
			c-0.1,0-0.2,0-0.3-0.1l0,0c-0.1,0-0.2-0.1-0.2-0.2l0,0l0,0l0,0l0,0l0,0l0,0c-0.1-0.2-0.2-0.8-0.2-1.4c0-0.1,0-0.2,0-0.3
			s0-0.2,0-0.2c-0.4-0.5-0.8-1-1.2-1.6c-0.4-0.5-0.7-1.2-1-1.8c-0.4,0.1-0.9,0.1-1.3,0.1s-0.8,0-1.3-0.1c-1.3,1.9-2.6,3.5-4,4.6
			c-1.3,1.2-2.6,1.9-4,2.1c-0.3,0.5-0.6,0.9-0.9,1.1c-0.2,0.1-0.3,0.2-0.5,0.2s-0.3,0-0.5-0.1s-0.4-0.3-0.7-0.6
			c-0.3,0.1-0.6,0.1-0.9,0.1c-0.1,0-0.1,0-0.2,0s-0.1,0-0.2,0c-1,0.4-1.8,0.7-2.4,0.7c-0.6-0.1-0.9-0.4-0.8-1.2
			c-0.2,0-0.4-0.1-0.7-0.2s-0.5-0.2-0.8-0.3c-0.4,0.1-1.1,0.3-1.5,0.3c-0.1,0-0.2,0-0.2,0l0,0c-0.1,0-0.2,0-0.2-0.1l0,0l0,0l0,0
			c-0.3-0.2-0.2-0.9,0.1-1.5c0.1-0.1,0.1-0.2,0.2-0.3c0-0.1,0.1-0.2,0.1-0.2C57,94.6,57,94.2,57,93.7c0-0.4,0.1-0.9,0.2-1.4
			c-0.3-0.1-0.6-0.2-1-0.2s-0.8,0-1.4,0.1l0,0l0,0c-0.1,0-0.2-0.1-0.2-0.2c-0.1-0.7-0.6-1.5-1.1-2.2l0,0c-0.5-0.8-1.1-1.6-1.2-2.5
			h-0.1c-1.3-0.3-2.5-0.5-3.9-1c-1.4,3-2.7,5.3-3.8,6.7c-1.2,1.5-2.3,2.2-3.3,2.2c-0.2,0.1-0.5,0.3-0.7,0.4c-0.5,0.3-1,0.7-1.7,0.8
			c-0.3,0.1-0.5-0.3-0.6-0.5c0-0.1-0.1-0.2-0.1-0.2c-0.2-0.1-0.4-0.1-0.6-0.2l0,0c-0.2,0-0.4-0.1-0.6,0l-0.2,0.1l0,0
			c-0.7,0.2-1.6,0.5-2.2,0.5c-0.5,0-0.9-0.1-0.9-0.6c-0.1-1.9-0.9-3.8-1.8-5.9c-1.4-3.3-3.2-7.4-3.1-13.6c-1.2-1-2.8-2-4.3-2.9
			c-2.7-1.7-5.4-3.3-5.6-4.9l0,0l0,0l0,0l0,0c-0.5-4.5,0.4-8.6,1.8-12.3s3.3-6.9,5.1-9.7c0.2-2.6,1.7-6,2.7-8c0.2-0.4,0.4-0.7,0.6-1
			s0.3-0.5,0.4-0.6l0,0l0,0l0,0c0.8-0.7,4-0.2,6.3,0.8c0.4,0.2,0.9,0.4,1.2,0.6c0.3,0.2,0.6,0.4,0.8,0.6
			C39.7,38,41.5,37.9,43.2,37.9L43.2,37.9L43.2,37.9z"/>
		<path class="st1" d="M48.2,38.4c-1.6-0.2-3.3-0.2-5.1-0.2c-1.7,0-3.5,0.2-5.3,0.3c0,0,0,0-0.1,0c-1,0.3-1.9,0.6-2.5,0.9
			c-0.7,0.3-1.2,0.5-1.6,0.9l-0.2-0.2c0.4-0.3,0.9-0.6,1.7-0.9c0.6-0.3,1.4-0.5,2.4-0.8c-0.2-0.1-0.4-0.3-0.6-0.4
			c-0.3-0.2-0.7-0.4-1.2-0.6c-2.2-0.9-5.2-1.5-5.9-0.9l0,0l0,0l0,0l0,0c-0.1,0.1-0.2,0.3-0.4,0.5c-0.2,0.3-0.4,0.6-0.6,0.9
			c-1,1.8-2.3,4.8-2.6,7.3c0.3-0.4,0.6-0.8,1-1.1c0.6-0.5,1.3-1.1,2.1-1.6l0.2,0.3c-0.8,0.5-1.5,1.1-2,1.6s-1,1-1.3,1.5V46l0,0
			c-1.7,2.7-3.6,6-5,9.7s-2.2,7.8-1.7,12.2l0,0l0,0c0.2,1.4,2.7,3,5.4,4.7c1.6,1,3.2,2,4.4,3l0,0l0,0c1.7,1.1,3.7,2.1,5.6,2.8
			c1.9,0.7,4,1.2,6,1.5c10.7,1.6,22.3-1.8,28-8.7c0.1-0.1,0.2-0.1,0.2,0c0.1,0.1,0.1,0.2,0,0.2c-5.8,7-17.6,10.5-28.3,8.9
			c-2.1-0.3-4.1-0.8-6.1-1.5c-1.9-0.7-3.8-1.6-5.4-2.7c-0.1,5.9,1.6,9.9,3.1,13.2c0.9,2.2,1.8,4.1,1.8,6.1c0,0.2,0.2,0.3,0.5,0.2
			c0.6,0,1.5-0.3,2.1-0.5l0,0L37,95l0,0c0.3,0,0.5,0,0.7,0l0,0l0,0c0.2,0.1,0.4,0.1,0.7,0.2c0,0,0.1,0,0.1,0.1l0,0l0,0l0,0l0,0
			c0.1,0.1,0.1,0.2,0.2,0.4s0.1,0.3,0.2,0.3c0.5-0.1,1-0.4,1.5-0.7c0.3-0.2,0.5-0.3,0.8-0.5h0.1c0.9,0.1,1.9-0.6,3-2
			c1.2-1.5,2.4-3.7,3.8-6.6c-1.2-0.4-2.3-1-3.1-1.6c-0.9-0.6-1.7-1.4-2.4-2.2c-0.1-0.1-0.1-0.2,0-0.2c0.1-0.1,0.2-0.1,0.2,0
			c0.7,0.8,1.4,1.5,2.3,2.1s2,1.2,3.2,1.6c1.4,0.5,2.7,0.7,4,1l0.2,0.1l0,0l0,0c0.9,0.3,1.7,0.6,2.6,0.7s2,0,3,0
			c0.4-1.6,0.8-3,1.3-4.3c0.9-2.4,1.9-4.2,3-5.5c0.1-0.1,0.2-0.1,0.2,0s0.1,0.2,0,0.2c-1.1,1.3-2.1,3.1-3,5.4s-1.6,5.2-2.3,8.6l0,0
			c-0.1,0.6-0.2,1.1-0.2,1.5s0,0.8,0.1,1.2c0,0.1,0,0.1,0,0.1l0,0l0,0l0,0l0,0c-0.1,0.1-0.1,0.2-0.1,0.3C57,95.3,57,95.4,57,95.5
			c-0.2,0.5-0.3,0.9-0.2,1l0,0c0,0,0,0,0.1,0l0,0c0,0,0.1,0,0.2,0c0.4,0,1-0.2,1.5-0.3c0.1,0,0.1,0,0.1,0c0.3,0.1,0.6,0.2,0.8,0.3
			c0.3,0.1,0.5,0.1,0.8,0.2c0.1,0,0.2,0.1,0.2,0.2l0,0l0,0c-0.1,0.6,0,0.9,0.4,0.9c0.5,0,1.3-0.2,2.3-0.7h0.1l0,0c0,0,0.1,0,0.2,0
			s0.1,0,0.2,0c0.3,0,0.6,0,0.9-0.1c0.1,0,0.2,0,0.2,0.1l0,0c0.2,0.3,0.4,0.5,0.6,0.6c0.1,0.1,0.2,0.1,0.3,0.1
			c0.1,0,0.2-0.1,0.3-0.1c0.3-0.2,0.5-0.5,0.8-1c0-0.1,0.1-0.1,0.1-0.1c1.3-0.2,2.6-0.9,3.9-2s2.6-2.7,4-4.7l0,0l0,0l0,0l0,0l0,0
			l0,0c1.2-1.4,2.1-3.2,2.7-5.4c0.1-0.4,0.2-0.8,0.3-1.2c0.6-2.6,0.8-5.7,0.8-9.1c0-0.1,0.1-0.2,0.2-0.2s0.2,0.1,0.2,0.2
			c0,2.6-0.1,5-0.5,7.2c1-2.3,2.6-4.7,4.9-7c0.1-0.1,0.2-0.1,0.2,0s0.1,0.2,0,0.2c-2.6,2.7-4.3,5.3-5.3,7.9
			c-0.1,0.3-0.2,0.6-0.3,0.9c0,0.1-0.1,0.2-0.1,0.3c-0.1,0.3-0.2,0.6-0.2,0.9c-0.4,1.8-0.3,3.6,0,5.4c0.3,0.7,0.7,1.3,1.1,1.9
			s0.8,1.1,1.2,1.6c0,0,0.1,0.1,0,0.1l0,0l0,0c0,0.1,0,0.2,0,0.3s0,0.2,0,0.3c0,0.5,0.1,1,0.2,1.2l0,0c0,0,0,0,0.1,0l0,0l0,0
			c0.1,0,0.1,0,0.2,0c0.5,0.1,1.4-0.1,2-0.3c0,0,0,0,0.1,0c0.2,0,0.4-0.1,0.6-0.1s0.4,0,0.6,0.1c0.1,0,0.1,0.1,0.1,0.2l0,0
			c0.1,0.7,0.3,0.9,0.8,0.9c0.4,0,1-0.3,1.5-0.5l0,0l0.2-0.1l0,0c0.2-0.1,0.5-0.1,0.8-0.2c0.3,0,0.5-0.1,0.8-0.1
			c0.1,0,0.1,0.1,0.2,0.1l0,0c0.3,0.7,0.5,1,0.8,1s0.7-0.4,1.1-1l0.1-0.1l0,0l0,0l0,0c0.6-0.1,1.1-0.4,1.6-0.7s0.9-0.7,1.3-1.2l0,0
			c2-2.4,2.9-6.5,3.1-10.2l0,0c0-0.6,0-1.1,0-1.7c0-0.5-0.1-1.1-0.2-1.7c-0.5-2.8-1.7-5.6-3.1-8.1l0,0l0,0l0,0l0,0l0,0l0,0
			c-2-4.8-8.3-9.3-13.7-13.1c-3.5-2.5-6.6-4.7-8-6.7c0.2,1.5,0.4,2.9,0.5,4.2c0.2,2.1,0.2,3.9,0,5.3c0,0.1-0.1,0.2-0.2,0.2
			s-0.2-0.1-0.2-0.2c0.2-1.3,0.2-3.1,0-5.2c-0.1-1.5-0.3-3.2-0.6-5c-0.1-0.2-0.2-0.4-0.2-0.7c-0.8-3.9-1.6-7-2.3-9.2
			c-0.7-2.2-1.3-3.5-1.9-3.9l0,0l0,0l0,0l0,0l0,0l0,0c-0.1-0.1-0.3-0.2-0.5-0.2l0,0c-0.2,0-0.5,0-0.8,0c-1.7,0.1-4.6,1.1-8.4,2.9
			h-0.1l0,0c-1.1-0.3-2.3-0.6-3.7-0.9c-1.4-0.3-2.9-0.5-4.6-0.7l0,0L48.2,38.4z M77.4,86.2c-0.5,1.4-1.2,2.6-2,3.5
			c0.3,0,0.7,0.1,1,0.1c0.4,0,0.8,0,1.2-0.1C77.4,88.5,77.3,87.4,77.4,86.2L77.4,86.2L77.4,86.2z M58.3,87.9c-0.9,0-2.1,0.1-2.9,0
			s-1.6-0.4-2.4-0.7c0.1,0.8,0.6,1.5,1.1,2.2l0,0c0.5,0.7,1,1.4,1.1,2.2c0.5-0.1,0.9-0.1,1.3-0.1s0.7,0.1,1,0.2
			C57.7,90.4,58,89.1,58.3,87.9L58.3,87.9z"/>
		<path class="st2" d="M79.5,58.2c5.4,3.8,11.6,8.2,13.7,13.1c3.1-1.8,5.7-4.6,6.9-8.5c0.2-0.8,0.4-1.6,0.5-2.5s0.2-1.8,0.1-2.8l0,0
			c-0.2-5.9-2.9-10.8-5.4-15.1c-3.2-5.8-5.9-10.6-1.6-15.7c-0.5,0-1.1,0-1.6,0.1c-0.6,0.1-1.2,0.3-1.8,0.5
			c-3.1,5.9-1.1,11.1,0.8,16.3c1.4,3.8,2.8,7.5,2.3,11.5h-0.3c0.5-3.9-0.9-7.6-2.3-11.3c-2-5.3-4-10.6-0.8-16.6v-0.1
			c0.3-0.7,0.5-1.4,0.6-2.1c0.1-0.6,0.2-1.3,0.2-1.9c-0.9,0.1-1.7,0.3-2.4,0.7c-0.7,0.4-1.4,0.9-1.8,1.7l0,0c0,0,0,0-0.1,0.1
			c-0.8,1.6-1.7,2.7-2.8,3.5c-1.1,0.8-2.3,1.2-3.6,1.5L80,30.3c1.2-0.3,2.4-0.7,3.5-1.5c1-0.7,2-1.8,2.7-3.4
			c-0.2-0.8-0.5-1.6-0.9-2.1s-0.8-0.8-1.4-0.9c-0.7,2.2-2.2,3.6-4.7,4.5s-5.8,1.2-10.1,1.1c-8.2-0.2-14.4,1.7-18,5.3
			c-0.7,0.7-1.3,1.5-1.8,2.3s-0.8,1.6-1.1,2.5c1.6,0.2,3.1,0.4,4.4,0.7c1.4,0.3,2.6,0.5,3.7,0.9c3-1.4,5.3-2.3,7.1-2.7
			c1.1-3.8,5.5-4.4,9.6-5.1c1-0.2,1.9-0.3,2.8-0.5l0.1,0.3C75,31.9,74,32,73.1,32.2c-3.9,0.6-8.1,1.2-9.3,4.7
			c0.4-0.1,0.8-0.1,1.1-0.2c0.3,0,0.7,0,0.9,0l0,0c0.3,0,0.5,0.1,0.7,0.2l0,0l0,0l0,0c0.7,0.5,1.4,1.8,2.1,4.1
			c0.7,2.2,1.4,5.3,2.3,9.3C71.4,52.4,75.1,55.1,79.5,58.2L79.5,58.2L79.5,58.2z"/>
		<path class="st3" d="M51.1,33.5c0.7,2,1.8,3.9,3.6,5.6c0.7,0.2,1.3,0.3,1.9,0.5c3-1.4,5.3-2.3,7.1-2.7c1.1-3.8,5.5-4.4,9.6-5.1
			c1-0.2,1.9-0.3,2.8-0.5l0.1,0.3c-0.9,0.2-1.9,0.3-2.8,0.5c-3.9,0.6-8.1,1.2-9.3,4.7c0.4-0.1,0.8-0.1,1.1-0.2c0.3,0,0.7,0,0.9,0
			l0,0c0.3,0,0.5,0.1,0.7,0.2l0,0l0,0l0,0c0.7,0.5,1.4,1.8,2.1,4.1c0.4,1.2,0.8,2.7,1.2,4.4c9.4,0.3,15.7-4.2,18.7-10.2
			c-0.2-2.6,0.1-5.2,1.6-8V27c0.2-0.4,0.3-0.9,0.4-1.4c0-0.9-0.1-1.7-0.2-2.6c-0.7,0.1-1.3,0.3-1.8,0.6c-0.7,0.4-1.4,0.9-1.8,1.7
			l0,0c0,0,0,0-0.1,0.1c-0.8,1.6-1.7,2.7-2.8,3.5c-1.1,0.8-2.3,1.2-3.6,1.5l-0.1-0.3c1.2-0.3,2.4-0.7,3.5-1.5c1-0.7,2-1.8,2.7-3.4
			c-0.2-0.8-0.5-1.6-0.9-2.1s-0.8-0.8-1.4-0.9c-0.7,2.2-2.2,3.6-4.7,4.5s-5.8,1.2-10.1,1.1c-8.2-0.2-14.4,1.7-18,5.3
			C51.2,33.3,51.1,33.4,51.1,33.5L51.1,33.5L51.1,33.5z M88.8,34.6c1-2.3,1.6-4.8,1.8-7.4c-0.1,0-0.1,0.1-0.2,0.1
			C89.1,29.8,88.7,32.3,88.8,34.6L88.8,34.6L88.8,34.6z"/>
		<path class="st4" d="M36.2,46.9c0,1.2,3.3,3.3,4.3,3.6c0.8,0.2,11.5-6.9,9.2-8C47.7,41.4,36.1,44.9,36.2,46.9L36.2,46.9z"/>
		<path class="st4" d="M41.6,54.5c1.2,0.5,0.8,6.8-0.4,6.9c-0.8,0-3.8-2.4-4.1-3.1C36.6,57.6,40.5,54.1,41.6,54.5L41.6,54.5z"/>
		<path class="st4" d="M33.9,49.8c-2.3,0-3.1,4.1-1.3,4.1c0.6,0,1.5-0.2,1.6-0.8C34.4,51.7,34.6,49.8,33.9,49.8L33.9,49.8z"/>
		<path class="st4" d="M77.4,57.1c-1.1,0.5-2.8,1.7-2.8,2.1c0,0.7,3.9,7.8,4.8,8.6c1,0.8,6.5,0.9,7.1,0.3c0.5-0.5,0-2.7,0-4.2
			c-2.3-1.9-4.8-3.7-7.1-5.4C78.7,58,78,57.5,77.4,57.1L77.4,57.1z"/>
		<path class="st4" d="M87.8,76.3c-1.4-0.6-6.8,3.3-6.5,4.7c0.2,1.2,2.7,4.1,4.8,5.2c0.8,0.4,2.4-0.3,2.5-1.2
			C89.2,82.1,89.2,76.9,87.8,76.3L87.8,76.3z"/>
		<path class="st4" d="M68.7,79c-0.7-0.2-2.4,1.2-2.4,1.7c0,0.8,1.6,2.4,2.2,2.3c0.5-0.1,1.5-0.3,1.5-0.8
			C70.1,81.1,69.3,79.1,68.7,79L68.7,79L68.7,79z"/>
		<path class="st4" d="M30.6,84.9c2.8-2,2.9-4.4,5.1-4c1.6,0.3,1.8,3.1,1.6,4.8c-0.1,1.2-1.1,2.4-2.2,3c-0.9,0.5-2,0-3,0
			C31.6,87.5,31.1,86.2,30.6,84.9L30.6,84.9L30.6,84.9z"/>
		<path class="st0" d="M47.8,57.6c0,0-0.1,0.1-0.2,0.1s-0.1-0.1-0.1-0.2l0,0c0-0.3,0.1-0.5,0.2-0.8s0.1-0.5,0.2-0.8
			c0.5-1.4,1.2-2.7,2.4-4c0.1-0.1,0.2-0.1,0.2,0c0.1,0.1,0.1,0.2,0,0.2c-1.1,1.2-1.9,2.5-2.3,3.8c-0.1,0.3-0.2,0.5-0.2,0.8
			C47.9,57.1,47.9,57.4,47.8,57.6L47.8,57.6L47.8,57.6L47.8,57.6L47.8,57.6z"/>
		<path class="st0" d="M29.3,52.4l0.1-0.2c0.1,0,0.2,0.1,0.2,0.1c0.2,1.5,0.2,3,0,4.5c0,0.1-0.1,0.1-0.2,0.1s-0.1-0.1-0.1-0.2
			C29.5,55.3,29.5,53.9,29.3,52.4L29.3,52.4L29.3,52.4z"/>
		<path class="st5" d="M50.1,66.6c0.3,0.8,12.8,0.3,13.3-1.7c1.3-4.6-2.5-13.7-5.9-13C52.9,52.9,48.3,61.4,50.1,66.6L50.1,66.6
			L50.1,66.6z"/>
		<path class="st5" d="M26.2,51c1.8,0.7,2.2,9.9,0.6,14.4c-0.3,0.8-5.8-1.3-5.9-2.7C20.6,58.2,24.2,50.3,26.2,51L26.2,51L26.2,51z"
			/>
		<path class="st6" d="M58,51.8c-3.4,4.7-4.7,9.7-1.3,15c3.2-0.3,6.5-0.9,6.8-1.9C64.8,60.5,61.3,51.9,58,51.8L58,51.8z"/>
		<path class="st6" d="M27.1,52.1c-3.6,3.5-4.3,7.9-2,13.3c0.9,0.3,1.6,0.3,1.8,0.1C28.2,61.7,28.1,54.8,27.1,52.1L27.1,52.1
			L27.1,52.1z"/>
		<path class="st5" d="M59,56c-1.6,0-1.6,7.2,0,7.2C61.1,63.2,61.3,56,59,56L59,56z"/>
		<path class="st5" d="M27.4,56.8c-1.5-0.1-1.5,5.7-0.5,5.8c0.2,0,0.4,0,0.6-0.1c0.3-1.8,0.4-3.8,0.3-5.7
			C27.7,56.9,27.6,56.8,27.4,56.8L27.4,56.8L27.4,56.8z"/>
		<path class="st7" d="M59.9,65.8c-1.6,0.4-3,0.4-3.7,0.2c-0.2-0.3-0.3-0.6-0.4-0.9c0.4-0.7,2-1.6,4-2c1.8-0.4,3.3-0.4,4-0.1
			c0,0.4,0,0.8-0.1,1.1C63,64.7,61.6,65.4,59.9,65.8L59.9,65.8L59.9,65.8z"/>
		<path class="st7" d="M57.8,54c-0.4-0.3-1,0-1.5,0.7c-0.4,0.8-0.8,1.6-1,2.5c-0.2,1.1,0,2.1,0.5,2.4c0.7,0.4,1.7-0.5,2.2-2
			S58.4,54.4,57.8,54L57.8,54L57.8,54z"/>
		<path class="st7" d="M26.3,62.7c-0.9,0.1-1.6,2.6-0.5,2.6C26.9,65.4,27.2,62.6,26.3,62.7L26.3,62.7z"/>
		<path class="st7" d="M26.4,54.9c-0.3-0.1-0.9,0.5-1.2,1.3c-0.3,0.9-0.3,1.7,0,1.8s0.9-0.5,1.2-1.3S26.7,55.1,26.4,54.9L26.4,54.9z
			"/>
		<path class="st8" d="M37.2,69.1c-0.6,0-1.3,1-0.8,1C37.2,70.1,37.8,69.1,37.2,69.1L37.2,69.1z"/>
		<path class="st8" d="M29.7,68.5c0.5,0,1.1,1,0.6,1C29.6,69.5,29.2,68.4,29.7,68.5L29.7,68.5z"/>
		<path class="st9" d="M61,69.8c0.7-0.4,1.3-0.7,1.9-1.2c-2.3,1.3-4.7,2.3-7.6,3c-3.3,0.9-7.2,1.3-12.2,1.4s-9.1-0.3-12.7-1.2
			c-2.9-0.8-5.4-2-7.9-3.6c0.8,0.7,1.7,1.2,2.5,1.6c0.5,0.3,1,0.6,1.4,0.9c3.1,2.1,5.7,3.8,8.4,4.9c2.6,1.2,5.3,1.8,8.5,1.9
			c5.9,0,9.1-2.2,13.1-4.8c1.1-0.7,2.2-1.5,3.4-2.3C60.2,70.3,60.6,70,61,69.8L61,69.8z"/>
		<path class="st0" d="M64,68c-0.8,1.1-1.8,1.6-2.9,2.2l0,0c-0.4,0.2-0.8,0.4-1.2,0.7c-1.2,0.8-2.4,1.5-3.4,2.2
			c-4,2.7-7.3,4.9-13.3,4.9c-3.2,0-5.9-0.7-8.6-1.9c-2.7-1.2-5.3-2.9-8.5-5c-0.4-0.3-0.9-0.6-1.4-0.9c-1.4-0.8-2.9-1.7-4.1-3.2
			c-0.1-0.1-0.1-0.2,0-0.2c0.1-0.1,0.2-0.1,0.2,0l0,0c2.9,2.3,5.9,3.8,9.5,4.8s7.6,1.3,12.6,1.2c4.9-0.1,8.8-0.6,12.1-1.4
			s6-2.1,8.6-3.6c0.1-0.1,0.2,0,0.2,0.1C64,67.8,64,67.9,64,68L64,68L64,68z M61,69.8c0.7-0.4,1.3-0.7,1.9-1.2
			c-2.3,1.3-4.7,2.3-7.6,3c-3.3,0.9-7.2,1.3-12.2,1.4s-9.1-0.3-12.7-1.2c-2.9-0.8-5.4-2-7.9-3.6c0.8,0.7,1.7,1.2,2.5,1.6
			c0.5,0.3,1,0.6,1.4,0.9c3.1,2.1,5.7,3.8,8.4,4.9c2.6,1.2,5.3,1.8,8.5,1.9c5.9,0,9.1-2.2,13.1-4.8c1.1-0.7,2.2-1.5,3.4-2.3
			C60.2,70.3,60.6,70,61,69.8L61,69.8z"/>
		<path class="st10" d="M55.7,71.6c0.1,0.7,0.5,1.2,1,1.4c0.2,0.1,0.4,0.1,0.6,0c0.4-0.1,0.7-0.4,0.9-1c0.1-0.3,0.1-0.7,0-1.2
			C57.4,71.1,56.6,71.3,55.7,71.6L55.7,71.6L55.7,71.6z"/>
		<path class="st11" d="M33.9,75.4c2.4-1.2,5.5-1.9,9-1.9s6.8,0.8,9.2,2c-2.5,1.3-5.1,2.2-8.8,2.2c-3.1,0-5.8-0.7-8.5-1.9
			C34.5,75.6,34.2,75.5,33.9,75.4L33.9,75.4L33.9,75.4z"/>
		<path class="st5" d="M28.6,71.3c0,0.7,0.1,1.4,0.4,1.5l0,0c0.5,0.3,1.4-0.3,1.4-1l0,0C29.8,71.7,29.1,71.5,28.6,71.3L28.6,71.3z"
			/>
		<path class="st4" d="M59.4,85.3c2.1-0.6,6.1-4.5,6-2.3c-0.3,7-3.3,9.3-4.7,9.3c-1,0-1.6-1.3-2.5-2C58.5,88.5,58.9,86.8,59.4,85.3
			L59.4,85.3z"/>
	</g>
</g>
</svg>
