<?xml version="1.0" encoding="utf-8"?>
<!-- Generator: Adobe Illustrator 27.0.0, SVG Export Plug-In . SVG Version: 6.00 Build 0)  -->
<svg version="1.1" id="Capa_1" xmlns="http://www.w3.org/2000/svg" xmlns:xlink="http://www.w3.org/1999/xlink" x="0px" y="0px"
	 viewBox="0 0 177.3 169.9" style="enable-background:new 0 0 177.3 169.9;" xml:space="preserve">
<style type="text/css">
	.st0{fill:#36393B;}
	.st1{fill:#51BF00;}
	.st2{fill:#168F00;}
	.st3{fill:#FD0001;}
	.st4{fill:#D3E3E9;}
	.st5{fill:#FC8488;}
	.st6{fill:#FAFBFB;}
	.st7{fill:#FBFBFB;}
	.st8{fill:#D2E1E7;}
	.st9{fill:#9EB7BD;}
	.st10{fill:#FDA600;}
</style>
<g id="CkKXrR.tif_00000141433804412863666580000015447835402812692882_">
	<g>
		<path class="st0" d="M49.8,156.5c-0.2-0.6-0.8-0.4-1.2-0.5c-6.3-1.6-9.9-7.2-8.8-13.6c2-11.9,4.1-23.7,6.2-35.6
			c0.2-0.8-0.1-1.3-0.6-1.8c-8.5-8.3-17.1-16.6-25.6-24.9c-3.4-3.3-4.8-7.2-3.5-11.8c1.1-4.2,3.9-7,8.1-8c3.4-0.8,6.9-1.1,10.4-1.7
			c9.1-1.3,18.2-2.7,27.3-4c0.8-0.1,1-0.6,1.3-1.1c5.2-10.5,10.4-20.9,15.5-31.4c2.3-4.7,5.7-7.7,11.1-7.7c4.5,0,7.9,2.1,10,6
			c3.1,5.9,6,11.9,8.9,17.9c2.5,5.1,5,10.1,7.5,15.2c0.3,0.7,0.7,0.9,1.5,1c11.9,1.7,23.8,3.5,35.8,5.2c5.6,0.8,9.3,4.6,10.2,10.1
			c0,0.2,0,0.5,0.3,0.6v1.8c-0.2,0.1-0.3,0.2-0.3,0.4c-0.4,3.1-2.1,5.5-4.3,7.7c-8.2,7.9-16.3,15.9-24.5,23.8c-1.1,1-1.4,2-1.1,3.5
			c2,11.5,4,23,6,34.5c1.1,6.6-2.6,12.2-8.9,13.7c-0.6,0.1-1.3-0.2-1.8,0.4h-2.1c-1.6-0.8-3.3-1.2-4.8-2
			c-10.3-5.4-20.6-10.8-30.8-16.2c-1.1-0.6-1.9-0.6-2.9,0c-2.7,1.5-5.4,2.9-8.1,4.3c-9.4,4.5-18.2,10.5-28.2,14L49.8,156.5
			L49.8,156.5z M85,96.2c2.9,2.8,7.2,2.7,9.7-0.3c2.5-2.9,2.2-7.1-0.7-9.5c-2.6-2.4-6.5-2.3-9.1,0.3C82.3,89.4,82.4,93.4,85,96.2
			L85,96.2z M69.5,79.5c-0.3,0-0.4,0.2-0.3,0.5c-2,2.6-2.6,5.7-3,8.8c-0.1,1,0.6,0.9,1.2,0.9c3.8,0,7.6,0,11.3,0
			c1,0,1.4-0.4,1.5-1.2c0.2-1,0.7-1.9,1.3-2.7c2.4-3.2,5.6-4.8,9.6-4.3c4.1,0.6,7,3,8.3,7c0.2,0.6,0.2,1.3,1.2,1.2c4-0.1,8,0,12,0
			c0.8,0,1-0.3,0.9-1c-0.5-3.4-1.2-6.8-3.6-9.5c0-0.7-0.4-1.2-0.8-1.8c-9-12.6-28.1-13.1-37.7-0.9C70.5,77.3,69.5,78.2,69.5,79.5
			L69.5,79.5L69.5,79.5z M69.6,104c0.1,0.3,0.3,0.6,0.4,0.8c5.2,7.1,12.1,10.8,21,10.3c8.1-0.4,14.3-4.2,18.8-11
			c2-3,3.1-6.3,3.5-9.8c0.1-0.8,0-1.2-1-1.2c-3.9,0-7.8,0-11.6,0c-0.6,0-1.1,0.1-1.2,0.8c-0.5,2.4-2,4.2-3.7,5.8
			c-4.1,2.5-8.2,2.5-12.3-0.1c-1.7-1.5-3-3.3-3.6-5.6c-0.2-0.8-0.6-0.9-1.3-0.9c-3.8,0-7.7,0-11.5,0c-0.9,0-1.2,0.3-1.1,1.1
			C66.6,97.7,67.6,101.1,69.6,104L69.6,104z M89.7,64.1c0.7,0.1,1.3,0.1,2,0.2c15.3,1.2,26.4,14.5,25.1,29.2
			c-1.2,13.2-10.9,23.3-24,24.9c-1.2,0.1-1.4,0.4-1.4,1.5c0.1,4.4,0,8.9,0,13.3c0,0.9,0.2,1.4,1,1.8c10.6,5.6,21.2,11.2,31.9,16.7
			c3,1.6,6,1.5,8.8-0.5c2.8-2,3.7-5,3.1-8.3c-2.1-12.2-4.2-24.4-6.3-36.6c-0.2-1.2,0.1-2.1,1-3c2.9-2.7,5.7-5.6,8.6-8.3
			c6.1-5.9,12.2-11.8,18.2-17.8c2.4-2.4,3.2-5.2,2.2-8.4c-1-3.2-3.4-5-6.7-5.5c-1.1-0.2-2.2-0.3-3.3-0.4
			c-11.2-1.6-22.3-3.2-33.5-4.8c-1.3-0.2-2.2-0.7-2.8-2c-3.3-6.8-6.7-13.6-10.1-20.5c-2.1-4.2-4.1-8.4-6.2-12.6c-1.6-3.1-4-5-7.6-5
			c-0.1,0-0.2,0-0.3,0c-0.4-0.1-0.7-0.1-1,0.2c-2.9,0.4-4.8,2.1-6,4.6c-5.4,11-10.9,22-16.2,33c-0.8,1.6-1.8,2.3-3.5,2.4
			c-1.7,0.1-3.3,0.4-5,0.7c-8.9,1.3-17.9,2.6-26.8,3.9c-2.2,0.3-4.5,0.4-6.6,1.2c-5.5,2.2-6.7,9.1-2.4,13.4
			c8.8,8.7,17.7,17.3,26.6,25.9c1.1,1,1.3,2.1,1.1,3.4c-2.1,12.1-4.1,24.1-6.2,36.2c-0.6,3.4,0.2,6.3,3,8.4c2.8,2.1,5.9,2.2,8.9,0.5
			c10.6-5.5,21.1-11.1,31.7-16.6c0.9-0.5,1.2-1,1.2-2c-0.1-3.6,0-7.2,0-10.7c0-1.2,0.5-2.8-0.2-3.6c-0.6-0.7-2.2-0.5-3.3-0.7
			c-0.1,0-0.1,0-0.2,0c-13.4-2.8-22.7-15-21.8-28.4c0.4-6.1,2.5-11.4,6.5-16C74.5,67.4,81.5,64.4,89.7,64.1L89.7,64.1z"/>
		<path class="st1" d="M89.4,17.9c0.1,0,0.2,0,0.3,0c0,15.4,0,30.8,0,46.2c-8.2,0.4-15.2,3.3-20.6,9.6c-3.9,4.6-6.1,9.9-6.5,16
			c-0.9,13.4,8.3,25.6,21.8,28.4c0.1,0,0.1,0,0.2,0c1.1,0.2,2.7,0,3.3,0.7c0.7,0.8,0.2,2.3,0.2,3.6c0,3.6,0,7.2,0,10.7
			c0,1-0.3,1.5-1.2,2c-10.6,5.5-21.1,11.1-31.7,16.6c-3.1,1.6-6.1,1.5-8.9-0.5c-2.8-2.1-3.6-5-3-8.4c2.1-12,4.1-24.1,6.2-36.2
			c0.2-1.3,0-2.4-1.1-3.4C39.5,94.6,30.6,86,21.8,77.3c-4.4-4.3-3.1-11.3,2.4-13.4c2.1-0.8,4.4-0.9,6.6-1.2
			c8.9-1.3,17.9-2.6,26.8-3.9c1.7-0.2,3.3-0.6,5-0.7c1.7-0.1,2.8-0.8,3.5-2.4c5.4-11,10.8-22,16.2-33c1.3-2.5,3.2-4.2,6-4.6
			C88.7,18.2,89.1,18.2,89.4,17.9L89.4,17.9z"/>
		<path class="st2" d="M89.7,64.1c0-15.4,0-30.8,0-46.2c3.6,0,6,1.9,7.6,5c2.1,4.2,4.2,8.4,6.2,12.6c3.4,6.8,6.7,13.6,10.1,20.5
			c0.6,1.3,1.5,1.8,2.8,2c11.2,1.6,22.3,3.2,33.5,4.8c1.1,0.2,2.2,0.2,3.3,0.4c3.3,0.6,5.7,2.3,6.7,5.5c1,3.2,0.2,6.1-2.2,8.4
			c-6.1,5.9-12.2,11.8-18.2,17.8c-2.9,2.8-5.7,5.6-8.6,8.3c-0.9,0.9-1.2,1.8-1,3c2.1,12.2,4.3,24.4,6.3,36.6
			c0.6,3.3-0.3,6.2-3.1,8.3c-2.8,2-5.8,2.1-8.8,0.5c-10.6-5.6-21.2-11.2-31.9-16.7c-0.8-0.4-1-0.9-1-1.8c0-4.4,0.1-8.9,0-13.3
			c0-1.1,0.3-1.4,1.4-1.5c13.1-1.6,22.8-11.7,24-24.9c1.3-14.7-9.8-28-25.1-29.2C91.1,64.2,90.4,64.2,89.7,64.1L89.7,64.1z"/>
		<path class="st3" d="M109.7,79.1c2.4,2.7,3.1,6.1,3.6,9.5c0.1,0.8-0.1,1-0.9,1c-4,0-8-0.1-12,0c-1,0-1-0.7-1.2-1.2
			c-1.4-4-4.2-6.4-8.3-7c-4-0.6-7.2,1-9.6,4.3c-0.6,0.8-1.1,1.7-1.3,2.7c-0.2,0.8-0.6,1.2-1.5,1.2c-3.8-0.1-7.6,0-11.3,0
			c-0.6,0-1.3,0.2-1.2-0.9c0.4-3.1,1.1-6.2,3-8.8c0.1-0.2,0.2-0.3,0.3-0.5l0,0c9.8-8.3,20.7-9.4,32.4-5.2
			C104.8,75.4,107.3,77.3,109.7,79.1L109.7,79.1z"/>
		<path class="st4" d="M95.8,99.7c1.8-1.6,3.2-3.4,3.7-5.8c0.2-0.7,0.6-0.8,1.2-0.8c3.9,0,7.8,0,11.6,0c0.9,0,1.1,0.4,1,1.2
			c-0.5,3.5-1.6,6.8-3.5,9.8c-0.6-0.1-1,0.2-1.4,0.5c-4.4,3.8-9.7,5.7-15.3,6.1c-8.1,0.7-15.7-0.8-22.2-6.3
			c-0.4-0.3-0.8-0.4-1.3-0.4c-2-3-3-6.3-3.5-9.8c-0.1-0.9,0.2-1.1,1.1-1.1c3.8,0,7.7,0,11.5,0c0.7,0,1.1,0.1,1.3,0.9
			c0.6,2.2,1.8,4.1,3.6,5.6c0,0.4,0.1,0.7,0.4,0.9c2.6,2.5,7,3,10,1C94.7,101.1,95.7,100.8,95.8,99.7L95.8,99.7z"/>
		<path class="st5" d="M109.7,79.1c-2.5-1.8-4.9-3.8-7.9-4.9c-11.8-4.2-22.7-3.1-32.4,5.2c0.1-1.3,1.1-2.2,1.8-3.1
			c9.6-12.1,28.7-11.6,37.7,0.9C109.3,77.9,109.7,78.4,109.7,79.1L109.7,79.1z"/>
		<path class="st6" d="M69.7,104c0.5,0,0.9,0.1,1.3,0.4c6.4,5.5,14.1,7,22.2,6.3c5.7-0.5,10.9-2.4,15.3-6.1c0.4-0.3,0.9-0.6,1.4-0.5
			c-4.4,6.8-10.6,10.6-18.8,11c-8.9,0.5-15.8-3.2-21-10.3C69.9,104.6,69.8,104.3,69.7,104z"/>
		<path class="st7" d="M94,86.5c2.9,2.4,3.3,6.5,0.7,9.5c-2.5,2.9-6.9,3-9.7,0.3c2.5-2.9,5.3-5.4,7.9-8.1
			C93.4,87.6,94.1,87.2,94,86.5z"/>
		<path class="st8" d="M94,86.5c0,0.8-0.6,1.1-1.1,1.6c-2.6,2.7-5.5,5.2-7.9,8.1c-2.7-2.8-2.7-6.7-0.1-9.4
			C87.5,84.2,91.5,84.1,94,86.5L94,86.5z"/>
		<path class="st9" d="M95.8,99.7c-0.1,1.1-1.1,1.4-1.8,1.8c-3.1,1.9-7.4,1.4-10-1c-0.3-0.3-0.4-0.6-0.4-0.9
			C87.6,102.2,91.7,102.2,95.8,99.7L95.8,99.7z"/>
		<path class="st10" d="M89.4,17.9c-0.3,0.3-0.7,0.2-1,0.2C88.7,17.8,89,17.9,89.4,17.9z"/>
		<path class="st5" d="M69.5,79.5c-0.1,0.2-0.2,0.3-0.3,0.5C69.1,79.7,69.1,79.5,69.5,79.5z"/>
	</g>
</g>
</svg>
