<?xml version="1.0" encoding="utf-8"?>
<!-- Generator: Adobe Illustrator 27.0.0, SVG Export Plug-In . SVG Version: 6.00 Build 0)  -->
<svg version="1.1" id="Capa_1" xmlns="http://www.w3.org/2000/svg" xmlns:xlink="http://www.w3.org/1999/xlink" x="0px" y="0px"
	 viewBox="0 0 167.2 167.2" style="enable-background:new 0 0 167.2 167.2;" xml:space="preserve">
<style type="text/css">
	.st0{fill:#FDFCFC;}
	.st1{fill:#FDFBFA;}
	.st2{fill:#FE0101;}
</style>
<g>
	<g>
		<path class="st0" d="M54.9,85.5c-4.2,0-8.4,0-12.5,0c-0.5,0-0.8,0-0.8,0.7c0.2,1.9,0.4,3.9,0.8,5.8c4.4,21.4,25.2,36.2,46.9,33.1
			c20.3-2.9,34.5-18.5,36.4-38.8c0.1-0.6-0.1-0.8-0.7-0.8c-8.2,0-16.5,0-24.7,0c-0.6,0-0.8,0.2-0.9,0.8c-0.6,3.6-2.3,6.5-5,8.9
			c-4.6,3.9-9.8,5.2-15.5,3.1c-5.7-2-9.3-6-10.4-12c-0.1-0.7-0.4-0.7-0.9-0.7C63.2,85.5,59,85.5,54.9,85.5z"/>
		<g>
			<path class="st0" d="M112,78.7c-4.1,0-8.2,0-12.3,0c-0.6,0-0.9-0.2-1.1-0.8c-2.3-6.1-8.4-10.2-14.9-10.2C77.2,67.8,71.3,72,69,78
				c-0.2,0.6-0.6,0.7-1.2,0.7c-8.4,0-16.7,0-25.1,0c-0.9,0-1-0.3-0.9-1.1c2.7-16.7,12.2-27.9,28-33.6c22.3-8.1,44.3,4.7,52.3,22.7
				c1.6,3.6,2.6,7.4,3.1,11.3c0.1,0.8-0.3,0.7-0.8,0.7C120.3,78.7,116.1,78.7,112,78.7z"/>
			<path class="st1" d="M83.8,93.3c-5.4,0-9.8-4.3-9.8-9.8c0-5.5,4.4-9.9,9.8-9.9c5.4,0,9.8,4.4,9.8,9.8
				C93.6,89,89.2,93.3,83.8,93.3z"/>
			<g>
				<path class="st2" d="M83.7,20.8c34.6-0.1,63,28.1,62.8,63c-0.1,17.2-6.3,32.1-18.4,44.2c-12.8,12.7-28.4,18.8-46.4,18.4
					c-32.6-0.7-62-27.9-60.9-64.9C21.6,48.7,48.7,20.7,83.7,20.8z M112,78.7c4.2,0,8.4,0,12.5,0c0.5,0,0.9,0,0.8-0.7
					c-0.5-3.9-1.5-7.7-3.1-11.3c-7.9-18-29.9-30.8-52.3-22.7c-15.8,5.7-25.3,16.9-28,33.6c-0.1,0.8,0,1.1,0.9,1.1
					c8.4,0,16.7,0,25.1,0c0.6,0,0.9-0.1,1.2-0.7c2.2-6,8.2-10.1,14.6-10.2c6.5,0,12.6,4.1,14.9,10.2c0.2,0.6,0.5,0.8,1.1,0.8
					C103.7,78.7,107.8,78.7,112,78.7z M54.9,85.6c-4.2,0-8.4,0-12.5,0c-0.5,0-0.8,0-0.8,0.7c0.2,1.9,0.4,3.9,0.8,5.8
					c4.4,21.4,25.2,36.2,46.9,33.1c20.3-2.9,34.5-18.5,36.4-38.8c0.1-0.6-0.1-0.8-0.7-0.8c-8.2,0-16.5,0-24.7,0
					c-0.6,0-0.8,0.2-0.9,0.8c-0.6,3.6-2.3,6.5-5,8.9c-4.6,3.9-9.8,5.2-15.5,3.1c-5.7-2-9.3-6-10.4-12c-0.1-0.7-0.4-0.7-0.9-0.7
					C63.2,85.6,59,85.6,54.9,85.6z M83.8,93.3c5.4,0,9.8-4.4,9.8-9.8c0-5.4-4.4-9.8-9.8-9.8c-5.5,0-9.9,4.4-9.8,9.9
					C74,89,78.3,93.4,83.8,93.3z"/>
				<path class="st2" d="M55.3,89c3.1,0,6.1,0,9.2,0c0.6,0,0.9,0.2,1.1,0.8c2.9,7.9,10.8,13.3,19,12.9c7.8-0.4,14.7-5.6,17.3-12.9
					c0.2-0.6,0.6-0.8,1.2-0.8c5.9,0,11.8,0,17.6,0c1.1,0,1.1,0,0.9,1.1c-3.6,16.2-13.1,26.9-29.3,31c-12,3.1-22.9,0-32.5-7.4
					c-7.7-5.9-12.4-13.7-14.2-23.3c0-0.1,0-0.3-0.1-0.4c-0.2-0.7,0.1-0.9,0.8-0.9C49.3,89,52.3,89,55.3,89z"/>
			</g>
		</g>
	</g>
</g>
</svg>
