<?xml version="1.0" encoding="utf-8"?>
<!-- Generator: Adobe Illustrator 27.0.0, SVG Export Plug-In . SVG Version: 6.00 Build 0)  -->
<svg version="1.1" id="Capa_1" xmlns="http://www.w3.org/2000/svg" xmlns:xlink="http://www.w3.org/1999/xlink" x="0px" y="0px"
	 viewBox="0 0 158 158" style="enable-background:new 0 0 158 158;" xml:space="preserve">
<style type="text/css">
	.st0{clip-path:url(#SVGID_00000170248076281381733300000004228440271172124571_);}
	.st1{fill:#010101;}
	.st2{fill:#FEFEFE;}
	.st3{fill:#FE0027;}
	.st4{fill:#FE002F;}
	.st5{fill:#FD002F;}
	.st6{fill:#0A0004;}
	.st7{fill:#0A0002;}
	.st8{fill:#0D0003;}
	.st9{fill:#505050;}
	.st10{fill:#130205;}
	.st11{fill:#FA002D;}
</style>
<g>
	<defs>
		<circle id="SVGID_1_" cx="79" cy="79" r="68.6"/>
	</defs>
	<clipPath id="SVGID_00000058583216634094964530000010809350924989169300_">
		<use xlink:href="#SVGID_1_"  style="overflow:visible;"/>
	</clipPath>
	<g style="clip-path:url(#SVGID_00000058583216634094964530000010809350924989169300_);">
		<g id="xkpjE5">
			<g>
				<path class="st1" d="M-94.6,179.6c0-63.2,0-126.5-0.1-189.7c0-4,0.8-4.7,4.7-4.7c112.6,0.1,225.3,0.1,337.9,0
					c4,0,4.8,0.8,4.7,4.7c-0.2,61.7-0.2,123.4,0,185.1c0,4-0.8,4.7-4.7,4.7C133.8,179.6,19.6,179.6-94.6,179.6L-94.6,179.6z"/>
				<path class="st2" d="M52.4,135.5c1.8,0.6,4.5,1.1,2.6,3.5c-1.6,1.9-3,5.7-7.2,3.4c-13.4-7.3-23.9-17.4-30.9-30.9
					c-22-42.5,5.6-95.3,53-101.7c4.1-0.6,6.2-0.2,5.9,4.9c-0.5,8.4-0.2,16.9-0.1,25.4c0,2,0.2,3.8-2.8,3.6
					c-9.1-0.7-14.3,4.4-17.5,12.2c-1.5,3.7-3.8,4.8-7.8,4.9c-7.4,0.3-15,0.3-22.6,2.2c1.9,4.8,6.2,5.1,9.8,6.5
					c1.9,0.8,4.1,0.7,5.9,2c2.3,1.6,3.8,3.2,1,6c3.7,0.5,4.5-3.4,7.8-3.6c1.3,3.1-0.3,6.2-0.4,9.2c-0.1,4.1-2.6,5.6-6.2,6.4
					c-1.7,0.3-1,1.8-1,2.8c0.4,8.1,3.9,15.1,7.1,22.3c0.9,2,2.6,2.6,4.7,2.7c3.5,0.2,6.9,0.6,10.4,0.8c2.2,0.2,4.7-0.5,5.5,2.8
					c0.7,3.2-2.1,3.2-3.7,4.1c-5.2,2.9-10.5,5.6-15.7,8.4C49,136.3,52,134.5,52.4,135.5L52.4,135.5z"/>
				<path class="st3" d="M150.5,85.9c-1,16.4-7.9,30.1-19.1,41.9c-3.3-1.7-1.9,1.4-2.5,2.4l-0.2-0.3l0.2,0.2
					c-1.4,0.1-2.3,0.9-2.5,2.3c-0.9,0.9-1.8,2-2.8,2.8c-2.8,2-5.6,4.9-8.7,5.4c-4.4,0.8-3.8-4.7-6-7c-3.9-4-7.8-7.9-12.6-10.8
					c-0.7-0.7-0.7-1.5-0.2-2.3c2.8-1.8,5.4-2,7.6,1c1.1-1.3,0.6-2.6,0.4-4c-0.4-2.7,0.8-2.8,3-1.9c3.7,1.6,7.4,3,11.8,4.7
					c-1.4-4.8-2.6-8.9-3.8-13.1c-1.2-4.1,0.1-6.1,4-6.2c0-0.2,0.1-0.5,0.1-0.6c-8.8-6.1-8.4-13.8-4.3-22.4c3-6.2,0.9-11.4-3.2-16.5
					c-4.9-6.2-11.6-10.1-17.4-15.2c-0.5-0.5-1.4-1-2-0.9c-7.4,0.9-7.3-3.5-6.9-8.8c0.4-6.7,0.1-13.5,0.1-20.2c0-7.1,1.1-8.1,8.2-6.3
					c13.7,3.4,25.9,9.2,36.2,19.7c11.8,12,18.8,25.6,20.6,42.2C150,76.7,149.9,81.3,150.5,85.9L150.5,85.9z"/>
				<path class="st4" d="M129,130.2c-0.1-0.2-0.2-0.4-0.1-0.5c1.1-2.2-4.5-1.4-1.9-3.9c2.7-2.6,2.8,1.6,4.5,2.1
					C130.6,128.6,129.8,129.4,129,130.2L129,130.2z"/>
				<path class="st5" d="M126.6,132.5c-0.2-1.2-2.8-1.6-1.6-2.9c1.1-1.2,2.6,0.7,4,0.6C128.5,131.3,127.7,132,126.6,132.5
					L126.6,132.5z"/>
				<path class="st6" d="M108.5,12.4c2-0.7,3.9,0.1,3.9,0.8c-0.1,1.9-1.4,0.5-2.2,0.3C109.7,13.5,109.3,13,108.5,12.4z"/>
				<path class="st7" d="M112.4,67.9c-1.6-1.2-2.2-2.3-1.9-3.9C112.5,64.6,112.4,66,112.4,67.9z"/>
				<path class="st8" d="M112.3,98.7c-1.3-1.9-1.9-2.9-2.9-4.4C111.8,94.6,112.5,95.6,112.3,98.7z"/>
				<path class="st9" d="M52.4,135.5c-1.6,0.1-3.2,0.2-5,0.3c0.2-1.9,1.5-2,2.7-2.3C50.9,134.2,51.7,134.9,52.4,135.5L52.4,135.5z"
					/>
				<path class="st6" d="M98.4,52.4c0.5,0.4,1.3,0.7,1.6,1.2c0.4,0.7-0.4,0.9-0.9,0.7c-0.7-0.3-1.2-0.8-1.8-1.3
					C97.6,52.8,97.9,52.7,98.4,52.4z"/>
				<path class="st10" d="M96.2,120.6c0.1,0.8,0.1,1.6,0.2,2.3c-0.9-0.8-3,0-3-1.4C93.4,120.3,95.2,120.7,96.2,120.6z"/>
				<path class="st11" d="M122.8,99c1.7,3.1,2,5.7,0,8.1c-0.7,0.8-2.1,0.5-2.4-0.3C119.5,103.9,120.7,101.6,122.8,99z"/>
			</g>
		</g>
	</g>
</g>
</svg>
