<?xml version="1.0" encoding="UTF-8"?><svg id="Capa_1" xmlns="http://www.w3.org/2000/svg" viewBox="0 0 173.46 173.45"><defs><style>.cls-1{fill:#fc0000;}.cls-2{fill:#fefefe;}.cls-3{fill:#969696;}.cls-4{fill:#b33939;}.cls-5{fill:#dedede;}.cls-6{fill:#484848;}.cls-7{fill:#4c4c4c;}</style></defs><g id="_70M5UJ.tif"><g><path d="M89.86,173.45h-.79c-.75-.19-1.51-.12-2.26,0h-.3c-.58-.17-1.18-.07-1.78-.09-.19,0-.42-.12-.58,.09h-.89c-.04-.13-.16-.09-.25-.09-3.51-.14-6.99-.51-10.45-1.07-6.09-.99-12-2.62-17.74-4.89-8.9-3.53-16.99-8.39-24.28-14.6-8.81-7.51-15.87-16.41-21.13-26.72C4.1,115.63,1.04,104.56,.22,92.87c-.4-5.69-.25-11.37,.45-17.03,.62-5.01,1.68-9.93,3.18-14.75,3.75-12.03,9.81-22.76,18.21-32.15,8.13-9.1,17.76-16.18,28.87-21.23C60.21,3.49,69.95,1.03,80.1,.25c5.45-.42,10.91-.32,16.35,.29,6.02,.68,11.9,1.96,17.65,3.88,10.47,3.5,19.93,8.8,28.38,15.89,8.44,7.09,15.29,15.48,20.53,25.17,6.51,12.05,9.95,24.95,10.37,38.64,0,1.74,0,3.48,0,5.23-.17,5.86-.92,11.65-2.27,17.35-2.46,10.37-6.67,19.97-12.69,28.77-8.18,11.96-18.68,21.34-31.51,28.08-10.92,5.74-22.56,8.96-34.88,9.71-.72,.04-1.46-.02-2.17,.17Zm51.34-80.8c-.06,0-.13-.02-.19-.02-8.7,0-17.41,0-26.11,0-.29,0-.39,.1-.45,.37-.33,1.52-.79,3-1.38,4.44-4.15,10.2-13.78,17.08-24.58,17.72-4.13,.25-8.16-.28-11.98-1.84-9.27-3.77-15.13-10.55-17.54-20.27-.08-.34-.23-.42-.56-.42-14.87,0-29.74,0-44.6,0-.42,0-.52,.11-.48,.52,.26,2.72,.65,5.43,1.21,8.11,2.4,11.4,7.22,21.67,14.49,30.77,5.93,7.42,13.04,13.46,21.32,18.12,7.02,3.96,14.5,6.67,22.43,8.14,3.94,.73,7.91,1.13,11.91,1.22,4.62,.09,9.2-.23,13.75-1,1.71-.29,3.42-.59,5.08-1.08,.1,0,.2,0,.29-.03,1.54-.39,3.06-.81,4.57-1.29,8.39-2.68,16.06-6.72,22.97-12.16,9.67-7.61,17-17.04,21.96-28.3,3.15-7.15,5.08-14.62,5.8-22.4,.06-.6,.06-.6-.57-.6-5.61,0-11.21,0-16.82,0-.18,0-.36,.02-.54,.03ZM14.31,80.35c-.15,.53-.15,.54,.41,.54,14.55,0,29.1,0,43.65,0,.16,0,.36,.1,.49-.1,.6-2.63,1.5-5.14,2.78-7.52,1.09-2.03,2.4-3.91,3.95-5.61,1.41-1.55,2.96-2.94,4.68-4.15,2.05-1.44,4.23-2.61,6.58-3.47,3.61-1.31,7.32-1.91,11.18-1.69,1.35,.08,2.69,.2,4.02,.45,3.08,.58,6,1.64,8.72,3.21,3.11,1.8,5.81,4.08,8.07,6.9,2.7,3.37,4.57,7.14,5.52,11.36,.11,.48,.3,.62,.8,.62,14.79-.02,29.57-.02,44.36-.02,.08,0,.17,0,.25,0,.31,.04,.35-.12,.32-.38-.2-1.73-.39-3.46-.67-5.19-.53-3.29-1.29-6.52-2.27-9.7-.91-2.93-1.99-5.8-3.26-8.6-1.46-3.2-3.13-6.29-5.03-9.25-1.68-2.62-3.53-5.12-5.52-7.52-1.36-1.63-2.79-3.19-4.28-4.69-.86-.86-1.74-1.72-2.65-2.54-1.49-1.35-3.03-2.65-4.62-3.88-3.46-2.67-7.15-5-11.03-7.02-1.93-1-3.92-1.88-5.92-2.71-1.93-.8-3.9-1.51-5.89-2.13-2.26-.7-4.55-1.3-6.88-1.76-1.59-.32-3.19-.6-4.79-.82-1.32-.18-2.66-.29-3.99-.42-1.47-.14-2.95-.16-4.42-.25-1.88-.12-3.76,0-5.64,.08-2.82,.12-5.61,.44-8.39,.92-4.63,.8-9.15,2.01-13.54,3.68-4.85,1.85-9.46,4.17-13.82,6.99-3.77,2.44-7.29,5.19-10.55,8.28-3.26,3.09-6.22,6.43-8.87,10.06-2.21,3.03-4.19,6.21-5.91,9.54-2.53,4.89-4.51,9.98-5.86,15.32-.61,2.41-1.13,4.84-1.48,7.3-.19,1.38-.44,2.76-.48,4.16Zm72.43,23.13c9.51-.07,16.68-7.68,16.71-16.52,.03-9.51-7.44-17.02-16.8-17-9.14,.02-16.67,7.45-16.7,16.48-.03,9.45,7.47,17.06,16.78,17.03Z"/><path class="cls-3" d="M173.46,89.35h-.04s-.04,0-.04,0c0-1.74,0-3.48,0-5.23,.03,0,.06,.01,.09,0v5.21Z"/><path class="cls-7" d="M84.15,173.45c.16-.21,.39-.1,.58-.09,.59,.03,1.19-.08,1.78,.09h-2.36Z"/><path class="cls-6" d="M86.81,173.45c.75-.12,1.51-.19,2.26,0h-2.26Z"/><path class="cls-1" d="M14.31,80.35c.04-1.4,.29-2.77,.48-4.16,.34-2.47,.87-4.89,1.48-7.3,1.35-5.34,3.33-10.43,5.86-15.32,1.72-3.33,3.7-6.51,5.91-9.54,2.64-3.63,5.61-6.97,8.87-10.06,3.26-3.09,6.78-5.84,10.55-8.28,4.36-2.83,8.97-5.14,13.82-6.99,4.39-1.67,8.91-2.88,13.54-3.68,2.78-.48,5.57-.8,8.39-.92,1.88-.08,3.76-.2,5.64-.08,1.47,.09,2.95,.11,4.42,.25,1.33,.13,2.67,.23,3.99,.42,1.6,.22,3.2,.51,4.79,.82,2.33,.46,4.62,1.06,6.88,1.76,1.99,.62,3.96,1.33,5.89,2.13,2.01,.83,4,1.71,5.92,2.71,3.88,2.02,7.57,4.35,11.03,7.02,1.59,1.23,3.13,2.53,4.62,3.88,.91,.82,1.79,1.68,2.65,2.54,1.5,1.49,2.92,3.06,4.28,4.69,1.99,2.4,3.84,4.89,5.52,7.52,1.9,2.96,3.57,6.05,5.03,9.25,1.27,2.8,2.35,5.67,3.26,8.6,.98,3.18,1.74,6.41,2.27,9.7,.28,1.72,.46,3.45,.67,5.19,.03,.26-.01,.42-.32,.38-.08-.01-.16,0-.25,0-14.79,0-29.57,0-44.36,.02-.51,0-.7-.14-.8-.62-.95-4.22-2.83-7.98-5.52-11.36-2.25-2.82-4.96-5.1-8.07-6.9-2.72-1.57-5.64-2.63-8.72-3.21-1.32-.25-2.66-.37-4.02-.45-3.85-.22-7.57,.38-11.18,1.69-2.35,.85-4.53,2.03-6.58,3.47-1.72,1.21-3.27,2.6-4.68,4.15-1.55,1.7-2.86,3.58-3.95,5.61-1.28,2.38-2.18,4.89-2.78,7.52-8.03,0-16.06,0-24.1,0-6.64,0-13.28,0-19.92,0-.32,0-.61,0-.54-.44Z"/><path class="cls-2" d="M103.53,157.4c-1.67,.49-3.38,.79-5.08,1.08-4.55,.77-9.14,1.09-13.75,1-4-.08-7.98-.48-11.91-1.22-7.93-1.48-15.41-4.18-22.43-8.14-8.27-4.66-15.39-10.7-21.32-18.12-7.28-9.1-12.1-19.37-14.49-30.77-.56-2.68-.95-5.38-1.21-8.11-.04-.4,.06-.52,.48-.52,14.87,.01,29.74,.01,44.6,0,.33,0,.47,.08,.56,.42,2.41,9.73,8.27,16.5,17.54,20.27,3.83,1.56,7.85,2.09,11.98,1.84,10.79-.64,20.42-7.52,24.58-17.72,.59-1.44,1.05-2.92,1.38-4.44,.06-.27,.16-.37,.45-.37,8.7,0,17.41,0,26.11,0,.06,0,.13,.02,.19,.02-.03,.16-.08,.32-.08,.48-.04,1.48-.23,2.95-.39,4.43-.2,1.9-.48,3.78-.82,5.65-.68,3.72-1.58,7.4-2.74,11-1.44,4.47-3.21,8.81-5.38,12.99-1.15,2.22-2.38,4.4-3.73,6.51-2.58,4.03-5.51,7.78-8.79,11.26-1.9,2.02-3.93,3.89-6.06,5.65-2.71,2.24-5.58,4.27-8.62,6.04-.37,.21-.83,.31-1.05,.74Z"/><path class="cls-5" d="M103.53,157.4c.22-.43,.68-.53,1.05-.74,3.04-1.77,5.91-3.8,8.62-6.04,2.13-1.76,4.16-3.64,6.06-5.65,3.28-3.48,6.21-7.23,8.79-11.26,1.35-2.11,2.58-4.29,3.73-6.51,2.17-4.18,3.94-8.52,5.38-12.99,1.16-3.61,2.06-7.28,2.74-11,.34-1.87,.62-3.76,.82-5.65,.16-1.47,.35-2.94,.39-4.43,0-.16,.05-.32,.08-.48,.18,0,.36-.03,.54-.03,5.61,0,11.21,0,16.82,0,.63,0,.63,0,.57,.6-.72,7.78-2.65,15.25-5.8,22.4-4.96,11.26-12.29,20.69-21.96,28.3-6.92,5.45-14.59,9.49-22.97,12.16-1.51,.48-3.04,.9-4.57,1.29-.09,.02-.19,.02-.29,.03Z"/><path class="cls-2" d="M86.74,103.48c-9.31,.03-16.81-7.59-16.78-17.03,.03-9.03,7.56-16.46,16.7-16.48,9.35-.02,16.82,7.49,16.8,17-.03,8.84-7.2,16.44-16.71,16.52Z"/><path class="cls-4" d="M14.31,80.35c-.07,.45,.22,.44,.54,.44,6.64,0,13.28,0,19.92,0,8.03,0,16.06,0,24.1,0-.13,.2-.33,.1-.49,.1-14.55,0-29.1,0-43.65,0-.56,0-.57,0-.41-.54Z"/></g></g></svg>