<?xml version="1.0" encoding="utf-8"?>
<!-- Generator: Adobe Illustrator 27.0.0, SVG Export Plug-In . SVG Version: 6.00 Build 0)  -->
<svg version="1.1" id="Capa_1" xmlns="http://www.w3.org/2000/svg" xmlns:xlink="http://www.w3.org/1999/xlink" x="0px" y="0px"
	 viewBox="0 0 175.6 175.6" style="enable-background:new 0 0 175.6 175.6;" xml:space="preserve">
<style type="text/css">
	.st0{fill:#FDFDFD;}
	.st1{fill:#42324C;}
	.st2{fill:#42334F;}
	.st3{fill:#43334B;}
	.st4{fill:#FDEC03;}
	.st5{fill:#E63229;}
	.st6{fill:#D9B60E;}
	.st7{fill:#D8B60F;}
	.st8{fill:#C32722;}
	.st9{fill:#F9E80C;}
	.st10{fill:#42324A;}
	.st11{fill:#443444;}
</style>
<circle class="st0" cx="87.8" cy="87.8" r="87.8"/>
<g id="_5h872a">
	<g>
		<path class="st1" d="M134.1,37.2c-0.7,4.2-1.6,8.1-2.8,12c-2.3,7.3-5.5,14.2-10.3,20.3c-0.3,0.3-0.3,0.6-0.1,0.9
			c3.2,4.9,5.2,10.3,5.9,16.1c0.3,2.2,0.4,4.5,0.3,6.8c0,0.8,0.1,1.2,0.8,1.6c3.9,2.9,6.4,6.6,7,11.5c0.6,5.2-0.5,10-2.9,14.6
			c-2.8,5.4-7.2,9.3-12.4,12.3c-6.2,3.6-12.9,5.8-19.9,7.2c-4.4,0.9-8.8,1.6-13.3,1.3c-11.5-0.7-22.3-3.4-32.1-9.7
			c-5.3-3.4-9.4-7.9-11.8-13.8c-1.5-3.8-2.2-7.8-1.7-11.9c0.6-4.9,3.2-8.7,7.1-11.6c0.5-0.4,0.7-0.7,0.7-1.3
			c-0.3-6.6,1-12.9,3.9-18.8c0.3-0.6,0.1-0.7-0.4-1c-6.2-3.2-12-7.1-17-12c-2.6-2.5-4.9-5.2-6.9-8.2c-0.3,0.1-0.4,0.4-0.5,0.6
			c-2,3.5-3.7,7.2-5,11.1c-0.1,0.2-0.1,0.4-0.2,0.6c-0.4,0.9-1.3,1.2-2.1,0.9c-0.8-0.3-1.2-1.2-0.9-2.1c1.3-3.8,2.9-7.5,4.8-11
			c0.5-1,1.1-1.9,1.6-2.8c0.2-0.3,0.3-0.5,0-0.9c-2.2-3.7-3.5-7.7-4.6-11.9c-0.1-0.5-0.1-0.7,0.5-0.7c4,0.2,8,0.7,12,1.4
			c0.8,0.1,1.2,0,1.7-0.6c10.6-10.9,23.3-18.1,38.2-20.9c17.2-3.3,33.6-0.7,49,7.9c0.6,0.3,1,0.3,1.6,0c3.2-2,6.8-3.2,10.3-4.7
			c0.6-0.2,0.6,0,0.6,0.5c0.1,3.4-0.1,6.9-0.5,10.3c-0.2,1.5,0.1,2.4,1.2,3.5c9.1,8.2,15.6,18.2,19.6,29.7c0.4,1.1,0,2-0.9,2.3
			c-0.9,0.3-1.8-0.2-2.1-1.3c-3.6-10.5-9.5-19.5-17.5-27.2C134.9,37.9,134.6,37.6,134.1,37.2L134.1,37.2z M45.5,116.8
			c0.1,0.6,0.4,1.2,0.7,1.8c2.1,4.3,5.3,7.7,9.3,10.5c4.6,3.2,9.7,5.3,15.1,6.9c5.4,1.6,11,2.7,16.7,2.8c5.1,0.1,10.2-0.8,15.1-1.9
			c2.1-0.5,4.2-1,6.2-1.9c1.2-0.4,2.5-0.8,3.7-1.4c5.3-2.2,10.2-5.1,14-9.5c1.5-1.7,2.8-3.4,3.5-5.6c0.6-0.5,0.8-1.2,0.9-1.8
			c1.2-3.1,1.7-6.3,1.3-9.7c-0.1-0.4-0.1-0.8-0.1-1.2c-0.8-3.9-3-6.8-6.3-8.9c-1.2-0.7-1.5-1.5-1.4-2.8c0.6-9.7-2.3-18.3-8.5-25.8
			c-0.2-0.3-0.4-0.5-0.6-0.8c-0.3-0.7-0.1-1.3,0.5-1.8c0.6-0.4,1.4-0.3,1.9,0.2c0.4,0.4,0.7,1.3,1.3,1.2c0.5-0.1,0.8-0.9,1.2-1.5
			c0.1-0.1,0.1-0.2,0.2-0.3c4.4-6.4,7.3-13.5,9.2-21c0.5-2,0.5-2-1.1-3.2c-2.6-2-5.2-4-7.9-6c-0.5-0.4-1-0.8-1.4-1.3
			c-0.4-0.4-0.7-0.4-1.1,0c-2.7,2.3-5.2,4.9-7.6,7.6c-3.3,4-6.1,8.2-8.5,12.8c-0.2,0.5-0.2,0.7,0.3,0.8c0.7,0.3,1.5,0.5,2.1,1
			c0.3,0.8,0.3,1.5-0.3,2.1c-0.7,0.6-1.4,0.3-2.1,0c-0.1,0-0.1,0-0.2-0.1c-5.9-2.4-12-3.3-18.4-2.4c-4.9,0.7-9.5,2.3-13.8,4.8
			c-0.9,0.5-1.8,0.3-2.3-0.4c-0.5-0.7-0.2-1.6,0.7-2.2c0.5-0.3,1-0.6,1.6-0.9c-0.1-0.1-0.2-0.2-0.2-0.3c-0.2-0.2-0.3-0.3-0.5-0.4
			c-7.7-6-16.5-9.7-25.8-12.2c-0.5-0.1-0.7,0.1-1,0.4c-1.1,1.4-2.2,2.8-3.4,4.3c-1.1,1.4-2.2,2.8-3.4,4.2c-0.6,0.5-1,1.1-1.5,1.7
			c-0.3,0.3-0.2,0.5,0,0.8c0.7,0.8,1.4,1.7,2.2,2.5c5,5.3,10.8,9.5,17.3,12.8c1.2,0.6,1.2,0.6,1.9-0.4c0.5-0.6,1.1-0.8,1.8-0.6
			c0.6,0.2,0.9,0.7,1,1.3c0.1,0.5-0.2,0.8-0.5,1.2c-4.3,6.9-6.2,14.5-5.6,22.7c0.1,0.7-0.2,1.3-0.8,1.7c-1.6,0.9-2.9,2.1-4.1,3.4
			c-1.8,2.2-2.9,4.6-3,7.5c-0.2,2.3,0,4.5,0.6,6.7C44.8,115.1,44.9,116.1,45.5,116.8L45.5,116.8z M120.6,27.6
			c-11.8-6.7-28.3-10.6-45.9-7.2C60.9,23.1,49,29.6,38.9,39.7c0.3,0.1,0.4,0.2,0.6,0.2c3.3,0.7,6.5,1.6,9.8,2.7
			c8.4,2.8,16.3,6.6,23.1,12.5c0.5,0.4,0.8,0.2,1.3,0.1c7.8-3.1,15.8-3.7,23.9-1.6c0.8,0.2,1.2,0,1.5-0.7
			c4.5-8.9,10.6-16.6,18.5-22.9C118.6,29.1,119.6,28.4,120.6,27.6L120.6,27.6z"/>
		<path class="st2" d="M87.8,159.7c-30.6,0-58-19.5-67.9-48.4c-0.4-1.2-0.1-2.1,0.9-2.4c0.9-0.3,1.8,0.2,2.1,1.3
			c1.5,4.4,3.4,8.7,5.9,12.7c10.8,17.6,26.3,28.7,46.6,32.5c33.9,6.3,66.1-13.2,77.2-44.8c0.1-0.2,0.1-0.4,0.2-0.6
			c0.4-1,1.3-1.4,2.1-1.1c0.9,0.3,1.2,1.2,0.9,2.2c-1.6,4.6-3.6,9.1-6.1,13.3c-10.9,18-26.7,29.2-47.2,33.8
			C98.1,159.2,92.5,159.7,87.8,159.7L87.8,159.7z"/>
		<path class="st3" d="M18.6,78.1c0.3,0,0.6,0.1,0.9,0.2c5.6,2.5,11.2,5,16.8,7.6c0.7,0.3,1.2,0.7,1.1,1.5c-0.1,0.9-0.8,1.2-1.5,1.2
			c-3.5,0.4-7,0.8-10.6,1.2c-0.8,0.1-1,0.3-0.9,1.1c0.2,1.8,0.3,3.6,0.4,5.3c0.1,1.2-0.9,1.9-2,1.3c-5.9-2.8-11.8-5.7-17.7-8.5
			c-0.6-0.3-1-0.8-0.8-1.5c0.1-0.8,0.7-1.1,1.5-1.1c3-0.2,5.9-0.3,8.9-0.5c0.8-0.1,1.8,0.1,2.4-0.3c0.5-0.4,0.2-1.5,0.2-2.2
			c0.1-1.3,0.1-2.6,0.2-3.8C17.4,78.6,17.9,78.1,18.6,78.1L18.6,78.1z M30.9,86.6v-0.2c-3.5-1.6-6.9-3.2-10.4-4.8
			c-0.5-0.2-0.6,0-0.6,0.4c-0.1,1.6-0.2,3.2-0.2,4.8c0,0.8-0.3,1.3-1.1,1.5c-0.4,0.1-0.8,0.1-1.2,0.1c-2.1,0.1-4.1,0.3-6.3,0.4
			c0.1,0.1,0.1,0.2,0.2,0.2c3.4,1.7,6.8,3.3,10.3,4.9c0.5,0.2,0.6,0,0.5-0.4c-0.1-1.4-0.2-2.8-0.3-4.2c-0.1-1.4,0.2-1.9,1.7-2
			C25.9,87.2,28.4,86.9,30.9,86.6L30.9,86.6z"/>
		<path class="st3" d="M150.8,96.4c0.1-2,0.3-3.8,0.4-5.7c0.1-0.6-0.1-0.8-0.7-0.9c-3.5-0.4-7.1-0.8-10.6-1.2
			c-0.4,0-0.7-0.1-1.1-0.2c-0.5-0.2-0.7-0.6-0.7-1.2c0-0.6,0.4-1,0.9-1.2c1.6-0.7,3.1-1.4,4.7-2.1c4.1-1.8,8.1-3.7,12.2-5.5
			c1.4-0.6,2.2-0.2,2.3,1.4c0.1,1.8,0.2,3.5,0.2,5.3c0,0.6,0.2,0.8,0.8,0.8c3.5,0.2,7,0.4,10.5,0.7c1,0.1,1.6,0.4,1.7,1.2
			c0.1,0.8-0.4,1.2-1.1,1.5c-5.6,2.7-11.1,5.3-16.7,8c-0.3,0.1-0.6,0.3-0.9,0.4C151.7,98.1,150.8,97.4,150.8,96.4L150.8,96.4z
			 M144.7,86.4l0.1,0.2c2.6,0.3,5.1,0.6,7.6,0.9c1.2,0.1,1.6,0.6,1.5,1.9c-0.1,1.4-0.2,2.7-0.3,4.1c-0.1,0.7,0.1,0.8,0.8,0.5
			c3.3-1.6,6.5-3.2,9.8-4.7c0.1-0.1,0.4-0.1,0.4-0.4c-2.2-0.1-4.4-0.3-6.7-0.4c-1.4-0.1-1.8-0.5-1.9-1.9c-0.1-1.4-0.1-2.8-0.2-4.3
			c0-0.6-0.1-0.9-0.8-0.5c-1.7,0.8-3.4,1.6-5.2,2.4C148.1,84.9,146.4,85.7,144.7,86.4L144.7,86.4z"/>
		<path class="st4" d="M35.3,52.9c1.1-1.4,2.2-2.8,3.4-4.2c1.1-1.4,2.2-2.8,3.4-4.3c0.2-0.3,0.5-0.6,1-0.4
			c9.3,2.6,18.2,6.2,25.8,12.2c0.2,0.1,0.3,0.3,0.5,0.4c0.1,0,0.1,0.1,0.2,0.3c-0.5,0.3-1.1,0.6-1.6,0.9c-0.9,0.6-1.2,1.5-0.7,2.2
			c0.5,0.8,1.4,0.9,2.3,0.4c4.3-2.6,8.9-4.2,13.8-4.8c6.3-0.8,12.5,0,18.4,2.4c0.1,0,0.1,0,0.2,0.1c0.7,0.3,1.5,0.6,2.1,0
			c0.6-0.6,0.6-1.3,0.3-2.1c0,0,0.1-0.1,0.1-0.1c1.9-4.4,4.3-8.5,7.2-12.3c2.5-3.3,5.4-6.2,8.8-8.6c2.6,2,5.2,4,7.9,6
			c1.6,1.2,1.6,1.2,1.1,3.2c-1.9,7.5-4.8,14.6-9.2,21c-0.1,0.1-0.1,0.2-0.2,0.3c-0.4,0.5-0.7,1.3-1.2,1.5c-0.6,0.2-0.8-0.8-1.3-1.2
			c-0.6-0.5-1.3-0.6-1.9-0.2c-0.6,0.5-0.8,1.1-0.5,1.8c0.1,0.3,0.3,0.6,0.6,0.8c6.1,7.5,9,16.1,8.5,25.8c-0.1,1.3,0.2,2.1,1.4,2.8
			c3.3,2.1,5.5,5,6.3,8.9c0.1,0.4,0.1,0.8,0.1,1.2c-0.2-0.2-0.4-0.5-0.5-0.8c-2.1-2.9-5-4.3-8.7-3.7c-5.9,1-8.9,7.6-5.9,12.7
			c2.4,4.2,8.1,5.8,12.5,2.7c0.4,0,0.4,0.3,0.4,0.6c-0.7,2.2-2.1,3.9-3.5,5.6c-3.9,4.4-8.7,7.3-14,9.5c-1.2,0.5-2.5,0.9-3.7,1.4
			c-0.2,0-0.4,0-0.6,0c-2.5,0.5-5,0.9-7.6,1.2c-3.7,0.5-7.4,0.6-11.1,0.8c-2.8,0.1-5.6-0.2-8.4-0.6c-5.6-0.9-10.9-2.4-15.9-5
			c-3.7-1.9-6.9-4.4-9.4-7.8c-0.9-1.2-1.8-2.4-2.2-3.9c0.3-0.1,0.5-0.1,0.8-0.2c3.5-1.1,5.7-3.5,6.2-7.2c0.5-3.6-1-6.5-4-8.5
			c-1.1-0.7-2.4-1-3.7-1.3c0.4-1.1,1-2.1,1.6-3.1c0.8-1.4,1.6-2.9,1.4-4.5c-0.2-1.2-0.2-2.5-0.2-3.7c-0.2-3.4,0.1-6.7,0.9-10
			c1-4,2.8-7.8,4.4-11.5c0.3-0.8,0.3-1.1-0.5-1.4c-0.7-0.3-1.4-0.4-2.2-0.6c-4.1-0.9-8-2.3-11.6-4.5s-6.4-5.3-9.3-8.3
			C36.5,54,36,53.4,35.3,52.9L35.3,52.9z M76,105.6c-0.2,0.4-0.2,0.8,0,1.2c0,0.1,0,0.2,0,0.3c-0.2,0.2-0.2,0.5-0.1,0.7
			c0.5,2.7,2,4.7,4.6,5.6c2.5,0.9,4.8,0.2,6.8-1.6c0.5-0.4,0.7-0.4,1.2,0c1.4,1.3,3,2.1,4.9,1.9c1.9-0.1,3.7-0.9,4.9-2.5
			c1.3-1.7,1.9-3.6,1.4-5.7c-0.6-0.8-1.1-1.1-1.7-0.7c-0.5,0.3-0.6,0.7-0.7,1.3c-0.1,2.1-1.7,3.7-3.8,3.9c-1.9,0.2-3.8-1.1-4.3-3.1
			c-0.2-0.7-0.2-1.4,0.5-1.9c0.4-0.3,0.7-0.7,1.1-1.1c0.2-0.2,0.4-0.5,0.3-0.9c-0.2-0.3-0.4-0.4-0.8-0.4c-1.6,0-3.2,0-4.8,0
			c-0.3,0-0.6,0.1-0.8,0.4c-0.1,0.3,0,0.6,0.2,0.8c0.3,0.3,0.6,0.7,0.9,0.9c0.9,0.7,0.9,1.5,0.5,2.5c-0.2,0.5-0.4,0.9-0.8,1.3
			c-1.1,1.3-2.9,1.8-4.5,1.2c-1.6-0.6-2.7-2-2.8-3.7c0-0.7-0.3-1.2-1-1.3C76.7,104.7,76.2,104.9,76,105.6L76,105.6z M67.4,99.8
			c4,0,7.2-3.1,7.2-7.1c0-3.9-3.2-7.1-7.1-7.2c-4,0-7.2,3.2-7.2,7.1C60.2,96.6,63.4,99.7,67.4,99.8z M108.2,99.8
			c4,0,7.2-3.2,7.2-7.2c0-3.9-3.2-7.1-7.1-7.1c-4,0-7.2,3.2-7.2,7.2C101.1,96.6,104.3,99.7,108.2,99.8L108.2,99.8z"/>
		<path class="st5" d="M129.4,118c-4.4,3.2-10.2,1.5-12.6-2.7c-3-5.2,0.1-11.7,5.9-12.7c3.6-0.6,6.5,0.7,8.6,3.7
			c0.2,0.2,0.4,0.5,0.5,0.8c0.4,3.3-0.1,6.5-1.3,9.7C130.3,117.1,129.9,117.5,129.4,118L129.4,118z"/>
		<path class="st6" d="M35.3,52.9c0.7,0.5,1.2,1.2,1.8,1.8c2.9,3,5.8,6,9.3,8.3c3.6,2.3,7.5,3.7,11.6,4.6c0.7,0.2,1.5,0.3,2.2,0.6
			c0.8,0.3,0.9,0.6,0.5,1.4c-1.7,3.8-3.4,7.5-4.4,11.5c-0.8,3.3-1.1,6.6-0.9,10c0.1,1.2,0.1,2.5,0.2,3.7c0.2,1.7-0.5,3.2-1.4,4.5
			c-0.6,1-1.2,2-1.6,3.1c-0.1,0-0.2,0-0.3,0c-0.5-0.1-1-0.1-1.5,0c-3.1,0.4-5.4,2.2-6.8,4.9c0.1-2.8,1.2-5.3,3-7.5
			c1.2-1.4,2.5-2.6,4.1-3.4c0.7-0.4,0.9-0.9,0.8-1.7c-0.6-8.2,1.3-15.7,5.6-22.7c0.2-0.4,0.5-0.8,0.5-1.2c-0.1-0.6-0.4-1.1-1-1.3
			c-0.7-0.2-1.3,0-1.8,0.6c-0.8,1-0.8,1-1.9,0.4C46.9,67.2,41,63.1,36,57.8c-0.8-0.8-1.4-1.6-2.2-2.5c-0.2-0.3-0.3-0.5,0-0.8
			C34.4,54,34.8,53.3,35.3,52.9L35.3,52.9z"/>
		<path class="st7" d="M53.4,119.5c0.4,1.5,1.3,2.7,2.2,3.9c2.5,3.4,5.7,5.9,9.4,7.8c5,2.6,10.3,4.1,15.9,5c2.8,0.4,5.6,0.7,8.4,0.6
			c3.7-0.1,7.4-0.2,11.1-0.8c2.5-0.3,5.1-0.7,7.6-1.2c0.2,0,0.4,0,0.6,0c-2,0.9-4.1,1.4-6.2,1.9c-5,1.2-10,2.1-15.1,1.9
			c-5.7-0.1-11.2-1.2-16.7-2.8c-5.4-1.6-10.5-3.7-15.1-6.9c-3.9-2.7-7.2-6.1-9.3-10.5c-0.3-0.6-0.6-1.2-0.7-1.8
			c0.2,0.2,0.4,0.3,0.6,0.5c2,1.8,4.4,2.6,7.2,2.1C53.2,119.5,53.3,119.5,53.4,119.5L53.4,119.5z"/>
		<path class="st8" d="M53.2,119.5c-2.7,0.5-5.1-0.3-7.2-2.1c-0.2-0.2-0.4-0.3-0.6-0.5c-0.5-0.8-0.7-1.8-0.9-2.8
			c-0.5-2.2-0.7-4.4-0.6-6.7c1.5-2.8,3.7-4.5,6.8-4.9c0.5-0.1,1-0.1,1.5,0c0,0.2,0,0.3,0,0.5c-0.8,2.3-0.9,4.8-0.9,7.1
			c0,1.5-0.1,3.1,0.3,4.6C52.1,116.3,52.3,118,53.2,119.5z"/>
		<path class="st7" d="M120.5,35c-3.4,2.4-6.2,5.3-8.8,8.6c-2.9,3.8-5.3,7.9-7.2,12.3c0,0-0.1,0.1-0.1,0.1c-0.6-0.5-1.4-0.7-2.1-1
			c-0.5-0.2-0.6-0.4-0.3-0.8c2.4-4.6,5.2-8.9,8.5-12.8c2.3-2.7,4.8-5.3,7.6-7.6c0.4-0.4,0.7-0.4,1.1,0C119.5,34.1,120,34.5,120.5,35
			L120.5,35z"/>
		<path class="st7" d="M129.4,118c0.4-0.4,0.9-0.9,1.3-1.3c-0.1,0.7-0.3,1.4-0.9,1.8C129.8,118.2,129.8,118,129.4,118L129.4,118z"/>
		<path class="st9" d="M30.9,86.6c-2.5,0.3-5,0.6-7.5,0.9c-1.4,0.2-1.8,0.6-1.7,2c0.1,1.4,0.2,2.8,0.3,4.2c0,0.4,0,0.7-0.5,0.4
			c-3.4-1.7-6.8-3.3-10.2-4.9c-0.1,0-0.1-0.1-0.2-0.2c2.2-0.1,4.2-0.3,6.3-0.4c0.4,0,0.8,0,1.2-0.1c0.8-0.2,1-0.7,1.1-1.5
			c0.1-1.6,0.2-3.2,0.2-4.8c0-0.4,0-0.7,0.6-0.4c3.5,1.6,6.9,3.2,10.4,4.8L30.9,86.6L30.9,86.6z"/>
		<path class="st9" d="M144.7,86.4c1.7-0.8,3.4-1.5,5.1-2.3c1.7-0.8,3.5-1.5,5.2-2.4c0.7-0.3,0.8-0.1,0.8,0.5
			c0.1,1.4,0.1,2.8,0.2,4.3c0.1,1.4,0.4,1.8,1.9,1.9c2.2,0.1,4.4,0.3,6.7,0.4c0.1,0.3-0.2,0.3-0.4,0.4c-3.3,1.6-6.5,3.1-9.8,4.7
			c-0.6,0.3-0.8,0.2-0.8-0.5c0.1-1.4,0.2-2.7,0.3-4.1c0.1-1.3-0.3-1.8-1.5-1.9c-2.6-0.3-5.1-0.6-7.6-0.9L144.7,86.4L144.7,86.4z"/>
		<path class="st10" d="M67.3,99.8c-4,0-7.1-3.2-7.1-7.2c0-3.9,3.2-7.1,7.2-7.1c3.9,0,7.1,3.2,7.1,7.2
			C74.5,96.6,71.4,99.8,67.3,99.8z M69.8,87.6c-1.4,0-2.5,1.1-2.5,2.5c0,1.4,1.2,2.5,2.5,2.5s2.5-1.2,2.5-2.5
			C72.3,88.7,71.2,87.6,69.8,87.6z"/>
		<path class="st10" d="M108.2,99.8c-4,0-7.1-3.1-7.1-7.1c0-4,3.2-7.2,7.2-7.2c3.9,0,7.1,3.2,7.1,7.1
			C115.4,96.6,112.2,99.8,108.2,99.8L108.2,99.8z M113.4,90.1c0-1.4-1.1-2.5-2.5-2.5c-1.4,0-2.5,1.1-2.5,2.5c0,1.4,1.1,2.5,2.5,2.5
			S113.4,91.5,113.4,90.1L113.4,90.1z"/>
		<path class="st5" d="M53.2,119.5c-0.9-1.5-1.1-3.2-1.5-4.8c-0.3-1.5-0.3-3.1-0.3-4.6c0-2.4,0.1-4.8,0.9-7.1c0-0.2,0-0.3,0-0.5
			c0.1,0,0.2,0,0.3,0c1.3,0.3,2.5,0.5,3.7,1.3c3.1,2,4.5,4.9,4,8.5c-0.5,3.7-2.7,6-6.2,7.2c-0.3,0.1-0.5,0.1-0.8,0.2
			C53.3,119.5,53.2,119.5,53.2,119.5L53.2,119.5z"/>
		<path class="st11" d="M76,107.1c0-0.1,0-0.2,0-0.3c0-0.4,0-0.8,0-1.2c0.2-0.7,0.8-0.9,1.4-0.8c0.7,0.1,1,0.6,1,1.3
			c0.1,1.8,1.2,3.2,2.8,3.7c1.6,0.6,3.3,0.1,4.5-1.2c0.3-0.4,0.6-0.8,0.8-1.3c0.3-0.9,0.4-1.8-0.5-2.5c-0.4-0.3-0.6-0.6-0.9-0.9
			c-0.2-0.2-0.4-0.5-0.2-0.8c0.1-0.3,0.4-0.4,0.8-0.4c1.6,0,3.2,0,4.8,0c0.3,0,0.6,0.1,0.8,0.4c0.2,0.4,0,0.6-0.3,0.9
			c-0.3,0.4-0.7,0.8-1.1,1.1c-0.7,0.5-0.7,1.2-0.5,1.9c0.5,1.9,2.4,3.3,4.3,3.1c2.1-0.2,3.7-1.8,3.8-3.9c0-0.5,0.2-1,0.7-1.3
			c0.6-0.4,1.2-0.1,1.7,0.7c0,0.5,0,1-0.1,1.4c-0.5,2.6-2,4.4-4.6,5.2c-2.6,0.8-4.8,0.1-6.6-1.8c-0.5-0.6-0.7-0.4-1.2,0
			c-2.8,3-7.4,2.7-9.9-0.5C76.6,109,76.4,108,76,107.1L76,107.1z"/>
		<path class="st7" d="M76,107.1c0.4,0.9,0.7,1.9,1.3,2.8c2.5,3.2,7.2,3.5,9.9,0.5c0.5-0.5,0.7-0.6,1.2,0c1.8,1.9,4.1,2.6,6.6,1.8
			s4-2.6,4.6-5.2c0.1-0.5,0.1-0.9,0.1-1.4c0.5,2.1-0.1,4-1.4,5.7c-1.3,1.6-3,2.4-4.9,2.5c-1.9,0.1-3.5-0.7-4.9-1.9
			c-0.5-0.4-0.7-0.4-1.2,0c-1.9,1.8-4.3,2.4-6.8,1.6c-2.6-0.9-4.1-2.8-4.6-5.6C75.8,107.6,75.8,107.3,76,107.1L76,107.1z"/>
		<path class="st7" d="M76,105.6c0,0.4,0,0.8,0,1.2C75.8,106.4,75.8,106,76,105.6z"/>
		<path class="st0" d="M69.8,87.6c1.4,0,2.5,1.1,2.5,2.5c0,1.4-1.1,2.5-2.5,2.5c-1.4,0-2.5-1.1-2.5-2.5
			C67.3,88.8,68.4,87.6,69.8,87.6z"/>
		<path class="st0" d="M113.4,90.1c0,1.4-1.1,2.5-2.5,2.5s-2.5-1.1-2.5-2.5c0-1.4,1.1-2.5,2.5-2.5C112.2,87.6,113.4,88.7,113.4,90.1
			L113.4,90.1z"/>
	</g>
</g>
</svg>
