<?xml version="1.0" encoding="UTF-8"?><svg id="Capa_1" xmlns="http://www.w3.org/2000/svg" viewBox="0 0 174.26 162.92"><defs><style>.cls-1{fill:#f7ce03;}.cls-2{fill:#fef600;}.cls-3{fill:#fbf501;}.cls-4{fill:#fcae01;}.cls-5{fill:#fe1a1a;}.cls-6{fill:#fbae01;}.cls-7{fill:#fdd201;}.cls-8{fill:#fdfdfd;}.cls-9{fill:#6b5b4c;}.cls-10{fill:#d71e1d;}.cls-11{fill:#20293c;}.cls-12{fill:#36393b;}.cls-13{fill:#36393a;}.cls-14{fill:#393b38;}.cls-15{fill:#54575a;}</style></defs><path class="cls-12" d="M87.54,.59c9.07-1.02,18.17-.27,27.25-.41,3.23-.05,6.51-.58,9.71,.42,.14,.9,0,1.89,.86,2.54-6.51,8.02-13.02,16.04-20.01,24.65,3.99,0,7.45-.02,10.91,0,1.46,.01,3.45-.47,3.92,1.27,.4,1.49-.79,2.89-2.06,4-4.63,4.05-9.17,8.2-13.77,12.27-.5,.45-1.22,.66-1.65,1.4,8.75,3.03,16.76,6.53,23.97,11.71,2.01,1.45,1.68-.65,1.95-1.64,2.47-9.01,5.99-17.55,11.52-25.14,7.53-10.33,16.76-18.25,29.78-20.8,2.62-.51,3.8-.06,4.03,2.78,2.02,25.03-5.57,46.27-24.87,62.78-2.24,1.91-2.5,2.78-.99,5.4,9.01,15.66,12.13,31.91,2.76,48.57-8.12,14.43-20.98,23.23-36.47,27.97-26.5,8.12-51.91,5.8-74.97-10.41-13.94-9.8-22.26-23.2-21.47-40.93,.41-9.17,3.62-17.63,8.42-25.37,1.54-2.48,1.06-3.33-.97-5.06C6.07,60.12-1.7,38.96,.31,13.89c.24-3,1.35-3.58,4.22-2.98,12.93,2.72,22.24,10.48,29.7,20.89,5.87,8.18,9.57,17.33,11.98,27.5,5.98-3.76,11.66-7.49,18.14-9.63,3.65-1.21,7.11-3.25,11.24-2.52,1.27,.22,1.87-1.1,2.37-1.93,1.16-1.95,2.05-4.07,3.4-6.84-4.64,0-8.67,0-12.69,0-.18-.43-.42-.53-.77-.15-2.01-1.31-.94-2.76-.14-4.15,5.46-9.51,10.94-19.02,16.41-28.53l.68-1.18c.57-.99,1.14-1.98,1.71-2.97l.98-.81Zm-3.28,13.16c-.18,.26-.36,.51-.54,.77-3.73,6.44-7.45,12.88-11.56,19.97,4.28,0,7.66-.04,11.04,.01,2.96,.05,4.03,1.35,2.61,4.19-1.07,2.14-2.1,4.29-3.24,6.63,4.24,.21,7.9,.39,11.56,.57,.22,.42,.47,.46,.76,.06,3.47,.59,4.95-2.21,6.97-4.08,3.58-3.1,7.17-6.2,11.6-10.03h-13.62c-1.83-1.94-.48-3.35,.7-4.93,3.28-4.41,7.63-8,10.08-13.05,3.65-2.26,5.45-6.02,8.97-9.71-7.63,0-14.12,.7-20.39-.18-8.12-1.14-12.48,2.23-14.89,9.41-.04,.13-.05,.27-.08,.4,0,0,.02-.03,.02-.03Zm45.06,52.87c-2.36-.43-2.33-3.06-4.07-4.27-16.02-11.19-33.38-15.85-52.67-11.02-10.51,2.64-20.13,7.09-27.62,15.29-2.38-.73-2.17-2.94-2.5-4.7-1.91-10.16-5.72-19.53-11.71-27.96-1.66-2.34-3.25-4.83-6.1-6.77-.18,5.67,.43,11-3.73,15.06-3.26,1.69-6.82,1.88-10.37,1.89-1.94,.01-2.79,.35-1.88,2.55,5.04,12.28,12.19,22.85,23.82,29.86,1.49,.9,3.36,1.44,3.33,3.71-1.09,2.5-4.12-.41-5.49,2.17-3.37,6.36-6.81,12.66-7.54,20-1.63,5.99-1.03,11.92,.7,17.75,3.13,10.53,9.86,18.39,18.52,24.85,12.96,9.67,28.2,12.6,43.67,14.31,3.45,.38,7.49-.73,11.25-1.2,16.58-2.1,31.6-7.79,43.28-20.17,9.36-9.92,14.23-21.56,11.26-35.54-.68-7.06-4.14-13.06-7.06-19.33-1.46-3.14-4.72-.47-5.98-2.84-.05-1.83,1.28-2.55,2.61-3.31,11.85-6.73,18.97-17.34,24.31-29.46,1.28-2.91,.2-3.45-2.47-3.39-3.29,.08-6.55-.3-9.55-1.85-4.31-4.04-3.32-9.61-4.37-14.99-.93,.58-1.38,1.44-1.98,2.16-7.84,9.38-12.74,20.13-15.12,32.09-.38,1.88-.04,4.24-2.55,5.11Z"/><path class="cls-15" d="M125.36,3.15c-.86-.65-.71-1.65-.86-2.54,1.39,.47,1.6,1.35,.86,2.54Z"/><path class="cls-15" d="M87.54,.59l-.98,.81c.1-.55,.4-.84,.98-.81Z"/><path class="cls-15" d="M84.85,4.37c-.23,.39-.45,.78-.68,1.18,.23-.39,.45-.78,.68-1.18Z"/><path class="cls-11" d="M67.9,38.23c.34-.38,.59-.28,.77,.15-.26-.05-.51-.1-.77-.15Z"/><path class="cls-7" d="M22.8,102.43c.73-7.34,4.16-13.63,7.54-20,1.37-2.58,4.4,.33,5.49-2.17,2.02,1.46,4.81,1.38,6.62,3.28-.37,1.31-.82,2.6-1.11,3.92-1.2,5.52,1.33,11.09,6.28,13.92,4.98,2.84,11.33,2.02,15.5-2.02,4.03-3.9,5.07-10.04,2.54-15.06-4.09-8.12-13.21-9.45-21.43-3.12-5.13-7.15-9.3-14.9-13.77-22.46-3.23-5.46-7.19-10.5-9.54-16.46,4.17-4.05,3.55-9.39,3.73-15.06,2.85,1.94,4.44,4.43,6.1,6.77,5.98,8.44,9.79,17.8,11.71,27.96,.33,1.76,.11,3.97,2.5,4.7,.4,1.37,.81,2.73,1.21,4.11,27.44-12.01,54.76-11.91,82.04,.02,.63-1.5,.11-3.02,1.11-4.13,2.51-.87,2.17-3.22,2.55-5.11,2.39-11.96,7.28-22.71,15.12-32.09,.6-.72,1.05-1.58,1.98-2.16,1.05,5.37,.06,10.95,4.37,14.99-.59,3.36-3.04,5.71-4.71,8.46-6.18,10.16-11.86,20.64-18.59,30.46-.87-.65-1.71-1.34-2.61-1.94-5.14-3.41-11.64-2.83-16.18,1.42-4.3,4.02-5.26,10.55-2.33,15.75,2.94,5.21,8.86,7.7,14.66,6.18,8.11-2.13,11.42-9.76,8.22-18.95,1.77-2.02,4.63-1.87,6.66-3.37,1.25,2.36,4.51-.3,5.98,2.84,2.92,6.27,6.37,12.27,7.06,19.33-4.79,3.37-7.29,9.02-12.19,12.29-.12-.27-.24-.54-.37-.81-.89-7.01-3.45-8.79-12.11-8.41-3.6,.16-6.22,3.57-6.49,8.44-.64,5.2,2.71,7.66,6.67,9.71-1.38,1.56-3.17,2.52-5.01,3.4-16.25,7.76-33.32,9.18-50.81,6.08-8.53-1.51-16.95-3.76-23.9-9.48,3.96-2.04,7.31-4.5,6.67-9.71-.39-6.55-3.03-8.53-11.6-8.68-3.39-.06-6.35,3.61-7,8.65-.12,.27-.24,.54-.37,.81-4.9-3.27-7.4-8.92-12.19-12.3Zm71.35-4.11c1.2-.18,2.43-.26,3.59-.58,1.23-.34,3.13,.1,3.38-1.66,.24-1.7-1.39-2.58-2.63-3.32-6.33-3.81-12.94-4.85-19.8-1.49-2.25,1.1-5.92,2.03-5.33,4.76,.53,2.47,4.26,2.02,6.76,2.28-.92,2.83,1.26,3.43,3.06,4.41,2.49,1.36,2.51,4.67,.11,6.17-2.55,1.59-6.03,.58-7.09-2.29-.57-1.56-1.04-3.15-2.94-2.38-2.01,.81-1.43,2.66-.85,4.25,1.64,4.47,7.14,6.69,12,4.42,2.06-.96,3.4-.96,5.46,0,5.14,2.38,11.18-.35,12.29-5.18,.32-1.37,.51-2.91-1.13-3.51-1.66-.61-2.5,.46-2.84,2.02-.11,.52-.27,1.08-.56,1.51-1.25,1.85-3.14,2.05-5.11,1.71-1.75-.3-2.92-1.31-3.27-3.19-.41-2.19,.64-3.23,2.57-3.91,1.81-.65,3.12-1.79,2.33-4.03Z"/><path class="cls-4" d="M47.29,123.66c6.95,5.72,15.37,7.96,23.9,9.48,17.49,3.1,34.56,1.68,50.81-6.08,1.84-.88,3.63-1.84,5.01-3.4,7.27,.3,10.29-1.9,12.3-8.93,4.9-3.27,7.39-8.92,12.19-12.29,2.97,13.97-1.89,25.61-11.26,35.54-11.68,12.38-26.7,18.08-43.28,20.17-3.76,.48-7.8,1.59-11.25,1.2-15.46-1.71-30.71-4.64-43.67-14.31-8.65-6.46-15.39-14.32-18.52-24.85-1.73-5.83-2.34-11.76-.7-17.75,4.79,3.38,7.29,9.03,12.19,12.3,2.01,7.03,5.03,9.23,12.3,8.93Z"/><path class="cls-3" d="M129.33,66.63c-1,1.11-.48,2.63-1.11,4.13-27.28-11.94-54.6-12.03-82.04-.02-.41-1.38-.81-2.74-1.21-4.11,7.49-8.2,17.11-12.65,27.62-15.29,19.28-4.84,36.65-.18,52.67,11.02,1.74,1.21,1.71,3.84,4.07,4.27Z"/><path class="cls-6" d="M110.63,13.86c-2.45,5.05-6.79,8.64-10.08,13.05-1.17,1.58-2.52,2.99-.7,4.93-2.53,3.17-5.66,5.88-7.83,10.03h9.84c-2.03,1.87-3.51,4.68-6.97,4.08-.24-.13-.5-.15-.76-.06-3.66-.18-7.32-.36-11.56-.57,1.14-2.33,2.17-4.49,3.24-6.63,1.42-2.84,.34-4.14-2.61-4.19-3.38-.05-6.76-.01-11.04-.01,4.11-7.1,7.84-13.53,11.56-19.97,.18-.26,.36-.51,.54-.77,0,0-.02,.03-.02,.03,8.8,.02,17.59,.05,26.39,.07Z"/><path class="cls-6" d="M20.93,42.26c2.34,5.97,6.31,11.01,9.54,16.46,4.47,7.56,8.63,15.31,13.77,22.46-.59,.79-1.19,1.58-1.78,2.36-1.81-1.9-4.6-1.82-6.62-3.28,.03-2.26-1.84-2.81-3.33-3.71-11.64-7-18.79-17.57-23.82-29.86-.9-2.2-.06-2.54,1.88-2.55,3.55-.02,7.11-.2,10.37-1.89Z"/><path class="cls-6" d="M138.45,80.26c-2.03,1.49-4.89,1.35-6.66,3.37-.58-.82-1.16-1.63-1.75-2.45,6.74-9.82,12.41-20.3,18.59-30.46,1.67-2.75,4.12-5.1,4.71-8.46,3,1.54,6.26,1.93,9.55,1.85,2.68-.06,3.75,.48,2.47,3.39-5.34,12.12-12.46,22.73-24.31,29.46-1.33,.76-2.67,1.48-2.61,3.31Z"/><path class="cls-1" d="M110.63,13.86c-8.8-.02-17.59-.05-26.39-.07,.02-.13,.03-.27,.08-.4,2.41-7.18,6.77-10.55,14.89-9.41,6.27,.88,12.76,.18,20.39,.18-3.52,3.69-5.32,7.46-8.97,9.71Z"/><path class="cls-1" d="M101.87,41.88h-9.84c2.16-4.15,5.3-6.86,7.83-10.03,4.07,0,8.14,0,13.62,0-4.44,3.84-8.02,6.93-11.6,10.03Z"/><path class="cls-1" d="M84.26,13.76c-.18,.26-.36,.51-.54,.77,.18-.26,.36-.51,.54-.77Z"/><path class="cls-11" d="M94.14,45.9c.26-.09,.52-.07,.76,.06-.29,.4-.54,.36-.76-.06Z"/><path class="cls-13" d="M130.05,81.18c.58,.82,1.16,1.63,1.75,2.45,3.21,9.19-.1,16.82-8.22,18.95-5.8,1.53-11.73-.97-14.66-6.18-2.93-5.2-1.96-11.73,2.33-15.75,4.54-4.24,11.04-4.82,16.18-1.42,.9,.6,1.74,1.29,2.61,1.94Zm-2,12.55c-4.64-1.54-8.99-1.32-13.49-.48-2.95,.55-1.75,1.69-.82,2.84,3.81,4.71,10.69,3.65,14.31-2.36Zm-13.28-4.88c1.24-.21,2.24-.71,2.32-2.23,.07-1.47-.72-2.34-2.07-2.47-1.58-.14-2.63,.83-2.64,2.36,0,1.32,.99,2.12,2.4,2.34Z"/><path class="cls-13" d="M42.45,83.54c.6-.79,1.19-1.58,1.78-2.36,8.22-6.33,17.33-5.01,21.43,3.12,2.53,5.02,1.49,11.16-2.54,15.06-4.17,4.03-10.52,4.86-15.5,2.02-4.95-2.83-7.49-8.4-6.28-13.92,.29-1.32,.74-2.61,1.11-3.92Zm3.57,10.26c2.14,3.54,4.94,5.55,8.56,5.09,2.96-.37,6.2-1.29,7.04-5.1-5.15-2-10.17-1.41-15.59,0Zm4.83-7.32c-.04-1.38-.76-2.27-2.22-2.31-1.43-.04-2.35,.78-2.41,2.21-.06,1.44,.85,2.37,2.23,2.42,1.38,.05,2.27-.77,2.4-2.31Z"/><path class="cls-14" d="M94.16,98.32c.78,2.24-.52,3.38-2.33,4.03-1.92,.69-2.97,1.73-2.57,3.91,.35,1.88,1.52,2.88,3.27,3.19,1.96,.34,3.86,.14,5.11-1.71,.29-.43,.45-.99,.56-1.51,.34-1.56,1.18-2.63,2.84-2.02,1.65,.6,1.45,2.14,1.13,3.51-1.11,4.83-7.16,7.56-12.29,5.18-2.06-.95-3.4-.96-5.46,0-4.86,2.28-10.36,.06-12-4.42-.58-1.59-1.16-3.43,.85-4.25,1.9-.77,2.37,.82,2.94,2.38,1.06,2.88,4.54,3.89,7.09,2.29,2.4-1.5,2.38-4.81-.11-6.17-1.8-.98-3.99-1.58-3.06-4.41,4.68-1.13,9.35-1.13,14.03,0Z"/><path class="cls-2" d="M94.16,98.32c-4.68-1.13-9.35-1.13-14.03,0-2.5-.27-6.22,.18-6.76-2.28-.59-2.72,3.08-3.65,5.33-4.76,6.86-3.36,13.48-2.32,19.8,1.49,1.23,.74,2.87,1.62,2.63,3.32-.25,1.76-2.15,1.32-3.38,1.66-1.16,.32-2.39,.39-3.59,.58Z"/><path class="cls-10" d="M47.29,123.66c-7.27,.3-10.29-1.9-12.3-8.93,.12-.27,.24-.54,.37-.81,6.2,.01,12.4,.02,18.6,.03,.64,5.2-2.72,7.66-6.67,9.71Z"/><path class="cls-10" d="M139.29,114.73c-2.01,7.03-5.03,9.23-12.3,8.93-3.96-2.04-7.31-4.5-6.67-9.71,6.2-.01,12.4-.02,18.6-.03,.12,.27,.24,.54,.37,.81Z"/><path class="cls-5" d="M53.96,113.95c-6.2-.01-12.4-.02-18.6-.03,.65-5.05,3.61-8.71,7-8.65,8.57,.15,11.22,2.13,11.6,8.68Z"/><path class="cls-5" d="M138.93,113.92c-6.2,.01-12.4,.02-18.6,.03,.27-4.87,2.9-8.29,6.49-8.44,8.65-.37,11.22,1.41,12.11,8.41Z"/><path class="cls-9" d="M128.04,93.73c-3.61,6.01-10.49,7.07-14.31,2.36-.93-1.15-2.13-2.29,.82-2.84,4.49-.84,8.84-1.06,13.49,.48Z"/><path class="cls-8" d="M114.76,88.85c-1.41-.21-2.41-1.02-2.4-2.34,0-1.52,1.06-2.5,2.64-2.36,1.36,.12,2.15,.99,2.07,2.47-.07,1.51-1.08,2.01-2.32,2.23Z"/><path class="cls-9" d="M46.02,93.81c5.42-1.41,10.44-2,15.59,0-.84,3.81-4.08,4.73-7.04,5.1-3.61,.45-6.41-1.55-8.56-5.09Z"/><path class="cls-8" d="M50.85,86.49c-.12,1.55-1.02,2.37-2.4,2.31-1.38-.05-2.29-.99-2.23-2.42,.06-1.42,.98-2.24,2.41-2.21,1.46,.04,2.18,.93,2.22,2.31Z"/></svg>