<?xml version="1.0" encoding="utf-8"?>
<!-- Generator: Adobe Illustrator 27.0.0, SVG Export Plug-In . SVG Version: 6.00 Build 0)  -->
<svg version="1.1" id="Capa_1" xmlns="http://www.w3.org/2000/svg" xmlns:xlink="http://www.w3.org/1999/xlink" x="0px" y="0px"
	 viewBox="0 0 120 148.9" style="enable-background:new 0 0 120 148.9;" xml:space="preserve">
<style type="text/css">
	.st0{fill:#35393B;}
	.st1{fill:#E1D59D;}
	.st2{fill:#1FB2B2;}
	.st3{fill:#FCF2BF;}
	.st4{fill:#177F7C;}
	.st5{fill:#FBF1BE;}
	.st6{fill:#FDF800;}
	.st7{fill:#36393C;}
	.st8{fill:#363938;}
</style>
<g id="_8PbSW0.tif">
	<g>
		<path class="st0" d="M14.6,66.6c0.3-1.5,0.6-3,0.8-4.5c0.8-4.5,2.6-8.6,5-12.6c4.4-7.2,10.3-13,17.6-17.3
			c4.6-2.7,9.5-4.6,14.7-5.4c0.8-0.2,0.8-0.3,0.5-0.9c-2.3-3.3-4.5-6.7-6.7-9.9c-1-1.5-0.9-2.7,0.1-3.8c1-1,2.6-1,3.7,0
			c0.5,0.5,0.8,1.1,1.2,1.7c1.9,2.7,3.7,5.4,5.5,8.3c0.3-0.4,0.2-0.7,0.2-1c0-4,0-8,0-12c0-1.2,0.5-2.2,1.6-2.7
			c0.9-0.5,2-0.3,2.8,0.4s1,1.6,1,2.5c0,3.8,0,7.7,0,11.5c0,0.4,0,0.8,0,1.1c0.4-0.1,0.5-0.5,0.7-0.7c1.9-2.8,3.8-5.6,5.6-8.3
			c1.2-1.8,3.2-2.1,4.4-0.6c0.7,0.8,0.9,1.7,0.5,2.6c-0.2,0.5-0.5,0.8-0.7,1.2c-2.2,3.2-4.3,6.5-6.5,9.7c-0.5,0.7-0.4,0.8,0.5,0.9
			c10.2,1.9,18.8,6.8,25.9,14.3c4.2,4.4,7.6,9.4,9.8,15.1c1.2,3.2,2.1,6.5,2.3,9.9c0,0.2-0.1,0.6,0.2,0.7v2.6
			c-0.5,1.4-0.4,2.8-0.8,4.2c-1.4,5.8-4.2,10.9-8.5,15.1c-0.8,0.8-0.8,1.3-0.6,2.3c1.9,6,1.2,11.8-2.3,17.1
			c-2.9,4.3-7.4,6.4-12.3,7.9c-5.4,1.6-11,2.1-16.6,2.4c-0.4,0-0.8-0.2-1,0.2h-7c-0.1-0.2-0.3-0.2-0.5-0.2c-1.9-0.2-3.8-0.3-5.7-0.5
			c-5.5-0.5-11-1.5-16-3.9c-10.5-4.9-11.9-15.7-9.7-22.9c0.4-1.1,0.2-1.8-0.6-2.5c-4.2-4.2-7-9.2-8.4-15c-0.3-1.4-0.2-2.9-0.8-4.2
			C14.6,68.5,14.6,67.6,14.6,66.6z M23.6,49.6c-0.1,0.1-0.1,0.2-0.2,0.3c-1,1.3-1.8,2.8-2.4,4.2c-1.3,2.7-2.4,5.4-2.8,8.4l-0.1,0.1
			c-2,9.6,1.1,17.4,7.8,24.3c0.5,0.5,0.7,0.2,0.9-0.2c1.1-1.6,2.5-2.9,4-4.1c1.7-1.4,3.6-2.5,5.3-3.9c4.6-2.8,8.7-6.1,11.9-10.5
			c2.1-2.8,3.6-6,5.2-9.1c2.8-4.7,11-4.6,13.7,0c0.7,1.3,1.4,2.6,2.1,3.9c3.4,6.8,8.6,11.7,15.1,15.7c0.2,0.1,0.3,0.3,0.5,0.4
			c3.3,2.3,6.6,4.6,8.9,7.9c0.4,0.5,0.6,0.3,0.8,0c3.8-3.9,6.6-8.4,7.8-13.9c0.8-3.5,0.8-7-0.1-10.5c-0.8-4.6-2.7-8.8-5.3-12.8
			l-0.2-0.3l0,0c-0.1-0.2-0.2-0.5-0.4-0.7c-4.7-6.8-10.7-12.1-18.1-15.8c-8.4-4.1-17.3-5.3-26.4-3.4c-8.5,1.9-15.7,6.1-21.9,12.2
			C27.4,44.3,25.2,46.7,23.6,49.6L23.6,49.6L23.6,49.6z M93.1,92.3c0-0.2,0-0.5-0.2-0.6v-0.1c-0.6-2-1.8-3.5-3.2-5
			c-2.9-3.1-6.6-5.3-10-7.6c-3.8-2.6-7.1-5.7-9.8-9.5c-2-2.6-3.4-5.5-4.8-8.3c-1-2.1-2.8-2.9-5-2.9c-2.2,0-3.9,0.8-5,2.9
			c-0.7,1.3-1.3,2.6-2,3.9c-2.5,4.8-6,8.7-10.2,12.1c-3.6,2.7-7.4,5-10.9,7.9C30,87,28.1,89,27.2,91.8v0.1C27,91.9,27,92.2,27,92.4
			c-1,2.8-0.8,5.7-0.3,8.6c0.4,2.3,1.2,4.3,2.6,6.2c2.4,3.2,5.8,5,9.6,6.1c3.9,1.3,8,1.8,12.1,2.2c3.3,0.3,6.5,0.7,9.8,0.6
			c3.6-0.1,7.1-0.4,10.6-0.8c5-0.6,9.8-1.4,14.3-3.8c4.2-2.3,6.9-5.6,7.7-10.5C93.9,98,94.1,95.1,93.1,92.3L93.1,92.3z"/>
		<path class="st1" d="M26.6,100.9c-0.6-2.9-0.8-5.7,0.3-8.6c0.2-0.1,0.2-0.4,0.2-0.6v-0.1c0.5,0,0.6-0.5,0.8-0.8
			c0.8-0.9,1.4-1.9,2.3-2.6c2.6-2.2,5.7-3.6,8.6-5.3c3.5-2,6.4-4.7,8.9-7.7c2.3-2.7,4-5.8,5.5-9c1.1-2.5,2.8-4.2,5.8-4.5
			c2.7-0.2,5.4,0.8,6.5,2.9c0.8,1.7,1.8,3.4,2.6,5.1c2.3,4.2,5.3,7.7,9,10.8c2.6,2.2,5.8,3.6,8.7,5.3c2.4,1.4,4.7,3,6.2,5.4
			c0.2,0.2,0.3,0.5,0.6,0.5v0.1c0,0.2,0,0.5,0.2,0.6c1,2.8,0.8,5.7,0.3,8.6c-0.9,0.8-1.3,1.9-2.1,2.7c-2.8,3.3-6.6,5.2-10.6,6.3
			c-3.2,0.9-6.5,1.4-9.8,1.8c-3.8,0.4-7.5,0.8-11.3,0.8c-2.8,0-5.6-0.3-8.4-0.6c-4.1-0.4-8.2-0.9-12.1-2.1c-3.8-1.1-7.1-2.7-9.9-5.6
			C28.3,103.3,27.7,101.9,26.6,100.9L26.6,100.9z M56.3,73.9c0.8,0,1.4-0.8,1.2-1.6c-0.2-0.9-0.7-1.9-1.2-2.7
			c-0.6-0.8-1.6-0.7-2.2,0.1c-0.7,0.9,0.8,4,1.9,4.2C56.2,73.9,56.2,73.9,56.3,73.9L56.3,73.9z M63.8,73.9c0.4-0.1,0.8-0.1,1-0.5
			c0.5-0.8,1-1.8,1.2-2.8c0.1-0.7-0.2-1.1-0.8-1.4c-0.7-0.3-1.3-0.1-1.6,0.6c-0.4,0.8-0.8,1.6-1.1,2.3C62.2,73.2,62.8,74,63.8,73.9
			L63.8,73.9z"/>
		<path class="st2" d="M53.2,59.1c-1.6,3.1-3.1,6.3-5.2,9.1c-3.2,4.4-7.3,7.7-11.9,10.5c-0.3-0.2-0.7-0.3-0.9-0.5
			c-6.1-3.5-11.1-8.3-15.7-13.6c-0.5-0.6-1.4-1-1.3-2.1c0.4-3,1.5-5.8,2.8-8.4c0.8-1.5,1.4-3,2.4-4.2c0.4,0.2,0.2-0.2,0.2-0.3l0,0
			c0.7,0,1-0.4,1.4-0.8c3.3-3.2,7.1-5.4,11.3-7.2c7.1-3.2,14.7-4.4,22.5-4.7c2.6-0.1,5.3,0.2,8,0.4c4.1,0.4,8.3,1.1,12.2,2.4
			c6,2,11.6,4.7,16.2,9.1c0.4,0.4,0.8,0.8,1.3,0.7l0,0c0,0.1-0.2,0.5,0.2,0.3c2.6,3.8,4.5,8.1,5.3,12.8c0,0.4-0.2,0.7-0.4,0.9
			c-2.3,2.7-4.8,5.3-7.4,7.8c-3,2.9-6.5,5.3-10.1,7.4c-6.4-3.8-11.7-8.8-15.1-15.7c-0.7-1.3-1.3-2.6-2.1-3.9c0.8,0,2,0.1,2.3-0.8
			c0.4-0.9-0.5-1.5-1.2-2c-5.1-3.6-10.6-3.6-15.8-0.1c-0.8,0.5-1.7,1.1-1.4,2.1C51.2,59.2,52.3,59.1,53.2,59.1L53.2,59.1z
			 M81.8,54.1c-2.2,0.1-4.1,0.4-6,1.3c-1.4,0.8-2.4,1.7-2.6,3.4c-0.1,0.7,0.3,1.2,0.9,1.4c0.8,0.2,1.4-0.1,1.6-0.8
			c0.2-1,0.9-1.5,1.9-1.9c2.3-0.8,4.5-1,6.8-0.5c1.5,0.4,2.9,0.7,3.4,2.5c0.2,0.7,0.8,0.8,1.5,0.7c0.7-0.2,1-0.8,0.9-1.4
			c-0.1-1.2-0.8-2.1-1.7-2.8C86.4,54.5,84,54.1,81.8,54.1L81.8,54.1z M38.5,54.1c-2.2,0.1-4.1,0.4-6,1.3c-1.3,0.8-2.4,1.7-2.6,3.3
			c-0.1,0.8,0.2,1.3,0.9,1.5c0.8,0.2,1.4-0.1,1.6-0.8c0.2-1,0.9-1.5,1.8-1.8c2.3-0.9,4.5-1,6.8-0.5c1.5,0.4,3,0.7,3.5,2.5
			c0.2,0.7,0.8,0.8,1.5,0.6c0.7-0.2,0.9-0.7,0.9-1.3c-0.1-1.2-0.8-2.2-1.7-2.9C43.1,54.5,40.8,54.1,38.5,54.1L38.5,54.1z"/>
		<path class="st2" d="M96.4,49.6c-0.6,0-0.9-0.4-1.3-0.7c-4.6-4.5-10.1-7.2-16.2-9.1c-3.9-1.3-8.1-2.1-12.2-2.4
			c-2.6-0.2-5.3-0.5-8-0.4c-7.8,0.3-15.3,1.5-22.5,4.7c-4.1,1.8-8,4-11.3,7.2c-0.4,0.4-0.8,0.8-1.4,0.8c1.6-2.8,3.8-5.3,6.1-7.6
			C35.8,36,42.9,31.8,51.5,30c9.2-2.1,18-0.8,26.4,3.4C85.3,37,91.3,42.2,96,49.1C96.2,49.2,96.3,49.5,96.4,49.6z"/>
		<path class="st3" d="M26.6,100.9c1.1,0.9,1.7,2.3,2.7,3.4c2.8,2.8,6.2,4.5,9.9,5.6c3.9,1.1,8,1.7,12.1,2.1
			c2.8,0.3,5.6,0.6,8.4,0.6c3.8,0,7.5-0.4,11.3-0.8c3.3-0.4,6.6-0.9,9.8-1.8c4.1-1.1,7.8-3.1,10.6-6.3c0.8-0.8,1.1-2,2.1-2.7
			c-0.8,4.8-3.5,8.2-7.7,10.5c-4.5,2.4-9.4,3.3-14.3,3.8c-3.6,0.4-7.1,0.7-10.6,0.8c-3.3,0.1-6.6-0.3-9.8-0.6
			c-4.1-0.4-8.2-0.9-12.1-2.2c-3.8-1.2-7.1-2.9-9.6-6.1C27.9,105.3,27,103.2,26.6,100.9L26.6,100.9z"/>
		<path class="st4" d="M84,78.7c3.8-2,7.1-4.4,10.1-7.4c2.6-2.4,5.1-5.1,7.4-7.8c0.3-0.3,0.4-0.7,0.4-0.9c0.8,3.5,0.8,7,0.1,10.5
			c-1.1,5.4-3.9,9.9-7.8,13.9c-0.3,0.3-0.5,0.5-0.8,0c-2.4-3.3-5.6-5.6-8.9-7.9C84.3,79,84.1,78.9,84,78.7L84,78.7z"/>
		<path class="st4" d="M18.1,62.6c0,0.9,0.8,1.5,1.3,2.1c4.6,5.3,9.5,10.1,15.7,13.6c0.3,0.2,0.7,0.4,0.9,0.5
			c-1.7,1.4-3.6,2.5-5.3,3.9c-1.5,1.2-2.9,2.6-4,4.1c-0.3,0.4-0.5,0.7-0.9,0.2C19.2,80.2,16.1,72.2,18.1,62.6
			C18.1,62.7,18.1,62.6,18.1,62.6z"/>
		<path class="st5" d="M92.9,91.7c-0.3,0-0.5-0.2-0.6-0.5c-1.5-2.4-3.8-3.9-6.2-5.4c-2.9-1.7-6.1-3.1-8.7-5.3c-3.7-3-6.8-6.6-9-10.8
			c-0.9-1.7-1.8-3.4-2.6-5.1c-1-2.1-3.8-3.1-6.5-2.9c-3,0.2-4.7,2-5.8,4.5c-1.5,3.2-3.2,6.4-5.5,9c-2.6,3-5.4,5.7-8.9,7.7
			c-2.9,1.7-6,3.1-8.6,5.3c-0.9,0.8-1.6,1.7-2.3,2.6c-0.3,0.3-0.4,0.8-0.8,0.8c0.9-2.7,2.7-4.7,4.9-6.6C35.5,82,39.5,79.7,43,77
			c4.2-3.3,7.7-7.3,10.2-12.1c0.7-1.3,1.4-2.6,2-3.9c1-2.2,2.7-3,5-2.9c2.3,0,3.9,0.8,5,2.9c1.4,2.9,2.8,5.8,4.8,8.3
			c2.8,3.8,6.1,6.8,9.8,9.5c3.5,2.4,7.1,4.5,10,7.6C91,88.2,92.3,89.7,92.9,91.7L92.9,91.7z"/>
		<path class="st4" d="M53.2,59.1c-0.8,0-2,0.1-2.3-0.8c-0.4-1,0.7-1.6,1.4-2.1c5.1-3.5,10.7-3.5,15.8,0.1c0.7,0.5,1.6,1,1.2,2
			c-0.4,0.9-1.4,0.8-2.3,0.8C64.1,54.5,56,54.5,53.2,59.1z"/>
		<path class="st6" d="M23.6,49.6c0,0.1,0.2,0.5-0.2,0.3C23.5,49.8,23.5,49.7,23.6,49.6z"/>
		<path class="st6" d="M96.6,49.9c-0.4,0.2-0.2-0.2-0.2-0.3C96.5,49.7,96.6,49.8,96.6,49.9z"/>
		<path class="st5" d="M27.2,91.8c0,0.2,0,0.5-0.2,0.6C27,92.1,26.9,91.8,27.2,91.8z"/>
		<path class="st5" d="M93.1,92.3c-0.2-0.1-0.2-0.4-0.2-0.6C93.1,91.8,93.1,92.1,93.1,92.3z"/>
		<path class="st7" d="M56.3,73.9c-0.1,0-0.2,0-0.2,0c-1.1-0.2-2.5-3.2-1.9-4.2c0.5-0.8,1.6-0.8,2.2-0.1c0.6,0.8,0.9,1.7,1.2,2.7
			C57.7,73.3,57.2,73.9,56.3,73.9z"/>
		<path class="st7" d="M63.8,73.9c-0.9,0-1.5-0.8-1.2-1.8c0.3-0.8,0.7-1.6,1.1-2.3c0.4-0.7,0.9-0.8,1.6-0.6c0.7,0.2,0.9,0.8,0.8,1.4
			c-0.2,1-0.7,1.9-1.2,2.8C64.6,73.8,64.1,73.9,63.8,73.9L63.8,73.9z"/>
		<path class="st8" d="M81.8,54.1c2.3,0.1,4.6,0.5,6.7,1.9c0.9,0.7,1.6,1.6,1.7,2.8c0.1,0.7-0.3,1.2-0.9,1.4c-0.7,0.2-1.3,0-1.5-0.7
			c-0.5-1.8-2-2.2-3.4-2.5c-2.3-0.6-4.6-0.5-6.8,0.5c-0.8,0.4-1.6,0.8-1.9,1.9c-0.2,0.8-0.8,1-1.6,0.8c-0.7-0.2-1-0.8-0.9-1.4
			c0.1-1.7,1.2-2.6,2.6-3.4C77.5,54.4,79.6,54.1,81.8,54.1L81.8,54.1z"/>
		<path class="st8" d="M38.5,54.1c2.3,0.1,4.7,0.5,6.7,1.9c1,0.8,1.7,1.7,1.7,2.9c0,0.7-0.3,1.1-0.9,1.3c-0.7,0.2-1.3,0-1.5-0.6
			c-0.5-1.9-2-2.3-3.5-2.5c-2.3-0.6-4.6-0.4-6.8,0.5c-0.8,0.4-1.5,0.8-1.8,1.8c-0.2,0.8-0.8,1-1.6,0.8c-0.8-0.2-1-0.8-0.9-1.5
			c0.2-1.6,1.3-2.6,2.6-3.3C34.4,54.4,36.4,54.1,38.5,54.1L38.5,54.1z"/>
	</g>
</g>
</svg>
