<?xml version="1.0" encoding="UTF-8"?><svg id="Capa_1" xmlns="http://www.w3.org/2000/svg" viewBox="0 0 184.59 184.65"><defs><style>.cls-1{fill:#f6a120;}.cls-2{fill:#ffb14a;}.cls-3{fill:#db123d;}</style></defs><circle class="cls-1" cx="92.3" cy="92.29" r="92.29"/><path class="cls-2" d="M3.66,66.73c-14.16,49.02,14.05,100.15,63.08,114.31,29.66,8.52,61.53,1.77,85.1-18.15-9.85,2.32-47.03,10.07-85.54-10.4C16.16,125.93,5.1,73.81,3.66,66.73Z"/><polygon class="cls-3" points="78.8 55.44 86.65 56.77 80.9 62.19 82.12 70.05 75.15 66.18 68.06 69.83 69.5 61.97 63.97 56.44 71.83 55.44 75.37 48.36 78.8 55.44"/><polygon class="cls-3" points="117.53 55.44 125.39 56.77 119.63 62.19 120.85 70.05 113.88 66.18 106.79 69.83 108.23 61.97 102.7 56.44 110.56 55.44 114.1 48.36 117.53 55.44"/><polygon class="cls-3" points="62.75 86.98 70.61 88.2 64.85 93.62 66.07 101.48 59.1 97.71 52.02 101.26 53.46 93.51 47.92 87.87 55.78 86.87 59.32 79.79 62.75 86.98"/><polygon class="cls-3" points="97.83 86.98 105.69 88.2 99.93 93.62 101.15 101.48 94.18 97.71 87.21 101.26 88.65 93.51 83 87.87 90.86 86.87 94.51 79.79 97.83 86.98"/><polygon class="cls-3" points="133.02 86.98 140.77 88.2 135.01 93.62 136.34 101.48 129.37 97.71 122.29 101.26 123.73 93.51 118.19 87.87 125.94 86.87 129.59 79.79 133.02 86.98"/><polygon class="cls-3" points="78.8 115.75 86.65 116.97 80.9 122.39 82.12 130.25 75.15 126.38 68.06 130.03 69.5 122.28 63.97 116.64 71.83 115.64 75.37 108.56 78.8 115.75"/><polygon class="cls-3" points="117.53 117.74 125.39 118.96 119.63 124.38 120.85 132.24 113.88 128.48 106.79 132.02 108.23 124.27 102.7 118.63 110.56 117.63 114.1 110.55 117.53 117.74"/><path class="cls-2" d="M105.8,26.78c26.12,1.99,40.06,20.25,50.57,42.16,4.43,9.3,18.37,1.22,13.83-8.08-13.28-27.55-32.42-47.7-64.4-50.13-10.29-.77-10.29,15.27,0,16.05h0Z"/><path class="cls-2" d="M162.68,92.07l1.77,3.43c2.21,3.87,7.19,5.09,10.96,2.88,1.77-1.11,3.1-2.77,3.65-4.76,.44-2.1,.22-4.32-.77-6.2l-1.77-3.43c-2.21-3.87-7.19-5.09-10.96-2.88-1.77,1.11-3.1,2.77-3.65,4.76-.44,2.1-.22,4.32,.77,6.2h0Z"/></svg>