<?xml version="1.0" encoding="UTF-8"?><svg id="Capa_1" xmlns="http://www.w3.org/2000/svg" viewBox="0 0 69.46 71.45"><defs><style>.cls-1{fill:#f6a120;}.cls-2{fill:#ffb14a;}.cls-3{fill:#db123d;}</style></defs><circle class="cls-1" cx="8.34" cy="21.58" r="8.34"/><path class="cls-2" d="M.33,19.27c-1.28,4.43,1.27,9.05,5.7,10.33,2.68,.77,5.56,.16,7.69-1.64-.89,.21-4.25,.91-7.73-.94C1.46,24.62,.45,19.91,.33,19.27Z"/><polygon class="cls-3" points="6.97 19.82 7.68 19.93 7.16 20.43 7.27 21.13 6.64 20.79 6 21.11 6.14 20.41 5.63 19.91 6.34 19.81 6.67 19.18 6.97 19.82"/><polygon class="cls-3" points="10.66 22.49 11.36 22.61 10.84 23.1 10.95 23.8 10.33 23.46 9.69 23.79 9.82 23.08 9.32 22.58 10.02 22.48 10.35 21.85 10.66 22.49"/><path class="cls-2" d="M9.49,15.77c2.36,.18,3.62,1.83,4.57,3.81,.4,.84,1.66,.11,1.25-.73-1.2-2.49-2.93-4.31-5.82-4.53-.93-.07-.93,1.38,0,1.45Z"/><path class="cls-2" d="M14.64,21.67l.16,.31c.2,.35,.65,.46,.99,.26,.16-.1,.28-.25,.33-.43,.04-.19,.02-.39-.07-.56l-.16-.31c-.2-.35-.65-.46-.99-.26-.16,.1-.28,.25-.33,.43-.04,.19-.02,.39,.07,.56Z"/><circle class="cls-1" cx="61.12" cy="48.78" r="8.34"/><path class="cls-2" d="M53.1,46.47c-1.28,4.43,1.27,9.05,5.7,10.33,2.68,.77,5.56,.16,7.69-1.64-.89,.21-4.25,.91-7.73-.94-4.53-2.4-5.53-7.11-5.66-7.75Z"/><polygon class="cls-3" points="58.48 45.57 59.18 45.69 58.66 46.18 58.77 46.88 58.15 46.54 57.51 46.87 57.64 46.16 57.13 45.66 57.84 45.56 58.17 44.93 58.48 45.57"/><polygon class="cls-3" points="64.34 45.57 65.04 45.69 64.52 46.18 64.63 46.88 64.01 46.54 63.37 46.87 63.5 46.16 63 45.66 63.7 45.56 64.03 44.93 64.34 45.57"/><polygon class="cls-3" points="61.41 48.06 62.12 48.18 61.6 48.67 61.71 49.37 61.08 49.03 60.44 49.36 60.57 48.65 60.07 48.15 60.78 48.05 61.1 47.42 61.41 48.06"/><polygon class="cls-3" points="57.63 50.06 58.33 50.17 57.81 50.66 57.92 51.37 57.3 51.03 56.66 51.35 56.79 50.65 56.29 50.14 56.99 50.05 57.32 49.41 57.63 50.06"/><polygon class="cls-3" points="61.41 52.05 62.12 52.17 61.6 52.66 61.71 53.36 61.08 53.02 60.44 53.35 60.57 52.64 60.07 52.14 60.78 52.04 61.1 51.41 61.41 52.05"/><polygon class="cls-3" points="65.24 50.06 65.95 50.17 65.43 50.66 65.54 51.37 64.91 51.03 64.28 51.35 64.41 50.65 63.9 50.14 64.61 50.05 64.94 49.41 65.24 50.06"/><path class="cls-2" d="M62.27,42.97c2.36,.18,3.62,1.83,4.57,3.81,.4,.84,1.66,.11,1.25-.73-1.2-2.49-2.93-4.31-5.82-4.53-.93-.07-.93,1.38,0,1.45h0Z"/><path class="cls-2" d="M67.41,48.87l.16,.31c.2,.35,.65,.46,.99,.26,.16-.1,.28-.25,.33-.43,.04-.19,.02-.39-.07-.56l-.16-.31c-.2-.35-.65-.46-.99-.26-.16,.1-.28,.25-.33,.43-.04,.19-.02,.39,.07,.56h0Z"/><circle class="cls-1" cx="33.91" cy="8.34" r="8.34"/><path class="cls-2" d="M25.9,6.03c-1.28,4.43,1.27,9.05,5.7,10.33,2.68,.77,5.56,.16,7.69-1.64-.89,.21-4.25,.91-7.73-.94-4.53-2.4-5.53-7.11-5.66-7.75Z"/><path class="cls-2" d="M34.58,2.63c2.36,.18,3.62,1.83,4.57,3.81,.4,.84,1.66,.11,1.25-.73-1.2-2.49-2.93-4.31-5.82-4.53-.93-.07-.93,1.38,0,1.45h0Z"/><path class="cls-2" d="M39.72,8.53l.16,.31c.2,.35,.65,.46,.99,.26,.16-.1,.28-.25,.33-.43,.04-.19,.02-.39-.07-.56l-.16-.31c-.2-.35-.65-.46-.99-.26-.16,.1-.28,.25-.33,.43-.04,.19-.02,.39,.07,.56Z"/><polygon class="cls-3" points="34.23 8.01 34.94 8.12 34.42 8.61 34.53 9.32 33.9 8.98 33.26 9.3 33.4 8.6 32.89 8.09 33.6 8 33.93 7.36 34.23 8.01"/><circle class="cls-1" cx="60.03" cy="21.58" r="8.34"/><path class="cls-2" d="M52.01,19.27c-1.28,4.43,1.27,9.05,5.7,10.33,2.68,.77,5.56,.16,7.69-1.64-.89,.21-4.25,.91-7.73-.94-4.53-2.4-5.53-7.11-5.66-7.75Z"/><polygon class="cls-3" points="60.26 18.71 60.96 18.82 60.44 19.31 60.55 20.02 59.93 19.68 59.29 20 59.42 19.3 58.91 18.79 59.62 18.7 59.95 18.06 60.26 18.71"/><polygon class="cls-3" points="57.72 22.7 58.42 22.81 57.9 23.3 58.02 24.01 57.39 23.67 56.75 23.99 56.88 23.29 56.38 22.78 57.08 22.69 57.41 22.05 57.72 22.7"/><polygon class="cls-3" points="63.7 22.15 64.41 22.27 63.89 22.76 64 23.47 63.37 23.12 62.73 23.45 62.87 22.74 62.36 22.24 63.07 22.15 63.39 21.51 63.7 22.15"/><path class="cls-2" d="M61.06,15.58c2.36,.18,3.62,1.83,4.57,3.81,.4,.84,1.66,.11,1.25-.73-1.2-2.49-2.93-4.31-5.82-4.53-.93-.07-.93,1.38,0,1.45Z"/><path class="cls-2" d="M66.21,21.48l.16,.31c.2,.35,.65,.46,.99,.26,.16-.1,.28-.25,.33-.43,.04-.19,.02-.39-.07-.56l-.16-.31c-.2-.35-.65-.46-.99-.26-.16,.1-.28,.25-.33,.43-.04,.19-.02,.39,.07,.56h0Z"/><circle class="cls-1" cx="9.25" cy="48.78" r="8.34"/><path class="cls-2" d="M1.24,46.47c-1.28,4.43,1.27,9.05,5.7,10.33,2.68,.77,5.56,.16,7.69-1.64-.89,.21-4.25,.91-7.73-.94-4.53-2.4-5.53-7.11-5.66-7.75Z"/><polygon class="cls-3" points="9.63 45.13 10.33 45.24 9.81 45.73 9.92 46.44 9.3 46.1 8.66 46.42 8.79 45.72 8.29 45.21 8.99 45.12 9.32 44.48 9.63 45.13"/><polygon class="cls-3" points="6.76 48.39 7.46 48.51 6.94 49 7.06 49.7 6.43 49.36 5.79 49.68 5.92 48.98 5.42 48.48 6.13 48.38 6.45 47.75 6.76 48.39"/><polygon class="cls-3" points="12.56 48.39 13.27 48.51 12.75 49 12.86 49.7 12.23 49.36 11.59 49.68 11.72 48.98 11.22 48.48 11.93 48.38 12.25 47.75 12.56 48.39"/><polygon class="cls-3" points="9.63 51.66 10.33 51.77 9.81 52.26 9.92 52.97 9.3 52.63 8.66 52.95 8.79 52.25 8.29 51.74 8.99 51.65 9.32 51.01 9.63 51.66"/><path class="cls-2" d="M10.4,42.74c2.36,.18,3.62,1.83,4.57,3.81,.4,.84,1.66,.11,1.25-.73-1.2-2.49-2.93-4.31-5.82-4.53-.93-.07-.93,1.38,0,1.45h0Z"/><path class="cls-2" d="M15.55,48.64l.16,.31c.2,.35,.65,.46,.99,.26,.16-.1,.28-.25,.33-.43,.04-.19,.02-.39-.07-.56l-.16-.31c-.2-.35-.65-.46-.99-.26-.16,.1-.28,.25-.33,.43-.04,.19-.02,.39,.07,.56h0Z"/><circle class="cls-1" cx="33.91" cy="35.73" r="8.34"/><path class="cls-2" d="M25.9,33.41c-1.28,4.43,1.27,9.05,5.7,10.33,2.68,.77,5.56,.16,7.69-1.64-.89,.21-4.25,.91-7.73-.94-4.53-2.4-5.53-7.11-5.66-7.75Z"/><polygon class="cls-3" points="34.38 32.72 35.08 32.83 34.56 33.32 34.67 34.03 34.04 33.69 33.41 34.01 33.54 33.31 33.03 32.8 33.74 32.71 34.07 32.07 34.38 32.72"/><polygon class="cls-3" points="32.06 34.62 32.76 34.74 32.24 35.23 32.35 35.93 31.73 35.59 31.09 35.92 31.22 35.21 30.71 34.71 31.42 34.61 31.75 33.98 32.06 34.62"/><polygon class="cls-3" points="32.78 37.34 33.49 37.46 32.97 37.95 33.08 38.65 32.45 38.31 31.81 38.64 31.94 37.93 31.44 37.43 32.15 37.33 32.47 36.7 32.78 37.34"/><polygon class="cls-3" points="37.13 34.62 37.84 34.74 37.32 35.23 37.43 35.93 36.8 35.59 36.17 35.92 36.3 35.21 35.79 34.71 36.5 34.61 36.83 33.98 37.13 34.62"/><polygon class="cls-3" points="36.05 37.34 36.75 37.46 36.23 37.95 36.34 38.65 35.72 38.31 35.08 38.64 35.21 37.93 34.7 37.43 35.41 37.33 35.74 36.7 36.05 37.34"/><path class="cls-2" d="M35.12,29.79c2.36,.18,3.62,1.83,4.57,3.81,.4,.84,1.66,.11,1.25-.73-1.2-2.49-2.93-4.31-5.82-4.53-.93-.07-.93,1.38,0,1.45h0Z"/><path class="cls-2" d="M40.26,35.69l.16,.31c.2,.35,.65,.46,.99,.26,.16-.1,.28-.25,.33-.43,.04-.19,.02-.39-.07-.56l-.16-.31c-.2-.35-.65-.46-.99-.26-.16,.1-.28,.25-.33,.43-.04,.19-.02,.39,.07,.56Z"/><circle class="cls-1" cx="33.91" cy="63.11" r="8.34"/><path class="cls-2" d="M25.9,60.8c-1.28,4.43,1.27,9.05,5.7,10.33,2.68,.77,5.56,.16,7.69-1.64-.89,.21-4.25,.91-7.73-.94-4.53-2.4-5.53-7.11-5.66-7.75Z"/><polygon class="cls-3" points="32.69 59.78 33.4 59.9 32.88 60.39 32.99 61.1 32.36 60.75 31.72 61.08 31.85 60.37 31.35 59.87 32.06 59.78 32.38 59.14 32.69 59.78"/><polygon class="cls-3" points="36.19 59.78 36.9 59.9 36.38 60.39 36.49 61.1 35.86 60.75 35.22 61.08 35.35 60.37 34.85 59.87 35.56 59.78 35.88 59.14 36.19 59.78"/><polygon class="cls-3" points="31.24 62.63 31.95 62.74 31.43 63.23 31.54 63.94 30.91 63.6 30.27 63.92 30.4 63.22 29.9 62.71 30.61 62.62 30.93 61.98 31.24 62.63"/><polygon class="cls-3" points="34.41 62.63 35.12 62.74 34.6 63.23 34.71 63.94 34.08 63.6 33.45 63.92 33.58 63.22 33.07 62.71 33.78 62.62 34.11 61.98 34.41 62.63"/><polygon class="cls-3" points="37.59 62.63 38.29 62.74 37.77 63.23 37.89 63.94 37.26 63.6 36.62 63.92 36.75 63.22 36.25 62.71 36.95 62.62 37.28 61.98 37.59 62.63"/><polygon class="cls-3" points="32.69 65.23 33.4 65.34 32.88 65.83 32.99 66.54 32.36 66.19 31.72 66.52 31.85 65.82 31.35 65.31 32.06 65.22 32.38 64.58 32.69 65.23"/><polygon class="cls-3" points="36.19 65.41 36.9 65.52 36.38 66.01 36.49 66.72 35.86 66.38 35.22 66.7 35.35 66 34.85 65.49 35.56 65.4 35.88 64.76 36.19 65.41"/><path class="cls-2" d="M35.13,57.19c2.36,.18,3.62,1.83,4.57,3.81,.4,.84,1.66,.11,1.25-.73-1.2-2.49-2.93-4.31-5.82-4.53-.93-.07-.93,1.38,0,1.45h0Z"/><path class="cls-2" d="M40.27,63.09l.16,.31c.2,.35,.65,.46,.99,.26,.16-.1,.28-.25,.33-.43,.04-.19,.02-.39-.07-.56l-.16-.31c-.2-.35-.65-.46-.99-.26-.16,.1-.28,.25-.33,.43-.04,.19-.02,.39,.07,.56h0Z"/></svg>