<?xml version="1.0" encoding="utf-8"?>
<!-- Generator: Adobe Illustrator 27.0.0, SVG Export Plug-In . SVG Version: 6.00 Build 0)  -->
<svg version="1.1" id="Capa_1" xmlns="http://www.w3.org/2000/svg" xmlns:xlink="http://www.w3.org/1999/xlink" x="0px" y="0px"
	 viewBox="0 0 2302.5 432" style="enable-background:new 0 0 2302.5 432;" xml:space="preserve">
<style type="text/css">
	.st0{fill:#FFE114;}
	.st1{fill:#CC0921;}
	.st2{fill:#E99C23;}
	.st3{fill:#CC081F;}
	.st4{enable-background:new    ;}
</style>
<path class="st0" d="M59.6,0h2183.4c32.9,0,59.6,26.7,59.6,59.6v312.9c0,32.9-26.7,59.6-59.6,59.6H59.6C26.7,432,0,405.3,0,372.4
	V59.6C0,26.7,26.7,0,59.6,0z"/>
<polygon class="st1" points="2114.7,282.5 2100.6,268.4 2152.9,216 2100.6,163.6 2114.7,149.5 2181.2,216 "/>
<g id="layer3">
	<g id="g3039">
		<g id="g3032">
			<g id="path3967">
				<path d="M885.3,118.8h-0.8l-179.8,0.8c-1.8,0-2.3-0.1-2.7,1.7l-29.9,127.9c-0.4,2-0.6,2.1,0.8,0.6l46.7-47.1
					c1.1-1.1,1.1-1.4,2,0.1l7.2,12.7c0.7,1.3,0.6,1.4-0.3,2.6L650.5,312c-0.8,1-1,1,0.4,1l169.7,0.3c1.1,0,1.3,0,1.7-1.1L862.8,182
					c0.7-2.3,0.8-2.4-0.8-0.7l-53.2,48c-0.5,0.5-0.9,0.4-1.1-0.3l-3.5-7.8c-0.4-0.9-0.4-1,0.3-1.8l80.8-99.6
					C885.9,118.9,886,118.8,885.3,118.8L885.3,118.8z M763.2,177.5c0,0,0.4,0-0.1,0.7l-9.8,11.2c0,0-0.6,0.6-1.4,0.6h-18.1
					c-1.1-0.3-1.4,0-0.4-1l9.9-10.6c0,0,0.7-0.7,1.6-0.7h17.7c0,0,0.4-0.1,0.6-0.1L763.2,177.5L763.2,177.5z M785.2,243h0.7l6.5,0.3
					c0.9,0,1,0.3,0.3,1l-11.6,9.9c-0.8,0.7-1.1,0.7-2.1,0.7h-3.8c-1.1-0.3-1.3-0.1-0.4-1l9.1-9.9c0,0,0.8-0.9,1.4-0.9l0,0L785.2,243
					L785.2,243z"/>
				<path d="M820.5,313.5L820.5,313.5l-169.7-0.3c-0.8,0-1.1,0-1.3-0.3c0-0.3,0-0.4,0.4-0.9c0,0,0.1-0.1,0.3-0.3l78.1-93.8l0,0
					c0.6-0.8,0.7-1.5,0.3-2.3l-7.2-12.7c0,0-0.6-1-0.7-1l-0.6,0.6c0,0-0.1,0.1-0.3,0.3L673.1,250c-1,1-1.1,1.1-1.4,1
					c-0.3-0.1-0.1-0.4,0-1.4v-0.4l30.2-127.8c0.4-1.8,0.8-1.8,2.5-1.8h0.4l179.6-1h0.8c0,0,0.6,0,0.7,0.3c0,0.3,0,0.6-0.6,1.1
					l-81,99.8c0,0-0.6,0.7-0.3,1.4l3.7,8.1c0,0,0,0.3,0.1,0.3c0,0,0.1-0.1,0.3-0.3l0,0l53.2-48.1c1.1-1.1,1.4-1.3,1.7-1.1
					s0.1,0.4-0.1,1.6v0.6l-40.8,130.1C821.9,313.4,821.7,313.6,820.5,313.5L820.5,313.5z M650.8,312.8l169.7,0.3l0,0
					c0.7,0,1.1-0.3,1.3-1L862.2,182v-0.6c0,0,0.3-0.6,0.4-0.7c-0.3,0.1-0.6,0.6-0.8,0.9l-53.4,48.1c0,0-0.6,0.4-0.8,0.4
					s-0.3-0.3-0.6-0.7l0,0l-3.5-8.1c-0.4-0.9-0.4-1.1,0.3-2l81.2-99.8c0,0,0.3-0.4,0.4-0.6h-0.8l-179.8,0.8h-0.4c-1.4,0-1.6,0-2,1.6
					l-30,128.4v0.6c0.1-0.1,0.4-0.4,0.6-0.6l0,0l46.7-47.1l0.3-0.3c0.4-0.4,0.7-0.7,1-0.7c0.4,0,0.6,0.4,1,1.3l7.2,12.7
					c0.7,1.4,0.6,1.7-0.3,2.7l0,0l-78.1,94c0,0-0.1,0.3-0.3,0.3c0,0-0.1,0.1-0.1,0.3h0.6L650.8,312.8L650.8,312.8z M779.3,255.2
					h-4.4c0,0-0.8-0.3-1-0.4c0-0.3,0-0.4,0.6-1l0,0l9.1-10.1c0.6-0.7,1-0.9,1.7-1h0.6l6.7,0.3c0.8,0,1.1,0,1.1,0.3s0,0.4-0.8,1l0,0
					l-11.6,9.9c-0.7,0.6-1.1,0.7-1.8,0.7L779.3,255.2L779.3,255.2z M774.5,254.5h0.7l3.8,0.1c1,0,1.3,0,2-0.6l11.6-9.9
					c0,0,0.4-0.3,0.6-0.4h-0.7l-6.5-0.3h-0.6c0,0-0.7,0.1-1.3,0.7l-9.1,10.1c0,0-0.1,0.3-0.3,0.3H774.5L774.5,254.5z M752,190.2
					h-18.3c0,0-0.3-0.1-0.4-0.1c-0.4,0-0.7,0-0.8-0.3c0-0.3,0-0.4,0.6-1l9.9-10.6c0,0,0.8-0.9,1.8-0.9h17.5l0.3-0.1h0.3
					c0.1,0,0.4,0,0.6,0.3c0,0.3,0,0.4-0.6,1l-9.8,11.2c0,0-0.7,0.6-1.4,0.6L752,190.2L752,190.2z M733.6,189.5h18.1
					c0.7,0.3,0.7,0.1,1.1-0.3l9.8-11.2c0,0,0.1-0.1,0.3-0.3h-18.3c-0.8,0-0.8,0.3-1.4,0.7l-9.9,10.6c0,0-0.3,0.3-0.3,0.4H733.6
					L733.6,189.5z"/>
			</g>
			<g id="path3836">
				<path class="st1" d="M711.4,128.5l153.3-0.3c1,0,1.2,0.3,0.6,1L793,217.4c-0.7,1-0.6,1-0.3,2l5,12.7c0.3,0.8,0,1.1-0.8,1.1h-16
					c-1,0.1-1.1,0.3-1.7,1l-22.1,27.9c-1,1.1-0.8,1,0.6,1l24.1,0.6c1.1,0,1.4,0,2.1-0.7l60.9-54.4c1.1-1,1.3-1.4,0.7,0.3l-29.9,94
					c-0.3,1.1-0.4,1.1-1.6,1.1H670.8c-1.8,0-1.8,0.1-0.7-1.1l69.8-83.8c0.6-0.7,0.7-1.3,0.3-2l-8.2-15.3c-0.8-1.7-1-1.6,0.8-1.6
					l22.4-0.4c1.4,0,1.7,0,2.5-1.1l23.9-29.4c0.8-1.1,0.8-1-0.6-1h-40.6c-1.7,0.1-1.8,0.4-2.7,1.4L690,219.1c-2.1,2.3-1.7,2-1-0.7
					l20.2-88.7c0.3-1.4,0.4-1.3,1.8-1.3l0,0L711.4,128.5L711.4,128.5z"/>
				<path class="st1" d="M670.3,304.5c0,0-0.8,0-0.8-0.3s0-0.4,0.6-1.1l0.3-0.3l69.8-83.8c0.5-0.6,0.6-1.1,0.3-1.6l0,0l-8.3-15.9
					c-0.3-0.7-0.4-1-0.3-1.3s0.4-0.3,1.3-0.3h0.4l22.4-0.4c1.4,0,1.6,0,2.3-1l24.1-29.6c0,0,0.3-0.3,0.4-0.4h-0.8l-40.6,0.1
					c-1.4,0-1.6,0.1-2.4,1l-0.3,0.3l-47.7,49.4l-0.4,0.4c-1,1-1.1,1.3-1.4,1.1c-0.3,0-0.1-0.4,0-1.3c0-0.3,0.1-0.7,0.3-1.3
					l20.2-88.7c0.3-1.4,0.6-1.4,1.7-1.4h0.3l153.3-0.3h0.3c0,0,1,0,1.1,0.3c0,0.3,0,0.6-0.7,1.3l-72.2,88.2c0,0-0.6,0.7-0.3,1.3v0.4
					l5,12.7c0,0,0.4,1,0.3,1.3s-0.4,0.3-1,0.3h-0.3l-16,0.1c-0.7,0-1.2,0.2-1.6,0.7l-22.1,27.9c0,0-0.4,0.4-0.4,0.6h0.8l24.1,0.6
					c1.1,0,1.3,0,2-0.6l60.9-54.4c0,0,0.4-0.3,0.6-0.4c0.4-0.4,0.7-0.6,0.8-0.4c0.3,0.1,0.1,0.3-0.1,1.4l-29.9,94
					c-0.4,1.3-0.6,1.3-1.7,1.3L670.3,304.5L670.3,304.5z M670,303.9h144.2c0.6,0,0.9-0.3,1.1-1l29.9-94v-0.4c0,0-0.3,0.3-0.4,0.4
					L784,263.3c-0.8,0.7-1.3,0.7-2.4,0.7l-24.3-0.6c0,0-0.8,0-1-0.3c0-0.3,0-0.6,0.6-1.1l22.1-27.9c0.6-0.7,0.8-0.9,2-0.9H797
					l0.6-0.1c0-0.1-0.1-0.6-0.3-0.7l-5.1-12.9v-0.4c-0.3-0.7-0.3-1,0.4-1.8l72.5-88c0,0,0.4-0.4,0.6-0.7h-0.8l-153.3,0.3h-0.3
					c-0.7,0-1.1,0.3-1.3,1l-20.2,88.7c0,0-0.3,0.9-0.3,1.3v0.3c0.1-0.1,0.3-0.4,0.6-0.6l0.4-0.4l48-49.5c0.8-0.9,1.1-1.1,2.7-1.1
					H782c0,0,1-0.3,1.1,0c0,0.3,0,0.4-0.6,1.1l0,0l-23.9,29.6c-0.8,1.1-1.3,1.3-2.7,1.3l-22.8,0.4h-0.7c0,0,0.1,0.4,0.3,0.7l0.3,0.4
					l8.3,15.4c0.6,1,0.6,1.1-0.4,2.1l-70.1,84.1c0,0-0.3,0.4-0.4,0.4L670,303.9L670,303.9z"/>
			</g>
		</g>
		<g id="g3015">
			<g id="path3944">
				<path d="M144.8,124.4c-2,0-4.1,0-6.1,0.3c-0.7,0-0.9,0.4-0.9,1.1l11.2,76c0.3,1.1,0.1,1,1.3,1.3l3.7,0.7c1,0.1,1.1,0.3,1.4,1.4
					l15,91.7c0.3,1.8,0.6,2,2.1,1.8c5.7-0.4,15.4-5.4,26.3-11.5c1.6-0.9,2-1.4,1,0.4l-2.6,4.8c-0.3,0.6-0.1,0.9,0.4,1
					c12.9,2.5,27.6,2.3,41.5,3.4c0.8,0,1.2-0.3,1.4-1l0.9-3.5c0.3-1.6,0.3-1.3,1,0l3.8,8.1c0.4,1,0.6,0.7,1.4,0.4l39.2-14.3
					c1.3-0.4,1.1-0.4,0.6-1.6l-3.3-6.2c-0.6-1.1-0.7-1,0.4-1.3h1.4c1-0.3,1.1-0.3,1.3-1.3l1.1-5.5c0.4-2.1,0.3-2,0.7,0l4.2,23.1
					c0.3,1.6,0.3,1.4,1.7,1.1l15.9-2.5c1.1-0.3,1.3,0,2,0.4c19.8,14.6,39.9,13.9,60.7-5.5c0.7-0.6,0.9-0.4,1.6,0
					c2.4,1,5.1,1.4,8.1,1.7c0.8,0,1.1,0.3,1,1l-0.7,11.8c0,1,0,0.9,1,0.9h44c1-0.1,1-0.3,1-1.3l1.1-7.2c0.3-1.4,0.1-1.1,0.9,0
					l4.2,7.4c0.6,0.9,0.7,0.9,1.6,0.9h30.1c1.6,0.1,1.4,0.3,1.4-1.3l0.9-32.4c0-2.5,0-3.5,0.1-3.7c0,0.1,0,1.6,0.3,3.7l2.1,29.2
					c0,1.4,0.3,1.6,1.3,1.8c14.1,3.5,24.6,1.7,35,0.3c1.1,0,0.9,0.4,1.6,0.4l32.5,2.7c1.6,0,1.4,0.3,1.7-1.1l3.1-21.1
					c0.2-1.4,0.4-1.4,0.6,0l2.5,18.3c0.1,1.4,0.3,1.3,1.6,1l38.5-5.8c1.3-0.3,1.1-0.1,1-1.3l-1.3-5.8c-0.3-1,0-1,0.8-1.1l5.5-1.1
					c0.7-0.2,1,0,1,0.7v3.4l-1.1,9.5c-0.1,1.4-0.1,1.3,1.1,1.3l54.8-1.6c1.1,0,1.8-0.5,2-1.6l12.2-60c0.3-1.4,0-1.1-1.1-0.9
					l-21.8,5.2c-1.4,0.4-1.6,0.6-1.3-0.9l16.4-92.3c0.1-1.3,0-1-1.1-0.7l-38.5,9.3c-1.1,0.3-1.1,0.4-1.3,1.4L606.5,229
					c-0.1,0.7,0,1-0.7,1h-1c-0.7,0-0.6-0.3-0.6-1l4.7-68.1c0-0.8-0.4-1.2-1.1-1l-35.2,6.8c-1.3,0.3-1.3,0.1-1.3,1.3l-0.8,10.6
					c0,2,0,1.8-0.6,0l-2.4-9.6c-0.3-1.1-0.3-1-1.3-0.9l-37.4,4.2c-1,0-1,0.1-1.3,1.1l-1.6,7.4c-0.3,1.1-0.3,1-1,0.4
					c-17.1-10.5-38.4-5.5-58.9-2.8c-0.7,0-1.4,0.1-2.1,0l-27.5-0.4c-1.3,0-1.3-0.1-1.4,1l-0.7,15.1c0,2.1,0,1.6-1,0l-8.5-15.9
					c-0.4-0.7-0.6-0.7-1.4-0.7l-25.5-0.9c-0.8,0-1.3,0.3-1.4,1l-4.2,31.6c0,1.1-0.1,1-1.3,1l-2.8-0.3c-1.1-0.1-1.1,0-1-1.1l1.3-15.6
					c0-0.9,0-1.4-0.4-2c-19.4-30.7-58.3-25.8-79-9.8c-0.8,0.6-1.2,0.4-1.4-0.6l-3.8-13c-0.3-0.9-0.8-1.5-1.7-1.7l-35.5-6.9
					c-0.8-0.2-1.2,0.1-1.3,0.7l-0.4,1.8c-0.3,1.3-0.3,1-1,0.3c-15.1-14.7-32.7-23.6-55.5-20.7c-1.3,0.1-1.3,0.3-1.3,1.4l-0.6,7.6
					c0,1.6,0,1.7-1.1,0.7C184.9,133.3,164.5,124.4,144.8,124.4L144.8,124.4z M189.5,211.8c0,0,0.4,0,0.9,0.3
					c4.9,2.6,4.8,9.9,1.8,12.2c-0.9,0.7-1.1,0.7-1.3-0.7l-1.4-10.9V211.8L189.5,211.8z"/>
				<path d="M543.9,303.2h-1l-32.5-2.7c-0.4,0-0.6-0.1-0.7-0.3c-0.1,0-0.3-0.3-0.9-0.1l-1.7,0.3c-9.8,1.4-19.8,2.8-33.4-0.6
					c-1.3-0.3-1.4-0.6-1.6-2.1l-2.1-28.9l-0.9,32.4c0,1.4-0.3,1.4-1.7,1.4h-30.3c-1-0.1-1.1-0.3-1.8-1.1l-4.2-7.4
					c0,0-0.1-0.3-0.3-0.4v0.4l-1.1,7.4c0,0.9-0.3,1-1.3,1h-44c0,0-0.1,0.3-0.3,0.3c-0.4,0-0.7,0-0.9-0.1s-0.1-0.6-0.1-1l0.7-11.8
					v-0.6H383c-3.3-0.3-5.8-0.9-8.1-1.7h-0.1c0,0-0.7-0.4-1.1,0c-10.2,9.6-20.5,14.9-30.9,15.6c-9.9,0.7-20.1-2.5-30.1-10
					c-0.7-0.4-0.9-0.6-1.7-0.4l-16.3,2.7c0,0-1,0.1-1.3,0c-0.3-0.3-0.4-0.7-0.4-1.4l-4.4-23.5l0,0v0.6l-1.1,5.5
					c-0.1,1.1-0.3,1.1-1.4,1.3h-0.1l-1.6,0.1h-0.4v0.3c0,0,0.1,0.3,0.3,0.6l3.4,6.5c0,0,0.4,0.7,0.3,1c0,0.3-0.4,0.4-1.1,0.7
					l-39.2,14.3h-0.3c-0.7,0.3-1,0.3-1.4-0.7l-4.1-8.5c0,0,0-0.3-0.1-0.4c0,0.1,0,0.4-0.1,0.7l-0.9,3.5c-0.3,1.1-0.4,1.3-1.6,1.1
					h-0.1c-4.4-0.3-9.1-0.6-13.4-0.7c-9.5-0.4-19.2-0.9-28-2.5l0,0c0,0-0.7-0.1-0.9-0.4c0-0.3,0-0.6,0.3-1l2.6-4.8
					c0,0,0.3-0.4,0.4-0.7l0,0c-0.3,0-0.6,0.3-0.9,0.4c-9.6,5.4-20.4,11-26.5,11.5c-1.7,0-2.1,0-2.4-2l-15-91.7
					c-0.1-0.7-0.5-1.1-1.1-1.3l-3.7-0.7c-1-0.1-1.1-0.3-1.3-1.4l-11.5-75.9v-1c0.1-0.3,0.4-0.3,1-0.3l0,0c2-0.1,4.1-0.3,6.1-0.3l0,0
					h0.4c19.8,0,40.3,9.2,61,27.6c0.1,0.1,0.6,0.4,0.7,0.6v-1l0.6-7.6c0-1.3,0.1-1.6,1.6-1.7c20.7-2.8,38.4,3.8,55.8,20.7l0.3,0.3
					l0.1,0.1v-0.6l0.4-1.8c0,0,0.1-0.9,0.4-1s0.4,0,1,0h0.1l35.5,6.9c1.4,0.3,1.6,0.4,2,1.8l3.8,13.2c0,0,0.1,0.7,0.3,0.9
					c0,0,0.3-0.3,0.7-0.6l0,0c12.9-10.1,31.4-14.7,47.3-12c13.6,2.4,24.6,9.9,32.1,21.8c0.4,0.7,0.6,1.3,0.6,2.3l-1.3,15.6v0.7h0.9
					l3,0.3c0.5,0,0.8-0.2,0.9-0.7l4.2-31.6c0.1-1.1,0.3-1.3,1.4-1.3h0.3l25.6,0.9c0.7,0,1,0,1.4,0.9l8.8,16.3c0,0,0,0.3,0.1,0.4
					v-0.7l0.7-15.1c0,0,0-0.9,0.3-1.1c0.1-0.1,0.6-0.1,1-0.1h0.4l27.5,0.4h2.1c2.7-0.4,5.5-0.7,8.2-1.1c17.7-2.6,36-5.2,50.8,4h0.3
					l0.3,0.3c0,0,0-0.3,0.1-0.6l1.6-7.4c0.1-1,0.3-1.1,1.4-1.3l37.4-4.2h0.3c0.8,0,1,0,1.3,1.1l2.4,9.9l0,0l0.8-10.8
					c0-1.1,0.1-1.3,1.3-1.4h0.3l35.4-6.9c0.6,0,0.8-0.1,1,0c0.3,0.1,0.1,0.4,0.1,1.1l0,0l-4.7,68.2v0.7h1.3c0,0,0.4,0,0.4-0.4v-0.4
					l11.5-71.1c0.1-1.1,0.3-1.3,1.6-1.6l38.5-9.3h0.4c0.4,0,0.7-0.1,0.8,0c0.1,0.1,0.1,0.6,0,1.1L643,241v0.9h1.1l21.8-5.2h0.6
					c0.4,0,0.7-0.1,0.8,0c0.3,0.1,0.1,0.6,0,1.3l-12.2,60.2c-0.3,1.6-0.4,1.7-2.1,1.7l0,0l-54.8,1.6c-0.7,0-1,0-1.3-0.1
					c-0.3-0.3-0.1-0.6,0-1.3l0,0l1.1-9.6v-3.5l-0.1-0.6h-0.6l-5.8,1.1c-0.3,0-0.6,0-0.6,0.1v0.7l1.3,6.1c0,0,0.1,0.9,0,1
					c-0.1,0.3-0.4,0.3-1,0.4h-0.1l-38.9,5.9c-0.6,0-0.8,0.1-1.1,0s-0.3-0.6-0.4-1.3l-2.5-18.4l0,0l-3.1,21.4c-0.1,1-0.3,1.3-1,1.3
					L543.9,303.2L543.9,303.2z M509.2,299.5c0,0,0.7,0,0.9,0.3c0,0,0.1,0.1,0.4,0.1l33,2.7h0.8c0,0,0-0.4,0.1-0.9l0,0l3.1-21.5
					c0.1-1.4,0.1-1.6,0.6-1.6l0,0c0,0,0.3,0,0.4,1.4l2.5,18.7c0,0,0,0.9,0.1,0.9h1.1l38.5-5.8h0.1l0.7-0.1v-0.6l-1.3-6.1
					c0,0-0.1-0.9,0-1c0.1-0.3,0.4-0.3,0.8-0.4l5.8-1.1c0,0,0.8-0.1,1.1,0s0.3,0.4,0.3,1v3.5l-1.1,9.6v0.9h0.8l54.8-1.6
					c0.9,0,1.5-0.4,1.6-1.3l0,0l12.2-60.1v-0.7h-1l-21.8,5.2h-0.6c-0.6,0.1-0.8,0.3-1,0c-0.3-0.1-0.1-0.6,0-1.3l16.4-92.3v-0.6h-1
					l-38.5,9.3c-0.7,0.2-1,0.6-1.1,1.1l0,0l-11.5,71.1v0.4c0,0.6-0.1,0.7-0.8,0.9h-1.7c-0.1-0.1-0.1-0.4,0-0.7v-0.4l4.7-68.2v-0.7
					H608l-35.5,6.9c-0.5,0.1-0.8,0.4-0.8,1l-0.8,10.8c0,1-0.1,1.6-0.4,1.6c-0.3,0-0.5-0.4-0.6-1.3l-2.5-10.1
					c-0.1-0.6-0.3-0.8-0.7-0.7h-0.3l-37.4,4.2c-0.6,0-0.9,0.3-1,0.9l0,0l-1.6,7.4c0,0.6-0.1,0.9-0.4,1c-0.3,0-0.4,0-0.8-0.3H525
					c-14.9-9.2-33-6.6-50.5-4.1c-2.7,0.4-5.4,0.9-8.2,1.1c-0.7,0.1-1.4,0.1-2.1,0l-27.5-0.4h-1v0.7l-0.7,15.1c0,1.1,0,1.6-0.3,1.7
					c-0.3,0-0.4-0.1-0.9-1l-0.3-0.4l-8.5-15.9c0,0-0.4-0.6-1-0.6l-25.9-0.9c-0.5,0-0.8,0.3-0.9,0.9l-4.2,31.6c0,1.1-0.3,1.3-1.4,1.1
					l-3.4-0.3c-1,0-1-0.3-1-1.3l1.3-15.6c0-0.9,0-1.3-0.4-1.8c-7.5-11.8-18.4-19.2-31.8-21.5c-15.6-2.7-34,2-46.9,11.9l0,0
					c0,0-0.9,0.7-1.1,0.6c-0.3,0-0.4-0.4-0.6-1.1l-3.8-13.2c-0.2-0.9-0.7-1.4-1.6-1.6l-35.8-6.9h-0.6c0,0,0,0.3-0.1,0.6l-0.4,1.8
					c0,0-0.3,1-0.4,1c-0.3,0-0.4,0-0.7-0.4L264,162c-17.1-16.7-34.8-23.4-55.3-20.5c-0.7,0.1-1,0.5-1.1,1.3l-0.6,7.6
					c0,1,0,1.4-0.4,1.6c-0.3,0-0.7-0.1-1.3-0.7c-20-17.3-40.3-26.5-60-26.5h-0.4c-2,0-4.1,0-6.1,0.3H138v0.6l0,0l11.3,76.1
					c0.1,0.6,0.4,0.9,0.9,1l3.7,0.7c1.1,0.3,1.4,0.4,1.6,1.7l15,91.7c0.3,1.7,0.4,1.7,1.8,1.6c6.1-0.6,16.7-6.1,26.3-11.5
					c0.3-0.1,0.6-0.3,0.9-0.4c0.6-0.3,0.9-0.4,1-0.3c0.3,0.3,0,0.6-0.4,1.6l-2.6,4.8c0,0-0.1,0.4-0.3,0.6h0.4
					c8.8,1.7,18.5,2.1,28,2.5c4.4,0.1,9.1,0.4,13.4,0.7h0.1c0.6,0,0.9-0.3,1-0.9l0.9-3.5c0.1-0.9,0.3-1.3,0.6-1.3s0.4,0.3,0.7,0.9
					v0.3l4.1,8.1c0,0,0.2,0.1,0.7,0.4c0.7,0.4,0.1,0,0.3,0l39.2-14.3c0,0,0.7-0.3,0.9-0.4c0,0,0-0.3-0.3-0.6v-0.3l-3.4-6.2
					c0-0.3-0.1-0.4-0.3-0.6c-0.1-0.3-0.3-0.6-0.1-0.7c0-0.3,0.4-0.3,1-0.3h1.6c0.6-0.2,0.9-0.6,1-1.1l1.1-5.8
					c0.3-1.4,0.3-1.6,0.6-1.6l0,0c0,0,0.3,0.1,0.6,1.4v0.4l4.4,23.1c0,0.4,0.1,1,0.3,1h1.3l15.9-2.7c1.1-0.3,1.4,0,2.1,0.4
					c9.9,7.4,20,10.8,29.9,9.9c10.2-0.9,20.4-5.9,30.6-15.4c0.7-0.7,1.1-0.6,1.7-0.3h0.1c2.1,1,4.8,1.6,7.9,1.7h0.4
					c0.9,0,1,0.3,1,1.3l-0.7,11.8v0.6h44.7c0,0,0.7-0.1,0.7-0.7v-0.3l1.1-7.5c0-0.7,0.1-0.9,0.4-1c0.3,0,0.3,0.1,0.6,0.6
					c0,0,0.1,0.3,0.3,0.4l4.2,7.4c0.3,0.5,0.7,0.7,1.3,0.7l0,0l30.1,0.1h1.1v-1.1l0.9-32.4v-1.4c0-1.5,0-2.3,0.1-2.4l0.3-0.6v0.6
					c0,0,0.3,0.3,0.3,1.1c0,0.6,0,1.6,0.3,2.5l2.1,29.2c0,1.3,0.1,1.4,1.1,1.6c13.3,3.4,23.4,1.8,33.1,0.6l1.7-0.3h0.3L509.2,299.5
					L509.2,299.5z M191.2,225.1h-0.1c-0.3,0-0.4-0.6-0.6-1.3l-1.4-10.9v-1.1h0.3c0.1,0,0.4,0,0.9,0.3c2.4,1.3,3.8,3.5,4.1,6.5
					c0.1,2.6-0.7,4.9-2.3,6.2c-0.4,0.3-0.7,0.4-1,0.4L191.2,225.1L191.2,225.1z M189.5,212v0.7l1.4,10.9c0,0.7,0.1,0.9,0.1,0.9
					s0.6-0.3,0.7-0.4c1.4-1,2.3-3.3,2-5.7c-0.3-2.7-1.6-4.9-3.8-6.1c-0.1,0-0.4-0.3-0.6-0.3L189.5,212L189.5,212z M189.5,211.8v0.3
					l0,0V211.8z"/>
			</g>
			<g id="path3047">
				<path class="st0" d="M216.3,149.6c0,0-0.4,0.3-0.6,1l-0.6,8.8c0,0.9,0,1.1,0.4,1.8c30.4,45.3,20.2,90.2-5.7,117.3
					c-0.6,0.6-0.7,0.9-0.9,1.7l-0.4,6.1c0,1.1,0,1,1,1.1l22.6,2c1,0,1,0.1,1-0.7l3-28c0.1-1.6,0-1.4,0.7,0l12.2,28.9
					c0.3,0.8,0.8,1,1.6,0.7l24.3-8.6c1.4-0.6,1.3-0.4,0.6-1.7l-25.9-41c-0.4-0.7-0.3-1.2,0.1-1.6c43.3-26.5,16.6-86.3-33.4-87.6
					h-0.6L216.3,149.6L216.3,149.6z M242.3,195.6c0,0,0.3,0,0.7,0.3c12.4,4.4,9.8,21.5-1.6,22.8c-1,0-1.3,0.3-1.1-1l1.7-21.2
					C242,196.5,242,195.6,242.3,195.6z"/>
				<path class="st0" d="M250.1,290.7c0,0-0.6-0.3-0.9-1l0,0l-12.3-29c0,0,0-0.3-0.1-0.4l0,0v0.4l-3,28c0,0.9-0.3,1-1.1,1h-0.3
					l-22.8-2c-1,0-1.1-0.3-1-1.3l0.4-6.1c0-0.9,0.3-1.1,0.9-1.8c13.6-14.3,22.1-32.7,23.9-51.8c2.1-21.8-4.2-44.3-18.3-65.2
					c-0.4-0.7-0.6-1-0.6-2l0.6-8.8c0-0.9,0-1.3,0.7-1.3h0.6c29.7,0.7,48.7,21.4,53.8,40.3c5.1,19.1-2.5,36.9-20.4,47.8
					c-0.1,0-0.4,0.3-0.6,0.4c0,0,0.1,0.4,0.4,0.9l26,41.3c0,0,0.6,0.7,0.4,1.1c0,0.3-0.4,0.4-1.1,0.7h-0.1l-24.3,8.8
					c-0.4,0.1-0.7,0.3-1,0.3L250.1,290.7L250.1,290.7z M236.7,259.3c0,0,0.3,0.1,0.6,0.7c0,0,0,0.3,0.1,0.4l12.3,29
					c0,0,0.3,0.6,0.4,0.7c0,0,0.4,0,0.7-0.1l24.6-8.8l0.7-0.3c0,0-0.1-0.3-0.3-0.6v-0.3l-26-41c-0.3-0.6-0.6-0.9-0.4-1.1
					c0-0.3,0.3-0.4,0.7-0.7c17.5-10.8,25-28.4,20.1-47.3c-5-18.7-23.8-39.2-53.4-39.9h-0.6c0,0-0.3,0-0.3,0.9l-0.6,8.8
					c0,0.9,0,1,0.4,1.7c14.1,20.9,20.5,43.7,18.4,65.5c-1.8,19.2-10.5,37.8-24.1,52.1c-0.6,0.6-0.7,0.7-0.7,1.6l-0.4,6.1
					c0,0.5,0.2,0.8,0.6,0.9h0.1l22.9,2h0.4V289l3.1-28.5c0-0.7,0-1,0.4-1l0,0V259.3L236.7,259.3z M240.6,219c0,0-0.4,0-0.6-0.1
					c-0.3-0.3-0.3-0.6-0.1-1.1l1.7-21.2c0,0,0-0.7,0.3-1h0.4c0,0,0.3,0,0.4,0.1h0.3c6.9,2.6,8.8,8.6,8.4,13
					c-0.6,4.7-3.8,9.6-9.9,10.3H240.6L240.6,219z M242.2,195.9v0.6l-1.7,21.2v0.7h0.7c5.8-0.7,8.9-5.5,9.5-9.9
					c0.4-4.2-1.3-10.1-7.9-12.4h-0.6L242.2,195.9L242.2,195.9z"/>
			</g>
			<g id="path3035">
				<path class="st0" d="M147.9,134.1c0,0-0.3,0.1-0.3,0.7l8.2,60.3c0,1,0.3,1,1.1,1.1l5.7,1.3c0.9,0.3,1,0.3,1.1,1.3l13.6,88.2
					c0.1,1.3,0.4,1,1.4,0.9c68.2-17,64.4-147.1-30-153.7L147.9,134.1L147.9,134.1z M181.2,200.3h0.6c25.9,0.6,29.4,31.6,5.9,37.6
					c-0.7,0.2-1-0.1-1.1-0.9l-5.8-35.9c0-0.9,0-1,0.4-1V200.3L181.2,200.3z"/>
				<path class="st0" d="M178.1,288.2h-0.3c-0.3-0.1-0.4-0.6-0.4-1.1l-13.6-88.2c0-0.6-0.3-0.9-0.9-1l-5.8-1.3
					c-0.9-0.1-1.1-0.3-1.3-1.4l-8.4-60.4v-0.9c0-0.1,0.3-0.1,0.4-0.1h0.7c22.5,1.6,41.8,10.5,55.3,25.6c12,13.3,19.5,31.3,21.2,50.5
					c1.6,17.6-1.8,35-9.6,48.8c-8.4,15.1-21.1,25.2-36.8,29.2h-1L178.1,288.2L178.1,288.2z M148.1,134.3v0.4l8.2,60.3
					c0,0.5,0.3,0.8,0.9,1l5.8,1.3c1,0.3,1.1,0.4,1.3,1.4l13.6,88.2c0,0,0.1,0.7,0.3,0.7h0.9c15.6-3.8,28.2-13.9,36.4-28.9
					c7.6-13.9,11-31.1,9.5-48.6c-1.7-19.1-9.2-37.1-21.1-50.2c-13.6-15.3-32.6-24.1-55.1-25.6H148.1L148.1,134.3z M148.1,134.3
					L148.1,134.3z M187,238.5h-0.3c-0.3-0.1-0.3-0.4-0.4-1.1l-5.8-35.9v-1c0.1-0.1,0.4-0.1,0.6-0.1h0.6c13.7,0.3,20.8,8.9,21.8,17.4
					c1,8.1-3.5,17.7-15.7,20.8c-0.3,0-0.6,0.1-0.9,0.1L187,238.5L187,238.5z M181.2,200.7H181v0.6l5.8,35.9c0,0,0,0.7,0.1,0.7
					c0,0,0.4,0,0.7-0.1c11.9-3.1,16.3-12.3,15.4-20.2c-1-8.2-7.9-16.6-21.2-16.8L181.2,200.7L181.2,200.7z"/>
			</g>
			<g id="path3041">
				<path class="st0" d="M336.6,247.4c-0.6-5.4-0.4-10.8,0-16.1c0-1.3,0.4-1.3,1.4-1.3h14.3c1.3,0,1,0.7,0.7,1.6
					c-1.8,4.7-3.8,8.9-4.2,15.9c0,1.1-0.1,1.4-1.1,1.4c-3.3,0.1-6.5,0.4-9.8,0c-1,0-1.3-0.4-1.4-1.6l0,0L336.6,247.4L336.6,247.4z"
					/>
				<path class="st0" d="M342.1,249.4c-1.4,0-2.7,0-4.1-0.3c-1.1,0-1.6-0.6-1.7-1.7l0,0c-0.4-5.1-0.6-10.3,0-16.1
					c0-1.4,0.6-1.6,1.6-1.4h14.3c0.6,0,1,0,1.1,0.4c0.3,0.4,0,0.9,0,1.4l0,0c-0.3,0.9-0.6,1.6-0.9,2.3c-1.6,3.8-3.1,7.8-3.4,13.6
					c0,1.3-0.3,1.7-1.4,1.7h-1.4c-1.4,0-2.8,0.1-4.2,0.1L342.1,249.4L342.1,249.4z M336.9,247.4c0,0.9,0.3,1.1,1.1,1.3
					c2.8,0.4,5.5,0.3,8.4,0h1.4c0.7,0,0.9,0,0.9-1.3c0.3-5.9,1.8-9.9,3.4-13.7c0.3-0.7,0.6-1.4,0.9-2.1l0,0c0,0,0.3-0.9,0.1-1
					c0,0-0.1-0.1-0.7-0.1h-14.4c-0.9,0-1,0-1.1,0.9c-0.4,5.8-0.4,11,0,16L336.9,247.4L336.9,247.4z"/>
			</g>
			<g id="path3045">
				<path class="st0" d="M273.5,169.4c0,0-0.3,0.1-0.4,0.6l-0.9,2.4v1.1c16.6,31.1,5.1,48.1-8.4,64.1c-0.4,0.4-0.6,0.7-0.6,1.3
					l-0.7,4.8c0,0.9,0,1,0.4,1.6l14.9,23.2c0,0,0.4,0.7,1.1,0.7h1.1c1,0,0.9,0,0.9-0.9l2-16.8c0-1,0-0.9,1-1h9.8c0.7,0,1,0.3,1.1,1
					l4.7,33.7c0,0.6,0.3,0.8,1,0.7l23.8-3.5c1.1-0.1,1-0.3,0.7-1.3l-26.3-106.4l-24.6-5.4h-0.7L273.5,169.4L273.5,169.4z
					 M287.7,201.1c0,0,0,0.4,0.3,1.4l3.5,24.3c0,1,0.3,1-0.9,1l-5.1-0.4c-0.6,0-0.9-0.3-0.9-1l2.7-23.9c0-1,0.1-1.4,0.1-1.4H287.7
					L287.7,201.1z"/>
				<path class="st0" d="M300.1,286.5h-0.4c-0.1-0.1-0.3-0.4-0.3-0.9l0,0l-4.7-33.8c0-0.6-0.3-0.9-0.9-0.9h-9.9c0,0-0.6,0-0.7,0.9
					l-2,16.8v0.3c0,0.7-0.3,0.9-1.1,0.9H279c0,0-0.9-0.1-1.1-0.6l0,0l-15-23.6c-0.4-0.6-0.4-0.9-0.4-1.6l0.7-4.8c0,0,0.3-1,0.7-1.4
					c6.1-7.2,12.9-15.9,15.4-26.2c2.7-11.2,0.4-23.5-7.1-37.5c-0.3-0.4-0.3-0.9,0-1.4l0.9-2.4c0,0,0.3-0.7,0.7-0.9h0.6l24.8,5.4l0,0
					l26.3,106.6v0.3c0,0,0.3,0.7,0,1c-0.1,0.3-0.6,0.3-1,0.4l-23.8,3.5h-0.6L300.1,286.5L300.1,286.5z M293.8,250.4
					c1,0,1.1,0.3,1.3,1.4l4.7,33.8v0.4h0.6l23.8-3.5c0,0,0.6,0,0.7-0.1v-0.9l-26.3-106.3l-24.6-5.4h-0.4c0,0,0,0.3-0.1,0.4l-0.9,2.4
					v1c16.4,31,5.4,48.1-8.5,64.4c-0.4,0.4-0.4,0.7-0.6,1.3l-0.7,4.8c0,0,0,0.7,0.3,1.3l0,0l14.9,23.4l0,0c0,0,0.3,0.6,0.7,0.6h1.7
					v-0.6l2-16.7c0-1,0.3-1.1,1.1-1.1h9.9L293.8,250.4L293.8,250.4z M291.3,228.2h-0.6l-5.2-0.4c0,0-0.7,0-0.9-0.3
					c-0.1-0.1,0-0.4,0-0.9l0,0l2.7-24.3c0-0.8,0.1-1.2,0.3-1.3l0,0c0.2,0,0.3,0.5,0.4,1.6l3.5,24.3v1c0,0-0.3,0.1-0.6,0.1
					L291.3,228.2L291.3,228.2z M287.7,202.8l-2.5,23.8v0.6h0.4l5.2,0.4h0.6V227l-3.5-24.1L287.7,202.8z"/>
			</g>
			<g id="path3051">
				<path class="st0" d="M325,248.6l9.1,38.6c0.3,1.4,0.1,1.4-0.9,1.8l-5,1.4c-1.4,0.4-1,0.6,0,1c13.7,6.9,25.5,2.4,36.4-7.8
					c1.1-1,0.6-1.1-0.3-1.8c-7.1-5.8-12.2-13.5-15-22.8c-0.3-1.1-0.4-1.1-1.6-0.9c-11.9,3.1-17.8-2.4-22.4-9.8c-1-1.6-1-1.7-0.4,0.3
					l0,0L325,248.6L325,248.6z"/>
				<path class="st0" d="M341.1,295c-4.2,0-8.6-1.1-13-3.3h-0.3c0,0-0.9-0.6-0.9-0.9s0.3-0.4,1.1-0.7l5-1.4c0.7-0.2,0.9-0.7,0.7-1.6
					l-9.1-38.8c-0.2-0.9-0.2-1.5,0-1.6s0.5,0.2,0.9,1v0.3c4.4,6.9,10,12.9,22.4,9.6c0.6-0.1,0.9-0.3,1.3,0c0.3,0.1,0.4,0.6,0.6,1.1
					c2.8,9.3,7.8,17,14.9,22.6l0.3,0.3c0.4,0.3,0.7,0.6,0.7,1c0,0.3-0.1,0.6-0.7,1.1c-7.9,7.4-15.9,11-23.6,11L341.1,295L341.1,295z
					 M327.7,290.9c0,0,0.3,0,0.4,0.1h0.3c12.3,6.4,23.8,3.8,36.1-7.5c0.4-0.4,0.6-0.6,0.6-0.7c0,0-0.3-0.3-0.6-0.6l-0.3-0.3
					c-7.1-5.8-12.2-13.6-15-22.9c0-0.4-0.3-0.7-0.4-0.9h-0.9c-12.6,3.3-18.5-3.1-22.6-9.9l0,0l9.1,38.6c0.4,1.6,0.1,1.7-1,2.1
					l-5,1.4c0,0-0.6,0.1-0.6,0.3L327.7,290.9L327.7,290.9z"/>
			</g>
			<g id="path3053">
				<path class="st0" d="M312.7,193.4c14-18.1,51-20.4,68.6,0.3c0.9,1,0.9,1.6,0.9,2.6l-1.1,13.4c0,1.4-0.1,1.7-1.4,2
					c-5.2,1.1-9.2,3-14.1,6.5c-1.3,1-2,1-3.3-0.3c-13.3-12.2-39.8-4.5-39.5,19.4c0,2.1,0.3,2.7-0.4,0l-10.2-41.6
					C311.8,194.3,312.1,194.1,312.7,193.4L312.7,193.4L312.7,193.4z"/>
				<path class="st0" d="M322.9,239.5c0,0-0.1-0.1-0.4-1.1l-0.3-0.9L312,195.9c-0.3-1.4,0-1.8,0.6-2.6c6.8-8.8,19.1-14.1,32.8-14.4
					c14.6-0.4,27.9,5.1,36.2,14.9c1,1,0.9,1.7,0.9,2.7l0,0l-1.1,13.6c0,1.4-0.3,1.8-1.6,2.1c-5.4,1.3-9.3,3.1-14,6.4
					c-1.4,1.1-2.1,1-3.5-0.3c-6.5-5.9-16.6-7.4-25.2-3.5c-8.9,4-13.9,12.3-13.9,22.8v1.3c0,0.6,0,0.9-0.3,0.9l0,0L322.9,239.5
					L322.9,239.5z M346.6,179.2h-1.4c-13.6,0.3-25.8,5.7-32.4,14.3l0,0c0,0-0.7,0.9-0.4,2.1l10.2,41.3c0-10.3,5.2-18.8,14.1-22.8
					c8.8-4,19.1-2.4,25.8,3.7c1.3,1.1,1.7,1.1,3,0.1c4.7-3.4,8.6-5.2,14.1-6.5c1.1-0.3,1.1-0.4,1.1-1.7l1.1-13.6c0-1,0-1.4-0.7-2.3
					c-8.1-9.3-20.5-14.6-34.4-14.6L346.6,179.2L346.6,179.2z"/>
			</g>
			<g id="path3055">
				<path class="st2" d="M418.8,250c0,17.3-13.9,31.3-31,31.3s-31-14-31-31.3l0,0c0-17.3,13.9-31.3,31-31.4c17.1,0,31,14,31,31.3
					l0,0V250z"/>
				<path class="st2" d="M387.8,281.5c-8.4,0-16.1-3.3-22.1-9.2s-9.2-13.9-9.2-22.4c0-17.4,14-31.6,31.3-31.6l0,0
					c17.3,0,31.3,14.1,31.3,31.6l0,0C419.1,267.4,405.1,281.5,387.8,281.5L387.8,281.5z M387.8,219L387.8,219
					c-17,0-30.7,13.9-30.7,31c0,8.4,3.3,16.1,9.1,21.9s13.6,9.1,21.6,9.1l0,0c17,0,30.7-13.9,30.7-31l0,0
					C418.5,232.8,404.6,219,387.8,219z"/>
			</g>
			<g id="path3828">
				<path class="st0" d="M401.5,211.2l2.3-25.1c0-1.1,0.7-1.7,1.7-1.6l14.7,0.4c1.1,0,1.1,0.3,1.6,1.3l18.5,38.2
					c0.7,1.4,0.7,1.7,0.7,0l2-36.8c0-1.4,0-1.3,1.4-1.3l18.3,0.6c1.3,0,1.1,0,1.1,1.4l-0.7,105.4c0,1.1,0,1-1.1,1.1h-20.4
					c-0.6,0-0.9-0.2-1.1-0.7l-13.3-25.9c-0.3-0.7-0.5-0.7-0.6,0l-3,26.2c0,1-0.3,0.9-1.1,0.9l-29.3,0.3c-0.8,0-1.1-0.3-1.1-1
					l0.3-4.1c0-1.6,0.6-1.4,1.7-1.7c43.7-10.9,41.6-60.9,8.5-75.7c-0.7-0.4-1-0.9-1-1.7l0,0L401.5,211.2L401.5,211.2z"/>
				<path class="st0" d="M393.2,295.8h-0.3c0,0-0.7,0-1-0.1c-0.1-0.1-0.1-0.4,0-1l0,0l0.3-4.2c0-1.4,0.6-1.7,1.6-1.8h0.3
					c19-4.7,31.3-17.7,32.7-34.7c1.6-17.1-8.2-33.4-24.3-40.6c-1.1-0.6-1.1-0.7-1.1-2l0,0l2.3-25.1c0-0.7,0.3-1.1,0.6-1.4
					s0.9-0.4,1.4-0.3l14.6,0.4c1.1,0,1.3,0.3,1.6,1c0,0,0,0.1,0.1,0.3l18.8,38.8l0,0v-0.3l2-36.9c0-1.4,0.1-1.6,1.4-1.4h0.3
					l18.3,0.6c1.3,0,1.4,0.1,1.4,1.3v0.3L463.3,294c0,1.1,0,1.3-1.1,1.3h-20.5c-0.9,0-1,0-1.4-0.7l0,0l-13.5-26.2l0,0l-3,26.2
					c0,1-0.3,1-1.1,1.1h-0.3l-29.3,0.3L393.2,295.8L393.2,295.8z M401.8,211.3c0,0.7,0.3,1.1,0.9,1.4c16.3,7.4,26.2,23.9,24.6,41.2
					c-1.6,17.1-13.9,30.3-33.1,35.1h-0.3c-0.9,0.1-1.1,0.3-1.1,1.4l-0.3,4.2v0.6h0.9l29.6-0.3c0.4,0,0.6-0.2,0.6-0.6l3-26.3
					c0,0,0-0.9,0.3-0.9s0.3,0,0.6,0.7v0.3l13.6,26c0,0,0.3,0.2,0.9,0.6h21.1v-0.7l0.7-105.7c0-0.5-0.3-0.7-0.9-0.7l-18.5-0.6h-0.7v1
					l-2,36.9c0,1,0,1.3-0.3,1.3s-0.4,0-0.7-0.9v-0.4l-18.8-38.2c0,0,0-0.3-0.1-0.3c-0.3-0.6-0.3-0.7-1.1-0.7l-14.6-0.4
					c0,0-0.7,0-1,0.1s-0.4,0.6-0.4,1.1l-2.3,25.1L401.8,211.3L401.8,211.3z"/>
			</g>
			<g id="path3832">
				<path class="st1" d="M580.7,174.5l18.7-4c2.1-0.4,2.1-0.6,2,1.4l-4.4,66.2c0,1.3,0,1.1,1.1,1l24.6-3.3c1.1,0,1,0,0.8,1
					l-5.8,37.1c-0.1,1.3-0.4,1.1-1.6,1.3l-25.5,2.5c-1.1,0-1.1,0.3-1.4-0.9l-13-63.6c-0.1-1-0.1-1.6-0.1-2.3l2.5-34.1
					c0.1-2,0-2,2-2.4l0,0L580.7,174.5L580.7,174.5z"/>
				<path class="st1" d="M590.1,278c0,0-0.7-0.3-0.8-1.1l-13-63.6c-0.3-1-0.1-1.7-0.1-2.4l2.5-34.1c0.1-2.1,0.3-2.1,2.1-2.6l18.7-4
					h0.6c0.8-0.1,1.3-0.3,1.6,0s0.3,0.7,0.1,1.8l0,0l-4.4,66.2v0.9h0.8l24.6-3.3h1.1c0.1,0.1,0,0.4,0,0.9v0.3l-5.8,37.1
					c-0.1,1.3-0.4,1.3-1.4,1.4h-0.4l-25.8,2.5h-0.4L590.1,278L590.1,278z M580.9,174.7c-1.1,0.2-1.7,0.9-1.7,2.1l0,0l-2.5,34.1
					c0,0.7,0,1.3,0.1,2.3l13,63.5c0.1,0.5,0.4,0.7,0.8,0.7h0.3l25.5-2.5h0.4c0.5,0,0.8-0.3,0.8-1l5.8-37.2v-0.4h-0.6l-24.9,3.3h-1
					c-0.3-0.1-0.1-0.6-0.1-1.1l4.4-66.2v-1.4h-1.7L580.9,174.7L580.9,174.7z"/>
			</g>
			<g id="path3834">
				<path class="st1" d="M626.4,163.8l22.5-5.1c1.1-0.3,1.1-0.4,1,0.7l-15.3,91.1c-0.3,1.3-0.1,1.1,1.1,0.9l21.2-4.8
					c1.3-0.3,1.4-0.6,1.1,0.9l-8.5,41.9c-0.1,1.1-0.3,1-1.4,1l-41.5,0.9c-0.8,0-1-0.3-0.8-1l1.1-5.4c0.2-0.8,0.6-1.2,1.3-1.3
					l14.6-1.8c0.8-0.1,1.2-0.5,1.3-1.1l8.3-53.2c0.1-1.3,0-1-1-0.9l-14.6,2.3c-1.3,0.3-1.1,0.1-1-1l9.5-62.8
					c0.1-0.7,0.5-1.1,1.1-1.3l0,0L626.4,163.8L626.4,163.8z"/>
				<path class="st1" d="M606.8,291.6h-0.3c0,0-0.7,0-0.8-0.1c-0.1-0.1,0-0.4,0-1l1.1-5.5c0.3-1.1,0.4-1.3,1.6-1.4l14.6-1.8
					c0.7,0,1-0.3,1-1l8.3-53.2v-0.7h-0.8l-14.6,2.3c-0.7,0-1,0.1-1.3,0c-0.1-0.1-0.1-0.4,0-1v-0.3l9.5-62.8c0.1-1.1,0.3-1.3,1.3-1.4
					l0,0l22.5-5.1h0.3c0.4,0,0.7-0.1,0.8,0c0.3,0.1,0.1,0.6,0,1.1l-15.3,91.1v0.9c0,0,0.4,0,0.7-0.1l0,0l21.2-4.8h0.6
					c0.4,0,0.7-0.1,0.8,0c0.3,0.1,0.1,0.6,0,1.3l-8.5,41.9c-0.1,1.1-0.4,1.3-1.4,1.3h-0.3l-41.5,0.9L606.8,291.6L606.8,291.6z
					 M606.5,291h0.3l41.8-0.9c0.5,0,0.8-0.3,1-0.9l8.5-41.9v-0.7h-1l-21.4,4.8c0,0-1,0.3-1.3,0s-0.1-0.6,0-1.3l15.3-91.2v-0.6h-0.8
					l-22.5,5.1c-0.6,0.1-0.9,0.4-1,1l-9.5,63.1v0.6h0.8l14.6-2.3h1.3c0.1,0.1,0.1,0.6,0,1.1l-8.3,53.2c-0.1,1.1-0.3,1.3-1.6,1.4
					l-14.6,1.8c-0.6,0-0.9,0.3-1.1,1l-1.1,5.5v0.4h0.4L606.5,291L606.5,291z"/>
			</g>
			<g id="path3940">
				<path class="st1" d="M561.6,177.6h-0.7l-24.5,2.7c-1.3,0-1.6,0-1.7,1.4l-0.8,6.4c0,0.9,0,1.1,0.4,1.8c16.6,22.8,6.7,47.3-4,57
					c-0.8,0.9-1,0.9,0,2.1c9.2,12.3,13.3,25.8-1.3,43.2c-0.7,0.9-1.1,1.1,0.3,1.1l8.5,0.4c0.8,0,1.3-0.4,1.4-1.3l4-33.4
					c0-0.8,0.5-1.1,1.4-1.1h7.9c1.3,0,1.4-0.1,1.6,1.3l3.7,30.9c0.1,1.7,0.1,1.6,2,1.3l22.4-3.7c1.3-0.3,1.3-0.1,1-1.6l-20.7-107.6
					c-0.1-0.9-0.3-1-0.7-0.9L561.6,177.6L561.6,177.6z M548.9,215.9c0,0,0,0.6,0.3,1.8l2.4,17.8c0.1,1.3,0.3,1.3-1,1.3h-3
					c-1.4-0.3-1.3-0.1-1.1-1.6l2.1-17.4c0-1.1,0.1-1.8,0.3-1.8L548.9,215.9L548.9,215.9z"/>
				<path class="st1" d="M538.4,294.1H538l-8.5-0.4c-0.7,0-1,0-1.1-0.4c0-0.3,0-0.6,0.4-0.9l0.3-0.3c15.4-18.5,9.3-32.1,1.3-42.9
					c-1-1.3-0.8-1.6,0-2.4c11.3-10.3,20-34.7,4-56.6c-0.6-0.7-0.7-1.1-0.6-2.1l0.8-6.4c0.1-1.4,0.6-1.4,1.6-1.6h0.3l24.8-2.7h0.4
					c0.7,0,0.8,0.3,1,1.1l20.7,107.7c0,0,0.1,1,0,1.3s-0.6,0.3-1.3,0.4l-22.4,3.7h-0.4c-0.7,0-1,0.1-1.3,0c-0.3-0.3-0.3-0.6-0.4-1.4
					l0,0l-3.7-30.9c0-0.8-0.3-1.1-1-1.1h-8.2c-0.6,0-0.9,0.3-1,0.9l0,0l-4,33.7c-0.1,1.1-0.3,1.4-1.1,1.4L538.4,294.1L538.4,294.1z
					 M528.8,293h0.6l8.6,0.4h0.8c0,0,0-0.4,0.1-1l0,0l4-33.7c0-1.1,0.3-1.3,1.6-1.3h8.2c1.3,0,1.4,0,1.6,1.4l3.7,30.9
					c0,0,0,1,0.3,1.1h1.4l22.4-3.7c0,0,0.8-0.1,1-0.3v-0.9l0,0l-20.7-107.7c0-0.7-0.1-0.7-0.4-0.7h-0.7l-24.8,2.7
					c-0.7,0-1,0.4-1.1,1.1l-0.8,6.4c0,0.9,0,1,0.4,1.7c16.1,22.2,7.4,47-4,57.3l0,0c-0.6,0.5-0.6,1,0,1.7c5.4,7.2,8.1,13.4,8.3,19.8
					c0.4,7.8-2.7,15.4-9.6,23.8c0,0-0.1,0.3-0.3,0.3c0,0-0.1,0.3-0.3,0.3L528.8,293L528.8,293z M551.3,236.8h-3.7
					c0,0-0.8-0.3-1.1-0.4c-0.1-0.3-0.1-0.6,0-1.1l0,0l2.1-18.1c0.1-1.4,0.1-1.6,0.4-1.6s0.3,0,0.6,2l2.5,18.1v1
					c0,0.1-0.3,0.1-0.7,0.1H551.3L551.3,236.8z M549,217.4l-2.1,17.8v0.9h0.8l3,0.1h0.8v-0.9l-2.5-17.8L549,217.4L549,217.4z"/>
			</g>
			<g id="path3942">
				<path class="st1" d="M501,183.7c-1.3,0-2.7,0-4,0.1l-24.2,2.1c-2,0.3-2,0-2,1.8l-0.9,35.4c0,1.3,0,1.1,1.1,1.3h1.4
					c1.3,0,1.3,0.1,1.4,1.4l6.2,65.9c0,1.3,0.3,1.1,1.4,1.1l12,0.4c47,1.7,42.6-38.9,20.9-46.7c-2.3-0.7-1.8-0.6,0-1.1
					c31.1-9.6,26.3-62.1-13.7-61.9L501,183.7L501,183.7z M495.8,214.2h0.7c12.9,1.6,11.2,17.4,0.1,16.7c-0.9,0-1,0-1-1l-0.6-14.6
					c0-1.1,0-1.3,0.6-1.3L495.8,214.2L495.8,214.2z M497.5,257h0.6c9.8,1,9.1,14.3,0,13c-0.9,0-1,0-1-1.1v-11
					C497.1,257.2,497.1,256.9,497.5,257L497.5,257z"/>
				<path class="st1" d="M496.4,293.8h-2.5l-12.3-0.4c-1,0-1.3-0.1-1.4-1.4l-6.2-65.9c0-0.7-0.4-1-1.1-1.1h-1.6
					c-1.1,0-1.3-0.3-1.3-1.4l0,0l0.9-35.5c0-1.2,0.6-1.9,1.7-2.1h0.4l24.2-2.3c1.6,0,2.8-0.1,4-0.3h0.3c21.5,0,31.4,14.9,33.4,27.7
					c1.1,7.4,0,14.7-3.4,20.9c-3.5,6.8-9.3,11.5-16.7,13.7c-0.3,0-0.6,0.1-0.8,0.3h-0.3c0.3,0,0.6,0.1,1,0.3l0,0
					c10.9,4,17.5,16,15.4,27.3c-2.4,12.6-15,20-33.8,20L496.4,293.8L496.4,293.8z M501.2,183.7v0.3c-1.1,0-2.5,0-4,0.1l-24.2,2.1
					h-0.4c-0.9,0.1-1.3,0.6-1.3,1.6l-0.9,35.5v0.7h2.3c1.4,0,1.6,0.3,1.7,1.6l6.2,66c0,0.6,0.3,0.9,0.9,0.9h0.3l12,0.4
					c20,0.7,33.4-6.6,36-19.5c2.1-10.9-4.7-22.9-15-26.8l0,0c-1.4-0.4-1.7-0.6-1.7-0.9s0.3-0.4,1-0.6c0.3,0,0.6,0,0.8-0.3
					c11.5-3.5,22.5-15.7,19.7-34.1c-2-12.6-11.8-27.2-33-27.2h-0.3v-0.3L501.2,183.7L501.2,183.7z M499.2,270.5h-1.3
					c-0.9-0.1-1.1-0.3-1.1-1.4v-11c0,0,0-0.9,0.1-1c0.1-0.1,0.3-0.1,0.6-0.1h0.7c3.1,0.3,5.5,2,6.6,4.5c1,2.3,0.7,5-0.7,6.8
					C503,269.8,501.3,270.5,499.2,270.5L499.2,270.5z M497.5,257.3L497.5,257.3v11.8c0,0.6,0.2,0.9,0.6,0.9l0,0
					c2.4,0.3,4.5-0.4,5.7-2c1.3-1.7,1.6-4.1,0.6-6.2c-1-2.4-3.3-4-6.2-4.2h-0.6V257.3L497.5,257.3z M497.5,231.3h-0.7
					c-1,0-1.1-0.1-1.3-1.3l-0.6-14.6c0,0,0-1.1,0.3-1.3c0.1-0.1,0.4-0.1,0.7-0.1h0.9c6.9,0.9,9.6,5.8,9.2,9.9
					c-0.3,3.7-3.1,7.4-8.4,7.4L497.5,231.3L497.5,231.3z M495.8,214.4h-0.1v1l0.6,14.6c0,0,0,0.7,0.7,0.7c5.4,0.3,8.2-3.4,8.6-6.9
					c0.4-4-2.3-8.5-8.8-9.3L495.8,214.4L495.8,214.4z"/>
			</g>
			<g id="path3039">
				<path class="st3" d="M391.8,244.7h12.5l-10.2,7.6l4,12l-10.5-7.2l-9.9,7.2l3.4-11.9l-10.3-7.8h12.9l4-12.2l4.1,12L391.8,244.7
					L391.8,244.7z"/>
				<path class="st3" d="M398.6,265.1l-10.9-7.5l-10.3,7.5l3.5-12.4l-10.8-8.1h13.5l4.2-12.7l4.4,12.6h13.2l-10.8,7.9l4.2,12.6
					L398.6,265.1L398.6,265.1z M371.5,245.1l9.9,7.4l-3.3,11.3l9.5-6.8l9.9,6.8l-3.8-11.5l9.8-7.2h-11.9l-4-11.5l-3.8,11.5
					L371.5,245.1L371.5,245.1z"/>
			</g>
		</g>
	</g>
</g>
<g class="st4">
	<path class="st1" d="M999.6,157.4h45.1c8.4,0,15.8,1.6,22.4,4.8c6.6,3.2,11.7,7.8,15.4,13.6c3.7,5.9,5.6,12.6,5.6,20.3
		c0,7.6-1.9,14.4-5.6,20.3c-3.7,5.9-8.8,10.5-15.4,13.7c-6.6,3.3-14,4.9-22.4,4.9h-20.6v42.4h-24.6V157.4z M1044.7,212.9
		c5.7,0,10.2-1.5,13.4-4.6c3.2-3.1,4.8-7.2,4.8-12.2c0-4.9-1.6-8.9-4.9-11.9s-7.7-4.6-13.3-4.6h-20.6v33.3H1044.7z"/>
	<path class="st1" d="M1107.7,157.4h24.6v97.9h52.6v22.2h-77.2V157.4z"/>
</g>
<g class="st4">
	<path class="st1" d="M1278.2,261.9h-49.1l-6.7,15.7H1196l53.7-122.3h8.2l53.5,122.3H1285L1278.2,261.9z M1253.6,201.1l-16,38.6h32
		L1253.6,201.1z"/>
</g>
<g class="st4">
	<path class="st1" d="M1367.2,230.2v47.3h-24.6v-47.1l-41.5-73h27.3l26.6,47.7l26.4-47.7h27.1L1367.2,230.2z"/>
</g>
<g class="st4">
	<path class="st1" d="M1531.8,261.9h-49.1l-6.7,15.7h-26.4l53.7-122.3h8.2l53.5,122.3h-26.4L1531.8,261.9z M1507.2,201.1l-16,38.6
		h32L1507.2,201.1z"/>
</g>
<g class="st4">
	<path class="st1" d="M1603,271.5c-9.8-5.5-17.5-13-23.2-22.5c-5.7-9.5-8.6-20-8.6-31.6c0-11.6,2.8-22.2,8.5-31.7
		c5.6-9.5,13.4-16.9,23.2-22.4s20.7-8.2,32.6-8.2c10.6,0,20.2,2.3,28.8,6.8c8.7,4.5,15.9,10.9,21.7,19.1l-17.5,14.3
		c-8.5-12-19.7-18-33.5-18c-7.6,0-14.4,1.7-20.2,5.1c-5.8,3.4-10.3,8.1-13.6,14.1c-3.2,6-4.8,12.8-4.8,20.5c0,7.8,1.7,14.8,5,20.8
		c3.3,6.1,8,10.9,14.1,14.4c6.1,3.5,13,5.2,20.9,5.2c6.9,0,13.1-1.3,18.5-3.8c5.4-2.6,9.8-6,13.2-10.4v-9.4h-33.1v-22.2h57.7v35.5
		c-5.5,9.7-13.3,17.6-23.4,23.6c-10.1,6-21.4,9-33.9,9C1623.6,279.7,1612.8,277,1603,271.5z"/>
</g>
<g class="st4">
	<path class="st1" d="M1783.1,261.9H1734l-6.7,15.7h-26.4l53.7-122.3h8.2l53.5,122.3h-26.4L1783.1,261.9z M1758.5,201.1l-16,38.6h32
		L1758.5,201.1z"/>
	<path class="st1" d="M1832.6,157.4h24.6v120.1h-24.6V157.4z"/>
	<path class="st1" d="M1986.9,157.4v122.3h-8.2l-69.5-74.3v72.1h-24.6V155.2h8l69.7,73.9v-71.7H1986.9z"/>
</g>
</svg>
