<?xml version="1.0" encoding="UTF-8"?><svg id="Capa_1" xmlns="http://www.w3.org/2000/svg" viewBox="0 0 1439.1 432.1"><defs><style>.cls-1{fill:#f7f7f7;}.cls-2{fill:#010101;}.cls-3{fill:#060606;}.cls-4{fill:#050505;}.cls-5{fill:#eee;}.cls-6{fill:#ebebeb;}.cls-7{fill:#f0f0f0;}.cls-8{fill:#eaeaea;}.cls-9{fill:#e9e9e9;}.cls-10{fill:#e6e6e6;}.cls-11{fill:#f4f4f4;}.cls-12{fill:#f5f5f5;}.cls-13{fill:#e3e3e3;}.cls-14{fill:#ededed;}.cls-15{fill:#fff;}.cls-16{fill:#e8e8e8;}.cls-17{fill:#f1f1f1;}.cls-18{fill:#fafafa;}.cls-19{fill:#e5e5e5;}.cls-20{fill:#e2e2e2;}.cls-21{fill:#efefef;}.cls-22{fill:#e4e4e4;}.cls-23{fill:#fdfdfd;}.cls-24{fill:#9c9c9c;}.cls-25{fill:#b5b5b5;}.cls-26{fill:#b8b8b8;}.cls-27{fill:#8c8c8c;}.cls-28{fill:#cdcdcd;}.cls-29{fill:#d8d8d8;}.cls-30{fill:#aeaeae;}.cls-31{fill:#ccc;}.cls-32{fill:#cacaca;}.cls-33{fill:#c9c9c9;}.cls-34{fill:#ddd;}.cls-35{fill:#dcdcdc;}.cls-36{fill:#dbdbdb;}.cls-37{fill:#d3d3d3;}.cls-38{fill:#dadada;}.cls-39{fill:#d4d4d4;}.cls-40{fill:#d9d9d9;}.cls-41{fill:#c5c5c5;}.cls-42{fill:#e1e1e1;}.cls-43{fill:#dfdfdf;}.cls-44{fill:#121212;}.cls-45{fill:#171717;}.cls-46{fill:#161616;}.cls-47{fill:#242424;}.cls-48{fill:#1f1f1f;}.cls-49{fill:#0c0c0c;}.cls-50{fill:#0b0b0b;}.cls-51{fill:#404040;}.cls-52{fill:#090909;}.cls-53{fill:#080808;}.cls-54{fill:#151515;}.cls-55{fill:#070707;}.cls-56{fill:#141414;}.cls-57{fill:#0d0d0d;}.cls-58{fill:#0f0f0f;}.cls-59{fill:#1c1c1c;}.cls-60{fill:#0e0e0e;}.cls-61{fill:#191919;}.cls-62{fill:#181818;}.cls-63{fill:#0a0a0a;}.cls-64{fill:#1b1b1b;}.cls-65{fill:#1a1a1a;}.cls-66{fill:#888;}.cls-67{fill:#3a3a3a;}.cls-68{fill:#2f2f2f;}.cls-69{isolation:isolate;}</style></defs><path class="cls-15" d="M59.6,0H1379.5c32.9,0,59.6,26.7,59.6,59.6V372.5c0,32.9-26.7,59.6-59.6,59.6H59.6c-32.9-.1-59.6-26.8-59.6-59.7V59.6C0,26.7,26.7,0,59.6,0Z"/><g><polygon points="216.1 149.5 230.3 163.6 177.9 216 230.3 268.4 216.1 282.5 149.6 216 216.1 149.5"/><g class="cls-69"><path d="M882.9,221.2c3.8,5.1,5.6,11.4,5.6,18.9,0,6.9-1.7,13.2-5,18.7s-8,9.8-14,12.8-12.8,4.5-20.5,4.5h-53.5v-120.2h42.6c7.3,0,13.8,1.4,19.7,4.2,5.8,2.8,10.3,6.6,13.6,11.5,3.2,4.9,4.8,10.6,4.8,17,0,8.5-3,15.6-8.9,21.1,6.6,2.5,11.9,6.3,15.6,11.5Zm-63.7-43.1v24.4h16.9c5,0,8.8-1.1,11.6-3.3,2.7-2.2,4.1-5.2,4.1-9s-1.4-6.7-4.1-8.9-6.6-3.2-11.6-3.2h-16.9Zm40.6,71.9c3-2.6,4.5-6.1,4.5-10.7s-1.5-8-4.5-10.6-7.2-3.9-12.6-3.9h-28v29.1h28c5.4,0,9.6-1.3,12.6-3.9Z"/></g><g class="cls-69"><path d="M978.1,260.4h-49.1l-6.7,15.7h-26.4l53.7-122.3h8.2l53.5,122.3h-26.4l-6.8-15.7Zm-24.6-60.8l-16,38.6h32l-16-38.6Z"/></g><g class="cls-69"><path d="M1049.2,270.1c-9.8-5.5-17.5-13-23.1-22.5s-8.5-20-8.5-31.6,2.8-22.1,8.6-31.6c5.7-9.5,13.4-17,23.2-22.5,9.8-5.5,20.5-8.2,32.3-8.2s21.7,2.6,31,7.9c9.3,5.3,16.6,12.5,21.9,21.8l-18.6,13c-8.5-13.7-20-20.6-34.4-20.6-7.4,0-14,1.7-19.9,5.2-5.9,3.4-10.5,8.2-13.8,14.3s-5,13-5,20.8,1.7,14.6,5,20.7c3.3,6,7.9,10.7,13.8,14.1,5.9,3.4,12.5,5.1,19.9,5.1,14.4,0,25.9-6.9,34.4-20.6l18.6,13c-5.2,9.3-12.5,16.6-21.8,21.8-9.3,5.3-19.8,7.9-31.3,7.9-11.8,.1-22.6-2.6-32.3-8Z"/><path d="M1231.6,276.1l-51.5-62.6v62.6h-24.6v-120.2h24.6v55.7l45.9-55.7h29.3l-46,56.6,52.1,63.5h-29.8v.1Z"/></g></g><g id="mC9qC4"><g><path class="cls-64" d="M434.76,53.13c-11.25,1.32-21.65,5.28-31.72,10.27-1.2,3.03-4.08,2.75-6.53,3.33-8.18,5.35-17.71,8.63-24.58,16,2.64,.19,4.43,1.55,5.9,3.73,.75,1.11,1.84,2.12,3.05,2.88,1.78,.33,3.18-.57,4.52-1.47,8.14-5.46,16.56-10.42,25.49-14.48,.94-.43,1.75-1.03,2.26-1.97,1.73-3.8-1.15-9.89,5.58-11.2,.98-.32,2-.53,3-.8,.49-.12,.97-.29,1.44-.47,1.17-.45,2.38-.78,3.59-1.11,1.02-.29,2.07-.42,3.13-.5,2.33-.32,4.83-.4,5.38-3.47-.17-.24-.34-.49-.51-.73Z"/><path class="cls-49" d="M441.98,51.94l-.46-.2-.4,.3c-.41,.43-.6,.95-.58,1.54-.26,1.1,3.61,1.35,.63,3.02,1.38,1.62,1.58,4.06,3.61,5.25,3.31,1.06,6.74,.33,10.09,.77,7.88-.01,15.76-.12,23.58,1.13,1.65-.1,3.33-.1,4.87-.84,1.85-1.31,1.04-2.41-.46-3.08-2.59-1.16-5.43-2-8.2-1.72-4.99,.51-5.45-1.88-4.19-5.64,.38-1.13,.56-1.88-.85-2.19-5.97,.12-11.95-.31-17.9,.41-.66,.06-1.33,.12-1.99,.19-2.45,1.33-5.17,.77-7.76,1.06Z"/><path class="cls-54" d="M360.02,92.85c-.17,.36-.34,.72-.51,1.08-1.93,1.63-3.87,3.26-5.8,4.89-3.79,2.21-7.71,4.32-7.75,9.56,1.16,.97,2.12,2.61,1.58,3.69-2.02,4.07,1.37,4.95,3.47,6.65,.54,.25,1.11,.32,1.7,.21,2-.98,2.71-2.92,3.57-4.76,3.19-4.24,4.76-9.84,10.27-12.13,.8-.43,1.3-1.06,1.44-1.97-1.51-3.2-.8-8.47-6.89-7.41-.36,.02-.72,.09-1.07,.19Z"/><path class="cls-61" d="M361.09,92.66c3.24,1.69,4.47,5.04,6.41,7.8,5.92-2.13,10.79-5.49,13.35-11.51-1.25-4.53-3.89-7.08-8.91-6.21-4.18,2.69-8.14,5.63-10.85,9.93Z"/><path class="cls-44" d="M451.73,50.7c6.32,.14,12.63,.29,18.95,.43,2.67,1.87,5.25,1.97,7.69-.42-7-1.87-14.18-.52-21.25-1.16-1.8,.39-3.59,.77-5.39,1.16Z"/><path class="cls-48" d="M396.52,66.73c2.92,.35,6.8,2.58,6.53-3.33-2.37,.73-4.71,1.53-6.53,3.33Z"/><path class="cls-54" d="M441.98,51.94c2.88,1.81,5.38,.78,7.76-1.06-2.67-.25-5.31-.28-7.76,1.06Z"/><path class="cls-54" d="M441.14,53.35c0-.43,0-.87,0-1.3-2.23-.26-4.38-.09-6.37,1.09l.39,.37c2.04,1.6,4.03,1.6,5.98-.16Z"/><path class="cls-61" d="M403.04,358.14c5.85,3.21,11.95,5.77,18.42,7.45,1.19-6.05,2.06-12.13,1.73-18.33-.48-9.15-.32-7.54,7.54-8.33,3.54-1.19,7.26-.08,10.83-.87,2.09-.64,5.06,1.33,6.22-2.09-.25-1.08-.95-1.89-2-2.04-9.76-1.47-19.53,.72-28.75-.98-.95,1.68-1.13,.15-.72,.87,3.74-2.93-.5-7.99,2.93-11-.26-.57-.93-.47-1.32-.84,3.52-1.7,3.81-5,3.92-8.26,.19-5.89,.25-11.79,0-17.67-.16-3.64,1.19-5.71,4.61-6.61,.92-1.92,1.05-3.97,.91-6.05-.16-.58-.46-1.09-.88-1.52-5.41,1.3-9.47,4.24-11.59,9.54,.37,1.47,.97,2.94,.09,4.78-.41-1.29,.15-2.78-1.25-3.38-1.32-.07-2.51,.45-3.26,1.38-4.28,5.31-8.17,10.99-11.31,16.98-2.52,4.8,.78,8.9,6.79,9.92,.69-.04,1.63-1.37,1.88-.5,.33,1.17-1.3,1.13-2.14,1.57-.51,.26-.93,.62-1.29,1.06-2.29,5.33,.17,10.8-.49,16.2-.41,3.33,.71,6.98-2.57,9.57-.87,.68-1.22,1.82,.01,2.49,3.04,1.65,2.2,4.18,1.71,6.68Z"/><path class="cls-59" d="M403.04,358.14c1.91-2.4,3.03-4.82-.01-7.17-.4-.31-1.43-.04-1.14-.96,3.98-12.41,3.95-12.4,2.96-22.53-.15-1.54,.4-3.14,.62-4.71-.39-.46-.81-.94-1.42-1.06-5.76-1.09-17.61,6.47-19.34,12.3q1.59,6.72-4.48,8.67c-.76,.24-1.55,.36-2.1,1.02,.15,.35,.29,.72,.41,1.08,8.18,4.43,15.64,10.19,24.5,13.37Z"/><path class="cls-44" d="M441.22,336.36c-3.14,1.86-6.87-1.66-9.92,1.09-1.36,1.37-.92,3.05-.64,4.6,1.32,7.13-1.16,14.18-.44,21.29-6.75,3.03,.69,3.42,.96,5.14,7.44,3.49,15.68,3.78,23.47,5.9,1.64-.04,3.28-.07,4.91-.11-1.35-4.27-5.34-3.12-8.32-4.07-1.29-.15-2.61-.12-3.89-.38-1.87-.82-3.89-.69-5.91-.78,4.12-5.27,3.92-27.95-.23-32.68Z"/><path class="cls-54" d="M431.19,368.48c-.15-1.63-1.74-2.17-2.57-3.3,1.85-1.9,3.02,1.57,5.36,.26-4.59-2.24-2.2-5.26-1.82-8.55,.74-6.42,1.17-13.04-.86-19.43-9.93-.03-10.27,0-9.73,9.45,.36,6.26-2.19,12.46-.12,18.69,3.1,1.43,6.22,2.81,9.73,2.89Z"/><path class="cls-63" d="M323.02,279.65c2.58,4.87,5.17,9.75,7.75,14.62,2.41,3.31,4.82,6.61,7.23,9.92,3.8-1.83,5.56-5.12,6.47-9.03-.03-.57-.23-1.08-.56-1.55-3.14-3.48-6.41-6.88-6.16-12.09-.25-2.74-1.66-5.06-2.68-7.53-4.19-9.23-7.42-18.79-9.56-28.7-1.02-2.13-.39-4.97-2.8-6.5-3.78,.77-3.25,3.94-2.79,6.22,1.18,5.83,.98,11.46,.2,17.35-.43,3.25,1.58,6.82-.41,10.2-.06,2.91,1.01,5.29,3.32,7.08Z"/><path class="cls-44" d="M344.1,294.26c-2.03,3.31-4.07,6.62-6.1,9.93,1.93,2.9,3.87,5.79,5.8,8.69,.92,.78,1.85,1.57,2.77,2.35,3.24-1.13,6.27-3.75,9.96-.76,.98,.79,2.32-.06,2.81-1.46,.16-1.25-.36-2.27-1.04-3.24-3.24-4.06-6.66-7.98-9.64-12.25-1.1-1.58-2.03-3.59-4.56-3.26Z"/><path class="cls-2" d="M621.94,157.83c-.42-1.63-.83-3.26-1.25-4.89-.44-3.74-1.5-7.25-3.78-10.31-2.12-3.01-3.41-6.48-5.21-9.67-3.16-4.67-6.4-9.28-9.78-13.8-4.13-4.11-6.09-10.31-12.09-12.63-2.85-2.93-5.7-5.85-8.55-8.78-.95-1.7-1.62-3.59-3.28-4.81-5.34-4.03-10.15-8.73-15.79-12.37-4.26-2.75-8.42-5.64-12.62-8.48-6.3-3.19-12.61-6.37-18.93-9.52-.97-.49-1.95-.98-2.88-1.56-.92-.59-1.88-1.11-2.92-1.47-.51-.19-1.04-.34-1.57-.46-3.14-.79-6.33-1.39-9.26-2.88-1.27-.49-2.58-.89-3.88-1.31-1.61-.47-3.27-.7-4.85-1.3-.55-.21-1.12-.37-1.69-.52-5.28-1.66-10.75-1.81-16.21-2.04-3.01-.11-6.01-.22-9.02-.33-2.56,.14-5.13,.28-7.69,.42-1.45,1.08-4.67,2-2.67,4.02,1.35,1.36-.81,5.44,3.82,4.48,4.12-.85,8.4,.5,12.35,2.25,2.19,2.77,5.62,2.65,8.55,3.69,2.73,.5,5.46,1,8.15,1.71,7.22,1.09,13.72,4.39,20.55,6.67,1.07,.44,2.15,.86,3.22,1.28,4.27,1.34,8.2,3.37,11.87,5.93,1.66,1,3.27,2.09,5.03,2.93,3.99,1.83,7.69,4.12,11.08,6.92,3.59,2.11,6.81,4.7,9.92,7.45,8.66,7.08,16.46,15.02,23.71,23.51,5.92,7.34,11.52,14.89,15.89,23.29,4.25,6.02,5.82,13.47,10.28,19.39,2.08,1.48,3.08,3.12,6.75,.76,3.91-2.52,2.24-4.99,2.76-7.58Z"/><path class="cls-23" d="M357.54,310.3c.42,.8,.84,1.6,1.26,2.4,.51,1.31,.93,2.68,2.02,3.68,5.78,6.3,12.26,11.83,18.93,17.14,1.44,.85,2.75,2,4.55,2.08,.58-.1,1.01-.4,1.28-.92,.07-.59-.08-1.44,.26-1.75,5.65-5.09,11.38-10.09,19.63-10.17l1.15-.28c.76-.72,.69-1.47,.07-2.23-6.19-1.24-9.52-5.66-6.05-9.24,5.38-5.55,6.55-13.91,13.29-18.23,.59-.07,.91-.42,1.02-.99,3.49-3.63,7.22-6.97,11.39-9.82,2.3-.21,3.76-2.13,5.8-2.86,3.68-2.03,7.56-3.53,11.66-4.44,4.57,.09,7.8-.86,6.63-6.73-.5-2.53,.9-5.03,2.56-7.12,2.57-3.38,.21-5.93-1.45-8.6-1.67-6.47-1.26-13.49-5.14-19.38-.53-.31-1.1-.42-1.7-.31-1.16,.55-1.81,1.5-2.17,2.69-.7,4.11,2.49,8.84-1.98,12.35-4.12,3.2-6.95-.23-10.09-1.98-3.03-1.96-5.82-4.25-8.76-6.33-.8-.61-1.73-1.09-2.24-2-2.31-4.14-5.11-4.19-8.03-.78-3.84,4.5-8.84,6.11-14.47,6.3-.75-.16-1.11-.55-.76-1.36,5.65-4.15,8.65-9.43,7.23-16.63q-2.79-.91-1.69-1.98c1.08-.69,1.99-1.57,3.02-2.28,1.57-1.18,3.37-.45,5.07-.62,.55-.18,.97-.52,1.28-1,.38-.81,.5-1.65,.42-2.53-2.53-4.15-3.15-9.36-7.03-12.72-.26-.28-.98,.16-1.03-.59,.34,.08,.69,.06,1.06-.06,.5-.21,.89-.51,1.19-.95,2.66-.23-4.74-2.86,.58-2.42,.53-.13,1.02-.35,1.45-.67,.5-1.12,1.14-2.1,2.5-2.32,.64-.34,1.26-.74,1.96-.92,1.2,.19,1.39,1.21,1.75,2.1,1.11,2.42,.58,5.32,2.29,7.55,6.21,4.23,11.43,.29,16.85-2.04,.93-1.03,1.5-2.23,1.74-3.59,.3-7.73-.13-15.34-4.05-22.31-.51-.36-1.08-.56-1.7-.59-3.29,2.73-6.22,2.82-8.99-.89-1.33-1.78-3.35-2.95-5.56-4.54,1.48-1.68,4.66-1.02,5-3.62,.31-2.43-1.16-4.26-2.32-6.17-1.05-1.74-2.05-3.54-3.57-4.95-5.59-6.77-11.91-12.74-19.49-17.68,4.59-.13,8.93-1.07,13.33-1.63,2.16-.27,4.85,.16,5.73-2.51,.74-2.24-1.13-3.74-2.46-5.26-.54-.61-1.11-1.19-1.66-1.79-2.16-2.26-3.86-5.01-6.81-6.44-3.32-1.91-6.2-4.43-9.25-6.71-.4-.32-.84-.59-1.28-.85-1.02-.58-2.03-1.21-2.94-1.95-.3-.28-.59-.57-.82-.89,.4-1.58,1.88-.77,2.77-1.24,.57-.09,1.12-.23,1.67-.4,9.6-.59,19.11-.66,28,3.79,2.27,.76,4.56,1.47,6.68,2.63,1.12,.54,2.25,1.01,3.52,1.09,1.92-.1,2.77-1.26,3.02-3.03,.06-3.07-1.75-5.19-3.7-7.24-4.98-3.88-8.75-9.09-13.86-13.11,7.46,.4,14.28,2.69,20.57,6.69,.44,.32,.9,.6,1.36,.88,1.35,.8,2.72,1.57,3.98,2.52,1.74,1.19,3.48,2.39,5.18,3.66,1.96,1.23,3.53,2.91,5.21,4.47,3.62,3.11,8.02,2.27,12.23,2.43,3.51,.07,6.82,1.02,10.18,1.95,4.43,1.23,7.49-.83,7.45-5.36-.14-13.09,.54-26.19-.41-39.27-.1-1.4-.92-2.87,.12-4.14,3.25-3.97,.32-4.63-2.73-5.29-8.06-1.69-16.24-.87-24.36-1.21-7.25,1.17-14.74-.08-21.9,2.06-.6,.09-1.19,.25-1.77,.42-2.71,.94-5.56,1.47-8.26,2.46-1.28,.46-2.57,.91-3.86,1.35-1.26,.45-2.55,.85-3.79,1.37-.95,.53-1.92,1.06-2.38,2.13-11.22,5.19-21.87,11.38-32.08,18.34-4.45,3.84-8.9,7.68-13.35,11.51-.34,.34-.69,.67-1.03,1.01-5.8,2.26-7.22,8.54-11.35,12.34-.86,1.54-1.72,3.07-2.58,4.61-1.17,1.65-.41,2.6,1.24,2.96,1.87,.41,2.26,2.04,3.08,3.36,.34,.58,.63,1.15,.86,1.78,.5,28.41,.11,56.8,.21,85.19,.1,30.03-.14,60.06,.14,90.09,.03,2.87-1.25,5.62-.53,8.5Z"/><path class="cls-54" d="M419.03,68.22c1.33-.05,2.82,.51,3.78-.98,2.16-3.16,5.78-1.7,8.61-2.74l-.09,.03c3.63-1.29,7.5-1.56,11.18-2.61,.86-4.3-2.52-3.33-4.43-3.11-2.47,.28-4.66,.31-6.7-1.23-1.61-.71-3.33-.46-5.01-.54-1.35,.04-2.79-.17-3.69,1.23,.28,.03,.42,.05,.42,.05-.18,.46-.32,.44-.42-.05-1.21,.03-2.42,.05-3.63,.08,1.25,2.78-1.93,5.02-.97,7.77,.06,.81,.26,1.57,.94,2.11Z"/><path class="cls-44" d="M431.3,58.27c1.22,2.35,2.7,3.94,5.57,2.17,1.86-1.14,3.7-.5,5.49,.29,.42,.42,.84,.43,1.24-.02,3.31-2.54,1.67-3.66-2.49-4.29,2.47-.51,3.74-.78,5.34-1.11-1.86-1.31-4.15-.04-5.32-1.96-2,.05-3.99,.1-5.98,.16-1.45,2.51-3.87,2.4-6.28,2.33-.56,1.72,.71,1.65,1.74,1.79,.52,.21,1.45-.37,1.54,.15,.14,.74,.23-.43-.46,.03,0,0-.41,.46-.41,.46Z"/><path class="cls-61" d="M419,65.65c.86-2.43,3.8-4.84,.06-7.3-7.33,2.98-9.22,6.77-6.12,12.26,.95,.08,1.93,.26,2.52-.81,1.14-1.42,2.51-2.65,3.54-4.15Z"/><path class="cls-61" d="M431.29,57.04c-.99-.04-1.9-.24-2.42-1.21-1.02,0-1.94,.23-2.5,1.2,1.3,1.76,3.22,1.07,4.92,1.23h0c.42-.27,.55-.55,.41-.82-.14-.27-.28-.41-.42-.41Z"/><path class="cls-48" d="M395.64,76.72c.66-.24,1.01-.37,1.37-.5-.55-.48-1.04-1.04-1.65-1.4-.49-.29-1.38-.24-1.21,.46,.15,.6,1.03,1.03,1.49,1.44Z"/><path class="cls-18" d="M479.26,62.03c0,1.38,7.11,1.61,.65,4.06-1.12,.43-1.05,1.34-.78,2.51,3.26,14.27,.32,28.78,1.52,43.16,.25,3.01-2.5,4.57-5.54,2.77-3.5-2.07-7.25-2.01-11.07-1.93,1.27,3.48,4.86,3.05,7.39,4.41,1.4,.48,2.83,.87,4.17,1.55,5.15,2.03,9.06,6.58,14.85,7.34,2.25-.31,4.19-1.33,3.8-3.82-1.5-9.75,1.25-19.39,.5-29.12-.48-6.26,.21-12.58-.78-18.84-.35-2.22-.28-4.47,1.24-6.38,1.38-2.6-1.7-2.3-2.34-3.59-2.9-.76-5.8-1.51-8.69-2.27-1.64,.05-3.28,.1-4.92,.15Z"/><path class="cls-61" d="M443.61,60.7c-.41,0-.83,.02-1.24,.02-3.27,2.44-7.94,.84-11.03,3.8,7.86-1.24,15.71-2.47,23.57-3.71-3.76-.04-7.53-.08-11.29-.12Z"/><path class="cls-18" d="M357.54,310.3c1.33-.71,2.22-1.05,2.21-3.33-.07-55.78,.09-111.56,.21-167.34,0-3.48-.02-6.95,0-10.43,.02-2.29,.09-4.58-2.47-5.75,.99-4.29-3.67-3-4.96-5.04-.37,.13-.76,.2-1.16,.21-3.77,2.03-5.79,5.4-7.15,9.29-.53,3.64,3.63,6.31,2.07,10.17-.13,.63-.27,1.23-.48,1.83-1.44,3.73-1.33,7.62-1.32,11.5,.07,41.64-.33,83.29,.33,124.92,.08,5.28-3.51,4.94-5.94,6.74-1.27,5.14,2.37,8,5.23,11.22l-.02-.04c4.78,5.09,7.74,11.71,13.44,16.03Z"/><path class="cls-58" d="M345.27,128.54c2.04-3.31,4.08-6.61,6.12-9.92,.72-3.33-1.73-3.35-4.35-3.78,2.57-.78,2.32-2.56,2.29-4.32-.04-2.41-1.35-2.57-3.19-1.93-1.16,1.26-2.31,2.52-3.47,3.78-.08,1.35-1.11,1.93-2.05,2.6-4.88,3.62-7.94,8.43-9.42,14.29,.43,1.77,3.77,1.76,2.17,5.21-1.26,2.73,1.61,4.95,4.81,5.43,4.4-2.52,5.6-7.03,7.09-11.37Z"/><path class="cls-61" d="M355.12,113.8c3.78-4.11,7.57-8.23,11.35-12.34-1.31-.58-2.96-1.37-3.74,.3-2.03,4.35-6.3,7.26-7.61,12.04Z"/><path class="cls-65" d="M380.87,332.66c-6.57-5.77-13.13-11.53-19.7-17.3-1.76,3.05-1.98,5.21,1.24,8.14,3,2.72,5.74,6.71,4.49,11.64,3.3,3.42,7.03,6.29,11.22,8.54,2.32,1.58,5.48-3.04,7.62,1.04,.23,.44,1.54-.29,1.71-1.66,.38-3.08,.52-5.99-1.88-8.39h0q-2.14,1.2-4.71-2.01Z"/><path class="cls-56" d="M366.91,335.14c3.76-.52,2.01-3.63,1.38-4.64-2-3.23-1.86-7.89-6.46-9.63-.8-.3-.47-3.6-.66-5.51-.79-.89-1.58-1.78-2.38-2.67-.66,.97-1.68,1.49-2.48,.56-4.49-5.19-7.11-1.71-9.74,1.98l1.32,2.43c3.42,2.28,5.7,5.63,8.26,8.73,3.58,2.91,7.17,5.83,10.75,8.74Z"/><path d="M498.65,375.42c5.17-1.47,10.47-2.12,15.82-2.51,1.88-.62,3.81,.83,5.69-.15,4.58-2.96,10.05-2.53,15.04-3.9,2.8-.77,5.51-1.33,6.66-4.42,6.57-3.35,13.14-6.7,19.71-10.04,6.18-4.42,12.36-8.84,18.54-13.25,2.82-2.58,5.64-5.16,8.46-7.74,5.59-1.13,7.04-6.72,10.68-9.95,1.95-1.74,3.24-4.06,4.9-6.06,1.49-1.71,2.15-3.84,2.96-5.89,1.71-3.13,3.42-6.26,5.13-9.39,1.14-1.34-1.16-2.66-.16-3.8,4.87-5.58,1.16-9.87-2.01-14.27-.95-.12-1.73,.21-2.41,.85-1.38,1.55-2.16,3.45-3.13,5.24-4.5,8.82-10.18,16.85-16.61,24.36-5.86,8.53-14.16,14.49-22.04,20.88-1.81,1.55-3.82,2.76-6.01,3.69-6.22,.49-12.43,1-18.67,.85-1.3,0-2.6,0-3.9,0-1.81,0-3.63,0-5.42,0-.38,0-.8-.01-1.21-.04,.79-.23-.23,.04,.59,.03,1.56-.01,3.13,0,4.69,0,.91,0,1.81,0,2.71,0,.97,0,1.93,0,2.89,0,3.24-.88,7.57,2.19,9.69-2.69-.84-3.95-4.33-4.6-7.34-5.45-3.62-1.03-6.72-2.75-9.47-5.23-2.65-1.73-5.57-2.73-8.69-3.07-.72-.24-1.06-.71-.84-1.51,3.59-6.87,2.13-14.17,1.76-21.33-.1-1.91-1.99-2.65-3.69-2.43-4.17,.53-5.73-1.71-6.75-5.29-.68-2.39-2.31-4.15-5.22-4.43-4.82-.47-7.39,2.03-4.79,5.81,2.24,3.26-1.52,5.54,.28,8.06,1.25,.81,2.66,.82,4.05,.65,2.55-.3,3.05,1.04,2.92,3.23-.18,3.15-.83,6.41,1.22,9.28,1.82,1.38,4.09,2.52,3.13,5.5,1.52,5.6-4.15,9.02-4.3,14.11-.12,1.43,.5,2.66,1.18,3.98-3.18-1.1-6.58-.66-9.62-2.03-10.07-1.86-20.13-2.48-30.16,.27-.95,.4-1.78,.98-2.54,1.68-2.47,2.46-2.9,4.75-1.98,8.62,1.72,7.24,2.6,15.08-1.09,22.15-1.75,3.35-1.04,3.94,2.25,4.75,2.57,.64,5.37-.84,7.68,1.06,6.46-.05,12.93-.1,19.39-.15Z"/><path class="cls-52" d="M479.26,375.57c-2.32-4.16-7.25,.23-9.69-3.22,2.67-1.35,3.7-4.26,3.38-6.92-.85-6.94,2.78-14.3-2.01-20.96-.47-.66,1.41-3,2.2-4.56-4.29-2.62-9.06-1.44-13.5-1.13-4.45,.31-2.46,5.72-1.77,6.18,2.93,1.95,1.68,4.19,1.44,6.46-.19,1.82-.23,3.65-.16,5.47,.19,5.38,1.21,11.14-6.88,11.81-1.33,.11-2.59,1.38-1.29,3.14,3.01,.27,5.95,.83,8.59,2.42,6.5,1.33,13.04,2.05,19.68,1.31Z"/><path class="cls-23" d="M419.37,322.84c-1.5,.49-3,.98-4.63,1.51,1.69,3.86,3.78,7.83-.63,10.6,10.71,1.17,22.02-1.16,33.22,1.15,1.74,2.03,4.37,1.82,6.59,2.67,2.81,.41,5.61-.36,8.41-.09,8.11,1.26,15.81-2.76,23.88-1.86,2.52-.28,4.17-1.46,2.11-3.82-1.95-2.23-1.23-3.9-.6-6.36,1.1-4.28,1.28-8.84-2.04-12.61-.84-1.03-1.88-1.91-2.36-3.21-.64-1.45-1.18-2.96-2.26-4.18-.39-.35-.81-.66-1.26-.92-2.39-1.51-1.59-4.93-3.88-6.5-4.17-.17-1.73,4.46-4.1,5.61-3.2,6.88-8.44,3.36-13.14,2.58-1.15,.29-1.93,1.1-2.67,1.94-2.01,2.77-5.22,3.65-8.06,5.11-5.34,2.67-10.44,6.34-16.96,3.88-3.99,1.21-8.36,1.43-11.61,4.51Z"/><path class="cls-44" d="M431.73,319.18c1.9,2.7,4.33,2.38,6.93,1.25,3.47-1.51,7.16-2.55,10.18-4.99-3.81-3.72-4.09-8.2-3.69-13.28,.5-6.5,.52-13.1-.08-19.62-.5-5.38-2.32-6.34-6.85-4.22,.39-.84,1.2-1.1,1.91-1.47,.75-.4,1.64-.1,2.4-.36,1.76-.6,2.13-1.73,.99-3.26-4.36,1.01-8.63,2.23-12.26,5.03-1.27,1.65-4.21,2.12-3.61,5.09,.61,.55,1.3,.66,2.06,.37-.78,.49-1.43,.19-2.05-.34-.4-.49-.81-.52-1.23-.03,.34,1.64-2.21,3.25-.05,4.91,2.92,5.53,1.45,11.51,1.78,17.3,.19,3.24-.24,6.52,.3,9.73,.3,1.78,.03,4.43,3.28,3.9Z"/><path class="cls-46" d="M431.73,319.18c-2.35-1.55-1.61-3.98-1.63-6.12-.08-6.7,.11-13.41-.12-20.11-.07-2.06,.82-5.64-3.6-4.7-6.36-.9-6.51,2.93-6.22,7.67,.33,5.44-.09,10.93,.14,16.38,.14,3.35-.49,6.29-2.53,8.93-.32,.41-2.02,.18-.75,1.28,.5,.44,1.56,.24,2.36,.33,4.4-.26,8.49-1.58,12.36-3.66Z"/><path class="cls-58" d="M453.52,337.22c-1.9-1.29-4.05-1.21-6.19-1.13-1.98,1.37-4.1-.5-6.1,.27,2.5,9.62,.58,19.41,1.07,29.11,.17,3.4-3.2,2.11-5.1,3.43,3.58,.98,6.85,1.88,10.13,2.78,3.4-3.39,4.49-7.47,4.34-12.23-.23-7.46-.5-14.97,1.86-22.23Z"/><path class="cls-46" d="M414.95,291.79c-.34,.33-.68,.66-1.02,.99,.13,1.28-.19,2.4-1.03,3.41-.76,.91-.96,2.08,.39,2.39,1.07,.25,2.31-.22,3.47-.38-.81-2.08,1.95-5.17-1.82-6.41Z"/><path class="cls-59" d="M406.69,320.25c-.02,.74-.05,1.49-.07,2.23,1.94,1.65,2.97-.51,3.71-1.34,.96-1.07-.92-1.28-1.51-1.85-1.29-1.25-2.02-.72-2.13,.95Z"/><path class="cls-46" d="M426.42,283.34c.4-.01,.79-.02,1.19-.02,1.22-1.69,2.43-3.38,3.65-5.07-2.18,.53-3.77,1.83-4.91,3.72,.03,.46,.05,.91,.08,1.37Z"/><path class="cls-46" d="M414.52,302.17c.44,.53,.69,1.15,1.1,1.28,.88,.28,1.5-.31,1.44-1.16-.03-.4-.68-1-1.1-1.05-.4-.04-.86,.52-1.44,.92Z"/><path class="cls-50" d="M453.52,337.22c-3.06,2.53-4.05,5.77-3.83,9.71,.25,4.65-.7,9.49,.27,13.94,.97,4.43-3.47,6.86-2.64,10.81,1.22,.05,2.44,.11,3.66,.16,2.57-3.42,6.12-3.65,9.92-3.01,.47-7.26-1.3-14.57,1.12-21.72,1.35-3.98-2.96-1.2-3.77-3.07,4.83-.86,3.22-2.2-1.85-4.12,6.94,0,11.83,0,16.73,0,.4-.4,.81-.79,1.21-1.19-4.18-1.7-8.69,.24-12.9-1.15-2.64-.12-5.28-.24-7.93-.36Z"/><path class="cls-11" d="M324.09,245.27c1.62,10.44,5.04,20.28,9.98,29.61,6-.05,5.87-4.75,6.21-8.65,.94-11.02,.64-22.09,.64-33.14,0-21.09,.05-42.18-.03-63.27-.02-4.88,.03-9.73-2.21-14.41-3.01-6.29-2.77-6.4-7.42-.83-1.73,1.07-2.53,2.84-3.38,4.57-2.96,8.44-6.19,16.81-6.14,25.96,3.81,2.64-.4,4.19-.88,6.26-.36,1.13-.48,2.27-.31,3.44,.26,.99,.59,2.47,1.61,2.31,2.16-.34,2.51-2.08,2.06-4.76,.04,9.99-1.18,19.37,2.9,27.24,.47-2.73-2.75-2.41-4.5-2.44-2.43-.05-2.09,2.53-2.09,4.27,0,2.27,1.44,3.5,3.27,4.77,1.93,1.33,3.65,2.37,1.16,5.95-2.25,3.25-1.11,8.66-.86,13.13Z"/><path class="cls-1" d="M331.6,155.23c3.17,.66,1.63-3.83,4.78-3.71-3.77,4.24,2.32,5.55,2.44,9.46,.38,12.24,.1,24.46,.2,36.68,.15,19.18,.36,38.38-.16,57.55-.15,5.59,1.34,11.54-1.9,17.03-.84,1.42-2.23,1.47-2.89,2.63,.89,2.31,1.78,4.61,2.67,6.92,.71,.98-.22,3.33,2.32,2.78,.73-1.37,1.56-2.68,3.2-1.08,4.54,4.41,4.72,.87,4.62-2.6-1.02-37.62-.15-75.26-.43-112.88-.05-6.75,.42-13.54-.18-20.24-.31-3.49,2.14-6.23,1.4-9.56,2.55-4.06-1.91-6.37-2.4-9.67-2.44,3.71-4.88,7.42-7.32,11.13-4.14,4.36-7.5,9.04-6.34,15.57Z"/><path class="cls-3" d="M322.87,185.63c.5-9.22,4.35-17.63,6.37-26.48-.39-5-1.08-9.97-1.96-14.88-.41-2.3-1.99-1.24-2.98,.09-1.17,2.08-2.34,4.15-3.51,6.23-4.16,4-4.9,9.55-6.51,14.66-1.39,4.41-2.21,8.98-3.45,13.43-.5,2.23-.6,4.54-1.36,6.72-.74,3.95-.54,7.9-.06,11.86-.86,13.97-.42,27.9,1.25,41.8,2.85,11.21,4.53,22.76,9.94,33.2,.85-2.68,4.51-4.85,.41-8.4-1.03-.89,1.31-5.7,1.65-8.95,.58-5.51-2.98-10.68-.72-16.11,2.76-3.33,1.57-7.1,.65-10.5-1.32-4.84-1.37-9.35-.4-14.32,1.03-5.29,1.18-10.92-.53-16.29-.39-1.23-.46-2.37,.02-3.55,.09-1.02,.18-2.04,.28-3.06,.98-1.7,.45-3.66,.9-5.45Z"/><path class="cls-7" d="M321.69,194.14c-2.47,12.25-1.6,24.54-.51,36.83,.23,2.61,.51,5.22,.77,7.84,.71,2.16,1.42,4.31,2.13,6.47,1.55-4.4,1.87-8.97,1.57-13.58,1.55,0,.87,2.19,2.86,1.63-1.35-3.33,1.16-8.37-5.56-9.12-1.9-.21-1.1-3.86-.84-6.08,2.45,1.33,5.13,2.25,5.75,5.67-1.49-10.65-3.02-21.05-1.52-32.18-2.81,1.15-2.51,3.13-3.43,3.83-1.75,1.32-.68-.93-1.22-1.3Z"/><path class="cls-44" d="M339.05,284.58c-.77-.93-1.54-1.85-2.32-2.78-.71,6.04,2.01,10.06,7.39,12.5-1.69-3.24-3.38-6.48-5.07-9.72Z"/><path class="cls-52" d="M631.73,250.11c.36-.53,.72-1.06,1.08-1.59,2.94-20.84,2.46-41.61-1.15-62.33-1.09-3.32-2.18-6.65-3.27-9.97-2.4-2-3.98-1.54-3.27,1.66,.97,4.36,1.59,8.82,3.15,13.04,.45,1.6,.65,3.24,.72,4.9,.98,2.42-1.2,3.58-2.12,5.25-.75,2.9-.57,5.8-.05,8.71,1.02,6.82,1.2,13.63-.23,20.42-.48,2.8-.52,5.65-.16,8.44,.27,2.13-.75,5.64,3.65,4.71-.91,2.61-2.43,5.38,1.66,6.77Z"/><path class="cls-55" d="M629.3,191.08c-.77-4.44-.93-9-2.89-13.19-1.36-2.91,.77-1.77,1.98-1.67-.18-1.46-.36-2.93-.53-4.39-1.01-.73-1.05-1.79-.97-2.89,.4-.32,.49-.55,.29-.68-.13-.09-.31-.13-.54-.13-1.57-3.43-3.13-6.87-4.7-10.3-.41,1.33-.43,3.11-1.32,3.9-1.97,1.76-3.46,6.07-7.27,2.3-2.14,3.5,.5,6.43,1.22,9.56,.53,2.3,1.38,4.54,1.96,6.84,1.04,5.2,3.67,9.96,4.17,15.3,.72,2.09,.83,4.24,.75,6.43,.05,1.62,.2,3.22,1.06,4.65,.42,.52,.97,.82,1.63,.89,2.47-.23,2.73-2.15,3.08-4.01-.78-3.08-.11-6.08,.51-9.08,.45-1.21,1.2-2.29,1.57-3.53Z"/><path class="cls-22" d="M588.95,315.4c6.86-7.39,12.54-15.58,16.87-24.7-7.48-.06-8.97-1.39-8.99-9.21-.09-41.2-.09-82.4,.01-123.59,0-3.2-.44-6.75,3.31-8.58,2.11-.97,2.98-2.73,3.12-4.94-4.22-8.56-9.66-16.28-16.06-23.33-4.08-1.24-5.69,.97-6.25,4.54-.35,2.23-.24,4.5-.24,6.75,0,22.74,0,45.48,0,68.21,0,2.66,.31,5.4-.55,7.94-1.22,3.6-1.25,6.72,1.89,9.44,2.16,1.87,.42,4.8,.91,5.73-.08-.45,.65-2.51-.82-4.84-4.34,4.8-5.99,9.72-4.25,15.65,2.14,3.04,3.17-1.19,5.31-.7-3.69,4.47,1.32,10.49-3.07,14.89-.45,.45-.45-.12-.08,.53,7.15,12.55,1.55,26.16,3.29,39.16,.21,1.6,.31,3.32-.02,4.88-.67,3.18,2.33,5.66,1.54,8.69-.84,3.21-.43,6.45-.71,9.67-.11,1.25,.3,2.42,1.32,3.29,1.07,.78,2.21,1.07,3.47,.52Z"/><path class="cls-42" d="M579.06,235.22c-.89-5.2,.38-9.96,3.17-15.05,.24,2.53,.43,4.55,.62,6.58,.46-3.69,3.04-7.93,.12-10.8-4.28-4.21-.1-7.98-.17-11.83-.49-25.09-.25-50.2-.25-75.3,0-3.51-.87-7.56,4.65-7.78-6.86-8.96-14.63-17.01-23.81-23.64-2.54-.57-4.79-.44-5.94,2.4-.03,1.6,1.13,2.42,2.17,3.33,1.63,2.61,1.25,5.53,1.26,8.36,.03,23.07-.02,46.15,.06,69.22,.01,3.92-.73,7.7-1.23,11.53,13.19,10.57,16.94,24.86,16.22,40.98-.11,2.56-.44,5.35,1.79,7.43,5.22-.64,3.61-2.96,1.33-5.43Z"/><path class="cls-19" d="M553.2,89.88c-3.33-2.98-6.75-5.81-11.24-6.89-2.09,.34-4.42-1.03-6.28,.89-.23,3.56,2.29,6.4,3.48,9.32,1.62,3.96,2.33,7.64,2.35,11.69,.05,11.02-.07,22.04,.06,33.06,.02,1.83,.22,3.68-.83,5.34-.28,.49-.44,1.01-.49,1.56,.13,1.15,1.01,1.81,1.66,2.63,1.15,1.42,.28,2.98,.27,4.48-.03,.96,.08,1.89,.31,2.83-1.76,7.04-1.27,14.2-1.26,21.32,0,28.39-.03,56.79,.03,85.18,0,3.83-.42,7.88,3.08,10.75,5.31,1.24,7.98-1.59,9.52-6.18,3-3.47,.88-7.39,.99-11.12,.51-16.17-.1-32.33,.02-48.5,.26-36.22,.28-72.44,.04-108.66-.02-2.69-.54-5.29-1.71-7.73Z"/><path class="cls-8" d="M603.27,144.38c-.75,1.22-1.51,2.44-2.26,3.66,2.74,9.3,1.08,18.57-.24,27.83-.4,2.85-.47,5.71-.47,8.57,0,24.14-.02,48.28,0,72.42,0,8.02,1.11,15.9,3.2,23.64,.69,2.56,1.21,5.34,4.82,5.27,.44-.4,.88-.8,1.33-1.21,4.64-4.67,6.27-10.61,7.14-16.87-.37-4.87-.32-9.77-.45-14.66-.04-1.59-.75-3.65,1.87-4.44,.92-.28,1.11-2.1,.49-2.74-5.29-5.52,.67-12.76-2.72-18.65-.1-.17,3.54-3.49,2.3-5.72-4.37-7.83-.58-15.42,.1-23.1,.13-1.44,.47-2.82-.36-4.16-2.9-4.72-1.62-9.45-.01-14.18-1.56-5.34-3.11-10.67-4.67-16.01-3.61-6.42-5.66-13.64-10.08-19.64Z"/><path class="cls-13" d="M553.2,89.88c-2.07,3.76-.02,7.57-.03,11.35-.17,50.49-.12,100.97-.1,151.46,0,2.22-.4,4.84,.59,6.6,2.75,4.9-.54,3.84-3.26,3.68-.16,2.06,2.52,1.85,2.78,3.49,3.75,.9,5.18-1.63,6.45-4.38,.03-.58-.11-1.11-.42-1.6-1.72-1.74-2.44-3.87-2.48-6.22,.3,1.83,.8,3.5,2.32,4.66,.59,.17,1.16,.12,1.71-.13,3.22-3.2,2.06-7.62,2.43-11.29,.74-7.41,.31-14.97,.14-22.46-.07-2.8,.11-5.9-3.65-6.77-1.37-.21-2.44-.66-1.85-2.4,.35-1,.77-1.98,.9-3.04-.65-2.58-2.29-5.25,.67-7.51,.91-.88,1.77-1.8,2.22-3.03,.72-3.11,1.16-6.18-1.22-8.86,1.91-2.95,2.59-6.09,2.57-9.68-.14-25.73-.03-51.45-.18-77.18-.01-1.76,2.01-5.17-2.35-5.28-1.3,.57-2.91,1.74-2.46-1.22,1.81-.89,3.63-1.78,5.44-2.67-3.09-2.93-6.3-5.71-10.21-7.53Z"/><path class="cls-17" d="M522.32,72.97c-6.65-3.33-13.57-5.85-20.91-7.14-.6,1.81,.06,3.14,1.58,4.14,.61,.25,1.25,.39,1.91,.44,3.1,.62,6.12,.82,3.76,5.62-1.39,2.82-.51,6.42-.51,9.67-.01,13.43-.06,26.86,.03,40.28,.02,3.42-.33,7.07,3.33,9.23,.73,.38,1.51,.64,2.28,.89,6.37,2.04,7.9,1.09,7.9-5.47,.01-12.89,.03-25.78-.03-38.67-.02-3.54,.12-6.98,2.89-9.65,1.1-.37-1.39-3.05,1.5-2.29,.55-.13,1.01-.4,1.39-.81-.28-3.26-4.8-3.02-5.12-6.23Z"/><path class="cls-9" d="M540.75,144.35c1.5-.21,3.41,.41,3.11-2.43-1.45-13.66-.27-27.38-.65-41.07-.08-3,.13-5.8-2.78-8.25-1.65-1.39,.38-4.43,.63-6.94-1.57-.95-4.79,2.87-5.22-1.57,1.15-1.04,1.72-2.32,1.62-3.89-3.81-2.89-8.08-4.85-12.6-6.31-.89,3.38,2.87,2.76,3.86,4.52,1.25,.65,1.85,1.87,2.54,3,.67,15.49,.22,30.97,.23,46.44,0,1.84-.41,3.64-.97,5.4-.32,.98-.6,1.96-.53,2.99,.19,2.79,2.41,3.51,4.51,4.32-3.02,2.58-.7,3.24,1.42,3.98,1.63,.32,3.24,.18,4.84-.21Z"/><path class="cls-11" d="M502.62,69.34c-.4-1.17-.81-2.34-1.21-3.51-2.76-1.01-5.54-1.92-8.54-1.68,.79,.91,1.58,1.82,2.37,2.73,2.05,5.02,3.16,5.39,7.38,2.46Z"/><path class="cls-6" d="M529.68,77.95c-1.12-1.94-4.04-1.72-4.84-4.05-.62-.91-1.54-1-2.52-.94-2.85,5.6,3.7,3.8,4.89,6.21,1.31,.57,2.58,1.07,2.46-1.22Z"/><path class="cls-6" d="M537.45,80.21c-1.65,.83-1.61,2.37-1.62,3.89,2.06-.26,4.34,.73,6.12-1.1-1.67-.66-2.13-3.27-4.5-2.79Z"/><path class="cls-55" d="M629.3,191.08c-1.58,.06-2.4,.88-2.46,2.46-.97,3.28-.97,6.56,0,9.84-.82,1.23-1.64,2.46-2.46,3.69-2.57,2.94-1.64,6.52-1.72,9.87-.13,5.04-.06,10.09-.02,15.13,1.06,5.09,.28,10.44,2.27,15.44,1.34,3.37-1.28,6.21-1.97,9.28-.99,4.44-.45,7.93,2.66,11.12,.42,.43,.93,.72,1.51,.89,2.57-5.97,3.97-12.24,4.62-18.68-1.82-6.45-4.81-12.67-3.67-19.67-1.23-6.97-.81-13.94,0-20.91v-9.84c1.85-.54,1.51-2.54,2.46-3.69-.16-1.7,.53-3.62-1.23-4.92Z"/><path class="cls-55" d="M624.56,276.33c.75-1.38,1.5-2.75,2.25-4.13,.1-1.13,.2-2.27,.3-3.4,0,0-.41-.31-.41-.31-.4-.13-.8-.09-1.2-.08-2.27,.09-.57-4.68-3.64-3.19-1.98,.96-2.32,3.34-2.01,5.4,.41,2.74,.46,6.03,4.71,5.71Z"/><path class="cls-4" d="M624.56,276.33c-3.36-2.82-3.87-5.03-2.09-10.8,.84,2.3,.42,6.85,4.23,2.96-3.28-6.25-2.82-11.91,.36-18.48,1.29-2.67-1.98-7.96-2.14-12.29-.04-1.2-.36-2.39-.55-3.59-.54-.38-1.07-.37-1.59,.01-.95,1.24-1.06,2.66-.92,4.13,.74,2.11,.02,4.05-.79,5.97-.17,.81-.15,1.62,0,2.43,.16,.78,.27,1.65,.7,2.29,1.59,2.38-.28,2.45-1.78,2.81-1.87,5.07-4.22,10.01-4.21,15.58-.91,6.14-4.5,11.34-6.14,17.22,1.53,4.53,6.16,8.73,1.08,13.93-1.04,1.06,1.26,2.25,1.5,3.6,4.34-4.92,5.91-11.41,9.47-16.77,.95-3,1.91-6,2.86-9Z"/><path class="cls-50" d="M324.3,144.35c3.37,1.51,2.63,5.74,2.37,7.26-.53,3.08-2.32,5.3,2.45,5.8,.1,.01,.08,1.13,.12,1.74l2.36-3.92c1.01-5.64,4.72-10.18,6.34-15.57-1.21-2.37-6.25-2.75-2.02-7.84,2.98-3.58-2.9-.74-3.98-2.22-2.14,.28-3.07,1.54-2.94,3.65-1.05,3.92-4.13,6.98-4.7,11.1Z"/><path class="cls-44" d="M428.85,107.38c1.25,2.08,2.5,4.16,3.74,6.24,1.2,1.46-.08,2.86-.11,4.3-.07,.64-.07,1.27-.04,1.91-3.35,16.51-1.45,33.17-1.38,49.77,.01,2.83,.58,5.68-1.41,8.13,1.71,5.93,4.7,11.61,3.23,18.16-.22,.98,.71,2.22,1.1,3.34,1.02,1.98,2.82,1.83,4.61,1.7,4.36-1.5,9.02-.04,13.41-1.31,1.02-.45,1.78-1.13,1.92-2.31-.11-1.17-.82-1.82-1.9-2.13-3.94,.9-6.86-3.36-10.16-2.26,3.02-.09,2.38-2.91,2.37-5.19-.12-23.48,.15-46.96-.17-70.43-.06-4.36,.75-7.97,3.55-11.2-1.38-1.69-3.09-2.89-5.16-3.58-.48-.41-1.15-.73-1.64-.48-2.59,1.28-2.34-.33-2.11-1.98h.02c-1.97-.59-3.61-1.76-5.34-2.83-2.17-1.34-4.59-2.46-6.34,.54-1.3,2.23-2.18,5.01,.93,6.26,2.49,1-.11,2.48,.88,3.37Z"/><path class="cls-60" d="M447.61,106.09c-6.41,.81-5.41,5.2-5.36,9.87,.24,23.33,.12,46.67,.1,70.01,0,3.31,1.89,8.1-5.47,6.72,5.91-.4,9.63,5.78,15.32,3.32,2.4-1.71,2.02-4.26,1.98-6.69-.26-21.03,.01-42.06-.15-63.08,0-1.02-.39-2.26,.09-3.03,3.18-5.03,.59-9.14-1.88-13.31-1.21-1.68-2.55-3.2-4.64-3.81Z"/><path class="cls-50" d="M452.25,109.9c-4.11,2.39,.58,3.39,.92,5.05,.3,1.49,3.99,2.92-.59,3.87-2.15,.45-.57,2.31-.56,3.59,.13,24.12,.23,48.25,.33,72.37,0,.41-.1,.81-.15,1.22,.44,.51,.89,1.03,1.33,1.54,4,.96,7.98,.09,11.98-.07,4.49-2.03,9.98-1.25,13.89-4.92-.82-4.23-3.93-2-6.17-2.21-3.26-.34-5.92,1.11-8.63,3.04-1.63-13.09-.58-26.07-.81-39.01-.19-10.81-.02-21.63,0-32.44,0-4.04,2.16-4.85,5.53-2.89,.53,.17,1.08,.23,1.64,.18,1.88-.55,1.25-2.05,1.25-3.32-2.27-2.22-5.73-1.5-8.17-3.3-4.16,.1-8.34,.31-11.79-2.7Z"/><path class="cls-62" d="M433.76,118.53c0-.41,0-.82,0-1.23-.88-1.3-2.84,.09-3.62-1.45-.48-.84-1.22-1.18-2.16-1.14-2.54-.93-5.28-1.28-7.67-2.65-2.78-1.02-5.37-2.67-8.48-2.56-1.06,.94-.56,2.25-.82,3.38-.93,4.05,3.14,8.51-1.33,12.43-1.11,.97,.77,3.34,1.34,5.04,1.27,2.07,3.38,3.56,4.31,6.39-2.16,.96-6.24-.84-6.55,2.41-.43,4.55-.95,9.44,1.45,13.71,.89,1.58,1.56,3.29,2.63,4.77,1.75,3.8,5.11,6.75,6.06,11.04-2.72,1.7-5.67-.5-8.6,1.01,4.27,3.71,8.32,7.28,12.42,10.79,1.02,.87,1.78,2.59,3.47,1.96,1.72-.63,1.39-2.23,1.19-3.68-.14-1.05,.57-1.36,1.44-1.46,1.34-1.09,3.82-1.7,2.73-4.07-1.25-2.7-4.15-1.88-6.52-2.11,2.25-5.34,.44-45.56-2.28-48.81,1.96-.47,4.04-.67,4.97-2.72-.16-2.81-3.06-.74-4.31-2.5,1.43,1.46,3.51,.14,4.4,1.88,2.18,2.6,4.09,1.69,5.92-.42Z"/><path class="cls-49" d="M456.99,310.38c.5-.69,1-1.38,1.5-2.07,1.49-1.71,.67-4.11,1.78-5.95,.2-1.24,.45-2.46,.72-3.69,1.25-18.72,.27-37.45,.57-56.17,.05-3.05,.05-6.11,.08-9.16,.02-2.28-.1-4.52-2.24-5.98-1.79-.93-3.56-.76-5.54-.35-1.34,.28,.64-.58,.01-.94-.13-.58-.42-1.03-.88-1.4-2-1.14-4.09-1.85-6.42-1.6-5.06,3.17-5.27,4.35-1.84,10.15,.37,.04,.74,.09,1.1,.14,1.3-.58,1.83-1.88,2.66-2.86,.38-.41,.85-.64,1.44-.63-.57,.06-1.07,.24-1.48,.68-2.31,2.6-1.18,4.9,.7,6.99,4.36,4.87,3.21,9.89,.61,15.01,.02,1.6,1.13,2.66,2.3,3.16,3.28,1.43,1.2,2.78,.15,4.22-3.63,5.61-.94,11.86-1.5,17.76-.88,9.27-.55,18.74,.08,28.1,.23,3.37,1.39,6.81,6.21,4.57Z"/><path class="cls-56" d="M433.76,118.53c-2.05,.2-4.1,1.7-6.15,0h0c-1.48,1.97-3.73,2.28-6.9,2.89,3.14,1.93,3.19,4.54,3.26,7.33,.29,11.37-1.09,22.81,.79,34.11,.64,3.88-1.17,6.67-3.24,9.8,2.67,0,4.87-.31,6.95,.06,5.24,.95-.66,3.09,.38,4.56,.13,.39,.4,.54,.8,.45,2.32-.22,4.05-.18,3.66-3.84-1.62-14.96-.34-30.02-.89-45.02-.13-3.63,3.32-6.61,1.35-10.34Z"/><path class="cls-57" d="M456.99,310.38c-3.34,.17-4.74-1.41-4.82-4.76-.2-9.16-.87-18.49,.04-27.42,.64-6.25-1.11-12.21-.01-18.25-4.27,3.76-4.76,8.29-2.33,13.4-2.37,.04-4.34-2.45-6.36-.12-.26,4.43-5.59,1.74-6.87,5.31,10.02-1.69,6.93,5.74,6.82,10.4-.16,6.79,1.07,13.58-.88,20.47-.69,2.45,3.26,4.86,6.26,6.04,3.05-1.15,6.25-2.06,8.15-5.06Z"/><path class="cls-46" d="M421.15,240.41c2.18,3.09,5.65,4.31,8.75,6.07,3.6,2.06,7.28,3.75,11.6,2.53,6.61-3.66,2.26-9.02,2.12-13.72-.54-2.32-.76-4.7-1.19-7.05-.38-2.11-.88-4.07-3.29-4.37-2.41-.3-2.7,1.91-3.42,3.49-.33,.73-.68,1.44-1.14,2.09-1.81,1.55-3.49,1.18-5.08-.34-1.61-1.69-3.42-3.1-5.65-3.88-4.29-1.83-8.58-2.7-12.8,.13-1.24,.83-3.29,1.7-.41,3.14,.15,.07,.55,.1,.44,.1-2.19,.03-3.11,1.24-2.47,3.15,.83,2.47,2.98,1.43,4.7,1.27,1.02-.1,1.96-.52,2.85-1.03,.99-.94,1.89-2.09,3.52-1.78-1.11,.26-2.21,.52-3.05,1.37-.08,.18-.16,.37-.25,.55,5.01,.79,2.96,5.64,4.76,8.27Z"/><path class="cls-62" d="M432.58,202.3c-5.17,1.62-10.06,5.23-15.89,2.26-1.12-2.51-.53-6.28-4.78-6.5-1.38-.39-2.71-.07-4.05,.24-.4,.08-.79,.22-1.15,.42-1.45,.71-.33,2.5-1.42,3.37-.38-.04-.74,.03-1.07,.22-.87,.39-1.45,.96-1.17,2.02,3.89,3.36,4.13,8.84,7.31,12.61,1.27,2.24,2.86,4.13,5.51,4.8,2.54,.61,5.07,.67,7.59-.11,1.49-.6,2.65-1.62,3.63-2.87,2.17-6.64,1.42-8.33-4.88-11.24,2.06,.36,3.98,1.62,6.18,2.05,1,.19,2.81,.77,2.88,.44,.94-4.95,6.32-4.44,8.78-7.4,.26-.32-.45-1.03-1.01-1.34-2.29-.47-4.52-.63-6.47,1.03Z"/><path class="cls-61" d="M421.15,240.41c2.51-1.12-3.05-6.44,3.29-5.7-1.92-3.36-6.03-.38-7.9-3.04-2.32-1.47-4.62,.69-7.44,.25,3.38-7.76,9.02-7.39,15.24-5.34-.41-3.95-3.19-4.67-6.44-4.75-1.12,0-2.19-.19-3.17-.78-1.42-.63-2.65-1.76-4.35-1.66-.35,0-.7-.03-1.05-.1-1.81-.85-3.66-.05-5.48-.12-.88,.81-1.75,1.63-2.63,2.44,.07,1.47-.15,3.09,1.79,3.63-1.57,6.29-2.01,13.25-9.58,15.92,1.24,1,2.3,2.12,2.54,3.79,8.17-.78,15.48-3.17,19.42-11.54,2.46,2.84,1.91,6.75,5.75,7.01Z"/><path class="cls-64" d="M412.86,157.62c.28-5.4-3.25-9.93-2.98-15.63,.19-4,1.25-3.91,4.01-3.61,.97,.1,1.69,2.49,2.81,.45,.79-1.44,1.01-3.21-.48-4.4-1.77-1.42-3.51-2.8-4.6-4.83-.8-1.37-1.7-2.46-3.45-1.29,1.17,2.52,5.49,3.99,4.31,6.76-1.23,2.9-5.08,.7-7.74,1.05-4.93,.64-9.92,.76-15.24,1.83,9.22,5.09,16.3,12.37,23.37,19.68Z"/><path class="cls-65" d="M408.17,128.31c1.15,.43,2.3,.86,3.45,1.29-.96-4.51,2.41-8.54,1.33-13.17-.49-2.13-.1-4.47-1.33-6.49-6.86-3.12-14.11-.17-21.09-1.39l.1-.04c-.76,1.67-4.08,.89-3.59,3.75l.3,.33,.45-.04c.87,.84,3.18-.5,2.98,1.97,.09,.41,.35,.57,.76,.48,.96,.32,2,.92,2.95,.65,6.69-1.93,6.7,2.74,7.1,7.06,3.42,.43,3.67,4.59,6.59,5.6Z"/><path class="cls-11" d="M416.61,222.84c3.13,.1,5.75,1.27,7.74,3.74,2.2,.54,3.02,2.64,4.51,3.99,2,1.28,4.4-.07,6.43,.99,2.95,.26,1.49-2,1.89-3.24,.44-1.37-.2-3.77,2.18-3.57,1.67,.14,1.68,2.02,1.68,3.45,0,2.69,.45,5.2,2.59,7.1l1.1-2.08c1.25-2.9-5.02-7.58,2.15-9.08,1.31-.9,3.19,.23,4.34-1.23,0-1.1-.68-1.71-1.58-2.16-7.79-.88-15.3-4.63-23.41-2.27-1.12,.28-1.96,.89-2.34,2.02-1.94,2.3-5.78-1.34-7.28,2.33Z"/><path class="cls-62" d="M428.85,107.38c.92-1.01,1.83-2.01,2.97-3.26-2.09-1.23-6.73-.81-4-5.44,2.27-3.84,4.41-1.09,6.39,.14,1.45,.9,2.85,1.37,4.5,1.24-7.85-6.04-16.74-8.69-27.92-8.8,6.7,5.98,12.37,11.05,18.05,16.12Z"/><path class="cls-58" d="M448.51,230.44c-1.33,.58-2.2,1.58-2.69,2.92,1.31,6.4,2.61,12.8,3.92,19.2,.6-1.45,2.73,.7,2.92-1.05,.59-5.52,2.79-11.45-3.08-15.68-2.14-1.54-1.39-3.47-1.07-5.4Z"/><path class="cls-48" d="M390.53,108.55c4.86,.92,9.53,3.73,14.73,.33,1.56-1.02,3.6,3.91,6.37,1.06,2.88,.85,5.76,1.7,8.64,2.55,.64,.49,1.17,.39,1.59-.29-10-4.97-20.43-6.36-31.32-3.64Z"/><path class="cls-48" d="M401.58,122.71c2.8-5.54,1-8.85-4.72-8.53-1.79,.1-3.55,.54-5.33,.82,3.35,2.57,6.7,5.14,10.04,7.71Z"/><path class="cls-45" d="M441.5,249.02c-3.87-.84-7.73-1.69-11.6-2.53,3.45,2.76,6.75,6.18,11.6,2.53Z"/><path class="cls-62" d="M438.7,100.04c-.75,.62-1.5,1.23-2.24,1.85-1.2,1.01-.91,2.2-.04,3.08,1,1,1.74-.13,2.38-.75,1.04-1,2.18-1.67,3.65-1.72-.89-1.37-2.17-2.15-3.75-2.46Z"/><path class="cls-68" d="M403.01,225.24c-1.14-.94,.13-3.08-1.79-3.63-1.84,.63-3.76,1.16-5.01,3.48,2.34,1.36,4.63,0,6.8,.16Z"/><path class="cls-16" d="M432.58,202.3c2.43-.11,4.85-.22,7.28-.33,.98-.19,1.61-.69,1.56-1.78-.78-1.39-1.91-1.11-3.08-.65-1.45-.1-2.9-.21-4.36-.31-.47,1.03-.93,2.05-1.4,3.08Z"/><path class="cls-47" d="M411.41,198.8c2.53,1.22,3.97,3.44,5.28,5.77-.53-2.83-1.06-5.66-1.59-8.49-.68-.47-1.22-.09-1.76,.29-.52,.39-1.02,.82-1.5,1.27-.33,.32-.48,.71-.43,1.17Z"/><path class="cls-48" d="M387.04,112.26c1.02-1.42,3.26-1.68,3.59-3.75-2.12,.06-4.7-.72-5.87,1.66-.54,1.1,.95,1.97,2.28,2.1Z"/><path class="cls-61" d="M431.42,64.5c-3.21-.16-6.97-2.05-8.61,2.74,2.87-.91,5.74-1.83,8.61-2.74Z"/><path class="cls-47" d="M407.87,198.31c.94,1.97,2.32,.69,3.55,.48,0,0,.22-.35,.22-.35,.3-1.15-.28-1.73-1.31-2.02-1.13-.3-2.31-1.02-3.35-.06-.17,.15,.57,1.27,.88,1.94Z"/><path class="cls-47" d="M405.3,202.09c1.6-.65,1.36-2.07,1.42-3.37-1.38-.12-2.75-.24-4.09-.36-.47,2.5,2.59,1.92,2.67,3.72Z"/><path class="cls-12" d="M410.38,219.39c.86,1.35,2.37,1.6,3.69,2.15,.59-.09,1.01-.42,1.27-.96-1.66-1.21-3.31-2.43-4.97-3.64,0,.82,0,1.63,0,2.45Z"/><path class="cls-64" d="M419,65.65c-2.54,.23-3,2.22-3.54,4.15,1.19-.53,2.38-1.05,3.57-1.58-.01-.86-.02-1.71-.03-2.57Z"/><path class="cls-59" d="M380.87,332.66c.16,2.42,1.67,3.64,3.87,3.84,.97,.09,.88-1.06,.83-1.84-2.06,.48-2.94-1.81-4.71-2.01Z"/><path class="cls-65" d="M421.85,112.19c-.53,.1-1.06,.19-1.59,.29,2.3,1.68,4.87,2.44,7.71,2.22-1.75-1.54-3.84-2.27-6.13-2.51Z"/><path class="cls-47" d="M403.07,204.34c.39-.67,.78-1.35,1.17-2.02-1.44,.11-3.26-2.37-4.15-.1-.59,1.52,1.87,1.49,2.98,2.12Z"/><path class="cls-51" d="M413.93,197.46c.39-.46,.78-.92,1.17-1.38-.3-1.88-1.55-2.47-3.28-2.41-1.69,2.59-.01,3.32,2.11,3.8Z"/><path class="cls-28" d="M413.93,197.46c-1.06-1.07-3.19-1.54-2.11-3.8-1.51,.37-1.59,1.52-1.49,2.77,.44,.67,.87,1.34,1.31,2.02,1.01,.24,2.04,.54,2.29-.99Z"/><path class="cls-26" d="M395.97,244.94c-.11-1.76,1-4.34-2.54-3.79,.58,1.44,.06,3.62,2.54,3.79Z"/><path class="cls-68" d="M403.85,219.17c1.8,1.32,3.65,.29,5.48,.12-1.77-2.5-3.62-1.67-5.48-.12Z"/><path class="cls-48" d="M390.78,114.51c.38-.61,.76-1.22,1.15-1.82-1.38-.05-2.75-.09-4.13-.14,.99,.66,1.99,1.31,2.98,1.97Z"/><path class="cls-62" d="M430.13,115.84c.74,1.65,2.24,1.4,3.62,1.45-.02-1.34,.21-2.76-1.17-3.68,.1,1.76-.5,2.74-2.46,2.23Z"/><path class="cls-61" d="M422.69,58.27c.66,.95,1.32,1.9,1.98,2.85,.33-.41,1.03-.95,.94-1.22-.45-1.34-1.69-1.54-2.93-1.62h0Z"/><path class="cls-54" d="M431.29,57.04c0,.41,0,.82,0,1.22,1.43-.42,2.86,1.8,4.37,0-1.09-1.93-2.91-.95-4.37-1.23Z"/><path d="M473.2,192.12c2,.43,4.14-2.42,6.05,.24,2.85,2.66,6.41,1.31,9.66,1.71,2.25-.19,4.16,.96,6.21,1.59,2.95,.78,5.22-.75,7.51-2.2,3.84-2.78,7.98-5.08,12.12-7.39,.49-.29,.93-.64,1.35-1.02q1.67-3.92-3.65-6.05c3.53-2.75,6.72-5.39,10.06-7.85,2.15-1.74,4.07-3.77,6.48-5.2,4.69-4.39,11.02-6.97,14.26-12.95-.09-.79-.18-1.58-.27-2.37-.71-.8-1.64-1.01-2.65-.97-3.78,.67-7.61,.3-11.41,.4-1.22,0-2.42,.18-3.6,.44-3.16,.77-6.33,1.54-9.53,.45,1.52-1.24,3.29-2.09,4.56-3.58,1.3-2.1,2.98-3.75,5.36-4.6,1.37-.8,2.39-1.91,3.04-3.36,.97-2.84,.06-4.53-3-4.91-5.49,2.24-11.31,2.08-17.07,2.34-5.44,2.1-8.97,.13-10.95-5.15-1.99-3.47-5.41-5.16-8.73-6.96-4.43-2.52-8.22-6.22-13.38-7.43-1.78-1.17-2.84-.15-3.76,1.25h0c-1.08,1.4-1.09,3.03-1.05,4.69,.45,20.06,.07,40.11,.21,60.17,.02,3.09,.04,6.17,2.17,8.74Z"/><path class="cls-1" d="M489.02,124.71c1.77,3.17,5.23,4.63,7.46,7.35,2.57,2.92,3.85,.68,4.82-1.39,1.05-2.25,.82-4.79,.82-7.22,.03-13.84-.01-27.68,.03-41.52,.01-3.42-.48-7.13,4.24-8.21,.99-.23,1.82-1.1,1.47-2.3-.59-1.99-2.47-1.75-3.99-2.08-.41,0-.82,0-1.23,0-3.35,1.84-5.55,.25-7.38-2.46-4.25-.27-3.96,2.79-3.62,5.38,1.84,14.19,1.83,28.35,0,42.54-.26,1.98-.57,4.47,.34,6,2.6,4.37-.62,3.65-2.94,3.91Z"/><path class="cls-53" d="M471.88,118.53c1.25-.42,2.51-.84,3.76-1.25-.91-1.03-2.04-1.54-3.43-1.37-1.5,.7-.6,1.7-.33,2.62Z"/><path class="cls-23" d="M352.87,300.24c1.3,2.58,2.03,4.02,2.86,5.64,2.24-3.04,.24-3.99-2.86-5.64Z"/><path class="cls-23" d="M357.53,123.42c-1,.64-2.58,1.29-1.85,2.56,.79,1.36,1.51,.28,1.73-.77,.12-.57,.08-1.17,.12-1.79Z"/><path d="M559.19,261.18c-1.5,2.34-3.48,4.12-6.01,5.28-2.04,2.48-4.71,4.08-7.56,5.43-7.07,3.25-12.31-1.37-17.95-4.21-2.91-1.43-6.04-2.54-8.07-5.32-1.01-1.27-2.23-2.34-3.45-3.38-4.78-4.09-6.74-8.67-3.39-14.74,2.19-3.96,.28-7.84-1.01-11.65-.45-1.35-1.09-2.6-1.79-3.83-2.34-2.58,.64-4.31,1.06-6.45-1.19-11.82-6.5-21.1-16.85-27.25-1.93-1.43-4.14-1.62-6.43-1.5-4.88,.21-9.51,1.63-14.17,2.92-4.95,7.21-5.44,16.24-1.17,21.19,2.46,1.09,5.21,1.21,7.62,2.2-2.08,1-4.6,.09-6.44,1.73-1.78,1.67-2.46,3.84-2.91,6.14,1.1,18.4,.49,36.81,.45,55.21-.01,6.07-.2,12.24-1.98,18.17-.07,2.93,1.05,4.72,4.29,4.48,3.36-1.21-.48-4.6,1.85-6.12,1.17,.93,2.24,1.93,2.74,3.4,.02,1.72,.87,2.96,2.28,3.86,.51,1.54,1.03,3.07,1.54,4.61,5.49,2.23,6,1.97,7.69-3.89,.37-2.2-.9-4.96,2.13-6.23,1.98,.16,2.59,2.42,4.39,2.85,1.78,.56,3.59,.6,5.42,.42,1.97-.33,3.84-.85,4.87-2.82-.05-3.08,3.49-.25,4.02-2.71-.81-1.31-1.91-2.74-2.62-4.35-.66-1.5-2.66-3.8-.12-4.57,1.65-.5,4.8-1.69,6.22,1.52,.63,1.42,1.54,2.58,1.59,4.36,.06,2.16,2.11,4.57,3.87,3.98,8.03-2.72,6.83,3.92,6.35,7.04-.81,5.27,2.1,11.51-3.26,15.84,2.17,1.86,5.12,.46,7.42,1.78,2.16,.74,4.35,1.18,6.63,.65,4.84-2.35,7.45-7.12,11.36-10.47,7.44-9.16,7.1-19.38,3.42-29.69-1.22-3.42-.9-5.27,2.11-7.02,2.82-1.64,5.39-3.67,7.84-5.85,4.69-3.78,8.14-8.61,11.53-13.51,2.71-5.86,6.77-11.35,5.14-18.42,1.17-15.8-.56-30.87-10.56-44.02-1.85-2.43-3.37-4.76-6.85-2.82,.08,3.29,.15,6.59,.23,9.88-.58,3.25,1.03,5.98,2.24,8.73,6.61,15,4.89,29.81-.66,44.63-.68,1.82-2.59,2.61-3.01,4.49Z"/><path class="cls-10" d="M608.33,285.77c-4.74-2.45-3.27-7.61-4.46-11.4-1.55-4.93-1.54-10.46-1.57-15.74-.14-24.38-.08-48.77-.05-73.15,0-8.9,1.43-17.68,2.65-26.46,.62-4.45-.79-7.96-3.88-10.98-3.85-1.48-6.31-1.24-5.78,3.96,.27,2.6-.35,5.28-.35,7.92-.03,41.11-.03,82.21,0,123.32,0,2.19-.51,4.46,1.07,6.48,3,3.85,6.3,3.5,9.86,.97,1.28-1.41,2.23-3,2.51-4.92Z"/><path class="cls-42" d="M571.37,258.46c-3.56,4.21-7.12,8.42-10.68,12.63,.45,18.95,1.34,37.91-.55,56.83-.58,1.95,1.74,3.02,1.48,4.88,1.51,.78,2.6,.06,3.27-.62-4,2.68-2.19,3.82,1.78,4.29,8.32-6.07,16.09-12.73,22.26-21.06-.9-.44-1.8-.89-2.7-1.33-2.88,2.19-4.71,5.53-7.65,7.08,1.23-16.24,.84-32.68,.26-49.11-.09-2.43-.49-4.87-.42-7.32,.14-4.89-1.86-7.39-7.07-6.25Z"/><path class="cls-12" d="M461.44,337.58c4.17,1.84,8.63,.44,12.9,1.15,10.62-2.46,21.23-1.79,31.84,.09,2.91-.17,6.84,2.94,8.1-2.51-2.11-6.98-3.02-14.06-2.23-21.39,.21-1.94-.67-4.05-1.96-5.72-.59-.77-1.26-1.64-2.53-1.05-.18,.08-.32,1.46-.63,.24-.31-1.23-.6-2.36-1.59-3.2-3.53-.87-7.36,.39-10.77-1.55-.89-.51-2.06-.28-2.75,.63-.8,1.05,.15,1.89,.57,2.75,.27,.55,.57,1.18,1.06,1.49,8.1,5.18,5.08,12.55,3.85,19.55-.17,.96-1.08,1.77-.76,2.85,.26,.87,1.13,1.08,1.8,1.5-.71,.12-1.34-.37-2.05-.24-1.59,.28-3.78,.44-3.33,2.54,.31,1.47,2.37,.78,3.8,.74-2.97,.75-6.04-1.53-8.85,.47-8.82,.55-17.63,1.1-26.45,1.65Z"/><path class="cls-22" d="M561.65,332.51c1.34-1.81-.46-2.58-1.23-3.69-2.94-2.09-3.37-5.04-3.4-8.43-.06-6.95-.61-7.31-7.72-5.89-1.06,.21-1.47-1.31-2.42-.44-4.05,2.51-7.11,6.01-9.83,9.84-.87,1.52-5.28-.76-3.67,3.42,2.23,3.83,5.88,5,9.97,5.83,2.52,.51,4.84,2,7.25,3.04,1.58,.97-.36,4.55,2.94,4.13,2.23-.28,4.26-1.12,4.06-4.02,1.58-.11-3.61-2.46,.63-1.83,1.37,.21,2.68-.6,3.41-1.97Z"/><path class="cls-17" d="M505.09,305.46c.53,2.07,1.07,4.14,1.71,6.63,.54-1.27,.9-2.13,1.49-3.51,2.18,4.33,2.83,8.21,1.9,12.73-1,4.87-.98,9.95,3.5,13.64,.41,.61,.75,.6,.99-.13,1.1-1.92,1.98-4.01,3.36-5.7,2.4-2.94,2.52-5.8,.53-8.89-.25-1.98-.87-3.74-2.71-4.83-2.01-3.44-1.32-7.04-.36-10.51,1.08-3.93,1-6.16-3.91-3.9-1.67,.77-3.43,1.16-5.28,.7-1.64,.45-3.28,.9-4.91,1.35-.38,3.26,2.86,.99,3.69,2.42Z"/><path class="cls-13" d="M561.65,332.51c-2.52,1.22-5.65-.06-8.09,1.83,.39,2.02,2.89,0,3.18,1.87,.87,2.34,1.8,4.6,5.04,3.74,2-.64,3.8-1.57,4.9-3.49-5.52-3.76,1.47-4,1.78-6.56-2.86-.54-4.22,2.93-6.81,2.61Z"/><path class="cls-43" d="M561.78,339.95c-2.1-.68-3.53-2.26-5.04-3.74-2.06,6.45-4.09,1.71-6.13-.02-2.04,5.56-6.77,.99-9.85,2.62-.75,.74-.74,1.48,0,2.22,7.05,.48,14.07,.4,21.02-1.08Z"/><path class="cls-27" d="M514.67,334.82c-.34-.03-.67,0-.99,.13,.21,6.54-5.26,2.08-7.5,3.87,4.38,.68,8.64,2.5,13.96,1.79-1.63-2.85-6.32-1.87-5.47-5.78Z"/><path class="cls-38" d="M533.39,327.33c-.04-2.5,2.91-1.78,3.67-3.42-2.42-.04-4.85-.07-7.27-.11-2.15-.28-4.54-1.83-6.1,1.13,3.23,.83,6.88-.07,9.7,2.41Z"/><path class="cls-24" d="M535.83,338.7c-3.36-.51-6.7-.4-10.37,.23,1.23,2.73,3.31,2.52,5.44,2.21,1.13-1.85,4.62,1.08,4.93-2.44Z"/><path d="M515.86,315.4c-.07,2.16,.76,3.81,2.71,4.83,2.59-3.57,.4-4.46-2.71-4.83Z"/><path class="cls-66" d="M523.69,324.92c1.71-2.11,4.2-.01,6.1-1.13-2.32-1.49-4.89-1.14-7.43-.99,.02,.97-.1,2.04,1.34,2.11Z"/><path class="cls-25" d="M535.83,338.7c-1.12,1.88-3.87,.44-4.93,2.44,2.05,0,4.1,0,6.15,0,.62-.67,1.87-1.01,1.24-2.35-.82-.03-1.64-.07-2.46-.1Z"/><path class="cls-33" d="M538.29,338.8c-.41,.78-.83,1.56-1.24,2.35,1.24-.04,2.47-.08,3.71-.11,0-.74,0-1.48,0-2.22-.83,0-1.65,0-2.48-.01Z"/><path class="cls-52" d="M473.41,305.6c-1.33-1.28-2.66-2.56-3.99-3.83-3.28-20.9-1.21-41.96-1.93-62.93-.16-4.81,.74-8.85,4.39-12.09l2.47-4.73c-.97-1.5-2.47-1.58-4.02-1.51-.56,.08-1.1,.25-1.61,.49-.47,.29-.79,.72-.99,1.23-.06,1.38-.93,1.4-1.98,1.12-.55-.13-1.09-.2-1.65-.23-2.63,.11-5.17,.96-7.87,.48-1.22-.21-3.08-.46-2.8,1.93v1.23c.97,1.17,2.72,.03,3.68,1.23,1.76,.21,2.92,.61,2.9,2.96-.23,21.44-.32,42.87-.41,64.31,0,1.9-.37,3.64-1.25,5.29,1.16,.8,2.34,1.55,3.66,2.08-.8,.07-1.76-.62-2.43,.38-3.7,1.08-.23,3.64-1.09,5.31,5.6,2.55,11.26,5.49,14.92-2.7Z"/><path class="cls-1" d="M505.09,305.46c.39-.11,.77-.22,1.16-.33-.12-.27-.2-.75-.37-.79-1.52-.33-3.32,.32-4.47-1.31-1.95-.06-3.9-.13-5.84-.19-2.55,.25-1.27-3.7-3.81-3.47-5.75-.69-4.17,3.04-3.68,6.11,2.32,4.51-1.56,6.2-3.9,8.59,2.91,4.83,4.32,9.63,.55,14.83-.42,.58-.13,3.07,1.53,4.02,1.15,.65,2.95,1,1.63,3.01,3.64,0,7.28,0,11.04,0-1.27-1.97-3.54-.12-4.92-1.48,2.14-2.53,5.02-.08,7.98-1.27-2.45-1.17-4.97-.95-2.69-5.26,2.62-4.94,1.35-11.63,.45-17.42-.49-3.15-6.31-1.64-7.06-6.18,4.08,1.65,8.11,3.85,12.39,1.14Z"/><path class="cls-12" d="M484.17,314.08c4.03-1.63,6.99-3.74,3.9-8.59,.58,4.8-.63,7.7-6.26,5.87,.25,1.37,1.14,2.19,2.36,2.72Z"/><path class="cls-67" d="M479.02,302.1c-.51-1.95-2.21-2.17-3.76-2.62,.64,2.21,1.66,4.26,1.64,6.71-.02,2.03,1.09,2.3,2.29,.5-.36-1.52-1.01-3.02-.17-4.59Z"/><path class="cls-32" d="M479.02,302.1c-1.43,1.58-1.88,3.13,.17,4.59l.53,.11s.54-.06,.54-.06c-.42-1.55-.83-3.09-1.25-4.64Z"/><path class="cls-46" d="M427.76,284.12c3,.73,4.44-.97,6.78-4.22-3.61,1.2-4.55,3.82-6.78,4.22Z"/><path class="cls-46" d="M434.23,289.36c2.23-.57,3.34-1.47,2.69-2.69-1.15-2.16-.96,.56-1.61,.69-.33,.07-.51,.9-1.08,2Z"/><path class="cls-46" d="M435.73,282.48c-.75,.79-1.39,1.16-1.45,1.61-.06,.43,.41,1,.78,1.39,.08,.09,1.17,1.05,1.13-.32-.02-.74-.24-1.47-.46-2.68Z"/><path class="cls-7" d="M322.87,185.63c-1.13,1.68-1.1,3.55-.9,5.45,.8-.84,1.54-1.74,2.41-2.5,3.47-3.04-1.48-1.73-1.51-2.95Z"/><path class="cls-18" d="M347.67,138.2c-1.01-.52-2.02-1.03-3.02-1.55,.04,.52-.1,1.2,.17,1.53,.87,1.05,1.9,1.36,2.85,.02h0Z"/><path class="cls-3" d="M310.78,178.79c-1.3,2.2,.36,4.34,.12,6.52,1.31-1.99,1.22-4.24,1.22-6.48-.45-.01-.9-.03-1.35-.04Z"/><path class="cls-55" d="M628.06,209.53c-3.56,4.55-3.56,16.65,0,20.91,1.8-6.97,2.15-13.94,0-20.91Z"/><path class="cls-55" d="M630.52,196.01c-.82,1.23-1.64,2.46-2.46,3.69,6.16,2.32,.9-2.95,2.46-3.69Z"/><path class="cls-14" d="M622.98,238.63c.11-1.5,.22-3,.32-4.5,.74-9.02,.69-18.04,.02-27.06-.1-1.49-.21-2.99-.31-4.48-1.09-2.08,.12-4.5-.98-6.57,.08-5.68-2.45-10.71-4.01-15.98-4.49,3.23-4.74,8.45-2.7,12.09,3.24,5.78-.7,10.79,.01,16.2,.52,3.95-3.3,8.44,1.64,11.87-1.19,1.16,2.74,5.08-2.26,4.18-.05,.81-.42,1.8-.08,2.4,2.5,4.47-.91,9.14,.59,13.75,.49,1.51-1.3,3.67,1.79,4.32,.63,.13,.1,1.89-1.28,2.39-.81,.29-.81,.59-.83,1.21-.22,6.32-.79,12.66,.89,18.89,1.69-5.32,4.94-10.16,5.01-15.98,1.3-1.45,1.59-3.11,1.02-4.94,.09-.82,.18-1.65,.28-2.47,.85-1.68,.36-3.58,.87-5.32Z"/><path class="cls-52" d="M623.33,207.07c0,9.02-.02,18.04-.02,27.06,.36,0,.71,0,1.07,0,0-9.02,0-18.04,0-27.05-.35,0-.7,0-1.05,0Z"/><path class="cls-52" d="M626.83,203.38c0-3.28,0-6.56,0-9.84-1.89,3.28-1.89,6.56,0,9.84Z"/><path class="cls-52" d="M622.03,196.02c-.09,2.25-.17,4.5,.98,6.57-.08-2.23,.88-4.61-.98-6.57Z"/><path class="cls-20" d="M571.37,258.46c9.49,2.9,5.41,11.36,5.89,16.96,1.16,13.38,.33,26.92,.42,40.4,.02,2.91-2.65,5.37-.89,9.12,3.05-3.98,8.76-5.02,9.46-10.87-1.89-3.44,.52-6.98-.36-10.64-.73-3.03,3.78,1.18,4.21-1.87-5.04-2.31-5.06-2.31-5.07-8.48-.02-12.27,.02-24.54-.02-36.81,0-2.93,.56-6.31-4.68-6.83,7.5-4.5-.69-12.33,5.22-16.78-4.42-2.97-5.16,.38-6.49,2.58,.22,1.84,2.64,4.24-1.26,5.05-1.25,6.38-3.55,12.38-6.43,18.18Z"/><path class="cls-20" d="M589.21,307.74c1.1-1.23,2.32-2.58,3.19-3.56q-2.3,.7-3.19,3.56Z"/><path class="cls-19" d="M557.96,100.08c-.95,.21-2.49,.57-1.63,1.65,1.13,1.42,2.85,1.02,4.09-.43-1.01-.02-1.92-.26-2.46-1.22Z"/><path class="cls-9" d="M526.91,268.7c3.49,2.01,7.02,3.94,10.44,6.06,4.03,2.49,5.55-1.79,8.26-2.87-2.56-2.34-2.44-5.39-2.43-8.51,.04-30.52-.08-61.04,.13-91.56,.03-4.86-2.21-10.1,1.81-14.71,.94-1.08-.56-3.02-1.87-4.13-5.29,3.75-10.53,7.55-15.14,12.14,1.51,3.19,2.22,6.53,2.2,10.07-.2,25.32-.03,50.63-.1,75.95,0,2.64,.22,5.33-1.06,7.78-1.18,2.2-6.25,4.27-.26,6.79,.67,.28,.56,.53-1.98,2.99Z"/><path class="cls-9" d="M543.21,146.81c-.54-.97-1.45-1.2-2.46-1.23-2.5-3.17-3.75-.44-5.26,1.11-.38,1.51,.08,2.78,1.14,3.87,2.65,.91,3.46-2.15,5.52-2.55,.45-.31,.8-.71,1.06-1.19Z"/><path class="cls-16" d="M543.21,146.81h-1.23c-1.35,.96-2.61,1.95-1.2,3.79,.74,0,1.47,0,2.21,0,1.69-1.17,1.86-2.43,.22-3.8Z"/><path class="cls-16" d="M535.83,146.81c1.83,.37,2.77-2.83,4.92-1.23,0-.41,0-.82,0-1.23-.9-1.41-2.33-1.19-3.69-1.23-1.01,1.03-2.08,2.04-1.23,3.69Z"/><path class="cls-20" d="M559.19,261.18c7.69-7.36,9.09-17.11,9.63-26.92,.61-11.09-2.79-21.33-8.19-30.93-1.07,.06-2.07,.25-2.66,1.29-2.24,2.87,3.13,5.73,0,8.6-.97,.54-1.2,1.45-1.23,2.46-1.14,1.75-.34,2.85,1.23,3.69,2.52-.14,3.71,.91,3.71,3.57,0,8.77,1.01,17.66-.24,26.24-.42,2.87,2.03,7.36-2.25,9.55-.62,.66-.73,1.39-.25,2.18l.24,.27Z"/><path class="cls-19" d="M557.97,213.22c.94,.21,1.87,.42,2.81,.63-.06-1.55,.31-3.27-.27-4.59-.69-1.58-2.61-2.56-2.54-4.64-3.59,2.87-2.48,5.74,0,8.6Z"/><path class="cls-19" d="M558.94,260.91c.08-.73,.17-1.45,.25-2.18,0,0,0,0,0,0-2.73-2.32-1.15-5.88-2.46-8.61-1.57,4.07-2.98,8.11,2.21,10.79Z"/><path class="cls-19" d="M557.32,191.35c-.75,1.03-1.4,1.57-1.56,2.23-.27,1.06,.15,2.03,1.4,2.19,.88,.11,1.72-.37,1.58-1.29-.14-.92-.76-1.76-1.41-3.13Z"/><path class="cls-20" d="M556.73,250.12c.43,2.98-1.36,6.59,2.46,8.61-1.29-2.74-.47-6.07-2.46-8.61Z"/><path class="cls-19" d="M557.97,219.37c-.41-1.23-.82-2.46-1.23-3.69-1.45,1.17-1.63,2.66-.65,4.09,.51,.74,1.36,.27,1.88-.41Z"/><path class="cls-11" d="M503.85,69.34c.5,1.45,2.8,.75,3.14,3.15-6.85-2.31-6.99,1.6-6.91,6.69,.24,16.07,.14,32.14,.03,48.21-.01,2.2,1.29,6.03-3.64,4.67,3.45,8.16,3.87,8.4,11.14,6.37,1.39-1.63,3.36-.32,4.89-.95,2.16-.88,2.61-2.01-.04-2.96-2.55-1.16-2.47-3.43-2.47-5.72,.02-16.89,0-33.77,.01-50.66,0-1.02-.15-2.09,.11-3.04,1.58-5.63,.64-6.51-6.26-5.76Z"/><path class="cls-14" d="M512.47,134.51c1.21,1.24,.86,2.02-.74,2.34-1.47,.29-3.23-.23-4.12,1.57,6.24-.16,12.31-1.48,18.38-2.79,1.08-.95,2.19-1.89,2.55-3.38,1.28-12.84,.32-25.71,.58-38.57,.09-4.51,.1-9,1.79-13.28,.63-1.34,.9-2.5-1.23-2.45-.54,.97-1.45,1.19-2.46,1.22-.41,0-.82,0-1.23,0-.35,.47-1.17,.47-1.23,1.23-3.72,1.59-5.13,4.15-5.03,8.42,.32,13.61,.02,27.23,.18,40.84,.08,6.93,.3,6.91-5.94,4.2-.34-.15-.99,.41-1.5,.64Z"/><path class="cls-6" d="M524.76,80.41c.41-.41,.82-.82,1.23-1.23-1.7,.5-3.41-1.2-5.35,.09,1.08,1.83,2.79,.86,4.12,1.14Z"/><path class="cls-6" d="M530.91,80.4c-2.73-.3-3.08,.96-3.25,3.54-1.03,16.45-.1,32.9-.44,49.34,.34,2.04,3.81,3.96,.24,6.15-.9,.82-1.8,1.64-2.7,2.47-2.1,1.2-3.52,3.14-5.18,4.81l-5.86,3.89c3.51,3.65,7.7,1.12,11.6,1.27,1.05-.05,2.09-.11,3.14-.16,2.66-1.7,5.98,.59,8.58-1.45-.4-1.15-.8-2.31-1.2-3.46,.41-1.23,.82-2.46,1.23-3.69-2.89-2.22-6.57-4.63-5.08-8.62,1.05-2.82,1.34-5.44,1.37-8.24,.18-14.99,.34-29.98,.42-44.97,.02-2.82-2.02-.19-2.86-.89Z"/><path class="cls-55" d="M621.83,246.42c-1.03,1.5-1.24,3.18-1.02,4.94,.51,.8,1.02,1.6,1.51,2.36q1.48-3.52-.49-7.3Z"/><path class="cls-55" d="M622.98,238.63c-1.07,1.64-1.03,3.47-.87,5.32,1.77-1.53,1.99-3.31,.87-5.32Z"/><path class="cls-40" d="M465.72,195.97c-4.17-.33-8.29-.22-12.19,1.58-.44,.34-.88,.68-1.33,1.02-.37,.67-.25,1.25,.35,1.73,.85,.57,1.81,.86,2.82,.98,4.7,.43,9.28-.26,13.77-1.61,.93-.45,1.64-1.07,1.77-2.17-1.21-2.24-3.56-.69-5.19-1.54Z"/><path class="cls-37" d="M452.2,199.69c0-.37,0-.75,0-1.12-4.64,.12-9.36-1.01-13.87,.97,.94,.5,1.87,1,2.81,1.5,1.67,1.63,3.68,1.43,5.73,1.12,1.84-.65,3.96-.75,5.32-2.46Z"/><path class="cls-53" d="M473.2,192.12c-.03-21.1-.1-42.21-.06-63.31,0-3.51-.2-6.93-1.27-10.28-1.89,.11-2.61-1.8-4.12-2.4-2.08-.82-2.15,1.03-3.37,1.41-5.93,1.82-1.09,5.86-2.05,8.65-1.19,3.47-.29,7.66-.29,11.55,0,15.93,0,31.87,0,47.8,0,1.23-.21,2.5,.05,3.67,.7,3.13,.78,7.43,5.94,3.84,1.53-1.07,3.26-1.71,5.18-.92Z"/><path class="cls-36" d="M465.72,195.97c1.32,1.83,3.31,1.07,5.04,1.31,.77,.72,1.56,.72,2.37,.07,4.98-.5,9.93-1.18,14.72-2.7,.6-.94,3.02,.15,2.4-2.15-3.67-.05-7.33-.09-11-.14-4.59,.89-9.33,1.23-13.53,3.61Z"/><path class="cls-56" d="M427.61,118.53c-1.39-1.57-3.03-1.49-5.03-.72,1.68,1.31,3.44,.45,5.02,.72,0,0,0,0,0,0Z"/><path class="cls-58" d="M453.43,225.52c4.13-.85,8.53,.34,12.5-1.69-4.75-4.28-9.88-2.87-15.04-.99-1.34,.44-2.68,.87-4.02,1.31,2.19,.46,4.37,.92,6.56,1.38Z"/><path class="cls-57" d="M459.58,302.99c1.51-.02,2.43,1.08,4.21,3.25-.64-4.67-3-5.24-5.44-5.71,.41,.82,.82,1.64,1.23,2.46Z"/><path class="cls-58" d="M448.02,230.62c2.33-.6,4.08,2.13,6.32-.29-2.12-1.59-3.95-1.4-6.32,.29Z"/><path class="cls-58" d="M457.12,227.98c-.89-1.42-2.33-1.19-3.68-1.23-.76,.14-2.14,.19-2.17,.44-.22,1.45,1.05,.68,1.6,.74,1.4,.15,2.83,.05,4.25,.05Z"/><path class="cls-61" d="M423.97,228.92c-3.05,.32-5.36-1.75-7.3,.98-.29,.41-.1,1.17-.13,1.77,2.33-.29,5.14,.88,7.43-2.75Z"/><path class="cls-61" d="M435.28,231.56c-1.87-2.07-4.17-1.4-6.43-.99,1.81,2.49,4.17,1.39,6.43,.99Z"/><path class="cls-44" d="M447.31,200.82c-2.05,.07-4.1,.14-6.16,.21-.43,.31-.86,.62-1.29,.94-1,1.8-2.83,1.21-4.35,1.55-.98,.22-2.64,.42-2.79,.95-2.32,8.58-8.73-.64-11.98,3.37,4.52,1.79,7.95,4.72,5.49,10.63,7.78,1.08,15.56,2.15,23.34,3.23,1.05-.65,2.11,.1,3.16,0,.84-.07,1.58-.36,2.14-1.01,.23-1.79-1.72-2.64-1.84-4.29-3.53-1.11-6.4,2.68-9.97,1.31-.38-.15-.8-.16-1.21-.15,.16-.15,.38-.08,.51-.02,3.73,1.64,3.86-3.63,6.79-3.52,.51-.33,.79-.8,.88-1.39-.37-1.06-1.23-1.85-2.23-1.78-2.78,.17-1.58-2.15-2.13-3.28-.91-1.85,1.08-1.61,1.92-2.23,1.78-1.31,5.54-.99,4.14-4.96-1.49,.01-3.02-.42-4.43,.43Z"/><path class="cls-35" d="M415.34,220.59c-.42,.32-.84,.64-1.27,.96l2.53,1.29c2.05-1.96,5.5,.46,7.28-2.33-2.84,.55-5.69,.6-8.54,.09Z"/><path class="cls-32" d="M452.23,220.81c-1.04-.14-1.97,.04-2.67,.9,.44,.38,.88,.75,1.32,1.13,5.01,.41,10.16-1.35,15.04,.99,0,0-.04,.02-.04,.02,1.55,1.44,1.56-.01,1.83-.97,.24-.31,.5-.61,.77-.88-.87-1.5-2.4-1.86-3.89-2.3-.92-.19-1.84-.19-2.76-.07-3.25,.07-6.27,1.94-9.62,1.19Z"/><path class="cls-6" d="M529.68,261.18c3.71-.81,2.4-3.83,2.41-6,.08-25.56,.06-51.12,.04-76.69,0-3.65-.12-7.3-.22-10.96-.07-2.63-2.42-1.78-3.79-2.42-2.51,1.06-4.55,2.74-6.27,4.83,.31,3.66-1.74,7.34,.85,11.08,1.17,1.7-.49,.03-.7,.05-2.87,.24-3.62,2.21-3.93,4.59,.11,.87,.54,1.59,1.14,2.21,1.92,1.36,4.77,1.89,4.51,5.17,.62,21,.09,41.98,.26,62.96,.03,3.79,.21,7.41,5.71,5.17Z"/><path class="cls-17" d="M519.84,187.4c-.41-.41-.82-.82-1.23-1.23-1.35-.43-2.33-1.82-3.96-1.55l.25,.3-.23-.32c-3.53,3.51-8.05,5.41-12.4,7.59-2.49,.32-4.01,3.32-6.92,2.5-1.31-.49-1.58,.11-1.3,1.26,9.01,6.87,14.42,15.87,16.01,27.13-.19,2.14-3.11,3.63-1.49,6.21,.54,1.19,1.08,2.39,1.62,3.58,4.62-1.15,4.69-5.06,4.6-8.51-.31-10.89,1.49-21.56,2.79-32.29,.23-1.87,2.93-2.43,2.26-4.66Z"/><path class="cls-21" d="M514.65,184.61c1.24,.74,1.88,2.98,3.96,1.55,.77-1.37,1.54-2.75,2.29-4.1,2.45,.78-.96,2.77,1.67,3.48,1.27-1.12,1.97-2.93,1.43-4.84-.84-3-2.48-5.88-.06-8.91,.03-.03-1.37-1.2-2.1-1.84-4.33,3.28-8.66,6.55-14.19,10.73h9.29c.92,2.66-1.89,2.49-2.3,3.93Z"/><path class="cls-19" d="M537.03,150.27c-2.8,.82-6.04-.94-8.58,1.45,4.16,.16,8.32,.37,12.32-1.11,.4-1.26,.8-2.53,1.2-3.79-2.66-.3-3.17,2.48-4.94,3.46Z"/><path class="cls-21" d="M502.27,192.18c4.85-1.36,9.78-2.59,12.4-7.59-4.49,1.95-8.57,4.56-12.4,7.59Z"/><path class="cls-19" d="M525.31,151.88c-3.82-.79-7.93,1.01-11.6-1.27-1.42-.07-2.54,.77-2.59,1.96-.05,1.24,1.31,1.28,2.31,1.04,3.91-.95,8.09,.06,11.87-1.73Z"/><path class="cls-30" d="M494.06,195.94l1.3-1.26c-1.33-1.6-2.78-2.92-5.1-2.19-.8,.72-1.6,1.43-2.4,2.15,2.07,.43,4.14,.86,6.2,1.3Z"/><path class="cls-16" d="M527.46,139.44c3.73-2.2,3.15-4.23-.24-6.15-.95,.5-1.2,1.37-1.23,2.35,3.76,0,2.23,2.05,1.47,3.8Z"/><path class="cls-19" d="M519.58,146.72c2.4-.88,3.89-2.73,5.18-4.81-2.61,.65-4.64,1.93-5.18,4.81Z"/><path class="cls-13" d="M546.89,314.06c1.06,2.56,3.33,1.78,4.84,1.19,3.12-1.2,4-.26,3.8,2.79-.13,2.01,.14,4.05-.06,6.05-.38,3.82,1.4,5.15,4.95,4.73,3.38-.63,2.41-3.34,2.42-5.39,.14-15.9,.22-31.81,.23-47.71,0-1.8-.21-3.8-2.38-4.63-.68,.44-1.37,.86-2.03,1.31-3.51,2.42-8.14,4.15-10.21,7.47-2.14,3.43,3.75,6.74,3.27,10.74-.94,7.94,1,16.52-4.84,23.45Z"/><path class="cls-21" d="M519.84,187.4c-2.95,1.5-5.75,2.88-3.86,7.22,.53,1.22-.36,3.14-.81,4.68-1.03,3.52-3.29,6.82-.68,10.71,1.5,2.24-.86,4.51-1.37,6.55-1.35,5.4,2.56,11.78-2.93,16.3,1.65,4.56,3.17,8.98,.12,13.76-2.71,4.25-2.05,8.11,2.42,11.21,2.27,1.57,4.05,3.83,6.05,5.79,4.92-2.03,4.15-6.57,4.21-10.41,.24-17.34,.04-34.67,.14-52.01,.02-3.83-.48-7.78,1.63-11.34-.17-3.75-3.66-.89-4.92-2.46Z"/><path class="cls-55" d="M471.88,226.75c-4.72,.98-6.45,3.42-6.32,8.64,.44,16.7,.12,33.41,.2,50.12,.02,3.58-.87,7.33,1.84,10.55,1.05,1.25,.08,2.58-.61,3.91-.89,1.7-.7,1.8,2.43,1.8,3.59-.47,3.17-3.98,3.2-5.76,.38-20.9,.41-41.81,.41-62.71,0-2.18-.75-4.37-1.15-6.55Z"/><path class="cls-5" d="M524.76,189.85c-4.28-.26-3.68,2.81-3.68,5.43,0,19.46-.03,38.92,.02,58.39,0,3.52-.2,6.93-2.3,9.93,1.81,3.13,4.97,4.11,8.13,5.09,3.32-.93,7.43-1.64,1.27-5.01-.93-.51-.84-.69,1.49-2.5-2.97,.32-3.93-.3-3.87-3.93,.34-20.49,.16-40.98,.2-61.48,0-2.09-.2-4.08-1.25-5.92Z"/><path class="cls-63" d="M462.03,220.69c.83-.02,1.66-.04,2.48-.06,1.77,1.25,3.45-.34,5.2-.16,1.74-.61,3.65-1.05,3.51-3.52-4.66-5.54-.76-11.29-.26-16.91,.08-.87,.5-1.75,.18-2.69-.79-.02-1.58-.05-2.37-.07l-1.33,1.14c-2.91,1.56-6.07,2.02-9.31,1.89-2.59-.1-4.77,.76-6.62,2.52-1.87,1.77-3.02,3.55,.13,5.19,4.16,2.17,3.26,3.93-.36,5.66-2.25,1.08-.26,2.17,.17,3.23-1.3,1.74,.06,2.47,1.24,3.28,2.41,.73,4.85,1.07,7.35,.5Z"/><path class="cls-34" d="M473.21,216.95c-1.26,.83-2.53,1.65-3.79,2.48-.41,.78-.21,1.33,.6,1.67,3.46,.19,6.92,.08,10.37,.07,1.14,0,2.57,.23,2.51-1.67-3.17-1.1-5.98-3.56-9.7-2.56Z"/><path class="cls-41" d="M482.91,219.51c-4.35,2.29-9,.65-13.49,1.03-.32,.3-.43,.59-.32,.89,.11,.3,.22,.44,.32,.44,1.64,.05,3.28,.09,4.92,.14,3.07-.02,6.13-.02,9.2-.06,1.05-.02,2.25-.2,1.45-1.64-.27-.5-1.37-.55-2.09-.8Z"/><path class="cls-21" d="M508.57,229.28c-.02-2.19,2.69-3.73,1.49-6.21-5.75,.81-2.36,3.81-1.49,6.21Z"/><path class="cls-38" d="M491.75,299.38c1.34,1.07,.62,4.42,3.81,3.47-1.09-.63-1.71-1.31-1.6-2.84,.18-2.59-.94-2.24-2.2-.62Z"/><path class="cls-39" d="M469.43,221.88c0-.44,0-.89,0-1.33,.01-.37,.01-.74,0-1.11l-4.92,1.19c1.02,1.38,2.62,1.03,4,1.36l.49,.15,.44-.26Z"/><path class="cls-55" d="M467.73,222.87c-.61,.33-1.22,.65-1.83,.98,.45,1.42,1.42,1.87,2.74,1.27,.46-.21,.73-.83,1.08-1.26l-1.99-.98Z"/><path class="cls-50" d="M453.43,216.91c.37-1.69,.99-2.8,3.16-2.64,1.49,.11,3.24-1.25,2.4-2.69-1.39-2.4-1.3-6.91-7.32-4.54,3.74-4.48,6.76-6.54,11.4-6.29,2.06,.11,5.08,.64,6.36-2.34-4.83,.46-9.65,.92-14.48,1.38-.82,.63-2.13,.2-2.74,1.29-2.82,2.46-6.26,3.53-10,4.01,1.23,4.27,3.16,7.35,7.53,8.13h0c-2.55,.04-2.28,.31-5.14,3.18-1.06,1.07-3.72,.56-5.75,.78q7.35,2.53,14.58-.27Z"/><path class="cls-29" d="M452.21,201.09c.91-.43,1.83-.86,2.74-1.29-.92-.03-1.83-.07-2.75-.1-1.68,.16-3.55-.5-4.89,1.13,1.63,.09,3.27,.17,4.9,.26Z"/><path class="cls-31" d="M462.03,220.69c-2.4-.85-4.75-2.61-7.35-.5-.81,.21-1.63,.41-2.44,.62,3.28,1.56,6.55,1.72,9.79-.12Z"/><path class="cls-44" d="M449.74,213.22c-.52,1.01-1.03,2.02-1.55,3.02,.52-.04,1.2,.11,1.53-.17,1.05-.87,1.36-1.89,.02-2.85h0Z"/></g></g></svg>