<?xml version="1.0" encoding="UTF-8"?><svg id="Capa_1" xmlns="http://www.w3.org/2000/svg" viewBox="0 0 1444.1 432.1"><defs><style>.cls-1{fill:#f6f6f6;}.cls-2{fill:#fb0639;}.cls-3{fill:#faacbc;}.cls-4{fill:#ebebeb;}.cls-5{fill:#eaeaea;}.cls-6{fill:#f6b8c6;}.cls-7{fill:#f90f47;}.cls-8{fill:#ededed;}.cls-9{fill:#fff;}.cls-10{fill:#fee5ee;}.cls-11{fill:#e8e8e8;}.cls-12{fill:#ececec;}.cls-13{fill:#fefefe;}.cls-14{fill:#fe5900;}.cls-15{fill:#fee0e8;}.cls-16{fill:#fee0eb;}.cls-17{fill:#faf6f5;}.cls-18{fill:#edc7ce;}.cls-19{fill:#fcf6f8;}.cls-20{fill:#fde6ec;}.cls-21{fill:#fde4eb;}.cls-22{fill:#fdeef1;}.cls-23{fill:#fdeaf0;}.cls-24{fill:#fdebee;}.cls-25{fill:#7e7e7e;}.cls-26{fill:#818181;}.cls-27{fill:#999;}.cls-28{fill:#989898;}.cls-29{fill:#87052c;}.cls-30{fill:#b9b9b9;}.cls-31{fill:#bc3a00;}.cls-32{fill:#303030;}.cls-33{fill:#8d8d8d;}.cls-34{fill:#8e8e8e;}.cls-35{fill:#939393;}.cls-36{fill:#b18d91;}.cls-37{fill:#aaa;}.cls-38{fill:#b0888f;}.cls-39{fill:#d8d8d8;}.cls-40{fill:#a5a5a5;}.cls-41{fill:#aeaeae;}.cls-42{fill:silver;}.cls-43{fill:#c17586;}.cls-44{fill:#ccc;}.cls-45{fill:#c9c9c9;}.cls-46{fill:#c3c3c3;}.cls-47{fill:#c4c4c4;}.cls-48{fill:#c57285;}.cls-49{fill:#d6d6d6;}.cls-50{fill:#dbdbdb;}.cls-51{fill:#d4d4d4;}.cls-52{fill:#d9d9d9;}.cls-53{fill:#d7d7d7;}.cls-54{fill:#c6c6c6;}.cls-55{fill:#d5d5d5;}.cls-56{fill:#a8a8a8;}.cls-57{fill:#1f0004;}.cls-58{fill:#1e0002;}.cls-59{fill:#423c3e;}.cls-60{fill:#9b9b9b;}.cls-61{fill:#727272;}.cls-62{fill:#a39396;}.cls-63{fill:#545454;}.cls-64{fill:#9a9798;}.cls-65{fill:#898989;}.cls-66{fill:#6e6e6e;}.cls-67{fill:#555;}.cls-68{fill:#2a0005;}.cls-69{fill:#313131;}.cls-70{fill:#350003;}.cls-71{fill:#3d3d3d;}.cls-72{fill:#5d5d5d;}.cls-73{fill:#767676;}.cls-74{fill:#62040f;}</style></defs><path class="cls-14" d="M59.6,0H1384.5c32.9,0,59.6,26.7,59.6,59.6V372.5c0,32.9-26.7,59.6-59.6,59.6H59.6c-32.9-.1-59.6-26.8-59.6-59.7V59.6C0,26.7,26.7,0,59.6,0Z"/><polygon class="cls-9" points="1256.3 282.5 1242.1 268.4 1294.5 216 1242.1 163.6 1256.3 149.5 1322.8 216 1256.3 282.5"/><g><path class="cls-9" d="M708.9,158.1h47.1c26.4,0,46.4,15.8,46.4,41.3s-20,41.5-46.4,41.5h-15.8v37.3h-31.3v-120.1Zm47.3,55.5c8.7,0,14.4-5.6,14.4-14.2s-5.6-14-14.4-14h-16v28.2h16Z"/><path class="cls-9" d="M819.4,158.1h31.3v91.9h49.7v28.2h-81v-120.1Z"/><path class="cls-9" d="M986.3,268.2h-43.1l-4.4,10h-33.7l54.6-122.3h10l54.6,122.3h-33.7l-4.3-10Zm-21.5-52.9l-10.6,27.8h20.9l-10.3-27.8Z"/><path class="cls-9" d="M1082.2,232.2v46h-31.3v-45.7l-41.3-74.4h34.6l22.4,41.9,22.4-41.9h34.4l-41.2,74.1Z"/></g><g><path class="cls-8" d="M191.07,205.09c0-2.44,2.11-3.43,3.4-4.95,.25-.3,.71-.41,.99-.69,3.23-3.25,2.87-4.19-1.47-5.74-4.04-1.45-8.03-3.02-12.2-4.09-5.64-1.47-11.46-2.06-17.2-2.06-5.34,0-10.7,1.04-16.06,1.52-4.73,.46-9.91,.58-14.23-1.52-3.58-1.73-5.26-5.62-5.41-9.81-.08-2.39-.13-4.78,0-7.14,.33-5.74,2.9-10.29,7.39-13.92,3-2.41,5.67-5.21,8.56-7.75,2.39-2.08,4.75-4.24,7.72-5.54,.15,.18,.25,.38,.25,.64-1.35,2.57-4.27,3.43-6.05,5.54-.51,.61-1.27,1.02-1.83,1.6-2.97,2.31-5.51,5.13-8.44,7.52-2.21,1.8-3.79,4.09-4.78,6.76-1.8,4.52-1.42,9.25-.99,13.87,.46,4.85,4.14,7.78,9.2,7.8,5.74,0,11.46,.2,17.18-.74,4.68-.76,9.48-.53,14.23-.08,1.09,.36,2.24,.41,3.38,.51,.23,.03,.48,.1,.71,.15,.91,.33,1.88,.2,2.82,.36,.25,.03,.48,.08,.71,.15,6.58,1.42,12.96,3.38,19.08,6.2,.23,.1,.46,.23,.66,.36,.81,.66,1.35,1.45,1.19,2.57-.1,.61-.48,1.07-.97,1.42-.46,.33-.89,.66-1.22,1.09-1.98,2.16-3.58,4.7-6.33,6.1-.1-.05-.2-.08-.33-.13Z"/><path class="cls-8" d="M477.4,276.18c.53,4.65,3.81,7.62,6.61,10.9,1.98,2.31,2.77,5.31,4.17,7.98,.48,.91,1.04,1.63,1.83,2.24,4.8,3.71,7.75,8.28,8.23,14.61,.43,5.59,.79,11.1-1.02,16.52-1.63,4.9-5.03,8.26-9.66,10.42-2.59,1.19-5.23,2.29-8.18,2.03-.74,.58-1.73-.13-2.46,.48-.51,.36-1.12,.23-1.68,.23h-34.17c-.56,0-1.14,.13-1.68-.23h0c-.74-.61-1.73,.08-2.46-.48h-.99c-1.8-.41-3.61-.41-5.44,0-.48,.33-.99,.66-1.47,.99-.41,.3-.76,.25-1.04-.2,.64-2.03,2.34-2.29,4.09-2.46,2.49-.23,4.9,.51,7.37,.51,12.17,0,24.34,.03,36.51-.03,3.71,0,7.37-.58,10.8-2.08,6-2.59,9.05-7.32,9.73-13.7,.38-3.76,.41-7.47,.15-11.28-.36-5.69-2.59-10.09-7.04-13.47-1.42-1.09-2.46-2.39-3.2-3.96-1.98-4.27-4.24-8.36-7.7-11.64-.79-.74-1.22-1.75-1.42-2.82-.05-1.5-1.14-3.05,.15-4.52l-.03-.03Z"/><path class="cls-8" d="M354.98,377.38c-3.84,1.19-7.83,1.45-11.76,1.7-5.95,.41-11.92,.2-17.89,.25-3.28,0-6.58-.03-9.86,0-5.21,.08-10.06-1.47-14.94-3.02-4.04-1.27-8.16-2.29-12.25-3.4-4.42-1.19-8.61-2.95-12.83-4.65-3.76-1.5-7.44-3.25-10.98-5.16-5.01-2.72-10.06-5.36-14.48-9.05-.38-.3-.76-.61-1.14-.91,.33-.33,.71-.41,1.17-.38,3.94,1.85,7.39,4.57,11.21,6.66,11.21,6.15,22.79,11.36,35.42,13.9,1.93,.38,3.74,1.25,5.62,1.85,4.8,1.55,9.66,2.64,14.74,2.49,2.06-.05,4.12-.05,6.17,0,9.53,.28,19.03-.3,28.53-1.02,1.12,.1,2.36-.25,3.3,.69l-.03,.05Z"/><path class="cls-4" d="M152.58,143.88v-.48c.86-1.73,2.69-2.34,4.12-3.33,5.41-3.74,10.82-7.5,16.46-10.82,4.52-2.67,9.17-5.11,13.87-7.5,5.18-2.62,10.44-4.98,15.91-6.86,6.23-2.16,12.68-3.56,19.18-4.55,2.41-.38,4.83-.66,7.27-.99,.53-.08,1.3,.23,1.42-.56,.1-.53-.53-.74-.91-1.02-3.63-2.62-7.24-5.26-10.85-7.9-.33-.23-.56-.58-.81-.89-.18-.25-.13-.46,.15-.61,1.6-.13,2.41,1.27,3.58,1.96,3.1,1.85,6,4.01,8.92,6.15,1.04,.76,2.44,1.5,1.91,3.07-.51,1.6-2.06,1.32-3.35,1.4-5.67,.36-11.21,1.6-16.72,2.87-15.75,3.66-29.75,11.18-43.3,19.72-5.36,3.38-10.52,7.01-15.75,10.57-.41,.1-.76,.08-1.09-.23Z"/><path class="cls-12" d="M499.61,198.68c-.74,2.64-2.72,4.07-4.98,5.23-.46,.23-1.25,.33-1.02,1.12,.15,.53,.76,.56,1.27,.56,3.86,0,7.6,1.02,11.36,1.65,6.68,1.09,13.39,2.11,19.89,4.14,4.55,1.4,7.11,4.4,8.03,8.92,.86,4.29,.81,8.66-.05,12.91-.58,2.87-4.32,8.18-8.31,7.93-.18-.2-.25-.46-.2-.74,.2-.58,.66-.97,1.17-1.17,4.27-1.73,5.77-5.39,6.15-9.5,.33-3.48,.48-7.01-.69-10.44-.71-3.33-2.87-5.28-5.97-6.33-10.09-2.64-20.38-4.14-30.64-5.72-1.63-.25-3.28-.36-4.8-.94-1.32-.48-1.4-1.25-.28-2.08,.25-.2,.53-.41,.84-.51,2.72-.91,4.88-2.62,6.71-4.78,.48-.28,.99-.51,1.55-.23l-.03-.03Z"/><path class="cls-4" d="M499.61,198.68c-.33,.15-.66,.33-.99,.48-.69-2.52,.74-4.75,1.07-7.14,.56-3.91-.25-7.5-1.8-10.98-1.02-2.29-3.07-3.3-5.36-3.94-4.14-1.17-8.41-1.3-12.65-1.42-7.37-.2-14.76-.13-22.16,0-2.59,.03-4.4-.91-5.72-3.07-1.55-2.52-2.92-5.13-4.5-7.62-.99-1.58-1.09-3.3-.15-4.93,1.04-1.83,1.42-4.04,3.18-5.44,.36,.1,.43,.3,.23,.61-.33,1.93-.64,3.81-1.83,5.49-.64,.89-.91,2.08-.2,3.25,1.8,3,3.53,6.02,5.34,9.02,.66,1.09,1.78,.99,2.85,.99,7.14,0,14.28,.03,21.42,0,4.9-.03,9.81,.46,14.53,1.5,3.4,.74,6.43,2.87,7.32,6.81,.46,1.98,1.04,3.94,.91,6.02,.38,1.47,.38,2.97,0,4.45h0c-.48,1.45-.05,3.1-.99,4.45-.18,.48-.33,.99-.51,1.47h.03Z"/><path class="cls-4" d="M525.78,240.63v.51c-.33,.18-.66,.33-.99,.51-.91,.53-2.01,.58-2.97,.99-7.93,2.79-15.93,5.36-23.73,8.49-5.13,2.06-10.37,3.84-15.4,6.17-4.04,1.88-8.18,3.56-12.2,5.51-1.75,.86-1.85,2.08-.36,2.87,4.4,2.26,5.95,6.28,7.24,10.54-.25,1.52,.38,2.97,.48,4.45-1.6-.2-1.45-1.55-1.63-2.62-.66-3.53-1.63-6.86-4.55-9.3-.71-.58-1.47-1.02-2.26-1.47-2.52-1.52-2.67-3.68-.3-5.49,1.58-1.22,3.46-1.88,5.26-2.67,15.85-7.04,32.07-13.14,48.58-18.42,.91-.28,1.85-.81,2.79,0l.03-.08Z"/><path class="cls-4" d="M354.98,377.38h-3.46c.15-1.35,1.27-1.02,2.06-1.14,8.66-1.42,17.3-3.1,25.61-6.05,15.27-5.44,29.52-12.78,41.87-23.45,1.02-.89,1.96-2.06,3.53-2.01,.28,.36,.23,.71-.03,1.07-4.22,3.71-8.59,7.29-13.31,10.32-8.51,5.46-17.28,10.39-26.88,13.85-6.61,2.36-13.34,4.17-20.07,6.07-1.14,.33-2.26,.36-3.4,.38-1.78,.48-3.63,.58-5.44,.99h-.48v-.03Z"/><path class="cls-8" d="M202.43,315.66c.08-1.32,1.17-1.93,1.98-2.69,4.04-3.79,4.65-5.62,2.21-10.8-3.1-6.61-5.49-13.42-7.6-20.35-.43-1.4-1.02-1.27-1.93-.74-4.78,2.87-10.06,3.28-15.4,2.92-2.39-.15-4.75-1.02-6.94-2.11-2.97-1.47-3.94-4.19-4.45-7.19,.2-.18,.46-.25,.74-.18,.3,.15,.58,.36,.69,.69,1.78,5.77,6.5,6.86,11.61,7.22,4.5,.33,8.82-.48,12.83-2.62,1.68-.89,3.18-.86,4.09,1.12,2.26,7.22,5.01,14.25,8.03,21.19,2.69,6.2,.99,10.49-5.21,13.82-.28,0-.51-.08-.71-.25l.05-.03Z"/><path class="cls-4" d="M202.43,315.66h.51c.76,1.3-.03,2.39-.53,3.48-.86,1.91-1.35,3.86-1.27,5.97,.15,4.01-.43,8.05,.36,12.04,1.52,7.8,6.05,10.52,12.93,11.89,9.45,1.88,19.03,.66,28.53,.99,1.73,.05,3.48,0,5.06,.84,.94,.48,1.98,.94,1.8,2.31h-.99c-1.78-.64-3.38-1.83-5.44-1.47-2.74-.58-5.51-.23-8.28-.23-4.32,.03-8.64-.33-12.93,.23-4.93-.13-9.78-.89-14.23-3-5.51-2.62-8.13-7.5-8.38-13.34-.23-5.28-.64-10.62,.81-15.88,.41-1.52,1.3-2.59,2.06-3.81v-.03Z"/><path class="cls-12" d="M232.56,67.37c-.2-4.75,1.25-8.66,5.54-11.18,1.63-.97,3.48-1.47,5.31-1.7,5.89-.71,11.81-1.6,17.74-1.73,4.93-.1,9.91,.81,14.84,1.27,.71,.51,1.52,.15,2.29,.28,.51,.08,.94,.23,.56,.89-1.12,.74-2.39,.56-3.58,.41-9.05-1.17-18.09-1.25-27.14,0-2.52,.33-5.01,.41-7.44,1.27-4.29,1.52-5.89,4.62-6.5,8.89-.61,4.4-.2,8.61,.89,12.86,.25,.94,.48,2.01-.51,2.69-.81,.58-1.68,.58-2.46-.13-.33-.94,.58-.71,.97-.99,1.09-1.07,.03-2.16-.13-3.13-.25-1.6-.36-3.18-.38-4.78-.46-1.65-.46-3.3,0-4.93h.03Z"/><path class="cls-8" d="M377.7,109.8c4.29,.71,8.38,2.31,12.09,4.32,4.55,2.46,8.51,2.03,12.68-.25,1.02-.56,2.06-1.04,3.23-1.07,4.68-.03,9.3-.74,14-.53,5.18,.23,9.91,1.7,14.15,4.68,.46,.33,.76,.84,1.14,1.27-.2,.2-.43,.33-.71,.38-2.01,.08-3.15-1.63-4.8-2.31-6.2-2.54-12.63-2.46-19.11-2.19-4.24,.2-8.26,1.17-12.02,3.15-1.98,1.07-4.09,.64-5.97-.25-4.55-2.11-9.27-3.79-13.92-5.64-.38-.15-.71-.41-.91-.79-.05-.28,0-.53,.18-.76h-.03Z"/><path class="cls-5" d="M377.7,109.8v.51c-.84,.76-1.73,.33-2.57,.1-3.4-.97-6.81-1.83-10.24-2.67-2.62-.64-4.5-2.03-6.02-4.29-6.4-9.53-14.28-17.76-23.12-25.05-1.12-.91-3.1-1.12-3-3.18,.36-.25,.71-.2,1.02,.08,3.48,2.52,6.76,5.26,9.99,8.13,5.77,5.18,10.87,10.9,15.04,17.4,2.13,3.33,4.62,5.49,8.64,6.05,3.56,.48,6.94,1.73,10.29,2.97l-.03-.05Z"/><path class="cls-8" d="M170.85,274.71h-.51c-1.19-4.62-.79-9.25-.66-13.95,.13-5.28,1.07-10.39,2.21-15.42,1.58-7.01,3.51-14,6.83-20.48,.25-.18,.48-.15,.69,.1,.58,1.3-.18,2.39-.64,3.48-2.21,5.36-3.86,10.87-5.08,16.54-1.45,6.23-2.08,12.55-2.62,18.9-.18,2.11-.13,4.24,.25,6.35,.28,1.47,.58,3.1-.51,4.47h.03Z"/><path class="cls-12" d="M278.96,55.02c-.74-1.04-2.21,.05-2.97-.99,5.44,0,10.62,1.5,15.91,2.46,5.36,.97,10.52,2.64,15.6,4.5,4.09,1.5,8.18,3.1,11.94,5.39-.41,.43-.94,.56-1.5,.56-3.07-.69-5.74-2.34-8.64-3.48-8.87-3.51-18.09-5.67-27.47-7.24-1.04-.18-2.13-.25-2.87-1.17v-.03Z"/><path class="cls-8" d="M233.05,80.2c-.2,.41-.58,.48-.99,.48-1.02,.84-2.06,.3-2.97-.08-2.67-1.07-5.44-.74-8.18-.69-1.02,0-1.83,.61-2.52,1.32-.56,.48-.99,1.09-1.32,1.75-2.97,4.17-3.02,8.36-.18,12.65,.56,.86,1.17,1.75,1.37,2.82v.51c-1.75,.05-2.29-1.45-2.95-2.57-1.85-3.18-2.9-6.68-1.88-10.27,.64-2.24,1.98-4.42,3.51-6.2,1.32-1.52,3.48-1.68,5.62-1.8,3.74-.2,7.09,.94,10.52,2.06h-.03Z"/><path class="cls-12" d="M450.75,155.23v-.51c-.53-.48-.66-1.14-.53-1.8,.66-3.4,.15-6.83,.38-10.27,.3-4.65-.69-9.05-2.29-13.36,0-.48,.15-.89,.48-1.22,1.93,2.46,3.25,5.36,3.33,8.38,.18,5.44,.64,10.93-.41,16.34-.15,.86-.3,1.78-.97,2.44Z"/><path class="cls-8" d="M179.26,224.85h-.51c2.39-6.53,6.02-12.35,10.06-17.94,.56-.79,1.3-1.47,2.26-1.8h0c.71,1.12-.18,1.88-.74,2.59-3.76,4.75-6.81,9.93-9.38,15.42-.36,.74-.51,1.8-1.73,1.73h.03Z"/><path class="cls-8" d="M439.39,341.35h37.53c-.56,.69-1.35,.48-2.06,.48h-33.41c-.71,0-1.5,.2-2.06-.48Z"/><path class="cls-4" d="M448.77,128.1v.99c-1.04,.28-1.42-.56-1.96-1.14-2.34-2.46-4.93-4.5-8.11-5.87-1.78-.76-3.96-1.35-4.27-3.86h.51c2.57,1.37,5.11,2.79,7.72,4.09,2.64,1.32,4.47,3.46,6.1,5.79Z"/><path class="cls-4" d="M333.74,75.27h-.99c-.23,.13-.51,.23-.71,.1-4.22-2.34-8.41-4.68-12.2-7.67,.03-.13,.05-.23,.1-.36,3.35,.86,6.3,2.62,9.15,4.52,1.6,1.07,3.13,2.26,4.68,3.4h-.03Z"/><path class="cls-8" d="M222.2,351.72c.41-.53,.99-.48,1.55-.48h18.12c.56,0,1.14-.05,1.55,.48h-21.22Z"/><path class="cls-8" d="M355.47,377.38c1.7-.86,3.56-1.02,5.44-.99-1.68,1.04-3.56,1.02-5.44,.99Z"/><path class="cls-8" d="M232.56,67.37v4.93c-1.02-1.65-1.02-3.3,0-4.93Z"/><path class="cls-8" d="M430.52,340.84c1.8-.79,3.61-.79,5.44,0h-5.44Z"/><path class="cls-8" d="M428.03,341.84h.99c-.81,1.04-1.47,2.24-2.97,2.46-.05-.1-.08-.23-.13-.33,.23-.99,.91-1.58,1.75-2.08,.1,0,.23-.05,.36-.08v.03Z"/><path class="cls-12" d="M500.12,197.21c.33-1.47,.23-3.05,.99-4.45-.13,1.52,.43,3.2-.99,4.45Z"/><path class="cls-12" d="M501.11,192.76v-4.45c.79,1.47,.79,2.97,0,4.45Z"/><path class="cls-12" d="M521.84,242.62c.86-.74,1.88-.94,2.97-.99-.79,.94-1.85,1.02-2.97,.99Z"/><path class="cls-8" d="M424.58,345.8v-.99c-.13-.46,.13-.66,.51-.79,.38-.08,.71,0,.99,.3h0c-.33,.66-.81,1.17-1.47,1.47h-.03Z"/><path class="cls-8" d="M436.93,340.84c.84,.13,1.78-.33,2.46,.48-.84-.13-1.78,.33-2.46-.48Z"/><path class="cls-8" d="M476.92,341.35c.69-.81,1.63-.38,2.46-.48-.69,.81-1.63,.38-2.46,.48Z"/><path class="cls-4" d="M317.96,66.38h1.47c.18,.33,.33,.64,.51,.97h0c-1.07,.48-1.78,.28-1.98-.99v.03Z"/><path class="cls-49" d="M179.26,224.85c2.74-4.5,4.68-9.45,7.8-13.75,1.42-1.93,3.28-3.61,4.04-6,2.44-1.83,4.27-4.29,6.4-6.43,.74-.13,.81,.41,.94,.91,.05,1.3-.86,2.06-1.65,2.9-10.19,10.47-16.49,23.07-20.25,37.07-.53,1.96-.81,4.04-2.08,5.72-.3,.25-.71,.51-1.07,.3-.38-.23-.38-.64-.1-1.02,.86-6.07,3.05-11.76,5.28-17.4,.3-.76,.74-1.47,.66-2.31h.03Z"/><path class="cls-55" d="M171.84,186.84c-10.47-.97-20.81,1.52-31.25,1.04-6.81-.3-10.7-3.91-10.7-10.72,0-4.24-.51-8.54,1.47-12.55,.69-.43,1.07-.1,1.37,.53,.3,1.02-.15,1.93-.41,2.87-1.04,3.89-1.07,7.78-.08,11.66,.86,3.33,2.95,5.46,6.4,6.02,5.16,.84,10.29,.46,15.42-.3,4.19-.61,8.46-.84,12.68-.56,2.34,.15,4.78-.15,7.04,.74,.36,.3,.81,.84,.46,1.14-.69,.61-1.58,.43-2.41,.1v.03Z"/><path class="cls-52" d="M198.49,194.24c-3.68-1.17-7.27-2.67-10.95-3.89-2.92-.97-5.97-1.37-8.82-2.54,.28-.51,.3-1.22,1.07-1.37,4.34,.05,8.26,1.75,12.27,3.13,2.44,.84,5.01,1.52,7.01,3.3,.2,.64-1.22,.53-.58,1.35v.03Z"/><path class="cls-53" d="M132.35,165.12c-.2-.41-.58-.51-.99-.51,1.35-2.97,3.43-5.26,5.95-7.37,2.49-2.11,4.75-4.47,7.37-6.45,.74-.15,.79,.38,.89,.86-.08,.99-.69,1.68-1.4,2.21-2.11,1.55-3.79,3.56-5.79,5.18-1.68,1.35-3.05,2.9-4.29,4.6-.46,.61-.61,1.6-1.7,1.47h-.03Z"/><path class="cls-53" d="M145.18,151.75c0-.41-.1-.76-.51-.99,1.85-1.88,3.84-3.63,6-5.13,.74-.51,1.52-.89,1.93-1.75h.97c.2,.46,0,.97,.15,1.45-1.96,2.74-4.93,4.32-7.42,6.45-.3,.25-.76,.28-1.14,0l.03-.03Z"/><path class="cls-44" d="M198.49,194.24c-.2-.25-.58-.56-.53-.71,.15-.46,.66-.18,1.02-.25,1.52,.08,3,.69,3.02,2.24,.03,1.6-1.12,2.82-2.92,3.02-.38-.13-.69-.3-.56-.81,.33-.33,.64-.66,.97-1.02,.71-1.25-.08-1.88-.99-2.46h0Z"/><path class="cls-55" d="M179.23,186.82c.25,.56,.36,1.04-.51,1.02h-.48c-.91-.64-2.06,.13-2.97-.48h0c-.53-1.32,.48-1.35,1.3-1.55,.99,.05,1.96,.23,2.67,1.02Z"/><path class="cls-52" d="M176.79,186.34c-.71,0-1.45,0-1.5,1.02-1.14-.18-2.41,.43-3.46-.48,.58-.51,2.19,1.04,1.98-1.02,1.14-.69,2.24-1.14,2.97,.51v-.03Z"/><path class="cls-52" d="M198.49,194.24c1.6,.3,1.91,1.14,.99,2.46,.2-1.04-.53-1.7-.99-2.46Z"/><path class="cls-49" d="M198.52,197.72l.51,.51c.43,1.02,.05,1.5-1.02,1.5,0-.41-.1-.79-.51-1.02,.2-.48,.51-.81,.99-.97l.03-.03Z"/><path class="cls-52" d="M175.29,187.33c.99,.15,2.11-.41,2.97,.48-.99-.15-2.08,.38-2.97-.48Z"/><path class="cls-51" d="M425.09,344.3l-.48,.48c-8.84,7.22-17.99,13.9-28.31,18.93-11.48,5.59-23.43,9.63-35.93,12.07-2.92,.58-5.92,.81-8.82,1.6-11.1,1.04-22.26,.99-33.41,1.07-6.4,.05-12.53-1.17-18.45-3.38-3.48-1.3-7.11-1.83-10.65-2.87-11.97-3.56-23.07-8.89-33.62-15.47-1.88-1.17-3.74-2.36-5.59-3.53-1.35-2.01-3.4-2.44-5.59-2.44-7.55-.03-15.09,0-22.64-.03-3.28,0-6.48-.79-9.63-1.52-6.63-1.58-10.54-5.92-11.28-12.58-.56-5.08-.79-10.32,.28-15.4,.41-1.91,1.3-3.68,1.96-5.51,1.65-1.58,3.51-3,4.9-4.78,2.72-3.46,.66-6.78-.71-10.06-2.74-6.45-5.59-12.86-7.14-19.72-.25-.69-.64-1.32-.69-2.06,.18-.48,.36-.99,1.02-1.02,1.04,.61,1.19,1.73,1.5,2.74,2.24,7.42,4.88,14.66,8.26,21.65,2.08,4.32,1.5,8.05-2.03,11.23-4.5,4.04-6.12,8.97-5.89,14.79,.13,3.02-.2,6.1,.61,9.07,1.35,5.01,4.27,8.33,9.5,9.63,5.28,1.3,10.6,2.13,16.08,1.96,6-.2,12.02,.2,18.01-.2,1.25-.08,2.21,.51,3.15,1.19,10.24,7.78,21.6,13.52,33.54,18.09,6,2.29,12.37,3.4,18.45,5.41,7.27,2.39,14.64,3.28,22.28,3.2,10.29-.1,20.53-.36,30.69-1.98,8.46-1.37,16.82-3.18,24.88-6.05,16.67-5.92,31.86-14.46,44.82-26.65,1.14-1.07,2.34-2.08,3.61-3,1.73-1.25,3.53-1.7,5.79-1.3,2.57,.46,5.16,.89,7.8,.89,11.1,0,22.21,.05,33.31-.03,3.79-.03,7.52-.58,11.1-2.06,4.65-1.91,7.8-5.21,9.02-10.06,1.55-6.15,1.45-12.37-.13-18.52-.81-3.18-3-5.49-5.46-7.42-2.16-1.68-3.63-3.68-4.65-6.23-1.5-3.71-3.81-6.89-6.63-9.71-1.45-1.45-2.34-3.13-2.64-5.18-.25-1.7-.48-3.4-1.07-5.06-.97-2.72-2.67-4.73-5.28-5.87-1.68-.74-3.23-1.63-3.1-3.68,.13-2.16,1.07-3.91,3.2-4.88,6.2-2.85,12.48-5.56,18.8-8.08,11.23-4.45,22.59-8.64,34.12-12.27,8.79-2.79,11.81-8.33,9.83-17.48-.2-.89-.48-1.75-.53-2.67,.05-.61-.03-1.37,.74-1.55,.64-.15,.46,.69,.81,.94,1.6,6.35,1.96,12.5-1.93,18.34-1.27,1.91-3.56,1.91-4.98,3.38-6.17,1.58-12.2,3.68-18.17,5.92-8.13,3.02-16.21,6.12-24.27,9.35-4.47,1.8-8.82,3.89-13.19,5.89-1.12,.51-2.08,1.3-2.16,2.74-.08,1.55,1.17,1.8,2.16,2.34,4.42,2.36,5.97,6.5,6.71,11.1,.15,.99,.18,1.96,1.02,2.67,.28,2.19,2.19,3.18,3.43,4.68,2.49,3,4.19,6.45,5.84,9.93,.64,1.37,1.58,2.39,2.79,3.33,4.55,3.46,6.86,7.95,7.32,13.82,.38,4.88,.43,9.68-.66,14.36-1.88,8.13-7.83,12.3-15.91,13.03-14.1,1.32-28.23,.3-42.36,.53-1.96,.03-3.86-.53-5.87-.51-1.85,0-3.35,.51-4.47,2.01h0c-1.12,.66-1.85,1.8-2.97,2.46l-.08-.05Z"/><path class="cls-51" d="M153.59,144.89c-.58-.33-.08-.69-.05-1.04,2.67-2.72,5.97-4.57,9.07-6.66,5.97-4.01,12.12-7.78,18.42-11.31,8.92-4.98,18.17-9.22,28.03-11.84,7.06-1.88,14.23-3.66,21.65-3.74,.79,0,1.52-.1,1.73-1.02,.18-.76-.38-1.25-.89-1.63-4.42-3.07-8.87-6.12-13.31-9.2-4.07-3.99-6-11.13-1.5-15.8,.36-.28,.71-.28,1.09-.08,.53,.79,.28,1.47-.23,2.16-3.23,3.2-1.63,8.74,2.06,11.92,4.37,3.76,9.5,6.45,13.92,10.09,.81,.66,1.88,1.12,2.06,2.31-.89,.48-1.55,1.17-1.85,2.16-1.7,1.12-3.68,.79-5.51,.99-20.89,2.29-39.51,10.47-56.97,21.72-5.11,3.3-10.19,6.63-15.14,10.11-.74,.53-1.42,1.5-2.59,.84h.03Z"/><path class="cls-51" d="M317.96,66.38c.51,.64,1.19,.89,1.98,.99,4.27,2.64,8.56,5.26,12.83,7.9,3.2,2.9,6.53,5.62,9.83,8.38,4.5,3.79,8.08,8.31,11.81,12.73,2.08,2.49,3.84,5.28,5.79,7.9,.69,.89,1.4,1.8,2.62,2.13,4.98,1.3,9.93,2.59,14.91,3.91,4.85,2.13,9.93,3.68,14.71,6.05,2.08,1.04,4.37,1.32,6.58-.08,3.66-2.34,7.85-2.77,11.97-2.92,6.45-.25,12.91-.3,19.06,2.39,1.58,.69,2.59,2.34,4.45,2.46,.64,1.22,1.73,2.06,2.9,2.52,4.55,1.8,8.26,4.68,11.43,8.33,3.51,7.83,2.69,16.01,2.01,24.16-.05,.48,0,.99-.03,1.47-.61,1.25-1.09,2.59-1.88,3.68-2.08,2.92-1.68,5.54,.41,8.31,1.37,1.83,2.31,3.96,3.53,5.92,1.02,1.65,2.39,2.41,4.47,2.39,7.72-.13,15.47-.23,23.2,0,4.14,.13,8.33,.25,12.4,1.42,3.13,.89,5.16,2.77,6.38,5.89,2.24,5.74,1.17,11.26-.64,16.8-2.08,3-5.16,4.6-8.51,6.02,2.87,1.19,5.79,1.42,8.66,1.88,9.4,1.45,18.8,2.85,27.97,5.44,.51,1.02-.15,1.22-.91,1.4-4.93-.74-9.71-2.26-14.66-2.87-7.11-.89-14.1-2.77-21.29-3.07-.76-.03-1.42-.3-1.98-.86-.53-.89-.76-1.85-.71-2.9,.74-.89,1.85-.99,2.85-1.4,6.45-2.59,9.15-6.86,8.56-13.85-.05-.74-.1-1.47-.2-2.21-.69-5.64-2.87-8.08-8.46-8.99-4.7-.79-9.45-1.14-14.23-1.12-6.91,.03-13.82-.1-20.73,.08-1.63,.05-2.62-.61-3.35-1.98-1.65-3.13-3.51-6.15-5.44-9.1-1.42-2.16-1.58-4.22-.05-6.4,2.67-3.86,3.46-8.28,3.46-12.91,0-2.64,.08-5.26-.2-7.9-.71-6.99-4.22-11.97-10.72-14.74-1.83-.79-3.46-1.85-5.01-3.1-3.86-3.13-8.16-5.16-13.31-4.85-1.73,.1-3.3-1.02-5.08-.79-5.34,.66-10.87,.28-15.68,3.33-2.59,1.65-5.16,1.35-7.72,.08-8.99-4.42-18.52-7.19-28.2-9.58-2.46-.61-4.22-1.88-5.64-3.99-12.6-18.65-29.22-32.29-50.31-40.43-9.1-3.51-18.45-5.82-28.13-7.04-6.53-.81-13.03-1.75-19.62-1.6-5.16,.13-10.34,.58-15.42,1.45-6.83,1.14-8.79,3.71-9.27,10.65-.25,3.74-.03,7.37,1.17,10.93,.25,.79,.48,1.58,.41,2.41-.66,.89-1.45,1.65-2.34,2.34-1.91-.13-3.63-.84-5.39-1.47-2.87-1.07-5.82-1.58-8.84-.74-.74,.15-1.45,.48-2.24,.18-.1-.08-.2-.18-.28-.25,.86-1.55,2.26-1.88,3.94-2.03,3.61-.33,6.99,.64,10.37,1.52,.69,.74,1.55,.69,2.24,.25,.94-.58,.28-1.55,.1-2.24-1.4-4.88-1.4-9.71-.58-14.76,.81-5.18,4.24-7.55,8.46-8.26,8.94-1.5,17.99-2.39,27.11-1.22,3.15,.41,6.38,.41,9.55,.58,10.6,1.75,21.06,3.99,31.1,7.98,2.67,1.07,5.26,2.26,7.9,3.38h-.05Z"/><path class="cls-50" d="M525.81,213.47c.64,0,.97-.36,.97-.99,3.07,1.12,5.31,3.02,5.92,6.43-.25-.18-.51-.38-.76-.56-.08,.36-.15,.71-.25,1.09-.64,.15-.89-.3-1.04-.76-.58-1.83-2.06-2.79-3.53-3.81-.53-.38-1.5-.33-1.35-1.37l.05-.03Z"/><path class="cls-49" d="M199.48,279.15c.33,.61,.58,1.25,.48,1.98-.89-1.42-1.85-1.65-3.43-.81-6.38,3.38-13.01,3.71-19.84,1.37-3.43-1.17-4.75-3.94-5.84-6.99,.15-2.29-.43-4.55-.46-6.81-.08-6.02,.53-12.02,1.7-17.91,.36-1.8,.25-3.71,1.19-5.39,0,.89,.46,.76,1.02,.51,.74,1.98-.03,3.91-.41,5.77-1.02,4.9-1.58,9.88-1.75,14.86-.13,3.56,.33,7.19,1.68,10.6,.66,1.7,1.96,2.82,3.63,3.48,6.17,2.36,12.17,1.96,17.96-1.19,.79-.43,1.47-1.04,2.39-1.19,.99,.18,1.22,1.07,1.65,1.78l.03-.05Z"/><path class="cls-51" d="M217.75,82.67h-1.02c.05-.69,.36-1.22,1.02-1.47h0c.38,.48,.43,.99,0,1.47Z"/><path class="cls-4" d="M425.09,344.3c.81-1.04,1.5-2.21,2.97-2.46-.66,.81-1.32,1.65-1.98,2.46h-.99Z"/><path class="cls-13" d="M198.49,277.65c-2.72,1.25-5.18,3-8.21,3.68-4.78,1.07-9.32,.71-13.77-1.22-1.55-.66-2.72-1.8-3.28-3.46-1.5-4.65-1.85-9.32-1.47-14.25,.46-5.87,1.55-11.59,2.54-17.33,2.16-8.38,4.75-16.62,8.72-24.37,3.61-7.01,8.05-13.44,13.67-19.03,.56-.56,1.3-1.04,1.32-1.98,.61-.33,.97-.79,1.02-1.5,3.3-1.8,3.3-2.72-.05-4.95-6.25-3.18-12.78-5.41-19.72-6.45-.81-.15-1.63-.33-2.44-.48-.89-.81-1.98-.33-2.97-.51-5.87-.13-11.81-.94-17.53-.18-4.95,.66-9.86,1.12-14.84,1.14-1.83,0-3.61-.3-5.26-1.02-4.14-1.83-4.9-5.62-5.26-9.55-.36-3.79,.3-7.5,1.45-11.1,2.59-4.4,6.5-7.52,10.34-10.72,.91-.76,1.65-1.75,2.49-2.64,2.97-2.08,5.82-4.32,8.44-6.89,4.22-2.82,8.38-5.67,12.63-8.46,12.78-8.41,26.04-15.96,40.78-20.43,5.34-1.63,10.77-2.9,16.36-3.63,3.53-.48,7.14-.69,10.62-1.5,.74-.3,1.35-.76,1.6-1.6-3.76-3.53-8.18-6.12-12.37-9.07-2.72-1.93-5.44-3.84-7.04-6.96-1.58-3.05-1.19-6.94,1.02-8.61,.36-.2,.81-.46,.71-.84-.38-1.63,.71-2.34,1.78-3.07,3.25-.99,6.4-.46,9.53,.58,1.91,.64,3.84,1.25,5.77,1.88,.58-.41,.97-1.04,1.5-1.5-1.17-3.74-2.46-7.57-2.24-11.41,.2-3.51-.15-7.52,2.64-10.39,2.52-2.57,6-3.53,9.4-3.74,5.36-.33,10.67-1.4,16.08-1.09,5.62,.3,11.18,.91,16.77,1.6,6.99,.84,13.77,2.26,20.48,4.22,8.64,2.49,16.8,6.12,24.52,10.67,8.59,5.06,16.29,11.28,23.07,18.55,3.89,4.17,7.93,8.38,10.62,13.44,2.11,3.96,5.69,4.68,9.27,5.51,8.56,2.01,16.82,4.75,24.72,8.64,2.67,1.32,5.16,1.35,7.83-.13,3.15-1.73,6.35-3.02,10.27-2.59,1.8,.2,3.94-.91,6-.69,6.83,.76,13.8,1.09,19.08,6.58,1.85,1.93,4.75,2.19,6.94,3.66,5.34,3.61,8,8.69,8.13,15.12,.08,3.76,.3,7.52-.2,11.31-.46,3.35-1.58,6.35-3.51,9.07-1.27,1.75-.89,3.4,.18,5.01,2.08,3.15,4.09,6.35,5.77,9.73,.53,1.09,1.22,1.4,2.52,1.37,8.46-.13,16.95-.3,25.41,0,3.56,.13,7.14,.43,10.7,1.12,4.55,.89,6.99,3.51,7.85,7.93,.74,3.84,.71,7.6-.56,11.31-1.63,4.73-5.72,6.25-9.91,7.65-.38,.13-.71,.33-1.07,.51-.79,.91-.38,1.52,.51,2.01,3.13,1.19,6.5,.86,9.73,1.47,9.43,1.78,19.03,2.79,28.31,5.41,2.79,1.17,4.8,3.1,5.89,5.95,1.19,3.84,1.3,7.72,.48,11.66-.76,3.74-2.57,6.48-6.3,7.8-8.64,3.1-17.4,5.89-26.02,9.1-10.47,3.86-20.68,8.31-30.95,12.7-1.96,.84-2.46,2.64-2.64,4.4-.15,1.55,1.14,2.29,2.62,2.79,3.71,1.27,6.05,4.37,6.25,7.85,.3,4.98,2.85,8.36,5.87,11.66,2.11,2.31,3.4,5.06,4.55,7.85,.74,1.78,1.73,3.1,3.23,4.19,4.78,3.43,7.04,8.08,7.42,14.03,.25,4.04,.13,7.98-.56,11.92-1.3,7.39-6.2,11.28-12.78,12.93-3.48,.89-7.09,1.12-10.72,1.07-10.52-.08-21.06,.03-31.58-.08-2.64-.03-5.31-.48-7.93-.99-2.01-.38-3.48,.41-4.85,1.6-5.69,4.93-11.31,9.96-17.58,14.15-7.93,5.31-16.36,9.6-25.23,13.19-6.48,2.62-13.11,4.52-19.87,6.1-6.07,1.42-12.22,2.36-18.42,3.1-9.4,1.09-18.8,.76-28.2,.94-5.56,.1-10.77-1.27-16.01-2.87-6.25-1.91-12.7-3.15-18.83-5.41-8.46-3.15-16.72-6.81-24.42-11.61-3.76-2.34-7.55-4.62-10.98-7.47-.51-.41-1.09-.61-1.83-.56-8.38,.58-16.77,.41-25.13,.13-3.99-.13-8.11-1.04-11.89-2.59-4.09-1.68-6.38-5.08-7.39-9.27-1.07-4.37-.71-8.84-.46-13.24,.23-4.29,2.11-8.03,5.59-10.85,2.21-1.8,3.38-4.07,3.33-7.06,0-1.42-.41-2.64-.97-3.71-3.84-7.5-6.35-15.47-8.92-23.43-.15-.46-.41-.86-.61-1.3-.58,.1-1.12,.05-1.52-.46v-.03Z"/><path class="cls-46" d="M198.49,277.65c.56,0,1.14-.1,1.52,.46-.05,.41-.1,.81-.53,1.04-.53-.38-1.6-.38-.99-1.5Z"/><path class="cls-45" d="M235.59,109.27c.48,1.45,.05,1.91-1.6,1.6-.13-.69-.25-1.37-.38-2.16,.71,.2,1.35,.38,1.98,.56Z"/><path class="cls-1" d="M219.73,80.71c-1.5,.89-.99,3.05-2.49,3.91,.38-.61,.64-1.25,.53-1.96v-1.47c.71,.08,1.37-.15,1.98-.48h-.03Z"/><path class="cls-42" d="M487.77,206.59c-.81,0-1.93,.23-2.19-.69-.3-1.19,1.19-.76,1.68-1.32,1.07,.43,1.02,1.17,.51,2.01Z"/><path class="cls-47" d="M236.53,81.68c0,1.02,.1,2.08-1.5,1.5-.43-1.45,.05-1.93,1.5-1.5Z"/><path d="M208.5,251.94c-8.66,5.67-16.77,12.04-24.67,19.59-.08-4.07,.36-7.6,.84-11.08,2.39-17.33,8.16-33.26,19.69-46.73,2.72-3.18,5.64-6.17,9.07-8.61,3.71-3.28,8.08-5.54,12.3-8.05,.69-.41,1.63-.43,1.91-1.4-1.37-1.88-3.35-2.97-5.16-4.29-.97-.71-2.08-1.25-2.72-2.36-12.93-8.49-27.14-13.52-42.43-15.47-11.61-1.47-23.12-.86-34.56,1.55-.53,.15-1.12,.36-1.04-.58,19.51-19.97,42.03-35.57,68.2-45.46,21.39-8.08,43.02-7.32,64.41,.64,.84,.3,1.7,.53,2.57,.81,.79,.05,1.47,.33,2.16,.69,1.35,.71,2.97,.64,4.22,1.58,3.1,1.63,6.07,3.48,9.73,5.31-.81-4.19-2.21-7.7-3.48-11.23-.41-.69-.48-1.45-.38-2.24-6.48-15.55-16.85-28.31-28.64-40.07-4.73-4.7-9.43-9.43-14.43-13.82-.41-.36-.99-.61-1.04-1.45,6.81-1.27,13.7-1.65,20.58-1.32,22.92,1.04,43.65,8.13,61.67,22.64,9.05,7.29,16.57,15.93,22.66,25.84,.58,.97,.99,2.08,2.01,2.77,3.18,4.34,5.06,9.35,7.04,14.25,3.23,8,5.28,16.36,6.45,24.9,.2,1.47,.66,2.11,2.16,2.41,2.9,.58,5.74,1.35,8.51,2.36,3.76,1.68,7.55,3.35,11.05,5.59,2.29,2.03,5.13,3.38,6.86,6.05,2.44,3.07,5.26,5.84,7.47,9.12,1.25,2.11,2.64,4.14,3.58,6.45,.38,.97,1.09,1.78,2.21,1.55,2.34-.48,4.73-.28,7.09-.58,6.63-.86,13.34-1.42,20.02-1.6,7.27-.2,14.48-1.12,21.78-1.09h23.33c.79,0,1.65-.25,2.39,.25,1.98,.15,3.94,.33,5.92,.48,.3,.3,.3,.64,0,.94-12.73,4.04-24.85,9.48-36.56,15.88-.2,.1-.3,.33-.46,.51-1.5,1.73-3.48,2.74-5.56,3.58-3.43,1.55-6.61,3.53-9.45,6.25,8.38,.15,16.72,.43,25.05,.86,11.43,.2,22.77,1.63,34.05,3.23,8.54,1.22,17,2.82,25.41,4.73,.76,.18,1.52,.41,2.79,.74-5.64,1.83-10.77,3.48-15.88,5.21-17.05,5.77-33.72,12.45-50,20.07-.74,.36-1.55,.53-2.11,1.22-1.88,1.8-4.37,2.52-6.63,3.63-5.74,2.85-11.38,5.82-17.1,8.72-.94,.48-1.91,.94-2.67,1.78,.23,1.04,1.4,1.02,1.96,1.7,5.18,2.85,10.72,4.78,16.34,6.5,1.65,.51,3.15,1.32,4.83,1.73,4.4,1.02,8.82,2.06,13.21,3.07-.1,1.07-.94,.58-1.45,.64-1.96,.18-3.94-.23-5.89,.23-2.92,.13-5.89-.25-8.77,.53-2.97,1.14-6.15,.84-9.22,1.09-15.55,1.25-30.87,3.81-46.07,7.32-.86,.2-1.75,.48-2.67,.46-.74-.13-1.3-.53-1.78-1.09-6.89-4.95-14.69-6.78-23.05-6.4-1.58,.08-2.64-.28-3.63-1.45-2.36-2.74-4.8-5.41-7.27-8.05-.97-1.04-1.17-1.75-.2-3.07,10.62-14.46,8.21-31.94-5.87-43.19-6.4-5.11-12.7-4.09-17.18,2.74-3.25,4.98-3.99,10.39-2.39,16.06,.41,1.45,.23,2.44-.66,3.58-3.23,4.14-6.43,8.31-10.16,12.12,1.8-6.4,2.77-12.86,1.83-20.02-5.39,6.68-9.88,13.31-14.31,20.33-.58-1.17-.36-2.16-.38-3.07-.1-9.86-.28-19.74-1.7-29.52-.94-6.5-3.89-11.97-8.28-16.74-1.14-1.25-1.7-1.32-2.52,.33-3.51,7.01-6.38,14.25-8.44,21.8-.25,.91-.53,1.83-.84,2.87,1.83,0,2.62-1.55,3.74-2.46,4.78-3.89,4.98-3.89,9.07,.86,.33,.38,.64,.76,.91,1.17,1.25,1.65,3,3.58,2.72,5.36-.36,2.24-3.28,1.45-5.03,2.03-3.76,1.25-7.37,2.74-10.93,4.5-2.24,1.09-3.15,2.64-3.07,5.01,0,.94-.13,1.88-.18,2.77-.64,.1-.71-.25-.86-.53-1.78-3.4-1.75-3.38-4.68-.71-2.87,2.62-5.21,5.69-7.55,8.77-.99,.05-.86-.53-.66-1.17,1.88-5.31,4.73-10.09,7.93-14.69,.51-.71,1.09-1.32,.66-2.41-3.35-8.59-5.67-17.46-7.44-26.5-.03-.15-.15-.28-.36-.71-5.92,16.8-8.44,33.87-7.88,51.43-.33,2.01-1.47,1.04-2.26,.51-2.46-1.65-4.93-3.25-7.55-4.65-2.03-1.07-4.09-2.08-6.25-2.85s-3.02-2.29-3.1-4.5c-.13-4.8,.74-9.45,1.68-14.13,.46-1.45,.33-3.02,.99-4.42,.18-.46,.41-.89,.64-1.32s.53-.81,.61-1.32c.3-2.06-.48-2.77-2.49-2.16-3.46,1.04-6.78,2.44-10.09,3.81-4.52,1.88-8.97,3.99-13.26,6.28-3.4,1.8-6.94,3.71-9.93,6.3-.25,.25-.58,.36-.89,.53h-.13Z"/><path class="cls-14" d="M243.47,244.16c-.61,4.47-1.5,8.89-1.58,13.44-.05,2.41,.53,3.86,3.07,4.78,4.95,1.78,9.43,4.6,13.8,7.55,.56,.38,1.22,1.45,1.68-.1,.18,.81,.18,1.68,.76,2.36,1.78,2.36,3.68,4.7,2.67,7.98-.56,1.83-1.91,3.23-2.87,4.83-.43,.69-1.14,1.22-1.14,2.13h0c-1.88,1.96-3.94,3.74-5.67,5.84-.15,.15-.3,.3-.46,.46-.48,.76,.18,.79,.61,.89,1.42,.38,2.79,.91,4.24,1.07,3.28,.36,5.51,1.75,6.05,5.21,.84,2.41,2.26,4.32,4.75,5.28,.69,.25,1.32,.64,1.42,1.52,.28,2.82,2.26,4.42,4.4,5.82,3.13,2.06,5.44,4.7,6.12,8.49v-.05c1.42,2.79,1.91,6.02,3.96,8.54,.13,.13,.25,.25,.38,.38,2.31,1.35,4.57,2.87,7.34,3.13,2.59,.23,5.03-.23,7.19-1.8,.86-.64,1.78-1.17,2.82-1.42,.38-.08,.79-.05,1.17,.05,1.32,.43,2.39,1.37,3.66,1.93,2.95,1.27,5.87,.97,8.77-.08,.38-.1,.76-.13,1.17-.03,1.25,1.4,.71,3.18,.84,4.73,.74,8.56-1.35,16.57-5.28,24.11-.81,1.58-1.98,2.11-3.84,1.75-18.8-3.48-35.9-10.8-51.22-22.23-1.91-1.42-3.86-2.79-5.56-4.47-.51-1.04,.2-1.63,.84-2.21s1.27-1.19,1.8-1.88c2.82-3.76,2.69-7.62,.43-11.59-.2-.43-.38-.86-.51-1.32-.23-1.55-1.07-2.39-2.67-2.72-1.65-.36-3.25-1.02-4.95-1.27-1.83-.74-2.62-2.57-4.09-3.71-3.38-2.64-7.06-3.86-11.33-2.95-1.88,.46-3.58,.25-4.88-1.4-1.47-1.65-2.26-3.74-3.63-5.46-.03-.28-.08-.53-.1-.81-.53-.81-.84-1.73-1.45-2.49-.46-.99-.91-2.01-1.37-3-.51-.58-.64-1.37-1.02-2.03h0c-.66-.58-.53-1.6-1.12-2.26-.15-.36-.3-.74-.46-1.09-.43-1.19-1.14-2.29-1.4-3.53h0c-1.02-1.7-1.32-3.66-2.03-5.49-1.58-5.82-3.58-11.54-4.32-17.56,1.47-2.74,4.27-3.94,6.53-5.77,1.02-.53,1.75-1.42,2.64-2.11,2.82-1.75,5.44-3.81,8.33-5.44,.84-.48,1.75-1.35,2.77-.18-.08,1.52-1.58,2.29-1.98,3.63-1.19,1.58-1.93,3.4-3,5.06-1.3,2.67-2.52,5.39-3.35,8.23,.74-2.79,2.08-5.36,3.25-8,1.07-1.63,1.78-3.46,2.97-5.01,.76-1.63,2.06-2.9,2.85-4.52,.38-.58,.81-1.09,1.3-1.6,.43-.43,.86-.84,1.35-1.17,2.16-1.58,4.57-2.72,6.96-3.91,1.83-.91,2.36-.46,2.34,1.52l.05-.05Z"/><path class="cls-14" d="M372.74,124.36c4.29,1.27,8.46,2.9,12.37,5.11,1.91,1.6,4.17,2.62,6.4,3.56,2.46,1.04,4.52,2.59,6.71,3.99,2.39,1.55,2.39,3.02-.28,4.14-1.73,.71-2.72,1.68-2.97,3.48-2.49,5.13,1.58,10.06,7.29,9.96,5.26-.1,10.49-.03,15.75,0,1.14,0,2.31-.15,3.33,.56,.3,.28,.48,.66,.76,.97,3.1,3.68,6.17,7.34,9.27,11.03,.58,.64,1.25,1.22,1.5,2.11,.3,.46,.58,.91,.89,1.37,1.52,1.27,2.21,3.13,3.18,4.78l-.08,.18c.41,.97,1.07,1.73,1.7,2.54,.36,.41,.48,.94,.79,1.35,0,.15,.05,.3,.1,.43,1.93,2.24,2.95,5.01,4.27,7.57,.3,.58,.64,1.19-.23,1.65-3.68,1.22-7.52,.38-11.26,.86-1.52,.2-3.1,.1-4.65,.3-1.27-.05-2.52,.08-3.79,.15-.41,0-.81-.1-1.17-.28-.91-.51-1.27-1.45-1.78-2.31-7.93-13.67-19.62-22.23-35.06-25.61-3.43-.76-3.4-.89-3.94-4.5-1.58-10.62-4.65-20.78-9.15-30.54-.41-.91-1.3-1.88,0-2.82l.03-.03Z"/><path class="cls-52" d="M477.43,326.56c-.76,.74-1.7,.46-2.57,.46-7.95,0-15.93,.2-23.88-.13-4.17-.18-8.36-.08-12.5-.43-4.5-.38-7.62-3.1-9.93-6.83-.38-.18-.71-.41-.94-.79-1.47-3.51-1.88-7.04-.28-10.62,1.7-2.24,2.87-4.93,5.44-6.43,2.01-1.09,4.12-1.96,6.38-2.21,1.85-.2,2.92-1.07,3.51-2.74,.13-.38,.38-.71,.76-.91,3.63-3.4,7.83-5.62,12.88-5.84,7.93,2.39,12.55,7.72,14.05,15.8,.3,1.68,1.55,2.11,2.9,2.64,6.73,2.72,8.56,10.57,3.76,15.8-.97,1.04-2.19,1.6-3.43,2.13,1.32-.56,2.59-.94,3.86,.13v-.03Z"/><path class="cls-31" d="M372.74,124.36c-.48,1.88,.89,3.23,1.55,4.7,4.04,8.94,6.45,18.34,8.26,27.92,.08,.41,.1,.84,.05,1.22-.36,2.08,.64,2.92,2.62,3.25,8.61,1.42,16.19,5.18,22.99,10.52,6.15,4.83,11.03,10.7,14.46,17.76-1.22,1.19-2.82,.58-4.22,.81-3.05,.53-6.17,.43-9.22,1.14-2.01,.48-3.35-.3-4.32-2.24-2.31-4.62-5.16-8.89-8.92-12.5-.3-.2-.61-.41-.81-.71-2.19-3.15-5.26-5.31-8.33-7.5-3.1-2.01-6.48-3.48-9.81-5.03-2.87-1.5-6.02-2.06-9.15-2.69-1.68-.33-2.59-1.02-2.77-2.82-1.02-10.24-4.14-19.89-8.21-29.27-.86-2.01-1.58-4.12-2.72-6-1.15-1.86-.72-2.95,1.3-3.25,5.95,.89,11.71,2.44,17.28,4.65l-.03,.03Z"/><path class="cls-31" d="M390.5,289.57c13.9-3.53,27.97-5.97,42.25-7.42,4.8-.48,9.6-.89,14.41-1.3,.53-.05,1.09,.18,1.65,.28,.1,.61-.33,1.02-.56,1.5-1.42,1.12-3.15,.71-4.73,.91-10.47,1.35-20.84,3.28-31.13,5.62-1.42,.08-3.38-.3-3.96,1.02-.41,.89,1.07,2.26,1.91,3.28,.15,.18,.3,.36,.48,.56,3.43,6.38,5.11,13.29,5.97,20.4,.23,1.85,.56,3.74,.61,5.62,.03,1.73,1.09,2.85,2.49,3.71,.89,.53,2.01,.89,2.08,2.21-2.16,3.46-5.36,5.89-8.44,8.44-.99,.84-1.65,.15-2.26-.56-3.46-4.04-7.01-7.98-11.79-10.57-.79-.43-1.09-1.12-1.09-2.03-.13-10.49-2.87-20.33-7.5-29.68-.3-.61-.56-1.17-.43-1.88l.03-.1Z"/><path class="cls-52" d="M246.92,336.86c-8.87,0-17.74,.08-26.63,0-3.58,0-6.4-2.67-6.96-6.15-.53-3.3,1.27-6.61,4.73-7.7,1.98-.64,2.39-1.73,2.69-3.46,.71-4.01,3.23-6.91,6.38-9.3,.71-.23,1.27-.61,1.63-1.27,1.09-.25,2.21-.48,3.33-.56,1.91-.53,3.58,.15,5.26,.89,.51,.23,1.04,.51,1.42,.91,2.74,2.97,6.02,5.03,9.91,6.07,6.02,4.12,7.39,10.16,3.79,16.24-1.3,2.19-3.48,3.18-5.54,4.34v-.03Z"/><path class="cls-52" d="M422.14,156.1c-.15-.13-.33-.25-.48-.38-.66-1.17-1.8-.97-2.85-.97-5.84,0-11.66-.05-17.51,0-5.74,.08-8.59-5.74-6.76-9.43,.33-.66,.48-1.4,.79-2.06,.41-1.5,1.78-1.96,2.95-2.34,1.93-.61,2.24-1.75,1.7-3.43,1.04,.08,1.25-.53,1.55-1.42,1.88-5.51,7.8-9.78,13.62-9.93,.58,0,1.14-.03,1.63,.41-.41,.71-1.09,.33-1.65,.33,.64,.1,1.22,.25,1.83,.41,1.42,.48,2.92,1.12,3.74,2.31,1.96,2.92,5.01,3.76,8.05,4.68,7.85,3.84,7.95,15.7,.64,19.64-1.7,.91,1.02,.41,.23,.91-1.88,.86-3.84,.51-5.72,.23-1.07-.15-1.55,.05-1.7,1.07l-.05-.03Z"/><path class="cls-14" d="M421.66,325.88c-.05-.15-.08-.41-.18-.43-5.44-1.85-4.83-6.63-5.31-10.9-.81-7.19-2.74-14.05-5.89-20.58-.18-.28-.38-.53-.53-.81-2.01-3.48-1.83-3.86,2.03-4.62,7.98-1.88,16.06-3.38,24.16-4.65,4.09-.64,8.18-1.47,12.35-1.27-.99,4.4-3.25,8.26-4.88,12.4-.48,.76-.53,1.65-.91,2.49-.66,1.4-1.42,2.16-3.1,2.21-2.24,.08-4.27,1.02-6.17,2.16-2.62,1.4-3.99,3.86-5.28,6.38-1.3,2.85-1.12,5.79-.41,8.74,.18,.69,.33,1.4,.48,2.08-.33,.81-.94,1.42-1.6,1.98-.13,.15-.25,.28-.38,.43-.71,1.7-2.62,2.46-3.2,4.24-.36,.23-.66,.74-1.14,.15h-.03Z"/><path class="cls-14" d="M430.04,268.71c-3.2-1.83-3.28-1.96,.03-3.74,8.18-4.4,16.34-8.87,24.95-12.42-.2,3.3-.46,6.58-1.35,9.76-1.75,1.37-3.96,1.96-5.79,3.18-.58,.38-1.65,.51-1.6,1.35,.05,.97,1.17,1.02,1.88,1.32,.99,.41,1.93,.89,2.95,1.25,.91,.3,1.09,.91,.71,1.73l-1.17,4.88c-3.07-.1-5.84-1.37-8.64-2.39-4.04-1.45-8.08-3-11.97-4.9h0Z"/><path class="cls-31" d="M217.27,257.94c-2.24,1.83-4.5,3.66-6.73,5.49-.97-3.71-1.22-7.55-1.65-11.33,.46-.79,1.3-1.09,1.98-1.6,.18-.13,.36-.23,.56-.3,.81-.23,1.5-.71,2.11-1.3,.18-.13,.36-.25,.56-.36,1.85-1.04,3.68-2.19,5.64-3.07,6.2-2.95,12.27-6.28,18.78-8.56,.3-.1,.58-.3,.91-.38,.56-.18,1.19-.28,1.55,.3,.28,.48-.08,.94-.36,1.35-.64,.86-1.55,1.5-1.96,2.52-.51,1.07-1.4,1.83-2.16,2.72-1.14,1.47-2.31,2.92-3.53,4.32-.46,.46-.89,.94-1.17,1.52-.3,.38-.36,1.12-1.17,.84-2.21-.36-3.4,1.47-5.03,2.36-1.98,1.07-3.66,2.72-5.79,3.58-1.5-.2-1.65,1.35-2.49,1.98l-.05-.08Z"/><path class="cls-28" d="M477.43,326.56h-4.24c1.14-1.27,2.57-1.73,3.51-2.87,4.45-5.36,2.16-13.14-4.55-14.89-1.5-.38-2.19-.97-2.44-2.52-1.19-7.52-5.28-12.73-12.58-15.27-.51-.18-.91-.33-.89-.97h.36c1.3,.53,2.72-.18,4.01,.41,8.38,2.29,13.42,7.55,14.41,16.34,.15,1.27,.86,1.58,1.91,1.85,4.5,1.17,7.22,4.29,7.39,8.36,.2,4.57-2.13,7.83-6.89,9.55h0Z"/><path class="cls-17" d="M252.82,335.84c16.52,13.8,35.37,22.59,56.46,26.68,1.78,.36,2.82,0,3.71-1.73,4.57-8.97,6.68-18.32,4.52-28.36-1.32-1.68-1.35-3.84-1.98-5.74-.58-1.75-1.17-2.29-2.87-1.12-2.03,1.4-4.19,2.59-6.33,3.84-.84,.51-1.68,1.07-2.72,1.02-.38,0-.71-.15-.97-.46,2.49-2.52,5.97-3.4,8.82-5.39,.41-.28,.69-.56,.89-1.07,.28-.74,.81-1.4,1.7-1.6,.1,1.32,1.8,.61,2.29,2.34,1.47,5.21,2.62,10.32,2.74,15.8,.13,5.84-1.04,11.33-3.2,16.64-.86,2.13-1.32,4.52-3.23,6.17-.69,.61-1.35,.97-2.16,.81-7.8-1.58-15.47-3.58-22.92-6.38-7.17-2.69-14-6.07-20.56-10.06-5.13-3.13-9.78-6.91-14.69-10.37-.51-.36-1.02-.48-1.58-.53-.03-.94,.66-1.02,1.32-1.14,.38,.05,.48,.43,.74,.61v.03Z"/><path class="cls-14" d="M445.39,209.56c1.78-.97,3.58-1.93,5.36-2.92,1.14,3.28,1.98,6.66,2.44,10.09-.3,.66-.89,.56-1.47,.51-4.55-.41-9.12-.38-13.67-.25-.74,0-1.7,.15-1.98-.58-.38-.94,.61-1.4,1.25-1.83,2.62-1.78,5.28-3.51,8.08-5.01Z"/><path class="cls-14" d="M219.76,188.98c3.18,1.91,6.35,3.81,8.79,6.66-3.43,2.13-7.06,3.96-10.47,6.17-1.17,.74-2.03,2.19-3.74,1.91,1.02-5.21,3.43-9.88,5.41-14.71v-.03Z"/><path class="cls-27" d="M429.56,154.8c-.81-.03-1.63-.08-2.77-.13,2.06-1.14,3.89-2.11,5.16-3.81,3.4-4.6,2.85-10.62-1.37-14.61-.64-.61-1.37-1.14-2.06-1.7-.1-.48,0-.74,.56-.58,4.4,.18,7.8,3.15,8.94,7.72,1.12,4.55-.84,9.32-4.8,11.66-1.14,.69-2.39,1.09-3.66,1.42v.03Z"/><path class="cls-31" d="M289.86,126.55c1.78,3.51,2.67,7.32,3.84,11.05,.36,1.12-.13,1.6-1.27,.94-3.18-1.83-6.38-3.66-9.55-5.49-1.12-1.12-2.64-1.8-3.51-3.23-.1-.23-.1-.46-.03-.66,1.6-.84,3.18-1.68,4.95-2.11,1.09-.43,2.13-.08,3.02,.48,1.37,.86,2.01,.2,2.54-.97v-.03Z"/><path class="cls-19" d="M421.66,325.88c.25-.13,.48-.28,.74-.41,.43-.05,.66-.76,1.22-.41,.25,2.19-1.88,2.62-2.97,3.46-2.72,2.11-4.6,5.01-7.37,7.04-1.17,.86-1.37,.25-1.83-.38-1.58-2.19-3.23-4.27-5.23-6.07-2.06-1.83-3.56-4.34-6.71-4.83-.43-.08-1.88-1.5-1.68-3.3,.64-5.89-1.52-11.41-2.64-17.1-1.09-5.46-3.91-10.06-6.05-15.02,.48,.23,.94,.46,1.42,.69,5.03,9.88,8.13,20.28,8.41,31.41,0,.89,.28,1.52,1.12,2.01,4.6,2.69,8.49,6.2,11.64,10.49,.74,1.02,1.3,1.02,2.13,.2,2.67-2.54,5.56-4.88,7.85-7.83l-.05,.05Z"/><path class="cls-64" d="M252.23,335.51c-.48,.28-.97,.58-1.45,.86h-.23l-.23,.05c-.76,.56-1.73-.05-2.52,.46h-.89c0-.43,.18-.74,.56-.99,8.33-5.67,8.66-12.96,.91-19.21,.64-.66,1.42-.58,2.24-.43,2.39,.56,4.19,1.91,5.36,4.07,1.83,3.51,2.59,7.06,.3,10.67-.84,1.98-2.64,3.07-4.07,4.55v-.03Z"/><path class="cls-31" d="M355.47,119.71c-.48,.79-1.4,.25-2.16,.74,2.79,4.55,4.29,9.68,6.53,14.48,1.09,2.39,1.7,5.01,2.54,7.52,1.68,4.98,2.54,10.11,3.02,15.32,.15,1.55,.74,2.77,2.69,2.9,2.03,.13,3.94,.94,6,1.07,1.07,.05,2.08,1.19,3.13,1.85-.36,.3-.71,.28-1.09,.05-3.25-.84-6.4-2.01-9.73-2.49-1.12-.15-1.45-.79-1.58-1.83-1.63-13.39-5.69-26.02-12.15-37.88-.41-.74-.74-1.47-.76-2.31,1.27-.38,2.29,.86,3.56,.56v.03Z"/><path class="cls-14" d="M451.79,271.12c-.25-1.85-2.11-1.37-3.15-2.08-1.17-.79-3.43-.71-3.48-2.19-.05-1.4,2.11-1.7,3.35-2.34,1.65-.86,3.18-2.08,5.16-2.19-.28,3-.84,5.95-1.88,8.79Z"/><path class="cls-22" d="M281.35,321.69c-1.45-3.89-3.96-6.86-7.55-9.02-2.06-1.25-2.77-3.38-3.63-5.59-.76-1.91-4.07-1.85-4.98-4.24-.25-.69-.61-1.32-.94-2.01-.08-3.81-2.52-4.93-5.82-5.21-1.42-.13-2.79-.71-4.22-1.02-.89-.2-1.58-.76-.38-1.6h0c.28-.56,.66-.97,1.37-.66,.23,.53-.66,1.45,.71,1.65,2.21,.33,4.4,1.07,6.61,1.35,1.63,.2,2.13,.99,2.21,2.46,.15,3.38,1.3,6.23,4.65,7.67,.97,.41,1.47,1.02,1.75,2.13,.61,2.39,2.29,4.07,4.34,5.39,2.44,1.58,4.55,3.46,5.54,6.33,.28,.81,.46,1.55,.3,2.39l.03-.03Z"/><path class="cls-14" d="M445.39,209.56c-3.07,2.11-6.15,4.22-9.22,6.35,.03,.28,.08,.56,.1,.84h16.92c2.52,.2,5.06,.41,7.57,.61-8.26,.03-16.52,.05-24.8,.08-.64,0-1.47,.13-1.65-.69-.13-.64,.56-.91,1.02-1.25,3.18-2.26,6.23-4.73,10.04-5.95h.03Z"/><path class="cls-60" d="M429.07,133.99c-.18,.2-.38,.38-.56,.58-.46-.15-.91-.38-1.4-.46-2.57-.36-4.8-1.12-6.28-3.56-.89-1.47-2.69-2.08-4.14-2.97,.38-1.35,1.3-.66,2.06-.53,2.95,.51,5.36,2.08,7.04,4.45,.89,1.27,1.91,2.03,3.3,2.49h-.03Z"/><path class="cls-10" d="M443.91,188.75c-1.02-2.57-2.08-5.13-3.86-7.29-.3-.38-.84-.86-.58-1.52,2.03,.56,2.31,2.57,2.82,4.04,1.25,3.58,3.38,4.6,7.17,4.47,9.93-.33,19.89-.1,29.83-.08,.86,0,1.83-.33,2.54,.51-7.5-.05-15.02-.13-22.51-.15-1.22,0-2.44,.1-3.66,.15-3.91,.3-7.83,.48-11.74-.1v-.03Z"/><path class="cls-2" d="M399.96,137.47c1.58,2.06,1.4,2.74-.94,3.51-1.14,.38-2.29,.81-3.07,1.8-.33,.56-.56,1.25-1.4,1.22,.33-1.47,.58-2.87,2.64-3.1,.86-.08,2.26-.71,2.29-1.8,.03-.97-1.07-1.42-1.96-2.03-3.63-2.57-7.72-4.27-11.54-6.48-.38-.23-.58-.76-.86-1.14,2.82,.69,5.01,2.69,7.7,3.63,.94,.38,1.85,.76,2.59,1.5h-.03c.84,.48,1.85,.71,2.49,1.52,.69,.46,1.4,.91,2.08,1.37Z"/><path class="cls-68" d="M430.04,268.71c3.23,.71,6.07,2.46,9.17,3.46,3.81,1.25,7.62,2.54,11.41,3.84,.36,.2,.74,.43,1.09,.64-3.43,.05-6.45-1.58-9.58-2.57-3.76-1.17-7.34-2.95-10.98-4.5-.43-.18-.76-.58-1.12-.86Z"/><path class="cls-22" d="M302.64,330c.38,0,.76,.05,1.14,.08,.03,.51-.33,.69-.71,.81-1.07,.56-2.16,1.14-3.23,1.7-4.78,2.57-10.21,1.78-14.18-2.03,1.7,.13,2.97,1.25,4.45,1.88,3.48,1.5,6.66,1.3,9.73-.89,.86-.61,1.85-1.04,2.79-1.55Z"/><path class="cls-31" d="M289.86,126.55c.08,.71,.15,1.42,.25,2.24-2.19,.2-3.81-1.42-5.82-1.75,1.45-1.14,3.48-1.09,4.83-2.44,.25,.66,.48,1.3,.74,1.96Z"/><path class="cls-70" d="M214.35,203.71c4.4-2.49,8.44-5.56,13.09-7.62,.38-.15,.74-.3,1.12-.46-.1,.64-.53,1.07-1.04,1.3-4.83,2.06-8.94,5.28-13.39,7.98-.2,.13-.46,.13-.69,.18,.3-.46,.61-.91,.91-1.37Z"/><path class="cls-14" d="M259.85,287.13c-1.09-1.8,.89-2.64,1.52-3.38,3.28-3.76,3.02-7.24-.05-10.85-.13-.15-.1-.46-.13-.71,3.56,2.97,4.27,6.25,2.03,10.16-.97,1.68-1.83,3.48-3.38,4.78Z"/><path class="cls-18" d="M432.91,301.74c1.52-1.3,3.35-2.16,5.28-2.21,2.31-.05,3.61-.99,4.29-3.1,.18-.51,.58-.94,.86-1.42v.91c-.1,3.25-2.44,4.52-5.03,4.62-2.11,.08-3.53,1.37-5.39,1.8-.28-.18-.3-.38-.05-.61h.03Z"/><path class="cls-56" d="M238,96.46c2.72,1.65,5.56,3.1,7.93,5.28,.25,.2,.25,.38-.03,.53-2.79-1.78-5.59-3.58-8.38-5.36-.1-.43-.05-.69,.48-.46Z"/><path class="cls-23" d="M228.73,309.08c-.1,.97-.74,1.19-1.58,1.17,.56-.58,.99-.99,.36-2.01-1.32-2.13-3.13-4.04-3.76-6.56,2.06,1.14,2.21,3.68,3.84,5.13,.38,.76,1.55,1.12,1.17,2.29l-.03-.03Z"/><path class="cls-22" d="M285.29,330.17c-2.54-2.29-3.1-5.49-3.99-8.54,.91,.43,1.27,1.37,1.4,2.16,.38,2.36,2.06,4.12,2.59,6.38Z"/><path class="cls-14" d="M255.2,292.34c-.46,.23-.91,.46-1.37,.69,1.5-2.49,3.66-4.29,6.02-5.89-1.04,2.19-3.18,3.4-4.62,5.21h-.03Z"/><path class="cls-41" d="M457.61,280.58c2.39-.84,5.01,.41,7.34-.86,.86-.3,1.52,.05,2.69,.94-3.76,.03-6.89,.28-10.04-.08Z"/><path class="cls-11" d="M223.7,90.06c-1.83-.64-3.66-1.3-5.51-1.93,2.08,.23,4.27,0,6.02,1.42-.05,.3-.33,.33-.51,.51Z"/><path class="cls-54" d="M228.65,91.51c2.11,.74,4.09,1.73,5.95,2.97-.03,.3-.3,.36-.51,.48l-5.89-2.97c-.13-.43-.03-.66,.48-.48h-.03Z"/><path class="cls-39" d="M228.65,91.51c-.15,.15-.33,.33-.48,.48-1.5-.64-3-1.27-4.47-1.93,.18-.18,.33-.33,.51-.51,1.58,.46,3.18,.86,4.45,1.96Z"/><path class="cls-20" d="M436.95,175.38c-1.07-1.6-2.11-3.2-3.18-4.78,1.93,1.02,2.82,2.72,3.18,4.78Z"/><path class="cls-63" d="M273.55,124.57c-1.98-.41-2.9-2.08-3.96-3.58,1.5,.99,3.18,1.78,3.91,3.63l.05-.05Z"/><path class="cls-21" d="M214.85,280.98c.94,1.73,1.58,3.58,2.03,5.51-1.5-1.52-1.83-3.51-2.03-5.51Z"/><path class="cls-24" d="M423.61,325.07c-.41,.13-.81,.28-1.22,.41,1.22-1.35,2.41-2.67,3.63-4.01,.08,1.78-1.85,2.21-2.41,3.58v.03Z"/><path class="cls-59" d="M279.34,129.17c.08,.13,.1,.28,.1,.41-.25,.28-.58,.36-.94,.33-.23-.08-.41-.2-.53-.41-.94-.76-1.88-1.5-2.79-2.26,2.21-.53,2.64,1.58,4.19,1.93h-.03Z"/><path class="cls-29" d="M277.97,129.5c.15,.03,.33,.08,.48,.1,1.55,1.07,1.6,1.32,.46,2.01-.79-.15-1.52-.43-2.03-1.09,.36-.33,.71-.66,1.09-.99v-.03Z"/><path class="cls-26" d="M255.84,109.12c.71,.51,1.45,1.02,2.16,1.52,.28,.18,.51,.41,.38,.99-1.22-.25-1.96-1.04-2.59-2.03-.15-.13-.18-.23-.13-.36,.05-.1,.1-.15,.15-.15l.03,.03Z"/><path class="cls-30" d="M234.06,94.94c.18-.15,.36-.3,.51-.48,1.14,.66,2.29,1.32,3.43,2.01-.15,.15-.33,.3-.48,.46-1.14-.66-2.31-1.32-3.46-1.98Z"/><path class="cls-66" d="M264.38,116.54c-1.17-.28-1.96-.99-2.79-2.21,1.6,.23,2.29,1.12,2.79,2.21Z"/><path class="cls-37" d="M418.73,127.06c-.69,.15-1.52-.23-2.06,.53-.66-.2-1.32-.41-2.67-.81,1.4-.13,2.06-.2,2.74-.28,.69,.13,1.42,0,1.98,.56Z"/><path class="cls-40" d="M245.9,102.28c0-.18,0-.36,.03-.53,.94,.36,1.75,.91,2.44,1.63-.05,.3-.33,.36-.51,.48-.74-.41-1.52-.79-1.96-1.58Z"/><path class="cls-21" d="M216.86,286.47c.76,1.07,1.27,2.24,1.4,3.53-.89-1.02-1.63-2.08-1.4-3.53Z"/><path class="cls-10" d="M439.39,179.47c-.33-.33-.64-.69-.97-1.02-.36-.58-.89-1.12-.69-1.91,1.42,.48,1.65,1.63,1.65,2.92Z"/><path class="cls-65" d="M254.19,108.53c-.79-.58-1.58-1.17-2.36-1.73-.08-.43,0-.71,.51-.46,.74,.43,1.52,.79,1.91,1.65,.15,.13,.18,.25,.1,.38-.05,.1-.13,.15-.18,.15h.03Z"/><path class="cls-52" d="M460.63,290.48c-1.35-.08-2.72,.28-4.01-.41,1.35,0,2.74-.48,4.01,.41Z"/><path class="cls-72" d="M267.68,119.28c-1.04-.15-1.73-.71-2.36-1.85,1.45,.1,1.83,1.09,2.36,1.85Z"/><path class="cls-34" d="M252.33,106.35c-.18,.15-.33,.3-.51,.46-.66-.48-1.32-.99-1.98-1.47-.08-.43,0-.71,.53-.46,.66,.51,1.3,.99,1.96,1.5v-.03Z"/><path class="cls-7" d="M437.74,176.55c.23,.64,.46,1.27,.69,1.91-1.12-.64-1.47-1.68-1.52-2.9,.66,0,.36,.84,.84,.99Z"/><path class="cls-31" d="M211.27,250.44c-.41,1.14-1.45,1.3-2.39,1.63-.15,.03-.28,0-.38-.15,.13-.15,.23-.33,.36-.48,.71-.58,1.3-1.42,2.41-.99Z"/><path class="cls-35" d="M250.38,104.85c-.18,.15-.36,.3-.53,.46-.66-.48-1.32-.97-1.98-1.45,.18-.15,.36-.33,.51-.48,.66,.48,1.32,.99,1.98,1.47h.03Z"/><path class="cls-67" d="M487.77,190.27v-.94c.61-.23,1.22-.2,1.8,.15-.41,.74-1.07,.86-1.8,.79Z"/><path class="cls-24" d="M426.38,321.03c.53-.66,1.07-1.32,1.6-1.98,.18,.2,.36,.38,.53,.58-.84,.28-1.17,1.32-2.13,1.4Z"/><path class="cls-16" d="M222.2,298.39c.89,.58,1.3,1.47,1.45,2.49-.97-.56-1.3-1.47-1.45-2.49Z"/><path class="cls-15" d="M395.41,134.6c-1.02-.23-1.83-.79-2.59-1.5,1.14,0,2.13,.3,2.59,1.5Z"/><path class="cls-33" d="M265.62,268.43c-.18-1.07-.2-1.75,.81-2.21,.43,.97-.2,1.42-.81,2.21Z"/><path class="cls-15" d="M397.87,136.13c-.94-.33-1.85-.74-2.49-1.55,1.12,.03,2.08,.36,2.49,1.55Z"/><path class="cls-20" d="M432.91,169.24c-.69-.56-1.22-1.25-1.5-2.11,.99,.36,1.63,.97,1.5,2.11Z"/><path class="cls-21" d="M218.72,291.09c.81,.56,.97,1.42,1.12,2.29-.97-.48-1.09-1.35-1.12-2.29Z"/><path class="cls-32" d="M273.5,124.64c.43,.28,1.22,.1,1.27,.89,0,.1-.2,.28-.3,.28-.81,0-.69-.76-.91-1.22,0,0-.05,.05-.05,.05Z"/><path class="cls-25" d="M254.19,108.53c0-.18,.05-.36,.05-.53,.74,.08,1.19,.58,1.6,1.14,0,.18,0,.33-.03,.51-.79,0-1.17-.61-1.63-1.09v-.03Z"/><path class="cls-61" d="M260.77,113.84c-.81-.58-1.58-.74-1.63-2.06,.84,.53,1.58,.71,1.63,2.06Z"/><path class="cls-71" d="M267.65,264.85c-.23,.61-.64,1.47-1.25,.89-.56-.56,.28-1.37,.66-2.01,.43,.25,.53,.69,.58,1.12Z"/><path class="cls-69" d="M267.65,264.85c-.51-.2-.53-.69-.58-1.12,0-.41,.08-.79,.48-.99,.15,.43,.13,.97,.66,1.17-.18,.3-.36,.64-.53,.94h-.03Z"/><path class="cls-52" d="M247.81,336.86c.76-.61,1.65-.41,2.52-.46-.71,.79-1.65,.48-2.52,.46Z"/><path class="cls-73" d="M141.73,174.49c.18,.53,.71,.38,1.04,.58-.51,.48-1.17,.76-1.7,.23-.23-.25,.18-.71,.66-.79v-.03Z"/><path class="cls-21" d="M219.81,293.36c.64,.53,.89,1.25,1.02,2.03-.84-.43-1.09-1.14-1.02-2.03Z"/><path class="cls-57" d="M443.91,188.75c3.91,.03,7.83,.05,11.74,.1-.28,.15-.58,.43-.84,.43-6.81-.61-13.49,1.04-20.28,1.12-7.14,.1-14.31,.66-21.39,1.8-2.08,.33-4.24-.13-6.33,.53-.79,.23-1.55-.41-1.8-1.04-1.14-2.87-3.25-5.23-4.19-8.21,.13-.05,.25-.1,.38-.15,1.8,1.63,2.87,3.79,3.74,5.95,.91,2.31,2.54,2.67,4.47,2.21,3.94-.91,7.98-.81,11.94-1.37,.74-.1,1.47-.03,2.21-.05,1.35-.1,2.69,.23,4.01-.2,5.46-.15,10.9-.48,16.31-1.09l.03-.03Z"/><path class="cls-58" d="M211.27,250.44c-.81,.33-1.6,.66-2.41,.99,1.68-2.64,4.75-3.3,7.14-4.95,5.16-3.58,11.15-5.54,16.67-8.46,3.33-1.75,7.09-2.69,10.67-4.01,1.04-.38,2.01,.1,2.29,.89,.46,1.27,.84,2.74-.69,3.76-.43-.38-.36-.89-.28-1.37,.23-1.58-.69-1.8-1.93-1.58-7.22,1.96-13.8,5.41-20.43,8.72-.81,.41-1.63,.74-2.41,1.19-2.16,.89-4.12,2.16-6.1,3.35h0c-.71,.69-1.63,1.04-2.49,1.47h-.03Z"/><path class="cls-31" d="M243.47,244.16c-.08-1.47-.71-1.8-2.01-1.07-2.44,1.37-4.9,2.69-7.37,4.01-.2-2.01,2.06-2.41,2.54-3.96,1.68-1.98,3.53-3.79,5.36-5.62,.51-.51,1.04-1.04,1.75-1.27,.99-.33,1.75-.18,1.17,1.07-.36,.76,0,1.63-.46,2.34-.36,1.5-.28,3.07-.97,4.5h-.03Z"/><path d="M244.43,239.67c.05-1.04,.13-2.08,.2-3.4-3.07,2.08-5.31,4.78-7.65,7.32-.56,.33-.97,.38-.94-.46,.66-.81,1.32-1.65,1.96-2.46,1.55-1.91,3.25-3.66,4.93-5.44,2.62-.3,2.82,.05,2.01,3.46-.18,.33-.33,.66-.51,.99Z"/><path class="cls-31" d="M387.07,168.57c3.2,2.03,6.28,4.22,8.33,7.52-.94,.08-1.3-.74-1.88-1.19-1.7-2.44-4.55-3.56-6.5-5.69-.25-.23-.23-.43,.05-.61v-.03Z"/><path class="cls-31" d="M387.07,168.57c0,.2-.03,.41-.05,.61-3.63-1.83-7.27-3.68-10.9-5.51,.36,0,.71-.03,1.09-.05,3.48,1.27,6.78,2.9,9.86,4.95Z"/><path class="cls-57" d="M393.53,174.88c.64,.41,1.25,.81,1.88,1.19,.15,.15,.28,.3,.43,.46,2.01,1.73,3.56,3.84,5.18,5.87,.23,.28,.13,.61,0,.89l-.15,.13c-2.62-2.69-5.11-5.49-7.29-8.56l-.05,.03Z"/><path class="cls-74" d="M278.91,131.6c1.14-.97-.41-1.32-.46-2.01h.99c1.35,.97,2.57,2.06,3.4,3.48-1.19-.86-2.87-.38-3.96-1.47h.03Z"/><path class="cls-14" d="M316.97,332.94c-4.65,1.83-8.92,1.12-12.83-1.98,2.06-2.36,5.03-3.33,7.57-4.88,3.15-1.93,3.3-1.85,4.29,1.7,.46,1.68,1.5,3.28,.97,5.16Z"/><path class="cls-14" d="M316.97,332.94c-.56-2.11-1.19-4.22-1.68-6.35-.36-1.5-1.02-1.52-2.21-.81-2.95,1.78-5.95,3.46-8.92,5.18-.36-.03-.71-.05-1.07-.1,.25-.28,.48-.56,.74-.81,3.18-1.88,6.4-3.68,9.53-5.64,1.37-.86,1.96-.64,2.41,.89,.69,2.36,1.65,4.65,1.78,7.14-.18,.18-.36,.33-.56,.51h-.03Z"/><path class="cls-14" d="M232.01,308.19c4.52-1.5,8.28,.1,11.89,2.74,1.5,1.09,2.31,2.87,3.96,3.76,.18,.23,.15,.46-.05,.66-1.17,.58-1.78-.28-2.41-.97-.61-.66-1.25-1.27-1.88-1.88-3.1-2.79-6.81-3.89-10.9-3.99-.25,0-.46-.1-.61-.33h0Z"/><path class="cls-14" d="M253.83,293c-.74,.97-.15,1.19,.71,1.4,1.83,.41,3.66,.84,5.49,1.27,2.68,.63,4.08,2.35,4.22,5.16-.71-3.81-3.58-4.6-6.83-5.13-1.78-.28-3.63-.61-5.28-1.5,.3-.86,.86-1.22,1.7-1.19Z"/><path class="cls-43" d="M255.76,330.99c2.64-3.63,1.35-7.24-.05-10.82,.13-.2,.28-.2,.41,0,2.79,4.5,2.67,8.38-.36,12.32-.33-.48-.33-.99,0-1.47v-.03Z"/><path class="cls-14" d="M247.84,315.26v-.56c2.13,0,3.99,1.09,6.02,1.47,1.27,.25,2.03,1.52,1.85,3.05-1.83-.71-3.05-2.57-5.13-2.82-.81-.61-2.34,.48-2.74-1.14Z"/><path d="M226.14,258.9l-3.74,8.44c.3-3.25,1.65-6.15,3.23-8.94,.3,.03,.38,.3,.51,.51Z"/><path d="M236.02,243.12c.2,.38,.56,.46,.94,.46-.97,1.17-1.93,2.34-2.9,3.51-.33,.33-.69,.64-1.02,.97-.48,.13-.66-.05-.56-.53,1.17-1.47,2.34-2.92,3.51-4.4h.03Z"/><path d="M226.14,258.9c-.18-.18-.36-.33-.51-.51,1.04-1.63,1.42-3.63,2.95-4.98,.3,.03,.36,.33,.48,.53-.97,1.65-1.96,3.3-2.92,4.95Z"/><path class="cls-48" d="M250.81,316.2c2.16,.18,3.4,1.83,4.93,3.02,.13,.3,.25,.61,.41,.91h-.41c-1.5-1.35-2.97-2.72-4.88-3.48-.18-.1-.23-.2-.18-.3s.1-.15,.15-.15h-.03Z"/><path d="M229.06,253.95c-.15-.18-.33-.36-.48-.53,.36-1.32,1.35-2.26,2.01-3.4,.33-.33,.64-.69,.97-1.02,.23,.1,.38,.25,.48,.48-.99,1.47-1.98,2.97-2.95,4.45l-.03,.03Z"/><path class="cls-31" d="M217.27,257.94c.05-.15,.18-.28,.18-.43,.07-1.42,.84-1.94,2.31-1.55-.64,.89-1.27,1.8-2.49,1.98Z"/><path class="cls-38" d="M255.76,330.99v1.47c-.64,1.42-2.39,1.88-2.92,3.4-.2-.13-.41-.23-.61-.33,.56-2.01,3.1-2.44,3.53-4.52v-.03Z"/><path class="cls-14" d="M228.73,309.08c-.38-.76-.76-1.52-1.17-2.29,1.22,1.3,2.77,1.52,4.45,1.37l.1,.13c0,.1,0,.2,.03,.3-1.17,.05-2.21,.86-3.43,.46l.03,.03Z"/><path d="M232.01,249.5c-.15-.15-.3-.33-.48-.48,.03-.69,.36-1.19,.99-1.5,.18,.18,.36,.36,.56,.53-.36,.48-.71,.97-1.07,1.42v.03Z"/><path class="cls-6" d="M394.54,144.03c.46-.41,.91-.81,1.4-1.22,.05,1.07-.66,1.83-1.04,2.72-1.68,4.07,1.3,8.69,5.67,8.72,6.15,.05,12.32,0,18.47,0,1.12,0,2.41-.25,2.62,1.45-.84-.64-1.83-.61-2.82-.61-5.51,0-11.03-.25-16.52,.08-5.69,.33-10.87-4.6-7.78-11.13Z"/><path class="cls-31" d="M401,183.29c-1.22-2.64-3.66-4.34-5.16-6.78,2.9,1.22,4.12,4.07,5.92,6.28,1.58,1.96,2.77,4.27,3.81,6.58,.81,1.85,2.08,2.19,3.74,1.78,4.4-1.07,8.89-1.09,13.36-1.42,.3,.03,.61,.05,.94,.08,.18,.1,.23,.2,.18,.3-.05,.1-.1,.15-.15,.15-5.13,.51-10.24,.97-15.35,1.52-1.73,.2-2.72-.36-3.4-1.98-.99-2.31-2.21-4.55-3.84-6.53l-.05,.03Z"/><path class="cls-31" d="M423.59,190.3v-.46h4.01c-1.27,.64-2.67,.38-3.99,.46h-.03Z"/><path class="cls-3" d="M432.91,301.74c0,.2,.05,.41,.05,.61-2.39,1.37-3.3,3.99-5.06,5.89,.74-2.9,2.49-4.98,5.01-6.5Z"/><path class="cls-31" d="M411.75,288.53c-.2,.15-.38,.41-.58,.41-2.29,.2-2.85,1.22-1.58,3.2,.33,.53,.46,1.19,.69,1.8-1.6-.66-1.55-2.77-3.1-3.58-.51-.25,.15-.71,.61-.94,1.27-.58,2.54-1.12,3.96-.91v.03Z"/><path class="cls-62" d="M250.81,316.2v.46h-2.41c-4.78-.51-7.78-3.89-11.03-6.86,1.02-.97,1.98-.23,2.87,.18,1.3,.64,2.46,1.5,3.76,2.19,1.6,.64,1.8,2.97,3.84,3.07,.99,.3,1.98,.64,2.95,.94l.03,.03Z"/><path class="cls-36" d="M244.02,312.18c-1.5,.05-2.41-1.17-3.63-1.75-.97-.46-1.91-.84-3-.64-1.75-.36-3.4-1.25-5.26-1.17-.08-.1-.08-.2-.03-.3,4.45-.2,8.64,.43,11.92,3.86Z"/><path class="cls-31" d="M242.91,235.22c-.99,2.39-3.18,3.74-4.93,5.44,.1-1.75,2.08-2.21,2.72-3.96-7.44,2.44-14.13,6.12-20.99,9.35-.28-.18-.28-.36-.03-.56,7.39-4.19,15.09-7.78,23.22-10.32v.05Z"/><path class="cls-31" d="M219.68,245.51c0,.18,0,.36,.03,.56-2.13,.69-3.68,2.54-5.97,2.92,1.68-1.65,3.76-2.67,5.95-3.48Z"/><path class="cls-31" d="M211.3,250.47c.61-.86,1.45-1.32,2.49-1.47-.46,1.09-1.25,1.68-2.49,1.47Z"/></g></svg>