<?xml version="1.0" encoding="UTF-8"?><svg id="Capa_1" xmlns="http://www.w3.org/2000/svg" viewBox="0 0 83.17 77.02"><defs><style>.cls-1{fill:#f8af00;}.cls-2{fill:#682467;}.cls-3{fill:#f6bcc2;}.cls-4{fill:#fff;}.cls-5{fill:#fff5f2;}.cls-6{fill:#fff7bc;}.cls-7{fill:#ffdc00;}.cls-8{fill:#e67aad;}.cls-9{fill:#b16fab;}.cls-10{fill:#d1418f;}.cls-11{fill:#df8081;}.cls-12{fill:#d4d2cb;}.cls-13{fill:#1d1d1b;}.cls-14{fill:#343f55;}.cls-15{fill:none;stroke:#009ee2;stroke-width:.29px;}</style></defs><path class="cls-2" d="M30.71,21.88l.14,.21c.65,.97,.77,2.03,.99,3.95l.11,.97c.3,2.49,1.5,5.46,3.2,6.3,.85,.42,1.77,.68,2.75,.97,.85,.25,1.73,.5,2.64,.87,.83,.34,2.24,.88,2.42,.7l.05-.05v-.07c-.04-.23-.26-.38-.52-.57-.1-.07-.21-.15-.31-.24,.22,.09,.48,.23,.72,.36,.4,.22,.75,.41,.97,.41h.39l-.31-.25c-2.51-1.99-4.79-3.28-6.01-3.97l-.66-.38c-.91-.55-2.42-2.23-2.43-2.25,0,0-.14,.12-.18,.16-.01-.1-.03-.2-.04-.31l-.2-1.4c-1.12-4.88-1.47-5.44-3.47-5.44h-.26Zm3.99,7.22c.09,.12,.35,.48,.48,.83,.03,.08,.09,.17,.15,.26-.08-.09-.14-.15-.19-.18l-.12-.06-.07,.11s-.04,.11-.04,.2c0,.12,.03,.28,.08,.46-.12-.37-.2-.89-.3-1.62Z"/><path class="cls-9" d="M35.16,31.07s.45,1.05,1.96,1.19c1.51,.14,3.53,2.1,3.61,2.37-.73-.27-2.94-1.11-4.15-1.48-1.21-.37-2.69-.37-3.31-3.23-.62-2.86-.86-6.95-2.18-7.38-.35-.73-.3-.54-.3-.54,.65,0,2.34-.35,2.8,1.72,.46,2.07,.76,5.17,1.4,6.2,.65,1.03,.16,1.16,.16,1.16Z"/><path class="cls-9" d="M45.16,35.23c-.19,.01-.42,.18-.61,.45-.26,.35-.8,1.39-.28,3.37,.04,.15,.12,.26,.24,.31,.29,.13,.7-.09,.74-.12l.04-.02v-.05c.02-.26,.12-.88,.32-1.2-.01,.09-.03,.19-.03,.19-.05,.3-.09,.58-.09,.82,0,.21,.04,.39,.14,.5,.08,.09,.2,.12,.34,.11,.34-.04,.52-.43,.75-.94,.25-.56,.57-1.25,1.2-1.68l.03-.02v-.04c.06-.25,.14-.85-.22-1.12-.31-.23-.84-.13-1.59,.28-.31-.71-.71-.86-.99-.84Z"/><path class="cls-9" d="M35.33,41.86l-.06,.19,.19-.07c1.53-.62,2.98-.69,4.23-.71,1.32-.02,1.76-.12,2.34-.53h.01s0-.02,0-.02c.61-.9,1.94-1.99,1.96-2l.03-.03v-.04s-.02-.72,.07-1.38l.02-.13-.08-.05v-.08c0-.12,.04-.27,.09-.45,.05-.17,.11-.37,.13-.57v-.09s-.08-.01-.08-.01c-3.94-.45-8.4,4.68-8.84,5.98Z"/><path class="cls-2" d="M40.78,41.35s-.47-.25-.85-.55c-.38-.3-2-.42-2.85,.83,2.07-.5,3.7-.27,3.7-.27Z"/><path class="cls-2" d="M44.03,37.96s.93,.58,1.3-.1c.37-.68,.37,.25,.8,.28,.42,.02,.88,.05,.88,.05-.15,.48-.7,1.66-1.12,1.48-.42-.18-.42-.35-.42-.35,0,0-1.5,.77-1.43-1.35Z"/><path class="cls-2" d="M44.08,37.08s-3.4,1.28-3.77,2.58c1.03-.28,1.15-.42,1.55-.42,.55-.18,2.18-1.35,2.18-1.35,0,0,0-.18,.05-.8Z"/><path class="cls-2" d="M63.44,30.59l-.06,.02v.06c-.04,1.14-2.53,2.93-4.72,3.77-2.04,.78-5.19,1.1-6.55,.98h-.04s-.03,.03-.03,.03c-.18,.19-1.56,.51-2.57,.74l-1.39,.33,.35,.1s.19,.09,.38,.2l1.25,.65,.52,.05,.16,.09s.44,.25,.89,.43c.22,.06,.72,.02,1.63-.04,.7-.05,1.67-.11,2.91-.16,2.31-.09,3.42-.87,4.4-1.55l.65-.43,.95-.6c.96-.61,2.04-1.29,2.74-1.59l.09-.04-.04-.09c-.6-1.25-.09-2.08-.07-2.11l.1-.15h-.18c-.37,.03-.53-.35-.64-.48-.19-.21-.47-.3-.71-.23Z"/><path class="cls-9" d="M59.39,35.15s-.31,.48-2.17,.85c-1.51,.44-2.22,1.03-2.22,1.03,1.48,0,4.55-.21,5.69-1.33,1.15-1.12,4.02-2.35,4.3-2.45-.28-.54-.41-1.54,.1-1.97-.51-.13-1.35,.33-1.66,.59-.31,.26-2.47,2.46-4.05,3.27Z"/><path class="cls-9" d="M63.27,30.92s.75,.39,.74,.66c.61-.15,.34-1-.56-1.03-.21,.1-.18,.43-.18,.43"/><path class="cls-9" d="M48.18,36.89h-.02c-.64,.23-1.07,1.29-1.07,1.29-.11,.19-.2,.34-.08,.69l.09,.27c.17,.52,.48,1.49,.84,2.3,.32,.71,1.04,1.16,1.88,1.68,.35,.22,.71,.44,1.07,.7,1.23,.88,2.88,2.87,2.89,2.89l.19,.23,.02-.29s.22-4.29-1.9-8.27v-.02s-.03-.02-.03-.02c-.91-.66-3.25-1.46-3.86-1.46h-.02Z"/><path class="cls-2" d="M47.8,37.91s3.42,.95,3.74,3.93c-1.49-.15-2.87-1.34-2.87-1.34-.29,.65-.36,1.13,1.02,1.78,1.38,.65,3.49,2.04,4.07,4.47-1.16-1.56-2.73-2.8-4-3.53-1.27-.73-2.29-1.38-2.87-4.58,.22-.69,.38-1.04,.91-.73Z"/><path class="cls-2" d="M25,27.94l-.2,.14c-.55,.39-2.24,1.59-5.3,4.07-1.37,1.11-2.57,1.95-3.85,2.85-2.06,1.44-4.4,3.08-7.94,6.23C2.37,46.14,.49,50.21,.22,51.84l-.04,.25,.22-.14c2.84-1.8,5.13-2.46,6.98-2.03,2.28,.53,3.55,2.62,4.78,4.63l.1,.16c3.03,5.28,5.84,6.52,6.58,6.54,.55,.02,1.49-.77,2.25-1.41,.33-.28,.62-.52,.77-.61l.18-.1-.18-.1c-.08-.04-.3-.32-.87-1.39l-.02-.04h-.04c-2.1-.73-4.07-3.28-4.45-4.65-.14-.5-.22-1.43-.22-2.48,0-1.91,.24-4.26,.75-5.35,1.91-2.28,5.3-3.4,6.75-3.87l.38-.13,.02-.05,.57-1.88c.46-1.59,.79-2.73,1.41-3.17l.1-.07-.08-.1c-.42-.5-1.09-1.35-1.16-1.58,.42-1.66,2.25-3.25,2.27-3.27l.06-.05-.03-.08c-.2-.51-1.75-2.48-2.14-2.91l-.07-.08-.09,.06Z"/><path class="cls-9" d="M20.12,31.59s2.4,.69,2.43,1.27c-.25,.73-9.33,8.32-12.16,19.17-.87-1.02-3.09-4.32-10.2,.04,.04-2.18,3.41-7.95,9.51-12.75,6.1-4.79,10.42-7.73,10.42-7.73Z"/><path class="cls-7" d="M17.49,65.6c0,.25,.04,.45,.08,.62-.03-.07-.06-.14-.08-.22l-.04-.17-.25,.18c-.44,.32-1.35,.98-2.31,2.82-.53,1.03-.71,1.75-.54,2.19,.11,.29,.35,.42,.55,.49,.52,.19,2.07,.45,4.22,.05,2.81-.73,4.38-1.56,4.67-2.49,.03-.11,.05-.21,.05-.3,0-.21-.07-.38-.14-.49,.45-.21,1.39-.97,2.99-2.42,.56-.51,.72-.93,.72-1.24,0-.11-.02-.2-.05-.28-.07-.21-.24-.41-.33-.42-.24-.03-.61,.29-.68,.35l-.22,.19h.29s.16,.02,.27,.17c-.19,.19-1.3,.22-3.24,.21-1.56-.12-2.62-.56-3.15-1.31-.65-.92-.33-2.11-.2-2.62l-.2-.1c-1.96,2.3-2.44,3.84-2.44,4.79Z"/><path class="cls-1" d="M26.41,64.6s.17,.88-.59,2.19c1.32-1.3,2.26-2.26,1.17-3.01-.94,.25-.58,.81-.58,.81Z"/><path class="cls-1" d="M21.48,64.24s-1.71,1.9-1.48,2.78c.23,.88,1.86,1.53,1.86,1.53-2.09-.56-3.43-1.23-3.97-1.9-.96,.4-2.55,1.73-2.74,1.76,.31-.94,2.05-2.49,2.38-2.59-.13-.84,.48-3.18,2.72-5.22-.17,1.73,1.23,3.66,1.23,3.66Z"/><path class="cls-6" d="M20.46,69.29s-2.27,.77-2.67,.77c.71-1.15,1.63-1.5,1.63-1.5l1.04,.81"/><path class="cls-6" d="M25.86,65.26s-1.44,1.65-1.56,1.71c-.83,.1-1.52,.04-1.52,.04l.73-1.65,2.35-.1Z"/><path class="cls-1" d="M57.03,68.97c-.23,.03-.45,.15-.58,.32-.18,.24-.5,.29-.74,.33h-.06c-.34,.07-.87,1.31-.87,1.88,0,.01,0,.02,0,.03,0,.23,.33,.47,.81,.68-.3,.01-1,.63-1.39,1.15-.22,.29-.32,.52-.32,.7,0,.04,0,.07,.01,.1,.17,.59,2.44,1.41,4.45,1.84,1.54,.33,7.43,1.37,8.18,.51,.08-.09,.15-.24,.06-.5-.4-1.1-3.49-3.2-4.24-3.33,0,0-.03-.24,.36-.98,.49-.74,.73-1.31,.73-1.68,0-.09-.01-.16-.04-.23-.07-.18-.2-.22-.22-.22l-.13-.03v.13c-.07,.49-.45,.5-1.79,.45h-.16c-1.46-.05-2.79-.58-3.23-.92-.33-.26-.64-.28-.84-.25Z"/><path class="cls-7" d="M60.02,70.01s-1.12,1.56-.84,2.27c.28,.72,2.27,.51,2.61,.51-1.28,.49-4.29,.36-3.76,3.07,3.65,1,8.05,1.56,8.61,.66,.36-.82-1.79-2.89-4.14-3.86-.1-.56,.33-1.05,.72-1.69,.38-.64,.31-1.3-.23-1.51-.56,.59-1.35,.77-2.96,.54Z"/><path class="cls-4" d="M66.73,49.44c-.28,.62-1.06,1.33-1.2,1.35h.04s-.09,.17-.09,.17c.02,.01,2.39,1.19,2.62,2.6,.24,1.5,0,7.64-.44,8.81-.44,1.18-2.11,3.4-2.25,3.51l.08,.16c2.17-.96,4.52-3.34,4.8-4.01,.3-.72-.06-9.82-.59-10.81-.55-1.02-2.05-1.54-2.85-1.82l-.08-.03-.03,.08Z"/><path class="cls-6" d="M62.85,70.52s-.81,2.16-2.14,1.54c.46-1.33,.54-1.44,.54-1.44l1.6-.1Z"/><path class="cls-4" d="M24.14,41.27h-.07s-4.29,.97-6.73,3.66h0s-.01,.03-.01,.03h0c-.62,1.17-1.65,4.78-.65,7.93,.63,2.01,1.96,3.53,3.94,4.53l.35,.18s.69,1.77,2.94,2.26l.21,.43s2.85,3.83,7.12,4.21c0,0,.15,.01,.18,.02,.25,1.06,.67,1.94,1.36,2.13,.4,.17,10.05,4.31,12.61,2.25l.16-.13s.6,.3,1.06,.27c.33-.02,.67-.16,.88-.48,0,0,.08-.11,.09-.13,.88,.76,1.72,1.29,2.31,1.24,.91-.08,1.81-.91,1.81-.91l.41,.14c.69,.2,3.55,.89,4.07,.59,.14-.08,.69-.53,.69-.53h.24c1.13,.08,2.29,.02,2.42,.01h.08s.05-.06,.05-.06c.03-.03,.28-.32,.59-.73,.07,0,.48-.04,.48-.04,.65-.05,1.13-.04,1.52-.03,.42,.01,.73,.02,.97-.07,.47-.18,3.52-3.62,4.3-5.44,.76-1.78,.75-8.29,.48-9.38-.31-1.22-2.88-2.3-2.88-2.3-.49,.17-1.11,.41-1.82,.68-.02,0-.02,0-.02,0-1.77,.69-3.97,1.54-5.95,1.97l-2.76,.61c-1.06,.22-3.39,.93-3.9,1.18,0,0-1.39,.56-1.72,.71-.12,.05-4.28,1.46-6.77,1.24-2.14-.19-4.17-1.01-7.07-4.4,0,0-1.96-2.34-1.97-2.35,0,0-2.37-2.37-5.16-4.9l-.19-.18-1.85-1.69c-1.02-1.38-1.62-2.41-1.65-2.45l-.07-.11h-.06Z"/><path class="cls-12" d="M26.17,43.92s-4.55,.45-4.14,4.68c-.25,2.8-.32,5.19,.83,6.65,.73-1.37,1.91-2.8,1.91-2.8,0,1.43,.03,4.9,.6,5.48,.57,.57,4.33,2.07,4.52,2.07s1.56-1.02,1.56-1.02c0,1.21,1.27,4.04,2.48,4.93,1.21,.89,7.8,1.72,8.63,1.72-.32-.48-.89-1.3-.89-1.3,.86,.64,2.26,1.3,2.93,1.02-.8-.96-.99-1.43-.99-1.43,0,0,4.36,3.63,6.11,3.47,1.75-.16,4.52-2.29,6.02-2.32,.19,.86,.25,1.5,1.91,.86,1.66-.64,3.15-1.4,2.74-.16,.45,.25,1.18-.48,1.18-.48,0,0,.61-3.37,1.4-4.42,.92,.1,.76,3.09,1.34,3.31,.57,.22,3.53-2.26,3.63-2.64,.1-.38,.13-2.64,.13-2.64,0,0,.29,2.13,.41,3.72,1.11-.45,2.04-1.08,2.04-1.08,0,0,0,1.37-2.51,3.02-2.29,1.5-4.01,2.61-4.23,3.06-.22,.48-3.85,1.78-4.84,1.59-.99-.19-1.85-.7-2.74,.38-.86,0-3.88-.51-4.52-.83-.64,.6-1.97,1.94-3.98-.16-.45,.29-1.15,.7-2.07,.19-.57,.41-1.72,.76-3.41,.6-1.69-.16-6.94-1.72-7.67-1.97-.73-.25-2.48-.32-3.12-2.9-1.91-.29-3.41-.13-7.48-4.3-2.01-1.21-2.64-1.88-2.96-2.77-.8-.03-3.44-1.85-4.27-4.27-.83-2.42-.38-7,.73-8.37,1.11-1.37,5.16-3.44,7.13-3.6,.76,1.78,1.59,2.71,1.59,2.71Z"/><path class="cls-12" d="M26.96,44.72s-3.28,.64-3.06,2.48c.7-.8,2.86-1.75,4.11-1.56-.13-.45-1.05-.92-1.05-.92Z"/><path class="cls-12" d="M34.48,52.33s-1.78,1.85-2.13,3.95c.67-1.59,2.42-3.37,2.55-3.47,0-.25-.41-.48-.41-.48Z"/><path class="cls-12" d="M32.57,49.81s-1.81,.99-2.26,3.34c.92-1.37,2.36-2.48,2.67-2.61-.1-.32-.41-.73-.41-.73Z"/><path class="cls-12" d="M49.15,56.08s.22,3.09-.29,4.87c.1-1.59,.06-3.31-.54-4.62,.6-.19,.83-.25,.83-.25Z"/><path class="cls-12" d="M51.28,55.03s.29,2.74-.1,4.39c.1-1.4-.6-4.01-.6-4.01l.7-.38Z"/><path class="cls-12" d="M55.39,53.76s1.05,2.74,1.05,3.66c-.83-1.56-1.66-3.15-1.66-3.15l.61-.51Z"/><path class="cls-12" d="M58.1,53.15s1.69,3.4,1.35,4.88c-.37-1.19-1.77-3.64-2.56-4.47,.54-.29,1.21-.41,1.21-.41Z"/><path class="cls-12" d="M65.74,50.19s2.36,1.5,2.58,2.18c.23,.68-.14,1.72-.14,1.72-.09-.91-.45-2.13-3.13-3.26,.63-.32,.68-.63,.68-.63Z"/><path class="cls-7" d="M35.19,50.35l-.32,.47c-.52,.76-.65,.94-.09,1.72,2.29,2.67,4.38,4.14,6.58,4.65,2.8,.59,6.16-.68,7.77-1.29l.74-.27v-.05c.32-1.24-.33-3.87-.36-3.98l-.02-.06h-.06c-6.75-.64-12.33-3.15-12.38-3.18-.39-.2-1.52,1.47-1.86,1.98Z"/><path class="cls-6" d="M49.09,51.53s-1.81,.47-2.19,.71c0,1.01,.64,3.81,.45,3.96-.28,.14-.68,.09-.68,.09,0,0-.45-2.1-1.08-3.01,.07-.85-.19-1.04-.64-1.2-.45-.16-4.69-2.64-3.06-2.14,1.62,.49,7.21,1.6,7.21,1.6Z"/><path class="cls-13" d="M34.47,52s1.72-.52,1.98-.57c-.02,.38-1.74,.87-1.74,.87l-.24-.31Z"/><path class="cls-13" d="M34.68,51.18l1.81-.33c-.26,.31-1.74,.68-2.02,.64-.14-.14,.21-.31,.21-.31Z"/><path class="cls-13" d="M35.18,50.38s1.27-.02,1.37-.09c-.12,.47-1.3,.38-1.3,.38-.21-.05-.07-.28-.07-.28Z"/><path class="cls-13" d="M37.84,48.64s-.12,.75,.24,1.08c-.35,.07-.78-1.15-.61-1.2,.28,.14,.38,.12,.38,.12Z"/><path class="cls-13" d="M39.11,49.13s-.12,1.18-.28,1.18-.12-1.11-.12-1.11c0,0-.38,.05-.24,.85-.38,.02-.21-1.2-.21-1.2l.85,.28Z"/><path class="cls-13" d="M42.52,50.94s.17,.24,.47,.28c-.24,.12-.52,0-.52,0,0,0-.14,.17-.31,.12-.16-.05,.35-.4,.35-.4Z"/><path class="cls-13" d="M44.9,50.71s-.87,.68-1.06,.87c-.12-.33,.68-.85,.68-.85l.38-.02Z"/><path class="cls-13" d="M49.85,55.13c.02-.12-.56-.47-.87-.47,.14,.28,.78,.56,.78,.56l.09-.09Z"/><path class="cls-13" d="M49.82,55.68s-.57-.49-.82-.49c.14,.33,.49,.54,.49,.54l.33-.05Z"/><path class="cls-13" d="M49.42,55.84s-.71-.38-.94-.38c.21,.14,.54,.49,.54,.49l.4-.12Z"/><path class="cls-13" d="M45.63,50.97s-1.18,.45-1.41,.85c-.07-.31,1.08-.94,1.25-.94s.16,.09,.16,.09Z"/><path class="cls-13" d="M46.5,52.47s1.11-.54,2-.26c-.92,.19-1.2-.02-1.22,.38,.75,.12,1.18,.09,1.22,.4,.28,.12,.31,.52,.31,.52,0,0-.56-.28-1.08-.28,.38-.28,.54-.31,.54-.31,0,0-.75-.16-1.04-.16-.28-.14-.73-.28-.73-.28Z"/><path class="cls-3" d="M36.21,34.03l.03,.17c.22,1.28,.72,4.28-1.62,5.79-2.42,1.56-6.83-2.31-8.32-3.94l-.06-.07-.07,.07s-1.6,1.57-1.1,3.49c.46,1.42,4.62,4.98,7.93,6.79,3.36,1.84,5.21,2.48,8.36,3.31l1.68,.47c2.18,.63,3.9,1.12,8.19,1.29,4.67,.18,8.4-.27,11.38-1.36,2.38-.88,3.86-2.17,3.86-3.38s-.12-1.2-.18-1.21h-.03s-.03,0-.03,0c-.03,.01-3.31,1.23-6.27,1-2.84-.22-4.75-1.45-5.38-3.47-.39-1.24,.66-2.53,1.5-3.56,.44-.54,.82-1.01,.92-1.38l.04-.13h-.13c-1.7,.15-4.47,.36-4.68,.33l-.18-.03,.09,.16c.4,.73,1.36,2.71,1.75,5.18,.13,.85,.17,1.59,.17,2.17,0,.65-.05,1.12-.09,1.37-.09-.11-.19-.24-.19-.24-.64-.82-1.6-2.05-4.94-4.15h-.01s-.15-.12-.15-.12c-.73-.73-.79-.86-1.08-1.59l-.06-.15-.39-1c-.19-.51-.28-.75-.36-.84l-.09-.09-.11,.24c-.18,.4-.3,.64-.56,.55-.17-.05-.27-.13-.37-.2-.12-.09-.23-.17-.4-.16l-.19,.02c-.23,.04-.62,.1-.78-.04-.05-.05-.08-.11-.08-.21v-.18l-.14,.1c-.78,.55-2.14,1.74-2.36,2.19,0,0-.04,.07-.06,.12-.4,.03-.82,.07-1.26,.13,0,0-.78,.03-.78,.03-1.54,.05-2.33,.08-4.49,.48,.27-.9,2.29-3.21,3.81-4.32,1.6-1.17,2.93-1.63,2.94-1.63l.15-.05-.12-.1c-.44-.39-3.62-1.5-5.57-1.95l-.13-.03,.02,.13Z"/><path class="cls-11" d="M37.68,38.79l-1.62-.77s-.89,1.58-1.21,1.66c.93,.53,1.41,.69,1.41,.69l1.41-1.58Z"/><path class="cls-11" d="M36.14,34.51l5.21,1.78,.85-.36s-3.48-1.58-6.14-2.18c.12,.36,.08,.77,.08,.77Z"/><path class="cls-11" d="M64.02,46.11s1.17,.24,1.01,.97c-.16,.73-3.52,3.64-10.26,3.64s-12.57-1.13-16.08-2.67c-3.52-1.54-13.86-6.75-9.33-9.42-1.7-1.5-2.91-2.75-2.91-2.75,0,0-1.9,1.29-1.33,3.88,1.13,2.87,8.36,7.92,16.37,10.02,7.23,1.86,9.98,2.02,13.58,1.94,3.6-.08,12.97-1.74,11.4-6.43-1.13,.44-2.43,.81-2.43,.81Z"/><path class="cls-11" d="M53.59,42.11h.99s-.17,.97,.75,2.13c-1.16-.47-1.43-.49-1.43-.49l-.31-1.64Z"/><path class="cls-11" d="M52.46,38.92l4.01,.03s.58-.78,.58-1.03c-1.14-.07-5.03,.25-5.03,.25l.44,.75Z"/><path class="cls-11" d="M41.69,41.37s4.38-.33,5.72,.78c.62,.06,.97,.06,.97,.06,0,0-.76-.99-1.57-3.51-.25,.43-.41,.95-.72,.95s-.52-.16-.66-.52c-.39,.33-1.38,.37-1.32-.29-.81,.41-2.39,2.13-2.42,2.54Z"/><path class="cls-5" d="M35.26,41.72s-.29,.34-.74,.37c-.46,.03-2.09-.31-2.66-.46-.09-.37,2.98-.92,3.81-.46-.26,.31-.4,.63-.4,.63"/><path class="cls-7" d="M32.45,29.74c-3.34,1.56-4.27,1.55-4.9,1.55h-.33s-.02,.03-.02,.03c-.17,.18-.55,.61-.52,.8v.08h.09c4.05,.02,5.99-1.44,6.07-1.5l.02-.02v-.02s.05-.68-.32-.93l-.04-.03-.05,.02Z"/><path class="cls-7" d="M35.24,33.42c-.14,.01-.22,.12-.27,.19l-.03,.04,.02,.05s.89,2.4,.15,3.89c-.75,1.49-1.66,1.59-2.29,1.41-.04-.01-4.45-1.4-7-5.49l-.04-.07-.07,.03c-.4,.16-.56,.48-.47,.96h0s0,.02,0,.02c.26,.52,5.06,5.96,8.1,5.73,1.13-.09,2.04-.76,2.56-1.9,.7-1.52,.55-3.51-.35-4.73h0s0-.02,0-.02c-.1-.08-.2-.12-.29-.11Z"/><path class="cls-1" d="M31.63,30.1l.34,1.15s.97-.31,.97-.6-.29-.93-.59-.98c-.33,.18-.73,.44-.73,.44Z"/><path class="cls-1" d="M28.59,31.21s-.34,.83-.34,1.06c-.74-.03-1.57,.06-1.57,.06,0,0-.23-.54,.6-1.12,.77,.03,1.32,0,1.32,0Z"/><path class="cls-1" d="M26.76,34.59s-.63,.92-.66,1.03c-.66-.57-1-1.32-1-1.32,0,0,.2-1.06,.89-.89,.54,.52,.77,1.17,.77,1.17Z"/><path class="cls-1" d="M36.21,34.3l-1.26,.17-.09-.97s.14-.8,1.35,.8Z"/><path class="cls-7" d="M58.45,37.63s-.61,.09-.93,.18c-.4,.11-1.52,1.65-2.18,2.71l-.1,.16c-.71,1.12-.84,1.33-.33,2.65,.55,1.42,2.25,2.91,4.84,3.02,2.56,.11,6.25-.88,6.96-1.15,.26-.1,.45-.27,.55-.49,.11-.23,.11-.52,.02-.77l-.03-.09-.09,.04c-1.62,.67-5.75,1.72-8.38,1.23-1.25-.23-2.24-.94-2.72-1.93-.29-.61-.34-1.26-.13-1.66,.48-.9,2.59-3.73,2.62-3.76l.13-.18-.22,.03Z"/><path class="cls-1" d="M65.41,44.38s-.29,1.43-.06,1.32c1.43-.49,2.32-.57,1.92-1.97-.97,.6-1.86,.66-1.86,.66Z"/><path class="cls-1" d="M58.25,38.71c-.11,0-1.49-.17-1.49-.17,0,0,.46-.72,.94-.8,.49-.09,1.03-.2,1.03-.2l-.49,1.17Z"/><path class="cls-7" d="M62.59,35.41c-.14,.04-.85,.23-.9,.57-.04,.26,.03,2.06,1.31,4.28,1.25,2.15,3.38,2,3.41,2h.01s.01,0,.01,0c.38-.13,.41-.35,.39-.47-.04-.32-.48-.63-.79-.65h-.23c-.49,.03-1.22,.07-2.08-1.32-.99-1.61-1.11-3.62-1.02-4.29l.02-.14-.13,.03Z"/><path class="cls-1" d="M62.83,36.88s-.8,.74-1.12,.66c-.34-.29-.31-1.72,.06-1.89,.37-.17,.86-.43,.86-.43l.2,1.66Z"/><path class="cls-1" d="M65.09,40.95s-.48,1,.26,1.4c.74,.4,1.75-.11,1.52-.66-.23-.54-.92-.77-1.78-.74Z"/><path class="cls-14" d="M32.31,32.41c-.13,.05-1.86,.86-2.49,1.46l-.16,.15h.21c.52,.05,1.4,.52,2.1,.89l.51,.27,.05-.06s.52-.69,.98-1.02l.07-.05-1.22-1.65-.07,.03Z"/><path class="cls-14" d="M59.95,38.59s-.02,0-.04,.01c0,0,0,0,0,0,0,0,0,0,0,0-.07,.04-.23,.19-.74,.74-.21,.23-.69,.76-.75,.91l-.05,.12h.13c1.37,.12,2.68-.07,2.73-.08h.06s.01-.07,.01-.07c0-.04,.21-1.05-.15-1.53-.36-.36-1.05-.17-1.21-.1Z"/><path class="cls-2" d="M67.01,41.91c.17,.74,.35,1.78,.35,2.5,0,.41-.06,.72-.21,.81-.01,0-.03,0-.03,0-.28,.07-.46,.11-.53,.24-.03,.04-.04,.1-.04,.16s.01,.13,.04,.22c.04,.13,.04,.55,.04,1,0,1.09,.03,1.95,.24,2.22l.02,.02,.35,.13c1,.37,2.67,1,2.96,2.99,.23,1.54,.4,5.06,.4,7.47,0,1.14-.04,2.03-.13,2.36-.27,.97-1.7,2.26-2.36,2.71l-.19,.13,.22,.04c1.88,.34,3.65-.19,5.39-1.61,1.87-1.53,3.3-2.41,4.19-1.75l.08,.06,.05-.09c.48-.82,.39-4.24-1.5-7.58-.83-1.47-1.87-3.2-2.87-4.87-1.28-2.14-2.6-4.34-3.5-6.01l-.02-.03h-.04c-1.19-.38-1.97-.64-2.78-1.21l-.2-.14,.06,.23Z"/><path class="cls-9" d="M73.07,42.97c-.89,.39-2.63,.17-2.64,.17l-.18-.02,.09,.16c.04,.06,3.63,6.36,5.63,9.6,2.13,3.46,2.93,5.67,2.05,9.64-.9,4.05-1.47,4.99-3.52,7.25l.11,.14,1.21-.54c2.33-1.01,5.85-2.55,6.71-5.34,1-3.25,.69-8.03-2.24-11.37l-.97-1.1c-2.47-2.79-4.6-5.2-6.13-8.54l-.04-.08-.08,.04Z"/><path class="cls-11" d="M64.85,33.87s-2.11,1.4-2.11,1.4c-.08,1.82,.54,3.77,1,4.21,.08,.08,.91,1.42,1.34,1.47,0,0,1.06,.04,2.25,.75,1.5,.9,3.97,1.4,5.62,1.13,1.8-.29,3.24-.65,3.93-2.3,.91-2.22,.11-4.44,.1-4.46h-.15c-2.64,3.03-7.27,2.96-7.46,2.82-.18-.13-1.01-1.9-1.15-2.64,0-.06,.01-.13,.01-.19,0-.28-.09-.52-.25-.68-.17-.16-.4-.21-.66-.16,0,0-.24,.08-.33,.07-.66-.11-2.16-1.43-2.16-1.43Z"/><path class="cls-3" d="M70.17,40.19s.26,.73-.66,.62c-.93-.11-2.2-1.19-3.39-1.34-.07-.73,.44-1.19,.13-1.45-.31-.26-2.09,.7-2.49,1.58-.81-.77-1.28-3.17-.95-4.53,1.34-.86,2.18-1.36,2.18-1.36,.51,.57,1.54,1.58,2.44,1.61,.9,.02,.73,.02,.81,1.39,.46,.62,1.21,2.22,1.21,2.22h.53l.18,1.28Z"/><path class="cls-3" d="M75.34,37.44l-1.89,1.5c.04,1.08,1.23,3.59,1.3,3.59,1.32-.46,2.64-1.78,2.64-4.31-.02-1.87-.4-2.29-.4-2.29l-1.65,1.52Z"/><path class="cls-5" d="M77.17,36.67s-1.91,1.23-1.89,1.54c.26,.51,.55,1.59,.55,1.59,.55-.18,1.5-2,1.34-3.13Z"/><path class="cls-5" d="M68.41,36.69s-.79,.35-1.61-.2c-.81-.55-1.47-1.01-1.98-1.17,0-.33,1.01-.68,1.01-.68,.51,.29,1.19,.59,1.5,.51,.31-.09,.95,.18,.95,.86,.02,.57,.13,.68,.13,.68Z"/><path class="cls-3" d="M23.81,16.36l-.44,.02c-.15,0-.26,.04-.34,.12-.18,.18-.2,.58-.19,1.39,.02,1.13,.28,1.7,.69,2.24,.33,.44,.47,1.01,.34,3.03-.16,2.22,.56,3.58,1.86,5.17,1.12,1.38,1.73,2.14,1.77,2.79v.06s.06,.02,.06,.02c.39,.15,1.26-.1,1.89-.27l.87-.3c.42,0,1.06-.42,1.56-.71,.2-.11,.38-.21,.49-.26l.08-.03-.03-.08s-.33-.98-.56-3.55c-.2-2.04-.66-2.99-1.03-3.75-.16-.34-.3-.63-.39-.96-.19-.68-.17-1.51-.14-2.31,.02-.48,.03-.94,0-1.36-.09-1.18-3.54-1.25-3.93-1.25-1.03-.09-1.97-.04-2.54,0Z"/><path class="cls-11" d="M30.38,17.61s-2.04-1.17-5.43-.58c-.7,.03-.44,1.43,.32,3.3-.03,2.19,.44,5.49,2.54,7.91,.85,1.28,1.14,.64,1.34-.12,.2-.76,.47-1.37,.47-1.37,0,0,1.51,.23,.94,3.85-.87,.38-2.43,.87-3.11,.63-.06-.66-.68-1.53-1.45-2.38-.77-.85-2.26-3.05-2.24-5.14,.02-2.1,.22-2.56-.22-3.39-.44-.84-1.44-3.2-.27-3.95,1.81-.38,6.72-.32,7.11,1.25Z"/><path class="cls-7" d="M67.67,26.6c-1.58,.54-1.92,1.38-2.1,3.17-.08,.73-.23,1.21-.36,1.63-.18,.57-.33,1.01-.2,1.8,.32,1.75,2.31,1.94,2.33,1.94h.08s.95,0,.85,.67c-.01,.07-.06,.13-.06,.22s.02,.19,.06,.31h0s0,.02,0,.02c.33,.53,.98,2.06,1.14,2.45l.02,.06h.06c4.87,.15,7.57-2.8,8.05-4.16v-.03s0-.03,0-.03c-.13-.36-.59-.84-1.16-1.46-.32-.34-.68-.73-1.01-1.13-.72-.87-1.09-1.2-1.37-1.22-.09,0-.18,.02-.25,.09,0,0-.07-.46-.07-.47,0-.2-.17-.52-.38-.53-.16,0-.28,.49-.28-.43,0-.31-.03-.58-.09-.78h0s0-.03,0-.03c-.85-1.21-3.6-2.67-5.26-2.1Z"/><path class="cls-1" d="M65.15,33.65s1.22-.81,3.89,1.63c1.43-.6,2.05-1.03,2.05-1.03,.23,.38-.17,.66-.17,1.03,.13,.68,1.02,2.69,2.18,3.18-1.69,.38-3.27,.54-3.7,.43-.39-.58-1.26-2.42-1.17-3.16,0,0-.11-.43-.49-.54-.38-.11-.73,.15-1.56-.3-.83-.45-1.03-1.24-1.03-1.24Z"/><path class="cls-6" d="M73.14,29.25c0,.07-1.97-1.58-3.59-1.3-.09,1.45-.28,3.14-1.13,3.33-.85,.19-1.97-.62-1.24-1.65,.73-1.03,.73-1.94,.19-2.09-.55-.15-1.52,.54-1.52,.54,.47-.79,1.47-1.94,3.38-1.62,1.92,.32,3.89,1.75,3.91,2.78Z"/><path class="cls-7" d="M22.1,8.82v.02s0,.02,0,.02c0,.01,0,.02,0,.03,0,.64,.53,2.14,1.3,2.8-.23,.07-.4,.21-.42,.38,0,.01,0,.03,0,.04,0,.11,.07,.24,.3,.37-.35,.47-.95,2.31-.95,3.44,0,.27,.03,.5,.11,.66l.06,.12,.09-.1s.38-.38,2.82-.4c2.86-.01,4.63,.4,5.12,1.19l.04,.07,.07-.03c.5-.19,.59-.73,.59-2.23,0-1.28,0-1.82-.16-2.09,.1-.02,.19-.07,.24-.16,.03-.05,.04-.11,.04-.17,0-.12-.06-.25-.16-.38h0c.28-.14,.57-.27,.57-.82,0-.12-.02-.26-.05-.41,.34-.12,.87-.44,1.14-.93,.1-.19,.16-.39,.16-.59,0-.12-.02-.24-.06-.36-.29-.94-.76-1.79-1.07-1.93-.05-.02-.18-.02-.36,0,.03-.01,.05-.03,.05-.06v-.02s0-.02,0-.02c-.04-.46-1.13-2.39-2.31-2.54-1.22-.16-6.07,1.83-7.17,4.1Z"/><path class="cls-6" d="M31.3,6.45s-2.19,.56-2.78,.11c-.59-.45-.53-.67-1.35-.45-.82,.22-3.99,2.42-4.95,2.44,.56-.93,1.94-2.02,4.02-3.06,2.08-1.04,3.57-.93,4.16-.31,.59,.62,.9,1.26,.9,1.26Z"/><path class="cls-1" d="M23.74,9.42s.51,.48,1.18,.11c.67-.37,3.15-.65,3.15-.65-.06,.34,.08,1.18,.37,1.21,.87-.39,1.97-.48,2.61-.25,.65,.22-.14,1.57-.59,1.83-1.18,.06-4.64-.51-6.27,.2-.56-.51-.84-2.78-.73-2.89,.25,.31,.28,.45,.28,.45Z"/><path class="cls-3" d="M51.13,2.38c-2.52,1.9-3.96,4.34-3.99,6.74-.08-.17-.11-.37-.11-.57,0-.38,.1-.73,.1-.73l.02-.08-.07-.03c-.76-.36-5.69-.47-9.61,7.34,.05-.21,.17-.47,.29-.66l.05-.08-.08-.05c-.58-.37-2.15-.23-2.92,.63-.74,.83-2,3.58-.62,5.16l.07,.08,.07-.09c.23-.3,.63-.57,.96-.77-.07,.06-.17,.16-.17,.16-.77,.71-1.65,1.52-2.22,2.71l-.03,.07,.06,.05c.52,.39,1.19,2.13,1.53,5.14,.1,.72,.95,3.2,7.64,6-.41-.06-.65-.07-.66-.07h-.3l.25,.17c1.55,1.03,3.02,2.17,3.03,2.18l.06,.05,.06-.05c.37-.35,.63-.54,.85-.5,.21,.04,.42,.29,.66,.8l.04,.08,.08-.04c.54-.27,1.09-.49,1.47-.33,.22,.1,.39,.33,.49,.7l.03,.09,3.08-.94-.17-.11c-.1-.06-.21-.11-.32-.15,.01,0,.02,0,.04,0,1.8,.11,5.14,.31,8.68-1.4,1.72-.9,3.6-2.02,4.17-3.92,.12-.39,.17-.79,.17-1.21,0-1.01-.35-2.14-1.02-3.4,.39,.21,.82,1.02,.98,1.36l.04,.08,.08-.03c1.04-.44,1.99-1.8,1.77-3.85-.25-2.21-1.82-3.17-2.8-3.12h-.08s0,.09,0,.09c-.02,.31-.05,.62-.09,.9v-.03c0-3.05-.4-9.99-7.06-11.97l-.13-.04v.13s.01,.06,.01,.1c0,.49-.26,.99-.53,1.22,.39-.93,.44-1.54,.52-2.74,.1-1.36,1.25-3.69,2.59-4,.37-.09,.67,.03,.84,.34,.38,.65,.18,2.04-.69,2.98-.34,.3-.51,.74-.39,1,.05,.1,.17,.25,.52,.2h.01s.01,0,.01,0c.01,0,1.43-.61,1.48-2.5v-.31c.06-1.75,.13-3.94-2.58-4.81-1.42-.46-3.95,.38-6.15,2.05Z"/><path class="cls-8" d="M46.33,22.29c-.22,2.67-.18,6.12,.66,7.07,.15,.16,.31,.25,.5,.26h0c1.83,.04,3.69-5.24,3.77-5.46v-.02s0-.02,0-.02c-.07-.6-.52-.79-.54-.8h-.02s-.02,0-.02,0c0,0-.76,.1-1.87,0-.99-.09-1.47-.45-2.09-.91l-.37-.27v.16Z"/><path class="cls-10" d="M46.18,24.61s1.49-.42,2.43-.31c.93,.11,2,1.64,2,1.64,.59-1.55,1.13-2.74,1.13-2.99-.79,.17-1.27,.31-2.26,.28-.99-.03-1.55,.25-3.27-1.24-.06,1.21-.03,2.62-.03,2.62Z"/><path class="cls-11" d="M62.79,25.34s1.89-1.1,2.54,.51c-.79,.93-1.41,1.13-1.61,1.13-.2-.11-.93-1.63-.93-1.63Z"/><path class="cls-11" d="M46.29,30.12s.63,.59,1.17,.59h.9s-.27,.95-1.49,.63c-1.22-.32-.59-1.22-.59-1.22Z"/><path class="cls-11" d="M34.21,25.95s2.79,4.34,10.42,6.57c7.63,2.23,13.42,2.58,18.62-1.52-1.06,1.77-4.59,4.56-11.48,4.42-1.2,.6-3.64,1.06-3.64,1.06,0,0-.13-1.56-1.96-.41-.38-.6-.94-1.47-1.73-.17-.7-.68-3.16-2.64-4.16-3.13-1-.49-4.97-2.96-5.63-4.44-.32-1.07-.44-2.38-.44-2.38Z"/><path class="cls-11" d="M33.44,18.32s2.08-.42,2.16,.85c-1.13,.78-1.45,1.1-1.45,1.1,0,0-.81-1.34-.71-1.94Z"/><path class="cls-11" d="M55.37,8.64s-.64-.64-.11-2.58c.53-1.94,2.47-3.36,3.82-3-.28-1.41-1.84-2.61-4.03-1.94-2.19,.67-5.26,1.48-7.74,8.3-.32-.74-.18-3.57,2.83-6.29,3-2.72,7.95-4.73,9.5-.67,1.06,4.31-.88,5.62-1.41,5.58,0,0-.95-.11-.18-1.13,.78-1.02,1.17-2.12,.88-2.93-.28-.81-1.77-1.27-3.32,2.83-.21,.71-.25,1.84-.25,1.84Z"/><path class="cls-11" d="M47.86,16.37s.87,.68,1.58,1.81c1.21,.34,2.26-.57,3.21-.42-1.43,.76-2.57,1.66-1.4,2.3,1.77,.19,2.04,.15,2.26,.87-.64,.34-3.21,.38-4.53,.34-1.32-.04-2.98-1.66-3.55-1.92,0,0-.49-.79,2.45,.11,.68-.72,.19-2.19-.04-3.09Z"/><path class="cls-13" d="M82.63,56.32c-.7-2.7-4.65-6.36-6.48-8.93-1.83-2.56-2.73-4.25-2.79-4.34,.73-.39,3.55-.34,3.91-3.04,.37-2.7,.37-3.55-.2-4.17,.56-.7,.65-.9,.65-1.32s-2.84-3.35-3.35-3.8c-.48-.08-.56-.03-.56-.03,0,0,.17-.79-.62-.93,0-1.21,.06-1.75-2.82-3.07-1.72-.87-4.56-.14-4.79,1.66-.06,.45-.28,2.7-.76,2.76-.48-.25-.68-.68-1.15-.68,.34-.99,.65-1.44,.23-3.3,.99-.45,2.06-1.21,2-3.89-.06-2.68-1.52-3.69-3.13-3.77-.06-2.03,.17-8.76-7.13-11.01,.11-3.46,1.69-4.76,2.68-4.9,.99-.14,.48,2.42-.34,2.96-.51,.54-.51,1.35-.06,1.58,0,0,.79,.45,1.52-.76,.73-1.21,.84-4,.11-5.52-.73-1.52-3.86-3.15-7.94-.11-4.08,3.04-4.51,5.6-4.51,5.6-1.86,.06-6.2,.17-9.41,6.65-1.97-.14-3.21-.22-4.11,2.62-.9,2.84,.25,3.8,.25,3.8-.54,.37-1.1,1.52-1.15,1.72-.62-.31-1.77-.34-1.89-.34-.23-.25-.37-.68-.37-1.55v-2.39s.87-.31,.9-1.15c.03-.84,.03-3.38,.03-3.38,.34-.7,.11-.93,.11-.93,0,0,.59-.54,.59-1.13,.68-.68,1.27-1.24,.99-2.11-.28-.87-.65-1.94-1.3-1.91-.25-1.07-1.18-2.62-2.56-2.62s-4,1.13-5.86,2.48c-1.49,1.21-1.61,1.41-1.21,2.73,.39,1.32,.96,1.94,.96,1.94-.39,.03-.37,.56-.14,.87-.34,.39-1.01,3.1-.84,3.8,.08,.42,.56,.48,.56,.48,0,0-.11,1.61,.11,2.31,.23,.7,.96,1.52,.9,2.25-.06,.73-.65,3.35,1.21,6.31-2.28,1.69-4.34,3.61-8.73,6.53C11.77,37.23,1.49,44.16,0,52.35c1.35-.87,6.17-3.6,8.73-1.49,2.56,2.11,2.59,4,5.18,7.13,2.59,3.13,4.65,3.46,5.1,3.49-.31,.76-1.77,2.31-1.72,4.22-1.61,1.24-3.52,4.11-3.13,5.41,.39,1.3,4.79,.82,6.79,.14,2-.68,3.32-1.66,3.29-2.9,1.41-1.3,3.27-2.84,3.3-3.21,.03-.37,.17-.76-.17-1.15-.08-.28,.11-.42,.11-.42,1.01,.53,1.58,1.18,3.8,1.15,.45,1.61,.3,2.14,5.03,3.49,4.68,1.34,6.18,1.6,7.02,1.55,.84-.06,2.06-.7,2.25-.7,.76,.31,.84,.17,2.06-.2,.76,.79,1.55,1.07,2.37,1.04,.82-.03,1.3-.85,1.58-.85s2.51,.56,3.44,.79c-.45,.79-.68,2.14,.06,2.31-.62,.48-1.83,1.94-.96,2.62,.87,.68,6,2.17,9.63,2.23,2.87,.08,3.07-.03,3.13-.62,.06-.59-1.13-2.31-3.27-3.32-.9-.56-1.13-.39-.9-1.01,.23-.62,1.55-1.89,.54-2.45,.31-.82,1.07-1.07,.93-2.17,.65-.76,.53-.42,1.35-.93,.82-.51,2-1.38,2-1.38,2.03,.2,3.58,.14,4.93-.68,1.35-.82,3.49-2.93,4.53-2.82s1.07,3.91-3.44,8.76c1.72-.53,7.24-2.51,8.59-5.04,1.35-2.53,1.18-6.31,.48-9.01Zm-17.34-24.89c.14-.42,.29-.91,.37-1.65,.18-1.69,.43-2.54,2.04-3.09,1.52-.52,4.24,.74,5.16,2.06,.26,.84-.12,3.1-.65,3.83,.55,.02,.88-1.41,.92-2.15,.01-.27,.08-.42,.18-.42,.14,0,.29,.26,.29,.44,0,.4-.13,1.62-.72,2.42,.12,0,.24-.07,.37-.21,.35-.39,.64-1.23,.57-1.67,.05-.05,.11-.07,.18-.06,.24,.02,.61,.36,1.3,1.18,.33,.4,.69,.79,1.01,1.13,.54,.58,1.01,1.09,1.14,1.43-.48,1.35-3.14,4.25-7.96,4.1-.15-.39-.81-1.93-1.14-2.47-.07-.2-.08-.35-.01-.44,.08-.12,.26-.12,.37-.12l.09,.02c.3,.09,1.2,.36,3.02-1.79l-.3,.25c-.55,.48-1.56,1.36-2.66,1.36,.14-.09,.32-.17,.53-.26,.53-.24,1.18-.53,1.54-1.13l-.89,.49c-.61,.35-1.1,.63-1.42,.63-.29,0-.79-.39-1.28-.77-.31-.24-.6-.47-.81-.57,.1,.28,.34,.51,.53,.7,.16,.16,.29,.28,.27,.38-.02,0-1.93-.18-2.24-1.86-.13-.77,.01-1.2,.19-1.76Zm1.71,3.96c.17,.03,.29,0,.36-.07,.23-.05,.43,0,.57,.14,.18,.17,.26,.46,.21,.81,.13,.74,.96,2.55,1.19,2.71,.22,.16,.54,.09,.54,.09,0,0-.14,.47,.14,.99,.27,.5,.84,.88,1.68,1.12-.12-.11-.27-.22-.44-.33-.56-.39-1.26-.87-1.09-1.75,.17,0,4.08,.11,6.75-2.96,.01,.02,.78,2.19-.11,4.37-.67,1.61-2.08,1.95-3.86,2.24-1.63,.26-4.07-.23-5.56-1.12-1.21-.73-1.74-.74-2.09-.75h-.2c-.4-.06-1-1.14-1.01-1.15,.17-.11,.39-.3,.61-.49,.29-.25,.56-.5,.72-.52-.05-.05-.14-.07-.26-.05-.39,.06-1.01,.5-1.17,.84-.05,0-.11-.02-.17-.08-.45-.42-1.05-2.34-.97-4.14,.86-.62,2.05-1.32,2.06-1.32,.23,.42,1.42,1.33,2.1,1.44Zm-23.93,14.64l-1.68-.47c-3.14-.83-4.99-1.47-8.34-3.31-3.3-1.81-7.43-5.33-7.89-6.74-.49-1.87,1.05-3.39,1.07-3.4,1.51,1.64,5.96,5.55,8.44,3.95,2.39-1.54,1.86-4.69,1.66-5.88l-.03-.17c1.9,.44,5.1,1.56,5.53,1.93-.01,0-1.35,.47-2.96,1.65-1.65,1.2-3.79,3.69-3.88,4.51,2.26-.43,3.05-.45,4.61-.51l.79-.03c4.2-.56,6.4,.18,6.89,.51-.41-.89-4.57-.94-5.5-.81,.21-.44,1.56-1.61,2.33-2.15,0,.12,.04,.21,.11,.28,.19,.17,.59,.1,.86,.06l.19-.02c.14,0,.23,.06,.35,.14,.1,.07,.22,.16,.4,.21,.35,.11,.5-.24,.67-.6l.06-.12c.07,.07,.19,.38,.34,.8l.39,1.01,.06,.15c.3,.72,.36,.87,1.1,1.61-3.2-1.08-6.26-.97-6.74-.74,2.38-.06,4.53,.39,6.1,.71l.81,.16c3.33,2.09,4.29,3.32,4.92,4.13l.32,.4c.01-.06,.3-1.52-.05-3.77-.39-2.49-1.36-4.48-1.76-5.21,.25,.04,3.48-.21,4.71-.32-.1,.35-.47,.81-.91,1.35-.86,1.05-1.92,2.36-1.52,3.65,.64,2.06,2.58,3.32,5.46,3.54,2.98,.23,6.28-.99,6.31-1,0,0,.11,.04,.11,1.12,0,1.17-1.46,2.43-3.8,3.29-2.97,1.09-6.68,1.54-11.35,1.36-4.28-.17-6-.66-8.17-1.29Zm6.72,5.54l-.7,.26c-1.6,.61-4.94,1.87-7.71,1.28-2.18-.5-4.26-1.97-6.53-4.62-.52-.72-.43-.86,.09-1.61l.32-.47c.81-1.23,1.54-2.05,1.74-1.95,.05,.02,5.64,2.55,12.41,3.18,0,.03,.68,2.71,.38,3.93Zm-17.01-24.92s-1.99,1.5-6.01,1.48c-.02-.17,.5-.72,.5-.73h.28c.63,0,1.58,0,4.94-1.57,.31,.21,.29,.81,.29,.81Zm.69,3.38c-.48,.35-.98,1.01-1,1.04l-.44-.24c-.71-.38-1.6-.86-2.14-.89,.63-.58,2.34-1.39,2.46-1.44l1.13,1.52Zm-.69,5.07c.67,.19,1.63,.09,2.4-1.46,.76-1.53-.14-3.94-.15-3.96,.05-.06,.11-.14,.21-.15,.07,0,.15,.02,.23,.09,.88,1.2,1.02,3.15,.34,4.64-.51,1.11-1.39,1.76-2.49,1.85-2.93,.23-7.77-5.18-8.01-5.68-.08-.43,.06-.71,.42-.86,2.57,4.12,7.01,5.52,7.05,5.53Zm14.77-1.44s.07-.45,.65-.65c.58,0,2.91,.8,3.79,1.44,2.11,3.95,1.89,8.16,1.88,8.21-.02-.02-1.67-2.03-2.92-2.91-.37-.26-.73-.49-1.08-.7-.82-.51-1.53-.95-1.84-1.63-.35-.8-.67-1.77-.83-2.29l-.09-.27c-.1-.31-.04-.42,.07-.6l.11-.21c1.18,.48,2,1.59,2.73,2.57,.3,.4,.57,.78,.86,1.09-.44-1.35-2.16-3.28-3.34-4.04Zm.34-.76c-.66,.45-.98,1.15-1.23,1.72-.22,.48-.39,.85-.67,.88-.12,.01-.2-.01-.27-.08-.19-.2-.11-.73-.02-1.25l.07-.47c-.44,.22-.54,1.45-.54,1.46-.02,0-.41,.22-.66,.11-.1-.04-.16-.12-.19-.25-.51-1.94,.01-2.95,.26-3.29,.21-.29,.43-.4,.54-.41,.38-.02,.7,.28,.94,.87,.76-.43,1.29-.54,1.58-.33,.32,.23,.24,.79,.19,1.02Zm-3.85-.36c-.05,.18-.1,.34-.1,.48-.55,.09-3.16,1.19-3.72,2.62,.47-.31,.85-.29,.85-.29-.32-.14-.44-.12-.49-.09,.19-.17,1.89-1.68,3.43-2-.09,.67-.07,1.38-.07,1.39-.01,.01-1.35,1.11-1.97,2.02-.53,.37-.91,.49-2.29,.52-1.25,.02-2.72,.1-4.26,.72,.39-1.15,4.87-6.37,8.75-5.92-.02,.2-.08,.39-.13,.56Zm15.71,9.74c-2.54-.11-4.22-1.57-4.75-2.96-.49-1.29-.38-1.46,.32-2.57l.1-.16c.77-1.21,1.81-2.58,2.13-2.67,.31-.09,.91-.18,.92-.18-.02,.03-2.14,2.86-2.62,3.77-.23,.42-.18,1.11,.13,1.74,.49,1.02,1.5,1.74,2.79,1.98,2.65,.49,6.8-.56,8.43-1.23,.09,.23,.08,.5-.01,.7-.09,.2-.26,.35-.5,.44-.71,.26-4.39,1.25-6.93,1.14Zm-1.23-5.96c.08-.18,1.37-1.61,1.46-1.61,0,0,.76-.29,1.12,.07,.33,.44,.14,1.45,.13,1.46-.06,0-1.35,.2-2.71,.09Zm7.89,1.86s-2.1,.15-3.32-1.95c-1.26-2.17-1.34-3.97-1.3-4.22,.04-.29,.82-.49,.83-.49-.1,.68,.03,2.71,1.03,4.35,.88,1.44,1.68,1.4,2.16,1.37h.22c.28,0,.67,.29,.71,.56,.02,.12-.03,.28-.33,.38Zm-2.33-11.28c.14,.16,.18,.36,.11,.52-.11,.08-.18,.1-.26,.12-.25,.08-.64,.19-2.5,2.05-1.84,1.48-2.72,1.88-3.14,1.95,.72,.05,1.69-.47,2.33-1.01l.9-.72c.57-.45,1.22-.96,1.63-1.34,.69-.64,1.3-1.03,1.64-1.05-.02,.04-.55,.9,.07,2.2-.7,.3-1.79,.99-2.75,1.6l-.95,.6-.65,.44c-.97,.68-2.07,1.45-4.35,1.54-1.25,.05-2.21,.11-2.92,.16-.9,.06-1.39,.09-1.59,.04-.44-.18-.87-.42-.87-.43,.74-.31,4.68-1.03,5.22-1.03-1.16-.22-3.83,.39-5.26,.72l-.7,.16-1.19-.64c-.23-.13-.36-.2-.4-.21l1.04-.24c1.08-.25,2.42-.55,2.62-.77,1.37,.12,4.54-.2,6.59-.99,2.22-.85,4.73-2.68,4.78-3.86,.23-.08,.47,.04,.61,.2Zm-28.9-11.37l.65-.61s-1.1,.48-1.57,1.09c-1.34-1.54-.1-4.22,.62-5.03,.79-.89,2.31-.93,2.8-.62,0,0-.47,.76-.29,1.05,3.91-8.06,8.89-7.95,9.64-7.6,0,0-.1,.36-.1,.75,0,.31,.06,.65,.29,.86,0-.07,0-.14,0-.2,0-2.39,1.43-4.83,3.96-6.74C53.36,.81,55.85-.03,57.25,.42c2.65,.85,2.58,2.91,2.53,4.72v.31c-.06,1.83-1.42,2.42-1.43,2.42-.22,.03-.36-.02-.42-.15-.1-.22,.07-.62,.37-.89,.91-.97,1.1-2.41,.71-3.09-.14-.24-.42-.5-.94-.38-1.37,.32-2.56,2.7-2.66,4.08-.09,1.29-.13,1.88-.62,2.95,.44-.1,.85-.88,.81-1.52,7.1,2.11,7.02,9.66,6.99,12.51v.41s.23-.96,.28-1.9c.95-.05,2.47,.89,2.71,3.04,.22,2-.7,3.33-1.71,3.75,0-.01-.67-1.47-1.24-1.47,1.03,1.85,1.33,3.39,.94,4.73-.56,1.87-2.42,2.98-4.12,3.87-3.52,1.7-6.85,1.5-8.64,1.39-.55-.03-.95-.06-1.15-.01,0,0,.86,0,1.38,.33l-2.8,.85c-.12-.4-.29-.65-.55-.76-.42-.18-.99,.05-1.54,.33-.26-.55-.49-.81-.73-.85-.26-.05-.53,.15-.93,.52-.01-.01-1.49-1.15-3.04-2.18,0,0,.63,0,1.66,.28-7.54-2.94-8.45-5.58-8.55-6.32-.37-3.25-1.07-4.84-1.57-5.21,.56-1.17,1.43-1.98,2.2-2.69Zm-.87,7.83l.2,1.4c.27,1.91,.35,2.49,1.05,3.03-.47-.91-.55-1.52-.48-1.63,.06,.03,.18,.18,.34,.37,.37,.44,.93,1.1,1.35,1.17-.06-.24-.41-.59-.75-.93-.31-.32-.63-.64-.71-.86-.17-.45-.54-.91-.54-.92,.02,.02,1.53,1.72,2.46,2.27l.66,.38c1.22,.69,3.49,1.97,5.99,3.96-.18,0-.53-.19-.9-.39-.43-.24-.88-.48-1.16-.48,.12,.24,.38,.43,.61,.59,.23,.16,.43,.31,.45,.47,0,0-.3,.08-2.27-.73-.92-.38-1.8-.63-2.66-.88-.97-.28-1.89-.54-2.73-.96-1.65-.81-2.84-3.8-3.13-6.2l-.11-.97c-.22-1.95-.34-3.02-1.01-4.01,1.85,0,2.2,.33,3.34,5.32Zm-11.79-10.81c-.42-.84,.54-3.86,.9-4.09-.31-.13-.36-.27-.35-.37,.02-.16,.24-.31,.52-.34-.84-.58-1.42-2.24-1.4-2.88,1.08-2.24,5.87-4.2,7.07-4.05,1.14,.15,2.19,2.02,2.23,2.46,0,.02-.08,.03-.22,.05-.33,.05-1.03,.15-2,.56-1.34,.56-1.34,.97-1.34,1.36-.5,.01-1.35,.31-2.04,.55-.48,.17-.89,.31-1.09,.33-.33,.03-.66-.37-1.07-.87l-.6-.69c.07,.37,.84,1.63,1.4,1.79,.32,.09,.86-.06,1.55-.24,.55-.15,1.18-.32,1.87-.42,.02,.26,.18,.46,.47,.59,.65,.29,1.76,.16,2.09-.08,.06-.04,.09-.09,.09-.14-1.11,.23-1.83,.19-2.19-.13-.29-.26-.3-.66-.27-.94,.01-.18,.2-.37,.56-.58,.97-.57,2.92-1.06,3.13-.96,.25,.12,.72,.87,1.02,1.88,.09,.3,.06,.6-.09,.88-.27,.5-.85,.83-1.16,.92,.19,.89-.13,1.05-.46,1.2l-.1,.05c.18,.19,.24,.4,.17,.54-.05,.1-.18,.15-.34,.12,.25,.19,.25,.69,.25,2.17s-.08,1.97-.53,2.15c-.51-.83-2.26-1.25-5.19-1.24-2.55,.01-2.89,.42-2.89,.43Zm1.44,6.63c.12-1.87,.04-2.56-.35-3.09-.4-.53-.65-1.08-.67-2.19-.01-.77,0-1.17,.16-1.33,.06-.06,.15-.09,.28-.09l.45-.02c.56-.03,1.51-.09,2.53,0,.04,0,3.76,.05,3.84,1.17,.03,.42,.02,.87,0,1.35-.03,.81-.05,1.65,.15,2.34,.1,.34,.24,.63,.4,.97,.36,.76,.82,1.7,1.02,3.72,.23,2.58,.56,3.56,.56,3.57-.12,.05-.3,.15-.5,.27-.47,.27-1.11,.63-1.5,.63,.16-.76,.24-2.66-.52-3.34,.33,1.04,.61,2.18,.17,3.57l-.55,.14c-.62,.17-1.47,.41-1.83,.28-.04-.68-.66-1.45-1.79-2.84-1.28-1.58-2-2.93-1.84-5.11Zm-5.11,37.97c-.73-.02-3.48-1.26-6.49-6.49l-.1-.16c-1.24-2.03-2.53-4.14-4.85-4.68-1.89-.44-4.2,.23-7.07,2.04,.03-.18,.79-4.42,7.45-10.54,3.54-3.15,5.87-4.78,7.93-6.22,1.28-.89,2.48-1.74,3.86-2.85,3.06-2.48,4.74-3.67,5.3-4.07l.2-.15c.45,.49,1.93,2.4,2.12,2.88-.02,.02-1.9,1.65-2.32,3.36,.06,.31,1.18,1.64,1.19,1.65-.66,.46-1,1.62-1.46,3.23l-.56,1.88-.32,.11c-1.46,.48-4.88,1.61-6.81,3.92-.8,1.7-.95,6.49-.54,7.93,.39,1.39,2.4,3.98,4.53,4.72,.33,.62,.74,1.34,.92,1.44-.16,.09-.46,.33-.79,.62-.7,.59-1.66,1.4-2.17,1.38Zm7.78,4.63c-1.12,1.02-2.66,2.38-3.09,2.45,.12,.14,.29,.42,.17,.82-.19,.61-1.14,1.52-4.58,2.41-2.13,.39-3.65,.14-4.16-.05-.19-.07-.39-.17-.48-.42-.16-.41,.01-1.1,.53-2.09,.94-1.82,1.84-2.47,2.27-2.78l.11-.08c.07,.3,.32,.66,.53,.66-.12-.16-.31-.51-.31-1.1,0-.92,.47-2.43,2.41-4.71-.14,.53-.47,1.76,.21,2.72,.55,.77,1.64,1.23,3.24,1.35,2.6,.02,3.29-.04,3.38-.32-.14-.27-.41-.27-.41-.27,0,0,.39-.34,.59-.32,0,0,.15,.12,.23,.34,.1,.29,.06,.76-.64,1.4Zm36.67,4.08c.09,.22,.03,.71-.69,1.82-.54,1.03-1.2,1.37-2.63,1.37,.31,.29,1.87,.09,2.36-.23,.72,.12,3.78,2.21,4.15,3.25,.06,.16,.05,.29-.03,.38-.66,.75-6.15-.14-8.07-.55-2.19-.47-4.23-1.29-4.37-1.76-.05-.19,.13-.48,.29-.7,.4-.53,1.08-1.11,1.31-1.11l.25,.12c.55,.28,1.69,.85,3.25,.43-1.68-.07-4.19-.79-4.21-1.35-.02-.56,.53-1.74,.78-1.78h.06c.25-.05,.6-.11,.81-.39,.12-.15,.3-.25,.5-.28,.18-.02,.45,0,.75,.23,.54,.42,1.95,.89,3.29,.94h.16c1.29,.05,1.83,.07,1.89-.55,0,0,.09,.03,.14,.15Zm-.16-1.98c-.21,.08-.5,.07-.9,.06-.4-.01-.89-.03-1.54,.03,.27-.25,.83-1.49,1.17-3.16,.33-1.67,.81-2.98,1.42-4.64l.02-.04c-1.07,1.45-1.96,5.79-1.97,5.83-.2,.98-1.8,2.83-1.82,2.85-.05,0-1.24,.07-2.4,0,.09-.28,1.89-2.27,3.05-3.48-1.13,.57-2.43,2.13-3.3,3.15-.39,.46-.66,.79-.78,.86-.39,.23-2.95-.31-3.92-.61,0-.08,.79-1.13,1.46-1.59-.58,.04-1.09,.54-1.63,1.06-.62,.6-1.27,1.22-2.11,1.3-1.45,.12-4.77-3.83-6.02-5.31l-.32-.38c.11,.75,2.26,3.48,3.81,4.66-.18,.26-.4,.4-.67,.42-1.11,.06-2.77-1.96-4.11-3.58l-.89-1.06c.36,1.23,3.28,4.18,3.61,4.51-2.46,1.97-12.35-2.24-12.44-2.29-1.54-.43-1.65-5.12-1.59-6.35-.42,.79-.06,3.63,.02,4.19-4.19-.37-6.52-3.43-6.95-4.04-.08-2.13-.03-5.26,.36-7.67-.38,.72-.97,4.69-.72,7.06-2.34-.51-2.63-1.6-3.22-3.78l-.3-1.08c-.86-3.2,.02-6.28,.76-8.32-2.22,3.79-1.4,7.1-.74,9.76l.24,1.01c-1.93-.97-3.23-2.46-3.85-4.42-.98-3.1,.03-6.64,.64-7.78,2.42-2.66,6.6-3.58,6.64-3.59,0,.01,.62,1.05,1.66,2.47-2.25,.4-3.18,1.49-3.57,2.34-.46,1-.31,1.99-.17,2.21-.13-3.61,3.93-4.41,3.97-4.42,0,0,.9,.9,1.41,1.52-3.17,.15-4.16,2.1-4.47,3.26-.25,.93-.16,1.78,.03,1.9,0-.03,.24-2.95,1.37-3.72,1.08-.74,2.37-1.25,3.36-1.32l.14,.12c2.78,2.52,4.49,4.17,4.93,4.77-2.29,.97-3.8,4.55-3.54,5.2,1.13-3.68,3.72-5.08,3.74-5.09,0,.01,.97,1.24,1.7,2.13-1.44,1.32-2.91,3.88-2.92,4.57,0,.08,.02,.13,.05,.16,.45-1.3,2.1-3.94,3.14-4.51,2.95,3.44,5.01,4.27,7.2,4.46,2.52,.22,5.52-.78,6.1-.99,.4,.64,.61,2.67,.61,6.05,.43-1.78-.04-5.33-.25-6.17,.06,0,.2-.06,.4-.16,.33-.15,.83-.38,1.46-.56,.58,2.12,.57,3.75,.56,4.94,0,.52,0,.93,.04,1.25,.58-2.17-.12-5.56-.34-6.35,.5-.25,2.81-.95,3.86-1.17,1,1.25,2.53,5.29,2.8,6.59,.11-1.84-1.46-5.56-2.4-6.59,.01,0,1.04-.49,2.02-.54,.59,.64,1.73,2.67,2.44,4.19-.11-.86-1.53-3.64-2.11-4.26,1.99-.43,4.2-1.29,5.98-1.98,.72-.28,1.33-.52,1.83-.69,.19,.06,2.38,1.12,2.65,2.18,.27,1.07,.28,7.5-.47,9.26-.73,1.71-3.78,5.18-4.19,5.34Zm2.32-1.93c.11-.04,1.85-2.37,2.29-3.56,.44-1.18,.69-7.35,.44-8.85-.24-1.45-2.64-2.65-2.67-2.67,0,0,.02,0,.04,0,.2-.06,.98-.78,1.26-1.4,.79,.27,2.27,.79,2.8,1.78,.52,.96,.84,10.11,.58,10.73-.28,.66-2.6,3.01-4.75,3.97Zm8.02-2.74c-1.72,1.4-3.46,1.93-5.31,1.59,.67-.45,2.12-1.76,2.4-2.76,.29-1.02,.06-7.6-.27-9.87-.3-2.04-2-2.68-3.02-3.06l-.32-.12c-.21-.27-.22-1.32-.22-2.16,0-.47,0-.88-.05-1.02-.04-.15-.05-.24,0-.31,.06-.1,.22-.14,.48-.2h.05c.62-.34-.08-3.39-.09-3.42,.82,.58,1.61,.84,2.8,1.21,.9,1.66,2.22,3.87,3.5,6.01,1,1.67,2.03,3.39,2.87,4.86,1.88,3.31,1.98,6.68,1.5,7.49-.94-.7-2.4,.19-4.31,1.75Zm2.31,6.07l-1.21,.55c2.07-2.28,2.64-3.22,3.54-7.29,.89-4.01,.08-6.23-2.06-9.71-2-3.24-5.59-9.53-5.63-9.6,.01,0,1.78,.22,2.69-.18,1.53,3.36,3.67,5.77,6.14,8.57l.97,1.1c2.9,3.31,3.21,8.05,2.22,11.28-.84,2.75-4.34,4.28-6.66,5.28ZM57.33,12.98l-.28-.54c-.21-.37-.35-.61-.64-1.8,0,.02-.3,1.83,.93,2.34Zm2.61-.1c-.14-.2-.26-.32-.37-.43-.2-.19-.38-.37-.66-.98,0,.01-.02,1.14,1.03,1.41Zm-14.69-3.51c-.5,.63-.81,.85-1.06,1.03-.15,.1-.28,.19-.41,.35,1.5-.1,1.48-1.36,1.48-1.38Zm-2.43,.36c.44-.32,.5-.93,.5-.94-.58,.78-.98,.99-1.48,1.1,.39,.08,.72,.03,.98-.16Zm4.63,9.82c-.51-3.09-2.01-3.06-2.03-3.06,1.11,1.14,1.39,1.74,1.69,2.38l.34,.68Zm3.34,.31c1.73-.97,2.78-1.1,3.65-1.1-2.41-.58-3.63,1.08-3.65,1.1Zm1.65-2.37s-1.59,.25-2.17,1.41l.36-.28c.46-.36,1.03-.81,1.81-1.13Zm-4.88-1.48c.42,.71,.89,1.51,.96,2.75,.17-2.31-.95-2.75-.96-2.75Zm3.92,5.23s2.09-.79,3.99-.62c-.71-.34-2.65-.42-3.99,.62Zm1.2,0s1.06-.51,3.58-.07c-.35-.38-2.71-.7-3.58,.07Zm-6.47-1.07c-.27-.75-1.56-1.3-2.1-1.5-.69-.26-1.37-.4-1.51-.32,2.79,.85,3.6,1.81,3.61,1.82Zm-3.27-2.06c2.14,.48,3.19,1.4,3.2,1.41-.39-.81-2.57-1.67-3.2-1.41Zm3.16,3.65c-.29,5.06,.11,7.71,1.24,8.08,2.45,.34,4.55-7.11,4.57-7.19-3.6,1.31-5.19-.27-5.71-.79l-.1-.1Zm5.18,1.34c.14,0,.26,.12,.26,.26,0,.07-.03,.13-.08,.18-.05,.05-.11,.08-.18,.08-.14,0-.26-.12-.26-.26s.12-.26,.26-.26Zm-4.87-.79l.24,.18c.63,.47,1.12,.83,2.13,.93,1.12,.1,1.88,0,1.89,0,0,0,.41,.18,.48,.72-.02,.05-1.91,5.43-3.68,5.4-.16,0-.3-.08-.43-.22-.68-.76-.93-3.51-.64-7Zm18.19-.55s-.75,2.21,.17,3.34c-.19-.83-.28-1.64-.17-3.34Zm-30.33-4.38c-.09,.16-.18,.29-.24,.46,1.26-.51,1.1-2.39,1.1-2.41-.37,1.14-.65,1.61-.86,1.95Zm-15.16,23.22c2.77-2.06,5.31-2.66,5.33-2.67-.18-.13-.56-.12-1.1,.03-1.51,.42-3.88,1.8-4.23,2.64Zm2.84-2.53c-2.77,.46-6.76,4.23-7.78,6.02-.23,.4-.32,.71-.25,.89,2.5-4.39,7.98-6.88,8.03-6.91Zm16.48,16.38c.38,.05,.71-.04,.97-.26,.4-.34,.65-.99,.7-1.82,.31,.14,1.16,1.97,1.5,3.11,.26-.43,2.25-2.12,3.15-2.15-.64,.78-.89,1.51-.7,2.06,.12,.35,.41,.61,.8,.7,.53,.13,1.13,.03,1.53-.24,.26-.18,.41-.41,.45-.68,.1-.74-.54-1.36-.55-1.37,.24,.77-.05,1.33-.43,1.52-.29,.15-.6,.08-.8-.19-.42-.56,.14-1.67,.58-2.57l.28-.58c-1.19,.15-2.9,.82-4.03,1.98-.52-2.21-1.28-3.04-1.82-3.35-.41-.23-.73-.19-.88-.14,.36,1.24,.36,2.21,.02,2.66-.14,.18-.33,.28-.57,.28-.3,0-.51-.12-.63-.35-.18-.37-.04-.9,.18-1.19-1,.6-1.03,1.24-.96,1.56,.11,.52,.6,.93,1.2,1Zm-19.92,12.03c.02,.68,1.56,1.48,1.58,1.49,0,0-.55-.18-.91-.18,.61,.44,2.09,.56,2.22,.5,0-.02,0-.03-.02-.04-1.65-.8-2-1.02-2.86-1.76Z"/><path class="cls-15" d="M21.39,68.22c.29,.14-1.53,.02-2.2-.46,.37,0,.91,.18,.91,.18,0,0-1.56-.8-1.58-1.49,.85,.73,1.17,.94,2.86,1.76Z"/><path class="cls-5" d="M58.81,23.68s-.51-1.21-5.67-1.04c-.62-.31-.54-.76,.42-.99,.96-.23,6.68-.11,5.25,2.03Z"/><path class="cls-5" d="M44.88,21.5s-.96-1.78-6.34-1.41c-.85-.56-.37-1.38,1.83-1.3,2.2,.08,5.58,1.04,5.3,1.83-.28,.79-.79,.87-.79,.87Z"/><path class="cls-4" d="M36.79,16.44c0,.41-.27,.75-.59,.75s-.59-.33-.59-.75,.27-.75,.59-.75,.59,.33,.59,.75Z"/><path class="cls-5" d="M64.03,21.77c0,.37-.26,.66-.58,.66s-.58-.3-.58-.66,.26-.66,.58-.66,.58,.3,.58,.66Z"/><path class="cls-6" d="M32.03,8.72c0,.22-.37,.39-.83,.39s-.83-.18-.83-.39,.37-.39,.83-.39,.83,.18,.83,.39Z"/><path class="cls-1" d="M73.89,33.69s1.03,2.09,1.13,2.1c.75-.36,1.13-1.11,1.17-1.45,.04-.34-.98-1.52-1.43-1.62-.45-.09-.86,.96-.86,.96Z"/><path class="cls-5" d="M29.65,18.31c0,.34-.23,.61-.51,.61s-.51-.27-.51-.61,.23-.61,.51-.61,.51,.27,.51,.61Z"/><path class="cls-5" d="M29.12,21.02s-.26,1.98,.61,2.77c.88,.79,.93,1.9,.93,1.98,.58-.58,.67-1.84,.2-2.51-.47-.67-.93-1.4-.99-2.16-.06-.76-.76-.09-.76-.09Z"/><path class="cls-5" d="M51.04,46.36s-2.09-1.92-13.03-2.78c-.06-.89,1.78-1.37,6.1-1.06,4.32,.31,7.39,2.2,6.93,3.84Z"/><path class="cls-5" d="M57.74,47.87s-2.03-.31-2.32-.8c-.17-.69-.06-1.14-.06-1.14,0,0,2.26,.06,2.38,1.95Z"/><path class="cls-13" d="M36.12,53.51s-.12-.8,.31-.87c.33,.09,.45,.94,.35,.94-.21-.26-.38-.54-.38-.54,0,0-.09,.45-.28,.47Z"/><path class="cls-13" d="M39.96,54.62s-.94-.09-1.18,.71c.35-.16,.92-.73,1.18-.71Z"/><path class="cls-13" d="M40.43,54.85s-.78,0-1.06,.68c.24-.14,.94-.47,1.06-.68Z"/><path class="cls-13" d="M42.43,55.51s.14,.59,.38,.59,.31-.54,.31-.54c-.31,.09-.33,.28-.33,.28l-.35-.33Z"/><path class="cls-13" d="M42.81,57.42c-.02-.07,.05-.47-.33-.8-.19,.33-.07,.66-.07,.66l.4,.14Z"/><path class="cls-13" d="M42.24,57.32s.21-.75-.16-1.04c-.14,.33-.07,.99-.07,.99l.24,.05Z"/><path class="cls-13" d="M41.75,57.23s.02-.75-.14-1.06c-.14,.4-.24,.89-.28,.94,.16,.05,.42,.12,.42,.12Z"/><path class="cls-4" d="M24.86,43.32s-5.38,1.3-5.63,7.26c-1.02-1.53-1.66-4.42-1.15-5.41,.51-.99,5.89-3.09,5.89-3.09l.89,1.24Z"/><path class="cls-6" d="M65.33,75.44s-1.43-1.56-2.24-1.75c-.81-.19-1.27,.46-1.27,.46,.86-.03,1.75,.38,2.37,.97,.62,.59,1.13,.32,1.13,.32Z"/></svg>