<?xml version="1.0" encoding="UTF-8"?><svg id="Capa_1" xmlns="http://www.w3.org/2000/svg" viewBox="0 0 93.94 114.31"><defs><style>.cls-1{fill:#f93db1;}.cls-2{fill:#040f00;}.cls-3{fill:#040700;}.cls-4{fill:#010300;}.cls-5{fill:#010200;}.cls-6{fill:#030600;}.cls-7{fill:#030500;}.cls-8{fill:#050505;}.cls-9{fill:#020500;}.cls-10{fill:#020300;}.cls-11{fill:#020400;}.cls-12{fill:#eaecf5;}.cls-13{fill:#fdd704;}.cls-14{fill:#fefefe;}.cls-15{fill:#fcd704;}.cls-16{fill:#fed804;}.cls-17{fill:#65550c;}.cls-18{fill:#a0afb1;}.cls-19{fill:#9207a5;}.cls-20{fill:#b4c5c7;}.cls-21{fill:#332400;}.cls-22{fill:#bb8200;}.cls-23{fill:#b1b0e3;}.cls-24{fill:#bd8300;}.cls-25{fill:#125d00;}.cls-26{fill:#125e00;}.cls-27{fill:#115600;}.cls-28{fill:#115b00;}.cls-29{fill:#115700;}.cls-30{fill:#115800;}.cls-31{fill:#115900;}.cls-32{fill:#150;}.cls-33{fill:#115a00;}.cls-34{fill:#111c00;}.cls-35{fill:#162400;}.cls-36{fill:#1e1702;}.cls-37{fill:#125a00;}.cls-38{fill:#125b00;}.cls-39{fill:#125c00;}.cls-40{fill:#231800;}.cls-41{fill:#243d00;}.cls-42{fill:#223800;}.cls-43{fill:#092200;}.cls-44{fill:#0b0c0c;}.cls-45{fill:#414446;}.cls-46{fill:#115400;}.cls-47{fill:#07121c;}.cls-48{fill:#105100;}.cls-49{fill:#105000;}.cls-50{fill:#0f4b00;}.cls-51{fill:#104e00;}.cls-52{fill:#1d1601;}.cls-53{fill:#0f4e00;}.cls-54{fill:#451d4b;}.cls-55{fill:#437000;}.cls-56{fill:#362600;}.cls-57{fill:#191b1b;}.cls-58{fill:#182800;}.cls-59{fill:#0a1100;}.cls-60{fill:#3e6800;}.cls-61{fill:#0e0a00;}.cls-62{fill:#461d4c;}.cls-63{fill:#457300;}.cls-64{fill:#6db600;}.cls-65{fill:#61a100;}.cls-66{fill:#61a200;}.cls-67{fill:#5a9b00;}.cls-68{fill:#284300;}.cls-69{fill:#5a3f00;}.cls-70{fill:#4b3400;}.cls-71{fill:#294400;}.cls-72{fill:#291c00;}.cls-73{fill:#483200;}.cls-74{fill:#322300;}.cls-75{fill:#313233;}.cls-76{fill:#569600;}.cls-77{fill:#3c2900;}.cls-78{fill:#3b6200;}.cls-79{fill:#3c6400;}.cls-80{fill:#4c3500;}.cls-81{fill:#60a000;}.cls-82{fill:#4b4b4e;}.cls-83{fill:#5d9b00;}.cls-84{fill:#4f477a;}.cls-85{fill:#4f4779;}.cls-86{fill:#4d8100;}.cls-87{fill:#4e4e51;}.cls-88{fill:#515455;}</style></defs><g id="WrZreN"><g><path d="M31.91,106.96c-.07-.32-.33-.38-.5-.51-1.38-1.04-2.75-2.1-4.15-3.09-2.16-1.53-3.82-3.46-4.82-5.91-.46-1.13-1.13-1.78-2.36-2.1-1.54-.39-2.95-1.2-4.37-1.94-.39-.2-.62-.53-.84-.88-1.83-2.88-2.96-6.06-4.02-9.27-.46-1.39-.87-2.81-1.24-4.23-.13-.5-.34-.7-.84-.63-.23,.03-.46,0-.69,0-1.98-.08-2.71-.67-3.23-2.57-.29-1.07-.3-2.15,0-3.21,.56-2.07,.52-4.15-.05-6.19-1.23-4.43-1.98-8.96-2.69-13.49C.65,43.64-.21,34.28,.04,24.84,.23,18.09,.97,11.42,3.09,4.97c.24-.71,.5-1.41,.98-2,.73-.88,1.65-1.02,2.6-.39,.59,.39,1.05,.92,1.45,1.49,6.57,9.28,12.9,18.72,18.36,28.71,.84,1.54,1.64,3.1,2.39,4.68,.27,.57,.46,.6,.99,.31,7.94-4.28,16.32-5.52,25.14-3.58,1.87,.41,3.68,1.02,5.41,1.83,.42,.2,.6,.16,.81-.28,5.02-10.54,12.17-19.51,20.42-27.66,2.44-2.41,5.01-4.68,7.65-6.87,.48-.4,.96-.78,1.55-1.01,1.28-.5,2.24-.07,2.71,1.22,.34,.94,.38,1.92,.38,2.9,.03,7.74-.12,15.47-.67,23.18-.75,10.55-1.91,21.05-4.63,31.31-.47,1.77-1.01,3.51-1.62,5.24-.6,1.72-.46,3.4,.68,4.84,.96,1.21,1.08,2.53,.84,3.94-.32,1.89-1.4,3.35-2.74,4.65-.44,.43-1.02,.3-1.54,.34-.53,.04-.78,.2-.93,.77-1.02,3.86-2.18,7.69-3.8,11.35-.04,.09-.1,.18-.13,.28-.89,2.87-2.98,4.33-5.81,4.7-1.31,.17-1.82,.8-2.23,1.94-1.44,3.99-4.04,7.09-7.59,9.39-.8,.52-1.58,1.06-2.39,1.58,0,0-9.06,6.35-11.72,6.47s-6.31-.4-10.79-2.88-6.96-4.46-6.96-4.46Z"/><path class="cls-64" d="M1.08,34.03c.25,1.26,.5,2.52,.76,3.78,.05,.24,0,.59,.36,.59,.38,0,.28-.37,.28-.6,.02-2.52-.01-5.04-.29-7.56-.14-1.26-.4-1.4-1.59-.75,0-.58,0-1.11,0-1.63,.02-2.01,.01-4.02,.15-6.02,.03-.43,.18-.79,.37-1.16,.69-1.38,1.11-2.84,1.02-4.39-.03-.48,.16-1.14-.61-1.32-.14-.03-.1-.22-.08-.34,.11-.65,.22-1.31,.37-2.18,.3,.62,.51,1.06,.73,1.5,.1,.2,.18,.47,.47,.44,.24-.02,.29-.27,.36-.46,.7-1.93,.89-3.91,.48-5.92-.06-.31-.1-.71-.61-.59-.3,.02-.23-.16-.18-.33,.32-1.11,.56-2.25,1.13-3.28,.7-1.25,1.57-1.38,2.6-.38,1.1,1.07,1.87,2.39,2.74,3.63,5.57,7.99,10.93,16.12,15.71,24.62,1.12,2,2.18,4.04,3.16,6.11,.11,.23,.37,.46,.08,.76-.43,.46-.7,.43-.99-.18-4.31-8.93-9.4-17.4-14.97-25.6-1.61-2.36-3.3-4.67-4.96-7-.21-.29-.46-.56-.42-.96,.01-.16-.04-.33-.24-.33-.25-.01-.28,.19-.28,.37-.03,1.01-.02,2.01,.1,3.01,.8,6.57,2.85,12.8,5.04,19,2.91,8.27,6.3,16.34,9.99,24.29,1.23,2.65,2.78,5.11,4.73,7.31,1.03,1.17,2.19,2.16,3.64,2.81,3.3,1.5,6.13,3.67,8.71,6.19,2.76,2.69,5.15,5.69,7.16,8.98,.21,.35,.33,.67,.24,1.09-.61,2.75-.56,5.52-.14,8.29-.31,.59-.98,.62-1.46,.94-1.93,1.26-2.83,.99-4.91-.65-.4-.31-.79-.67-1.01-1.15-.05-.23-.19-.48,.16-.61,1.14,.03,1.41-.18,1.73-1.3,.05-.17,.09-.35,.13-.52,.43-2.03,.13-2.67-1.71-3.64-.64-.34-.83-.24-1,.49-.32,1.39-.25,2.75,.19,4.11,0,.17-.04,.31-.2,.4-.1,.02-.22,.04-.29-.04-.65-.81-1.61-1.3-2.2-2.17,.03-.95-.25-1.77-.97-2.42-.22-.2-.39-.58-.73-.47-.31,.1-.15,.51-.29,.75-.14,.29-.37,.47-.67,.28-1.4-.83-2.88-1.51-4.33-2.25-.06-.03-.09-.12-.12-.19,.18-.66,.27-1.31-.18-1.91-.17-.22-.33-.5-.66-.46-.3,.04-.36,.33-.47,.56-.2,.39-.17,.86-.48,1.2-.5,.06-.96,.03-1.27-.46,.49-1.9,.38-3.64-1.24-5.02-.52-.44-.79-.44-1.2,.11-.74,.99-1.05,2.02-.31,3.19,.22,.36,.68,.78,.23,1.3-1.28,.05-2.53-.28-3.79-.39-.33-.07-.43-.32-.51-.6-.08-.28-.22-.52-.43-.71-.44-.4-.71-.37-1.06,.11-.24,.32-.31,.76-.7,.99-.55,.12-1.1,.2-1.66,.22-.29,0-.77,.04-.47-.54,.47-.47,1.05-.82,1.4-1.42,.37-.66,.28-1.99-.22-2.55-.17-.19-.37-.26-.62-.27-.94-.03-1.96,.7-2.21,1.59-.31,1.1,0,1.9,.98,2.49,.09,.05,.18,.1,.26,.17,.39,.49-.07,.49-.34,.55-.8,.16-1.63,.17-2.44,.28-1.45,.19-2.87,.49-4.3,.79-.32,.07-.65,.21-.95-.04-.61-1.21-.66-2.47-.34-3.76,.24-.97,.38-1.95,.37-2.93,.26-.04,.27,.12,.33,.22,.77,1.33,1.01,1.37,2.06,.28,1.13-1.18,1.88-2.49,1.62-4.23-.17-1.14-.78-1.46-1.77-.86-.71,.44-1.27,1.05-1.81,1.67-.16,.19-.26,.44-.59,.54-.16-1.36-.78-2.59-.96-4,1.03,.91,2.01,.67,2.5-.59,.53-1.38,.74-2.83,.93-4.29,.05-.34-.06-.67-.22-.97-.56-1.07-1.14-2.14-1.68-3.22-.27-.54-.6-.53-1.05-.23-.77,.52-1.26,1.27-1.79,2.13-.36-.83-.37-1.62-.51-2.38-.25-1.37-.43-2.75-.63-4.12-.06-.39-.03-.62,.4-.91,.85-.57,1.01-1.59,1.09-2.54,.12-1.48-.22-2.92-.61-4.34-.17-.61-.5-.5-.81-.12-.26,.31-.47,.66-.84,1.17-.18-1.5-.37-2.79-.36-4.11-.07-1.49-.2-2.97-.28-4.46-.01-.21-.05-.48,.29-.52Z"/><path class="cls-64" d="M46.71,86.01c-.61-3.61-.58-7.21,.72-10.67,.63-1.68,1.95-2.96,3.17-4.25,3.8-4.05,8.33-7.05,13.51-9.02,1.16-.44,1.9-1.29,2.66-2.16,1.79-2.06,3.04-4.46,4.35-6.83,6.65-12.08,12.4-24.56,16.66-37.7,1.35-4.17,2.51-8.39,3.33-12.7,.05-.26,.28-.62-.07-.75-.43-.16-.37,.3-.44,.54-.08,.24-.26,.37-.45,.51-8.46,5.82-14.99,13.47-20.69,21.9-2.5,3.7-4.78,7.53-6.78,11.52-.14,.28-.21,.65-.71,.4-.48-.24-.38-.49-.21-.86,2.62-5.61,6.01-10.75,9.77-15.64,5.38-7,11.57-13.22,18.38-18.83,.66-.54,1.4-1.15,2.3-.78,.91,.37,1.01,1.33,1.07,2.17,.26,3.78,.04,7.57,.01,11.35,0,.22-.05,.39-.23,.54-.7,.62-1.22,1.39-1.84,2.08-.41,.45-.5,.93-.37,1.5,.16,.68,.39,1.33,.68,1.97,.32,.71,.53,.74,1.02,.16,.15-.17,.28-.37,.56-.54-.06,1.25-.12,2.5-.18,3.74-.05,.02-.1,.04-.16,.06-.26-.48-.52-.96-.78-1.44-.17-.32-.33-.64-.53-.94-.15-.21-.36-.39-.65-.33-.28,.06-.32,.32-.37,.54-.49,1.93-.42,3.78,.86,5.44,.3,.39,.6,.77,.9,1.15,.37,.39,.35,.8,.29,1.33-.1,.88-.15,1.78-.21,2.67-.05,.78-.14,1.56-.25,2.34-.43-.1-.33-.47-.33-.74,.01-.73-.11-1.43-.17-2.15-.02-.29-.05-.6-.39-.68-.38-.1-.56,.2-.7,.47-.7,1.4-1.01,2.91-1.22,4.44-.09,.67,.69,1.37,1.63,1.62,.25,.07,.51,.05,.76,.14,.12,.06,.2,.14,.16,.29-.11,1.02-.22,2.04-.34,3.05-.01,.1-.02,.26-.08,.29-1.03,.41-.75,1.45-1.05,2.2-.18,.45-.22,.95-.38,1.41-.27,.78-.27,1.5,.36,2.12,.17,.17,.24,.38,.19,.64-.15,.73-.29,1.46-.43,2.18-.45-.06-.28-.52-.49-.74-.29-.93-.37-1.92-.7-2.84-.1-.28-.13-.65-.48-.73-.38-.09-.62,.19-.84,.45-.52,.6-.97,1.25-.83,2.08,.29,1.75-.01,3.48,0,5.23,0,.26-.02,.52,.03,.77,.09,.45,.36,.74,.81,.82,.45,.08,.64-.24,.81-.57,.24-.46,.36-.96,.5-1.46,.08-.29,.11-.63,.49-.72,.29,.24,.16,.54,.1,.82-.23,1.6-.69,3.15-1.08,4.8-.45-.36-.8-.68-1.2-.96-.38-.27-.64-.15-.66,.33-.05,.8-.09,1.59-.11,2.39-.01,.41,.13,.77,.52,.97,.52,.27,.56,.64,.36,1.15-.28,.72-.49,1.46-.75,2.19-.65,1.87-.56,3.71,.64,5.3,1.18,1.56,1.08,3.13,.5,4.81-.08,.22-.19,.42-.28,.64-.37,.45-.91,.39-1.41,.46-1.32,.2-2.66,.05-3.98,.25-.3,.05-.62,.02-.88-.18-.07-.09-.1-.19-.03-.28,.69-.95,.58-2.05,.56-3.13,0-.38-.08-.75-.52-.84-.47-.1-.61,.27-.76,.61-.36,.86-.79,1.68-1.24,2.49-.17,.3-.28,.6-.31,.95-.3,.85-1.38,1.11-2.15,.52-.08-.58,.33-.96,.64-1.34,.8-.98,.69-2.12,.61-3.23-.04-.65-.5-.35-.79-.19-1.12,.64-2.07,1.5-2.98,2.41-.56,.56-.99,1.17-1.14,1.96-.22,1.48-.22,1.5-1.71,1.83-1.33,.29-2.64,.65-3.94,1.04-.29,.09-.59,.21-.86-.06-.16-.29-.03-.55,.09-.8,.24-.51,.03-.82-.43-1.05-.93-.47-1.37-.29-1.79,.7-.28,.68-.83,1.25-.76,2.05-.24,.58-.67,.74-1.25,.58-.24-.25-.19-.57-.2-.88-.01-.34-.04-.67-.08-1-.12-.9-.56-1.47-1.51-1.58-.57-.15-1.13-.32-1.7-.48-.58-.16-1.06-.07-1.46,.38q-.93,.87-.28,1.98c.37,.62,.66,1.28,.99,1.92,.16,.3,.31,.59,.64,.74,.4,.2,.5,.43,.06,.68-.53,.3-1.08,.55-1.61,.86-.52,.31-.75,.09-.77-.46,.05-.67-.22-1.19-.75-1.59-.26-.19-.48-.18-.63,.12-.25,.5-.47,1.01-.55,1.59-.07,.54,.32,.76,.63,1.06,.09,.24-.04,.39-.22,.51-.95,.64-1.94,1.22-2.89,1.87-.11,.07-.24,.07-.37,.05-.12-.05-.19-.13-.21-.25,0-.28,.21-.46,.36-.66,.8-1.14,1.1-2.42,1.05-3.79,0-.25,.02-.59-.25-.68-.28-.09-.43,.22-.61,.39-.81,.8-1.6,1.6-1.78,2.81-.11,.7,.11,1.38,.13,2.07,.03,.26,.17,.3,.38,.18,.13-.06,.26-.12,.41-.12,.17,.03,.3,.1,.27,.3-.41,.56-.98,.96-1.52,1.39-.34,.27-.74,.36-1.15,.19-.67-.27-1.49-.2-2.01-.84Z"/><path class="cls-47" d="M90.36,3.58c-1.43,6.7-3.46,13.05-5.81,19.3-2.4,6.38-5.15,12.61-8.12,18.75-.97,2.01-2.05,3.97-3.02,5.98-.08,.17-.13,.44-.39,.42-.23-.01-.19-.28-.26-.43-2.01-4.28-5.16-7.5-9.18-9.92-.46-.28-.7-.47-.39-1.07,2.67-5.2,5.72-10.16,9.18-14.88,2.26-3.09,4.7-6.02,7.28-8.85,3.12-3.41,6.58-6.41,10.33-9.08,.08-.06,.17-.1,.37-.22Z"/><path class="cls-12" d="M57.54,91.87c.46-.07,.91-.15,1.37-.23,1.65-.27,2.58,.48,2.66,2.16,.22,4.3-.6,8.4-2.3,12.35-.17,.4-.43,.67-.79,.9-1.47,.95-3.04,1.75-4.57,2.59-.59,.33-1.15,.29-1.54-.34-1.26-2.03-3.09-2.73-5.41-2.43-1.08,.14-2.15,.28-3.11,.84-.45,.27-.8,.63-1.09,1.07-.37,.57-.85,.72-1.53,.45-2.26-.91-4.37-2.08-6.44-3.34-.31-.19-.46-.47-.58-.78-1.57-3.83-2.45-7.81-2.69-11.93-.07-1.23,.91-2.08,2.16-1.87,1.58,.26,3.17,.43,4.76,.54,.33,.02,.67,.07,.97-.13,.36-.22,.71-.07,1.02,.09,.62,.31,1.19,.69,1.7,1.18,.78,.73,.89,1.58,.58,2.54-.22,.66-.58,1.25-.98,1.82-.48,.68-.34,1.28,.43,1.62,1.06,.46,2.17,.82,3.31,1.01,.75,.13,1.21-.42,1.81-.96-.55-.06-1.03,.28-1.4-.13-.36-.37-.48-.84-.48-1.33,0-.89-.06-1.78,.1-2.67,.06-.33,.03-.66-.07-.98-.23-1.01-.03-1.27,.98-1.29,1.1-.02,2.11,.33,2.93,1.03,.99,.84,1.96,.74,3,.22,.8-.4,1.57-.88,2.39-1.25,.9-.4,1.82-.62,2.79-.73Z"/><path class="cls-84" d="M43.49,58.46c.1-4.63,.13-9.26,.91-13.84,.14-.84,.32-1.66,.56-2.48,.13-.46,.37-.67,.82-.78,2.8-.68,5.47-.16,8.05,.94,3.95,1.69,7.21,4.35,10.17,7.4,.2,.21,.37,.41,.31,.74-.49,2.83-1.17,5.59-2.62,8.11-.18,.3-.39,.52-.71,.67-4.03,1.87-7.52,4.54-10.96,7.3-.48,.39-.95,.79-1.43,1.17-.46,.37-.83,.21-.93-.38-.08-.44,.12-.81,.33-1.16,1.43-2.41,2.4-5.01,3.13-7.7,.06-.24,.23-.53-.02-.71-.2-.14-.44,.07-.64,.17-2.18,1.07-4.18,2.43-6.25,3.68-.18,.11-.35,.38-.6,.22-.22-.15-.11-.43-.11-.65-.01-.9,0-1.8,0-2.7Z"/><path class="cls-47" d="M7.44,6.59c.76,1.03,1.54,2.04,2.27,3.09,3.57,5.15,7.03,10.38,10.21,15.78,2.54,4.32,4.92,8.74,7.11,13.25,.22,.45,.19,.72-.24,1.03-2.45,1.76-4.48,3.91-6.05,6.49-.09,.14-.1,.4-.32,.38-.21-.01-.22-.25-.29-.41-1.83-4.16-3.6-8.35-5.24-12.59-2.56-6.61-4.97-13.28-6.6-20.19-.49-2.07-.91-4.15-1.01-6.28,0-.17,0-.34,0-.51,.06-.01,.11-.03,.17-.04Z"/><path class="cls-85" d="M21.63,49.29c-.92-1.15-.98-1.72-.32-2.85,2.03-3.45,4.98-5.94,8.39-7.92,4.59-2.67,9.57-4.12,14.86-4.53,7.1-.55,13.73,.86,19.72,4.81,3.62,2.39,6.45,5.5,8.18,9.54,.19,.45,.22,.79-.06,1.21-.31,.47-.55,.99-.82,1.49-.05,.09-.12,.16-.23,.31-.5-1.07-.83-2.15-1.4-3.13-2.54-4.38-6.3-7.35-10.87-9.38-4.6-2.04-9.45-2.86-14.46-2.62-6.51,.31-12.5,2.2-17.62,6.38-2.13,1.74-3.87,3.84-5.12,6.32-.06,.13-.06,.32-.25,.36Z"/><path class="cls-24" d="M15.19,88.29c-.41-2.22-.97-4.39-1.75-6.5-.38-1.04-.73-2.09-1.13-3.12-.16-.41-.06-.54,.37-.57,1.52-.1,3.03-.08,4.55,0,.56,.03,.58,.43,.69,.77,1.19,3.7,2.41,7.39,3.77,11.03,1.23,3.3,2.49,6.59,4.14,9.73,.33,.63,.75,1.14,1.31,1.58,1.77,1.4,3.64,2.67,5.46,4-.07,.33,.18,.56,.28,.84,.08,.23,.27,.44,.07,.7-2.8-1.75-5.42-3.76-7.84-6-.98-.91-1.51-2.21-2.11-3.41-.77-1.55-1.51-3.11-2.23-4.67-.24-.53-.71-.94-.81-1.55-.31-.22-.36-.59-.52-.9,.21,.39,.29,.8,.34,1.23,.26,1.27,.98,2.35,1.43,3.61-.47,.05-.83-.16-1.2-.29-1.16-.42-2.27-.98-3.39-1.5-.71-.33-1.22-.82-1.6-1.49-2.32-4.06-3.66-8.49-4.92-12.95-.07-.23-.13-.51,.23-.51,.48,.01,1.08-.4,1.35,.42,.62,1.86,1.29,3.69,1.91,5.55,.48,1.46,.91,2.93,1.37,4.39,.23,.16,.27,.42,.34,.66,0,.07,.01,.14,0,.22,.02-.03,.01-.07,.01-.12,0-.18-.04-.34-.12-.5-.06-.21,.1-.42-.02-.63Z"/><path class="cls-16" d="M73.89,89.22c-1.02,1.88-1.78,3.88-2.44,5.9-1.66,5.07-4.85,8.81-9.35,11.58-3.05,1.88-6.14,3.69-9.38,5.21-2.03,.96-4.15,1.55-6.43,1.34-.28-.03-.55-.11-.83-.16-1.23-.85-2.16-3.01-1.87-4.37,.77-.89,1.84-1.06,2.92-1.2,.92-.12,1.85-.06,2.78,0,.35,.02,.64,.16,.91,.37,.68,.52,1.24,1.16,1.76,1.84,.57,.74,1.28,.93,2.11,.5,4.32-2.23,8.38-4.83,11.85-8.28,.3-.3,.52-.63,.72-.99,2.8-5.17,5-10.61,6.97-16.14,.06-.17,.13-.34,.19-.51,.17-.32,.44-.48,.79-.53,1.25-.19,2.47-.47,3.7-.76,.3-.07,.84-.36,.78,.39-.4,1.46-.78,2.93-1.2,4.39-.07,.23-.07,.45-.08,.68-.06,.11-.11,.22-.23,.28-1.08,0-2.1,.41-3.18,.49-.2-.23-.05-.48-.04-.76-.02,.15-.08,.25-.11,.35-.06,.18-.16,.33-.35,.39Z"/><path class="cls-26" d="M76.73,75.19c.44,.67,.99,.12,1.49,.14,.46,.02,.32-.36,.37-.61,.62,.94,1.35,.68,2.1,.18,.11-.07,.24-.11,.36-.02,.23,.25,.53,.14,.8,.13,1.61-.09,3.22-.2,4.83-.32,.23-.02,.45-.11,.67-.16-.41,.84-1.03,1.53-1.63,2.23-.25,.29-.54,.41-.93,.45-6.69,.7-13.32,1.74-19.73,3.86-4.03,1.34-7.76,3.27-11.07,5.97-.5,.41-1,.82-1.44,1.28-1.56,1.64-3.65,1.12-5.07,.22-.21-.13-.34-.33-.39-.56-.14-.65-.26-1.31-.38-1.96,.73,.23,1.47,.44,2.19,.69,.34,.12,.59,.02,.84-.19,.53-.44,1.06-.87,1.6-1.3,.08-.14,.18-.24,.35-.27,1.09-.69,2.17-1.37,3.25-2.07,.07-.05,.09-.17,.13-.26,.68-.08,1.21-.33,1.29-1.11,.01-.1,.12-.16,.24-.14,0,.39,.02,.66,.53,.34,.6-.37,1.24-.67,1.89-1.01-.14-.09-.26-.17-.38-.25,.14-.18,.35-.21,.55-.21,1.16,0,2.31-.04,3.15-1.03,.44-.08,.96-.03,1.12-.62,.16-.02,.22,.09,.3,.19,.64,.81,1.42,.75,1.97-.13,.22-.35,.26-.86,.76-1,.23,.27,.47,.06,.7,0,1.51-.39,3-.85,4.52-1.16,.75-.15,1.18-.37,1.02-1.2-.03-.15,0-.31,.12-.43,.26,.21,.21,.51,.23,.78,.03,.46,.31,.68,.71,.8,.78,.23,2.06-.24,2.53-.91,.11-.15,.13-.42,.43-.34Z"/><path class="cls-19" d="M73.17,84.3c-1.85,5.3-3.97,10.49-6.55,15.49-.51,.98-1.14,1.81-1.95,2.56-1.42,1.31-2.93,2.49-4.68,3.72,.5-1.5,1-2.78,1.33-4.12,.7-2.87,1-5.77,.79-8.72-.06-.86-.61-1.3-1.23-1.89,.93-.24,1.74-.45,2.55-.66,.15-.04,.3-.09,.44-.13,3.9-1.1,4.19-1.32,6.24-4.8,.25-.42,.49-.84,.74-1.27,.45-.44,.99-.69,1.63-.66,.32,.01,.69,.01,.68,.5Z"/><path class="cls-62" d="M31.07,103.35c-1.45-.92-2.86-1.94-4.11-3.1-.83-.77-1.2-1.97-1.67-3.02-2.39-5.3-4.24-10.81-6.1-16.31-.24-.71-.43-1.43-.67-2.13-.15-.44-.16-.55,.44-.58,1.5-.09,2.04,.77,2.58,1.96,1.52,3.37,3.47,6.47,5.93,9.24,.59,.66,1.28,1,2.14,1.05,.2,.01,.42-.01,.57,.17-.59,.29-.8,.79-.9,1.42-.34,2.18,0,4.31,.46,6.44,.31,1.41,.72,2.79,1.26,4.14,.09,.23,.26,.46,.08,.73Z"/><path class="cls-26" d="M25.36,76.26c.33,.36,.81,.32,1.23,.45,.46,.68,1.16,.68,1.87,.64,1.49,.78,3.07,1.41,4.47,2.36,.29,.2,.34-.08,.46-.21,.25,.2,.15,.46,.14,.71-.04,.5,.06,.98,.24,1.44,.24,.61,.93,1.08,1.46,.28,.08-.13,.2-.24,.36-.27,.8,.69,1.61,1.38,2.31,2.17,.55,.15,.65,.69,.93,1.07,.91,1.16,1.98,2.07,3.45,2.43,.36,.09,.71,.08,1.05-.1,.91-.47,1.83-.93,2.74-1.39,.08,.4,.15,.81,.24,1.21,.26,1.18,.26,1.17-.84,1.74-.79,.41-1.63,.62-2.5,.75-.71,.11-1.34-.07-1.97-.48-3.73-2.39-7.22-5.08-10.58-7.95-1.3-1.11-2.95-1.54-4.54-2.06-4.28-1.39-8.69-1.75-13.16-1.55-1.66,.08-3.32,.37-4.99,.3-.92-.04-1.66-.31-2-1.26,1.79-.34,3.56-.79,5.37-.98,.82-.09,1.63-.17,2.45-.24,.46-.04,.06-.19,.04-.29,.24-.24,.49-.24,.75-.03-.11,.19-.21,.35,.16,.31,.62-.07,1.25-.1,1.87-.15,.19,.11,.25,.32,.39,.47,.51,.54,1.15,.56,1.67,.04,.13-.13,.23-.28,.41-.33,1.36-.02,2.68,.31,4.02,.44,.71,.79,1.66,.31,2.48,.47Z"/><path class="cls-14" d="M55.84,91.45c-.3,.07-.71-.08-1.06-.36-.36-.29-.74-.57-1.04-.92-1.27-1.48-1.09-1.05,.1-2.22,.4-.39,.63-.46,1.07,.03,1.34,1.5,3.68,1.77,5.45,.73,1.76-1.04,2.61-3.2,1.92-5.14-.22-.63-.09-.81,.48-1.04,2.73-1.1,5.56-1.86,8.4-2.58,.59-.15,.66,0,.53,.53-.72,3.15-2.4,5.77-4.44,8.21-.12,.15-.33,.25-.51,.32-3.47,1.29-7.05,2.09-10.9,2.44Z"/><path class="cls-14" d="M21.34,78.5c3.49,.89,6.88,1.37,9.55,3.77,.35,.32,.49,.5,.23,.99-1.01,1.95-.47,4.26,1.24,5.54,1.73,1.3,4.04,1.21,5.67-.29,.4-.36,.65-.37,1.03-.04,.27,.23,.58,.43,.91,.59,.67,.31,.69,.63,.2,1.18-.7,.78-1.43,1.16-2.54,1.02-2.84-.35-5.66-.77-8.45-1.43-.35-.08-.68-.17-.95-.46-2.94-3.11-4.99-6.78-6.87-10.87Z"/><path class="cls-20" d="M57.54,91.87c-1.99,.38-3.67,1.47-5.46,2.33-.91,.44-1.82,.48-2.7-.31-.86-.76-1.93-1.15-3.12-1.09-.78,.04-.88,.16-.62,.94-.42,.43-.46,1.01-.61,1.55-.26,.96-.53,1.93-1.04,2.8-.28,.47-.16,.77,.37,.91,.32,.09,.65,.15,.96,.28,.46,.2,.65-.03,.77-.43,.32,.21,.58,.01,.86-.11,.23-.1,.48-.11,.62,.14,.14,.26-.14,.32-.28,.46-.8,.78-1.68,1.1-2.79,.61-.75-.33-1.57-.48-2.33-.78-1-.4-1.17-1.13-.53-1.98,.05-.06,.09-.13,.13-.19,1.97-2.72,.73-4.4-2.33-5.29,.52-.53,1.12-.98,1.54-1.6,.09-.13,.18-.25,.37-.19,1.71,.55,3.24-.04,4.7-.83,.53-.29,.86-.29,1.37,.03,1.4,.9,2.92,1.09,4.48,.4,.37-.16,.55-.08,.75,.22,.19,.28,.41,.53,.63,.78,.95,1.08,2.04,1.8,3.58,1.36,.21-.06,.46-.02,.69-.02Z"/><path class="cls-23" d="M39.06,48.99c1.07,.04,2.21,.49,2.92,1.69,.71,1.2,.48,2.37-.21,3.5-.64,1.05-1.46,1.93-2.48,2.61-1.47,.99-2.76,.95-4.12-.13-1.35-1.07-1.87-2.7-1.34-4.19,.67-1.88,2.96-3.49,5.23-3.48Z"/><path class="cls-19" d="M31.07,103.35c-1.37-3.27-2.22-6.65-2.13-10.22,.02-.58,.16-1.16,.24-1.75,.08-.59,.4-.85,.99-.75,.58,.12,1.15,.25,1.73,.37,0,.06,.02,.14,0,.15-1.12,.59-1,1.6-.91,2.61,.3,3.66,1.04,7.21,2.34,10.65,.05,.14,.14,.28-.01,.5-.77-.48-1.54-.97-2.25-1.56Z"/><path class="cls-25" d="M3.46,57.63c.31-1.11,.95-2.08,1.88-2.86,.25-.21,.38,.03,.47,.2,.56,1.04,1.18,2.05,1.63,3.14,.15,.37,.04,.7-.01,1.05-.18,1.16-.41,2.32-.77,3.44-.15,.47-.47,.79-.88,.9-.39,.1-.57-.36-.79-.63-.87-1.06-1.02-2.38-1.27-3.66-.1-.5-.17-1.01-.26-1.57Z"/><path class="cls-24" d="M74.39,89.09c.17,.18,.36,.04,.49-.03,.89-.43,1.83-.47,2.79-.41,.18,.43,0,.85-.03,1.27-.12,.31-.19,.64-.17,.88-.04-.07,.05-.24,.04-.41,.19-.42,.08-.94,.45-1.29-.02-.31-.03-.61,.3-.78,.23,.39,.61,.62,.92,.93-.13,.3-.3,.6-.39,.91-.86,2.93-3.2,3.85-5.86,4.35-.46,.09-.69,.05-.45-.52,.64-1.45,1.14-2.94,1.61-4.45,.17-.11,0-.32,.12-.45,.06-.04,.12-.04,.18,0Z"/><path class="cls-24" d="M79.08,83.4c-.05-.3-.2-.35-.49-.27-1.4,.39-2.81,.7-4.26,.89-.19,.02-.35,.18-.53,.28,.51-1.56,1.03-3.13,1.53-4.69,.11-.36,.27-.56,.67-.62,1.43-.21,2.85-.45,4.27-.68,.34-.05,.57-.04,.4,.43-.54,1.55-1.06,3.11-1.59,4.67Z"/><path class="cls-23" d="M40.16,44.53c-1.39,0-2.25-.42-2.46-1.12-.21-.68,.27-1.53,1.29-2.17,1.19-.75,2.49-1.1,3.9-.88,.65,.1,1.29,.31,1.52,1.01,.25,.75-.18,1.29-.7,1.76-1.06,.96-2.35,1.34-3.56,1.41Z"/><path class="cls-1" d="M61.93,84.78c0,1.72-.95,3.12-2.45,3.72-1.45,.58-3.18,.21-4.18-.91-.18-.2-.6-.47-.13-.72,.39-.2,.61-1.05,1.3-.41,.84,.78,1.88,.9,2.76,.37,.89-.53,1.26-1.46,.98-2.6-.21-.89,.61-.74,.98-.97,.44-.26,.45,.25,.55,.5,.15,.36,.17,.75,.17,1.02Z"/><path class="cls-1" d="M35.26,89.12c-2.97,0-4.85-2.83-3.75-5.33,.1-.22,.14-.78,.55-.5,.36,.24,1.06,.38,.84,1.09-.19,.59-.23,1.16,0,1.74,.51,1.35,2.14,1.87,3.41,1.1,.42-.25,1.32,.02,1.54,.45,.12,.24-.08,.33-.2,.44-.73,.68-1.6,1.01-2.38,1.02Z"/><path class="cls-13" d="M32.95,106.74c-.17-.39-.33-.79-.51-1.17-.09-.2-.11-.34,.16-.36,2.52,1.58,5.04,3.14,7.78,4.33,.52,.62,.46,1.05-.18,1.42-2.53-1.21-4.96-2.58-7.25-4.21Z"/><path class="cls-15" d="M79.17,89.25c-.49-.13-.98-.25-.92-.93,.47-1.89,1.1-3.72,1.71-5.57,.2-.73,.77-1.11,1.41-1.39,.27-.12,.58-.18,.46,.32-.74,2.58-1.58,5.11-2.67,7.56Z"/><path class="cls-54" d="M73.17,84.3c-.4-.52-.91-.31-1.39-.18-.32,.09-.62,.23-.92,.34,.63-1.35,1.21-2.72,1.45-4.2,.11-.66,.55-.69,1.04-.77,1.53-.27,1.54-.28,1.06,1.18-.4,1.21-.82,2.42-1.23,3.63Z"/><path class="cls-25" d="M9.3,67.27c-.21,1.17-1,2.2-1.99,3.13-.2,.18-.3,.02-.43-.12-.76-.85-.8-2.14-.15-3.05,.38-.53,.87-.93,1.38-1.32,.67-.51,.97-.39,1.13,.45,.04,.22,.03,.46,.05,.91Z"/><path class="cls-24" d="M40.19,110.95c.43-.43,.43-.91,.18-1.42,.16,.06,.33,.1,.49,.17,1.18,.5,1.7,.35,2.47-.71,.07-.1,.17-.18,.26-.27,.18,1.65,.74,3.13,1.87,4.37-1.5-.35-2.86-1.06-4.26-1.64-.35-.15-.68-.33-1.02-.5Z"/><path class="cls-39" d="M91.09,21.78c.57,1.11,1.21,2.07,1.63,3.09,.34,.81,.11,1.8-.12,2.71-1.64-1.36-2.38-4.02-1.51-5.79Z"/><path class="cls-39" d="M2.61,42.54c.46,1.85,.84,3.59,.11,5.36-.07,.18-.13,.43-.37,.44-.22,.01-.31-.22-.33-.37-.26-1.81-1-3.66,.59-5.43Z"/><path class="cls-22" d="M81.84,81.68c-.05-.27-.15-.32-.4-.17-.56,.34-1.13,.64-1.47,1.24,.47-1.41,.94-2.81,1.42-4.21,.11-.31,1.06-.65,1.31-.5,.18,.11,.11,.27,.07,.41-.31,1.08-.62,2.16-.93,3.24Z"/><path class="cls-38" d="M93.23,15.37c.1,1.6,.12,2.95-.73,4.13-.1,.14-.11,.38-.33,.39-.26,0-.28-.26-.37-.43-.63-1.16-.48-2.19,.51-3.08,.28-.26,.52-.56,.92-1Z"/><path class="cls-39" d="M3,13.36c-1-1.43-.97-2.81-.49-4.23,.05-.16,.19-.3,.31-.43,.12-.13,.23-.33,.42-.29,.24,.05,.14,.29,.17,.45,.34,1.49-.02,2.92-.42,4.49Z"/><path class="cls-30" d="M86.94,58.71s0-.05,0-.08c.07-.34-.17-.75,.16-1.01,.13-.1,.37,.06,.45,.21,.22,.36,.77,.6,.47,1.18-.09,.18-.11,.4-.17,.59-.07,.21-.07,.54-.36,.51-.31-.04-.57-.24-.56-.63,0-.26,0-.52,0-.77Z"/><path class="cls-50" d="M1.38,29.78c.47,1.43,.51,2.91,.41,4.39-.3-1.45-.7-2.89-.41-4.39Z"/><path class="cls-53" d="M1.41,15.91c.25,1.18,.13,2.32-.42,3.4-.04-1.15,.13-2.28,.42-3.4Z"/><path class="cls-81" d="M91.88,34.49c.33-.58,.16-1.24,.27-1.86,.21-1.2,.22-2.42,.34-3.64,.03-.35-.31-.53-.3-.84,.38,.19,.48,.49,.44,.89-.2,2.12-.4,4.24-.6,6.37-.39-.04-.29-.35-.32-.58,.02-.13,.06-.25,.17-.34Z"/><path class="cls-48" d="M91.05,42.87c0,1.16-.16,2.3-.53,3.41-.3-1.2,.3-2.28,.53-3.41Z"/><path class="cls-83" d="M89.42,52.91c-.06-.26,.1-.56-.15-.79-.25-1.09,.06-2.1,.44-3.09,.31,.17,.03,.59,.32,.77-.11,1.05-.28,2.1-.61,3.11Z"/><path class="cls-66" d="M1.08,34.03c-.31,.78-.19,1.61-.1,2.39,.11,.87,.08,1.72,.09,2.58-.23-1.34-.28-2.69-.31-4.04-.13-.65-.04-1.3-.06-1.95,0-.14,.05-.24,.22-.22,.04,.41,.22,.81,.15,1.23Z"/><path class="cls-86" d="M91.86,34.77c.06,.21-.05,.47,.17,.64,0,.84-.1,1.67-.29,2.5-.07-.07-.14-.13-.2-.2-.21-.91-.02-1.81,.05-2.71,.01-.13,.12-.22,.26-.24Z"/><path class="cls-60" d="M.92,32.8c-.34,.7-.02,1.45-.16,2.17-.27-.97-.1-1.96-.15-2.94-.07-.18-.12-.34,.17-.33,.07,.36,.21,.72,.14,1.1Z"/><path class="cls-52" d="M77.96,89.1c0,.49-.22,.92-.32,1.38-.38-.04-.17-.29-.17-.47,.07-.45,.13-.91,.2-1.36,.04-.06,.09-.12,.13-.18,.06,.21-.07,.47,.16,.63Z"/><path class="cls-21" d="M19.79,91.44c-.26-.44-.42-.91-.48-1.59,.36,.48,.58,.83,.66,1.26-.14,.07-.15,.21-.18,.33Z"/><path class="cls-71" d="M.78,31.7c-.13,.07-.15,.2-.17,.33-.23-.32-.14-.64,0-1.11,.23,.32,.17,.56,.18,.78Z"/><path class="cls-72" d="M15.17,89.4c-.07-.25-.14-.49-.21-.74,.16-.08,.18-.23,.22-.37,.16,.18,.13,.41,.15,.62,0,.18,.21,.43-.16,.49Z"/><path class="cls-36" d="M74.27,89.12c-.05,.15,.02,.34-.18,.43-.01-.14-.06-.26-.2-.32,.07-.15,.13-.3,.2-.44,.28,0,.26,.15,.18,.33Z"/><path class="cls-63" d="M3.07,7.09c.06,.11,.12,.22,.18,.33-.05,.12-.17,.28-.26,.2-.16-.16-.07-.37,.07-.53Z"/><path class="cls-5" d="M32.31,70.21c.03-.77,.4-1.43,.79-2.06,.31-.51,.68-.52,1.13-.11,1.06,.95,1.2,1.87,.34,3.37-.26,.45-.22,.64,.18,.91,.43,.28,.82,.62,1.21,.95,.31,.26,.51,.27,.66-.17,.16-.48,.15-1.13,.96-1.04,.77,.08,1.1,.58,1.3,1.23,.17,.54,.26,1.11,.21,1.67-.05,.58,.06,1.06,.53,1.43q-.11,.25-.48,.02c-.33-.03-.34,.26-.43,.45-.3,.61-.68,1.15-1.16,1.62-.73,.73-1.6,.55-1.97-.42-.26-.69-.27-1.41-.02-2.11,.15-.41,.31-.82,.46-1.22-.06-.13-.04-.27-.05-.41-.24-.65-.9-.87-1.35-1.31-.28-.27-.6-.48-.97-.71,.23,.36,.79,.41,.74,.94-.1,.16-.22,.19-.38,.08-1.11-.69-2.23-1.38-3.34-2.09-.39-.25-.59-.35-.85,.2-.32,.68-.93,1.16-1.63,1.47-.51,.23-.95,.11-1.07-.48-.21-1.11-.54-2.21-.42-3.35,.03-.32-.18-.43-.38-.66,.34,.04,.56,.06,.64-.29,.1-.42,.24-.85,.45-1.23,.22-.41,.24-1.07,1.02-.91,1.12,.23,1.85,.79,1.84,1.56,0,.74-.05,1.49-.12,2.23-.04,.41,.08,.68,.44,.88,.53,.3,1.05,.63,1.6,.97,.15-.36,.12-.64-.06-.91-.09-.22,.13-.34,.17-.52Z"/><path class="cls-4" d="M3.91,34.16c.09-1.76,.28-3.34,1.37-4.65,.54-.65,.74-.65,1.16,.1,.76,1.37,1.48,2.77,2.27,4.12,.54,.93,.54,1.85,.2,2.82-.38,1.1-.92,2.12-1.47,3.14-.26,.49-.54,.51-.84,.04-.79-1.21-1.58-2.4-2.36-3.62-.41-.65-.16-1.41-.33-1.95Z"/><path class="cls-10" d="M9.57,48.23c.01,.82-.14,1.57-.75,2.2-.36,.37-.64,.8-.97,1.2-.72,.89-1.97,1.09-2.95,.48-.57-.36-.84-.81-.67-1.55,.34-1.46,.69-2.9,1.37-4.25,.23-.46,.46-.93,.78-1.33,1.27-1.58,1.34-1.85,2.49,.2,.53,.93,.67,1.99,.7,3.05Z"/><path class="cls-11" d="M13.46,58.08c.06-.79,.1-1.58,.18-2.37,.12-1.11,.87-1.83,1.67-2.49,.29-.24,.57-.19,.73,.2,.6,1.45,1.34,2.88,1.52,4.44,.15,1.32-.47,2.55-1.3,3.61-.25,.32-.53,.24-.79-.01-.58-.58-1.17-1.15-1.75-1.74-.47-.48-.14-1.08-.27-1.63Z"/><path class="cls-11" d="M25.57,65.8c.03,1.27-.67,2.11-1.53,2.84-.35,.3-.7,.26-.94-.21-.63-1.21-1.32-2.39-2.08-3.53-.14-.21-.18-.43-.11-.66,.23-.76,.46-1.53,.72-2.28,.16-.46,.45-.59,.97-.45,2.29,.58,2.43,.71,2.79,3.03,.07,.43,.13,.87,.18,1.26Z"/><path class="cls-10" d="M4.91,26.2c-.04,.34-.06,.68-.14,1-.22,.92-1.06,1.29-1.91,.88-1.5-.73-1.71-1.15-1.54-2.79,.12-1.2,.13-2.42,.34-3.61,.06-.34,.12-.71,.53-.75,.4-.05,.59,.29,.73,.59,.5,1.07,.96,2.16,1.7,3.11,.33,.43,.18,1.05,.29,1.57Z"/><path class="cls-10" d="M13.51,43.97c0,1.2-.42,2.21-1.3,3.03-.25,.24-.48,.39-.78,.06-1.06-1.15-2.01-2.36-2.37-3.92-.28-1.21,.49-2.53,1.67-2.96,.3-.11,.53-.06,.79,.11,1.1,.73,2,2.37,2,3.67Z"/><path class="cls-11" d="M21.23,70.52c-.02,.54-.04,1.01-.17,1.46-.29,.96-1.04,1.31-1.91,.83-1.09-.6-1.67-1.59-1.8-2.81-.12-1.19,.11-2.36,.42-3.51,.16-.59,.46-.54,.82-.19,.85,.83,1.61,1.74,2.35,2.66,.39,.49,.27,1.08,.29,1.56Z"/><path class="cls-11" d="M38.05,83.54c-.69-1.55-.49-3.12-.14-4.7,.1-.44,.35-.54,.74-.36,.9,.42,1.63,1.08,2.33,1.76,.1,.1,.17,.28,.17,.41-.06,1.16-.17,2.32-.74,3.36-.38,.69-.75,.76-1.54,.41-.5-.09-.67-.48-.82-.89Z"/><path class="cls-11" d="M11.66,63.31c.07-.44,.1-.95,.27-1.44,.21-.62,.56-.69,1.04-.32,.98,.78,1.7,1.79,2.35,2.84,.35,.56-.27,2.61-.81,3-.39,.27-.77,.28-1.11-.08-1.05-1.1-1.68-2.39-1.73-4Z"/><path class="cls-11" d="M25.36,76.26c-.3,.06-.6,.09-.88,.19-.74,.26-1.27,.07-1.6-.65-.26-.61-.53-1.23-.78-1.84-.35-.84,.33-2.75,1.12-3.19,.27-.15,.47-.08,.7,.09,1.67,1.23,2,2.96,1.82,4.88-.02,.25-.14,.44-.38,.53Z"/><path class="cls-11" d="M13.89,49.35c.08-1.03,.23-1.97,.51-2.88,.12-.4,.18-.94,.74-.97,.63-.03,1.27,.09,1.67,.64,.94,1.29,.9,3.07-.06,4.38-.74,1.01-1.09,1.06-2,.24-.44-.39-1.1-.69-.86-1.41Z"/><path class="cls-9" d="M32.97,75.66c-.06,.64-.1,1.28-.18,1.92-.04,.34,.05,.82-.45,.85-.56,.03-1.26,.23-1.6-.43-.46-.89-.89-1.84-.95-2.84-.06-.95,.47-1.77,1.11-2.46,.22-.24,.53-.22,.74,.05,.68,.86,1.55,1.64,1.33,2.92Z"/><path class="cls-9" d="M6.03,19.49c-.03,.76-.17,1.48-.62,2.11-.2,.28-.43,.46-.75,.13-1.19-1.25-1.98-2.63-1.56-4.44,.05-.22,.11-.45,.21-.66,.21-.44,.43-.99,.96-1.01,.45-.01,.52,.58,.69,.93,.46,.94,1.11,1.81,1.07,2.93Z"/><path class="cls-11" d="M11.44,71.83c-.13,.85-.35,1.89-.82,2.88-.17,.36-.41,.47-.8,.38-.51-.12-1.01-.24-1.39-.6-.51-.49-.71-1.03-.31-1.72,.59-1.02,1.18-2.04,2.17-2.75,.49-.35,.77-.28,.93,.32,.11,.42,.27,.83,.23,1.5Z"/><path class="cls-7" d="M11.73,55.34c-.11,.76-.01,1.73-.65,2.12-.51,.31-1.11-.45-1.65-.77-1.34-.8-1.33-.82-.85-2.32,.21-.66,.46-1.31,.92-1.85,.33-.39,.62-.46,.96,.05,.82,1.21,1.26,2.12,1.27,2.77Z"/><path class="cls-9" d="M14.35,75.01c-.25,.01-.5,.02-.75,.03-.89-.28-1.37-.91-1.37-1.83,0-.94,.15-1.81,1.19-2.29,1.67-.77,2.27-.5,2.58,1.32,.24,1.4-.69,2.09-1.65,2.77Z"/><path class="cls-6" d="M8.5,26.33c-.03,.46,0,1.22-.57,1.45-.6,.25-.95-.47-1.3-.87-.7-.8-.8-3.13-.22-4.03,.15-.24,.31-.44,.6-.17,.29,.26,1.49,3.08,1.49,3.62Z"/><path class="cls-7" d="M18.54,59.95c0-1.06,.27-2.03,.77-2.96,.25-.47,.53-.49,.92-.19,.7,.52,.91,1.08,.66,1.95-.27,.92-.69,1.78-1.35,2.49-.17,.18-.34,.43-.65,.31-.26-.1-.25-.38-.28-.6-.05-.33-.05-.67-.08-1Z"/><path class="cls-11" d="M35.59,81.67c-.26,.43-.45,1.02-1.09,.92-.67-.11-.91-.68-1.08-1.27-.18-.61-.06-1.21-.03-1.82,.02-.23,.01-.46,.05-.69,.07-.37,.3-.5,.59-.25,.95,.81,1.85,1.66,1.56,3.1Z"/><path class="cls-6" d="M43.59,84.8c.01,.79-.48,1.87-.86,1.92-.4,.05-.99-.85-1.13-1.7-.13-.81,.16-1.52,.51-2.21,.2-.39,.45-.37,.69-.03,.45,.62,.72,1.3,.78,2.02Z"/><path class="cls-3" d="M13.18,50.06c-.07,.6-.07,1.21-.64,1.51-.45,.24-.91,.02-1.29-.27-.5-.37-.53-1.33-.13-2.22,.29-.64,.93-.52,1.33-.44,.69,.14,.63,.88,.73,1.41Z"/><path class="cls-7" d="M11.95,37.19c-.01,.1,0,.29-.06,.46-.2,.53-.19,1.3-.9,1.35-.64,.04-1.34-1.39-1.13-2.09,.02-.07,.03-.15,.07-.22,.25-.48,.35-1.16,1.06-1.16,.52,0,.98,.82,.96,1.66Z"/><path class="cls-6" d="M28.46,77.34c-.92,.45-1.55,.24-1.87-.64,.05-.62,.22-1.2,.57-1.72,.16-.24,.33-.37,.63-.22,.83,.42,1.19,1.76,.67,2.58Z"/><path class="cls-6" d="M18.86,75.35c-.26,.62-.65,1.06-1.39,.9-.57-.12-1.06-.38-1.08-1.08,.09-.21,.14-.45,.27-.63,.25-.35,.32-.99,.89-.89,.61,.11,.97,.61,1.16,1.2,.05,.16-.03,.36,.14,.49Z"/><path class="cls-58" d="M34.02,73.33c.14-.02,.27-.04,.34-.18,.83,.09,1.28,.74,1.84,1.24-.05,.11-.11,.23-.16,.34-.67-.47-1.34-.93-2.01-1.4Z"/><path class="cls-35" d="M39.15,76.41c.16-.05,.33,.2,.48-.02,.45,.42,.9,.85,1.36,1.27,0,.25-.1,.28-.28,.13-.52-.46-1.03-.92-1.55-1.38Z"/><path class="cls-76" d="M38.05,83.54c.27,.3,.54,.59,.82,.89-.23,.15,0,.32-.03,.48-.31-.36-.62-.71-.93-1.07,.12-.06,.14-.18,.15-.3Z"/><path class="cls-55" d="M40.7,77.79c.11,0,.23,0,.28-.13,.24,.09,.33,.28,.41,.59-.32-.09-.53-.23-.69-.46Z"/><path class="cls-68" d="M32.31,70.21c.06,.21-.09,.35-.17,.52-.09-.06-.19-.12-.28-.18-.03-.15,.01-.23,.18-.18,.09-.05,.18-.1,.27-.15Z"/><path class="cls-78" d="M32.04,70.36c-.06,.06-.12,.12-.18,.18-.15-.08-.3-.18-.37-.4,.26-.08,.4,.09,.55,.21Z"/><path class="cls-4" d="M89.71,49.04c-.02,1.05-.34,2.06-.44,3.09-.28,.75-.36,1.56-.75,2.27-.22,.41-.39,.87-1.03,.7-.61-.17-1.02-.51-1.04-1.17-.01-.44,0-.88,.04-1.31,.11-1.65,.13-3.29-.04-4.94-.07-.74,.95-2.2,1.64-2.46,.45-.17,.66,.04,.8,.45,.37,1.1,.58,2.24,.82,3.37Z"/><path class="cls-10" d="M86.02,60.75c-.39,1.27-.9,2.7-1.96,3.82-.41,.43-1.06,.38-1.59,.07-.5-.29-.53-.76-.42-1.29,.32-1.46,.5-2.94,.36-4.45-.07-.73,1.17-2.77,1.83-3.1,.32-.16,.54-.11,.67,.23,.54,1.45,.96,2.93,1.12,4.71Z"/><path class="cls-10" d="M80.4,51.42c.03-.15,.02-.35,.09-.5,.68-1.39,1.33-2.8,2.38-3.96,.2-.22,.42-.55,.75-.47,.35,.09,.33,.48,.39,.78,.28,1.23,.53,2.47,.65,3.73,.14,1.51-.39,2.77-1.35,3.89-.34,.4-.64,.42-1.02,.02-.93-.99-1.75-2.03-1.89-3.48Z"/><path class="cls-11" d="M79.93,64.88c-.01,.88-.77,1.69-1.64,1.78-.22,.02-.4-.02-.56-.17-1.13-1.09-2.28-2.16-3.03-3.57-.44-.82-.21-1.58,.73-2.5,.8-.79,1.38-.86,2.27-.47,1.55,.68,1.94,2,2.09,3.49,.05,.49,.1,.97,.14,1.44Z"/><path class="cls-10" d="M76.73,75.19c-.44,1.25-1.52,1.46-2.62,1.51-.88,.04-1.23-.37-1.24-1.23,0-.2-.02-.41-.02-.61,.04-.39,.12-.78,.37-1.08,1.12-1.33,2.33-2.55,3.86-3.4,.88-.49,.97-.35,1.08,.63,.17,1.64-.49,2.95-1.42,4.19Z"/><path class="cls-11" d="M85.16,40.25c-.16,1.11-.45,2.2-1.01,3.2-.21,.37-.47,.46-.81,.17-1.74-1.48-2.41-2.58-1.81-4.59,.23-.76,.43-1.54,.83-2.23,.19-.33,.38-.69,.87-.63,.47,.07,.92,.18,1.11,.69,.41,1.09,.64,2.22,.81,3.38Z"/><path class="cls-10" d="M71.96,73.26c.02,1.94,.03,1.96-1.6,2.18-.79,.11-1.59,.16-2.38,.22-.63,.05-1.21-.08-1.49-.72-.3-.7-.06-1.38,.45-1.84,1.17-1.05,2.42-2,3.63-3,.36-.3,.54-.12,.71,.2,.53,1.01,.69,2.1,.67,2.96Z"/><path class="cls-11" d="M62.33,79.21c-.31,1.15-1.31,1.1-2.18,1.22-.5,.07-1.01,.02-1.52,.02-.38-.03-.47-.35-.61-.61-.41-.76-.8-1.54-1.21-2.3-.59-1.07-.6-1.07,.42-1.9,.6-.59,1.3-.63,2.04-.32,.4,.17,.82,.24,1.25,.32,1.34,.19,1.39,.25,1.71,1.53,.17,.68,.17,1.36,.11,2.05Z"/><path class="cls-9" d="M63.72,70.51c-.02-1.43,.61-2.64,1.43-3.74,.59-.78,.97-.69,1.5,.11,1.45,2.19,.73,3.85-.96,5.9-.26,.32-.52,.25-.76-.05-.46-.56-.84-1.17-1.05-1.87-.07-.11-.27-.17-.16-.36Z"/><path class="cls-9" d="M91.86,34.77c-.25,.97-.02,1.98-.32,2.94-1.74,.12-2.79-1.02-2.43-2.69,.27-1.28,.54-2.57,1.11-3.76,.19-.4,.42-.72,.93-.62,.52,.1,.6,.48,.61,.93,.03,.98,.08,1.95,.12,2.93,0,.09-.01,.19-.02,.28Z"/><path class="cls-11" d="M85.69,29.23c0-.33-.04-.6,.13-.82,.71-.95,1.41-1.9,2.12-2.84,.2-.26,.49-.3,.58,.06,.5,2.03,1,4.07-.42,5.98-.64,.85-.99,.87-1.63,0-.54-.73-.75-1.57-.78-2.38Z"/><path class="cls-9" d="M51.66,77.18c.79-1.12,1.99-1.81,2.99-2.71,.41-.36,.77-.68,1-1.2,.47-1.08,.87-1.28,1.59-.92,.24,.13,.58,.14,.66,.49,.04,.05,.07,.11,.11,.16,.14,.12,.03,.63,.46,.3h0c.11-.07,.24-.09,.31,.03,.07,.12-.03,.22-.14,.28-.52,.43-1.06,.84-1.44,1.43-.28,.44-.73,.73-1.27,.75-.34,.01-.56,.19-.83,.33-.16,.03-.23-.04-.2-.2,.15-.14,.32-.26,.43-.43,.17-.26,.13-.6-.04-.79-.13-.15-.35,.09-.51,.21-.98,.76-1.94,1.54-2.84,2.41-.18,.11-.3,.1-.28-.15Z"/><path class="cls-11" d="M90.07,40.79c-.08,1.09-.31,1.95-.67,2.79-.18,.42-.42,.54-.84,.33-.76-.38-1.51-.78-2.1-1.41-.49-.52-.61-1.13-.37-1.79,.39-1.06,1.11-1.91,1.88-2.71,.16-.17,.35-.26,.52-.04,.7,.91,1.48,1.79,1.59,2.84Z"/><path class="cls-9" d="M73.05,65.52c-.21,2.39-.48,2.55-2.68,2.07-1.18-.26-1.05-.31-1.13-1.52-.1-1.46,.35-2.59,1.42-3.55,.34-.3,.56-.32,.92-.07,.98,.7,1.48,1.71,1.46,3.06Z"/><path class="cls-11" d="M51.03,85.07l-.29,.18c-.26,.1-.47,.09-.61-.2-.01-.15,0-.31-.04-.46-.58-2.28,.64-3.79,2.19-5.16,.45-.4,.62-.17,.67,.3,.22,1.88-.1,3.59-1.47,5.01-.04,.28-.3,.23-.46,.32Z"/><path class="cls-9" d="M76.23,51.97c.08-1.45,.4-2.84,1.16-4.1,.12-.19,.23-.46,.48-.45,.31,.01,.38,.32,.46,.55,.52,1.61,.16,3.14-.48,4.63-.04,.09-.07,.2-.13,.28-.22,.31-.25,.97-.73,.84-.48-.13-.76-.65-.77-1.22,0-.18,0-.36,0-.54Z"/><path class="cls-7" d="M57.9,72.85c-.22-.16-.44-.33-.66-.49,.54-.13,1.14-.1,.61-1.01-.39-.67-.14-1.48,.32-2.1,.52-.7,1.13-1.32,1.71-1.98,.34-.38,.59-.21,.75,.17,.4,.96,.79,1.81,0,2.91-.56,.79-1.13,1.37-1.95,1.8-.3,.16-.68,.28-.78,.69Z"/><path class="cls-11" d="M80.87,56.6c-.07,.53-.15,1.17-.23,1.8-.05,.38-.24,.51-.64,.47-1.22-.15-2.2-.68-2.9-1.7-.45-.65-.41-1.13,.19-1.61,.81-.65,1.79-.89,2.78-1.09,.32-.07,.45,.16,.55,.42,.19,.52,.22,1.05,.25,1.71Z"/><path class="cls-11" d="M81.06,74.88c-.24,.14-.47,.3-.72,.43-1.1,.57-1.31,.5-1.75-.59-.05-.3,.09-.54,.25-.79,.61-.93,1.03-1.95,1.45-2.97,.1-.26,.23-.45,.55-.43,.34,.02,.67,.04,.86,.39,.46,.82,.06,3.33-.65,3.97Z"/><path class="cls-11" d="M86.38,71c-.22,.76-.37,1.49-.65,2.17-.17,.42-.56,.79-1.09,.68-.52-.11-.46-.6-.52-1-.17-1.06-.35-2.12-.53-3.18-.04-.25-.14-.52,.11-.71,.26-.19,.55-.15,.8,0,.8,.52,1.48,1.15,1.88,2.04Z"/><path class="cls-6" d="M81.5,44.88c0,.41,.03,.82,0,1.23-.04,.54-.38,.88-.85,1.1-.49,.23-.9,0-1.28-.28-.19-.14-.34-.32-.28-.59,.23-1.05,.42-2.11,.89-3.1,.23-.48,.59-.61,1.06-.54,.49,.07,.37,.51,.41,.8,.07,.45,.06,.92,.08,1.38h-.03Z"/><path class="cls-9" d="M66.48,77.65c-.18,.34-.37,.67-.54,1.01-.28,.56-.63,.93-1.36,.88-.68-.04-.91-.45-1.13-.96-.09-.51,.05-.94,.36-1.36,.2-.26,.33-.58,.44-.89,.31-.93,.49-1.04,1.47-.79,.17,.04,.34,.1,.51,.18,.75,.34,.84,.61,.5,1.37-.08,.19-.16,.37-.25,.56Z"/><path class="cls-6" d="M79.7,69.07c-.46,.03-.54-.23-.48-.54,.24-1.23,.94-2.24,1.76-3.12,.38-.41,.92,.01,1.35,.22,.39,.19,.23,.51,.11,.8-.15,.36-.29,.72-.43,1.08-.45,1.15-1.11,1.59-2.3,1.57Z"/><path class="cls-6" d="M74.77,57.25c-.08,.38-.14,.76-.25,1.13-.31,1.05-1.01,1.42-2.06,1.14-.43-.12-.5-.39-.4-.77,.23-.92,.75-1.69,1.29-2.44,.24-.34,.6-.18,.92-.08,.52,.17,.49,.6,.5,1.03Z"/><path class="cls-6" d="M93.04,11.28c-.32,.97-.62,1.93-1.2,2.76-.24,.34-.59,.3-.83-.04-.26-.35-.3-.75-.15-1.17,.25-.68,.46-1.36,.71-2.04,.1-.27,.09-.69,.47-.72,.41-.04,.61,.33,.79,.64,.1,.17,.14,.38,.21,.58Z"/><path class="cls-6" d="M53.82,72.9c-.09,.94-.24,1.86-.97,2.58-.34,.34-.68,.47-1.08,.18-.4-.29-.53-.68-.27-1.15,.39-.7,.77-1.39,1.28-2.01,.2-.24,.41-.53,.76-.42,.39,.13,.23,.51,.28,.82Z"/><path class="cls-6" d="M64.07,74.35c.02,.4-.78,1.57-1.08,1.58-.41,.02-1.78-1.07-1.81-1.44-.04-.52,1.16-1.93,1.63-1.92,.31,0,1.23,1.31,1.25,1.77Z"/><path class="cls-6" d="M74.53,70.19c-.03,.28-.06,.69-.1,1.09-.06,.52-.4,.82-.86,.99-.38,.14-.72,.02-.97-.28-.31-.38-.44-.79-.16-1.28,.17-.28,.3-.6,.39-.92,.15-.59,.41-1,1.11-.88,.7,.12,.59,.66,.59,1.27Z"/><path class="cls-6" d="M56.6,81.37c-.05,.11-.11,.22-.14,.34-.19,.99-.42,1.14-1.39,.9-.81-.16-.93-.71-.75-1.4,.07-.27,.16-.55,.29-.8,.19-.37,.22-1,.71-.99,.51,.01,.86,.51,1.12,.97,.17,.3,.2,.63,.16,.97Z"/><path class="cls-3" d="M85.15,36.34c.03-.42,.05-1.07,.11-1.71,.03-.35,.18-.55,.55-.28,1.09,.77,1.37,1.69,.84,2.88-.12,.27-.17,.67-.54,.68-.35,0-.59-.28-.8-.54-.19-.23-.24-.51-.16-1.02Z"/><path class="cls-59" d="M58.63,73.62c.1-.18,.08-.31-.16-.31,1.62-1.17,3.38-2.09,5.26-2.8,.05,.12,.11,.24,.16,.36-1.63,.62-3.08,1.57-4.58,2.43-.21,.12-.39,.35-.67,.32Z"/><path class="cls-9" d="M60.51,75.63c-.37,.05-.72,0-1.05-.15-.77-.34-1.52-.32-2.23,.16,.44-.59,.98-.77,1.68-.51,.52,.19,1.07,.34,1.6,.5Z"/><path class="cls-42" d="M54.9,75.93c.07,.07,.13,.13,.2,.2-.24,.34-.63,.51-.95,.76-.15,.04-.21-.03-.18-.18,.26-.32,.58-.56,.93-.78Z"/><path class="cls-34" d="M51.66,77.18c.06,.12,.16,.15,.28,.15-.19,.37-.62,.49-.86,.81-.16,.04-.22-.04-.2-.19,.18-.34,.5-.54,.78-.77Z"/><path class="cls-79" d="M53.97,76.71c.06,.06,.12,.12,.18,.18-.12,.2-.3,.31-.58,.38,.01-.31,.21-.43,.41-.56Z"/><path class="cls-41" d="M50.89,77.95c.07,.06,.13,.13,.2,.19-.14,.2-.29,.38-.58,.43,0-.33,.2-.48,.38-.63Z"/><path class="cls-59" d="M58.47,73.31c-.07,.14-.15,.32-.32,.24-.24-.1-.11-.36-.14-.54,.14,.13,.18,.39,.46,.3Z"/><path class="cls-67" d="M51.03,85.07c.15-.11,.31-.22,.46-.32,.06,.07,.13,.13,.19,.2-.08,.13-.18,.24-.35,.27-.1-.05-.21-.1-.31-.14Z"/><path class="cls-67" d="M50.13,85.05c.16,.18,.38,.19,.61,.2-.28,.19-.53,.27-.61-.2Z"/><path class="cls-20" d="M48.72,103.96c.18,0,.24,.17,.35,.27,.76,.62,.78,.74,.02,1.27-1.41,.99-2.97,1.23-4.62,.71-.76-.24-.84-.61-.39-1.33,.19-.12,.44-.11,.63-.23,.32-.12,.64-.24,.96-.36,.25,0,.46-.12,.7-.17,.78-.18,1.58,.08,2.36-.16Z"/><path class="cls-8" d="M46.08,98.86c-.04,.24,.34,.46,.06,.7-.21,.17-.44,.04-.66-.03-.52-.15-1.03-.32-1.55-.47-.4-.11-.51-.37-.31-.69,.8-1.32,1.11-2.81,1.51-4.27,.08-.28,.23-.39,.5-.35,.28,1.1-.02,2.2,0,3.29,0,.66,.02,1.28,.45,1.82Z"/><path class="cls-44" d="M50.72,100.52c-.37,.42-.84,.65-1.38,.77-1.85,.42-3.71,.61-5.6,.52-.26-.01-.52-.03-.75-.17,0-.34,.27-.21,.44-.24,.37-.05,.75,.08,1.11-.08,1.7-.12,3.38-.31,5.06-.6,.32-.05,.56-.18,.81-.34,.16-.09,.29-.11,.3,.13Z"/><path class="cls-75" d="M48.72,103.96c.01,.2-.1,.27-.28,.27-.73,0-1.47,.01-2.2,.02-.12,0-.21-.04-.29-.13,.9-.41,1.83-.35,2.76-.15Z"/><path class="cls-87" d="M44.55,101.32c-.46,.37-1.1-.09-1.55,.32-.35-.04-.61-.2-.89-.75,.89,.52,1.68,.38,2.45,.44Z"/><path class="cls-45" d="M45.67,104.44c-.28,.18-.6,.25-.92,.31-.17,.07-.21-.02-.19-.17,.24-.16,.48-.29,.77-.33,.14,0,.28,.03,.34,.18Z"/><path class="cls-57" d="M45.67,104.44c-.12-.04-.27-.04-.34-.18,.18-.2,.42-.11,.63-.15,.1,.04,.19,.09,.29,.13-.14,.21-.37,.16-.58,.19Z"/><path class="cls-82" d="M50.72,100.52c-.1-.04-.2-.09-.3-.13,.21-.15,.42-.3,.77-.55-.09,.43-.19,.62-.46,.68Z"/><path class="cls-88" d="M44.55,104.58c.06,.05,.13,.11,.19,.16-.2,.17-.43,.16-.67,.13,.12-.17,.29-.24,.48-.3Z"/><path class="cls-40" d="M13.72,79.05c.74-.24,1.49-.19,2.23-.05-.73,.3-1.48,.19-2.23,.05Z"/><path class="cls-77" d="M15.16,81.34c.47-.35,.89-.36,1.44-.25-.47,.35-.86,.46-1.44,.25Z"/><path class="cls-61" d="M14.64,80.14c.4-.25,.84-.22,1.28-.12-.39,.27-.83,.27-1.28,.12Z"/><path class="cls-80" d="M15.17,89.4c.19-.12,.12-.32,.16-.49,.18,.31,.17,.64,.12,1.02-.24-.14-.27-.33-.28-.53Z"/><path class="cls-17" d="M74.27,89.12c-.02-.13-.02-.28-.18-.33,.07-.29,.18-.56,.47-.77,.13,.43-.12,.74-.16,1.08-.04,0-.08,.01-.12,.03Z"/><path class="cls-69" d="M77.47,90.01c.05,.16-.02,.36,.17,.47,0,.2-.02,.39-.28,.53-.04-.37-.09-.7,.11-1.01Z"/><path class="cls-74" d="M78.55,79.83c-1.03-.24-1.21-.32-1.7-.8,.84,.08,1.52,.35,2.18,.65-.06,.37-.3,.16-.48,.15Z"/><path class="cls-56" d="M76.49,81.37c.56-.12,1.1-.08,1.7,.31-.71,.19-1.21-.03-1.7-.31Z"/><path class="cls-73" d="M76.86,80.3c.57-.25,.97-.02,1.37,.08,.09,.02,.2,.12,.13,.23-.04,.07-.17,.13-.25,.12-.39-.07-.8-.09-1.25-.42Z"/><path class="cls-70" d="M78.55,79.83c.16-.03,.36,.03,.48-.15,.07,.06,.2,.1,.21,.17,.02,.14-.12,.13-.2,.12-.16-.03-.32-.09-.48-.14Z"/><path class="cls-25" d="M36.03,76.93c-.08-.79,.39-1.41,.62-2.11,.08-.25,.21-.26,.39-.11,.1,.08,.19,.17,.28,.26,.39,.37,1.13,.55,1,1.22-.18,.87-.8,1.53-1.47,2.1-.25,.21-.42-.02-.57-.19-.28-.34-.27-.76-.25-1.17Z"/><path class="cls-39" d="M27.68,69c-.22-.06-.47-.07-.28-.44,.2-.38,.29-.82,.45-1.22,.12-.3,.17-.74,.58-.72,.5,.02,1.07,.25,1.18,.74,.17,.81,.22,1.68-.15,2.48-.02,.05-.14,.05-.21,.07-.54-.27-1.19-.36-1.57-.91Z"/><path class="cls-38" d="M28.91,70.09c.32,.28,.75,.53,.45,1.04-.33,.56-.75,1.05-1.4,1.22-.32,.08-.31-.3-.35-.49-.15-.7-.26-1.4-.38-2.1-.22-.59,.16-.62,.53-.48,.44,.16,.87,.4,1.16,.81Z"/><path class="cls-28" d="M34.56,69.54c-.09,.62-.26,1.15-.54,1.64-.11,.2-.27,.31-.51,.18-.34-.19-.72-.38-.7-.83,.03-.7,.32-1.33,.66-1.94,.1-.19,.26-.24,.44-.09,.34,.29,.59,.63,.65,1.03Z"/><path class="cls-33" d="M38.53,74.53c-.04,.22,.07,.45-.12,.55-.21,.12-.31-.12-.44-.22-.19-.14-.37-.28-.55-.42-.44-.35-.44-1.39-.02-1.76,.23-.19,.38-.02,.53,.12,.51,.49,.51,1.15,.6,1.73Z"/><path class="cls-65" d="M36.19,74.39c-.72-.25-1.15-.94-1.84-1.24-.39-.31-.79-.62-1.21-.94,.29-.21,.53-.18,.75-.02,.73,.57,1.45,1.14,2.17,1.72,.16,.13,.17,.3,.13,.49Z"/><path class="cls-2" d="M28.91,70.09c-.45-.09-.77-.4-1.13-.63-.41-.27-.55-.13-.55,.31-.49-.64,.27-.53,.46-.76,.53,.29,1.14,.44,1.57,.91-.14,.01-.27,.04-.34,.18Z"/><path class="cls-25" d="M4.48,34.25c.05-1.47,.25-2.75,.92-3.92,.27-.47,.5-.54,.79-.01,.68,1.27,1.33,2.55,2.07,3.79,.48,.81,.34,1.59,.06,2.36-.29,.79-.68,1.55-1.04,2.32-.09,.2-.26,.5-.48,.15-.79-1.25-1.84-2.35-2.23-3.83-.08-.32-.07-.66-.09-.85Z"/><path class="cls-25" d="M8.97,48.35c.25,.85-.44,1.45-.92,2.13-.18,.25-.38,.48-.57,.72-.5,.64-1.39,.84-2.13,.5-.43-.2-.63-.52-.54-.99,.4-2,.98-3.93,2.19-5.61,.56-.78,.71-.78,1.18,.03,.56,.95,.81,1.99,.79,3.22Z"/><path class="cls-25" d="M14.12,57.92c-.14-.9,.09-1.65,.14-2.42,.05-.66,.64-1.03,1.01-1.51,.2-.26,.36-.03,.44,.17,.51,1.21,1.09,2.41,1.27,3.71,.14,1.01-.41,1.94-.86,2.84-.11,.21-.27,.26-.42,.08-.77-.87-2.1-1.44-1.59-2.87Z"/><path class="cls-25" d="M21.49,64.27c.16-.66,.37-1.34,.67-2,.03-.06,.09-.13,.16-.16,.41-.19,2.18,.67,2.26,1.12,.16,.93,.31,1.86,.44,2.8,.06,.41-.81,1.87-1.14,2.04-.15,.07-.25,.04-.32-.09-.68-1.15-1.35-2.3-2.02-3.45-.04-.06-.03-.15-.04-.27Z"/><path class="cls-25" d="M2.33,21.76c.44,1.35,1.47,2.38,1.91,3.72,.05,.14,.09,.3,.08,.45-.02,.63,.11,1.43-.59,1.68-.65,.24-1.21-.35-1.66-.77-.45-.43-.25-1.09-.18-1.62,.14-1.14,.08-2.3,.44-3.46Z"/><path class="cls-25" d="M12.99,43.89c0,.95-.74,2.64-1.09,2.54-.72-.21-1.03-.94-1.43-1.52-.34-.49-.6-1.02-.78-1.59-.13-.43-.2-.89-.03-1.29,.25-.57,.62-1.17,1.26-1.27,.5-.08,.79,.49,1.1,.86,.58,.69,.95,1.46,.98,2.27Z"/><path class="cls-25" d="M18.35,66.8c.76,.89,1.46,1.67,2.11,2.49,.37,.47,.25,2.47-.12,2.89-.29,.34-.66,.25-.98,.05-.76-.47-1.28-1.16-1.39-2.03-.13-1.09-.08-2.2,.38-3.4Z"/><path class="cls-25" d="M40.53,81.28c-.14,.75-.19,1.53-.53,2.23-.31,.63-.65,.67-1.11,.15-.4-.45-.63-1.01-.67-1.61-.05-.82-.03-1.64,.12-2.46,.1-.56,.29-.49,.64-.24,.4,.28,.79,.57,1.15,.9,.31,.29,.48,.6,.4,1.03Z"/><path class="cls-25" d="M14.83,64.98c-.14,.56-.25,1.09-.42,1.59-.13,.38-.37,.53-.76,.21-1.01-.84-1.7-3.19-1.28-4.38,.08-.21,.15-.43,.41-.2,.78,.71,1.45,1.52,1.97,2.44,.06,.1,.05,.24,.07,.33Z"/><path class="cls-25" d="M25.21,75.01c.12,.53-.19,.74-.73,.86-.54,.13-.88,.05-1.1-.49-.25-.62-.55-1.22-.82-1.83-.16-.38,.43-1.93,.79-2.14,.26-.15,.37,.05,.52,.17,1.1,.86,1.31,2.07,1.34,3.43Z"/><path class="cls-25" d="M14.53,48.99c.02-.83,.21-1.55,.4-2.27,.07-.26,.09-.61,.47-.61,.33,0,.69,.07,.91,.34,.82,1.03,.73,2.83-.15,3.84-.36,.41-.64,.53-1.04,.05-.35-.42-.93-.72-.6-1.34Z"/><path class="cls-25" d="M32.35,75.73c-.03,.68,.02,1.17-.14,1.65-.06,.19-.02,.45-.26,.51-.25,.06-.52-.02-.71-.2-.79-.77-.99-3.03-.39-4.02,.26-.42,.44-.44,.77-.06,.59,.68,.88,1.43,.73,2.13Z"/><path class="cls-39" d="M4.19,16.35c.76,1.38,1.61,2.62,1.08,4.23-.16,.47-.32,.52-.67,.17-1.17-1.16-1.37-2.89-.4-4.4Z"/><path class="cls-39" d="M10.83,71.63c-.01,.78-.28,1.51-.47,2.25-.14,.51-.38,.74-.94,.51-.7-.29-1.03-.73-.82-1.24,.34-.82,.86-1.52,1.43-2.18,.14-.16,.29-.45,.55-.33,.22,.1,.24,.38,.25,.61,0,.13,0,.26,0,.39Z"/><path class="cls-39" d="M11.13,55.42s0,.05,0,.08c-.05,1.29-.24,1.4-1.33,.77q-1.06-.62-.56-2.07c.15-.43,.24-1.06,.69-1.12,.34-.05,.46,.6,.69,.93,.29,.43,.57,.87,.51,1.42Z"/><path class="cls-25" d="M12.83,73.07c0-1.11,.64-1.8,1.76-1.96,.21-.03,.34,.03,.46,.17,.8,.9,.23,2.87-.93,3.23-.62,.19-1.3-.57-1.29-1.44Z"/><path class="cls-31" d="M6.78,23.75c.48,.88,1.29,1.63,1.11,2.76-.03,.18,0,.39-.2,.46-.16,.05-.26-.13-.37-.22-1.03-.83-.58-1.94-.54-2.99Z"/><path class="cls-33" d="M19.23,60.69c-.25-1.25,.05-2.25,.48-3.23,.08-.19,.23-.16,.37-.03,.19,.18,.38,.37,.34,.66-.14,.92-.5,1.75-1.18,2.6Z"/><path class="cls-29" d="M33.88,80.35c0-.16,0-.29,0-.41,0-.18-.02-.4,.18-.46,.2-.06,.32,.14,.41,.28,.34,.5,.8,.97,.54,1.65-.09,.23-.14,.54-.45,.56-.31,.01-.4-.29-.49-.52-.14-.36-.24-.73-.19-1.09Z"/><path class="cls-46" d="M43.01,84.79c-.02,.43-.03,1.01-.34,1.05-.43,.05-.35-.55-.49-.87-.22-.47,.03-.89,.24-1.29,.02-.04,.17-.07,.19-.04,.29,.35,.37,.77,.4,1.16Z"/><path class="cls-31" d="M12.56,50.03c-.06,.44,.07,.97-.54,.98-.43,0-.62-.35-.56-.76,.06-.41-.01-.99,.57-1.03,.57-.04,.45,.5,.53,.81Z"/><path class="cls-32" d="M11.45,37.1c-.03,.12-.06,.28-.12,.42-.1,.24-.06,.68-.43,.6-.34-.08-.58-.41-.53-.83,.02-.15,.06-.31,.14-.43,.13-.23,.15-.65,.5-.59,.37,.07,.4,.48,.45,.84Z"/><path class="cls-32" d="M27.2,76.61c.05-.55,.12-1.04,.42-1.04,.42,0,.48,.52,.53,.89,.04,.28-.07,.54-.4,.53-.34-.02-.58-.2-.56-.38Z"/><path class="cls-31" d="M17.58,74.31c.35,.27,.66,.53,.61,.95-.04,.29-.26,.51-.61,.43-.27-.06-.62-.12-.53-.51,.08-.33,.21-.66,.53-.87Z"/><path class="cls-25" d="M88.31,45.76c.42,1.57,1.02,2.99,.7,4.58-.24,1.21-.46,2.42-.9,3.58-.1,.26-.18,.67-.6,.56-.39-.1-.52-.41-.5-.83,.12-2,.11-4,.02-6.01-.04-.81,.63-1.28,1.28-1.87Z"/><path class="cls-25" d="M85.42,60.49c-.18,1.22-.83,2.37-1.6,3.47-.24,.34-.65,.32-.99,.16-.35-.17-.22-.51-.18-.82,.16-1.42,.47-2.8,.33-4.27-.09-.92,.61-1.71,1.23-2.4,.22-.24,.3,.06,.35,.2,.37,1.15,.76,2.29,.86,3.65Z"/><path class="cls-25" d="M84.17,51.49c-.09,.93-.43,1.81-.97,2.6-.27,.39-.54,.4-.85,.02-.41-.49-.8-1.01-1.07-1.59-.32-.69-.31-1.36,.06-2.06,.51-.95,1.04-1.88,1.65-2.77,.09-.14,.19-.34,.41-.27,.18,.06,.11,.26,.14,.41,.28,1.2,.5,2.4,.62,3.66Z"/><path class="cls-25" d="M79.39,64.74c.06,.62-.29,.96-.79,1.22-.51,.26-.76-.11-1.04-.4-.85-.83-1.59-1.74-2.27-2.71-.58-.83,0-1.35,.43-1.89,.43-.54,.95-.85,1.68-.46,.9,.48,1.62,1.04,1.66,2.2,.03,.68,.21,1.36,.32,2.04Z"/><path class="cls-25" d="M77.42,70.86c.27,1.36,0,2.45-.8,3.43-.51,.63-.66,1.59-1.7,1.73-.51,.07-1.05,.29-1.44-.16-.37-.43-.12-.94,.06-1.39,.13-.32,.36-.62,.6-.89,.94-1.05,1.99-1.97,3.29-2.72Z"/><path class="cls-25" d="M81.81,40.48c.28-1.18,.49-2.32,1.02-3.36,.12-.23,.28-.34,.55-.32,.27,.03,.42,.19,.5,.42,.61,1.78,.96,3.56,.07,5.36-.19,.39-.37,.53-.73,.18-.69-.65-1.17-1.42-1.41-2.29Z"/><path class="cls-25" d="M71.46,73.48c0,1.16-.13,1.3-1.09,1.39-.74,.07-1.49,.1-2.22,.22-.45,.07-.89,.06-1.09-.33-.23-.44-.04-.95,.32-1.26,1.03-.89,2.11-1.72,3.16-2.58,.3-.25,.37-.07,.47,.18,.32,.83,.37,1.7,.44,2.38Z"/><path class="cls-25" d="M59.32,79.99c-.38,.01-.65-.13-.83-.47-.44-.84-.9-1.68-1.32-2.53-.27-.55,.63-1.48,1.35-1.34,.85,.17,1.73,.35,2.52,.68,.9,.38,.67,1.37,.78,2.11,.06,.41,.01,1.04-.61,1.19-.62,.15-1.26,.24-1.89,.35Z"/><path class="cls-25" d="M65.23,70.02c-.34-.11-.63,.29-.83,.02-.18-.23,.01-.54,.11-.8,.25-.67,.49-1.35,.96-1.91,.29-.34,.5-.45,.79,.04,.89,1.52,.65,3.35-.61,4.59-.26,.25-.42,.23-.6-.05-.06-.09-.1-.18-.16-.26-.61-.93-.6-1,.34-1.63Z"/><path class="cls-39" d="M91.26,33.84c0,.95,.04,1.89-.13,2.84-.07,.39-.17,.48-.54,.34-.84-.32-1.13-.85-.95-1.75,.24-1.18,.53-2.35,.98-3.47,.08-.19,.12-.53,.41-.47,.28,.05,.23,.36,.23,.59,0,.64,0,1.28,0,1.93Z"/><path class="cls-25" d="M88.08,26.49c.45,1.52,.62,2.94-.17,4.33-.16,.29-.31,.67-.67,.67-.34,0-.46-.4-.57-.66-.43-1-.66-2,.24-2.92,.41-.41,.65-.98,1.17-1.42Z"/><path class="cls-30" d="M57.33,73.16c.13,.87-.49,1.21-1.02,1.58-.32,.22-.32-.1-.32-.29,0-.9,.91-.84,1.34-1.29Z"/><path class="cls-43" d="M56.83,72.86c-.07,.06-.14,.15-.22,.18-.1,.04-.13-.07-.09-.12,.05-.07,.15-.12,.23-.18,.02,.03,.05,.07,.09,.12Z"/><path class="cls-25" d="M89.54,40.91c-.08,.38-.15,.73-.23,1.08-.39,1.58-.46,1.61-1.78,.68-1.09-.76-1.24-1.41-.55-2.53,.25-.41,.55-.8,.85-1.18,.14-.18,.34-.42,.55-.15,.51,.64,1.02,1.28,1.16,2.1Z"/><path class="cls-25" d="M72.55,65.5c-.03,.13-.08,.32-.12,.52q-.26,1.28-1.51,1.11c-.98-.13-1.02-.25-1.03-1.2-.01-.97,.05-1.87,.8-2.61,.39-.38,.68-.39,1.01,0,.5,.61,.78,1.31,.85,2.18Z"/><path class="cls-38" d="M50.61,83.54c-.18-1.41,.66-2.18,1.38-3.02,.08-.09,.18-.21,.32-.15,.19,.08,.13,.26,.13,.41-.03,1.04-.2,2.04-.82,2.92-.23,.32-.47,.79-.85,.68-.39-.11-.09-.64-.16-.83Z"/><path class="cls-33" d="M76.83,52.92c-.09-1.64,.21-3.06,.9-4.49,.53,1.13,.08,3.47-.9,4.49Z"/><path class="cls-39" d="M58.31,70.42c.18-.95,.92-1.63,1.63-2.35,.1-.1,.27-.13,.31,.03,.15,.51,.58,1.01,.09,1.58-.34,.39-.63,.81-.92,1.24-.19,.27-.39,.49-.76,.38-.42-.12-.33-.46-.35-.88Z"/><path class="cls-39" d="M80.28,56.67c0,.06,0,.35-.05,.62-.2,1.1-.28,1.16-1.31,.69-.69-.32-1.46-.81-1.46-1.54,0-.68,.89-.87,1.52-1.08,1.24-.41,1.3-.36,1.3,1.31Z"/><path class="cls-33" d="M81.36,72.13c-.16,1.07,.04,2.26-1.32,2.7-.26,.08-.53,.35-.77,.07-.22-.26,0-.55,.14-.77,.52-.77,.83-1.64,1.23-2.47,.08-.17,.06-.47,.32-.47,.32,0,.26,.33,.34,.53,.06,.14,.04,.3,.05,.41Z"/><path class="cls-33" d="M84.78,73.39c-.22-1.38-.4-2.58-.62-3.92,.73,.38,1.37,.84,1.47,1.52,.11,.77-.07,1.61-.85,2.4Z"/><path class="cls-37" d="M80.9,44.88c0,.38,.02,.77,0,1.15-.02,.41-.25,.7-.68,.66-.44-.05-.53-.32-.44-.78,.16-.78,.35-1.54,.66-2.27,.06-.13,.13-.3,.33-.24,.16,.05,.13,.21,.13,.33,0,.38,0,.77,0,1.15,0,0,0,0,0,0Z"/><path class="cls-39" d="M64.06,78.07c.25-.52,.5-1.22,.91-1.83,.23-.34,.71-.14,1.07,.02,.4,.19,.2,.49,.09,.72-.27,.58-.57,1.15-.9,1.7-.17,.28-.44,.45-.79,.3-.32-.14-.45-.41-.38-.92Z"/><path class="cls-38" d="M80.18,68.37c-.31,.04-.29-.16-.21-.38,.28-.73,.73-1.35,1.21-1.95,.21-.26,.49-.17,.61,.13,.23,.58-.88,2.16-1.51,2.2-.03,0-.05,0-.11,0Z"/><path class="cls-28" d="M73.16,58.94c-.43,.03-.52-.16-.35-.56,.2-.5,.49-.95,.79-1.39,.2-.29,.54-.3,.55,.01,.01,.62-.04,1.27-.47,1.8-.12,.15-.32,.14-.52,.14Z"/><path class="cls-51" d="M91.4,13.39c0-.6,.33-1.58,.81-2.45,.29,.46-.2,1.94-.81,2.45Z"/><path class="cls-49" d="M53.17,73.03c.07,.8-.23,1.38-.6,1.93-.1,.15-.27,.28-.46,.17-.21-.12-.12-.31-.03-.47,.31-.54,.54-1.13,1.09-1.62Z"/><path class="cls-33" d="M62.91,75.23c-.33,0-1.08-.69-1.02-.91,.12-.44,.48-.87,.85-.9,.39-.03,.63,.52,.64,.9,.02,.35-.19,.71-.47,.91Z"/><path class="cls-27" d="M73.95,70.37c-.04,.41,.09,.82-.25,1.12-.15,.13-.28,.34-.52,.19-.23-.15-.39-.35-.25-.64,.12-.26,.25-.5,.36-.76,.12-.27,.14-.76,.45-.71,.43,.07,.1,.56,.21,.81Z"/><path class="cls-32" d="M56.01,81.17c.01,.79-.23,1.09-.74,.9-.31-.11-.58-.26-.38-.68,.07-.14,.1-.29,.15-.44,.1-.28,.1-.65,.46-.73,.22-.05,.51,.51,.52,.94Z"/><path class="cls-49" d="M85.67,36.19c.14-.23-.16-.68,.27-.66,.28,0,.49,.36,.42,.71-.06,.3,0,.82-.41,.79-.44-.04-.16-.55-.29-.84Z"/><path class="cls-18" d="M44.96,97.14c.11,.54,.02,1.1,.4,1.61-.43,.12-.93,0-1.01-.21-.19-.55,.41-.91,.61-1.4Z"/></g></g></svg>