<?xml version="1.0" encoding="UTF-8"?><svg id="Capa_1" xmlns="http://www.w3.org/2000/svg" viewBox="0 0 46.13 67.71"><defs><style>.cls-1{fill:#fff;}.cls-2{fill:#e4e89a;}.cls-3{fill:#831c59;}.cls-4{fill:#cfa8cf;}.cls-5{fill:#a76daa;}.cls-6{fill:#c14f79;}.cls-7{fill:#b03117;}.cls-8{fill:#d3d2d4;}.cls-9{fill:#d78110;}.cls-10{fill:#ac4e18;}.cls-11{fill:#a8a09e;}.cls-12{fill:#1d1d1b;}.cls-13{fill:#86bc25;}.cls-14{fill:#386a2d;}.cls-15{fill:#3c192b;}.cls-16{fill:#469936;}.cls-17{fill:#4d4743;}</style></defs><path class="cls-8" d="M4.58,41.63s-1,1.52-.8,2.11c.21,.59,.96,1.12,1.97,.72,1.02-.4,1.49-1.87,1.28-2.45-.21-.58-.51-1.72-1.83-1.06-1.32,.66-.62,.68-.62,.68Z"/><path class="cls-1" d="M7.46,40.18s-.45,3.19-1.42,3.96c-.97,.76-1.91,.24-2.46-1.28-.67,.43-.01,1.07,1.11,2.49-1.33,.25-1.28,.61-1.28,.61,0,0,1.35,.81,2.52-.22,1.17-1.03,1.73-3.66,1.73-3.66l.6-1.97-.8,.07Z"/><path class="cls-8" d="M5.58,26.87l1.81,4.46c.74,.89,1.32,2.26,.99,2.79-.17,0-.22-.29-.81-.48-.66-.29-1.27-.6-1.9-.51s-2.19,1.05-2.36,3.22c-.38,1.27-.62,2.22-.62,3.18-.46,.83-2.17,1.2-2.62-.17,.07-1.45,.83-3.97,.83-3.97-.19-.13-.37-.91,.69-2.04,.56-.7,1.49-3.19,1.82-3.72,.33-.52,2.17-2.76,2.17-2.76Z"/><path class="cls-1" d="M7.99,33.7s-1.11-1.84-2.28-1.69c-1.17,.15-3.55,1.78-3.87,3.49,0,0,2.31-2.33,3.66-2.29,.64-.17,.92-.1,1.38,.16,.46,.26,1.02,.46,1.11,.34Z"/><path class="cls-16" d="M3.84,34.61s-.67,.57-.35,2.04c.32,1.47,.65,2.02,1.53,2.87,.02,.35-.23,.36-.23,.36-.16-.03-.47-.1-.87-.4-.4,.18-.41,.27-.41,.27,0,0,1.56,.78,1.9,.63,.3-.24,.3-.32,.49-.32s1.72,.12,2.07,.07c.35-.05,.85-.38,1.1-.97,.25-.59,.3-.68,.2-.79-.1-.11-.91-.8-1.18-1.25-.27-.45-.85-1.26-1.13-1.66-.27-.39-.21-1.39-.72-1.75-.51-.36-1.79,.35-2.42,.9Z"/><path class="cls-13" d="M8.79,38.99s-.4,.4-.65,.59c.15,.3,.79-.19,.65-.59Z"/><path class="cls-13" d="M8.21,35.57s.86-1.49-.79-1.96c-.61-.28-1.83-1.6-3.81,1.38,.68-.43,2.04-1.53,2.42-1.26,.35,.28,.54,.25-.19,2.09-.15,.32-.21,.51-.15,.45,.06-.05,.85-.75,1.22-.59,.37,.15,.57,1.05,.62,1.36,.21,.13,.19,0,.43,.21,.24,.21,.51,.56,.53,1.23,.3-.14,.86,.09,.94,.09,.02-.5-.05-.58-.4-1.07-.22-.86-.51-1.77-.8-1.92Z"/><path class="cls-13" d="M43.46,34.82s-.91,3.07-1.26,3.94c-.38,.52-1.19,1.28-2.36,1.14-1.18-.39-1.76-2.08-1.76-2.43s.29-1.69,.62-2.3c.33-.61-.24-1.94-.35-2.41-.11-.47-.11-.72,.43-.83,.54-.11,1.2,0,1.85,.17,.65,.16,1.13,.28,1.49,.99,.36,.71,.84,.45,1.07,.91,.23,.46,.27,.82,.27,.82Z"/><path class="cls-16" d="M42.6,36.83s-.41,1.69-.56,1.81c-.28,.18-1.03,1.07-1.03,1.07,1.05-.47,1.34-.78,1.59-1.04,.25-.26,1.02-.93,1.21-1.9,.19-.97-.19-1.4-.19-1.4-.13,.09-1.02,1.46-1.02,1.46Z"/><path class="cls-16" d="M38.35,32.36s.8-.35,1.07-.29c-.31,.32-.21,.92-.03,.97,.18,.05,.94-.23,1.18,.19,.24,.42,.95,1.17,1.23,.56,.55,.35,.67,1.05,.62,1.18-.87-.24-1.84-1.21-2.79-1.41-.13,.14,.06,.52-.09,.79-.15,.27-.29,.76-.24,.88,.1,.13,1.36,.78,1.53,.8,.1,.34,.4,.9,.4,.9-.9-.44-2.32-1.56-2.5-1.63-.32,.41-.47,.96-.37,1.31,.1,.35,.34,.72,.34,.72-.14,.11-.45,.78,.59,1.39,.17,.37,.67,1.18,.62,1.17-.93-.31-1.99-1.07-2.2-1.93-.21-.86-.02-1,.43-1.34-.17-.52-.11-1.11,.2-1.82,.03-.42,.14-1.6,.14-1.6l-.13-.85Z"/><path class="cls-14" d="M43.19,34.82s-1.04,2.26-1.13,2.94c-.09,.46,.06,.49,.1,.45,.33-.33,1.38-1.94,1.39-2.95,.01-1.01-.36-.44-.36-.44Z"/><path class="cls-1" d="M38.37,24.07s.32,2.53,0,5.04c.24,.95,.59,1.29,.73,1.75,.07,.54,.17,.64,.8,.59,.63-.05,1.76,.4,2.68,1.49,.88,1.09,1.44,2.74,1.25,4.1,0,0,.21,1.09-.18,2.6-.4,1.5-.94,2.89-.94,2.89l-1.1,2.78c.58,.29,.58,.25,.58,.25,0,0,2-1.16,2.79-3.1,.79-1.94,.86-3.72,.97-4.76,.1-1.03,.1-3.29-.24-4.52-.35-1.23-1.57-2.63-2.68-3.51-1.11-.88-1.42-1.1-1.42-1.1,0,0,.62-1.33-1.01-1.18,.07-1.01,.07-2.01-2.22-3.33Z"/><path class="cls-11" d="M42.65,42.13s.08-2.33-.14-2.68c-.47,.59-1.04,1.56-2.47,1.42-.25-.78-.24-.98-.24-.98,.86,.15,1.62-.16,2.18-.68,.37,.11,1.3-.43,1.85-.89-.22,1.45-1.18,3.82-1.18,3.82Z"/><path class="cls-17" d="M40.06,39.89s.26,1.38,.24,1.77c-.03,.4-.2,.87-.2,.87-.64-.21-1.44-2.63-1.28-3.18,.63,.45,.84,.52,1.24,.53Z"/><path class="cls-3" d="M15.69,34.12l-5.05-2.47c-1.03,2.01-1.26,4.55-1.2,6.17-.03,1.79-.83,4.48-1.02,5.47-.18,1-.24,3.36-.24,3.36,0,0,1.05,11.97,1.17,12.06,.97,.21,4.21,.25,4.47-.08-.03-1.6,.18-5.95,.18-5.95l.31-3.87s.07-2.38,.36-4.92c.21-2.54,.48-6.38,.48-6.38l.54-3.41Z"/><path class="cls-10" d="M10.6,64.88s-2.74,1.32-2.86,1.32c-.78,0-3.17-1.52-3.17-1.52,.45-.68,.97-1.53,.97-1.53,.99,.26,2.91,.77,2.91,.77,.32,.43,.12,.42,1.36,.7,.7,.16,.79,.26,.79,.26Z"/><path class="cls-9" d="M4.68,64.59s2.82-.11,3.43,1.52c-1.33,.56-4.21,1.61-5.05,1.5-.44-.46,1.12-2.56,1.3-2.71,.18-.15,.32-.31,.32-.31Z"/><path class="cls-9" d="M38.91,62.53s.95,1.46,1.28,2.2c.32,.74,.5,1.49,.43,1.59-.51-.03-1.31-.09-1.42-.14-.3-.13-2.81-2.05-2.39-3.1,.91-.05,2.11-.53,2.11-.53"/><path class="cls-1" d="M16.18,45.54s-1.26,1.11-.61,4.72c-.91,1.77-1.09,3.62-1.04,3.84,.05,.23,.05,3.06,.96,4.6-.13,2.55,.83,6.65,1.09,6.65,.68-.13,3.89-.63,5.1-.45,1.69-.05,2.98-.05,3.74-.28,.76-.23,4.75-1.24,6.77-1.19,2.02,.05,6.65,.21,9.12-2.47-1.04-2.81-1.26-3.54-1.26-3.54,0,0-2.85,1.4-8.01,1.21-.27-1.66-.82-6.77-.82-6.77,0,0-1.05-6.01-1.55-6.2-.5-.2-5.84-.14-5.84-.14l-7.66,.03Z"/><path class="cls-1" d="M4.7,62.85s1.62-3.99,2.73-4.02c-.03,2.1,.15,4.83,.15,4.83-.88-.13-2.88-.81-2.88-.81Z"/><path class="cls-8" d="M32.49,58.68s-2.17,2.71-3.53,3.5c1.08-2.95,2.39-7.15,1.41-8.74-1.41,1.82-4.36,5.46-6,5.95-1.08-.11-1.36-.05-1.36-.05,0,0,1.8-1.13,2.08-1.46,.1-.56,1.53-4,2.89-5.05,1.36-1.05,1.74-1.05,1.87-1.41,.13-.36,.05-1.56,.05-1.56,0,0-.38-3.28-.72-3.84-.33-.56-1.85-.35-2.13,1.46-.41-1-.41-1.59-1.1-1.69-.69-.1-3.87,1.52-6.18,.16-.28,.84-1.36,4.23-1.36,4.23-.21-1.56-1.31-2.66,.08-4.23-1.51,.15-2.36,.05-2.36,.05,0,0-.69,1.46,.67,3.89,1.36,2.44,1.53,6.15,1.46,6.23-.95-.77-2.1-.9-3.23-3.97-.46,1.49-.15,3.95,1.1,5.56,.03,2.69-.03,6.46,.92,7.56-1.74,.11-5.54-.18-7.03-.56-1.15-.27-1.38-.19-1.58-.74-.72-.26-1.28-.36-1.28-.36,0,0,.03-4.05-.09-4.35-.73,.27-1.77,2.75-1.88,3.72-.75-.14-1.6-.57-1.6-.57,0,0,.73-4.21,1.58-4.21s3.22,.82,4.8,1.18c1.57,.36,3.25-.53,3.47-.65,.29,0,.36-.05,.36-.05l.1-4.09,.38-4.86c-.09-.56,.22-3.8,.22-3.8,0,0,1-1.06,1.03-1.05,.9,.09,3.43,.33,4.64,.32,1.21-.01,5.33,.07,5.33,.07,0,0,5.27,.06,5.48,.06,.21,.32,.38,3.78,.36,4.8-.02,1.02,.33,3.06,.35,3.84,.01,.78,.17,2.58,.17,2.63-.02,.57,.14,2.08,.14,2.08,.09,.05,.46,.05,.46,.05Z"/><path class="cls-4" d="M28.87,40.83l.83,4.45s-8.41-.12-9.57-.23c-1.84-.02-3.86-.39-4.1-1.39-.25-1,.33-2.88,.33-2.88,2.09-.13,11.42,.24,12.51,.06Z"/><path class="cls-8" d="M15.88,33.16s-.96,4.43-.88,7.49c2.25,.06,6.06,.11,6.3,.11s3.87,.1,4.35,.07c1.47-.03,4.32-.01,4.44-.01l.76-.09-.25-4.62-.33-4.05s-1.02,.03-1.72,.49c-.7,.53-2.5,1.83-5.4,2.11-2.9,.28-4.26-.62-5.25-1.44-1.24,.02-2.02-.06-2.02-.06Z"/><path class="cls-17" d="M27.35,39.46s1.14-.67,1.09-.99c-.05-.32-.98,.29-1.13,.45-.15,.15,.03,.54,.03,.54Z"/><path class="cls-1" d="M18.09,26.89s-2.48,.99-2.38,2.04c.1,1.05,.97,3.47,3.57,3.21,1.39,.38,2.08,2.14,3.78,2.14s4.56-.94,5.55-1.69c.99-.76,1.87-3.38,1.96-3.43,1.15-.63,2.57-1.73,2.86-2.54,.29-.81,1.01-4.02,.73-4.96-.24-.67-.97-1.45-1.19-1.49-.43,.37-1.11,1.6-2.8,2.15,0,0-.35,.89-1.14,1.74-.91,.89-2.22,2.04-2.37,2.44-.65,.43-2.68,.89-3.42,1.11-1.22,.41-2.79-.06-3.55-.27-.77-.22-1.6-.43-1.6-.43Z"/><path class="cls-8" d="M34.04,24.26s1.15,.7,.2,3.83c-1.05,2.46-3.27,3.22-3.86,3.37-.64,.18-1.6,.96-1.6,.96l1.2-2.25c-.72,.26-2.19,1.49-3.75,1.24,1.1-1.28,2.01-2.23,3.46-2.41,0,0,1.18-.18,1.42-.27,.79-.33,2.12-1.56,2.39-2.36,.27-.8,.55-2.11,.55-2.11Z"/><path class="cls-8" d="M31.41,21.82s-.7,.69-.57,1.11c.42,.55,.89,1.18,.89,1.18-.72-.5-1.45-.64-1.98-.36-.54,.28-2.25,2.07-2.31,2.22,1.93-.03,2.75,.59,2.95,.93-1.2-.19-1.68,.15-2.35,.45-.13,.51-.14,.86-.14,.86-.69-.41-2.35-.76-3.84-.57-1.49,.19-2.58,1.06-2.62,1.06-1.08,0-2.45-.06-2.45-.06l1.11-.98s-1.66-.46-2.44-.21c-.79,.27-1.51,1.19-1.55,1.26-.09,.41,.81,2.99,1.89,2.91,1.08-.08,1.26-.6,2.05-.7,.79-.1,3.43,0,4.29,.26-.5,.61-1.42,1.77-2.84,2.03,.94,.6,1.51,.78,2.26,.5,.75-.28,2.84-.86,4.16-.61-.88,.23-3.67,2.01-7.07,1.58-1.16-.28-2.12-1.06-2.28-1.19-.6-.23-3.97-.16-5.81-1.9s-1.16-3.28-.79-3.67c-.75-.78-2.56-3.03-1.86-4.72,.55-1.16,1.04-1.21,2.42,.14,.87,.11,1.7-.57,1.93-.46,0,.6,.37,1.63,1.99,2.46,1.65,.96,4.2,1.99,5.37,2.13,1.18,.14,1.72-.42,2.87-.72,1.18,.05,1.33,.03,1.33,.03,0,0,.58-1.09,.7-1.18,.67-.43,2.33-1.71,2.33-1.71,.13-.51,.57-1.59,.57-1.59,.74-.03,1.79-.46,1.79-.46Z"/><path class="cls-13" d="M29.6,22.33s1.72-.06,3.15-1.96c1.44-1.89,2.34-3.67,3.01-4.67,.67-.99,2.62-3.16,2.92-3.65,.31-.49,.39-1.54,.39-1.54,0,0-5.36,2.94-7.32,4.26-.16-.19-.16-.23-.16-.23,0,0,.59-2.16,.59-3.68,0-1.52-.15-2.47-.47-3.16,.8-.16,2.88,.15,3.06,1.44,.16,.8,.1,1.02-.02,1.52-.12,.49,.49,.77,.84,.33,.35-.43,.35-1.82-.7-2.83-1.04-1.01-1.99-1.37-3.42-1.31-.35-.96-2.08-4.07-4.6-5.39-2.52-1.32-5.24-1.76-7.96-.89-2.72,.87-6.43,4.11-7.23,6.59-.51-.12-4.05,.22-4.88,3.41,.08,.51,.8,.45,.99,.19-.03-.45,0-.86,0-.86,0,0,.95-2.4,3.53-2.01-.27,1.26-.55,5.03,.4,7.69-.53-.24-6.63-3.94-9.68-4.81,.57,.83,2.29,2.87,3.55,4.21,1.26,1.35,3.84,4.79,3.84,4.79,.47,.67,2.64,3.92,4.68,2.6,.46,.5,.11,.83,.65,1.52,.55,.69,1.42,1.52,4.38,2.78,2.68,1.02,3.73,.95,5.15,.18,1.55-.72,3.35-1.85,3.83-2.22,.48-.38,1.04-.92,1.19-1.49s.25-.81,.25-.81Z"/><path class="cls-16" d="M35.63,14.72s1.34-1.76,1.38-1.97c-1.35,.69-4.63,2.83-5.46,3.51-.75,1.56-1.21,3.24-1.47,4.54-.33,.6-.48,1.36-.48,1.5,.66,.06,1.02-.16,1.02-.16-.3-.21-.57-.81-.33-1.21,.57,.08,1.46-.53,1.76-1.04,0,0-.54-1.31,.51-2.51,1.05-1.2,2.5-3.19,3.11-3.43-.14,.38-.05,.77-.05,.77Z"/><path class="cls-14" d="M33.18,15.62s-1.12,1.16-1.31,1.74c.3,.22,.25,.57-.05,.78,0,.21-.29,.54-.29,.71,.11,.3,.21,1.18-.4,1.19-.62,.01-.73-.56-.67-.97,.06-.4,.69-2.76,.69-2.76,0,0,.38-.29,.51-.12,.54-.54,1.29-.95,1.29-.95,0,0,.22,.21,.22,.38Z"/><path class="cls-16" d="M12.32,8.1s-.88,2.62,.39,4.29c1.09-1.87,1.71-2.14,1.71-2.14,0,0-.58-1.33-1.23-1.7,1.07,.14,2.31,1.85,2.35,2.49-.55,.99-1.91,2.49-2.12,2.81-.18,.95-.21,1.71,.35,1.73,.74-.13,2.28-1.45,5.69,.65,1.32,.76,2.42,1.43,2.76,1.15,.33-.33-.52-1.06,1.27-2.77l.92-.92s-1.46,3.02-1.07,3.38c.64-.04,2.31-2.28,4.47-2.22,1.84,.09,2.71,1.13,2.74,1.18-.21,.48,.18,1.25-1.18,1.66-2.81,.32-3.78,1.13-3.8,1.84-1.1,0-1.66-.49-1.93-.9-.43,.16-1.58,.22-2.65-.2-1.59-.23-6.13-.48-6.46-.21-.33,.27-.12,1.38,.43,1.66,.72,.16,.97,.05,.97,.05,0,0-.9,.32-.35,2.01,.55,1.69,.94,2.51,1.52,2.68,.58,.18,3.92,1.68,4.84,2.88-1.53-.3-3.92-1.2-5.17-2.01-1.25-.81-1.92-1.36-2.54-3.06-.74,.19-.9,.34-1.18,.25-.28-.09-2.37-1.63-3.22-4.35-.95-1.48-4.69-5.19-5.3-5.7,3.6,1.75,6.45,3.5,6.45,3.5,.02-.44-.34-1.24-.34-1.24,.78,.56,1.18,.72,1.18,.72-.32-.9-.82-3.34-.69-6.27,.14-1.36,.3-1.56,.3-1.56l.91,.3Z"/><path class="cls-16" d="M13.65,4.69s-.89,1.62-.9,2.56c-.76-.19-.85-.19-.85-.19,0,0,1.1-1.8,1.75-2.36Z"/><path class="cls-1" d="M23.44,17.87s.01,1.27,.94,1.26c.91-.03,2.86-.47,4.3-.37,.75-1.15,1.48-2.33,.96-2.8-.52-.47-2.13-1.14-6.19,1.91Z"/><path class="cls-1" d="M21.02,17.57s.59,.78-.47,1.62c-.64-.07-2.73,.08-3.72,.17-.64,.02-.87,.11-1.26-.29-.38-.4-1.24-2.09-1.12-2.53,0,0,.54-.75,2.16-.45,1.66,.48,4.4,1.47,4.4,1.47Z"/><path class="cls-1" d="M20.52,22.55s-.85-.05-.78,1.02c.11,.83,.35,1.19,.73,1.15,.43-.07,2.23-.17,3.42-.12,.25-.02,.72-.27,.64-.95-.08-.67-.24-1.38-.69-1.36-.46,.02-1.24,.32-1.9,.32s-1.41-.06-1.41-.06Z"/><path class="cls-14" d="M14.77,17.67l-1.72,.96c.22,.67,.35,1.36,.35,1.36-.34,.4-.46,.73-.88,.69-.42-.05-.48-.38-.56-.78-.67-.22-1.57-.86-.58-1.98-.16-.83-.91-1.82-1.39-2.29,1.36,.65,1.91,1.38,2.07,1.82,.17,.1,.75,.34,1.15,.26,.4-.08,.95-1.01,1.22-1.07-.03,.42,.34,1.04,.34,1.04Z"/><path class="cls-14" d="M11.21,11.12s.44,3.04,1.2,3.5c.62-1.03,1.08-.9,1.08-.9-.57,.87-.84,.6-1.55,2.33-.49-.95-.98-3.94-.73-4.94Z"/><path class="cls-2" d="M12.13,7.14S14.62,1.68,20.46,.92c5.83-.76,9.88,3.72,10.23,6.13,.65-.22,.76-.19,.76-.19,0,0-1.85-5.94-8.57-6.7C15.87-.35,12.91,4.78,11.59,7.06c.32,.05,.54,.08,.54,.08Z"/><path class="cls-2" d="M19.5,14.32c.23,.05,1.74,1.56,2,2.64-1.38-.44-1.15-.43-1.49-.66-.34-.23-.51-1.98-.51-1.98Z"/><path class="cls-2" d="M14.58,12.98s.81,1.34-.11,1.42c-.46-.11-.13-1.27,.11-1.42Z"/><path class="cls-2" d="M30.89,8.02s.85,2.32,.23,5.65c-.62-1.01-1.26-1.65-1.26-1.65-.14,.46-.13,1.66,.39,2.21,.51,.55,.44,1.34-.46,1.88,.32,.64,1.07,.48,1.84-.06,.56-.35,.41-.57-.02-1.42,.19-.88,1.19-4.08,.18-6.93-.21,0-.91,.32-.91,.32Z"/><path class="cls-2" d="M30.42,16.6s-.39,2.21-1.01,2.58c-.62,.37-1.17,.16-1.17,.16,.05,.48,.64,.62,.64,.75-.11,.35-.39,2.88-1.01,3.77-.62,.88-3.54,2.99-3.54,2.99,1.52-.78,4.25-2.23,4.83-3.22,.58-.99,1.13-4.53,1.89-6.42,.05-.9,.04-.81,.04-.81l-.67,.21Z"/><path class="cls-2" d="M22.19,19.93s.66,.81,.53,1.15c-.48-.04-.62-.08-.62-.28-.02-.27,.09-.87,.09-.87Z"/><path class="cls-2" d="M19.8,20.21s-.28,.71-.65,.78c-.38-.16-.57-.71-.57-.71,.64-.02,1.22-.07,1.22-.07Z"/><path class="cls-2" d="M31.8,15.08c.12-.03,6.09-3.66,6.99-3.96-.83,1.1-2.26,3.59-2.26,3.59,1.61-2.12,3.81-4.53,3.86-4.95-2.48,.94-7.04,4.37-8.67,5.02,.05,.16,.09,.3,.09,.3Z"/><path class="cls-16" d="M30.02,7.39s-3.22,2.74-1.94,3.32c-.88,.28-1.77,.18-1.73-.55,.04-.72,1.36-.94,1.36-.94,.46-.71,1.36-1.41,2.31-1.84Z"/><path class="cls-16" d="M6.82,10.52s.7,.31,.99-.04c0,.48-.39,.94-.74,.81-.35-.12-.28-.7-.24-.78Z"/><path class="cls-13" d="M26.75,25.66s-.58,1.04-.87,1.15c-.63,.09-1.21-.11-1.21-.11,.6-.43,1.37-.62,2.08-1.05Z"/><path class="cls-11" d="M32.58,27.74s-.76,1.75-1.15,2.58c1.04-.43,2.39-1.39,2.39-1.39-.2,.59-2.22,3.07-4.57,3.22,.84-1.11,2.91-3.54,3.04-4.2,.16-.15,.29-.22,.29-.22Z"/><path class="cls-11" d="M29,29.87s-1.92,1.46-1.93,1.5c1.18-.28,2.86-.83,3.17-2.05-.48,.24-1.24,.54-1.24,.54Z"/><path class="cls-11" d="M20.03,34.45l-.66-1.01c.53-.24,1.25-.29,1.77-.48,.51-.18,1.87-.66,2.3-1.19-.91,.02-2.95,.62-5.47,1.52,.4,.3,2.06,1.16,2.06,1.16Z"/><path class="cls-11" d="M15.66,30.51s-1.3-2.15-2.28-2.26c.09,.72,1.3,3.13,2.28,2.26Z"/><path class="cls-11" d="M13.28,28.29l-1.16,.03c.22,1.12,1.5,3.74,1.5,3.74-1.45-.92-4.47-5.1-3.23-6.69,.59,1.02,.99,1.94,1.57,2.11,.59,.17,1.33,.82,1.33,.82Z"/><path class="cls-11" d="M17.7,26.07s-1.85,.7-1.8,1.82c.57-.32,2.11-1.66,2.11-1.66l-.31-.16Z"/><path class="cls-11" d="M10.12,24.31l.51-1.6c.25-.16,1.72-.05,1.28,1.8,.48-.83,1.42-1.43,2.5-1.56-.08-.38-.27-.54-.27-.54-.38,.25-.84,.33-1.29,.27-.45-.06-1.85-.81-2.41-1.68-.54,.19-.96,1.8-.32,3.3Z"/><path class="cls-1" d="M16.37,26.09s-1.23,1.14-1.49,1.97c-1.21-.95-1.98-1.92-1.94-2.3,.04-.38,1.38-1.53,1.38-1.53,.64,.99,2.06,1.86,2.06,1.86Z"/><path class="cls-11" d="M16.92,33.31s-1.61,3.2-1.62,3.26c.18-2.34,.58-3.41,.58-3.41,0,0,.9,.16,1.04,.15Z"/><path class="cls-11" d="M15.15,39.07l.79,1.7c-.97-.03-1.02-.04-1.02-.04,0,0,.13-1.24,.22-1.66Z"/><path class="cls-17" d="M18.98,39.87s-.57,.4-.79,.43c-.57-.16-1.48-.96-1.48-.96,.6,.14,1.12,.25,1.42,.27,.3,.02,.83,.24,.85,.25Z"/><path class="cls-11" d="M25.89,40.71s.97-1,1.58-1.36c.61-.45,.64-.84,.64-.84-.64-.01-1.85,.63-3.11,2.35,.57,0,.88-.15,.88-.15Z"/><path class="cls-17" d="M26.01,36.42s1.83-1,1.87-2.17c-1.14,1.21-1.99,2.11-1.99,2.11l.12,.06Z"/><path class="cls-1" d="M16.95,34.83s-.94,2.59-.94,3.68c1.87,.21,2.95,.11,3.32,.36,.42,.36,1.4,1.34,1.81,1.43,.59,.12,3.7-.04,3.7-.04,.61-.78,3.06-2.2,3.63-1.93,.24,.48-1.07,1.64-1.07,1.87,1.05,.03,2.57-.31,2.47-1.54-.11-1.23-.91-2.96-.58-5.43,0,0-2.84,2.24-5.77,2.79-2.93,.56-4.35-1.59-6.55-1.2Z"/><path class="cls-5" d="M28.21,40.77s.75,.79,0,1.18c-.89,.22-1.96,.7-2.09,.85,.89,.29,2.81-.02,2.81-.02-.5,.43-3.11,.97-3.23,1.05,.72,.35,2.79,.35,3.72,.33-1.1,.16-2.53,.51-2.61,.48,1.57,.39,1.97,.19,1.8,.66,1.49,0,2.44,.02,2.44,.02,0-3.67-.19-4.59-.19-4.59-1.59,.08-2.64,.04-2.64,.04Z"/><path class="cls-5" d="M16.41,40.91s.58,.81,2.25,1.14c-1.49-.08-1.88-.23-1.88-.23-.33,.35-.41,.89,2.13,1.14-.79,.12-2.22,.14-2.22,.14,.08,.29,1.04,.58,2.15,.62-.06,.29-.25,.39-.25,.39,.97,.35,1.9,.45,1.9,.45-.46,.17-3.87-.52-3.87-.52,.08,.29,2.63,1.06,4.72,.69l1.49,.33s-7.05,.04-8.25-.31c.25-3.1,.41-3.99,.41-3.99,.87-.1,1.43,.16,1.43,.16Z"/><path class="cls-11" d="M31.96,57.26l-1.61,1.77c1.46-3,1.46-3.15,1.46-3.15l.16,1.39Z"/><path class="cls-11" d="M15.61,44.9l-1.08,2.08c-.13-1.49,.03-2.24,.03-2.24,.66,.16,1.04,.16,1.04,.16Z"/><path class="cls-11" d="M13.3,58.74s.13,.98-.62,1.05c-.77,.08-4.1-.16-4.1-.16-.03,1.1-.13,3.51-.13,3.51-.62-1-.69-3.1-1-3.92-.97-.18-1.64-.64-2.33-.85-.84,.97-1.33,4.08-1.33,4.16-.95-.33-1.23-.72-1.23-.92,.1-.8,1.28-4.87,1.28-4.87,.75,.56,4.84,2.74,9.46,2Z"/><path class="cls-10" d="M38.07,62.95s-.95,1.15-.92,1.18c.51,.6,2.3,2.03,2.3,2.03-1.32-.02-3.83-.94-5.26-2.68,1.66-.13,3.89-.53,3.89-.53Z"/><path class="cls-3" d="M34.13,21.32s4.06,.67,4.24,1.36c.08,1.2,.07,4.21,.1,5.15,.03,.94-.29,2.97-.54,3.77-.24,1.01-.11,2.29,.07,2.82,.17,.58,.09,1.26,.04,2.26-.54,.48-.52,1.11,.21,2.18-.27,.61-.36,1.76,.7,4.37,0,0,.11,2.18,.24,4.42,.13,2.24,.62,6.12,.62,6.12,0,0,.51,3.02,.35,3.46-.68,.48-3.56,1.64-8.13,1.39-.29-2.82-.33-5.17-.33-5.17l-.27-2.81-.3-5.52-.28-4.26-.18-3.97-.39-4.84s2.05-.96,2.93-2.15c.88-1.19,2.05-3.93,.89-5.64,.19-1.32,.04-2.94,.04-2.94Z"/><path class="cls-15" d="M15.67,34.29c-.17,0-2.25-.05-2.97-.29-.72-.24-1.92-1.92-1.92-1.92,0,0-1.56,3.97-1.05,5.52,.51,1.55,.24,2.51-.02,3.93-.26,1.42-.77,3.04-.77,3.04,1.34-1.78,2.6-3.73,2.58-3.68-.59,2.53-1.67,8.37-1.87,11.88-.19,3.51,.09,5.74,.33,6.09-1.43-.17-4.54-.87-5.26-1.82-.47-1.29,.7-6.93,.96-8.12,.26-1.19,1.69-5.97,1.69-5.97l.84-2.79c.61-.33,1.61-1.61,.99-2.38-.4-.91-.59-1.22-.54-1.61-.09-.72-.19-3.3-.51-4.12-.32-.82-2.44-6.97-2.29-8.19,1.43-.75,3.6-1.31,3.79-1.15-.18,1.1-.6,1.58-.07,3.74,.53,2.16,1.37,3.87,3.06,5.17,1.18,.84,3.11,1.48,3.11,1.48-.17,.54-.11,1.21-.11,1.21Z"/><path class="cls-8" d="M38.52,25.82s.23,3.11,.44,3.59c.29,.48,1.4-1.23,1.61-1.69,.25,.42,.19,1.77-1.2,3.6,.88-.67,1.89-1.96,1.89-1.96-.36,1.31-.62,1.64,.53,2.79-.84-.56-.88-.5-1.31-.36-.33,.07-.8,.07-1.02-.03-.22-.1-1-.31-1.18,.61-.36-.1-.39-.12-.39-.12l.11-1.01,.36-1.9,.16-3.52Z"/><path class="cls-11" d="M38.45,29.33s.08,1.11,.15,1.08c.83-.29,1.6-.87,1.51-.79-.4,.49-1.69,1.71-2.02,1.75,.05-1.11,.36-2.04,.36-2.04Z"/><path class="cls-17" d="M37.87,32.12l.48,.16c-.03,.4-.3,1.35-.3,1.35-.24-.46-.17-1.51-.17-1.51Z"/><path class="cls-8" d="M43.75,35.57s.87,2.08,.4,3.94c-.47,1.86-1.56,5.31-2.4,5.83-1.42-.65-2.93-1.96-3.46-3.94-.53-1.97-.08-2.51,0-2.55,.22,.35,.97,1.22,2.09,1.01,1.13-.21,1.6-.66,1.71-.73,.3,.1,1.56-.48,1.72-.87,.16-.38,.01-1.46,.01-1.46l-.08-1.24Z"/><path class="cls-7" d="M43.76,37.08s-.55,.59-.9,1.38c-.59,.54-.75,.68-.7,.68,.72,.02,1.66-.67,1.72-1.01,.06-.34-.11-1.05-.11-1.05Z"/><path class="cls-2" d="M43.06,33.81s-.54,.32-.85-.11c-.31-.43-.68-1.34-1.13-1.29-.45,.06-.83,.57-.83,.57-.06-.64,.34-1.27,.37-1.27,.27,0,1.82,.52,2.44,2.1Z"/><path class="cls-2" d="M40.41,32.15s-1.22,.38-1.31,.32c-.08-.23,.55-.89,1.45-.56-.03,.29-.13,.24-.13,.24Z"/><path class="cls-2" d="M39.34,32.08s-1,.13-1,.13c.06-.41,.61-.72,1.07-.46,.27,.18-.07,.32-.07,.32Z"/><path class="cls-2" d="M40.9,34.53s-1.15,.34-1.47-.77c.76,.24,1.39,.5,1.47,.77Z"/><path class="cls-2" d="M41.82,35.56s.12,.35-.14,.35-.56-.28-.46-.44c.21-.02,.46,.02,.6,.09Z"/><path class="cls-2" d="M40.33,37.03s-.03,.56,.26,.56,.24-.37,.24-.37l-.49-.19Z"/><path class="cls-2" d="M38.82,35.64s-.3,.62,.77,.62c-.28-.47-.77-.62-.77-.62Z"/><path class="cls-14" d="M38.52,33.1c.11-.06,.45-.25,.45-.25,.06,.21,.3,.9,.23,1.26-.38,.37-.75,.89-.48,1.26-.16,.39-.28,.97-.21,1.17,.08,.19,1.07,1.1,1.25,1.25-.39,.12-1.51-.85-1.66-1.28-.16-.43-.07-1.06,.11-1.47-.16-.59-.35-.64-.24-1.13,.1-.5,.55-.81,.55-.81Z"/><path class="cls-7" d="M3.46,36.76s.29,1.49,1.29,2.51c.2,.35,.11,.6,.06,.6-.39-.09-.78-.3-.96-.43-.17,.18-.85,.55-1.15,.55-.08-.39,0-.49,0-.49,.4-.14,.82-.33,.82-.33,0,0-.54-.75-.54-1.36s.48-1.04,.48-1.04Z"/><path class="cls-6" d="M2.9,38.05s-.25,1.06-.16,1.41c.62-.21,.8-.31,.8-.31l-.64-1.1Z"/><path class="cls-14" d="M8.32,35.9s-.28,.66,.04,1.15c.32,.5,.67,.43,.71,.4,.01-.44-.41-.7-.54-1.82-.24-.05-.21,.26-.21,.26Z"/><path class="cls-14" d="M3.67,39.57s1.08,.76,1.83,.75c-.38,.18-1.88,.38-2.75-.35,.54-.22,.92-.41,.92-.41Z"/><path class="cls-14" d="M4.4,38.56s.02,.62,.93,1.2c.55,.19,.56,.41,.97,.48,.41,.07,1.08,.03,1.16-.08-.72-.25-1.07-.19-1.33-.3-.25-.11-.57-.19-.7-.4-.42-.68-1.04-.9-1.04-.9Z"/><path class="cls-13" d="M5.96,37.1s.14,.68-.69,1.13c-.11-.68,.4-1.1,.69-1.13Z"/><path class="cls-13" d="M7.56,38.39s-.34,0-.35,.39c-.01,.4,.26,.63,.35,.63,.17-.07,.2-.84,0-1.02Z"/><path class="cls-13" d="M4.96,35.13s-.3,.71-.86,.54c-.27-.5,.86-.54,.86-.54Z"/><path class="cls-14" d="M3.6,36.46s.67,.87,.68,1.15c-.03,.36-.08,.54-.08,.54-.26-.08-.85-1.1-.59-1.69Z"/><path class="cls-11" d="M5.52,26.86s.51,2.32,1.34,3.56c-.57,0-.9,.08-.88,.13,1.38,1.28,2.17,2.12,2.26,2.27,.28-.19-.28-1.45-.52-2.07-.24-.62-1.48-4.8-1.48-4.8l-.72,.91Z"/><path class="cls-11" d="M3.74,29.17c.04-.06-.51,2.33-.48,2.69-.8,.79-1.64,1.49-1.64,1.49,.53-1.4,1.49-3.33,2.12-4.18Z"/><path class="cls-11" d="M5.01,45.21c-.11,.46-1.29,.85-1.84,.66-.56-.19-2.43-3-2.82-4.49-.39-1.49-.19-2.22-.19-2.22,0,0,.52,1.13,1.24,1.04,.72-.08,1.19-1.29,1.34-1.34-.3,1.02,0,1.23,0,1.23,.71,.33,1.9,.67,2.71,.22,.77-.08,1.9-.06,1.9-.06,.09,.75-.4,2.1-.72,2.53,.21-1.02-.02-1.7-.54-1.88-.52-.18-1,.45-1,.45-.14,.35-.7,1.56-1.24,1.89,0,0-.2,.24-.12,.6s1.27,1.36,1.27,1.36Z"/><path class="cls-12" d="M45.89,33.34c-.32-1.91-3.27-4.11-4.14-4.85,.13-1.1-.13-1.23-1-1.23,.23-1.58-1.36-2.85-2.17-3.27,0,0,.03-1-.13-1.52-.42-.39-2.2-1-4.34-1.29,0,0-.36-.68-1.01-1.1,.64-.65,1.1-1.65,2.27-3.56,1.16-1.91,5.12-6.09,5.28-7.05-1.26,.23-7.99,4.66-8.9,5.11,.84-2.75,.75-5.73,.16-6.83,2.65,0,2.98,1.75,2.92,2.2-.06,.45-.42,1.26,.29,1.33,.71,.06,1.16-.75,.64-2.01-.97-2.17-3.04-2.62-4.14-2.49-.55-1.88-3.91-7.61-11.07-6.67-7.15,.94-9,6.86-9,6.86-1.1,.07-2.49,.29-3.82,1.71-1.33,1.42-1.26,2.65-.62,2.72,.64,.07,.88-.62,.81-1.52,.58-1.42,2.33-2.14,3.3-1.91-.64,2.46-.42,4.89,.35,7.48-1.98-1.74-8.58-4.6-9.84-4.92,.32,.68,1.33,1.78,3.08,3.69,1.75,1.91,4.4,5.37,5.41,6.73-.45,.32-.62,.94-.59,1.52,0,0-3.75,.84-3.91,1.29-.16,.45,.03,1.56,.16,2.4-2.88,3.01-4.24,6.67-4.5,7.12-.26,.42-1,1.26-.68,2.07-.35,1.98-1.62,4.4,.42,8.15,2.04,3.75,3.59,2.92,4.6,2.63-.55,1.36-1.36,4.17-2.14,7.35-.78,3.17-.45,3.01,.03,3.3,0,.26-1.29,4.34-1.17,5.02,.13,.68,2.92,1.36,2.92,1.36,0,0-.23,.46-1.17,1.78-1.36,1.49-1.42,2.55-1.2,2.78,2.3-.03,6.38-2.14,7.7-2.72,0,0,2.39,.29,4.56,.46,2.17,.16,5.05-.65,6.28-.42,3.14-.06,3.43-.1,5.63-.65,3.69-.97,4.76-.84,6.86-.78,2.68,2.79,5.34,2.62,6.7,2.81-.19-2.36-1.36-3.08-1.49-3.95,.46-.13,1.65-.91,2.26-1.26,0,0-.42-1.4-1.29-3.82,0,0,.23-.06,.13-.32-.74-5.83-1.29-11.58-1.26-13.56,.81,1.23,3.11,2.23,3.11,2.23,0,0,2.1-1,3.14-3.95,1-3.21,.87-6.54,.55-8.44Zm-5.84-23.23c-1.14,1.45-3.86,4.44-6.06,8.2-.88,1.57-2.2,3.51-4.28,3.89l.33-1.22s.79,.3,1.39-.29c.59-.59,1.63-2,1.78-2.46-.96,.94-1.75,2.87-3.02,2.59,.07-.86,.23-1.09,.23-1.09,.05,.26,.75,.59,1.06,.2,.31-.4,.25-.91,.15-1.19,.35-.51,1.02-1.27-.16-1.62,.36-1.04,.49-1.1,.49-1.1,0,0,.76-.46,1.01-.66,.11,.23,.19,.97,.08,1.3,.46-.51,.27-1.07,.03-1.35,.35-.33,.75-.54,.75-.54,0,0,.08,1-.23,1.5,.53-.2,.48-1.42,.45-1.6,.48-.38,2.79-1.72,2.79-1.72-.61,.72-1.25,1.83-1.25,1.83,.81-.93,1.72-2.2,2.49-2.59-.89,.22-3.69,1.83-6.01,3.51,.03-.51-.19-.84-.19-.84,0,0,6.64-4.07,8.17-4.75ZM22.34,27.31c-2.16,.15-6.44-2.18-7.18-3.15-.74-.97-1.95-5.42-2.26-6.37,.35,.08,.62-.05,.91-.43,.28-.38,.48-.51,.48-.51,.29,.89,1.05,2.44,1.68,2.59,.63,.15,3.35-.21,4.44-.15-.38,.36-2.52,.61-2.92,.59,.03,.33,3.96,.18,3.78-1.85,.37-.03,.76,.1,.91-.2,.21,.08,.22,.41,1.22,.43,.15,.64,.44,1.11,1.23,1.26,.79,.15,2.88,.08,3.11,0-.32-.12-2.29,.06-3.17-.28,.94-.16,2.24-.39,4.08-.28,.28-.07,1-1.55,1.27-2.41,.27,.18,.41,.25,1.04,0,0,0-1.35,6.3-2.06,7.19-.71,.89-4.39,3.42-6.55,3.56Zm3.96-1.34s-.22,.66-.5,.74c-.51-.02-.78-.08-.78-.08,0,0,.48-.11,1.27-.66Zm-13.6-5.44c-.25,.25-.64-.21-.61-.43,.03-.21,.13-.54,.48-.54s.51,.24,.29,.46c-.21,.22-.16,.51-.16,.51Zm-.64-.84c-.62,.02-1.1-.4-.96-1.17,.15-.78,1.14-.73,1.26-.05,.03,.33-.72,.79-.92,0-.15,.33,.11,.68,.46,.68s1.09-.45,.45-1.34c-.02-.13,.16-.08,.16-.08,0,0,.55,.75,.7,1.98-.08-.15-.52-.63-1.14-.02Zm4.39-3.51c.81,.22,4.02,1.37,4.56,1.53,0,0,.27,.81-.43,1.37-1.1,.1-1.88-.06-4.49,.23-.59-.15-1.5-1.96-1.55-2.61-.05-.35,1.1-.74,1.91-.53Zm7.11,1.8c4.62-3.57,6.24-2.18,6.17-1.6-.07,.58-1.09,2.26-1.09,2.26-1.88-.12-3.53,.28-4.09,.4-.56,.11-.86-.24-.99-1.05Zm7.99-.64c.24,0,.43,.16,.43,.36s-.19,.36-.43,.36-.43-.16-.43-.36,.19-.36,.43-.36Zm-.33-.92c.05-.12,.17-.18,.27-.14,.1,.04,.13,.17,.08,.29-.05,.12-.17,.18-.27,.14-.1-.04-.13-.17-.08-.29Zm.49,1.94c-.1,.07-.33,.26-.26,.44-.08,.03-.37,.14-.79,.12,0-.16,.3-.96,.3-.96,.49,.46,.51,.16,.76,.4Zm-.16,1.12c0,.25-.17,.45-.37,.45s-.37-.2-.37-.45,.17-.45,.37-.45,.37,.2,.37,.45ZM11.45,7.97c1.11,.04,2.95,1.4,3.16,3.31,.18-.68-.64-3.7-3.7-3.52-3.06,.18-3.24,2.52-3.24,2.52,0,0,.14,.97-.55,.87-.69-.1,.22-2.63,2.53-3.55,2.31-.92,4.32,.05,5.66,1.55,.83,1.04,.52,1.4,.24,1.79,.45-.03,1.21-.91-.46-2.31-1.67-1.4-2.43-1.49-3.25-1.6,0,0,1.83-4.63,7.13-6.35,5.22-1.57,10.74,1.44,12.31,6.12-.28,.02-1.91,.41-3.05,1.6-1.14,1.19-1.32,1.64-.56,2.08-.25-.38-.44-1.69,2.82-3.2,3.27-1.52,6.18,2.39,4.93,3.76-.28,.21-.69,.05-.46-.83,.23-.87-.15-2.26-2.1-2.65-1.95-.4-4.32,1.47-4.17,2.82,.43-.86,1.12-2.13,3.03-2.54,.56,1.4,.48,3.91-.11,6.47-.27-.06-.37-.88-.71-.97,.18,.76,.93,1.62,.93,2.21-.08,.56-1.16,.98-1.64,.86-.48-.25-.48-1.08-2.06-.96-1.58,.12-4.12,1.52-4.82,2.44-.28,.16-1.01-.03-.96-.36,.05-.33-.05-1.26-.05-1.26-.16,.58,.05,1.45-.61,1.4-.66-.05-3.93-1.7-5.64-1.77-1.72-.07-2.36,1.55-2.81,1.7-.45,.15-1.36-.27-1.4-.76-.05-.49,.68-1.89,.78-2.06-.28,.23-.49,.4-.7,.94,0,0-1.15-3.23-.47-7.76Zm-3.27,9.92c-1.45-1.8-4.13-4.99-5.82-6.92,3.5,1.32,9.34,4.7,9.34,4.7,0,0-.03,.21-.05,.79-1.83-1.31-6.67-3.66-7.48-4.04,.3,.35,1.16,.66,1.42,.84,.2,.17,.97,1.25,1.22,1.27,0,0-.58-.54-.69-.96,.21,.05,1.6,.78,1.9,1.01,0,0,.25,1.47,.54,1.57,0,0-.35-1.22-.28-1.42,0,0,.46,.25,.71,.43,.31,1.67,.63,2.33,.83,2.29-.1-.03-.58-1.68-.53-2.11,.48,.15,1.87,1.09,2.16,1.35,.29,.27,.58,.91,.78,1.17-1.13-.36-1.38,.28-1.37,1.04s.71,.86,.94,1.01c.23,.15,.13,.79,.82,.86,.69,.06,.71-.51,.71-.51,0,0,.13,.15,.38,1.15-2.33,.59-3.28-2.01-3.86-2.67,1.95,3.78,3.02,2.84,3.96,2.8,.05,0,.18,.41,.17,.86-2.26,1.02-4.34-2.72-5.79-4.52Zm2.23,3.3c.28,.43,2.18,2.44,3.7,1.35,.16,.15,.05,.38,0,.4-.41-.02-2.46,.59-2.47,2.39,.2-.49,.79-2.06,2.59-2.18,.33,.61,.56,1.76,3.58,3.08-.25,.2-1.54,1.4-1.8,1.47,.15-.4,.55-.93,.93-1.04-.23-.22-1.41,.3-1.14,1.45,.63-.45,1.75-1.31,1.9-1.5,.92,.08,1.37,.1,1.37,.1,.71,.33,1.99,.74,2.22,.79-.43,.2-1.15,.51-1.23,.71,.79-.26,1.39-.59,1.39-.59,.48,.03,1.22,.08,1.6-.1,.38-.18,1.22-.64,2.26-.63,1.04,.02,1.18,.06,2.61,1.32,.15-.26-.83-1.08-1.09-1.23,.35-.32,2.04-.3,3.53-.08-.35-.21-1.46-.32-2.01-.29,.08-.2,1.06-.23,1.35-.23-.59-.16-2.16,.05-3.1,.49l-.43-.18s.25-.54,1.32-1.35c1.07-.81,2.11-1.77,2.56-1.85,.45-.08,1.41,.38,1.65,.58,.05-.4-1.47-1.19-2.39-.41,.4-1.14,.41-1.24,.41-1.24,0,0,.77,.18,1.66-.5,.89-.67,1.64-1.63,1.64-1.63,0,0,1.37,.76,1.04,2.77-.33,2.01-.37,3.72-1.77,4.75-1.4,1.04-2.39,1.65-3.56,2.11,.28,.11,1.09-.25,1.37-.43-.13,.43-1.45,1.83-3.93,1.9,.36,.4,3.45-.16,4.21-1.99,1.22-.79,2.9-1.67,3.32-3.11,.41-1.43,.43-1.85,.43-1.85,.25,.06,.64,2.15-.33,4.26-.97,2.11-3.14,3.18-4.23,3.32,.61-.84,1.98-2.41,2.2-3.1-1.05,1.02-2.48,4.12-6.68,5.21-4.21,1.09-6.09-.19-6.81-.84,1.62-.55,3.99-1.39,5.07-1.44-.66,.38-2.37,1.37-3.27,1.12,.53,.38,2.32-.05,3.83-1.34-1.85,.1-4.37,1.1-5.81,1.5-1.29,.08-4.47-.25-5.92-2.72-.4-.96-.4-1.94-.66-2.24-.1,.63,.2,1.42,.2,1.42-.44-.1-1.3-1.53-1.29-3.91,.4,.61,.76,1.72,1.58,1.93,.83,.21,1.12,.79,1.66,1.81,.55,1.02,1.26,1.22,1.26,1.22-.66-.58-1.24-1.92-1.24-2.18,.36-.03,1.52,1.67,1.78,2l.23,.07s-.66-1.93-2.16-2.51-2-.51-2.76-2.41c-.76-1.9-1.35-3.49-.35-4.42Zm17.71,21.45s-.71,.18-1.53,.07c1.87-.64,4.22-.51,4.22-.51v.46c-1.45,.53-4.82,.96-7.05,1.22,5.83,.51,7.16-.38,7.16-.38v.61c-2.95,.54-4.96,.32-6.01,.41,3.42,.33,5.48-.15,5.99-.2l.03,.86s-1.66,.13-6.37-.2c-4.7-.33-9.64-1.6-9.64-1.6,0,0,0-.08,.02-.68,1.24,.46,4.9,.71,6.85,.3,3.4-.78,8.98-2.07,8.98-2.07,0,0,.05,.19-.05,1.04-1.26-.08-4.78,.43-5.77,1.01,.61,.03,3,.03,3.17-.35Zm2.57,.73c-.49,.27-2.56,.61-4.69,.45,1.02-.19,2.97-.37,4.77-.96,0,0,.1,.3-.08,.51Zm-15.84,.59c.02-.32,.04-.35,.04-.35,0,0,5.6,1.17,7.31,1.37,0,0-3.88,.23-7.4-.3,0-.18,.02-.33,.03-.46,.37,.09,2.04,.46,2.58,.36-.87-.07-2.23-.51-2.56-.62Zm.15-2.65l.03-.48c5.43,.91,10.12,.89,11.32,.88-8.07,2.16-11.34,.89-11.34,.89,0,0-.11-.71,0-1.07,2.38,.72,6.78,.75,7.69,.4-4.49,.35-7-.41-7.71-.61Zm2.16-.5s9.14,.19,12.44,.08c-.99,.43-3.36,.77-7.59,.48-4.23-.29-4.85-.56-4.85-.56Zm13.52-.21l-.84,.1c.27-.41,.72-.75,.87-.84l-.03,.74Zm-1.19,.12s-2.57-.1-4.14-.12c.68-.91,1.96-1.98,2.9-2.08-.03,.35-.89,.78-1.34,1.17,.81-.28,1.65-.97,1.7-1.32-1.5-.45-3.42,2.06-3.65,2.41,0,0-3.29-.12-4.87-.2-.05-.62-1.55-1.01-2.42-1.16-.87-.15-1.19-.21-1.75-.53,.33,.58,1.98,.83,2.29,.84,.3,0,1.26,.41,1.6,.84-.28,.15-2.38,.01-4.74,.03,.05-3.29,.92-7.37,.92-7.37,0,0,1.04,.21,1.85,.16,.53,.35,1.98,1.58,4.44,1.47,2.46-.11,5.26-1.27,6.5-2.25-.5,1.39-3.15,3.76-4.18,4.85,.64-.15,2.84-1.96,3.02-2.51,0,0-.83,.84-1.47,1.17,1.62-1.4,2.44-2.87,2.79-3.33,.35-.46,.71-.69,1.22-.61,.2,.79,.4,6.21,.53,7.36-.02,.05-.78,.59-1.22,1.15Zm-24.15,5.31c-1.37,.51-2.91-.41-4.43-3.65-.77-2.06-1.19-3.51,.44-7.58-.11,0-.42,.27-.42,.27-.11-.46,.44-1.46,2.65-3.37-.22-.06-1.01,.53-1.7,1.28,.37-1.04,1.96-4.17,4.32-6.73,0,0,.48,2.6,1.98,6.22-.31-.28-1.65-1.74-1.89-1.76,.79,.88,2.2,1.94,2,3.26-.22-.22-1.06-2.07-2.36-2.07s-3.2,.65-4.48,2.85c1.24-1.19,3.4-2.85,4.61-2.65,1.12,.24,1.74,1.53,1.74,1.53-.35-.09-.84-.37-1.39-.6-.55-.24-2.34,.24-3.08,2.34-.26,.97-.2,1.15-.73,3.7-.24,2.07,1.28,5.18,2.12,5.42,.84,.24,1.55-.05,1.77-.95-.27,.29-.51,.83-1.34,.83-.46,0-.73-.33-1.23-1.17-.49-.84-.99-2.09-.99-2.93,1.01,.31,2.15,.35,2.29,.2,.02,.4-.74,1.96-1.19,2.45,.48-.15,.84-.89,1.5-2.56,.83,.03,1.69-.04,1.69-.04,0,.27-.55,2.3-.68,2.56,.46-.3,.94-2.25,.99-2.67,.49-.04,.56-.04,.56-.04,0,0-1.39,5.33-2.76,5.84Zm1.87-11.04c.31,0,.86,.33,.88,.84,.02,.71-.73,1.67-1.28,2.4,.82-.46,1.48-2.27,1.72-2.09,.05,.13,.26,.59,.22,1.12-.22-.11-.49-.37-.49-.64,0,0-.13,.44,.22,.7,.13,.1,.28,.2,.41,.31-.26,.25-.61,.87-.54,1.17,0,0,.24-.04,.31-.44,.07-.34,.31-.54,.38-.59,.14,.14,.25,.28,.26,.43,0,.29-.31,1.04-.73,1.56-.42,.51-1.01,.22-2.14,.07-1.13-.15-.88-.62-1.36-1.04-.99-.42-.93-1.5-.93-1.5l-.05,.49c-.31-.31-.53-.97-.38-1.1,.09-.05-.15-.27-.19-.82,.02-.2,.06-.38,.12-.55,.12-.09,.38-.22,.92-.38,0,0-.39-.15-.83,.14,.55-1.26,1.92-1.9,2.31-1.9,.27,0,.67,.2,1.01,.37,.5,.5,.65,1,.53,1.3,.32-.57,.03-.98-.05-1.09,.03,0,.05,.01,.07,0,.27,.11,.53,.15,.7,.72,.16,.57-.19,.95-.19,.95,0,0-.18-.42-.7-.51s-1.96,.79-1.98,1.28c.46-.37,1.47-1.19,1.78-1.19Zm-2.44,4.67c0,.09-.02,.14-.02,.14-.4,0-1.5-.64-1.69-1.79-.03-.17,0-.33,.03-.47,.27,1.25,1.35,1.94,1.67,2.13Zm-1.6-2.3c.1-.22,.23-.37,.23-.37,0,0,.18,1.29,1.28,2.33,.04,.07,.06,.13,.08,.19-1.34-.91-1.55-1.9-1.59-2.15Zm.26,1.77c-.14,.06-.47,.21-.67,.25,0-.41,.05-.92,.22-1.1,.12,.28,.27,.61,.45,.86Zm.07,.09c.07,.08,.14,.15,.22,.2,0,0-.22,.29-.91,.43-.02-.08-.04-.2-.04-.34,.14-.04,.55-.18,.74-.29Zm.44,.33c.11,.09,.26,.17,.42,.23-.16,.08-.84,.38-1.05,.47-.18-.07-.32-.15-.41-.23,.48-.26,.97-.4,1.04-.47Zm.59,.29c.13,.04,.26,.07,.4,.09-.4,.33-.66,.47-.79,.52-.05,0-.1,0-.15,0-.15-.03-.28-.06-.4-.1,.35-.09,.83-.42,.94-.51Zm.59,.11c.18,.01,.36,.02,.54,0,0,0,.07,.47-1.15,.51,.31-.11,.54-.4,.61-.5Zm.01-.45c-.16-.11-.54-.38-.64-.83,.26,.09,.5,.37,.73,.67,.24,.3,.84,.61,1.29,.65,.45,.04,.63,.16,.63,.16,0,0-.96,.1-1.35-.24s-.49-.29-.65-.4Zm.21,11.88c.67-3.57,2.52-9.39,2.93-11.12,.82-.43,1.37-1.48,1.2-2.17-.17-.7-.81-1.46-.64-1.6-.38-1.7-.05-2.83-.67-4.8-.98-2.72-2.28-7.24-2.15-7.63,.13-.32,1.65-.95,3.5-1.26,0,0-.52,.72-.67,1.27-.12,.94,1,4.97,2.33,6.5,1.33,1.53,4.41,2.63,4.41,2.63,.02,.04-.65,3.92-.71,5.84-.06,1.89-.56,6.83-.75,9.46-.19,2.63-.33,7.04-.42,10.01-3.74,.76-7.92-.73-8.45-1.17-.54-.43-.58-2.4,.09-5.97Zm-.57,15.81c-.18-.03-.76-.15-1.02-.46-.05,.24,.29,.49,.48,.59-.7,.16-1.11,.21-1.11,.21-.32-.22,.38-1.35,.9-2.05,.2,0,.72,.07,1.41,.45,0,0-.15-.49-1.31-.58,.11-.14,.21-.26,.28-.34,.4-.45,.88-1.07,1.21-1.76,.35,.18,2.41,.62,2.72,.85,.05,.05,.1,.1,.17,.14,.08,.25,.51,1.01,.65,1.25-1.71,.9-3.27,1.42-4.38,1.7Zm4.8-1.93c-.12-.16-.31-.51-.41-.68,.23,.1,.53,.22,.93,.38-.18,.1-.35,.2-.52,.3Zm24.88-1.67c.22,0,.45-.02,.69-.03l-.28,.45c-.14-.13-.28-.27-.42-.41Zm.6,.58l.36-.63c.1,0,.21-.02,.31-.03l-.48,.83c-.06-.05-.13-.11-.19-.16Zm5.41,2.04c-.19,.01-.56,0-1.06-.07l.8-.85c.15,.37,.26,.7,.26,.92Zm-.34-1.11l-1.01,.99c-.13-.02-.26-.05-.4-.08l1.33-1.07c.03,.06,.05,.11,.07,.16Zm-.17-.37c-.2,.16-.89,.71-1.5,1.21-.93-.24-2.04-.69-3.08-1.5l.51-.96c.43-.05,.88-.13,1.32-.22-1.03,.68-1.24,.99-1.21,1.36,0-.43,1.42-1.2,1.56-1.15,0,0-.52,.38-1.1,.95,.63-.17,1.61-1.11,1.61-1.11,0,0-.15-.09-.49-.13,.45-.11,.89-.25,1.3-.42,0,0,.62,1.01,1.08,1.98Zm1.1-3.68c-1.95,1.88-5.48,2.25-6.42,2.28-.94,.03-2.64-.08-4.72,.15-2.08,.23-4.27,1.17-5.84,1.22-3.93,.02-4.62,.16-7.24,.44-2.63,.28-7.49-.59-8-.89-.38-.33-.27-2.61-.18-4.44-.31,.5-.37,2.62-.32,3.93-.97-.11-5.43-1.45-5.58-1.96-.15-.51,.72-3.53,1.14-4.8,1.42,.81,3.89,1.78,5.99,1.96,2.09,.18,3.33,.07,3.96-.21,.03-.16,.38-7.53,.51-8.53,1.24,5.05,3.37,5.78,3.68,5.88,.05,.15,.4,.54,.4,.54l-.03-.27s.27,.35,.56,.35c-.58-.68-1.05-1.17-1.39-1.55,.06,.24,.16,.38,.32,.71-2.42-1.53-3.24-5.05-3.43-6.21-.15-1.15,.25-4.75,.25-4.75,.4,.13,4.27,.3,4.27,.3,0,0,0,.05-.08,.78-.72,.88-.83,4.08-.5,4.23-.02-1.15-.03-3.3,.5-3.68-.1,.87-.05,2.11,.11,2.21,0,0-.05-2.69,.31-3.48,.74,.02,6.21,.11,7.29,.21,0,.45-.08,1.77,.45,2.04-.21-1.17-.11-2.04-.11-2.04,0,0,1.35-.02,2.51-.05,.4,1.24,.13,2.97,.05,3.93,.73-2.04,.15-3.96,.15-3.96,0,0,.41,.02,1.27,.07,.23,.43,.27,3.89,.21,5.18-2.54,4.75-7.08,7.99-8.3,8.75,3.4-.92,7.29-6.47,8.38-8.35,.16,.44,.43,3.93,.35,4.75-.08,.79-1.55,3.7-2.24,5.41,.66-.53,1.9-3.96,2.42-4.72,0,0-.03,1.22,.21,2.29,5.3,.23,7.99-1.17,7.99-1.17,0,0,.5,1.29,1.11,3.46Zm-.99-3.93c-2.14,1.48-7.23,1.5-7.96,1.37-.13-.45-.16-3.55-.35-5.38-.18-1.83-.58-8.57-.71-11.14-.13-2.57-.59-8.87-.59-9.82,0,0,2.34-1.04,3.53-3.32,1.19-2.28,.62-4.24,.18-4.59,.36-2.28,.08-2.77,.08-2.77,.89,0,3.68,.74,3.9,1.17,.22,.43,.16,4.75,.08,5.96-.08,1.21-.38,2.39-.51,3.45-.13,1.06,.15,2.46,.24,2.47,0,0-.05,1.06-.05,2.09-.79,.96-.35,1.52,.15,2.25-.61,1.44,.11,2.79,.72,4.26-.25,2.16,.99,11.39,1.27,13.99Zm-1.67-24.89c.12-.54,.74-.63,.99-.35,0,0-.69,.58-.54,1.03,.15,.34,.12,.51-.33,.9-.29,.24-.1,.59-.15,.62-.07,.03-.52,.02-.35-.43,.17-.45,.67-.75,.7-.88-.13-.19-.43-.35-.32-.88Zm2.22-.38c.24-.2,1.62,.56,2.09,1.52-.17,0-.74-.2-.8-.23,.2,.27,.86,.35,.86,.35,0,0,.64,.92,.37,1.24-.4,.23-.59,.48-.59,.48,.05,.02,.46-.23,.65-.21,.2,.02,.29,.67,.13,1.07-.16,.4-1.05,1.97-1.23,2.15,.32-.08,1.02-1.07,1.18-1.64,.17-.56,.21-.97,.42-.9,0,0,.38,1.14-1.44,3.16-.33,.02-.87,.77-1.66,.95-.78,.19-1.14-.08-1.42-.43-.28-.35-.4-.48-.4-.48-.02,.21-.08,.27-.08,.27,0,0-.98-.91-.98-1.57s.42-.8,.42-.8c.13,.24,.72,1.1,2.54,1.75-.72-.48-.73-.47-.82-.83s-.32-.64-.32-.64c.06,.24,.18,.8,.18,.8,0,0-1.02-.48-1.6-1.52-.03-.77,.29-1.23,.42-1.2,.13,.03,.01,.43-.24,1.08,.2-.03,.43-.62,.5-.78,.27,.3,1.1,1.07,1.9,1.2-.57-.4-1.94-1.2-2.01-1.6-.06-.4,.74-1.07,.74-1.07-.19-.1-.62,.29-.77,.74-.25-.15-.11-1.19,.64-1.15,.75,.03,1.74,.91,2.29,1.22-.15-.37-1.04-1.1-2.29-1.37-.35-.15-.4-1.09,.38-1.4,.43-.16,.7,0,.7,0,0,0-.4,.66-.38,1.26,.32-.05,.6-1.1,.62-1.39Zm3.12,5.93c.08,.05,0,.38,0,.38,0,0-.17,.47-1.37,.9,.54-.54,1.19-.98,1.37-1.29Zm-.67,.42c.17-.47,.54-.82,.62-.8,0,0,.05,.52-.62,.8Zm2.37,2.29c-.4,2.57-2.68,4.72-3.29,4.92-3.8-1.34-4.15-5.33-3.91-6.34,0,0,.35,.18,.46,.51,.22,2.79,1.75,3.53,2.3,3.55-1.98-1.01-2.06-3.14-2.08-3.51,1.38,.9,2.7,0,3.07-.28,.29,0,.81-.14,1.58-.7,0,.55-.55,2.63-1.21,3.88,0,0,1.4-1.03,1.51-3.86,.31-3.78-.61-5.24-1.95-6.41,1.89-.11,2.57,2.15,2.9,3.44-.46-3.73-2.24-3.62-3-3.62,0,0-1.07-.7-1.49-.42-.42,.29-.64,.05-1.21-.06-1.16-.06-.94,1.05-1.05,1.75-.13-.59-.13-1.69,.06-1.89,3.2-2.28,2.68-3.2,2.5-3.38,.09,1.29-1.71,2.52-2.41,3.03,.59-3.53,.29-6.87,.29-6.87,.29,.06,1.51,1.36,1.77,1.85,.35,.64,0,2.08-.08,3.05,.11-.35,.44-1.27,.55-1.64,0,0,.7-.02,.75,.42,.02,.99-.81,2.13-1.45,2.72,.42-.16,1.34-1.12,1.6-1.82,0,0,3.09,2.13,3.78,3.97s.42,5.15,.02,7.72ZM25.15,13.4s-.15-.16-.15-.16c0,0-1.88,.87-2.59,2.69,.62-.59,1.44-1.66,2.74-2.52Zm-3.02,2.28s-.94-1.5-2.03-2.13c.07,.21,.45,.61,.45,.61-.21-.13-.99-.6-1.14-1.04-.15,.28,2.13,2.46,2.72,2.56Zm2.61,2.46c.14,0,.25-.1,.25-.21s-.11-.21-.25-.21-.26,.1-.26,.21,.11,.21,.26,.21Zm-5.05,.05c.14,0,.25-.1,.25-.21s-.11-.21-.25-.21-.26,.1-.26,.21,.11,.21,.26,.21Zm1.76,3.55c.22,.28,.92,.26,1.04,.05,.83,.03,.96-.69,.51-.78,.3,.54-.23,.63-.61,.59-.21,.23-.61,.16-.99-.02-.66,0-.41-.46-.05-.78,.36-.32,.2-.87,.2-.87-.18,.78-.63,.62-.86,1.17-.23,.55,.46,.69,.76,.63Zm1.83,.59c-.3,.1-1.73,.27-2.52,.15-.79-.11-1.1,.38-1.12,.97-.02,.59,.15,1.4,.84,1.39,1.61-.33,3.02-.07,3.67-.13,.64-.07,.56-1.61,.23-2.18-.33-.56-1.09-.2-1.09-.2Zm.7,2.2c-.64-.03-2.56-.1-3.02,0-.46,.1-.97,.37-1.14-.86,.36,.38,.7,.58,1.02,.03,.06,.24-.05,.41-.05,.41,.16-.03,.46-.38,.46-.38,.4-.02,2.41-.02,2.49,.05,.08,.16,.4,.33,.74,.03,0,0-.15,.67-.51,.71Zm-.23-.92s.26-.2,.11-.46c-.25,.69-2.16,.37-2.44,.45-.28,.1-.33,.15-.61-.1-.36,.73-.78,.26-.93-.02,0-1.09,.68-.81,1.7-.75,1.02,.06,1.8-.41,2.28-.35,.48,.06,.56,1.13,.56,1.13-.33,.28-.51,.43-.67,.1Zm-2.16,1.8c-.16,.13,1,.1,1.29,0,0,0-.69-.11-1.29,0Zm1.98,18.53c-6.25-.27-6.93-.71-6.93-.71-.03,.61,5.86,1.04,6.93,.71Zm6.65,4.14c-.41,2.09-.64,2.18-.94,3.19,1.14-1.73,.94-3.19,.94-3.19ZM8.3,27.44c-.2,.82,.15,2.93,.54,3.64,.39,.71,.45,2.31,0,4.15,.89-1.84,.59-3.87,.45-5.23-.14-1.36-.99-2.56-.99-2.56Zm-2.18,36.44c.98,.45,1.63,.86,2.01,1.26-.81-1.14-2.01-1.26-2.01-1.26Zm-.19,.45c.69,.48,1.2,1.1,1.53,1.32-.55-1.15-1.53-1.32-1.53-1.32Zm-.52,.17c.68,.45,1.17,.92,1.6,1.3-.62-1.1-1.6-1.3-1.6-1.3Zm-.77,.71c.26,.1,.67,.35,.82,.35-.19-.42-.82-.35-.82-.35Zm2.74-1.2c.71,.45,.9,.87,1.1,.97-.27-.81-1.1-.97-1.1-.97Zm30.7,1.03c.4-.11,.99-1,.99-1,0,0-.86,.49-.99,1Zm-.63,.13c.33-.25,1.51-1.39,1.54-1.53,0,0-1.12,.62-1.54,1.53ZM6.44,34.45c.29-.86-.42-1.08-.42-1.08,.33,.22,.44,.79,.42,1.08Zm-2.31,1.74c.29-.05,.42-.71,.42-.71,0,0-.42,.09-.42,.71Zm1.46,.93c-.72,.44-.73,.26-1.08,.46,.84,.09,1.08-.46,1.08-.46Zm.24,.57c-.13,.02-.55,.48-.57,.83,.51-.22,.57-.83,.57-.83Zm1.39,.84c-.27,.06-.82,.46-.82,.7,0,0,.77-.31,.82-.7Zm.53,.04s-.16,.35-.31,1.02c.51-.27,.31-1.02,.31-1.02Zm.77,.35s-.67,.38-.78,.88c.64-.13,.78-.88,.78-.88Zm-1.31-3.51c.22,.3,.53,.51,.67,.8,0,0-.03-.71-.67-.8Zm34.8,2.55c.56-.92,1.39-2.42,1.39-2.42-.1,0-1.48,1.82-1.39,2.42Zm.59-3.26c-.1-.8-.7-.86-.7-.86,0,0,.38,.55,.7,.86Zm-.4,1.12c.03-.52-1.25-.37-1.25-.37,.77,.02,1.17,.23,1.25,.37Zm-1.42,.14c-.03,.08-.08,.72,.6,.8-.33-.24-.6-.8-.6-.8Zm-.67,1.04s.59,.27,.87,.33c-.22-.45-.82-.33-.87-.33Zm-.78,1.69c.1,.23,.87,.33,1.05,.12-.35,.08-1.05-.12-1.05-.12Z"/></svg>