<?xml version="1.0" encoding="UTF-8"?><svg id="Capa_1" xmlns="http://www.w3.org/2000/svg" viewBox="0 0 44.61 67.43"><defs><style>.cls-1{fill:#f8c4af;}.cls-2{fill:#6a4515;}.cls-3{fill:#f6a500;}.cls-4{fill:#fff;}.cls-5{fill:#ffe171;}.cls-6{fill:#fff9d1;}.cls-7{fill:#fff381;}.cls-8{fill:#fdece4;}.cls-9{fill:#a21a17;}.cls-10{fill:#a16418;}.cls-11{fill:#a9183c;}.cls-12{fill:#ce1342;}.cls-13{fill:#d57489;}.cls-14{fill:#d3d2d4;}.cls-15{fill:#e20613;}.cls-16{fill:#d8c74b;}.cls-17{fill:#ca5079;}.cls-18{fill:#d78110;}.cls-19{fill:#d6b749;}.cls-20{fill:#429e36;}.cls-21{fill:#1d1d1b;}.cls-22{fill:#1c7b33;}</style></defs><path class="cls-10" d="M44.17,38.42s.16,2.55-.3,3.86-.77,2.2-2.21,2.24c-1.43,.04-2.03-1.09-2.04-2.04-.02-.95,.24-2.07,.16-2.5-.08-.43-.14-1.04-.14-1.04,0,0,.05-.59,.05-.73s-.19-.49-.26-.74c-.07-.25-.08-.42-.17-.45-.09-.04-.21-.08-.28-.19-.06-.12-.91-.81-1.28-.98-.06,.14-.08,.17-.18,.1-.1-.07-.31-.28-.4-.32-.1-.03-.38,.02-.51,0-.2-.11-.24-.14-.33-.16-.09-.01-.26-.12-.51-.12s-.21-.08-.82,.12c-.62,.09-.93,.14-1.05,.21-.12,.08-.35,.26-.59,.41-.24,.15-.31,.27-.4,.34-.25,.07-.46,.22-.54,.47-.21,.11-.47,.13-1.27,1.12-.75,.5-1.35,1.23-1.35,1.23,0,0-2,2.92-2.56,2.88-.57-.04-.84-.39-.88-.68-.05-.29,.12-1.02,.12-1.02,0,0,.45-1.18,.45-1.24s.5-1.09,.61-1.35c.12-.26,.58-1.09,.8-1.43,.22-.34,.87-1.39,.87-1.39l.09-.25s.28,.18,.27,.18,.35-.86,.99-1.31v.17s.78-.96,2.04-1.41c.61-.24,1.42-.35,1.42-.35,0,0,.12-.24,.81-.07,.4-.12,.61-.08,.7-.02,.27-.02,.61-.01,.74,.09,.38,0,.95-.17,1.12,.21,.66,0,1.27,.18,1.46,.3,.35-.04,.47,.07,.66,.14,.18,.07,1.53,.68,1.71,.92,.1,.21,.03,.28,.03,.28,0,0,.77,.39,1.35,1.2,.47,.55,.54,.64,.54,.64l-.07,.04s.71,1.05,.81,1.57h-.09s.41,.83,.46,1.07Z"/><path class="cls-3" d="M25.59,3.13s-.19-1.99-2.49-2.88c-2.31-.89-4.43,.73-5.37,2.56,0,0-.6,1.13-.34,2.34,.9,.06,3.56,.37,5.18,1.27,1.91-.49,2.73-2.35,3.03-3.29Z"/><path class="cls-15" d="M26.57,14.65s-.42,4.48-4.29,7.81c0,0-1.78-2.39-5.61-3.37-3.83-.98-8.82-.84-11.33,2.24-.59,.73-1.03,1.8-1.03,1.8-.57-.73-3.65-6.54-4.01-7.27,.71-1.32,2.19-3.51,6.44-4.94,0,0,4.75-1.21,9.11-.98,4.36,.23,7.87,2.26,10.72,4.71Z"/><path class="cls-7" d="M22.43,22.6s-1.54-2.05-4.54-3.16c-1.82-.63-3.92-1.17-6.33-.89s-6.08,1.17-7.21,4.59c.12,.42,.84,1.2,1.44,.97-.35-.5-.46-.72-.46-.72,0,0,.63-2.22,3.06-3.17,2.43-.95,4.94-1.04,6.85-.55,1.91,.49,4.39,1.29,6.37,3.51,.65-.39,.8-.59,.8-.59Z"/><path class="cls-15" d="M22.58,6.41s1.53,2.29,.79,4.57c-.85-.57-4.19-2.07-6.46-2.09-2.26-.02-5.84-.06-9.17,.53,.62-1.05,2.98-3.04,6.19-3.89,3.22-.85,6.63-.18,8.64,.88Z"/><path class="cls-7" d="M26.73,13.39s-.08,1.19-.22,1.25c-.38-.47-3.58-3.36-8.26-4.43,0,0-4.19-.98-10.65,.49-2.01,.4-5.3,1.65-7.29,5.16-.32-.55-.49-1.45,1.48-3.26,1.97-1.81,4.06-2.86,7.44-3.41,3.38-.55,8.16-.52,10.39,.17,2.24,.69,5.22,2.41,7.1,4.04Z"/><path class="cls-8" d="M23.96,24.9s-1.17,2.15-2.1,2.86c-.93,.71-3.16,1.46-3.44,2.41-.27,.95-1.54,2.1-2.1,2.44-.56,.34-1.95,1-1.95,1,0,0-1.21,.16-1.8,.61-.1-.21-.58-.32-.97-.42l-.07-.5s-2.34-.71-3.62-1.37c-1.27-.66-1.58-1.16-1.42-1.78,.16-.62,.25-.95,.25-.95,0,0-.85-.66-1.55-2.31-.7-1.65-.62-2.6-.21-2.94,.25,.16,.59,.18,.83,.16-.3-.41-.45-.65-.47-.67-.02-.01,.5-1.72,2.24-2.73,1.75-1.01,2.82-1.18,4.08-1.3,1.26-.12,3.79,.22,4.98,.62,1.19,.4,3.44,1.54,3.89,2.19,.45,.65,1.42,1.55,1.42,1.55,0,0,.9-.28,1.52,.23,.62,.52,.47,.89,.47,.89Z"/><path class="cls-1" d="M19.6,21.51s.11,3.03-.08,4.42c-.19,1.39-.6,2.2-1.96,2.83,.38,.36,1.02,1.3-.86,3.48-1.48,.53-2.65,.99-2.71,.99,.19,.4,.28,.41,.28,.41,0,0,2.6-.45,2.73-.76-.02-.38-.08-.73-.08-.73l2.64-1.26c.7,.21,1.8,.36,2.91-.79,1.11-1.15,1.75-3.3,1.64-4.83-.17-.86-.32-.93-.32-.93,0,0-.29,.79-.48,1.01,.07-.49-.42-1.06-.7-1.05-.28,.01-2.24,1.28-1.63,2.95-.12,.26-.86-.89-.91-1.31,.23-.64,.37-.91,.37-.91l.05-2.95s-.56-.48-.89-.58Z"/><path class="cls-5" d="M10.3,33.84s-.18,.23-.35,.72c-.65-.07-2.57-.1-4.86,1.07-.16,1.05-.14,2.8,.34,3.82,.51-.63,1.05-.93,2.1-1.47,1.05-.54,4.06-1.79,4.19-1.9,.07-.48,.29-1.38,.05-1.51-.24-.13-1.34-.18-1.48-.73Z"/><path class="cls-12" d="M16.49,33.15s.13,.37,.09,.55c-.33,.19-1.29,.47-1.76,.47s-1.5,.02-1.62,.43c-.12,.4,.04,1.27-.2,1.46-.24,.2-2.66,1.49-3.34,1.64,.2,.43,.25,.62,.25,.62-.04,.05-.29,.15-.29,.15-.11-.12-.28-.67-.28-.67,0,0-2.13,.94-2.18,.99,.05,.28,.26,.99,.38,1.07-.13,.09-.39,.26-.52-.25-.13-.51-.15-.67-.15-.67,0,0-1.38,.64-1.31,2.09-.26-.19-.45-.57-.48-.69-.01-.16-.31-.82-.33-1.34-.17-.81-.68-2.66-.05-3.17,.37-.27,.43-.25,.43-.25,0,0-.29,2.56,.32,3.82,.48-.55,1.16-.94,1.16-.94,0,0-.22-.2,.14-.57-.21-.32-.27-1.27-.22-1.44,.35-.2,.45-.19,.45-.19,0,0-.14,1.14-.03,1.57,.17,.09,.21,.31,.21,.31,0,0,1.88-.8,1.91-.83-.08-.17,.04-.4,.04-.4,0,0-.34-1.11-.11-1.28,.23-.16,.21-.02,.25,.29,.04,.32,.05,.71,.05,.71,0,0,.26-.01,.32,.02,.04,.05-.01,.38-.01,.38,0,0,2.07-.9,2.14-.97,.07-.08,.22-1.33,.09-1.44-.13-.11-1.62-.37-1.51-.93,.11-.48,.84-.55,.84-.55,0,0,.33,.13,.42,.15,.02,.25,.07,.54,.07,.54,.42,.05,.79,.08,.93,.34,.35-.21,.69-.36,1.9-.58,1.21-.22,2.03-.46,2.03-.46Z"/><path class="cls-5" d="M16.61,33.69s-.21,1.33-.17,1.32c1.39-.66,1.7-.54,2.92-.35,1.21,.19,2.68,1.36,2.68,1.36,0,0-2.34,.8-3.22,3.3-.64,.82-1.13,1.44-1.14,1.49-.25,0-.92-.06-.59,.88-.48,.21-.6,.34-.6,.34,0,0-.29-2.76-2.43-3.3-2.14-.54-3.42-.48-5.45,.9-.6,.59-1.17,3.01-1.17,3.01l-.83-.6s.12-.46-.01-.6c-.57-.14-.9-.2-.99-.36-.11-.52,0-1.47,1.28-2.14,.09,.39,.16,1.03,.42,1,.25-.02,.31-.11,.31-.11,0,0-.46-.59-.47-1.03,.88-.4,2.22-.98,2.22-.98,0,0,.14,.65,.29,.63,.28-.13,.32-.17,.32-.17l-.27-.6s3.25-1.34,3.41-1.77c.15-.43-.15-1.51,.52-1.66,.68-.15,1.35,.1,3.01-.58Z"/><path class="cls-12" d="M22.42,36.55s-2.16,.75-3.77,2.95c.31-.88,1.54-2.84,3.36-3.47,.54,.32,.4,.52,.4,.52Z"/><path class="cls-20" d="M4.4,37.34s.18,.87,.32,1.51c.1,.65,.19,1.18,.36,1.44,.02,.16,.1,.45,.41,.76,.31,.31,1.09,.36,1.11,.36s0,.41-.07,.62c.41,.24,1.29,.9,1.29,.9,0,0,.43-.33,1.23,.63,.58,.02,.81,.08,.81,.08,0,0,.39,.62,.39,.64-.27,.35-.72,.51-1.02,1.32-.24,.12-.31,.24-.28,.47-.12,.19-.71,1.88-.82,2.53-.06,.43,.23,1.23,.23,1.23,0,0,.48,1.46,.87,1.54,.18-.05,.41-.87,.44-1.05,.37,.07,.48,.08,.48,.08,0,0-.24,1.69-1.17,1.91-.44-.17-.88-.26-1.32-.26s-1.53-.1-1.99-.48c-.46-.37-.69-1.07-.69-1.07,0,0-1.15-.17-1.67-.91-.49-.74-.27-1-.65-1.24-.38-.24-.59-.47-.87-1.16-.28-.69-.66-2.04-.64-3,.01-.96,.19-1.9,.51-2.91,.33-1.01,1.13-2.9,2.76-3.96Z"/><path class="cls-20" d="M19.12,38.9s1.88-1.05,3.35-.69c1.46,.36,1.58,1.14,.95,1.87-.63,.73-2.51,2.29-3.05,3.94-.18,1.22,.25,1.42-.03,1.85-.32,.38-.63,2.48-3.92,2.5-.7-1.87-.69-3.37-.73-4.5-.04-1.13,.06-1.31,.26-1.43,.2-.12,.73-.6,1.15-.75-.14-.25-.22-.73,.1-.8,.32-.08,.49-.08,.49-.08,0,0,.51-.71,.72-.96,.21-.25,.73-.96,.73-.96Z"/><path class="cls-4" d="M7.81,42.95s-.4-2.49,2.34-3.74c2.74-1.25,5.73,.13,5.88,3.17-.23,.25-.17,.17-.21,.17-.25-.06-.54-.3-2.45,1.13-.36-.02-1.44,.35-1.76,.89-.06,.22-.11,.49-.11,.49,0,0-.24-.84-1.24-.75-.12-.29-.35-.58-.44-.65-.09-.08-.81-.1-.81-.1-.2-.33-.58-.86-1.19-.6Z"/><path class="cls-4" d="M10.22,44.31s-.22-.58-.45-.69c-.23-.11-.71-.1-.71-.1,0,0-.45-.64-.92-.65s-1.09,.5-1.61,.83c-.51,.33-1.13,1.12-1.39,1.5-.27,.38-.6,1.02-.78,1.52-.18,.5-.25,.95-.2,1.43,.05,.48,.55,1.79,.66,2.09,.1,.29,.42,1.09,.74,1.28,.32,.19,1.12,.6,1.6,.54,.47-.06,.82,0,1.19,.11,.38,.11,.55,.13,.75,.07,.19-.06,.69-.55,.84-1.13,.15-.58,.14-.76,.14-.76h-.42s-.24,1.02-.45,1.03c-.21,.01-.66-.87-.76-1.24-.1-.37-.43-1.33-.34-1.65,.08-.31,.44-1.52,.44-1.52,0,0,.42-1.05,.53-1.25,.11-.2,.63-1.17,1.15-1.42Z"/><path class="cls-14" d="M9.67,50.35s-.14,.91-.49,1.01c-.53-.45-.94-1.7-.94-2.16,.34,.46,.7,.89,1.43,1.15Z"/><path class="cls-4" d="M16.59,48.84s-.71-1.6-.81-3.27c-.11-1.67,.02-3.04,.02-3.04,0,0-.35-.4-2.39,1.15-.83,.09-1.7,.59-1.84,.9-.14,.31-.02,1.72-.04,2.37-.02,.65,.01,1.28,.1,1.57,.08,.3,.94,2.07,1.15,2.37,.61-.21,1.15-.25,1.66-.54,.51-.28,2.15-1.52,2.15-1.52Z"/><path class="cls-5" d="M21.62,54.76s.74,4.28,.37,4.77c-.78,.29-3.5,.76-6.91,.8-3.52,.16-6.01,.12-8.78-.16-2.78-.27-5.03-1.12-5.63-1.51-.06-1.41-.18-3.5,.31-6.3,.49-2.8,1.29-4.28,1.29-4.28,.07,.14,.06,.05,.28,.17,.23,.12,.36,.38,.42,.74,.06,.36,.62,1.22,1.92,1.49,.33,.69,.52,1.2,1.53,1.42,1.01,.22,1.34,.15,1.63,.19,.29,.04,1.19,.24,1.53,.28,.33,.04,3.92,1,4.24,.96,.32-.04,5.83,.39,5.92,.39s2.64-1.85,2.64-1.85l-.76,2.89Z"/><path class="cls-12" d="M21.86,59.58s.1,.71,.04,.84c-.42,.12-4.39,.8-8.12,.8s-4.65,.03-6.93-.17c-2.29-.2-4.39-.55-5.75-1.21-.36-.34-.35-.9-.33-1.1,.56,.28,1.83,.98,4.75,1.35,2.92,.37,5.4,.31,6.91,.31s4.33-.11,5.48-.16c1.14-.06,2.93-.3,3.96-.65Z"/><path class="cls-12" d="M20.73,65.79l.13,.55c-.72,.41-2.06,1.12-4,1.01-.9-.09-1.28-.63-1.28-.82,.44,.12,1.82,1.11,5.15-.74Z"/><path class="cls-12" d="M11.98,64.58v.42c-1.61,.25-4.18,.6-5.26,.46-.39-.05-.67-.23-.44-.53,.33,.14,2.53,.38,5.71-.36Z"/><path class="cls-11" d="M20.67,65.84s.02,.59,.05,.57c.61-.43,1.43-1.19,1.48-1.37,.05-.17-.04-.46-.1-.5-.4,.34-1.42,1.29-1.42,1.29Z"/><path class="cls-4" d="M12.85,62.83s-.69,.32-1.79,.36c-.68,.46-1.04,.56-1.04,.56,0,0-1.81-.39-2.08-.54-.05-.37-.27-.39,.28-1.03,.99,.02,2.11,.34,3.15,.23,1.04-.11,1.51-.15,1.51-.15l-.03,.56Z"/><path class="cls-14" d="M12.77,62.22l-.03,.73s1.41-.42,1.48-.6c.07-.19,0-.52-.17-.64-.26,.25-1.28,.52-1.28,.52Z"/><path class="cls-4" d="M15.64,62.69s-.08,.39,.25,.99c.85,.51,1.27,.86,1.89,.85,.62-.01,2.28-.04,2.8-.56,.73-.49,1.48-1.24,1.5-1.33,0-.14,0-.46,0-.46,0,0-2.58,1.05-6.45,.51Z"/><path class="cls-11" d="M11.91,64.58l-.05,.44c.59-.05,2.97-.6,3.13-.8-.04-.38-.07-.55-.07-.55,0,0-1.47,.7-3.01,.91Z"/><path class="cls-11" d="M21.77,59.63s.08,.71,.04,.83c.58-.16,2.44-.41,3.69-1.21,1.25-.8,1.4-1.14,1.4-1.18s-.06-.58-.06-.58c0,0-1.33,.96-2.99,1.53-1.64,.56-2.07,.61-2.07,.61Z"/><path class="cls-19" d="M3.7,50.03s.76,2.85,4.83,4.22c4.07,1.37,6.81,1.42,10.19-.25-.86,.99-1.6,1.7-1.6,1.7,1.8-.81,3.66-2.13,5.03-3.46-.48,1.65-1.88,3.58-2.54,4.17,.84-.23,1.35-.46,1.35-.46,0,0,.65,1.4,.82,3.67,1.19-.24,3.77-1.14,5.06-2.14-.22-1.57-.72-2.9-.89-3.3-.17-.4-.65-2.2-1-3.25-.35-1.05-.79-2.18-.87-2.36,.02-.38-.17-.85-.17-.85,0,0,.58-.63,.24-3.03-.21,.53-.72,1.85-1.33,2.44-.07,.58,.15,.78-.93,1.4-.66,.34-2.52,1.64-2.99,1.85-.06,.46-.41,.81-.88,.9-.69,.19-3.15,1.11-3.47,1.25-.33,.13-.56,.07-.92-.39-.36-.46-1.52-2.48-1.52-2.48,0,0-.97,.67-1.97,.72-.09,.37-.35,1.83-1.18,1.9-.54-.16-.99-.23-1.5-.22-.51,.01-1.57-.25-2-.69-.43-.44-.48-.85-.48-.85,0,0-.46-.08-1.27-.49Z"/><path class="cls-14" d="M16.49,48.63s-.42,.83-1.28,1.08c-.58,.15-1.15-.06-1.41-.71,0,.28,.36,1.41-1.04,1.79,.46,.79,.98,1.78,1.52,1.78s1.01-.37,2.31-.8c1.3-.43,2.19-.5,2.3-1.39-.57,.25-.64,.33-.98,.22-.34-.11-1.11-1.02-1.42-1.98Z"/><path class="cls-8" d="M11.54,47.9c.03,.71,.07,.82,.55,1.71-.13,.35-1.32,.71-1.97,.77-.64,.05-1.4-.52-1.67-.93-.27-.4-.33-.52-.3-.72,.03-.2-.07-.55,.45-1.87l.35-.83c-.03-.15,0-.34,.3-.46,.05-.28,.77-1.24,1.05-1.31,.27-.01,.96,.02,1.19,.85,.11,.28,.12,.4-.03,.67,0,.34,.09,2.11,.09,2.11Z"/><path class="cls-15" d="M8.58,43.02s.15-.51,.43-.58c0,.33,0,.44,.13,.46,.37-.16,.8-.48,.8-.51,0-.11-.6-.49-.6-.49,.02-.18,.21-.37,.21-.37l.35,.04s.4-.51,.37-.63c-.41,.11-1.15,.31-1.27,.28,0-.33,0-.57,.09-.71,.13,.2,.26,.27,.7,.12,.44-.15,.85-.4,.99-.39,.14,0,.26,.33,.26,.48-.02,.15-1.02,.9-1.02,.9,.21,.35,.4,.62,.4,.62,.39-.16,.65-.19,.65-.19,0,0-.4,.4-.48,.47,.16,.32,.49,1.19-.38,1.77-.06-.27-.24-.53-.24-.53,0,0,.53-.55,.2-.92-.56,.27-1.09,.69-1.09,.69l-.49-.51Z"/><path class="cls-15" d="M14.61,42.01c-.02-.16-.32-.32-.95-.56l.13-.32s-.21-.05-.6-.03c-.1,.39-.66,.77-.69,.77s-.19-.12-.35-.36c.71-.55,1.05-.96,1.05-.96l-.35-.06c.74-.5,.93-.85,.93-.85l-.65-.12s-.04,.19-.4,.58c-.5,.5-1.4,.85-1.4,.85,.17,.13,.57,0,.98-.12,.1,.16-.24,.61-.24,.61,0,0-.44,0-.92,.03,.47,.25,.83,.93,.83,.93,0,0-.68,.22-.73,.29-.03,.07,0,.36,.15,.39,.15,.03,.59-.17,.95-.3,.21,.1,.18,1.07,.18,1.07l.45-.12c.1-.15-.01-.64-.09-1.14,.54-.36,.89-.37,.99-.25,.12,.32,.55,.56,.55,.56,0,0,.06-.03,.16-.08,.07-.11,.03-.66,0-.82Zm-1.86,.15c.1-.15,.56-.6,.56-.6,0,0,.14,.11,.34,.38-.08,.07-.89,.23-.89,.23Z"/><path class="cls-15" d="M11.24,44.65s.82-.71,.87-1.31c-.24-.04-.43,.04-.53,.34-.11,.29-.41,.7-.49,.75,.07,.15,.15,.23,.15,.23Z"/><path class="cls-15" d="M14.09,43.15s-.25-.23-.62-.14c.13,.21,.12,.47,.12,.47l.5-.34Z"/><path class="cls-22" d="M4.39,37.48s-.09,2.25,.1,2.78c.19,.53,.7,.64,.92,.72-.3-.41-.26-.39-.33-.68-.2-.35-.6-2.2-.7-2.83Z"/><path class="cls-22" d="M18.95,39.18s1.25-.9,3.01-.8c1.76,.1,2.21,.94,.48,2.33-1.72,1.4-2.08,2.52-2.36,3.22-.82-.44-1.54-1.04-1.98-1.04,.86,.63,1.99,2.12,2.07,2.91-.85-.29-1.23-.55-1.23-.55,0,0,.69,.94,.18,1.92-.51,.98-2.24,1.03-2.78,1.03,.07,.63,1.03,2.37,1.84,2.43,.36-.02,1.17-.5,1.17-.5,0,0,1.68-1.04,2.03-1.28,.35-.25,.48-.32,.63-.38,.21-.09,.85-.33,.81-1.27,.3-.39,1-1.4,1.41-2.87,.41-1.48,.69-3.19,.65-4.17-.03-.98-.01-2.41-1.9-3.79-1.03,.16-3.05,1.39-4.03,2.82Z"/><path class="cls-11" d="M16.33,33.13s.16,.35,.09,.61c.54-.09,1.33-.59,1.36-.77,.03-.18-.25-.83-.88-.53,.04,.22,.09,.45,.09,.45,0,0-.49,.24-.66,.24Z"/><path class="cls-11" d="M21.99,36.04l.29,.58c.44-.19,1.63-.69,2.22-.35,.58,.34,.25,1.89,.09,2.07,.13,.64,.29,1.1,.29,1.1,0,0,.22,.22,.21-1.47-.01-1.69-.38-2.21-.5-2.26-.5-.03-1.24-.13-2.59,.33Z"/><path class="cls-19" d="M16.48,33.72s.07,1.3-.57,1.87c.68-.19,1.61-.78,1.76-.86,.41-.09,2.9-.01,4.2,1.35,1.18-.4,2.01-.44,2.72-.35-.4-.61-2.14-1.61-2.97-1.81-.85-.33-2.66-.59-3.6-.59-.22-.37-.24-.37-.24-.37,0,0-.32,.51-1.3,.76Z"/><path class="cls-19" d="M22.97,36.35s1.15,.71,1.65,2.03c.32-.61,.26-1.91-.12-2.15-.38-.24-1.53,.12-1.53,.12Z"/><path class="cls-13" d="M11.55,30.6s.8,.05,1.4-.24c.59-.29,1.07-.55,1.22-.46,.14,.09-.05,1.07-1.15,1.76-.9,.41-1.5,.16-1.98-.45,.13-.48,.13-.57,.23-.59,.1-.02,.3-.03,.3-.03Z"/><path class="cls-17" d="M11.25,30.63s-.22,.16-.18,.67c-.34-.24-.39-.47-.3-.59,.09-.13,.29-.08,.48-.08Z"/><path class="cls-4" d="M16.31,24.96s.2,.78,.01,2.17c-.29,.78-.78,.68-.89,.68s-1.27-.01-1.65-.26c-.22-1.04-.19-3.04,1.04-3.55,1.23-.5,1.49,.95,1.49,.95Z"/><path class="cls-4" d="M10.78,27.13s-.1-1.75-.37-2.28c-.27-.53-.72-.94-1.47-.45-.75,.49-.83,2.56,.03,3.56,.31,.08,1.15,.03,1.34-.01,.19-.04,.48-.82,.48-.82Z"/><path class="cls-16" d="M22.23,22.38s-.73,.68-.73,.73c.36,.55,.49,.64,.49,.64,0,0,.65-.21,1.38,.11-.33-.61-1.14-1.47-1.14-1.47Z"/><path class="cls-16" d="M24.11,25.36s.72,1.43,.72,2.12c-.16,.29-.66,.61-1.08,.48,.15-.8,.39-2.15,.36-2.61Z"/><path class="cls-16" d="M26.45,13.16s.01,.98-.04,1.31c1.38,1.33,3.56,3.37,4.31,6.35,.58-.86,.59-.99,.59-.99,0,0-.72-3.28-4.85-6.67Z"/><path class="cls-9" d="M26.41,14.48s-.59,3.99-4.21,7.91c.82,.82,1.07,1.42,1.07,1.42,0,0,.61,.21,.8,1.52,.26,.26,.78,1.82,.79,2.23,.56-.57,2.45-2.48,3.26-3.42,.82-.94,2.55-3.15,2.6-3.35,.06-.22-.93-3.45-4.31-6.3Z"/><path class="cls-9" d="M22.33,6.34s1.52,2.22,.94,4.59c1.43,.93,3.26,2.25,4.52,3.51,.13-1.73-.74-4.09-2.32-5.83-1.58-1.74-3.14-2.26-3.14-2.26Z"/><polygon class="cls-15" points="21.29 3.76 20.94 3.5 20.53 3.64 20.67 3.22 20.41 2.87 20.85 2.88 21.1 2.52 21.23 2.94 21.65 3.07 21.29 3.32 21.29 3.76"/><polygon class="cls-15" points="22.27 5.46 21.97 5.14 21.53 5.22 21.74 4.83 21.53 4.44 21.97 4.52 22.27 4.2 22.33 4.64 22.73 4.83 22.33 5.02 22.27 5.46"/><polygon class="cls-15" points="22.85 4.33 22.55 4.01 22.12 4.07 22.33 3.69 22.13 3.3 22.56 3.38 22.87 3.07 22.93 3.51 23.32 3.71 22.92 3.89 22.85 4.33"/><polygon class="cls-15" points="20.72 4.9 20.43 4.72 20.11 4.86 20.19 4.52 19.96 4.26 20.31 4.24 20.48 3.94 20.61 4.26 20.95 4.34 20.69 4.56 20.72 4.9"/><path class="cls-6" d="M20.64,2.49c-.66,.51-1.4,.67-1.65,.34-.25-.32,.08-1,.74-1.52,.66-.51,1.4-.67,1.65-.34,.25,.32-.08,1-.74,1.52Z"/><path class="cls-18" d="M25.58,3.09s-.19-.61-.86-.62c-.67-.01,.07,.93-.71,2.25-.79,1.32-1.58,1.59-1.58,1.59,0,0,1.11,.67,1.75,1.07,.75-.52,1.87-2.27,1.4-4.29Z"/><path class="cls-2" d="M26.46,40.39s-.15,1.49,.48,1.56c.63,.07,1.12-1.15,2.06-2.32,.94-1.17,1.94-2.02,2.82-2.36-.53,.39-.95,.87-1.55,1.97-.45,.68-.45,.69-.45,.69l.26,.04s-.35,.39-.48,.45c-.2,.06-.27,.06-.27,.06,0,0,.16,.11,.13,.17-.12,.11-.27,.26-.05,.43-.18,.29-.33,.61-.4,.93-.19,.35-.51,1.04-.78,1.56-.27,.53-.43,.61-.39,.92-.19,.31-.6,.73-.73,1.03-.13,.3-.29,.69-1.27,1.48-.35,.64-.91,1.33-1.79,1.44-.07-.53-.17-.73-.17-.73,0,0,.34-.48,.34-1.86s-.1-1.32-.1-1.32c0,0,.18-.76,.38-1.02,.21-.26,.54-.51,.54-.51,0,0,.1-.69,.46-.9,.06-.36,.23-.45,.23-.45,0,0,.12-.46,.44-.76,.11-.36,.26-.51,.26-.51Z"/><path class="cls-2" d="M39.69,38.76s.43,.96,.26,1.77-.18,1.81-.15,2.34c.14,.44,.2,1.24,1.42,1.48,1.22,.24,2.26-.73,2.54-2.46,.29-1.74,.27-3.84,.27-3.84,0,0,.52,1.47,.45,1.79-.14-.02-.13-.02-.13-.02,0,0,.3,.61-.02,1.08-.05,.45,.03,.74,.06,.88,.03,.14,.05,.19-.18,.27,.04,.28,.04,.53-.12,.63-.03,.22-.03,.34-.13,.53,.05,.35,.04,.49-.02,.62-.08,.16-.11,.21-.11,.38s-.04,.24-.04,.24l-.17,.03s-.13,.23-.31,.25c-.03,.24-.1,.39-.1,.58s-.12,.37-.12,.37c0-.08-.07-.15-.07-.15,0,0-.18,.16-.33,.17-.06,.14-.05,.29-.18,.31-.12-.08-.16-.08-.16-.08,0,0-.31,.25-.44,.2l-.06-.1s-.15,.11-.31,0c-.18,.13-.21,.09-.53-.28-.14,.1-.22,.1-.22,.1,0,0-.53-.22-.73-1.08l-.21-.03-.08-.62c-.19,.02-.32,.04-.32,.04,0,0,.02-.84,0-.98-.16,.13-.23,.11-.23,.11,0,0,.14-1.25,.14-1.41,0-.22-.07-.51-.03-.64,.04-.13,.22-.43,.22-.85s-.1-1.29,.1-1.6Z"/><g><path class="cls-21" d="M9.03,49c-.08-.05-.16-.06-.17-.03-.02,.03,.04,.09,.11,.13,.08,.05,.16,.06,.17,.03,.02-.03-.04-.09-.11-.13Zm5.06-19.18c-.24,.02-1.2,.68-2.3,.73-.78-.02-1.1-.03-1.1,.29s.88,1.25,1.81,1.1c0,0,.83-.1,1.45-1.12,.41-.69,.37-1.01,.14-1Zm-3.09,1.34c-.17-.14-.39-.52,.17-.49,0,0-.17,.17-.17,.49Zm1.35,.64c-.79,.07-1.25-.59-1.25-.59,0-.3,.07-.36,.2-.51,.96,.03,1.81-.29,2.2-.49,.39-.2,.64-.34,.66-.19,0,.61-1.01,1.71-1.81,1.78Zm2.95-7.81c.7,.07,1.04,1.16,1.04,1.16,0-1.16-.93-1.47-1.47-1.25-1.5,.64-1.45,3.27-1.07,3.67-.41-2.47,.79-3.65,1.5-3.58Zm.57,2.11c-.29,0-.52,.38-.52,.85s.23,.85,.52,.85,.52-.38,.52-.85-.23-.85-.52-.85Zm-4.95,3.92c-.47-.61,.49-.76,.49-.76-1.17,0-.79,.63-.49,.76Zm-.53-3.8c-.26,0-.46,.41-.46,.92s.21,.92,.46,.92,.46-.41,.46-.92-.21-.92-.46-.92Zm5.54,2.33c-.15,.02-.95,.22-1.22,.59,.52-.25,1.01-.44,1.01-.44,0,0-.42,.22-.39,.46,.74-.69,1.61-.83,1.61-.83-.29-.03-.68,.08-1.01,.22Zm6.93-4.24c-.46-.3-1.45,.47-1.89,1.54-.44,1.07,.02,1.76,.41,1.84-.18-.14-.3-.3-.37-.48,.8-.5,.9,.77,.63,1.51-.22,.59-.64,.78-1.05,.82,0-.16,.06-.57,.87-.73,0,0-1-.02-1.03,.74-.05,0-.1,0-.15,0-.51-.02-.73,.07-.81,.44,.49-.64,.95-.27,1.42-.34,1.03-.32,1.12-1.66,.91-2.3-.18-.57-.71-.33-.82-.27-.08-.29-.04-.6,.03-.87,.19,.28,.68,.41,.86,.27-.53-.04-.74-.28-.81-.41,.05-.13,.1-.24,.15-.33,.03-.05,.06-.11,.1-.17,.81-.02,.91-.04,1.32,.31,.42,.35,.36,1.47,.22,1.69-.14,.22-.27,.63-.08,.76,.07-.44,.39-.86,.25-1.96-.13-1.04-1.45-.98-1.59-.96,.33-.47,.87-1.08,1.25-1,.49,.1,.68,1.03,.68,1.03,.02-.27-.02-.83-.47-1.13Zm8.53-4.39v-.02c-.02-1.09-1.42-3.36-3.26-5.26-.06-.06-.12-.12-.18-.19-.03-4.29-3.6-9.01-10.18-9.35-6.74-.35-10.02,4.15-10.11,4.28-1.75,.41-3.33,1.09-4.74,2.18C-.43,14.15-.17,15.21,.23,15.93c0,0,0,.01,0,.01h.02c.03,.06,.06,.11,.09,.16,.13,.22,.52,.94,1.01,1.85,1.08,2.01,2.71,5.06,3.19,5.66,.12,.15,.24,.27,.36,.36-.16,.12-.42,.49-.18,1.66,.29,1.39,1.35,3.2,1.96,3.61-.04,.2-.08,.37-.12,.53-.1,.39-.17,.67-.12,.93,.13,.68,1.22,1.35,3.66,2.25,.25,.09,.49,.18,.73,.25-.21,.09-.49,.25-.56,.46-.01,.04-.02,.08-.02,.11h0s-.24,.37-.32,.74c-.39-.04-2.67-.21-4.99,1.12-.59,.31-.59,.74-.59,1.52,0,.04,0,.08,0,.12-.43,.29-2.53,1.87-3.16,5.68-.34,1.86,.27,3.93,1,5.13h0s-1.2,2.92-1.49,5.99c-.28,2.97-.07,4.38,.04,5.13v.1c.12,.74,.75,1.07,4.45,1.65,.6,.1,1.3,.17,2.08,.23,.1,.49,.83,1.07,.83,1.07,0,0-.08,.24-.22,.42-.02,.09-.13,.15,.01,.34-.51,.28-1.75,1.56-1.72,2.12,.03,.56,1.09,.46,3.36,.28,2.27-.19,4.83-.78,5.52-1.13,.03-.83-.31-1.58-.76-1.95,0,0,.05-.34-.13-.57,.15-.13,.32-.36,.4-.48,.09,0,.19,0,.28-.01,.21,1.06,.77,1.63,.77,1.63,0,0-.05,.26,.16,.67-.73,1.22-.64,1.9-.35,2.72,.22,1.15,1.24,1.35,3.25,.98,2.01-.36,2.77-1.35,3.56-2.1,0,0,.07-.35-.07-.58,.24-1.48-.09-1.81-.04-2.33,.24-.68,.35-1.63,.38-1.86,2.11-.48,3.35-1.1,4.42-2.1h0s0-.02,0-.02c.03-.06,.05-.16,.05-.3,0-.85-.58-3.01-.93-3.78-.17-.39-.43-1.26-.71-2.19-.41-1.37-.86-2.92-1.21-3.46,0-.05,.01-.1,.01-.15,0-.3-.11-.55-.16-.64,.15-.23,.32-.67,.32-1.86,0-.37-.03-.84-.07-1.36,.45-1.38,.71-2.99,.7-4.51,0-.12,0-.24-.01-.36,.06-.05,.16-.27,.22-1.4,.08-2.38-.38-2.69-1.76-3.6l-.08-.05c-.43-.28-.92-.5-1.44-.68-.13-.15-.51-.6-.81-.94,1.04,.24,1.51,.8,1.92,1.36-.5-1.46-1.24-2.26-2.19-2.67,1.29,.14,1.89,.9,2.46,1.51-1.19-1.82-2.34-1.77-3.68-1.62l.53-.44c1.53,.16,2.36-.78,3.08-1.77,.2-.27,.41-.73,.58-1.27,.08,0,.24,0,.52-.08,1.11-.43,4.92-4.92,6.48-7.09h.06s0-.03,0-.07c.29-.4,.49-.71,.58-.9v-.02ZM17.76,5.28c6.38,.33,9.88,4.84,10.01,9-1.85-1.82-6.01-5.27-11.28-5.5-3.19-.04-6.04,0-8.55,.54,.56-.72,3.73-4.36,9.82-4.04ZM4.67,23.5c-.06-.07-.14-.19-.23-.33,.09-.34,.85-2.77,4.09-3.89,3.06-1.05,6.77-.86,9.93,.51,2.39,1.04,3.61,2.3,4.67,3.87-.07-.02-.15-.04-.22-.05-.32-.04-.6-.02-.86,.04-.35-.51-3.1-4.18-9.43-4.36-3.78,.06-6.59,1.64-7.35,4.12v.03s0,.03,0,.03c.04,.08,.12,.18,.23,.32,.06,.08,.13,.16,.2,.26-.2,.03-.59,0-1.03-.56Zm1.14,.71c.06,.09,.12,.18,.18,.28-.13,.08-.4,.3-.56,.79,0-.28,.02-.62,.08-1.04,.12,.01,.23,0,.3-.02Zm-.93,1.38c-.23-1.11,.04-1.44,.15-1.53,.14,.09,.27,.13,.38,.16-.04,.29-.24,1.75,.26,2.41-.03-.16-.19-.4-.23-1.01,.14-.6,.47-.91,.62-1.02,.1,.16,.19,.34,.28,.55-.01,0-.02,.02-.03,.03-.05-.06-.18-.21-.34-.25,.13,.12,.23,.27,.27,.33-.22,.29-.41,.87-.33,1.42,.09,.6,.74,1.44,.9,1.63-.03,.27-.06,.52-.11,.73-.54-.43-1.54-2.1-1.82-3.46Zm1.49,1.89c-.16-.27-.31-.57-.34-.81-.08-.57,.15-1.18,.36-1.41,.15,.35,.27,.77,.36,1.26-.07,.12-.33,.57-.38,.96Zm.41-.78c.03,.22,.06,.46,.07,.71,0,.27-.01,.51-.03,.73-.09-.12-.23-.31-.37-.52,.02-.31,.21-.71,.32-.92Zm3.61,6.99c.07-.2,.47-.38,.66-.44,.02,0,.04,0,.06,.01-.1,.09-.1,.18-.09,.24,.06,.26,.57,.41,.9,.44,.41,.03,.56,.23,.59,.28-.25,.44-.2,1.22-.24,1.43-.01,.07-.19,.19-.45,.32,.03-.25,.12-.96,.12-1.24,0-.21-.27-.28-.62-.38-.34-.09-.76-.21-.9-.48-.04-.06-.05-.12-.03-.18Zm.88-.39c.08,.02,.15,.03,.23,.05,0,.07,.01,.23,.04,.36-.2-.07-.35-.16-.38-.25-.01-.06,.06-.12,.12-.15h0Zm5.79-.51c0-.13-.02-.24-.04-.33,.09-.02,.26-.05,.41,.03,.14,.07,.23,.21,.28,.42-.04,.27-1.65,1.04-3.07,1.18l-.34,.02c-.6,.04-1.07,.07-1.15,.47-.04,.2-.05,.45-.06,.7-.01,.26-.02,.5-.07,.61-.1,.23-1.29,.77-2.15,1.16-.42,.19-.86,.38-1.15,.53-.06-.13-.11-.26-.14-.35,.03-.05,.05-.1,.06-.15,.38-.12,2.48-1.12,2.67-1.2,.2-.09,.1-.66,.21-1.38,.11-.71,2.19-.85,3.41-1.15,1.21-.3,1.57-.74,1.57-.74-.13,.05-.26,.12-.41,.18Zm-11.56,8.13c-.21-.19-.3-.4-.34-.5h.04c-.12-1.03,1.13-1.73,1.38-1.86,.05,.06,.12,.1,.19,.1,0,.05,.01,.12,.02,.2-.27,.15-1.4,.87-1.3,2.07Zm1.29-2.41s-.11-.04-.15-.12c-.02-.04-.03-.08-.03-.12,0-.09,.04-.18,.11-.27,.1-.1,.16-.1,.16-.1h.01s0,0,0,0c0,0,.09,0,.14,.05,.03,.03,.04,.07,.04,.13,0,.22-.17,.43-.29,.43Zm.08-.75s-.07,.01-.12,.04c-.11-.24-.19-.94-.19-1.19,0-.04,0-.07,0-.08,.01-.03,.12-.13,.32-.16-.03,.16-.04,.39-.04,.62,0,.32,.02,.65,.02,.78Zm.12,.82c.05,.21,.23,.85,.49,1.23-.12,.06-.17,.05-.26,.02-.11-.06-.29-.82-.31-1.21,.02-.01,.05-.03,.07-.04Zm.12-.1h-.03c.07-.08,.12-.19,.14-.3,.43-.22,1.47-.66,1.78-.8,0,.02,0,.04,.02,.06l.02,.05h.05s.09,0,.12-.01c.01,.06,.03,.16,.06,.26-.23,.1-1.47,.63-2.11,.94-.03-.12-.05-.2-.05-.2Zm2.03-1.14h0s-.02-.1-.02-.15c0-.15,.06-.31,.15-.41,.08-.09,.18-.11,.29-.08h0s0,0,0,0c0,0,0,.03,0,.07,0,.11-.02,.33-.14,.46-.07,.07-.16,.11-.27,.11Zm-.13-1.48c0-.11,.04-.22,.09-.25,.01,0,.03-.01,.06,0,.01,.15,.05,.68,.07,1.04-.01,.01-.03,.02-.04,.04-.02,.02-.05,.05-.07,.08-.05-.29-.12-.77-.12-.9Zm.44,1.5c.11,.27,.32,.72,.4,.88-.04,.02-.11,.05-.21,.09-.08-.1-.2-.53-.28-.91,.03-.02,.06-.04,.09-.06Zm7.47-4.51c-.38,.17-.85,.35-1.47,.47-.95,.19-2.49,.48-2.75,.66-.04,.03-.07,.06-.1,.09-.08-.1-.27-.27-.66-.3-.08,0-.16-.02-.24-.04-.03-.11-.05-.28-.05-.38,1.44,.26,2.79-.03,5.16-1.1,.03,.07,.14,.3,.12,.59Zm-6.62,1.06s0,0,0,0c.16,.32,.6,.44,.98,.54,.24,.07,.51,.14,.51,.24,0,.16-.03,.5-.06,.8-.23,.07-.76-.03-1.18-.23-.26-.12-.44-.27-.49-.4-.1-.3,.12-.76,.23-.96Zm-5.11,1.7c2.21-1.2,4.33-1.04,4.71-1.01,0,.11,0,.21,.03,.31,.07,.22,.35,.38,.56,.48,.38,.18,.91,.31,1.22,.25-.02,.16-.03,.29-.04,.36-.62,.3-1.57,.67-2.01,.88,.02-.15,0-.26,0-.27v-.05s-.05-.01-.05-.01c-.08-.02-.17-.02-.24,0-.02-.29-.07-.97-.08-1.03v-.04s-.04-.01-.04-.01c-.11-.05-.19-.02-.24,.01-.11,.08-.16,.24-.16,.37,0,.19,.16,.96,.18,1.07-.03,.1-.05,.2-.05,.3-.24,.1-1.28,.55-1.76,.78-.01-.07-.04-.12-.08-.16-.04-.04-.09-.06-.13-.07-.01-.19-.06-1.17,.03-1.48l.03-.09h-.09c-.31,0-.51,.18-.54,.28-.04,.15,.05,1.13,.2,1.41,0,0,0,0-.01,.01h0c-.19,.24-.15,.43-.11,.53-.18,.09-.7,.39-1.07,.84-.43-1.13-.28-3.28-.25-3.65Zm-.18,.1s.03-.01,.04-.02c-.04,.52-.17,2.63,.27,3.74-.12,.19-.22,.4-.25,.63-.13-.26-.16-.55-.19-.8l-.03-.2-.09-.35c-.11-.4-.27-1.02-.27-1.6,0-.84,.02-1.14,.51-1.4Zm-3.77,8.32c0-.37,.03-.73,.1-1.09,.63-3.75,2.62-5.29,3.03-5.56,.03,.46,.14,.91,.23,1.25-.09-.04-.35-.15-.56-.19,.21,.15,.53,.33,.61,.38l.07,.28,.03,.19c.02,.18,.07,.43,.15,.67-.05,0-.19-.02-.26,0,.14,.04,.25,.09,.3,.11,.04,.09,.08,.18,.13,.26,0,0,0,.02,0,.02h0s0,.02,0,.04c0,.01,0,.02,0,.03h0c.07,.22,.38,.96,1.48,1.04,0,.03,0,.05,0,.08,0,.22-.06,.42-.06,.42v.05s.02,.03,.02,.03c.33,.26,.96,.68,1.21,.84-2.32,1.05-3.52,3.56-3.62,4.63-.08,.81,.37,2.02,.74,2.89-1.03-.31-1.59-.81-1.79-1.57-.13-.52-.34-.61-.53-.68-.06-.02-.11-.05-.16-.08-.6-.94-1.13-2.48-1.13-4.03Zm14.72,2.97c.46,2.26,1.52,3.66,2.24,3.66,.14,0,.36-.07,.62-.2-.13,.48-.46,.65-1.16,.84-.73,.2-1.98,.67-2.64,.94l-.08,.03c-.58,.24-.68,.28-1.03,.02-.37-.27-2.11-3.18-2.2-3.97-.07-.6-.14-1.77-.13-2.67,.1-.17,.09-.37,.02-.56,.02-.3,.07-.53,.13-.61,.32-.38,.95-.77,1.65-.79-.08,.37-.39,1.8-.26,2.14,.09-.92,.3-1.9,.36-2.16,.82-.64,1.67-1.25,2.24-1.15-.07,.32-.11,.76-.11,1.31,0,.83,.1,1.9,.36,3.16Zm-4.64,2.7c-.45,.55-.85,.53-1.08,.53s-.19-.1-.22-.3c-.03-.2-.32-.2-.33-.3,0,0,.32,.07,.76,.01,.45-.06,.91-.49,.84-.78-.07-.29-.23-.46-.48-.42-.25,.04-.52,.16-.82,.16s-.36-.01-.53-.13c.04-.22,.07-.52-.17-.62,0,0-.14-.17,.13-.2,0,0,.27,.19,.95,.13,.68-.06,.98-.59,.72-1-.26-.4-1.28-.23-1.56-.23-.16,0-.42-.27-.5-.52-.06-.28,0-.32,.2-.4,.36-.12,.93-.2,1.14-.23,.21,.49,.79,.53,1.05,.42,0,.03,0,.05,0,.08,0,.97,.09,2.1,.13,2.45,.03,.25,.21,.69,.46,1.19-.14,.16-.61,.42-.83,.49,0,0,.17-.16,.13-.33Zm-3.06-.74c-.03-.17-.04-.32-.04-.41,0-.03,0-.06,0-.08,.12-.52,.26-.97,.39-1.37,.05,.15,.17,.41,.33,.36-.09-.14-.23-.42-.27-.53,.1-.28,.2-.54,.3-.77,.21,.56,.58,.51,1.21,.46,.66-.06,.85,.23,.85,.42s-.1,.61-.58,.63c-.48,.03-.79-.03-1.06-.15-.24,.1-.33,.29-.35,.49-.03,.3,.34,.63,.65,.69,.88,.06,1.02-.25,1.28-.12,.26,.13,.27,.46-.06,.74-.33,.27-1.01,.23-1.21,.17-.19,.03-.19,.42,.13,.78-.78-.22-1.3-.82-1.58-1.31Zm1.35,1.37c-.02,.2-.25,.8-.37,.92-.43-.29-.75-1.21-.91-1.92,.19,.32,.59,.81,1.27,1Zm-.3-2.39c.06,0,.12,.09,.12,.21s-.05,.21-.12,.21-.12-.09-.12-.21,.05-.21,.12-.21Zm.46,1.86s.29,.04,.17,.33c-.12-.01-.2-.25-.17-.33Zm.58-6.65c.02-.19-.01-.35-.1-.43l-.03-.03h-.04c-.17,.08-.91,.58-1.09,.71-.14-.17-.28-.31-.41-.42,.02-.07,.09-.33,.27-.48,0,0,0,0,0,.01,0,.23,.05,.36,.16,.4h.01s.01,0,.01,0c.15,0,.72-.34,.89-.51l.04-.04-.03-.05s-.24-.34-.56-.49c.02-.06,.07-.17,.12-.29,.06,.02,.17,.04,.31,.05h.02s.02,0,.02,0c0,0,0,0,.01,0,0,0,.03,.05,.03,.05l.44,.66,.05-.02s.2-.09,.49-.19c-.11,.11-.26,.26-.39,.37l-.04,.03,.02,.05c.12,.28,.16,.52,.16,.72,0,.53-.3,.8-.43,.9-.06-.16-.15-.31-.24-.42,.19-.13,.28-.38,.3-.57Zm-.39,.46s-.07-.07-.08-.08h-.01s-.02-.02-.02-.02c-.01,0-.28-.06-.56-.06,.31-.22,.72-.49,.88-.58,.02,.04,.04,.1,.04,.18,0,.03,0,.06,0,.09-.02,.16-.09,.37-.25,.47Zm.36-2.8c-.13,0-.38,.07-.64,.16-.21,.07-.44,.14-.56,.15,0-.1-.01-.18-.01-.26,0-.14,.01-.22,.03-.29,.05,.06,.14,.13,.28,.16,.21,.05,.69-.17,1.17-.39,.09-.04,.18-.08,.21-.1,.06,.05,.19,.33,.2,.42-.03,.08-.37,.35-.62,.55,0,0-.24,.2-.32,.26,.13-.14,.31-.4,.34-.59v-.08s-.07,0-.07,0Zm.02,3.5v-.02c.44-.02,.87,.1,1.05,.57,.03,.07,.05,.14,.08,.21-.13,.01-.56,.07-.57,.39,0,.07,.51,.11,.63-.07,.08,.04,.04,.15-.03,.22-.06,.05-.18,.11-.3,.14-.45,.08-.79-.43-.87-.86,0,.16,0,.29,.04,.41-.47,.05-.8,.11-1.02,.18,.52-.91,.94-1.14,.95-1.14l.05-.02Zm.86,.11c.08-.08,.39-.4,.47-.78,.06-.29,.25-.29,.39-.28-.05,.2-.22,.62-.78,1.17-.03-.04-.06-.07-.09-.1Zm.27,.72c.07,.05,.09,.16-.01,.23-.13,.09-.31,.12-.46,.06,.09-.17,.35-.26,.47-.29Zm-.1-3.66c.2-.02,.53-.03,.7-.01,0,0,0,0,0,0-.02,.01-.04,.03-.04,.03l.08,.06s.08,.06,.35,.33l.03,.03,.04-.02c.38-.15,.64-.51,.75-.78,.06,0,.24,.01,.41,.04-.01,.05-.03,.12-.09,.19l-.06,.07,.31,.14c.21,.09,.57,.24,.65,.31,.05,.04,.07,.28,.07,.54,0,.11,0,.22-.01,.33-.02,.01-.02,.02-.03,.03h-.03c-.21,.02-.34-.23-.45-.4-.08-.12-.14-.21-.24-.22-.21,0-.84,.31-.97,.37l-.06,.03,.02,.06c.15,.38,.13,.87,.12,1.01-.12,.03-.23,.06-.34,.1,0-1.01-.15-1.03-.2-1.04-.09-.01-.29,.06-.64,.18,0,0-.24,.09-.31,.11-.04-.05-.12-.15-.14-.28,.1-.05,.42-.16,.69-.23h.05v-.07c0-.11-.31-.57-.7-.91Zm1.07-.75l-.03-.06-.06,.02c-.61,.24-.78,.23-.82,.22,.04-.03,.13-.08,.22-.12,.18-.09,.46-.24,.8-.46,.5-.33,.62-.64,.65-.78,.11,.02,.33,.06,.54,.09-.13,.18-.56,.53-.87,.75l-.1,.07,.11,.05s.14,.04,.25,.06c-.21,.29-.79,.72-.96,.84,.16-.21,.3-.42,.3-.57,0-.04,0-.07-.02-.1Zm1.06,2.14l-.1,.02,.04,.09c.03,.06,.11,.32,.13,.46-.05,.04-.1,.08-.16,.12-.11,0-.21,.01-.32,.03,0-.04,0-.1,0-.18,0-.21-.02-.52-.12-.8,.4-.19,.75-.33,.84-.33,.03,0,.08,.1,.13,.16,.1,.15,.23,.35,.43,.41-.09,.06-.18,.12-.27,.18-.08-.08-.27-.22-.61-.17Zm.49,.25c-.1,.07-.19,.14-.29,.21-.02-.11-.06-.24-.09-.33,.2,0,.32,.06,.38,.12Zm.74-.47c0-.07,0-.16,0-.26,0-.25-.02-.54-.12-.63-.09-.09-.38-.21-.7-.34,0,0-.08-.04-.14-.06,.07-.14,.08-.26,.08-.26v-.06h-.06c-.57-.09-.59-.05-.62,0-.1,.26-.34,.57-.65,.71-.12-.12-.2-.2-.25-.24,.22-.16,.88-.66,1.03-.96l.04-.09-.1-.02c-.08-.01-.14-.02-.18-.03,.27-.2,.79-.61,.83-.82l.02-.08h-.08c-.3-.04-.7-.12-.7-.12l-.09-.02v.09s.01,.35-.59,.75c-.33,.22-.6,.39-.78,.48l-.46,.26s.44,.2,1.08-.09c-.02,.13-.17,.33-.26,.46-.29-.03-.84,.03-.87,.03l-.18,.02,.15,.11c.38,.29,.68,.71,.76,.87-.18,.05-.65,.19-.71,.26l-.02,.02v.03c0,.25,.21,.44,.22,.45l.03,.03,.39-.14c.2-.07,.48-.17,.55-.18,.05,.07,.09,.43,.1,.96-.35,.16-.65,.39-.84,.62-.06,.07-.11,.23-.14,.44-.04-.07-.08-.14-.13-.2,.67-.66,.82-1.16,.85-1.34v-.08s-.12,0-.12,0c-.14-.01-.48-.03-.57,.39-.08,.36-.39,.67-.44,.72-.22-.14-.53-.14-.65-.13,.16-.14,.43-.46,.43-.97,0-.21-.04-.44-.15-.72,.17-.14,.62-.68,.62-.68l-.38,.12c-.32,.1-.36,.11-.47,.15-.05-.08-.29-.43-.34-.51,.07-.06,.32-.26,.32-.26,.53-.42,.68-.55,.68-.66,0,0,0,0,0,0,0-.11-.16-.45-.26-.54l-.09-.03s-.08,.02-.27,.11c-.29,.14-.9,.42-1.08,.38-.22-.05-.24-.2-.25-.2l-.02-.15-.1,.1s-.17,.2-.09,.85v.06s.06,0,.06,0c.14,.02,.4-.07,.68-.16,.18-.06,.37-.12,.5-.14-.08,.19-.27,.43-.33,.47-.18-.01-.31-.06-.31-.06l-.06-.02-.03,.06c-.05,.11-.17,.36-.17,.44v.05l.05,.02c.23,.09,.43,.32,.51,.42-.2,.17-.63,.4-.73,.43-.02-.02-.05-.1-.05-.26,0-.04,0-.09,0-.15v-.13s-.1,.06-.1,.06c-.27,.14-.39,.45-.44,.6-.2-.13-.4-.18-.6-.11-.07-.79,.5-3.52,3.87-3.88,3.36-.2,4.02,2.38,4.13,3.45-.03,.03-.05,.05-.07,.08h-.05c-.31-.1-.69,.01-1.1,.24Zm-5.74,.84c-.66,.41-1.6,1.46-1.75,2.06,1.21-1.74,1.85-1.96,1.85-1.96,.27-.03,.63,.03,.71,.05,.06,.06,.29,.31,.37,.59-.14,.09-.57,.42-1.06,1.33-.2,.11-.22,.25-.19,.39-.28,.61-.57,1.41-.83,2.49,0,.02,0,.05,0,.09,0,.55,.43,2.46,1.13,2.87l.03,.02h.03c.18-.08,.43-.79,.48-1.05,.1,.02,.2,.03,.31,.03-.06,.33-.33,1.66-1.05,1.76-.02,0-.48-.08-.48-.08-.37-.07-.75-.14-1.1-.14-.48,0-1.81-.18-2.18-1-.31-.69-1-2.25-1-3.25,0-.06,0-.12,0-.17,.1-1.06,1.31-3.57,3.65-4.57,.31-.15,.6,0,1.07,.54Zm-.78,18.71c.14-.05,.35,.08,.35,.08,0,0-.46,.31-.64,.37,.15-.24,.29-.45,.29-.45Zm.58,.12s-.01,.41-.06,.51c-.05,.1-.38,.28-.67,.28-.01-.31-.12-.36-.12-.36,.29-.21,.73-.42,.85-.43Zm6.11,1.45c.05,.16,.03,.42,.03,.42,0,0-1.86,.59-4.75,.99-2.89,.4-4.14,.31-3.88-.2,.2,.09,1.02,.3,3.49-.01,2.46-.31,4.34-.73,5.11-1.2Zm-5.66-1.29c.07,.02,.12,.03,.14,.03,0,0,.05,.49-.31,.49s-.21-.62-.21-.62c.04,0,.15,.03,.26,.06,0,.06-.03,.16-.13,.25,.17-.03,.23-.15,.25-.22Zm.27,.08c.02-.16,.5-.17,.5-.17,0,0,.81,.56,.96,.71-.43,.22-.88,.52-.88,.52l-.71-.79,.13-.15s.37,.26,.37,.26c0-.16-.29-.35-.37-.37Zm4.66-.28c-.48,.2-1.8,.73-3.09,.73-.31-.3-.81-.6-.81-.6,.92,.03,2.53,.01,3.07-.22,.53-.23,.66-.46,.76-.49,0,0,.26,.23,.08,.58Zm1.53,.55c.51,.1,1.96,.14,2.21,.21,0,0-.66,.33-.95,.55-.56,0-.92-.06-1.06-.07-.15-.02-.2-.69-.2-.69Zm2.36,.78s-.51,.42-.71,.66c-.24-.16-.31-.64-.31-.64,.24-.17,.93-.56,1.01-.56-.01,.24,.01,.53,.01,.53Zm4.1,1.39s-.95,1.57-3.58,2.13c-1.53,.17-2.41,.24-2.93-.55,0,0,1.19,.73,3.46,.08,1.96-.56,2.88-2.03,2.99-2.07,0,0,.12,.08,.06,.41Zm-3.63-1.99c.13,0,.26,0,.34,0,0,0-.08,.73-.48,.72-.4-.01-.24-.71-.24-.71,0,0,.11,0,.25,0,0,.09,.02,.32-.03,.51,.1-.06,.15-.42,.16-.51Zm1.77,.43c-.02,.37-.06,.67-.13,.67-.72-.26-1.31-.5-1.31-.5l.05-.42s.86,.01,1.39,.24Zm-1.36-.37c.59-.2,2.23-.38,3.14-.86l-.02,.4c-.62,.41-1.27,.72-1.75,.73-.29-.1-1.01-.2-1.36-.27Zm7.9-5.14c0,.1-.01,.17-.03,.21-1.43,1.34-3.19,1.98-6.97,2.53-3.56,.52-11.01,.66-14.63,.09-3.59-.57-4.22-.88-4.32-1.53v-.1c-.03-.1-.05-.21-.06-.34,3.45,1.8,9.53,1.76,14.97,1.56,6.95-.08,10.39-2.34,11.02-2.8,.02,.15,.03,.28,.03,.38Zm-2.99-10.28l-.03,.04v.02c-.04,.14-.27,.6-1.27,1.8,.37-.17,1.22-1.28,1.35-1.66,.05,.11,.1,.3,.1,.49,0,.04,0,.09,0,.13-.18,.28-.96,1.46-1.25,1.72,.18,.03,1.06-1.2,1.31-1.57,.33,.58,.76,2.05,1.15,3.36,.27,.93,.53,1.81,.71,2.2,.32,.71,.73,2.28,.87,3.22-.51,.38-3.95,2.71-11,2.79-5.47,.19-11.59,.24-14.99-1.59-.1-.83-.19-2.2,.03-4.58,.26-2.76,1.25-5.37,1.45-5.87,.06,.05,.13,.07,.19,.1,.17,.07,.34,.14,.45,.58,.21,.83,.87,1.39,2,1.7,.07,.16,.14,.31,.19,.44,.38,.85,1.68,1.08,2.31,1.08,.34,0,.71,.07,1.07,.13l.51,.09h0c.86-.11,1.14-1.6,1.18-1.9,.84-.04,1.68-.55,1.9-.69,.58,1.14,1.45,2.51,1.72,2.71,.42,.3,.59,.23,1.17,0l.08-.03c.63-.26,1.91-.74,2.62-.94,.68-.19,1.17-.38,1.29-1.06,.58-.3,1.36-.8,2.14-1.32-.09,.27-.56,.94-.85,1.43,.58-.44,.99-1.36,1.09-1.59,.03-.02,.06-.04,.09-.06,0,0,.27-.18,.28-.19,.02,0,.05-.02,.08-.03-1.15,3.38-3.8,6.03-4.92,7.27,3.77-3.19,4.99-6.91,5.13-7.37,.16-.09,.35-.21,.57-.38,.29-.22,.31-.87,.31-.87,0,0,0-.03,0-.09,.48-.58,.9-1.41,1.24-2.37,.02,.39,.03,.71,.03,1.03,0,.93-.11,1.53-.32,1.82Zm-.95-.69c0-.24,0-.55-.06-.71,0,.27-.09,1-.09,1,0,0,0,.57-.25,.76-.37,.27-.64,.44-.83,.5h0s-.29,.2-.29,.2c-.72,.49-2.65,1.8-3.17,1.8-.58,0-1.62-1.23-2.1-3.54-.4-1.96-.41-3.45-.27-4.27,.4-.65,1.24-.98,1.32-1.05,0,0-.11-.29-.09-.56,.01-.27,.68-.26,.87-.3,.19-.04,.32-.22,.32-.22-.14,.11-.27,.12-.46,.13,.06-.12,.19-.28,.39-.51,.17-.21,.4-.49,.69-.86,1.07-1.53,2.78-2.53,4.08-2.93,.1,.05,1.85,.91,1.86,3.56,.01,2.63-.76,5.52-1.91,7Zm.24-10.62c.36-.1,.68-.14,.94-.14,.26,0,.43,.06,.5,.16,.32,.49,.13,1.39,.03,1.76-.43-1.07-1.16-1.6-1.47-1.78Zm1.45-.58c.35,.48,.46,1.14,.42,2.43-.03,.58-.07,.91-.1,1.08-.04-.35-.12-.67-.22-.95h0c.02-.05,.46-1.37,0-2.05-.1-.15-.31-.22-.62-.23-1.21-.02-3.69,1.03-5.18,2.97,2.03-3.85,5.27-3.34,5.69-3.26Zm-1.36-1.1l.08,.05c.5,.33,.88,.58,1.14,.88-.85-.1-4.08-.18-5.97,3.96-.17,.21-.31,.38-.43,.53-.24,.29-.38,.46-.44,.61-.09,0-.19,.01-.3,.03-.46,.07-.46,.41-.34,.89-.16,.06-.3,.13-.43,.21-.05-.59-.5-3.71-4.68-3.64-4.32,.24-4.51,3.81-4.52,4.25-.25-.17-.53-.36-.72-.51,.02-.08,.05-.23,.05-.41,0-.05,0-.1,0-.15v-.06s-.07,0-.07,0c-.45-.02-.76-.16-.98-.31-.17-1.15,.91-1.87,1.19-2.04,.06,.4,.19,.92,.35,.98,.14,.05,.24,.08,.46-.07l.06-.04-.05-.06c-.19-.25-.35-.67-.44-.98,.62-.3,1.83-.82,2.11-.94,.07,.26,.16,.54,.26,.6l.03,.02h.03c.23-.08,.33-.16,.34-.16l.05-.03-.02-.05s-.12-.27-.24-.54c.29-.15,.74-.34,1.16-.53,1.27-.57,2.11-.97,2.23-1.23,.06-.13,.07-.38,.08-.66,.01-.24,.02-.48,.06-.67,.06-.28,.39-.32,1.02-.36,0,0,.34-.02,.34-.02,1.27-.12,2.75-.73,3.12-1.15,.41,.93,.34,1.18-.13,1.53-.96,.9-3.12,1.21-4,1.42,2.64-.15,4.38-1.26,4.5-1.82,.06-.25,0-.54-.08-.79,.57,.01,3.44,.14,5.16,1.27Zm-.18-5.47c-.75,1.03-1.63,2-3.32,1.64-.17-.04-.3-.12-.37-.24,0,0-.21-.3-.06-.63-.19-.01-.3,.46-.09,.72,.04,.05,.08,.1,.13,.14-5.5,2.79-6.7,2.82-9.19,1.9-2.34-.86-3.44-1.52-3.55-2.12,0-.05-.01-.1-.01-.15,0-.19,.06-.42,.13-.71,.13-.53,.31-1.26,.31-2.39h0c-.12-2.12-.98-3.2-1.39-3.72-.09-.11-.15-.19-.19-.26,.31-.98,.95-1.81,1.86-2.45-.04,.3-.18,.99-.28,1.18,0,0,.3,.4,.35,.44,.05,.05,.05,0,.24-.08l-.24-.41s.17,.15,.48,.26c.07-1.08,.59-2.1,1.03-2.12,.43-.02,.89,.86,1.05,1.46,.07-.87-.49-1.53-.67-1.69,.39-.13,.81-.24,1.25-.32-.36,.81-.08,3.08,.2,3.65-.02-1.91,1.35-3.48,1.67-3.69-.17,.27-.54,1.49-.42,1.89,.63-1.3,1.41-1.87,1.62-2,.28,.02,.54,.05,.8,.09-.59,.41-1.28,1.68-1.51,2.36,.58-.97,1.96-2,2.74-1.83,.78,.17,1.03,1.39,1.03,1.39,0,0,.23-.31,.57-.52,0,0-.3,.47-.44,.66,.06,0,.31-.3,.59-.56,.01-.24-.22-.7-.29-.84,.68,.25,1.28,.53,1.81,.83-.49,.38-.69,1.21-.87,1.93,.62-.9,1.4-1.34,1.62-1.46,.27,.18,.51,.36,.73,.54v1.58c-.94-.15-1.64-.11-1.68-.09,.48,.2,.98,.27,1.17,.61-.33,.04-.59-.13-.59-.13,0,0,.83,.53,1.07,1.11-.18,.37-.26,.7-.26,.88,1.12-2.87,2.83-2.29,2.83-2.29,.42,.07,.73,.33,.91,.77,.55,1.33-.18,3.91-.75,4.69Zm1.18-1.41c-.21,.07-.34,.08-.41,.08,.22-.74,.37-1.61,.34-2.38,.18,.39,.47,1.11,.6,1.96-.22,.17-.4,.29-.53,.34Zm.68-.47c-.19-1.11-.68-2.07-.8-2.28-.03-.21-.09-.41-.16-.59-.13-.31-.31-.55-.54-.7-1.08-1.63-2.41-3.09-4.88-4.16-3.2-1.39-6.96-1.58-10.06-.52-3.08,1.06-3.97,3.26-4.16,3.86-.68-1.11-1.94-3.45-2.82-5.1-.49-.92-.88-1.64-1.01-1.86-.02-.03-.04-.06-.06-.1,.28-.63,2.27-4.49,8.65-5.42,6.88-1.01,10.85-.78,16.25,3.25,4.39,3.33,5.18,6.47,5.3,7.08-1.31,1.84-4.21,5.27-5.72,6.55Zm5.85-6.74c-.21-.91-1.19-3.89-5.33-7.02-2.64-1.97-4.96-3.05-7.53-3.51-2.33-.42-4.89-.35-8.85,.23C2.91,11.22,.77,14.81,.32,15.73,0,15.06-.02,14.05,3.02,11.7c3.44-2.67,7.94-2.82,13.47-2.75,5.58,.24,9.91,4.14,11.52,5.81,1.8,1.87,3.17,4.06,3.21,5.13-.09,.18-.24,.43-.46,.74ZM13.53,47.56c-.07-1.1,.05-3.47,.05-3.47-.24,.2-.31,2.84-.05,3.47Zm4-19.1c-.25-.02-1.25,.13-1.49,.47,.68-.29,1.59-.47,1.49-.47Zm-8.67,.41l.17-.15c-.34,0-1.15,.36-1.2,.63,.12-.19,.32-.15,.32-.15v.19c.19-.2,.73-.37,.73-.37v.22c.22-.03,.74-.36,.74-.36-.25-.03-.76,0-.76,0Zm7.59,.19c.14-.25,1-.36,1-.36-.3-.14-1.1,.17-1,.36Zm-5.3,18.88s-.04,.05-.04,.11,.02,.11,.04,.11,.04-.05,.04-.11-.02-.11-.04-.11Zm-.25,1.33c-.09-.1-.27-.4-.09-.4s.16,.2,.16,.2c.12-.13-.04-.4-.23-.29-.19,.12-.07,.48,.16,.49Zm-1.49-3.43c-.1,0-.17,.12-.17,.28s.07,.28,.17,.28,.17-.12,.17-.28-.07-.28-.17-.28Zm0,.49c-.05,0-.09-.09-.09-.21s.04-.21,.09-.21,.09,.09,.09,.21-.04,.21-.09,.21Zm1.24,1.17c.13,0,.22-.14,.22-.34s-.09-.34-.22-.34-.22,.14-.22,.34,.09,.34,.22,.34Zm0-.58c.06,0,.11,.11,.11,.24s-.05,.24-.11,.24-.11-.11-.11-.24,.05-.24,.11-.24Zm.4-.85c-.07,0-.13,.06-.13,.13s.06,.13,.13,.13,.13-.06,.13-.13-.06-.13-.13-.13Zm-.44,10.55c-.11,0,0,.06-.04,.19-.11,0-.39-.3-.39-.3,0,0,.02,.09,.07,.3-.24-.22-.34-.32-.34-.32,0,0-.02,.11,.13,.36-.26-.15-.43-.5-.43-.5,0,0-.09,.06-.04,.26-3.4-.78-5.6-5.4-5.6-5.4,2.35,5.31,5.77,5.53,5.77,5.53,0,0,.06,.13,.39,.32l.02-.15s.17,.13,.26,.15v-.24l.26,.19v-.15l.24,.07s-.21-.3-.32-.3Zm-1.63-28.65c-1.15-1.86-.24-3.69,.47-3.7,.71-.02,1.05,.86,1.05,.86-.02-1.07-1.57-1.54-2.06-.02-.49,1.52,.27,2.77,.54,2.86Zm4.36,13.53c-.19,.07-.74,.75-.74,.75,0,0,.57-.07,1.16-.25,0,0-.16-.22-.42-.5Zm-.02,.15l.23,.28c-.42,.1-.69,.16-.69,.16,.34-.29,.45-.44,.45-.44Zm-5.85-12.39c.52-.41,.93-.47,.93-.47-.19-.02-.95,.22-.93,.47Z"/><path class="cls-21" d="M20.52,36.09s-1.61,1.25-2.2,3.6c-.1-.24,.4-2.43,2.2-3.6Z"/><path class="cls-21" d="M18.01,40.02s.29-1.95,1.22-3.14c-.55,.23-1.2,1.97-1.22,3.14Z"/><path class="cls-21" d="M6.03,41.35s.27-.68,.22-1.18c-.15,.4-.33,1.08-.33,1.08l.11,.1Z"/><path class="cls-21" d="M5.82,41.25s.36-1.05,.36-1.3c-.17,.28-.45,1.24-.45,1.24l.08,.06Z"/><path class="cls-21" d="M34.79,31.89s-.18-.02-.18-.02c-.2-.03-.46-.06-.75,.1-1.89,.29-2.92,1.25-3.27,1.64,0,0,.01-.21,.01-.21l-.37,.41c-.35,.38-.62,.68-.79,1.05-.11-.09-.2-.14-.2-.14l-.08-.04s-.09,.35-.1,.38c-.05,.07-.42,.55-1.07,1.65-.98,1.64-1.57,3.51-1.62,3.69-.04,.04-.14,.17-.27,.5-.22,.17-.39,.61-.43,.73-.06,.03-.16,.13-.2,.43-.16,.09-.26,.33-.4,.68,0,0-.07,.18-.08,.21-.45,.31-.59,.82-.64,.85l.09,.07s.23-.54,.65-.82h.02s.1-.26,.1-.26c.13-.32,.23-.58,.36-.63l.04-.02v-.04c.04-.26,.11-.34,.14-.35h.04s.01-.05,.01-.05c.05-.15,.23-.58,.41-.71h.02s0-.03,0-.03c.14-.38,.25-.47,.25-.47h.02s0-.04,0-.04c0-.02,.6-1.98,1.61-3.67,.68-1.16,1.07-1.64,1.07-1.65h0s.03-.15,.06-.24c.04,.03,.1,.07,.16,.13l.08,.08,.04-.1c.14-.38,.43-.69,.8-1.09,0,0,.05-.06,.1-.11,0,0-.02,.28-.02,.28l.14-.21s1-1.41,3.33-1.76h.01s.01,0,.01,0c.26-.14,.48-.11,.67-.09l.2,.02h0s.01,0,.01,0c.39-.13,.57-.07,.59-.05l.03,.03h.28c.18,0,.37,0,.39,.04v.06s.5,.02,.5,.02c.41,0,.61,.02,.65,.16l.02,.05h.06c.39-.01,1.02,.08,1.4,.29h.02s.02,0,.02,0c.33,0,.37,.01,.57,.1l.38,.16c.47,.18,1.03,.56,1.27,.73,0,0,.07,.04,.1,.06,.02,.03,.02,.06,.02,.09,0,.05-.02,.08-.02,.09l-.04,.08,.08,.02s.44,.14,1.07,.88c.49,.5,.68,.74,.76,.84,0,0-.12,.04-.12,.04l.06,.08s.67,.92,.82,1.45c0,0-.02-.01-.02-.01l-.09,.11s.47,.63,.8,2.39h-.23l.06,.11s.17,.32,.17,.61c0,.13-.03,.26-.13,.35l-.02,.02v.17c-.02,.15-.03,.27-.03,.38s0,.21,.04,.3c.04,.09,.06,.15,.06,.2,0,.02,0,.03,0,.04-.01,.03-.05,.05-.1,.06h-.06s0,.15,0,.15c0,.06,0,.12,0,.17,0,.15-.02,.24-.11,.31l-.03,.02v.04s0,.03,0,.05c0,.21-.06,.36-.08,.39,0,0-.02,0-.02,0-.03,.03-.04,.08-.04,.15,0,.04,0,.08,0,.13,0,.05,0,.11,0,.16,0,.07,0,.13-.03,.17l-.1,.18h0s-.04,.32-.05,.49c-.09,.01-.12,0-.12,0-.03-.03-.11-.11-.11-.11v.16s-.01,.14-.07,.19c-.03,.02-.06,.03-.11,.01l-.06-.02-.02,.06c-.05,.14-.07,.3-.08,.45-.01,.13-.03,.26-.06,.36-.01-.04-.08-.24-.08-.24l-.08,.14c-.04,.08-.16,.23-.26,.23h-.05l-.02,.05c-.03,.07-.07,.19-.1,.24-.03-.04-.12-.16-.12-.16l-.06,.05c-.06,.06-.25,.2-.39,.22-.02-.03-.04-.06-.04-.06l-.07-.1-.06,.11s-.02,.03-.04,.03c-.03,0-.06-.01-.11-.04l-.05-.04-.06,.06s-.07,.06-.09,.06c-.04,0-.15-.06-.38-.41l-.05-.08s-.13,.14-.17,.18c-.15-.07-.62-.37-.68-1.05v-.15s-.12,.11-.12,.11c-.1,.1-.17,.08-.19,.07-.01-.02-.04-.1-.04-.38,0-.07,0-.16,0-.26v-.09s-.18,.04-.26,.05v-.93l-.09,.02c-.06,.02-.1,.02-.13,.03,.04-.26,.13-1,.13-1.43,0-.1,0-.18-.02-.23,0-.04-.01-.08-.01-.12,0-.19,.08-.38,.13-.53,0,0,.06-.16,.06-.17,.01-.15,.02-.34,.02-.51,0-.34-.02-.65-.02-.66,0,0,.01-.51,.08-.93,.02-.12,.03-.21,.03-.3,0-.18-.04-.3-.1-.47l-.04-.13-.08-.26c-.07-.25-.12-.45-.3-.5-.09-.02-.11-.06-.14-.11-.02-.04-.05-.08-.1-.11-.02-.01-.13-.1-.23-.19-.27-.24-.73-.63-1.07-.79l-.11-.05v.12s.01,.02,.01,.03c0,.02,0,.04,0,.05-.05-.02-.11-.07-.17-.13-.15-.14-.36-.33-.73-.26h-.07s0,.02,0,.02c-.1-.06-.21-.12-.3-.12-.1,0-.11,0-.23-.06l-.11-.04h0c-.46-.08-.63-.06-1.07,.08-.17,.05-.35,.07-.51,.09-.26,.04-.47,.07-.58,.17-.13,.12-.15,.13-.35,.25l-.12,.07c-.21,.13-.32,.23-.39,.29l-.06,.05-.05,.02c-.15,.06-.49,.19-.56,.51v.05s0,0,.01,.02c-.24,.07-.7,.28-1.25,1.02l-.17,.25c-.31,.45-.69,1.01-.88,1.41l-.24,.39s.16,.02,.2,.03c-.08,.07-.18,.17-.24,.25-.08,.09-.27,.19-.33,.19h-.05l-.02,.19h.06s-.04,.03-.07,.05h-.02s0,.03,0,.03c-.03,.07-.04,.13-.04,.19,0,.06,.02,.11,.03,.14,.01,.03,.04,.05,.06,.06-.03,.05-.07,.1-.11,.17l-.06,.1s-.03,.07-.05,.14c-.03,.13-.08,.36-.23,.58h0s0,.02,0,.02c-.14,.41-.29,.67-.49,1.04l-.19,.35-.24,.41c-.13,.2-.18,.3-.19,.55-.15,.23-.27,.37-.4,.53l-.09,.1c-.05,.06-.09,.15-.15,.27-.17,.37-.46,.98-1.31,1.55h-.02s0,.04,0,.04c-.15,.44-1.03,1.31-1.66,1.4l-.04,.17c.68-.11,1.65-1.01,1.83-1.51,.87-.59,1.17-1.22,1.35-1.6,.05-.11,.09-.19,.13-.24l.09-.1c.14-.17,.26-.31,.42-.56v-.02s.01-.02,.01-.02c0-.23,.04-.3,.17-.5l.25-.42,.19-.34c.21-.37,.35-.65,.5-1.06,.15-.24,.21-.48,.24-.62,0,0,.02-.08,.02-.09h0l.07-.12c.04-.07,.11-.19,.14-.22l.1-.1-.14-.02s-.04-.02-.05-.04c0-.01-.02-.04-.02-.07,0-.03,0-.07,.03-.11,.18-.12,.2-.18,.2-.2l.02-.1h-.09c.1-.02,.22-.06,.3-.15,.11-.14,.34-.34,.34-.34l.11-.1s-.22-.03-.29-.05c.05-.09,.12-.21,.13-.21,.19-.39,.57-.95,.88-1.4,0,0,.17-.25,.17-.25,.75-.99,1.31-.99,1.31-.99h.24s-.24-.16-.28-.19c.08-.22,.33-.32,.45-.37l.07-.03,.09-.07c.06-.06,.16-.15,.37-.28l.12-.07c.2-.12,.23-.14,.37-.27,.08-.07,.28-.1,.5-.13,.16-.02,.35-.05,.53-.1,.41-.13,.57-.15,1-.08,.01,0,.09,.04,.09,.04,.13,.05,.16,.07,.29,.07,.08,0,.26,.12,.37,.2l.16,.13s-.05-.22-.05-.24c.24-.02,.39,.1,.53,.23,.09,.08,.17,.15,.27,.18h0s.11-.04,.11-.04c.02-.02,.03-.05,.04-.08,.31,.17,.7,.51,.94,.72,.17,.15,.23,.19,.26,.21,.01,0,.02,.02,.04,.05,.03,.06,.08,.14,.23,.17,.09,.03,.14,.2,.19,.4l.08,.27,.04,.13c.06,.17,.09,.27,.09,.43,0,.07,0,.16-.03,.27-.06,.42-.08,.94-.08,.95,0,0,.02,.33,.02,.68,0,.16,0,.33-.02,.47l-.05,.14c-.06,.15-.14,.36-.14,.58,0,.05,0,.1,.01,.15,.01,.04,.02,.11,.02,.2,0,.4-.1,1.18-.15,1.51v.08s.07,0,.07,0c.01,0,.05,0,.16-.03v.92s.18-.04,.25-.05c0,.06,0,.12,0,.17,0,.39,.06,.46,.09,.48l.07,.03h-.03s0,0,0,0c0,0,.12,.04,.25-.03,.13,.78,.76,1.06,.79,1.07l.05,.02s.07-.08,.11-.13c.18,.26,.31,.38,.43,.4,.08,0,.13-.03,.18-.07,.06,.03,.12,.05,.17,.04,.02,0,.04-.01,.06-.02,0,0,.04,.06,.04,.06h.04c.17,0,.37-.13,.46-.21,.03,.04,.1,.13,.1,.13h.04c.1-.03,.15-.13,.22-.34,.1-.02,.18-.1,.24-.17,.02,.05,.07,.22,.07,.22l.08-.09c.13-.14,.15-.35,.17-.57,.01-.12,.03-.25,.06-.36,.08,0,.13-.02,.16-.05,.07-.06,.1-.14,.11-.21,.05,0,.11,0,.18-.02h.06v-.07c0-.11,.04-.44,.05-.5,.01-.02,.08-.16,.08-.16,.03-.06,.04-.15,.04-.24,0-.05,0-.11,0-.16,0-.04,0-.09,0-.13,0-.02,0-.03,0-.04h.01l.02-.04s.1-.2,.1-.47c0,0,0-.02,0-.02,.11-.11,.14-.24,.14-.39,0-.06,0-.11,0-.18,0,0,0-.01,0-.03,.06-.03,.11-.06,.14-.11,.02-.03,.02-.07,.02-.11,0-.08-.03-.17-.06-.24-.02-.07-.03-.16-.03-.25,0-.1,0-.22,.02-.37,0,0,0-.09,0-.12,.11-.12,.16-.28,.16-.43,0-.23-.08-.45-.14-.58h.17l-.02-.08c-.24-1.29-.54-1.99-.71-2.32,.02,.01,.05,.02,.05,.02v-.13c-.06-.44-.64-1.31-.83-1.57,0,0,.1-.03,.1-.03l-.04-.07s-.1-.19-.83-.94c-.53-.62-.93-.83-1.07-.9,0-.02,.01-.05,.01-.08,0-.05-.01-.11-.05-.17v-.02s-.14-.08-.14-.08c-.24-.16-.81-.55-1.3-.74l-.37-.16c-.21-.1-.27-.12-.62-.12-.4-.2-.99-.3-1.41-.3-.1-.2-.37-.21-.77-.22,0,0-.33-.01-.39-.01-.06-.09-.22-.1-.51-.1,0,0-.19,0-.23,0-.09-.07-.33-.1-.7,.02Z"/><path class="cls-21" d="M33.58,32.13s-.22-.02-1.12,.97c.02-.28,.8-.97,.8-.97h.31Z"/><path class="cls-21" d="M34.27,31.93s-.52,.3-1.04,.69c.09-.27,.6-.6,.6-.6,0,0,.38-.13,.44-.09Z"/><path class="cls-21" d="M35.64,31.99s-.72,.27-1.37,.58c.27-.36,1.19-.64,1.19-.64l.17,.06Z"/><path class="cls-21" d="M36.28,32.1s-.53,.3-.75,.31c.19-.22,.63-.41,.63-.41l.13,.09Z"/><path class="cls-21" d="M37.49,32.27s-.75,.2-1.07,.31c.17-.22,.86-.42,.86-.42,0,0,.11,.09,.2,.11Z"/><path class="cls-21" d="M37.76,32.76s-.25,.19-.49,.24c.17-.25,.33-.22,.49-.24Z"/><path class="cls-21" d="M37.32,32.64s-.08,.17-.39,.17c.14-.19,.24-.16,.39-.17Z"/><path class="cls-21" d="M37.09,32.48s-.08,.24-.35,.24c.13-.24,.35-.24,.35-.24Z"/><path class="cls-21" d="M40.02,33.38s-.36,.06-.72,.16c-.05-.19,0-.2,0-.2l-.33,.14c.06-.27,.46-.27,.63-.27l-.09,.13s.3-.03,.52,.05Z"/><path class="cls-21" d="M39.14,33.08s-.38,.13-.52,.46c-.05-.17,.02-.46,.52-.46Z"/><path class="cls-21" d="M41.11,34.24s-.57-.09-.86,.05c.2-.31,.74-.2,.86-.05Z"/><path class="cls-21" d="M41.69,34.87c-.09,0-.35-.13-.6-.13,.22-.16,.6,.13,.6,.13Z"/><path class="cls-21" d="M41.24,34.54s-.3-.03-.58,0c.28-.14,.41-.11,.58,0Z"/><path class="cls-21" d="M41.63,35.53s0-.17,.6-.17c-.31-.2-.57-.02-.6,.17Z"/><path class="cls-21" d="M41.94,35.14s-.49-.11-.77,.02c.16-.19,.55-.24,.77-.02Z"/><path class="cls-21" d="M42.51,35.76s-.16-.11-.68-.05c.17-.2,.61-.19,.68,.05Z"/><path class="cls-21" d="M42.76,36.14s.05-.17-.72-.17c.31-.17,.77-.05,.72,.17Z"/><path class="cls-21" d="M43.03,36.5s-.14-.2-.74-.2c.27-.09,.71-.11,.74,.2Z"/><path class="cls-21" d="M43.8,37.34s-.02-.19-.61-.31c.3,.19,.58,.46,.58,.46l.03-.14Z"/><path class="cls-21" d="M44.52,39.77s-.44-.71-1.27-.93c.55,.31,1.01,.85,1.12,1.01,.06-.02,.16-.08,.16-.08Z"/><path class="cls-21" d="M44.46,40.7s-.24-.91-1.1-1.34c.55,.58,1.01,1.32,.99,1.49,.03-.08,.11-.16,.11-.16Z"/><path class="cls-21" d="M43.94,40.37s-.02-.42-.5-.6c.22,.27,.25,.39,.25,.39l-.33-.13c.24,.31,.58,.33,.58,.33Z"/><path class="cls-21" d="M43.92,40.98s-.17-.47-.5-.53c.09,.17,.46,.52,.5,.53Z"/><path class="cls-21" d="M43.81,41.2s-.25-.38-.44-.38c.11,.2,.25,.38,.44,.38Z"/><path class="cls-21" d="M43.52,37.49s-.06-.38-.85-.38c.44,.11,.66,.2,.85,.38Z"/><path class="cls-21" d="M43.72,37.82s-.22-.35-.86-.35c.44,.19,.85,.27,.86,.35Z"/><path class="cls-21" d="M43.83,38.26s-.2-.46-.94-.39c.41,.14,.64,.17,.94,.39Z"/><path class="cls-21" d="M43.8,38.67s-.03-.3-.57-.39c.3,.24,.58,.35,.57,.39Z"/><path class="cls-21" d="M44.03,39.36s-.02-.6-.66-.69c.35,.25,.52,.53,.52,.53l.14,.16Z"/><path class="cls-21" d="M44.3,42.01s-.16-.28-.35-.39c.02,.25,.31,.55,.31,.55,0,0-.03-.05,.03-.16Z"/><path class="cls-21" d="M44.21,42.59s-.16,0-.36-.33c.09,.33,.28,.53,.28,.53,0,0-.05-.09,.08-.2Z"/><path class="cls-21" d="M44.03,43.17s-.27-.88-.57-1.02c.19,.42,.5,1.26,.5,1.26l.06-.24Z"/><path class="cls-21" d="M43.63,42.82s-.08-.28-.35-.33c.16,.27,.35,.33,.35,.33Z"/><path class="cls-21" d="M44.03,43.56s-.47-.63-.88-.74c.36,.33,.82,.96,.82,.96,0,0,.07-.13,.06-.22Z"/><path class="cls-21" d="M43.89,43.97s-.16-.44-.38-.53c.05,.25,.38,.68,.38,.68v-.14Z"/><path class="cls-21" d="M43.74,44.44s-.14-.49-.28-.58c.02,.36,.17,.63,.17,.63l.11-.05Z"/><path class="cls-21" d="M41.42,43.68s.16,1.77,.68,2.44h-.15s-.73-1.26-.53-2.44Z"/><path class="cls-21" d="M41.61,44.1s.19,.7,.53,.89c-.14-.51-.35-.6-.53-.89Z"/><path class="cls-21" d="M42.31,45.23s.13,.55,.18,.74c-.09-.1-.16-.03-.16-.03,0,0-.11-.45-.02-.71Z"/><path class="cls-21" d="M41.86,45.16s.25,.71,.42,.8l-.11,.09s-.29-.33-.31-.89Z"/><path class="cls-21" d="M43.06,45.47s.05-.47-.02-.72c-.08,.13-.06,.76-.06,.76l.09-.04Z"/><path class="cls-21" d="M42.87,45.63s.06-.65-.19-.68c.08,.14,.09,.73,.09,.73l.11-.05Z"/><path class="cls-21" d="M43.41,44.73s-.02-.24-.18-.4c-.16-.16-.32-.36-.44-.5-.02,.16,.14,.43,.31,.53,.17,.1,.2,.43,.2,.43l.11-.05Z"/><path class="cls-21" d="M42.38,44.22s.34,.24,.38,.54c-.2-.16-.38-.49-.38-.54Z"/><path class="cls-21" d="M42.11,44.26s.32,.2,.33,.74c-.13-.17-.33-.74-.33-.74Z"/><path class="cls-21" d="M43.01,43.68s.27,.15,.27,.45c-.12-.16-.27-.45-.27-.45Z"/><path class="cls-21" d="M43.07,43.28s.32,.17,.34,.37c-.13,0-.34-.29-.34-.37Z"/><path class="cls-21" d="M42.57,43.36s.01,.3,.19,.32c0-.19-.19-.32-.19-.32Z"/><path class="cls-21" d="M42.14,43.43s-.04,.31,.24,.36c.03-.18-.24-.36-.24-.36Z"/><path class="cls-21" d="M42.46,39.23s.48,.13,.51,.5c-.13-.13-.27-.3-.51-.5Z"/><path class="cls-21" d="M42.56,39.88s.33,.09,.4,.49c-.1-.09-.31-.43-.4-.49Z"/><path class="cls-21" d="M42.61,40.19s.24,.13,.24,.32c-.11-.04-.25-.23-.24-.32Z"/><path class="cls-21" d="M42.52,41.04s.33,.17,.32,.42c-.15,.05-.11,.09,.01,.29-.24-.05-.26-.27-.26-.27l.15-.04s-.11-.25-.23-.4Z"/><path class="cls-21" d="M40.93,43.57s-.15,1.33,.77,2.47l-.14,.04s-1.01-1.13-.63-2.51Z"/><path class="cls-21" d="M40.73,43s-.45,1.7,.39,2.76h-.13s-1-1.19-.26-2.76Z"/><path class="cls-21" d="M40.57,42.6s-.92,1.43,.26,3.22l-.28-.19s-1.06-1.83,.02-3.02Z"/><path class="cls-21" d="M40.09,44.76s-.49-1.32,.43-2.64c-.31,.17-.54,.74-.68,1.09,0-.51,.56-1.29,.84-1.53-.27-.05-1.13,.81-.96,2.41,.02,.59-.01,.87,.38,.66Z"/><path class="cls-21" d="M39.99,42.57s.04-.7,.1-.9c-.21,.09-.2,1.15-.2,1.15,.05-.18,.11-.25,.11-.25Z"/><path class="cls-21" d="M40.53,40.37s-.49,.58-.78,1.83c-.15,.58-.21,1.01-.21,1.01h-.15s.26-2.22,1.15-2.84Z"/><path class="cls-21" d="M40.66,40.45s-.33,.75-.45,.96c-.1-.19,.34-.93,.45-.96Z"/><path class="cls-21" d="M40.75,40.79s-.09,.48-.38,.55c.14-.27,.34-.53,.38-.55Z"/><path class="cls-21" d="M40.4,39.88s-.72,1.39-.8,1.68c0,.27-.18,.48-.18,.48v-.24s.11-.49,.23-.74c.12-.25,.45-1.05,.76-1.19Z"/><path class="cls-21" d="M40.46,39.34s-.69,.88-.86,1.39l-.02-.32s.34-.66,.88-1.07Z"/><path class="cls-21" d="M40.32,38.91s-.54,.91-.75,1.28l.03-.31s.31-.63,.72-.96Z"/><path class="cls-21" d="M40.31,38.39s-.64,1.06-.72,1.13l.02-.27s.55-.86,.7-.86Z"/><path class="cls-21" d="M40.1,37.57s-.23,.49-.42,.71l-.02-.18s.39-.39,.44-.53Z"/><path class="cls-21" d="M39.91,37.02s-.2,.71-.33,.85l-.05-.21s.14-.07,.39-.63Z"/><path class="cls-21" d="M39.77,36.66s.15,.32-.31,.89l-.03-.18s.21-.21,.34-.71Z"/><path class="cls-21" d="M39.37,36.27s.07,.54,0,.88l-.06-.12,.06-.76Z"/><path class="cls-21" d="M39.03,35.66s-.1,.75,.11,1.26c-.16-.03-.16-.13-.16-.13,0,0-.18-1.06,.05-1.14Z"/><path class="cls-21" d="M38.66,35.67s.24,.45,.11,.95l-.07-.06s.06-.45-.03-.89Z"/><path class="cls-21" d="M38.33,35.49s.28,.5,.27,1.03l-.14-.18s.05-.15-.13-.85Z"/><path class="cls-21" d="M37.91,35.37s.42,.31,.38,.88l-.14-.13s.03-.31-.24-.75Z"/><path class="cls-21" d="M37.51,35.38l.39,.54c-.24-.1-.27-.1-.27-.1,0,0-.11-.14-.12-.44Z"/><path class="cls-21" d="M37.01,35.29s.3,.31,.36,.54l-.19-.14s-.02-.17-.17-.4Z"/><path class="cls-21" d="M36.07,34.99s.41,.3,.53,.58c-.1-.02-.19-.08-.19-.08,0,0-.09-.2-.33-.5Z"/><path class="cls-21" d="M35.65,34.97s.42,.28,.5,.48c-.18-.04-.31-.09-.31-.09,0,0,.04-.14-.19-.4Z"/><path class="cls-21" d="M33.36,35.48s-.11,.18-.43,.18c.08-.18,.34-.17,.43-.18Z"/><path class="cls-21" d="M32.87,35.8s-.11,.15-.41,.15c.16-.2,.41-.15,.41-.15Z"/><path class="cls-21" d="M32.45,36.07s.04,.1-.19,.15c0,.07,.06,.23-.42,.26,.23-.13,.28-.19,.3-.23,.02-.03,.07-.18,.31-.18Z"/><path class="cls-21" d="M32.36,36.82s-.41-.02-.65,.06c.25,.03,.66,.06,.66,.06v-.13Z"/><path class="cls-21" d="M30.78,38.48s-.41,.12-.71,.19c.11,.01,.33,.1,.33,.1,0,0-.4,.12-.6,.1,.16,.15,.66,.06,.7,.04,.03-.02,.28-.43,.28-.43Z"/><path class="cls-21" d="M30.38,39.11s-.57,.04-.8,.37c.31-.04,.36-.06,.36-.06,0,0-.28,.18-.29,.25l.27-.03s-.18,.23-.21,.4c.21-.24,.37-.4,.37-.4l.3-.52Z"/><path class="cls-21" d="M29.59,40.43c0-.06-.54,.03-.65,.17,.27,.02,.5-.01,.5-.01l.15-.16Z"/><path class="cls-21" d="M29.31,40.83s-.27,.07-.41,.07c.16,.1,.41,.02,.41,.02v-.1Z"/><path class="cls-21" d="M29.32,41.12s-.2,.11-.41,.13c.24,.07,.4,0,.4,0v-.13Z"/><path class="cls-21" d="M27.84,44.53s-.42-.04-.95,.43c-.28,.29-.44,.64-.36,.6,.45-.4,.83-.41,.86-.42l.1-.12s-.12-.13-.46,.06c.21-.18,.58-.42,.71-.42,.15-.03,.12-.14,.12-.14Z"/><path class="cls-21" d="M26.62,45.78s.01,.26-.55,.31c.19-.21,.46-.33,.55-.31Z"/><path class="cls-21" d="M26.94,45.9s-.6,.48-1.13,.53c.29,.09,.87-.18,.87-.18l.26-.34Z"/><path class="cls-21" d="M25.93,46.94s-.28,.04-.66-.04c.12,.17,.58,.15,.58,.15l.09-.11Z"/><path class="cls-21" d="M25.18,47.23s-.34,.01-.34,.16c.17-.05,.34-.16,.34-.16Z"/><path class="cls-21" d="M25.76,47.19s-.47,.29-.75,.29c.25,.09,.41,.08,.41,.08,0,0-.14,.22-1.05,.17,.27,.21,.9,.07,.9,.07,0,0,.35-.19,.49-.61Z"/></g></svg>