<?xml version="1.0" encoding="UTF-8"?><svg id="Capa_1" xmlns="http://www.w3.org/2000/svg" viewBox="0 0 111.96 181.72"><defs><style>.cls-1{fill:#f7f1f8;}.cls-2{fill:#facdb3;}.cls-3{fill:#fff;}.cls-4{fill:#ffeea3;}.cls-5{fill:#fffadb;}.cls-6{fill:#ffcb00;}.cls-7{fill:#fbe4f0;}.cls-8{fill:#e6d4e9;}.cls-9{fill:#fdece4;}.cls-10{fill:#812a3a;}.cls-11{fill:#662d15;}.cls-12{fill:#97705d;}.cls-13{fill:#b94f74;}.cls-14{fill:#ce7b63;}.cls-15{fill:#c14f62;}.cls-16{fill:#ab4519;}.cls-17{fill:#cd7168;}.cls-18{fill:#dee0e2;}.cls-19{fill:#d57489;}.cls-20{fill:#a8a09e;}.cls-21{fill:#a87018;}.cls-22{fill:#20ad83;}.cls-23{fill:#1d1d1b;}.cls-24{fill:#36639c;}</style></defs><path class="cls-6" d="M50.01,23.96c-1.06,1.43-2.61,8.33-1.81,16.44v.05s.04,.04,.04,.04c2.4,3.07,5.22,6.86,5.74,8.89l.35-.02c.01-.11,1.2-11.18-4-25.35l-.11-.31-.19,.26Z"/><path class="cls-6" d="M58.5,9.61c-10.68,5.56-14.87,15.25-14.91,15.34v.03s-.01,.04-.01,.04c0,.08,0,8.32,.19,10.94v.09s.09,.05,.09,.05c.21,.12,2.45,2.21,3.71,3.72l.32,.39v-.5c-.04-.84-.05-1.64-.05-2.4,0-8.92,1.43-12.87,2.25-13.74l.04-.04v-.06s.01-.05,.01-.07c0-.32-.21-.83-.37-1.15,.1,.03,.53,.28,.51,.3,0,0,6.25,6.03,7.76,8.31l.23,.34,.08,.3s.53,.59,1.57,2.19l.22,.33,.07,.25c.93,1.4,3.2,5.69,3.87,9.32l.09,.49,.24-.43c1.12-2.04,2.16-6.26,2.84-9.04,.28-1.15,.51-2.06,.63-2.38l.2-.51-.46,.3s-1.19,.77-3.47,1.88c.35-10.04,5.62-17.48,5.68-17.56l.04-.06v-.07s-.02-.1-.02-.29c0-.28,.03-.77,.14-1.43,.08,.16,.16,.34,.27,.5l.16,.24,.14-.25c5.31-9.62,10.16-13.82,10.21-13.86l-.16-.3c-.11,.03-11.59,3.34-22.12,8.82Z"/><path class="cls-21" d="M69.26,21.94c-.11,.06-2.78,1.56-3.31,2.21h0c-.23,.31-1.02,3.75-1.88,9.41l-.05,.33,.3-.15s2.13-1.04,3.46-1.86l.03-.02,.02-.02c.78-.97,1.6-8.84,1.7-9.73l.03-.34-.29,.16Z"/><path class="cls-5" d="M60.04,34.19s5-19.98,14.16-29.18c-5.39,3.66-10.9,9.12-15.97,26.06-1.77-2.14-3.55-4.34-3.55-4.34,1.41-4.09,5.25-14.3,11.95-19.55-5.39,1.95-9.99,3.98-18.46,11.04,1.95-2.82,7.28-7.93,16.47-11.62,9.19-3.69,15.82-5.9,16.4-5.94,0,0-4,3.89-6.83,8.19-2.4,3.77-3.28,5.5-3.77,6.66-.77,.96-3.9,6.5-4.61,9.01-.71,2.51-1.6,7.57-1.66,9.37,2.22-1.17,3.92-2.19,3.92-2.19-.25,.84-2.53,11.18-4.08,12.39-.27-3.06-2.48-7.44-3.96-9.91Z"/><path class="cls-21" d="M56.94,14.06s-7.19,4.41-13.29,16.37c-.13,2.68,.16,5.6,.16,5.6,1.26,1.39,3.91,3.51,4.21,4.24,0,0-.5-13.69,2.25-16.54l-.4-1.23,.4-.03c.7-1.06,2.35-4.54,6.66-8.42Z"/><path class="cls-6" d="M48.61,4.71c-.19,.12-19.13,12.18-25.09,26.17l-.1,.22,.24,.02c1.15,.09,3.79,.14,3.81,.14l.42-.05c3.62,.35,8.26,1.37,8.57,1.6l.5,.08c1.4,.33,2.26,.75,2.27,.76l.63,.15c.85,.38,3.12,1.38,3.43,1.94l.33,.61v-.69c0-.54-.05-1.27-.1-2.19-.35-5.59-1.08-17.23,5.33-28.52l.35-.61-.59,.37Z"/><path class="cls-21" d="M25,31.25s3.06-8.08,9.44-12.51c-2.87,4.29-5.38,6.82-6.8,12.56-1.87-.08-2.65-.06-2.65-.06Z"/><path class="cls-5" d="M39.67,33.83s-.22-16.2,5.31-24.79c-3.01,2.88-8.77,10.76-8.23,23.82-1.68-.58-3.36-.84-3.36-.84,0,0-.44-13.15,10.89-24.22,2.7-2.35,4.83-3.41,4.83-3.41,0,0-4.69,7.13-5.67,19.74-.22,4.6,.22,11.95,.22,11.95-.97-.93-1.99-1.9-3.98-2.26Z"/><path class="cls-5" d="M44.96,58.26c-2.52,.57-2.79,1.07-6.17,7.29l-.64,1.17c-4.01,7.35-8.1,18.58-8.52,22.28l-.07,.6,.38-.47c13.77-17.14,22.83-20.23,23.93-20.08,.86,.11,1.95,2.22,2.74,3.76l.26,.5,.94-3c.26-.43,.47-.23,.39-.76,0,0,1.53-1.55,1.53-1.55l.05-.1c-2.37-9.72-6.56-9.87-11-10.03l-.54-.03c-.07-.02-.73-.16-3.29,.42Z"/><path class="cls-6" d="M51.11,59.71s-7.63,2.52-18.37,23.56c0,0,6.16-10.15,14.53-16.16,4.07-3.02,6.39-4.11,7.52-2.79,1.12,1.32,2.79,5.19,3.06,6.08l-.23,.58s-3.14-6.28-5.81-5.73c-2.67,.54-9.96,8.68-15.04,15.73-3.56,4.07-6.74,8.25-7.29,8.53,.04-1.67,2.75-10.35,5.31-15.7,2.56-5.35,6.63-15.31,9.57-15.42,3.18-.81,5.15-.85,6.74,1.32Z"/><path class="cls-21" d="M47.7,57.89s-5.48,3.52-6.69,8.67c2.43-3.16,5.61-7.09,7.74-8.65-.76-.19-1.05-.02-1.05-.02Z"/><path class="cls-5" d="M44.59,80.32c-3.67,4.64-6.21,10.72-6.95,13.46l.16,.07c.39-.56,.78-1.29,1.28-2.22,1.33-2.47,3.34-6.21,7.61-10.93,5.76-6.36,9.94-7.1,9.98-7.1v-.17c-5.22-.78-9.04,3.04-12.08,6.89Z"/><path class="cls-5" d="M65.41,62.58h0c-.23,.06-.4,.19-.52,.39l-1.16,1.85c-1.05,1.67-2.65,4.19-4.6,7.52l-1.41,2.4c-1.95,3.31-3.13,5.3-4.67,8.51-1.89,3.94-3.46,5.88-6.86,9.66l-.05,.05,.19,.25,.07-.03c.3-.14,7.53-3.43,13.55-8.14,10.49-8.62,13.19-17.23,13.19-18.01h0c-.04-.92-4.08-3.99-6.09-4.06,0,0-.03,0-.05,0l-.06-.04s-.89-.53-1.54-.36Z"/><path class="cls-5" d="M73.04,67.05v.08h-.01l-.06,.32c-.38,2.03-.65,3.5-5.83,10.51-5.24,6.78-11.66,10.26-16.35,12.79l-1.25,.68,.15,.31,.08-.03c2.98-1.17,5.18-2.39,10.03-5.05l4.09-2.24c8.82-4.8,11.3-9.63,11.55-10.17,.15-.31,.21-.76,.21-1.29,0-1.71-.71-4.19-1.61-5.09,0,0-.18-.18-.21-.21,0-.04,0-.09,0-.12v-.04c-.17-.47-.57-.52-.61-.53l-.16-.02v.08Z"/><path class="cls-6" d="M55.05,79.43s7.88-8.53,11.4-15.14c-3.08,6.6-8.33,15.92-13.25,21.78,2.42-1.8,8.66-8,10.21-12.63-1.03,5.21-3.16,9.52-3.16,9.52,2.54-1.85,10.67-11.16,12.8-16.25,.7,.58,.9,1.03,.9,1.03-.45,1.44-.33,4.1-4.84,9.43-2.42,2.83-8.29,7.88-9.52,8.16-.94,.86-9.6,6.36-13.54,7.92,1.72-2.09,3.45-4.27,3.45-4.27,0,0,4-6.13,5.54-9.56Z"/><path class="cls-21" d="M52.8,83.83s3.7-2.44,5.58-4.66c-2.7,4-7.09,10.3-11.19,12.68,1.72-1.93,4.71-5.82,5.61-8.02Z"/><path class="cls-5" d="M35.84,55.46c-1.22-2.54-4.45-9.3-19.78-23.92l-.15-.14h.21c14.9-.59,22.46,1.66,26.19,3.67,2.51,1.71,7.66,6.17,11.91,15.07,.38-.59,2.3-9.82-4.15-27.44l-.11-.31,.25,.21c.11,.09,11.12,9.31,13.84,21.66,0,0,.81-.59,1.43-3.03,1.46-5.71,4.25-14.16,4.74-24.05,.03-.66-.03-1.29-.08-1.87l-.03-.33,.19,.27c2.84,3.78,2.89,4.05,2.89,4.05l.89-.34c10.47-6.58,19.13-12.71,25.74-18.21l.13-.11v.17c.35,3.75,.84,11.63,.84,19.64,0,7.48-.43,15.07-1.8,19.49-.86,1.51-1.79,3.23-2.78,5.04-2.11,3.89-4.29,7.92-6.25,10.72-.49,.54-.08,.22,.86-.12,.6-.36,14.9-8.84,18.76-12.24l.23-.2-.09,.29c-2.12,7.24-6.5,19.94-9.83,25.25-1.22,1.56-6.32,4.72-10.04,7.03-.59,.37-2.94,1.93-3.69,2.68-.22,3.04-.43,6-1.25,7.48-2.14,1.83-8.2,6.33-18.18,8.54l-.25,.06,1.28-1.53c7.11-8.66,6.74-9.19,6.74-9.18l.12-.31,.03-.52c.07-1.15,.17-3.08-2.2-4.36l-.09-.05,.06-.08c1.34-1.67,1.58-1.94,1.59-1.95l.19-.21c1.04-1.47,1.53-2.42,1.53-2.42-.02-1.51-.12-2.13-.12-2.13l-.22-1.06c-.34-1.51-.54-2.42-3.05-4.91l-.27-.42c-1.58-1-2.11-1.34-2.11-1.34l-.46-.46h-.34s-.35-.12-.35-.12c-1.94-.68-3.11-1.08-3.49-.96-.52,.24-3.97,3.12-5.31,4.93l-.11,.15-.05-.17c-.94-3.35-2.25-6.7-5.45-8.56l-.56-.19c-2.17-.78-5.64-1.47-9.77-.33l-.28,.29c-.45,.15-.88,.36-.88,.36,0,0-2.55-.53-4.78-1.63-2.23-1.1-2.21-1.22-2.27-1.83Z"/><path class="cls-6" d="M49.92,57.81s-7.21-12.79-16.26-19.51c-8.83-6.34-15.88-7.1-16.1-7.1h-2c4.61,4.44,9.65,9.75,11.27,11.87,1.63,2.11,8.56,9.16,8.94,13.17,4.07,1.95,6.18,2.82,6.88,2.82,1.57-.54,1.95-.87,2.71-.92,.76-.05,2.55-.54,4.55-.33Z"/><path class="cls-21" d="M47.64,57.64s-4.93-4.55-6.83-5.85c1.19,2.82,2.98,5.8,3.09,6.83,2.33-.6,3.74-.98,3.74-.98Z"/><path class="cls-6" d="M70.2,15.13s2.3,6.91,2.35,16.64c.05,9.73-1.36,23.91-6.75,30.77-.63,.05-4.03,3.45-6.02,5.49-.79-3.51-.79-4.4-4.03-8.16-.89-3.82-7.27-14.44-12.09-19.57,0,0,5.86,2.56,11.88,13.97,.26-3.98,1.26-14.81-2.56-21.92-1.78-6.12-3.19-10.1-3.19-10.1,3.24,2.46,10.22,21.92,8.54,34.4,1.82-2.01,3.97-6.82,3.97-7.09-.11-.63-1.41-12.87-8.01-21.24,3.19,2.2,8.16,10.78,9.21,18,1.68-4.29,3.51-9.99,4.81-15.91l.78-4.4s-3.66,2.51-4.34,2.51c.73-2.25,1.1-4.34,1.41-4.5,.58-.58,3.14-2.09,3.51-2.15,.42-.99,.63-4.29,.52-6.75Z"/><path class="cls-21" d="M51.37,51.08s4.5,4.39,4.6,8.95c-.79-.84-1.78-1.26-1.78-1.26-.63-1.94-.68-3.45-2.83-7.69Z"/><path class="cls-21" d="M58.31,69.83c-.55,1-1.6,4.08-2.53,6.8l-.96,2.78,.16,.07c4.7-8.5,9.49-15.96,9.54-16.03l-.12-.12c-1.5,1.02-5.3,5.09-6.07,6.5Z"/><path class="cls-21" d="M61.36,55s-1.67,8.53-.1,11.09c-.94,1.1-1.52,1.67-1.52,1.67-.21-1.57-1.41-4.76-1.94-5.34,.26-1.36,1.26-4.55,3.56-7.43Z"/><path class="cls-21" d="M70.26,26.17s1.26,15.33-2.3,23.86c-2.67,7.33-4.03,9.68-5.02,10.52l-.1-3.04s7.74-17.06,7.43-31.35Z"/><path class="cls-6" d="M72.66,20.73s4.45,8.27,5.28,18.94c.84,10.68-1.1,15.28-2.56,20.36,2.3-1.1,7.12-6.96,7.12-6.96-2.72,4.4-6.07,9.47-10.52,12.4-1.46-.84-2.04-1.47-2.04-1.47,0,0,4.19-3.87,5.29-13.29,1.1-9.42,.78-16.38-.68-22.29-1.47-5.91-1.88-7.69-1.88-7.69Z"/><path class="cls-21" d="M97.5,4.87c-.03-.11-15.35,14.45-22.18,17.78,1.42,2.56,2.18,3.54,2.18,3.54,1.25-1.32,20.28-20.14,20-21.31Z"/><path class="cls-6" d="M94.62,18.49s-5.03,23.88-9.7,28.32c.24-1.84-1.32-7.21-1.32-7.21,.83-1.77,2.18-2.39,11.02-21.11Z"/><path class="cls-6" d="M97.89,12.12s.04,21.12-1.86,26.24c-1.9,5.11-4.34,10.35-7.91,15.85,3.53-3.26,6.32-5.77,6.32-5.77-2.21,3.6-3.87,6.9-4.61,7.44-1.05,.74-4.34,2.79-4.34,2.79,3.53-1.36,5.46-1.9,10.23-4.3,4.77-2.4,9.73-5.39,10.74-6.63-1.43,1.71-7.09,7.01-15.31,11.94-6.98,2.91-10.85,2.25-11.05,2.25,0,0,2.83-3.84,3.72-6.78,2.21-2.91,4.34-9.53,4.34-9.53,.74-1.51,6.08-13.06,7.32-18.25,1.24-5.19,2.56-12.44,2.4-15.23Z"/><path class="cls-21" d="M88.28,45.76s5.08-6.47,6.59-9.18c-2.4,7.09-6.16,15.11-11.2,18.76,.81-2.36,1.05-3.29,1.05-3.29,1.05-1.78,2.91-5,3.57-6.28Z"/><path class="cls-21" d="M82.47,58.25s3.53-2.51,4.59-4.09c-1.6,3.3-2.66,4.92-5.35,7.46,3.66-.66,7.41-1.5,10.02-2.49-2.16,1.65-8.76,5.05-14.59,5.99,1.6-1.67,4.16-4.41,5.33-6.88Z"/><path class="cls-6" d="M42.21,59.73c-1.57,1.97-2.92,4.45-4.4,7.49l-.29,.22-.05,.11c-.62,1.43-.86,1.83-.87,1.84l-.12,.42-.08,.11c-.75,1.08-1.33,2.8-1.34,2.82l-.02,.06h-.06c-2.54,0-12.46,.9-33.46,12.55l-.27,.15,.15-.27c1.66-2.94,8.1-12.89,15.76-19.71,6.94-6.19,12.37-9.57,16.17-9.95,1.84,.07,2.5,.42,2.5,.42,0,0,5.02,1.71,6.36,3.72Z"/><path class="cls-5" d="M42.36,59.53s-8.36-.04-16.49,5.92c5.48-2.28,13.05-3.24,14.65-3.04-1.08,1.64-1.44,2.96-2.88,5.08-1.04-.56-6.24-.4-17.45,5.12-8.24,4.24-12.29,6.8-15.09,9.08,.48-1.8,9.61-12.01,16.25-16.41,6.64-4.4,13.93-8.21,19.09-7.56,1.2,1,1.92,1.8,1.92,1.8Z"/><path class="cls-21" d="M12.14,77.02s10.57-4.88,14.93-5.04c4.36-.16,7.6-.12,8.16,.48,1.4-2.64,2.52-5.08,2.52-5.08-1.92-.6-10.53,.68-25.61,9.65Z"/><path class="cls-21" d="M17.7,68.09s12.33-12.29,18.17-11.97c3.08,.76,3.88,1.72,3.88,1.72,0,0-5.32-1.52-19.69,8.69-.76,.52-2.36,1.56-2.36,1.56Z"/><path class="cls-21" d="M30.55,43.17s4.61,5.31,8.57,14.17c1.31,.82,3.1,2.53,3.1,2.53l.73-.98s-5.59-11.07-12.41-15.72Z"/><path class="cls-6" d="M26.02,42.18c-.42,1.84,1.51,7.84,2.69,11.25l.02,.06h.02s1.11,1.01,3.04,2.24l.04,.03,.05-.02c1.41-.77,2.35-.41,3.26-.05l.65,.24-.09-.2c-2.89-6.05-9.46-13.51-9.53-13.58l-.11-.13-.04,.17Z"/><path class="cls-21" d="M29.57,46.15s1.06,6.25,3.19,9.39c1.59-.08,2.78,.41,3.23,.41-.98-2.08-4.37-7.43-6.41-9.8Z"/><path class="cls-21" d="M21.21,37.09c-.52,1.36-.93,5.09-.71,9.6v.04s.03,.02,.03,.02c1.03,.97,2.83,2.48,4.42,3.82,1.31,1.11,2.56,2.15,3.1,2.67l.14-.09c-.61-1.82-2.59-9.37-2.59-11.54v-.04l-4.33-4.61-.05,.13Z"/><path class="cls-6" d="M23.08,38.59l-.69,9.92c-1.96-1.67-2.04-1.8-2.04-1.8,0,0-.29-6.25,.82-10,1.51,1.55,1.92,1.88,1.92,1.88Z"/><path class="cls-6" d="M7.32,28.46l-.08,.22h0c-.75,2.2-2.87,10.9-2.82,21.73,.05,10.59,6.04,19.32,7.25,20.29l.13,.1,.11-.12s2.29-2.56,3.4-3.72l.27-.1,.11-.12c3.64-3.95,7.14-6.53,9.03-7.53l.26-.14s.56-.35,1.27-.85l.2-.14h.32s.09-.09,.09-.09c1.19-1.04,4.55-2.01,4.58-2.02l.38-.11-.34-.21C14.33,45.05,7.64,28.84,7.57,28.68l-.18-.44-.08,.22Z"/><path class="cls-5" d="M29.2,56.63s-12.23-8.12-19.87-21.51c-.1,2.17,1.01,8.84,7.44,16.72,4.06,4.3,7.69,7.02,8.29,7.16-.61,.38-3.12,2.07-3.12,2.07-3.96-2.17-16.29-18.85-14.31-32.67,0,0-.1,2.71,9.47,14.94,3.77,3.87,7.54,7.73,14.6,12.47-1.4,.48-2.51,.82-2.51,.82Z"/><path class="cls-21" d="M9.67,37.64s2.87,8.53,10.54,14.78c3.07,3.18,6.36,5.63,6.36,5.63-1.09,.75-1.5,.96-1.5,.96,0,0-3.64-2.14-6.8-5.53-3.15-3.38-7.49-9.53-8.6-15.84Z"/><path class="cls-21" d="M7.19,39.5s-1.95,4.13-.24,14.04c1.71,9.91,4.83,14.23,6.29,15.89,1.61-2.16,2.46-2.51,2.31-2.51,0,0-5.68-5.43-7.39-15.39-1.71-9.6-.96-12.03-.96-12.03Z"/><path class="cls-6" d="M2.94,65.39c0,.06,.58,5.86,3.58,11.6l.06,.12,1.69-2.24c.61-.81,.94-1.26,1.13-1.42l.08-.07-.09-.07c-.74-.58-3.13-2.86-3.92-4.34,3.3,3.56,3.95,4.07,4.13,4.07h.04l.03-.03c.75-.8,1.19-1.35,1.19-1.36l.06-.08-.09-.05s-4.08-2.31-7.76-6.2l-.17-.18,.02,.25Z"/><path class="cls-21" d="M3.67,69.41s2.6,5.56,4.13,6.32c-.68,.95-1.35,1.43-1.35,1.43-.81-.7-2.54-5.76-2.78-7.75Z"/><path class="cls-21" d="M29.92,73.86v.17c.39,.07,1.15,.16,2.56,.16-1.39,.31-1.76,.28-1.76,.28-.16,0-3.81-.1-4.22,0v.17c2.82,.21,6.59,.72,7.26,.87h.05s.35-.34,.35-.34l-.15-.04c-.06-.01-1.09-.28-1.94-.4,.97-.05,2.14,.26,2.15,.26l.11,.03v-.39l-.06-.02s-.29-.08-.63-.16c.03,0,.05,0,.08,0h.77s0-.09,0-.09v-.56s-.07-.01-.07-.01c0,0-.32-.06-.73-.11,.6-.02,1.11-.02,1.12-.02h.06l.21-.5-.09-.03c-.19-.06-2.86,.15-5.06,.71Z"/><path class="cls-21" d="M13.21,79.7s-3.48,1.8-4.23,2.25l-.04,.03v.05c0,.21,1.16,2.91,2.69,4.33l.11,.11,.03-.15c.49-2.47,2.19-5.02,2.74-5.39l.1-.06-1.35-1.18-.05,.03Z"/><path class="cls-6" d="M10.84,80.88l2.14,2.8c.22-1.5,3.52-5.22,4.01-5.75-2.14,.26-6.15,2.95-6.15,2.95Z"/><path class="cls-21" d="M25.67,74.91c-.78,0-5.28,1.67-5.73,1.86-.2,.08-.63,.15-.63,.15l-2.05,.86c-5.93,5.63-6.89,14.51-7.03,16.23l.16,.05c6.33-10.77,17.99-15.49,22.71-17.02l.09-.03v-.04s.23-.64,.6-1.17l.08-.11-.13-.03s-3.12-.65-5.38-.38c-1.65-.42-2.69-.38-2.69-.38Z"/><path class="cls-6" d="M12.98,87.98s-1.68,2.59-2.68,5.01c.06-2.59,1.91-8.77,3.96-11.56,1.37-2.39,2.7-3.62,2.82-3.67,2.76-1.22,8.43-3.25,9.14-3.02,1.25,.09,1.94,.4,1.94,.4,0,0-10.79,5.13-15.17,12.84Z"/><path class="cls-21" d="M19.19,84.76c-.74,.29-3.41,2.31-4.53,4.03l-.03,.04,.02,.05c.75,1.38,5.4,3.71,6.19,3.89l.1,.02v-.1c.04-.63,.22-.99,.56-1.63l.03-.06-.06-.05s-1.89-1.52-2.52-2.64c-.1-.9,.34-3.43,.35-3.45l.03-.15-.15,.06Z"/><path class="cls-6" d="M16.74,86.49s1.67,1.48,2.37,1.4c.11-1.97,.39-3.53,.39-3.53-1.03,.63-2.49,1.85-2.76,2.13Z"/><path class="cls-6" d="M25.5,80.67c-.45,.04-1.37,.49-1.63,.8v.02s-.02,.02-.02,.02c0,.01-.29,1.25-.66,2.28,.1-.57,.32-1.35,.55-2.03l.06-.17-.17,.06c-.47,.16-3.66,2.1-4.04,2.74-.03,.12-.58,2.32-.38,3.89,1.11,2.2,7.47,6.31,10.89,8.51l1.7,1.11,.12-.13c-4.21-5.23-6.72-8.9-7.45-10.91-.74-2.04,1.11-6.03,1.13-6.07l.07-.14h-.15Z"/><path class="cls-21" d="M22.02,82.4s-.1,3.54,1.3,4.8c-.3-3.14-.57-2.37,.7-5.94-1.17,.73-2,1.13-2,1.13Z"/><path class="cls-21" d="M28.04,79.34s-.64,.09-1.81,.82l-.03,.02v.04c-.47,1.99,.37,5.74,1.13,7.56l.17-.04c-.44-5.36,.63-8.25,.64-8.27l.05-.14-.15,.02Z"/><path class="cls-21" d="M24.53,86.37h0s0,.02,0,.02c.65,2.6,6.45,9.89,7.57,10.94l.13-.12c-7.82-11.04-6.22-16.33-6.2-16.39l-.16-.07s-1.38,2.88-1.34,5.61Z"/><path class="cls-9" d="M45.56,73.64s-.93,.42-1.16,1.06l-1.02,.55c-4.8,3.8-8,7.3-9.84,9.57l-.21,.25,.32,.03c1.8,.19,4.36,2.22,5.56,3.45l.18,.19,.1-.24c.03-.07,3.25-7.38,9.06-12.51l.09-.08-.04-.12c-.1-.26-2.08-1.76-2.9-2.15l-.07-.03-.07,.03Z"/><path class="cls-21" d="M42.79,75.82s3.34,.64,4.73,1.02l1.09-1.03s-2.72-2.1-3.11-2.15c-.59,.19-2.71,2.16-2.71,2.16Z"/><path class="cls-21" d="M55.06,74.54v.06s.04,.03,.04,.03c.5,.27,.5,.98,.4,1.52l.16,.07c.21-.27,.35-.76,.35-1.2,0-.06,0-.11-.01-.16,.24,0,.37-.13,.43-.25,.12-.21,.14-.57,.09-.63l-.02-.03h-.04c-.69-.04-1.32,.22-1.4,.58Z"/><path class="cls-21" d="M48.49,71.62c-.35,.11-1.54,.9-2.13,1.54,0,0-.09,.09-.09,.09,0,0-.05-.04-.05-.04l-.75,.47,.17,.06c.56,.19,1.42,.88,2.12,1.44l.77,.6h.03s.52-.08,.75-.38l.02-.03v-.04c-.13-.72-.99-1.37-1.82-1.99,.48,.27,1.01,.75,1.42,1.13,.32,.29,.6,.55,.78,.65l.13,.07v-.15c0-.48-.68-1.22-1.48-1.98,.66,.53,1.37,1.28,1.64,1.62l.03,.03h.04c.32,0,1.03-.38,1.11-.42l.08-.05-.05-.08c-1.14-1.7-2.49-2.45-2.64-2.54l-.03-.02h-.03Zm-2.22,1.64s.12,.05,.12,.05c.28,.11,1.43,.87,2,1.49-1.05-.81-2.08-1.51-2.12-1.53Z"/><path class="cls-21" d="M49.17,71.14c-.25,.11-.6,.36-.64,.47l-.02,.07,.07,.03c1.16,.54,2.18,1.63,2.68,2.47l.02,.04h.05c.49,0,.69-.38,.7-.39l.02-.04-.02-.04s-.75-1.27-2.39-2.67c-.12-.06-.27-.04-.46,.05Z"/><path class="cls-21" d="M53.9,69.18s-.61,.04-1.41,.46l-.15,.08s-.17,.06-.33,.13l-.23,.14c-.26,.03-.86,.11-1.55,.77l-.09,.09,.11,.06c1.06,.51,1.84,1.9,2.26,2.64l.03,.04h.05c.3,0,.66-.03,1.2-.25l.22,.05,.07-.02c.66-.14,.99-.16,1.3-.18l.88-.1-.02-.09c-.24-1.31-2.2-3.68-2.28-3.78l-.03-.03h-.04Z"/><path class="cls-21" d="M49.78,70.84c-.06,.05-.14,.19-.11,.25v.02s.02,.01,.02,.01c.58,.52,1.97,1.82,2.38,2.75l.02,.05h.06c.16,0,.31-.11,.33-.12l.06-.04-.03-.07c-.04-.09-1.06-2.13-2.37-2.85-.18-.11-.3-.05-.36,0Z"/><path class="cls-9" d="M104.28,78.95s2.39,3.3-1.22,8.77c0,0-.48,2.52-4.47,3.24h-.03s-.02,.03-.02,.03c-.03,.03-.04,.07-.04,.13,0,.06,.02,.14,.06,.23,.21,.52,.98,1.39,2.17,1.53l.27,.03-.2-.19c-.5-.48-.84-.94-.95-1.28,.21,.24,.53,.6,.53,.6,.31,.39,.5,.62,.85,.65,.79-.21,2.86-.15,4.18,.93,.52,.39,1.13,.75,1.75,.56,.51-.16,.94-.7,1.31-1.6-.06,.48-.32,1.08-.45,1.27l-.06,.09,.09,.04c.09,.04,.24,.05,.44-.14,.36-.37,.76-1.36,.76-2.08,0-.19-.03-.35-.09-.49-.12-.25,1.18,.27,1.18,.27,.59-.35,1.49-1.44,1.45-2.06-.03-.41-.19-1.5-.37-2.76l-.24-1.63-.04-.25c-.23-1.73-.39-2.88-6.75-6.02l-.11,.13Z"/><path class="cls-2" d="M109.9,87.59s2.43,2.75-.19,3.32c-.55-.39-1.3-.7-1.3-.7-.09-.43-.21-.75,.73-1.61,.69-.75,.76-1,.76-1Z"/><path class="cls-9" d="M108.79,90.58c1.19,.94,.2,2.74-.13,3.27l-.08,.13h.16c.25,0,.91-.14,1.32-.57,.27-.29,.39-.65,.37-1.08-.08-1.34-1.48-1.88-1.54-1.9l-.09,.15Z"/><path class="cls-2" d="M102.29,89.29s-.08,1.54,.27,1.64c.34,.1,6.23-1.39,4.97,3.11-.64,.33-1.08,.25-1.26,.27-.34,.04-1.79,.42-2.69-.02-.82-.45-1.46-1.64-1.46-1.64-.4,.15-1.31,.43-2.21,.1-.94-.58-1.4-1.19-1.55-1.84,.99-.28,2-.31,3.93-1.63Z"/><path class="cls-3" d="M104.9,80.75s2.31,.95,3.28,2.15c.98,1.2,.73,3.63,1.23,3.88,.82-.63-.1-2.18,1.23-2.24,.51-.6,.29-1.26,.29-1.26,0,0-.73-2.05-6.82-4.64,.38,.63,.79,1.48,.79,2.11Z"/><path class="cls-7" d="M100.62,77.17l-.19,.28-1.16,1.6,.08,.1c.56,.77,1.88,2.57,.55,6.04-1.18,2.61-2.45,4.14-4.54,5.47l-.44,.28,.52,.04c.77,.06,1.34-.02,1.34-.02l.63-.02c1.33-.04,4.45-.12,6.84-5.62,1.04-2.71,.77-5.7-.66-7.28-.79-.87-1.84-1.18-2.97-.88Z"/><path class="cls-10" d="M99.05,86.88s1.26,.27,1.47,.22c.74-.97,1.13-2.11,1.13-2.11-.22,.78-.55,2.54-.51,2.54,1.31,.03,1.88,.05,1.88,.05,0,0-1.09,4.14-7.9,3.35,1.55-1.28,2.75-2.3,3.93-4.05Z"/><path class="cls-9" d="M99.12,79.16c-.18,.2-4.32,4.97-4.93,6.04-.42,.73-1.47,3.06-2.4,5.1l-1.34,2.93,.35-.08c2.59-.62,7.63-4.16,9.03-7.61,1.42-3.79-.36-6.27-.44-6.38l-.13-.18-.14,.16Z"/><path class="cls-9" d="M83,94.31l-.09,.04-.58,4.98,.29-.14c8.24-3.95,10.8-12.25,10.83-12.33l-.32-.14c-2.27,3.76-10.05,7.55-10.13,7.58Z"/><path class="cls-2" d="M91.79,90.38s6.5-4.2,7.12-3.41c-.44,.7-3.88,5.24-8.47,6.26,.71-1.57,1.35-2.85,1.35-2.85Z"/><path class="cls-2" d="M91.72,90.58s-2.94,3.54-8.94,5.86c-.49,2.04-.42,2.99-.42,2.99,3.14-1.46,7.74-5.24,9.36-8.85Z"/><path class="cls-4" d="M74.33,126.14c-1.91,.65-5.97,4.25-7.36,5.88l-.23,.27,.36,.02c1.15,.05,1.9,.2,2.4,.29l.61,.09,.02-.02,1.35-.48c1.86-.64,4.68-1.6,6.55-2.87l.16-.11-.12-.15c-.07-.09-1.8-2.21-3.61-2.93l-.06-.02-.06,.02Z"/><path class="cls-4" d="M77.01,124.9l-.98,.46c-1.16,.53-1.27,.6-1.31,.72l-.05,.14,.14,.07c.98,.49,2.87,2.06,3.34,2.89l.07,.13,.14-.05c.07-.03,1.8-.69,2.28-1.26l.07-.08-.04-.1c-.3-.78-1.53-2.03-2.27-2.31h-.02s-.02,0-.02,0c-.72-.11-1.14-.56-1.15-.57l-.09-.09-.12,.06Z"/><path class="cls-16" d="M78.17,129.43s-3.43-2.18-4.65-2.18c-1.29,.64-3.12,2.85-4.5,5.2-1.65-.13-2.25-.16-2.25-.16,.27-.58,5.54-5.56,7.77-6.28l1.34-.62s2.78,2.65,2.92,3.67c-.49,.29-.63,.38-.63,.38Z"/><path class="cls-16" d="M82.95,133.58c-.06,0-1.39,.14-2.17,.74l-.36,.09c-.48,.14-1.7,.65-3.11,1.25-2.31,.98-5.48,2.32-6.35,2.37-1.09,.06-3.4-1.04-5.45-2.01l-1.59-.75-.08,.11c-.91,1.2-3.09,3.2-4.59,4.38,0,0-1.26,.83-1.3,.86,0,0-.31,.16-.31,.16,.54,2.28,5.26,8.24,6.61,8.7,1.09,.38,4.74,1.27,8.48,.92,6.25-1.68,9-5.98,10.64-9.68,1.63-3.68-.18-6.93-.26-7.07l-.06-.1h-.11Z"/><path class="cls-4" d="M80.55,134.38s.79,4.34,.54,6.11c-1.76,3.58-4.59,5.79-4.59,5.79,1.8,.89,3.67-.28,3.76-.41,.4-.59,2.65-3.68,3.02-4.74,.36-1.06,.85-2.71,.85-3.61s-.56-3.76-1.3-4.04c-1.23,.53-2.26,.89-2.26,.89Z"/><path class="cls-4" d="M67.45,137.01s5.07,6.24,5.82,6.59c1.46,.22,7.16-2.09,7.41-7.57-.13-1.39-.1-1.84-.1-1.84,0,0-6.58,2.95-7.94,3.39-1.36,.44-1.74,.89-5.19-.57Z"/><path class="cls-11" d="M80.3,134.35s.06,6.24-1.36,9.43c1.11-1.65,2.41-3.51,2.47-3.77,.06-.51-.13-5.86-1.11-5.67Z"/><path class="cls-11" d="M59.72,140.43s1.71,2.34,13.49,7.41c-2.66,.29-6.36-.51-13.65-5.83,.16,.7,3.13,4.08,5.64,5.26,2.5,1.17,5.13,1.96,5.51,3.32-2.79-.19-5.64-.73-6.74-1.27-1.11-.54-5.22-5-6.27-8.74,1.04-.35,1.23-.66,1.23-.66l.79,.51Z"/><path class="cls-11" d="M62.44,136.85s1.14,4.15,3.67,5.76c-1.9-.35-4.78-2.56-5.64-3.83l1.96-1.93Z"/><path class="cls-1" d="M79.01,128.98s-.59,.27-.59,.27c-4.67,2.17-6.86,3.18-9.1,3.44-.13-.05-.45-.18-.45-.18-.19-.07-.64-.14-1.32-.24-2.19-.32-6.74-.98-10.31-3.12l-.09-.06-1.38,.9,.19,.15c1.65,1.3,11.78,7.65,15.05,7.82,1.13,.06,2.75-.72,4.79-1.7,3.74-1.8,8.87-4.27,14.16-2.84l.21,.06v-.22c.16-3.64,.6-5.87,1.48-7.22-.5,.83-.95,1.91-1.03,3.21l-.02,.23,.23-.05c1.72-.36,6.49,.06,8.04,.86l.36,.18-.11-.39c-.54-1.91-2.08-6.4-4.68-6.79-2.54-.38-6,.43-15.43,5.68Z"/><path class="cls-20" d="M58.63,129.9s7,5.68,12.04,6.11c3.73,.07,15.8-6.64,19.78-5.47-.25,2.34-.18,3.09-.18,3.09-1.67-.5-3.87-1.31-9.69,.57-3.69,1.56-8.49,3.94-9.41,3.76-.92-.18-.17,.47-7.53-2.82-6.75-4.03-7.99-5.06-7.99-5.06l1.52-1.04,1.46,.85Z"/><path class="cls-20" d="M58.4,128.31s-.47,.26-1.06,.68l-.23,.17,.25,.13c.91,.48,3.3,1.57,4.84,1.85l.1-.33c-1.5-.65-3.68-2.45-3.7-2.47l-.09-.08-.11,.06Z"/><path class="cls-20" d="M71.11,155.4l-.44,.08,.38,.24c.08,.05,1.92,1.23,2.87,1.32l.44,.04-.3-.33c-1.42-1.6-2.89-1.36-2.95-1.35Z"/><path class="cls-20" d="M54.19,130.6s-.14,.13-.9,.5c0,0-.61,.15-1,.24l-.13,.03v.13c-.5,5.97,.4,11.42,1.55,13.71l.03,.06,.06,.03c1.27,.59,2.19,1.42,2.93,2.09,.34,.31,.63,.57,.91,.77,.69,.49,.85,2,1.06,3.91l.12,1.03v.02c.26,.57,4.63,5.9,5.27,6.4l.1,.08,.11-.08s1.07-.77,2.64-2.22c1.07-1.25,2.61-1.83,4.84-1.83l.08-.33c-4.32-2.26-4.47-2.4-8.18-5.86l-.07-.06c-9.03-8.58-9.1-18.38-9.1-18.48l-.31-.12Z"/><path class="cls-1" d="M53.42,131.18s1.14,17.93,13.61,26.04c-1.52,1.36-2.84,2.35-2.84,2.35-1.9-1.48-4.78-5.65-5.54-6.48-.19-3.15-.15-4.59-1.93-5.69-1.78-1.1-3.11-2.09-3.11-2.09-.57-.91-2.73-12.24-1.14-14.21,.64-.04,.95,.08,.95,.08Z"/><path class="cls-2" d="M48.78,169.22c-1.3,1.86-1.08,2.12-1.01,2.2,.17,.19,.52,.39,.9,.61,.34,.19,.69,.4,.86,.56l.07,.07c.31,.31,.78,.79,1.21,.7,.2-.04,.36-.19,.46-.46,.31-.78,.86-1.67,1.6-2.58,.69-.85,.91-1.07,.91-1.07l.11-.11-.09-.12c-.05-.07-1.27-1.64-2.86-1.94-.46-.18-1.55,1.26-2.16,2.13Z"/><path class="cls-2" d="M52.07,145.41c.2,.2,1.11,1.78,1.68,2.79l.13,.24,.14,.32,.02,.03c1.33,2.15,1.61,4.67,1.61,6.6,0,.9-.06,1.67-.1,2.21,0,0-.04,.57-.04,.59-.05,.01-.73,1.19-.73,1.19l-.13,.16c-1.59,1.92-2.96,2.85-4.19,2.85h-.17v.17c-.08,2.21-2.05,4.14-3.37,4.5l-.23,.06,.13,.2c1.17,1.77-1.56,5.47-2.11,6.07l-.07,.08,.04,.1c.11,.26,.71,1.6,2.33,1.98,1.54,.36,3.02-.58,3.69-1.7l.06-.11-.08-.09c-.53-.66-1.21-1.05-1.82-1.4-.57-.33-1.06-.61-1.14-.98-.02-.07-.03-.37,.51-1.22,.85-1.34,2.26-2.83,2.57-2.9,.46-.03,1.76,.62,3.01,1.75l.15,.13,.11-.16c.82-1.16,2.5-2.9,3.85-4.3,.81-.84,1.5-1.56,1.81-1.94,.84-1.06,.25-4.35-.18-5.94-.36-1.35-.99-4.18-1.04-6.24-.04-2.17-1.93-3.22-2.84-3.73-1.02-.57-2.13-1.47-2.14-1.48l-.04-.03-1.74-.12,.34,.33Z"/><path class="cls-9" d="M53.27,147.17s1.58,.53,2.74,1.72c1.16,1.19,1.95,2.44,2.3,3.81,.54,1.21,.88,2.19,1.16,3.3,.28,1.12,1.19,4.74,.53,6.07-.65,1.32-1.95,2.39-3.67,4.3,.14-1.02,1.79-2.77,2.16-3.91,.37-1.14-1.16-1.98-2.14-2.32-.05-1.58,.12-5.16-.93-7.44-.65-2.42-1.7-4.91-2.19-5.58"/><path class="cls-2" d="M36.16,135.83c-1.56,.04-2.31,1.31-3.34,3.06l-.26,.43c-.83,1.39-1.57,1.84-1.57,1.84l-.27,.13s-.88,.41-2.62,.74c-1.87,.3-3.89,1.8-3.89,4.38,0,0,0,.79,0,.93,0,1.1-.48,1.46-.48,1.46l-.1,.11c-.1,.11-2.37,2.7-2.75,6.13l-.04,.34-.62,.8c-1.28,1.21-1.93,2.52-1.93,3.8,0,.54,.12,1.08,.36,1.6,.42,.93,1.78,4.03,1.78,5.55,0,.03,0,.05,0,.08-.01,.43-.02,1-.02,1.6,0,.72,0,1.47,.01,2.05v.9c0,.72,.65,1.15,2.56,2.4l1.01,1.36c2.29,3.48,4.07,5.35,5.28,5.57,1.64,.29,5.49,.63,6.62,.29,1.11-.34,2.86-1.01,4.07-1.64,1.13-.58,3.12-2.31,2.63-4.69l-.04-.18s-.19,.05-.2,.05c1.22-.35,2.64-1.25,3.72-3.72,.59-1.18,.84-2.2,.84-2.94,0-.57-.12-1.29,.24-1.37,.79-.19,3.14-2.51,2.97-3.88-.08-.62,.21-.66,.21-.66,.64,.1,1.75-.39,2.82-1.25,1.4-1.13,2.28-2.52,2.34-3.7,.14-2.61-.21-5.57-.85-7.19-.71-1.82-4.22-7.86-6.54-9.94-2.79-2.5-6.75-2.69-7.19-2.71h-.43s-.08,.04-.08,.04c-1.45-1.24-2.84-1.83-4.24-1.79Z"/><path class="cls-9" d="M24.14,148.09s1.24-2.38,1.45-2.43c1.5,.83,3.41,3.41,7.96,5.22-1.4,.31-3.98,.15-3.98,.15-.93,.31,1.14,4.65,4.18,7.49,3.05,2.84,8.22,6.66,9.25,6.3,1.5-1.19,3.98-4.5,4.03-5.99,1.08,.26,1.86,5.22,1.86,6.51,1.34-1.09,1.39-2.63,1.31-3.13-.07-.6-2.14-7.93-11.24-12.84l-.93-.88s3.41,.26,3.87,.52c.47,.26,5.17,4.81,6.25,4.86,1.09,.05,3.56-3.56,4.96-3.51,0,0,1.87,6.72,.34,10.47,1.21-1.23,2.55-2.92,2.18-5.08-.37-2.16-.16-4.59-2.02-7.77-1.86-3.18-9.16-8.16-10.09-8.46-.93-.3-7.03-4.17-8.56-3.45,0,0-1.11,.93-2.34,2.85-1.23,1.95-1.67,2.23-2.55,2.48-.88,.26-7.2,.8-5.95,6.69Z"/><path class="cls-17" d="M51.33,162.36s-4.52,5.94-1.83,10.22c.71,.71,1.29,1.19,1.29,1.19-.14,.41-2.41,3.26-5.4,.95-.75-.82-.74-1.2-.74-1.2,.81-.97,3.15-4.2,2.06-6.41,1.43-.58,3.63-2.95,3.5-4.89,.61,.31,1.12,.14,1.12,.14Z"/><path class="cls-17" d="M45.76,167.18s-.17,5.91-5.43,6.66c1.8-3.12,3.06-5.2,2.95-6.93,1.46,.2,2.48,.27,2.48,.27Z"/><path class="cls-17" d="M44.49,173.69c-.97,1.05-1.8,1.15-1.8,1.15l-.22,.02,.07,.21s.19,.56,.03,1.54l-.05,.29,.28-.1c1.94-.69,2.3-2.06,2.32-2.12v-.04s0-.04,0-.04c0-.02-.09-.5-.36-.9l-.12-.19-.15,.16Z"/><path class="cls-17" d="M21.64,173.5c.14,0,3.84,.03,3.84,.03,4.65,4.48,5.64,5.47,6.15,5.6,4.21,0,5.94,.75,7.03-1.6l.54-2.21s2.61-.17,3.29-.48c.27,1.49,.95,4.31-7.06,6.62-2.68,.24-6.22-.37-6.89-.68-.68-.31-3.67-3.57-4.96-5.47-1.77-1.7-1.94-1.83-1.94-1.83Z"/><path class="cls-17" d="M35.19,174.55l-2.85,.41c-1.83-.85-2.55-2.65-2.55-2.65,1.22,.27,1.83,.07,1.83,.07l3.57,2.17Z"/><path class="cls-9" d="M27.35,164.26s-1.12,1.6-2.65,1.29c-1.53-.31-3.23-2.92-3.33-3.63,1.46,.65,.58,1.09,5.98,2.34Z"/><path class="cls-9" d="M25.51,158.96l2.14,3.63c-.92-.07-6.25-2.11-6.89-3.6,.95-1.97,3.16-2.72,3.57-2.17,.41,.54,1.19,2.14,1.19,2.14Z"/><path class="cls-3" d="M46.81,157.67s-6.72-7.95-10.8-6.89c4.79,4.45,8.15,9.37,8.9,9.37s1.87-2.07,1.9-2.48Z"/><path class="cls-3" d="M30.95,144.16s-2.04-1.63-3.46-.17c.41,1.46,4.92,4.04,5.67,4.01-1.46-1.87-2.11-3.87-2.11-3.87"/><path class="cls-3" d="M34.65,136.55s4.89,.34,9.95,7.85c.24-.68-1.12-3.77,.34-3.46,1.46,.31,6.42,6.69,6.79,7.88-.61,1.29-1.02,2.45-1.22,2.75,1.53-.95,2.72-1.73,4.31-.85l-.85-2.21,.34-.48c.1,0,.65,.92,1.94,1.56s2.21,4.92,2.89,5.74c0,0-.54-2.89-.61-4.11-.07-1.22,.34-2.21-1.77-3.7-1.83-1.66-3.33-2.38-3.8-2.41l-1.12-.24s-4.04-7.57-11.31-7.34c-1.49-.92-4.14-2.45-5.88-.98Z"/><path class="cls-7" d="M26.06,135.25h0c-7.52,2.01-11.26,8.55-12.24,14.01-1.11,6.13,2.4,9.29,3.72,10.49l.49-.91c.25-.75,1.16-1.87,2.49-3.09l.05-.05v-.07c.25-2.78,2.54-6.44,3.52-8l.04-.06v-.07c-.1-.41-.14-.78-.14-1.14,0-3.64,4.18-4.58,6.06-5l.53-.12,.03-.04c.68-.73,2.35-2.64,3.14-3.94l.33-.17c.75-1.24,1.5-1.13,1.53-1.12l.11-.33c-1.38-.71-5.29-1.31-9.65-.39Z"/><path class="cls-15" d="M16.56,142.18s-.71,1.67,1.34,3.37c.68,1.57,.56,5.11,2.83,5.77,.03-3.26,.28-5.36,.86-5.79-.15,1.87-.1,3.97,1.01,4.65-.99,1.49-1.57,3.24-1.87,5.34-1.09,1.11-1.34,1.44-1.34,1.44,0,0-5.21-2.76-5.87-5.01,.1-3.01,.91-6.91,3.04-9.77Z"/><path class="cls-10" d="M17.72,145.85s-.68,5.11,.53,7.79c.61-3.29,1.72-9.89,3.54-12.32-2.05,1.57-3.34,3.37-4.07,4.53Z"/><path class="cls-10" d="M13.65,151.12s1.21,2.23,2.18,2.96c-.28-2.05,.08-4.45,.33-5.31,.28,2.28,.41,6.88,3.69,7.79-.76,.61-2.18,3.42-2.15,3.67-2.2-1.87-4.63-6.02-4.05-9.11Z"/><path class="cls-9" d="M16.19,106.19h-.03s-.03,.03-.03,.03c-1.28,.84-2.42,3.53-3.2,7.57-.17,.88-.24,1.6-.24,2.19,0,2.13,.89,2.5,1.02,2.55,0,0,.04,.01,.07,.02-2.94,3.46-3.65,7.33-3.65,10.23,0,2.54,.54,4.35,.59,4.53l.14,.45s-.76,2.77-1.02,6.02c-.05,.63-.08,1.22-.08,1.77,0,4.06,1.32,6.5,3.47,10.11l.3,.5,.03-.58c.27-5.01,2.03-9.15,5.23-12.29,4.3-4.09,9.63-5.44,15.87-3.99l.26,.06-.05-.26c-.53-2.8-2.47-5.46-2.47-5.46l.02-.37c.04-.69,.06-1.34,.06-1.96,0-4.89-.89-7.75-.89-7.75-3.3-15.69-15.28-13.4-15.4-13.38Z"/><path class="cls-2" d="M20.66,106.21s-1.55,.58-2.42,3.53-1.16,3.97,.82,4.21c1.98,.24,3.87,.77,4.45,1.36-2.71,.34-10.36,1.5-8.52,11.28,3.29-1.6,5.42-1.69,5.81-1.69-1.26,.63-5.32,1.98-6.24,7.84-.92,5.28,1.55,10.17,1.55,10.17-.44,.48-1.6,2.61-2.42,7.16-1.6-2.18-4.26-6-3.73-12.15,.77-3.63,.92-4.07,.92-4.07,0,0-1.31-6.53,.29-10.79,0,0,.82-2.71,2.57-4.41-1.07-1.02-1.6-2.13-.19-7.79,1.4-3.63,2.23-4.84,2.86-4.89,.63-.05,4.16,.05,4.26,.24Z"/><path class="cls-3" d="M32.81,134.82s-.24-5.28-5.86-9.15c-2.66-1.74-4.89-1.26-7.94,.19,3.1-.24,7.16,2.71,9.1,8.96,3.63-.1,4.7,0,4.7,0Z"/><path class="cls-14" d="M10.01,138.83s-.24,6.44,3.82,9.68c-.14,2.66-.29,3.63-.29,3.63-1.5-1.16-5.08-8.18-3.53-13.31Z"/><path class="cls-14" d="M11.22,122.91s-.58,4.07,.87,8.28c-.97,2.18-1.21,2.56-1.21,2.56-.92-1.55-1.31-7.89,.34-10.84Z"/><path class="cls-5" d="M105,71.56c-2.99,.18-8.25,1.86-11.4,2.87l-1.45,.46c-2.43,.74-5.89,3.38-6.04,3.49l-.07,.05s-.1,3.22-.11,3.31c-.01,0-.12,.19-.12,.22,0,.28-.02,1.76-.48,3.09-.49,1.43-2.19,2.25-2.2,2.26l-.1,.05v.11s0,1.46-.13,2.53c0,0-.02,.15-.02,.18-.02,0-.04,.16-.04,.16,0,.01,0,.24-.19,1.06l-.06,.25s.07,1.24-1.01,2.87l-.39,.58,.62-.33c2.54-1.35,6.95-3.9,8.35-5,.84-.65,1.24-1.16,1.96-2.09,.5-.63,1.17-1.5,2.27-2.76,4.24-5.7,10.68-13,10.74-13.08l.28-.32-.42,.02Z"/><path class="cls-21" d="M95.31,78.83s-6.83,3.27-9.65,4.57c-.08,1.34,.19,2.26-2.86,4.23,.33,.48,.15,.85,.15,.85,2.41-.85,12.1-8.68,12.36-9.65Z"/><path class="cls-6" d="M95.34,79.02s-8.35,8.87-10.91,11.06c3.56-.63,6.53-1.19,6.79-1.3-1.45,1.23-4.57,4.19-9.72,5.98,1.11-1.48,1.63-5.72,1.63-6.5,2.15-1.45,12.1-9.2,12.1-9.2"/><path class="cls-6" d="M86.14,78.46s10.58-3.75,13.1-3.75c-4.57,2.08-7.91,3.9-13.32,7.09,.15-2.26,.22-3.34,.22-3.34Z"/><path class="cls-6" d="M86.14,74.94l13.1-5.42c-3.56,2.67-10.24,7.05-13.14,8.54-.07-2.41,.04-3.12,.04-3.12Z"/><path class="cls-6" d="M86.1,71.48s9.48-3.94,11.46-5.5c1.98-1.55,5.43-5.97,5.65-6.19-1.97,3.19-5.05,7.16-8.2,9.28-3.53,2.12-8.91,4.16-8.91,4.16v-1.74Z"/><path class="cls-6" d="M77.42,68.85s11.54-4.23,13.03-4.97c-2.56,2.78-5.86,5.72-6.64,6.16-1.56-.59-3.71-1.04-6.38-1.19Z"/><path class="cls-6" d="M78.72,69.29s4.94,1.41,5.49,2.93c.56,1.52,.33,5.83,.07,6.09-.78-3.15-.67-2.89-1-3.49-.33-.59-1.56-3.82-5.53-5.61,.78-.15,.96,.08,.96,.08Z"/><path class="cls-6" d="M75.52,78.65s.93,1.93,.33,3.3c-.82,1.41-1.41,1.86-1.41,1.86,.41-1.15,.7-3.79-2.34-5.23,1.15-1.49,2-2.26,2-2.26,.56,.63,1.41,2.34,1.41,2.34Z"/><path class="cls-6" d="M78.64,77.76s.56,1.89-.59,4.08c-1.15,2.19-4.57,6.87-7.91,10.21,3.75-2.71,9.28-7.35,10.39-10.54,.78-2.93,0-3.19-.96-5.57-1.15-2.3-2.97-4.12-4.08-4.42,.22,.63,.19,2.38,.19,2.38,1,.85,2.45,2.75,2.97,3.86Z"/><path class="cls-8" d="M55.65,130.08c-.05,0-.51,.02-1.05,.6l-.04,.04v.06c-.18,1.28,.73,4.71,1.47,6.06v.39s.54,1.74,1.37,3.48l.08,.17,.16-.09c2.54-1.41,5.9-5.21,6.04-5.37l.15-.17-.2-.1c-3.23-1.63-6.65-3.96-7.88-5.01l-.05-.04h-.07Z"/><path class="cls-24" d="M60.11,134.86s-2.1,3.06-3.8,3.48l-.52-1.26s1.46,.05,4.32-2.22Z"/><path class="cls-24" d="M63.44,135.62s-4.41,3.35-6.9,3.33c.72,1.58,.91,2.02,.91,2.02,.79-.67,4.88-3.48,5.99-5.35Z"/><path class="cls-24" d="M53.37,144.74s-1.2-4.42-1.2-7.16v-.15l-.59-.1c-1.49-.24-3.98-.64-7.94-6.06l-.06-.08h-.1c-.95,.13-1.7-.02-1.73-.03l-.62,.08c-.93-.23-1.69-.55-2.3-.8-.76-.32-1.31-.55-1.77-.45l-.16,.04,.02,.16c.55,3.62,2.58,6.93,3.1,7.17l.04,.02h.05c.41-.04,.55,0,.82,.07,.33,.09,.82,.21,2.11,.31l.47,.19,.08,.02c2.23,.49,4.52,1.37,8.1,6.55l.03,.05,.06,.02c1.1,.36,1.38,.38,1.43,.38h.23l-.06-.22Z"/><path class="cls-8" d="M37.29,131.57s2.39,.98,2.78,1.7c.39,.72,.67,3.6,.49,4.07-.59-.03-.59-.13-.59-.13,0,0-1.85-1.83-2.68-5.64Z"/><path class="cls-8" d="M42.51,131.26s2.24,4.51,4.3,6.67c-1.44-.23-3.5-.31-3.5-.31-.88-2.45-1.96-6.18-1.88-6.51,.87,.21,1.08,.15,1.08,.15Z"/><path class="cls-8" d="M44.89,130.96c-.59,.08-1.04,.21-1.06,.21l-.23,.06,.13,.2c.14,.22,3.43,5.28,8.04,5.87l.19,.02,.1-2.24h-.18s-2.78-.15-6.84-4.08l-.06-.06h-.09Z"/><path class="cls-9" d="M82.6,87.78c-.31,.25-.78,.62-1.42,.9l-.86,.52c-.71,.39-2.14,1.16-2.14,1.16-.17,.07-1.86,1.06-2.2,1.27-.12,.03-1.49,.43-2.27,1.07l-.03,.03-.02,.04c-.7,1.62-1.73,6.96-1.73,8.49v.16h.16c1.96,.13,2.62-.43,4.38-1.92,.68-.58,1.53-1.3,2.7-2.2,4.25-3.26,3.84-9.44,3.83-9.5l-.02-.33-.39,.31Z"/><path class="cls-2" d="M81.15,88.73s.85,1.51-1.08,4.92c-.04-1.51-.23-2.71-1.09-2.71s-1.78,.85-1.86,1.94c-.08,1.09,.27,2.09-2.13,3.99-.47,.97-.93,1.86-1.09,1.98-.23,.16-1.16,1.16-1.51,2.64-.43,0-.58-.04-.58-.04,0,0,1.24-8.22,2.05-8.99,1.36-.85,4.96-1.98,7.28-3.72Z"/><path class="cls-14" d="M75.76,92.57s-.74,1.12,1.01,1.74c-.58,1.01-1.08,1.78-1.63,1.98-.89,.23-1.74,1.82-1.2,2.21,.54,.39,1.86-.66,2.13-1.94,.62-.08,1.43-.81,1.63-2.21,.19-1.4-.31-1.63-1.2-1.63-.43-.08-.74-.15-.74-.15Z"/><path class="cls-2" d="M21.93,91.22c-.76,.26-1.26,1.92-.58,4.93,.76,3.35,1.86,5.22,3.47,5.9,.88,.37,1.84,.92,2.77,1.45,.88,.51,1.72,.98,2.45,1.29,1.22,.52,2.84,.63,3.47,.23,.22-.14,.27-.3,.28-.42-.1-1.3-2.94-7.26-2.94-7.26l-1.53-1s-.75-.51-1.36-.85l-.21-.15s-2.56-1.86-3.44-2.45l-.29-.05-1.99-1.66-.09,.04Z"/><path class="cls-14" d="M29.2,96.32s-.24,.49-.47,.79c-.22,.31-1.26,.91-1.34,1.54-.08,.63,.83,2.74,1.5,2.66,.67-.08,.81-.43,1.03-.14,.22,.28,.67,1.44,1.42,1.38,.39,.02,1.26,1.16,.51,2.66,.65,.41,2.07-.06,2.09-.43,0-.57-2.94-7.22-3.14-7.43-.28-.26-1.6-1.03-1.6-1.03Z"/><path class="cls-9" d="M26.7,97.63s-2.11,1.83-2.15,2.44c1.32,1.22,4.73,2.94,4.93,3-1.93-2.47-2.41-3.94-2.78-5.44Z"/><path class="cls-14" d="M24.07,97.03s.71-2.13,1-2.28c.34,.34,1.51,1.65,1.51,1.65,1.22-.49,1.29-1.04,1.29-1.04-.99-.53-3.63-2.43-3.77-2.5-.14-.06-1.25,.78-.02,4.16Z"/><path class="cls-9" d="M69.07,88.66l-.11,.06,.03,.13s.2,.93,.31,1.94l.07,.69,.27-.64c.26-.62,1.74-2.24,1.75-2.25l.12-.14-.14-.12c-.69-.57-2.13,.23-2.3,.33Z"/><path class="cls-9" d="M54.17,74.57l.19,.28c.11,.16,.2,.31,.27,.45-.13-.19-.28-.31-.44-.34-.18-.03-.32,.06-.39,.14l-.07,.09,.05,.1s.02,.05,.05,.11c-.11-.12-.2-.14-.24-.15-.08-.01-.23,0-.36,.18l-.08,.12s.02,.02,.03,.03c-.03-.02-.06-.05-.09-.06-.13-.04-.25-.02-.35,.07l-.12,.11,.09,.13c.05,.07,.09,.14,.13,.21-.28-.16-.58-.18-.95,.08l-.21,.15s.05,.04,.11,.07c-4.78,2.47-10.78,11.93-11.31,13.09l-.06,.14,.13,.08c.44,.28,2.29,1.93,4.26,3.68l1.6,1.42c1.97,1.75,2.82,2.24,3.45,2.6,0,0,.34,.21,.47,.29-.46-.02-1.17-.11-1.78-.26l-.14-.03-.06,.12c-.79,1.55-1.26,1.71-1.89,1.47-1.98-.78-5.22-1-7.36-1.15-.83-.06-1.68-.12-1.81-.18-.34-.27-.92-1.76-1.39-3.02-1.17-3.97-.61-4.76-.07-5.53l.15-.21-.05-.09c-.89-1.63-4.02-1.25-4.65-.97-.42,.19-.57,.37-1,.92,0,0-.43,.52-.76,.92,.11-.99,.34-1.56,.34-1.57l.09-.22-.25-.02s-.13-.01-.58-.13c0-.03,0-.04,0-.08,0-.52,.32-1.72,.57-2.52,.2,.03,.86,.13,.86,.13l.05-.14c.76-2.41,1.89-5.73,2.7-7.68l.1-.24h-.26c-.78,0-3.45,1.26-4.64,1.9l-.04,.02-.02,.04c-.45,.68-.81,4.26-.81,7.08,0,.92,.04,1.76,.13,2.39,.31,2.28,4.13,8.28,5.32,10.11-.07-.05-.15-.11-.22-.16-.36-.27-.77-.57-1.11-.69l-.51-.18,.32,.45c.08,.11,.45,1.11,1.12,2.91l1.63,4.37c2,5.34,3.44,6.52,7.37,7.83,1.37,.45,2.86,1.17,4.44,1.93,2.85,1.37,5.81,2.78,8.23,2.74,3.66-.07,5.57-1.68,10.67-5.98l.44-.37c5.24-4.41,5.58-6.49,6.16-9.94l.1-.6c.75-4.34,1.5-7.33,1.71-8.14l.1-.38-.35,.17c-.31,.16-2.34,.85-4.82,1.57l-.08,.02-.03,.08c-1.17,2.74-1.53,2.75-2.58,2.78l-.51,.02c-3.73,.68-5.67,1.4-6.49,1.7l-.43,.15c-.15-.01-.56-.7-.89-1.79l-.06-.19-.18,.08c-.41,.19-1.6,.69-2.08,.71-.14,0-.27-.15-.34-.24-.13-.18-.23-.41-.31-.65,.11,.2,.23,.37,.35,.43l.07,.03,.07-.03c2.26-.86,3.92-2.53,6.92-5.57l.5-.51c3.43-3.47,6.44-5.55,7.26-5.49,.63,.04,.89,.53,1.23,1.14l.35,.6s.17-.09,.25-.13c.06,.15,.35,.86,.35,.86l.18-.26c.06-.08,.1-.2,.1-.35,0-.38-.21-1.01-.62-1.97,.4,.06,.59,.31,.84,1.36l.09,.38,.23-.31c.07-.09,1.66-2.34,1.97-3.04,.79-2.51-.44-4.1-.84-4.53-.54-.59-1.2-.9-1.68-.79l-.09,.02-.04,.08c-.4,.91-5.66,4.36-12.24,8.02-6.39,3.56-11.64,6-13.54,6.33,5.77-5.96,9.43-14.86,9.54-16.41,0-.09,0-.18,0-.27,0-.89-.31-1.36-.51-1.58-.19-.2-.42-.32-.59-.32h-.34Z"/><path class="cls-2" d="M35.59,89.5s-2.11-2.39-5.16-.05c-.09,4.6-.28,4.37-.28,4.37,1.6,2.63,2.77,4.6,2.77,4.6l-1.69-.7s1.55,3.24,2.82,6.95c1.27,3.71,1.78,5.63,4.97,7.65,3.24,1.5,5.49,2.16,7.84,3.38,2.35,1.22,6.95,2.3,7.7,2.3-.1-2.07-.1-2.77-.1-2.77,0,0,4.93-3.52,5.54-5.49,.61-1.97,1.27-3.61,1.08-4.41-.19-.8-3.14-4.08-3.19-1.01,0,0-2.16,1.29-4.18,1.29-1.41-.33-1.46-1.64-1.46-1.64,0-.85,.86-1.6,.9-1.85-.71-.16-.62-1.2-1.42-1.48-.33-.56,3.1-.61,5.59,1.17,2.96-1.69,3.75-2.25,6.24-2.58,2.39-1.31,2.91-2.25,2.91-2.25-2.58,.09-7.88-.14-9.53-.14-1.17,.52-1.5,.42-1.5,.42-.05-1.27,.61-3.05,3.85-6.95-3.15,2.68-6.48,4.51-5.07,6.71-.75,.33-3.15,.14-3.38,.09-.75,.75-1.74,.38-1.74,.38l-13.52-7.98Z"/><path class="cls-2" d="M32.49,79.46l-2.02,5.96c-1.17-1.6-.7-6.05-.7-6.05,0,0,2.54-.7,2.72,.09Z"/><path class="cls-2" d="M36.76,81.15l-.33,5.26c-1.88-1.17-2.39-1.36-3.15-1.36,.89-1.03,3.47-3.9,3.47-3.9Z"/><path class="cls-12" d="M66.19,99.08s-3.1,.42-4.79,1.22c-1.41-.14-2.3-.28-3.9,0,4.04-1.5,8.54-3.05,10.42-1.27-1.55,0-1.74,.05-1.74,.05Z"/><path class="cls-12" d="M47.7,100.49s-5.63-2.11-9.39-.84c2.67,.47,6.95,1.08,8.87,1.88-.09-.89,.52-1.03,.52-1.03Z"/><path class="cls-9" d="M47.41,101.33s-2.96-1.27-9.01-1.27c4.13,2.3,6.34,4.08,6.34,4.08l2.68-2.82Z"/><path class="cls-3" d="M53.89,101.71s1.03,1.6,.24,1.92c-.8,.33-1.88,.33-1.88,.33,.33-1.13,.8-1.92,1.64-2.25Z"/><path class="cls-3" d="M71.73,93.21s-1.08,10.65-2.49,12.58c-1.41,1.92-4.97,4.79-6.76,6.81,0,0,3.57-4.6,3.57-8.5v-4.98c1.88-.28,2.44-.09,2.44-.09,0,0,1.03-4.46,1.03-5.21,1.17-.33,2.21-.61,2.21-.61Z"/><path class="cls-3" d="M70.83,79.79s1.03,3.85,.89,6.15c-.42-.56-1.44-.76-2.2-.35-.9,.5-2.35,1.34-2.35,1.34,.19-2.67,.14-4.65,.14-4.65,.99-.8,2.25-1.41,3.52-2.49Z"/><path class="cls-14" d="M32.39,79.5s-2.3-.14-2.39,0c-.38,1.36,.47,5.44,.47,5.73-.09,.42-.89,2.72-.89,4.51,1.03-1.6,1.27-2.02,2.39-2.16,1.13-.14,3.89,0,4.24,1.4,0,0-1.05,0-1,2.02-.56-2.39-1.22-2.25-1.69-2.25s-2.72,.84-2.72,.84c0,0-.33,3.9,.24,5.63-.89-1.31-2.86-4.97-3.52-7.04,.09-3,.42-8.5,.99-9.2,.85-.84,4.93-1.92,4.93-1.92-.38,.61-1.03,2.44-1.03,2.44Z"/><path class="cls-14" d="M41.87,76.36l4.79,1.22,1.13-.94s-2.54-.94-5.07-.89c-.52,.42-.85,.61-.85,.61Z"/><path class="cls-14" d="M55.25,77.96s-2.21,1.22-3.1,.89c-.89-.33-2.68-.75-2.68-.75,1.55-1.31,4.65-3.43,5.35-3.57,.7,.19,.99,2.58,.42,3.43Z"/><path class="cls-2" d="M51.75,124.62c-.08,.1-.06,.2-.05,.24l.05,.17,.17-.06c.12-.04,.34,.26,.34,.26,.17,.02,.61,.27,1.08,.54,.54,.31,1.21,.69,1.91,.99l.08,.03,.08-.05c1.74-1.03,5.02-3.65,5.06-3.68l.36-.29-.46-.02c-2.07-.11-8.11,1.19-8.62,1.86Z"/><path class="cls-2" d="M66.08,111.01l-1.59,1.42h0l-.79,.68c-2.49,2.16-5.32,4.62-8.2,5.02-2.92,.41-8.47-2.2-11.45-3.6l-1.09-.51,.03,.31c.09,.96,1.83,4.89,3.24,6.79,1.22,1.65,3,2.58,4.18,3.2l.64,.34,.07-.02c5.13-1.52,9.33-1.91,9.37-1.91h.03s1.19-.53,1.19-.53l.23-.41c1.95-1.24,4.44-3.46,5.23-5.11,.76-1.59,1.05-6.04,1.06-6.22h0c0-.3-.03-.59-.26-.7-.34-.15-.79,.26-1.89,1.26Z"/><path class="cls-9" d="M63.58,113.3s-.65,2.15-6.84,6.29c0,1.17,.13,2.74,.13,2.74,2.61-.39,4.95-.52,5.08-.52,1.07-.85,4.4-3.23,5.12-4.76,.72-1.53,.88-4.14,.88-4.14l-3.26-.72-1.11,1.11Z"/><path class="cls-3" d="M64.52,112.49l.36,5.47c1.34-1.47,2.64-3.36,3-4.3,.36-.95,.62-3.94,.23-4.24-.39-.29-3.59,3.06-3.59,3.06Z"/><path class="cls-14" d="M53.11,117.9c.13,.02-5.12-.16-7.69-.95,.85,2.31,3.75,6.62,3.75,6.62-1.95-1.11-4.4-2.87-6.35-9.74,3.1,1.3,7.07,3.68,10.3,4.07Z"/><path class="cls-8" d="M67.6,123.63l-.29,.31h.43c2.24-.09,3.92-1.53,4.75-2.84,.8-1.93,2.19-3.97,2.21-3.99l-.26-.24c-1.84,1.53-5.07,4.89-6.83,6.75Z"/><path class="cls-8" d="M72.73,120.87h-.08s-.04,.08-.04,.08c-1.67,2.44-3.56,2.88-5.36,3.12h-.06s-.04,.05-.04,.05c-1.89,1.77-6.03,3.99-7.99,3.95h-.25s.08,.23,.08,.23c.37,1.11,4.76,3.61,7.73,3.81h.08s.06-.05,.06-.05c6.6-6.8,10.25-7.32,11.61-7.19-.09,.04-.18,.08-.26,.15l-.08,.06v.1c.08,.49,1.48,1.32,2.08,1.66l.24,.13,.02-.28c.13-1.77-.22-2.98-1.03-3.61-.72-.56-1.83-.62-3.25-.23-.03-.05-.09-.15-.09-.15-.4-.65-1.52-2.12-3.37-1.83Z"/><path class="cls-24" d="M73.51,123.86s-2.41-.26-3.62,.1c-1.21,.36-4.47,4.2-5.12,4.86,2.97-2.18,6.22-4.07,8.73-4.95Z"/><path class="cls-8" d="M76.88,115.97h0c-1.69,.69-2.55,1.32-3.15,3.23,0,0-.08,.27-.13,.42-.49,.41-.81,.79-.83,1.1l-.02,.21,.21-.03c1.61-.21,2.55,.79,3.16,1.46l.4,.41,.11-.06s1.23-.53,2.06-.12c2.01,.82,2.08,3.17,1.67,4.19l-.02,.06,.34,1.08,.18-.08s.31-.14,1.07-.79l.03-.03,.02-.04c1.94-4.84,1.66-5.96,1.18-7.81l-.18-.74c-.5-2.17,.47-2.99,.51-3.02l.28-.23-.35-.08c-1.89-.42-4.78,.13-6.54,.85Z"/><path class="cls-8" d="M79.23,107.29l-.09,.04v.1s-.67,4.7-2.3,6.69c-1.43,1.58-2.13,2.51-2.14,2.52l.22,.26,.41-.21c1.47-.75,3.29-1.68,6.1-1.68h.09l.05-.07c.85-1.18,.45-6.16,.34-7.09,0,0-.04-.36-.04-.36-.03-.35-.06-.64-.3-.79-.31-.19-.88-.04-2.34,.59Z"/><path class="cls-24" d="M82.08,127.06c.23-.46,.23-2.35-.19-3.39-.42-1.04-3.06-2.84-4.2-3.65-1.14-.81-3.39-.36-4.89,.82,0,0,1.86-.39,3.49,1.95,2.15-.39,4.73-.46,4.07,4.14,.29,.82,.36,1.01,.36,1.01,.98-.42,1.37-.88,1.37-.88Z"/><path class="cls-24" d="M77.2,113.53s3.65-.62,4.3,1.63c-1.14-.2-5.44,.85-6.52,2.35,2.25-1.04,4.2-1.27,4.53-1.07-1.76,.72-4.66,2.02-6.49,3.91,1.3-2.54,1.83-3.26,1.83-3.26-.13-.46-.16-.55-.16-.55l2.51-3Z"/><path class="cls-8" d="M82.67,94.37s-.42,.3-1.16,.67h-.03s-1.94,2.03-1.94,2.03v.07s.12,3.77,.04,7.26v.62s.32-.52,.32-.52c3.15-4.9,3.04-9.95,3.03-10v-.33s-.28,.19-.28,.19Z"/><path class="cls-8" d="M79.49,97.26c-.15,0-.37,.17-1.84,1.36l-2.37,1.87c-1.16,.86-1.75,.89-2.32,.92,0,0-.93,.23-1.02,.1l-.29-.39-.06,1.37-.19,.53c-.07,1.34-.91,3.62-2.58,5.45l-.04,.04v.06c-.27,3.08-1.54,8.15-1.89,8.81-.35,.67-.57,1.08-8.4,7.1-8.28,5.94-10.04,6.02-11.1,6.07l-1.24,.14,.66,.26c.76,.31,2.96,.76,5.85,.2,2.14-.55,5.54-3.02,6.57-3.29l.15,.31c5.19-1.58,6.72-3.09,9.76-6.12l.67-.66c1.57-1.82,3.16-3.36,4.43-4.59,1.28-1.23,2.29-2.21,2.78-2.98,3.3-6.41,2.68-16,2.65-16.4v-.16h-.18Z"/><path class="cls-24" d="M79.59,97.29s1.86,3.79,1.89,4.06c0,.9-1.62,3.28-1.98,3.46,.15-1.77,.27-6.1,.09-7.52Z"/><path class="cls-24" d="M75.57,100.35s-1.17,2.89-1.65,3.34c-.24-1.86-.36-2.28-.36-2.28,0,0,1.08-.27,2.01-1.05Z"/><path class="cls-24" d="M70.39,106.46s.81,6.64-1.71,10.55c1.41-1.38,5.41-6.98,4.45-12.54-.54-2.32-1.2-3.19-1.35-3.25-.21,1.11-1.38,5.23-1.38,5.23Z"/><path class="cls-8" d="M21.02,95.34c-.12,.09-3.06,2.27-3.86,4.54,0,0,.06,.04,.11,.07-2.53,2.39-5.49,5.31-6.53,6.89l.21,.26c3.77-1.33,8.15-1.39,11.71-.16,4.25,1.46,8.88,7.24,9.62,16.85,0,0,.03,.32,.03,.42,0,0,0,0,0,0l.1,.87s.24,1.24,.24,1.81c0,.41-.01,.79-.03,1.07l-.02,.54,.11,.04c1.22,.54,2.54,.84,3.5,1.06l1.35,.32s1.93,.92,3.45,1.21c1.81,.34,8.2-.55,9.26-1.6l.49-.07c1.99-1.18,4.18-2.6,4.2-2.61l.26-.17-1.58-.78c-1.99-.97-4.71-2.3-6.06-3.4-1.72-1.39-4.27-6.33-4.99-8.47l-.02-.07s-3.27-1.55-3.37-1.6c0,0-3.29-.84-5.02-7.37l-.07-.26-.21,.16c-.44,.35-2.14,.93-4.62-.51-.79-.46-1.57-.82-2.33-1.17-2.92-1.35-5.23-2.42-5.64-7.78l-.28-.13Z"/><path class="cls-24" d="M42.17,113.84s.25,8.43,7.08,13.86c-1.53-1.03-4.49-1.94-7.46-7.74-2.47-5.65-2.68-7.65-2.68-7.65l3.06,1.53Z"/><path class="cls-24" d="M32.63,128.87s-.17,.93,.24,1.25h0c.35,.27,2.01,3.48,2.26,5.11v.05s.06,.02,.06,.02c1.34,.41,3.49,1,3.81,1h.16l-.08-.13c-.68-1.1-2.24-4.63-2.28-6.33v-.08s-.92-.1-.92-.1v.09c-.06,.67-.19,1.7-.35,2.19-.03-.48-.15-2.38-.15-2.38h-.07s-1.75-.35-2.56-.76l-.1-.05-.02,.11Z"/><path class="cls-24" d="M31.5,118.99s2.37-.84,2.84-2.5c-.25,1.65-.56,4.65-.75,5.15,.72-.5,2-3.4,2.03-4.12,.69,.66,1.09,4.06,1.09,4.06-.31,.47-.94,1.03-.94,1.03,1.68,3.46,2.62,5.27,3.06,5.55,.56,.28,8.08,.03,11.73,1.4,1.19,.03,2.4-.16,7.36-2.31,4.96-2.15,9.42-5.21,10.39-5.96-2.31,3.06-3.68,4.65-3.68,4.65,1.84-1.09,2.72-2.09,2.72-2.09,.5,.31,.97-.03,.97-.03-1.19,1.25-6.02,5.06-5.71,7.02,0,0-1.53-.44-3.9-2.68-1.56,.75-2.87,1.84-2.87,1.84,2.03,1.4,3.71,2.84,3.71,2.84,0,0-2.22,1.4-4.4,1.78-.5-1.68-.47-4.24-.47-4.24-1.22,.5-1.72,.94-2.31,.94-.47,.84-.44,3.71-.44,3.71-1.12-.22-3.12-.59-7.05-4.12-1.31,.19-3.03,1-7.33-.97-1.09-.38-4.9-1.31-5.02-1.37,0-1.94-.12-4.4-.53-6.65-.41-2.25-.5-2.93-.5-2.93Z"/><path class="cls-24" d="M15.59,106.27c-2.09,.16-4.74,.8-4.74,1.3,0,.42,.82,2.33,2.09,4.87l.15,.29,.02-.32c.2-3.22,2.54-5.96,2.56-5.99l.14-.16-.21,.02Z"/><path class="cls-24" d="M22.2,99.02s-3.84,3.31-3.81,6.99c-2.59,.06-4.62,.25-7.8,1.25,.06-.94,5.46-6.09,6.58-7.24,.34-1.28,2.43-3.5,4.06-4.96,.09,1.03,.62,2.81,.97,3.96Z"/><path class="cls-6" d="M40.48,89.71s-.64,.58-.78,1.29v.05s.03,.03,.03,.03c.01,0,1.32,1.03,5.53,4.02,3.85,2.87,4.59,2.62,4.7,2.54l.11-.08-.12-.07c-.84-.49-2.91-1.99-4.86-3.8l-1.18-1.11c-1.01-.95-1.61-1.53-3.33-2.88l-.06-.05-.06,.05Z"/><path class="cls-6" d="M33.58,85.15c-.16,.04-1.59,1.22-2.36,2.51l.12,.12c2.31-1.4,5.32,1,6.77,2.15l.64,.5,.04-.11,.64-1.54-.05-.04c-4.42-3.88-5.76-3.6-5.82-3.59Z"/><path class="cls-6" d="M69.6,85.84h0c-1.46,.11-7.11,4.93-9.03,7.24-1.94,2.35-4.75,3.79-5.18,3.96l-.21,.07c-.27,.09-.48,.17-.52,.33-.02,.09,.01,.18,.1,.29l.03,.03h.04c2.32-.13,4.06-1.71,5.34-2.87l.35-.31,.53-.48c.68-.63,.82-.76,3.69-2.74,5.44-4.18,6.47-3.15,6.48-3.14l.15-.09c-.1-.24-1.01-2.32-1.77-2.29Z"/><path class="cls-3" d="M46.78,96.53c-.07,.9-.45,1.26-.78,1.58l-.47,.51h.21c.09,0,.23,.07,.39,.15,.25,.14,.56,.31,.89,.28,.55-.04,1.23-1.44,1.31-1.6l.03-.07-1.56-1.02v.15Z"/><path class="cls-3" d="M36.18,88.9c-1.59,.68-.76,3.93-.46,4.92,.7,2.32,1.21,3.84,1.94,3.81,1.94,.11,4.05,.32,5.48,.55l.21,.03-.13-.17c-1.61-2.16,.31-3.7,.4-3.76l.09-.07-.09-.07s-2.87-2.18-4.13-3.03l-.1-.07-.03,.12c-.13,.5-1.51,2.96-2.39,3.9,.2-.52,.45-1.25,.68-1.96,.34-1.02,.76-2.29,.91-2.39l.1-.06-.09-.08s-1.15-.97-2.31-1.66l-.04-.02-.04,.02Z"/><path class="cls-3" d="M68.77,89.04c-1.11,.63-4.76,2.83-6.71,4.37l-.09,.07,.1,.07c.77,.53,1.2,1.17,1.29,1.9,.08,.69-.17,1.45-.69,2.02l-.23,.26,.33-.12c1.15-.42,2.26-.5,3.15-.57h.16c.83-.08,1.49-1.31,2.02-2.31l.33-.61-.23,.09c-.44,.18-1.57,.24-2.04,.26,1.1-1.07,2.34-2.33,2.67-2.99,.12-.28,.15-.76,.15-1.22,0-.6-.06-1.17-.09-1.21l-.05-.06-.07,.04Z"/><path class="cls-3" d="M59.24,95.89s-.96,.79-1.83,1.16l-.05,.02v.05c-.05,.32,.42,1.4,.78,1.73l.02,.02h.03c.55,0,1.82-.41,2.36-.92l.13-.12-.17-.03c-1.24-.22-1.14-1.76-1.13-1.83l.02-.21-.16,.13Z"/><path class="cls-22" d="M43.74,94.31c-1.06,1.06-1.11,1.97-.97,2.54,.22,.85,.98,1.42,1.45,1.56h0s0,0,0,0c1.23,.14,1.78-.41,2.04-.89,.3-.57,.28-1.26,.24-1.31-.02-.02-1.17-.92-2.66-1.9l-.06-.04-.05,.05Z"/><path class="cls-22" d="M61.5,93.8l-1.89,1.89h0s-.29,.42,.26,1.51c.27,.51,.95,.78,1.7,.65,.68-.11,1.45-.57,1.59-1.5,.26-1.73-.92-2.44-1.58-2.57h-.05s-.03,.02-.03,.02Z"/><path class="cls-3" d="M56.98,104.79l-.71,.33c-1.34,.58-4.77,.64-5.63,.58-.31-.02-.7-.18-1.08-.32-.57-.22-1.12-.43-1.48-.27-.14,.06-.25,.18-.31,.34-.22,.56-.19,1.04,.08,1.42,.69,.95,2.96,1.3,6.94,1.07,3.76-.22,4.52-1.43,4.49-2.41-.01-.39-.21-.96-.34-.96h.05c-.7-.4-1.17-.17-2.02,.23Z"/><path class="cls-3" d="M57.91,110.27c-.1,.02-.32,.11-.28,.57h0c.1,2.99-.79,3.17-4.21,3.41-1.63,.1-2.68-.09-3.21-.57-.46-.42-.48-1-.5-1.57v-.28c-.06-.75-.34-1.09-.61-1.1-.21,0-.45,.2-.5,.78,.07,3.06,.49,3.7,5.2,4.12,2,.14,3.45-.27,4.31-1.23,1.12-1.24,.84-2.92,.83-2.99-.2-.74-.7-1.19-1.03-1.13Z"/><path class="cls-18" d="M50.12,113.39s-1.12,.48-1.22,.48c-.41-.64-.64-3.32,.24-3.19,.88,.14,.07,1.8,.98,2.71Z"/><path class="cls-18" d="M57.58,112.48l.92,1.25c.64-.75,.81-2.44,.17-3.15-.64-.71-1.59-.74-1.08,1.9Z"/><path class="cls-18" d="M49.41,105.16s-.61,1.56,.85,2.95c-1.39-.17-2.95-1.08-2.81-2.3,.14-1.22,1.97-.64,1.97-.64Z"/><path class="cls-18" d="M57.88,104.31s.54,2.68-.58,3.46c1.22-.44,2.3-1.46,2.13-2.41-.17-.95-.44-1.29-1.56-1.05Z"/><path class="cls-19" d="M50.77,109.82c-.61,.35-.96,1.07-1.01,2.07h0c-.02,.61,.16,1.1,.55,1.47,.95,.9,2.8,.73,2.88,.72,2.18-.09,3.39-.43,3.94-1.09,.4-.49,.41-1.1,.29-1.86-.08-.51-.33-.89-.74-1.14-.74-.45-1.82-.34-2.37-.16-.78,.26-1.22,.17-1.22,.17-.87-.46-1.7-.53-2.32-.17Z"/><path class="cls-13" d="M56.93,107.9c-.12,.04-.18,.19-.19,.4-.06-.03-.13-.08-.2-.14-.17-.15-.37-.33-.7-.24-.67,.16-2.08,.15-3.57,.14h-1.11c-1.2,0-1.41,.62-1.58,1.13-.04,.12-.08,.23-.13,.33,.14-.35,.29-.8,.29-1.08,0-.1-.02-.18-.06-.23-.03-.04-.1-.09-.24-.05l-.05,.02v.05c-.08,.37-.32,.86-.55,1.33-.31,.65-.58,1.21-.49,1.53l.04,.15,.11-.11c.37-.39,.61-.63,.78-.63,.07,0,.15,.05,.26,.15l.07,.07,.06-.08c.74-1,1.13-1.24,2.09-1.24,.46,0,.86,.12,1.21,.23,.39,.12,.73,.23,1.02,.11,1.66-.7,2.59-.12,3,.29,.42,.31,1.42,.13,1.43,.13l.08-.02-.02-.08c-.06-.29-.22-.74-.84-1.61-.3-.43-.54-.6-.72-.54Z"/><path class="cls-13" d="M48.49,107.5c-.39,.3-.51,.59-.51,.83,0,.26,.14,.47,.22,.59l.06,.09s0,.01,0,.02c0,.05-.04,.18-.07,.27-.05,.16-.12,.34-.12,.51,0,.11,.03,.21,.1,.29l.04,.05,.06-.03c.86-.39,1.04-1.99,1.05-2.06v-.09s-.08-.01-.08-.01c-.27-.03-.42,.05-.58,.33,0-.05,0-.09,.02-.13,.03-.13,.05-.25,.05-.36,0-.12-.03-.23-.13-.3l-.05-.04-.05,.04Z"/><ellipse class="cls-13" cx="47.98" cy="107.57" rx=".38" ry=".33"/><path class="cls-13" d="M59.62,105.39l-.13,.39c-.1,.25-.23,.6-.32,1.02l-.02,.11h.12c.31-.03,.51-.21,.59-.52,.1-.38-.03-1.01-.1-1.06l-.09-.06-.04,.12Z"/><path class="cls-13" d="M59.06,106.86l-.03,.03s-.06,.13-.06,.27c0,.1,0,.23,.03,.38-.05-.04-.09-.08-.14-.12-.08-.06-.29-.19-.45-.14l-.13,.04,.09,.1c.14,.14,.41,.48,.56,.78-.31-.34-.82-.81-1.19-.61l-.11,.06,.1,.08c.24,.19,.92,.79,1.07,1.37-.58-.89-.99-1.17-1.41-1.28l-.08,.15c1.3,1.2,1.48,2.81,1.48,2.83h.17c.07-.17,.28-.69,.28-1.26,0-.03,0-.07,0-.1,.12-.11,.16-.25,.16-.4,0-.07,0-.15-.01-.22v-.29s.2-.48,.2-.87v.04c.06-.13,.04-.3-.07-.49-.1-.18-.28-.36-.43-.36h-.04Z"/><path class="cls-23" d="M65.4,56.65c1.78-3.7,4.7-10.47,4.37-14.19-.41,2.91-3.35,13.51-6.69,17.72-.06-2.21-.03-2.39-.03-2.39,.06-.12,5.57-12.09,5.98-20.47l-.08,.39c-.75,3.62-2.74,13.24-6.39,19.95-.06,1.34,.35,3.28,.35,3.3,0-.01,.99-1.17,2.49-4.3Zm-12.74,41.95c.27-.3-.09-3.27-.1-3.4l-.07,3.09-.65,.24s.35,.24,.82,.07Zm.28,0c.27,0,.59-.1,.68-.3,.05-.11,.01-.23-.09-.35-.34-.37-.34-2.93-.34-2.95,0,.02-.34,2-.07,2.61,.24,.55,.08,.72-.1,.91l-.07,.08Zm-10.27,.93c.68-.13,2.16,.29,3.6,.68l1.56,.42c-.07-.03-6.89-3.13-11.71-.48l.78-.05c1.78-.13,5.08-.36,6.64,.67-.12-.54-.67-1.1-3.92-1.13,1.65-.23,3.67,.12,6.97,1.24,0-.23-1.54-1.06-3.92-1.34Zm8.98,4.61c.3,.13,.64,.13,.74,0,.24-1.49,1.09-2.12,1.1-2.13-.32-.23-.92-.23-1.47,0-.54,.23-.9,.61-.97,1.07-.08,.48,.15,.88,.6,1.07Zm-.29-1.21c.27-.47,.94-.93,1.79-.82,0,0-1,.67-1,1.82-.26,.05-.55-.08-.73-.32-.16-.22-.18-.47-.06-.67Zm60.4-16.1c-.39-2.6,.17-4.39-2.84-5.92-2.21-1.3-3.85-2.21-4.53-2.36-.58-1.2-2.07-1.83-3.27-1.83,2.12-2.07,4.76-4.72,4.76-5.58-2.41,.05-9.77,2.17-13.52,3.51,2.79-2.02,7.32-4.77,8.04-5.82,.72-1.06,2.21-5.25,4.57-9.87,1.97-4.86,4.96-13.86,5.05-16.17-4.38,2.89-12.03,8.81-19.78,12.85,2.94-4.04,5.2-8.57,6.88-11.65,1.68-3.08,2.36-3.95,2.5-4.67,.14-.72,1.3-7.99,1.44-13.09,.14-5.1-.18-21.82-.72-26.23,0,0-10.62,9.13-27.18,19.04-.43-1.25-2.45-3.71-2.45-3.71,.1-1.01,6.06-11.41,11.31-15.11,0,0-20.36,5.79-28.22,12.15-8.04,6.5-10.06,11.84-10.06,11.84,.14-2.94,1.49-13.52,5.82-20.17-2.02,.48-21.71,14.25-26.38,26.95-2.65-.29-5.82-.19-7.89,.19,2.31,2.17,5.63,5.1,5.63,5.68-.34,1.73-1.15,5.46-.67,9.22-2.11-1.35-11.17-12.59-12.86-18.41-1.25,2.41-4.38,19.59-2.84,27.82,1.54,8.23,5.92,14.49,6.98,15.5l-.38,.39s-6.16-4-8.62-7.22c.05,3.75,2.79,11.89,3.71,13.09-.91,1.44-4,5.39-5.2,7.85-.87,.92-1.06,1.59-1.06,1.59,1.54-1.16,7.51-4.24,8.71-4.57,.53,1.54,1.97,3.76,2.84,4.43-.63,2.07-1.93,6.16-1.44,8.23,1.54-2.07,3.51-4.64,4.28-5.56,1.3,1.3,5.25,3.39,6.4,3.87,.05,.96,.1,2.12,.1,2.12-.48,.39-3.27,2.41-4.04,4.91-2.02,1.97-6.16,5.87-6.4,6.79-.14,1.01,2.41,6.02,2.41,6.02-.14,1.49-.72,4.62,.67,5.78-1.01,1.25-5.39,6.26-2.93,14.92-1.3,6.26-2.26,12.03,2.74,18.67,.53,3.56,1.49,5.2,3.95,7.8,1.49,2.12,2.45,4.09,2.6,8.57,.14,4.48-.24,3.85,1.73,5.39,1.97,1.54,2.84,2.65,4.91,5.29,2.02,2.36,4.76,2.55,8.86,2.31,2.89-.43,7.41-2.89,7.32-4.62,1.49-.43,1.88-1.35,2.55-2.07,1.73,.91,4.09,1.68,5.68-.82,1.59-2.5,1.88-3.71,5.39-7.36,3.32-3.71,3.95-4.09,4.09-4.91,.15-.82-.14-4.62-1.06-7.41,1.11,.82,2.74,3.99,4.91,5.49,1.59-1.35,2.17-1.49,2.89-2.26,.72-.77,2.65-2.45,4.04-1.59,1.54,.82,3.56,1.39,4.38,2.02-1.3-1.44-2.65-2.94-3.9-3.42-1.25-.48-5.54-2.79-6.74-4.77,3.47,.87,7.99,1.97,12.71-1.54,4.72-3.51,6.74-8.9,6.69-11.12-.05-2.21-1.11-3.51-1.11-3.51,0,0,3.22-.96,7.12,.19,.24-2.45,.29-4.43,.29-4.43,0,0,6.35-.43,8.95,1.59-.34-2.07-2.21-7.7-4.86-8.04-2.65-.34-6.88,.82-12.42,3.75,.29-1.73,1.43-3.42,1.44-4.86,.03-2.99-1.49-4.62,.1-6.98-.67-.29-1.88-.1-1.88-.1,0,0,1.11-6.22,0-8.23-1.15-.34-2.6,.29-2.6,.29,.24-1.3,.24-1.59,.24-1.59,0,0,1.92-2.94,2.36-4.81,.43-.63,1.44-1.2,2.26-1.83,.82-.63,5.29-3.47,6.31-5.34,1.15-.19,3.18-.87,4.48-2.31,1.44,.14,3.13,.05,3.13,.05,0,0,1.16,1.78,2.26,1.93,1.11,.14,1.73-.19,1.73-.19,.92,1.4,1.3,1.78,2.7,1.73,1.4-.05,2.98-.43,3.85-.43s2.07-.29,1.83-2.41c1.2-1.16,1.78-1.83,1.25-4.91Zm-18.1-12.23c3.14-1,8.39-2.68,11.36-2.86-.06,.07-6.51,7.38-10.74,13.08-1.1,1.26-1.78,2.13-2.28,2.77-.72,.92-1.11,1.42-1.93,2.06-1.4,1.09-5.79,3.64-8.33,4.98,.89-1.33,1.13-2.46,1.13-2.92,.6,.03,1.92-.36,2.33-.52-.8,.03-2.34,.26-2.36,.26,.19-.86,.19-1.1,.19-1.1,.05,0,5.25-.49,6.08-1.1-.8,.07-1.94,.24-3.04,.41-1.28,.19-2.48,.37-2.97,.37,.13-1.09,.13-2.54,.13-2.55,.02,0,1.78-.86,2.3-2.36,.52-1.52,.49-3.2,.48-3.2,2.68-1.53,9.5-5.37,14.84-7.86-1.73,.47-11.87,5.11-14.71,7.5l.1-3.04s3.58-2.72,5.98-3.46l1.45-.46ZM58.58,9.77C69.09,4.3,80.55,1,80.67,.96c-.05,.04-4.92,4.25-10.25,13.91-.29-.43-.48-1-.48-1.01-.33,1.52-.24,2.35-.24,2.36-.05,.07-5.47,7.71-5.73,17.95,2.47-1.19,3.74-2.01,3.75-2.02-.13,.33-.35,1.25-.64,2.41-.68,2.78-1.71,6.98-2.83,9-.67-3.66-2.96-7.98-3.9-9.39,.54-3.27,4.1-14.79,8.28-21.32-.61,.51-4.77,6.52-8.57,20.74-1.05-1.62-1.58-2.21-1.59-2.21,.03-.18,3.51-17.76,15.79-26.47-3.01,1.64-12.43,9.9-16.08,25.85-1.51-2.3-3.97-4.88-7.75-8.13,1.61-3.17,5.52-7.94,6.64-8.57-1.1,.25-4.96,4.2-6.83,8.18-.56-.25-.72-.24-.77-.19,0,.01,.53,1.02,.48,1.4-.91,.96-2.55,5.59-2.26,16.27-1.25-1.49-3.5-3.6-3.75-3.75-.19-2.62-.19-10.84-.19-10.93,.04-.1,4.2-9.73,14.82-15.26Zm7.94,13.81c1.05-2.76,3.35-6.56,3.37-6.59,0,.02-.05,2.53-.24,4.48-.01,0-1.27,.79-3.13,2.12Zm2.83-1.49c0,.09-.9,8.69-1.66,9.64-1.33,.82-3.43,1.84-3.45,1.85,.93-6.02,1.67-9.09,1.85-9.32,.5-.63,3.23-2.16,3.26-2.17Zm-19.19,1.97c5.19,14.13,4.01,25.16,4,25.27-.53-2.05-3.36-5.86-5.78-8.95-.79-8.06,.74-14.91,1.78-16.32Zm-1.44-19.2c-6.43,11.34-5.7,23.01-5.35,28.62,.06,.92,.1,1.65,.1,2.18-.3-.55-2.03-1.37-3.51-2.02-.79-6.84,.84-14.02,1.93-17.18-2.73,4.89-2.81,15.4-2.55,17.04,0,0-.88-.44-2.31-.77-.34-14.22,5.81-21.23,8.76-24.59-6.11,5.05-9.37,13.77-9.19,24.55-.37-.28-5.12-1.3-8.66-1.64,.75-3.84,2.89-6.51,3.92-7.8l.08-.1c-2.6,1.71-4.52,7.31-4.43,7.94-.03,0-2.66-.05-3.8-.14,5.95-13.94,24.84-25.97,25.03-26.09ZM21.29,37.12l4.21,4.49c0,2.21,1.97,9.68,2.59,11.56-.54-.52-1.78-1.56-3.1-2.67-1.59-1.33-3.38-2.85-4.41-3.82-.22-4.5,.18-8.22,.7-9.57Zm4.81,5.08c.07,.07,6.63,7.53,9.51,13.56l-.45-.17c-.93-.36-1.89-.73-3.34,.06-1.92-1.23-3.02-2.21-3.03-2.22v-.04c-.97-2.74-3.14-9.32-2.7-11.2ZM4.6,50.41c-.06-10.8,2.06-19.48,2.81-21.67,.06,.16,6.77,16.42,23.99,27.07-.03,.01-3.42,.99-4.65,2.05-1.78-.86-10.3-8.33-13.73-15.83,.06,1.88,5.79,10.62,13.13,16.05-.69,.48-1.29,.7-1.3,.7-.14-.09-13.8-9.03-15.56-23.94-.51,1.75,1.75,15.22,15.35,24.21-1.9,1.01-5.42,3.6-9.08,7.57-3.08-2.31-8.7-12.64-8.38-27.13-.92,4.18,.52,20.99,8,27.34-1.12,1.17-3.38,3.7-3.4,3.73-1.21-.96-7.13-9.63-7.19-20.16Zm-1.57,14.97c3.69,3.9,7.74,6.19,7.78,6.21,0,0-.44,.55-1.19,1.35-.34,0-3.42-3.34-4.43-4.43,.42,1.43,3.33,4.21,4.16,4.86-.2,.17-.51,.59-1.15,1.44l-1.61,2.13c-2.99-5.72-3.56-11.51-3.57-11.56Zm-1.54,19.91c1.66-2.94,8.1-12.87,15.74-19.69,6.92-6.18,12.35-9.49,16.12-9.87,1.82,.07,4.2,1.1,5.35,1.59,.38,.16,.64,.27,.72,.29l-1.16,.12c-3.06,.29-7.68,.73-17.71,8.63,.35-.19,.94-.59,1.69-1.09,3.65-2.46,11.26-7.59,18.04-7.23-.61-.74-2.21-1.35-3.63-1.89l-.46-.18-.27-.56c-1.22-2.55-4.46-9.31-19.8-23.94,14.88-.58,22.43,1.67,26.13,3.66,2.52,1.72,10.33,8.89,13.14,18.96,.76-.5,1.31-8.56,.29-11.31,.39,4.94,.27,8.18-.39,9.91-.43-2.47-.72-2.88-.72-2.89,.02-.09,2.04-9.51-4.43-27.15,.11,.09,11.1,9.29,13.81,21.61-.48,1.24-1.63,4.92-1.64,4.96,0-1.74-.41-10.95-8.47-21.85l1.21,2.1c2.55,4.34,6.03,10.28,6.97,20.37-1.08,2.66-2.85,5.44-3.71,6.78l-.34,.53c1.55-.73,5.25-8.33,7.46-15.35,1.93-6.14,5.42-19.58,4.77-26.52,4.71,6.65,13.81,21.54,14.58,30.32-.09,5.16-.23,12.95-8.42,19.73,1.84,.46,10.56-2.86,15.54-5.92,3.63-2.23,8.71-6.28,11.74-8.7l2.22-1.75c-.6,.36-1.57,1.11-2.92,2.16-5.25,4.07-15.01,11.64-25.29,13.63,3.28-3.63,5.13-6.05,6.11-9.19,1.73-1.46,7.2-6.08,11.55-20.41l-.49,1.23c-1.36,3.53-4.54,11.8-10.77,18.45l.67-2.69c.08-.12,7.5-12.41,10.83-24.59,3.33-12.18,2.23-16.94,2.21-16.99,0,.18,.14,18.6-12.99,40.96,0-.01,.52-1.28,.52-3.75s-.52-6.48-2.98-11.99c-4.44-9.39-4.62-9.67-4.62-9.67,.17-.17,17.06-16.73,19.64-20.79-1.19,.94-4.43,4.43-8.19,8.46-4.22,4.54-9.01,9.68-11.69,12.04-.81-2.05-3.92-6.41-3.95-6.45l.58-.36c10.48-6.58,19.14-12.71,25.75-18.21,.65,7.24,1.87,29.96-.96,39.08-.86,1.51-1.8,3.23-2.78,5.04-2.11,3.89-4.29,7.91-6.22,10.69-2.24,1.62-6.88,4.4-6.93,4.43,3.02-1.43,4.54-2.38,5.65-3.07,.89-.56,1.53-.96,2.49-1.31,.6-.36,14.66-8.87,18.53-12.27-2.12,7.24-6.49,19.93-9.82,25.22-1.21,1.55-6.51,4.84-10.02,7.01-1.54,.96-2.76,1.71-3.27,2.09-.29-2.85-.24-4.32-.24-4.33,.08-.03,8.29-3.53,9.19-4.52-.64,.26-2.02,.92-3.48,1.62-2.32,1.11-4.95,2.36-5.71,2.57-.24-1.09-.15-1.39-.14-1.4,.09-.04,9.31-3.78,11.41-5.68-.54,.23-1.34,.64-2.36,1.15-2.1,1.06-5.26,2.67-8.95,4.14-1.46-1.28-4.28-2.75-9.43-2.45,1.96,1,4.27,2.53,6.55,6.3,.28-.74-1.96-4.3-5.01-5.82,3.02,.09,5.4,.5,7.27,2.17,.61,.75,.53,11.98-.77,14.34-2.14,1.83-8.19,6.31-18.14,8.52l1.11-1.34c3.64-4.37,7.4-8.88,8.27-11.42-.62,.62-1.37,1.59-1.38,1.6v-.24c.08-1.17,.19-3.14-2.23-4.44,1.33-1.67,1.58-1.95,1.58-1.95,.02,.02,1.78,2.52,1.93,3.99,.16-1.07-1.01-3.54-1.73-4.21,1.05-1.48,1.44-2.17,1.44-2.17,1.21,1.22,2.67,3.42,3.8,5.21-.05-1.41-2.47-4.33-3.7-5.51-.02-1.52-.12-2.14-.12-2.15,.02,0,2.5,.92,4.93,7.13,.85,2.21-3.33,8.17-11.55,13.96,3.23-1.8,11.5-8.65,11.94-12.27,.45-3.72-3.77-8.72-5.34-9.05l-.19-.82c-.34-1.52-.55-2.44-3.08-4.95l.99-.99c2.63-2.59,8.1-7.99,9.35-12.1-.38,.5-.75,1.08-1.17,1.74-1.43,2.25-3.59,5.66-9.47,10.91-1.57-1-1.83-1.25-1.83-1.25,.04-.04,3.81-4.36,4.76-10.83,1.19-8.06,1.35-14.98,.48-20.55-.99-6.38-2.5-12.02-3.22-13.09l.55,2.28c1.1,4.45,2.61,10.54,2.81,17.26,.2,6.52-.29,18.42-5.73,24.79l-.34-.34s3.56-4.99,3.56-7.46c-.79,2.06-2.07,5.07-4.04,7.36l-.3-.1c-2.02-.7-3.14-1.09-3.55-.96-.52,.24-4,3.13-5.34,4.96-.94-3.36-2.26-6.73-5.49-8.62l-.33-1.14c-1.04-3.64-2.46-8.62-10.59-17.58l1.5,1.99c2.88,3.73,7.7,9.98,8.85,16.54-2.19-.78-5.67-1.48-9.82-.34-2.94-6.78-9.93-19.12-23.63-25.65,6.03,3.81,17.24,10.89,23.34,25.94-.43,.14-.72,.1-.72,.1-.59-1.61-5.84-11.69-14.82-17.47l1.03,.94c3.94,3.57,9.89,8.96,13.6,16.82-1.89,2.09-3.4,4.84-5.1,8.33-3.54-.79-15.11,2.51-29.74,12.32,13.83-8.2,24-12.35,29.41-11.98-.62,1.43-.86,1.83-.87,1.83-.02-.01-2.72-.76-13.76,4.33,2.95-1.19,11.14-4.19,13.57-3.8-.76,1.09-1.34,2.82-1.35,2.84-2.55,0-12.49,.91-33.5,12.56Zm60.03,36.85l-1.04,.42s-4.27,.39-9.41,1.92l-.58-.31c-1.16-.61-2.92-1.52-4.12-3.15-1.39-1.88-3.12-5.77-3.21-6.7l.81,.38c3.21,1.51,8.58,4.03,11.55,3.62,2.93-.41,5.78-2.88,8.29-5.07l.79-.68,1.6-1.42c.95-.86,1.47-1.33,1.7-1.23,.11,.05,.16,.21,.16,.52,0,.05-.3,4.6-1.04,6.16-.74,1.56-3.21,3.79-5.16,5.04l-.51,.05c-2.22,.23-6.34,.65-7.61,1.61,3.03-.81,6.74-1.37,7.78-1.17Zm-9.66,2.67s0-.05,.02-.08c.43-.57,6.32-1.91,8.47-1.79-.03,.03-3.31,2.64-5.04,3.66-.69-.29-1.36-.68-1.89-.98-.52-.3-.94-.54-1.15-.56,.76-.45,4.74-1.27,6.43-1.61l.65-.13c-.37-.25-5.2,.72-7.5,1.5Zm13.44-13.41l-.44,.37c-5.21,4.39-6.96,5.87-10.56,5.94-2.38,.04-5.31-1.36-8.15-2.72-1.59-.76-3.09-1.48-4.46-1.94-3.87-1.29-5.29-2.46-7.26-7.73l-1.63-4.37c-.75-2.02-1.06-2.85-1.14-2.96,.32,.11,.71,.41,1.06,.67,.38,.28,.7,.52,.82,.46-.05-.08-5.29-7.95-5.64-10.57-.36-2.65,.13-8.55,.66-9.34,1.25-.68,3.84-1.88,4.56-1.88-.81,1.96-1.94,5.27-2.71,7.69l-.86-.13s-.76,2.38-.59,2.94c.62,.16,.73,.17,.73,.17,0,0-.33,.81-.4,2.18l1.12-1.35c.42-.53,.55-.69,.93-.86,.54-.24,3.59-.64,4.42,.89l-.08,.12c-.56,.8-1.15,1.63,.05,5.69,.73,1.96,1.15,2.86,1.45,3.1,.11,.09,.86,.14,1.9,.21,2.13,.15,5.36,.37,7.31,1.14,.82,.32,1.36-.08,2.11-1.55,.76,.19,1.83,.3,2.21,.26,.08-.35,.31-.93,.53-1.5,.24-.61,.49-1.25,.56-1.61-.53,.36-1.12,2.27-1.29,2.84l-.58-.36c-.62-.36-1.46-.85-3.42-2.58l-1.6-1.42c-2.06-1.83-3.84-3.41-4.28-3.7,.53-1.15,6.54-10.63,11.29-13.04,0,0,.23,.17,.23,.53,.09-.04,.15-.12,.16-.22,.02-.17-.1-.36-.32-.51,.42-.29,.71-.22,1.16,.26,.13-.2-.29-.79-.3-.79,.05-.05,.12-.06,.19-.04,.21,.07,.44,.42,.54,.83,.2-.27,.12-.67-.2-.99,.06-.08,.12-.12,.19-.11,.18,.03,.39,.42,.57,1.06,.16-.62-.19-1.28-.2-1.29,.04-.05,.11-.1,.22-.08,.14,.03,.42,.21,.67,1.1,.08,.01,.14,0,.17-.06,.13-.21-.09-.83-.5-1.42,.11,0,.29,.08,.47,.27,.2,.21,.52,.72,.46,1.71-.11,1.57-3.88,10.71-9.81,16.64,1.75,.09,8.67-3.39,14.07-6.39,5.76-3.21,11.84-7.02,12.31-8.1,.41-.09,1.01,.2,1.51,.74,.38,.41,1.56,1.94,.8,4.34-.29,.69-1.93,2.98-1.95,3-.3-1.25-.52-1.52-1.29-1.52,.4,.89,.9,2.1,.66,2.41l-.27-.65c-.21-.58-.47-1.31-.96-1.56,.42,.91,.72,1.74,.73,1.75l-.35-.59c-.33-.6-.64-1.18-1.37-1.23-1.02-.07-4.19,2.31-7.4,5.55l-.5,.51c-2.99,3.02-4.64,4.69-6.86,5.53-.2-.1-.53-.83-.69-1.32-.15,.39,.07,1.31,.43,1.8,.16,.21,.33,.32,.49,.32,.62-.03,2.13-.72,2.15-.73,.24,.8,.74,1.98,1.09,1.91l.46-.15c.82-.31,2.75-1.02,6.44-1.69l.5-.02c1.1-.03,1.52-.04,2.74-2.89,2.53-.74,4.53-1.42,4.85-1.59-.21,.81-.97,3.81-1.72,8.16l-.1,.6c-.57,3.4-.92,5.46-6.1,9.83Zm-41.37-29.87c.25-.29,1.15-.73,1.57-.77-.02,.04-1.89,4.06-1.13,6.13,.74,2.02,3.25,5.7,7.47,10.94l-1.7-1.11c-3.41-2.2-9.76-6.3-10.85-8.45-.2-1.56,.36-3.81,.36-3.83,.36-.6,3.54-2.55,4-2.7-.3,.91-.65,2.15-.61,2.66,.48-1.08,.88-2.85,.89-2.86Zm8.23,15.74c-1.12-1.04-6.9-8.31-7.55-10.9-.04-2.71,1.32-5.54,1.33-5.57-.02,.05-1.64,5.38,6.21,16.46Zm-4.76-9.52c-.75-1.81-1.58-5.53-1.13-7.51,1.16-.72,1.77-.81,1.78-.81-.01,.03-1.08,2.93-.65,8.31Zm-5.42,3.65l1.78,1.49c-.23,.32-1.3,2.05,.59,4.79-.58-1.38-1.15-4.18-.17-4.62,.88,.59,3.41,2.42,3.43,2.44-.17,.3-.84,.86-1.42,.86,.07,.1,.17,.15,.3,.16,.36,.02,.91-.33,1.35-.85,.66,.36,.96,.76,.96,.99-.13,.26-.51,.55-.87,.83-.37,.29-.73,.56-.81,.79-.1,.27,.18,1.26,.6,2.13,.18,.38,.53,1.03,.86,1.14,.34,.12,.56-.02,.74-.14,.17-.1,.3-.19,.44,0l.16,.23c.36,.54,1.02,1.55,1.76,1.12,.26-.15,.35-.43,.25-.79-.18-.63-.94-1.38-1.6-1.36-.24,.03-.51,.17-.76,.3-.27,.14-.52,.26-.72,.26-.08,0-.2-.11-.34-.3-.43-.63-.98-2.07-.85-2.4,.07-.17,.26-.33,.49-.52,.34-.28,.76-.62,.9-1.13,.06-.13,.11-.19,.14-.19,.05,0,.08,.15,.11,.34,.06,.33,.15,.79,.44,.88,.1,.03,.17,.02,.21-.03,.16-.19-.2-.95-.21-.96l.96,.63c.03,.06,2.81,5.89,2.91,7.13,0,.11-.07,.2-.19,.28-.52,.32-2.04,.29-3.31-.25-.72-.3-1.55-.78-2.43-1.28-.93-.53-1.9-1.09-2.79-1.46-1.55-.66-2.62-2.49-3.37-5.78-.63-2.77-.24-4.47,.46-4.72Zm8.09,9.74c.06-.15,.17-.22,.32-.21,.4,.03,1.04,.63,1.14,1.07,.04,.17-.01,.3-.14,.37-.11,.06-.23,.07-.35,.03-.52-.18-.96-1.24-.97-1.25Zm3.1-27.04c-1.87,.03-2.79-.07-3.24-.15,2.22-.57,4.86-.76,5.01-.72l-.15,.36s-1.44,0-2.35,.1c.81,0,1.93,.2,1.94,.2v.49h-.67c-.23-.01-.45-.03-.84,.04,.62,.07,1.35,.29,1.36,.29v.2c-.08-.02-1.85-.51-2.86-.15,.81,0,2.59,.46,2.61,.46l-.21,.2c-.76-.16-4.6-.67-7.26-.87,.4-.1,4.15,0,4.19,0,0,0,.49,.05,2.56-.46h-.09Zm5.13-7.29l.64-1.17c3.34-6.15,3.62-6.65,6.05-7.2,2.56-.58,3.2-.42,3.2-.42-.04,.04-4.57,3.99-8.66,10.54l2.24-2.76c2.12-2.65,4.31-5.38,7-7.75,4.37,.16,8.49,.31,10.83,9.89l-1.39,1.36c-.48-2.04-2.32-6.92-3.69-7.15-1.35-.22-6.98,2.68-8.6,4.43,3.46-2.1,6.97-4.14,8.44-4.04,1.43,.09,3.39,5.53,3.72,7.31-.1-.06-.32-.56-.64-1.24-.87-1.88-2.32-5.04-3.66-5.13-1.93-.14-14.16,6.74-22.24,21.63l.82-1.23c1.93-2.98,6.43-9.96,15.7-17.16,3.62-2.42,5.32-3.17,6.05-2.68,.69,.46,3.36,4.9,3.52,6.3l-.81,2.52-.06-.13c-.9-1.75-1.93-3.73-2.88-3.85-1.11-.15-10.27,2.94-24.09,20.14,.42-3.68,4.51-14.87,8.5-22.21Zm22.37,9.05c2.46-4.27,5.61-10.39,6.37-12.71,1.85,.06,5.88,3.08,5.92,3.88,.03,.7-2.64,9.26-13.13,17.88-6.01,4.7-13.21,7.98-13.51,8.12,3.41-3.8,4.99-5.73,6.89-9.7,1.54-3.2,2.71-5.2,4.67-8.5l1.41-2.4c1.95-3.32,3.54-5.85,4.6-7.52l1.16-1.86c.09-.16,.23-.26,.41-.31,.57-.15,1.39,.33,1.4,.34-.03,.07-2.82,7.51-9.05,16.52-3.71,5.27-5.45,7.51-5.47,7.53,1.9-1.96,5.86-6.98,8.34-11.28Zm13.22-7.86c1.12,1.12,1.95,4.92,1.36,6.18-.25,.53-2.71,5.31-11.48,10.09l-4.09,2.24c-4.83,2.65-7.04,3.87-10.01,5.04l1.18-.64c4.7-2.54,11.15-6.03,16.41-12.84,5.2-7.04,5.47-8.53,5.86-10.58l.06-.31s.32,.04,.45,.36c0,.06,.18,6.11-9.7,14.71,1.54-.75,9.86-8.19,9.96-14.23Zm-19.01,11.45l.96-2.78c.93-2.71,1.98-5.79,2.53-6.79,.77-1.4,4.55-5.45,6.05-6.47-.05,.08-4.84,7.54-9.54,16.04Zm.25-4.89c.07-.31,.67-.55,1.3-.52,0,0,.03,.31-.1,.53-.09,.16-.24,.23-.45,.19,.07,.48-.07,1.1-.31,1.41,.14-.82-.01-1.38-.45-1.61Zm-9.31,1.68c-.11-.38-.59-.59-1.05-.79-.24-.1-.48-.21-.67-.34l.17-.21c1.61,.47,1.97,.94,2.31,1.4l.09,.12c0-.73-1.15-1.34-2.13-1.65,.2-.58,1.06-.96,1.07-.96,.86,.41,2.74,1.88,2.82,2.06-5.84,5.16-9.07,12.5-9.1,12.57-.87-.9-3.59-3.29-5.67-3.5,1.83-2.26,5.03-5.75,9.81-9.54l.18-.14c.48,0,.89,.44,.89,.45-.03,0-.66-.1-1,.17,.85,0,1.7,.21,2.27,.38Zm.58-3.02c.59-.62,1.75-1.41,2.1-1.51,.15,.08,1.48,.83,2.61,2.51,0,0-.76,.41-1.06,.41-.32-.41-1.67-1.85-2.47-2.16l.26,.24c.71,.66,1.9,1.76,1.9,2.33-.18-.09-.45-.34-.76-.63-.63-.58-1.41-1.29-2.02-1.36l.48,.36c.83,.62,1.68,1.25,1.79,1.94-.2,.27-.68,.34-.69,.34l-.74-.57c-.7-.56-1.58-1.25-2.15-1.45l.55-.34s1.39,.94,2.58,1.89c-.2-.65-1.99-1.84-2.37-1.99Zm5.63-3.3c.46-.19,.93-.1,2.89,2.89,.24-.66-1.43-2.55-2.4-3.09,.78-.41,1.37-.45,1.37-.45,.02,.02,2.03,2.45,2.27,3.74l-.78,.09c-.32,.02-.65,.05-1.31,.19-.35-.84-1.78-2.68-2.47-2.92,.92,.96,1.75,2.06,2.16,2.89-.53,.21-.87,.24-1.17,.24-.43-.75-1.22-2.15-2.3-2.68,.66-.63,1.25-.71,1.5-.74h.08c.16-.04,1.99,2,2.44,3.01,.21-.5-1.33-2.66-2.27-3.16Zm.38,3.81s-.14,.1-.27,.1c-.42-.95-1.82-2.26-2.41-2.78,0,0,.02-.09,.09-.15,.07-.06,.15-.05,.26,.01,1.29,.71,2.33,2.8,2.34,2.82Zm-.48,.07s-.18,.34-.62,.34c-.5-.85-1.54-1.96-2.71-2.51,.02-.07,.32-.29,.59-.42,.17-.08,.29-.1,.37-.07,1.63,1.39,2.36,2.63,2.37,2.65Zm-12.61,15.01l-.62,1.48-.55-.42c-1.46-1.16-4.51-3.59-6.87-2.15,.74-1.25,2.15-2.44,2.3-2.47,.01,0,1.35-.28,5.74,3.57Zm-.82,1.82c-.17,.1-.55,1.23-.95,2.44-.3,.91-.61,1.86-.84,2.34,.84-.6,2.57-3.66,2.71-4.23,1.26,.85,4.09,3,4.12,3.02-.09,.07-2.07,1.65-.41,3.88-1.43-.23-3.54-.44-5.5-.55-.67,.03-1.19-1.53-1.85-3.74-.29-.96-1.11-4.16,.41-4.81,1.16,.68,2.29,1.64,2.3,1.65Zm4.35,6.2c-.14-.55-.09-1.42,.94-2.45,1.49,.98,2.63,1.88,2.64,1.89,0,0,.04,.65-.25,1.21-.35,.67-1,.96-1.95,.85-.45-.13-1.18-.68-1.39-1.5Zm3.19,1.35c.34-.33,.73-.7,.81-1.64l1.37,.89s-.73,1.51-1.24,1.55c-.31,.02-.6-.14-.84-.27-.17-.09-.32-.17-.43-.17l.33-.35Zm-.74-3.15c-4.21-2.99-5.52-4.01-5.53-4.02,.14-.68,.75-1.23,.76-1.24,1.71,1.35,2.31,1.92,3.32,2.87l1.18,1.11c1.96,1.82,4.03,3.32,4.88,3.81-.02,.02-.65,.4-4.6-2.54Zm-6.32-3.43c-.5,.92-.89,1.65-1.28,2.21,.74-2.74,3.28-8.81,6.94-13.43,3.02-3.82,6.82-7.63,11.99-6.85-.04,0-4.24,.74-10.03,7.13-4.28,4.73-6.29,8.47-7.62,10.94Zm-9.42-4.16c-.43-.94,.54-1.81,.54-1.81,0,0,0,1.3-.54,1.81Zm41.61,.65c-.33-.16-1.79-.42-6.49,3.2-2.87,1.99-3.01,2.12-3.7,2.75l-.53,.48-.35,.31c-1.27,1.15-3,2.72-5.28,2.85-.07-.08-.1-.15-.08-.21,.03-.11,.22-.18,.46-.27l.21-.08c.44-.17,3.27-1.62,5.22-3.98,1.91-2.31,7.53-7.11,8.96-7.21,.71-.03,1.67,2.21,1.68,2.23,0,0-.03-.03-.1-.07Zm.07,.38s-1.51,1.66-1.79,2.3c-.1-1.02-.31-1.95-.31-1.96h0c.06-.03,1.49-.85,2.1-.34Zm-10.75,9.41c-.53,.49-1.77,.89-2.3,.89-.33-.3-.79-1.36-.76-1.65,.88-.37,1.84-1.16,1.85-1.17,0,.02-.14,1.68,1.2,1.92Zm-.55-.72c-.54-1.05-.28-1.41-.28-1.41l1.89-1.89c.63,.13,1.76,.81,1.51,2.47-.13,.89-.87,1.32-1.52,1.43-.71,.12-1.36-.13-1.61-.61Zm3.49-1.71c-.09-.75-.55-1.42-1.32-1.96,1.94-1.53,5.59-3.73,6.7-4.36,0,0,.2,1.7-.07,2.34-.34,.68-1.68,2.03-2.82,3.13,.02,0,1.72-.04,2.3-.27l-.21,.4c-.52,.97-1.17,2.19-1.95,2.25h-.16c-.89,.08-2.01,.16-3.18,.58,.53-.59,.79-1.37,.71-2.09Zm-46.88-17.27s-1.6,1.61-1.87,2.4c-.45-.11-.99-.8-1.03-1.07,.9-.45,2.87-1.32,2.89-1.33Zm-7.54,3.84c.75-.45,4.19-2.23,4.23-2.25l1.22,1.07c-.56,.37-2.28,2.95-2.78,5.44-1.53-1.41-2.66-4.12-2.66-4.26Zm1.3,12c.13-1.72,1.09-10.57,6.97-16.16l2.05-.86s-1.79,1.63-2.16,2.7l1.59-1.64c.58-.6,1.04-1.08,1.22-1.23,.31-.25,4.82-1.84,5.67-1.84-1.61,1.03-2.5,1.71-2.92,2.54,1.66-1.28,3.44-2.42,3.46-2.43l1.35,.11c-.12,.06-12.31,6.31-15.73,14.59,3.41-4.99,7.77-10.18,16.54-14.43,2.24-.27,5.32,.37,5.35,.38-.37,.53-.59,1.18-.6,1.19h-.04c-4.73,1.55-16.42,6.28-22.76,17.08Zm10.54-1.34c-.78-.18-5.39-2.48-6.13-3.84,1.12-1.71,3.76-3.71,4.49-4,0,.03-.45,2.57-.34,3.51,.64,1.13,2.52,2.65,2.54,2.66-.35,.65-.53,1.03-.57,1.67Zm-.44,4.59l.54-.5c-.19,0-1.59,1.27-3.63,3.17,.78-2.22,3.77-4.44,3.8-4.46,.42,5.46,2.89,6.6,5.74,7.92,.75,.35,1.53,.71,2.31,1.16,2.3,1.33,4.14,1.02,4.82,.49,1.76,6.66,4.99,7.36,5.02,7.36,2.75,11.93,7.83,14.21,8.65,14.13-5.05-2.79-7.3-10.42-8.14-13.29l-.18-.61,3.07,1.45c.73,2.16,3.31,7.14,5.05,8.55,1.37,1.1,4.1,2.44,6.1,3.42l1.3,.64s-2.2,1.43-4.19,2.61c-1.93-.66-8.22-1.33-10.14-.96l2.31,.17c3.06,.22,5.96,.44,7.3,.88-.95,.95-7.16,1.79-9.11,1.55-1.85-.23-5.23-2.66-6.6-3.7,.09,.58,.93,1.17,1.67,1.68,.34,.24,.67,.46,.88,.66l-.72-.17c-.96-.22-2.27-.52-3.47-1.05v-.41c.04-.67,.09-1.93-.1-2.82,1.9-1.04,4.19-3.37,4.19-4.06-.42,.71-3.57,3.46-4.33,3.76l-.07-.59c2.05-2.76,2.14-9.02,1.83-10.15-.03-.13-.07-.2-.11-.22,0,0,.06,1.34-.13,1.95,0-.02-.11-2.22-.76-3,1.39,5.62,.05,9.61-.86,10.93-.75-9.69-5.43-15.52-9.74-17-3.59-1.23-8.01-1.17-11.82,.16,1.51-2.3,7.13-7.46,9.53-9.67Zm16.67,32.91c.4-.09,.93,.13,1.67,.44,.62,.26,1.39,.58,2.33,.81,.02,.05,1.59,4.84,1.96,6.16-1.28-.09-1.76-.22-2.08-.3-.28-.07-.43-.11-.88-.08-.49-.22-2.47-3.54-3-7.04Zm1.92,6.04c-.29,0-2.28-.54-3.79-1-.25-1.64-1.94-4.89-2.29-5.16-.37-.29-.21-1.16-.21-1.16,.82,.41,2.56,.75,2.58,.75l.17,2.62c.33-.29,.5-2.48,.5-2.5l.75,.08c.04,1.71,1.61,5.27,2.29,6.37Zm2.71-4.87s.82,.16,1.79,.04c4,5.47,6.54,5.88,8.06,6.13l.44,.08c0,2.76,1.2,7.16,1.21,7.2,0,0-.26,0-1.37-.38-3.61-5.23-5.94-6.12-8.2-6.62-1.44-3.09-1.91-6.42-1.92-6.45Zm2.17,0s.46-.13,1.04-.21c4.11,3.99,6.93,4.12,6.95,4.12l-.08,1.87c-4.53-.58-7.88-5.74-7.91-5.79Zm7.95,3.54c-3.75-.82-6.47-3.8-6.5-3.83,0,0,.51-.21,1.17-.17,1.45,1.02,4.86,.86,5.62,.58,0,.02-.33,1.64-.29,3.41ZM10.94,107.57c0-.36,2.35-1.04,4.66-1.21-.02,.03-2.37,2.79-2.58,6.04-1.25-2.49-2.08-4.43-2.08-4.83Zm-.92,32.23c.33-4.09,1.45-6.93,2.05-8.46l.32-.87c-.53,.58-1.49,2.77-1.5,2.79-.14-.45-3.33-11.2,6.74-17.86-.39-.22-2.05,.8-3.87,2.95-.06-.02-1.44-.54-.67-4.54,.77-3.99,1.88-6.64,3.12-7.45,.12-.02,11.93-2.28,15.2,13.24-1.2-2.1-2.74-3.91-3-3.91l.66,.97c1.68,2.41,3.57,5.15,3.17,12.6l-.27-.24c-2.25-2.01-5.32-4.75-8.73-4.67-3.63,.08-8.12,3.8-8.12,4,.59-.29,1.24-.69,1.93-1.11,1.75-1.07,3.73-2.29,5.81-2.47,2.09-.08,3.14,.02,6.08,3.33,.03,.01,.04,.01,.05,0,.07-.12-1.1-1.75-1.84-2.29,1.07,.56,6.46,3.64,7.54,9.33-6.29-1.46-11.69-.1-16.03,4.04-3.24,3.18-5.02,7.35-5.29,12.41-2.43-4.08-3.79-6.64-3.37-11.78Zm12.82,.42c-1.9,.76-5.35,4.91-6.7,8.08-1.38,3.21-.69,8.39,1.5,11.32-1.3-1.17-4.76-4.29-3.66-10.33,.98-5.4,4.67-11.87,12.12-13.86,4.32-.91,8.18-.33,9.53,.38,0,0-.88-.15-1.71,1.21-.65-.33-3.27-.49-5.78,.42-1.54,.56-3.58,1.74-4.59,4.15l.27-.33c1.42-1.74,3.79-4.66,9.76-4.08-.79,1.29-2.45,3.19-3.12,3.91l-.47,.11c-1.93,.43-7.06,1.58-6.07,6.34-.98,1.57-3.29,5.26-3.54,8.08-1.36,1.24-2.28,2.39-2.54,3.16-2.28-2.15-2.07-6.76-1.5-10.24,.7-2.11,3.91-5.62,4.66-6.37l-.38,.89c-.86,1.97-1.83,4.21-1.87,8.11,1.04-5.27,2.34-8.75,4.08-10.95Zm12.12,34.35c1.58,.96,3.11,.96,3.87,.87,.14,.17-.09,1.13-.33,2.14l-.29,1.27c.92-.72,1.19-2.42,1.32-3.24v-.09c.3,0,1.72-.13,2.89-.42,.47,2.27-1.45,3.94-2.54,4.5-1.19,.62-2.94,1.28-4.04,1.62-1.06,.33-4.88,0-6.54-.29-1.16-.21-2.9-2.06-5.16-5.49l.15,.09c2.44,1.51,3.88,2.28,4.26,2.28l-.81-.57c-.66-.48-1.77-1.29-3.48-2.43l-1.19-.79c-1.85-1.21-2.47-1.62-2.47-2.25v-.9c-.02-1.07-.03-2.69,0-3.64,.05-1.53-1.36-4.75-1.79-5.7-.77-1.69-.22-3.53,1.54-5.2l1.12-1.02c.88-.79,1.32-1.18,1.5-1.85,0,.01-.97,1.09-1.91,1.62,.37-3.38,2.68-6.01,2.71-6.04,0,0,.25,.21,.12,1.87,.5-.66,.5-1.85,.5-4.01v-.49c0-2.47,1.94-3.91,3.75-4.2,1.77-.33,2.66-.75,2.66-.75l-.04,.54c.13-.05,.65-.39,1.96-2.58l.26-.44c1.01-1.71,1.74-2.94,3.2-2.98,1.36-.04,2.71,.54,4.12,1.75l.84,.76c.88,.82,1.71,1.6,2.41,1.57-.53-.16-2.6-2.31-2.62-2.33,.43,.01,4.33,.21,7.08,2.66,2.31,2.06,5.79,8.06,6.5,9.87,.62,1.6,.97,4.53,.83,7.12-.06,1.13-.91,2.47-2.27,3.57-1.02,.82-2.1,1.31-2.68,1.22-2.46-8.72-10.76-13.02-11.59-12.98-.04,0-.06,.01-.06,.03,9.29,4.97,11.24,12.5,11.24,13.78s-2.09,3.53-2.83,3.71c-.72,.17-4.11,.16-6.04-.25-1.31-.45-4.5-2.94-6.83-4.76-.92-.72-1.72-1.35-2.21-1.69,1.07,1.93,7.85,6.46,8.79,6.79,.58,.2,2.15,.28,3.54,.35,.91,.05,1.71,.08,2.04,.15,.53,.31,.45,1.92-.5,3.83-1.61,3.65-3.97,3.79-5.23,3.86h-.22s-.34,.04-.34,.04c-1.11,.09-2.49,.19-4.15-.53-.64-.28-1.38-.66-2.09-1.02-1.31-.67-2.55-1.31-3.03-1.23,.4,.12,2.46,1.28,4.12,2.29Zm7.78,2.08c.16-1.03-.04-1.62-.04-1.62,0,0,.89-.1,1.91-1.21,.25,.37,.33,.83,.33,.83,0,.01-.35,1.34-2.21,2Zm9.99-6.41c-.74,.92-1.3,1.83-1.62,2.62-.08,.2-.19,.32-.34,.35-.34,.07-.77-.37-1.05-.65l-.07-.07c-.19-.19-.55-.39-.89-.59-.36-.21-.71-.41-.85-.57-.14-.16,.43-1.14,1.02-1.98,.75-1.07,1.68-2.17,1.98-2.05,1.52,.29,2.74,1.86,2.75,1.87,0,0-.22,.22-.92,1.08Zm6.62-13.49c.49,1.81,.95,4.85,.21,5.79-.3,.38-.99,1.09-1.79,1.93-1.35,1.4-3.04,3.15-3.87,4.32-1.3-1.17-2.63-1.83-3.16-1.79-.42,.09-1.89,1.73-2.68,2.97-.4,.64-.59,1.11-.53,1.36,.11,.45,.63,.75,1.23,1.1,.59,.34,1.26,.73,1.77,1.36-.63,1.07-2.04,1.97-3.5,1.62-1.53-.36-2.11-1.62-2.21-1.87,.6-.66,3.37-4.4,2.12-6.29,1.4-.38,3.41-2.34,3.5-4.66,1.29,0,2.7-.95,4.33-2.91,.68,.76,2.75,2.12,4.04,2.37l-.59-.35c-.66-.36-1.76-.96-3.32-2.31,.55,.24,.96,.5,1.39,.77,.59,.38,1.21,.76,2.24,1.1-.32-.26-.85-.58-1.42-.92-.71-.42-1.44-.86-1.78-1.2l.02-.29c0-.21,.01-.37,.12-.44,.19-.13,.71,0,2.07,.52-.12-.45-1.34-.87-1.83-.87l.03-.41c.14-1.71,.45-5.72-1.53-8.91-.02-.18,.04-.34,.17-.49,.39-.43,1.3-.63,1.83-.63-.17-.15-.46-.22-.83-.18-.49,.05-1.13,.29-1.46,.73-.01-.03-1.42-2.54-1.71-2.83l1.21,.08s1.14,.92,2.17,1.5c.88,.49,2.7,1.51,2.75,3.58,.04,2.08,.68,4.93,1.04,6.29Zm14.57,.13c-.9-.08-2.77-1.28-2.79-1.29,.01,0,1.43-.23,2.79,1.29Zm-2.17-1.58c-2.28,0-3.86,.6-4.95,1.87-1.56,1.44-2.61,2.2-2.62,2.21-.63-.5-4.96-5.76-5.21-6.33l-.11-1c-.22-1.95-.38-3.5-1.14-4.04-.27-.19-.56-.45-.9-.76-.75-.67-1.68-1.51-2.97-2.12-1.14-2.27-2.03-7.68-1.54-13.61,.37-.08,.54-.04,.54-.04,0,.08,.65,7.77,3.12,13.24-1.68-5.35-2.71-11.27-2.62-13.45,.86-.41,.96-.54,.96-.54,0,.1,.06,9.97,9.16,18.61l.07,.06c3.65,3.41,3.87,3.61,8.22,5.89Zm-13.4-19.48c-.83,.46-1.7,.93-2.17,.96-.71-1.3-1.62-4.73-1.46-5.95,.49-.54,.91-.54,.92-.54,1.23,1.06,4.67,3.4,7.91,5.04-.03,.04-3.49,3.93-6,5.33-.82-1.73-1.37-3.44-1.37-3.46,.92-.37,3.58-1.55,3.66-2.12-.4,.15-.93,.44-1.49,.75Zm24.85,4.87c-1.63,3.66-4.29,8.07-10.49,9.58-3.7,.34-7.4-.57-8.41-.92-1.15-.4-5.94-6.24-6.49-8.58l.76,.59c2.84,2.24,8.74,6.9,13.61,6.86,2.69-.15,5.03-1.65,6.95-4.46l1.53-2.25c.7-1.01,.85-1.22,.85-1.58-.15,.16-.37,.5-.68,.97-1.32,2.01-4.07,6.21-8.06,6.65-3.68,.36-8.3-1.83-14.53-6.87l.79-.5s4.7,4.46,7.99,4.71c-3.37-1.5-5.98-3.55-7.66-4.95,1.54-1.21,3.69-3.19,4.62-4.41l1.46,.68c2.06,.98,4.4,2.09,5.54,2.02,.9-.05,3.95-1.34,6.41-2.38,1.4-.59,2.61-1.1,3.09-1.24,.38,.55,.37,3.5,.25,4.58,.8-1.44,.4-3.95,.17-4.7,.74-.58,2.07-.71,2.08-.71,.08,.13,1.84,3.31,.25,6.91Zm11.2-17.19c2.5,.38,4.01,4.78,4.54,6.66-1.57-.81-6.42-1.24-8.16-.87,.17-2.7,2.02-4.54,2.37-4.79-2.38,1.06-2.97,4.14-3.16,8.78-5.35-1.45-10.51,1.04-14.28,2.85-2.02,.97-3.61,1.74-4.7,1.68-3.23-.17-13.3-6.49-14.95-7.79l1.08-.71c3.6,2.15,8.18,2.82,10.38,3.15,.64,.09,1.11,.16,1.28,.23l-1.21,.25c3.06,.12,5.04-.79,10.89-3.51l.6-.28c10.4-5.79,13.36-5.96,15.32-5.66Zm-21.66-2.43c1.75-.27,2.82,1.14,3.2,1.75-.07,.02-6.83,2.07-11.23,6.09,3.47-2.22,7.21-4.46,11.08-5.75,1.59-.53,2.78-.5,3.53,.08,.76,.59,1.08,1.75,.96,3.46-.89-.49-1.94-1.19-1.98-1.52,.41-.3,.87-.31,.87-.31,0,0-.02-.01-.07-.03-.66-.26-4.34-1.17-12.38,7.11-2.85-.19-7.23-2.64-7.58-3.69,2,.04,6.2-2.2,8.11-4,1.84-.25,3.78-.7,5.48-3.2Zm-5.03,2.7c1.76-1.87,4.98-5.22,6.82-6.74-.01,.02-1.42,2.08-2.21,4-.8,1.27-2.43,2.66-4.61,2.74Zm7.16,2.39c.02-.08,.63-.35,1.22-.62l.99-.47s.47,.5,1.25,.62c.69,.26,1.88,1.47,2.16,2.21-.45,.54-2.19,1.2-2.21,1.21-.5-.87-2.4-2.45-3.41-2.96Zm3.04,3.04c-1.85,1.26-4.65,2.21-6.51,2.84l-1.36,.49-.53-.08c-.47-.09-1.26-.24-2.43-.3,1.38-1.61,5.4-5.19,7.28-5.83,1.77,.7,3.52,2.85,3.54,2.87Zm-15.7,1.79c-1.52-.28-3.88-1.36-4.79-1.83,.58-.41,1.04-.66,1.04-.67,.02,.02,2.22,1.84,3.75,2.5Zm21.15-15.67s-1.1,.9-.57,3.2l.18,.75c.47,1.82,.75,2.92-1.17,7.7-.75,.64-1.02,.76-1.03,.76l-.27-.84c.43-1.08,.36-3.56-1.75-4.42-.9-.45-2.2,.11-2.21,.11l-.3-.31c-.6-.65-1.61-1.74-3.32-1.51,.08-1.2,5.41-3.7,6.47-4.19-.26-.15-3.2,.81-5.52,2.7,.57-1.84,1.4-2.45,3.05-3.12,1.74-.71,4.58-1.24,6.43-.84Zm-1.89-8.44c.17,.1,.19,.33,.22,.65l.04,.37c.17,1.43,.44,5.93-.3,6.97-2.85,0-4.69,.94-6.18,1.7l-.41,.21s.7-.93,2.13-2.51c1.66-2.03,2.32-6.73,2.32-6.78,1.36-.59,1.93-.75,2.18-.6Zm-4.62,6.88c-.49,.75-1.49,1.72-2.76,2.95-1.28,1.24-2.87,2.78-4.44,4.59l-.67,.66c-3.02,3-4.54,4.51-9.69,6.08,2.02-1.37,3.92-2.66,4.19-3.27l-.65,.43c-2.1,1.41-7.67,5.15-10.24,5.81-2.85,.55-5.01,.12-5.75-.19l.53-.06c1.07-.05,2.87-.14,11.2-6.11,7.87-6.05,8.09-6.46,8.45-7.16,.4-.77,1.64-5.87,1.9-8.87,1.71-1.86,2.56-4.19,2.63-5.56,.44,.04,.84,3.07,.8,4,.69-.8-.11-3.42-.61-4.57l.04-.84c.16,.22,3.95,5.49-2.44,14.62,.45-.19,2.18-2.52,3.21-5.47,.84-2.39,1.47-5.91-.24-9.11l.63-.07c.59-.03,1.21-.06,2.41-.96l2.38-1.88c.91-.74,1.63-1.32,1.73-1.32,0,.1,.64,9.94-2.63,16.3Zm2.2-16.57c-1.17,.9-2.02,1.62-2.71,2.2-1.77,1.5-2.37,2.01-4.26,1.89,0-1.52,1.03-6.81,1.72-8.42,.75-.62,1.9-.95,1.91-.96-.16,.27-.53,1.2-.2,1.83,.19,.36,.56,.56,1.12,.61-.54-.31-.84-.61-.91-.94-.05-.23,.01-.47,.19-.71,.22,.1,.45,.16,.68,.22,.51,.12,.95,.23,.97,.77,.03,.62-.26,1.82-.78,2.36-.18,.19-.37,.28-.57,.28l-.16-.03c-.81-.18-1.18-.26-2.05,.79-.33,.55-.42,1.12-.23,1.41,.11,.17,.3,.24,.56,.21,.76-.1,1.68-1.06,1.88-1.98,.67-.03,1.11-.59,1.52-1.91,.23-.74,.39-1.38,.08-1.79-.25-.33-.81-.48-1.69-.45l-.07-.76s2.02-1.19,2.18-1.26c.21,.45,.88,.69,1.26,.66-.26-.33-1.02-.69-1.02-.69,.5-.34,1.23-.75,1.93-1.14l.51-.28c.26,.52,.14,2.11-.07,2.81,.65-.45,.57-2.45,.4-3.04,.66-.29,1.14-.67,1.46-.92l.13-.1c0,.06,.41,6.15-3.76,9.34Zm-3.23-.46s-.35,1.88-1.82,1.65c-.07-.05-.11-.12-.12-.21-.03-.32,.35-.82,.68-1.15,.31-.31,.68-.49,.95-.47,.13,.01,.23,.07,.31,.17Zm3.93,7.7c.08-3.5-.04-7.23-.04-7.27l1.87-1.94c.75-.38,1.18-.68,1.18-.69,0,.05,.11,5.04-3.01,9.9Zm2.78-5.37l.53-4.57c.08-.04,7.91-3.85,10.2-7.65-.02,.08-2.57,8.31-10.74,12.22Zm8.22-6.05l1.19-2.6c.93-2.05,1.98-4.36,2.39-5.09,.6-1.05,4.87-5.97,4.91-6.02,.07,.1,1.8,2.5,.42,6.21-1.38,3.4-6.36,6.89-8.91,7.5Zm6.64-2.21h-.09c3.91-3.01,4.97-6.41,4.72-7.95-.77,5.39-5.74,8.06-6.59,8,2.12-1.35,3.41-2.91,4.61-5.56,1.36-3.56,0-5.41-.57-6.2l.99-1.37c.6,.33,.91,1.39,.91,2.02,.41-1.36-.71-2.35-.72-2.36,1.08-.29,2.04,0,2.79,.82,1.39,1.54,1.65,4.45,.63,7.09-2.35,5.4-5.39,5.48-6.69,5.52Zm5.09,2.02c.3-.26,1.66,.34,1.68,.34,0,0-.76,.24-.57,.99-.31-.04-1.03-1.04-1.1-1.33Zm1.29,1.41c-.08-.22,.23-.71,.48-.93,.09-.08,.17-.12,.2-.1,.01,0,1.18,.61,1.45,1.07-.58,.19-1.91,.07-2.13-.04Zm6.2-.85c-.43,.45-1.1,.55-1.25,.55,.34-.55,1.36-2.4,.11-3.39,.01,0,1.41,.55,1.48,1.83,.02,.41-.09,.75-.35,1.02Zm.31-1.89c-.28-.46-.61-.82-1.37-1.18-.28-.13-.42-.33-.39-.56,.03-.26,.27-.47,.47-.51,.58,.45,1.34,.69,1.87,.59,.2-.04,.34-.13,.42-.25-.38,.3-1.51-.03-2.21-.65,1.25-1.21,1.42-3.15,.87-3.77,.18,2.48-.86,3.41-1.54,4.03l-.17,.16c-.43,.41-.06,.83,.33,1.29,.19,.22,.39,.45,.51,.69,.26,.56-.18,1.98-.65,2.46-.12,.13-.24,.17-.34,.12,.14-.21,.61-1.25,.46-1.75-.4,1.14-.86,1.78-1.42,1.95-.58,.18-1.16-.18-1.66-.55-1.34-1.1-3.45-1.16-4.23-.95-.31-.02-.49-.25-.79-.61l-.74-.83c-.04,.38,.35,.99,1.03,1.64-1.15-.14-1.9-.98-2.1-1.48-.05-.13-.06-.23-.03-.27,4.51-.81,7.11-5.01,7.2-6.32l-.25,.44c-.42,.76-1.3,2.33-1.77,2.42,.79-1.01,1.31-1.93,1.52-2.74-.13,.16-.34,.5-.58,.89-.51,.85-1.15,1.91-1.59,2.04,3.65-5.53,1.24-8.84,1.22-8.87,6.32,3.12,6.47,4.25,6.7,5.95l.03,.25,.24,1.63c.18,1.26,.35,2.35,.37,2.75,.04,.58-.85,1.64-1.41,1.98Zm-58.72,61c-1.24,.78-2.94,2.16-2.79,2.77,2.02-2.06,3.69-3.2,3.71-3.21-.06-.05-.41,.12-.91,.43Zm-4.04,7.27c-.32,.54-1.42,2.22-2.12,2.87,.93-1.17,1.88-3.18,1.71-4,0,.03-.58,2.5-3.46,5.87-.08,.29-.13,.83-.13,.83,1.09-.84,3.58-4.2,4-5.58Zm3.5-2.58c1.73-1.36,2.37-2.82,2.37-2.83-.41,.56-.81,1.01-1.24,1.49l-1.14,1.34Zm-3.79,4.79s-1.21,1.63-1.46,2.5c.82-.82,1.45-2.48,1.46-2.5Zm4.35-6.78c-.59,.57-1.14,1.12-1.47,1.49,3.54-2.63,3.79-3.98,3.79-4-.31,.54-1.37,1.58-2.32,2.5ZM16.22,118.23c2.72-2.31,7.41-2.99,7.45-3-2.43-.11-6.3,1.69-7.25,2.65-.14,.14-.21,.26-.2,.35Zm37.47,32.18c-1.67-.16-4.03,1.5-4.87,2.67-.3,.42-.4,.76-.29,.99,1.85-1.73,5.13-3.64,5.16-3.66Zm-1.9,.67c.38-.16,.66-.22,.78-.17-.01,0-1.52,.97-3.54,2.37,.28-.74,1.8-1.78,2.76-2.2Zm-9.96,20.77s-.47,1.3-1.21,2.17c2.39-1.61,2.5-5.66,2.5-5.71,0,0-.17,.46-.33,.54,0,0,.12-.71-.21-.87,0,2.25-1.4,4.39-2,5.2,.66-.33,1.08-.9,1.25-1.33Zm-25.65-54.25c2.18-1.65,5.26-2.65,5.29-2.67-1,0-5.12,1.84-5.29,2.67Zm3.79-2.83c-1.45,.17-4.02,1.86-4.66,2.87-.12,.19-.16,.35-.13,.46,.91-1.48,4.75-3.31,4.79-3.33Zm19.32,27.53c-.28-.32-1.94-.56-2.87-.56,.41-.41,2.07-.34,2.08-.33-.33-.37-2.56-.51-3.08-.33-.49,.16-.79,.58-.79,.58l4.7,.75-.04-.11Zm19.84-38.24c-.98-.35-1.73,.03-2.53,.44l-.74,.35c-1.11,.47-3.36,.62-3.54,.62-1.52,0-2.11-.25-2.62-.47-.41-.18-.77-.33-1.53-.29-.3,.02-.53,.13-.69,.33-.56,.73-.21,2.53,.25,4.81l.4,2.14c.59,3.43,2,3.58,4.56,3.85l.9,.1c5.03-.45,5.2-1.46,5.62-3.91l.22-1.17c.86-4.14,.76-6.43-.31-6.8Zm-11.27,1.41c.05-.14,.14-.24,.26-.29,.33-.15,.88,.07,1.42,.27,.39,.15,.78,.3,1.1,.33,.86,.06,4.31,0,5.67-.58l.71-.33c.85-.4,1.28-.61,1.94-.22,0,0,.24,.38,.25,.87,.03,.94-.71,2.11-4.41,2.32-3.95,.23-6.2-.11-6.87-1.03-.26-.35-.28-.8-.07-1.34Zm-.17,2.1c0-.13,.13-.24,.29-.24s.29,.11,.29,.24-.13,.24-.29,.24-.29-.11-.29-.24Zm.58,1.75c.05-.15,.09-.28,.07-.35l-.06-.11c-.16-.24-.48-.72,.27-1.3,.14,.1,.1,.32,.05,.57-.04,.19-.08,.38-.05,.56,.28-.59,.38-.69,.69-.65,0,.02-.18,1.62-1,1.99-.15-.17-.05-.47,.03-.72Zm.66,.28c.23-.48,.46-.97,.54-1.35,.07-.02,.11-.01,.15,.02,.16,.19-.18,1.12-.46,1.69,.3-.14,.4-.44,.5-.75,.17-.5,.36-1.07,1.49-1.07h1.11c1.49,.02,2.91,.03,3.59-.14,.28-.08,.46,.08,.62,.22,.11,.1,.22,.19,.34,.19,0-.03,0-.06,0-.09,0-.19,.05-.31,.14-.35,.09-.03,.28,.03,.62,.51,.61,.86,.76,1.3,.82,1.58,0,0-.96,.17-1.34-.1-.42-.42-1.39-1.03-3.09-.31-.27,.11-.59,0-.97-.11-.35-.11-.76-.24-1.23-.24-1,0-1.41,.24-2.16,1.27-.13-.13-.23-.18-.33-.18-.19,0-.41,.2-.84,.66-.08-.29,.2-.86,.49-1.47Zm8.13,3.33c-.52,.64-1.76,.97-3.88,1.06-.08,0-1.89,.18-2.81-.7-.37-.35-.54-.82-.52-1.4,.05-.97,.38-1.67,.97-2,.6-.34,1.4-.28,2.26,.18,.02,0,.46,.1,1.27-.17,.53-.18,1.58-.28,2.29,.15,.39,.24,.62,.6,.7,1.08,.11,.74,.11,1.33-.27,1.79Zm.97,1.4c-.85,.94-2.27,1.34-4.24,1.2-4.63-.41-5.05-1.03-5.12-4.02,.05-.52,.25-.71,.41-.7,.23,0,.48,.35,.51,1.02v.28c.03,.59,.05,1.19,.54,1.63,.55,.5,1.62,.7,3.27,.6,3.42-.24,4.4-.44,4.29-3.5-.02-.28,.05-.45,.21-.48,.29-.05,.75,.39,.92,1.06,0,.02,.28,1.71-.81,2.92Zm1.46-6.66c0,.37-.2,.85-.21,.86v.31c.03,.23,.05,.45-.14,.59,.03,.6-.19,1.17-.27,1.37,0-.02-.19-1.66-1.51-2.89,.36,.1,.8,.31,1.55,1.55,.1-.69-.76-1.48-1.13-1.79,.38-.2,1.02,.47,1.34,.89,.03-.44-.68-1.2-.69-1.2,.08-.03,.22,.02,.37,.13,.17,.12,.35,.33,.35,.49-.08-.42-.1-.67-.1-.82,0-.18,.03-.21,.03-.21,.09,0,.25,.14,.35,.32,.09,.16,.12,.31,.06,.4Zm.21-2.27s.17,.55,.07,.96c-.07,.27-.24,.42-.51,.45,.08-.41,.22-.75,.31-1l.13-.41Zm-27.51,46c.18-.04,.31-.09,.35-.16-1.65-.27-3.5-1.12-4.6-1.63-.61-.28-1.01-.46-1.06-.41h0c.03,.11,1.65,1.39,3.87,1.83-.82,.16-1.82-.22-2.79-.58l-.95-.34c1.64,1.17,4.29,1.46,5.19,1.29Zm25.45-51.12l1.18-.37c.62-.21,1.11-.38,1.68-.42-.41,.24-.55,.82-.55,.82l.25-.2c.78-.64,.9-.73,4.21-1.89-.06,0-5.58,.94-6.77,2.06Zm-36.89,60.82c.18,1.01,1.37,1.73,2.33,2.17,1.87,.84,4.14,1.16,4.46,.96-4.86-1.11-6.77-3.1-6.79-3.12Zm42.9-61.82c.25-.25,1.04-.51,2.37-.79-2.52-.03-4.71,1.33-4.74,1.85,2.49-1.53,8.45-1.32,8.48-1.3-1.65-.36-4.38-.14-6.11,.24Zm-30.53,48.45c-.02-.18-.29-.55-.62-1.03-.44-.62-.99-1.39-1.25-2.09,.2,.05,.71,.74,1.25,1.46,.35,.48,.72,.97,1,1.29-.25-.9-1.94-3.06-1.96-3.08-.27,0-.58-.16-.96-.5,.21,.67,1.84,3.67,2.54,3.96Zm-6.45,12.49l-.97-1.28c-.58-.74-.99-1.27-1.53-2.34,0,.02,.07,1.69,2.5,3.62Zm-.21,4.33c-3.83-.62-4.78-1.49-4.79-1.5,.75,1.12,4.28,1.75,4.79,1.5Zm-.25,7.91s-2.03-2.58-2.75-2.66c-.12,.33-.37,.58-.38,.58,.69,1.02,2.49,3.03,2.66,3.12-.12-.62-2.31-3.02-2.33-3.04,.51,.38,1.27,1.19,1.89,1.84,.39,.42,.74,.78,.9,.91-.33-.78-2.24-2.54-2.66-2.79,.42,.03,1.53,1.03,2.2,1.63l.47,.41Z"/><path class="cls-3" d="M24.68,109.93l-1.98,2.95c3.29,3.29,4.02,2.03,4.55,11.33,1.94,.82,4.11,2.81,4.11,2.81-.44-2.81-1.36-7.89-3.53-10.84-.63-1.5,0-2.23,.1-3,.1-.77-3.24-3.24-3.24-3.24Z"/><path class="cls-9" d="M32.78,163.24c-.11-.14-4.75,.65-3.53,2.28,1.22,1.63,5.43,5.43,6.89,6.01,1.46,.58,3.46,1.43,3.91,.54s1.46-3.36,1.09-3.94c0,0-7.17-3.36-8.36-4.89Z"/></svg>