<?xml version="1.0" encoding="UTF-8"?><svg id="Capa_1" xmlns="http://www.w3.org/2000/svg" viewBox="0 0 122.62 195.07"><defs><style>.cls-1{fill:#f6b399;}.cls-2{fill:#f6b9b9;}.cls-3{fill:#e63d11;}.cls-4{fill:#fff;}.cls-5{fill:#fff381;}.cls-6{fill:#fce4d8;}.cls-7{fill:#812b45;}.cls-8{fill:#a0937c;}.cls-9{fill:#924216;}.cls-10{fill:#922415;}.cls-11{fill:#332c51;}.cls-12{fill:#cea408;}.cls-13{fill:#aca8a7;}.cls-14{fill:#be7152;}.cls-15{fill:#c0b253;}.cls-16{fill:#ddcf60;}.cls-17{fill:#d5738b;}.cls-18{fill:#d8cfbd;}.cls-19{fill:#201940;}.cls-20{fill:#433e3c;}.cls-21{fill:#12100b;}.cls-22{fill:#0f0500;}.cls-23{fill:#5c2410;}.cls-24{fill:#2a398d;}.cls-25{fill:#5b1f12;}</style></defs><g><path class="cls-5" d="M109.77,77.41s1.72,4.63,2.39,7.87c.67,3.24,1.22,8.12,.94,11.25-.08,3.24-.22,8.14-.76,11.1-.54,2.96-2.46,10.19-2.88,10.67-.31-.35-2.03,6.99-2.32,7.76s3.44,1.92,5.18,4.24c1.12,2.57,1.5,5.23,1,6.56s.77,5.04,1.55,5.73c.78,.69,5.54,7.24,4.54,9.95s-5.73,14.17-7.42,16.46c-1.69,2.29-5.21,6.73-6.77,5.99-1.56-.74-8.26-1.74-11.59-3.62-3.34-1.88-10.29-3.81-12.57-3.14-2.28,.67-8.09,9.54-11.49,9.35-3.4-.18-9.11-.3-10.62-1.5-1.51-1.2-8.85-7.67-10.88-9.3-2.03-1.63-7.03,7.77-10.49,7.09-3.46-.68-5.46,1.35-9.99-.83-4.53-2.19-13.73-7.19-16.45-8.76-2.72-1.58-7-4.25-7.52-5.58-.52-1.34-4.17-7.77-3.38-13.33,.79-5.55,3.17-10.26,8.09-13.78,.19,2.74,2.84-1.5,2.84-1.5,0,0,1.35-4.23,2.39-5.19,.03-1.33-.15-4.26-.15-4.26,0,0-2.88-2.85-.66-7.81,2.55-4.65,6.92-8.55,10.36-9.44,3.44-.88,7.26-1.25,8.8-.61,.3-1.16,1.05-2.66,2.8-3.28,.96,1.69-.69,3.15,5.41,6.12-.53,.77-.78,3.48-.74,4.6,.03,1.12,.38,2.17,.8,3.29-.53,.78-1.98,1.44-2.47,1.9-.49,.46-1.54,4.89-1.7,4.96-.16,.07-3.24,1.85-2.65,8.49-.79,1.1-1.47,2.25-1.47,2.25l-.23,2.33-3.12,4.31,.68,1.59s4.08,1.32,4.66,2.17c.31,1.57-.05,2.71-.05,2.71,0,0,3.74,.76,4.03,.74,.29-.03,5.83-1.97,6.73-2.02,1.03-.38,8.44-3.74,8.44-3.74l2.26-4.56s1.06-1.39,1.35-2.74c1.28-.92,3.9-3.19,5.05-4.93s3.13-5.66,3.59-7.96c.17-2.02,.38-2.71,.38-2.71l.91-.3s4.17,2.13,6.55,1.61c.02,.71-.72,1.52-.65,2.59-.24,.89-.6,1.71-.6,1.71,0,0-1.16,4.51-.79,4.54,.37,.03,6.88-.65,12.4,5.76,.86-.21,3.2-3.09,7.38-2.56-.63-1.57,.21-2.78,.21-2.78,0,0,.6-2.83,.66-2.99s1.28-1.75,1.53-2.93c.68-.64,2.25-1.96,3.01-3.14,.76-1.18,1.98-4.2,1.73-6.33-.48-1.33,2.04-5.23,2.04-5.23l1.14-2.05s.52-.38,2.27-.3c.67-1.28,2.13-5.94,6.95-9.78-1.14-.59-6.8-.08-10.84,2.43,1.59-4.62,2.32-6.95,2.32-6.95l1.31-1.99s2.59-.12,3.58-1.79c1-1.66,2.8-6.8,2.96-8.38"/><path class="cls-5" d="M103.18,65.02s4.97,7.55,5.56,9.59c-1.38,1.54-3.5,4.47-6.15,5.81-1.48-1.51-1.99-4.65-2.1-4.89-.11-.24-3-8.38-3.69-8.99-.4-.75,.01-.68,.01-.68,0,0,4.4-1.2,6.38-.83Z"/><path class="cls-16" d="M.2,148.2s3.15,10.8,8.94,13.99c.76,3.12-1.02,2.28-1.02,2.28,0,0-2.7,.35-7.16-10.89-.81-3.35-.81-5.1-.75-5.38Z"/><path class="cls-16" d="M108.59,166.34s3.38,6.06,2.02,10.03c-1.05,2.67-1.79,3.65-3.59,4.68-1.8,1.03-8.71,2.73-10.22,3.26-1.51,.53-4.74,3.65-6.88,4.55-2.14,.9-7.26-.45-10.03,.82-2.76,1.27-9.17,2.5-11.68,1.46-2.51-1.04-9.84-1.02-12.84-1.48-3-.46-11.36-3.55-15.4-9.75-1.92-1.15-1.67-1.38-2.72-.9-1.05,.48-9.93,.85-14.54-.86s-7.89-2.6-11.19-7.97c-3.31-5.38-4.63-10.95-4.23-15.28,.92,1.49,6.33,7.1,7.59,8.11,1.58,.15,11.13-.41,22.47,9.53-1.07-2.42-4.58-8.85,.73-14.8,4.88-4.04,9.87-6.45,14.17-4.47,4.3,1.97,5.75,5.13,6.52,5.86,.86-.55,8.09-5.47,12.23,3.55-2.54-.67-4.74-1.81-7.69,.7-2.95,2.51-3.06,7.82,2.38,10.39,4.63,1.5,9.33-1.29,11.13-3.8,1.8-2.5,3.18-5.49,2.81-8.9,.17-.76,7.09-8.51,16.32-.12,.86-.12,2.04-.5,2.69-.48,0,0-3.79,1.54-3.94,3.4,0,0,.06,4.12,6.73,6.59,5.02,1.64,7.76-.3,7.16-4.12"/><path class="cls-5" d="M12.52,23.62s1.88-1.55,4.46-1.55c2.33-.18,19.51,.54,26.1,3.98,.04,1.96-.25,3.61-.25,3.61l-15.94-4.32-12.24-1.37-2.13-.34Z"/><path class="cls-4" d="M36.78,133.82s-.48-1.36-.72-1.69c-.43,.17-3.23,3.33-3.54,5.37,1-.16,2.58-.35,2.58-.35l1.68-3.33"/><path class="cls-9" d="M9.36,54.72s1.92-1.54,3.85-1.27c.99,0,1.23-.07,1.23-.07,0,0,5.36-.43,8.49,.59,1.2,.47,1.23,.68,1.23,.68,0,0,1.05,.96,1.36,1.01-.2,.23-1.24,1.34-1.39,2.94-.48,.18-1.27,1.07-2.22,.72s-7.65-.36-8.76-.55c-1.11-.19-4.31-.75-4.5-1.06-.19-.32-.43,.06-.44-.74,0-.8,1.13-2.25,1.13-2.25Z"/><path class="cls-18" d="M47.29,65.97s.55-.41,.71-.32c.15,.09,.93,1.8,.54,2.95-.28,.66-.71,.75-1.08,.83-.37,.08-.41-.15-.29-.48s.12-2.98,.12-2.98Z"/><path class="cls-18" d="M60.51,76.51s1.15,.89,3.39,1.5c.04,.81,.07,1.14,.4,1.66,.33,.52,1.95,5.22,3.47,7.17,1.51,1.91,2.74,2.99,2.74,2.99,0,0,.19-.9,.61-2.15,.42-1.25,.53-2.36,2.09-2.31,1.02,.41,.76,.87,.74,.98-.01,.12-1.34,2.95-1.38,3.4,.04,.48,.7,.78,.89,1.01,.19,.23,.4,.42,.4,.42,0,0,.59,.06,1.97-.75,1.36-.85,1.6-1.27,1.87-1.56,.27-.28,1.03-.61,1.33,0,.3,.6,.12,1.18,.04,1.4s-1.62,1.37-2.33,1.54c-.71,.17-2.95,1.31-3.41,1.14l-1.49-.55s-1.52-.24-1.71-.3c-.19-.06-3.64-3.47-4.91-5.69-1.27-2.23-2.14-4.52-2.46-5.25-.34-.74-2.12-3.99-2.25-4.65Z"/><path class="cls-3" d="M77.36,100.23s6.37-.22,8.37,.42c.07-.25-3.22-3.02-5.86-3.67-1.21,.55-1.73,1.16-1.73,1.16l-.78,2.09Z"/><path class="cls-21" d="M56.77,95.99s3.29,1.37,4.33,1.65c1.04,.28,4.47,2,11.58-.37,2.61-.94,2.76-1.23,2.76-1.23,0,0,1.64-.89,2.13-1.97,.34-.02,.44-.13,.44-.13,0,0-.5,1.68-.78,2.09,.37-.06,.94-.47,1.08-.64,.14-.17,1.55-1.15,2.47-1.91,.92-.76,4.83-4.19,5.49-4.73,.66-.54,6.59-3.55,8.68-4.04,2.09-.49,7.22-1.81,8.56-1.79,1.33,.02,3.93-.83,4.16-.84,.23-.01,.47,.62,.21,1.32s-1.18,3.06-2.59,3.71c-1.43,.64-4.65,.51-6.87,.93-2.21,.42-4.26,1.57-6.43,2.43-2.18,.86-5.97,3.12-7.21,3.78-1.24,.66-6.23,3.18-7.54,3.96-.45,.4-1.06,1.57-1.06,1.57l-.24,.51,.32,.67,9.67,1.75,5.2,.29,7.54-.8,4.43-1.04,1.42,.58s-.82,1.95-.72,2.29c-.4,0-2.97-.08-5.44,.47-2.46,.55-4.34,.8-5.99,1.23-1.65,.43-3.44,.98-6.53-.14-2.86-1.13-5.67-2.3-7.91-2.91,0,0-1.6-.49-2.25-.44-.64,.06-2.53,.6-3.1-.68-.49-1.3-.46-1.51-.46-1.51,0,0-2.19,.35-3.84,.59-1.64,.21-6.87-.49-9.46-1.27-2.59-.78-3.37-1.3-3.37-1.3,0,0,1.32-1.42,1.28-2.05Z"/><path class="cls-24" d="M84.33,83.41s1.03-3.54,2.42-5.25c1.15-1.08,1.37-.33,1.3-.13s.2,.21,.6,.33c.4,.12,2.35,.65,2.54,.66,.19,.01,1.24-.12,1.24-.04,0,.08-.29,.7-.34,.85s-1.72,3.98-2.04,4.39c-.32,.41-1.74,1.25-2.09,1.2-.34-.04-2.08-.08-2.33-.17s-1.21-1.23-1.23-1.34c-.01-.12-.07-.5-.07-.5"/><path class="cls-24" d="M34.26,92.29s-.11-2.34,.55-3.89c.65-1.55,3.33-5.4,7.49-6.23,4.16-.72,6.88,1.11,7,1.42,.12,.32,.73,2.03-1.35,2.27-1.78-.35-5.22-.33-8.65,2.61-2.97,2.64-3.82,5.37-3.91,5.49-.09,.12-.88-1.3-1.14-1.67Z"/><path class="cls-6" d="M91.88,80.52l.68,.64s2.06,.27,2.56,.59c.5,.32,1.46,.74,1.87,.5,.42-.24,.84-.34,.96-.3s.7,.39,.7,.39c0,0,2.72-.92,2.84-1.33,.12-.41,.63-2.84-3.34-2.97-.59-.87-1.44-1.84-3.24-1.4-1.62,.58-2.33,2.04-2.44,2.26-.11,.22-.6,1.61-.6,1.61Z"/><path class="cls-6" d="M82.62,83.56s1.84-.99,2.07-1.52c.23-.53,1.36-3.15,1.98-3.94-.3-.17-1.37-.44-1.37-.44,0,0-1.85,4.28-2.23,4.6-.35,.59-.35,1.11-.45,1.3Z"/><path class="cls-6" d="M34.77,95.98s.82-3.7,3.45-6.58c2.63-2.89,7.06-4.28,9.81-3.53,2.2,1.51,2.99,3.45,2.99,3.45,0,0,1.46,2.38,1.39,3.69-.07,1.31-2.06,3.33-2.72,3.5-.75,.41-3.47,4.41-4.45,4.69-1.2,.89-2.98,2.94-3.57,3.05-.72,.47-1.68,1.46-2.03,1.27-.35-.19-6.38-2.13-4.88-9.53Z"/><path class="cls-6" d="M53.43,60.68s2.17,.71,2.55,.57c-.36-.7-1.69-2.77-1.94-3.25-.25-.47,0-4.1,.37-5.11,.1,.37,1.68,2.91,2.55,3.14,0,0,.92,.86,.72,.36-.19-.5-1.31-3.68-1.29-4.24,.02-.56,.82-.93,.82-.93l.86-3.87s2.15,6.42,4.77,8.2c.19-.88-.16-2.76,.04-4.74,.42-.23,.9,1.56,.9,1.56,0,0,2.91-5.78,4.03-7.42,1.37-1.5,2.37-1.65,2.63-1.31,.23,.42,.15,6.68,2.75,9.41,.13-1.9,.49-4.01,.83-4.55,.34-.54,1,0,1.05,.39,.04,.4,.62,3.61,.62,3.61,0,0,2.86-7.09,4.12-7.77,1.25-.68,2.12-1.36,2.2-.66,.08,.7-.15,8.76-2,12.22,1.11,.08,5.73,2.41,2.77,9.37,.57,3.6-.21,7.64-2.11,9.42l-.7,1.88c-.19,.5-5.06,7.37-7.24,7.85-1.62-1.03-8.02-6.12-8.53-6.55-.67-.39-2.09-.92-3.55-1.6-1.51-.8-3.01-3.24-3.33-4.01-.64,.06-1.7,.1-1.7,.1,0,0,1.13,3.52,.23,5.95s-5.96,4.89-6.34,4.75-1.25-.61-1.25-.61c0,0-3.88-2.25-9.01,.52-2.97,2.23-4.42,4.08-5.05,7.85-.3-1.11,.2-6.07,.82-7.75s2.17-4.96,5.07-6.99c.46-1.64,2.82-3.62,5.3-5.18,2.39-1.31,5.96-1.41,5.96-1.41,0,0-2.02-3.18-2.1-6.02-.07-2.89,.92-3.9,2.06-4.53,.93,.2,1.09-.36,2.12,1.36Z"/><path class="cls-21" d="M49.36,64.98s-4.74,1.25-7.94,6.26c-.45-1.04-1.25-2.78-.32-8.64,.78-4.17,3.01-6.64,5.89-9.13,0,0-3.96-3.79-11.7-.82-2.26,1.19-3.5,2.11-3.5,2.11,0,0,.96-3.38,3.62-6.93,2.7-3.57,7.84-6.48,12.15-5.87-1.03-1.32-3.44-5.77-3.83-8.05-.62-2.15-1-5.41-.65-8.8,.35-3.39,1.2-8.62,5.37-14.29,3.73-4.49,5.63-5.6,5.63-5.6,0,0-2.69,5.1-1.19,12.79,1.5,5.92,3.33,9.03,3.33,9.03,0,0,.14-3.21,3.37-9.08,2.99-5.24,6.6-8.03,9.28-10.56,2.8-2.37,9.23-5.53,13.23-6.34,3.92-.9,3.83-.65,3.83-.65,0,0-2.4,2.85-3.95,5.46-1.55,2.62-3.68,7.59-4.38,11.14-.57,3.09-.98,5.69-.74,7.19,.64-1.03,3.74-4.02,7.54-6.56,3.81-2.54,12.38-6.9,19.34-5.41-1.25,.92-3.83,2.42-6.47,4.85-2.64,2.43-7.29,8.72-8.71,13.63-.63,2.19-.8,2.76-.8,2.76,0,0,5.97,1.98,6.65,10.21,1.84-.55,6.4-2.01,9.17-4.21,2.77-2.2,4.27-3.89,4.66-4.76,.13,.63,.05,1.32-.54,2.92-.5,1.63-1.64,5.7-4.24,8.61-2.29,2.45-3.6,3.74-3.6,3.74,0,0,4.77-1.13,11.82-.4,6.96,1.17,8.53,3.49,9.66,4.05-1.08,.18-3.21,.04-4.97,.11-1.77,.07-7.75,1.15-10.64,2.4-2.89,1.25-8.33,4.49-9.85,6.14,1.15,.03,7.38,.92,9.2,2.76-.93,.16-3.66-.31-5.58,.18-1.92,.48-6.21,1.4-7.52,2.69,.52,.16,5.58,.98,5.69,2.07-.75-.02-2.98-.56-9.16,.56,1.1-1.11,1.35-1.78,1.35-1.78,0,0,2.94-4.71,1.82-8.72-1.58-2-2.56-1.42-3.44-.59-.94,1.07-1.08,1.45-1.08,1.45l.72-2.23s-2.21,.49-2.42,.37c.93-1.03,3.44-4.67,3.05-7.35-.47,.3-3.97,3.1-5.68,3.3,1.19-1.73,3.04-3.99,3.02-8.45-.39-2.97-3.23-7.14-4.88-7.76-1.23,1.17-3.43,3.3-4.98,5.8-1.55,2.51-2.5,5.56-2.68,8.79-.47-.68-3.8-5.79-2.43-11.92,.77-2.76,.83-2.92,.83-2.92,0,0-1.3,.28-4.4,3.55-2.61,3.31-3.48,5.38-3.97,7.3-.49,1.92-.52,5.43-.32,6.15-.29,.11-3.46-2.59-4.63-7.95-.6-3.96-.88-4.5-.88-4.5,0,0-1.97,3.96-1.03,8.76,.44,2.63,1.14,4.27,1.71,4.98,.11,.19-2.69-1.14-4.94-5.75-.23,.53-1.01,4.77,2.8,10.25-.76,0-2.08-.55-2.49-.63-.4-.48-1.3-2.66-3.16-.77-1.21,1.69-1.44,2.91-1,5.03Z"/><path class="cls-20" d="M42.52,67.89c-1.18-5.5,3.07-13.12,3.07-13.12-1.36,1.06-2.38,2.06-3.98,6.26-1.68,5.03-.55,9.04-.16,10.24,1.05-2.46,5.24-5.19,5.24-5.19,0,0-2.42,.81-4.17,1.81Zm57.41-18s3.42-3.15,5.28-6.55c1.86-3.4,3.13-7.81,3.01-8.13-.49,.69-4.63,6.29-13.99,8.57-.18-2.13-.86-8.09-6.61-10.09,.63-2.43,2.82-7.74,4.41-10.28,1.59-2.54,6.44-8.7,11.75-11.1,0,0-7.93-2.06-19.04,4.95-6.39,4.58-7.71,6.53-8.08,7.54,.13-1.33,.34-6.63,1.88-11.4,1.53-4.63,4.83-10.91,7.61-13.09,0,0-6.99,.12-15.48,5.76-7.99,5.41-9.86,9.73-11.16,12.24-1.3,2.51-3.43,7.65-3.36,8.69-.58-.31-3.36-7.18-3.86-13.3,.22-5.67,1.34-7.97,1.34-7.97,0,0-5.66,4.48-7.51,8.35-1.85,3.87-4.26,11.12-2.98,16.97,1.28,5.86,2.77,8.16,4.48,10.86-1.4-.06-5.78,.07-9.59,3.3-3.82,3.23-6.13,8.35-6.28,9.49,1.63-.92,7.08-5.34,14.77-1.75,0,0-2.7-4.63-10.36-2.46,.31-1.95,5.6-7.17,12.65-7.82-1.65-4.11-4.34-8.28-3.96-14.99,.37-6.72,2.55-11.34,4.24-13.79,.34,2.56,2.59,12,7.44,17.89,.84-2.4,4.48-13.7,11.18-19.87,6.7-6.17,10.93-7.77,11.53-7.78-.28,1-5.76,10.7-3.72,24.43,1.6-1.84,9.94-12.55,21.8-14.37-1.66,1.5-11.42,8.97-11.84,23.26,0,0,1.38-2.11,1.67-2.28,.29-.17,4.76,1.17,5.91,9.87,2.21,.13,8.83-2.85,12.56-5.97,.39,1.43-5.75,9.69-8.5,11.76,2.24-.59,2.79-.94,2.79-.94Zm-48.95,2.74c-1.25,3.49,.51,6.45,.51,6.45l.62-.18,1.67,1.21c-2.63-1.85-2.8-7.48-2.8-7.48Zm4.82,2.39s-.17-.24-.43-.61c.13,.24,.27,.45,.43,.61Zm-1.47-7.08c-.18,.12-1.28,2.33-1.18,2.92,.08,.44,1.49,2.51,2.22,3.55-1.03-1.98-1.04-6.47-1.04-6.47Zm7.85-11.63c-1.24,.37-3.95,4.56-4.53,6.51-.24,3.27,2.46,10.62,3.97,11.27-3.45-7.95,.56-17.78,.56-17.78Zm16.17-3.53s-5.62,2.88-6.59,5.24c-.97,2.36-2.36,9.98,1.38,15.28,0,0-3.88-11.74,5.21-20.52Zm4.99,22.04c.49-.09,4.82-2.45,5.86-3.53,1.07-2.27,.39-6.02,.39-6.02-.55,5.32-5.33,8.29-6.25,9.55Zm30.42-2.89c-2.03,.4-9.53,2.86-14.48,7.28,1.6-.6,10.77-6.59,21.75-5.69-1.79-2.5-12.92-5.85-20.73-3.27,0,0,12.14-.1,13.46,1.68Zm-18.36,10.95s6.14,1.54,6.61,2.03c.89-.04,2.6,.05,2.6,.05,0,0-4.27-3.24-9.21-2.08Zm-3.44,5.07s3.84,1.42,4.26,1.67c.42,.25,.88,.1,.88,.1,0,0-.75-.97-5.14-1.77Z"/><path class="cls-1" d="M54.47,58.26s-.12-3.8,.18-4.48c-.2-.67-1.64-2.78-1.64-2.78,0,0-.36,3.77,1.46,7.26Z"/><path class="cls-1" d="M56.87,53.91s.97-5.42,1.42-6.49c-.16-1.69-.86-4.47-.86-4.47,0,0-2.38,5.09-.55,10.96Z"/><path class="cls-1" d="M62.91,50.81l1.06,2.47s3.14-8.61,6.5-9.4c.71-2.31,0,0,0,0,0,0,.64-4.7,1.2-5.33-.7-.02-4.24,2.87-6.87,7.03-1.97,3.71-1.89,5.23-1.89,5.23Z"/><path class="cls-1" d="M74.23,47.99s-.36,3.77,1.62,5.88c.94-2.81,3.1-9.57,5.74-9.48,.63,.83-.64,7.72-2.25,12.2,1.18,.29,3.47,1.43,3.81,3.98,.38,2.56-1.24,4.28-2.64,5.25,.91,.48,2.03,1.45,1.58,2.81,.2,1.31-.06,3.88-1.52,5.17-.86,1.11-2.14,3.5-2.14,3.5,0,0,4.64-2.85,5.42-3.66,.39-.7,.49-.96,.49-.96,0,0,2.38-.55,4.61-2.84,1.22-1.57,3.1-4.09,3.09-7.55-.22-2.75-1.1-3.96-2.77-3.45-1.5,.58-1.59,1.09-1.59,1.09l.04-1.23-2.29,.35s2.86-3.68,3.1-6.21c.33-1.7,.08-1.4,.08-1.4,0,0-4.12,3.51-5.61,3.55,.85-1.22,1.71-3.02,2.16-4.24s2.34-7.27-4.15-11.88c-2.73,1.78-5.47,5.7-6.78,9.11Z"/><path class="cls-1" d="M52.93,60l-.56,1.52s-.74-.13-.89,.66c-.14,.79-.98,3.98,1.87,6.67,1,1.56,1.46,1.53,1.85,1.67s1.48,.26,1.48,.26c0,0-.77,1.76-1.02,1.84-.25,.08,.9,4.24-1.21,6.32-1.73,.79-1.75,.73-2.68,.29,.43,.7,.36,.63,.36,.63,0,0-3.66,.67-3.61,3.21,1.46,.99,1.95,.72,4.52,4.19l.31-.58s1.74-1.23,2.85-3.04c1.12-1.81,3.61-4.69-.2-10.64-.1-.13,.08-.36,.08-.36h1.23s-1-3.03-1-3.03c0,0-1.14-2.43-1.23-4.45-.31-1.41-1.76-4.81-2.18-5.16Z"/><path class="cls-1" d="M64.22,78.06s5.64,1.84,7.29,1.66c1.65-.18,4.86-1.11,7.96-3.08,.72,.07,.5,.24,.36,.48-.14,.24-2.65,4.5-3.63,4.88-.93,.25-3.32-.24-4.91-.73-1.59-.49-4.24-1.08-4.81-1.29-.64-.28-2.25-1.92-2.25-1.92"/><path class="cls-1" d="M82.66,83.01s1.01-.31,1.06-.44,.94-.93,1.04-.78c.03,.31-.41,1.58-.44,2.79-.03,1.21,.33,3.05,.35,3.24,.02,.19-1.77-.15-1.77-.15,0,0,0-1.88-.73-2.78,.12-.73,.49-1.88,.49-1.88Z"/><path class="cls-1" d="M90.89,85.79s7-3.17,7.67-3.37c-.31-.2-.89-.51-.89-.51,0,0-1.01,.37-1.16,.32s-.71-3.49-.95-4.12c-.43-.13-2.39,.73-2.74,2.72-.55-.44-.84-.55-.84-.55,0,0-1.54,3.1-1.09,5.51"/><path class="cls-1" d="M93.41,89.8s4.23-2.05,5.66-1.81c-.12,.49-1.21,1.25-1.45,1.49-.24,.24-1.42,2.46-4.21,.32"/><path class="cls-1" d="M46.94,85.6s2.4,3.79,2.69,4.35c.42,.49,1.69,1.04,1.93,1.32,.24,.28,1.36,3.56-2.25,4.44-.3-.41-1.79-1.79-1.79-1.79,0,0,.86,2.66,.9,3.16-.14,.48-1.38,1.18-1.59,1.75s-1.36,2.14-2.19,1.83c-.84-.38-1.7-1.31-1.7-1.31,0,0,.4,1.77,.76,2.32-.31,.34-1.65,2.22-1.85,2.14s-1.24-.61-1.24-.61c0,0,.73,1.59-1.31,2.12,1.26,.58,3.25,.9,5.38-.57,1.32-.42,2.39-1.11,3.04-2.87,.68-.35,1.48-.47,1.48-.47,0,0,.59,.86,1.71,.97,.82-.38,1.23-.56,1.53-.87,.3-.3,3.1-3.38,3.49-3.91,.39-.53,1.85-1.84,.35-4.81-1.32-1.92-2.31-1.8-2.31-1.8,0,0-.9-1.43-1.11-2.41-.73-.68-2.87-2.84-5.91-2.98Z"/><path class="cls-1" d="M43.28,94.16s1.04-1.88,.97-2.2c-.07-.33-1.42-.75-1.81-.82,.2,.57,.14,1.26,.84,3.03Z"/><path class="cls-14" d="M89.04,63.94s1.07-1.26,1.15-1.74c.08-.48-.61-2.07-1.62-1.11-1,.96-.1,2.5,.46,2.84Z"/><path class="cls-14" d="M86.75,63.92s-1.23,4.43-1.44,4.99-.21,1.44-.21,1.44c0,0,1.68-.44,2.42-2.42s.49-3.55-.77-4.02Z"/><path class="cls-14" d="M54.82,93.9s-1.04,3.07-3.51,3.63c.32,.51,1.32,.54,1.75,.37,.43-.16,1.84-1.48,2.11-2.58,.19-.76-.28-1.12-.35-1.42Z"/><path class="cls-14" d="M50.53,96.91s.17,3.65-2.86,4.74c.7-.02,3.08-.61,4.23-2.85,.54-.95,.1-.88,.1-.88l-1.47-1.02Z"/><path class="cls-14" d="M46.32,101.43s-1.21,2.77-2.94,2.96c-.5,.73-.72,1.44-.72,1.44,0,0,1.64-.82,1.99-1.01,.43-.16,2.44-1.12,3.16-2.93-.14-.37-1.3-.48-1.49-.46Z"/><path class="cls-4" d="M68.66,64.29c-.98,2.64-3.77,4.03-6.24,3.11s-3.68-3.79-2.7-6.43,3.77-4.03,6.24-3.11,3.68,3.79,2.7,6.43Z"/><path class="cls-4" d="M82.74,63.25c-.98,2.65-3.81,4.04-6.31,3.11s-3.74-3.83-2.76-6.47,3.81-4.04,6.31-3.11,3.74,3.83,2.76,6.47Z"/><path class="cls-4" d="M62.63,71.88s1.59,.19,2.1,.38c.54,.2,1.9,.16,2.18,.19,.28,.03,6,.16,10.12-.92,1.11-.06,1.58-.25,1.58-.25,0,0,1.48-.28,2.1-.67,.61-.39,1.17-.8,1.3-1.15s.06-1.82-1.22-1.5c-1.28,.32-6.33,1.64-8.2,1.6,0,0-3.84,.68-5.3,.43-1.5-.26-2.44,.04-4.23-.23-1.79,.13-2.11,1.1-2.09,1.54,.45,.35,1.26,.61,1.67,.58Z"/><path class="cls-4" d="M62.04,73.58s.97,2.06,3.98,2.85c3,.79,6.82,.06,10.8-.81,3.27-1.21,4.17-2.07,4.83-3.64-.45-.93-.43-1.39-.64-1.4-.3,.03-1.33,.45-1.81,.78-.2,.43-.31,1.04-.31,1.04,0,0-.66,1.38-2.7,1.82-2.05,.44-5.93,.66-7.28,.78-1.45,.11-3.41,.29-3.95-1.75-.1-.8-.02-.84-.62-1.06s-1.65-.32-1.87-.04c-.21,.28-.42,1.44-.42,1.44Z"/><path class="cls-17" d="M64.95,72.27s4.53,.97,10.8-.46c2.67-.43,3.32-.54,3.32-.54,0,0,.08,.35-.14,.94s-1.13,1.99-3.56,2.15c-2.4,.35-7.17,.71-7.29,.74-.12,.03-3.48,.02-3.13-2.83Z"/><path class="cls-7" d="M61.02,71.43s.92,.51,1.46,.37c.04,.36-.36,1.67-.46,1.63s-1.04-1.44-1-2Z"/><path class="cls-7" d="M80.89,70.54s.91-.98,1.16-1.11c.14,.31,.14,.94,0,1.37-.13,.44-.31,1.06-.4,.94-.1-.12-.57-1.27-.76-1.19Z"/><path class="cls-11" d="M34.8,91.3s.71,1.62,1.03,1.73l-.88,1.94s-.67-1.4-.52-2.14c.15-.74,.37-1.53,.37-1.53Z"/><path class="cls-11" d="M48.14,82.79s1.15,1.3,1.05,1.66c-.09,.36-1.17,1.23-1.76,1.22,.39,.23,2.97,.15,5.52,3.24,.43,.24,.41,.07,.38-.18,0,0-.25-1.52-.53-1.93-.28-.4-1.6-2.55-4.66-4.02Z"/><path class="cls-11" d="M84.64,82.18s.32,1.55,.33,1.78c.03,.17,.78-2.01,.93-2.17,.17-.13,.78,1.34,.93,1.46,.15,.12,2.89,.98,3.15,.44,.26-.54,1.03-3.54,2.25-4.36,0,0-1.6,3.9-1.34,6.29-.28,.41-2.67,1.69-2.99,2.05-.32,.36-1.55,1.08-1.55,1.08,0,0-.27-.29-.46-.23-.18,.06-.54,.44-.68,.29-.14-.15-1.6-2.63-.57-6.62Z"/><path class="cls-3" d="M55.75,72.74s1.28-.08,1.51-.1c.27,.17,.82,2.44,3.29,3.94,.31,.85,1.81,4.16,2.5,5.16,.56,1.16,.81,2.58,1.56,3.74,.71,1.26,3.91,5.53,5.3,6.45,.58,.73,.82,1.15,.98,1.21s0,0,0,0c0,0,4.29,.93,6.74,.77,0,0-.9,1.95-3.97,2.87-2.49,.95-4.47,1.54-6.41,1.6-1.93,.05-3.64,.6-10.4-2.31-.08-1.76-.12-4.35-2.9-5.08-.85-1.17-.88-1.69-.85-1.86,.07-.19,.28-1.08-.05-1.86,.23-.44,.23-.61,.23-.61,0,0,1.33-.61,2.61-2.57,1.28-1.96,2.44-4.21,2.08-6.92-.6-1.77-2.22-4.43-2.22-4.43"/><path class="cls-3" d="M63.81,78.01l8.9,6.65s2.74-1.23,4.73-4.13c1.94-2.74,2.64-3.95,2.64-3.95,0,0,.42-.73,1.48-1.22,1.09-.66,2.09-1.58,2.31-1.97,.22-.4,.36-.79,.36-.79l1.73-.5s-.14,2.67-.3,3.38c-.16,.72-1.16,4.72-2.53,6.53-.58,1.48-.92,2.79-.92,2.79,0,0-.3,.11-.58-.22-.28-.33-3.17-2.76-5.03,.16-1.85,2.92-2.29,4.6-1.54,5.65-.09,.74-.88,.89-1.04,.83-.12-.08-1.22-1.06-1.41-1.15-.2-.09,0-.59,.21-.95,.21-.36,1.5-2.86,.92-3.38-.58-.51-1.73-.6-2.21,.69s-.91,2.86-.93,3.41c-.33-.31-3.28-3.27-4.15-5.29-.87-2.02-2.67-5.7-2.65-5.95,.02-.25,0-.59,0-.59"/><path class="cls-3" d="M55.39,98.14s6.18,2.69,10.86,2.48c4.12-.09,5.73-.56,5.73-.56,0,0,.16-.24,.42,1.15,.45,.98,1.14,1.49,2.33,1.16,1.19-.33,1.87-.19,3.86,.4,1.99,.59,7.58,3.07,9.66,3.43,1.92,.09,4.47-.55,4.76-.63,.43,.12,4.16,2.46,4.84,5.51,.67,3.05-1.13,6.32-2.27,7.81-1.48,1.4-4.95,2.54-6.07,2.57-1.11,.03-5.8-1.82-7.16-2.03-1.36-.21-6.83-2.02-8.03-2.46s-7.11-3.55-7.8-4.18c-.69-.62-.1,3.35-2.56,7.11-2.46,3.76-5.14,5.12-6.93,5.09-1.79-.04-8.88,3.7-10.65,4.41-1.77,.71-8.89,2.55-9.77,2.23s-2.21-1.3-2.89-2.14c-.68-.84-.89-4.34,.36-6.82,1.25-2.48,1.24-1.97,2.17-2.47,.92-.5,2.24-.39,3.11-1.94,.53-.72,.59-.81,.59-.81,0,0-.71-.96-.44-1.49,.27-.53,.7-.99,.7-.99l.1-1.47s-1.19-1.76-.95-3.3c.17-1.56,.14-3.85,.63-4.59,.77,.1,2.37,.84,4.89-.98,1.33-.5,2.25-.9,2.82-2.85,.35-.24,1.18-.52,1.48-.37,.32,.19,1.11,1.84,2.71,.49,1.23-.94,3.49-3.75,3.49-3.75Z"/><path class="cls-3" d="M46.56,70.72s1.13-1.92,3.93-2.34c.63,.89,.75,1.59,.75,1.59,0,0-2.64,.05-4.68,.75"/><path class="cls-3" d="M43.18,68.72l2.88,1.44s1.03-2.15,.55-3.87c-.82,.31-2.83,1.81-3.43,2.43Z"/><path class="cls-3" d="M39.62,62.01s1.1-.44,1.66-.32c-.13,.61-.35,1.32-.35,1.32l-1.31-1"/><path class="cls-3" d="M30.22,60.96l10.53,6.62s-.2-2.88,.25-4.08c-.59-.55-9.79-6.2-9.79-6.2,0,0,.34,2.75-.98,3.66Z"/><path class="cls-3" d="M29.83,55.57s-2.34-1.52-4.3,.09c-1.05,1.44-1.65,2.43-1.26,3.52,.08,.55,.14,.38,.14,.38l2.02,.98,3.5-3.76-.11-1.21"/><path class="cls-10" d="M76.94,81.38l3.84-1.19s-1.93,2.85-2.1,3.33c.99-.09,3.11,.33,3.18,1.38-.11,1.2-.38,1.93-.38,1.93l.35,1.88s.56,.12,1.01-1.08c.38-1.14-.34-2.66-.67-2.78,.31-1.05,.62-1.89,.62-1.89l.41-1.01s1.36-2.32,2.06-4.34c.58-2.02,.75-5.15,.63-5.49-.45,.08-1.65,.55-1.65,.55,0,0-.42,1.13-1.12,1.45-.7,.32-2.9,2.24-2.9,2.24,0,0-1.85,3.75-3.27,5.01Z"/><path class="cls-10" d="M75.57,92.37s2.72,.38,4.42-.52c-.11-.33-.18-.33-.18-.33,0,0-2.61,.13-2.78,.19-.18,.06-1.45,.66-1.45,.66Z"/><path class="cls-10" d="M77.86,93.98s2.34-.24,2.39-.13c.04,.11-2.64,2.29-3.03,2.35,.16-.44,.73-1.32,.64-2.22Z"/><path class="cls-10" d="M77.57,94.07s-1.29,1.6-2.28,2.09c-.99,.5-3.74,1.45-4.26,1.67-.53,.22-1.87,.31-2.59,.45-.72,.15-3.45,.4-5.56-.09-2.1-.49-5.34-1.69-5.98-2.12,0-.81-.12-1.22-.12-1.22,0,0-.4-3.71-2.96-3.83-.4-.88-.74-1.86-.74-1.86,0,0,.31-.58,.21-1.26-.1-.67-.03-1.22-.03-1.22,0,0,1.97-1.27,2.6-2.56,.64-1.29,1.26-2.04,1.5-2.68l.38-1.03s.85,1.81-.45,4.89c1.1-.48,1.84-1.45,1.84-1.45,0,0-.26,3.11-2.35,5.74,.98,1.22,2.1,2.21,1.86,5.1,.99-.43,3.34-.95,6.31,.56,2.32-.35,5.37-1.54,5.37-1.54,0,0-2.25-1.21-2.98-4.38,1.25,1.41,2.78,2.87,3.62,3.85,.93,.31,6.45,.88,6.6,.88Z"/><polygon class="cls-10" points="53.92 99.92 57.94 99.19 55.51 98.19 53.92 99.92"/><path class="cls-10" d="M60.6,99.89s3.77,.63,4.8,.67c1.04,.03,3.85,0,4.36-.1,.26,.51-.22,6.59-2.11,10.15,.59-.04,6.43,.32,11.75-1.36-.7,.85-3.35,3.65-7.02,4.8,.59,.22,7.03,1.43,12.92,.63-1.64,.66-4.72,1.49-5.15,1.71-.07,.36,2.25,.26,4.34,.02,0,0,2.84,.48,3.14,.53,.2,.39,.7,1.79,1.33,2.08,.67,.15,6.5-3.82,7.11-4.61,.56-.91,1.11-4.29,1.04-5.11,.43,.64,1.23,2.93,.8,4.27-.43,1.33-1.11,4.61-3.3,6.24-1.14,.85-1.34,1.12-1.34,1.12,0,0-1.11,2.73-2.32,3.59-1.05,.44-6.01,1.39-10.58-.08-2.82-.88-4.39-2.13-4.39-2.13,0,0-2.45-1.1-3.26-1.65-.52-.92,.08-1.94,.45-2.92-.84-.06-4.85-.62-6.44-1.66-.53-.04-1.15,.02-1.15,.02,0,0-.02-3.28-.31-4.05-.28-.77-1.08-3.17-2.04-4.35,.79,.71,3.36,2.17,3.5,2.47,.52-.89,2.34-5.71,2.37-6.49-.4-.56-2.1-2.81-2.1-2.81l-3.03,2.09,.59-1.59s-2.03,.58-2.48,1.05c-.49,.29,.03-1.36,.03-1.36l-1.51-1.16Z"/><path class="cls-10" d="M33.21,127.31s1.58,2.68,2.37,3.01c-.54-1.71-.33-5.16,.79-7.28,.44,1.3,.66,3.37,1.48,3.93,.92,.3,.81-.69,3.52-.17,2.19,.33,3.17-.04,3.35-.3,.17-.27,1.15-4.98,4.44-6.44,3.3-1.46,4.97-.73,6.22-.34,1.25,.39,6.51,2.16,6.92,1.46,.33-.69,2.43-2.99,3.22-6.6,.29,1.29-.1,3.34-.22,3.85-.12,.51-1.62,6.86-4.76,9.96-2.91,2.71-3.9,3.48-3.9,3.48,0,0-2.69,2.9-3.79,3.48-1.1,.58-5.14,.48-6.95,.62-1.81,.14-5.05,1.14-8.75-3.06-2.2-1.81-3.71-2.69-3.95-5.61Z"/><path class="cls-10" d="M42.15,117.23s1.44-1.89,2.16-2.39c.72-.5,4.45-2.36,4.69-2.45,.24-.09-.18-.4-1.65-.18-1.46,.22-4.9,2.19-6.18,4.07-.89,.82-1.35,1.64-1.38,1.73s.06,.25,.18,.14c.12-.11,2.18-.93,2.18-.93Z"/><path class="cls-10" d="M39.34,109.45s-.08,2.29,.99,4.15c.41-.56,.38-.75,.38-.75l.3-1.78s-1.2-.34-1.67-1.62Z"/><path class="cls-10" d="M24.22,59.25l1.61,.74,3.8-4.06s2.29,.73,1.37,3.76c-.65,1.27-.61,1.11-.61,1.11l10.23,6.49,.05,.72s.23,2.52,.68,3.1c.43-.07,.22-.12,.54-.53,.32-.4,.86-1.54,1.48-1.89,.43,.16,1.73,.73,1.73,.73,0,0,1.07-1.7,1.14-2.92,.24-.09,.38-.24,.38-.24,0,0,.35,1.64-.26,3.3-.55,1.1-2.34,2.48-4.62,2.6-.69-.33,.02-.21-.71-.45-.72-.24-4.15-.87-5.04-4.51-.5-.45-8.44-4.99-8.44-4.99,0,0-2.93-.56-3.34-2.98Z"/><path class="cls-10" d="M48.55,66.5s1.1,.32,1.29,.51c.26,.33,.47,1.25,.47,1.25,0,0-1.81,.66-1.92,.95,.23-1.01,.39-1.51,.16-2.7Z"/><path class="cls-25" d="M65.4,113.52s1.87,2.07,2.21,2.16c.35,.09,3.22-.75,3.65-.59l-1.79,2.05s-2.56-.72-2.89-1.15c-.67,.17-.8,.09-.8,.09,0,0-.35-.09-.39-2.55Z"/><path class="cls-25" d="M76.98,121.78l2.5,2.53s4.9-1.27,6.37-1.95l-3.1,2.7s-2.98-.5-4.22-1.07c-1.24-.57-2.82-1.84-2.82-1.84l1.27-.37Z"/><path class="cls-25" d="M37.39,128.44s.69,4.11,1.88,5.43c1.19,1.32,2.5,2.53,5.05,2.02,0,0,5.64-3.48,7.11-4.04,0,0-.79,2.34-2.2,3.15,.52,.23,2.94-.09,6.96-2.72,0,0,.49-.2,.43-.03s-.99,2.76-2.98,3.4c-1.99,.64-6.09,.68-7.78,.7-1.22,.73-6.22,2.05-8.87-2.41-1.14-1.87-1.04-2.14-1.04-2.14l.76,.51s.22-1.52,.67-3.87Z"/><path class="cls-5" d="M75.24,90.77s-.36-2.5-.18-3.4c.19-.9,1.29-3.93,4.21-3.82,2.8,.45,2.59,1.42,2.44,2.22-.15,.8-.09,1.04-.11,1.27-.02,.24,.24,1.6,.16,1.93-.08,.34-.58,1.04-.71,1.25-.12,.21-.88,1.38-1.15,1.33-.34,.12-2.2,.03-2.2,.03,0,0,.83-.59,.98-.86,.15-.26,.96-1.4-.21-2.19-1.38,.76-1.06,.31-1.15,.62-.09,.31-.5,.69-.5,.69l-1.58,.92"/><path class="cls-19" d="M56.65,98.63l2.97-1.33s2.79,1.52,4.33,1.19c1.19-.07,2.66,.3,2.98,.42,0,0-3.1,.43-3.78,.42,.49,.33,4.47,.03,5.09-.03-.02,.45-1.97,1.24-1.97,1.24,0,0-6.07-.28-9.63-1.91Z"/><path class="cls-19" d="M72.24,98.18s1.25,2.92,3.54,2.21c2.19-.33,6.28-.28,9.83,.24,0,0,3.17,.37,4.91,0,1.74-.38,3.82-1.5,4.35-1.82,.54-.33,7.44-3.61,9.49-4.27,2.04-.65,6.27-.98,6.08-.45-.59,.47-1.93,1.79-2.18,2.01-.25,.22-3.16,3.33-3.9,6.05-.7-.09-3.34-.38-7.17,.92-3.82,1.24-7.13,2.25-8.47,1.65,1-.02,2.71-.68,2.71-.68,0,0-4.16,.06-7.95-1.12-3.78-.89-4.04-.77-4.98-1-.94-.23-5.69-.38-6.28-1.57-.17-1.18-.04-1.94,.03-2.18Z"/><path class="cls-19" d="M74.02,98.96s2.06-.5,2.57-1.16c.35,.03-.85,1.39-1.21,1.42-.44,.2-1.06,.29-1.36-.26Z"/><path class="cls-19" d="M76.5,96.45s.77,.87,3.06-.32,4.72-3.8,6.66-4.9c1.94-1.1,6.18-4.59,8.3-4.88-1,.87-3.65,3.49-3.65,3.49,0,0,8.12-4.92,16.11-4.81,1.01-1.47,1.82-4.53,2.21-5.58s1.38-6.3,.95-7.02c-.85,1.17-1.53,2.42-1.91,2.85-.37,.42-2.4,3.12-5.58,5.2-3.07,1.39-5.23,2.56-8.07,3.48-2.86,.96-6.66,3.66-7.54,4.33-.88,.67-2.99,2.32-3.79,3.07-.8,.75-4.5,3.75-5.48,4.54-.87,.46-1.27,.55-1.27,.55"/><path class="cls-10" d="M79.98,96.88s-2.41,2.61-2.3,3.33c-.44,.1-1.75,.05-1.75,.05,0,0,.85-1.51,.98-1.74,.13-.23,.48-.42,.48-.42,0,0,2.54-1.3,2.59-1.22"/><path class="cls-8" d="M70.12,92.11s1.39-.34,1.5-.6c.11-.26,.7-.53,.69-.59-.01-.06,.3-.8,.3-.8,0,0,.95,.47,1.09,.93,.15,.46,.12,1.46-.38,1.5-.5,.04,.33,.35,.62,.23,.29-.12,1.49-.43,1.61-.47,.12-.04,1.91,.27,2.76-.03,.85-.3,1.8-.47,2.08-.93,.27-.46,.75-1.14,.87-1.41,.12-.27,.53-.86,.84-.7,.31,.15,.43,1.3,.39,1.63-.04,.34-.11,1.1-.19,1.31s-.53,.54-.53,.54c0,0-1.24,.99-1.33,1.08-.1,.08-1.12,.14-1.79,.21-.69,.06-2.68-.08-3.65-.16-.97-.08-3.57-.53-4.06-.77-.49-.23-.66-.82-.81-.98"/><path class="cls-8" d="M47.6,65.76s.57,1,.24,1.91c-.13,.69-.18,.68-.2,.78-.02,.1-.44,.76-.3,.76,.14,0,1-.47,1.13-.4,.1,.16,.03,.26,.03,.26,0,0-1.69,.99-1.93,1.65-.46,.37-1.06,.57-1.5,.84-.43,.28-2.41,1.54-2.58,1.71-.21,.13-.83-.97-.79-1.12,.04-.14,1.77-.06,2.99-.94,1.2-.88,1.42-1.14,1.7-1.8,.28-.67,.38-1.91,.37-1.98,0-.07-.13-1.14-.13-1.14,0,0,.79-.54,.97-.52Z"/><path class="cls-2" d="M28.47,55.1s3.76,1.59,1.13,6.3c.64-.33,1.58-1.75,1.63-2.54,.05-.79-.04-1.18-.04-1.18l9.52,6.27,.27-.95-10-6.49-.39-.14s-1.07-1.36-2.11-1.27Z"/><path class="cls-23" d="M9.67,54.39s.27,.91,.17,1.28c-.1,.37-.4,1.19-.06,1.36,.34,.17,1.93,.59,2.71,.03,.5,.31,.51,.92,.51,.92l.56-.97s.6,.79,.81,.87,.44-.97,.64-.86c.2,.12,1.44,1.06,1.71,1.08,.28,.02,.71-.71,.97-.66,.26,.06,.64-.86,.64-.86,0,0,.73,.76,.9,1.19,.17,.43,1.28,.72,1.82-.63,.15,.14,.45,1.19,.8,1.35,.34,.17,2.11-.44,2.28-.13,.09,.52-.08,1.64,1.39,3.04,1.36,.83,2,.81,2,.81l8.44,4.99s.81,2.32,1.56,2.83c0,0,.74,.52,1.08,.6,.31,.15,.42,3.57,.12,4.27-.26,.71-.41,1.55-.43,1.71-.02,.16,.3,.84,.48,.91-.58,.68-3.72,3.46-4.47,9.76-1.09-1.22-1.69-4.65-1.55-6.67,.38-1.81,.5-2.01,.5-2.01,0,0,.59-1.49,.17-2.42,.14-1.04,.18-1.15,.18-1.15,0,0-.45-2.11-.46-2.83-.01-.72-.36-.89-.49-1.95-.13-1.07-.8-1.84-1.02-2.29-.22-.45-.73-1.5-.97-1.76-.25-.27-1.67-1.74-2.05-1.8-.46-.17-2.06-1.45-2.36-1.65,0,0-1.18-.59-1.38-.66s-1.31-.9-1.71-1.02c-.4-.12-2-.55-2.71-.4-.86,.09-1.2-.15-2.02-.19-.85,0-2.54,.31-2.97,.29-.43-.02-1.39-.11-1.58-.04-.19,.07-2.68,.77-3.41,.96-.73,.2-3.73-.91-4.62-1.55,.06-.67,.36-1.05,.36-1.05,0,0,.5-.75,.84-1.61,.33-.95,.79-1.16,1.14-1.36,.34-.7,.85-1.35,1.45-1.77Z"/><path class="cls-13" d="M36.47,133.13s-1.51,3.96-1.37,4.02c.21-.13,5.68-.58,8.63,4.87,.46-1.01,2.14-5.67,2.14-5.67,0,0-2.46,.82-3.17,.76-.71-.06-3.21,.4-6.23-3.98Z"/><path class="cls-13" d="M75.39,122.16s.12,0,.85,.35c.73,.35,3.17,2.56,9.88,2.72,.85,1.21,1.11,2.61,1.11,2.61,0,0-2.36-1.12-3.47-.55-1.11,.57-2.12,.89-2.19,1.06-.28-.02-5.72-1.06-7.9-4.52,1.01-1.18,1.72-1.69,1.72-1.69"/><path class="cls-11" d="M71.47,126.46s1.58-2.34,2.19-2.62c.24,.34,1.53,2.59,5.9,3.96,1.84,.58,2,.56,2,.56,0,0,2.76-2.33,5.83-.37,1.33,1,1.48,1.45,1.48,1.45,0,0-3.08,.63-5.18,2.77-.94-.67-3.3-3.46-5.7-4.39-2.42-.86-3.87-1.25-6.53-1.37"/><path class="cls-24" d="M36,132.05s-3.29,3.31-3.43,5.37c.44,.2,2.53-.27,2.53-.27,0,0-.25,1.81-.3,2.13-.04,.31-1.46,1.68-1.46,1.68,0,0-2.86-1.24-3.7-1.55,.36-1.36,2.79-4.48,3.35-5.4,.56-.92,2.47-2.37,2.62-2.35,.15,.02,.38,.4,.38,.4"/><path class="cls-11" d="M32.92,140.91s3.56,1.91,4.99,4.08c1.49-.36,5.61-2.04,6.38-2.05l2.17-6.54-.51-.02-2.21,5.64s-2.15-5.17-8.75-4.91c-.76,.78-1.16,1.76-1.16,1.76l-.9,2.04Z"/><path class="cls-16" d="M43.07,29.4s-5.31-3.54-12.76-4.9c-7.45-1.37-12.78-1.71-17.75-.96-.67,.56-.82,.75-.82,.75,0,0,7.11,.25,14.13,2.16,7.02,1.9,13.34,4.42,17.53,7.08,.23-.61-.51-2.39-.33-4.13Z"/><path class="cls-16" d="M97.18,65.72s5.08,9.31,5.41,14.7c-.9,.58-.96,.52-.96,.52,0,0,.24-2.39-2.55-2.89-.22-1.26-1.04-5-2.67-8.12,.55,.05,.91-.08,.91-.08,0,0-.33-.66-1.69-1.09-1.09-1.47-1.39-2-1.39-2l2.94-1.04Z"/><path class="cls-16" d="M99.24,87.97s3.44-.46,4.12-.37c.45,.99-.15,7.32-.15,7.32,0,0-4.39,1.82-5.6,2.57,.39-1.33,1.9-6.86,1.62-9.52"/><path class="cls-16" d="M102.14,104.02s-.84,5.37-1.89,7.76c-1.13-.2-2.23-.33-2.23-.33,0,0-.37-2.63-3.88-5.28,.38-.61,.62-.91,.62-.91,0,0,5.43-1.31,7.37-1.24Z"/><path class="cls-16" d="M104.6,105.64s-.53,6.58-.71,7.66c-.42-.05-1.93-.99-1.93-.99l2.64-6.67Z"/><path class="cls-16" d="M108.28,103.95s-1.51,10.42-1.47,11.47c-.6-.44-1.57-1.28-1.57-1.28l.88-3.63,2.16-6.57Z"/><path class="cls-16" d="M104.05,113.37s6.25,5.47,.47,12.51c1.38,.2,6.24,2.31,6.92,3.6,.42-.12,1.58-8.1-4.43-13.99-2.35-1.91-2.96-2.12-2.96-2.12"/><path class="cls-16" d="M111.89,129.87s.69,4.46-.28,5.91c-1.12,1.39-4.04,3.69-4.66,4.01,1.93,.55,2.92-.11,9.06,3.53,.38-1.45,1.24-8.34-4.13-13.44Z"/><path class="cls-16" d="M91.56,123.86s4.4-2.58,7.77,1.73c-2.29,.73-7.84,1.85-8.37,4.16-1.13-.04-2.08-.31-2.08-.31,0,0-1.08-.98-1.66-1.6-.3-1.06-1.11-2.61-1.11-2.61,0,0,4.59,.06,5.45-1.37Z"/><path class="cls-16" d="M83.49,132.19s2.34,1.68,3.23,2.94c1.31-.88,7.53-4.09,12.48,1.4,.31,1.37,.36,1.83,.36,1.83,0,0,2.04,1.41,2.72,1.66-.74-.06-8.16,2.71-11.05,9.62-1.9-.48-5.99-2.45-11.43,.89-2.8,1.97-2.99,1.9-3.86,3.05-.48-.18-3.71-3.56-10.12-3.2,.23,1.01,.42,2.83-.87,3.67-.09-1.23-1.46-4.75-3.67-6.6-2.21-1.86-6.95-5.42-16.89-4.68,.96-2.59,2.06-6.37,2.06-6.37h0s4.52,.12,6.7-.6c2.18-.72,2.71-2,3.07-2.52,.44-.16,2.74-.9,3.12-.75,0,0-2.73,1.77-3.31,3.47,.92-.42,7.61-3.13,11.09,1.32,0,0,2.87,3.3,.63,7.88,.95-.36,3.03-3.03,3.47-5.54,.44-2.51-.44-4.7-1.97-7.07,.44-.16,3.14,2.15,2.74,3.8,1.05-.48,8.52-2.2,12.71,5.2,0,0,2.12-3.4-1.22-9.4"/><path class="cls-16" d="M72.49,120.19l-2.99-1.06s1.49,2.46,1.19,3.56c-.76-1.05-2.82-3.29-5.4-3.7-.33,1.19-1.52,6.32-4.99,9.79,1.32,.11,3.01,.13,3.69,.5,.79-.8,3.24-2.59,7.48-2.81,.81-1.27,2.69-3.42,3.92-4.3-.21-.38-.57-.29-1.1-.49s-1.53-.73-1.8-1.49"/><path class="cls-16" d="M113.36,141.67s6.28,3.26,8.62,11.39c1.07,5.37-.58,10.55-4.57,13.66-.76,1.9-2.27,6.26-6.36,7.42-.16,1.03,0,0,0,0,0,0-.39-6.92-5.72-11.68-2.63-1.46-3.09-2.73-8.76-1.72,.37-1.01,1.58-4.11,.04-7.03,0,0,11.33-10.66,20.76-2.96,.05-2.06,.87-4.43-4.01-9.08Z"/><path class="cls-15" d="M110.36,177.49s-7.46,9.09-19.15,3.77c0,0,.44,2.79,4.89,4.05,4.45,1.27,9.33-1.29,12.18-4.12,1.46-1.86,2.08-3.71,2.08-3.71Z"/><path class="cls-15" d="M94.17,184.16s-5.05,5.23-10.34,2.83c1.07-1.84,.91-4.09,.8-4.51-.54,.73-6.45,11.21-16.07,7.1,2.1-1.68,4.79-5.11,4.81-8.27-1.88,1.38-8.72,7.31-18.72,6.72-3.9-.52-13.4-2.89-15.47-12.78-.22,.3-4.21,3.69-9.49,3.64-5.28-.05-12.3-3.36-14.65-4.39,.93,.89,6.54,5.48,14.37,6.04,7.83,.55,9.2-.96,9.78-.74,.43,.6,.91,3.73,3.58,6.25,2.67,2.52,8.35,7.25,19.75,5.52,1.91,1.63,6.27,3.85,11.01,3.15,4.74-.7,7.82-4.46,8.13-4.76,.5,.64,5.37,2.55,9.91,.9,2.82-1.41,4.69-3.51,5.34-5.28-1.01-.21-2.76-1.4-2.76-1.4Z"/><path class="cls-15" d="M5.62,162.63s2.49,.92,2.8,.69c.34,1.08,1.36,3.73,1.36,3.73,0,0-3.31-2.71-4.16-4.42Z"/><path class="cls-16" d="M11.69,144.13s-1.53-6.23-1.07-11.47c.35-2.01,.46-2.88,.46-2.88,0,0-2.79,1.54-3.19,2.26-.4,.72-1.8,5.22,3.8,12.09"/><path class="cls-16" d="M33.28,127.64s-2.71-1.32-3.58-1.01c.62,.51,2.57,1.61,2.49,2.33-.8-.3-5.04-1.3-8.01,1.64,3.87,.05,5.31-.1,7.18,2.13-.89-.23-3.91-1.29-8.06,.93-4.07,2.19-5.39,7.35-5.58,7.94,.95-.28,6.76-3.42,11.89-2.12,.52-1.22,2.66-4.72,3.35-5.41,.7-.71,2.6-2.52,2.6-2.52,0,0-1.96-1.32-2.28-3.92Z"/><path class="cls-16" d="M31.28,140.17s4,1.39,6.58,4.76c-1.69,1.01-4.46,2.8-5.17,4.2-.71,1.4-3.59,6.64-2.55,11.79-.79-.83-4.16-4.87-3.84-8.61,.32-3.74,3.25-7.74,6.81-9.05-.6-1.26-1.41-2.53-1.83-3.1Z"/><path class="cls-16" d="M12.16,114.21s.34,5.5,4.09,7.54c-.69,.95-2.66,3-2.69,3.33-.41-.15-3.06-4.01-1.41-10.87Z"/><path class="cls-16" d="M26.05,116.92s5.55-6.56,14.04-3.88l.23,.45s-.27,1.57-.3,1.75c-.06,.25-.91,.62-.19,2.18-.08,.71-.94,1.44-1.17,1.57-.23,.13-.88,1.04-2.54,1.19-.58-.59-2.52-2.7-6.17-3.28-3.65-.58-3.9,0-3.9,0Z"/><path class="cls-16" d="M39.39,109.76s-2.47-.02-3.6,.3c.94,.47,3.05,1.44,3.93,2.41-.1-1.15-.51-1.7-.32-2.71Z"/><path class="cls-5" d="M95.86,62.31s2.03-1.97,3.01-2.32c.61,.62,2.85,2.97,2.91,3.35-.58-.26-3.62-.93-5.91-1.03Z"/></g><g><path class="cls-12" d="M36.21,120.29s-2.73-4.77-10.58-3.6c-6.09,1.17-9.24,4.04-12.8,9.02-2.48,4.18-3.86,9.79-.72,20.09,0,0-1.61-6.53-1.19-13.05,.33-4.14,3.44-10.27,9.41-13.76,5.75-2.88,11.85-2.7,15.68,1.36l.21-.06Z"/><path class="cls-12" d="M11.29,129.6s-4.53,1.84-8.38,7.23c-3.26,5.28-4.21,13.6-.62,20.68,3.59,7.08,6.84,9.31,7.72,10.19l-.46-1.01s-5.54-4.56-8.47-13.67c-1.36-7.6-.31-10.55,1.43-14.49,1.99-4.36,8.45-8.55,8.66-8.47l.13-.46Z"/><path class="cls-12" d="M7.99,161.66s2.02,8.82,8.42,13.55c6.4,4.74,15.08,6.47,22.79,4.32l.11,.46s-12.2,3.78-22.77-4.13c-6.15-4.18-8.28-11.93-8.55-14.21Z"/><path class="cls-12" d="M39.59,173.95s-1.98,6.6,3.77,12.31c5.75,5.7,18.78,8.02,27.36,1.48,0,0-3.98,5.93-16.56,4.18-9.39-1.43-17.49-8.47-14.57-17.96Z"/><path class="cls-12" d="M84.96,185.35s-3.67,8.29-10.87,9.53c-6.77,1.13-11.83-3.06-11.83-3.06l.42-.24s8.63,5.98,15.7,.99c2.19-1.63,5.52-5.43,6.58-7.22Z"/><path class="cls-12" d="M97.06,185.62s-3.7,9.76-15.71,4.63l.33-.31s9.96,5.01,15.07-4.4c.12,.13,.31,.07,.31,.07Z"/><path class="cls-12" d="M93.54,184.31s5.35,4.33,12.91-1.23c4.67-3.73,5.41-8.15,3.94-13.39-1.72-4.56-6.14-11.75-14.42-8.97-5.04,1.97-5.05,3.85-5.29,5.42-.24,1.57,1.06,4.62,5.89,6.32,0,0-6.7-2.99-5.06-7.98,.9-1.84,6.09-5.38,11.69-3.22,5.32,2.91,7.38,9.43,7.45,12.36,.07,2.93-.88,8.12-8.48,11.24-3.75,1.13-6.14,.46-8.63-.55Z"/><path class="cls-12" d="M66.59,161.68s-4.7,1.76-5.19,5.5c-.22,3.12,2.98,6.35,5.72,6.77,2.75,.42,7.96-.42,11.32-6.94,2.4-5.68,.1-10.97-3.82-14.21-4.1-2.41-8.15-2.42-10.72-1.93l-.15-.4s7.57-1.89,12.98,3.66c0,0,3.69,3.5,3.06,9.37-.85,4.93-2.94,8.51-8.14,10.46-3.13,.85-7.03,1.02-9.53-3.06-2.5-4.08-.48-8.16,4.48-9.22Z"/><path class="cls-12" d="M34.71,99.7s-1.54,.03-2.69,3.13l-.3-.06s.44-2.43,2.91-3.47l.08,.4Z"/><path class="cls-12" d="M35.35,103.83s-7.02-2.69-14.01,.51c-5.25,2.78-7.88,7.37-8.96,10.17-1.08,2.8-.69,8.23,1.17,10.36l-.26,.32s-3.3-4.1-1.27-10.95c1.22-4.04,5.81-9.16,10.21-10.78,4.21-1.36,9.69-1.74,13.13,.37Z"/><path class="cls-12" d="M38.25,119.42s-2.55-1.64-4.73-1.38c-.48-.32-.63-.42-.63-.42,0,0,2.24-.65,5.64,1.54l-.28,.27Z"/><path class="cls-12" d="M114.61,158.41s4.23,5.75,2.18,10.58c-1.69,3.17-3.26,4.42-5.89,5.41l.04-.33s4.41-1.52,5.9-6.6c.26-1.86,.11-4.09-2.23-9.06Z"/><path class="cls-12" d="M117.1,167.22s2.79-.84,4.88-6.94c1.91-5.61-.54-12.36-5.95-16.97-5.22-4.45-13.18-5.53-19.95-.4,0,0,9.07-6.75,19.63,.58,6.32,5.5,6.93,12.04,6.04,16.27-1.14,3.08-1.9,4.89-4.64,6.98v.47Z"/><path class="cls-12" d="M92.21,128.13s5.47-4.5,13.69-2.05c7.31,2.5,9.77,8.18,10.33,11.04,.56,2.85,.06,6.17-.12,6.44l-.28-.27s2.74-11.87-9.8-16.73c-5.19-1.88-10.81,.05-13.81,1.58Z"/><path class="cls-12" d="M97.91,111.6s6.79,.9,10.67,6.09c3.8,5.16,2.99,10.58,2.63,11.56l.32,.16s2.13-6.89-3.47-12.98c-4.32-4.59-9.63-5.45-10.17-5.14,.1,.42,.01,.3,.01,.3Z"/><path class="cls-12" d="M64.58,146.38s4.06,.22,6.08-4.32c1.84-4.05,.61-8.09-2.81-11.07-2.5-1.99-5.59-2.54-7.47-2.51l-.34,.47s5.05-.39,8.8,3.65c3.2,3.57,2.78,8.15,.42,10.95-1.8,2.11-2.97,2.27-4.68,2.83Z"/><path class="cls-12" d="M72.62,144.5s7.28-.88,7.19,6.04l.42-.32s-.03-7.39-7.61-5.72Z"/><path class="cls-12" d="M100.07,147.67s-5.35,.62-7.62,2.72c-.2-.16-.37-.27-.37-.27,0,0,3.91-3.07,7.99-2.46Z"/><path class="cls-12" d="M94.03,147.15s-2.52,1.84-2.72,2.62l-.37-.27s1.57-2.28,3.09-2.35Z"/><path class="cls-12" d="M93.84,151.6s-4.78-4.37-11.13-2.2c-4.47,1.93-6.38,3.86-6.67,4.31l-.38-.35s3.28-3.44,7.54-4.58c4.27-1.15,9.32,.51,10.64,2.83Z"/><path class="cls-12" d="M52.87,139.47s-3.98-.57-7.89,1.83l.14-.6s4.7-2.66,7.76-1.23Z"/><path class="cls-12" d="M31.68,130.06s1.76,.39,2.65,2.54l-.32,.4s-.25-1.43-2.33-2.94Z"/><path class="cls-12" d="M23.39,130.75s6.66-2.24,9.24,3.64l-.25,.34s-1.35-4.87-8.98-3.98Z"/><path class="cls-12" d="M109.55,118.6s2.58-6.71,3.31-13.69c.73-6.97,.92-12.91-.55-19.98-1.11-4.84-2.45-7.91-2.45-7.91l-.17,.84s3.12,8.16,3.21,14.48c.09,6.32,0,14.63-1.91,20.45-1.43,4.62-1.68,5.43-1.68,5.43l.24,.38Z"/><path class="cls-12" d="M112.32,100.95s.27,3.91-1.19,8.61c-1.46,4.7-2.47,7.81-2.47,7.81l-.28-.15s3.65-10.75,3.93-16.27Z"/><path class="cls-12" d="M109.14,108.64s.59,1.89,.02,3.68c-.57,1.79-1.34,4.13-1.34,4.13l-.33-.27s1.82-4.28,1.65-7.54Z"/><path class="cls-12" d="M106.49,105.89s.6,3.51-1.25,8.26l-.3-.21s1.51-4.73,1.55-8.05Z"/><path class="cls-12" d="M105.28,108.64s.41,2.11-.86,5.02l-.37-.28s.86-1.68,1.23-4.74Z"/><polygon class="cls-12" points="97.88 104.56 96.56 108.26 96.2 107.94 97.35 104.6 97.88 104.56"/><polygon class="cls-12" points="95.89 104.92 95.13 106.97 94.84 106.72 95.48 105 95.89 104.92"/><polygon class="cls-12" points="94.76 105.26 94.42 106.32 94.14 106.17 94.44 105.24 94.76 105.26"/><path class="cls-12" d="M100.23,89.23s.13,5.05-.74,7.4l-.4,.18s.8-3.71,1.14-7.58Z"/><path class="cls-12" d="M99.38,87.91s.26,5.34-1.55,9.58l-.53,.14s1.94-6.14,1.76-9.64c.16-.18,.31-.07,.31-.07Z"/><path class="cls-12" d="M103.34,64.89s4.34,6.04,5.4,9.72l-.18,.22s-2.68-5.76-5.71-9.93c.39,.1,.48-.01,.48-.01Z"/><path class="cls-12" d="M94.37,66.61s1.09,1.17,1.54,2.29l-.66-.15s-.65-1.34-1.23-2.08c.03-.08,.36-.06,.36-.06Z"/><path class="cls-12" d="M96.39,69.75s2.91,4.75,2.78,8.32l-.41-.06s-.15-3.72-2.74-8.3l.37,.04Z"/><path class="cls-12" d="M98.76,59.89s2.47,1.97,3.38,3.68l-.58-.25s-.74-1.33-3.06-3.21c.21,0,.26-.22,.26-.22Z"/><path class="cls-12" d="M43.11,25.8s-6.12-2.45-15.14-3.37c-9.02-.93-13.92-1.21-16.66,1.91,.81,.43,7.68,.26,14.73,2.34,7.05,2.08,13.24,4.12,17.81,7.57l-.18-.59s-3.71-3.62-18.14-7.51c-8.64-2.06-13.51-1.97-13.51-1.97,0,0,1.68-2.06,6.95-1.91,5.26,.15,15.66,.66,24.09,4.01l.04-.47Z"/><path class="cls-12" d="M13.7,23.42s8.78-1.4,23.94,3.25c0,0-11.35-5.17-23.94-3.25Z"/><path class="cls-22" d="M29.73,139.54s3.26-6.19,6.04-7.87l-.34-.31s-4.46,3.86-6.12,8.07c.35,.18,.42,.11,.42,.11Z"/><path class="cls-22" d="M36.31,131.96s-3.14,3.25-3.66,5.4c.9-.45,7.59-1.87,11.06,4.38l2.04-5.5,.26,.05-2.24,6.16s-1.99-3.68-4.99-4.65c-3.01-.93-6.04-.08-6.6-.06,.55-1.86,1.46-3.69,3.87-5.97l.25,.19Z"/><path class="cls-22" d="M36,132.05s.32,2.62,3.72,4.57c0,0,2.66,1.55,6.22-.24,1.93,.23,6.66,.33,9.05-1.33,1.09-.97,1.68-2.89,1.84-3.32l-.42,.25s-.77,2.94-3.05,3.55c-2.28,.61-5.62,.66-7.67,.55-.73,.34-3.04,1.46-5.91,.15-2.08-1.26-3.3-3.08-3.35-4.15-.3-.07-.43-.04-.43-.04Z"/><path class="cls-22" d="M48.5,134.38s-5.32,2.8-8.2,.43c-1.75-1.82-2.45-3.53-2.97-7.12,0,0-.59,3.98,2.71,7.38,3.11,2.61,7.68-.14,8.46-.7Z"/><path class="cls-22" d="M52.42,134.26s4.83-1.48,8.7-6.26c3.78-4.53,4.5-9.31,4.71-12.39,.12-2.5-.8-6.11-3.06-8.85-1.51-2.78-4.17-4.53-7.69-5.07,0,0,5.38,1.51,6.77,4.41,0,0-2.63-2.71-5.77-2.83,0,0,5.81,1.63,8.09,6.39,2.27,4.76,.93,10.03-1.19,14.86-3.01,5.06-6.59,7.65-10.55,9.74Z"/><path class="cls-22" d="M35.8,127.25s.48,3.61,2.26,4.35l.17,.63s-3.02-1.44-2.43-4.98Z"/><path class="cls-22" d="M40.04,117.88c.44-.76,5.79-4.4,9.51-5.4,0,0-.92-1.67-4.92,.64-3.65,2.12-4.56,4.13-4.56,4.13,0,0-.51-.59-.4-1,.11-.4,2.94-3.8,7.4-6.14,0,0-2.53,.28-6.73,4.65,.32-1.29,1.87-5.36,3.34-7.48,0,0-1.41,.97-2.66,4.46,.3-1.14,1.11-3.75,1.89-4.67,0,0-1.42,.77-2.6,6.14-.51-.47-1.43-3.44-.2-7.63l-.26-.06s-1.66,5.12,.32,7.95c-.31,.94-.26,1.36-.3,1.67-.18,.17-.88,.97-.21,2.1-.09,.78-1.57,2.16-2.24,2.44-.7,.26-2.76,.03-3.85,3.86-1.1,3.83-.62,5.59,1.06,7.38,1.68,1.79,4.21,2.57,4.56,2.74l-.41-.43s-4.47-2.22-5.14-4.53c-.68-2.31,.35-6.82,2.16-8.12,1.66-.88,1.57-.31,2.42-1.08,.85-.77,5.2-3.36,8.94-2.78,0,0-.39-.47-2.71-.32,1.46-.47,2.25-.74,3.27-.77,0,0-3.36-.2-7.69,2.24Zm8.85-5.56s-4.89,1.98-7.56,3.94c-.19,.14,3.55-4.01,7.56-3.94Z"/><path class="cls-22" d="M74.15,114.21s-7.62,1.62-8.54,1.68l.06,.38s6.72-1.02,8.48-2.07Z"/><path class="cls-22" d="M88.29,113.84s-7.97,2.78-12.35,3.7c-4.38,.92-7.61-.6-9.88-1.56l.5-.14s5.17,2.93,13.45,.3c6.16-2.04,8.28-2.3,8.28-2.3Z"/><path class="cls-22" d="M89.84,116.43s-4.51,1.72-7.94,1.38c-2.18,.12-3.57,1.02-6.07-.51l.58-.03s1.99,1.06,5.08,.02c3.09-1.04,4.29-1.44,4.29-1.44,0,0-2.65,1.48-3.3,1.6,.7-.03,6.32-.93,7.36-1.03Z"/><path class="cls-22" d="M73.14,117.59s-.93,1.51-.84,2.48c.09,.96,1.24,1.55,3.52,2.27,1.72,1.12,1.97,2.1,8.23,2.97,0,0,4.91,.37,6.67-.56,1.76-.92,2.54-3.38,2.87-4.15l-.49,.34s-1.23,3.22-3,3.73c-1.71,.38-4.96,.63-8.13-.07-3.18-.69-4.16-1.42-6.04-2.56-1.58-.63-3.28-1.17-3.29-2.23,.17-.9,.84-2.15,.84-2.15l-.33-.08Z"/><path class="cls-22" d="M75.67,120.02l3.84,4.13-.72-.23s-2.82-2.74-3.12-3.9Z"/><path class="cls-22" d="M85.99,122.23l-6.07,1.99,.53,.2s4.97-1.75,5.54-2.19Z"/><path class="cls-22" d="M90.98,122.18s3.63-1.52,5.21-3.72c1.58-2.2,2.51-5.69,1.53-8.6-1.11-2.55-4.14-4.2-4.43-4.27-.3-.07-.55-.04-.55-.04,0,0,5.21,2.5,5.03,7.24-.32,4.12-2.37,6.51-6.79,9.39Z"/><path class="cls-22" d="M69.48,112.97s4.73-3.17,6.28-10.63l-.31-.03s-1.18,5.7-5.97,10.67Z"/><path class="cls-22" d="M69.94,100.29s-.22,.16-.4,.09c-.52,5.22-4.17,12.55-4.17,12.55l.14,.62s1.6-1.14,3.08-4.83c1.59-4.74,1.35-8.42,1.35-8.42Zm-.35,2.13s-.81,7.21-3.15,9.25c.59-1.6,2.8-7.12,3.15-9.25Z"/><path class="cls-22" d="M63.38,103.92s1.25-1.19,1.78-3.38h-.44s-.31,1.38-1.33,3.38Z"/><path class="cls-22" d="M62.68,101.89s-1.57,2.61-2.05,2.47l-.19-.15s1.07-.94,1.33-1.53c-.57,.44-1.01,.55-1.01,.55,0,0,1.66-2.09,2.03-2.96l.17-.02s-.46,1.45-.72,1.71c.17-.02,.43-.08,.43-.08Z"/><path class="cls-22" d="M75.97,94.9s-4.77,1.22-7.1,3.26l-.43-.16s4.75-3.33,7.53-3.1Z"/><path class="cls-22" d="M72.98,94.48s-5.11,3.44-6.08,3.76c-1.04,.18-2.83,.12-2.83,.12,0,0,2.2-.39,3.14-.85,.94-.46,5.51-3.21,5.77-3.03Z"/><path class="cls-22" d="M66.63,95.48s-5.28,.18-7.85,1.45c-.4-.11-.4-.23-.4-.23,0,0,5.39-2.12,8.25-1.22Z"/><path class="cls-22" d="M60.83,93.81s-3.4,1.65-3.93,1.45c.04-.23,.05-.35,.05-.35,0,0,1.75-.48,3.88-1.1Z"/><path class="cls-22" d="M59.77,82.4s-1.51,4.85-6.4,5.62c-.06-.06,0-.32,0-.32,0,0,3.67-.54,6.4-5.3Z"/><path class="cls-22" d="M55.96,72.75s2.47,3.26,2.31,5.74c-.12,2.5-2.19,7.1-4.98,8.33,.06-.26,.13-.35,.13-.35,0,0,2.74-2.05,3.89-5.38,1.01-2.94,.78-4.6-1.9-8.38l.55,.04Z"/><path class="cls-22" d="M49.23,77.52s4.1,1.48,4.45,5c.11,1.78-.23,4.44-.45,5.04l-.22-.49s1-3.99-.38-6.48c-1.1-1.29-1.67-1.91-3.38-3.07Z"/><path class="cls-22" d="M56.38,92.65c-.78-1.7-2.77-2-2.77-2l.24,.45s1.17,.31,1.74,.97c1.23,1.79,1.11,3.76,.92,4.26s-2.51,3.19-3.01,3.77c-1.02-.42-1.95-.08-2.27,.45-.33,.56-.14,.92,.38,1.27-1.21,.97-2.27-.52-2.27-.52l-.4,.09c.63,.92,1.88,1.58,3.17,.61,1.34-1.12,4.65-5.02,4.91-5.73s.15-1.92-.63-3.63Zm-4.38,8.87c-.14-.05-.78-.09-.4-.88,.27-.51,1.25-.43,1.62-.25,0,0-1.08,1.17-1.22,1.12Z"/><path class="cls-22" d="M46.56,90.06s1.05,2.17,1.8,2.44c0,0-1.03,.06-1.75-1.26-.57-1.18-.24-1.1-.05-1.19Z"/><path class="cls-22" d="M40.7,93.78s1.45,1.87,1.77,1.99c0,0-.68,.43-1.3-.4-.62-.84-.62-1.36-.46-1.59Z"/><path class="cls-22" d="M37.59,99.33s1.85,.68,1.66,1.18c-.26,.47-1.92-1.03-1.66-1.18Z"/><path class="cls-22" d="M40.5,97.14s1.18,.08,1.48,.79c.3,.72,3.31,3.61,5.73,3.5,2.42-.11,3.81-1.9,4.28-3.5,.19,.15,.33,.08,.33,.08,0,0,.08,2.94-4.62,3.86-1.67-.17-4.39-1.22-6.1-3.92-.29-.31-1.23-.7-1.11-.82Z"/><path class="cls-22" d="M37.83,101.84s1.29,0,2.38,.76c1.09,.77,3.72,1.94,4.77,1.73,1.05-.22,2.29-1.49,2.54-2.61,.21-.12,.55-.08,.55-.08,0,0-.59,3.21-4.08,3.05-2.69-.59-3.19-1.3-4.07-1.87-1.02-.3-2.1-.98-2.1-.98Z"/><path class="cls-22" d="M46.2,92.99s.9,.17,1.14,.42c.23,.25,3.34,4.06,4.99,4.39,0,0,1.73-.21,2.68-2.76,0,0-.38-1.8-1.74-4.88-.97-1.97-.98-2.14-.98-2.14l.82,.83s2.47,5.64,2.25,6.45c0,0-1.31,3.63-3.72,2.74-1.31-.73-3.58-3.42-4.49-4.33-.88-.45-.95-.71-.95-.71Z"/><path class="cls-22" d="M44.5,104.55s-2.21,2.37-5.98,.12c-3.1-2-4.31-4.18-3.39-10.26l-.35,.84s-.88,3.35,.1,5.93c1.02,2.48,4.24,5.12,7.57,4.74,2.06-.45,2.71-1.42,2.71-1.42l-.66,.04Z"/><path class="cls-22" d="M50.94,84.45c-2.84-2.35-7.28-4.11-12.2-.97-4.19,2.93-4.37,6.34-4.62,7.01s.24,4.05,.75,5.16c0,0,1.48-4.74,4.96-7.49,3.47-2.71,8.94-3.96,13.36,.99,0,0,1.34-1.44-2.25-4.71Zm2.11,4.21c-3.52-3.57-6.63-4.11-11.36-2.03-4.98,2.31-6.79,7.98-6.79,7.98,0,0-.3-1.36-.43-3.51,.22-3.96,2.79-6.11,5.54-7.96,3.89-1.79,7.03-.99,9.88,.91,3.92,3.03,3.18,4.61,3.18,4.61Z"/><path class="cls-22" d="M36.82,87.25s-2,3.54-2.4,5.81l-.07-1s1.22-3.83,2.47-4.82Z"/><path class="cls-22" d="M41.73,75.43s-4.63,2.36-6.61,8.45c-1.01,4.03-.88,6.94-.85,7.07,.03,.13-.22,.28-.22,.28,0,0-.24-3.93,.9-7.86,1.14-3.94,4.24-6.87,6.78-7.94Z"/><path class="cls-22" d="M40.03,76.47s1.12-2.93,4.65-5c3.04-1.57,6.13-1.82,6.68-1.65l.21,.25s-7.55-.34-11.28,6.22c-.18,.21-.27,.17-.27,.17Z"/><path class="cls-22" d="M50.5,68.38s-3.54,1.35-3.76,2.43l-.39,.13s.13-1.45,4.09-2.85l.06,.3Z"/><path class="cls-22" d="M59.84,80.71s3.32,3.28,5.53,2.83c0,0-2.95,.78-5.53-2.83Z"/><path class="cls-22" d="M61.64,83.59s2.47,1.63,4.32,1.33c0,0-2.7,.94-4.32-1.33Z"/><path class="cls-22" d="M56.8,95.87s5.05,2.35,8.48,2.45c3.43,.1,10.82-1.86,12.15-4.29h.43s-1.48,3.08-8.08,4.21c-5.75,.81-6.34,.53-12.95-1.98l-.02-.38Z"/><path class="cls-22" d="M55.32,98.24s8.4,4.1,16.76,1.81v-.24s-6.7,2.16-16.52-1.84c-.12,.32-.25,.27-.25,.27Z"/><path class="cls-22" d="M78.05,94.05s-.34,1.64-.84,2.11l-.32,.06s1.02-1.69,.81-2.1c.1-.02,.36-.08,.36-.08Z"/><path class="cls-22" d="M72.21,97.46s-.86,2.32,.35,4.23c1.05,1.77,2.03,.27,3.9,.7,1.88,.43,4.94,1.38,8.48,2.9,3.54,1.52,4.3,1.17,6.27,.79,1.97-.38,10.45-2.42,12.7-1.94,0,0,1.24-6.16,7.08-10.2,0,0-3.64-1.56-11.33,2.36-6.84,3.42-7.85,3.95-9.03,4.18-1.18,.23-3.74,.33-5.72-.12-1.98-.45-8.81-.26-8.81-.26,0,0,1.12-1.73,1.14-1.91l-.43,.27-1.24,1.92s6.06-.14,9.18,.3c3.12,.44,4.88,.47,7.4-.31,2.39-.92,8.36-4.29,10.37-4.97,2.02-.68,6.01-1.82,7.62-1.27,0,0-5.07,3.65-6.48,9.51-2.11,.17-7.2,.67-11.47,1.9-3.38,.75-4.33,.49-6.83-.48-2.56-.95-6.32-2.63-9.72-3.08-1.54,.05-2.2,.66-2.88-.59-.68-1.25-.44-3.45-.25-4.09l-.3,.16Z"/><path class="cls-22" d="M73.02,97.2s.63,2.42,1.61,2.46c.99,.03,1.79-.96,3.51-1.75,1.72-.79,10.21-5.56,11.96-6.43,1.75-.88,6.5-3.26,10.52-3.58,4.02-.32,5.34-.4,6.15-1.82,.81-1.41,4.49-9.53,3.59-14.82-.53,.66-1.27,4.06-6.95,8.48-4.2,2.59-6.05,2.95-7.03,3.4-.98,.45-5.28,1.52-11.01,6.17,0,0-4.98,4.68-8.04,6.65-1.44,.66-1.48-.12-1.48-.12l-.33,.26s.79,.82,1.95,.15c1.15-.67,6.07-4.94,8.06-6.59,1.99-1.64,6.59-4.8,10.52-6.01,0,0,9.13-2.38,13.73-10.3,0,0,1.04,2.86-3.35,12.63,0,0-.71,1.02-5.22,1.5-4.51,.47-6.51,1.11-10.47,3.17,0,0-11.78,6.21-14.79,8.15-1.42,.62-1.86,.79-2.59-1.77l-.36,.2Z"/><path class="cls-22" d="M95.62,88.99s2.76,1.48,3.62-1.02l-.46,.09s-.12,1.74-2.75,.77c-.32-.02-.42,.17-.42,.17Z"/><path class="cls-22" d="M93.54,89.71s1.83,.94,2.41,.86c.58-.08,1.41-.84,1.53-1.25,.18-.06,.35-.07,.35-.07,0,0-.71,1.49-1.87,1.64-1.17,.02-2.74-1.01-2.74-1.01l.32-.17Z"/><path class="cls-22" d="M98.04,77.93s1.46-.34,3.09,.86c1.04,.88,.46,2.28,.46,2.28l-.24,.09s.89-2.87-3.31-2.91c.12-.13,.01-.31,.01-.31Z"/><path class="cls-22" d="M97.55,81.72s1.33,.39,1.41,.56l-.37,.25s-.76-.42-1.18-.51c.05-.23,.15-.3,.15-.3Z"/><path class="cls-22" d="M94.48,78.72s.05,2.62,.77,3.03c.73,.41,2.18,.39,2.27-.53,.09-.91,.74-2.96-.01-3.76-.75-.81-2.13-.79-2.66-.6-.53,.19-2.06,1.59-2.6,2.83l.12-.8s1.56-2.79,3.42-2.49c1.86,.3,2.52,.87,2.43,2.34-.09,1.48-.45,3.21-.86,3.55-.52,.26-4.08,.49-2.89-3.57Z"/><polygon class="cls-22" points="95.74 82.17 95.27 83.72 94.88 83.82 95.44 82.03 95.74 82.17"/><path class="cls-22" d="M92.48,83.95s-.88-2.47-.54-3.36l-.43,.97s.27,1.93,.97,2.4Z"/><path class="cls-22" d="M96.1,80.34c-1.03,.11-1,.79-1,.79,.09,.42,1.16,.68,1.7,.53,.35-.47,.26-1.27-.71-1.32Zm-.65,.71s.09-.42,.63-.36c.54,.06,.66,.31,.55,.59s-.93,.15-1.18-.23Z"/><path class="cls-22" d="M91.05,85.71s-.49-1.9,1.77-7.04c0,0-1.79,.67-4.61-.65,.11-.38-.44-.8-1.01-.51-.56,.28-2.41,2.9-2.93,5.83-.52,2.93,.41,4.86,.75,5.48,.29,.35,.82-.12,.85-.21-.01,.03,.4,.15,.4,.15l.19-.14-.39-.18s-.4-1.59-.44-1.95c0,0-.18,1.23,.03,1.91-.14,.19-.49,.28-.69-.5-.2-.78-1.15-3.16,.28-6.82,.81-1.99,1.95-3.36,2.35-3.31,.41,.04,.34,.23,.29,.35s-2.87,2.73-2.19,5.44c0,0-.01-2.81,2.47-5.23,1.41,.45,1.95,.72,2.97,.82,0,0-1.32,.99-1.48,1.42,0,0,2.07-1.52,2.23-1.46s.28,0,.28,0c0,0-1.88,4.33-1.43,6.71l.31-.09Z"/><polygon class="cls-22" points="85.2 77.42 86.95 78 86.6 78.29 85.13 77.71 85.2 77.42"/><polygon class="cls-22" points="82.79 87.42 84.68 87.74 84.78 88.02 82.77 87.77 82.79 87.42"/><path class="cls-22" d="M86.05,71.98s.05,3.74-.88,6.17c-.91,2.37-1.56,3.18-1.81,3.83s-1.15,3.02-1.15,3.02l-.23-.15s1.03-4.29,1.02-8.26c0,0,.31,3.81,.13,5.14,.55-.71,2.88-5.12,2.61-9.61l.3-.14Z"/><path class="cls-22" d="M82.22,84.51s2.06,2.87-.34,4.44l-.05-.23s1.12-.46,.88-2.27c-.41-1.28-.71-1.6-.71-1.6l.23-.34Z"/><path class="cls-22" d="M80.52,76.11s-1.86,5.11-7.68,8.96c-1.31-.73-7.6-5.84-9.4-7.07l.87,.11s6.76,5.35,8.54,6.36c.85-.49,4.57-2.94,7.11-8.08l.56-.28Z"/><path class="cls-22" d="M60.18,76.38s2.5,5,2.98,6.27c.48,1.27,1.87,4.81,5.43,8.3,1.66,1.49,1.62,1.41,1.65,1.63,.02,.22,.62,.69,.9,.79s6.29,1.31,9.15,.54l.46-.39s-1.22,.74-8.13-.16c-.75-.07-1.99-.32-2.18-1.13-.53-.48-3.35-3-5.15-6.02-1.8-3.02-1.65-3.88-2.68-5.67-1.02-1.78-1.85-3.81-1.85-3.81l-.57-.35Z"/><path class="cls-22" d="M63.28,77.77s1.78,4.1,2.38,5.52c.6,1.42,1.72,4.19,5,6.81l.02-.34s-2.64-2.35-3.9-4.92c-1.26-2.58-2.71-5.78-2.88-6.65-.28-.28-.62-.41-.62-.41Z"/><path class="cls-22" d="M63.74,78.43s-1.52,.88-1.96,.82l-.26-.34s1.54-.45,2.11-.66c.19,.07,.11,.18,.11,.18Z"/><path class="cls-22" d="M62.58,78.25s-.85,.32-1.18,.23c-.19-.25-.11-.36-.11-.36,0,0,1,.05,1.29,.13Z"/><path class="cls-22" d="M63.67,80.34s-1,.43-1.22,.36c-.15-.16-.21-.39-.21-.39,0,0,.86-.03,1.43,.04Z"/><path class="cls-22" d="M64.08,82.92c-.2-.01,1.23,.18,1.41-.29l-.09-.32s-.97,.62-1.31,.6Z"/><path class="cls-22" d="M67.96,89.52s1.04-.53,1.22-.92l-.29-.35s-.52,.93-.93,1.27Z"/><path class="cls-22" d="M70.04,90.25s-.91,.75-1.25,.63l-.19-.14s1.1-.4,1.44-.48Z"/><path class="cls-22" d="M69.37,91.48s1.18-.23,1.31-.6l.08-.22s-1.36,.55-1.5,.64c-.08,.11,.11,.18,.11,.18Z"/><path class="cls-22" d="M70.46,90.06s0-1.16,.59-2.63c.58-1.47,.8-2.16,1.79-2.18,.99-.02,1.41,.84,1.33,1.06s-1.37,2.94-1.52,3.44c-.15,.51,1.21,.73,1.08,1.17-.07,.29,2.22-.41,2.97-1.18,.75-.78,1.22-1.76,2.03-1.21,.82,.55,.52,1.92-.19,2.6-.71,.68-4.2,1.75-5.44,1.99-.37,.32-.4,.41-.4,.41l-.34-.13s.3-.34,.56-.46c.25-.12,2.89-.69,4.81-1.7,1.17-.59,1.46-1.46,1.07-2.24-.29-.46-.65-.34-1.03,.04-.39,.38-.46,.39-.43,.58,.04,.19,.52,1.07,.36,1.29,0,0-.6-1.03-.79-1-.19,.04-1.73,1.15-2.06,1.2-.07,.19,.36,.73,.24,.97,0,0-.47-.74-.64-.73,0,0,.05,.9-.1,.84,0,0-.36-.55-.25-.83-.15,.12-.13,.83-.29,1.05-.15,.22-1.1,.51-1.66,.3,.35-.19,.26-.22,.26-.22,0,0,1.02,.1,1.2-.4s.13-1.01-.48-1.44c-.65-.34-.9-.61-.76-.98s1.41-2.96,1.44-3.4c.03-.45-.76-.98-1.5-.59-.68,.42-1.88,3.84-1.46,5.26,.27,.98,.11,1.31,.3,1.38s.41,.33,.41,.33c0,0-.72-.13-.8-.51-.07-.38-.24-1.43-.29-2.07Z"/><path class="cls-22" d="M72.23,88.71s-1.12-.66-1.08-1.17c-.17,.36-.27,.74-.27,.74,0,0,1.06,.46,1.35,.43Z"/><path class="cls-22" d="M72.21,89.23s-1.27-.26-1.39-.62c-.04,.3-.09,.42-.09,.42,0,0,1.02,.38,1.47,.2Z"/><path class="cls-22" d="M71.58,90.65s-.83-.24-.9-.79c-.06,.44,.08,.56,.08,.56,0,0,.45,.48,.83,.24Z"/><path class="cls-22" d="M69.91,91.93s1.28-.23,1.63-.59c.35-.36,.6-.38,.6-.38l.29-.98,.25,.27-.24,.75h.18s.35-.58,.35-.58l.2,.11-.21,.56s.15,.27,.08,.45-.76,1.76-1.45,1.82c-.37-.14-.44-.23-.44-.23,0,0,1.04-.35,1.51-1.41,.18-.49-.33-.62-.45-.41-.11,.2-1.57,1.1-2.03,.93-.15-.16-.27-.31-.27-.31Z"/><path class="cls-22" d="M75.26,92.37s1.34,.85,4.75-.38c1.02-.47,1.26-2.35,1.91-2.49,.65-.14,.51,2.12,.08,2.91l.46-.29s.56-2.64-.43-3.01c-.93-.06-1.29,1.67-1.61,2.18-.33,.51-3.58,1.41-4.6,.86-.3,.24-.54,.22-.54,.22Z"/><path class="cls-22" d="M81.58,91.05s.61,.72,.41,1.35l-.29,.31s-.82-1.11-1.25-1.27c.26-.22,.26-.32,.26-.32,0,0,.91,.58,.91,.97,.02-.24-.01-.92-.04-1.03Z"/><path class="cls-22" d="M78.68,92.26s.31,1.17-.08,1.73l-.26-.06s.18-1.16,.06-1.59l.27-.07Z"/><path class="cls-22" d="M77.65,92.48s-.06,.93-.32,.97c0,0,.08-.88-.1-.95,.29-.03,.43-.02,.43-.02Z"/><path class="cls-22" d="M76.65,92.42s.01,1.2-.34,1.49l.29-.03s.52-1.04,.4-1.36c-.24-.02-.35-.1-.35-.1Z"/><path class="cls-22" d="M47.95,65.39s1.38,1.12,.57,3.72l-.27,.15s.83-2.32-.57-3.72l.27-.14Z"/><path class="cls-22" d="M46.49,66.22s.54,2.24-.75,3.99c-1.06,1.27-3.44,2.11-4.35,1.62,0,0,.36,1.32,1.01,1.56l.21-.16s-.6-.44-.75-.95c.42,0,2.39-.18,4.09-1.9,1.28-1.63,.94-3.86,.79-4.28-.12-.01-.26,.12-.26,.12Z"/><path class="cls-22" d="M46.65,68.41s1.37,.26,1.82,.52l.07-.34s-1.41-.55-1.8-.49c-.1,.18-.08,.3-.08,.3Z"/><path class="cls-22" d="M47.53,67.61s1.03,.44,1.09,.59v-.4s-1.01-.34-1.09-.19Z"/><path class="cls-22" d="M34.32,87.62s-.94-1.38-1.06-2.05c-.12-.67-.61-1.47-.4-2.05-.22-.74-.42-1.77-.19-2.39-.29-.77,.18-1.26,.35-1.61-.05-.43,.1-1.82,.48-2.42-.38-.43-.09-1.44,.04-1.68-.15-.26-.27-.72-.18-.98-.12-.34-.43-1.85-.37-2.45-.31-.4-.79-2.11-.78-2.81-.37-.55-1.28-2.34-1.53-2.8-.47-.18-.99-.78-1.37-1.33-.46-.54-2.7-1.74-3.14-2.11-.44-.37-1.74-.89-2.37-1.42-.7-.46-.76-.28-1.07-.35-.3-.07-.92-.3-1.35-.38-.43-.08-2.25,.04-2.95-.18-.63,.02-3.38,.52-4.56,.25-.73,.31-3.5,1.31-4.39,1.02-.89-.29-1.79-.62-2.65-.98-.86-.36-1.44-.7-1.18-.93,.25-.24,.39-1.05,.67-1.24,.13-.24,.3-1.04,.54-1.45,.23-.41,.76-1.04,1.37-1.35,.19-.84,1.8-2.64,5.19-2.62,3.24-.49,8.36-.13,10.53,.93,1.33,.99,.35,.83,1.73,1.34l-.37,.32s-.32-.37-.52-.27c-.2,.09-1.06,.31-1.06,.31,0,0,.55-.58,.76-.59,.21,0-.55-.29-1.46,.16,.24-.32,.6-.85,.85-.72,.24,.13-.27-.27-.58-.22-.31,.05-1.41,.14-2.05,.52-.12-.13,.85-.96,1.19-.88,.12-.2-.86-.36-1.1-.37-.25,0-1.25-.09-1.45-.21-.2-.12-1.77,.09-2.34-.04-.65-.03-1.39-.14-1.91-.09-.52,.06-2.18,.19-3.44,.92-.14-.63,.47-.82,.47-.82,0,0-1.95,.14-3.06,1.35-.89,.83-2.1,1.87-2.34,2.52-.37,.65-1.27,2.54-1.08,2.7,.19,.15,2.79,1.28,3.66,1.4,.87,.11,3.41-.72,3.99-.96,.58-.24,1.43,.16,2-.04,.57-.2,1.84-.06,2.29-.14,.44-.08,2.39,.14,2.94,.1,0,0,1.17,.19,1.74,.32,.57,.13,1.88,1.07,2.1,1.15s2.23,1.12,2.75,1.6c.65,.37,1.93,1.25,2.5,1.96,.6,.72,.92,.96,1.28,1.67,.36,.71,1.14,1.83,1.26,2.29,.12,.46,.16,1.34,.46,1.78,.29,.44,.22,1.65,.34,2.32,.13,.67,.48,1.5,.3,2.09-.18,.59,.1,1.4-.01,1.81-.11,.41-.55,2.03-.7,2.67-.16,.64-.08,1.33-.08,1.79,0,.45,.12,1.7,.19,2.18,.07,.48,.9,2.48,1.2,2.89l-.06,.6Z"/><path class="cls-22" d="M34.3,84.1s-.41,1.88-.31,2.41l-.42-.65s.18-1.05,.73-1.75Z"/><path class="cls-22" d="M34.35,81.19s-1.26,2.84-1.03,4l-.34-1.08s.19-1.96,1.37-2.92Z"/><path class="cls-22" d="M35.09,79.64s-1.24,.78-1.47,1.4c0,0,0-1.53,1.47-1.4Z"/><path class="cls-22" d="M34.23,78.37s-.91,.78-1.06,.97c-.2-.24,.1-.5,.1-.5,0,0,.56-.62,.96-.47Z"/><path class="cls-22" d="M34.36,75.82c-.04,.13,.9-.99,1.23-.87,0,0-.87-.45-1.23,.87Z"/><path class="cls-22" d="M34.97,73.27s-1.28,1.67-1.31,2.08l-.16-.68s.93-1.27,1.47-1.4Z"/><path class="cls-22" d="M35.09,72.16s-1.44,1.66-1.6,2.09l-.16-.47s1.08-1.46,1.76-1.62Z"/><path class="cls-22" d="M34.61,71.9s1.68-.95,2.11-.79c0,0-1.18-.73-2.11,.79Z"/><path class="cls-22" d="M35.68,70.35s-1.58,.82-1.75,1.71c0,0,0-1.99,1.75-1.71Z"/><path class="cls-22" d="M35.15,69.66c.13,.04-1.82,1.68-1.99,2.57-.16,.89-.14-.63-.14-.63,0,0,1.2-2.24,2.12-1.94Z"/><path class="cls-22" d="M36.8,77.59s1.14,.5,1.11,.79l.32-.3s-.92-.75-1.43-.49Z"/><path class="cls-22" d="M36.09,76.83s2.36,.21,2.47,.92l.37-.32s-1.54-1.31-2.84-.6Z"/><path class="cls-22" d="M32.66,67.79s-.28,1.09-.28,1.43l-.32-.57s.16-.77,.6-.85Z"/><path class="cls-22" d="M31.78,66.26s-.09,1.46,.02,1.83l-.37-.55s0-.99,.35-1.28Z"/><path class="cls-22" d="M31.17,64.55s-.28,1.88-.1,2.28l-.4-.6s.13-1.57,.28-1.88c.16-.1,.21,.2,.21,.2Z"/><path class="cls-22" d="M30,64.47s.36,1.31,.43,1.5l-.39-.21s-.36-1.12-.04-1.28Z"/><path class="cls-22" d="M28.13,63.19s.16,.9,.53,1.11c0,0-.52-.19-.63-.33-.11-.14-.07-.57,.1-.78Z"/><path class="cls-22" d="M26.42,62.04s.29,1.05,.41,1.16l-.38-.24s-.31-.8-.03-.93Z"/><path class="cls-22" d="M24.44,61.05s.67,1.11,1.15,1.32l-.63-.21s-.62-.86-.53-1.11Z"/><path class="cls-22" d="M23.17,59.8s.7,1.6,1.06,1.82l-.6-.34s-.59-1.13-.46-1.48Z"/><path class="cls-22" d="M22.22,59.71s.76,1.24,.92,1.32c0,0-1.07-.14-.92-1.32Z"/><path class="cls-22" d="M20.7,58.04s.9,1.5,1.22,1.65c0,0-1.38-.25-1.22-1.65Z"/><path class="cls-22" d="M18.66,56.98s.61,1.84,.97,2.12c0,0-1.37-.79-.97-2.12Z"/><path class="cls-22" d="M19.71,59.76s1.35,.55,1.78,.94l-.52-.05s-.88-.54-1.26-.89Z"/><path class="cls-22" d="M17.79,57.31s.81,1.99,1.1,2.1c0,0-1.82-1.17-1.1-2.1Z"/><path class="cls-22" d="M15.01,58.93s1.41,.87,1.73,.83c.31-.07,.64-.21,.75-.12,.11,.09,1.25,.79,1.44,.86h-.47s-.85-.54-1.26-.43c-.41,.1-2.31-.79-2.18-1.14Z"/><path class="cls-22" d="M14.45,59.41c-.03-.08,1.82,1.22,2.27,1.22l-.69,.03s-1.38-.65-1.58-1.24Z"/><path class="cls-22" d="M13.58,57.79s.07,1.34,.43,1.94c0,0-1.3-.91-.43-1.94Z"/><path class="cls-22" d="M12.36,58.16s1.31,2.29,1.63,2.5l-.28,.18s-1.7-2.06-1.35-2.68Z"/><path class="cls-22" d="M11.56,58.69s1.25,1.12,1.67,1.37l.3,.2s-1.83-.19-1.97-1.57Z"/><path class="cls-22" d="M9.91,59.72s2.32,1.19,3.28,1.21l-.37,.24s-2.4-.35-2.91-1.45Z"/><path class="cls-22" d="M9.28,60.33s1.39,.87,2.5,1.04l-.49,.24s-1.57-.32-2.01-1.28Z"/><path class="cls-22" d="M8.08,60.23s1.91,1.41,2.5,1.42l-.74,.15s-1.47-.85-1.76-1.57Z"/><path class="cls-22" d="M8.35,59.05s-2.01,.75-2.39,1.08l.12-.38s1.18-.85,2.28-.7Z"/><path class="cls-22" d="M9.1,57.85s-2.56,.83-2.81,1.33l.29-.64s1.3-.74,2.53-.68Z"/><path class="cls-22" d="M10.65,56.52s-3.54,1.15-3.89,1.58c.26-.33,.25-.68,.25-.68,0,0,2.93-1.33,3.64-.9Z"/><path class="cls-22" d="M11.03,55.82s-2.7,.45-3.45,.95l.51-.56s1.74-.83,2.93-.39Z"/><path class="cls-22" d="M10.69,54.89s-1.86,.86-2.03,.68c.1-.22,.47-.44,.47-.44,0,0,1.59-.42,1.57-.24Z"/><path class="cls-22" d="M14.59,54.11s-1.92,.51-2,1.53c0,0,.92-1.02,2-1.53Z"/><path class="cls-22" d="M14.56,55.09s2.95-1.25,3.7-1.63l-.49-.18s-2.61,1.23-3.2,1.81Z"/><path class="cls-22" d="M16.45,53.33s-1.59,1.33-1.72,1.92c0,0,.43-1.29,.83-1.8,.4-.51,.89-.12,.89-.12Z"/><path class="cls-22" d="M16.24,55.17c.01,.08,1.29-.88,1.98-.84,0,0-2.11-.24-1.98,.84Z"/><path class="cls-22" d="M19.24,55.53s1.61-1.18,2.12-1.04c0,0-1.87-.46-2.12,1.04Z"/><path class="cls-22" d="M38.8,70.68s.59,2.79,0,4.35c.05,.91-.28,1.36-.37,1.61,0,0,.17,.48,.09,.7,0,0-.61-1.27-1.56-1.53,.39-.2,1.1,.22,1.33,.36,.09-.25,.1-1.3-.08-2.26,.15,.18,.42,.32,.41,.53,0,0,.39-.97-.25-2.16,.08-.03,.32,.09,.32,.09,0,0-.03-1.22-.37-1.82,.23,.15,.49,.12,.49,.12Z"/><path class="cls-22" d="M41.74,72.19s-2.76-1.05-3.06-1.26l.12-.24s2.69,1.15,3.03,1.25l-.09,.25Z"/><path class="cls-22" d="M35.81,66.94s.53,3.02,2.7,3.86c0,0,1.88,.16,2.63-.33v-.25s-2.49,.79-3.6-.41c-.9-1.16-1.35-2.28-1.4-2.65l-.33-.22Z"/><path class="cls-22" d="M40.82,68.06s-1.49,.85-1.99,.66-10.08-5.29-12.19-6.71c.55,.05,.91,.11,.91,.11,0,0,10.6,5.93,11.28,6.25,.51,.09,1.9-.6,1.9-.6l.09,.29Z"/><path class="cls-22" d="M41.06,63.29l-10.72-6.99-.17-.41s10.3,6.42,10.99,7.12l-.1,.28Z"/><path class="cls-22" d="M28.99,54.98c-1.9-.7-4.02,.31-4.74,2.26s.23,4.1,2.13,4.81,4.02-.31,4.74-2.26-.23-4.1-2.13-4.81Zm-2.49,6.73c-1.72-.64-2.58-2.58-1.92-4.35s2.58-2.68,4.3-2.05,2.58,2.58,1.92,4.35-2.58,2.68-4.29,2.05Z"/><path class="cls-22" d="M39.48,62.14s1.22-.5,1.88-.3l.04-.33s-1.89-.01-2.07,.35c-.08,.1,.16,.27,.16,.27Z"/><path class="cls-22" d="M49.35,65.06s-6.6,2.48-7.87,6.84c0,0-1.22-1.83-.93-6.56,.29-4.73,1.92-8.57,6.32-12.03,0,0-8.14-4.83-15.56,2.26,0,0,1.62-6.82,7.21-10.96,5.44-3.85,8.79-2.74,8.79-2.74,0,0-4.25-5.54-4.56-12.14-.32-6.59,1.34-14.44,6.55-20.1,4.16-4.59,5.46-5.06,5.46-5.06,0,0-5.65,7.66,1.21,21.9,0,0,2.7-13.86,17.03-22.02,6.42-3.78,13.91-4.44,13.91-4.44,0,0-9.08,7.37-9.98,23.68,0,0,12.29-14.13,27.72-11.52,0,0-11.85,4.88-16.74,21.18,.86,.25,6.24,2.88,6.57,10.06,1.07-.3,10.26-2.3,14.38-10.17,0,0-1.14,11.14-8.67,16.54,1.01-.33,13.85-2.74,21.65,4.15,0,0-14.62-1.35-25.61,8.24,0,0,5.54-.04,9.71,3.28,0,0-6.09-1.56-13.73,2.41,2.64,.6,4.52,.66,5.86,2.36,0,0-5.21-.85-10.43,.71l.81-.65s4.47-1.06,8.52-.59c0,0-.12-.62-5.46-1.64,0,0,5.47-4.28,12.97-3.07,0,0-2.95-2.4-9.32-2.34,0,0,2.69-3.31,10.84-6.74,8.08-3.23,14.91-2.28,14.91-2.28,0,0-3.51-3.49-13.06-4.15-6.07,.09-8.8,.93-8.8,.93,0,0,4.18-3.41,6.11-6.84,1.74-3.35,2.94-7.94,2.94-7.94,0,0-5.23,6.63-13.96,8.32,.11-1.11-.62-8.07-6.55-10.31,.3-2.46,2.8-8.69,6.45-13.25,3.65-4.56,8.01-7.41,9.34-7.99,0,0-4.76-1.46-14,2.61-8.02,4.02-11.97,8.86-12.78,9.9,0,0-.22-6.04,2.09-12.37,2.31-6.33,5.14-10.05,6.88-11.82,0,0-6.65,.42-14.84,5.61-6.89,5.02-10.15,10.27-11.04,11.85-.9,1.59-3.49,7.66-3.41,9.3,0,0-2.29-3.46-3.33-8.11-1.04-4.65-1.04-8.49,.51-13.41-1.36,1.19-6.46,5.91-8.69,12.15-1.81,5.51-1.69,10.9-1.56,12.18,.14,1.28,1.34,6.95,4.65,11.83,0,0-6.21-1.3-12.44,6.19-2.19,2.8-3.34,6.22-3.34,6.22,0,0,6.59-6.59,15.29-1.13,0,0-4.77,3.65-5.97,9.05-1.19,5.4,.07,8.1,.02,8.46,.24-.45,1.79-3.75,7.87-6.07l.08,.25Z"/><path class="cls-22" d="M40.08,16.54s-2.03,8.21,1,15.8c3.02,6.57,5.28,7.58,5.28,7.58l.11,.53s-2.64-.93-6.09-8.94c-2.92-8.95-.22-14.58-.3-14.96Z"/><path class="cls-22" d="M105.44,23.93s-3.72-.7-9.22,1.95c-4.76,2.31-7.55,6.17-8.5,7.62l.22-.87s2.43-4.16,8.01-7.05c5.59-2.89,9.41-1.84,9.48-1.65Z"/><path class="cls-22" d="M102.86,36.56s-5.26,5.66-7.85,6.88c-.32,.12-.45,.04-.45,.04,0,0,6.11-5.11,8.3-6.91Z"/><path class="cls-22" d="M113.32,61.06s-2.38-2.28-9.3-1.31c-4.41,.71-7.4,2.01-7.68,1.94,.5-.26,.74-.54,.74-.54,0,0,12.59-4.54,16.24-.1Z"/><path class="cls-22" d="M53.61,60.84s2.36,.77,2.95,.92c0,0-3.73-4.78-3.39-10.56,.91,1.66,1.71,4.47,5.23,5.95,0,0-3.84-5.4-.94-14.04,0,0,.16,9.2,5.83,12.96,0,0-2.85-9.28,8.12-17.41-.33,1.02-3.34,8.24,2.24,15.56,0,0-1.83-6.49,7.35-15.34,0,0,5.5,4.18,4.46,10.33-1.09,3.98-3.15,6.17-3.15,6.17,0,0,4.08-1.49,6.2-3.61,0,0,0,3.48-3.61,7.43,0,0,1.51,.04,2.8-.49l-.27,1.38,.4-.42,.17-1.37s-2.07,.57-2.32,.62c.66-.76,3.88-5.19,2.86-7.85,0,0-1.81,2.19-5.18,3.56,1.17-1.62,3.38-4.99,2.37-9.61-1.24-3.84-4.24-6.43-4.83-6.65-.7,.36-5.18,4.85-6.56,8.58-1.26,3.53-1.22,5.74-1.22,5.74,0,0-2.6-3.92-2.41-8.8,.54-4.28,1.34-5.79,1.34-5.79,0,0-2.14,.64-5.08,3.93-2.94,3.3-5.4,9.43-4.2,13.26-.59-.6-3.91-2.83-5.26-13.05,0,0-3.61,7.05,.15,14.26,0,0-1.1-.12-4.72-6.04,0,0-1.15,4.53,2.95,10.81-1.34-.5-2.34-.77-2.34-.77l.06,.35Z"/><path class="cls-22" d="M70.96,38.87s-4.31,6.22-2.61,14.38c0,0-1.95-4.39,.36-10.49,1.64-3.78,1.82-3.76,1.82-3.76l.43-.13Z"/><path class="cls-22" d="M85.32,57.06s2.32-2.14,3.31-4.82l-.11-.47s-1.81,3.47-3.2,5.29Z"/><path class="cls-22" d="M74.68,58.12s3.37-3.56,7.1-.51c3.4,3.31,.71,7.6-1.07,8.28-1.32,.47-1.58,.41-1.92,.43,0,0,4.42-.98,4.21-5.3-.52-3.34-3.44-5.9-8.32-2.89Z"/><path class="cls-22" d="M65.99,58.05s-3.55-1.22-5.76,2.44c-.93,2.37-1.13,6.64,3.85,6.96,0,0-2.1,.79-4.04-1.45-.76-1.28-1.5-3.8,.61-6.78,1.84-2.27,5.25-1.82,5.34-1.17Z"/><path class="cls-22" d="M53.93,66.16s1.11-.54,1.18-.99c.07-.45-.93-3.78-1.56-4.67-.62-.9-2.22-2.87-3.83-.08-1.39,2.58-.6,4.83-.18,6.41,.41,1.58,3.12,6.88,8.07,5.99l-.16-.34s-3.86,.76-6.46-3.54c-1.65-3-2.2-6.15-.9-8.38,.87-1.2,1.86-1.55,2.66-.49,.8,1.06,2,3.98,1.88,4.7-.12,.72,.19,.26-.71,1.4Z"/><path class="cls-22" d="M51.51,65.41s-.38-2.42,.53-3.59c.78-.85,2.2,1.85,2.22,2.23,0,0-1.33,1.05-1.51,2.36-.18,1.31,.84,4.87,4.03,4.58l-.09-.2s-2.35-.07-3.29-2.33c-.67-2.16-.11-2.79,1.26-4.29,0,0-.81-2.78-2.47-2.83-1.51,0-1.24,3.8-.67,4.07Z"/><path class="cls-22" d="M52.02,64.56c-.08,.04,1.49,.05,1.77-1.79l-.22-.41s-.32,1.59-1.55,2.21Z"/><path class="cls-22" d="M53.81,69.52s1.78,.16,2.73,.58l-.11-.34s-1.4-.65-2.76-.42l.13,.18Z"/><path class="cls-22" d="M55.89,67.87s.99,2.48,1.45,4.05c.46,1.58,1.72,3.86,4.04,4.92,2.32,1.06,9.33,2.95,10.65,2.74,1.32-.21,4.13-.85,8.72-3.91,3.58-2.6,3.02-2.37,3.02-2.37,0,0,1.37-3.15,1.75-5.62,0,0,.31,2.16-1.67,5.95-1.34,1.62-5.45,4.12-9.66,5.9-2.56,.66-3.04,.78-11.89-1.93-3.71-1.84-3.77-2.2-5.31-5.49-.89-2.31-1.1-4.26-1.1-4.26Z"/><path class="cls-22" d="M70.53,68.61s.41-.92,1.07-1.08c.66-.06,1.41,.45,1.49,.69,0,0-.38-1.32-1.5-1.02-1.05,.31-1.04,.99-1.06,1.42Z"/><path class="cls-22" d="M59.52,69.29s1.31-1.09,3.84-1.06c0,0-2.92-.71-3.84,1.06Z"/><path class="cls-22" d="M58.53,69.09s1.53-.97,3.06-1.28c0,0-2.49,.02-3.06,1.28Z"/><path class="cls-22" d="M57.55,69.19s1.3-1.26,2.6-1.42c0,0-1.94-.45-2.6,1.42Z"/><path class="cls-22" d="M80.63,67.49s2.06-1.04,3.2-.76c0,0-2.25-.9-3.2,.76Z"/><path class="cls-22" d="M79.53,67.66s.95-1.02,2.9-1.31c0,0-2.78-.09-2.9,1.31Z"/><path class="cls-22" d="M78.19,67.93s1.04-1.19,2.55-1.47c0,0-2.61,.07-2.55,1.47Z"/><path class="cls-22" d="M69,63.11c-.18,.88-.89,1.48-1.59,1.34-.7-.14-1.11-.98-.93-1.86,.18-.88,.89-1.48,1.59-1.34,.7,.14,1.11,.98,.93,1.86Z"/><path class="cls-22" d="M76.09,62.65c.03,.9-.52,1.65-1.24,1.67-.71,.02-1.31-.69-1.34-1.59-.03-.9,.53-1.65,1.24-1.67,.71-.02,1.31,.69,1.34,1.59Z"/><path class="cls-22" d="M73.96,52.77s1.17-8.06,7.65-3.47c1.05-.88,1.74-1.9,1.74-1.9,0,0-2.85-4.27-6.74-1.29-1.94,1.46-2.8,4.6-2.65,6.66Z"/><polygon class="cls-22" points="82.2 49.21 82.25 50.38 84.07 48.08 83.76 48.09 83.71 47.41 83.19 48.67 83.01 48.48 82.53 49.63 82.2 49.21"/><path class="cls-22" d="M67.39,52.52s-1.14-4.61-3.24-5.33c-.41,.94-.71,1.92-.71,1.92,0,0,2.75,.77,3.95,3.41Z"/><path class="cls-22" d="M59.18,50.44l-.75,1.36-.55-1.48-.14,2.19-.99-2.07,.61,.65-.43-1.62,.76-.08-.35-.86,.43,.16,.41-1.43s.78,2.65,1.01,3.16Z"/><path class="cls-22" d="M86.43,62.68s.44-3.17,2.39-3.96c1.94-.78,3.82,.57,3.41,4.35-.66,3.57-2.77,8.77-8.17,9.77l.23-.43s2.41-.46,4.94-3.12c1.23-1.23,3.38-6.16,2.32-9.12-1.01-1.73-2.65-1.75-3.99,.28-.79,1.43-1.12,2.23-1.12,2.23Z"/><path class="cls-22" d="M89.3,64.15s-1.42-1.7-.96-2.85c-.27,.23-.39,.37-.39,.37,0,0-.14,1.97,1.36,2.48Z"/><path class="cls-22" d="M86.85,63.83c.33-.9,1.41-2.71,2.39-2.89,.66-.01,.72,1.11,.88,1.58,0,0,.35-1.52-.62-1.88-.81-.3-2.79,1.68-3.03,3.72-.04,1.49,1.28,1.9,1.28,1.9,0,0-.12,3-2.75,4.04l-.03,.28s1.96-.23,3.06-3.6c.32-1.35,.05-2.7-1.18-3.15Zm.05,.27s1.04,.75,.86,1.75c-.43-.01-1.13-1.3-.86-1.75Z"/><path class="cls-22" d="M85.2,69.67s1.07-.81,1.59-.62l.24-.24s-1.04-.46-1.71,.47c-.07,.19-.11,.4-.11,.4Z"/><path class="cls-22" d="M82.18,84.7s-1.33-2.4-4.62-1.24c-2.09,.91-3.83,4.93-2.63,7.51,.44-.25,.7-.44,.7-.44,0,0-.78-1.91,.25-4.1,1.09-2.17,2.59-3.14,4.53-2.45,.99,.68,1.65,1.37,.86,2.64,.16,.85,.24,2.79,.24,2.79l.52-.12s-.03-1.89-.31-2.85c.23-.8,.45-1.3,.45-1.74Z"/><path class="cls-22" d="M78.04,91.33s1.1,.12,2.86-.78c0,0-.4,.99-.58,1.06-.18,.06-2.92,.6-3.42,.23,.8-.37,1.14-.5,1.14-.5Z"/><path class="cls-22" d="M80.37,89.59l-.46,.47-.62,.05,.1-.44,.79-.15s.7-1.3,.79-1.52-.82-.53-.96-.48c-.14,.04-.82,.42-1.05,.34s.07-.45,.07-.45c0,0,.81-.14,1.05-.18,.24-.04,.74-1.31,.74-1.57,0-.25-.97-.46-.91-.62s.4-.74-.16-.69c-.76,.26-1.31-.14-1.58-.11-.27,1.33-1.09,1.15-1.09,1.15,.23,.24,.44,.1,.63,.45-.09,.25-.67,.45-.72,.56s0,1.3,.07,1.52c.08,.22,.56-.24,.98-.43,.32,.09,.1,.51,.1,.51l-1.4,.53s-.16,.26-.28,.59,.65,.46,.65,.46l.87-.98,.83,.08,.25,.44-.07,1.05-.27,.63,2.24-.38,.2-.46-.78-.38Zm-1.62-3.94c-.17-.06-.09-.45,.16-.77l.34,.12s-.33,.71-.49,.64Zm.51,2.67s.33-.2,.58-.2c.26,0,.2,.23,.14,.31s-.65,.14-.72-.11Z"/><path class="cls-22" d="M71.29,126.39s2.7-3.74,4.05-4.42l.36,.18s-3.13,2.54-4,4.32c-.31-.09-.42-.09-.42-.09Z"/><path class="cls-22" d="M73.71,123.76s1.89,3.25,7.76,4.43c1.31-.73,3.13-1.91,5.52-.57-.46-1.01-1.1-2.35-1.1-2.35l.42,.02,1.12,2.52,1.63,1.64-.38,.04s-1.41-2.04-3.89-2.19c-1.54,.06-2.48,.78-3.16,1.22-.62-.05-5.95-1.19-8.11-4.57,.03-.19,.19-.2,.19-.2Z"/><path class="cls-12" d="M14.9,146.19s-.27-2.3,3.35-4.38c3.66-2.06,11.49-5.46,19.51,3.21l.39-.12s-4.54-6.05-11.98-6.04c-7.6,.55-12.77,4.95-11.27,7.32Z"/><path class="cls-12" d="M85.35,136.97s.08-6.88-9.21-10.03c-5.93-1.6-10.25-.09-12.32,2.17,.31,.07,.44,.2,.44,.2,0,0,4.24-3.97,11.33-2.03,6.45,2.05,7.99,4.92,9.77,9.68Z"/><path class="cls-12" d="M99.53,138.99s1.06-4.35-4.34-8.09c-4.84-2.6-9.05-1.82-11.7,1.29l.28,.4s4.4-5.54,11.47-1.13c3.47,2.48,3.96,5.44,4.29,7.52Z"/><path class="cls-22" d="M82.2,70.54c.43-2.15-.42-2.83-1.27-2.71-4.63,1.11-7.87,1.52-11.01,1.9-3.15,.37-6.89-.32-7.99-.03-1.1,.29-1.14,1.59-1.14,1.59,1.31,4.37,4.11,5.34,7.94,5.69,4.87-.07,7.48-.97,9.93-1.86,2.64-1.08,3.31-2.88,3.54-4.6Zm-20.11-.48c1-.22,4.22,.69,9.84-.13,5.62-.82,8.36-1.67,9.29-1.8,.89-.04,.75,1.16,.42,1.55-.33,.39-1.83,1.48-2.38,1.28,.16-.34,.32-.58,.32-.58,0,0-1.65,1.19-1.97,1.07-.13-.16,.08-.52,.08-.52,0,0-.44,.39-.88,.48-.44,.09-7.39,1.63-12.06,.67-.5-.15-.85-.28-.85-.28l-.09-.36-.26,.41s-1.13-.23-1.26-.36c0-.08,.08-.3,.08-.3l-.38,.44s-.46-.06-.81-.38c0,0-.08-.98,.92-1.2Zm14.42,3.95c-2.03,.42-7.31,.92-8.78,.93-1.47,0-2.75-.91-2.65-2.34,0,0,6.87,.67,13.87-1.2,.05,.46-.37,2.1-2.44,2.62Zm-15.32-2.41s.61,.34,1.1,.41c-.04,.31-.33,1.2-.33,1.2,0,0-.71-1.14-.76-1.6Zm18.82,2.39c-1.6,1.06-4.71,2.11-9.09,2.46-3.68,.32-6.4,.05-8.59-2.85-.03-.31,.14-1.16,.34-1.41,0,0,.52-.1,.87,.03,.25-.09,.68-.04,1.02,.31,.35,.35,.29,.7,.29,.7,0,0-1.44,.02-1.36,.6,0,0,.96-.41,1.32-.21,.32,.41,.39,1.21,2.35,1.57,1.96,.36,7.64-.62,8.67-.71s2.69-.84,3.14-1.84c.37-.01,.85,.17,.85,.17,0,0-.19-.37-.76-.54-.05-.27,.11-.8,.25-.86,.13-.06,1.25-.31,1.6-.65,.26,.1,.95,1.89-.91,3.26Zm1.72-2.59c-.23-.16-.57-.95-.57-.95,0,0,.77-.6,.88-.83,.11,.07-.17,1.67-.32,1.77Z"/><path class="cls-22" d="M37.61,59.66s3.16-5.91,8.92-5.82c0,0-5.57-1.63-8.92,5.82Z"/><polygon class="cls-22" points="48.33 66.16 49.59 66.74 49.86 67.13 48.43 66.51 48.33 66.16"/><path class="cls-22" d="M79.78,96.96s3.91,1.84,6.01,3.78l.38-.12s-3.18-2.65-6.13-3.81c-.36,.11-.27,.15-.27,.15Z"/><path class="cls-22" d="M46.64,136.35s-1.9,6.19-2.23,6.6c-.17,.08-.26,.01-.26,.01l2.17-6.62h.32Z"/><path class="cls-12" d="M65.16,154.02s.09-5.3-7.52-9.19c-7.55-3.91-13.91-2.77-20.57,.35-6.66,3.25-8.42,11.9-6.74,16.7,0,0-1.84-12.2,7.5-16.55,9.38-4.12,15.52-2.74,22.31,1.61,4.66,3.65,4.03,5.93,5.02,7.07Z"/></g></svg>