<?xml version="1.0" encoding="UTF-8"?><svg id="Capa_1" xmlns="http://www.w3.org/2000/svg" viewBox="0 0 38.03 86.45"><defs><style>.cls-1{fill:#fab900;}.cls-2{fill:#6a4c32;}.cls-3{fill:#e9e4e3;}.cls-4{fill:#eb6608;}.cls-5{fill:#e95a0c;}.cls-6{fill:#f5f9f6;}.cls-7{fill:#fffdf6;}.cls-8{fill:#fff;}.cls-9{fill:#fffced;}.cls-10{fill:#fff3d7;}.cls-11{fill:#ffcb00;}.cls-12{fill:#fcd4a4;}.cls-13{fill:#e6aa00;}.cls-14{fill:#e6af68;}.cls-15{fill:#f0d8ea;}.cls-16{fill:#9c7eb7;}.cls-17{fill:#b18417;}.cls-18{fill:#d0bbdb;}.cls-19{fill:#dee0e2;}.cls-20{fill:#b07c19;}.cls-21{fill:#cae5e0;}.cls-22{fill:#c6afd5;}.cls-23{fill:#e0efeb;}.cls-24{fill:#d4ebea;}.cls-25{fill:#ac4e18;}.cls-26{fill:#23201c;}.cls-27{fill:#1d1d1b;}.cls-28{fill:#8867a9;}.cls-29{fill:#54b1c7;}.cls-30{fill:#59aabb;}.cls-31{fill:#322619;}.cls-32{fill:#2e2a26;}.cls-33{fill:#5a2913;}.cls-34{fill:#575051;}.cls-35{fill:#81cff4;}.cls-36{fill:#5fbfed;}.cls-37{fill:#47277c;}</style></defs><path class="cls-13" d="M22.48,74.01s-.16-.02,.02,1.18c.17,1.19,.25,2.14,.59,2.79,.34,.65,.29,2.74,.26,3.04-.03,.29,.62,2.06,.62,2.06,0,0,.3-1.45,2.94-1.73,1.42-.08,2.29,.29,2.8,1.36,.12-.7-.19-1.62-.42-1.94,.24,.02,.52,0,.54-.12,.02-.12-.5-1.35-1.19-1.55,.31-.31,.46-.81,.13-1.02,.31-.5,.29-.45,.29-.53s.09-1.99-.31-2.71c.16-.11,.06-.89,.06-.89,0,0,.21,.07,.32-.25,.12-.31,.26-.96-.6-.82-.42,.67-.85,1.09-.98,1.1,.04-.38-.18-.8-.52-.77-.34,.03-1.33,.46-2.64,.67-1.31,.21-1.91,.13-1.91,.13Z"/><path class="cls-13" d="M7.42,80.62s1.07-.32,1.58-.37c.51-.06,2.31-.1,2.31-.1,0,0,.54-1.15,.56-1.21,.02-.06,.19-.88,.4-.95s.71-.21,.77-.23c.06-.01,.59-.32,.46-.91,.26-.6,.45-.8,.43-.99-.02-.19,.49-1.49,.69-1.84,.2-.35,.43-.87,.42-1.02,0-.15-.23-.27-.28-.27-.13,.11-.32,.19-.32,.19,0,0-1.21,.04-1.42,.04s-1.47-.06-1.47-.06c0,0,.04-.49-.18-.7-.22-.21-1.54-.18-1.54-.18l-1.95-.15-.61-.14-.15,1.63s-.02,1.1-.03,1.07c0-.04-.21,.73-.21,.73,0,0-.39-.19-.38-.19,0,0-.02,.47-.08,.56-.05,.11-.25,.23-.22,.7-.26,.08-.45,.16-.45,.16,0,0-.92,.14-1.31,1.01,.31,.06,.5,.15,.5,.15l-.18,.36s1.18,.32,1.85,1.13c.66,.81,.81,1.58,.81,1.58Z"/><path class="cls-8" d="M27.73,85.63s-.25,.1-1.06-.06c0,0-.07,.66,.52,.76,.6,.11,.69,.01,1.51-.74,1.22-1.06,1.16-2.43,1.16-2.43-.5,.74-1.32,1.91-2.13,2.47Z"/><path class="cls-2" d="M23.9,83.1s.29-1.11,2.01-1.59c1.03-.25,2.72-.24,2.96,.3,.24,.54,.1,2.41-.13,2.85-.45,.44-.81,.97-1.3,1.03s-2.22-.56-2.61-.83c-.39-.27-.93-1.75-.93-1.75Z"/><path class="cls-15" d="M30.51,26.65s1.7-2.46,3.85-3.95c1.26-.93,1.57-1.1,1.57-1.1l.14,.2s.13-.29,.72-.65c.59-.36,1.08-.97,1.09-2.87,.01-1.9-.28-4.07-.92-5.41-.65-1.34-1.1-2.79-2.2-4.58-1.1-1.79-2.79-4.03-4.81-5.54-2.02-1.51-3.97-2.33-4.78-2.26-.87,.11-2.56,.8-2.56,.8,0,0-.54-1.26-2.74-1.22-2.2,.04-4.74,.45-7.73,2.73-.69,.33-2.11,1.02-3.03,1.88-.78,.01-1.48,.12-2.94,1.47-1.53,1-2.16,2.8-2.16,2.8,0,0-1.29,3.01-.48,4.26,.85,.44,1.76,.43,1.76,.43,0,0-.04,3.52,.91,4.75,0,1.53,1.09,5.12,2,5.98,.49,.41,.77,.47,.77,.47,0,0-.79-1.59-1.06-4.28-.28-2.69-.19-4,.11-5.1,.3-1.1,1.88-4.87,3.55-4.4,.95,.42,1.41,1.59,1.41,1.59-.55,.16-2.14,.86-2.73,3.99-.59,3.13,.69,6.69,1.5,7.76-.06-1-.79-2.7-.79-5.05s.55-5.18,1.39-5.74c0,0,.79-.68,1.11-.1,.3,.19,.61-.08,.61-.36,.06-.27,.16-1.24,.56-1.22,.41,.02,.93,1.78,1.22,3.84,.29,2.06,.26,3.94,.26,4.9s-.25,3.54-.25,3.54c.6-1.15,.85-3.53,.85-4.39s.06-1.87-.12-3.31c-.18-1.45-1.02-5.04-1.58-6.09,.69-.85,1.47-1.24,2.36,.08,.89,1.33,1.75,4.2,1.83,5.55,.08,1.35,.18,7.05,.18,7.05,0,0,2.52-.44,3.55-.53,1.03-.08,2.01-.78,2.62-.85,.61-.07,1.2,.22,.3,1.7,.47,.36,.93,.84,.93,.84,0,0,1.32-2.32,2.2-2.18,.89,.14,1.54,2.25,1.52,3.68-.01,.73,.02,.86,.02,.86Z"/><path class="cls-22" d="M22.48,.99s-1.7-.12-5.78,2.83c-3.22,2.22-5.05,4.81-3.8,6.36,.21-1.4,.5-2.21,2.06-3.61,1.5-1.41,2.86-2.37,3.5-2.9,.64-.53,3.44-2.15,4.15-2.39-.02-.2-.13-.28-.13-.28Z"/><path class="cls-22" d="M19.36,22.85s.72-.21,1.07-1.03l-.21,.81s.96-.14,1.19-.65c-.09,.59-.21,.6-.21,.6,0,0,.81-.35,1.12-.83-.14,.54-.2,.6-.2,.6,0,0,.72-.23,.86-.54l-.18,.5s.69-.05,.9-.57l-.23,.53s.96-.3,1.16-.72c.39,.09,.68-.18,.68-.18l.8-.08s3.47-.54,3.92-.53c-1.06,.77-3.81,2.07-3.81,2.07,.15-.5-.02-.87-.18-.92-.17-.04-.44,.29-.74,.29l-.05-.3s-.69,1.03-1.34,1.04c-.68,.26-1.3,.59-1.63,.38-.26,.18-.45,.3-.45,.3l.02-.44s-.6,.74-.92,.81c.18-.54,.08-.81,.08-.81,0,0-.54,1.03-1.12,1.13,.23-.51,.23-.8,.14-.98-.23,.32-.75,1.16-.98,1.18,.14-.48,.3-.78,.32-1.66Z"/><path class="cls-22" d="M8.16,24.31s-2.03-4.56-1.05-8.77c-.69,1-.98,1.57-.98,1.57,0,0-.38-5.23,2.37-7.49-.94-.02-2.83,.48-4.9,3.16-.04-2.03,1.51-4.27,2.91-5.26-.82,.11-1.88,.84-1.88,.84l1.17-1.9s-2.08,.99-3.71,3.01c-.98,1.15-1.19,2.62-1.19,2.62,0,0-.63,1.98-.77,3.2-.14,1.22,.31,2.4,.77,2.96-.07-1.46-.1-2.96,.48-4.46,.58-1.5,1.27-2.23,1.27-2.23,0,0-1.01,2.18-1.07,4.03-.06,1.85,.82,2.52,.98,2.89,.1,.68,.38,.83,.38,.83,0,0,.14,2.17,1.05,2.54-.09-.48-.29-1.71-.09-1.99,.38,1.39,.64,2.42,1.52,2.67,.35,.64,.85,1.14,1.35,1.14,.24,.52,.76,.84,1.09,.67,.19,.23,.41,.3,.3-.02Z"/><path class="cls-16" d="M13,12.64s-1-1.79-1.89-1.61c-.9,.18-2.51,2.12-2.76,3.54,1.07-.61,3.81-1.51,3.81-1.51l.84-.42Z"/><path class="cls-16" d="M15.22,13.16s-.32-1.13-.63-1.2c-.32-.06-.65,1.17-.68,1.47,.46-.26,1.31-.27,1.31-.27Z"/><path class="cls-16" d="M18.65,13.39s-1.13-3.54-2.45-3.78c-.56-.06-1.21,.66-1.25,.88,.34,.91,1.03,2.75,1.03,2.75,1.61,.06,2.66,.15,2.66,.15Z"/><path class="cls-12" d="M25.62,30.49s.46,.33,1.11,.1c.65-.22,1.99-1.37,2.53-1.76,.54-.39,1.05-.8,1.15-1.43,.1-.63,.2-1.77,.06-2.37-.14-.61-.36-2.17-1-2.64-.64-.48-1.19-.6-2.74,1.97-.1-.39-.86-.93-.86-.93l.18-.34s-.7,.08-1.24,.82c-.51,.04-1.42,.04-1.42,.04,0,0-.67,3.12-1.59,3.44-1.35,.1-3.81,.33-4.32,.15-.51-.17-1.44-1.62-1.44-1.62-.46,.23-1.17,.56-1.17,.56l-.14-.26s1.3-.94,2.64-1.72c.36-1.46,.33-3.26,.31-4.01-.02-.75-.09-2.89-1.02-3.76,.04,.91,.15,3.16-.16,5.02-.31,1.86-.66,2.72-.66,2.72,0,0,.27-2.33,.26-3.28,0-.95,0-1.77-.03-2.76-.02-.99-.08-2.39-.29-3.03-.22-.64-1.61-1.91-1.85-2.01-.1-.04-.14,0-.23,.16-.1,.15-2,4.07-2.07,5.33-.07,1.26,.29,4.68,.56,5.46,.26,.78,.56,1.08,.72,1.4,.06,.41,.1,1.63,.1,1.56s-.31,1.67-.47,2.19c-.16,.52-.53,.96,.32,1.37,.85,.41,2.33,1.66,2.36,2.31,.02,.64,.89,1.71,1.73,1.6,.84-.11,3.89-1.1,5.02-1.9,1.12-.8,2.41-.92,3.65-2.38Z"/><path class="cls-14" d="M24.57,31.34s-5.45,2.88-7.49,2.86c-2.04-.02-1.68-1.26-.93-1.68,.36-.35,.22-.71-1.46-.71-.93-.24-1.09-1.33-1.09-1.33,0,0,.39-.39,.01-.5-.38-.11-.43-.03-.72,.1-.44-.09-.35-.44-.19-.56,.16-.12,.65-.65,.63-1.23-.02-.58,.02-1.19,.54-1.21,.52-.03,1.41,.55,2.26,.75,.85,.2,2.18-.28,2.18-.28,0,0-.9,.1-1.47-.47-.56-.57-.79-1.2-.79-1.2,0,0-1.06,.58-1.19,.59-.13,0-.62-.41-.62-.41-.36-.02-1.03,.04-1.04,.04s-.22-.02-.22,.05c0,.07,.25,1.14-.53,1.28-.78,.14-1.63-.1-1.92-.35-.29-.24-1.22-2.23-1.24-2.29-.01-.06-.49-1.65-.49-1.65l-.47-.17s.5,1.71,.51,1.84c-.58-.32-.64-.18-.64-.18,0,0,.71,1.17,.94,1.94,.23,.77,.49,1.65,.51,2.67,.02,1.02,.06,1.54,1.14,2.31,1.08,.77,2.64,1.98,2.67,1.99,.02,0,2.06,1.34,2.8,1.4,.74,.06,1.94-.33,2.54-.61,.6-.28,3.4-1.46,4.06-1.76,.66-.3,1.7-1.24,1.7-1.24Z"/><path class="cls-16" d="M19.29,23.42s-.14,1.1-.38,1.34c-.47,.17-2.05,.76-2.05,.76l.08-.71,2.35-1.39Z"/><path class="cls-8" d="M12.91,25.98s.23,1.28-.22,1.39c-.45,.11-1.59,.11-2.15-.32-.56-.43-1.68-2.82-1.61-3.82,1.52,.89,3.71,2.38,3.98,2.75Z"/><path class="cls-8" d="M23.35,23.93s-.26,2.74-1.58,3.41c-1.13,.06-3.86,.28-4.37,.13-.51-.15-1.33-1.42-1.31-1.61,.48-.34,4.73-2.04,7.27-1.93Z"/><path class="cls-12" d="M29.98,56.08s-.05,.19-.19,.31c-.13,.12-.53,.52-.51,.68,.03,.16,1.42,.38,1.43,.41-.19,.57-.34,1.95,.3,1.94,.64,0,1.13-.57,1.42-.43,.28,.14,.26,.37,1.36,.08,.37,.16,.63-.03,.9-.13,.27-.11,.58-.11,.68-.11s.67-.69,.58-1.44c-.8-.58-1.27-.75-1.55-.75s-1.62-.7-2.29-.82c-.66-.12-1.23-.19-2.14,.27Z"/><path class="cls-10" d="M32.41,57.69c-.08,.18-.25,.28-.39,.22-.14-.06-.19-.25-.12-.44,.08-.18,.25-.28,.39-.22,.14,.06,.19,.25,.12,.43Z"/><path class="cls-12" d="M4.62,53.99s1.1-.09,1.92,.2c.82,.29,.82,1.17,.46,1.69-.36,.53-.53,.36-.37,1,.16,.64,.18,.87,.06,.87-.28-.05-1.36-.6-1.84-.7-.48-.1-.98-.03-.98-.03,0,0,.24-1.36,.29-1.58,.05-.22,.46-1.45,.46-1.45Z"/><path class="cls-14" d="M4.58,54.05s2.21,.1,2.38,.59c.17,.49,.07,.99-.05,1.14-.23,.18-.7,.59-.55,1.05,.15,.47,.38,.84,.38,.84,0,0-.57-.45-.87-.5-.3-.05-.74-.1-.74-.1,0,0,.18-1.07-.08-1.27-.27-.2-.37-.3-.37-.3,0,0,.17,.59-.07,.84s-.72,.64-.72,.64c0,0-.05,.21,.47,.9,.51,.69,1.09,.95,1.35,.65,.32,.37,.63,.66,1.6,.21,.11-.47,.43-1.54,.43-1.54l.42-1.02s.62-1.72,.6-1.84c-.02-.13-1.15-.25-1.42-.3-.27-.05-2.25-.33-2.69-.36-.14,.25-.07,.39-.07,.39Z"/><path class="cls-24" d="M11.35,32.07s-.63,.16-1.53,1.04c-.9,.88-.1,.51-1.63,2.01-1,.86-2.58,1.94-3.06,2.86-.36,.19-.63,.02-.63,.02,0,0-.25,.61,.26,.8,.51,.19,.9-.15,1-.35,.09-.19,.5-1.6,2.65-2.31,.62-.96,1.22-1.63,2.92-2.12-.31-.22-.93-.38-1.11-.38,.24-.33,.97-.85,1.79-1.11-.5-.4-.65-.46-.65-.46Z"/><path class="cls-28" d="M8.11,51.69l-.43,2.41-3.09-.41-.2,.68c-.26-.13-1.2-.66-.49-1.3,.21-.89,.4-2.02,.66-2.12,.59,.35,2.16,.82,3.55,.74Z"/><path class="cls-28" d="M11.27,34.09s-1.62,0-3,2.2c-.45,.82-.48,1.72-.5,2.08-.31,.09-1.19,.53-1.09,1.28,.1,.76,.24,1.39,.24,1.39,0,0-.7,.86-1.11,3.19-.63,.29-.72,.56-.4,1.37-.37,.23-.8,.23-.49,1,.14,.59-.56,2.19-.62,2.39-.06,.2,.92,2.08,1.49,2.13s1.08,.27,1.67,.05c.59-.22,2.44-1.82,2.36-2.42-.08-.6-.51-2.61,0-2.57,.54-.02,2.2,.14,2.2-.49s.11-4.09,.11-4.09c0,0-.93-1.18-1.24-1.98-.31-.8-.45-2.06-.23-2.72,.22-.67,.63-2.81,.63-2.81Z"/><path class="cls-28" d="M11.92,32.52c-.05,.03-1.43,.45-1.71,1.06,.95,.29,2.64,1.17,2.7,1.79-.73,.48-1.61,1.2-1.61,1.2,.54,.69,1.5,2.36,1.5,2.66,.24-.42,.45-1.72,.63-2.25,.18-.53,.75-1.56,.89-1.73,.14-.17-.17-.65-.29-.83-.12-.18-2.1-1.9-2.1-1.9Z"/><path class="cls-28" d="M25.48,30.68s.52,.42,.69,1.14c.25,.62,1.79,1.51,1.69,1.87-.1,.37-1.39,.41-2.36,.41,.06,.36,.23,.8,.6,.68,.37-.12,.83-.15,1.19,.31,.31,.28,.79,.21,1.09,.24,.29,.03,.47,.07,.47,.07,0,0,.04,.54,.53,.68,.49-.2,.66-.33,.66-.33,0,0,2.07,1.39,2.92,3.89,.7,1.6,.86,2.21,.97,2.42,.29,.49,.97,1.63,1.49,2.19,.47,.59,.64,.92,.35,2.59l-.07,.76s1.33,2.49,1.32,3.34c-.01,.85-.55,.86-.2,1.79,.42,.67,.26,.71-.49,1.69,.41,.2,.53,.28,.53,.28,0,0,.28,1.03,.09,1.7-.19,.68-.48,.67-.88,.59-.41-.08-2.57-1-3.14-1.21-.57-.2-.99-.41-1.82-.24-.41-1.19-.65-3.25-.62-3.31,.03-.06-.67-3.49-.67-3.59s-1.33-3.14-1.33-3.14l-1.61-.27s.13,1.79,.04,1.91c-.47-.16-1.79-.41-4.3-.47-1.91-.15-3.17-.18-4.33-.3-1.17-.12-1-.75-1.03-1.29-.02-.54,.01-1.12,.01-1.12,0,0,.15-1.99,.55-3.09,.4-1.1,.49-2.03,.65-2.58,.16-.55,.91-2.89,2.49-3.94,1.57-1.05,1.66-1.15,1.84-1.62,1.18-.7,2.71-2.05,2.71-2.05Z"/><path class="cls-12" d="M13.97,35.76s-.65,1.48-.87,2.53c.38,1.2,.53,1.28,.53,1.28,1.59,.21,2.5,.29,3.21,0,.71-.29,1.52-.88,1.54-.98,.07-.48,.72-2.38,1.66-3.38,.22-.78,.2-.98,.2-.98l-6.26,1.51Z"/><path class="cls-9" d="M2.13,25.55s.93-1.24,1.55-1.24,1.14,.05,1.03,1.23c.33,.38,.31,.61,.31,.61-.61,.23-1.04,.57-1.04,.57,0,0-1.42-.46-1.63-.55-.21-.09-.22-.62-.22-.62Z"/><path class="cls-35" d="M22.79,47.59s-.55,1.38-.58,1.41c-1.49-.42-4.05-1.11-4.26-1.6,1.58-.08,4.4-.07,4.4-.07l.43,.27Z"/><path class="cls-30" d="M22.67,47.47l-.59,1.47c2,.95,2.65,1.37,3.24,2-.3,.39-.89,1.1-.89,1.14,.12,.37,.91,1.09,1.16,1.15,.21-.52,.88-1.36,.88-1.36l.34,.3c.2-.04,.76-.66,.71-.88-.04-.22-.25-.51-.25-.51,0,0,1.22-1.23,1.57-1.38-.05-.34-.65-.9-1.04-.89-.58,.21-1.54,1.35-1.54,1.35,0,0-1.77-1.53-3.59-2.39Z"/><path class="cls-35" d="M11.27,34.76s-.96,3.01-.7,3.83c.26,.82,1.93,3.77,2.35,4.08,.1-.51,.54-1.41,.98-1.72-.61-.76-1.5-2.48-1.5-2.48,.08-.34-1.1-1.9-1.1-1.9,.16-.25,1-.79,1-.79l-1.02-1.03Z"/><path class="cls-35" d="M16.84,44.17s.14,2.63-.02,2.63c-.83-.71-1.97-2.34-1.97-2.34,0,0,.65-1.33,1-1.46,.42,.62,1,1.16,1,1.16Z"/><path class="cls-8" d="M14.15,41.12s-.62,.2-1.02,1.75c.54,1.11,1.23,1.58,1.33,1.58,.1-.32,.73-1.47,1.38-1.75-.16-.45-1.14-1.43-1.68-1.58Z"/><path class="cls-13" d="M21.03,48.81s1.05,1.48,.83,2.08c-1.28,.15-4.61,.21-5.16-.11-.56-.31-.43-1.69-.43-1.69,0,0-.05-.35,.38-.36,.43-.02,4.39,.08,4.39,.08Z"/><path class="cls-8" d="M12.63,48.22s.02,.31,.1,.57c.08,.25,1.77,2.29,2.31,2.38,.86-.07,.87-.12,.8-.48-.07-.37-.15-1.08-.07-1.52,.08-.44-.13-.76-.48-.82-.35-.05-2.66-.13-2.66-.13Z"/><path class="cls-3" d="M12.75,48.23s-.18,.32,.19,.37c.37,.05,1.42,.15,1.54,.56,.13,.41-.15,1.24-.15,1.24,.07,.19,.84,.7,1.07,.71-.5,.01-2.51-.03-2.75-.57-.18-.63-.42-2.35,.1-2.32Z"/><path class="cls-34" d="M23.78,51s-1.83,.43-3.37,.46c-1.54,.03-3.61-.16-4.24-.18-1.01-.03-1.62,.28-2.12,.17-.5-.11-1.66-.64-1.96-.47-.3,.17-1.47,3.54-2.11,5.31-.64,1.76-1.46,3.8-1.59,4.11-.13,.31-.54,2.22-.13,3.4,.41,1.18,1.14,2.11,2.37,1.79,1.24-.31,3.66-1,4.11-.9,.46,.1,2.16,1.38,3.04,2.12,.88,.74,1.92,3.67,2.55,4.44,.63,.77,1.69,2.55,2.4,2.52,.71-.03,4.48-.77,4.99-.81,.51-.04,1.54-1.25,1.84-1.96,.3-.71,.5-.96,.41-1.37-.09-.41-1.32-2.52-1.34-2.55-.02-.03-.41-.78-.41-.78,0,0,.35-1.28,.04-2.27s-1.33-3.74-1.33-3.74l-.43-.87s.35-.81-.02-2-1.43-3.82-1.43-3.84c0-.02-.71-1.77-1.28-2.56Z"/><path class="cls-26" d="M17.7,60.27s2.6,2.57,5.53,3.57c-1.04,1.01-1.65,1.62-2.6,1.62s-3.27-3.76-2.93-5.19Z"/><path class="cls-26" d="M26.8,58.41s-.43-.03-.64,.28c-.21,.31-1.77,3.66-1.77,3.66,1.62-.15,1.47-.24,1.47-.24l.67-2.66,.28-1.04Z"/><path class="cls-26" d="M16.86,59.18l-.99,.79c.23,1.35,.95,5.44,1.81,6.28,.86,.84,3.84,2.84,4.97,2.73,1.13-.11,3.32-1.51,3.32-1.51l-.09,1.76s-3.54,1.87-4.76,2.42c.56,.99,1.56,1.99,1.56,1.99,0,0,3.36-2.73,4.38-5.04,1.02-2.3,1.22-2.42,1.22-2.42,0,0-.41,5.01-.95,6.59,1.02-.56,2.08-1.51,2.08-1.51,0,0-.86,1.82-1.5,2.56-.12,.13-.34,.15-.34,.15,.02-.34-.06-.93-.64-.74-.59,.19-1.21,.39-2.27,.61-1.06,.22-2.31,.13-2.66,.14-.36,.01-.65,.01-.43,.78-.54-.16-1.26-.53-2.29-1.6-1.04-1.07-1.62-1.7-.84-2.96-.42-.56-.74-.72-.84-1.11-.1-.39,0-1.51,0-1.51l-1.16-1.11s-.23,.48-.25,.73c-.02,.26,.79,1.18,.08,2.3-.71,1.11-1.38,1.62-1.45,1.83-.06,.21,.31,.64,.27,.88-.04,.24-.2,.21-.3,.49-.23,.21-.66,.23-1.22,.24-.56,0-2.02-.06-2.02-.06,0,0,.08-.68-.26-.77-.34-.09-4.03,0-4.54-.66-.34-.7-.41-.91-.58-1.14-.16-.24,.03-.77,.41-.93-.53-.56-.96-1.5-.83-2.22,.12-.72,.59-1.67,.86-2.08,.27-.41,.38-.88,.13-1.66-.25-.77-.47-1.43-.36-2.34,.11-.91,.93-2.08,1.08-2.95,.35-.95,.96-2.63,.96-2.63,0,0,.71-2.01,.95-2.61,.24-.6,1.26-2.59,1.37-2.63,.32,.07,1.52,.24,1.9,.29,.35,.29,.59,.37,1.7,.53,1.11,.16,1.41,.06,1.92,.12,.51,.06,2.23,.09,3.07,.09s3.75-.05,4.48-.3c-.09,.31-1.26,.4-1.36,.64-.1,.24,.23,1.08,.19,1.51,0,0-.64-1.26-.86-1.36-.03,.36-.1,.41-.1,.41,0,0-.41-.58-.65-.64-.24-.06-1.78,.2-1.76,.23,.04,.34,.14,1.93-.03,2.32-.14-.7-.45-1.08-.56-1.27-.02-.93-.05-1.11-.05-1.11,0,0-.32-.11-.91,.07-.59,.19-.63,0-1.01-.19-.39-.18-.46-.44-1.14,.1-.63,.03-1.43-.06-1.88-.06-.41-.11-1.26-.56-1.41-.49-.18,.07-1.08,2.33-1.46,3.56-.39,1.23-1.07,3.5-1.29,4.38-.22,.89-.98,3.2-1.01,3.78-.02,.58,.83,2.26,1.15,2.4,.39,.13,2.63-.65,3.14-1.31,.51-.66,.79-1.48,.79-2.47s-.11-2.01-.26-2.41c-.14-.4-1.34-1.69-1.24-1.88,1.67,.26,4.04,1.51,4.8,1.98Z"/><path class="cls-25" d="M13.9,49.01l.43,1.37c-.39,0-1.11-.03-1.14-.37-.03-.34,0-.94,.12-.99,.12-.05,.59,0,.59,0Z"/><path class="cls-29" d="M15.94,48.92s-.21,.17-.21,.88,.04,1.15,.25,1.09c.21-.05,.18-.85,.18-1.19s-.08-.79-.23-.79Z"/><path class="cls-29" d="M12.4,48.45s-.55,.24-.46,.97c.08,.72,.43,.79,.68,.81-.12-.34-.24-.47-.21-1.77Z"/><path class="cls-17" d="M12.26,48.3s-.81,1.08,.11,2.16c-.39,.05-1.58-.08-1.77-.46-.19-.37-.12-1.9,.24-2.01,.36-.11,1.12-.02,1.43,.31Z"/><path class="cls-17" d="M20.15,48.8c.05,.05,1.58,1.16,1.56,1.95-.96,.11-1.98,.14-2.89,.12-.9-.02-1.41,.05-1.55-.11-.14-.16-.39-1.49-.39-1.49-.12,.5-.12,1.38-.12,1.38-.4-.56-.4-1.66-.4-1.66,0,0-.59,1.23,.17,2.26,2.05,.06,4.67,.06,5.46,0,.78-.07,1.64-.4,1.64-.4,.22-.81,.21-1.03,.21-1.03,0,0-1.12-.73-2.13-.97-1-.24-1.57-.05-1.57-.05Z"/><path class="cls-32" d="M13.2,44.12s-.69,2.36-.45,2.91c2.02-.65,2.56-1.3,2.56-1.3l-.82-1-1.28-.61Z"/><path class="cls-32" d="M15.36,46.22s-1.26,.98-1.28,1.51c1.13,.17,2.27-.34,2.27-.34l-.98-1.17Z"/><path class="cls-32" d="M17.18,41.26s-.22,2.68-.51,2.66c-.48-.55-.91-1.66-1.17-1.9,.69-.62,1.68-.76,1.68-.76Z"/><path class="cls-32" d="M17.52,39.35s-.23,1.24-.27,1.34c-1.02,.36-2.22,.88-2.33,.86-.35-.29-.7-.41-.93-.46-.35-.88-.44-1.54-.44-1.54,0,0,1.32,.19,2.28,.19s1.68-.4,1.68-.4Z"/><path class="cls-32" d="M15.88,42.9s-.75,.93-1.08,1.68l-.35-.17s1.05-1.95,1.43-1.51Z"/><path class="cls-32" d="M14,41.14s-.19,.06-.9,1.51c-.08-.3,.17-1.36,.9-1.51Z"/><path class="cls-5" d="M14.23,41.92s-.57,.57-.52,1.28l.33,.3s.56-.85,.64-.98c-.04-.24-.44-.61-.44-.61Z"/><path class="cls-23" d="M26.58,50.95c0,.18-.14,.33-.31,.33s-.31-.15-.31-.33,.14-.33,.31-.33,.31,.15,.31,.33Z"/><path class="cls-30" d="M16.78,44.04s-.29,1.91,.1,2.84,1.51,.68,2.61,.66c1.1-.02,3.03-.08,3.03-.08-1.79-.83-2.59-1-2.59-1-1.02-.07-2.44-.17-2.57-.52-.14-.36-.07-1.42-.07-1.49-.17-.15-.51-.41-.51-.41Z"/><path class="cls-30" d="M11.26,34.88s.84,.72,.87,1.03c.42-.29,.78-.58,.78-.58-.06-.2-.94-1.05-1.43-1.15-.21,.48-.22,.7-.22,.7Z"/><path class="cls-23" d="M29.36,54.87l-.91-.56c-.44,.28-.76,.6-.76,.6,.91,.87,1.51,1.32,1.51,1.32,.11-.89,.16-1.36,.16-1.36Z"/><path class="cls-4" d="M13.75,49.06l.45,1.31c.3,.01,.36-.04,.37-.12,.01-.08,.02-1.11-.02-1.19-.06-.08-.8,0-.8,0Z"/><path class="cls-25" d="M24.22,48.11v.21c.95,.6,2.04,1.54,2.04,1.54,.41-.46,1.36-1.3,1.36-1.3,0,0-.2-.48-.43-.48-.4,.03-2.97,.03-2.97,.03Z"/><path class="cls-25" d="M23.9,49.88s-.31,.65-.28,1.08c.51,.27,.84,1.13,.84,1.13,.35-.59,.95-1.15,.95-1.15,0,0-1.27-1-1.51-1.07Z"/><path class="cls-25" d="M28.66,49.51s-.8,.55-1.4,1.33c.31,.45,.28,.51,.21,.64s-.57,.71-.67,.7c-.13-.24-.39-.33-.39-.33-.23,.29-.77,1.15-.77,1.15,.51,.32,2.61,2.44,2.61,2.44l.95,.79c.08-1.29,.37-3.6,.35-3.79-.19-.23-.68-.72-.36-1.28,.32-.56,.59-.88,.59-.88-.45-.23-1.12-.77-1.12-.77Z"/><path class="cls-33" d="M5.03,26.17s-.56,.11-.9,.5c.61,1.12,4.5,6.62,4.5,6.62,.79-.8,1.2-1.2,1.2-1.2,0,0-.92-.98-1.56-1.75-.64-.77-3.24-4.17-3.24-4.17Z"/><path class="cls-21" d="M2.27,25.38s.04,.61,.15,.68l.22-.31s.33,.42,.87,.38c.15,.23,.58,.49,.58,.49-.34,.48-.48,.63-.5,.65-.23-.03-.48-.27-.57-.41-.48-.03-1.21-.22-1.12-.74,.09-.53,.36-.73,.36-.73Z"/><path class="cls-8" d="M18.1,36.85s-1.29,.99-1.73,1.33c-.49-.14-.45-.75,.22-1.2,.67-.45,1.54-.43,1.51-.13Z"/><path class="cls-8" d="M14.82,36.64s-.24,.83-.52,.83c-.04-.54-.34-.89-.34-.89,.45-.19,.81-.04,.86,.05Z"/><path class="cls-14" d="M15.78,37.15s-1.22,.45-1.37,2.56c.53,.03,.94,.03,.94,.03,0,0-.39-1.13,.44-2.59Z"/><path class="cls-14" d="M14.03,36.02s-.56,1.99-.51,3.18c-.48-.52-.42-.95-.42-.95,0,0,.2-1.41,.79-2.3,.06,.03,.13,.06,.13,.06Z"/><path class="cls-14" d="M19.78,35.61l.2-1.15c-.69,.43-1.24,.55-1.3,.61-.33,.54-2.1,1.59-2.81,1.59-.44,0-.7-.7-.7-.7,0,0-1.16-.01-1.19-.01,.05-.24,.82-1.2,1.5-1.31,.62,.34,1.49,.34,1.82,.2,.34-.13,3.47-1.29,3.47-1.29l2-.9s-.07,.53-.5,.77-2.1,1.31-2.49,2.19Z"/><path class="cls-8" d="M31.66,37.31s-1.67,.12-1.58,1.67c.03,1.19,.45,1.49,.62,1.9,.17,.41,.03,.62-.16,.98-.19,.36-.19,.61,.27,.96s2.13,1.31,3.68,.26c-.52-.86-.58-1.18-.61-1.24-.02-.06-1.2-2.91-1.61-3.56-.41-.65-.62-.96-.62-.96Z"/><path class="cls-37" d="M29.78,50.28c.07,.02-.45,.6-.51,.88-.06,.27-.3,.46,.24,1.22,.06,.47-.13,2.03-.13,2.03,0,0-.17,1.76-.17,1.8,.05,.23,.38,.39,.45,.36,.23-.23,.37-.71,.39-.73,.02-.03,.62-.37,1.34-.33,0,0-.24-2.21,.01-2.32,.34-.14,1.23-.2,2.42,.15,.82-.73,1.47-1.12,1.47-1.12-.14-.28-.88-1.03-3.87,.43,0-.64,.38-.89,.39-1.28,.01-.39-.68-.67-.68-.67,0,0,1.94-2.07,2.28-2.95-1.05,.64-2.49,2.05-3.03,2.21,.17-.75,.81-1.75,.04-2.15,.63-.47,1.98-1.59,2.44-2.02-1.35,.49-2.76,1.31-2.76,1.31,0,0,.88-1.88,2.21-2.79-.25-.35-1.23,.17-2.89,1.61-1.2-.91-2.64-2.74-2.64-2.74l.17-1.79s-.98,1.52-1,2.61c-.03,1.09,.74,1.83,.74,3.06-.59-.21-1.56-.38-1.77-.24-.31,.22-.46,1.24-.46,1.24,1.48,.22,2.67,.06,2.86-.01,0,0,.75-.09,.73-.8-.01-.71,.08-1.08,.08-1.08,.35,.13,.66,.4,.66,.63s.01,1.55,.12,1.73c.1,.19,.45,.06,.45,.06,0,0-.18,1.29,.42,1.69Z"/><path class="cls-37" d="M25.94,34.89s-.47,.34-1.18,.45c-.71,.12-2.26,.31-2.26,.31l-.5-.43c.21-.29,2.1-1.33,3.43-1.07,.3,.52,.51,.74,.51,.74Z"/><path class="cls-37" d="M22.91,37.23s-1.45,.62-1.82,1.04c-.62,.06-.69,.03-1.04,.73-.47,.1-1.36,1.02-1.39,1.02s.86-2.32,3.8-3.46c.34,.32,.44,.67,.44,.67Z"/><path class="cls-1" d="M36.85,55.05s-.64-.02-.59,.4c.05,.43,.41,.64,.71,.61-.07-.71-.12-1.02-.12-1.02Z"/><path class="cls-37" d="M12.26,32.83s-.26-.4-1.01,.03c1.06,.35,2.54,1.05,2.93,2.1-.18,.14-.14,.54-.06,.57,.34-.26,.96-.73,1.34-.83-1.15-.53-3.19-1.87-3.19-1.87Z"/><path class="cls-37" d="M10.64,34.28s-.7,1.17-.7,1.41l.44-.44s-.05,1.36-.05,1.66c-.26,.39-.45,1.36-.51,1.87,.27,.03,.35,.03,.35,.03,0,0,.25,2.61,1.92,3.88l.17-.95s-1.74-2.48-1.72-3.5c.01-1.02,.86-4.14,.86-4.14,0,0-.34-.09-.75,.18Z"/><path class="cls-37" d="M9.44,36.71c0-.06-.74,1.26-1.04,1.66-.51,.35-.54-.43-.54-.43,0,0-.18,1.37-.23,1.5-.05,.13-.21,.91-.29,.93-.13,.01-.65-.6-.65-.6,0,0,.26,1.04,.22,1.39-.04,.35,.29,.57,.53,.57-.25,.73-.8,3.05-.18,4.43,.75,.17,.82,.09,.82,.09,.03-.67,.03-1.39-.13-1.82-.16-.43-.18-1.27,.06-2.33,.25-1.06,.35-1.24,.35-1.24,0,0-.75-.23-.66-.56,.09-.32,1.35-1.52,1.44-1.72,.09-.21,.3-1.22,.3-1.88Z"/><path class="cls-37" d="M9.99,46.18s-.73-.14-1.69,.16c-.71,.53-1.35,1.01-1.35,1.01l-.74,.09s.58,.6,.62,.61c.38-.07,1.69-.75,1.69-.75,0,0,.65,.21,.36,1.14-.29,.93-.34,1.37-1.69,2.15,.04-.29,.04-.48,.04-.48,0,0-.75-.1-1.67,.78-.3-1.04-.71-1.44-.71-1.44l.78-.84-.57-1.54s-.93,2.26-1.1,2.49c.04,.4,.53,1.41,1.09,1.62,.56,.21,2.35,.53,2.55,.54-.05,.51-.03,1.84-.03,1.88s-.7,.35-.7,.35c1.5,.22,1.87,.35,1.87,.35l1.22-2.79,.71-1.34s-.49-1.15,.17-2.28c-.67-.64-.86-1.71-.86-1.71Z"/><path class="cls-6" d="M11.35,32.05s-.93,.29-1.89,1.5c-.89,1.2-1.69,2.13-1.94,2.28-.25,.15-1.86,1.43-2.35,2.37-.36,.21-.74-.15-.74-.15,0,0,.29-.68,1.16-1.25,.87-.57,1.67-1.22,1.95-1.83,.28-.61,1.06-1.57,1.61-2.18,.56-.61,1.71-1.17,1.71-1.17l.47,.44Z"/><path class="cls-14" d="M36.04,57.69s-.91-.91-1.43-.88c-.53,.03-.64,.23-.88-.01-.24-.24-.94-.51-1.48-.72-.54-.21-1.05-.6-2.43,.26,.2-.44,.44-.61,.82-.74,.38-.13,.97-.36,2.06,.09s2.66,1.21,3.41,1.32c-.03,.36-.07,.7-.07,.7Z"/><path class="cls-14" d="M35.36,58.92s.07-.44-.26-.38c-.33,.06-.61,.41-.71,.4-.1-.01-.23-.24-.23-.24,0,0-.24,.21-.43,.38,.18,.21,.58,.2,.91-.1,.37-.11,.72-.06,.72-.06Z"/><path class="cls-14" d="M33.68,59.07s-.97,.11-1.04-.03c-.07-.14,.19-.6,.19-.65-.64,.34-1.43,.94-1.87,.81s-.15-1.25-.15-1.25c0,0,.09-.78-.28-1.12-.15,.21-1.26,.11-1.26,.11,0,0-.21,.19,.02,.94,.11,.81,.31,.82,.52,1.03,.22,.21,1.11,1.04,1.34,1.07,.22,.03,.71-.48,.81-.61,.28,.21,1.11,.35,1.71-.3Z"/><path class="cls-14" d="M31.67,57.02s-.07,.78,.14,.97c.21,.19,.67,.02,.67,.02,0,0-.34,.55-.7,.51-.36-.04-.82-1.2-.11-1.5Z"/><path class="cls-7" d="M32.2,57.67c-.04,.09-.12,.15-.17,.13-.05-.02-.05-.12,0-.21,.04-.09,.12-.15,.17-.13,.05,.02,.05,.12,0,.21Z"/><path class="cls-36" d="M21.71,25.35c0,.57-.51,1.03-1.13,1.03s-1.13-.46-1.13-1.03,.51-1.03,1.13-1.03,1.13,.46,1.13,1.03Z"/><path class="cls-36" d="M11.06,24.56s-.23,1.52,.5,1.91c.74,.38,1.06-.12,1.34-.54-.51-.41-1.61-1.35-1.84-1.36Z"/><path class="cls-7" d="M23.6,28.1s.27,2.07-2.71,3.47c-.63-.03-.51-.25-.36-1.07,.15-.81,0-1.02-1.03-1.12-1.03-.1-2.66-.36-1.52-.81,1.15-.44,5.62-.47,5.62-.47Z"/><path class="cls-7" d="M14.07,28.69s.17,.9-.54,.93c.14-.61,.54-.93,.54-.93Z"/><path class="cls-18" d="M17.02,24.7l-.05,.78c-.54,.24-1.85,.96-2.06,.96-.22,0-.21-.26-.21-.26l2.32-1.48Z"/><path class="cls-16" d="M24.24,22.89s.54,.72,.58,1.1c-.81-.08-1.55-.18-3.91,.19,.52-.57,.86-.95,.86-.95,.12,.22,.1,.46,.1,.46,0,0,.22-.39,.37-.4,.27,.11,.4,.16,1.14-.19,.54-.19,.86-.21,.86-.21Z"/><path class="cls-16" d="M21.1,23.2s.18,.73-.51,1.11l-.28-.04,.78-1.07Z"/><path class="cls-16" d="M20.03,23.45s.18,.82-.66,1.13c.26-.59,.63-1.12,.66-1.13Z"/><path class="cls-16" d="M8.09,21.71s4.41,2.77,4.94,4.31c-.62-.49-1.21-.98-4.74-3.1-.25-1.1-.2-1.21-.2-1.21Z"/><path class="cls-12" d="M11.06,28.62s.27,.58,.53,.58,.4-.64,.4-.64c0,0-.79-.21-.93,.05Z"/><path class="cls-14" d="M29.59,25.24s-1.14-.3-1.05,.73c.25,.79,.43,1.09,.19,1.55-.03,.46-.19,.97-.9,1.02s-.6-.32-.6-.32l-.22,.22s-.22-1.24,.98-1.97c-.6-.41-.78-.79-.56-1.41,.22-.62,.32-.75,.38-.97,.06-.22,.59-1.05,.9-1.05s1.55,1.74,.87,2.19Z"/><path class="cls-14" d="M26.01,23.17s-.49,.13-.73,.41c-.24,.29-1.83,1.56-2.2,1.67,.29-1.23,.36-1.35,.36-1.35h1.38s-.44-.87-.48-.99c.26-.34,.92-.89,.92-.89l.07,.24s.55-.63,.91-.32c.36,.31-.21,1.23-.21,1.23Z"/><path class="cls-14" d="M13.86,13.37c0-.07-3.77,6.34-1.11,11.83l-.07,.11-.8-.81c-.29-1.17-.98-3.24-.99-4.88,0-1.64,.04-2.47,.31-3.7,.27-1.23,1.43-3.52,2.22-2.48,.27,.04,.44-.07,.44-.07Z"/><path class="cls-14" d="M13.91,13.39s1.34,1.22,1.98,2.66c-.02-.91-.69-2.91-.69-2.91,0,0-1.28-.19-1.29,.24Z"/><path class="cls-14" d="M16.7,16.97s1.21,1.09,.6,7.59c1.39-.91,2.02-1.21,2.02-1.21,0,0,.11-2.47,.01-4.6-.1-2.12-.39-4.72-.73-5.31-.93-.43-2.64-.32-2.64-.32,.36,.99,.74,3.85,.74,3.85Z"/><path class="cls-14" d="M12.1,13.03s-2.19,.25-3.88,1.69c-.81,1.94-.52,6.05-.16,6.93,1.48,.87,3.61,2.66,3.61,2.66-.5-.84-1.02-2.03-1.23-3.05-.21-1.02-.41-1.95-.39-2.79,.02-.85,.11-2.03,.44-3.07s1.22-2.21,1.6-2.37Z"/><path class="cls-31" d="M28.59,81.56s.39,2.3-.12,3.41c.81-1.13,1.25-1.68,1.1-2.42-.16-.74-.87-.94-.98-.99Z"/><path class="cls-31" d="M24.16,82.65s.38,.67,.67,.82c.12,.43,.17,1.47,.17,1.47-.49-.11-1.36-.66-1.42-.89,.05-.5,.58-1.39,.58-1.39Z"/><path class="cls-19" d="M26.88,85.65s.37,.7,.58,.75c-.93-.18-4.7-1.32-4.47-2.83,.42,.42,1.61,1.45,3.89,2.07Z"/><path class="cls-8" d="M13.89,79.71s.09,.73-1.6,1.06c-1.3,.06-2.91,.03-4.1,.36-1.19,.33-2.14,.54-3.24,.54s-3.05-.08-3-1.26c.54,.36,1.58,.72,2.66,.73,1.08,.01,2.72-.44,3.83-.76,1.12-.32,2.23-.34,2.81-.25,.57,.09,2.5-.01,2.64-.43Z"/><path class="cls-31" d="M12.34,77.97s.18-.06,.28-.07c.1,0,.67-.3,.67-.3,0,0,.51,.31,.53,1.05,.02,.74,0,1.05-.03,1.12-.04,.07-1.61,.61-2.4,.3,.37-.76,.87-2.07,.96-2.1Z"/><path class="cls-2" d="M2.06,80.4s1.08,.78,2.38,.74c1.29-.04,3-.43,3.01-.55,0-.14-.51-2.1-2.73-2.72-.96,.23-2.75,2.07-2.65,2.53Z"/><path class="cls-20" d="M7.37,71.8s.05,1.1,.75,1.78c-.76-.17-.86-.26-.86-.26,0,0,.05,1.36,.17,1.63,.7,.25,1.22,.25,1.34,.41,.13,.17,.42,.23,.7,.44,.28,.21-.08,.3-.21,.59-.13,.28-.17,.49-.18,.67-.09,.21-.42,.49-.58,.49-.06-.47,.13-.52,.12-1.06-.01-.53-.62-.63-1-.77-.38-.14-1-.4-1.13-.82-.18-.42-.22-.93-.21-1.3,.02-.38,.03-.73,.33-.85,.09-.2-.07-.57-.09-.58-.02-.02-.38-.72,.14-.67,.42,.2,.7,.31,.7,.31Z"/><path class="cls-11" d="M13.22,73.82s-.17,.63-.29,1.1c-.12,.46-.15,.78-.18,.84-.69,.26-.99,.2-.99,.2,0,0,.47-.86,.23-1.13-.25-.27-.02-.36,.23-.36,.17-.15-.36-.62-.36-.62l1.38-.02Z"/><path class="cls-11" d="M9.21,78.3s.08,.32-.28,.54c-.36,.23-1.23,.11-1.24,.03,1.02-.77,1.23-.9,1.28-.91,.05-.01,.25,.34,.25,.34Z"/><path class="cls-20" d="M4.94,77.55l-.12,.4c.79,.21,1.46,.63,2.02,1.36,.21-.35,.17-.46,.17-.46,0,0-.62-1.21-2.08-1.3Z"/><path class="cls-20" d="M22.67,74.04s-.15,.5,.21,.62c.37,.12,1.76,.22,2.33,.76-1.13,.19-2.05,.22-2.05,.22-.09,.01-.32,.54-.04,.84,.28,.29,.22,.79,.31,1,.09,.22,.16,.22,.16,.22,0,0,1.22-.18,2.35-.31l.9-.2s.87,.87-.18,1.92c.81,0,2.01-.1,2.16,.01s.98,.91,1.03,1.38c-.57-.25-.62-.26-.62-.26,0,0-.35-.63-.54-.66-.19-.03-3.14-.01-3.14-.01-.19,.04-1.39,1.01-1.63,1.1-.16,.51,.13,2.23,.13,2.23,0,0-.44,1.1-.47,1.19-.26-.12-.57-.47-.57-.9s-.08-.51-.31-.64c-.24-.12-.72-.26-.76-.7-.05-.44-.14-1.44,.35-2.14-.15-.19-.45-.38-.45-.38v-.58l-.42-.54s.24-.69-.29-1.21c-.53-.52-.54-1.22-.54-1.78-.33-.26-1.22-.74-.46-1.23,.44,.42,.96,.66,1.45,.74-.13-.52-.08-.74,.37-.74,.45,0,.76,.04,.76,.04Z"/><path class="cls-11" d="M28.45,74.86s.05-.46,0-.58-.92,.72-.92,.72c.63-.12,.93-.14,.93-.14Z"/><path class="cls-11" d="M27.64,76.51s-.36-.88-.13-1.01c.24-.14,.99-.28,1.04-.09,.05,.19,.16,.77-.25,.87-.24,.1-.66,.23-.66,.23Z"/><path class="cls-11" d="M29.02,76.49s.05,1.1-.09,1.29c-.13,.19-.97,.66-1.01,.65,.24-1,.08-1.53,.08-1.53l1.02-.4Z"/><path class="cls-19" d="M22.06,82.18s-.27,.22-.09,.48c.18,.27,.89,.57,1.06,.51,0-.31-.22-.56-.22-.56,0,0-.38-.09-.74-.43Z"/><g><path class="cls-27" d="M21.43,24.54c-.23-.21-.54-.33-.87-.33-.68,0-1.24,.51-1.24,1.14,0,.31,.13,.6,.37,.81,.23,.21,.54,.33,.87,.33s.64-.12,.87-.33c.24-.22,.37-.51,.37-.81s-.13-.6-.37-.81Zm-.87,1.77c-.58,0-1.05-.43-1.05-.96s.47-.96,1.05-.96,1.05,.43,1.05,.96-.47,.96-1.05,.96Z"/><path class="cls-27" d="M21.8,27.24c-.05,0-.76,.04-.76,.04-1.22,.07-3.06,.18-3.52,.12-.54-.08-1.26-1.22-1.39-1.57l-.22,.08c.14,.37,.9,1.62,1.58,1.71,.49,.07,2.34-.04,3.57-.11l.8-.05h.02c1.03-.46,1.59-3.41,1.61-3.53l-.23-.04c-.15,.81-.71,2.99-1.46,3.35Z"/><path class="cls-27" d="M8.29,76.62s.08,.05,.12,.05c-.04-.01-.08-.03-.12-.05ZM27.45,30.41c.9-.69,2.85-2.08,3-2.55,.15-.47,.15-1.09,.15-1.09,0,0,1.03-1.61,2.38-2.75,1.35-1.14,2.94-2.3,2.94-2.3,0,0,.13,.19,.19,.13,.47-.62,.6-.47,1.05-.86,.45-.39,.79-.77,.86-3.45,.07-2.68-1.09-5.6-2.66-8.43-1.57-2.83-3.69-5.56-6.72-7.38-2.94-1.8-3.43-1.5-5.92-.51,0,0-.51-1.35-3.33-1.2-2.81,.15-5.86,1.31-7.57,2.9-1.05,.28-2.21,1.07-2.85,1.67-.94,.06-1.63,.34-3.35,1.8-1.74,1.03-4.55,2.94-5.06,6.5-.75,2.17-.88,3.8,.41,5.62-.13-1.61-.06-4.51,1.46-6.54-.71,1.57-1.67,4.53-.26,6.18,.47,.71,.17,.99,.69,1.29,0,.51,.06,2.21,1.42,2.57-.13-.28-.41-1.16-.34-1.82,.17,.9,.24,2.19,1.39,2.49,.41,.69,.75,1.12,1.37,1.12,.11,.39,.77,.82,1.16,.71,.43,.32,1.35,1.82,1.59,4.16,.15,1.72,.15,2.3,1.2,2.9-.32,.13-.84,.36-.84,.36,0,0-2.21-2.36-4.61-5.69-.06-.56-.36-.56-.36-.79s.11-.82-.17-.97c-.28-.15-.77-.34-1.2-.21-.43,.19-1.37,1.07-1.59,1.52-.21,.45,.11,1.33,1.14,1.14,.24,.32,.43,.49,.69,.47,.19,.26,4.05,5,4.29,6.48-.49,.94-.51,1.46-1.65,2.32-1.14,.86-1.97,1.27-1.97,2.15s1.24,.79,1.65-.13c.41-.92,1.16-1.37,2.08-1.82-.32,.37-.39,.47-.36,1.67-.62,.49-1.22,.9-1.22,1.29s.3,1.42,.3,1.67c-.36,.41-.75,1.48-1.07,3-.17,.17-.67,.54-.79,.77s.32,.6,.3,.82c-.43,.21-.64,.39-.64,.62s.36,.49,.28,.82-.62,1.82-.88,2.25c-.26,.43-.17,.45,.41,1.61-.24,.15-.3,.79-.36,1.24-.06,.45-.17,.84-.3,.97-.13,.13-.3,.28-.15,.6,.15,.32,.71,.69,.77,.73-.17,.49-.58,2.02-.6,2.68,.04,.24,.41,.62,.77,1.14,.36,.51,.88,.62,1.24,.39,.21,.34,.65,.59,1.06,.29,.21,.01,.27-.03,.3-.06-.11,.2-.89,1.66-.95,2.66-.06,1.07,.75,2.15,.58,2.87-.17,.73-1.18,1.8-1.12,3.03,.06,1.22,.73,1.87,.73,1.87,0,0-.43,.41-.41,.75,.02,.34,.54,.94,.56,1.35-.34,.09-.26,.39-.13,.64,.13,.26,.15,.47,.15,.6-.26,.19-.32,.47-.3,1.22,.02,.75,.09,.82,.09,.82,.06,.26,.17,.45-.02,.86-.19,.41-.17,.3-.19,.62-.56,.15-1.27,.28-1.93,1.27,.17,.11,.58,.09,.58,.09,0,0-2.81,1.72-2.92,2.85-.11,1.14,1.7,1.39,2.92,1.39s1.91-.13,3.07-.45c1.16-.32,1.8-.34,2.77-.39,.97-.04,3.03-.06,3.28-.88,.26-.82,.15-1.84-.45-2.47,0-.24,.22-.17,.22-.82,.21-.21,.26-.66,.73-1.91,.47-1.24,.77-1.67,.77-1.99l-.26-.13s-.09-.21,.13-.28c.21-.11,.19-.43-.02-.75-.21-.32,0-.49,.3-.79,.3-.3,1.24-1.42,1.33-2.08,.09-.67-.54-1.93-.15-2.17,.32,.43,.99,.99,.99,.99,0,0-.09,1.52,.06,1.7,.15,.17,.69,.43,.62,.92-.06,.49-.54,1.31,.19,2.1,.73,.79,1.59,1.44,1.59,1.67-.3,.24-.47,.47,.47,1.16,.17,.99,.15,1.22,.39,1.59,.24,.37,.79,.82,.47,1.5,.32,.34,.62,.39,.45,1.12,.6,.21,.39,.43,.24,.73-.15,.3-.15,1.16-.15,2s.58,1.01,1.05,1.14c.06,.58-.06,1.27,1.46,2.04,1.52,.77,2.57,1.22,3.3,1.12,.73-.11,2.06-1.5,2.25-2.36,.48-2.68-.43-3.24-.43-3.24,0,0,.49-.09,.54-.19,.04-.28-.71-1.35-1.16-1.63,.3-.41,.34-.75,.04-.9,.26-.43,.24-.09,.28-.66,.04-.58,.09-2.3-.26-2.57,.17-.39,.04-.79,.04-.79,0,0,.36-.3,.36-.86s-.6-.47-.6-.47c.58-1.14,1.44-2.4,1.46-3.05,.02-.64-1.54-2.96-1.8-3.41,.32-1.07,.32-1.61-.15-2.9-.47-1.29-1.07-3.33-1.57-4.01,.34-.99,.26-1.31-.02-2.04-.28-.73-1.67-4.38-1.67-4.38,0,0,.49,.43,.92,.36,.6,.6,2.7,2.66,3.6,3.26-.34,.3-.54,.45-.49,.67,.04,.21,.34,.9,.37,1.22,.02,.32,.64,.73,.99,.99,.34,.26,.62,.62,.89,.62s.78-.56,.78-.56c0,0,1.22,.26,1.65-.28,.73,.13,1.03-.09,1.12-.19,.39-.06,.75,0,1.01-.47,.26-.47,.41-1.01,.45-1.48,.62-.09,.77-.19,.82-.99,.04-.79,.04-1.65-.49-1.72,.11-.45,.66-.69,.62-1.14s-.69-.92-.17-1.63-.6-3.03-1.2-4.12c.15-1.29,.32-1.97,.17-2.53-.15-.56-1.27-1.52-2-3.05-.45-1.7-.94-2.49-1.8-3.99-.86-1.5-2-2.27-2.12-2.3-.13-.02-.62,.37-.69,.37-.24-.24-.39-.32-.41-.62-.02-.3-.82-.02-1.29-.21-.47-.19-.71-.77-1.74-.52-.28-.09-.24-.45-.24-.45,0,0,2.1,.06,2.27-.49,.17-.56-1.63-1.35-1.82-2.19-.11-.54-.49-.9-.49-.9,0,0,.9,.47,1.8-.21ZM3.54,27.17s-.4-.19-.37-.37c.21-.5,.61-.91,1.02-1.25-.59,.21-1.01,.8-1.2,1.17-.24,.03-.53-.03-.74-.16,0-.07-.09-.14-.15-.12-.09-.09-.14-.21-.13-.33,.03-.42,.94-1.39,1.3-1.59,.35-.19,.61-.18,.93-.06,.32,.11,.51,.35,.4,1.15,0,0,.26,.22,.32,.46-1.01,.34-1.38,1.09-1.38,1.09Zm.72-.53l.65-.41c.97,1.45,3.46,4.73,4.78,5.8,0,0-.88,.88-1.03,1.07-.44-.83-4.4-6.46-4.4-6.46Zm1.37,11.88c-.43,.43-1.37,.1-1.03-.57,.34-.67,1.41-1.32,1.77-1.58,.36-.26,1.1-.84,1.39-1.46,.29-.62,1.72-2.78,3.07-3.14,.1,.09,.23,.19,.35,.3-1.33,.52-1.98,1.7-2.1,1.91-.12,.22-.91,1.01-1.51,1.82,0,0,.53-.34,1.46-1.56,1.07-1.57,1.99-1.93,2.34-2.01,.18,.15,.32,.26,.32,.26,0,0-1.25,.43-1.7,1.13,.12,.02,.12,.33,.12,.33,0,0-1.1,.72-1.72,2.04-.79,.24-2.56,1.03-2.75,2.54Zm10.59-3.49c.07,0,.15,.01,.23,.01,0,.41,.15,.84,.53,.91-.35-.42-.32-.76-.27-.92,.55-.04,1.32-.23,2.44-.71-.76,1.29-2.38,1.97-2.84,2.15-.48,.19-.81-.14-1.01-.67l-1.21-.02c.32-.46,.76-.85,1.35-1.01,.11,.06,.24,.12,.4,.17-.05,.16-.18,.49-.42,.76,.41-.08,.69-.5,.79-.68Zm11.98,11.27s.33,.18,.38,.33c.05,.15,.18,1.29,.18,1.7s.48,.41,.48,.41l.08,1.19-.33-.23c.08-1.06-.86-1.34-1.34-1.29l-.18-.36,.36-.13c.43-.33,.38-1.62,.38-1.62Zm-.39,2.27c.31-.02,.98,.79,.98,.79,0,0-.43-.02-1.53,1.29-.69-.69-.86-.84-.86-.84,0,0,1.1-1.22,1.41-1.25Zm-1.58,1.13c-.55-.62-1.6-1.36-1.92-1.41,.93-.07,2.59-.07,2.75-.12,.17,.02,.36,.36,.36,.36l-1.2,1.17Zm1.2,1.68c-.1,.36-.55,.67-.55,.67,0,0-.41-.34-.65-.41-.36-.19-.57-.55-.93-.86-.36-.31-1.6-1.32-3.16-1.89-1.56-.57-2.27-1.05-2.99-1.13-.72-.07-1.56-.45-2.11-.98-.55-.53-2.06-2.42-2.06-2.42,.14-.41,.77-1.22,.77-1.22,.74,.89,1.44,1.41,1.44,1.41,0,0-.26,1.32,.19,1.6,.45,.29,2.16,.36,2.59,.43,.43,.07,5.56,1.7,7.47,4.79Zm-4.43-1.93c.11,.05,.21,.11,.3,.16-.15,.64,.02,1.02,.13,1.18-.11,.05-.23,.1-.39,.15,.06-.5-.02-1.26-.04-1.48Zm.44,.24c.16,.09,.25,.15,.25,.15,0,0-.04,.51-.13,.88,0,0-.01,0-.02,.01-.18-.66-.14-.94-.11-1.04Zm.58,.37s.74,.48,1.15,.89l-.72,.91c-.31-.69-.77-1.08-.77-1.08,.12-.48,.33-.72,.33-.72Zm-2-.65c.16,.29,.23,1,.25,1.68-.06,0-.13,.02-.2,.02,.02-.28,.06-.97-.06-1.7Zm-.13-.37c.11,.02,.2,.04,.28,.07,.17,.05,.36,.13,.55,.21,.11,.44,.12,1.35,.12,1.67-.11,.03-.23,.05-.37,.07-.02-.37-.11-1.62-.58-2.02Zm-4.76,2.14c-.19,0-.38-.01-.58-.02-.32-.17-.56-1.63-.09-2.33,1.19-.04,2.21-.04,3.05,0,.16,.14,.37,.61,.16,2.21,.23-.25,.48-1.11,.05-2.2,.93,.04,1.62,.11,2.07,.19,.09,.2,.3,.87,.03,2.11-.93,.08-2.32,.11-4.47,.05-.14-.22-.37-.74-.49-1.93,0,0-.14,1.3,.26,1.92Zm-2.91-3.59c.53-.79,1.15-1.13,1.15-1.13l.74,.86s-1.63,.36-1.89,.26Zm1.68,3.18c-.08,0-.17-1.76,.03-1.7,0,0,.16-.07,.18,.79,.02,.86-.12,.91-.21,.91Zm-4.63-.51c-.4-.1-.64-.25-.68-.58-.06-.53,0-1.52,.34-1.58,.34-.06,.88-.06,1.2,.24,0,0-.64,1.09,.06,2.08-.26-.03-.49-.06-.7-.1-.09-.16-.32-.61-.37-.99-.1,.07,.07,.69,.14,.94Zm.7-1.08c.06-.5,.27-.63,.37-.62,0,0-.16,.91,.16,1.56-.4,.05-.59-.44-.53-.94Zm-1.37-11.05c-.02-1.03,.89-3.86,.89-3.86,.74,.26,1.32,1.05,1.32,1.05-.72,.48-1.68,1.22-1.68,1.22,1.08,1.63,1.15,1.7,1.15,1.7l-.31-.05c.33,.74,1.77,2.73,1.77,2.73,0,0-.48,.38-.84,1.56-.84-1.27-2.27-3.33-2.3-4.36Zm-.15,.4c-.17-.05-.37-.04-.57,.02,.21-1.22,.52-1.64,.7-1.78-.11,.63-.17,1.27-.13,1.76Zm.07,.42c.06,.24,.15,.47,.26,.7-.63,.15-1.7,.86-1.7,.86,0,0-.65-.02-.65-.26s.24-.84,.77-1.13c.6-.28,1.11-.21,1.31-.17Zm4.24,5.49l-.24-.1s.93-1.65,1.22-1.44c0,0-.74,1.03-.98,1.53Zm.07,1.39s-1.51,.98-2.04,.98c.1-1.39,.43-2.37,.43-2.37,0,0,.53,.72,1.25,.62,.26,.26,.36,.77,.36,.77Zm.79-3.62c.57-.48,1.41-.69,1.41-.69l-.38,2.25c-.53-.67-.77-1.41-1.03-1.56Zm.05,.43s-.81,.62-1.29,1.72c-.6-.43-1.2-1.37-1.22-1.53,.07-.5,.65-1.63,.93-1.65,.31-.02,1.51,1.15,1.58,1.46Zm-2.56-.14c-.12-.38,.57-1.25,.79-1.34,0,0-.5,.67-.79,1.34Zm-.53,5.81c.43-.11,2.3,.03,2.69,.12,.39,.09,.34,.56,.28,1.15-.06,.6,.39,1.3,.15,1.4-.24,.09-.84,.02-1.72-.05-.88-.07-1.29-.11-1.4-.92-.11-.81,0-1.7,0-1.7Zm4.53-7.71c-1.2,.34-2.18,.74-2.18,.74,0,0-.34-.34-.84-.34-.36-.41-.43-1.32-.43-1.32,1.05,.12,2.85,.41,3.71-.17l-.26,1.08Zm-2.56-1.05s-.03,0-.04,0c.03-.38,.19-1.56,1.12-2.3-.19-.16-1.21,.79-1.29,2.28-.7-.05-.7-.06-.7-.06,0,0-.43-.79-.45-1.2,.08-.43,.26-1.39,.72-2.21,.27-.01,1.03-.04,1.17,0,.17,.05,.24,.62,.62,.69,.38,.07,1.2-.24,2.11-.81,.04-.02,.08-.05,.11-.08,.46-.02,1.19-.02,1.45-.02-.44,.72-.82,1.63-1.08,2.75-1.39,.81-1.41,1.2-3.74,.93Zm3.62-3.86c.63-.52,1.19-1.28,1.37-1.54,2.18-.94,2.57-1.07,2.87-.98,0,0-1.63,.5-2.92,2.49l-1.32,.02Zm-3.47-.69c0-.22,.02-.36,.02-.36,0,0-.5,.05-1.17,.53-.29-.67-1.53-1.68-2.23-1.8,.6-.41,.91-.41,.91-.41,0,0,2.18,1.46,2.85,1.77l-.38,.26Zm-3.71-1.58c1.29,.24,2.44,1.82,2.44,1.82,0,0-.98,.74-1.6,1.27,0,.24,.57,1.13,.93,1.7,0-.19-.57-1.22-.65-1.68,.12-.22,1.46-1.37,2.28-1.6-.93,.86-1.58,4.12-1.58,4.12-.14-.72-1.37-2.51-1.37-2.51,0,0,.79-.65,1.53-1.15-.53-1.25-1.87-1.58-2.63-1.82,.72-.74,1.51-.81,1.51-.81,0,0-.65,.41-.86,.67Zm-.01,.6s-.36,.08-.95,.36c.22-.39,.56-.59,.56-.59,0,0,.36,0,.39,.22Zm-6.79,15.64c.05-.48,.91-2.13,.98-2.83-.07-.6-.67-.74,.19-1.13,.24,.17,.33,.17,.33,.17,0,0-.57-.91-.24-1.27,.33-.36,.43-.31,.43-.31,0,0,.41-2.39,1.2-3.26-.29-1.13-.74-1.87,.5-2.49,.05,.12,.05,.93,.05,.93,0,0,.22-.72,.26-1.6,.05-.89,.17-1.2,.89-2.11,.57-.87,1.45-1.39,2.06-1.44-.27,.34-.97,1.24-1.3,1.85,.13-.09,1.09-1.11,1.53-1.57-.1,.35-.27,1.01-.42,1.74-.57,.23-.9,1.85-.98,2.28-.65,.27-1.31,.92-1.46,1.26-.22,.5,.57,.84,.93,.79,1-.64,1.5-.8,1.72-.84,.05,.08,.09,.17,.14,.25-.44,0-1.3,.5-1.51,.68-.24,.22-.57,.17-.96,.1,.02,.07,.07,.11,.12,.15-.17,.34-.5,1.54-.29,1.86,0-.7,.37-1.55,.47-1.78,.05,.01,.11,.02,.17,.02-.7,1.53-.37,3.74-.19,4.37-.22,.05-.29,.43-.29,.43,0,0,.05-.07,.36-.17,.34,.02,1.75,.12,2.13-.29,0,0-.6-.02-1.44,.05-.1-.1-.12-1.27-.17-2.01-.22,.24-.19,1.29-.07,2.06-.58-.66-.21-3.94-.15-4.44,.11,0,.21-.01,.32-.02,.02-.02,.04-.04,.06-.06-.02,.31-.08,1.13-.16,1.98,.32-.83,.37-1.87,.38-2.18,.57-.46,1.13-.54,1.32-.55,.24,.38,.48,.73,.64,1.04-.17,.22-.7,1.13-.62,3.94,.18-1.03,.21-2.99,.74-3.68,.05,.12,.07,.24,.07,.35-.19,1.01-.19,2.25-.17,3.71-.05,.36-.43,.36-.74,.38-.31,.02-2.92,.02-2.92,.02,0-.91,.1-1.15-.05-1.44-.14-.29-.29-1.29-.02-2.37,.26-1.08,.38-1.46,.38-1.46,0,0-.6-.17-.67-.41-.07-.24,1.17-1.48,1.39-1.68,.07-.46,.65-1.44,.65-1.65-.02-.24-.48-.6-.48-.6-.19,.89-.02,1.68-.41,2.2-.72,.57-1.32,1.51-1.37,1.72-.05,.22,.65,.5,.65,.5,0,0-.77,2.04-.55,2.85,.17,.65,.28,1.08,.31,1.88-.46,0-1.41-.39-1.41-.39,.14,.35,1.14,.65,1.42,.72,0,.07,0,.15,0,.23-1.08-.06-1.7-.47-1.7-.47,.38,.46,1.52,.63,1.79,.66,.79,.38,1.09,.53,1.09,.53-.81,.29-2.08,.98-2.32,1.01-.41-.46-.91-.81-.91-.81,0,0,.57,1.01,1.01,1.03,.65-.31,2.61-1.15,2.75-1.17,.05,.45,.55,.91,.91,1.05-.22,.55-.22,.62-.22,.62l-2.87,2.83c-.51,0-1.04-.02-1.52-.11,.15-.15,.74-.7,1.28-.99-.35-.07-1.45,.51-1.55,.94-.78-.19-1.39-.63-1.54-1.63Zm4.72-5.8c-.24-.24-.14-1.29,.07-1.6,0,0-.14,1.22-.07,1.6Zm.9,2.37l-.08,.45s-.62-.2-1.01-.34c.73-.28,1.09-.11,1.09-.11Zm.7,3.94l-.76,1.48c-1.01-.03-2.04-.06-2.04-.06,1.65-1.48,2.68-2.57,2.68-2.57,0,0,.03,.98,.11,1.15Zm-6.57,2.94c.25-.87,.34-1.79,.59-2.01,.45,.36,2.1,.62,5.09,.87l-.68,1.69c-.3-.06-1.25-.22-1.55-.15,.42,.18,1.19,.35,1.45,.4l-.11,.27c-1.23-.25-3.58-.48-4.47-.64,0,.36,.25,.31,.14,.64-.39-.22-1.01-.59-.45-1.06Zm1.67,5.36c-.31,.15-.56,.05-.93-.4-.42-.51-.74-.61-.66-1.4,.08-.8,.64-2.79,.74-2.92,1.08,.15,3.72,.44,3.91,.63,0,0-.43,1.21-.82,2.35-.14-.04-.39-.1-.3-.34,.09-.25,.13-1.52-.04-1.93,.02,.66-.08,1.65-.08,1.75-.23,.13-.74,.57-.74,.8,0,.21,.55,.44,.76,.87-.07,.2-.13,.38-.17,.51-.1,0-.29-.01-.46-.04-.32-.26-1.18-.7-1.48-.76-.3-.06-.11-1.21-.15-1.65-.04-.44-.61-.45-.61-.45,.34,.17,.41,.55,.41,.92-.16,.06-.49,.21-.56,.41,.24-.04,.46-.15,.55-.2-.01,.22-.04,.43-.04,.58,0,.46,.25,.55,.63,.64,.13,.05,.24,.11,.34,.16l-.3,.49Zm1.84-1.78v.64s-.45-.15-.53-.34c0-.09,.27-.3,.53-.3Zm-1.58,1.87l.23-.47c.28,.17,.41,.32,.58,.4,.18,.08,.44,.07,.56,.05-.02,.05-.03,.1-.03,.12-.48,.12-.93,.36-1.34-.1Zm.87,13.05c.74,.55,4.17,.5,4.43,.54,.2,.03,.33,.35,.26,.64-.27-.02-.5-.03-.7-.04-.04-.08-.13-.18-.37-.25-.43-.13-2.06,.03-2.06,.03,.3,.05,.75,.04,1.17,.05v.27c-.21,.12-.16,.33-.16,.63-1.84,.22-2.5-.52-2.63-.71,.04-.07,.06-.19,.08-.41,0,0,0,0,0-.01,.22,0,.79,.02,1.16,.12-.16-.27-1.1-.32-1.28-.33-.25-.45-.22-.59,.13-.52Zm3.72,1.13c-.39,0-.66,0-.83,.05l.02-.21c.36,.01,.67,.05,.81,.16Zm-4.16,3.12c.79-.05,1.54,.53,1.98,.75-.13-.11-.21-.34-.21-.34,0,0,.13,0,.24-.11-1.39-.22-1.76-.65-1.82-.73,.02-.06,.04-.11,.05-.17,.01-.09,.02-.14,.01-.2,.24,.13,.92,.47,1.63,.53,.88,.08,1.28,.19,1.18,.47-.09,.28-.47,.39-.39,.98-.14,.25-.44,.38-.44,.38,0,0-1.13-.91-1.36-1.06-.18-.12-.75-.15-.94-.16,0-.13,.03-.25,.07-.35Zm-1.79,1.5c.06-.1,.13-.19,.2-.27,1.87,.28,2.59,1.47,2.59,1.47,0,0-.08,.19-.19,.32-.82-1.37-1.88-1.42-2.15-1.41-.06-.02-.18-.05-.45-.11Zm2.38,1.55c-.03,.1-.06,.2-.07,.28-.64-.83-1.48-1.15-1.9-1.32l.06-.25c1.1,.07,1.91,1.04,1.91,1.29Zm-2.24-.93c2.19,.38,2.66,2.58,2.66,2.58-.07,.02-.14,.05-.2,.07-.69-1.91-2.4-2.5-2.62-2.57,.06-.03,.11-.06,.16-.09Zm-.28,.15c2.03,.92,2.52,2.24,2.61,2.54-.11,.03-.22,.07-.32,.09-.08-.23-.6-1.63-1.74-2.2,.56,.46,.99,1.02,1.57,2.25-.08,.02-.16,.04-.24,.05-.17-.41-.92-2.02-2.04-2.63,.06-.04,.11-.07,.16-.1Zm-.29,.19c.27,.19,1.43,1.09,2.03,2.57-.14,.03-.28,.05-.41,.06-.01-.04-.47-1.88-1.92-2.42,.1-.08,.2-.15,.31-.22Zm-.41,.3c.34,.13,1.25,.62,1.83,2.36-.13,.01-.26,.02-.39,.03-.05-.27-.36-1.68-1.62-2.24,.06-.05,.12-.1,.18-.15Zm-.3,.24c.19,.09,1.01,.56,1.56,2.15-.11,0-.21,0-.32,0-.03-.26-.22-1.21-1.38-2.03,.04-.04,.09-.08,.13-.12Zm-.26,.23c.28,.19,1.07,.82,1.32,1.91-.12,0-.23-.01-.35-.03,0-.22-.1-1.01-1.11-1.75,.04-.04,.09-.09,.13-.13Zm-.26,.25c.18,.13,.89,.67,1.08,1.61-.12-.01-.23-.03-.33-.05,0-.21-.03-.91-.86-1.44,.04-.04,.07-.08,.11-.12Zm-.2,.22c.17,.1,.73,.51,.81,1.31-.09-.02-.18-.04-.27-.06-.03-.2-.18-.83-.64-1.13,.03-.04,.07-.08,.1-.12Zm-.19,.24c.14,.13,.45,.45,.49,.94-.08-.03-.15-.05-.22-.08-.02-.16-.09-.48-.38-.68,.03-.05,.07-.11,.12-.17Zm-.2,.34c.07,.06,.17,.18,.24,.41-.15-.09-.24-.17-.26-.24-.01-.04,0-.1,.02-.17Zm9.81,.53c-1.36,.03-2.79,.13-3.81,.32-1.02,.19-1.97,.6-3.72,.6s-2.44-.46-2.52-1.04c.66,.36,1.23,.71,2.95,.65,1.72-.06,3.18-.79,4.65-.91,1.47-.13,3.06,.13,4.16-.39,0,0-.35,.76-1.7,.79Zm-.58-.65s.06-.13,.15-.33c.34,0,1.59,.01,2.1-.3-.02,.1-.05,.19-.1,.28-.36,.28-1.43,.5-2.16,.35Zm2.28-.77c-.15,.11-.61,.28-2.05,.27,.03-.07,.06-.13,.09-.2,.28,.01,1.45,.03,1.96-.34,0,.09,0,.18,0,.27Zm0-.4c-.2,.11-.84,.4-1.88,.31,.01-.03,.02-.06,.04-.09,.26-.04,1.32-.21,1.82-.38,.01,.05,.02,.11,.03,.16Zm-.06-.31c-.2,.09-.9,.37-1.72,.37,.03-.06,.05-.13,.07-.19,.22,0,.96,0,1.59-.38,.02,.06,.04,.13,.06,.2Zm-.22-.56c.04,.06,.07,.13,.1,.21-.15,.08-.73,.37-1.49,.41,0-.01,.01-.03,.01-.04,.01-.04,.02-.07,.04-.1,.26-.07,.97-.26,1.33-.47Zm-1.27,.32c.12-.28,.22-.36,.36-.36,.17,0,.63-.2,.68-.24,.05,.03,.1,.08,.16,.16-.2,.09-.83,.38-1.2,.44Zm2.54-4.8c-.22,.28-.77,1.67-.95,2.28-.15,.53-.13,.54-.52,.93-.16,.08-.47,.2-.94,.2-.69,0-1.5-.17-1.72-.21,.15,.21,1.85,.5,2.52,.21,.09,0,.26,.03,.31,.11-.09,.63-.84,.85-1.13,.87-.3,.02-.25,.22-.47,.9-.24,.65-.57,1.26-.57,1.26-1.43-.19-3.17,.28-3.8,.47-.12-.44-.29-.81-.49-1.12,.14-.11,.6-.68,.51-.9-.9-1.25-2.28-1.52-2.63-1.57,.17-.15,.35-.27,.53-.36,.34,.03,1.13,.12,1.37,.21,.32,.11,1.5,1.2,1.73,1.2,0,0-1.26-1.2-1.72-1.34-.33-.1-.89-.15-1.17-.16,.15-.06,.29-.11,.41-.15,.49,.05,.97,.11,1.09,.18,.13,.14,1.12,.9,1.39,1.12,.43-.28,.74-.44,.71-.66-.03-.22,.08-.44,.19-.61,.08-.13,.21-.18,.27-.2-.03,.14-.04,.28-.04,.4-.13,.22,.06,.25,.02,.52-.05,.27-.5,.43-.91,.76,.38,0,.91-.39,1.04-.5,.08-.08,.06-.33,0-.74-.06-.41,.24-1.2,.24-1.2-.12,.13-.21,.33-.28,.53-.05-.15-.22-.41-.8-.41-.84,0-2.01-.36-2.46-.86-.01-.05-.02-.1-.04-.15,.94,.62,1.82,.68,2.26,.71,.46,.03,.82,.06,.91,.25,.13-.38-.33-.32-1.43-.46-.92-.12-1.58-.55-1.78-.69-.13-.66-.02-1.33,.12-1.43,.54,.74,2.55,.82,2.79,.8,.25-.02,.13-.58,.32-.69,.16-.1,1.4-.05,1.72-.04,0,0,0,0,0,0l3.28,.05s.02-.06,.16-.25c.33,.08,.19,.44-.03,.72Zm8.15,9.59c-.85-.25-.87-.64-.87-.64,0,0,0-.13,.08-.19,.25,.32,.66,.43,.66,.43,0,0,.19,.13,.13,.4Zm5.33,2.74c-.56,.5-.88,.52-2.03,.1-1.15-.42-2.93-1.04-3.11-2.17,.46,.38,.96,.96,2.21,1.42,1.25,.46,1.88,.65,2.36,.56,.48-.1,1.76-1.78,2.13-2.26,0,0,.15,.81-1.55,2.36Zm-3.32-4.69c.42-.32,1.43-.79,1.91-.6,.16,.06,.42,.1,.72,.13,.26,.24,.28,.49,.28,.57-.11-.01-.23-.01-.36,0-.74,.04-1.57,.14-2.28,.49,.03-.12,.05-.37-.27-.57Zm2.82-.46c.13,0,.26,.01,.4,.02,.13,.2,.16,.49,.16,.63-.09-.03-.19-.05-.29-.07,.03-.22-.15-.46-.26-.58Zm-1.53,.89c1.37-.4,2.72-.07,3.11,.72-.7-.73-2.14-.89-3.65-.36-1.4,.49-1.79,1.83-1.87,2.16-.07-.05-.11-.08-.11-.08,.7-1.92,1.03-2,2.52-2.44Zm2.66,2.72s-.06,.09-.1,.13c-.15-.11-.58-.36-1.6-.35,.41,.07,1.25,.19,1.49,.49-.05,.06-.09,.11-.14,.17-.15-.1-.59-.35-1.22-.19-.63,.16-.96,.63-1.06,.8-.06-.02-.11-.04-.17-.05,.29-.63,.9-.94,1.22-1.05-.86,.06-1.27,.83-1.35,1-.07-.03-.14-.05-.2-.08,.11-.19,.48-.75,1.08-.99-.12-.09-.74,.22-1.21,.94-.08-.03-.16-.07-.24-.1,.55-.87,.92-.95,1.22-1.1-.65,0-1.25,.81-1.4,1.02-.06-.03-.11-.06-.17-.08,.13-.21,.77-1.14,2.03-1.32,1.24-.18,1.89,.28,2.04,.4-.05,.09-.1,.18-.16,.27-.12-.11-.64-.49-2.1-.46,.5,0,1.51,.22,2.03,.57Zm-1.93,1.22c-.07-.01-.13-.02-.2-.04,.1-.15,.36-.45,.78-.48-.11-.12-.75,.15-.91,.45-.07-.02-.13-.03-.2-.05,.79-1.08,1.74-.69,2.01-.55-.13,.14-.25,.26-.37,.36-.59-.23-.99,.16-1.11,.3Zm1-.21c-.18,.14-.33,.24-.41,.25-.14,0-.27,0-.41-.02,.35-.33,.68-.28,.82-.23Zm-.95-1.91c-1.44,.24-1.97,1.11-2.1,1.37-.04-.02-.08-.04-.12-.07,.16-.3,.88-1.41,2.55-1.54,.91-.08,1.7,.27,1.92,.47-.02,.06-.05,.12-.08,.17-.14-.13-.73-.56-2.17-.4Zm-.25-.3c-1.48,.29-1.97,1.25-2.08,1.55-.05-.03-.09-.05-.14-.08,.11-.27,.59-1.26,1.89-1.61,1.45-.39,2.35-.08,2.93,.39-.02,.06-.04,.12-.06,.18-.2-.16-1.03-.71-2.54-.42Zm.54-.37c-1.63,.09-2.32,.66-2.91,1.75-.06-.03-.11-.07-.16-.1,.48-.58,.94-1.69,2.8-1.84,1.63-.14,2.24,.35,2.4,.5-.01,.07-.02,.15-.04,.22-.16-.16-.72-.6-2.08-.53Zm-3.19,1.57s-.03-.02-.05-.03c.46-.87,1.21-2,2.79-2.16,1.62-.16,2.16,.55,2.16,.55,0,0-.86-.46-2.53-.2-1.48,.23-2.21,1.53-2.37,1.84Zm2.11-2.2c-1.61,.44-2.14,1.88-2.22,2.13-.03-.02-.06-.04-.09-.06,.74-1.74,1.18-1.93,2.22-2.2,1.98-.57,2.98,.22,3.27,.52,0,.01,0,.02,.01,.03,.01,.06,.02,.12,.02,.18-.28-.38-1.59-1.04-3.22-.6Zm3.49,.36s-.39-.72-1.22-1.05c0-.23-.12-.56-.16-.69,.3,0,.59,0,.83,0,0,0,.52,.65,.54,1.73Zm-.87-4.66c-.29,.34-.6,.81-.62,.91,.38-.44,.61-.61,.61-.61,.04,.15,.36,.36-.24,1.06,.49,.15,1.11,.97,1.13,1.5,0,0-.01,0-.02,0-.17-.02-.88-.09-1.73-.11-.98-.02-1.11-.25-1.45-.25s-1.7,.49-1.87,.91c0,0,.44,.35,.45,.58-.07,.04-.14,.08-.2,.12-.15-.15-.51-.52-.55-.72,.21-.55,.98-.77,1.42-.93,.43-.15,1.21-.02,1.36,.06,.15,.08,1.38,.06,2.3,.08,.09-.02-.19-.55-.59-.83-.49-.21-2.36-.04-3.29-.08-.79,.42-1.57,1.04-1.57,1.04,0,0-.06-.08,0-.28,.34-.09,1.17-.7,1.93-1.38-.48,.33-1.03,.55-1.44,.86-.02-.59,.03-.9-.09-1.11-.13-.23-.59-.92-.59-.92,.61-.04,1.24-.06,2.03-.19-.14,.16-.57,.64-1.01,1,.53-.11,1.15-.85,1.32-1.06,.22-.04,.45-.09,.7-.16,.68,1.15-.09,1.56-.18,1.88,1.09-.53,.57-1.62,.39-1.93,.04-.01,.08-.02,.12-.03,.07-.02,.14-.04,.21-.06,.2,.48,.17,1.58,.03,1.99,.47-.78,.26-1.79,.19-2.05,.75-.22,1.18-.37,1.38-.44,0,.49-.04,.95-.12,1.15Zm.09-1.96h-.22c-.04-.34,.11-.66-.3-.64-.42,.02-2.85,.81-6,.81,.64,.25,3.89-.11,5.02-.38,1.13-.26,1.25-.21,1.08,.51l-.19,.15s.39-.11,.62-.27c0,.12,.01,.25,.01,.38-.36,.17-1.47,.64-3.43,.99-1.49,.11-2.11,.17-2.02,.36,.09,.19,.6,.81,.66,1.25,.04,.33,.08,.74,.09,.93-.07,.06-.13,.13-.18,.21,0,0-.04-.15,.04-.55,.08-.4-.45-.81-.81-1.42-.36-.6,.21-.79,.72-.83,1.55,.02,4.02-.87,4.02-.87-.09,0-.51-.04-1.38,.23-2.11,.74-2.83,.25-3.44,.62-.6,.38,.17,1.32,.47,1.66,0,0,0,0,0,0-.2,.07-.76,.27-.91,.56,.26-.06,.82-.26,1.04-.34,.01,.03,.02,.07,.03,.1-.19,.05-.63,.21-.89,.6,.3-.18,.71-.36,.92-.44,.03,.23-.01,.42-.01,.42,0,0-.13,.23-.02,.89,.25-.02,1.21-.85,1.66-1.11,.43-.08,2.96,0,3.17,.04,.21,.04,.43,.51,.43,.51,0,0-.53,.04-1.11,.04s-1.47-.34-2.08-.23c-.6,.11-1.74,.7-1.83,1.1-.08,.35,.49,.81,.63,.92-.53,.4-.95,.99-1.16,1.91-.34-.24-.44-.48-.44-.48,0,0,0-.39-.08-.66,.12-.57-.39-1.01-.39-1.01,.18,.48,.2,.67,.19,.74-.23-.13-.66-.26-.75-.51-.11-.49-.05-2.07,.28-2.29-.09-.16-.4-.37-.44-.38,0-.22,0-.37-.01-.48,.02,0,.67,.07,1.43-.08-.2-.03-1.21-.09-1.47-.11-.07-.08-.28-.33-.39-.46,.15-.49,.13-.68-.3-1.18s-.5-.94-.53-1.83c-.4-.27-1.18-.72-.57-1.06,.24,.22,.82,.57,1.34,.66,.1,.09,.32,.26,.54,.28,.09,0,.22,0,.37,0,.03,0,.05,.02,.09,.02,0,0,0-.01,0-.02,.35,.02,.72,.11,.63,.58-.18,.01-.32,.02-.44,.02,.54,.15,2.92-.11,6.16-.74,.06,.16,.11,.5,.14,.9Zm-2.03-1.59c-.71,.21-.62,.78-.58,.94-.98,.18-2.17,.37-2.99,.45,0-.1-.02-.43-.26-.59-.13-.09-.37-.12-.62-.16,.01-.19,.07-.19,.17-.11,2.47,.08,3.55-.6,3.55-.6-1.57,.36-2.66,.42-3.44,.42-.29-.21-.43,.08-.48,.27-.2-.03-.4-.06-.53-.11-.2-.25-.14-.65,.08-.66,.24-.01,1.76,.12,3.36-.29,1.56-.4,2.38-.92,2.37,.13-.1,.05-.31,.15-.53,.25,0-.09-.26-.34-.64-.04,.25,0,.49-.02,.55,.11Zm.43,.73c-.03-.42,1.12-.8,1.46-.9,.05,.22,.11,.34,.02,.64-.16,.02-.62,.08-1.48,.26Zm1.81-1.85c.05,.22,.01,.47-.17,.72-1.64,.35-1.84,.95-1.85,1.18-.02,0-.05,0-.07,.02-.17,.04-.35,.07-.55,.11,0-.11,0-.31,.06-.45,.06-.17,.75-.54,1.02-.68,.36-.02,1.13-.3,1.25-.7-.21,.2-.41,.36-.65,.36,.2-.34,.44-.73,.44-.73,0,0,.45-.09,.52,.19Zm-3.48-17.73c.89,2.32,1.19,2.55,.78,4.02,.27,.54,1.47,3.64,1.76,4.78,.29,1.14-.02,2.17-.02,2.17,0,0,1.7,2.59,1.7,3.46s-1.6,3.52-2.23,4.09c.06-.52-.11-.9-.77-.77-.66,.14-2.33,.85-4.02,.74-1.15-.03-1.56-.06-1.4,.74-.72-.21-1.76-1.03-2.72-2.2-.81-.98-.49-1.64-.24-2.02,.17,.18,.56,.59,.87,.88-.29-.51-.65-.96-.76-1.09-.26-.53-.81-.92-.88-1.15-.05-.16-.02-.87,0-1.26,.39,.41,2.11,2.2,3.05,3.19-.28-.4-2.74-3.13-3.03-3.45h0s-.03-.03-.03-.03h0c-.23-.19-1.78-1.5-1.99-2.2-.23-.76-.37-4.86-.53-5.28-.16-.42-1.6-2.03-2.3-2.03,.7,.44,2.14,1.78,2.21,2.46,.07,.68,.26,4.38,.47,5.05,.22,.68,.8,1,.8,1,0,0-.64,1.19-2.51,3.08,.55-.32,2.25-2.13,2.33-2.16,.1,.42,.7,1.2-.13,2.26-.83,1.06-1.28,1.39-1.35,1.63-.07,.25,.41,.78,.28,1.06-.18,.08-.12,.32-.58,.42-.46,.1-2.68,.01-2.68,.01,0,0,.03-.64-.3-.76-.32-.12-3.56-.14-4.41-.56-.29-.13-.38-.64-.63-1.03-.25-.39-.07-.8,.44-1.04-.55-.5-1.14-1.53-.75-2.8,.39-1.27,.9-1.79,.93-2.45,.03-.66-.92-2.24-.36-3.61,.56-1.37,1.63-4.43,2.29-6.24,.66-1.81,1.53-3.56,1.87-3.92,.25,.03,.46,.06,.67,.1-.11,.19-.52,.94-.41,1.28,.1-.48,.46-1.08,.58-1.26,.11,.02,.22,.03,.34,.05-.46,.77-1.29,3.88-1.08,4,.64-2.87,1.19-3.78,1.32-3.97,.11,.01,.22,.02,.34,.03,.24,.18,.57,.31,1.02,.42-.23,.42-.5,2.69-.29,3.63,.28-2.66,.55-3.38,.65-3.56,.43,.08,.96,.13,1.59,.16,.65,.03,1.75,.09,3,.11,.01,.17,.1,1.17,.14,1.61,.2-.57,.12-1.31,.07-1.6,.06,0,.12,0,.18,0,.31,.42,.31,1.75,.35,2.69,.4-1.11,.05-2.5,0-2.68,.6,0,1.22,0,1.83-.03,.54,.37,.82,2.19,.85,2.66,.12-1.64-.35-2.47-.5-2.68,.04,0,.09,0,.14,0,.89,.9,1.2,2.85,1.36,3.53-.07-2.27-.93-3.41-1.04-3.55,.69-.04,1.35-.11,1.93-.22,0,0,.89,1.3,1.84,4.28Zm-.13-2.26c-.45-.38-.98-.96-.98-.96,.31-.58,.84-1.08,.84-1.08,0,0,.36,.6,.89,.84,0,0-.58,.74-.74,1.2Zm3.59,2.9l-1.22-1.13,.6-.48c.5,.46,.72,.5,.72,.5l-.1,1.1Zm-.57-1.89s-.6,.41-.77,.62c-.32-.29-.84-.85-1.22-1.23,.1-.11,.26-.33,.33-.59l-.5,.42c-.06-.06-.12-.12-.17-.16,.09-.09,.26-.27,.4-.53-.11,.06-.52,.34-.61,.4-.18-.11-.19-.11-.19-.11l.69-1.01,.33,.36s.81-.72,.81-1.01c-.05-.29-.24-.48-.24-.48l1.17-1.2c.48,.36,1.08,.72,1.08,.72,0,0-.74,.81-.72,1.25,.02,.43,.53,.93,.53,.93,0,0-.19,1.56-.19,2.16l-.77-.55Zm.86,2.16s.07-.1,.43-.22c0,0-.1,.34-.19,.36l-.24-.14Zm5.87,2.54c-.29-.07-.67,0-.84,.22-.31,.19-.48,.05-.38-.29-.34,.05-.45,.41-.91,.6-.45,.19-.96,0-.96,0,0,0,.12-.53,.29-.67-.36,.17-.89,1.17-1.25,1.17s-.67-.62-.77-.67c.17-.65,.84-1.77,.1-2.37,.1,.24,.15,.44,.15,.65-.15-.04-.5-.13-.65,.02,.28,.02,.55,.1,.64,.13-.02,.1-.04,.21-.09,.32-.17,.41-.29,.91-.29,1.27-.43-.41-.81-.67-.84-1.13-.02-.45-.43-.67-.07-1.1,.36-.43,.57-.65,.72-.91,.14-.26,.6-.36,1.1-.48,.5-.12,.98-.05,1.75,.29,.77,.34,1.77,.81,2.95,1.17,0,0,.02,1.41-.65,1.77Zm1.56-3.67c.03,.24,.06,.54,.05,.83-.16-.03-.52-.15-.5-.51,0-.12,.04-.21,.11-.26,.1-.08,.26-.07,.34-.06Zm-.07-.47s.03,.12,.05,.32c-.11,0-.28,0-.41,.09-.11,.08-.17,.21-.18,.38-.02,.44,.39,.62,.65,.67-.02,.38-.12,.72-.36,.8-.41,0-.72-.07-1.29-.31-.58-.24-2.66-1.25-3.5-1.27-.84-.02-2.23,.45-2.39,.65,.14-1.29,.17-1.6,.17-1.6,0,0,1.27-1.46,3.11-1.15,1.84,.31,3.78,1.44,4.14,1.44Zm-2.65-12.07c-.46,.24-1.81,.32-2.49-.06-.56-.31-.32-1.05-.18-1.38,.17,.1,.36,.17,.55,.22-.1,.21-.29,.09-.45,.37-.18,.33,.25,.68,.51,.53-.53-.23-.3-.56-.05-.63,.08-.06,.1-.17,.1-.24,.2,.05,.41,.08,.6,.09,.07,.17,.19,.52,.19,.61,.18,.13,.2,.43,.2,.43,.13-.33,.28-.4,.4-.41l.26,.08s-.15,.25-.41,.25c.25,.04,.48-.1,.59-.17,.05,.1,.11,.2,.18,.31Zm-.3-.55l-.28-.04c.04-.1,.13-.16,.18-.2,.03,.08,.07,.16,.11,.24Zm-.16-.38c-.11,.07-.37,.23-.53,.27-.17-.07-.22-.29-.23-.42,.32,.01,.58-.01,.69-.03,.02,.06,.04,.12,.07,.18Zm-1.07-2.64h0c.12,.23,.23,.44,.32,.64-.23,.15-.45,.19-.6,.1-.13-.07-.2-.23-.18-.41,.04-.35,.44-.34,.45-.34Zm-.25-.44c.04,.07,.08,.14,.12,.21,.01,.03,.03,.05,.04,.08-.2,.02-.48,.13-.52,.47-.03,.24,.07,.46,.25,.56,.2,.11,.46,.08,.74-.1,.08,.18,.15,.35,.21,.5-.32,.08-.73,.09-1.03-.07-.23-.12-.37-.33-.43-.62-.15-.76,.48-1,.63-1.04Zm-.2-.34c-.41,.16-.97,.6-.8,1.45,.08,.4,.29,.7,.62,.88,.44,.24,.97,.21,1.35,.1,.07,.21,.14,.4,.2,.59-1.7,.19-2.74-.9-2.64-2.12,.08-.93,.77-1.12,1.11-1.16,.05,.08,.11,.17,.16,.25Zm-.52-.76c.07,.09,.14,.19,.21,.29-1.01-.04-1.34,.62-1.29,1.91,.05,.63,.32,1.05,.67,1.33-.66,.98-.42,1.67,.95,2.02,1.11,.28,1.83-.07,2.08-.23,.04,.06,.08,.12,.13,.18,.02,.02,.03,.04,.05,.06-1.26,.66-2.33,.33-2.87,.07-.6-.3-.9-.67-.92-.74,0-.15,.08-.41,.15-.64,.07-.23,.14-.44,.15-.59,.01-.13-.07-.26-.19-.45-.24-.39-.6-.98-.45-2.01,.07-.46,.24-.79,.52-.99,.31-.22,.66-.22,.8-.21Zm-2.16-1.33s.03,0,.04,0c.43-.25,.58-.3,.58-.3,0,0,.61,.43,1.36,1.4-.21,.01-.49,.07-.76,.26-.33,.24-.54,.62-.62,1.15-.17,1.11,.24,1.77,.48,2.16,.08,.12,.16,.25,.15,.31-.01,.13-.08,.34-.14,.54-.08,.26-.16,.53-.16,.71,0,.2,.35,.55,.81,.82,.49,.29,1.8,.87,3.35,.04,.89,1.23,1.29,1.7,1.29,2.1,0,.43-.3,3.04-.56,4.16,.43-.76,.48-1.67,.48-1.67,0,0,1.39,2.61,1.14,3.35-.25,.74-.33,.96-.2,1.42,.13,.46,.71,.68-.36,1.6-.46-.21-1.22-.65-2.15-.94,.13-.03,.33-.06,.63-.08-.43-.11-.79-.07-1-.03-.34-.08-.7-.15-1.07-.17,1.03-.53,1.83-.67,2.61-.77-1.63-.24-2.83,.53-3.16,.77-.82,.04-1.68,.3-2.55,.91,.1-1.45,0-1.55-.1-1.72-.1-.18-.48-.51-.03-1.27,.46-.76,.68-1.24,.66-1.42-.33,.28-.41,.48-.41,.48,0,0-.25-.18-.28-1.32,.53-.43,3.02-2.31,3.5-2.94-.79,.46-3.25,2.82-3.96,2.76-.05-1.19-.03-1.75-.05-1.83-.03-.08-1.12-.86-1.29-1.45l.33,.08s-.99-.91-1.12-1.17c-.08-.74,.1-3.88,.61-5.33,.51-1.45,.76-1.33,.82-1.68,.45-.23,.94-.75,1.12-.93Zm-2.04-.88c.71,.18,1.34,.18,1.34,.18,0,0,.07,.46,.47,.64-.13,.12-.44,.39-.67,.64-.18,0-.6-.1-1.2-.85,.18-.1,.66,.33,1.09,.63-.15-.43-.76-.84-.76-.84,0,0-1.09,.08-1.24,0-.15-.3-.05-.25,.03-.41-.08-.28-.23-.41-.23-.41,0,0,.33-.41,1.17,.41Zm-1.22-3.35c.27,.64,1.62,1.44,1.62,1.68s-1.65,.37-2.35,.37-2.23,.09-3.51,1.04c-.24-.15-.21-.27-.21-.27,0,0,1.59-1.25,3.85-1.1,1.13,0,1.59,.03,1.46-.27-.12-.31-.79-.67-.98-1.01,0,.52,.76,1.01,.58,1.04-.92,0-3.72-.18-5.16,1.43-.09,.24,1.43,.98,1.5,1.34-.4,.37-4.43,1.46-4.98,5.86-.21,1.92-.27,3.3,.18,3.63-.06-.82-.34-2.84,.46-5.31,.79-2.47,3.58-3.58,4.6-4.03,.56-.51,1.78-.89,2.21-.84,.1,.3,.23,.48,.23,.48,0,0-1.47,.28-2.35,2.16-.04,.08-.07,.15-.07,.15-2.11-.1-2.81-.07-3.01,.18-.2,.25-.63,1.57-.28,1.8,.36,.23,1.65,.79,1.95,1.14,.03,.03,.05,.06,.07,.08-.08,.22-.3,.8-.4,1.21,.24-.26,.47-.81,.55-1.02,.14,.17,.23,.26,.47,.24,0,0,.25,0,.94-.28s1.14-.43,1.62-.46c.48-.03,1.09-.05,1.22-.28,.13-.23,.53-1.19,.41-1.55-.12-.34-.88-.97-3.18-1.06l.05-.15c.17-.44,.71-1.47,2.34-2.17-.35-.23-.28-.61-.28-.61-.51-.08-.99-.08-2.54,.63-.53-.43-.79-.63-1.01-.79,.61-.51,2.03-1.07,3.27-.91,.25,.56,.43,.66,.66,.66,.1,.18-.3,.63,.08,.76,.28,.23,.25,.3,.25,.3,.71,0,.76,.03,.76,.03,0,0,.6,.75,1.22,.85-.05,.07-.17,.11-.2,.16-.48,.38-.74,.89-1.04,2.05,0,0-.58,4.34-.53,5.1,.66,.66,.76,.99,.89,1.57,.43,.2,.48,.25,.48,.25l-.05,.81c-.32-.29-2.41-.89-5.08-1.12-.02-.24-.03-.72,.06-1.01-.22,.16-.25,.73-.25,.99-.14-.01-.28-.02-.42-.03,.04-.38,.18-1.52,.24-1.9,.08-.46,.08-1.77,.08-1.77-.69,.46-.76,2.08-.74,2.66,.02,.43,.04,.82,.05,.99-.11,0-.23,0-.35-.01,.02-.45,.06-1.87,0-2.27-.22,.22-.19,1.86-.18,2.27-.93-.02-1.9,0-2.86,.12,2.21,.18,8.19,.15,9.33,1.37,.18,.33,.56,1.17-3.2,.84,.33-.89,.46-.99,.46-.99,0,0,2.26,.05,2.38,.74,.28-.28,.05-1.06-4.69-1.24-3.25-.18-4.92-.08-5.33-.58,0,0-.35-.63,.2-3.83s2.89-5.07,4.36-5.96c-.3-.43-.84-1.22-.99-1.27-.08,.41,.58,1.22,.58,1.22-.58,.2-2.38,1.78-3.22,3.35,0-1.19,1.06-3.78,2.92-5.12,1.45-.94,1.7-1.27,1.75-1.52,.43-.28,1.63-.87,2.54-1.79,0,0,.31,.34,.58,.98Zm-2.85,6.54c2.34,.05,3.16,.63,3.27,.94,.09,.25-.24,1.11-.39,1.39-.07,.13-.73,.16-1.02,.18h-.04c-.51,.03-.99,.19-1.69,.47-.62,.25-.87,.26-.88,.26-.15,.01-.18-.02-.36-.24l-.16-.2c-.21-.25-.75-.53-1.43-.87-.25-.13-.46-.23-.57-.3,0,0-.03-.03-.04-.1-.07-.4,.23-1.25,.36-1.42h0c.17-.22,1.43-.18,2.94-.11Zm-1.19,5.89c-.08-.51,.03-1.37,.25-1.62,0,0,.05,1.12-.25,1.62Zm3.42-14.18c-.54,1.73-7.54,4.59-8.97,4.62-1.43,.03-5.1-2.77-5.99-3.61-.89-.83-.69-1.13-.92-2.95-.24-1.82-1.22-3.49-1.22-3.49,0,0,.18,.06,.66,.3-.3-.73-.51-1.36-.67-1.96,.1,.04,.2,.09,.3,.15,.38,1.92,1.39,3.74,1.89,4.03,.48,.28,1.6,.31,2.09,.2,.46-.11,.4-.93,.35-1.32,.09,.07,.17,.14,.22,.19-.03-.27-.19-.57-.43-.9,0-.27-.02-.88,.02-1.02-.15,.07-.2,.59-.22,.78-.15-.18-.33-.37-.52-.56-.51-1.04-1.06-3.09-1.14-5.22-.03-3.99,1.34-6.02,1.85-6.11,.47-.08,.55,.09,.57,.12-.01-.04-.16-.41-.48-.35-.75,.09-1.85,1.79-2.12,4.32-.27,2.53,.3,4.56,.83,6.79,0,0,0,0,0,0-.05-.09-1.34-2.27-1.46-5.42-.09-4.92,2.38-6.05,2.95-6.02-1.13-2.56-2.44-1.97-3.46-.89-1.01,1.07-2.03,2.83-2.09,5.78-.06,2.95,.27,4.11,1.07,7-2.41-2.77-2.15-6.17-1.97-7.45-.75,3.43,.3,5.36,1.4,7.24-1.94-2.06-2-4.56-1.94-5.33-.42,2,.69,4.2,1.46,5.22-.54-.27-1.55-1.52-2-3.81-.63-3.25,.3-5.84,.63-7.15-2.74,5.81,.39,10.22,.39,10.22,0,0-2-.8-2.06-5.16,.15-4.47,2.5-7.51,3.13-8.17-.39,0-2.5,2.47-3.1,5.75-.6,3.28,.12,5.36,.69,6.44-.36-.24-.92-.74-1.25-2.8-.75-4.68,1.43-7.24,2.06-8.08-3.1,2.47-2.65,8.23-2.21,10.22-.69-1.04-.98-1.58-.83-4.14,.3-3.67,.69-4.29,1.64-6.17-1.7,1.82-1.79,5.66-1.79,7.54-1.1-2.09-.03-5.78,.3-6.68-1.01,1.76-1.07,4.05-.86,5.66-1.13-1.61-.77-3.87,.36-5.99,1.79-3.37,3.07-3.93,3.81-4.59-1.82,.89-2.68,2.21-3.58,3.43C.42,13.97,.75,16.5,.81,18.05c-2.09-3.76,1.88-8.58,2.62-9.24-.89,.6-1.88,1.82-2.38,2.83,.97-3.05,3.83-4.57,4.95-5.21,1.61-.85,2.34-.71,3.34-.54-1.09-.64-2.21-.26-2.76,.02,.75-.66,1.51-1.06,2.51-1.09,0,0,0,0,0,.01,.98-.05,1.16,.05,1.81,.21-.33-.5-1.16-.47-1.52-.44,1.8-1.52,2.62-1.55,2.62-1.55,1.61-.41,2.38-.2,2.57,.02,.01-.59-1.57-.45-2.1-.38,.97-.71,3.34-2.22,6.17-2.49,2.81-.27,3.6,.58,3.82,1.01-.34,.15-1.35,.63-2.65,1.42-.07-.29-.27-.87-.76-.99,.29,.16,.46,.85,.49,1.16-.08,.05-.17,.1-.25,.16-.08-.32-.43-1.43-1.38-1.67,.51,.36,1.07,1.31,1.19,1.8-.24,.16-.49,.32-.74,.5-.03-.25-.19-1.06-.97-1.28,.43,.3,.76,1.07,.72,1.46-.08,.06-.16,.12-.24,.17-.07-.36-.54-2.16-2.48-2.09,.47,.08,2.12,.41,2.23,2.27-.65,.49-1.32,1.03-1.98,1.64-.11-.3-.67-1.66-1.98-1.86,.57,.17,1.64,1.39,1.79,2.03-.11,.11-.23,.22-.34,.33-.11-.34-.68-1.86-2.27-1.7,.51-.05,1.8,.62,2.06,1.9-.16,.16-.31,.32-.47,.49-.1-.22-.74-1.49-2.88-1.41,.53,.1,2.04,.32,2.71,1.59-.17,.19-.34,.39-.51,.59-.1-.31-.48-1.24-1.73-1.37,.61,.25,1.43,1.03,1.53,1.6-.26,.34-.43,.8-.53,1.3-.16-.28-.68-1.06-1.54-.78,.53,.1,.95,.1,1.49,1.1-.02,.14-.04,.28-.05,.41-.29-.4-1.67-2.14-3.14-.66,.38-.23,1.55-1.07,3.12,.92-.03,.45-.03,.89,0,1.26,.16-1.24,.1-2.31,.93-3.55,.45-.39,1.4-1.11,2.19-1.08,1.08,.05,2.62,2.35,2.95,2.96-.74-1.88-2.01-3.15-3.01-3.15-.72,0-1.38,.45-1.7,.71,.14-.16,.29-.32,.46-.49,.73-.71,1.72-1.57,2.83-2.41,1.42-.05,2.5,1.13,3.01,1.89-.87-1.95-2.34-2.07-2.78-2.06,.38-.28,.77-.56,1.17-.83,1.38,.09,2.53,1.48,2.97,1.91-1.25-1.89-2.45-2.07-2.71-2.08,.19-.12,.38-.25,.57-.37,1.84,.19,4.16,3.49,4.85,4.45-2.22-3.99-4.18-4.55-4.56-4.63,.43-.26,.86-.51,1.3-.74,2.98-.12,5.06,2.91,5.46,3.29-2.32-3.37-4.63-3.48-5.12-3.46,.32-.16,.64-.31,.96-.44,.94-.32,1.51-.53,1.9-.65,.38,.23,1.18,.93,1.57,1.27-.18-.43-1.1-1.17-1.34-1.35,.32-.09,.48-.1,.66-.04,.42,.12,3.61,.45,7.54,5.27,3.93,4.83,5.07,11.06,4.8,13.14-.13,1.02-.41,1.52-.71,1.82,.12-.52,.43-2.25-.1-5.39-1.23-5.86-4.07-8.67-4.07-8.67,2.06,2.94,3.53,6.77,4.01,9.74,.43,2.67-.02,4.26-.12,4.55-.1,.07-.2,.14-.3,.2,0,0,0,0,.01-.01,.62-2.65-.03-3.85-1.5-8.43-1.47-4.58-3.83-6.69-3.83-6.69,1.42,1.61,2.89,5,3.4,6.29s1.61,4.36,1.82,5.86c.19,1.3-.01,2.75-.07,3.1-.05,.04-.1,.09-.14,.14-.02-.04-.08-.09-.2-.09,.27-.97,.6-3.33-1.66-8.26-2.33-5.08-4.04-6.47-4.04-6.47,.08,.21,.35,.59,1.04,1.5,.7,.91,3.16,5.83,4.07,8.53,.82,2.45,.4,4.44,.31,4.79-.22,.1-.52,.3-.96,.69-.35,.27-.66,.53-.95,.77,0-.15,0-.39-.11-.57-.09,.1-.08,.53-.07,.73-.14,.12-.27,.23-.39,.34,.03-.26,.04-.76-.19-1.04,.01,.19,.03,.9,.03,1.18-.13,.12-.25,.23-.36,.34,0-.24-.02-1.02-.39-1.23,.15,.31,.19,1.1,.2,1.41-.13,.12-.24,.24-.35,.35,.02-.42,.04-1.54-.46-1.89,.15,.32,.23,1.78,.25,2.12-.1,.1-.18,.2-.27,.29-.03-.37-.19-2.21-.86-2.64,.26,.5,.62,2.51,.68,2.86-.11,.13-.21,.25-.3,.36-.04-.55-.26-2.99-.88-3.45,.29,.73,.62,3.25,.68,3.7-.15,.2-.27,.36-.38,.49,.18-3.04-1.19-4.47-1.73-4.47-.37,0-.97,.49-1.5,1.16-.19-.13-.58-.37-.8-.42,.26,.32,.5,.54,.63,.65-.06,.08-.12,.17-.17,.26-.15-.14-.56-.52-.81-.64,.24-.5,.18-.78,.02-1.01,1.76-2.15,1.13-6.91,.72-7.3,.75,5.13-.66,7.09-.98,7.18,.33-.42,.92-2.18,.77-5.31-.03-4.83-1.79-6.65-1.79-6.65,0,0,1.01,1.49,1.46,5.19,.51,4.26-.42,6.47-1.04,7.06,.39-1.76,.57-4.26,.39-6.41-.18-2.15-2.06-6.44-2.68-6.85,.54,.89,2.23,4.2,2.53,8.17,.3,3.96-.89,5.54-1.58,5.9,1.73-2.74,1.01-7.96,.57-8.34,.89,7.72-.72,8.2-1.25,8.52,1.52-3.84,.54-8.94,.36-8.7,.89,7.06-.74,9.06-1.22,8.97,.48-.95,1.37-3.46,.33-8.43-1.04-4.98-2.77-7.24-3.1-7.42-.33-.18-.83,0-.83,0,0,0,.03,.09,.6,.18,1.46,1.31,3.46,6.44,3.61,10.4,.15,3.96-.63,5.04-1.19,5.42,2-5.6-.09-11.21-.48-11.27,.75,1.49,1.1,4.71,1.1,7.03s-.57,3.58-1.49,4.62c1.43-4.38,.42-8.82,.03-9.66,1.31,6.97-.39,9.45-1.07,10.01,1.76-6.5,.39-10.61,.09-10.76,1.43,7.27-.24,10.04-.95,10.94,.27-.95,.51-1.73,.39-5.69-.12-3.96-.63-5.25-1.7-7.66-1.07-2.41-2.41-1.61-2.89-.75-1.25-.54-1.64,2.15-1.16,3.04-.09-1.19,.36-3.01,.83-2.86,.48,.15,1.01,1.94,1.67,4.89,.66,2.95,.12,6.97-.33,8.52,.69-4.83,.09-8.52-.69-11-.77-2.47-1.4-.18-1.34,.51,.63-1.55,.74-2.41,1.61,1.28,.86,3.7,.33,9.09,.15,10.58,2.5-5.72,.39-13.08-.51-14.84,.83-1.25,1.85-.57,2.98,2,1.13,2.56,1.22,8.64,1.13,10.88-1.04,.48-4.53,2.8-4.53,2.8,0,0-.16,0-.4-.05,0-.35,.03-1.51,0-1.61-.12-.08-.24-.08-.24-.08,0,0,.22,.04,.1,1.66-.02,0-.03,0-.05-.01,0,0,.36,.48,.8,.51,5.54-2.92,8.79-2.5,9.98-2.47,0,0-.36-.77-.57-1.04,.24-.15,.78-.83,.78-.83,0,0,0,.27-.18,.57,.3,0,.69-.66,1.07-.72,.3,.18,.21,.69-.3,1.49,0,0,.8,.54,.83,.89,0,0-.3-.3-.86-.72,.57,.72,.77,.92,1.13,.83,1.46-2.77,2.15-2.56,2.8-1.76,.66,.8,.86,4.08,.69,4.74-.18,.66-1.79,1.73-2.86,2.5-1.07,.78-1.37,.66-1.94,.18Zm-12.67-4.32c-1.43-1.46-4.04-2.8-4.51-3.03-.08-.33-.14-.65-.18-.98,2.09,1.26,4.39,3.29,4.69,4.01Zm-4.73-4.26c-.12-.89-.16-1.85-.24-3.1-.12-5.19,2.65-7.48,3.31-7.39,.66,.09,1.01,.63,1.64,1.52-1.88,.6-2.83,2.68-2.86,6.08-.02,2.21,.75,4.17,1.43,5.27-1.32-1.13-2.92-2.15-3.27-2.38Zm3.01,4.61c.19,.28,.47,.45,.84,.51,.38,.04,.68-.27,.84-.5,.04,.43,.03,.97-.18,1.02-.45,.1-1.52,.07-1.92-.17-.39-.23-1.34-1.82-1.75-3.69,.61,.33,1.31,.78,1.97,1.23-.06,.29-.16,1.06,.19,1.6Zm.84-.15c.3,.1,.52-.14,.59-.29,.07,.05,.13,.1,.19,.14-.07,.13-.37,.62-.74,.58-.3-.05-.53-.19-.68-.41-.27-.41-.22-1.02-.18-1.33,.17,.11,.33,.23,.48,.34-.04,.15-.14,.75,.34,.97Zm14.95-2.35c-.06,.11-.12,.22-.18,.33,0,0-.3-.33-.8-.66,.08-.12,.14-.22,.2-.32,.18,.11,.62,.4,.79,.65Zm-4.69-.31s.5,.12,1.12-.17c.62-.28,.82-.23,.82-.23,0,0,.52,.58,.55,.87-.72-.1-2.57-.02-3.63,.23,.27-.32,.67-.74,.67-.74,0,.12-.05,.5-.05,.5,.3-.15,.52-.47,.52-.47Zm-1.84,.85c.27-.45,.57-.79,.58-.85,0,0,.08,.75-.58,.85Zm-.97,.25c.2-.38,.55-.99,.55-.99,0,0,.15,.65-.55,.99Zm-.58,.18c-.62,.22-1.37,.42-3.96,1.69l-.1-.18s3.69-2.32,4.39-2.66c0,0-.17,.95-.33,1.15ZM24.16,2.19c1.17,.58,2.62,2.24,3.49,3.01-2.46-3.17-3.49-3.01-3.49-3.01Zm9.87,14c.78,1.95,1.1,3.96,1.26,5.3,.29-1.53-.24-3.16-1.93-7.81-1.69-4.66-3.29-5.73-3.29-5.73,.48,.51,1.69,2.76,2.14,3.53,.45,.78,1.04,2.76,1.82,4.71Zm-1.12-.99c.59,1.31,1.07,4.41,1.02,6.05,.43-1.36,.24-3.37-1.15-7.06-1.39-3.69-3.48-5.54-3.48-5.54,0,0,.8,1.36,1.39,2.01,.59,.64,1.63,3.24,2.22,4.55Zm.48,6.21c.62-4.07-1.69-7.95-1.69-7.95,1.77,4.82,1.55,6.53,1.69,7.95Zm-1.87-.05c1.12-2.92-.83-7.33-1.39-8.75,2.01,3.1,2.38,6.9,2.52,8.08,.08-5.89-2.51-8.32-2.51-8.32-.11-.46-1.23-2.57-1.85-2.7,0,0,.91,1.31,2.17,4.6,1.26,3.29,1.12,5.4,1.07,7.09Zm-1.85-.19c.78-.62,.29-4.17-.03-5.83,.48,.91,1.12,4.23,.88,5.4,.62-1.42-.13-4.6-.88-5.78-.37-3.05-1.93-5.14-1.93-5.14,1.58,3.67,1.58,5.46,1.79,6.39,.21,.94,.45,3.32,.16,4.95Zm-2.19-9.5c1.55,4.58,1.5,7.25,1.47,9.34,0,0,.45-1.02,0-4.49-.45-3.48-1.47-4.84-1.47-4.84Zm-.64,10.09c1.26-1.02,1.04-2.86,1.1-5.19,.62,.62,.51,3.75,.11,4.92,1.12-1.36,.51-4.31-.03-5.43-.03-3.56-1.23-4.95-1.23-4.95,.86,2.25,.88,4.6,.96,4.79,.11,3.5-.24,4.31-.91,5.86Zm-6.37,4.13c.29,0,.52-.26,.52-.58s-.23-.58-.52-.58-.52,.26-.52,.58,.23,.58,.52,.58Zm-10.41,2.83c1.04-.44,2.16-.02,2.16-.02-.58-.58-2.03-.39-2.16,.02Zm6.38-.18s3.41,.28,4.79,.23c-.76-.25-4.17-.35-4.79-.23Zm-3.13,2.48s.28,.34,1.95,.04c1.67-.3,1.71-1.11,1.71-1.11-1.07,1.21-3.66,1.07-3.66,1.07Zm.6-.86c0-.26-.6-.38-.99-.16-.54-.12,.02-.52,.28-.84,.26-.32,.12-.8,.12-.8-.12,.68-.56,.88-.76,1.19-.2,.3-.02,.56,.22,.64,.24,.08,.34,.44,.54,.44s.58-.2,.58-.46Zm-.76-.12s.56-.1,.58,.16c.02,.26-.44,.26-.44,.26,0,0-.26-.18-.14-.42Zm2.31,2.01s.34-.02,.68-.22c-.56,.02-1.45,.26-1.17,.44,.74-.06,1.37,.08,1.37,.08,.02-.22-.88-.3-.88-.3Zm13.37-4.44c.26-.28,.16-.78-.08-1.31-.24-.51-.47-1.28-1.19-.35-.22-.33-.25-.68,.25-1.32,.17,.32,.72,.49,.86,.36-.4-.08-.63-.37-.75-.54,.18-.59,.65-1.19,.83-1.21,.24,.14,.9,1.13,.9,1.43s-.12,.76-.12,.76c0,0,.48-.5,.32-1.01-.16-.5-.97-1.47-1.15-1.51-.26,.1-1.21,1.19-1.13,1.63-.28,.38-.84,1.41,.54,2.11-.14-.19-.28-.36-.41-.51,.06-.12,.21-.36,.43-.36,.3,0,.66,1.21,.58,1.55-.4-.02-1.47-.36-1.63,.86-.44,.22-.8,.74-.8,.9,.4-.42,.9-.72,.9-.72,.22,.3,1.49,.58,1.63-.78Zm-1.57,.48c0-.2,.44-.92,1.41-.5,0,0-.06,.72-.64,.86-.58,.14-.76-.16-.76-.36ZM3.24,25.14c-.29,.01-.94,1.01-1.13,1.31,.04,.04,.1,.08,.15,.12,.13-.27,.56-1.07,.98-1.43Zm17.46,13.65l-.04,.07c-.09,.18-.27,.69-.27,1v.12s.48,.25,.48,.25c.65,.33,1.16,.6,1.38,.85l.16,.19s.14,.17,.14,.17l.11-.02c.1-.02,.32-.07,.71-.23,.67-.27,1.12-.42,1.62-.45h.04c.36-.02,.6-.05,.73-.08l.09-.02,.04-.08c.13-.26,.31-.79,.31-1v-.06l-.03-.05c-.16-.23-.95-.67-2.87-.71-1.3-.06-2.24-.08-2.53,.02l-.08,.02Zm2.61,.15c1.95,.04,2.62,.5,2.71,.63h0c0,.16-.16,.65-.29,.92-.09,.02-.29,.05-.7,.07h-.04c-.53,.03-1,.19-1.68,.47-.38,.16-.59,.2-.67,.22-.03-.04-.07-.08-.07-.09l-.16-.19c-.24-.28-.75-.55-1.44-.9-.14-.07-.28-.14-.38-.2,0-.26,.16-.74,.25-.92,.33-.1,1.76-.04,2.47,0Zm-.27,4.39c-.15,.03-.36,1.01-.23,1.24,.18-.13,.23-1.24,.23-1.24Zm.23-1.47c-.25,.25-.36,.84-.25,1.19,.15-.3,.25-1.19,.25-1.19Zm6.82,5.68c.23-1.14,2.1-3.14,2.1-3.14-1.42,.91-2.64,3.09-2.1,3.14Zm.76,3.4c.08,0,.46-.28,1.6-1.62,1.14-1.34,1.45-2.46,1.45-2.46-.36,.71-1.17,1.8-1.5,2.18-.33,.38-.91,1.14-1.55,1.9Zm1.52-9.15s.08,.38-.25,.71c.28,.03,.36-.15,.36-.15,0,0,.3,.13,.3,.23,0-.25-.08-.25-.15-.38-.08-.13-.15-.38-.25-.41Zm1.46,16.05c.41-.29,.12-.74,.12-.74,0,0-.02,.41-.12,.74Zm-1.87,.65c1.01-.24,.67-1.41,.67-1.41-.02,.84-.36,1.05-.67,1.41Zm-.62-.79s.05,.6,.31,.62c.02-.34-.31-.62-.31-.62Zm-1.65-2.13s.91-.31,1.8-.45c-.48-.12-1.27,.05-1.8,.45Zm3.9,.07c.5,.22,1.75,.86,1.82,.69-.38-.36-.98-.53-1.41-.72-.43-.19-.89-.5-1.84-.53,0,0,.93,.34,1.44,.55Zm2.97,.86s-.55-.26-.93,0c.26,.05,.93,0,.93,0Zm-10.3-5.12c.22,0,.41-.18,.41-.41s-.18-.41-.41-.41c-.11,0-.21,.04-.29,.12-.08,.08-.12,.18-.12,.29,0,.22,.18,.41,.41,.41Zm0-.62c.12,0,.22,.1,.22,.22s-.1,.22-.22,.22-.22-.1-.22-.22,.1-.22,.22-.22Zm-11.9-8.86l-.14-.12-.13,.14s-.5,.57-.5,1.23v.08l.5,.5,.13-.21c.15-.26,.43-.72,.51-.81l.07-.09-.04-.11c-.16-.39-.36-.58-.39-.6Zm-.32,1.51l-.26-.26c0-.6,.45-1.1,.45-1.1,0,0,.19,.17,.34,.53-.12,.14-.53,.84-.53,.84Zm-5.51,1.87c0-.5-.26-2.13-.26-2.13-.19,.24,.1,1.68,.26,2.13Zm11.94,3.88c.26,.92,.09,1.22-.11,1.88,.92-1.45,.11-1.88,.11-1.88Zm.53,.09c.11,.47,.28,.77-.04,1.6,.75-.94,.04-1.6,.04-1.6Zm-2.99,1.54c.15-.17,.02-1.5,.02-1.5,0,0-.21,.49-.24,1.22-.24-.13-.26-.53-.28-1.16-.21,1.18,.15,1.37,.49,1.43Zm-1.22,.06c-.06-.62-.21-1.35-.21-1.52,0,0-.13,1.33,.21,1.52Zm2.74-.09c.11-1.68-.26-1.5-.26-1.5,.12,.26,.28,1.06,.26,1.5Zm-7.86-1.24c-.17-1.03,.17-1.09,.17-1.09-.41-.11-.51,.92-.17,1.09Zm-.56-1.28s-.13,.36-.09,.73c.26-.11,.09-.73,.09-.73Zm3.44,2.17c.16-.19,.06-1.38,.06-1.38-.21-.11-1.09-.12-1.3-.08-.21,.04-.24,.94-.14,1.21,.1,.27,.99,.32,1.39,.25Zm-1.23-1.32s.99,.02,1.17,.05c0,0,.05,1.11-.05,1.17-.09,.07-1.07,0-1.17-.25-.1-.24,.05-.97,.05-.97Zm-3.72,20.21s.11,.21,.42,.3c.3,.09,.81-.29,2-.91,1.19-.62,3.27-1.86,3.27-1.86-.56,.02-4.45,2.34-4.84,2.54-.4,.2-.85-.07-.85-.07Zm12.43,6.13c-.51,0-.76-.25-.76-.25-.02,.3,.64,.47,.76,.25Zm-12.45-1.34c-.84,.08-2.24-.3-2.8-.58,0,.63,2.44,.84,3.01,.8,.31-.88,.47-.88,1.02-.71,1.78,.22,3.45,.02,3.45,.02-.38-.03-2.73-.08-3.53-.24-.8-.16-.82-.02-1.15,.71Zm.88,.76c.35-.06,1.64-.5,1.69-.6,0,0-1.56,.14-1.69,.6Zm.27,.17c.03,.09,.68,.08,.85,0,0,0-.79-.02-.85,0Zm1.95,2.52s-1.31-.27-2.49-.32c.5,.33,2.49,.32,2.49,.32Zm-2.71,0c.21,.28,1.12,.33,1.12,.33,0,0-.71-.39-1.12-.33Z"/><path class="cls-27" d="M18.45,12.94l-.46,.04c.22-.22,.32-.4,.32-.4l.14,.36Z"/><path class="cls-27" d="M18.25,12.29s-.5,.06-.82,.76c-.12-.46,.62-.92,.74-.92,.12,.08,.08,.16,.08,.16Z"/><path class="cls-27" d="M17.95,11.71s-.8,.54-1.45,1.53c-.14-.26,1.13-1.63,1.45-1.75,.08,.1,0,.22,0,.22Z"/><path class="cls-27" d="M17.75,11.23l-1.81,1.65-.08-.2,1.81-1.61,.08,.16Z"/><path class="cls-27" d="M17.51,10.75l-1.77,1.49-.04-.16s1.59-1.47,1.65-1.47,.16,.14,.16,.14Z"/><path class="cls-27" d="M17.17,10.36s-1.17,.52-1.59,1.31c-.24-.32,1.37-1.41,1.47-1.41s.12,.1,.12,.1Z"/><path class="cls-27" d="M16.54,9.84s-.7,.34-1.21,1.31l-.14-.36s.92-1.05,1.13-1.07c.2-.02,.22,.12,.22,.12Z"/><path class="cls-27" d="M10.84,11.17s1,.32,1.45,1.47c-.36-.46-1.19-1.25-1.73-1.39,.2-.18,.28-.08,.28-.08Z"/><path class="cls-27" d="M10.33,11.45s1.17,.5,1.41,1.35c-.52-.54-1.63-1.23-1.63-1.23l.22-.12Z"/><path class="cls-27" d="M9.79,11.91s1.23,.48,1.51,1.37c-.18-.26-1.17-1.13-1.61-1.19,.08-.2,.1-.18,.1-.18Z"/><path class="cls-27" d="M9.39,12.53s1.11,.16,1.31,.9c-.2-.24-.84-.6-1.51-.84,.1-.06,.2-.06,.2-.06Z"/><path class="cls-27" d="M9.03,12.84s.94,.5,.98,.9c-.38-.34-1.07-.66-1.07-.66l.08-.24Z"/><path class="cls-27" d="M8.61,13.86s.46-.02,.72,.02c-.34,.12-.78,.22-.78,.22l.06-.24Z"/></g></svg>