<?xml version="1.0" encoding="UTF-8"?><svg id="Capa_1" xmlns="http://www.w3.org/2000/svg" viewBox="0 0 60.45 67.5"><defs><style>.cls-1{fill:#f8f8f9;}.cls-2{fill:#facba0;}.cls-3{fill:#683610;}.cls-4{fill:#e95a0c;}.cls-5{fill:#fff;}.cls-6{fill:#edac94;}.cls-7{fill:#fce3d6;}.cls-8{fill:#fce2d7;}.cls-9{fill:#af4066;}.cls-10{fill:#ab243e;}.cls-11{fill:#bd6b5d;}.cls-12{fill:#ab4519;}.cls-13{fill:#c9bdb9;}.cls-14{fill:#c9c6c6;}.cls-15{fill:#d57489;}.cls-16{fill:#1d1d1b;}.cls-17{fill:#1d1d3f;}.cls-18{fill:#723a11;}.cls-19{fill:#292c63;}.cls-20{fill:#454c9a;}</style></defs><path class="cls-5" d="M8.05,63.26l.42,1.25c-1.35,.81-2.44,.83-2.44,.83-.99-.3-1.97-1.83-1.07-2.07,.91-.36,1.37-.52,2.04-.22,.66,.3,1.05,.22,1.05,.22Z"/><path class="cls-14" d="M4.64,66.34l-.44,.97c1.35-.02,1.85-.16,3.26-.28,2.14-.08,6.29-.08,6.09-1.15-.2-1.07-1.93,.2-4.35,.16-2.42-.04-4.55,.3-4.55,.3Z"/><path class="cls-14" d="M6.89,63.07l1.33,1.06c-.53,.3-2.12,.8-2.12,.8,1.43,.83,4.88,.33,6.17,.1,1.29-.23,1.49-1.29,.23-2.36-1.73,.23-5.6,.4-5.6,.4Z"/><path class="cls-14" d="M46.49,64.77s-.43,.54,.05,.73c.5,.34,1.23,.48,2.75,.48s3.09,.27,5.81,.61c2.58,.25,5.08,.07,5.29-1.47-2.77-.11-5.04-.23-6.17-.23s-7.74-.12-7.74-.12Z"/><path class="cls-14" d="M55.89,62.21l-2.11,1.5c-.7,.14-3.34,.02-3.5-.46,1.41-.43,3.74-1.72,3.74-1.72,0,0,1.82,.21,1.88,.68Z"/><path class="cls-5" d="M50.28,63.19c.13,.04,2.79,.34,4.27,.39-1.2,.93-2.38,1.47-4.42,1.06-2.04-.41-3.26-.64-2.41-.95,.84-.3,2.56-.5,2.56-.5Z"/><path class="cls-4" d="M17.53,42.03s2.94,2.94,4.33,3.74c.62,1.33-.09,2.19-.77,3.08-.77,.92-4.63,1.99-6.2,2.52-1.57,.53,.41,2.2-.83,3.06-1.25,.86-7.56,2.67-7.44,3.53,.12,.86,.77,5.01,.77,5.13-.92-.24-1.69-.47-3.41-1.39-1.72-.92-3-2.37-2.7-5.19-.12-2.82-.24-7.21,3.47-9.14,0,0,4.06-2.52,8.84-2.82-.15-.5,.09-.95,1.13-.59-.09-.39,.41-1.51,2.11-2.52,.41,.33,.71,.59,.71,.59Z"/><path class="cls-12" d="M16.91,42.33s-.92,1.16,1.36,2.31c2.28,1.16,3.2,1.19,3.44,1.25,.03,.86-.39,1.72-.39,1.72-.74-.33-2.46-1.48-3.35-1.57,1.01,.65,2.73,2.64,2.79,3.08-1.28-1.51-2.82-2.31-3.62-2.58,1.57,1.48,3.01,2.38,2.88,2.86-2.32-.73-6.2-.43-13.09,2.83,4.51,1.75,6.85,2.46,9.08,2.46-6.26-.74-8.69-.92-8.78-.92-.71,.56-1.81,2.85-2.82,3.23,.86,.98,1.75,2.73,1.75,2.73-.3,0-3.38-1.72-3.86-2.46-.39,.5,1.48,5.72,5.9,5.87,3.71-.18,4.24-1.48,4.92-2.88,.68-1.39,1.96-3.06,4.42-3.06s4.8,.03,5.72-2.05c.92-2.08,1.6-8.36,1.57-9.61-.06-1.28-1.22-.74-3.53-1.48-2.31-.74-4.42-1.75-4.42-1.75Z"/><path class="cls-4" d="M40.88,44.08s-.43,.76,.09,2.04c.53,1.28,.32,.77,2.51,2.21,2.19,1.44-2.74,2.04-3.21,2.38-1.3,.17-6.07,2.14-7.29,2.74-1.23,.6-4.91,1.74-2.8,3.04,2.08,1.34,5.41,3.33,7.86,3.97,1.74,1.83,3.7,3.4,5.59,3.51,1.89,.11,2.46-.32,3.4-.57,.95-.25,2.32-.25,3.38-.76,1.06-.51,1,.11,1.95-.51,.94-.62,1.59-1.57,2.06-3.1,.47-1.53,1.02-1.91,1.06-2.63,.04-.72-.13-1.98-3.42-4.02-.89-1.83-1.55-2.87-3.14-2.87-1.19-.83-4.18-3.04-4.18-3.04l-1.72-1.12c0-.76,.47-1.57-2.15-1.29Z"/><path class="cls-12" d="M45.83,58.53s2.33-1.96,2.56-2.56c-.27-1.17-4.76-4.93-6.26-5.46-2.03,.33-11.66,4.7-11.66,4.7,2.93,.23,6.83,2.66,8.49,3.33-2.4,.3-4.36-.17-4.36-.17,1.67,1.33,8.03,2.56,10.02,3.13-2.96-.23-4.86-.6-4.86-.6-.07,.4,.27,1.37,2.3,2.7-1.93-.83-4.32-2.46-5-3.09-1.54-.43-2.37-.6-2.81-.78,0,0-3.77-2.23-4.66-3.08-.99-.84-2.38-2.05-2.86-2.78-.48-.73-.96-1.34-.99-1.96-.02-.62,.02-2.65,.17-2.82,.81-.02,1.73-.1,2.53-.07,.79,.02,2.03-.46,2.17-.96,.92,1.03,2.66,1.81,3.57-.01,.15-.72,.04-1.48,1.17-1.82,1.14-.34,2.23-.79,2.8-1.16,.56-.37,2.31-1.54,2.48-1.66,.2,.52,.6,1.32,.51,1.68,.76-.05,1.23-.23,1.15,.57,0,0-.28,1.1-.5,1.6,.93-.54,1.67-.92,3.45,.49,1.79,1.43,4.43,3.23,5.23,4.83,.72,1.68-.1,6.01-.81,7.89-.39,1.28-.95,2.25-.95,2.28,.8-.13,1.2-.24,1.61-.61,.49-.43,.68-2.99,.7-4.29,.01-1.29-.12-6.37-.02-6.41,1.26,2.03,1.97,3.87,2.29,4.93,.44-.79,.49-1.16,.95-.8,.46,.35,.88,2.45,.76,3.36-.12,.9-1.55,3.77-4.46,4.05,.54-.73,1.1-1.5,1.1-1.5,.12-.04,1.45-.24,1.54-.4,.15-.39-.16-2.03-.21-2.31-.99,1.57-1.79,4.26-3.87,4.64-2.08,.38-3.74,.59-4.46,.57,1.15-.57,3.39-1.95,3.74-3.05-1.67,.68-1.34,.57-1.42,.57,.37-.7,.67-1.93,.67-2.54,.83-.65,1.25-1.36,1.42-1.73-1.98,1.06-3.22,1.33-3.22,1.33Z"/><path class="cls-3" d="M23.26,53.82c0-.06-.26-.6-1.66-.84-1.4-.24-7.35,1.38-9.16,.84,2.26,.71,7.98,1.62,9.91,1.62-1.77,.8-2.35,1.01-3.45,.84-1.25-.37-2.03-.71-3.21-.47-1.19,.24-3.94,1.42-6.98,1.14,1.06,.45,1.01,.58,1.01,.58-.06,0-1.92-.06-1.92,.52s1.49,.8,3,.24c.04,.8-1.47,2.84-2.2,3.34,1.96-.84,3.34-1.47,4.01-1.4-1.03,.97-2.16,2.46-3.38,2.8,0,0,3.92-.37,5.24-2.13,.86-1.06,.65-2.37,.8-2.67,1.21,.09,3.84,.24,8.23-1.4-.43-1.96-.24-3-.24-3Z"/><path class="cls-3" d="M23.37,51.37s-2.65-1.23-3.34-1.96c.78,1.4,2.67,3.53,3.06,4.07,.15-1.47,.28-2.11,.28-2.11Z"/><path class="cls-3" d="M40.01,43.79s1.01,1.45,.75,2.34c-.26,.89-2.55,2.96-2.55,2.96-.42-.14-.82-.58-.82-.58,.31-.3,1.06-1.13,.99-1.5-.07-.37-1.17-1.45-1.17-1.45l2.79-1.78Z"/><path class="cls-3" d="M45.24,47.73l-2.34-1.8c-.24,.33-2.28,2.91-3.8,3.61,.65,.49,.84,.58,.84,.58,0,0,2.77-1.64,3.26-3.17,1.13,.49,2.04,.78,2.04,.78Z"/><path class="cls-3" d="M35.27,60.04s-2.81-2-3-2.58c2.25,.37,4.92,.85,5.74,.64-4.57-.77-8.11-1.78-8.55-2.49,2.7-.92,7.43-2.96,8.39-3.57l-.31-.61s-5.21,2.28-5.76,2.28c1.85-1.1,4.34-2.56,4.81-3.28l-.56-.58s-3.71,2.14-6.3,1.45c-.49,1.4-1.1,2.58-1.1,2.58,.3-2.11,.49-3.38,.49-3.77-.56-.12-1.34-.24-1.34-.24-.28,.77-.12,2.51,.09,4.24-.47-.87-1.17-1.99-2.04-1.9,0,1.38,1.01,4.08,1.01,4.08,1.06-.17,1.62-.1,2.21,.28,0,0,2.79,2.23,6.21,3.47Z"/><path class="cls-3" d="M50.26,57.93s-1.26,2.22-2.2,3.05c.7-.14,1.27-.65,1.6-.66,.33-.49,.59-2.39,.59-2.39Z"/><path class="cls-3" d="M55.51,57.2s-.96-3.42-2.81-3.47c.61,1.6,.82,2.46,.72,2.91-.72,1.19-3.3,4.76-3.47,5.62-.03,.78-.02,.89-.02,.89,1.41-.14,1.52-.3,1.52-.3l.16-1.52c.58-.73,2.04-3.73,2.3-5.35,.77,.38,.68,2.93,.35,4.36,.71-1.03,1.06-2.37,1.26-3.14Z"/><path class="cls-20" d="M35.93,49.64c-.11-.02,2.63,2.71,4.43,6.34,1.29,2.6,1.09,4.72,1.09,4.72,.71-.13,2.85-1.91,3.2-2.34,.13-.71-.56-2.69-1.64-3.82-1.07-1.13-4.14-4.38-7.08-4.91Z"/><path class="cls-20" d="M25.81,49.9s-1.6,.24-2.73,4.27c.25,2.36,.76,5.25,.98,5.5,1.02-.2,3.6-.16,4.32-.16-.85-1.31-2.78-4.45-2.58-9.61Z"/><path class="cls-19" d="M36.11,49.82s1.38,.04,4.18,2.63c2.8,2.6,4.29,5.1,4.4,5.47,.25-1.27-.58-3.92-3.36-6.58-2.16-2.2-6.07-3.98-6.74-5.07-.53,.02-.53,.33-.45,1,.07,.67,.05,.69,.44,1.14,.44,.45,1.54,1.4,1.54,1.4Z"/><path class="cls-19" d="M25.79,50.19s-1.15-.24-2.62,4.36c-.24-3.52,.71-8.01,1.36-9.03,.25,.2,.18,.4,.25,.64,.07,.26,1.09,2.93,1.09,2.93l-.09,1.11Z"/><path class="cls-17" d="M23.55,43.26s-4.89,.34-6.55-1.49c-.2,.89,.19,1.58,3.15,2.71,1.52,.13,3.38,.69,4.01,.69-.74-.84-.6-1.9-.6-1.9Z"/><path class="cls-20" d="M33.33,44.96s.43,1.54,1.11,1.36c.68-.18,.56-.99-1.11-1.36Z"/><path class="cls-8" d="M28.29,38.02s-.05-.95,.92-1.61c.97-.65,2.06-1.18,2.18,.33-.21,1.32-.71,1.46-.74,2.59-.03,1.14,1.41,2.27,1.77,3.03,.8,.42,1.38-.23,2.4,.2,.97,.46,1.3,2.09,1.32,2.4,.02,.3-.33,.7-1.15,.65-.47-.08-1.47-.71-1.88-.8,.06,.44,.67,3.8-.53,4.37-.5,.15-1.56-.76-2.06-1.32-.18,.52,.39,1.43-.71,2.02-.79,.42-1.26,.12-1.44-.06-.47-.01-.83-.71-1-.91-.44,.18-.8,.18-1.03,.18s-.94-.7-1.29-1.68c-.49-.89-.08-1.12,0-1.46-.65-.39-1.53-2-1.08-3.2,.45-1.2,2.23-2.03,2.24-2.21,.01-.18-.38-1.29,2.08-2.52Z"/><path class="cls-1" d="M34.46,42.72s-1.27,.18-1.49,1.05c-.09,.64,.44,1.2,.44,1.2-.61-.3-1.14-.89-.94-1.5,.2-.61,1.09-1.23,1.99-.74Z"/><path class="cls-1" d="M30.49,45.63s-.3,.88,.45,1.94c.79,1.06,1.53,1.36,1.64,1.47-.3,.14-1.06-.03-1.71-.79-.65-.76-1.53-1.64-1-2.27,.35-.44,.62-.35,.62-.35Z"/><path class="cls-1" d="M27.34,46.42s-.09,.59,.53,1.59c.62,1,.97,1.44,1.11,1.44-.17,.24-.89,.5-1.17,.18-.29-.35-.92-1.74-1-2.47-.15-.62,.3-.68,.53-.74Z"/><path class="cls-1" d="M28.16,38.47s-1.55,.76-1.43,1.46c.12,.7,1.06,1.58,2.08,1.62-1.2,.38-2.17,.26-2.78-.45-.85,.38-2.03,1.44-2.03,2.32s.61,2.05,1.44,2.3c-.2,.09-.89,.86-.11,1.88,.61,.79,.89,1.29,.96,1.35-.05,.24-.67,.29-1.02-.33-.35-.62-1.2-1.83-.35-2.64-.82-.89-1.64-2.02-1.32-3.21,.17-.97,2.12-2.05,2.18-2.24-.03-.44-.17-1.55,2.26-2.61,.02,.23,.11,.56,.11,.56Z"/><path class="cls-1" d="M30.55,35.81s-1.71,.82-1.93,1.73c-.12,.56,.38,1.15,.97,1.32-.33,.21-1.73-.02-1.65-.82,.08-.8,.64-1.96,2.61-2.23Z"/><path class="cls-6" d="M31.35,36.34s-.87,1.17-1.51,1.42c-.09,.36-.52,.61-1.02,.18,0,.47,.41,.97,.94,.97-.5,.21-1.11,.02-1.11,.02,.29,.59,1.26,.74,1.26,.74-.06,.49-.99,1.73-1.44,1.99-.55,.18-1.11,.17-1.11,.17,.18,.42,1.67,.53,2.87,.18-.33,.56-1.36,1.76-1.36,1.94,.74-.3,1.18-.76,1.26-.82,.21-.2,1.24-1.06,1.24-1.06,0,0,1,.35,.91,.5-.56,.59-1.39,1.77-1.65,2.52-.93,.49-2.12,.85-2.4,1.24,.41,.24,.61,2.65,1.35,2.75,.45,.33,.83,.2,.83,.2,.06-.36,.23-1.2,.23-1.2,0,0-1.65-1.65-.59-2.28,.71-.51,1.68-.18,1.88,.86,.2,.71,1.09,1.08,1.09,1.08-.17,.41-.38,1.35-.68,1.42,.91,.08,1.85-.61,1.83-1.88-.12-.96-.76-2-1-2.34-.55-.53-.85-1.03-.59-1.59,.26-.56,1.02-1.09,2.14-.52-.58,0-.73,.35-.71,.42,.35,.17,.38,.39,.38,.52,.62,.11,1.32,.61,1.32,1.27,.3-.53,.65-.12,.3,.29,.39-.12,.71-.44,.76-.89,.05-.45-.89-1.38-2.12-2.3-1.23-.93-2.29-1.24-2.68-1.88-.39-.64-.55-2.35-.36-3.15-.02-.59-.25-.75-.25-.75Z"/><path class="cls-11" d="M30.64,48.06s-.61-.16-.72-.25c-.52-.37-1.34-.92-.74-1.21,.34-.06,1,.73,1.46,1.46Z"/><path class="cls-11" d="M32.95,44.7s-.65,.56-.63,.75c1.03,.33,1.62,1.5,1.59,2.79,.48-.88,.31-2.14-.95-3.54Z"/><path class="cls-11" d="M31.52,37.28s-1.5,1.52-1.99,1.64c.6,.26,1.09,.21,1.38,.11,.05,.46,1.16,1.69,.95,2.42,.93-.28,1.31-.37,1.96,.53-.44,.3-.6,.55,.18,.64,.94,.09,2.61,.86,2.54,2.47,.46-.6,.41-1.59-1.09-2.75,0,0-3.32-2.19-3.83-3.26-.39-1.06-.09-1.78-.09-1.78Z"/><path class="cls-20" d="M36.43,39.83s-1.2-3.25-4.71-3.18c-.19,.11-.11,.65-.23,1.01-.12,.37-.25,1.46,1.25,2.31,1.5,.85,3.76,.64,3.69-.14Z"/><path class="cls-17" d="M34.52,41.69l.72-1.59c.71,.21,.92,2.58,.92,2.91-.63-.81-1.08-.95-1.64-1.32Z"/><path class="cls-19" d="M36.33,39.59l-.28,.4c-.43-.35-.89-1.21-2.18-1.54,.78,.58,.76,1.26,.76,1.26-.53,0-1.59,.2-1.59,.2-.23-.48-1.09-.83-1.34-.78,.33,.38,.95,1.12,1.9,1.9,.95,.78,1.27,.92,1.27,.92,.19-.83,.34-1.62,.34-1.62,.34,.46,.86,1.92,.92,2.59l.48,.3s.16-1.83-.27-3.63Z"/><path class="cls-6" d="M44.71,27.8s2.13,1.54,1.28,3.95c-.84,2.41-1.38,2.89-1.9,3.23-.36,.52-.88,2.47-1.46,3.93-.58,1.46-1.12,2.09-2.01,2.95-.88,.86-2.21,1.8-3.97,.86,.08-1.7-.08-2.51-.5-3.45-.42-.94-1.28-1.8-2.35-2.19,.74-.6,2.21-.52,3.39-.9,1.18-.38,2.87-2.16,3.37-3.41,.5-1.24-1.8-1.42-2.27-1.5-.46-.08-.06-.68,.82-1.28,.88-.6,2.61-1.8,5.59-2.19Z"/><path class="cls-8" d="M38.69,31.14s2.31-2.16,5.12-1.69c0,1.04-.45,3.29-.84,3.71-.56-.68-1.41-.98-1.41-.98,.67,1.21,1.83,2.9-.73,5.99-.79-1.07-.87-1.07-.87-1.07,.23,1.29,.34,2.98-2.47,2.67-.48-1.18-1.88-2.56-3.63-2.73-.39-.2-.79-.31-.79-.31,1.01-1.04,2.02-2.05,2.14-2.28,.11-.45,1.74-2.67,3.49-3.32Z"/><path class="cls-11" d="M44.15,27.95s1.7,.79,1.8,2.19c.09,1.4-1.38,4.26-1.55,4.28-.23,.02-.87-.74-.87-.74-.02,1.34-.47,5.43-2.33,7.06-.17-.02-.55-.61-.55-.61-.15,1.13-.15,2.18-1.76,2.33-1.61,.15-1.97,.23-2.29-.25,0,.72,.09,1,.11,1.23,.04,.23,.52,1.41-.69,1.96-.42,.17-.93,.29-1.21,.2-.05,.32-.09,.7-.09,.7,.86,.12,4.38-1.69,5.32-2.47,.62-.46,1.21-2.1,2.35-3.59,.64-1.41,1.36-3.99,1.45-4.17,.09-.18,.65-.74,1.09-1.32,.45-.59,1.44-2.73,1.45-4.03,.01-1.3-.37-2.33-.81-2.85-.23-.38-1.43,.08-1.43,.08Z"/><path class="cls-1" d="M32.06,36.63s1.49-2.12,5.44-1.52c0,0-3.15,.46-4.15,1.86,0,0-.46-.43-1.29-.34Z"/><path class="cls-1" d="M38.61,31.19s-2.43,1.63-2.6,3.72c0,0-1.08,.3-1.54,.11,0,0-.09-.45,.23-.88,.31-.43,1.77-2.52,3.92-2.95Z"/><path class="cls-19" d="M16.85,40.41s-.23,.15,.07,.48c.3,.34,1.15,.84,1.59,.89,.44,.05,.41-.14,.25-.36-.16-.22-.82-.78-.97-.92-.15-.14-.75-.21-.95-.09Z"/><path class="cls-12" d="M17.23,41.35s.94,.44,1.49,.42c.54-.02,.78,.36,1.28,.4,.5,.04,1.65,.17,2.35-.42,.69-.59,1.3-1.32,1.47-1.82,.17-.5,.1-.73,.86-1.24,.75-.5,1.7-1.59,1.84-1.91,0,0,.59,.36,.71,.46,.13,.1,.69,.43,.63,.59-.06,.16-.44,.46-.77,.63-.33,.17-1.24,.86-1.26,1.45-.02,.59-.04,.69-.1,.75-.06,.06-.46,.29-.73,.52-.27,.23-1.32,.94-1.42,2.07,0,0-1.34-.02-2.03-.06-.69-.04-2.47-.11-3.71-.92-.4-.31-1.05-.9-.59-.92Z"/><path class="cls-3" d="M23.8,39.78s.52-.08,1.77,.97c0,0-.5,.38-.84,.57,0,0-.27,.08-.48-.11-.21-.19-.84-.44-.73-.74,.11-.31,.27-.69,.27-.69Z"/><path class="cls-3" d="M26.11,37.46s.78,.94,1.09,.94c0,0,.36-.11,.59-.4,.08-.08-.06-.38-.23-.5-.17-.11-.59-.46-.95-.69,0,0-.36,.27-.5,.65Z"/><path class="cls-13" d="M31.85,35s-.65,.66-.68,.78c-.03,.11,.09,.34,.2,.48,.11,.14,.52,.47,.85,.13,.33-.34,.68-.67,.9-.69,.21-.02,.56-.18,.83-.38,.28-.2,.54-.05,.52-.29-.03-.24-.2-.63-.76-.63s-1.32,.12-1.86,.61Z"/><path class="cls-4" d="M27.67,34.98s-.3,.33-.47,.54c-.18,.21-.45,.56-.53,.69-.08,.14-.1,.57,.1,.7,.2,.14,.73,.56,.84,.62,.11,.06,.4,.05,.5-.13,0,0,.15-.45,.49-.72,.34-.27,1.22-.9,2.04-.89,.27,0,.58,.04,.58,.04,0,0,.32-.62,.64-.84,.32-.22,1.31-1.04,2.57-.37,0,0,1.41-2.13,2.3-2.6,.89-.47,1.16-.64,1.29-.74,.12-.1,.35-.94,1.41-1.48,1.06-.54,3.19-1.48,4.08-1.71,.89-.22,2.13-.82,2.42,.42,.27,.74,.37,.84,.49,.84s.32-.12,.42-.49c.1-.37,.32-1.11,.32-1.41s-.25-.91-.87-1.24c-.62-.32-.52-.62-.62-.82-.1-.2-.69-1.56-1.04-2.13-.35-.57-.62-.95-.95-1.1,0,0-.39,.7-.5,.95-.11,.25-1.33,2-1.57,2.26-.23,.26-1.27,1.38-1.55,1.52-.28,.14-1.74,.59-2,.26,0,0-.25,.09-.48,.4-.23,.31-1.04,1.52-1.49,1.83-.45,.31-1.91,1.18-2.28,1.3,0,0-.46,.29-.56,.42-.09,.12-.53,.48-.79,.7-.26,.22-1.3,1.05-1.58,1.32-.28,.26-1.43,1.16-1.61,1.32-.19,.16-.7,.73-.84,.79-.14,.06-.37,.36-.77-.27Z"/><path class="cls-12" d="M35.13,30.52s-4.07,3.16-5.36,5.4c0,0,.53-.27,1.24-.07,0,0,.84-1.24,1.93-1.4,.62-.09,1.13-.09,1.42,.2,0,0,1.6-2.38,2.65-2.84,0,0-.24-.78,.53-1.91,.51-.78,2.85-2.47,3.8-2.89,0,0,1.6-.71,1.8-.78,.2-.07,.49-.24,.78-.02,.29,.22,1.18,.69,.42,1.07-.76,.38-1.25,.6-1.62,.98,0,0,1.82-.69,2.76-.42,0,0,.2,.11,.29,.29,.09,.18,.53,1.13,.64,1.27,.11,.13,.31-.18,.45-.69,.13-.51,.27-1.13,.27-1.38s-.18-.67-.4-.82c-.22-.16-.64-.58-1.07-.84-.42-.27-.84-.56-.84-.56,0,0-.02-.6-.18-.78-.16-.18-1.22-.8-1.29-.8s-.31,.09-.56,.36c-.24,.27-1.58,2.18-2.16,2.51-.58,.33-1.64,1.31-2.6,.82,0,0-.2,.02-.33,.24-.13,.22-1.47,2.04-2.07,2.27l-.51,.8Z"/><path class="cls-3" d="M38,27.25s.38,.11,.6,.13c.22,.02-.98,1.6-1.89,1.51l1.29-1.64Z"/><path class="cls-3" d="M37.98,29.27s-2.71,1.36-2.47,3.89c0,0,1.09-1.25,1.62-1.4,0,0-.69-.53,.84-2.49Z"/><path class="cls-3" d="M43.72,22.26s-.89,1.62-1.14,1.99h1.04c.09,0,.61,.14,.97,.66,.36,.51,.81,.6,.89,.63,.08,.03,.11-.3,.02-.5-.08-.2-.6-1.25-.82-1.62-.22-.36-.61-1.14-.97-1.16Z"/><path class="cls-8" d="M27.46,32.53s-.07,.37,.09,.55c.15,.17,.29,.47,.31,.72,.02,.25-.11,.74-.13,.94-.02,.2,.28,.92,.63,.59,.35-.33,1.79-1.5,2.07-1.74,.28-.24-.85-1.22-1.2-1.22s-1.77,.17-1.77,.17Z"/><path class="cls-6" d="M23.97,31.57s-.07,.44,.3,.74c0,0,.48,.44,.57,.52,.09,.09,.5,.46,.65,.37,.15-.09,.46-.57,.76-.57s.61,0,.74,.09c.13,.09,.37,.15,.5,.24,.13,.09,1.57,.22,1.81,.26,.24,.04,.61,.39,.98,.28,.37-.11,1.92-1.55,2.31-1.79,.39-.24,.79-.59,.55-.7-.24-.11-.63-.28-1.18-.28s-2.57-.26-3.07-.09c-.5,.17-3.45,.46-3.77,.46s-1.16,.46-1.16,.46Z"/><path class="cls-6" d="M20.19,30.15s-.35,.05-.38,.42c0,0,.07,.3-.03,.4-.1,.1-.22,.35-.64,.13,0,0-.19-.01-.1,.22,.09,.23,.37,1.16,.32,1.42-.06,.25-.27,.92-.69,.92s-.72,.04-.92-.02c-.2-.07-.25,.33-.23,.59,.02,.26,.24,.58,.29,.8,.04,.22,.1,.35,.2,.49,.1,.14,.34,.36,.36,.64,.02,.27,.06,1.05-.3,1.26-.35,.21-.71,.25-.8,.28-.09,.03,.2,.31,.49,.42,.3,.11,.63,.48,.68,.64,.05,.15,.3,.3,.28,.55-.01,.25,.03,.67,.2,.46,.17-.2,.43-.45,.45-.53,.01-.08-.2,.34,.09,.37,.3,.03,1.32,1.41,1.74,1.53,.42,.12,1.33,.37,1.63,.12,.29-.25,.62-.64,.71-.9,.09-.26,.34-.79,.42-1.04,.08-.25,.9-.79,1.16-.99,.26-.2,1.44-1.43,1.44-1.69s.03-.37,.23-1.4c.2-1.02,.2-1.46,.2-1.46,0,0-1.01-.33-1.13-.42-.12-.09-.47-.15-.6-.26-.14-.11-.4-.34-.47-.4-.07-.06-.5-.48-.61-.68-.11-.2-.23-.6-.29-.7-.06-.09-.26-.47-.34-.54-.08-.08-.5-.54-.5-.54,0,0-.29-.33-.5-.34-.2-.01-.7-.11-1.01-.11s-1.35,.34-1.35,.34Z"/><path class="cls-6" d="M20.11,30.1s-.33,.16-.29,.44c.03,.28,.05,.89-.61,.67,0,0-.02,.27,.12,.61,.15,.34,.11,.64,.07,.82-.03,.19-.08,1.07-.88,1.07-.47,0-.68-.05-.81-.11-.12-.06-.11,.5-.08,.7,.03,.2,.12,.28,.17,.48,.05,.2-.03,.47,.1,.58,.12,.12,.57,.71,.51,1.08-.06,.37-.02,1.21-.93,1.21,0,0-.39,.42-.14,.42s.62,.06,.78,.22c.15,.15,.7,.99,.95,1.27,.25,.28,.67,.59,1.27,.96,.6,.37,1.55,.67,1.61,.68,.06,.02,.68,.39,.88,.17,.2-.22,.79-1.01,.9-1.4,.11-.39,.34-.99,1.01-1.32,.51-.33,1.66-1.29,1.81-1.92,.09-.33,.06-.45,.26-.74,.2-.29,.82-1.04,.9-1.43,.08-.39,.47-.82,.14-1.15-.33-.32-.51-.54-.51-.54,0,0,1.41,.14,2-.11,.59-.25,.73-.03,.87,.2,.14,.23,.39,.39,.67,.14,.28-.25,1.64-1.3,1.89-1.49,.25-.19,.39-.59,.39-.59,0,0-.53,.09-.91,.25-.39,.16-1.89,.6-2.4,.6s-2.85,.34-5.26-.23c-.59-.15-.67-.22-.67-.22,0,0-.5-.53-.64-.78-.14-.25-.33-.64-.5-.64s-.28,.17-.37,.29c-.09,.12-.65,.5-1.16,.33-.48-.17-1.14-.54-1.14-.54Z"/><path class="cls-11" d="M23.99,32.03l.8,.7s-1.6,.8-2.01,1.16l1.21-1.86Z"/><path class="cls-11" d="M22.94,35.92s-.05,1.86,1.06,2.53c0,0,1.39-.59,1.65-2.11,0,0,.85,.15,.95-.08,0,0,.03,.41-.15,.67-.18,.26-.77,1.19-1.96,1.88-.21,.21-.46,.44-.7,1.03-.18,.41-.62-.1-.72-.41-.1-.31-.57-1.29-.67-1.78-.1-.49,.08-1.26,.54-1.73Z"/><path class="cls-11" d="M21.55,30.69s.39-.09,.51,.04c.12,.12-.08,.32,.09,.55,.17,.23,.99,1.14,.3,2.91,0,0,1.43-1.6,1.48-2.32,.06-.44-.42-.93-.63-1.22-.21-.29-.57-.65-.57-.65l-1.2,.69Z"/><path class="cls-11" d="M19.08,31.15s1.52,.72,1.01,2.21c0,0,1.14-.47,1.65-.28,0,0-1.67,2.13-1.96,3.73-.04,.67-.21,1.43-.36,2.05-.17,.7-.59,1.29-.7,1.1-.11-.19,.08-1.14-.48-1.65,0,0-.06-.09,.27-.09s.72-.04,.7-.72c-.02-.68,.04-1.65,.04-2.05s.06-1.22-.17-1.37c-.23-.15-.38-.36-.23-.48,.15-.11,.63-.57,.55-.95-.08-.38-.32-1.48-.32-1.48Z"/><path class="cls-6" d="M27.03,32.8s-1.67,2.7-1.92,3.26c0,0,.99,.62,1.61,.06,.47-.53,1.08-1.58,1.15-2.08,.06-.4-.19-1.12-.84-1.24Z"/><path class="cls-1" d="M25.65,36.27s-.53-.94-.13-1.55c.39-.61,1.25-1.97,1.25-1.97,0,0-.65-.36-1.04,.18-.39,.54-1,1.58-1,1.58,0,0-.7,1.09,.92,1.77Z"/><path class="cls-8" d="M23.69,34s-.72,1.43-.72,2.12,.36,1.65,.47,1.79c.11,.14,1.22-.18,1.18-2.29,0-.97,.14-1.47-.93-1.61Z"/><path class="cls-8" d="M26.7,32.74s-1.47,1.72-1.47,2.19,.45,1.07,1.08,.5c.43-.39,1.08-1.94,.97-2.58l-.57-.11Z"/><path class="cls-8" d="M18.42,40.24s-.5,.07-.47,.22c.04,.14,.43,.61,.68,.79,.25,.18,1.15,1.04,1.86,1.04s2.12-.43,2.8-1.43c0,0-1.79,.25-2.26-1.08-.29-1.18-.32-1.72-.36-1.97-.04-.25-.22-.75-.36-.29-.14,.47-1.08,2.76-1.9,2.72Z"/><path class="cls-7" d="M15.72,37.44s-.44,.28-.47,1.09c-.02,.81,.05,1.6,1.37,1.84,.91,.12,1.81-.12,1.91-.23,.09-.12,.39-.74-.09-1.58-.37-.3-.81-.54-1-.54s-.12-.09-.46-.28c-.35-.19-.7-.21-.7-.21l-.56-.09Z"/><path class="cls-1" d="M15.72,37.44s-.33,.44-.33,.91,.12,1.51,1.37,1.77c0,0,.21,.35-.14,.26-.35-.09-1.58-.77-1.72-.98-.14-.21-.28-.71-.26-1.06,.03-.35,.33-.77,.33-.77,0,0,.05-.19,.75-.12Z"/><path class="cls-19" d="M18.3,30.16s.46,.66,.58,.84c.13,.17,.46,.28,.63,.24,.17-.05,.38-.41,.3-.66-.08-.25-.41-.76-.54-.87-.13-.11-.98,.46-.98,.46Z"/><path class="cls-7" d="M9.44,30.66s0,1.96,.28,2.56c.28,.6,.92,1.4,.92,2.04s.44,1.64,1.44,2.2c.16,.32,1.68,3.48,4.84,3.96,0,0,.48,0-.08-.64-.44-.4-.96-.68-1.2-.84-.24-.16-.56-.52-.72-.68-.16-.16-.4-.84-.16-1.16,0,0-.76-1.52-1.32-2.32-.56-.8-1.96-3.28-2.04-3.52-.08-.24-1.96-1.6-1.96-1.6Z"/><path class="cls-8" d="M11.36,22.59s-1.04,1.04-1.12,2.36c-.08,1.32-.12,2,.12,2.64,.24,.64,.56,2.8,.88,3.64,.32,.84,1.2,1.8,1.48,2.12,.28,.32,1.57,1.17,1.72,1.4,.15,.23-.08,.44-.04,.92,.04,.48,.6,1.44,1.08,1.6,.48,.16,1.2,.4,1.84,.4s.96-.24,1.08-.88c.12-.64-.2-1.12-.44-1.4-.24-.28,.04-.4-.12-.68-.16-.28-.16-.56,0-.88,0,0,0-1.36-.04-2.76-.04-1.4,.2-1.6-.12-2.24-.32-.64-.84-1.44-.84-1.44,0,0-1.08-.88-1.2-1.04-.12-.16-1.04-1.16-1.04-1.16l-1.32-2.4-1.04-.8-.88,.6Z"/><path class="cls-4" d="M12.95,18.64s-1.63,1.1-2.07,1.68c-.45,.58-1.23,1.29-1.65,1.81-.42,.52-.89,2.05-.39,4.07,.05,.37,.34-.05,.37-.45,.03-.39,.52-1.92,1.08-2.55,.55-.63,.95-1.08,1.23-1.08s1.44,.47,1.68,.55c0-.13-.21-.84-.21-1.71s-.08-1.71,.13-2.07c0,0,.18-.58-.16-.26Z"/><path class="cls-18" d="M9.77,22.48s-.11,.29,.24,.29,.37,.16,.37,.24,.58-.6,.71-.73c.13-.13-.18-.37-.42-.29-.24,.08-.79,.37-.89,.5Z"/><path class="cls-8" d="M13.37,19.43s-.14,6.46,4.5,7.99c0,0,.47,.15,.62-.07,.15-.22-2.14-5.85-2.22-7.26-.07-1.42-.47-1.89-.65-2.11-.18-.22-1.38,.18-1.63,.33-.25,.15-.62,1.13-.62,1.13Z"/><path class="cls-6" d="M15.87,18.67s-1.33-1.04-2.06,.06c-.36,.54-.34,.81-.37,1.35-.04,.54,.62,.04,1.1,.55,.47,.5,.59,.63,.79,1.09,.19,.43,.36,.65,.36,1.05s.29,1.23,.4,1.45c.11,.22,.62,.94,.8,1.05,.18,.11,.15,.36,.04,.51-.11,.14,.33,1.27,1.49,1.53l-2.54-8.64Z"/><path class="cls-1" d="M16.02,18.88s-2.03-1.05-2.25,.04c-.22,1.09-.29,4.65,2.65,7.88,0,0-2.43-1.53-3.16-4.25-.29-1.24-.47-3.41,.07-4.14,.55-.73,.98-1.13,1.89-.58,.51,.25,.8,1.05,.8,1.05Z"/><path class="cls-6" d="M40.85,18.27s.6-.72,.57-.3c-.03,.42-.48,.69-.15,.3,.33-.39,.3,.3,.83,.06,.54-.24,.92,.24,.92,.42s.78-1.67,1.01-1.31c.24,.36,.33,1.67,.24,2.27-.09,.6-.48,2.3-.66,2.59-.18,.3-1.61,3.04-2.71,3.94-1.1,.89-2.62,1.73-2.83,.57,0,0,.15-1.07,.42-1.61,.27-.54,1.49-4.86,1.49-4.86,0,0,.45-1.88,.86-2.06Z"/><path class="cls-8" d="M18.77,27.86s-2.89-7.68-3.24-10.35c0,0-.33-3.07-.11-4.9,.25-2.03,1.3-8.49,8.52-11.62,0,0,4.37-1.48,7.85-.42,0,0,2.5,.32,4.16,1.73,1.66,1.41,5.28,4.61,5.32,9.12,.04,4.51-.7,6.8-.88,7.5-.18,.7-.88,3.45-1.23,4.33-.35,.88-1.13,3.52-1.3,4.09-.18,.56-.39,.63-.63,.92-.25,.28-1.2,1.34-1.94,1.76-.74,.42-2.89,1.51-4.23,1.73-1.3,.21-5.88,.63-7.29-.42-.49-.56-.88-1.69-1.23-1.27-.35,.42-1.06,1.16-2.18,.18,0,0-.32,.42-.63,.04-.32-.39-.53-1.34-.6-1.83-.07-.49-.35-.56-.35-.56Z"/><path class="cls-6" d="M35.04,2.54s3.66,2.6,2.95,8.21c-.71,4.96-.65,5.49-.65,5.49l.12,2.07s.71,3.43-2.13,5.08c0,0,0,.41,.35,.41s.83,.83,.53,1.83c-.29,1,.24,3.96-6.2,6.14,0,0,1.55-.18,2.55-.55,1.01-.37,4.09-1.62,5.07-3.64,.98-2.02,1.59-5.04,1.86-5.76,.27-.72,1.57-5.6,1.57-5.92s.42-4.35,.13-5.57c-.29-1.22-1.51-5.31-4.56-7.7-1.43-.93-1.59-.11-1.59-.11Z"/><path class="cls-2" d="M26.4,7.64c0,.29-.24,.53-.53,.53s-.53-.24-.53-.53,.24-.53,.53-.53,.53,.24,.53,.53Z"/><path class="cls-2" d="M26.37,3.92c0,.29-.24,.53-.53,.53s-.53-.24-.53-.53,.24-.53,.53-.53,.53,.24,.53,.53Z"/><path class="cls-2" d="M26.6,11.37c0,.29-.24,.53-.53,.53s-.53-.24-.53-.53,.24-.53,.53-.53,.53,.24,.53,.53Z"/><path class="cls-2" d="M31.1,7.51c0,.29-.24,.53-.53,.53s-.53-.24-.53-.53,.24-.53,.53-.53,.53,.24,.53,.53Z"/><path class="cls-2" d="M31.29,4.08c0,.29-.24,.53-.53,.53s-.53-.24-.53-.53,.24-.53,.53-.53,.53,.24,.53,.53Z"/><path class="cls-2" d="M31.04,11.37c0,.29-.24,.53-.53,.53s-.53-.24-.53-.53,.24-.53,.53-.53,.53,.24,.53,.53Z"/><path class="cls-6" d="M24.94,19.33s.14-3.59,.18-3.91c.04-.32,.07-1.23,.56-.46,.49,.78,2.36,4.65,2.11,6.48,0,0-.32,.77-.32,1.13s-.18,1.34-.6,.42l-.46-1.55s-.49-.77-.67-.95c-.18-.18-.81-1.16-.81-1.16Z"/><path class="cls-6" d="M18.31,15.25s1.09,1.02,1.51,1.44l.81-.56-1.34-1.23-.99,.35Z"/><path class="cls-6" d="M25.57,24.41l1.13,.04s.46,.03,.28,.32c-.18,.28-.49,.56-.84,.35-.35-.21-.81-.67-.56-.71Z"/><path class="cls-6" d="M28.81,22.19s-.11,.92,.18,.99c.28,.07,.56-.49,.56-.63s-.74-.35-.74-.35Z"/><path class="cls-1" d="M30.47,15.85s-1.16,1.8-1.87,3.84c-.25,.88,.04,.85,.49,.39,.46-.46,1.02-.92,1.02-.92,0,0,.46-.32,.63-1.27,.18-.95,.39-2.22,.39-2.22,0,0,.11-1.2-.67,.18Z"/><path class="cls-1" d="M18.98,27.95s.26-.39,.36-.47c.11-.09,.02-1.05-.11-1.42-.13-.36-.02-.6,.21-.69,.24-.09,1.01-.47,.99-.75-.02-.28-.79-.19-1.05-.19s-.52,.28-.94-.77c-.43-1.05-2.13-4.06-2.3-8.03-.17-3.97,.69-7.6,3.39-10.9,0,0,.19,1.2,1.07,.92,.88-.28,1.93-1.27,2.36-1.91,.43-.64,.75-1.29-.19-1.37,0,0,3.84-1.95,7.36-1.4,3.52,.56,7.6,2.94,9.6,5.95l.11-.39s-2.21-4.19-7.41-5.88c-2.4-.62-5.62-.79-8.72,.43-3.09,1.22-5.3,4.25-6.01,5.02-.71,.77-2.58,5.24-2.49,7.51,.09,2.28,.19,3.58,.39,4.14,.19,.56,1.35,5,1.67,5.95,.32,.95,1.35,3.99,1.35,3.99,0,0,.19,.32,.34,.26Z"/><path class="cls-1" d="M32.71,24.29s-1.01,.41-.97,.96c.03,.37,.78,.16,1.28-.06,.51-.22,.82-.39,.71-.6,0,0-.08-.48-1.03-.3Z"/><path class="cls-11" d="M41.09,10.51s-.51,3.95-1.07,6c-.56,2.05-1.86,5.72-2.09,7.39,0,0-.6,.05-.88,.05s.19,.6,.56,.88c0,0,.23,.33-.14,.98-.37,.65-1.07,2.56-1.3,3.35,0,0,1.18-.95,1.67-2.14,.49-1.2,.58-1.66,.82-1.63,.25,.03,1.63,.01,2.67-1.42,0,0-.75-.25-1.21,.03,0,0,.59-1.55,.56-1.89s.22-1.12,.43-1.55c.22-.43,.5-.9,.59-1.02,.09-.12,.65-.99,.93-1.27,0,0-.53-.03-.87,.37-.34,.4-1.05,1.12-1.18,1.36-.12,.25-.4,.19-.43-.15-.03-.34,.81-3.78,.81-4.31s.56-3.29,.14-5.02Z"/><path class="cls-5" d="M22.64,26.1s-.44,.2-.44,.59,.91,.69,1.11,.77c.2,.07,1.9,.52,3.44,.52s4.35-.03,6.03-.64c.72-.42,1.73-.89,1.73-1.31s-.84-.54-1.34-.22c-.49,.32-3.41,1.21-5.12,1.21s-4.2-.77-5.41-.91Z"/><path class="cls-5" d="M23.92,27.98s-.82,.42-.79,1.06c.02,.64,.99,.84,1.41,.89,.42,.05,2.65,.3,3.51,.32,.87,.02,5.14,0,6.06-1.78,0-.32-.79-1.09-1.16-.57-.37,.52-.82,1.29-2.03,1.53-1.21,.25-4.92,.42-5.88-.02-.96-.45-.77-1.16-.59-1.38,.17-.22-.4-.22-.52-.05Z"/><path class="cls-10" d="M22.33,26.85s-.31,.09-.23,.56c.08,.46,.31,1.69,.7,1.66,0,0,.26,.22,.28,.08,.02-.14,.22-.77,.31-.9,.09-.12,.65-.42,.5-.53-.16-.11-.56-.33-.85-.43-.29-.11-.67-.31-.7-.43Z"/><path class="cls-10" d="M33.34,26.96s-.37,.17-.17,.45c.2,.28,.81,.68,.91,.85,.11,.17,.45-.26,.53-.54,.08-.28,.17-1.09,.19-1.27,.02-.19-.23-.36-.34-.23-.11,.12-1.12,.74-1.12,.74Z"/><path class="cls-15" d="M24.44,27.7s-.16,.74-.02,1.13c.14,.38,.95,.79,1.91,.81,.97,.02,2.72-.02,3.11-.04,.38-.02,2.25-.27,2.9-.86,.27-.23,.65-.65,.52-.97-.14-.32-.56-.09-.83-.13-.27-.05-2.77,.36-3.33,.38-.56,.02-3.42,.14-4.25-.32Z"/><path class="cls-9" d="M24.39,28.51s.34,.74,.63,.23c.29-.52,.79-.61,1.06-.52,.27,.09,.29,.52,2,.52,1.15,0,1.82-.16,2.3-.36,.47-.2,.83-.4,1.24-.4s.81,.12,.9,.38c.09,.26,.2-.27,.11-.59-.09-.32-.58-.2-.88-.18-.29,.02-2.05,.41-3.04,.36-.7,.02-3.69-.07-4.12-.07s-.22,.45-.2,.63Z"/><path class="cls-8" d="M40.73,18.45s.06,.92,1.37-.12c.54-.45,1.13,.21,1.13,.48s.57,.69,.89-1.13c.03-.48-1.04-.98-1.46-.95-.42,.03-1.67,1.04-1.94,1.73Z"/><path class="cls-8" d="M38.85,25.55s-.12,.54-.15,.78c-.03,.24,.27,.45,.63,.15,.36-.3,2-1.34,2.21-2.65,0,0-1.46,1.64-2.68,1.73Z"/><path class="cls-11" d="M15.44,19.86s.76,1.13,.8,1.38c.04,.25,.15,.76,.15,.91s-.58,0-.62,.36c-.04,.36,.07,1.23,.18,1.52,.11,.29,.47,1.13,1.16,.87,0,0,.15-.45,.47-.29,.2,.09-1.09-4.32-1.31-4.61-.22-.29-.36-.36-.84-.15Z"/><path class="cls-1" d="M12.06,22.3s-1.27,.77-1.69,2.56c-.08,.82-.21,2.85,.45,2.01,.53-.66,.74-.92,.95-.82,.21,.11,.03,.16-.19,.55-.21,.4-.69,2.51,.5,4.83,.21,.34,.34,.55,.66,.26,.32-.29,.5-.77,.77-.63,.26,.13,0,.4-.05,.77-.05,.37,.05,2.3,1.11,2.67,0,0-.11,.02-.14,.47-.03,.45-.06,1.61,.85,2.2,0,0,.25,.17-.06,.23-.31,.06-.54,.65-.56,.93,0,0-.2-.06-.51-.25-.31-.2-1.41-.68-1.75-1.13-.34-.45-.68-1.35-.76-1.64-.08-.28-.56-1.04-.76-1.24-.2-.2-.87-1.44-.87-1.83s-.17-1.21-.54-1.75c0,0,.2-1.07,.2-1.24s-.03-.82-.17-1.13c-.14-.31-.48-2.14-.34-2.51,.14-.37,.87-2.54,1.92-3.22,.37-.31,.8-.34,.99-.09Z"/><path class="cls-6" d="M10.7,22.74s1.51,.4,1.93,.58c.42,.19,.86,.54,.89,1.19,.02,.49,.09,1.09-.28,1.28-.37,.19-.23,.42,.21,.4,.44-.02,1.12,.02,1.63,.56,.51,.54,1.19,1.47,.77,1.82-.42,.35-.77,.77-.68,.91,.09,.14,1,.21,1.28,.49,.28-.02,.77-.23,1.16-.07,.4,.16,.82,.4,.82,.4,0,0,1.17-.05,1.12-.26-.05-.21-.26-.58-.37-1.16-.12-.58-.47-1.21-.72-1.3-.26-.09-.91-.21-1.14-.28-.23-.07-1.35-.79-1.7-1.07-.35-.28-1.68-1.89-1.93-2.54-.26-.65-.44-1.07-1.4-1.33-.68-.19-1.14-.02-1.14-.02l-.44,.42Z"/><path class="cls-11" d="M17.49,27.4s.89,.85,.83,1.95c0,0,.59,.18,.75,.18s.22-.1,.12-.63c-.1-.53-.41-1.14-.71-1.3-.3-.16-.98-.2-.98-.2Z"/><path class="cls-8" d="M17.96,30.04s-2.1,.46-1.24,2.25c.65,1.02,1.14,1.36,1.82,1.33,0,0,.71-.22,.74-.59,.03-.37,.28-1.57-1.33-3Z"/><path class="cls-6" d="M18.33,30.35s-.96-.15-.71,.15c.25,.31,1.17,1.2,1.05,1.79-.12,.59-.49,1.02-.37,1.36,.12,.34,1.02-.28,1.05-.49,.03-.22,.09-.86-.09-1.39-.18-.53-.93-1.42-.93-1.42Z"/><path class="cls-1" d="M17.4,33.5s.48,.32,.28,.88c-.2,.56-.33,.34-.61,.33-.27,0-.91-.93-1.19-.05-.28,.88,0,1.56,.08,1.84,.08,.28,.84,.8,.68,1,0,0-.72-.04-1.16-.2-.44-.16-1.2-1.48-1.2-2.04s.48-1.12,1.04-1.28c.56-.16,1.24-.04,1.44-.28,.2-.24,.36-.44,.36-.44l.28,.24Z"/><path class="cls-1" d="M18.04,30.14s-1.24,.4-1.4,1.08c-.16,.68,.72,1.96,1.28,2.4,0,0-1.24-.32-1.68-1.36-.44-1.04-.4-1.64,.16-2.12,.56-.48,1.28-.32,1.64,0Z"/><path class="cls-16" d="M17.12,30.08s-.77,.19-.99,1.19c-.02,.08,.03,.16,.11,.17,.08,.02,.16-.03,.17-.11,.18-.81,.75-.96,.77-.97,.08-.02,.13-.1,.11-.18-.02-.08-.1-.13-.17-.11Z"/><path class="cls-19" d="M16.38,32.74s-.55,.52-.48,1.02c0,.18,.38,.13,.52,.11,.14-.02,.43-.13,.43-.59,0,0-.04-.43-.47-.54Z"/><path class="cls-16" d="M17,32.35c0,.51,.35,.93,.78,.93s.78-.42,.78-.93-.35-.93-.78-.93-.78,.42-.78,.93Zm.2,0c0-.4,.26-.73,.58-.73s.58,.33,.58,.73-.26,.73-.58,.73-.58-.33-.58-.73Z"/><path class="cls-16" d="M16.36,36.48c0,.47,.31,.86,.69,.86s.69-.39,.69-.86-.31-.86-.69-.86-.69,.39-.69,.86Zm.2,0c0-.36,.22-.66,.5-.66s.5,.3,.5,.66-.22,.66-.5,.66-.5-.3-.5-.66Z"/><path class="cls-16" d="M17.14,39.45c0,.39,.26,.71,.58,.71s.58-.32,.58-.71-.26-.71-.58-.71-.58,.32-.58,.71Zm.2,0c0-.28,.17-.51,.39-.51s.38,.23,.38,.51-.17,.51-.38,.51-.39-.23-.39-.51Z"/><path class="cls-16" d="M21.2,28.3c0,.05,.03,.1,.09,.11,.35,.05,.52,.24,.52,.56,0,.23-.1,.44-.28,.56-.17,.12-.38,.16-.59,.09-.43-.14-.29-.82-.29-.82,.01-.05-.02-.11-.08-.12-.05-.01-.11,.02-.12,.08,0,.04-.18,.86,.43,1.06,.27,.08,.55,.04,.77-.12,.23-.17,.36-.43,.36-.72,0-.43-.25-.7-.69-.76-.05,0-.1,.03-.11,.09Z"/><path class="cls-16" d="M33.55,43.19c-.19,.09-.35,.27-.42,.48-.04,.1-.05,.2-.05,.3,0,.12,.02,.24,.07,.34,.07,.16,.2,.27,.35,.33,.15,.05,.33,.04,.48-.03,.19-.09,.35-.27,.42-.48,.08-.22,.07-.45-.02-.64-.07-.16-.2-.27-.36-.33-.15-.06-.33-.04-.48,.03Zm.02,1.27c-.11-.04-.19-.12-.24-.23-.07-.14-.07-.32-.01-.49h0c.06-.17,.18-.3,.32-.37,.11-.05,.23-.06,.33-.02,.1,.04,.19,.12,.24,.23,.07,.14,.07,.32,.01,.49-.06,.17-.18,.3-.32,.37-.11,.05-.23,.06-.33,.02Zm-.44-.78h0Z"/><path class="cls-16" d="M27.46,46.82c-.2,.07-.36,.22-.44,.4-.04,.09-.06,.18-.06,.28,0,.07,.01,.15,.04,.22,.06,.16,.18,.29,.34,.36,.18,.08,.4,.09,.6,.01,.2-.07,.36-.22,.44-.4,.07-.16,.08-.34,.02-.5-.06-.16-.18-.29-.34-.36-.18-.08-.4-.09-.6-.01Zm-.04,1.08c-.11-.05-.2-.14-.24-.25-.04-.11-.03-.23,.02-.35,.06-.14,.18-.24,.33-.3h0c.15-.06,.31-.05,.45,0,.11,.05,.2,.14,.24,.25,.04,.11,.04,.23-.02,.35-.06,.14-.18,.24-.33,.3-.15,.06-.31,.05-.45,0Zm.04-1.08h0Z"/><path class="cls-16" d="M25.26,46.25c-.21,.08-.39,.24-.48,.43-.04,.09-.06,.18-.06,.27,0,.07,.01,.14,.04,.21,.06,.15,.18,.28,.34,.35,.19,.09,.43,.09,.64,.01,.22-.08,.39-.24,.48-.43,.07-.16,.08-.33,.02-.48-.06-.15-.18-.28-.34-.35-.19-.09-.43-.09-.64-.01Zm-.08,1.08c-.11-.05-.19-.14-.23-.24-.04-.1-.03-.22,.02-.33,.07-.15,.2-.26,.37-.33h0c.17-.06,.34-.06,.49,0,.11,.05,.19,.14,.23,.24,.04,.1,.03,.22-.02,.33-.07,.15-.2,.26-.37,.33-.17,.06-.35,.06-.49,0Zm.08-1.08h0Z"/><path class="cls-16" d="M30.54,46c-.22,.08-.39,.24-.48,.43-.04,.09-.06,.18-.06,.27,0,.07,.01,.14,.04,.21,.06,.15,.18,.28,.34,.35,.19,.09,.43,.09,.64,.01,.22-.08,.39-.24,.48-.43,.07-.16,.08-.33,.02-.48-.06-.15-.18-.28-.34-.35-.19-.09-.43-.09-.64-.01Zm-.08,1.08c-.11-.05-.19-.14-.23-.24-.04-.1-.03-.22,.02-.33,.07-.14,.2-.26,.37-.33h0c.17-.06,.35-.06,.49,0,.11,.05,.19,.14,.23,.24,.04,.1,.03,.22-.02,.33-.07,.15-.2,.26-.37,.33-.17,.06-.35,.06-.49,0Zm.08-1.08h0s0,0,0,0Z"/><path class="cls-16" d="M25.66,34.04s-.38,.36-.22,.77c.14,.36,.43,.45,.67,.53l.08,.03c.2,.07,.4,.05,.54-.06,.09-.07,.2-.2,.2-.45,0-.34-.29-.62-.58-.75-.05-.02-.11,0-.13,.05-.02,.05,0,.11,.05,.13,.23,.1,.47,.32,.47,.57,0,.14-.04,.24-.12,.29-.1,.08-.25,.06-.36,.03l-.09-.03c-.22-.07-.44-.14-.54-.41-.11-.29,.16-.54,.17-.56,.04-.04,.04-.1,0-.14-.04-.04-.1-.04-.14,0Z"/><path class="cls-11" d="M17.9,35.35s-.08-.32-.08-.46,.97,.06,.99,.72c.02,.67,.17,1.65-.48,1.58,0,0,.08-.25,.08-.57s-.06-.86-.51-1.27Z"/><path class="cls-16" d="M35.52,29.93s-.06,.06-.09,.09c-.06,.07-.12,.14-.18,.22-.2,.24-.4,.47-.59,.71-.25,.31-.51,.62-.75,.93-.25,.32-.5,.64-.75,.96-.11,.14-.21,.28-.31,.42-.05,.07-.09,.14-.14,.21-.09,.14-.21,.26-.3,.41-.06,.1-.18,.27-.12,.39,.03,.06,.11,.12,.17,.16,.08,.05,.18,.05,.26,0,.2-.14,.96-1.44,1.21-1.78,.26-.34,.72-.94,.87-1.11,.05-.04,.09-.09,.11-.15,.01-.05,0-.08,0-.13,0-.05,.04-.09,.07-.13,.22-.27,.44-.55,.66-.82,.07-.09,.15-.24,.12-.36-.02-.11-.13-.08-.19-.04-.02,0-.03,.02-.04,.03Z"/><path class="cls-16" d="M41.39,26.23s-1.77,1.1-2.05,1.34c0,0-.67,.41-.6,.54,.06,.13,.26,0,.52-.17,.26-.17,1.7-1.12,1.99-1.29,.28-.17,.63-.28,.54-.39-.09-.11-.04-.24-.39-.02Z"/><path class="cls-16" d="M40.38,27.51s-3.32,1.92-3.3,4.23c0,0-.22,.22-.24-.24-.02-.45,.58-1.9,1.12-2.35,.17-.14,.32-.31,.48-.45,.28-.24,.58-.46,.89-.68,.17-.12,.35-.23,.53-.35,.14-.09,.26-.2,.4-.3,.08-.06,.24-.16,.34-.1,0,0,.22,.09-.22,.24Z"/><path class="cls-3" d="M27.11,35.68s.62,1.13,1.42,1.13c0,0-.49,.49-.6,.78,0,0-.71-.16-1.16-.71,0,0-.42-.42,.33-1.2Z"/><path class="cls-16" d="M14.23,19.4c.22,0,.69,.09,.44,.5-.25,.41-.25,.72-.13,.72s.13-.22,.22-.38c.09-.16,.41-.57,.57-.35,.16,.22-.35,.44-.41,.91-.06,.47-.28,1.39-.06,1.39s.32-.79,.32-.98,0-.66,.32-.69c.31-.03,.69,.72,.82,1.61,0,0-.66-.19-.69,.47-.03,.66,.25,2.24,1.14,2.55,0,0,.5,.03,.44-.28,0,0-.06-.22-.25-.06-.19,.16-.63-.09-.63-.47,0,0,.22-.44,.35-.25,.13,.19,.38,.44,.47,.31,.09-.13-.06-.38-.28-.47-.09-.04-.19-.09-.29-.08-.19,.02-.21,.28-.41,.12-.08-.07-.18-.14-.11-.24,.09-.13,.28-.17,.39-.27,.01,0,.03-.02,.04-.03,.19-.16,.19-.6,.19-.76s-.66-2.87-1.67-3.34c-.41-.19-1.07-.28-1.36,.38,0,0-.19,.91-.03,.91s.25-.09,.25-.38,.16-.85,.38-.85Zm2.21,3.09c-.03,.22,.03,.54-.09,.69,0,0-.01,.02-.02,.03-.09,.12-.24,.28-.41,.33-.07-.34-.18-.97-.04-1.11,.16-.16,.6-.16,.57,.06Zm44.02,42.42c-.03-.72-1.68-1.71-2.46-2.08-.78-.37-2.3-1.15-3.36-1.31-1.06-.16-.68-.44-.68-.44,.84-1.37,1.68-2.92,1.65-4.66-.03-1.96-2.64-3.73-3.08-4.04-.44-.31-.68-.65-.81-.9-.12-.25-.5-.96-.9-1.4-.4-.44-1.4-.62-1.4-.62-.72-.03-.84-.25-.99-.37-.16-.12-.53-.53-1.03-.87-1.59-1.37-3.95-2.67-4.26-2.83,.23-1.56-.89-1.45-1.13-1.45s-.73,.08-.95-.05c-.5-.34-.19-1.12,.19-1.59,.4-.72,.74-1.03,1.26-1.99,.78-1.49,1.13-2.98,1.26-3.64,.12-.65,.38-.82,.71-1.15,.33-.33,1.04-1.04,1.41-2.04,.37-1,.62-2.29,.62-2.74s.17-1,.21-1.21c.04-.21,.29-.75,.5-1.29,.21-.67,0-1.41-.21-1.58-.21-.17-.46-.42-.79-.66-.33-.25-.37-.58-.54-.96-.58-1.58-1.87-2.99-1.87-2.99,.42-1.16,.71-2.2,.71-3.28,.02-1.82-1.25-2.12-1.25-2.12-1.04-.33-1.57,.48-1.94,.86-.37,.37-.55,.62-.55,.62,.49-1.8,.78-6.35,.56-7.59-.87-5.09-3.87-7.45-5.74-8.63C32.79,.14,29.41-.13,27.62,.05c-5-.15-8.75,4.09-9.55,5.16-4.24,5.7-2.58,12.74-2.58,12.74-.17-.2-.81-.47-1.12-.47s-.78,.13-1.1,.67c-.1,.18-.75,.46-1.45,1.05-.7,.59-2.31,2.28-2.68,2.73-.37,.45-.62,.96-.65,1.52-.03,.56-.05,1.98,.06,2.56,.1,.56,.47,1.67,.64,1.97,.17,.31,.25,.76,.23,.99-.03,.23-.08,.76-.08,1.01s0,1.27-.03,2.06c-.03,.79,.39,1.52,.62,1.89,.23,.37,.53,.93,.53,1.13s0,.68,.2,1.15c.2,.48,.54,.96,.9,1.13,.37,.17,.41,.38,.57,.56,.16,.19,.5,.87,.81,1.34,.87,1.34,2.8,2.11,3.08,2.11s.41,.16,.41,.16c-1.37,.78-1.9,2.3-1.9,2.3-.75-.29-.86,.08-1.06,.35-.16,.22-.49,.18-.49,.18-6.16,1.09-8.73,3.07-9.98,4.22-1.24,1.15-1.84,3.84-1.9,4.43-.06,.59-.02,4.04,0,5.1,.03,1.31,.56,1.8,1.4,2.71,.84,.9,3.42,2.05,3.42,2.05-2.15,.53-3.61,1.55-4.45,2.15-.84,.59-1.46,1.12-1.46,1.77s1.15,.75,1.74,.75,3.36,.03,4.57-.16c1.52-.19,4.14-.22,5.44-.31,1.56-.09,2.08-.75,2.08-1.34s-.4-2.05-.71-2.55c-.31-.5-.06-.91-.06-.91,2.46-1.56,2.31-3.37,2.31-3.65s.67-.24,.67-.24c2.92,.19,6.38-.96,6.88-1.15,.5-.19,.47,.31,.47,.31,.06,.53,.25,1.68,.25,1.68,.12,.84,.5,.62,.5,.62,.68-.16,1.24-.12,1.83-.12s1.72-.05,2.26-.05,.13-.67-.1-.86c-.22-.19-.95-1.52-1.08-2.1-.13-.57,.89-.35,1.18-.35s.64,.38,.64,.38c.29,.16,.51,.38,.92,.6,.41,.22,2.42,1.43,3.11,1.81,.7,.38,1.73,.83,1.73,.83,1.09,.2,2.08,.57,2.65,.95,1.56,1.05,2.73,1.84,3.56,2.29,1.46,.76,2.84,.95,2.84,.95,.84,0,2.51-.07,2.51-.07,0,0-.08,.31-.06,.95,.03,1,1.48,1.03,1.95,1.03s1.39,.06,2.14,.06,1.95,.25,2.76,.33c.81,.08,1.56,.36,2.12,.36s1.95,.03,2.76,0c2.26-.28,2.62-1.18,2.59-1.89Zm-5.76-3.12c.45,0,.9,.32,.9,.32-1.35,.22-2.61,2.09-2.61,2.09,0,0-2.64,.06-3.15-.03-.51-.1-1.09-.06-1.87-.19-.77-.13-.03-.26,.16-.26s2.67-.48,2.67-.48c.74,0,2.12-.68,2.64-1.13,.52-.45,.8-.32,1.25-.32Zm-3.87,.86c3.2-3.89,2.66-6.85,2.51-7.39-.15-.54-.94-2.61-.94-2.61,0,0,.47,.2,1.27,.94,0,0,1.78,1.36,1.67,3.19-.11,1.82-1.13,3.6-1.9,4.5-.77,.89-2.61,1.38-2.61,1.38Zm-10.05-16.95c-.62,1.15-2.05,2.7-2.39,3.16,0,0-2.2-1.3-3.47-2.39,0,0,3.41-.81,5.61-2.88,0,0,.87,.96,.25,2.11Zm-.22,10.23c-1.83-4.19-6.14-7.97-6.14-7.97,.09-.46-.15-1.33-.15-1.33,.28-.31,.65,.25,.65,.25,.19,.19,2.33,1.89,3.72,2.6,1.8,.9,4.8,4.22,5.49,5.98,.68,1.77,.37,2.91,.37,2.91,0,0-1.92,1.55-2.23,1.83-.31,.28-.84,.62-.71-.25,.12-.87-.22-2.39-.99-4.03Zm-11.57-5.94c-.26,.08-.44-.1-.26-.23,.18-.13,.47-.39,.67-.54,.21-.16,.1-.26,.1-.26-.11-.11-.37,.33-.63,.48-.26,.16-.8,.37-1.01,.11-.24-.3-.38-.73-.54-1.07-.06-.14-.12-.29-.19-.43-.08-.16-.09-.31-.15-.48-.04-.14-.05-.28-.09-.42-.02-.08-.07-.14-.04-.23,.06-.21,.36-.34,.54-.42,.41-.18,1.06,.21,1.35,.49,.39,.44,.54,.93,.54,1.24s.03,.26,.21,.31c.18,.05,.03-.52,.03-.73s.34,.08,.34,.08c0,0,.13,.21,.21,.03,.08-.18-.54-.52-.7-.6-.16-.08-.39-.39-.23-.54,.16-.15,.49,.1,.6,.23,.1,.13,.62,.72,.7,.91,.08,.18,.05,.96-.18,1.4-.23,.44-1.01,.6-1.27,.67Zm.02,.29c0,.81-.45,2.62-.45,2.62-.15-.61,.1-2.67,.1-2.67,.05-.15,.35,.05,.35,.05Zm-.81,4.44c-.76-1.66-.3-4.69-.3-4.69,.25-.1,.3,.15,.3,.15,.2,1.66,0,4.54,0,4.54Zm-1.78-6.07c-.2,.18-.65,.39-.88,.14-.27-.29-.46-.67-.61-1.04-.13-.33-.28-.66-.25-1.02,0-.13-.01-.26,.04-.39,.12-.29,.59-.41,.82-.41s.69,.41,.86,.65c.16,.25,.29,.51,.29,.84s.06,.43,.25,.78c.18,.35,.27,.74-.04,.76-.31,.02-.37-.04-.22-.18,.14-.14-.04-.31-.25-.12Zm3.45-1.98c-.08-.18-.06-.41,.04-.57,.27-.42,1.07-.53,1.5-.34,.15,.07,.29,.17,.43,.25,.59,.31,.92,.78,1.04,.98,.12,.2,.47,.63,.47,.23s.12-.39-.23-.66c-.35-.27-.59-.47-.86-.59-.27-.12-.16-.23,.04-.23s.9,.08,.78-.16c-.12-.23-.27-.27-.59-.27s-.55,.35-1.1,.16c-.55-.2-1.92,.12-1.8,1.1h-.94s-.23-.35-.55-.35-.94,.04-1.13,.27c0,0-.24,.16-.43-.12-.2-.27-.9-.9-1.68-.55,0,0-1.17-1.29-1.17-2.39s.74-1.8,2-2.58c0,0,.7,1.02,1.64,1.09,.94,.08,1.53-.12,2.74-.74,.66-.23,.86-.39,.74-.59-.12-.19-.35,0-.59,.16-.23,.16-1.96,1.1-3.05,.86-1.09-.23-1.49-1.1-1.17-1.84,.31-.74,.94-1.21,1.84-1.64,0,0,.39,1.21,1.76,.98,0,0,.08,.16,.43,.16s.94-.08,.74-.31c0,0-.12,.08-.31,.08s-.82,.04-.12-.27c.51-.27,.7-.43,.55-.55-.16-.12-.31,.08-.55,.23-.23,.16-1.02,.63-1.72,.16-.7-.47-.59-1.13-.16-1.6,.43-.47,1.88-1.53,2.54-.98,.35,.23,.55,.82,.35,1.6-.2,.78-.08,1.29,.35,1.76,.43,.47,1.21,1.25,1.56,1.53,.35,.27,1.84,1.33,2.15,1.53,.31,.2,1.33,1.29,1.29,1.8-.04,.51-.35,.86-.59,.98,0,0,.16-.2,.2-.35,.04-.16,.04-.31-.12-.47-.16-.16-.27,.12-.43,.39-.16,.27-.33,.4-.43,.67,0,0-.04,.16-.59-.04-.55-.2-1.6-.74-1.84-.98-.23-.23-.47-.86-.04-1.37,.39-.35,.94-.51,1.53-.27,.59,.24,.82,.39,.98,.47,.16,.08,.39,.2,.39,.08s-.19-.19-.31-.27c-.12-.08-.2-.27-.04-.27l.2-.08s-.27-.08-.39-.04c-.12,.04-.94-.16-1.06-.16s-.94,.04-.43-.35c.51-.23,.67-.43,.31-.43s-.63,.39-.9,.7c-.27,.31-1.68,1.06-.43,2.23,.55,.43,1.33,1.72,1.33,2.35s-.2,1.84-1.37,2.03c-.12,0-.25-.01-.37-.04-.67-.14-1.18-.62-1.59-1.14-.15-.19-.61-.66-.85-1.2Zm-14.56-8.51c-.12,0-.17,.45-.14,.7,.03,.25-.37,.25-.34,0,.03-.25,.16-1.3,.43-1.34,.52-.07,.84,.1,1.03,.1s.34,.15,.4,.31c.06,.16,.25,.22,.84,.28,.84,.06,1.08,.99,1.08,1.4s-.4,.68-1.52,.68c-.51,0-1.04-.14-1.44-.47-.08-.06-.24-.18-.27-.28,0-.02,0-.03-.01-.05-.03-.24,.16-.67,.18-.91,.05-.62-.12-.4-.25-.4Zm1.39-5.06c.09,.11,.13,.31,.02,.49-.11,.18-.36,.22-.63,.18-.27-.04,.13-.69,.13-.69,.13-.29,.38-.09,.47,.02Zm-.71-1.79s-.12-.86,.79-1.21c0,0,.79-.42,1.35,.19,0,0,1.07,1.4,1.12,2.14,.05,.74-.37,1.21-1.12,1.16-.74-.05-1.63-.74-2.14-2.28Zm.37,2.69c.49,0,.59-.62,.59-.62,1.01,.79,2.35,.59,2.58-.29,.23-.88-.33-1.8-.33-1.8,.32,.16,.63-.13,.63-.13,.28-.39,0-.95-.25-1.38-.25-.42-.35-1.06-.35-1.59,0-.71,.64-1.2,1.34-1.24,1.02-.04,1.7,1.31,1.84,1.91,.14,.6,.18,1.55-.74,1.7-.92,.14-1.52-.74-1.59-.95-.07-.21-.25-.74-.42-.64-.18,.11-.11,.21,.28,.92,.57,1.24,2.09,.88,2.09,.88-.14,.35-.92,.39-1.1,.32-.18-.07-.49-.11-.49,.11s.18,.21,.85,.21,1.06-.53,1.24-.95c.18-.42,.39-.18,.39-.18,0,0,.14,.35,.6,.88,.46,.53,.14,1.27,.14,1.27,0,0-1.45,2.05-1.55,2.23-.11,.18-.35,.39-.21,.53,.14,.14,.53-.53,.81-.99,.28-.46,1.38-1.98,1.38-1.98,.32,.42,1.21,1.16,1.21,1.16l-.46,.69c-.46,.69-.5,1.62,.03,2,.65,.48,1.64,.42,1.64,.42-.43,1.08-1.41,1.83-1.86,2.13-.46,.29-.59,.39-.72,.62-.13,.23-.39,1.11-.75,1.6-.78,.98-1.93,1.34-2.78,1.28-.85-.06-1.9-1.18-2.09-1.34-.2-.16-.03-.33-.03-.33,1.24-.03,1.37-1.86,1.54-3.04,.16-1.18,1.54-3.7,1.73-3.92,.2-.23,.49-.29,.36-.46-.13-.16-.36,.07-.85,.69-.49,.62-1.31,2.78-1.41,3.24-.1,.46-.39,2.03-.43,2.29-.03,.26-.36,.59-.36,.59,.16-1.08-.56-1.8-.98-1.8s-.36-.16-.36-.16c.56,0,.98-.56,1.08-1.01,.1-.46-.16-1.01-.39-1.31-.23-.29-.2-.56-.2-.82s-.46-.65-.62-.56c-.16,.1,.07,.23,.2,.39,.13,.16,.13,.39,.13,.39-.29,0-.33-.2-.46-.43-.13-.23-.39-.56-.52-.39-.13,.16,.07,.23,.07,.23,.29,.1,.29,.36,.29,.36-.23-.1-.56-.23-.59-.03-.03,.2,.43,.26,.43,.26,.88,.33,1.11,.72,1.28,.95,.16,.23,.13,1.27-.23,1.5-.36,.23-1.67,.13-2.35-.2-1.24-.72-1.14-1.86-1.01-2.22,.43-1.18,1.28-.98,1.77-.98Zm8.04-4.97c.77,1.21,4.46,.73,5.89,.62,1.43-.11,2.05-.73,2.34-1.02,.33-.73,.69-.66,.99-.58,.29,.07,.51,.51,.26,.73-.91,.8-2.49,1.28-4.35,1.35-1.87,.07-4.39-.26-4.75-.29-.37-.04-1.53-.06-1.53-.83s1.05-.92,1.05-.92c0,.18-.18,.44,.11,.95Zm.15-.6c.03-.51,.48-.37,.75-.37h1.02c.34,0,2.41,.07,2.75,.07,.71,0,2.17-.27,2.65-.31,.47-.03,.81-.07,.78,.44-.03,.51-1.12,.95-1.56,.98-.44,.03-2.04,.21-2.34,.21-.15,0-1.66,.07-2.99-.03-1.15-.08-1.04-1-1.04-1Zm8.72-1.19c.24-.2,.88-.51,1.05-.71,.17-.2,.41-.2,.41-.1s-.07,.54-.1,.78c-.03,.24-.37,1.02-.37,1.02-.07-.48-.98-.98-.98-.98Zm.38-.52c-.61,.32-2.4,.9-2.9,.97-.5,.07-1.93,.17-2.65,.17s-1.36,0-2.29-.04c-.93-.04-2.22-.43-2.79-.64-.57-.21-.74-.56-.64-.75,.13-.26,.57-.21,.57-.21,.89,.21,2.65,.68,3.22,.79,.57,.11,1.5,.11,2.57,.11s3.15-.59,3.75-.92c.61-.32,1.5-.56,1.78-.27,.27,.27-.03,.47-.64,.79Zm-10.9,.58c.31,.24,.98,.48,.98,.48-.34,.1-.54,.51-.61,.92-.07,.41-.37,.2-.37,.2,0-.2-.27-.68-.41-.98-.14-.31-.14-.75-.14-.75,0-.1,.24-.1,.54,.14Zm6.21,5.9c.14,.11,.67-.25,.92-.39,.25-.14,.74-.57,1.13-.81,.39-.25,1.66-.71,1.94-.74,0,0-3.78,3.14-4.38,3.71,0,0-.25,.39-.5,.25-.25-.14-.35-.39-.18-.81,.18-.42,.25-1.27-.71-1.7,0,0-1.17-.67-1.8,.35,0,0-.92-.81-1.27-1.31,0,0,1.45,.32,2.62,.39,1.17,.07,2.61,0,3.67-.11,0,0-.99,.6-1.17,.74-.18,.14-.42,.32-.28,.42Zm-7.78,9.2c.97-.03,2.02-1.18,2.1-1.36,.08-.18,.37-.08,.37-.08,0,0,.34,.24,.55,.34,.21,.11,.16,.29,.16,.29,0,0-.16,.21-.5,.52-.34,.31-.39,.97-.39,.97-.16,0-1.42,.03-1.55-.05-.13-.08-.73-.63-.73-.63Zm.05,.68c-.76-.11-1.55-.21-2.1-.42-.55-.21-1.47-.76-1.84-1.13,0,0,.94,.39,1.34,.39s.94,.31,1.34,.37c.39,.05,.84,.24,1.1,.29,0,0,.92,.6,.16,.5Zm2.33-2.52c.08-.13,.26-.37,.42-.94,.16-.58,.81-.86,1.26-1.13,.45-.26,1.23-1.39,1.23-1.39,.11-.24,.34-.05,.42,0,.08,.05,.42,.34,.66,.5,.24,.16,.18,.34,.08,.39-.11,.05-.6,.37-1.21,.79-.6,.42-.76,1.31-.76,1.57s-.5,.6-.73,.76c-.24,.16-.42,.13-.5,.1-.08-.03-.87-.66-.87-.66Zm1.54-4.68c-.74-.53-.14-1.45-.04-1.7,.11-.25,.85-1.24,.85-1.24,.25-.25,.81-.25,1.27,.04,.78,.42,.57,1.13,.46,1.34-.11,.21-.18,.78-.78,1.48-.6,.71-1.27,.39-1.77,.07Zm-7.76,4.68c.45,.03,.71,.47,1.07,.73,.37,.26,.21,.45-.1,.34-.31-.1-.92-.45-1.31-.81-.39-.37,.34-.26,.34-.26Zm-.03,1.66c.38,.63,2.17,1.34,2.4,1.39,.23,.05,.25-.15,0-.2-.25-.05-1.21-.58-1.21-.58,.94,.48,4.88,.63,4.88,.63-.08,.66,.4,1.52,.4,1.52-1.04-.15-3.01-.56-3.69-.66-1.39-.38-2.71-1.32-2.91-1.72-.2-.4,.13-.38,.13-.38Zm16.23-7.3c-.43,0-.55,.23-.67,.35-.12,.12-.55,.51-.71,.94-.16,.43-.55,.23-.74-.12-.2-.35,.55-1.02,.55-1.02,.67-.55,.98-.47,1.53-.55,.55-.08,.82,.27,.82,.27,0,0-.35,.12-.78,.12Zm0,.54c-.24,.07-.45,.09-.45-.07s.47-.26,.47-.26c.33-.07,.21,.26-.02,.33Zm2.58,4.07c.47,.86,.27,3.4,.27,3.4-.39-.47-1.33-1.06-1.64-1.29-.31-.23-1.6-1.29-1.8-1.41-.2-.12-.9-.86-1.21-1.37-.31-.51-.12-.94-.08-1.56,.04-.63,.39-.59,.39-.59,2.9,.63,3.6,1.96,4.07,2.82Zm-.17,5.62c-.09,.09-.21,.26-.31,.16-.09-.09,.02-.12,.02-.12l.21-.26c.16-.07,.16,.12,.07,.21Zm-2.31,.01s.62,.25,.81,.37c.19,.12,.22,.37-.12,.59-.34,.22-.68-.96-.68-.96Zm12.64-14.15c-.16,1.05-.73,3-1.75,4.14-.37,.28-.65,.57-.89,1.18-.24,.61-.73,2.35-.85,2.68-.12,.32-1.18,2.07-1.3,2.39-.12,.32-.65,1.14-.73,1.3-.08,.16-.28,.53-.57,.81-.28,.28-3.61,2.39-5.28,2.64,0,0,.04-.45,.32-.45s1.1-.24,1.42-.61c.32-.37,.32-.93,.28-1.3-.04-.37-.2-.57-.2-1.46s.49-1.99-.97-4.1c-.69-.65-1.5-1.42-3.49-1.75,0,0,1.54-1.62,4.71-1.34,.57,.08,.69,.16,.69,0s-.16-.32-.81-.32-1.58,.08-2.11,.12c0,0-.28-.28,0-.57,.28-.28,1.34-2.52,4.06-3.17,0,0,.32-.24-.41-.12,0,0-.36-.61,2.15-1.75,2.03-.89,3.37-1.3,3.77-1.34,.41-.04,1.14-.24,1.38,.2,.24,.45,.73,1.74,.57,2.8Zm-2.58-8.72c1.06,1.15,1.76,3.09,1.76,3.09-.09-.09-.53-.37-.69-.56-.16-.19-.37-.19-.37-.03s.59,.53,.87,.75c.28,.22,1.15,.97,1.47,1.12,.31,.16,.28,.93,.28,1.12s-.25,.56-.25,1-.44,.25-.47,.16c-.03-.09-.31-.62-.41-.9-.09-.28,.47-.16,.47-.03s.03,.28,.12,.31c.09,.03,.06-.16,.06-.47s-.44-.37-.59-.37-.25-.12-.56,.22c-.37-.09-1.53-.03-3.33,.65-2.9,1.06-4.05,2.27-4.14,2.52-.09,.25-.37,.62-.62,.65-1.46,.56-2.96,2.96-2.96,2.96-.78-.47-1.96-.03-1.96-.03-.56,.16-1.31,1.22-1.31,1.22-.87-.03-1.53,.19-1.78,.31-.25,.12-1.12,.9-1.22,1.28-.09,.37-.56,.12-.56,.12,0,0-.4-.31-.65-.59-.25-.28,0-.69,0-.69l.65-.84c.22-.22,.47,.19,.47,.19,.37,.22,.69-.28,.94-.47,.25-.19,2.65-2.24,3.24-2.77,.59-.53,1.99-1.5,2.71-1.84,1.99-.97,3.12-2.96,3.12-2.96,3.12,.69,5.72-5.12,5.72-5.12Zm-2.38-4.41c.94-1.19,1.81-1.05,2.27-.8,.91,.7,.7,2.96,.07,4.7-.66,1.85-1.78,3.24-2.86,4.32-1.08,1.08-2.37,1.19-2.51,1.05-.14-.14-.1-.66,0-.87,.1-.21,.24-.77,.24-.77,1.88,.42,3.49-2.23,3.66-2.54,.17-.31-.07-.31-.07-.31-1.01,1.78-2.44,2.58-3.03,2.65-.59,.07-.35-.59-.35-.59,.21-.56,.94-2.4,.94-2.4,.28,.42,.8-.04,.8-.04,.1,.35-.07,.7-.07,.7-.8-.17-1.01,.56-1.15,1.01-.14,.45,.31,.66,.66,.35,.87-.77,.79-1.89,.82-2.27,.03-.38-.09-.65-.44-.83-.35-.17,.03-.63,.21-.91,.17-.28,.56,.24,.66,.52,.1,.28,.03,.42,.17,.49,.14,.07,.24-.07,.21-.49-.03-.42-.63-.94-.63-.94-.1-.31,.38-.49,.38-.49,.49,.42,.56,.87,.59,1.43,.03,.56,.38,.28,.35-.07-.21-1.52-.8-1.6-.8-1.6l.66-.66c.38-.38,.77,.24,.84,.63,.07,.38,.31,.24,.38,.03,.07-.21-.04-.49-.38-.94-.35-.45-1.08-.03-1.19,.14-.1,.17-.73,.77-1.08,1.26-.35,.49-.52,.38-.35-.21,.17-.59,.98-1.53,.98-1.53Zm-1.43,3.94c.09-.82,.61-.21,.61-.03s-.3,.52-.49,.52-.12-.49-.12-.49Zm.18,1.92c-.15,.21-.46,.61-.61,.49-.15-.12,.33-.85,.33-.85,.09-.12,.24-.34,.43-.24,.18,.09,0,.4-.15,.61ZM17.2,7.35c2.73-4.56,6.15-5.94,6.88-6.24,3.6-1.48,8.26-.27,8.26-.27,5.52,1.63,8.07,6.45,8.54,9.14,.47,3.12-.03,5.13-.07,5.69-.05,.56-.62,3.26-.85,4.05-.23,.79-1.57,5.02-1.84,6.23-.28,1.21-1.22,2.42-2.06,3.26-.84,.84-2.98,1.72-4.37,2.14-1.49,.42-2.98,.47-3.54,.47s-3.41-.11-3.88-.43c-.46-.33-.87-.81-1.18-1.29-.1-.16-.26-.32-.31-.5-.02-.07-.06-.26,.06-.26,.04,0,.12,.14,.16,.16,.18,.12,.39,.2,.59,.27,.61,.21,1.25,.32,1.88,.41,.89,.13,1.79,.2,2.69,.2,2.37,.05,4-.42,5.3-.98,1.53-.7,1.56-3.06,1.3-3.44-.29-.43-.99-.6-1.9-.17-.76,.36-1.67,.6-3.16,.93-1.49,.33-2.79,.14-3.53,.05-.74-.09-2.7-.84-3.44-.79-.74,.05-.84,1.24-.84,1.24-.33-.37-1.07-.69-1.77-.46-.62,.2-1.21,1.16-1.21,1.16-.45-1.24-1.29-4.08-1.92-6.01-.64-1.93-1.43-5.45-1.46-6.73-.1-4.34,1.18-6.95,1.68-7.81Zm-3.96,11.68c.43-1.34,1.08-1.25,1.08-1.25,.91,0,1.31,.8,1.4,1.11,.09,.31,.51,2.14,.51,2.14,.29,.68,1.11,3.31,1.28,3.88,.17,.57,.68,1.8,.74,2.11,.06,.31-.13,.37-.65,.23-1.68-.71-2.92-1.91-3.66-3.31-.74-1.4-1.14-3.56-.71-4.9Zm-4.28,7.08s-.46-2.36,0-3.4c.47-1.04,2.4-2.22,3-2.61,0,0-.04-.21-.32-.07l-.39,.25s-.11-.14,.07-.29c.18-.14,1.32-1,1.68-1.22,0,0-.64,1.72,.07,3.65,0,0-.04,.18-.43-.04-.39-.22-1.29-.64-2.07-.5,0,0-.43-.07-1.11,.71-.25,.29,0,.43,.21,.18,.21-.25,.47-.79,1.36-.64,0,0-1.93,1.54-2.07,3.97Zm3.26,11.41c-.11-.3-.37-.37-.52-.41-.15-.04-.41-.41-.41-.41-.22-.33-.52-.99-.52-1.51s-.63-1.33-.74-1.55c-.11-.22-.26-.48-.4-1.33-.22-1.25,.15-3.24,.29-3.61,.15-.37,.33-.66,.11-.7-.22-.04-.18,.22-.18,.22-.07,.52-.29-.22-.29-.22-.26-.81-.33-1.62-.18-2.58,.15-1.51,1.88-2.98,1.88-2.98,.48-.37,1.51,.26,1.73,.33,.22,.07,.48,.63,.63,1.22,.15,.59,1.44,1.99,1.44,1.99-.15,0-.59,0-.55,.22,.04,.22,.26,.18,.44,.22,.18,.04,.26,0,.55,0s.26,.07,.81,.55c.55,.48,1.36,.52,1.36,.52,.67,.26,.88,.37,1.07,.55,.18,.18,.21,.48,.36,1,.15,.52-.14,.37-.32,.26-.18-.11-.7-.11-1.84-.18-1.14-.07-2.03,.11-2.43,.66-.32,.44-.4,.59-.18,.7,.22,.11,.44-.44,.44-.44,.59-.66,1.03-.55,1.69-.63,1.84-.07,2.76,.29,3.02,.74,.26,.44,.29,.85,.11,.92-.18,.07-.33,.11-.7-.44-.37-.55-1.25-.99-1.73-.96-.48,.04-1.26,.41-1.44,1.4-.15,.81,.55,1.58,.55,1.58-.44,.37-.59,1.1-.59,1.1-.92-.07-1.58,.96-1.55,1.84,.04,.88,1.03,1.69,1.03,1.69-.46,.08-.58,.63-.65,1.14-.13,.95,.97,1.73,1.52,1.95,.55,.22,.94,.84,.94,.84-2.76-.11-4.64-3.42-4.75-3.72Zm1.05,28.41c.13,.07,.2,.2-.13,.4-.56,.3-2.01,.36-2.44,.36s-2.7,.1-3,.1-1.48,.26-1.81,.26-2.21,.13-2.57,.13-2.01,0-2.57-.2c-.56-.2-.53-.46-.4-.56,.13-.1,.4,.1,.4,.1,1.15,.49,4.85,0,5.77-.03,.92-.03,4.65-.33,5.31-.23,.66,.1,1.32-.39,1.45-.33Zm-.13-2.34c.16,.43-.1,.66-.1,.66,0,0-.99,.26-1.28,.26s-4.25,.5-4.75,.53c-.5,.03-.79-.16-1.02-.33-.23-.16-.82-.66-1.15-.96-.33-.3,.23-.4,.23-.4,0,0,.43-.1,.79-.26,.36-.17,.79-.17,1.19,.16,.4,.33,1.12,.33,2.01,.33s2.97-.46,3.3-.56c.33-.1,.63,.13,.79,.56Zm10.06-13.95c-.18,1.47-.3,4.68-.25,5.39,0,0-8.93-.68-12.04-1.64,0,0,.53,.78,7.54,1.8,2.78,.38,3.59,.48,3.87,.53,.28,.05,.61,.13,.78,.13l.1,.94s-6.37,2.83-14.29,.15c0,0-.66-.38-.81-.25-.15,.13,.03,.2,.33,.3,.3,.1,.66,.3,.96,.38,.3,.08,1.19,.35,1.54,.48,0,0-.15,.25-.58,.33-.43,.08-.83,.13-1.06,.23-.23,.1-.68,.1-.43-.13,.2-.13,.2-.18,.33-.18s.02-.35-.38-.05c-.4,.3-.18,.71,.13,.68,.3-.03,.78-.28,.96-.28s.91-.28,1.16-.28,.68-.18,1.26-.1c.58,.08,1.44,.23,1.59,.25,.15,.03-2.68,2.58-6.45,3.36,0,0-.35-.05-.38,.1-.03,.15,.38,.18,1.37-.08,.99-.25,4.17-1.39,5.89-3.41l.71,.03s.35,2.81-3.25,4.07c-2.05,.58-4.59,.66-5.38,.38-.78-.28-4.45-2.1-4.81-3.69-.3-1.24-.13-2.76-.13-3.01,0,0,1.37,3.21,3.04,4.38,.25,.28,.48,.35,.63,.28,.15-.08-.13-.23-.35-.43-.23-.2-3.39-3.62-3.36-5.82,.03-2.1,.13-5.34,4.02-7.41,0,0,2.83-1.47,6.12-2.15,2.3-.43,2.93-.1,3.9,.61,.96,.71,2.83,2.28,3.46,2.96,.63,.68,2.86,3.34,3.34,4.02,0,0,.25,.48,.4,.38,.15-.1-.03-.4-.23-.61-.2-.2-4.6-6.45-8.57-7.92-.25-.09-.25-.23-.13-.33,.13-.1,.48-.13,.83,.05,.35,.18,3.64,1.75,6.47,5.34,.28,.48,.43,.48,.48,.35,.05-.13-.76-1.19-1.42-1.85-.66-.66-1.97-2.15-4.91-3.87,0,0-.63-.1-.35-.53,.28-.43,.89-1.57,1.87-1.85,0,0-.03,1.14,.61,1.54l-.61,.68s-.28,.2-.08,.4c.2,.2,.3-.15,.38-.28,.08-.13,.56-.58,.56-.58,0,0,1.16,.94,2.78,1.21,0,0-.33,.71-.46,.96-.13,.25-.25,.53-.05,.58,.2,.05,.33-.33,.4-.53,.08-.2,.28-.68,.28-.68,0,0,.08-.28,.48-.25,.4,.03,1.19,.25,1.37,.25s.58,.03,.38,.46c-.2,.43-.56,.96-.58,1.44-.03,.48-.05,.73,.13,.73s.38-.33,.56-.86c.18-.53,.56-1.42,.76-1.42s.63,.05,.63,.25-.91,2.58-1.09,4.05Zm4.84,9.69c-2.71-.2-3.93,.17-3.93,.17-2.03-7.04,.44-13.54,.44-13.54,.12-.13,.15,.06,.15,.06-1.15,1.71,1.03,3.26,1.03,3.26-.98,5.01,2.3,10.05,2.3,10.05Zm15.01,4.45c-1.58-.31-4.53-2.29-5.02-2.67,0,0-1.02-.56-.25-.4,.77,.16,4.19,.81,6.23,.96,1.15,.16,1.64,.25,1.64,.12s-.37-.37-.84-.37-4.93-.46-7.25-.99c-1.09-.22-1.33-.34-1.7-.4-.37-.06-1.49-.34-1.83-.56-.34-.22-3.81-2.17-4.43-2.54,0,0-.37-.4,.31-.12,.68,.28,4.99,1.3,5.8,1.43,.81,.12,2.76,.37,3.29,.37s1.21-.03,1.21-.19-.31-.25-.99-.31c-.68-.06-2.73-.34-3.13-.34s-4.28-.71-4.84-.87c-.56-.15-1.52-.46-1.95-.56-.43-.09-.56-.28-1.09-.28h-1.27s-1.46-4.28-.96-6.73c0,0,.81-.09,.99-.09s.62-.19,.59,.37c-.03,.56-.15,4.37,.65,6.08,0,0,.43-.59,1.05-5.52,0,0,1.3,.09,1.43-1.74,0,0,1.12,1.05,2.02,.9,.9-.16,1.3-.78,1.52-1.09,0,0,1.92,1.92,2.17,2.2,0,0-3.16,2.54-6.14,3.91,0,0-.5,.15-.4,.37,.09,.22,4.87-2.23,6.73-4.12,0,0,.81,1.05,1.05,1.36,0,0-7.04,3.29-8.19,3.47,0,0-.77,.09-.77,.28s.77,.06,1.18-.09c.4-.16,5.95-2.23,7.94-3.44,0,0,4,5.15,3.47,8.68,0,0,.25,.19,.9-.28,.65-.47,1.86-1.49,2.17-1.67,0,0,1.83-.16,3.19-.87,0,0,.06-.28-.37-.12-.43,.15-1.92,.77-2.39,.56,0,0,1.18-4.78-6.23-9.46,0,0,2.7-2.51,2.67-4.31-.06-.46,.06-.59,.4-.59s1.4-.06,1.36,.71c-.03,.53-.09,1.12-.81,1.8-.71,.68-1.61,1.64-1.77,1.77-.16,.12-.5,.34-.4,.47,.09,.12,1.33-.87,1.61-1.24,.28-.37,1.15-1.27,1.4-1.74,0,0,.06-.4,.77,.06,.71,.47,4.25,3.04,4.81,3.6,.56,.56,1.74,2.29,1.8,3.5,.06,1.21,.09,3.16-.09,4.06-.19,.9-.34,2.29-.84,3.13,0,0-.65,.31-1.09,.53-.43,.22-1.4,.5-1.61,.53-.22,.03-.47,.09-.47,.25s.22,.09,.5,.06c.28-.03,1.43-.47,1.61-.53,.19-.06,1.05-.68,1.02-.43-.03,.25-.25,.71-.37,.93-.12,.22-.28,.47-.15,.56,.12,.09,.59-.75,.71-1.09,.12-.34,1.61-4.15,1.12-7.72-.08-.58-.46-2.33-1.33-3.41-.19-.24-.22-.34,.19-.25,.4,.09,1.36,.68,1.89,1.77,.53,1.08,1.27,2.76,1.33,3.13,.06,.37,.56,1.49,.4,2.61-.15,1.12-1.92,5.12-3.1,5.64,0,0-.9,.44-1.77,.59-.87,.15-3.69,.68-5.27,.37Zm16.65,2.1c-.35,.22-1.58,.58-2.77,.61-1.42,.16-3.38-.32-4.67-.48-1.29-.16-3.7-.26-4.15-.26s-1.06-.19-1.32-.29c-.26-.1-.48-.1-.39-.32,.1-.23,.48,0,.48,0,.74,.32,2.86,.35,3.41,.35s2.57,.19,2.86,.29c.29,.1,2.25,.39,3.28,.42,1.03,.03,3.06-.42,3.31-.71,.26-.29,.48-.23,.48-.23,0,0-.19,.39-.55,.61ZM15.4,24.32c-.09-.1-.16-.19-.16-.32s-.1-.16-.1-.16c-.25,.06,0,.6,.47,1.17,.76,.88,1.45,1.04,1.61,1.04s.54,.06,.54-.06-.16-.16-.54-.19c-1.07-.28-1.83-1.48-1.83-1.48Zm13.44-1.88c.43,0,.68,.43,.78,.57,.11,.14,.78,.43,1.18-.21,.39-.64,.03-1.28-.39-1.68,0,0,2.57-2.32,3.46-3,.89-.68,2.53-1.5,3.1-.64,.57,.86,.7,2.98-.28,4.67-.54,.69-.61,.82-.5,.86,.11,.04,.95-1.06,1.27-1.92,.32-.86,.64-3.22-.77-4.15,0,0,1.07-.11,1.18,.11,.11,.21,.75,0,.93-.57,.18-.57,.82-2.14-.89-2.1-.54,.01-1.07,.22-1.55,.45-.72,.35-1.38,.81-2.02,1.3-.85,.66-1.65,1.39-2.41,2.15-.45,.44-.88,.89-1.31,1.36-.23,.25-.46,.5-.68,.75-.21,.24-.48,.47-.64,.75-.07,.12-.17,.52-.39,.45-.21-.07-.53-.64-.61-.14-.07,.5,.11,1,.54,1Zm6.71,.93c-.89,0-2.57,.68-2.82,.86-.25,.18-.21,.32,.04,.21,.25-.11,.54-.18,.54-.18,2.15-.65,2.72-.28,3.11-.28s.95,.04,.95,.04c.07-.29-.93-.64-1.82-.64Zm-11.8,15.05c.2,.16,.24,.24,.36,.12,.12-.12-.2-.32-.2-.32-.45-.28-.85-1.13-.85-2.11s.77-2.15,.77-2.15c.66-.83,.05-.67-.11-.39-.16,.28-.98,1.61-.9,2.82,.08,1.22,.73,1.86,.93,2.03Zm4.97-1.26s-.38,.3-.07,.73c.31,.43,.78,.59,1.13,.2,.27-.27,.16-.63-.08-.86-.24-.23-.64-.43-.99-.07Zm.85,.84c-.29,.16-.67-.04-.81-.27-.14-.23,.16-.49,.16-.49,.22-.18,.63,.07,.72,.22,.09,.14,.22,.38-.07,.54ZM18.03,15.76s.08-.07,.13-.12c.05-.05,.1-.09,.15-.13,.09-.07,.2-.12,.31-.14,.22-.05,.44-.01,.65,.06,.29,.11,.54,.28,.78,.48,.03,.03,.29,.32,.32,.31-1.06,.27-1.74,1.56-1.66,3.5,.07,1.63,1.23,3.21,1.49,3.38,.27,.17,.47,0,.17-.27-.3-.27-.57-.5-.87-1.13-1.16-2.36-.07-4.46,.47-5.02,.53-.57,1.36,.27,1.36,.27l4.49,4.32c-.83,.43-.3,1.96,.33,2.06,.63,.1,.86-.5,.9-1.13,0-.14,.05-.32,.21-.19,.1,.08,.2,.37,.37,.32,.12-.04,.17-.25,.2-.35,.07-.26,.09-.54,.09-.81s-.23-.2-.43,.1c-.2,.3-.7-.07-1.26-.7-.83-1.06-4.52-5.82-4.96-6.32-.43-.5-1.33-2-2.46-1.83-1.13,.17-1.33,1.93-1.3,2.66,0,.2,.06,.43,.22,.58,.05,.04,.1,.08,.16,.1,.06,.02,.1,.02,.14,0Zm3.14,8.32c-.57,.07-1.32,.39-1.39,.71,0,0,1.9-.77,3.25-.21,0,0,.61,.14,.21-.25-.39-.39-1.5-.32-2.07-.25Zm10.24,17.51c-.47,.53-1.23,1.1-1.35,1.29-.13,.19-.47,.63-.88,.82-.41,.19-.63,.31-.88,.38-.25,.06-1.76,.54-2.39,1.07l.06-.06s-.41,.38-.28,.44c.13,.06,.31-.13,.5-.25,.19-.13,1.29-.82,1.79-.82s1.45-.63,1.57-.72c.13-.09,1.51-1.13,1.92-1.54,.41-.41,.69-.6,.44-.88,0,0-.03-.25-.5,.28Z"/><path class="cls-16" d="M32.74,37.24s1.67,.99,1.85,2.15c-.4-.63-.83-1.04-1.85-2.15Z"/><path class="cls-16" d="M32.18,37.36s1.01,.4,1.59,1.44c-.56-.48-1.29-1.37-1.59-1.44Z"/></svg>