<?xml version="1.0" encoding="UTF-8"?><svg id="Capa_1" xmlns="http://www.w3.org/2000/svg" viewBox="0 0 52.88 13.78"><defs><style>.cls-1{fill:#e99c23;}.cls-2{fill:#ffe114;}.cls-3{fill:#cc081f;}.cls-4{fill:#cc0921;}</style></defs><g id="layer3"><g id="g3039"><g id="g3032"><g id="path3967"><path d="M52.83,.02s-.03,0-.06,0l-12.7,.06c-.13,0-.16-.01-.19,.12l-2.11,9.04c-.03,.14-.04,.15,.06,.04l3.3-3.33c.08-.08,.08-.1,.14,.01l.51,.9c.05,.09,.04,.1-.02,.18l-5.52,6.63c-.06,.07-.07,.07,.03,.07l11.99,.02c.08,0,.09,0,.12-.08l2.86-9.19c.05-.16,.06-.17-.06-.05l-3.76,3.39c-.05,.05-.05,.05-.08-.02l-.25-.55c-.03-.06-.03-.07,.02-.13L52.82,.09c.05-.06,.06-.07,.01-.07Zm-8.63,4.15s.03,0-.01,.05l-.69,.79s-.04,.04-.1,.04h-1.28c-.08-.02-.1,0-.03-.07l.7-.75s.05-.05,.11-.05h1.25s.03-.01,.04-.01h0Zm1.56,4.63s.03,0,.05,0l.46,.02c.1,0,.1,0,.02,.07l-.82,.7c-.06,.05-.08,.05-.15,.05h-.27c-.08-.02-.09-.01-.03-.07l.64-.7s.06-.06,.1-.06h0Z"/><path d="M48.25,13.78h0l-11.99-.02c-.06,0-.08,0-.09-.02,0-.02,0-.03,.03-.06,0,0,.01-.01,.02-.02l5.52-6.63h0c.06-.08,.06-.08,.02-.16l-.51-.9s-.04-.07-.05-.07c0,0-.02,.02-.04,.04,0,0-.01,.01-.02,.02l-3.3,3.33c-.07,.07-.08,.08-.1,.07-.02-.01-.01-.03,0-.1v-.03S39.87,.2,39.87,.2c.03-.13,.06-.13,.18-.13h.03L52.77,0s.03,0,.04,0c0,0,.01,0,.02,0h0s.04,0,.05,.02c0,.02,0,.04-.04,.08l-5.72,7.05s-.04,.05-.02,.1l.26,.57s0,.02,.01,.02c0,0,.01-.01,.02-.02h0s3.76-3.4,3.76-3.4c.08-.08,.1-.09,.12-.08,.02,.01,.01,.03-.01,.11v.04s-2.88,9.19-2.88,9.19c-.03,.09-.04,.1-.13,.1Zm-11.99-.05l11.99,.02h0c.07,0,.07,0,.09-.07l2.86-9.19v-.04s.02-.04,.03-.05c-.02,.01-.04,.04-.06,.06l-3.77,3.4s-.04,.03-.06,.03c-.02,0-.02-.02-.04-.05h0s-.25-.57-.25-.57c-.03-.06-.03-.08,.02-.14L52.81,.08s.02-.03,.03-.04c0,0,0,0,0,0h0s-.01,0-.02,0c-.01,0-.03,0-.04,0l-12.7,.06h-.03c-.1,0-.11,0-.14,.11l-2.12,9.07s0,.03,0,.04c.01-.01,.03-.03,.04-.04h0s3.3-3.33,3.3-3.33c0,0,.02-.02,.02-.02,.03-.03,.05-.05,.07-.05,.03,0,.04,.03,.07,.09l.51,.9c.05,.1,.04,.12-.02,.19h0s-5.52,6.64-5.52,6.64c0,0-.01,.02-.02,.02,0,0-.01,.01-.01,.02,.01,0,.03,0,.04,0Zm9.08-4.07s-.02,0-.03,0h-.28s-.06-.02-.07-.03c0-.02,0-.03,.04-.07h0s.64-.71,.64-.71c.04-.05,.07-.06,.12-.07h0s.03,0,.04,0l.47,.02c.06,0,.08,0,.08,.02,0,.02,0,.03-.06,.07h0s-.82,.7-.82,.7c-.05,.04-.08,.05-.13,.05Zm-.34-.05s.02,0,.03,0h.02s.27,.01,.27,.01c.07,0,.09,0,.14-.04l.82-.7s.03-.02,.04-.03c-.01,0-.02,0-.04,0h-.01s-.46-.02-.46-.02c-.02,0-.03,0-.04,0h0s-.05,.01-.09,.05l-.64,.71s-.01,.02-.02,.02Zm-1.59-4.54s0,0-.01,0h-1.28s-.02-.01-.03-.01c-.03,0-.05,0-.06-.02,0-.02,0-.03,.04-.07l.7-.75s.06-.06,.13-.06h1.24s.02-.01,.02-.01c0,0,.01,0,.02,0,.01,0,.03,0,.04,.02,0,.02,0,.03-.04,.07l-.69,.79s-.05,.04-.1,.04Zm-1.3-.05s0,0,0,0h1.28c.05,.02,.05,.01,.08-.02l.69-.79s.01-.01,.02-.02c0,0,0,0-.01,0,0,0-.02,0-.03,0h-1.25c-.06,0-.06,.02-.1,.05l-.7,.75s-.02,.02-.02,.03c0,0,0,0,0,0,0,0,.02,0,.02,0Z"/></g><g id="path3836"><path class="cls-4" d="M40.54,.71l10.83-.02c.11,0,.11,0,.04,.07l-5.1,6.23c-.05,.07-.04,.07-.02,.14l.35,.9c.03,.08,.03,.08-.06,.08h-1.13c-.07,.01-.08,.02-.12,.07l-1.56,1.97c-.07,.08-.06,.07,.04,.07l1.7,.04c.08,0,.1,0,.15-.05l4.3-3.84c.08-.07,.09-.1,.05,.02l-2.11,6.64c-.02,.08-.03,.08-.11,.08h-10.12c-.13,0-.13,.01-.05-.08l4.93-5.92c.06-.07,.06-.07,.02-.14l-.58-1.08c-.06-.12-.07-.11,.06-.11l1.58-.03c.1,0,.12,0,.18-.08l1.69-2.08c.06-.08,.06-.07-.04-.07h-2.87c-.12,.01-.13,.03-.19,.1l-3.37,3.49c-.15,.16-.12,.14-.07-.05l1.43-6.27c.02-.1,.03-.09,.13-.09h0Z"/><path class="cls-4" d="M37.64,13.14s-.06,0-.06-.02c0-.02,0-.03,.04-.08l.02-.02,4.93-5.92q.05-.06,.02-.11h0s-.59-1.12-.59-1.12c-.02-.05-.03-.07-.02-.09,.01-.02,.03-.02,.09-.02h.03s1.58-.03,1.58-.03c.1,0,.11,0,.16-.07l1.7-2.09s.02-.02,.03-.03c0,0-.02,0-.04,0h-.02s-2.87,.01-2.87,.01c-.1,0-.11,.01-.17,.07l-.02,.02-3.37,3.49-.03,.03c-.07,.07-.08,.09-.1,.08-.02,0-.01-.03,0-.09,0-.02,.01-.05,.02-.09l1.43-6.27c.02-.1,.04-.1,.12-.1h.02s10.83-.02,10.83-.02h.02s.07,0,.08,.02c0,.02,0,.04-.05,.09l-5.1,6.23s-.04,.05-.02,.09c0,0,0,.02,0,.03l.35,.9s.03,.07,.02,.09c-.01,.02-.03,.02-.07,.02h-.02s-1.13,.01-1.13,.01c-.07,0-.07,0-.11,.05l-1.56,1.97s-.03,.03-.03,.04c0,0,.02,0,.03,0h.03s1.7,.04,1.7,.04c.08,0,.09,0,.14-.04l4.3-3.84s.03-.02,.04-.03c.03-.03,.05-.04,.06-.03,.02,.01,.01,.02-.01,.1l-2.11,6.64c-.03,.09-.04,.09-.12,.09h-10.15s-.01,0-.02,0Zm-.02-.04s.03,0,.04,0h.03s10.12,0,10.12,0h0c.06,0,.06,0,.08-.07l2.11-6.64s0-.02,0-.03c0,0-.02,.02-.03,.03l-4.3,3.84c-.06,.05-.09,.05-.17,.05l-1.72-.04s-.06,0-.07-.02c0-.02,0-.04,.04-.08l1.56-1.97c.04-.05,.06-.06,.14-.06h1.14s.04-.01,.04-.01c0-.01-.01-.04-.02-.05l-.36-.91s0-.02,0-.03c-.02-.05-.02-.07,.03-.13L51.4,.76s.03-.03,.04-.05c0,0-.02,0-.04,0h-.02s-10.83,.02-10.83,.02h-.02c-.07,0-.07,0-.09,.07l-1.43,6.27s-.02,.06-.02,.09c0,0,0,.01,0,.02,.01-.01,.02-.03,.04-.04l.03-.03,3.39-3.5c.06-.06,.08-.08,.19-.08h2.89s.07-.02,.08,0c0,.02,0,.03-.04,.08h0s-1.69,2.09-1.69,2.09c-.06,.08-.09,.09-.19,.09l-1.61,.03s-.04,0-.05,0c0,0,.01,.03,.02,.05l.02,.03,.59,1.09c.04,.07,.04,.08-.03,.15l-4.95,5.94s-.02,.03-.03,.03Z"/></g></g><g id="g3015"><g id="path3944"><path d="M.51,.42c-.14,0-.29,0-.43,.02-.07,0-.07,0-.06,.08L.81,5.89c.02,.08,.01,.07,.09,.09l.26,.05c.07,.01,.08,.02,.1,.1l1.06,6.48c.02,.13,.04,.14,.15,.13,.4-.03,1.09-.38,1.86-.81,.11-.06,.14-.1,.07,.03l-.18,.34c-.03,.06-.03,.06,.03,.07,.91,.18,1.95,.16,2.93,.24,.08,0,.08,0,.1-.07l.06-.25c.02-.11,.02-.09,.07,0l.27,.57c.03,.07,.04,.05,.1,.03l2.77-1.01c.09-.03,.08-.03,.04-.11l-.23-.44c-.04-.08-.05-.07,.03-.09h.1c.07-.02,.08-.02,.09-.09l.08-.39c.03-.15,.02-.14,.05,0l.3,1.63c.02,.11,.02,.1,.12,.08l1.12-.18c.08-.02,.09,0,.14,.03,1.4,1.03,2.82,.98,4.29-.39,.05-.04,.06-.03,.11,0,.17,.07,.36,.1,.57,.12,.08,0,.08,0,.07,.07l-.05,.83c0,.07,0,.06,.07,.06h3.11c.07-.01,.07-.02,.07-.09l.08-.51c.02-.1,.01-.08,.06,0l.3,.52c.04,.06,.05,.06,.11,.06h2.13c.11,.01,.1,.02,.1-.09l.06-2.29c0-.18,0-.25,.01-.26,0,.01,0,.11,.02,.26l.15,2.06c0,.1,.02,.11,.09,.13,1,.25,1.74,.12,2.47,.02,.08,0,.06,.03,.11,.03l2.3,.19c.11,0,.1,.02,.12-.08l.22-1.49c.02-.15,.02-.15,.04,0l.18,1.29c.01,.1,.02,.09,.11,.07l2.72-.41c.09-.02,.08-.01,.07-.09l-.09-.41c-.02-.07,0-.07,.06-.08l.39-.08c.07-.02,.07-.02,.07,.05v.16s0,.05,0,.08l-.08,.67c-.01,.1-.01,.09,.08,.09l3.87-.11c.12,0,.12,0,.14-.11l.86-4.24c.02-.1,0-.08-.08-.06l-1.54,.37c-.1,.03-.11,.04-.09-.06l1.16-6.52c.01-.09,0-.07-.08-.05l-2.72,.66c-.08,.02-.08,.03-.09,.1l-.81,5.02c-.01,.05,0,.07-.05,.07h-.07c-.05,0-.04-.02-.04-.07l.33-4.81c0-.09,0-.09-.08-.07l-2.49,.48c-.09,.02-.09,.01-.09,.09l-.06,.75c0,.14,0,.13-.04,0l-.17-.68c-.02-.08-.02-.07-.09-.06l-2.64,.3c-.07,0-.07,.01-.09,.08l-.11,.52c-.02,.08-.02,.07-.07,.03-1.21-.74-2.71-.39-4.16-.2-.05,0-.1,.01-.15,0l-1.94-.03c-.09,0-.09-.01-.1,.07l-.05,1.07c0,.15,0,.11-.07,0l-.6-1.12c-.03-.05-.04-.05-.1-.05l-1.8-.06c-.09,0-.09,0-.1,.07l-.3,2.23c0,.08-.01,.07-.09,.07l-.2-.02c-.08-.01-.08,0-.07-.08l.09-1.1c0-.06,0-.1-.03-.14-1.37-2.17-4.12-1.82-5.58-.69-.08,.06-.08,.06-.1-.04l-.27-.92c-.03-.1-.03-.1-.12-.12l-2.51-.49c-.08-.02-.08-.02-.09,.05l-.03,.13c-.02,.09-.02,.07-.07,.02-1.07-1.04-2.31-1.67-3.92-1.46-.09,.01-.09,.02-.09,.1l-.04,.54c0,.11,0,.12-.08,.05C3.34,1.05,1.9,.42,.51,.42ZM3.67,6.59s.03,0,.06,.02c.35,.18,.34,.7,.13,.86-.06,.05-.08,.05-.09-.05l-.1-.77c0-.05,0-.07,0-.07Z"/><path d="M28.71,13.05s-.02,0-.04,0h-.03s-2.3-.19-2.3-.19c-.03,0-.04-.01-.05-.02-.01,0-.02-.02-.06-.01l-.12,.02c-.69,.1-1.4,.2-2.36-.04-.09-.02-.1-.04-.11-.15l-.15-2.04-.06,2.29c0,.1-.02,.1-.12,.1h-2.14c-.07-.01-.08-.02-.13-.08l-.3-.52s-.01-.02-.02-.03c0,0,0,0,0,.01v.02s-.08,.52-.08,.52c0,.06-.02,.07-.09,.07h-3.11s-.01,.02-.02,.02c-.03,0-.05,0-.06-.01-.01-.01-.01-.04-.01-.07l.05-.83s0-.04,0-.04c0,0-.02,0-.03,0,0,0-.02,0-.03,0-.23-.02-.41-.06-.57-.12h-.01s-.05-.03-.08,0c-.72,.68-1.45,1.05-2.18,1.1-.7,.05-1.42-.18-2.13-.71-.05-.03-.06-.04-.12-.03l-1.15,.19s-.07,.01-.09,0c-.02-.02-.03-.05-.03-.1l-.31-1.66s0,0,0,0c0,0,0,.01,0,.02v.02s-.08,.39-.08,.39c-.01,.08-.02,.08-.1,.09h-.01s-.11,.01-.11,.01c-.01,0-.03,0-.03,0,0,0,0,.01,0,.02,0,0,.01,.02,.02,.04l.24,.46s.03,.05,.02,.07c0,.02-.03,.03-.08,.05l-2.77,1.01s-.01,0-.02,0c-.05,.02-.07,.02-.1-.05l-.29-.6s0-.02-.01-.03c0,.01,0,.03-.01,.05l-.06,.25c-.02,.08-.03,.09-.11,.08h-.01c-.31-.02-.64-.04-.95-.05-.67-.03-1.36-.06-1.98-.18h0s-.05-.01-.06-.03c0-.02,0-.04,.02-.07l.18-.34s.02-.03,.03-.05c0,0,0,0,0,0-.02,0-.04,.02-.06,.03-.68,.38-1.44,.78-1.87,.81-.12,0-.15,0-.17-.14L1.24,6.12c-.01-.07-.01-.07-.08-.09l-.26-.05c-.07-.01-.08-.02-.09-.1L0,.52s0-.05,0-.07c.01-.02,.03-.02,.07-.02h0c.14-.01,.29-.02,.43-.02v.02s0-.02,0-.02c0,0,.02,0,.03,0,1.4,0,2.85,.65,4.31,1.95,.01,.01,.04,.03,.05,.04,0-.01,0-.04,0-.07l.04-.54c0-.09,.01-.11,.11-.12,1.46-.2,2.71,.27,3.94,1.46,0,0,.01,.01,.02,.02,0,0,0,0,.01,.01,0,0,0-.02,0-.04l.03-.13s.01-.06,.03-.07c.02-.01,.03,0,.07,0h.01s2.51,.49,2.51,.49c.1,.02,.11,.03,.14,.13l.27,.93s.01,.05,.02,.06c0,0,.02-.02,.05-.04h0c.91-.71,2.22-1.04,3.34-.85,.96,.17,1.74,.7,2.27,1.54,.03,.05,.04,.09,.04,.16l-.09,1.1s0,.04,0,.05c0,0,.02,0,.04,0h.02s.21,.02,.21,.02c.05,0,.05,0,.06-.05l.3-2.23c.01-.08,.02-.09,.1-.09h.02s1.81,.06,1.81,.06c.05,0,.07,0,.1,.06l.62,1.15s0,.02,.01,.03c0-.02,0-.04,0-.05l.05-1.07s0-.06,.02-.08c.01-.01,.04-.01,.07-.01,0,0,.02,0,.03,0l1.94,.03c.05,0,.1,0,.15,0,.19-.03,.39-.05,.58-.08,1.25-.18,2.54-.37,3.59,.28h.02s.02,.02,.02,.02c0,0,0-.02,.01-.04l.11-.52c.01-.07,.02-.08,.1-.09l2.64-.3s.02,0,.02,0c.06,0,.07,0,.09,.08l.17,.7s0,0,0,0h0s.06-.76,.06-.76c0-.08,.01-.09,.09-.1h.02s2.5-.49,2.5-.49c.04,0,.06-.01,.07,0,.02,.01,.01,.03,.01,.08h0s-.33,4.82-.33,4.82c0,0,0,.02,0,.03,0,0,0,.02,0,.02,0,0,0,0,.02,0h.07s.03,0,.03-.03c0,0,0-.02,0-.03l.81-5.02c.01-.08,.02-.09,.11-.11l2.72-.66s.02,0,.03,0c.03,0,.05-.01,.06,0,.01,.01,.01,.04,0,.08l-1.16,6.52s0,.05,0,.06c0,0,.02,0,.04,0,.01,0,.02,0,.04,0l1.54-.37s.03,0,.04,0c.03,0,.05-.01,.06,0,.02,.01,.01,.04,0,.09l-.86,4.25c-.02,.11-.03,.12-.15,.12h0s-3.87,.11-3.87,.11c-.05,0-.07,0-.09-.01-.02-.02-.01-.04,0-.09h0s.08-.68,.08-.68c0-.03,0-.05,0-.08v-.17s-.01-.04-.01-.04h0s-.02,0-.04,0h0s-.41,.08-.41,.08c-.02,0-.04,0-.04,.01,0,0,0,.04,0,.05l.09,.43s.01,.06,0,.07c-.01,.02-.03,.02-.07,.03h-.01s-2.75,.42-2.75,.42c-.04,0-.06,.01-.08,0-.02-.01-.02-.04-.03-.09l-.18-1.3h0s-.22,1.51-.22,1.51c-.01,.07-.02,.09-.07,.09Zm-2.45-.26s.05,0,.06,.02c0,0,.01,.01,.03,.01l2.33,.19s.05,0,.06,0c0,0,0-.03,.01-.06h0s.22-1.52,.22-1.52c.01-.1,.01-.11,.04-.11h0s.02,0,.03,.1l.18,1.32s0,.06,.01,.06c0,0,.03,0,.05,0h.03s2.72-.41,2.72-.41h.01s.05-.01,.05-.01c0,0,0-.02,0-.04l-.09-.43s-.01-.06,0-.07c.01-.02,.03-.02,.06-.03l.41-.08s.06-.01,.08,0c.02,.01,.02,.03,.02,.07v.17s0,.06,0,.08l-.08,.68s0,.06,0,.06c0,0,.03,0,.06,0h0s3.87-.11,3.87-.11q.1,0,.11-.09h0s.86-4.25,.86-4.25c0-.01,0-.04,0-.05,0,0-.02,0-.03,0s-.02,0-.04,0l-1.54,.37s-.03,0-.04,0c-.04,.01-.06,.02-.07,0-.02-.01-.01-.04,0-.09l1.16-6.52s0-.04,0-.04c0,0-.02,0-.03,0-.01,0-.02,0-.04,0l-2.72,.66q-.07,.02-.08,.08h0s-.81,5.02-.81,5.02c0,.01,0,.02,0,.03,0,.04-.01,.05-.06,.06h-.07s-.04,0-.05,0c-.01-.01-.01-.03,0-.05,0,0,0-.02,0-.03l.33-4.82s0-.04,0-.05c0,0-.02,0-.04,0h-.02s-2.51,.49-2.51,.49q-.05,.01-.06,.07l-.06,.76c0,.11,0,.11-.03,.11-.02,0-.02,0-.04-.09l-.18-.71c-.01-.06-.01-.06-.05-.05,0,0-.01,0-.02,0l-2.64,.3q-.06,0-.07,.06h0s-.11,.52-.11,.52c0,.04-.01,.06-.03,.07-.02,0-.03,0-.06-.02h-.01c-1.05-.65-2.33-.47-3.57-.29-.19,.03-.38,.06-.58,.08-.05,.01-.1,.01-.15,0l-1.94-.03s-.02,0-.03,0c-.02,0-.04,0-.04,0,0,0,0,.04,0,.05l-.05,1.07c0,.08,0,.11-.02,.12-.02,0-.03-.01-.06-.07l-.02-.03-.6-1.12s-.03-.04-.07-.04l-1.83-.06q-.05,0-.06,.06l-.3,2.23c0,.08-.02,.09-.1,.08l-.24-.02c-.07,0-.07-.02-.07-.09l.09-1.1c0-.06,0-.09-.03-.13-.53-.83-1.3-1.36-2.25-1.52-1.1-.19-2.4,.14-3.31,.84h0s-.06,.05-.08,.04c-.02,0-.03-.03-.04-.08l-.27-.93q-.02-.09-.11-.11l-2.53-.49s-.04,0-.04,0c0,0,0,.02-.01,.04l-.03,.13s-.02,.07-.03,.07c-.02,0-.03,0-.05-.03,0,0-.01-.01-.02-.02-1.21-1.18-2.46-1.65-3.91-1.45q-.07,.01-.08,.09l-.04,.54c0,.07,0,.1-.03,.11-.02,0-.05-.01-.09-.05C3.37,1.09,1.93,.44,.54,.44c0,0-.02,0-.03,0-.14,0-.29,0-.43,.02-.02,0-.04,0-.05,0,0,0,0,.02,0,.04h0S.83,5.88,.83,5.88q.01,.06,.06,.07l.26,.05c.08,.02,.1,.03,.11,.12l1.06,6.48c.02,.12,.03,.12,.13,.11,.43-.04,1.18-.43,1.86-.81,.02-.01,.04-.02,.06-.03,.04-.02,.06-.03,.07-.02,.02,.02,0,.04-.03,.11l-.18,.34s-.01,.03-.02,.04c0,0,.02,0,.03,0h0c.62,.12,1.31,.15,1.98,.18,.31,.01,.64,.03,.95,.05h.01q.06,0,.07-.06l.06-.25c.01-.06,.02-.09,.04-.09,.02,0,.03,.02,.05,.06v.02s.29,.57,.29,.57t.05,.03s.01,0,.02,0l2.77-1.01s.05-.02,.06-.03c0,0,0-.02-.02-.04v-.02s-.24-.44-.24-.44c0-.02-.01-.03-.02-.04-.01-.02-.02-.04-.01-.05,0-.02,.03-.02,.07-.02h.11q.06-.02,.07-.08l.08-.41c.02-.1,.02-.11,.04-.11h0s.02,.01,.04,.1v.03s.31,1.63,.31,1.63c0,.03,.01,.07,.02,.07,0,0,.03,0,.06,0h.03s1.12-.19,1.12-.19c.08-.02,.1,0,.15,.03,.7,.52,1.41,.76,2.11,.7,.72-.06,1.44-.42,2.16-1.09,.05-.05,.08-.04,.12-.02h.01c.15,.07,.34,.11,.56,.12,0,0,.02,0,.03,0,.06,0,.07,.02,.07,.09l-.05,.83s0,.04,0,.04c0,0,.02,0,.03,0,0,0,.01,0,.02,0h3.11s.05-.01,.05-.05v-.02s.08-.53,.08-.53c0-.05,.01-.06,.03-.07,.02,0,.02,.01,.04,.04,0,0,.01,.02,.02,.03l.3,.52c.03,.05,.03,.05,.09,.05h0s2.13,.01,2.13,.01c.04,0,.07,0,.08,0,0,0,0-.03,0-.06v-.02s.06-2.29,.06-2.29v-.1c0-.16,0-.16,.01-.17l.02-.04v.04s.02,.02,.02,.08c0,.04,0,.11,.02,.18l.15,2.06c0,.09,.01,.1,.08,.11,.94,.24,1.65,.13,2.34,.04l.12-.02s.01,0,.02,0ZM3.79,7.53s0,0-.01,0c-.02,0-.03-.04-.04-.09l-.1-.77s0-.07,0-.08c0,0,.01,0,.02,0,.01,0,.03,0,.06,.02,.17,.09,.27,.25,.29,.46,.01,.18-.05,.35-.16,.44-.03,.02-.05,.03-.07,.03Zm-.12-.92s0,.03,0,.05l.1,.77c0,.05,.01,.06,.01,.06,0,0,.04-.02,.05-.03,.1-.07,.16-.23,.14-.4-.02-.19-.11-.35-.27-.43-.01,0-.03-.02-.04-.02Zm0-.02v.02s0,0,0,0v-.02Z"/></g><g id="path3047"><path class="cls-2" d="M5.56,2.2s-.03,.02-.04,.07l-.04,.62c0,.06,0,.08,.03,.13,2.15,3.2,1.43,6.37-.4,8.29-.04,.04-.05,.06-.06,.12l-.03,.43c0,.08,0,.07,.07,.08l1.6,.14c.07,0,.07,.01,.07-.05l.21-1.98c.01-.11,0-.1,.05,0l.86,2.04c.03,.08,.03,.08,.11,.05l1.72-.61c.1-.04,.09-.03,.04-.12l-1.83-2.9c-.04-.07-.04-.07,.01-.11,3.06-1.87,1.17-6.1-2.36-6.19-.02,0-.03,0-.04,0Zm1.84,3.25s.02,0,.05,.02c.88,.31,.69,1.52-.11,1.61-.07,0-.09,.02-.08-.07l.12-1.5s0-.06,.02-.06Z"/><path class="cls-2" d="M7.95,12.17s-.04-.02-.06-.07h0s-.87-2.05-.87-2.05c0,0,0-.02-.01-.03h0s0,.03,0,.03l-.21,1.98c0,.06-.02,.07-.08,.07h-.02s-1.61-.14-1.61-.14c-.07,0-.08-.02-.07-.09l.03-.43c0-.06,.02-.08,.06-.13,.96-1.01,1.56-2.31,1.69-3.66,.15-1.54-.3-3.13-1.29-4.61-.03-.05-.04-.07-.04-.14l.04-.62c0-.06,0-.09,.05-.09h0s.02,0,.04,0c2.1,.05,3.44,1.51,3.8,2.85,.36,1.35-.18,2.61-1.44,3.38-.01,0-.03,.02-.04,.03,0,0,.01,.03,.03,.06l1.84,2.92s.04,.05,.03,.08c0,.02-.03,.03-.08,.05h-.01s-1.72,.62-1.72,.62c-.03,.01-.05,.02-.07,.02Zm-.95-2.22s.02,.01,.04,.05c0,0,0,.02,.01,.03l.87,2.05s.02,.04,.03,.05c0,0,.03,0,.05-.01l1.74-.62s.05-.02,.05-.02c0,0-.01-.02-.02-.04v-.02s-1.84-2.9-1.84-2.9c-.02-.04-.04-.06-.03-.08,0-.02,.02-.03,.05-.05,1.24-.76,1.77-2.01,1.42-3.34-.35-1.32-1.68-2.77-3.77-2.82-.02,0-.03,0-.04,0h0s-.02,0-.02,.06l-.04,.62c0,.06,0,.07,.03,.12,1,1.48,1.45,3.09,1.3,4.63-.13,1.36-.74,2.67-1.7,3.68-.04,.04-.05,.05-.05,.11l-.03,.43q0,.05,.04,.06h.01s1.62,.14,1.62,.14c.01,0,.03,0,.03,0,0,0,0-.02,0-.03l.22-2.01c0-.05,0-.07,.03-.07,0,0,0,0,0,0Zm.28-2.85s-.03,0-.04-.01c-.02-.02-.02-.04-.01-.08l.12-1.5s0-.05,.02-.07c0,0,.02,0,.03,0h0s.02,0,.03,.01h.02c.49,.18,.62,.61,.59,.92-.04,.33-.27,.68-.7,.73h-.02s-.02,0-.03,0Zm.11-1.63s0,.03,0,.04l-.12,1.5s0,.05,0,.05c0,0,.02,0,.04,0h.01c.41-.05,.63-.39,.67-.7,.03-.3-.09-.71-.56-.88,0,0-.01,0-.02,0-.01,0-.02,0-.02,0Z"/></g><g id="path3035"><path class="cls-2" d="M.73,1.1s-.02,.01-.02,.05l.58,4.26c0,.07,.02,.07,.08,.08l.4,.09c.06,.02,.07,.02,.08,.09l.96,6.23c.01,.09,.03,.07,.1,.06C7.73,10.76,7.46,1.57,.79,1.1c-.02,0-.04,0-.05,0H.73ZM3.08,5.78s.02,0,.04,0c1.83,.04,2.08,2.23,.42,2.66-.07,.02-.07,.02-.08-.06l-.41-2.54c0-.06,0-.07,.03-.07Z"/><path class="cls-2" d="M2.86,11.99s-.02,0-.02,0c-.02-.01-.03-.04-.03-.08l-.96-6.23q0-.06-.06-.07l-.41-.09c-.06-.01-.08-.02-.09-.1L.7,1.15s0-.05,0-.06c0-.01,.02-.01,.03-.01H.73s.01,0,.02,0c0,0,.02,0,.03,0,1.59,.11,2.95,.74,3.91,1.81,.85,.94,1.38,2.21,1.5,3.57,.11,1.24-.13,2.47-.68,3.45-.59,1.07-1.49,1.78-2.6,2.06-.01,0-.02,0-.03,0-.01,0-.03,0-.04,0ZM.74,1.12s0,.01,0,.03l.58,4.26q0,.05,.06,.07l.41,.09c.07,.02,.08,.03,.09,.1l.96,6.23s.01,.05,.02,.05c0,0,.02,0,.03,0,0,0,.02,0,.03,0,1.1-.27,1.99-.98,2.57-2.04,.54-.98,.78-2.2,.67-3.43-.12-1.35-.65-2.62-1.49-3.55C3.71,1.85,2.37,1.23,.78,1.12c-.01,0-.02,0-.03,0,0,0-.01,0-.02,0Zm0,0H.73Zm2.75,7.36s-.02,0-.02,0c-.02-.01-.02-.03-.03-.08l-.41-2.54s0-.06,0-.07c.01-.01,.03-.01,.04-.01h0s.01,0,.02,0c0,0,.01,0,.02,0,.97,.02,1.47,.63,1.54,1.23,.07,.57-.25,1.25-1.11,1.47-.02,0-.04,.01-.06,.01Zm-.41-2.67s-.01,0-.01,0c0,0,0,0,0,.04l.41,2.54s0,.05,.01,.05c0,0,.03,0,.05-.01,.84-.22,1.15-.87,1.09-1.43-.07-.58-.56-1.17-1.5-1.19,0,0-.01,0-.02,0,0,0-.01,0-.02,0h0Z"/></g><g id="path3041"><path class="cls-2" d="M14.06,9.11c-.04-.38-.03-.76,0-1.14,0-.09,.03-.09,.1-.09h1.01c.09,0,.07,.05,.05,.11-.13,.33-.27,.63-.3,1.12,0,.08-.01,.1-.08,.1-.23,.01-.46,.03-.69,0-.07,0-.09-.03-.1-.11h0Z"/><path class="cls-2" d="M14.45,9.25c-.1,0-.19,0-.29-.02-.08,0-.11-.04-.12-.12h0c-.03-.36-.04-.73,0-1.14,0-.1,.04-.11,.11-.1h0s1.01,0,1.01,0c.04,0,.07,0,.08,.03,.02,.03,0,.06,0,.1h0c-.02,.06-.04,.11-.06,.16-.11,.27-.22,.55-.24,.96,0,.09-.02,.12-.1,.12-.03,0-.06,0-.1,0-.1,0-.2,.01-.3,.01Zm-.37-.14c0,.06,.02,.08,.08,.09,.2,.03,.39,.02,.59,0,.03,0,.06,0,.1,0,.05,0,.06,0,.06-.09,.02-.42,.13-.7,.24-.97,.02-.05,.04-.1,.06-.15h0s.02-.06,.01-.07c0,0-.01-.01-.05-.01h-1.02c-.06,0-.07,0-.08,.06-.03,.41-.03,.78,0,1.13Z"/></g><g id="path3045"><path class="cls-2" d="M9.6,3.6s-.02,.01-.03,.04l-.06,.17s0,.05,0,.08c1.17,2.2,.36,3.4-.59,4.53-.03,.03-.04,.05-.04,.09l-.05,.34c0,.06,0,.07,.03,.11l1.05,1.64s.03,.05,.08,.05h.08c.07,0,.06,0,.06-.06l.14-1.19c0-.07,0-.06,.07-.07h.69c.07,0,.07,0,.08,.07l.33,2.38c0,.06,0,.06,.07,.05l1.68-.25c.08-.01,.07-.02,.05-.09l-1.86-7.52-1.74-.38s-.04,0-.05,0Zm1.01,2.24s0,.03,.02,.1l.25,1.72c0,.07,.02,.07-.06,.07l-.36-.03c-.06,0-.06,0-.06-.07l.19-1.69c0-.07,.01-.1,.01-.1Z"/><path class="cls-2" d="M11.48,11.87s-.02,0-.03,0c-.01-.01-.02-.03-.02-.06h0s-.33-2.39-.33-2.39q0-.06-.06-.06h-.7s-.04,0-.05,.06l-.14,1.19s0,.01,0,.02c0,.05-.02,.06-.08,.06h-.08s-.06-.01-.08-.04h0s-1.06-1.67-1.06-1.67c-.03-.04-.03-.06-.03-.11l.05-.34s.02-.07,.05-.1c.43-.51,.91-1.12,1.09-1.85,.19-.79,.03-1.66-.5-2.65-.02-.03-.02-.06,0-.1l.06-.17s.02-.05,.05-.06c.01,0,.02,0,.04,0h0s1.75,.38,1.75,.38h0s1.86,7.53,1.86,7.53v.02s.02,.05,0,.07c-.01,.02-.04,.02-.07,.03l-1.68,.25s-.03,0-.04,0Zm-.44-2.55c.07,0,.08,.02,.09,.1l.33,2.39s0,.03,0,.03c0,0,.03,0,.04,0l1.68-.25s.04,0,.05-.01c0,0,0-.02,0-.04v-.02s-1.86-7.51-1.86-7.51l-1.74-.38s-.03,0-.03,0h0s0,0,0,0c0,0,0,.02-.01,.03l-.06,.17s0,.04,0,.07c1.16,2.19,.38,3.4-.6,4.55-.03,.03-.03,.05-.04,.09l-.05,.34s0,.05,.02,.09h0s1.05,1.65,1.05,1.65h0s.02,.04,.05,.04h.08s.04,0,.04,0c0,0,0-.01,0-.02,0,0,0-.01,0-.02l.14-1.18c0-.07,.02-.08,.08-.08h.7s0,0,0,0Zm-.18-1.57s-.02,0-.04,0l-.37-.03s-.05,0-.06-.02c-.01-.01,0-.03,0-.06h0s.19-1.72,.19-1.72c0-.08,0-.08,.02-.09h0s0,0,0,0c.02,0,.02,0,.03,.11l.25,1.72s0,.02,0,.02c0,.02,0,.04,0,.05,0,0-.02,.01-.04,.01Zm-.25-1.79l-.18,1.68s0,.03,0,.04c0,0,.02,0,.03,0l.37,.03s.03,0,.04,0c0,0,0-.01,0-.02,0,0,0-.02,0-.02l-.25-1.7Z"/></g><g id="path3051"><path class="cls-2" d="M13.24,9.19l.64,2.73c.02,.1,.01,.1-.06,.13l-.35,.1c-.1,.03-.07,.04,0,.07,.97,.49,1.8,.17,2.57-.55,.08-.07,.04-.08-.02-.13-.5-.41-.86-.95-1.06-1.61-.02-.08-.03-.08-.11-.06-.84,.22-1.26-.17-1.58-.69-.07-.11-.07-.12-.03,.02h0Z"/><path class="cls-2" d="M14.38,12.47c-.3,0-.61-.08-.92-.23h-.02s-.06-.04-.06-.06c0-.02,.02-.03,.08-.05l.35-.1q.07-.02,.05-.11l-.64-2.74c-.02-.1-.02-.1,0-.11,.02,0,.02,0,.06,.07v.02c.31,.49,.71,.91,1.58,.68,.04-.01,.06-.02,.09,0,.02,.01,.03,.04,.04,.08,.2,.66,.55,1.2,1.05,1.6,0,0,.01,.01,.02,.02,.03,.02,.05,.04,.05,.07,0,.02-.01,.04-.05,.08-.56,.52-1.12,.78-1.67,.78Zm-.95-.29s.02,0,.03,.01h.02c.87,.45,1.68,.27,2.55-.53,.03-.03,.04-.04,.04-.05,0,0-.02-.02-.04-.04,0,0-.01-.01-.02-.02-.5-.41-.86-.96-1.06-1.62,0-.03-.02-.05-.03-.06,0,0-.03,0-.06,0-.89,.23-1.31-.22-1.6-.7h0s0,0,0,0l.64,2.73c.03,.11,.01,.12-.07,.15l-.35,.1s-.04,.01-.04,.02Z"/></g><g id="path3053"><path class="cls-2" d="M12.37,5.29c.99-1.28,3.6-1.44,4.85,.02,.06,.07,.06,.11,.06,.18l-.08,.95c0,.1-.01,.12-.1,.14-.37,.08-.65,.21-1,.46-.09,.07-.14,.07-.23-.02-.94-.86-2.81-.32-2.79,1.37,0,.15,.02,.19-.03,0l-.72-2.94c-.02-.09,0-.11,.04-.16h0Z"/><path class="cls-2" d="M13.09,8.55s-.01-.01-.03-.08l-.02-.06-.72-2.94c-.02-.1,0-.13,.04-.18,.48-.62,1.35-1,2.32-1.02,1.03-.03,1.97,.36,2.56,1.05,.07,.07,.06,.12,.06,.19h0s-.08,.96-.08,.96c0,.1-.02,.13-.11,.15-.38,.09-.66,.22-.99,.45-.1,.08-.15,.07-.25-.02-.46-.42-1.17-.52-1.78-.25-.63,.28-.98,.87-.98,1.61,0,.04,0,.07,0,.09,0,.04,0,.06-.02,.06,0,0,0,0,0,0Zm1.68-4.26s-.06,0-.1,0c-.96,.02-1.82,.4-2.29,1.01h0s-.05,.06-.03,.15l.72,2.92c0-.73,.37-1.33,1-1.61,.62-.28,1.35-.17,1.82,.26,.09,.08,.12,.08,.21,.01,.33-.24,.61-.37,1-.46,.08-.02,.08-.03,.08-.12l.08-.96c0-.07,0-.1-.05-.16-.57-.66-1.45-1.03-2.43-1.03Z"/></g><g id="path3055"><path class="cls-1" d="M19.87,9.29c0,1.22-.98,2.21-2.19,2.21-1.21,0-2.19-.99-2.19-2.21h0c0-1.22,.98-2.21,2.19-2.22,1.21,0,2.19,.99,2.19,2.21h0Z"/><path class="cls-1" d="M17.68,11.52c-.59,0-1.14-.23-1.56-.65-.42-.42-.65-.98-.65-1.58,0-1.23,.99-2.23,2.21-2.23h0c1.22,0,2.21,1,2.21,2.23h0c0,1.23-.99,2.23-2.21,2.23h0Zm0-4.42h0c-1.2,0-2.17,.98-2.17,2.19,0,.59,.23,1.14,.64,1.55,.41,.41,.96,.64,1.53,.64h0c1.2,0,2.17-.98,2.17-2.19h0c0-1.21-.98-2.19-2.17-2.19Z"/></g><g id="path3828"><path class="cls-2" d="M18.65,6.55l.16-1.77c0-.08,.05-.12,.12-.11l1.04,.03c.08,0,.08,.02,.11,.09l1.31,2.7c.05,.1,.05,.12,.05,0l.14-2.6c0-.1,0-.09,.1-.09l1.29,.04c.09,0,.08,0,.08,.1l-.05,7.45c0,.08,0,.07-.08,.08h-1.44c-.06,0-.06,0-.08-.05l-.94-1.83c-.03-.07-.03-.07-.04,0l-.21,1.85c0,.07-.02,.06-.08,.06l-2.07,.02c-.08,0-.08,0-.08-.07l.02-.29c0-.11,.04-.1,.12-.12,3.09-.77,2.94-4.3,.6-5.35-.07-.04-.07-.04-.07-.12h0Z"/><path class="cls-2" d="M18.06,12.53h-.02s-.05,0-.07-.01c-.01-.01-.01-.03,0-.07h0s.02-.3,.02-.3c0-.1,.04-.12,.11-.13,0,0,.02,0,.02,0,1.34-.33,2.21-1.25,2.31-2.45,.11-1.21-.58-2.36-1.72-2.87-.08-.04-.08-.05-.08-.14h0s.16-1.77,.16-1.77c0-.05,.02-.08,.04-.1,.02-.02,.06-.03,.1-.02l1.03,.03c.08,0,.09,.02,.11,.07,0,0,0,.01,.01,.02l1.33,2.74s0,0,0,0c0,0,0-.01,0-.02l.14-2.61c0-.1,.01-.11,.1-.1h.02s1.29,.04,1.29,.04c.09,0,.1,.01,.1,.09v.02s-.05,7.45-.05,7.45c0,.08,0,.09-.08,.09h-1.45c-.06,0-.07,0-.1-.05h0s-.95-1.85-.95-1.85h0s-.21,1.85-.21,1.85c0,.07-.02,.07-.08,.08h-.02s-2.07,.02-2.07,.02Zm.61-5.97q0,.07,.06,.1c1.15,.52,1.85,1.69,1.74,2.91-.11,1.21-.98,2.14-2.34,2.48,0,0-.02,0-.02,0-.06,.01-.08,.02-.08,.1l-.02,.3s0,.04,0,.04c0,0,.02,0,.04,0h.02s2.09-.02,2.09-.02c.04,0,.04,0,.04-.04l.21-1.86s0-.06,.02-.06c.02,0,.02,0,.04,.05v.02s.96,1.84,.96,1.84t.06,.04h1.45s.04,0,.04,0c0,0,0-.03,0-.05l.05-7.47q0-.05-.06-.05l-1.31-.04s-.05,0-.05,0c0,0,0,.04,0,.07l-.14,2.61c0,.07,0,.09-.02,.09-.02,0-.03,0-.05-.06v-.03s-1.33-2.7-1.33-2.7c0,0,0-.02-.01-.02-.02-.04-.02-.05-.08-.05l-1.03-.03s-.05,0-.07,.01c-.02,.01-.03,.04-.03,.08l-.16,1.77Z"/></g><g id="path3832"><path class="cls-4" d="M31.31,3.96l1.32-.28c.15-.03,.15-.04,.14,.1l-.31,4.68c0,.09,0,.08,.08,.07l1.74-.23c.08,0,.07,0,.06,.07l-.41,2.62c-.01,.09-.03,.08-.11,.09l-1.8,.18c-.08,0-.08,.02-.1-.06l-.92-4.49c-.01-.07-.01-.11-.01-.16l.18-2.41c.01-.14,0-.14,.14-.17h0Z"/><path class="cls-4" d="M31.97,11.27s-.05-.02-.06-.08l-.92-4.49c-.02-.07-.01-.12-.01-.17l.18-2.41c.01-.15,.02-.15,.15-.18l1.32-.28s.03,0,.04,0c.06-.01,.09-.02,.11,0,.02,.02,.02,.05,.01,.13h0s-.31,4.68-.31,4.68c0,.03,0,.05,0,.06,0,0,.02,0,.04,0h.02s1.74-.23,1.74-.23c.04,0,.06,0,.08,0,.01,.01,0,.03,0,.06v.02s-.41,2.62-.41,2.62c-.01,.09-.03,.09-.1,.1,0,0-.02,0-.03,0l-1.82,.18s-.02,0-.03,0Zm-.65-7.3q-.12,.02-.12,.15h0s-.18,2.41-.18,2.41c0,.05,0,.09,.01,.16l.92,4.49q.01,.05,.06,.05h.02s1.8-.18,1.8-.18c.01,0,.02,0,.03,0,.05,0,.05,0,.06-.07l.41-2.63s0-.02,0-.03c0,0-.03,0-.04,0l-1.76,.23s-.05,0-.07,0c-.02-.01-.01-.04-.01-.08l.31-4.68s0-.09,0-.1c0,0-.04,0-.08,0-.01,0-.02,0-.04,0l-1.32,.28Z"/></g><g id="path3834"><path class="cls-4" d="M34.54,3.2l1.59-.36c.08-.02,.08-.03,.07,.05l-1.08,6.44c-.02,.09-.01,.08,.08,.06l1.5-.34c.09-.02,.1-.04,.08,.06l-.6,2.96c-.01,.08-.02,.07-.1,.07l-2.93,.06c-.08,0-.08,0-.06-.07l.08-.38c.02-.08,.02-.08,.09-.09l1.03-.13c.08-.01,.08-.01,.09-.08l.59-3.76c.01-.09,0-.07-.07-.06l-1.03,.16c-.09,.02-.08,.01-.07-.07l.67-4.44c.01-.07,.01-.07,.08-.09h0Z"/><path class="cls-4" d="M33.15,12.23h-.02s-.05,0-.06-.01c-.01-.01,0-.03,0-.07l.08-.39c.02-.08,.03-.09,.11-.1l1.03-.13q.07,0,.07-.07l.59-3.76s0-.04,0-.05c0,0-.02,0-.03,0,0,0-.02,0-.03,0l-1.03,.16c-.05,0-.07,.01-.09,0-.01-.01-.01-.03,0-.07v-.02s.67-4.44,.67-4.44c.01-.08,.02-.09,.09-.1h0l1.59-.36s.02,0,.02,0c.03,0,.05-.01,.06,0,.02,.01,.01,.04,0,.08l-1.08,6.44s0,.05,0,.06c0,0,.03,0,.05-.01h0s1.5-.34,1.5-.34c.01,0,.03,0,.04,0,.03,0,.05-.01,.06,0,.02,.01,.01,.04,0,.09l-.6,2.96c-.01,.08-.03,.09-.1,.09h-.02s-2.93,.06-2.93,.06Zm-.02-.04h.02l2.95-.06q.05,0,.07-.06l.6-2.96s0-.04,0-.05c0,0-.02,0-.03,0-.01,0-.02,0-.04,0l-1.51,.34s-.07,.02-.09,0c-.02-.02-.01-.04,0-.09l1.08-6.44s0-.03,0-.04c0,0-.02,0-.03,0,0,0-.02,0-.03,0l-1.59,.36q-.06,.01-.07,.07l-.67,4.46s0,.03,0,.04c0,0,.03,0,.06,0l1.03-.16s.02,0,.03,0c.03,0,.05,0,.06,0,.01,.01,.01,.04,0,.08l-.59,3.76c-.01,.08-.02,.09-.11,.1l-1.03,.13q-.06,0-.08,.07l-.08,.39s0,.03,0,.03c0,0,.02,0,.03,0Z"/></g><g id="path3940"><path class="cls-4" d="M29.96,4.18s-.03,0-.05,0l-1.73,.19c-.09,0-.11,0-.12,.1l-.06,.45c0,.06,0,.08,.03,.13,1.17,1.61,.47,3.34-.28,4.03-.06,.06-.07,.06,0,.15,.65,.87,.94,1.82-.09,3.05-.05,.06-.08,.08,.02,.08l.6,.03c.09,0,.09,0,.1-.09l.28-2.36c0-.08,0-.08,.1-.08h.56c.09,0,.1-.01,.11,.09l.26,2.18c.01,.12,.01,.11,.14,.09l1.58-.26c.09-.02,.09-.01,.07-.11l-1.46-7.6c-.01-.06-.02-.07-.05-.06Zm-.9,2.7s0,.04,.02,.13l.17,1.26c.01,.09,.02,.09-.07,.09h-.21c-.1-.02-.09-.01-.08-.11l.15-1.23c0-.08,.01-.13,.02-.13Z"/><path class="cls-4" d="M28.32,12.41s-.02,0-.03,0h0s-.6-.03-.6-.03c-.05,0-.07,0-.08-.03,0-.02,0-.04,.03-.06,0,0,.01-.01,.02-.02,1.09-1.31,.66-2.27,.09-3.03-.07-.09-.06-.11,0-.17,.8-.73,1.41-2.45,.28-4-.04-.05-.05-.08-.04-.15l.06-.45c.01-.1,.04-.1,.11-.11h.02s1.75-.19,1.75-.19c.01,0,.02,0,.03,0h0c.05,0,.06,.02,.07,.08l1.46,7.61s.01,.07,0,.09c-.01,.02-.04,.02-.09,.03l-1.58,.26s-.02,0-.03,0c-.05,0-.07,.01-.09,0-.02-.02-.02-.04-.03-.1h0s-.26-2.18-.26-2.18q0-.08-.07-.08h-.58q-.06,0-.07,.06h0s-.28,2.38-.28,2.38c-.01,.08-.02,.1-.08,.1Zm-.68-.08s.02,0,.04,0l.61,.03s.05,0,.06,0c0,0,0-.03,.01-.07h0s.28-2.38,.28-2.38c0-.08,.02-.09,.11-.09h.58c.09,0,.1,0,.11,.1l.26,2.18s0,.07,.02,.08c0,0,.03,0,.07,0,.01,0,.02,0,.03,0l1.58-.26s.06-.01,.07-.02c0,0,0-.03,0-.06h0s-1.46-7.61-1.46-7.61c0-.05-.01-.05-.03-.05h0s-.02,0-.03,0h-.02s-1.75,.19-1.75,.19c-.07,0-.07,0-.08,.08l-.06,.45c0,.06,0,.07,.03,.12,1.14,1.57,.52,3.32-.28,4.05h0q-.06,.05,0,.12c.38,.51,.57,.95,.59,1.4,.03,.55-.19,1.09-.68,1.68,0,0-.01,.02-.02,.02,0,0-.01,.02-.02,.02Zm1.59-3.97s-.02,0-.04,0h-.22s-.06-.02-.08-.03c-.01-.02-.01-.04,0-.08h0s.15-1.28,.15-1.28c.01-.1,.01-.11,.03-.11,.02,0,.02,0,.04,.14l.18,1.28s0,.06,0,.07c0,.01-.02,.01-.05,.01Zm-.16-1.37l-.15,1.26s0,.05,0,.06c0,0,.03,0,.05,0h.01s.21,.01,.21,.01c.02,0,.05,0,.06,0,0,0,0-.02,0-.04v-.02s-.18-1.26-.18-1.26c0,0,0,0,0-.01Z"/></g><g id="path3942"><path class="cls-4" d="M25.68,4.61c-.09,0-.19,0-.28,.01l-1.71,.15c-.14,.02-.14,0-.14,.13l-.06,2.5c0,.09,0,.08,.08,.09h.1c.09,0,.09,.01,.1,.1l.44,4.66c0,.09,.02,.08,.1,.08l.85,.03c3.32,.12,3.01-2.75,1.48-3.3-.16-.05-.13-.04,0-.08,2.2-.68,1.86-4.39-.97-4.37h0Zm-.37,2.15s.03,0,.05,0c.91,.11,.79,1.23,.01,1.18-.06,0-.07,0-.07-.07l-.04-1.03c0-.08,0-.09,.04-.09Zm.12,3.03s.02,0,.04,0c.69,.07,.64,1.01,0,.92-.06,0-.07,0-.07-.08v-.78c0-.05,0-.07,.03-.06Z"/><path class="cls-4" d="M25.35,12.39c-.06,0-.12,0-.18,0l-.87-.03c-.07,0-.09-.01-.1-.1l-.44-4.66q0-.07-.08-.08h-.11c-.08,0-.09-.02-.09-.1h0s.06-2.51,.06-2.51c0-.13,0-.13,.12-.15h.03s1.71-.16,1.71-.16c.11,0,.2-.01,.28-.02,0,0,.02,0,.02,0,1.52,0,2.22,1.05,2.36,1.96,.08,.52,0,1.04-.24,1.48-.25,.48-.66,.81-1.18,.97-.02,0-.04,.01-.06,.02,0,0-.01,0-.02,0,.02,0,.04,.01,.07,.02h0c.77,.28,1.24,1.13,1.09,1.93-.17,.89-1.06,1.41-2.39,1.41Zm.34-7.78v.02c-.08,0-.18,0-.28,.01l-1.71,.15h-.03q-.09,.01-.09,.11l-.06,2.51s0,.05,0,.05c0,0,.03,0,.05,0h.11c.1,0,.11,.02,.12,.11l.44,4.66q0,.06,.06,.06h.02s.85,.03,.85,.03c1.41,.05,2.36-.47,2.54-1.38,.15-.77-.33-1.62-1.06-1.89h0c-.1-.03-.12-.04-.12-.06,0-.02,.02-.03,.07-.04,.02,0,.04,0,.06-.02,.81-.25,1.59-1.11,1.39-2.41-.14-.89-.83-1.92-2.33-1.92,0,0-.02,0-.02,0v-.02Zm-.14,6.13s-.06,0-.09,0h0c-.06-.01-.08-.02-.08-.1v-.78s0-.06,.01-.07c.01-.01,.02-.01,.04-.01,0,0,.02,0,.03,0h.02c.22,.02,.39,.14,.47,.32,.07,.16,.05,.35-.05,.48-.08,.11-.2,.16-.35,.16Zm-.12-.93s0,0,0,0c0,0,0,.03,0,.05v.78q0,.06,.04,.06h0c.17,.02,.32-.03,.4-.14,.09-.12,.11-.29,.04-.44-.07-.17-.23-.28-.44-.3h-.02s-.02,0-.02,0h0Zm0-1.84s-.03,0-.05,0c-.07,0-.08-.01-.09-.09l-.04-1.03s0-.08,.02-.09c.01-.01,.03-.01,.05-.01h0s.02,0,.04,0h.02c.49,.06,.68,.41,.65,.7-.02,.26-.22,.52-.59,.52Zm-.12-1.19s-.01,0-.01,0c0,0,0,.05,0,.07l.04,1.03s0,.05,.05,.05c.38,.02,.58-.24,.61-.49,.03-.28-.16-.6-.62-.66h-.02s-.02,0-.03,0h0s0,0,0,0Z"/></g><g id="path3039"><path class="cls-3" d="M17.96,8.92h.88l-.72,.54,.28,.85-.74-.51-.7,.51,.24-.84-.73-.55h.91s.28-.86,.28-.86l.29,.85Z"/><path class="cls-3" d="M18.44,10.36l-.77-.53-.73,.53,.25-.88-.76-.57h.95s.3-.9,.3-.9l.31,.89h.93l-.76,.56,.3,.89Zm-1.91-1.41l.7,.52-.23,.8,.67-.48,.7,.48-.27-.81,.69-.51h-.84l-.28-.81-.27,.81h-.87Z"/></g></g></g></g></svg>