<?xml version="1.0" encoding="utf-8"?>
<!-- Generator: Adobe Illustrator 27.0.0, SVG Export Plug-In . SVG Version: 6.00 Build 0)  -->
<svg version="1.1" id="Capa_1" xmlns="http://www.w3.org/2000/svg" xmlns:xlink="http://www.w3.org/1999/xlink" x="0px" y="0px"
	 viewBox="0 0 129.7 129.8" style="enable-background:new 0 0 129.7 129.8;" xml:space="preserve">
<style type="text/css">
	.st0{fill:#F6A120;}
	.st1{fill:#FFB14A;}
	.st2{fill:#DB123D;}
</style>
<g>
	<circle class="st0" cx="64.9" cy="64.9" r="64.9"/>
	<path class="st1" d="M2.6,46.9c-9.9,34.4,9.9,70.4,44.3,80.3c20.8,6,43.2,1.2,59.8-12.8c-6.9,1.6-33.1,7.1-60.1-7.3
		C11.4,88.5,3.6,51.9,2.6,46.9z"/>
	<polygon class="st2" points="67.3,62.3 72.8,63.2 68.8,67 69.6,72.5 64.8,69.8 59.9,72.3 60.9,66.9 56.9,62.9 62.4,62.2 65,57.2 	
		"/>
	<path class="st1" d="M74.3,18.8c18.4,1.4,28.2,14.2,35.5,29.6c3.1,6.5,12.9,0.9,9.7-5.7C110.3,23.4,96.8,9.2,74.4,7.5
		C67.1,7,67.1,18.3,74.3,18.8C74.4,18.8,74.4,18.8,74.3,18.8z"/>
	<path class="st1" d="M114.3,64.7l1.2,2.4c1.6,2.7,5.1,3.6,7.7,2c1.2-0.8,2.2-1.9,2.6-3.3c0.3-1.5,0.2-3-0.5-4.4l-1.2-2.4
		c-1.6-2.7-5.1-3.6-7.7-2c-1.2,0.8-2.2,2-2.6,3.3C113.5,61.8,113.6,63.4,114.3,64.7L114.3,64.7z"/>
</g>
</svg>
