<?xml version="1.0" encoding="UTF-8"?><svg id="Capa_1" xmlns="http://www.w3.org/2000/svg" viewBox="0 0 159.77 128.54"><defs><style>.cls-1{fill:#f7093b;}.cls-2{fill:#f6f6f6;}.cls-3{fill:#fb0639;}.cls-4{fill:#fd012c;}.cls-5{fill:#faacbc;}.cls-6{fill:#fc012b;}.cls-7{fill:#fb093e;}.cls-8{fill:#ebebeb;}.cls-9{fill:#eaeaea;}.cls-10{fill:#f80236;}.cls-11{fill:#f6b8c6;}.cls-12{fill:#f90f47;}.cls-13{fill:#fe0029;}.cls-14{fill:#ededed;}.cls-15{fill:#fee5ee;}.cls-16{fill:#e8e8e8;}.cls-17{fill:#f20532;}.cls-18{fill:#ececec;}.cls-19{fill:#fefefe;}.cls-20{fill:#fee0e8;}.cls-21{fill:#fee0eb;}.cls-22{fill:#faf6f5;}.cls-23{fill:#edc7ce;}.cls-24{fill:#fcf6f8;}.cls-25{fill:#fde6ec;}.cls-26{fill:#fde4eb;}.cls-27{fill:#fdeef1;}.cls-28{fill:#fdeaf0;}.cls-29{fill:#fdebee;}.cls-30{fill:#7e7e7e;}.cls-31{fill:#818181;}.cls-32{fill:#999;}.cls-33{fill:#989898;}.cls-34{fill:#87052c;}.cls-35{fill:#bb0629;}.cls-36{fill:#b9b9b9;}.cls-37{fill:#950023;}.cls-38{fill:#c4000a;}.cls-39{fill:#bd001f;}.cls-40{fill:#303030;}.cls-41{fill:#8d8d8d;}.cls-42{fill:#8e8e8e;}.cls-43{fill:#a3001f;}.cls-44{fill:#939393;}.cls-45{fill:#d10020;}.cls-46{fill:#b18d91;}.cls-47{fill:#a02;}.cls-48{fill:#b40007;}.cls-49{fill:#bf0120;}.cls-50{fill:#aaa;}.cls-51{fill:#b10020;}.cls-52{fill:#b0888f;}.cls-53{fill:#d8d8d8;}.cls-54{fill:#a5a5a5;}.cls-55{fill:#aeaeae;}.cls-56{fill:#c0001f;}.cls-57{fill:#c3001e;}.cls-58{fill:#c1001e;}.cls-59{fill:#c2001f;}.cls-60{fill:silver;}.cls-61{fill:#c17586;}.cls-62{fill:#ac0024;}.cls-63{fill:#ccc;}.cls-64{fill:#cf001d;}.cls-65{fill:#c9c9c9;}.cls-66{fill:#e20012;}.cls-67{fill:#c3c3c3;}.cls-68{fill:#c4c4c4;}.cls-69{fill:#c57285;}.cls-70{fill:#d6d6d6;}.cls-71{fill:#dbdbdb;}.cls-72{fill:#d4d4d4;}.cls-73{fill:#d9d9d9;}.cls-74{fill:#d7d7d7;}.cls-75{fill:#c6c6c6;}.cls-76{fill:#d5d5d5;}.cls-77{fill:#a8a8a8;}.cls-78{fill:#260003;}.cls-79{fill:#1f0004;}.cls-80{fill:#1e0002;}.cls-81{fill:#423c3e;}.cls-82{fill:#960008;}.cls-83{fill:#9b9b9b;}.cls-84{fill:#727272;}.cls-85{fill:#a39396;}.cls-86{fill:#545454;}.cls-87{fill:#9a9798;}.cls-88{fill:#898989;}.cls-89{fill:#6e6e6e;}.cls-90{fill:#555;}.cls-91{fill:#2a0005;}.cls-92{fill:#313131;}.cls-93{fill:#350003;}.cls-94{fill:#3d3d3d;}.cls-95{fill:#610005;}.cls-96{fill:#5d5d5d;}.cls-97{fill:#767676;}.cls-98{fill:#7b0004;}.cls-99{fill:#62040f;}</style></defs><path class="cls-14" d="M24.5,59.95c0-.96,.83-1.35,1.34-1.95,.1-.12,.28-.16,.39-.27,1.27-1.28,1.13-1.65-.58-2.26-1.59-.57-3.16-1.19-4.8-1.61-2.22-.58-4.51-.81-6.77-.81-2.1,0-4.21,.41-6.32,.6-1.86,.18-3.9,.23-5.6-.6-1.41-.68-2.07-2.21-2.13-3.86-.03-.94-.05-1.88,0-2.81,.13-2.26,1.14-4.05,2.91-5.48,1.18-.95,2.23-2.05,3.37-3.05,.94-.82,1.87-1.67,3.04-2.18,.06,.07,.1,.15,.1,.25-.53,1.01-1.68,1.35-2.38,2.18-.2,.24-.5,.4-.72,.63-1.17,.91-2.17,2.02-3.32,2.96-.87,.71-1.49,1.61-1.88,2.66-.71,1.78-.56,3.64-.39,5.46,.18,1.91,1.63,3.06,3.62,3.07,2.26,0,4.51,.08,6.76-.29,1.84-.3,3.73-.21,5.6-.03,.43,.14,.88,.16,1.33,.2,.09,.01,.19,.04,.28,.06,.36,.13,.74,.08,1.11,.14,.1,.01,.19,.03,.28,.06,2.59,.56,5.1,1.33,7.51,2.44,.09,.04,.18,.09,.26,.14,.32,.26,.53,.57,.47,1.01-.04,.24-.19,.42-.38,.56-.18,.13-.35,.26-.48,.43-.78,.85-1.41,1.85-2.49,2.4-.04-.02-.08-.03-.13-.05Z"/><path class="cls-14" d="M137.19,87.93c.21,1.83,1.5,3,2.6,4.29,.78,.91,1.09,2.09,1.64,3.14,.19,.36,.41,.64,.72,.88,1.89,1.46,3.05,3.26,3.24,5.75,.17,2.2,.31,4.37-.4,6.5-.64,1.93-1.98,3.25-3.8,4.1-1.02,.47-2.06,.9-3.22,.8-.29,.23-.68-.05-.97,.19-.2,.14-.44,.09-.66,.09-4.48,0-8.97,0-13.45,0-.22,0-.45,.05-.66-.09h0c-.29-.24-.68,.03-.97-.19-.13,0-.26,0-.39,0-.71-.16-1.42-.16-2.14,0-.19,.13-.39,.26-.58,.39-.16,.12-.3,.1-.41-.08,.25-.8,.92-.9,1.61-.97,.98-.09,1.93,.2,2.9,.2,4.79,0,9.58,.01,14.37-.01,1.46,0,2.9-.23,4.25-.82,2.36-1.02,3.56-2.88,3.83-5.39,.15-1.48,.16-2.94,.06-4.44-.14-2.24-1.02-3.97-2.77-5.3-.56-.43-.97-.94-1.26-1.56-.78-1.68-1.67-3.29-3.03-4.58-.31-.29-.48-.69-.56-1.11-.02-.59-.45-1.2,.06-1.78Z"/><path class="cls-14" d="M89.01,127.76c-1.51,.47-3.08,.57-4.63,.67-2.34,.16-4.69,.08-7.04,.1-1.29,0-2.59-.01-3.88,0-2.05,.03-3.96-.58-5.88-1.19-1.59-.5-3.21-.9-4.82-1.34-1.74-.47-3.39-1.16-5.05-1.83-1.48-.59-2.93-1.28-4.32-2.03-1.97-1.07-3.96-2.11-5.7-3.56-.15-.12-.3-.24-.45-.36,.13-.13,.28-.16,.46-.15,1.55,.73,2.91,1.8,4.41,2.62,4.41,2.42,8.97,4.47,13.94,5.47,.76,.15,1.47,.49,2.21,.73,1.89,.61,3.8,1.04,5.8,.98,.81-.02,1.62-.02,2.43,0,3.75,.11,7.49-.12,11.23-.4,.44,.04,.93-.1,1.3,.27Z"/><path class="cls-8" d="M9.35,35.86c0-.06,0-.13,0-.19,.34-.68,1.06-.92,1.62-1.31,2.13-1.47,4.26-2.95,6.48-4.26,1.78-1.05,3.61-2.01,5.46-2.95,2.04-1.03,4.11-1.96,6.26-2.7,2.45-.85,4.99-1.4,7.55-1.79,.95-.15,1.9-.26,2.86-.39,.21-.03,.51,.09,.56-.22,.04-.21-.21-.29-.36-.4-1.43-1.03-2.85-2.07-4.27-3.11-.13-.09-.22-.23-.32-.35-.07-.1-.05-.18,.06-.24,.63-.05,.95,.5,1.41,.77,1.22,.73,2.36,1.58,3.51,2.42,.41,.3,.96,.59,.75,1.21-.2,.63-.81,.52-1.32,.55-2.23,.14-4.41,.63-6.58,1.13-6.2,1.44-11.71,4.4-17.04,7.76-2.11,1.33-4.14,2.76-6.2,4.16-.16,.04-.3,.03-.43-.09Z"/><path class="cls-18" d="M145.93,57.43c-.29,1.04-1.07,1.6-1.96,2.06-.18,.09-.49,.13-.4,.44,.06,.21,.3,.22,.5,.22,1.52,0,2.99,.4,4.47,.65,2.63,.43,5.27,.83,7.83,1.63,1.79,.55,2.8,1.73,3.16,3.51,.34,1.69,.32,3.41-.02,5.08-.23,1.13-1.7,3.22-3.27,3.12-.07-.08-.1-.18-.08-.29,.08-.23,.26-.38,.46-.46,1.68-.68,2.27-2.12,2.42-3.74,.13-1.37,.19-2.76-.27-4.11-.28-1.31-1.13-2.08-2.35-2.49-3.97-1.04-8.02-1.63-12.06-2.25-.64-.1-1.29-.14-1.89-.37-.52-.19-.55-.49-.11-.82,.1-.08,.21-.16,.33-.2,1.07-.36,1.92-1.03,2.64-1.88,.19-.11,.39-.2,.61-.09Z"/><path class="cls-8" d="M145.93,57.43c-.13,.06-.26,.13-.39,.19-.27-.99,.29-1.87,.42-2.81,.22-1.54-.1-2.95-.71-4.32-.4-.9-1.21-1.3-2.11-1.55-1.63-.46-3.31-.51-4.98-.56-2.9-.08-5.81-.05-8.72,0-1.02,.01-1.73-.36-2.25-1.21-.61-.99-1.15-2.02-1.77-3-.39-.62-.43-1.3-.06-1.94,.41-.72,.56-1.59,1.25-2.14,.14,.04,.17,.12,.09,.24-.13,.76-.25,1.5-.72,2.16-.25,.35-.36,.82-.08,1.28,.71,1.18,1.39,2.37,2.1,3.55,.26,.43,.7,.39,1.12,.39,2.81,0,5.62,.01,8.43,0,1.93-.01,3.86,.18,5.72,.59,1.34,.29,2.53,1.13,2.88,2.68,.18,.78,.41,1.55,.36,2.37,.15,.58,.15,1.17,0,1.75h0c-.19,.57-.02,1.22-.39,1.75-.07,.19-.13,.39-.2,.58Z"/><path class="cls-8" d="M156.23,73.94c0,.07,0,.13,0,.2-.13,.07-.26,.13-.39,.2-.36,.21-.79,.23-1.17,.39-3.12,1.1-6.27,2.11-9.34,3.34-2.02,.81-4.08,1.51-6.06,2.43-1.59,.74-3.22,1.4-4.8,2.17-.69,.34-.73,.82-.14,1.13,1.73,.89,2.34,2.47,2.85,4.15-.1,.6,.15,1.17,.19,1.75-.63-.08-.57-.61-.64-1.03-.26-1.39-.64-2.7-1.79-3.66-.28-.23-.58-.4-.89-.58-.99-.6-1.05-1.45-.12-2.16,.62-.48,1.36-.74,2.07-1.05,6.24-2.77,12.62-5.17,19.12-7.25,.36-.11,.73-.32,1.1,0Z"/><path class="cls-8" d="M89.01,127.76c-.45,0-.91,0-1.36,0,.06-.53,.5-.4,.81-.45,3.41-.56,6.81-1.22,10.08-2.38,6.01-2.14,11.62-5.03,16.48-9.23,.4-.35,.77-.81,1.39-.79,.11,.14,.09,.28-.01,.42-1.66,1.46-3.38,2.87-5.24,4.06-3.35,2.15-6.8,4.09-10.58,5.45-2.6,.93-5.25,1.64-7.9,2.39-.45,.13-.89,.14-1.34,.15-.7,.19-1.43,.23-2.14,.39-.06,0-.13,0-.19,0Z"/><path class="cls-14" d="M28.97,103.47c.03-.52,.46-.76,.78-1.06,1.59-1.49,1.83-2.21,.87-4.25-1.22-2.6-2.16-5.28-2.99-8.01-.17-.55-.4-.5-.76-.29-1.88,1.13-3.96,1.29-6.06,1.15-.94-.06-1.87-.4-2.73-.83-1.17-.58-1.55-1.65-1.75-2.83,.08-.07,.18-.1,.29-.07,.12,.06,.23,.14,.27,.27,.7,2.27,2.56,2.7,4.57,2.84,1.77,.13,3.47-.19,5.05-1.03,.66-.35,1.25-.34,1.61,.44,.89,2.84,1.97,5.61,3.16,8.34,1.06,2.44,.39,4.13-2.05,5.44-.11,0-.2-.03-.28-.1Z"/><path class="cls-8" d="M28.97,103.47c.07,0,.13,0,.2,0,.3,.51-.01,.94-.21,1.37-.34,.75-.53,1.52-.5,2.35,.06,1.58-.17,3.17,.14,4.74,.6,3.07,2.38,4.14,5.09,4.68,3.72,.74,7.49,.26,11.23,.39,.68,.02,1.37,0,1.99,.33,.37,.19,.78,.37,.71,.91-.13,0-.26,0-.39,0-.7-.25-1.33-.72-2.14-.58-1.08-.23-2.17-.09-3.26-.09-1.7,.01-3.4-.13-5.09,.09-1.94-.05-3.85-.35-5.6-1.18-2.17-1.03-3.2-2.95-3.3-5.25-.09-2.08-.25-4.18,.32-6.25,.16-.6,.51-1.02,.81-1.5Z"/><path class="cls-18" d="M40.83,5.75c-.08-1.87,.49-3.41,2.18-4.4,.64-.38,1.37-.58,2.09-.67C47.42,.4,49.75,.05,52.08,0c1.94-.04,3.9,.32,5.84,.5,.28,.2,.6,.06,.9,.11,.2,.03,.37,.09,.22,.35-.44,.29-.94,.22-1.41,.16-3.56-.46-7.12-.49-10.68,0-.99,.13-1.97,.16-2.93,.5-1.69,.6-2.32,1.82-2.56,3.5-.24,1.73-.08,3.39,.35,5.06,.1,.37,.19,.79-.2,1.06-.32,.23-.66,.23-.97-.05-.13-.37,.23-.28,.38-.39,.43-.42,.01-.85-.05-1.23-.1-.63-.14-1.25-.15-1.88-.18-.65-.18-1.3,0-1.94Z"/><path class="cls-14" d="M97.95,22.45c1.69,.28,3.3,.91,4.76,1.7,1.79,.97,3.35,.8,4.99-.1,.4-.22,.81-.41,1.27-.42,1.84-.01,3.66-.29,5.51-.21,2.04,.09,3.9,.67,5.57,1.84,.18,.13,.3,.33,.45,.5-.08,.08-.17,.13-.28,.15-.79,.03-1.24-.64-1.89-.91-2.44-1-4.97-.97-7.52-.86-1.67,.08-3.25,.46-4.73,1.24-.78,.42-1.61,.25-2.35-.1-1.79-.83-3.65-1.49-5.48-2.22-.15-.06-.28-.16-.36-.31-.02-.11,0-.21,.07-.3Z"/><path class="cls-9" d="M97.95,22.45v.2c-.33,.3-.68,.13-1.01,.04-1.34-.38-2.68-.72-4.03-1.05-1.03-.25-1.77-.8-2.37-1.69-2.52-3.75-5.62-6.99-9.1-9.86-.44-.36-1.22-.44-1.18-1.25,.14-.1,.28-.08,.4,.03,1.37,.99,2.66,2.07,3.93,3.2,2.27,2.04,4.28,4.29,5.92,6.85,.84,1.31,1.82,2.16,3.4,2.38,1.4,.19,2.73,.68,4.05,1.17Z"/><path class="cls-14" d="M16.54,87.35c-.07,0-.13,0-.2,0-.47-1.82-.31-3.64-.26-5.49,.05-2.08,.42-4.09,.87-6.07,.62-2.76,1.38-5.51,2.69-8.06,.1-.07,.19-.06,.27,.04,.23,.51-.07,.94-.25,1.37-.87,2.11-1.52,4.28-2,6.51-.57,2.45-.82,4.94-1.03,7.44-.07,.83-.05,1.67,.1,2.5,.11,.58,.23,1.22-.2,1.76Z"/><path class="cls-18" d="M59.09,.89c-.29-.41-.87,.02-1.17-.39,2.14,0,4.18,.59,6.26,.97,2.11,.38,4.14,1.04,6.14,1.77,1.61,.59,3.22,1.22,4.7,2.12-.16,.17-.37,.22-.59,.22-1.21-.27-2.26-.92-3.4-1.37-3.49-1.38-7.12-2.23-10.81-2.85-.41-.07-.84-.1-1.13-.46Z"/><path class="cls-14" d="M41.02,10.8c-.08,.16-.23,.19-.39,.19-.4,.33-.81,.12-1.17-.03-1.05-.42-2.14-.29-3.22-.27-.4,0-.72,.24-.99,.52-.22,.19-.39,.43-.52,.69-1.17,1.64-1.19,3.29-.07,4.98,.22,.34,.46,.69,.54,1.11,0,.07,0,.13,0,.2-.69,.02-.9-.57-1.16-1.01-.73-1.25-1.14-2.63-.74-4.04,.25-.88,.78-1.74,1.38-2.44,.52-.6,1.37-.66,2.21-.71,1.47-.08,2.79,.37,4.14,.81Z"/><path class="cls-18" d="M126.7,40.33c0-.07,0-.14,0-.2-.21-.19-.26-.45-.21-.71,.26-1.34,.06-2.69,.15-4.04,.12-1.83-.27-3.56-.9-5.26,0-.19,.06-.35,.19-.48,.76,.97,1.28,2.11,1.31,3.3,.07,2.14,.25,4.3-.16,6.43-.06,.34-.12,.7-.38,.96Z"/><path class="cls-14" d="M19.85,67.73c-.07,0-.13,0-.2,0,.94-2.57,2.37-4.86,3.96-7.06,.22-.31,.51-.58,.89-.71,0,0,0,0,0,0,.28,.44-.07,.74-.29,1.02-1.48,1.87-2.68,3.91-3.69,6.07-.14,.29-.2,.71-.68,.68Z"/><path class="cls-14" d="M122.23,113.58c4.92,0,9.84,0,14.77,0-.22,.27-.53,.19-.81,.19-4.38,0-8.76,0-13.15,0-.28,0-.59,.08-.81-.19Z"/><path class="cls-8" d="M125.92,29.65c0,.13,0,.26,0,.39-.41,.11-.56-.22-.77-.45-.92-.97-1.94-1.77-3.19-2.31-.7-.3-1.56-.53-1.68-1.52,.07,0,.13,0,.2,0,1.01,.54,2.01,1.1,3.04,1.61,1.04,.52,1.76,1.36,2.4,2.28Z"/><path class="cls-8" d="M80.65,8.86c-.13,0-.26,0-.39,0-.09,.05-.2,.09-.28,.04-1.66-.92-3.31-1.84-4.8-3.02,.01-.05,.02-.09,.04-.14,1.32,.34,2.48,1.03,3.6,1.78,.63,.42,1.23,.89,1.84,1.34Z"/><path class="cls-14" d="M36.75,117.66c.16-.21,.39-.19,.61-.19,2.38,0,4.75,0,7.13,0,.22,0,.45-.02,.61,.19-2.78,0-5.57,0-8.35,0Z"/><path class="cls-14" d="M89.2,127.76c.67-.34,1.4-.4,2.14-.39-.66,.41-1.4,.4-2.14,.39Z"/><path class="cls-14" d="M40.83,5.75c0,.65,0,1.3,0,1.94-.4-.65-.4-1.3,0-1.94Z"/><path class="cls-14" d="M118.74,113.38c.71-.31,1.42-.31,2.14,0-.71,0-1.42,0-2.14,0Z"/><path class="cls-14" d="M117.76,113.77c.13,0,.26,0,.39,0-.32,.41-.58,.88-1.17,.97-.02-.04-.03-.09-.05-.13,.09-.39,.36-.62,.69-.82,.04,0,.09-.02,.14-.03Z"/><path class="cls-18" d="M146.13,56.85c.13-.58,.09-1.2,.39-1.75-.05,.6,.17,1.26-.39,1.75Z"/><path class="cls-18" d="M146.52,55.1c0-.58,0-1.17,0-1.75,.31,.58,.31,1.17,0,1.75Z"/><path class="cls-18" d="M154.68,74.72c.34-.29,.74-.37,1.17-.39-.31,.37-.73,.4-1.17,.39Z"/><path class="cls-14" d="M116.4,115.33c0-.13,0-.26,0-.39-.05-.18,.05-.26,.2-.31,.15-.03,.28,0,.39,.12,0,0,0,0,0,0-.13,.26-.32,.46-.58,.58Z"/><path class="cls-14" d="M121.26,113.38c.33,.05,.7-.13,.97,.19-.33-.05-.7,.13-.97-.19Z"/><path class="cls-14" d="M137,113.58c.27-.32,.64-.15,.97-.19-.27,.32-.64,.15-.97,.19Z"/><path class="cls-8" d="M74.44,5.36c.19,0,.39,0,.58,0,.07,.13,.13,.25,.2,.38,0,0,0,0,0,0-.42,.19-.7,.11-.78-.39Z"/><path class="cls-70" d="M19.85,67.73c1.08-1.77,1.84-3.72,3.07-5.41,.56-.76,1.29-1.42,1.59-2.36,.96-.72,1.68-1.69,2.52-2.53,.29-.05,.32,.16,.37,.36,.02,.51-.34,.81-.65,1.14-4.01,4.12-6.49,9.08-7.97,14.59-.21,.77-.32,1.59-.82,2.25-.12,.1-.28,.2-.42,.12-.15-.09-.15-.25-.04-.4,.34-2.39,1.2-4.63,2.08-6.85,.12-.3,.29-.58,.26-.91Z"/><path class="cls-76" d="M16.93,52.77c-4.12-.38-8.19,.6-12.3,.41-2.68-.12-4.21-1.54-4.21-4.22,0-1.67-.2-3.36,.58-4.94,.27-.17,.42-.04,.54,.21,.12,.4-.06,.76-.16,1.13-.41,1.53-.42,3.06-.03,4.59,.34,1.31,1.16,2.15,2.52,2.37,2.03,.33,4.05,.18,6.07-.12,1.65-.24,3.33-.33,4.99-.22,.92,.06,1.88-.06,2.77,.29,.14,.12,.32,.33,.18,.45-.27,.24-.62,.17-.95,.04Z"/><path class="cls-73" d="M27.42,55.68c-1.45-.46-2.86-1.05-4.31-1.53-1.15-.38-2.35-.54-3.47-1,.11-.2,.12-.48,.42-.54,1.71,.02,3.25,.69,4.83,1.23,.96,.33,1.97,.6,2.76,1.3,.08,.25-.48,.21-.23,.53Z"/><path class="cls-74" d="M1.39,44.22c-.08-.16-.23-.2-.39-.2,.53-1.17,1.35-2.07,2.34-2.9,.98-.83,1.87-1.76,2.9-2.54,.29-.06,.31,.15,.35,.34-.03,.39-.27,.66-.55,.87-.83,.61-1.49,1.4-2.28,2.04-.66,.53-1.2,1.14-1.69,1.81-.18,.24-.24,.63-.67,.58Z"/><path class="cls-74" d="M6.44,38.96c0-.16-.04-.3-.2-.39,.73-.74,1.51-1.43,2.36-2.02,.29-.2,.6-.35,.76-.69,.13,0,.26,0,.38,0,.08,.18,0,.38,.06,.57-.77,1.08-1.94,1.7-2.92,2.54-.12,.1-.3,.11-.45,0Z"/><path class="cls-63" d="M27.42,55.68c-.08-.1-.23-.22-.21-.28,.06-.18,.26-.07,.4-.1,.6,.03,1.18,.27,1.19,.88,.01,.63-.44,1.11-1.15,1.19-.15-.05-.27-.12-.22-.32,.13-.13,.25-.26,.38-.4,.28-.49-.03-.74-.39-.97h0Z"/><path class="cls-76" d="M19.84,52.76c.1,.22,.14,.41-.2,.4-.06,0-.12,0-.19,0-.36-.25-.81,.05-1.17-.19h0c-.21-.52,.19-.53,.51-.61,.39,.02,.77,.09,1.05,.4Z"/><path class="cls-73" d="M18.88,52.57c-.28,0-.57,0-.59,.4-.45-.07-.95,.17-1.36-.19,.23-.2,.86,.41,.78-.4,.45-.27,.88-.45,1.17,.2Z"/><path class="cls-73" d="M27.42,55.68c.63,.12,.75,.45,.39,.97,.08-.41-.21-.67-.39-.97Z"/><path class="cls-70" d="M27.43,57.05l.2,.2c.17,.4,.02,.59-.4,.59,0-.16-.04-.31-.2-.4,.08-.19,.2-.32,.39-.38Z"/><path class="cls-73" d="M18.29,52.96c.39,.06,.83-.16,1.17,.19-.39-.06-.82,.15-1.17-.19Z"/><path class="cls-72" d="M116.6,114.74c-.06,.06-.13,.13-.19,.19-3.48,2.84-7.08,5.47-11.14,7.45-4.52,2.2-9.22,3.79-14.14,4.75-1.15,.23-2.33,.32-3.47,.63-4.37,.41-8.76,.39-13.15,.42-2.52,.02-4.93-.46-7.26-1.33-1.37-.51-2.8-.72-4.19-1.13-4.71-1.4-9.08-3.5-13.23-6.09-.74-.46-1.47-.93-2.2-1.39-.53-.79-1.34-.96-2.2-.96-2.97-.01-5.94,0-8.91-.01-1.29,0-2.55-.31-3.79-.6-2.61-.62-4.15-2.33-4.44-4.95-.22-2-.31-4.06,.11-6.06,.16-.75,.51-1.45,.77-2.17,.65-.62,1.38-1.18,1.93-1.88,1.07-1.36,.26-2.67-.28-3.96-1.08-2.54-2.2-5.06-2.81-7.76-.1-.27-.25-.52-.27-.81,.07-.19,.14-.39,.4-.4,.41,.24,.47,.68,.59,1.08,.88,2.92,1.92,5.77,3.25,8.52,.82,1.7,.59,3.17-.8,4.42-1.77,1.59-2.41,3.53-2.32,5.82,.05,1.19-.08,2.4,.24,3.57,.53,1.97,1.68,3.28,3.74,3.79,2.08,.51,4.17,.84,6.33,.77,2.36-.08,4.73,.08,7.09-.08,.49-.03,.87,.2,1.24,.47,4.03,3.06,8.5,5.32,13.2,7.12,2.36,.9,4.87,1.34,7.26,2.13,2.86,.94,5.76,1.29,8.77,1.26,4.05-.04,8.08-.14,12.08-.78,3.33-.54,6.62-1.25,9.79-2.38,6.56-2.33,12.54-5.69,17.64-10.49,.45-.42,.92-.82,1.42-1.18,.68-.49,1.39-.67,2.28-.51,1.01,.18,2.03,.35,3.07,.35,4.37,0,8.74,.02,13.11-.01,1.49-.01,2.96-.23,4.37-.81,1.83-.75,3.07-2.05,3.55-3.96,.61-2.42,.57-4.87-.05-7.29-.32-1.25-1.18-2.16-2.15-2.92-.85-.66-1.43-1.45-1.83-2.45-.59-1.46-1.5-2.71-2.61-3.82-.57-.57-.92-1.23-1.04-2.04-.1-.67-.19-1.34-.42-1.99-.38-1.07-1.05-1.86-2.08-2.31-.66-.29-1.27-.64-1.22-1.45,.05-.85,.42-1.54,1.26-1.92,2.44-1.12,4.91-2.19,7.4-3.18,4.42-1.75,8.89-3.4,13.43-4.83,3.46-1.1,4.65-3.28,3.87-6.88-.08-.35-.19-.69-.21-1.05,.02-.24-.01-.54,.29-.61,.25-.06,.18,.27,.32,.37,.63,2.5,.77,4.92-.76,7.22-.5,.75-1.4,.75-1.96,1.33-2.43,.62-4.8,1.45-7.15,2.33-3.2,1.19-6.38,2.41-9.55,3.68-1.76,.71-3.47,1.53-5.19,2.32-.44,.2-.82,.51-.85,1.08-.03,.61,.46,.71,.85,.92,1.74,.93,2.35,2.56,2.64,4.37,.06,.39,.07,.77,.4,1.05,.11,.86,.86,1.25,1.35,1.84,.98,1.18,1.65,2.54,2.3,3.91,.25,.54,.62,.94,1.1,1.31,1.79,1.36,2.7,3.13,2.88,5.44,.15,1.92,.17,3.81-.26,5.65-.74,3.2-3.08,4.84-6.26,5.13-5.55,.52-11.11,.12-16.67,.21-.77,.01-1.52-.21-2.31-.2-.73,0-1.32,.2-1.76,.79,0,0,0,0,0,0-.44,.26-.73,.71-1.17,.97Z"/><path class="cls-72" d="M9.75,36.26c-.23-.13-.03-.27-.02-.41,1.05-1.07,2.35-1.8,3.57-2.62,2.35-1.58,4.77-3.06,7.25-4.45,3.51-1.96,7.15-3.63,11.03-4.66,2.78-.74,5.6-1.44,8.52-1.47,.31,0,.6-.04,.68-.4,.07-.3-.15-.49-.35-.64-1.74-1.21-3.49-2.41-5.24-3.62-1.6-1.57-2.36-4.38-.59-6.22,.14-.11,.28-.11,.43-.03,.21,.31,.11,.58-.09,.85-1.27,1.26-.64,3.44,.81,4.69,1.72,1.48,3.74,2.54,5.48,3.97,.32,.26,.74,.44,.81,.91-.35,.19-.61,.46-.73,.85-.67,.44-1.45,.31-2.17,.39-8.22,.9-15.55,4.12-22.42,8.55-2.01,1.3-4.01,2.61-5.96,3.98-.29,.21-.56,.59-1.02,.33Z"/><path class="cls-72" d="M74.44,5.36c.2,.25,.47,.35,.78,.39,1.68,1.04,3.37,2.07,5.05,3.11,1.26,1.14,2.57,2.21,3.87,3.3,1.77,1.49,3.18,3.27,4.65,5.01,.82,.98,1.51,2.08,2.28,3.11,.27,.35,.55,.71,1.03,.84,1.96,.51,3.91,1.02,5.87,1.54,1.91,.84,3.91,1.45,5.79,2.38,.82,.41,1.72,.52,2.59-.03,1.44-.92,3.09-1.09,4.71-1.15,2.54-.1,5.08-.12,7.5,.94,.62,.27,1.02,.92,1.75,.97,.25,.48,.68,.81,1.14,.99,1.79,.71,3.25,1.84,4.5,3.28,1.38,3.08,1.06,6.3,.79,9.51-.02,.19,0,.39-.01,.58-.24,.49-.43,1.02-.74,1.45-.82,1.15-.66,2.18,.16,3.27,.54,.72,.91,1.56,1.39,2.33,.4,.65,.94,.95,1.76,.94,3.04-.05,6.09-.09,9.13,0,1.63,.05,3.28,.1,4.88,.56,1.23,.35,2.03,1.09,2.51,2.32,.88,2.26,.46,4.43-.25,6.61-.82,1.18-2.03,1.81-3.35,2.37,1.13,.47,2.28,.56,3.41,.74,3.7,.57,7.4,1.12,11.01,2.14,.2,.4-.06,.48-.36,.55-1.94-.29-3.82-.89-5.77-1.13-2.8-.35-5.55-1.09-8.38-1.21-.3-.01-.56-.12-.78-.34-.21-.35-.3-.73-.28-1.14,.29-.35,.73-.39,1.12-.55,2.54-1.02,3.6-2.7,3.37-5.45-.02-.29-.04-.58-.08-.87-.27-2.22-1.13-3.18-3.33-3.54-1.85-.31-3.72-.45-5.6-.44-2.72,.01-5.44-.04-8.16,.03-.64,.02-1.03-.24-1.32-.78-.65-1.23-1.38-2.42-2.14-3.58-.56-.85-.62-1.66-.02-2.52,1.05-1.52,1.36-3.26,1.36-5.08,0-1.04,.03-2.07-.08-3.11-.28-2.75-1.66-4.71-4.22-5.8-.72-.31-1.36-.73-1.97-1.22-1.52-1.23-3.21-2.03-5.24-1.91-.68,.04-1.3-.4-2-.31-2.1,.26-4.28,.11-6.17,1.31-1.02,.65-2.03,.53-3.04,.03-3.54-1.74-7.29-2.83-11.1-3.77-.97-.24-1.66-.74-2.22-1.57-4.96-7.34-11.5-12.71-19.8-15.91-3.58-1.38-7.26-2.29-11.07-2.77-2.57-.32-5.13-.69-7.72-.63-2.03,.05-4.07,.23-6.07,.57-2.69,.45-3.46,1.46-3.65,4.19-.1,1.47-.01,2.9,.46,4.3,.1,.31,.19,.62,.16,.95-.26,.35-.57,.65-.92,.92-.75-.05-1.43-.33-2.12-.58-1.13-.42-2.29-.62-3.48-.29-.29,.06-.57,.19-.88,.07-.04-.03-.08-.07-.11-.1,.34-.61,.89-.74,1.55-.8,1.42-.13,2.75,.25,4.08,.6,.27,.29,.61,.27,.88,.1,.37-.23,.11-.61,.04-.88-.55-1.92-.55-3.82-.23-5.81,.32-2.04,1.67-2.97,3.33-3.25,3.52-.59,7.08-.94,10.67-.48,1.24,.16,2.51,.16,3.76,.23,4.17,.69,8.29,1.57,12.24,3.14,1.05,.42,2.07,.89,3.11,1.33Z"/><path class="cls-71" d="M156.24,63.25c.25,0,.38-.14,.38-.39,1.21,.44,2.09,1.19,2.33,2.53-.1-.07-.2-.15-.3-.22-.03,.14-.06,.28-.1,.43-.25,.06-.35-.12-.41-.3-.23-.72-.81-1.1-1.39-1.5-.21-.15-.59-.13-.53-.54Z"/><path class="cls-70" d="M27.81,89.1c.13,.24,.23,.49,.19,.78-.35-.56-.73-.65-1.35-.32-2.51,1.33-5.12,1.46-7.81,.54-1.35-.46-1.87-1.55-2.3-2.75,.06-.9-.17-1.79-.18-2.68-.03-2.37,.21-4.73,.67-7.05,.14-.71,.1-1.46,.47-2.12,0,.35,.18,.3,.4,.2,.29,.78-.01,1.54-.16,2.27-.4,1.93-.62,3.89-.69,5.85-.05,1.4,.13,2.83,.66,4.17,.26,.67,.77,1.11,1.43,1.37,2.43,.93,4.79,.77,7.07-.47,.31-.17,.58-.41,.94-.47,.39,.07,.48,.42,.65,.7Z"/><path class="cls-72" d="M35,11.77c-.13,0-.27,0-.4,0,.02-.27,.14-.48,.4-.58,0,0,0,0,0,0,.15,.19,.17,.39,0,.58Z"/><path class="cls-8" d="M116.6,114.74c.32-.41,.59-.87,1.17-.97-.26,.32-.52,.65-.78,.97-.13,0-.26,0-.39,0Z"/><path class="cls-19" d="M27.42,88.51c-1.07,.49-2.04,1.18-3.23,1.45-1.88,.42-3.67,.28-5.42-.48-.61-.26-1.07-.71-1.29-1.36-.59-1.83-.73-3.67-.58-5.61,.18-2.31,.61-4.56,1-6.82,.85-3.3,1.87-6.54,3.43-9.59,1.42-2.76,3.17-5.29,5.38-7.49,.22-.22,.51-.41,.52-.78,.24-.13,.38-.31,.4-.59,1.3-.71,1.3-1.07-.02-1.95-2.46-1.25-5.03-2.13-7.76-2.54-.32-.06-.64-.13-.96-.19-.35-.32-.78-.13-1.17-.2-2.31-.05-4.65-.37-6.9-.07-1.95,.26-3.88,.44-5.84,.45-.72,0-1.42-.12-2.07-.4-1.63-.72-1.93-2.21-2.07-3.76-.14-1.49,.12-2.95,.57-4.37,1.02-1.73,2.56-2.96,4.07-4.22,.36-.3,.65-.69,.98-1.04,1.17-.82,2.29-1.7,3.32-2.71,1.66-1.11,3.3-2.23,4.97-3.33,5.03-3.31,10.25-6.28,16.05-8.04,2.1-.64,4.24-1.14,6.44-1.43,1.39-.19,2.81-.27,4.18-.59,.29-.12,.53-.3,.63-.63-1.48-1.39-3.22-2.41-4.87-3.57-1.07-.76-2.14-1.51-2.77-2.74-.62-1.2-.47-2.73,.4-3.39,.14-.08,.32-.18,.28-.33-.15-.64,.28-.92,.7-1.21,1.28-.39,2.52-.18,3.75,.23,.75,.25,1.51,.49,2.27,.74,.23-.16,.38-.41,.59-.59-.46-1.47-.97-2.98-.88-4.49,.08-1.38-.06-2.96,1.04-4.09,.99-1.01,2.36-1.39,3.7-1.47,2.11-.13,4.2-.55,6.33-.43,2.21,.12,4.4,.36,6.6,.63,2.75,.33,5.42,.89,8.06,1.66,3.4,.98,6.61,2.41,9.65,4.2,3.38,1.99,6.41,4.44,9.08,7.3,1.53,1.64,3.12,3.3,4.18,5.29,.83,1.56,2.24,1.84,3.65,2.17,3.37,.79,6.62,1.87,9.73,3.4,1.05,.52,2.03,.53,3.08-.05,1.24-.68,2.5-1.19,4.04-1.02,.71,.08,1.55-.36,2.36-.27,2.69,.3,5.43,.43,7.51,2.59,.73,.76,1.87,.86,2.73,1.44,2.1,1.42,3.15,3.42,3.2,5.95,.03,1.48,.12,2.96-.08,4.45-.18,1.32-.62,2.5-1.38,3.57-.5,.69-.35,1.34,.07,1.97,.82,1.24,1.61,2.5,2.27,3.83,.21,.43,.48,.55,.99,.54,3.33-.05,6.67-.12,10,0,1.4,.05,2.81,.17,4.21,.44,1.79,.35,2.75,1.38,3.09,3.12,.29,1.51,.28,2.99-.22,4.45-.64,1.86-2.25,2.46-3.9,3.01-.15,.05-.28,.13-.42,.2-.31,.36-.15,.6,.2,.79,1.23,.47,2.56,.34,3.83,.58,3.71,.7,7.49,1.1,11.14,2.13,1.1,.46,1.89,1.22,2.32,2.34,.47,1.51,.51,3.04,.19,4.59-.3,1.47-1.01,2.55-2.48,3.07-3.4,1.22-6.85,2.32-10.24,3.58-4.12,1.52-8.14,3.27-12.18,5-.77,.33-.97,1.04-1.04,1.73-.06,.61,.45,.9,1.03,1.1,1.46,.5,2.38,1.72,2.46,3.09,.12,1.96,1.12,3.29,2.31,4.59,.83,.91,1.34,1.99,1.79,3.09,.29,.7,.68,1.22,1.27,1.65,1.88,1.35,2.77,3.18,2.92,5.52,.1,1.59,.05,3.14-.22,4.69-.51,2.91-2.44,4.44-5.03,5.09-1.37,.35-2.79,.44-4.22,.42-4.14-.03-8.29,.01-12.43-.03-1.04-.01-2.09-.19-3.12-.39-.79-.15-1.37,.16-1.91,.63-2.24,1.94-4.45,3.92-6.92,5.57-3.12,2.09-6.44,3.78-9.93,5.19-2.55,1.03-5.16,1.78-7.82,2.4-2.39,.56-4.81,.93-7.25,1.22-3.7,.43-7.4,.3-11.1,.37-2.19,.04-4.24-.5-6.3-1.13-2.46-.75-5-1.24-7.41-2.13-3.33-1.24-6.58-2.68-9.61-4.57-1.48-.92-2.97-1.82-4.32-2.94-.2-.16-.43-.24-.72-.22-3.3,.23-6.6,.16-9.89,.05-1.57-.05-3.19-.41-4.68-1.02-1.61-.66-2.51-2-2.91-3.65-.42-1.72-.28-3.48-.18-5.21,.09-1.69,.83-3.16,2.2-4.27,.87-.71,1.33-1.6,1.31-2.78,0-.56-.16-1.04-.38-1.46-1.51-2.95-2.5-6.09-3.51-9.22-.06-.18-.16-.34-.24-.51-.23,.04-.44,.02-.6-.18Z"/><path class="cls-67" d="M27.42,88.51c.22,0,.45-.04,.6,.18-.02,.16-.04,.32-.21,.41-.21-.15-.63-.15-.39-.59Z"/><path class="cls-65" d="M42.02,22.24c.19,.57,.02,.75-.63,.63-.05-.27-.1-.54-.15-.85,.28,.08,.53,.15,.78,.22Z"/><path class="cls-2" d="M35.78,11c-.59,.35-.39,1.2-.98,1.54,.15-.24,.25-.49,.21-.77,0-.19,0-.39,0-.58,.28,.03,.54-.06,.78-.19Z"/><path class="cls-60" d="M141.27,60.54c-.32,0-.76,.09-.86-.27-.12-.47,.47-.3,.66-.52,.42,.17,.4,.46,.2,.79Z"/><path class="cls-68" d="M42.39,11.38c0,.4,.04,.82-.59,.59-.17-.57,.02-.76,.59-.59Z"/><path d="M31.36,78.39c-3.41,2.23-6.6,4.74-9.71,7.71-.03-1.6,.14-2.99,.33-4.36,.94-6.82,3.21-13.09,7.75-18.39,1.07-1.25,2.22-2.43,3.57-3.39,1.46-1.29,3.18-2.18,4.84-3.17,.27-.16,.64-.17,.75-.55-.54-.74-1.32-1.17-2.03-1.69-.38-.28-.82-.49-1.07-.93-5.09-3.34-10.68-5.32-16.7-6.09-4.57-.58-9.1-.34-13.6,.61-.21,.06-.44,.14-.41-.23,7.68-7.86,16.54-14,26.84-17.89,8.42-3.18,16.93-2.88,25.35,.25,.33,.12,.67,.21,1.01,.32,.31,.02,.58,.13,.85,.27,.53,.28,1.17,.25,1.66,.62,1.22,.64,2.39,1.37,3.83,2.09-.32-1.65-.87-3.03-1.37-4.42-.16-.27-.19-.57-.15-.88-2.55-6.12-6.63-11.14-11.27-15.77-1.86-1.85-3.71-3.71-5.68-5.44-.16-.14-.39-.24-.41-.57,2.68-.5,5.39-.65,8.1-.52,9.02,.41,17.18,3.2,24.27,8.91,3.56,2.87,6.52,6.27,8.92,10.17,.23,.38,.39,.82,.79,1.09,1.25,1.71,1.99,3.68,2.77,5.61,1.27,3.15,2.08,6.44,2.54,9.8,.08,.58,.26,.83,.85,.95,1.14,.23,2.26,.53,3.35,.93,1.48,.66,2.97,1.32,4.35,2.2,.9,.8,2.02,1.33,2.7,2.38,.96,1.21,2.07,2.3,2.94,3.59,.49,.83,1.04,1.63,1.41,2.54,.15,.38,.43,.7,.87,.61,.92-.19,1.86-.11,2.79-.23,2.61-.34,5.25-.56,7.88-.63,2.86-.08,5.7-.44,8.57-.43,3.06,0,6.12,0,9.18,0,.31,0,.65-.1,.94,.1,.78,.06,1.55,.13,2.33,.19,.12,.12,.12,.25,0,.37-5.01,1.59-9.78,3.73-14.39,6.25-.08,.04-.12,.13-.18,.2-.59,.68-1.37,1.08-2.19,1.41-1.35,.61-2.6,1.39-3.72,2.46,3.3,.06,6.58,.17,9.86,.34,4.5,.08,8.96,.64,13.4,1.27,3.36,.48,6.69,1.11,10,1.86,.3,.07,.6,.16,1.1,.29-2.22,.72-4.24,1.37-6.25,2.05-6.71,2.27-13.27,4.9-19.68,7.9-.29,.14-.61,.21-.83,.48-.74,.71-1.72,.99-2.61,1.43-2.26,1.12-4.48,2.29-6.73,3.43-.37,.19-.75,.37-1.05,.7,.09,.41,.55,.4,.77,.67,2.04,1.12,4.22,1.88,6.43,2.56,.65,.2,1.24,.52,1.9,.68,1.73,.4,3.47,.81,5.2,1.21-.04,.42-.37,.23-.57,.25-.77,.07-1.55-.09-2.32,.09-1.15,.05-2.32-.1-3.45,.21-1.17,.45-2.42,.33-3.63,.43-6.12,.49-12.15,1.5-18.13,2.88-.34,.08-.69,.19-1.05,.18-.29-.05-.51-.21-.7-.43-2.71-1.95-5.78-2.67-9.07-2.52-.62,.03-1.04-.11-1.43-.57-.93-1.08-1.89-2.13-2.86-3.17-.38-.41-.46-.69-.08-1.21,4.18-5.69,3.23-12.57-2.31-17-2.52-2.01-5-1.61-6.76,1.08-1.28,1.96-1.57,4.09-.94,6.32,.16,.57,.09,.96-.26,1.41-1.27,1.63-2.53,3.27-4,4.77,.71-2.52,1.09-5.06,.72-7.88-2.12,2.63-3.89,5.24-5.63,8-.23-.46-.14-.85-.15-1.21-.04-3.88-.11-7.77-.67-11.62-.37-2.56-1.53-4.71-3.26-6.59-.45-.49-.67-.52-.99,.13-1.38,2.76-2.51,5.61-3.32,8.58-.1,.36-.21,.72-.33,1.13,.72,0,1.03-.61,1.47-.97,1.88-1.53,1.96-1.53,3.57,.34,.13,.15,.25,.3,.36,.46,.49,.65,1.18,1.41,1.07,2.11-.14,.88-1.29,.57-1.98,.8-1.48,.49-2.9,1.08-4.3,1.77-.88,.43-1.24,1.04-1.21,1.97,0,.37-.05,.74-.07,1.09-.25,.04-.28-.1-.34-.21-.7-1.34-.69-1.33-1.84-.28-1.13,1.03-2.05,2.24-2.97,3.45-.39,.02-.34-.21-.26-.46,.74-2.09,1.86-3.97,3.12-5.78,.2-.28,.43-.52,.26-.95-1.32-3.38-2.23-6.87-2.93-10.43-.01-.06-.06-.11-.14-.28-2.33,6.61-3.32,13.33-3.1,20.24-.13,.79-.58,.41-.89,.2-.97-.65-1.94-1.28-2.97-1.83-.8-.42-1.61-.82-2.46-1.12-.85-.3-1.19-.9-1.22-1.77-.05-1.89,.29-3.72,.66-5.56,.18-.57,.13-1.19,.39-1.74,.07-.18,.16-.35,.25-.52,.09-.17,.21-.32,.24-.52,.12-.81-.19-1.09-.98-.85-1.36,.41-2.67,.96-3.97,1.5-1.78,.74-3.53,1.57-5.22,2.47-1.34,.71-2.73,1.46-3.91,2.48-.1,.1-.23,.14-.35,.21Z"/><path class="cls-13" d="M45.12,75.33c-.24,1.76-.59,3.5-.62,5.29-.02,.95,.21,1.52,1.21,1.88,1.95,.7,3.71,1.81,5.43,2.97,.22,.15,.48,.57,.66-.04,.07,.32,.07,.66,.3,.93,.7,.93,1.45,1.85,1.05,3.14-.22,.72-.75,1.27-1.13,1.9-.17,.27-.45,.48-.45,.84h-.05s.05,0,.05,0c-.74,.77-1.55,1.47-2.23,2.3-.06,.06-.12,.12-.18,.18-.19,.3,.07,.31,.24,.35,.56,.15,1.1,.36,1.67,.42,1.29,.14,2.17,.69,2.38,2.05,.33,.95,.89,1.7,1.87,2.08,.27,.1,.52,.25,.56,.6,.11,1.11,.89,1.74,1.73,2.29,1.23,.81,2.14,1.85,2.41,3.34v-.02c.56,1.1,.75,2.37,1.56,3.36,.05,.05,.1,.1,.15,.15,.91,.53,1.8,1.13,2.89,1.23,1.02,.09,1.98-.09,2.83-.71,.34-.25,.7-.46,1.11-.56,.15-.03,.31-.02,.46,.02,.52,.17,.94,.54,1.44,.76,1.16,.5,2.31,.38,3.45-.03,.15-.04,.3-.05,.46-.01,.49,.55,.28,1.25,.33,1.86,.29,3.37-.53,6.52-2.08,9.49-.32,.62-.78,.83-1.51,.69-7.4-1.37-14.13-4.25-20.16-8.75-.75-.56-1.52-1.1-2.19-1.76-.2-.41,.08-.64,.33-.87,.25-.23,.5-.47,.71-.74,1.11-1.48,1.06-3,.17-4.56-.08-.17-.15-.34-.2-.52-.09-.61-.42-.94-1.05-1.07-.65-.14-1.28-.4-1.95-.5-.72-.29-1.03-1.01-1.61-1.46-1.33-1.04-2.78-1.52-4.46-1.16-.74,.18-1.41,.1-1.92-.55-.58-.65-.89-1.47-1.43-2.15-.01-.11-.03-.21-.04-.32-.21-.32-.33-.68-.57-.98-.18-.39-.36-.79-.54-1.18-.2-.23-.25-.54-.4-.8h0c-.26-.23-.21-.63-.44-.89-.06-.14-.12-.29-.18-.43-.17-.47-.45-.9-.55-1.39h0c-.4-.67-.52-1.44-.8-2.16-.62-2.29-1.41-4.54-1.7-6.91,.58-1.08,1.68-1.55,2.57-2.27,.4-.21,.69-.56,1.04-.83,1.11-.69,2.14-1.5,3.28-2.14,.33-.19,.69-.53,1.09-.07-.03,.6-.62,.9-.78,1.43-.47,.62-.76,1.34-1.18,1.99-.51,1.05-.99,2.12-1.32,3.24,.29-1.1,.82-2.11,1.28-3.15,.42-.64,.7-1.36,1.17-1.97,.3-.64,.81-1.14,1.12-1.78,.15-.23,.32-.43,.51-.63,.17-.17,.34-.33,.53-.46,.85-.62,1.8-1.07,2.74-1.54,.72-.36,.93-.18,.92,.6Z"/><path class="cls-13" d="M96,28.18c1.69,.5,3.33,1.14,4.87,2.01,.75,.63,1.64,1.03,2.52,1.4,.97,.41,1.78,1.02,2.64,1.57,.94,.61,.94,1.19-.11,1.63-.68,.28-1.07,.66-1.17,1.37-.98,2.02,.62,3.96,2.87,3.92,2.07-.04,4.13-.01,6.2,0,.45,0,.91-.06,1.31,.22,.12,.11,.19,.26,.3,.38,1.22,1.45,2.43,2.89,3.65,4.34,.23,.25,.49,.48,.59,.83,.12,.18,.23,.36,.35,.54,.6,.5,.87,1.23,1.25,1.88l-.03,.07c.16,.38,.42,.68,.67,1,.14,.16,.19,.37,.31,.53,0,.06,.02,.12,.04,.17,.76,.88,1.16,1.97,1.68,2.98,.12,.23,.25,.47-.09,.65-1.45,.48-2.96,.15-4.43,.34-.6,.08-1.22,.04-1.83,.12-.5-.02-.99,.03-1.49,.06-.16,0-.32-.04-.46-.11-.36-.2-.5-.57-.7-.91-3.12-5.38-7.72-8.75-13.8-10.08-1.35-.3-1.34-.35-1.55-1.77-.62-4.18-1.83-8.18-3.6-12.02-.16-.36-.51-.74,0-1.11Z"/><path class="cls-73" d="M137.2,107.76c-.3,.29-.67,.18-1.01,.18-3.13,0-6.27,.08-9.4-.05-1.64-.07-3.29-.03-4.92-.17-1.77-.15-3-1.22-3.91-2.69-.15-.07-.28-.16-.37-.31-.58-1.38-.74-2.77-.11-4.18,.67-.88,1.13-1.94,2.14-2.53,.79-.43,1.62-.77,2.51-.87,.73-.08,1.15-.42,1.38-1.08,.05-.15,.15-.28,.3-.36,1.43-1.34,3.08-2.21,5.07-2.3,3.12,.94,4.94,3.04,5.53,6.22,.12,.66,.61,.83,1.14,1.04,2.65,1.07,3.37,4.16,1.48,6.22-.38,.41-.86,.63-1.35,.84,.52-.22,1.02-.37,1.52,.05Z"/><path class="cls-59" d="M96,28.18c-.19,.74,.35,1.27,.61,1.85,1.59,3.52,2.54,7.22,3.25,10.99,.03,.16,.04,.33,.02,.48-.14,.82,.25,1.15,1.03,1.28,3.39,.56,6.37,2.04,9.05,4.14,2.42,1.9,4.34,4.21,5.69,6.99-.48,.47-1.11,.23-1.66,.32-1.2,.21-2.43,.17-3.63,.45-.79,.19-1.32-.12-1.7-.88-.91-1.82-2.03-3.5-3.51-4.92-.12-.08-.24-.16-.32-.28-.86-1.24-2.07-2.09-3.28-2.95-1.22-.79-2.55-1.37-3.86-1.98-1.13-.59-2.37-.81-3.6-1.06-.66-.13-1.02-.4-1.09-1.11-.4-4.03-1.63-7.83-3.23-11.52-.34-.79-.62-1.62-1.07-2.36q-.68-1.1,.51-1.28c2.34,.35,4.61,.96,6.8,1.83Z"/><path class="cls-59" d="M102.99,93.2c5.47-1.39,11.01-2.35,16.63-2.92,1.89-.19,3.78-.35,5.67-.51,.21-.02,.43,.07,.65,.11,.04,.24-.13,.4-.22,.59-.56,.44-1.24,.28-1.86,.36-4.12,.53-8.2,1.29-12.25,2.21-.56,.03-1.33-.12-1.56,.4-.16,.35,.42,.89,.75,1.29,.06,.07,.12,.14,.19,.22,1.35,2.51,2.01,5.23,2.35,8.03,.09,.73,.22,1.47,.24,2.21,.01,.68,.43,1.12,.98,1.46,.35,.21,.79,.35,.82,.87-.85,1.36-2.11,2.32-3.32,3.32-.39,.33-.65,.06-.89-.22-1.36-1.59-2.76-3.14-4.64-4.16-.31-.17-.43-.44-.43-.8-.05-4.13-1.13-8-2.95-11.68-.12-.24-.22-.46-.17-.74Z"/><path class="cls-73" d="M46.48,111.81c-3.49,0-6.98,.03-10.48,0-1.41,0-2.52-1.05-2.74-2.42-.21-1.3,.5-2.6,1.86-3.03,.78-.25,.94-.68,1.06-1.36,.28-1.58,1.27-2.72,2.51-3.66,.28-.09,.5-.24,.64-.5,.43-.1,.87-.19,1.31-.22,.75-.21,1.41,.06,2.07,.35,.2,.09,.41,.2,.56,.36,1.08,1.17,2.37,1.98,3.9,2.39,2.37,1.62,2.91,4,1.49,6.39-.51,.86-1.37,1.25-2.18,1.71Z"/><path class="cls-73" d="M115.44,40.67c-.06-.05-.13-.1-.19-.15-.26-.46-.71-.38-1.12-.38-2.3,0-4.59-.02-6.89,0-2.26,.03-3.38-2.26-2.66-3.71,.13-.26,.19-.55,.31-.81,.16-.59,.7-.77,1.16-.92,.76-.24,.88-.69,.67-1.35,.41,.03,.49-.21,.61-.56,.74-2.17,3.07-3.85,5.36-3.91,.23,0,.45-.01,.64,.16-.16,.28-.43,.13-.65,.13,.25,.04,.48,.1,.72,.16,.56,.19,1.15,.44,1.47,.91,.77,1.15,1.97,1.48,3.17,1.84,3.09,1.51,3.13,6.18,.25,7.73-.67,.36,.4,.16,.09,.36-.74,.34-1.51,.2-2.25,.09-.42-.06-.61,.02-.67,.42Z"/><path class="cls-13" d="M115.25,107.49c-.02-.06-.03-.16-.07-.17-2.14-.73-1.9-2.61-2.09-4.29-.32-2.83-1.08-5.53-2.32-8.1-.07-.11-.15-.21-.21-.32-.79-1.37-.72-1.52,.8-1.82,3.14-.74,6.32-1.33,9.51-1.83,1.61-.25,3.22-.58,4.86-.5-.39,1.73-1.28,3.25-1.92,4.88-.19,.3-.21,.65-.36,.98-.26,.55-.56,.85-1.22,.87-.88,.03-1.68,.4-2.43,.85-1.03,.55-1.57,1.52-2.08,2.51-.51,1.12-.44,2.28-.16,3.44,.07,.27,.13,.55,.19,.82-.13,.32-.37,.56-.63,.78-.05,.06-.1,.11-.15,.17-.28,.67-1.03,.97-1.26,1.67-.14,.09-.26,.29-.45,.06Z"/><path class="cls-58" d="M118.55,84.99c-1.26-.72-1.29-.77,.01-1.47,3.22-1.73,6.43-3.49,9.82-4.89-.08,1.3-.18,2.59-.53,3.84-.69,.54-1.56,.77-2.28,1.25-.23,.15-.65,.2-.63,.53,.02,.38,.46,.4,.74,.52,.39,.16,.76,.35,1.16,.49,.36,.12,.43,.36,.28,.68l-.46,1.92c-1.21-.04-2.3-.54-3.4-.94-1.59-.57-3.18-1.18-4.71-1.93Z"/><path class="cls-59" d="M34.81,80.75c-.88,.72-1.77,1.44-2.65,2.16-.38-1.46-.48-2.97-.65-4.46,.18-.31,.51-.43,.78-.63,.07-.05,.14-.09,.22-.12,.32-.09,.59-.28,.83-.51,.07-.05,.14-.1,.22-.14,.73-.41,1.45-.86,2.22-1.21,2.44-1.16,4.83-2.47,7.39-3.37,.12-.04,.23-.12,.36-.15,.22-.07,.47-.11,.61,.12,.11,.19-.03,.37-.14,.53-.25,.34-.61,.59-.77,.99-.2,.42-.55,.72-.85,1.07-.45,.58-.91,1.15-1.39,1.7-.18,.18-.35,.37-.46,.6-.12,.15-.14,.44-.46,.33-.87-.14-1.34,.58-1.98,.93-.78,.42-1.44,1.07-2.28,1.41-.59-.08-.65,.53-.98,.78Z"/><path class="cls-33" d="M137.2,107.76h-1.67c.45-.5,1.01-.68,1.38-1.13,1.75-2.11,.85-5.17-1.79-5.86-.59-.15-.86-.38-.96-.99-.47-2.96-2.08-5.01-4.95-6.01-.2-.07-.36-.13-.35-.38,.05,0,.09,0,.14,0,.51,.21,1.07-.07,1.58,.16,3.3,.9,5.28,2.97,5.67,6.43,.06,.5,.34,.62,.75,.73,1.77,.46,2.84,1.69,2.91,3.29,.08,1.8-.84,3.08-2.71,3.76Z"/><path class="cls-22" d="M48.8,111.41c6.5,5.43,13.92,8.89,22.22,10.5,.7,.14,1.11,0,1.46-.68,1.8-3.53,2.63-7.21,1.78-11.16-.52-.66-.53-1.51-.78-2.26-.23-.69-.46-.9-1.13-.44-.8,.55-1.65,1.02-2.49,1.51-.33,.2-.66,.42-1.07,.4-.15,0-.28-.06-.38-.18,.98-.99,2.35-1.34,3.47-2.12,.16-.11,.27-.22,.35-.42,.11-.29,.32-.55,.67-.63,.04,.52,.71,.24,.9,.92,.58,2.05,1.03,4.06,1.08,6.22,.05,2.3-.41,4.46-1.26,6.55-.34,.84-.52,1.78-1.27,2.43-.27,.24-.53,.38-.85,.32-3.07-.62-6.09-1.41-9.02-2.51-2.82-1.06-5.51-2.39-8.09-3.96-2.02-1.23-3.85-2.72-5.78-4.08-.2-.14-.4-.19-.62-.21-.01-.37,.26-.4,.52-.45,.15,.02,.19,.17,.29,.24Z"/><path class="cls-49" d="M124.59,61.71c.7-.38,1.41-.76,2.11-1.15,.45,1.29,.78,2.62,.96,3.97-.12,.26-.35,.22-.58,.2-1.79-.16-3.59-.15-5.38-.1-.29,0-.67,.06-.78-.23-.15-.37,.24-.55,.49-.72,1.03-.7,2.08-1.38,3.18-1.97Z"/><path class="cls-6" d="M35.79,53.61c1.25,.75,2.5,1.5,3.46,2.62-1.35,.84-2.78,1.56-4.12,2.43-.46,.29-.8,.86-1.47,.75,.4-2.05,1.35-3.89,2.13-5.79Z"/><path class="cls-32" d="M118.36,40.16c-.32-.01-.64-.03-1.09-.05,.81-.45,1.53-.83,2.03-1.5,1.34-1.81,1.12-4.18-.54-5.75-.25-.24-.54-.45-.81-.67-.04-.19,0-.29,.22-.23,1.73,.07,3.07,1.24,3.52,3.04,.44,1.79-.33,3.67-1.89,4.59-.45,.27-.94,.43-1.44,.56Z"/><path class="cls-56" d="M63.38,29.04c.7,1.38,1.05,2.88,1.51,4.35,.14,.44-.05,.63-.5,.37-1.25-.72-2.51-1.44-3.76-2.16-.44-.44-1.04-.71-1.38-1.27-.04-.09-.04-.18-.01-.26,.63-.33,1.25-.66,1.95-.83,.43-.17,.84-.03,1.19,.19,.54,.34,.79,.08,1-.38Z"/><path class="cls-24" d="M115.25,107.49c.1-.05,.19-.11,.29-.16,.17-.02,.26-.3,.48-.16,.1,.86-.74,1.03-1.17,1.36-1.07,.83-1.81,1.97-2.9,2.77-.46,.34-.54,.1-.72-.15-.62-.86-1.27-1.68-2.06-2.39-.81-.72-1.4-1.71-2.64-1.9-.17-.03-.74-.59-.66-1.3,.25-2.32-.6-4.49-1.04-6.73-.43-2.15-1.54-3.96-2.38-5.91,.19,.09,.37,.18,.56,.27,1.98,3.89,3.2,7.98,3.31,12.36,0,.35,.11,.6,.44,.79,1.81,1.06,3.34,2.44,4.58,4.13,.29,.4,.51,.4,.84,.08,1.05-1,2.19-1.92,3.09-3.08Z"/><path class="cls-87" d="M48.57,111.28c-.19,.11-.38,.23-.57,.34,0,0-.09,0-.09,0l-.09,.02c-.3,.22-.68-.02-.99,.18-.12,0-.23,0-.35,0,0-.17,.07-.29,.22-.39,3.28-2.23,3.41-5.1,.36-7.56,.25-.26,.56-.23,.88-.17,.94,.22,1.65,.75,2.11,1.6,.72,1.38,1.02,2.78,.12,4.2-.33,.78-1.04,1.21-1.6,1.79Z"/><path class="cls-51" d="M89.2,26.35c-.19,.31-.55,.1-.85,.29,1.1,1.79,1.69,3.81,2.57,5.7,.43,.94,.67,1.97,1,2.96,.66,1.96,1,3.98,1.19,6.03,.06,.61,.29,1.09,1.06,1.14,.8,.05,1.55,.37,2.36,.42,.42,.02,.82,.47,1.23,.73-.14,.12-.28,.11-.43,.02-1.28-.33-2.52-.79-3.83-.98-.44-.06-.57-.31-.62-.72-.64-5.27-2.24-10.24-4.78-14.91-.16-.29-.29-.58-.3-.91,.5-.15,.9,.34,1.4,.22Z"/><path class="cls-4" d="M127.11,85.94c-.1-.73-.83-.54-1.24-.82-.46-.31-1.35-.28-1.37-.86-.02-.55,.83-.67,1.32-.92,.65-.34,1.25-.82,2.03-.86-.11,1.18-.33,2.34-.74,3.46Z"/><path class="cls-27" d="M60.03,105.84c-.57-1.53-1.56-2.7-2.97-3.55-.81-.49-1.09-1.33-1.43-2.2-.3-.75-1.6-.73-1.96-1.67-.1-.27-.24-.52-.37-.79-.03-1.5-.99-1.94-2.29-2.05-.56-.05-1.1-.28-1.66-.4-.35-.08-.62-.3-.15-.63h0c.11-.22,.26-.38,.54-.26,.09,.21-.26,.57,.28,.65,.87,.13,1.73,.42,2.6,.53,.64,.08,.84,.39,.87,.97,.06,1.33,.51,2.45,1.83,3.02,.38,.16,.58,.4,.69,.84,.24,.94,.9,1.6,1.71,2.12,.96,.62,1.79,1.36,2.18,2.49,.11,.32,.18,.61,.12,.94Z"/><path class="cls-78" d="M124.59,61.71c-1.21,.83-2.42,1.66-3.63,2.5,.01,.11,.03,.22,.04,.33,2.22,0,4.44,0,6.66,0,.99,.08,1.99,.16,2.98,.24-3.25,.01-6.5,.02-9.76,.03-.25,0-.58,.05-.65-.27-.05-.25,.22-.36,.4-.49,1.25-.89,2.45-1.86,3.95-2.34Z"/><path class="cls-83" d="M118.17,31.97c-.07,.08-.15,.15-.22,.23-.18-.06-.36-.15-.55-.18-1.01-.14-1.89-.44-2.47-1.4-.35-.58-1.06-.82-1.63-1.17,.15-.53,.51-.26,.81-.21,1.16,.2,2.11,.82,2.77,1.75,.35,.5,.75,.8,1.3,.98Z"/><path class="cls-15" d="M124.01,53.52c-.4-1.01-.82-2.02-1.52-2.87-.12-.15-.33-.34-.23-.6,.8,.22,.91,1.01,1.11,1.59,.49,1.41,1.33,1.81,2.82,1.76,3.91-.13,7.83-.04,11.74-.03,.34,0,.72-.13,1,.2-2.95-.02-5.91-.05-8.86-.06-.48,0-.96,.04-1.44,.06-1.54,.12-3.08,.19-4.62-.04Z"/><path class="cls-3" d="M106.71,33.34c.62,.81,.55,1.08-.37,1.38-.45,.15-.9,.32-1.21,.71-.13,.22-.22,.49-.55,.48,.13-.58,.23-1.13,1.04-1.22,.34-.03,.89-.28,.9-.71,.01-.38-.42-.56-.77-.8-1.43-1.01-3.04-1.68-4.54-2.55-.15-.09-.23-.3-.34-.45,1.11,.27,1.97,1.06,3.03,1.43,.37,.15,.73,.3,1.02,.59h-.01c.33,.19,.73,.28,.98,.6,.27,.18,.55,.36,.82,.54Z"/><path class="cls-91" d="M118.55,84.99c1.27,.28,2.39,.97,3.61,1.36,1.5,.49,3,1,4.49,1.51,.14,.08,.29,.17,.43,.25-1.35,.02-2.54-.62-3.77-1.01-1.48-.46-2.89-1.16-4.32-1.77-.17-.07-.3-.23-.44-.34Z"/><path class="cls-27" d="M68.41,109.11c.15,0,.3,.02,.45,.03,.01,.2-.13,.27-.28,.32-.42,.22-.85,.45-1.27,.67-1.88,1.01-4.02,.7-5.58-.8,.67,.05,1.17,.49,1.75,.74,1.37,.59,2.62,.51,3.83-.35,.34-.24,.73-.41,1.1-.61Z"/><path class="cls-17" d="M63.38,29.04c.03,.28,.06,.56,.1,.88-.86,.08-1.5-.56-2.29-.69,.57-.45,1.37-.43,1.9-.96,.1,.26,.19,.51,.29,.77Z"/><path class="cls-93" d="M33.66,59.41c1.73-.98,3.32-2.19,5.15-3,.15-.06,.29-.12,.44-.18-.04,.25-.21,.42-.41,.51-1.9,.81-3.52,2.08-5.27,3.14-.08,.05-.18,.05-.27,.07,.12-.18,.24-.36,.36-.54Z"/><path class="cls-7" d="M51.57,92.24c-.43-.71,.35-1.04,.6-1.33,1.29-1.48,1.19-2.85-.02-4.27-.05-.06-.04-.18-.05-.28,1.4,1.17,1.68,2.46,.8,4-.38,.66-.72,1.37-1.33,1.88Z"/><path class="cls-23" d="M119.68,97.99c.6-.51,1.32-.85,2.08-.87,.91-.02,1.42-.39,1.69-1.22,.07-.2,.23-.37,.34-.56,0,.12,0,.24,0,.36-.04,1.28-.96,1.78-1.98,1.82-.83,.03-1.39,.54-2.12,.71-.11-.07-.12-.15-.02-.24Z"/><path class="cls-77" d="M42.97,17.2c1.07,.65,2.19,1.22,3.12,2.08,.1,.08,.1,.15-.01,.21-1.1-.7-2.2-1.41-3.3-2.11-.04-.17-.02-.27,.19-.18Z"/><path class="cls-28" d="M39.32,100.88c-.04,.38-.29,.47-.62,.46,.22-.23,.39-.39,.14-.79-.52-.84-1.23-1.59-1.48-2.58,.81,.45,.87,1.45,1.51,2.02,.15,.3,.61,.44,.46,.9Z"/><path class="cls-27" d="M61.58,109.18c-1-.9-1.22-2.16-1.57-3.36,.36,.17,.5,.54,.55,.85,.15,.93,.81,1.62,1.02,2.51Z"/><path class="cls-7" d="M49.74,94.29c-.18,.09-.36,.18-.54,.27,.59-.98,1.44-1.69,2.37-2.32-.41,.86-1.25,1.34-1.82,2.05Z"/><path class="cls-55" d="M129.4,89.66c.94-.33,1.97,.16,2.89-.34,.34-.12,.6,.02,1.06,.37-1.48,.01-2.71,.11-3.95-.03Z"/><path class="cls-16" d="M37.34,14.68c-.72-.25-1.44-.51-2.17-.76,.82,.09,1.68,0,2.37,.56-.02,.12-.13,.13-.2,.2Z"/><path class="cls-75" d="M39.29,15.25c.83,.29,1.61,.68,2.34,1.17-.01,.12-.12,.14-.2,.19l-2.32-1.17c-.05-.17-.01-.26,.19-.19Z"/><path class="cls-53" d="M39.29,15.25c-.06,.06-.13,.13-.19,.19-.59-.25-1.18-.5-1.76-.76,.07-.07,.13-.13,.2-.2,.62,.18,1.25,.34,1.75,.77Z"/><path class="cls-25" d="M121.27,48.26c-.42-.63-.83-1.26-1.25-1.88,.76,.4,1.11,1.07,1.25,1.88Z"/><path class="cls-86" d="M56.96,28.26c-.78-.16-1.14-.82-1.56-1.41,.59,.39,1.25,.7,1.54,1.43l.02-.02Z"/><path class="cls-26" d="M33.86,89.82c.37,.68,.62,1.41,.8,2.17-.59-.6-.72-1.38-.8-2.17Z"/><path class="cls-29" d="M116.02,107.17c-.16,.05-.32,.11-.48,.16,.48-.53,.95-1.05,1.43-1.58,.03,.7-.73,.87-.95,1.41Z"/><path class="cls-81" d="M59.24,30.07c.03,.05,.04,.11,.04,.16-.1,.11-.23,.14-.37,.13-.09-.03-.16-.08-.21-.16-.37-.3-.74-.59-1.1-.89,.87-.21,1.04,.62,1.65,.76Z"/><path class="cls-34" d="M58.7,30.2c.06,.01,.13,.03,.19,.04,.61,.42,.63,.52,.18,.79-.31-.06-.6-.17-.8-.43,.14-.13,.28-.26,.43-.39Z"/><path class="cls-31" d="M49.99,22.18c.28,.2,.57,.4,.85,.6,.11,.07,.2,.16,.15,.39-.48-.1-.77-.41-1.02-.8-.06-.05-.07-.09-.05-.14,.02-.04,.04-.06,.06-.06Z"/><path class="cls-36" d="M41.42,16.6c.07-.06,.14-.12,.2-.19,.45,.26,.9,.52,1.35,.79-.06,.06-.13,.12-.19,.18-.45-.26-.91-.52-1.36-.78Z"/><path class="cls-89" d="M53.35,25.1c-.46-.11-.77-.39-1.1-.87,.63,.09,.9,.44,1.1,.87Z"/><path class="cls-50" d="M114.1,29.24c-.27,.06-.6-.09-.81,.21-.26-.08-.52-.16-1.05-.32,.55-.05,.81-.08,1.08-.11,.27,.05,.56,0,.78,.22Z"/><path class="cls-54" d="M46.08,19.49c0-.07,0-.14,.01-.21,.37,.14,.69,.36,.96,.64-.02,.12-.13,.14-.2,.19-.29-.16-.6-.31-.77-.62Z"/><path class="cls-26" d="M34.65,91.98c.3,.42,.5,.88,.55,1.39-.35-.4-.64-.82-.55-1.39Z"/><path class="cls-15" d="M122.23,49.87c-.13-.13-.25-.27-.38-.4-.14-.23-.35-.44-.27-.75,.56,.19,.65,.64,.65,1.15Z"/><path class="cls-88" d="M49.34,21.95c-.31-.23-.62-.46-.93-.68-.03-.17,0-.28,.2-.18,.29,.17,.6,.31,.75,.65,.06,.05,.07,.1,.04,.15-.02,.04-.05,.06-.07,.06Z"/><path class="cls-73" d="M130.59,93.56c-.53-.03-1.07,.11-1.58-.16,.53,0,1.08-.19,1.58,.16Z"/><path class="cls-96" d="M54.65,26.18c-.41-.06-.68-.28-.93-.73,.57,.04,.72,.43,.93,.73Z"/><path class="cls-42" d="M48.61,21.09c-.07,.06-.13,.12-.2,.18-.26-.19-.52-.39-.78-.58-.03-.17,0-.28,.21-.18,.26,.2,.51,.39,.77,.59Z"/><path class="cls-12" d="M121.58,48.72c.09,.25,.18,.5,.27,.75-.44-.25-.58-.66-.6-1.14,.26,0,.14,.33,.33,.39Z"/><path class="cls-37" d="M32.45,77.8c-.16,.45-.57,.51-.94,.64-.06,.01-.11,0-.15-.06,.05-.06,.09-.13,.14-.19,.28-.23,.51-.56,.95-.39Z"/><path class="cls-44" d="M47.84,20.5c-.07,.06-.14,.12-.21,.18-.26-.19-.52-.38-.78-.57,.07-.06,.14-.13,.2-.19,.26,.19,.52,.39,.78,.58Z"/><path class="cls-90" d="M141.27,54.12c0-.12,0-.25,0-.37,.24-.09,.48-.08,.71,.06-.16,.29-.42,.34-.71,.31Z"/><path class="cls-29" d="M117.11,105.58c.21-.26,.42-.52,.63-.78,.07,.08,.14,.15,.21,.23-.33,.11-.46,.52-.84,.55Z"/><path class="cls-21" d="M36.75,96.67c.35,.23,.51,.58,.57,.98-.38-.22-.51-.58-.57-.98Z"/><path class="cls-20" d="M104.92,32.21c-.4-.09-.72-.31-1.02-.59,.45,0,.84,.12,1.02,.59Z"/><path class="cls-41" d="M53.84,84.88c-.07-.42-.08-.69,.32-.87,.17,.38-.08,.56-.32,.87Z"/><path class="cls-20" d="M105.89,32.81c-.37-.13-.73-.29-.98-.61,.44,.01,.82,.14,.98,.61Z"/><path class="cls-25" d="M119.68,45.84c-.27-.22-.48-.49-.59-.83,.39,.14,.64,.38,.59,.83Z"/><path class="cls-26" d="M35.38,93.8c.32,.22,.38,.56,.44,.9-.38-.19-.43-.53-.44-.9Z"/><path class="cls-40" d="M56.94,28.29c.17,.11,.48,.04,.5,.35,0,.04-.08,.11-.12,.11-.32,0-.27-.3-.36-.48,0,0-.02,.02-.02,.02Z"/><path class="cls-30" d="M49.34,21.95c0-.07,.02-.14,.02-.21,.29,.03,.47,.23,.63,.45,0,.07,0,.13-.01,.2-.31,0-.46-.24-.64-.43Z"/><path class="cls-84" d="M51.93,24.04c-.32-.23-.62-.29-.64-.81,.33,.21,.62,.28,.64,.81Z"/><path class="cls-94" d="M54.64,83.47c-.09,.24-.25,.58-.49,.35-.22-.22,.11-.54,.26-.79,.17,.1,.21,.27,.23,.44Z"/><path class="cls-92" d="M54.64,83.47c-.2-.08-.21-.27-.23-.44,0-.16,.03-.31,.19-.39,.06,.17,.05,.38,.26,.46-.07,.12-.14,.25-.21,.37Z"/><path class="cls-73" d="M46.83,111.81c.3-.24,.65-.16,.99-.18-.28,.31-.65,.19-.99,.18Z"/><path class="cls-97" d="M5.08,47.91c.07,.21,.28,.15,.41,.23-.2,.19-.46,.3-.67,.09-.09-.1,.07-.28,.26-.31Z"/><path class="cls-26" d="M35.81,94.69c.25,.21,.35,.49,.4,.8-.33-.17-.43-.45-.4-.8Z"/><path class="cls-79" d="M124.01,53.52c1.54,.01,3.08,.02,4.62,.04-.11,.06-.23,.17-.33,.17-2.68-.24-5.31,.41-7.98,.44-2.81,.04-5.63,.26-8.42,.71-.82,.13-1.67-.05-2.49,.21-.31,.09-.61-.16-.71-.41-.45-1.13-1.28-2.06-1.65-3.23,.05-.02,.1-.04,.15-.06,.71,.64,1.13,1.49,1.47,2.34,.36,.91,1,1.05,1.76,.87,1.55-.36,3.14-.32,4.7-.54,.29-.04,.58-.01,.87-.02,.53-.04,1.06,.09,1.58-.08,2.15-.06,4.29-.19,6.42-.43Z"/><path class="cls-80" d="M32.45,77.8c-.32,.13-.63,.26-.95,.39,.66-1.04,1.87-1.3,2.81-1.95,2.03-1.41,4.39-2.18,6.56-3.33,1.31-.69,2.79-1.06,4.2-1.58,.41-.15,.79,.04,.9,.35,.18,.5,.33,1.08-.27,1.48-.17-.15-.14-.35-.11-.54,.09-.62-.27-.71-.76-.62-2.84,.77-5.43,2.13-8.04,3.43-.32,.16-.64,.29-.95,.47-.85,.35-1.62,.85-2.4,1.32h0c-.28,.27-.64,.41-.98,.58h0Z"/><path class="cls-39" d="M45.12,75.33c-.03-.58-.28-.71-.79-.42-.96,.54-1.93,1.06-2.9,1.58-.08-.79,.81-.95,1-1.56,.66-.78,1.39-1.49,2.11-2.21,.2-.2,.41-.41,.69-.5,.39-.13,.69-.07,.46,.42-.14,.3,0,.64-.18,.92-.14,.59-.11,1.21-.38,1.77Z"/><path class="cls-95" d="M45.5,73.56c.02-.41,.05-.82,.08-1.34-1.21,.82-2.09,1.88-3.01,2.88-.22,.13-.38,.15-.37-.18,.26-.32,.52-.65,.77-.97,.61-.75,1.28-1.44,1.94-2.14,1.03-.12,1.11,.02,.79,1.36-.07,.13-.13,.26-.2,.39Z"/><path class="cls-47" d="M101.64,45.58c1.26,.8,2.47,1.66,3.28,2.96-.37,.03-.51-.29-.74-.47-.67-.96-1.79-1.4-2.56-2.24-.1-.09-.09-.17,.02-.24Z"/><path class="cls-43" d="M101.64,45.58c0,.08-.01,.16-.02,.24-1.43-.72-2.86-1.45-4.29-2.17,.14,0,.28-.01,.43-.02,1.37,.5,2.67,1.14,3.88,1.95Z"/><path class="cls-79" d="M104.18,48.06c.25,.16,.49,.32,.74,.47,.06,.06,.11,.12,.17,.18,.79,.68,1.4,1.51,2.04,2.31,.09,.11,.05,.24,0,.35,0,0-.06,.05-.06,.05-1.03-1.06-2.01-2.16-2.87-3.37Z"/><path class="cls-99" d="M59.07,31.03c.45-.38-.16-.52-.18-.79,.13,0,.26,0,.39,0,.53,.38,1.01,.81,1.34,1.37-.47-.34-1.13-.15-1.56-.58Z"/><path class="cls-57" d="M74.05,110.27c-1.83,.72-3.51,.44-5.05-.78,.81-.93,1.98-1.31,2.98-1.92,1.24-.76,1.3-.73,1.69,.67,.18,.66,.59,1.29,.38,2.03Z"/><path class="cls-35" d="M74.05,110.27c-.22-.83-.47-1.66-.66-2.5-.14-.59-.4-.6-.87-.32-1.16,.7-2.34,1.36-3.51,2.04-.14-.01-.28-.02-.42-.04,.1-.11,.19-.22,.29-.32,1.25-.74,2.52-1.45,3.75-2.22,.54-.34,.77-.25,.95,.35,.27,.93,.65,1.83,.7,2.81-.07,.07-.14,.13-.22,.2Z"/><path class="cls-1" d="M40.61,100.53c1.78-.59,3.26,.04,4.68,1.08,.59,.43,.91,1.13,1.56,1.48,.07,.09,.06,.18-.02,.26-.46,.23-.7-.11-.95-.38-.24-.26-.49-.5-.74-.74-1.22-1.1-2.68-1.53-4.29-1.57-.1,0-.18-.04-.24-.13Z"/><path class="cls-7" d="M49.2,94.55c-.29,.38-.06,.47,.28,.55,.72,.16,1.44,.33,2.16,.5q1.58,.37,1.66,2.03c-.28-1.5-1.41-1.81-2.69-2.02-.7-.11-1.43-.24-2.08-.59,.12-.34,.34-.48,.67-.47Z"/><path class="cls-61" d="M49.96,109.5c1.04-1.43,.53-2.85-.02-4.26,.05-.08,.11-.08,.16,0,1.1,1.77,1.05,3.3-.14,4.85-.13-.19-.13-.39,0-.58Z"/><path class="cls-10" d="M46.84,103.31c0-.07,0-.15,0-.22,.84,0,1.57,.43,2.37,.58,.5,.1,.8,.6,.73,1.2-.72-.28-1.2-1.01-2.02-1.11-.32-.24-.92,.19-1.08-.45Z"/><path class="cls-66" d="M38.3,81.13l-1.47,3.32c.12-1.28,.65-2.42,1.27-3.52,.12,.01,.15,.12,.2,.2Z"/><path class="cls-98" d="M42.19,74.92c.08,.15,.22,.18,.37,.18-.38,.46-.76,.92-1.14,1.38-.13,.13-.27,.25-.4,.38-.19,.05-.26-.02-.22-.21,.46-.58,.92-1.15,1.38-1.73Z"/><path class="cls-38" d="M38.3,81.13c-.07-.07-.14-.13-.2-.2,.41-.64,.56-1.43,1.16-1.96,.12,.01,.14,.13,.19,.21-.38,.65-.77,1.3-1.15,1.95Z"/><path class="cls-69" d="M48.01,103.68c.85,.07,1.34,.72,1.94,1.19,.05,.12,.1,.24,.16,.36-.05,0-.11,0-.16,0-.59-.53-1.17-1.07-1.92-1.37-.07-.04-.09-.08-.07-.12,.02-.04,.04-.06,.06-.06Z"/><path class="cls-48" d="M39.45,79.18c-.06-.07-.13-.14-.19-.21,.14-.52,.53-.89,.79-1.34,.13-.13,.25-.27,.38-.4,.09,.04,.15,.1,.19,.19-.39,.58-.78,1.17-1.16,1.75Z"/><path class="cls-64" d="M34.81,80.75c.02-.06,.07-.11,.07-.17q.04-.84,.91-.61c-.25,.35-.5,.71-.98,.78Z"/><path class="cls-52" d="M49.96,109.5c0,.19,0,.39,0,.58-.25,.56-.94,.74-1.15,1.34-.08-.05-.16-.09-.24-.13,.22-.79,1.22-.96,1.39-1.78Z"/><path class="cls-1" d="M39.32,100.88c-.15-.3-.3-.6-.46-.9,.48,.51,1.09,.6,1.75,.54,0,0,.04,.05,.04,.05,0,.04,0,.08,.01,.12-.46,.02-.87,.34-1.35,.18Z"/><path class="cls-82" d="M40.61,77.43c-.06-.06-.12-.13-.19-.19,.01-.27,.14-.47,.39-.59,.07,.07,.14,.14,.22,.21-.14,.19-.28,.38-.42,.56Z"/><path class="cls-11" d="M104.58,35.92c.18-.16,.36-.32,.55-.48,.02,.42-.26,.72-.41,1.07-.66,1.6,.51,3.42,2.23,3.43,2.42,.02,4.85,0,7.27,0,.44,0,.95-.1,1.03,.57-.33-.25-.72-.24-1.11-.24-2.17,0-4.34-.1-6.5,.03-2.24,.13-4.28-1.81-3.06-4.38Z"/><path class="cls-47" d="M107.12,51.37c-.48-1.04-1.44-1.71-2.03-2.67,1.14,.48,1.62,1.6,2.33,2.47,.62,.77,1.09,1.68,1.5,2.59,.32,.73,.82,.86,1.47,.7,1.73-.42,3.5-.43,5.26-.56,.12,.01,.24,.02,.37,.03,.07,.04,.09,.08,.07,.12-.02,.04-.04,.06-.06,.06-2.02,.2-4.03,.38-6.04,.6-.68,.08-1.07-.14-1.34-.78-.39-.91-.87-1.79-1.51-2.57Z"/><path class="cls-59" d="M116.01,54.13c0-.06,0-.12,0-.18,.53,0,1.05,0,1.58,0-.5,.25-1.05,.15-1.57,.18Z"/><path class="cls-5" d="M119.68,97.99c0,.08,.02,.16,.02,.24-.94,.54-1.3,1.57-1.99,2.32,.29-1.14,.98-1.96,1.97-2.56Z"/><path class="cls-45" d="M111.35,92.79c-.08,.06-.15,.16-.23,.16-.9,.08-1.12,.48-.62,1.26,.13,.21,.18,.47,.27,.71-.63-.26-.61-1.09-1.22-1.41-.2-.1,.06-.28,.24-.37,.5-.23,1-.44,1.56-.36Z"/><path class="cls-85" d="M48.01,103.68c0,.06,0,.12,0,.18-.32,0-.63,0-.95,0-1.88-.2-3.06-1.53-4.34-2.7,.4-.38,.78-.09,1.13,.07,.51,.25,.97,.59,1.48,.86,.63,.25,.71,1.17,1.51,1.21,.39,.12,.78,.25,1.16,.37Z"/><path class="cls-46" d="M45.34,102.1c-.59,.02-.95-.46-1.43-.69-.38-.18-.75-.33-1.18-.25-.69-.14-1.34-.49-2.07-.46-.03-.04-.03-.08-.01-.12,1.75-.08,3.4,.17,4.69,1.52Z"/><path class="cls-62" d="M44.9,71.81c-.39,.94-1.25,1.47-1.94,2.14,.04-.69,.82-.87,1.07-1.56-2.93,.96-5.56,2.41-8.26,3.68-.11-.07-.11-.14-.01-.22,2.91-1.65,5.94-3.06,9.14-4.06Z"/><path class="cls-37" d="M35.76,75.86c0,.07,0,.14,.01,.22-.84,.27-1.45,1-2.35,1.15,.66-.65,1.48-1.05,2.34-1.37Z"/><path class="cls-37" d="M32.46,77.81c.24-.34,.57-.52,.98-.58-.18,.43-.49,.66-.98,.58Z"/></svg>