<?xml version="1.0" encoding="UTF-8"?><svg id="Capa_1" xmlns="http://www.w3.org/2000/svg" viewBox="0 0 61.42 87.26"><defs><style>.cls-1{fill:#f8b567;}.cls-2{fill:#e9e4e3;}.cls-3{fill:#ef7e25;}.cls-4{fill:#fff;}.cls-5{fill:#fbd7c0;}.cls-6{fill:#a16418;}.cls-7{fill:#cfa8cf;}.cls-8{fill:#b17ab2;}.cls-9{fill:#bf9c7a;}.cls-10{fill:#c78725;}.cls-11{fill:#d3d2d4;}.cls-12{fill:#e20613;}.cls-13{fill:#e39f8f;}.cls-14{fill:#e39e86;}.cls-15{fill:#416829;}.cls-16{fill:#1d1d1b;}.cls-17{fill:#442258;}.cls-18{fill:#8867a9;}.cls-19{fill:#2a3820;}.cls-20{fill:#573d8f;}</style></defs><path class="cls-11" d="M4.19,39.14s-.3,1.38,.29,3.53c-.32,.56-.49,1.53-.5,1.8-.47-.18-1.43-1.74-1.71-3.7-.29-1.96,.16-2.81,.28-2.9,.15,.28,.79,1,1.64,1.27Z"/><path class="cls-4" d="M1.78,34.78s-2.02,2.45-1.52,6.61c.5,4.16,2.96,6.82,4.4,7.5-.22-1.31-.69-4.41-.69-4.41,0,0-1.39-.85-1.76-4.14-.12-1.6,.3-2.6,.3-2.6,.02-.23,.1-1.07-.32-1.66-.42-.59-.42-1.28-.42-1.28Z"/><path class="cls-18" d="M8.59,64.17s.06,3.54,5.7,7.95c.18,1.34,.47,2.54,1.05,2.89,.54,.6,1.54,1.77,2.13,2.21,.82,.41,1.73,1.09,2.13,1.55,.4,.47,1.62,.95,2.07,1,.45,.04,1.3,.27,1.66-.72,.36-.99,.3-3.5,.3-3.69s-.6-6.05-.6-6.05l-5.35-3.12s-4.38-.65-9.09-2.03Z"/><path class="cls-18" d="M52.06,64.43s-.91,2.38-1.37,3.81c-.22,.72-.34,.9-.63,1.23-.29,.32-2.16,2.12-2.84,2.89-.68,.78-1.43,2.29-1.69,2.72-.26,.42-.85,1.61-1.46,2.03-.61,.42-.9,.58-2.84,1.38-.11,.61-.93,1.88-2.62,1.88-.23,.55-2.47-.4-2.12-2.79,.34-2.39,1.26-9.3,1.26-9.3,0,0,5.76-2.44,5.81-2.45s8.5-1.39,8.5-1.39Z"/><path class="cls-20" d="M16.95,66.08s3.98,3.31,6.01,3.66c.22,2.87,.2,8.91,.2,8.91-.26,.63-.87,1.16-1.25,1.17-.47-.1-.7-.11-.7-.11,0,0-.16,.59,.09,.75,.25,.16,1.49,.65,2.62,.77,1.13,.12,2.79,.08,3.5-.07,.71-.15,1.04-.36,1.03-.54s-.18-.54-.23-.64c.41-.13,.63-.57,.82-.96,.19-.39,.44-.85,.44-.85,0,0,.62,1.14,1.26,1.55-.22,.25-.64,1.29-.23,1.57,.44,.27,2.37,.37,2.81,.35s1.74,.07,2.64,0c.89-.07,2.24-.05,2.42-.38,.19-.33,.22-.87,.22-.87,0,0-.78-.1-1.58-.88,.2-.52,.79-.93,.79-.93l.16-5.88,.14-3.79s5.5-2.57,6.05-3.17c-2.99,.29-12.37,1.24-13.16,.99-.44-.61-.77-6.87-.77-6.87-.32,1.86-.61,6.78-.88,7.09-.43,.28-7.14-.31-7.14-.31l-5.26-.57Z"/><path class="cls-6" d="M3.19,10.73s2.41-1.56,4.08,.95c1.67,2.51,.93,3.78-.19,4.63,.81,1.12,.14,1.75-.21,3.32-.35,1.57,0,4.31,1.12,5.6-.09,.94,.05,1.71,.11,2.1,.06,.39,0,1.3-.75,2.09-.07,.4-.05,.63-.05,.63,0,0-.39-.4-2.14,.17-.01-1.53,.32-4.33,.07-5.2-.25-.88-.85-2.34-.16-3.98-.41-.29-.41-.64-.71-.97-.17-.46-.98-1.6-1.65-2.25-.66-.66-1.09-1.65-.73-2.32s.71-.68,.69-1.11-1.13-2.01,.5-3.64Z"/><path class="cls-7" d="M40.28,9.41s3.65,.16,6.09,2.6c2.73,.96,5.97,3.08,7.35,4.49,1.38,1.41,2.22,2.81,2.39,3.65,1.13,.83,1.65,2.26,2.04,4.68,.86,.82,1.64,3.24,2.14,4.85,.5,1.62,.73,4.58,.52,6.62,.28,1.9,.78,3.44,.38,5.91s-1.25,3.92-1.25,3.92c.22,.59,.32,2.65-.96,4.29l-.53,.06s.87-3.29,.85-5.07c-.01-1.77,.08-4-.55-6.91-.64-2.91-2.03-7.34-2.32-8.17-.29-.83-1.21-3.53-2.48-5.48-1.27-1.95-2.64-3.21-4.73-4.94-2.08-1.62-4.04-3.2-6.53-4.04-.29-.74-1.16-1.9-2.21-.52-.02-.29-.13-.58-.83-.52-.15-.37,.33-.87,.4-2.31,.07-1.44,.21-3.09,.21-3.09Z"/><path class="cls-4" d="M53.46,50.32s4.14,.2,5.18,.09c1.04-.11,1.42,.15,1.06,1.38-.42,1.08-.7,1.39-.7,1.56s0,2.23-1.36,2.47c-1.25,.33-3.16,.34-3.34,.35-.22-.07-.84-5.85-.84-5.85Z"/><path class="cls-5" d="M24.54,2.24S27.13,.11,30.64,.07c3.51-.04,7.04,1.84,8.7,5.23,1.66,3.39,.67,8.03,.29,9.51-.06,.98,.95,.46,.95,.46,.23-.41,.65-.92,1.46-.44,.8,.48,1.07,2.38,.83,3.99-.24,1.61-.98,3.95-3.14,4.93-.73,.26-1.56,.4-1.94,.26-.13,.54-.62,1.53-.66,1.6-.09-.37-.15-.54-1.5-1.59-.18-.44-1-.79-1.43-.93,.04-.19-.5-.64-1.81-.53-.04,.58,.03,.77-.67,.66-.38,.63-.73,1.39-1.06,1.4s-.46-.44-.67-.86c-.2-.43-.23-.75-.55-.68-.32,.07-.62,.46-.72-.04v-.51s-.98-.07-1.98,.88c-1.16,.29-1.48,.71-1.93,.99-.45,.28-1.28-4.28-1.37-4.58-.09-.3-.68-4.46-.65-4.73,.03-.27,.43-4.35,.42-4.79,0-.44,.64-5.41,.64-5.41l.71-2.67Z"/><path class="cls-14" d="M24.9,2.02s-1.3,4.19-1.03,8.43c.11,3.62,1.08,12.16,1.79,13.4-.73,.34-1.59,.96-1.89,1.82l-.45,.25-.42-2.06c-1.32-.08-3.93-.8-4.98-2.88-1.05-2.08-.99-5.97,.18-6.93,1.03-.91,1.95-.57,2.7,.33-.33-1.62-.41-4.52,.24-6.59,.65-2.08,1.48-4.12,3.86-5.76Z"/><path class="cls-12" d="M20.88,14.45s.46-.95,3.36-1.09c2.9-.14,4.46,.62,5.38,1.46,.5-.34,1.14-.51,1.75,.14,.56-.52,2.09-1.56,4.27-1.51,2.18,.05,3.23,.7,4.03,1.36,.52-.17,.96,.16,.83,.7-.13,.53-.69,.95-.69,.95-.05,.58-.41,3.5-3.12,4.1,0,0-3.31,.76-4.59-.93-.93-1.62-.46-3.03-1.24-3.43-.77-.4-1.12,.64-1.38,1.8-.29,1.16-1.28,2.67-4.32,2.49-3.04-.18-3.79-2.06-4.25-4.15-.51-.59-.97-1.4-.02-1.88Z"/><path class="cls-19" d="M34.17,14.22s-2.18,.17-2.42,2.05c-.24,1.88,.48,3.7,2.5,3.94,2.02,.24,4.05-.09,4.77-2.06s-.06-4.04-2.83-4.08c-1.25-.06-2.02,.14-2.02,.14Z"/><path class="cls-19" d="M27.69,14.2s1.66,.39,1.61,1.86c0,1.45-.27,3.63-3.21,3.94-2.17,.02-4.01-.93-4.35-2.52-.35-1.59-.62-3.25,1.41-3.39,2.05-.31,3.59-.06,4.55,.11Z"/><path class="cls-1" d="M43.73,65.78s5.82-.93,5.92-.94c1.86-.28,4.3-.56,4.27-1.44s-.16-8.26-1.09-13.33c2.24,.42,5.4,.32,5.7,.28,.26-1.22,.82-4.1,.8-5.91-.02-1.8,.08-3.8-1.2-8.24-1.29-4.73-2.53-8.98-4.38-11.64-1.84-2.65-2.95-3.35-6.8-6.43-1.87-1.35-4.36-2.48-4.36-2.48,.49,1.07,.9,5.95-2.7,7.99-.81,.45-1.66,.42-2.12,.36-.36,.79-.64,1.69-.64,1.69,1.35,1.14-1.23,3.6-1.95,8.79,.07,5.46-.87,21.84,.02,24.43,.9,2.59,8.52,6.87,8.52,6.87Z"/><path class="cls-1" d="M25.65,35.06s-.54,.73-.25,10.26c.32,6.55,.48,9.7,.48,9.7-.05,.31-.01,1.57-.01,1.57-.16,0-7.05-3.2-9.13-7.31-2.08-4.11-.47-10.2,1.15-11.76s7.18-4.32,7.18-4.32l.58,1.85Z"/><path class="cls-3" d="M5.21,28.21s-1.41,1.47-1.33,2.5c.94-.38,1.3-.51,1.3-.51,0-.81,.03-1.98,.03-1.98Z"/><path class="cls-1" d="M17.17,16.37s-3.89,1.71-4.94,3.63c-1.29,.33-3.53,2-4.11,2.88-.16,1.24-.15,3.06-.12,3.5,1.49-.37,6.19-3.7,6.81-5.1,.62-1.39,2.42-3.14,2.42-3.14,0,0-.08-1.37-.05-1.77Z"/><path class="cls-9" d="M19.99,23.05s-.75,4.01-.78,4.11c-.04,.1-.66,2.97-.66,2.97l-.74,3.21-.89,3.23s-.84,2.25-1.22,3.17c-.38,.91-2.12,3.45-3.11,3.94,.43-1.02,.46-1.21,.46-1.21,0,0,1.32-1.65,1.77-2.94,.45-1.29,1.31-4.04,1.49-5.13,.31-1.42,.99-4.79,.99-4.79l.73-3.86s.7-2.91,.9-3.45c.39,.29,1.06,.73,1.06,.73Z"/><path class="cls-9" d="M42.62,20.14s.32,2.45,.76,4.75c.44,2.3,.92,4.48,1.42,6.42,.5,1.94,1.16,4.03,2.32,6.66,1.16,2.62,3.76,6.28,5.14,7.47,.56,.56,.84,1.11,.14,1.47-.27,.12-.59-.19-.86-.35-.28-.16-2.58-1.94-3.87-4-1.3-2.06-2.17-3.87-2.59-5.02-.42-1.14-1.52-4.78-1.81-6.22-.29-1.44-.79-3.75-.79-3.75,0,0-.94-4.91-.94-5.26,.3-.38,.91-1.32,1.1-2.16Z"/><path class="cls-3" d="M49.96,28.45l.76-2.65c.14,.32,1.35,2.69,1.19,6.91,1.32,3.88,2.99,11.81,2.71,17.63,0,0-1.24-.02-1.79-.27l-.79-3.13s.69,.06,.76-.49c0-.41-.44-.97-.44-.97,0,0-.19-3.7-.21-4.56s-.66-4.85-1.4-7.24c-.74-2.38-.81-2.7-.81-2.7l.03-2.53Z"/><path class="cls-3" d="M17.17,17.91s-3.85,1.39-4.55,4.26l-4.66,3.56s-.04,.77,.15,1.38c.14,.66-.01,1.65-.75,2.27-.1,.47-.07,.61-.07,.61,0,0,.93,.17,1.32,1.11,.6-.36,1.65-.5,1.94,.92,.29,1.41-.11,2.03-.32,2.42,.46,.35,1.67,4.96,1.34,8.63-.33,3.66-2.86,5.9-2.86,5.9,1.03,0,3.23-2.7,4.31-6.44,1.01-1.25,2.36-3.28,2.97-7.04,.52-1.83,2.29-11.26,2.9-13.18-1.03-1.02-1.77-3.01-1.72-4.39Z"/><path class="cls-3" d="M25.65,56.17s-5.7-1.91-8.58-9.03c-1.56-3.89,.28-7.01,.44-7.78,0,0,1.01,2.09,1.49,2.76-.23-1.13-.41-2.19-.41-2.19,0,0,2.05,2.21,2.64,1.97,.6-.24,.3-3.87,.3-3.87,0,0-.24-6.81,1.83-12.22-.5-1.43-.42-2-.42-2-1.64-.05-2.95-.81-2.95-.81l-1.04,5.19-1.71,7.3s-1.06,4.86-4.6,8.11c-.43,1.14-1.96,4.96-3.92,5.35-.3,.19-.45,.32-.45,.32-.14,.49-.25,1.01-.74,1.56,.02,1,.12,.95,.03,2.54-.09,1.58-.22,5.38-.22,5.38,0,0-.05,.86-.12,2.3-.12,1.33-.48,2.33-.48,2.33,1.36,.62,4.36,1.45,6.3,1.96,1.95,.51,5.19,.98,7.57,1.15,2.38,.17,3.95,.26,3.95,.26,0,0,.63-6.67,.92-7.74,.29-1.07,.16-2.85,.16-2.85Z"/><path class="cls-3" d="M35.25,56.07s7.94-1.93,11.08-7.13c.28,2.41-2.36,6.46-2.36,6.46,.44,3.28,.79,8.99,.47,10.29-4.82,.59-8.35,.79-8.67,.8-.25-2.32-1.23-9.55-1.23-9.55l.71-.87Z"/><path class="cls-4" d="M32.34,22.58s1.54-.1,1.93,.53c.72,.31,1.26,.64,1.41,.97,.8,.48,1.25,.94,1.43,1.53,.56,.47,1.01,.85,1.4,1.85,.85,.92,1.4,1.82,1.44,2.59,.4,.82,1.4,2.63,1.06,4.41-.1,.45-.21,.53-.21,.53-.18-.33-.27-.41-.27-.41,0,0,.24,1.34-.32,2.76-.16-.55-.33-.72-.33-.72,.02,.42,0,1.37-.18,1.65-.21-.58-.73-1.69-.76-1.68-.14-.04-.62-.72-1.18-2.03l-.38-.97s-.5-.14-.74-.5c-.24-.36-.47-.95-.47-.95l-.35-.16c-.2,.72,.04,.28-.44,2.4,.13,.71,.12,1.77,.12,1.77l.02,4.42v4.49s-.27,5.17-.27,5.17c0,0-.27,3.85-.25,3.87,.1,.43,.72,1.72-.03,2.4-1.03,.53-4.89,.45-5.07,.4-.28-.09-3.13,.21-4.18-.42l-.04-.34s-.42-.57,.2-1.11c-.15-1.47-.35-5.15-.35-5.15,0,0-.17-5.17-.17-5.21s-.06-5.9-.06-5.9c0,0,.13-3.33,.23-3.66-.14-.35-.51-1.06-.51-1.59-.45,.55-1.85,2.59-1.94,2.61l-.14-.14s-.15,.75-.29,.79c-.18-.29-.26-.31-.26-.31,0,0,.06,1.08-.18,1.42-.39-.33-.42-.33-.42-.33,0,0-.25,1.33-.45,1.61l-.2-.36s-.22,.64-.19,1.01c-.27-.03-.64-.59-.64-1.65-.29-.49-.33-1.77-.32-1.89-.17,.13-.19-.6,.02-1.43-.24-.07-.27-.26-.15-.89,.12-.63,.56-1.67,.56-1.67,0,0-.28-.23,.15-1.4,.31-.67,.55-.87,.55-.87,0,0-.21-.39,.21-1.35,.39-.66,.47-.73,.47-.73,0,0,.62-1.91,2.02-2.21,.35-.87,1.13-1.45,1.45-1.66,.33-.21,1.05-.61,1.51-.62,0-.17,.54-.68,1.98-.97,0,0-.09,.8,.18,.85,.39-.15,.78-.42,.83-.27,.05,.15,.43,1.77,.98,1.55,.55-.22,.65-1.37,1.01-1.35,.36,.02,.67,.02,.59-.68Z"/><path class="cls-11" d="M25.72,56.31s4.13,1.16,9.49-.15c0,0-.1,.4-.3,.51,.07,.97,.79,5.08,.95,9.79-1.66,.13-4.66,.48-4.87,.22,0,0-.65-5.76-.89-6.18-.17,1.57-.5,6.19-.74,6.46-.51,.17-4.84-.22-4.84-.22-.04-.89,.03-2.84,.54-6.2,.52-3.31,.66-4.23,.66-4.23Z"/><path class="cls-11" d="M8.8,34.9s1.04,1.98,1.09,3.63c-.49-.84-.95-1.36-1.4-1.66,.1-.48,.18-1.06-.16-1.55,.07-.44,.1-.49,.1-.49,0,0,.19-.2,.37,.06Z"/><path class="cls-13" d="M4.19,39.14s-.29,1.31,.15,3.57c.43-.48,.61-2.76,.5-3.42-.47,.01-.65-.15-.65-.15Z"/><path class="cls-13" d="M8.54,36.92s1.76,1.29,1.75,3.83c-.01,2.54-1.52,5.67-3.2,5.72-.2-2.19,0-3.49,.04-3.71s.58-2.36,.36-3.65c.64-.18,1.44-1.05,.48-1.71,.11-.12,.57-.48,.57-.48Z"/><path class="cls-4" d="M10.21,34.39s1.03,2.21,1.4,5.74c.37,3.53-.61,7.74-4.17,9.7-.13-1.38-.39-3.34-.39-3.34,.67-.18,2.05-.69,2.72-2.96,.67-2.27,.69-3.75,.05-5.07,.17-.77-.5-2.37-.96-3.57,.61,.32,1.34-.11,1.35-.51Z"/><path class="cls-5" d="M8.52,34.71s.66,.46,1.21,.23c.55-.24,.92-1.39,.89-2.33s-.38-2.4-2.07-1.5c-.36-.81-1.09-1.49-2.82-1.1-1.73,.39-4.18,1.95-3.97,2.89,.2,.66,.34,.79,.26,1.06-.08,.27-.4,.7-.06,1.61,.34,.91,.81,1.11,.49,2.24,.88,.98,1.93,1.72,3.97,1.46,2.04-.26,2.38-1.09,1.64-1.81,.35-.24,.96-1.32,.22-2.19,.1-.48,.25-.57,.25-.57Z"/><path class="cls-1" d="M5.23,28.39s-1.09,1.71-1.16,2.21c-.68,.38-.77,.44-.77,.44,.08-.43,.89-3.4,2-4.23-.14,.79-.08,1.58-.08,1.58Z"/><path class="cls-4" d="M33.21,7.45s-.44,.29,.38,.45c.82,.16,2.31,.73,3.51,2.21,1,1.16,.86,1.19,.95,1.58,.08,.39,0,.86,.18,.88,.17,.02,.91-.59,1-1.53,.08-.93-.38-1.74-2.23-2.99-1.17-.73-2.01-.8-3.78-.59Z"/><path class="cls-4" d="M28.89,7.8s-.65,.12-1.07,.15c-.42,.02-2.33,.49-4.08,2.34-.84,.88-1.04,1.4-1.4,1.67-.33-.24-.45-.58-.13-1.11-.05-.51,.11-1.64,1.59-2.77,1.48-1.13,2.8-1.06,4.03-.92,.97,.15,1.17,.44,1.06,.64Z"/><path class="cls-15" d="M35.2,14.13s-.01,1.85,0,1.89c-.19,.15-1.17,.7-.21,1.67,.01,1.59,.08,2.63,.08,2.63-.35,.01-2.06-.26-2.35-.76,.17-2.01,.18-4.93,.18-4.93,0,0,.95-.56,2.31-.51Z"/><path class="cls-15" d="M36.19,14.08l-.28,6.23c.56-.03,.93-.21,.93-.21l.03-5.98s-.1-.1-.68-.04Z"/><path class="cls-15" d="M27.71,14.25l-.05,5.32c-.16,.12-.73,.27-.78,.27-.14-.28,.35-5.71,.35-5.71l.48,.11Z"/><path class="cls-15" d="M26.22,13.98l-.13,6.02s-1.85-.08-2.27-.38c.04-2.01,.27-5.6,.27-5.6,0,0,.65-.14,2.12-.04Z"/><path class="cls-5" d="M56.4,56.17s-.29,5.12-2.44,6.37c-.18-2.3-.36-6.4-.36-6.4,.58,.11,2.8,.03,2.8,.03Z"/><path class="cls-11" d="M53.75,50.29s.62,4.68,.65,5.85c-.35,.04-.87,.03-.87,.03,.04-1.86-.7-6.02-.7-6.02l.92,.15Z"/><path class="cls-7" d="M53.49,64.02s-1.05,1.81-1.65,2.32c-.05,.58-.33,1.48-1.1,1.61,.59-1.77,1.32-3.51,1.32-3.51l1.43-.41Z"/><path class="cls-8" d="M20.73,9.59s-5.32,.21-8.82,4.2c.03,.46-.28,.73-.38,.92-.06,.22-.25,.58-.24,1.02s0,1.06-1.3,1.9c-.02,.69,.12,1.83-.03,2.05-.21,.28-1.59,1.42-1.65,1.58-.05,.29-.16,1.55-.16,1.55,.72-.93,2.51-2.29,4.06-2.85,.72-1.06,2.26-2.18,5.02-3.6,.07-1.04,.66-2.59,1.7-2.82,1.04-.23,1.9,.88,1.9,.88-.34-1.09-.37-3.81-.1-4.83Z"/><path class="cls-8" d="M4.73,20.78s-2.05,1.66-2.17,4.56C1.46,26.73,.03,29.45,.45,35.72c-.56,1.52-.46,2.76-.19,3.32,.1-1.15,.51-2.96,1.55-4.32,.29-.71,.23-1.03,.02-1.47-.22-.44,.02-1.07,.73-1.72,.71-.66,.81-.49,.83-.54,.11-.58,.47-2.84,1.87-4.22,.09-1.78-.23-2.66-.44-3.29-.2-.62,.11-2,.16-2.33-.13-.24-.24-.38-.24-.38Z"/><path class="cls-8" d="M.8,43.86s-.92,3.26,1.22,7.35c0,0-.42,1.41,.85,1.91-.17,.95,.34,4.51,2.03,5.5,.32-1.82,.48-4.18,.3-5.97s-.38-2.92-.38-2.92c-.56-.15-2.32-1.21-2.53-2.93-.95-1.59-1.47-2.9-1.47-2.94Z"/><path class="cls-8" d="M8.3,49.33s-.1,.95-.7,1.4l-.12-.9,.82-.5Z"/><path class="cls-7" d="M6.75,63.55s.95,3.05,1.92,3.31c.15,.72,1.14,2.03,2.16,2.05-.91-1.17-1.67-2.5-2.15-4.76-1.17-.53-1.94-.75-1.94-.75l.02,.16Z"/><path class="cls-10" d="M2.27,12.56s.8-2.14,2.38-2.05c1.58,.09,3.6,3.07,3.27,3.87-.32,.8-1.52,1.81-1.52,1.81,.16,.73,.76,1.73,.41,2.64-.35,.91-.58,1.79-.06,4.03,.52,2.24,1.22,2.63,1.22,2.63,.11-1.24,.35-4.33,.4-4.35,0,0,1.58-1.25,1.61-1.57,.03-.32-.06-1.89-.06-1.89,0,0,1.36-.61,1.41-2.22,.06-.66,.46-.79,.53-1.21,.08-.42,.09-1.1-.85-2.89-.3-1.43-.73-3.12-2.52-4.22-.35-.16-.84-.08-1.63,.53-.53,.08-1.29-.05-1.81,.73-.53,.78-.62,1.41-.62,1.41-.51,.15-1.88,1.26-2.17,2.75Z"/><path class="cls-6" d="M7.6,39.04s.02,2.34-.53,4.18c-.27,1.74,.14,4,.22,5.23,.07,1.23,.42,2.45,.29,5.52-.13,3.07-.39,6-.36,6.81s-.24,1.81-.48,2.49c-.24,.68-.47,1.98-.04,2.7,.43,.72,.89,1.78,.1,2.57-.37,.45-.16,3.85-.16,3.85l-.03,7.64-.11,5.54s-.02,.79-.11,1.09c-.09,.3-.59,.63-1.13,.44-.54-.19-.61-.29-.66-1.23-.05-.97-.09-5.79-.09-5.79v-5.94s-.04-4.28-.11-5.21-.25-1.99-.43-2.95c-.19-.96-.33-1.81,.33-4.55,.66-2.74,1.03-5.42,.99-6.72s-.28-4.4-.54-5.83c-.27-1.43-.98-4.19-.61-5.34,.36-1.15,.79-2.06,.67-4.26,.83,.04,1.54,.17,2.82-.23Z"/><path class="cls-2" d="M28.93,84.43s-.92,.73-3.01,.53c-1.85-.24-3.38-.27-4.55-.19-1.16,.07-3.85,.39-5.02,.3-1.17-.09-2.73-.22-3.16-1.18-.42,.36-.59,.8-.08,1.04,.51,.24,2.32,.79,4.47,.76,2.15-.03,4.1-.21,4.64-.21,.55,0,4.34-.03,4.94-.06,.6-.04,1.89-.27,1.82-.71,1.12,.46,2.4,.95,3.66,.93,1.26-.02,4.08,.28,4.08,.28,0,0,1.64,.14,3.07,.52,1.43,.38,5.53,.78,6.26-.42-.69,.42-2.44,.39-4.06,.21-1.4-.23-4.23-.74-5.07-.84-.84-.1-3.59-.14-4.24-.15-.75-.1-2.78-.55-3.76-1.2-.03,.08-.01,.39-.01,.39Z"/><path class="cls-17" d="M15.63,82.56s-2.32,.95-2.4,1.34c.27,.63,1.56,1.43,4.54,1.11,2.93-.15,4.72-.45,6.16-.24,1.44,.21,4.11,.46,5.07-.42l-.04-.17s2.16,1.08,4.22,1.03c2.06-.05,5.35,.33,6.69,.66,1.33,.33,5.4,.9,6.23,.04,.12-.71-1.49-2.51-3.66-2.75-.19,.26-1.35,1-2.77,.97-1.53-.1-3.98-.33-4.02-.33s-1.7-.11-1.87-.1c-.36,.01-1.84-.02-2.85-.55-1-.56-1.24-.98-1.24-.98-.22,.22-.7,1.11-.79,1.38-.08-.7-.39-1.39-.39-1.39,0,0-.79,1.2-1.65,1.25-.9,.08-6.75,.63-7.2,.65s-.87,.04-1.8-.49c-.93-.53-2.21-1.01-2.21-1.01Z"/><path class="cls-13" d="M38.28,81.29s.8,1.4,4.06,1.8c-.29,.78-2.24,1.29-4.89,.92-2.06-.21-3.32-.33-3.92-.31s-3.26-.19-3.84-1.61c.7-.73,.82-.79,.82-.79,0,0,1.2,.36,3.78,.39,2.58,.02,3.88-.15,3.99-.39Z"/><path class="cls-13" d="M27.96,81.01s.51,.73,.51,1.08c-.14,.47-1.14,1.36-2,1.36-.94,.09-5.1,.51-5.1,.51,0,0-1.89,.23-2.39,.06-.5-.17-2.47-1.18-3.35-1.42,1.26-.48,5.15-1.98,5.59-2.25,.26,.31,1.88,.9,3.05,.93,1.18,.04,3.05-.03,3.69-.28Z"/><path class="cls-3" d="M2.24,46.75s.44,2.46,2.6,2.98l-.2-.72s-1.87-1.23-2.41-2.26Z"/><g><path class="cls-16" d="M20.72,9.44s-6.18,.63-8.86,4.3v.2s2.75-3.63,8.78-4.22c0-.07,.08-.28,.08-.28Z"/><path class="cls-16" d="M39.55,14.75s.8-2.59,.46-6.64C39.67,4.07,35.88,.08,30.61,.19c-2.98,.06-6.94,1.59-8.77,5.69-1.78,4.03-1.08,7.98-.88,8.68h-.19s-.93-3,.32-7.22C22.32,3.13,25.68,.41,30.02,.03c4.34-.38,8.79,2.32,9.87,6.35,1.08,4.02-.12,8.22-.21,8.41-.02-.03-.13-.05-.13-.05Z"/><path class="cls-16" d="M28.26,4.86s.85-.24,1.48,.37c.63,.61,1.26,.96,1.67,.92,.41-.03,1.67-1.17,2.48-1.25-.2-.21-1.17,.11-1.72,.64-.5,.45-.77,.46-.96,.42-.99-.19-1.76-1.75-2.94-1.1Z"/><path class="cls-16" d="M29.19,6.56s-3.02-2.79-6.02,.55c.91-.69,2.83-2.38,6.02-.55Z"/><path class="cls-16" d="M32.62,6.77s.9-1,2.66-.96c1.76,.04,2.92,2.11,2.92,2.11-.68-.61-1.64-1.78-2.62-1.92-.98-.15-2.21,.41-2.96,.77Z"/><path class="cls-16" d="M26.39,7.04c-2.44,.07-4.5,2.36-4.26,3.8-.3,.49-.32,.89,.19,1.29,.7-.93,2.81-3.85,5.84-4.09,.69-.02,.88-.13,.87-.35,0-.07-.2-.73-2.63-.65Zm2.2,.72s-3.59,.09-5.97,3.8c-.12-.09,.17-.91,.17-.91-.2,.03-.54,.7-.5,1.14-.18-.34-.46-.53,.73-1.68-.22-.16-.69,.63-.69,.63-.28-.21,.52-1.09,.72-1.27-.41,.16-.55,.38-.55,.38,0-.07,.92-1.88,3.01-2.51,2.08-.63,3.89,.37,3.09,.42Z"/><path class="cls-16" d="M37.9,8.52c-1.65-1.2-1.8-1.29-3.34-1.27-1.54,.02-1.63,.15-1.57,.49,.06,.34,.79,.2,1.63,.54,.84,.34,2.99,2.35,3.19,2.88,.21,.53,.09,1.51,.31,1.55,.22,.04,.94-.54,1.13-1.47,0,0,.29-1.52-1.36-2.72Zm1.01,3.32s.13-.57-.28-.97c.38,1.23-.17,1.5-.42,1.53,0-.2-.07-1.37-.47-1.74-2.01-2.52-3.53-2.8-4.04-2.83-.51-.04-.62-.2-.35-.33,1.39-.07,2.36-.07,2.97,.3,2.63,1.24,2.84,2.72,2.84,2.72,0,0-.25-.07-.37-.11,.47,.72,.3,1.24,.12,1.44Z"/><path class="cls-16" d="M17.27,16.21s-3.88,1.71-5.17,3.63c-.89,.34-2.01,.77-4.02,2.86,.01,.37,.06,.34,.06,.34,0,0,1.89-2.31,4.16-2.96,.27-.81,1.89-2.01,4.94-3.62-.03-.15,.02-.24,.02-.24Z"/><path class="cls-16" d="M39.73,14.69s-1.64-1.56-4.79-1.34c-1.92,.18-3.06,1.07-3.57,1.45-.38-.38-1.05-.62-1.69-.14-.7-.71-2.71-1.56-4.95-1.47-2.25,.1-3.34,.47-3.93,1.17-.65,.24-.89,1.07,.02,2,.2,1.17,.77,4.33,4.8,4.26,4.03-.07,3.93-2.66,4.24-3.7,.24-.79,1.13-1.23,1.4,.23,.26,1.46,.36,3.82,3.97,3.71s4.26-2.18,4.66-4.34c.48-.36,.78-.67,.72-1.27-.07-.66-.55-.62-.87-.56Zm.02,1.65l-.07,.05-.02,.09c-.4,2.21-1.02,4.05-4.44,4.16-3.15,.1-3.45-1.72-3.69-3.18l-.06-.35c-.17-.96-.61-1.13-.85-1.14-.41-.02-.82,.35-.98,.89l-.12,.51c-.24,1.18-.6,2.97-3.91,3.03-3.85,.07-4.37-2.94-4.57-4.07v-.07s-.06-.05-.06-.05c-.4-.41-.59-.84-.51-1.18,.05-.21,.2-.37,.42-.45l.06-.02,.04-.05c.57-.68,1.69-1,3.76-1.09,2.25-.1,4.15,.76,4.78,1.4l.14,.14,.16-.12c.54-.4,1.09-.19,1.4,.12l.14,.14,.19-.15c.52-.39,1.6-1.21,3.41-1.38,3-.2,4.6,1.27,4.62,1.28l.08,.08,.11-.02c.15-.03,.35-.05,.47,.03,.07,.06,.12,.17,.14,.33,.05,.48-.15,.72-.63,1.07Z"/><path class="cls-16" d="M40.11,15.1s.18,.7-.37,.74c-.07-.83-.02-.81,.37-.74Z"/><path class="cls-16" d="M38.7,14.9c-.67-.75-1.84-1.05-3.6-.92-1.49,.11-2.48,.51-3.02,1.22-.49,.66-.61,1.57-.35,2.81,.36,2.41,2.96,2.41,3.81,2.41h-.02s3.17,.07,3.69-2.73c.22-1.22,.05-2.16-.51-2.79Zm.29,2.75c-.48,2.63-3.44,2.55-3.44,2.55-1.61,0-3.31-.36-3.59-2.23-.46-2.18,.21-3.55,3.16-3.76,2.95-.21,4.35,.82,3.87,3.45Z"/><path class="cls-16" d="M29.26,15.31c-.47-1.57-4.08-1.51-4.08-1.51-2.56,.1-3.75,.43-3.76,1.68,0,2.42,.53,4.38,4.15,4.62,3.62,.23,4.16-3.21,3.69-4.78Zm-.85,3.49c-.63,.79-1.58,1.15-2.83,1.07-3.11-.2-3.86-1.67-3.93-4,0-.13,0-.26,0-.39,.01-.99,.87-1.35,3.54-1.45,.96-.02,3.51,.19,3.86,1.35,.28,.95,.15,2.44-.63,3.42Z"/><path class="cls-16" d="M21.11,14.82s.15,.59,.05,.61c-.12,.03-.49-.12-.48-.38,.01-.27,.43-.23,.43-.23Z"/><path class="cls-16" d="M20.71,14.47s-.84-.97-1.69-.85c-.85,.12-2.37,1.76-1.49,5.74,.59,3.21,3,4.09,5.39,4.38l.06,.22s-4.92-.17-5.66-4.47c0,0-.72-2.83,.15-4.67,.87-1.84,2.35-1.68,3.28-.61,.1,.14-.04,.27-.04,.27Z"/><path class="cls-16" d="M18.47,16.44s.33-1.18,.59-1.38c.26-.2,1.19,.72,1.3,2.52-.65,.19-1.09,1.31-.77,2.71,.31,1.4,1.59,2.41,1.91,.99,.21,.48,.92,1.09,1.98,1.67-.8-.63-1.53-1.22-1.84-1.85-.31-.63-.35-2.7-.35-2.7-.15,.78-.08,2.03-.08,2.03-.22-.17-.47-.28-.69-.15-.22,.13-.17,.64-.14,.88,.14-.08,.07-.56,.32-.69,.24-.13,.7,.37,.71,.66s-.17,.72-.57,.63c-.4-.09-1.08-.97-1.12-2.14s.39-1.77,.7-1.85c.18,.24,.26,1.41,.27,1.75,.23-.52-.02-1.53-.22-2.26-.1-.95-.57-2.47-1.44-2.42-.51,.13-.57,1.48-.57,1.6Z"/><path class="cls-16" d="M19.91,15.69s-1.65,.07-1.34,3.04c.14-.83,.2-2.75,1.48-2.81-.08-.17-.13-.24-.13-.24Z"/><path class="cls-16" d="M11.45,14.71s2.54,.9,3,3.18l-.24,.2s.18-1.52-2.81-3.16c.07-.08,.04-.22,.04-.22Z"/><path class="cls-16" d="M13,16.69s-.75,.51-1.17,1.03c-.23-.36,.75-1.04,1.17-1.03Z"/><path class="cls-16" d="M13.08,15.97s-1.06,.42-1.77,1.39c-.18-.26,.9-1.25,1.64-1.57,.1,.05,.12,.17,.12,.17Z"/><path class="cls-16" d="M12.68,15.59s-1.2,1.06-1.75,1.13l.17-.23s1.27-.82,1.51-1.05c.02,.05,.08,.14,.08,.14Z"/><polygon class="cls-16" points="12.25 15.34 11.24 15.83 11.24 15.71 12.05 15.2 12.25 15.34"/><path class="cls-16" d="M14.89,11.88s-1.71,.89-2.57,2.23c.48-.31,1.09-1.11,2.57-2.23Z"/><path class="cls-16" d="M15.74,11.89s-1.97,.65-3.42,2.74c.62-.55,1.34-1.28,3.42-2.74Z"/><path class="cls-16" d="M15.8,12.32s-1.76,.76-3.08,2.31c.2,.17,.59-.62,3.08-2.31Z"/><path class="cls-16" d="M16.3,12.65s-2.47,.86-3.25,2.38c.46-.36,1.67-1.38,3.25-2.38Z"/><path class="cls-16" d="M16.27,13.23s-2.05,.85-2.79,2.14c.69-.53,1.31-1.14,2.79-2.14Z"/><path class="cls-16" d="M16,14s-.57-.06-2.06,1.48c.43-.26,1.02-.83,2.06-1.48Z"/><path class="cls-16" d="M15.73,14.69s-.77,.29-1.24,.97c.19,.04,1.24-.97,1.24-.97Z"/><path class="cls-16" d="M8.43,21.17s1.63-1.12,1.67-1.52c.03-.4-.01-1.9-.01-1.9,.79-.61,1.43-1.14,1.3-2.21,.14-.35,.17-.82,.41-.99,.24-.18,.46-.99-.61-3.04-.33-.63,.1-1.03-.76-2.47-.86-1.44-1.82-2.14-2.31-2.13s-1.3,.74-1.71,.76-1.56-.03-2.04,2c-1.22,.89-2.27,1.59-2.21,3.56,.12,.8,.64,1.06,.34,1.48-.48,.43-1.06,1.13-.52,2.31,.55,1.18,2.1,2.18,2.21,2.96,.12,.66,.32,.22,.39,.63s.19,.67,.2,.92c-.08,.47-.39,1.31,.19,2.88,.38,1.26,.09,3.73,.1,5.81l.22-.1s0-.7,.13-3.57c.04-.93-.15-2.3-.44-3.07-.29-.77,.05-1.86,.08-2.22,.2,.38,1.02,1.5,1.24,1.52-.34-.8-.37-.89-.37-.89l.19-.08s-1.09-1.04-1.27-2.21c-.1,.57-.01,1.05-.01,1.05,0,0-.28-.36-.29-.67-.01-.39-.13-.93-.01-1.22-.2-.12-.39,.58-.39,.58-.23-.24-1.14-1.41-1.58-1.96-.43-.54-.9-1.17-.31-2.14,.45-.48,.74-.81,.35-1.45-.39-.65-.32-1.68,.31-2.55,.63-.88,1.73-1.5,2.13-1.63,.39-.13,.76-.14,.76-.14,0,0,.27-.6,1.25,0,.53-.11,1.01-1.44,2.9,2.11,.23-.38-1.2-2.73-2.13-2.72-.49,0-.51,.38-.68,.39-.23-.24-1.19-.54-1.46,.07-.54-.01-1.09,.28-1.09,.28,.01-.37,.71-1.56,1.22-1.65,.51-.09,.98-.03,1.26-.31,.28-.28,1.05-.69,1.63-.29,.58,.39,1.78,1.48,2.11,3.47,.17,.85,.19,.75,.48,1.33,.29,.58,.81,1.79,.22,2.44-.33,.42-.21,1.03-.39,1.57-.18,.54-.65,1.27-1.25,1.46,.02,.75,.03,1.76-.06,2.05-.18,.3-1.5,1.14-2.15,2.39-.36,.13-.62,.7-.68,.92,.4-.52,.55-.6,.55-.6,0,0-.28,.45-.12,.81,.29-.74,.52-1.46,1.04-2.01Z"/><path class="cls-16" d="M8.21,21.28s-.34,1.74-.29,4.26c-.14,1.03-.04,1.25,.03,1.69,.06,.44,.2,1.13-.57,2.04,.16-1.08,.12-3.9,.08-4.49-.28,.54-.07,4.21-.26,5.09l.25,.07,.06-.57c.45-.41,.86-1.42,.64-2.34-.23-.92-.07-3.99,.4-6.15-.14,.2-.33,.4-.33,.4Z"/><path class="cls-16" d="M7.18,10.97s2.72,.34,1.53,2.89c.13-.59,.59-2.15-1.53-2.89Z"/><path class="cls-16" d="M4.84,11.04s-2.05,1.02-1.72,2.84c.35,1.26,.79,2.13,.99,2.8,.2,.68,.1,.73,1.51,1.2-.69-.05-1.29,.05-1.61-.71-.32-.75-.71-2.33-1.07-3.05-.36-.72-.04-2.4,1.91-3.09Z"/><path class="cls-16" d="M3.43,15.19s-.74,.83-.64,1.46c.27,.65,1.17,1.41,1.34,1.42,.2,.02,.63-.33,.63-.33-.2-.07-.25-.09-.25-.09,0,0-.17,.23-.43,.19-.27-.04-1.01-1.03-1.01-1.22s.4-.99,.5-1.14c0-.17-.13-.29-.13-.29Z"/><path class="cls-16" d="M4.95,14.56s-.16,1.81,.65,1.98c.13,.24,.32,.26,.32,.26,0,0-.42-1.01-.23-1.99-.38,.38-.28,1.18-.15,1.57-.18-.27-.42-.45-.59-1.81Z"/><path class="cls-16" d="M6.16,15.86s.21,.66,.55,.6c.16-.35,.11-.35,.11-.35,0,0,1.21-.16,1.47,0-.39,.03-1.29,.13-1.29,.13,0,0-.11,.42-.3,.43s-.55-.52-.54-.82Z"/><path class="cls-16" d="M10.44,13.56s.57,1.01,.06,1.88c-.51,.87-1.07,1.75-1.25,2.12-.49,.07-1.09,.16-1.09,.16,0,0,1,.07,1.07,.04-.38,.33-.68,.88-1.15,.84-.46-.04-1.64-.58-2.12-.52,.77,.34,1.52,.9,2.13,.79,.61-.11,1.11-.59,1.38-1.16,.28-.57,.88-1.59,1.18-2.04,.3-.45,.44-1.51-.21-2.1Z"/><path class="cls-16" d="M9.3,19.22s-1.52,.94-1.86,2.28c.54-.65,1.86-2.28,1.86-2.28Z"/><path class="cls-16" d="M5.77,20.57s.69,1.13,1.18,1.11c-.28,.27-1.28-.72-1.18-1.11Z"/><path class="cls-16" d="M5.05,20.39s.4,.91,.75,1.3c-.06,.27-.83-.74-.75-1.3Z"/><path class="cls-16" d="M6.96,23.66s-.21,.4-.13,1.54c.09,1.15,0,3.16-.19,3.45,.02-1.76-.02-2.17,.04-2.74,.05-.71-.09-2.08,.27-2.26Z"/><path class="cls-16" d="M6.01,26.01s-.53,2.16-.36,3.53c-.26,0-.34-2.43,.36-3.53Z"/><path class="cls-16" d="M4.67,20.6s-2.4,2.17-2.22,4.78c-1.05,.82-2.41,3.38-2.17,10.5-.47,1.55-.24,3.37-.03,3.69l.08-.52s-.53-.45,.22-3.23c-.12-1.46-.42-7.46,2.11-10.4,.14-.98,0-2.32,2.18-4.54-.11-.27-.16-.29-.16-.29Z"/><path class="cls-16" d="M2.61,25.19s1.3,.06,2.62,1.56v.19s-.71-.98-2.73-1.57c.09-.1,.11-.18,.11-.18Z"/><path class="cls-16" d="M4.4,23.91s-.73,.94-.56,1.71l-.3-.09s-.06-.93,.85-1.62Z"/><path class="cls-16" d="M4.02,23.44s-.74,1.32-.62,2.14l-.22-.16-.07-.58c-.1-.17-.42-1.04,.72-2.05-.23,.37-.82,1.1-.5,2.04,.21-1.23,.59-1.31,.69-1.39Z"/><path class="cls-16" d="M5.06,26.64s-1.41,1.73-1.91,4.49l.32-.18s.23-1.82,1.8-4.09c-.1-.09-.21-.22-.21-.22Z"/><path class="cls-16" d="M1.35,29.57s-.74,2.02-.5,5.27c-.34,.16-.56-3.89,.5-5.27Z"/><path class="cls-16" d="M1.66,30.03s-.51,2.6-.3,4.5c-.47-.35-.16-3.6,.3-4.5Z"/><path class="cls-16" d="M2.04,30.64s-.19,1.27-.07,1.76l-.26,.26s-.21-1.05,.33-2.02Z"/><path class="cls-16" d="M22.59,22.38s.49,3.41,.67,3.69l.17-.23s-.38-1.94-.59-3.33c-.13-.17-.25-.14-.25-.14Z"/><path class="cls-16" d="M20.54,23.25s.39,2.59,1.65,3.76c-.17,.27-.18,.29-.18,.29,0,0-1.45-1.57-1.7-4.17,.17,.17,.22,.12,.22,.12Z"/><path class="cls-16" d="M30.14,16.8s-.06,4.45-.29,4.87c-.41,.19-1.25,.02-.93,1.54,.29-.03,.57-.48,.87-.34,.3,.14,.33,1.75,.86,1.64,.53-.12,.64-1.29,.93-1.38,.29-.08,.66,.11,.66-.14s.06-1.13-.76-1.01c.21-.25,.97-.27,.99,.51s-.01,1-.75,.85c-.14,.27-.54,1.44-1.11,1.38-.57-.06-.78-1.42-.95-1.56-.17-.14-.6,.34-.82,.22-.22-.12-.35-1.02-.09-1.42,.26-.4,1.02-.22,1.01-.64s.24-4.27,.4-4.54Z"/><path class="cls-16" d="M28.75,22.58s-.98,.04-1.86,.74c.32,.04,.42,.18,.42,.18,0,0-1.15-.11-1.98,.65l.59,.03s-1.56,.08-2.05,1.61c-.56,.16-1.59,.97-1.92,2.01,.48-.31,.85-.34,.85-.34,0,0-1.49,.78-1.69,2.3,.3-.43,1.02-1.03,1.02-1.03-.39,.63-1.8,2.09-1.73,3.35,.66-.85,1.06-1.31,1.06-1.31,0,0-1.57,2.08-1.54,3.96,.7-1.66,1.19-2.59,1.88-3.28-.51,.99-1.73,2.49-1.86,4.69,.29-1.08,.54-1.58,.54-1.58,0,0-.48,1.5-.25,2.94,.06-1.15,.47-2.26,.47-2.26-.06,.56-.67,3.62,.19,4.45-.05-.78,.24-1.65,.24-1.65,.13,.44,.22,.95,.22,.95,0,0,.27-1.64,.65-2.02,.11,.39,.21,.46,.21,.46,0,0-.11-1.17,.31-1.87-.05,.69,.08,1.05,.2,1.05,.11-.57,.25-1.44,.6-1.78-.18,.49-.19,1.08-.19,1.08,0,0,1.43-1.95,1.94-2.84,.44-.97,.67-1.24,.67-1.24,0,0-.27,.84-.26,.99,.52-.58,.61-1.46,1.05-1.77-.18,.47-.64,1.51-.57,1.43,.07-.08,1.18-1.45,1.24-2.55,.03,.24-.18,1.4-.34,1.75,.62-.41,1.04-2.02,1.21-2.9,.16,.43,.11,1.2,.11,1.2,.1,0,.64-.95,.84-2.13,.06,.63-.26,1.89-.26,1.89,.49-.8,1.05-1.85,1.17-2.61-.12,.91,.13,.85,.24,.72,.11-.12,.42-1.6,.37-2.28,.18,.51,.06,2.08,1.14,3-.14-.65-.41-1.58-.28-1.85,.26,.7,.33,2.8,1.74,3.22-.29-.67-.66-1.35-.59-1.67,.36,.55,.78,2.15,1.82,2.63-.21-.46-.72-1.32-.73-1.57,.63,.67,.86,1.98,1.7,2.22-.41-.58-.54-1.5-.54-1.5,.6,1.18,.81,1.71,1.26,1.92,.04-.37,.13-.42,.13-.42,0,0,.14,1.39,.93,1.8-.14-.66-.24-.73-.27-.85,.34,.06,.74,1.08,.82,1.42,.08,.34,.88,2.34,1.18,2.43-.05-.75-.06-1.07-.06-1.07,0,0,.13,1.02,.94,2.78,.24-1.16-.18-2.63-.18-2.63,.42,.33,.71,1.64,.71,1.64,.2-.67-.23-1.85-.54-2.43,.2,.14,.75,1.27,.75,1.27,0,0,0-1.27-.34-2.41,.47,.86,.67,1.2,.67,1.2,.18-.42-.07-1.29-.93-2.51,.41,.5,1.12,1.58,1.12,1.58,0,0-.06-2.76-1.8-4.57,.3,.06,.55,.23,.55,.23,0,0-.53-1.43-1.93-2.41l.39,.02s-.38-.95-1.44-1.5l.19-.12s-.09-.68-1.78-1.41l.17-.2s-.71-.59-1.71-.66c.14-.15,.41-.16,.41-.16,0,0-.48-.43-1.67-.32l-.08-.2s1.86-.03,2.02,.55c.81,.27,1.35,.79,1.62,1.1,.57,.35,.99,.8,1.33,1.45,.68,.57,1.22,1.48,1.55,1.98,.33,.5,1.18,1.8,1.27,2.43,.44,.77,1.5,2.67,.88,5.55-.21-.56-.31-.68-.31-.68,0,0,.2,1.17-.13,2.18-.13,.54-.32,.72-.32,.72,0-.12-.19-.81-.25-.92,.03,.37-.05,1.55-.14,1.79-.32-.77-.81-1.83-1.12-2.19-.3-.36-1.05-1.7-1.3-2.6-.17,.15-.16,.44-.16,.44,0,0-.33-.55-.49-.99-.37-.28-.59-.91-.62-1.06-.22-.02-.5-.32-.72-.39-.22-.07-.72-.28-.97-.64-.42-.08-1.04-.77-1.15-1.09-.47,.01-1.01-.26-1.46-1.2-.45-.35-.79-.56-1.17-1.72-.2,.71-.36,1.04-.75,1.05-.33,.47-1,1.69-1.37,1.78l-.05-.2s-.25,.79-.46,.84l-.11-.41s-.6,1.53-1.12,1.82l-.05-.29s-.58,.88-.92,1.08l-.27,.08s-1.69,2.52-2.49,3.35l-.12-.07s-.08,.62-.3,.72l-.2-.24s.03,1.08-.22,1.67c-.31-.41-.41-.5-.41-.5,0,0-.33,1.33-.54,1.56-.09-.39-.11-.44-.11-.44,0,0-.21,.47-.17,.91-.44,.01-.65-.57-.72-1.32-.3-.38-.36-1.41-.37-1.94-.19,.13-.06-1.2,0-1.66-.22-.09-.46-.75,.39-2.63-.16-1.02,.27-1.82,.74-2.27-.16-.43,.22-1.67,.81-2.35,.27-.84,.82-1.69,1.79-2.08,.39-.91,1.75-2.04,2.96-2.27,.78-.73,1.93-.94,2.15-.94,.02,.05,.03,.15,.03,.15Z"/><path class="cls-16" d="M35.91,32.09s-.04,1.91-1.12,4.16c-.11-.17-1.17,1.62-1.39,2.39-.26-.23-.26-.31-.26-.31,0,0-.91,1.22-1.05,2.45l-.34,.06s-.24,.79-.29,.87c-.28-.39-.38-.38-.38-.38,0,0-.51,1.02-1.16,1.36-.26-.53-.41-.75-.41-.75,0,0-.39,.14-.44-.79l-.31,.25s-.28-1.38-.49-1.71c-.17,.15-.24,.27-.24,.27,0,0-.53-1.52-.92-2.19-.49-.67-.92-1.24-1.29-2.14-.45-.38-.9-1.49-.85-2.05l.09-.17s.06,1.27,.87,1.95l-.06-1.93c.45,1.04,.13,2.71,.92,3.59-.1-.88-.17-2.14-.15-2.44,.16,1.09,.16,2.13,.49,2.53-.07-.9,0-2.23,0-2.23,.24,2.22,.44,3.99,.95,4.61,.16-.37,0-.95-.03-1.02-.16-.58-.12-1.49-.12-1.49,.47,1.11,.61,3.01,.87,3.74-.02-.71-.22-2.51-.36-2.95,.32,.14,.57,2.06,.86,3.54,.22,.04-.03-2.57-.04-3.79,.38,.26,.43,3.28,.56,3.75,.22,.07,.16-2.57,.81-3.06,.04,1.32-.15,3.04-.13,3.65,.42-.58,.72-1.75,.92-2.57,.19-.82,.43-2.07,.79-2.3-.28,1.16-.52,2.92-.41,3.41,.41-.91,.67-2.1,.94-2.84,.27-.74,.32-1.6,.46-1.84,.16,.34-.13,1.91-.4,2.77,.5-1.14,.86-3.79,1.06-4.33,.12,.68-.46,3.36-.45,3.75,.44-.97,.8-2.93,.93-4.15,.2,.26,0,2.1-.12,2.49,.56-.92,.62-2.78,.92-3.38-.2,.76-.38,2.69-.37,3.09,.33-1.04,.92-2.86,.88-4.11,.22,.16,.25,.23,.25,.23Z"/><path class="cls-16" d="M30.48,39.12s.07,2.34-.41,3.21c-.11-.31,.17-1.57,.41-3.21Z"/><path class="cls-16" d="M35.53,34.13s.26,5.81,.09,10.92c-.12,4.82-.54,8.75-.45,9.3,.22,.68,.47,1.68-.17,2.4,.1,.99,.9,6.28,1.01,9.72l-.25,.03s.07-1.74-.93-9.84c.25-.35,.59-.54,.04-2.67,.2-2.33,.59-7.39,.57-10.45-.02-3.05-.01-8.38-.03-9.09,0-.15,.14-.33,.14-.33Z"/><path class="cls-16" d="M25.64,35.26s-.34,1.77-.21,7.48c.13,5.71,.41,11.17,.52,12.37-.38,.19-.39,.74-.14,.96,.15,.87-1.3,6.17-1.17,10.71l-.24-.07s-.08-2.64,.65-6.69c.48-2.6,.57-3.7,.57-3.7,0,0-.61-.66,.16-1.32-.3-1.87-.43-8.45-.6-13.3-.17-4.86,.23-6.75,.23-6.75l.23,.31Z"/><path class="cls-16" d="M33.36,43.21s-2.86,.01-2.93,.02c-.08-.26-.6-.4-.88,.03-.59,0-2.58-.46-2.75-.28-.01,.39,0,.51,0,.51,0,0,2.67,.26,2.91,.13,.03,.32,.57,.33,.68-.04,.47,.06,2.75,.3,2.96,.06,.09-.25,0-.42,0-.42Z"/><path class="cls-16" d="M32.98,52.24c-1.05,.39-2.14,.57-2.52,.62-.09-.13-.24-.22-.41-.22-.22,0-.4,.16-.45,.37-.42-.02-1.51-.13-2.53-.64-.33,.22-.87,.94,2.54,.92,.07,.2,.25,.34,.47,.33s.39-.16,.45-.36c.63,0,2.18-.28,2.28-.31,.12-.03,.26-.25,.18-.71Z"/><path class="cls-16" d="M32.95,47.25c-1.07,.34-2.17,.46-2.56,.5-.08-.14-.23-.24-.4-.24-.22,0-.4,.14-.47,.35-.42-.05-1.5-.22-2.49-.79-.34,.21-.93,.91,2.49,1.08,.06,.2,.23,.36,.45,.36,.22,0,.4-.14,.47-.34,.63,.03,2.19-.17,2.3-.19,.12-.03,.28-.24,.21-.71Z"/><path class="cls-16" d="M30.4,58.14c.02,.07,1.72-.45,2.39-.91,.4,.19,.35,.6,.1,.83-.39,.23-2.09,.4-2.29,.41-.17,.28-.42,.75-1.05,.18-.93-.19-2.53-.41-2.47-1.12,.07-.22,1.87,.58,2.6,.58,.19-.3,.63-.28,.71,.03Z"/><path class="cls-16" d="M29.97,42.51s-.2,3.35,.06,7.62c.09,1.39,.19,2.32,.21,2.73-.16,.35-.47,1.52-.11,2,.36,.48,.11,.54-.17,1.06-.28,.52,.08,.83,.31,1.21,.18,.38,.03,.97,.03,.97l-.25-.09s.18-.34-.1-.73c-.28-.39-.63-.74-.24-1.46,.39-.72,.16-.96-.02-1.42s.15-.57,.21-1.11c.13-.61-.18-4.32-.21-5.27s-.08-3.95,.16-5.7c.05,.09,.11,.17,.11,.17Z"/><path class="cls-16" d="M40.18,9.31s4.1,.19,6.29,2.63c2.4,.79,8.91,4.41,9.69,8.03,1.52,1.46,2.02,3.53,2.09,4.71,.83,.93,3.26,5.67,2.66,11.54,.87,3.46,.6,7.25-.85,9.98,.41,1.81-.31,3.44-.99,4.26l-.25-.05c.34-.36,1.36-1.54,1.09-4.13-.39,.04-.64,.05-.64,.05v-.25s.73-.06,.73-.15c.15-.35,1.92-4.25,.76-9.5-.01-2.56,.36-6.03-2.56-11.45-.33,.59-1.78,1.31-2.85,1.02,.77-.02,2.36-.49,2.68-1.24-.06-.96-.65-3.47-2-4.49-.59,.47-1.62,1.27-3.24,1.92,.59-.66,2.83-1.5,3.2-2.15-.22-.86-2.06-4.7-9.62-7.93-.51,.17-1.9,.82-2.05,3.13l-.32-.24s.31-2.29,2.21-3.01c-1.16-1.31-3.63-2.29-5.97-2.44-.04-.26-.07-.22-.07-.22Z"/><path class="cls-16" d="M41.36,10.33s1.76-.25,3.1,.86c-.62-.24-1.4-.69-3.1-.86Z"/><path class="cls-16" d="M41.15,11.66s1.81-.26,3.2,.92c-.64-.25-1.45-.73-3.2-.92Z"/><path class="cls-16" d="M46.25,12.98s1.83,.1,2.95,1.54c-.57-.37-1.27-1.01-2.95-1.54Z"/><path class="cls-16" d="M46.85,12.68s1.63,.06,2.6,1.55c-.5-.38-1.11-1.03-2.6-1.55Z"/><path class="cls-16" d="M45.64,14.1s1.56-.01,2.58,1.17c-.5-.29-1.13-.8-2.58-1.17Z"/><path class="cls-16" d="M45.27,14.56s1.56-.01,2.58,1.17c-.5-.29-1.13-.8-2.58-1.17Z"/><path class="cls-16" d="M45.69,13.45s1.99,.13,3.24,1.6c-.63-.38-1.4-1.04-3.24-1.6Z"/><path class="cls-16" d="M41.21,12.18s1.32-.2,2.33,.71c-.46-.19-1.05-.57-2.33-.71Z"/><path class="cls-16" d="M41.41,12.66s1.19-.22,2.11,.81c-.42-.22-.96-.64-2.11-.81Z"/><path class="cls-16" d="M41.28,10.76s1.81-.26,3.2,.92c-.63-.25-1.45-.73-3.2-.92Z"/><path class="cls-16" d="M41.03,11.06s1.88-.3,3.33,1.1c-.66-.3-1.51-.87-3.33-1.1Z"/><path class="cls-16" d="M41.9,13.29s.96-.09,1.2,.41c-.22,.07-.55-.18-1.2-.41Z"/><path class="cls-16" d="M45.33,14.94s.96-.03,1.17,.49c-.23,.05-.53-.22-1.17-.49Z"/><path class="cls-16" d="M39.89,13.71s3.45,.7,5.11,1.64c1.66,.94,4.13,3.27,4.7,4.95l-.36-.15s-1.1-2.56-4.62-4.63c-1.21-.6-4.76-1.58-4.86-1.58-.1-.09,.03-.22,.03-.22Z"/><path class="cls-16" d="M53.79,17.83s1.54,1.17,1.56,1.68c-.3-.28-1.48-1.49-1.56-1.68Z"/><path class="cls-16" d="M53.52,18.32s1.54,1.17,1.56,1.68c-.3-.28-1.48-1.49-1.56-1.68Z"/><path class="cls-16" d="M53.47,18.8s1.11,.7,1.06,1.12c-.39-.25-1.09-.87-1.06-1.12Z"/><path class="cls-16" d="M54.89,21.07s1.45,1.02,1.38,1.63c-.51-.36-1.42-1.26-1.38-1.63Z"/><path class="cls-16" d="M55.26,20.71s1.21,.85,1.16,1.36c-.43-.3-1.19-1.05-1.16-1.36Z"/><path class="cls-16" d="M54.51,21.21s1.21,.86,1.16,1.36c-.43-.3-1.19-1.05-1.16-1.36Z"/><path class="cls-16" d="M54.12,21.38s1.08,.78,1.03,1.24c-.38-.27-1.06-.96-1.03-1.24Z"/><path class="cls-16" d="M53.45,19.35s.58,.2,.63,.56c-.28,.14-.63-.56-.63-.56Z"/><path class="cls-16" d="M53.68,21.67s.5,.36,.44,.71c-.31,.05-.44-.71-.44-.71Z"/><path class="cls-16" d="M60.06,31.19s.9,1.28,.27,4.7c-.04-1.18,.21-1.73-.27-4.7Z"/><path class="cls-16" d="M59.74,32.16s.63,.56,.23,3.39c-.09-.8,.03-2.09-.23-3.39Z"/><path class="cls-16" d="M59.87,36.6s.63,.56,.23,3.39c-.09-.8,.03-2.09-.23-3.39Z"/><path class="cls-16" d="M59.65,33.54s.28,1.72-.15,2.41c-.19-.76-.26-2.2-.26-2.2l.23,.34,.18-.55Z"/><path class="cls-16" d="M58.91,33.3s.29,2.17,.02,2.91c-.17-.44-.02-2.91-.02-2.91Z"/><path class="cls-16" d="M59.64,36.38s.29,2.17,.02,2.91c-.17-.44-.02-2.91-.02-2.91Z"/><path class="cls-16" d="M58.32,33.2s.4,2.48,.12,2.88c-.11-.35-.12-2.88-.12-2.88Z"/><path class="cls-16" d="M60.63,36.16s-1.18-.47-2.3,.33v.25s.16-.58,2.3-.58Z"/><path class="cls-16" d="M59.16,36.5s.36,1.26,.06,1.85c-.36-.18-.06-1.85-.06-1.85Z"/><path class="cls-16" d="M42.48,15.52s3.46,1.15,7.02,4.5c2.56,1.97,4.53,3.64,6.41,8.45,1.88,4.81,2.44,7.8,3,10.32,.56,2.51,1.05,8.14-.35,11.7l-.22-.03s1.22-4.08,.66-9.76c-.44-2.74-1.74-7.59-2.86-10.77-1.12-3.17-2.67-6.71-6.47-9.51-2.17-1.79-4.47-3.77-6.99-4.43,0-.32-.21-.47-.21-.47Z"/><path class="cls-16" d="M38.82,19.28s-.1,2.57-.9,2.92c-.79,.36-1.73,1.13-1.78,1.28,.76-.5,1.25-.88,1.7-1.07,.44-.19,1.2-.81,1.18-3.47-.14,.16-.2,.33-.2,.33Z"/><path class="cls-16" d="M38.08,22.17s.09,1.8-.81,3.58c-.16-.12-.18-.12-.18-.12,0,0,.72-1.55,.76-3.22,.15-.09,.23-.24,.23-.24Z"/><path class="cls-16" d="M40.56,15.43s.45-.76,1.05-.69c.6,.07,1.97,1.7,.69,5.95-.94,2.59-3.56,3.6-4.5,3.21-.06,.15-.12,.16-.12,.16,0,0,2.05,.66,3.86-1.64,1.81-2.3,1.84-6.12,.85-7.37-.55-.61-1.13-.9-1.93,.18,.09,.09,.1,.21,.1,.21Z"/><path class="cls-16" d="M41.66,18.15s.7-1.22,.3-1.77c-.4-.55-2.14,.46-2.7,3.64,.42-1.06,1.09-3.19,2.4-3.59,.33,.02,.27,.8,0,1.73Z"/><path class="cls-16" d="M40.87,16.86s1.24,1.4,.16,3.28c.27-.81,.49-2.29-.37-3.13,.09-.15,.2-.15,.2-.15Z"/><path class="cls-16" d="M40.13,17.9s-.06-.03-.26,.36c.92,.63,.06,3.05-.42,3.66,.02-.54-.11-.77-.44-.65-.33,.13-.57,1-.05,1.05,.51,.05,.91-.39,1.38-1.74,.57-1.81-.2-2.68-.2-2.68Zm-.95,4.21s-.2,.18-.33,0c-.13-.32,.18-.87,.33-.7,.15,.18,0,.69,0,.69Z"/><path class="cls-16" d="M52.89,50.09s2.98,.3,4.48,.25,2.24-.24,2.42,.14c.19,.38,.18,1.36-.56,2.5-.33,.71,.12,2.86-2.07,3.17-2.19,.31-3.6,.08-3.6,.08l.03-.18s4.38,.2,4.84-.82c.45-1.02,.23-1.83,.53-2.19s.89-1.74,.67-2.28c-.17-.5-1.87,.21-6.71-.47,0-.13-.03-.21-.03-.21Z"/><path class="cls-16" d="M48.47,28.04s2.24,3.14,3.28,9.07c.92,4.78,.71,8.4,.71,8.4-.21-.16-.29-.19-.29-.19,0,0,.39-8.61-3.69-17.28Z"/><path class="cls-16" d="M48.46,23.83s1.74,3.32,1.35,7l.24,.67s1.64-3.67,.4-6.35c.34,1.36,.3,3.58-.43,5.46,.1-2.03-.25-5.47-1.56-6.78Z"/><path class="cls-16" d="M52.32,43.22s.99-.28,1.59,.11c-.35,.07-1.56,.16-1.56,.16,0-.16-.03-.26-.03-.26Z"/><path class="cls-16" d="M52.44,43.56s2.16,.09,4.01,1.6c-.71-.22-1.4-.89-4.01-1.44-.06-.13,0-.16,0-.16Z"/><path class="cls-16" d="M52.11,46.92s1.26,2.41,1.62,9.77c.29,4.96,.41,6.52,.24,7.12-.2,.6-4.04,1.11-5.62,1.38-1.58,.27-5.31,1.22-11.93,1.42-5.49,.33-5.65,.39-5.67-.07s-.41-4.65-.65-5.29c-.17,1.41-.28,5.72-.68,5.93-.59,.07-6.68-.34-10.65-.7-3.97-.36-10.56-2.13-11.99-2.95,.02-.21,0-.25,0-.25,0,0,3.43,1.83,12.39,3.04,5.87,.52,9.9,.59,10.16,.42,.26-.17,.71-7.71,.72-8.01h.24s.5,7.83,.81,7.95c.3,.13,5.79-.36,7.94-.59,2.15-.23,6.96-.81,10.48-1.27,3.51-.62,4.28-.89,4.3-1.24,.02-.35-.08-10.68-1.96-16.72,.22,.16,.24,.07,.24,.07Z"/><path class="cls-16" d="M40.02,23.66s.28,2.12-1.42,3.73l-.12-.18c.45-.36,1.48-1.88,1.27-3.44,.22-.11,.27-.12,.27-.12Z"/><path class="cls-16" d="M41.59,22.21s1.56,9.42,2.98,13.5c1.42,4.08,3.02,7.89,7.54,11.12,.41,.17,.82-.57,.35-1.04-.47-.47-4.28-4.26-6.31-9.79-2.03-5.52-3.25-12.69-3.58-15.64l.09-.43s.17,.96,.73,4.29c.56,3.33,1.73,8.92,3.52,13,1.8,4.08,4.42,7.15,5.48,8.17,.7,.79,.64,1.33,.1,1.56-.53,.44-3.98-2.04-6.19-6.53-2.34-4.19-4.07-12.34-4.86-18.03,.13-.16,.15-.19,.15-.19Z"/><path class="cls-16" d="M42.22,22.41s-.09,.32-.28,.36c-.03-.19,.28-.36,.28-.36Z"/><path class="cls-16" d="M41.75,23.77s.12-.57,.71-.61c-.26,.31-.32,.12-.62,.88-.08-.18-.09-.27-.09-.27Z"/><path class="cls-16" d="M42.86,24.71s-.18,.41-.56,.31c.08-.3,.56-.31,.56-.31Z"/><path class="cls-16" d="M42.48,23.72s-.42,.34-.56,.39l-.05-.11s.37-.33,.61-.28Z"/><path class="cls-16" d="M43.32,24.88s-.4,.25-.61,.29c.33,.13,.67-.05,.67-.05l-.06-.24Z"/><path class="cls-16" d="M43.48,25.6s-.5,.31-.55,.53c.37-.17,.58-.31,.58-.31l-.03-.22Z"/><path class="cls-16" d="M43.63,26.14s-.48,.16-.58,.45c.21,.02,.61-.29,.61-.29l-.03-.16Z"/><path class="cls-16" d="M44.61,30.83s-.57-.12-1.19,.95l.09,.19s.38-.85,1.21-.98c0-.11-.11-.15-.11-.15Z"/><path class="cls-16" d="M44.45,31.75s-.4,.12-.39,.5c.22,.04,.39-.5,.39-.5Z"/><path class="cls-16" d="M44.68,32.39s-.4,.02-.55,.45c.11,.08,.55-.45,.55-.45Z"/><path class="cls-16" d="M45.6,34.09s-.18,.16-.4,.09c-.08,.24,.46,.12,.46,.12l-.06-.21Z"/><path class="cls-16" d="M45.72,34.59s-.51,.11-.42,.5c.21-.23,.5-.34,.5-.34l-.08-.16Z"/><path class="cls-16" d="M45.92,35.1s-.34,.01-.41,.55c.24,.02,.55-.42,.55-.42l-.14-.13Z"/><path class="cls-16" d="M45.63,38.7s.43-.26,.53-.42c.12,.27-.23,.55-.49,.58,0-.14-.03-.16-.03-.16Z"/><path class="cls-16" d="M45.8,39.13s.4-.13,.58-.51c.12,.24-.35,.68-.54,.77,.02-.14-.04-.26-.04-.26Z"/><path class="cls-16" d="M47.16,40.07s-.43,.4-.66,.39l.08,.2s.49-.22,.59-.59Z"/><path class="cls-16" d="M47.01,39.77s-.19,.3-.3,.3c-.09-.09,.19-.31,.3-.3Z"/><path class="cls-16" d="M46.81,39.22s-.02,.2-.35,.21c-.16-.12,.35-.21,.35-.21Z"/><path class="cls-16" d="M48.58,40.67s-.38,.26-.36,.65c.19-.14,.31-.38,.46-.38-.06-.21-.09-.27-.09-.27Z"/><path class="cls-16" d="M49.01,41.43s-.29,.34-.33,.74c.19-.28,.45-.51,.45-.51l-.13-.23Z"/><path class="cls-16" d="M49.85,42.63s-.31,.85-1.18,1.19c.19,.19,.22,.27,.22,.27,0,0,.92-.65,1.06-1.32-.05-.07-.11-.14-.11-.14Z"/><path class="cls-16" d="M50.36,43.35s-.55,.72-1.21,.99c.11,.2,.16,.23,.16,.23,0,0,1.02-.57,1.17-1.15-.06-.04-.12-.07-.12-.07Z"/><path class="cls-16" d="M50.55,45.74s.41-.09,.46-.34c.03,.22-.04,.43-.26,.49-.21-.06-.2-.16-.2-.16Z"/><path class="cls-16" d="M51.1,46.23s.4-.19,.41-.51c.14,.24-.09,.6-.2,.68-.13-.02-.21-.17-.21-.17Z"/><path class="cls-16" d="M51.6,46.55s.43-.34,.49-.65c.07,.12-.12,.59-.37,.74-.07-.01-.12-.1-.12-.1Z"/><path class="cls-16" d="M47.86,42.95s-.46,1.8-2.73,4.88c.76-.48,2.2-2.73,2.91-4.69-.07-.13-.18-.19-.18-.19Z"/><path class="cls-16" d="M48.24,43.33s-.68,1.85-1.52,3.06c.45,0,1.48-2.2,1.66-2.89-.07-.14-.14-.17-.14-.17Z"/><path class="cls-16" d="M46.57,48.5s-1.25,5.91-8.95,8.29c.93-.64,6.04-2.09,8.95-8.29Z"/><path class="cls-16" d="M40.98,55.74s-2.22,1.97-4.96,2.21c.89-.4,2.28-.71,4.96-2.21Z"/><path class="cls-16" d="M56.5,56.14s-.34,5.26-2.55,6.54v-.19s2.03-1.39,2.24-6.25c.19,.02,.31-.09,.31-.09Z"/><path class="cls-16" d="M53.87,60.96s1.35-1,.87-3.43c-.05,.72,.02,2.59-.88,3.07-.02,.1-.01,.33,.01,.36Z"/><path class="cls-16" d="M8.34,32.93s.48-.41,.46-1.15-.53-2.01-2.14-1.96-5.88,1.74-4.84,3.66c.18,.46-.04,.69-.12,1.07-.08,.37,.03,.96,.45,1.64,.42,.68,.2,1.15,.22,1.53s1.11,1.75,2.97,1.72c1.86-.03,3.01-.31,3.19-.99,.18-.68-.28-.98-.28-.98,.33-.48,.62-.79,.29-2.09,.14-.28,.18-.5,.02-.94,.19-.28,.17-1-.22-1.5Zm.02,3.93c-.16,.47-1.07,.51-1.79,.4-.72-.1-2.15,.04-2.17,.39,.71-.32,3-.09,3.66-.04,.61,.7-.02,1.58-2.25,1.65s-3.14-1.45-3.14-1.45c-.14-.25,.33-.37-.3-1.64-.71-1.24-.42-1.72-.21-2.12,.11-.4-.37-.65-.31-1.25,.05-.6,1.23-1.84,3.14-2.47,1.91-.63,3.06-.25,3.46,.78,.4,1.03-.36,1.72-.36,1.72-.13-.1-.95-.27-1.39-.18,.07,0,.43-.53,.65-.71,0,0-.71,.47-1.02,.75-.32,.13-1.36,0-2.1-.06,1,.41,3,.25,3.72,.33,.71,.5,.55,1.84-.04,2.13-.86,.15-3.02,.07-3.84,.04,.46,.33,3.27,.15,3.97,.18,.58,.25,.48,1.07,.32,1.55Z"/><path class="cls-16" d="M8.56,35.08c-.03,.12-.14,.2-.23,.18-.09-.02-.14-.14-.11-.27,.03-.12,.14-.2,.23-.18,.09,.03,.14,.14,.11,.27Z"/><path class="cls-16" d="M8.63,31.25s.48-.48,1.26-.21c.79,.27,1.03,3.49-.44,3.88-.37,.01-.86-.17-.92-.59l-.04,.32s.34,.68,1.17,.38c.83-.31,1.16-1.61,1.13-2.45s-.48-2.45-2.26-1.63c.14,.21,.09,.3,.09,.3Z"/><path class="cls-16" d="M10.2,34.36s.04-1.29-.62-1.38c-.67-.09-1.03,.7-1.04,.87,.09,.1-.13,.63,.73,.67-.34-.38-.66-.3-.41-.78,.24-.48,.47-.6,.62-.6s.58,.13,.49,1.23c-.32,.03-.41-.03-.41-.03,0,0,.21,.36,.38,.35s.27-.33,.27-.33Z"/><path class="cls-16" d="M4.72,39.33s-.01,2.32-.41,3.4c-.62,1.05-.45,2.17-.14,3.88,.31,1.71,.74,4,.95,6.61,.21,2.61-.26,5.4-.97,8.22-.71,2.82-.38,4.51-.08,5.87,.3,1.37,.32,4.89,.29,8.65-.03,3.76,.1,9.89,.16,10.36,.06,.47,.16,.9,1.04,.94,.88,.04,.99-.76,.99-.76,0,0,.07-1.27,.12-4.3,.05-3.03,.06-11.57,.03-12.56s.16-.97,.53-1.57c.37-.68-.36-1.75-.58-2.63-.22-.88,.29-2.35,.51-3.07,.21-.72,.21-2.97,.43-7.12,.3-4.18,.02-5.01-.21-6.96-.23-1.95-.36-4.76-.12-5.39,.47-1.63,.4-3.86,.4-3.86l-.22,.14c0,.64-.04,2.42-.4,3.66v-.02c-.13,.36-.16,1.26-.13,2.3s.13,2.27,.24,3.2l.11,.87c.1,.74,.19,1.39,.22,2.34,.03,.88,0,2.02-.12,3.71l-.16,3.62c-.08,1.88-.12,3.01-.25,3.45l-.08,.25c-.2,.66-.52,1.68-.49,2.49,0,.16,.02,.31,.06,.45,.07,.29,.2,.6,.32,.9,.17,.42,.35,.86,.36,1.2,0,.13-.02,.25-.07,.35l-.21,.3c-.26,.36-.39,.57-.36,1.39,.03,.98,.02,9.56-.03,12.54-.05,2.85-.11,4.15-.12,4.28-.01,.08-.12,.59-.76,.56-.74-.03-.77-.33-.82-.74-.01-.1-.03-.52-.05-1.15-.06-2.02-.14-6.23-.11-9.18,.02-2,.02-3.97-.03-5.58-.04-1.37-.12-2.47-.26-3.12-.14-.63-.31-1.39-.34-2.36-.03-.92,.06-2.03,.41-3.41,.76-3,1.08-5.42,1.02-7.52,0-.26-.02-.52-.04-.77-.2-2.51-.61-4.76-.91-6.41l-.04-.23c-.15-.81-.26-1.46-.28-2.03-.02-.64,.08-1.17,.38-1.69v-.02s.02-.02,.02-.02c.34-.91,.45-2.82,.46-3.45l-.26-.03Z"/><path class="cls-16" d="M6.31,39.28s-.02,1.25-.35,1.75c.02-.69,.04-1.51,.03-1.66,.26-.03,.32-.09,.32-.09Z"/><path class="cls-16" d="M7,39.26s.12,1.86-.29,2.63c-.4,.77-1.03,.92-.4,1.58,.12,1.61,.62,7.37,.79,8.23,.17,.86-.34,2.16-.03,2.63-.34-.27-.35-.69-.23-1.11,.12-.41,.19-.78-.04-2.07-.23-1.28-.22-3.13-.38-3.51-.09-.62-.27-3.88-.38-4.05-.18-.23-.43-.55,0-1.1,.44-.55,.89-.99,.74-3.2,.17-.1,.21-.03,.21-.03Z"/><path class="cls-16" d="M5.28,42.79s-.71,.04-.57,1.18l.12-.39s-.03,.48,.34,.75c-.04-.71,.14-1.04,.31-1.17-.3-.01-.53,.29-.53,.29,0,0-.18-.2,.32-.65Z"/><path class="cls-16" d="M5.67,43.6s-.41,.06-.25,.91c.09-.39,.25-.91,.25-.91Z"/><path class="cls-16" d="M6.36,45.66s-.81,.09-.72,1.05c.02,.73,.71,.82,.71,.82-.12,.22-.71,.43-.46,1.58,.12-.93,.39-1.3,.64-1.52l-.05-.3s-.6,.2-.63-.78c-.01-.43,.33-.65,.52-.66,.01-.08,0-.19,0-.19Z"/><path class="cls-16" d="M6.63,48.34s-.44,.67-.37,1.3c.1-.11,.39-.7,.39-.78l-.02-.51Z"/><path class="cls-16" d="M6.4,52.67s-.06,5.23-.26,7.79c-.14,2.59-.42,3.01-.49,4.27-.07,1.27,.18,1.52,.3,2.01,.12,.58,.08,1.44,.08,1.44-.19,0-1.16-.46-.88-2-.05,.39,.33,1.52,.72,1.66,0-.67-.12-1.16-.31-1.56-.19-.4-.2-1.05-.06-1.93,.08-.9,.44-2.49,.42-3.84,.06-1.42,.32-7.78,.47-7.84Z"/><path class="cls-16" d="M5.95,60.64s-.33,.25-.39,1.17c-.06,.93,.27,1.09,.27,1.09l-.1,.33s-.45-.57-.35-1.45c.1-.88,.47-1.37,.62-1.39-.01,.19-.05,.26-.05,.26Z"/><path class="cls-16" d="M5.65,87.09s0-.6,.08-.82c.14-.37-.21-2.51-.17-2.58,.38,.59,.44,.27,.44,.27,0,0,.03-3.22,.17-3.59,.2-.54-.04-2.08-.04-2.08,.02,.6-.11,2.18-.31,2.01-.2-.17-.01-1.16,0-1.74,0-.58,.06-4.39,.02-5.53s.04-2.02,.26-2.16c.14-.42,.03-1.74-.14-1.76-.17-.02-.8-.13-.84-1.39-.2,.46,.05,1.31,.46,1.54,.41,.22,.42,1.23,.28,1.56-.14,.33-.28,.01-.26,2.08,.02,2.06-.19,7.7,.15,7.73,0,.63,.16,2.53,.04,2.83-.19,.05-.47-.65-.47-.65-.04,.6,.14,3.85,.05,4.37,.21,.01,.28-.08,.28-.08Z"/><path class="cls-16" d="M3.22,33.45s-.76,.39-.75,.87c-.3-.07,.26-1.04,.75-.87Z"/><path class="cls-16" d="M1.87,34.44S.06,36.12,.09,40.45c-.02,2.95,1.32,6.68,4.62,8.7v-.24S.67,46.33,.4,41.08c-.33-4.61,1.48-6.23,1.48-6.23,0,0-.13,0-.01-.4Z"/><path class="cls-16" d="M.37,35.74s.34-.25,.84-.21l-.15,.35s-.43-.12-.66,.05c0-.08-.03-.19-.03-.19Z"/><path class="cls-16" d="M2.46,37.37s-.62,.63-.26,3.62c.36,2.99,1.84,3.72,1.84,3.72v-.4s-1.17-.47-1.64-3.72c-.15-1.45,.1-2.58,.16-2.66-.11-.23-.1-.55-.1-.55Z"/><path class="cls-16" d="M8.55,36.77s1.95,1.03,1.83,4.25c-.12,3.22-2.1,5.99-3.23,5.51l-.06-.13s1.52,.08,2.86-3.7c.45-1.9,.38-4.05-1.51-5.77,.05-.05,.1-.16,.1-.16Z"/><path class="cls-16" d="M8.98,35s1.12,1.72,1.08,4.03l-.2-.52s-.33-2.06-1.26-3.73c.22,.15,.38,.23,.38,.23Z"/><path class="cls-16" d="M10.16,34.51s1.64,4.22,1.35,7.79c-.29,3.57-1.64,6.13-4.1,7.4l.11,.24s3.47-1.94,4.11-6.26c.64-4.32-1.13-9.05-1.3-9.47-.02,.11-.18,.3-.18,.3Z"/><path class="cls-16" d="M10.36,34.29s2,1.8,2.28,4.31c-.19-.98-1.32-3.09-2.22-3.89-.12-.32-.06-.43-.06-.43Z"/><path class="cls-16" d="M11.03,34.3c.21,.04,1.68,1.97,1.78,3.64-.42-1.58-1.78-3.64-1.78-3.64Z"/><path class="cls-16" d="M2.38,46.94s.16,1.7,2.48,2.71v.32s-2.51-.82-2.72-3.37c.11,.23,.25,.34,.25,.34Z"/><path class="cls-16" d="M4.53,52.9c-.19,.03-.42-.55-.69-.91,.04,.45,.29,.68,.33,1.05-.24-.05-.66-.83-.89-1.3-.05,.27,.13,.82,.55,1.34-.59-.09-.96-1.11-1.25-1.95-.03,.54,.5,1.6,.75,1.97-.93-.05-1.07-1.91-1.09-2.57,0,0-.23,.17-.19,.56-1.75-3.4-1.23-6.97-1.23-6.97,0,0-.03-.21-.09-.42-.72,2.7,.51,6.22,1.16,7.5-.1,1.25,.51,2.08,1.1,2.06,1.07,.25,2.19-.46,2.19-.46v-.24s-.39,.25-.63,.34Zm-2.41-1.63s-.11,.88,.63,1.65c-.29,.04-.91-.59-.63-1.65Z"/><path class="cls-16" d="M2.97,53.19s-.17,3.19,1.92,5.39l-.07,.3s-1.96-1.43-2.14-5.75c.22,.07,.3,.07,.3,.07Z"/><path class="cls-16" d="M4.15,56.02s.04,1.11,.54,1.21c0-.26,.15-.38,.15-.38,0,0-.2-.55-.32-.76-.29,.09,.06,.88,.06,.88-.14-.1-.43-.94-.43-.94Z"/><path class="cls-16" d="M13.47,34.97s.82,4.94-.84,9.08c-1.49,3.44-2.85,4.98-4.04,5.07l.21-.25s1.21-.03,3.05-3.54c1.28-3.6,1.59-3.69,1.63-10.36Z"/><path class="cls-16" d="M8.4,49.2s-.25,1.47-.82,1.86v-.29s.47-.74,.61-1.35c.07-.16,.21-.21,.21-.21Z"/><path class="cls-16" d="M14.97,50.62s.15,3.4,7.78,5.98c-.25-.55-5.52-1.72-7.78-5.98Z"/><path class="cls-16" d="M19.06,55.44s2.01,1.58,5.93,2.18c-1.74-.61-3.22-1.01-5.93-2.18Z"/><path class="cls-16" d="M19,22.35s-.82,2.92-1.38,6.15c-.56,3.23-1.81,9.5-2.94,11.61s-1.72,2.71-1.72,2.71l.09-.43s1.4-1.88,2.11-4.08c.7-2.2,1.75-7.03,2.11-9.14,.36-2.11,1.07-5.9,1.57-6.98,.06,.1,.17,.15,.17,.15Z"/><path class="cls-16" d="M13.39,22.07s1.92,1.85,2.34,5.24c.42,3.38,.49,7.68,.04,9.13-.26,1.07-.7,2.23-.7,2.23,.45-1.95,1.11-5.24,.65-9.13-.46-3.89-.85-5.36-2.32-7.47Z"/><path class="cls-16" d="M20.09,23.14s-.82,4.51-1.83,8.79c-1.01,4.28-1.93,8.85-5.71,12.02l.22-.49s2.82-2.53,4.21-7.48c1.39-4.96,2.69-11.63,2.89-13.02,.06,.08,.22,.18,.22,.18Z"/><path class="cls-16" d="M19.59,25.12s-.37,.06-.38-.34c-.37,.15,.04,.61,.36,.55,0-.13,.02-.21,.02-.21Z"/><path class="cls-16" d="M18.6,23.15s.38-.06,.51-.07c-.08,.22-.44,.23-.44,.23l-.06-.16Z"/><path class="cls-16" d="M16.62,37.45s-.31-.07-.4-.22c-.18,.19,.3,.44,.3,.44l.1-.22Z"/><path class="cls-16" d="M16.25,38.34s-.25-.21-.26-.47c-.23,.22,.16,.66,.16,.66l.1-.19Z"/><path class="cls-16" d="M17.11,35.97s1.54,4.46,3.92,5.85c-1.15-1.27-3.09-3.67-3.75-6.2-.13,.13-.17,.35-.17,.35Z"/><path class="cls-16" d="M16.87,36.94s.13,3.31,3.13,6.73c-1.25-1.74-2.48-3.81-2.93-7.27-.04,.24-.2,.54-.2,.54Z"/><path class="cls-16" d="M29.8,64.75s.73,2.16,.34,4.02c-.39,1.85-.7,3.26-.31,4.46,.55,1.19,.81,2.26,1.36,2.69-.18,.39-1.03-1.46-1.03-1.46-.02,.48,.37,1.97-.86,4.3-.58,1.32-.86,1.31-1.19,1.3-.33-.01-1.03-.32-1.03-.32-.36,.3-.69,.55-.91,.53-.24-.01-1.23-.89-2.92-.82-.69,.55-1.33,.71-2.35,.23-1.05-.45-1.85-1.36-2.34-1.68-.63-.35-1.3-.73-1.3-.73-.32-.26-1.21-1.49-1.99-2.15-.78-.66-.58-1.37-1.11-2.81-.93-.88-2.41-2.2-3.18-3.1-.96-.9-2.14-3.31-2.41-5.07l.2,.08s.54,3.21,2.7,5.2c2.07,1.99,2.5,2.38,3.58,3.16-.55-.05-.62-.09-.62-.09,0,0,.44,2.04,.94,2.47,.5,.42,1.46,1.57,2.05,2.12,.59,.56,1.23,.4,2.03,1.41,.8,1.02,2.38,1.33,2.95,1.19,.57-.13,1.78-1.83,3.99-2.25-.67,.47-2.13,1.08-2.71,1.76,.86,0,1.39,.18,2.02,.47,.63,.29,.85,.22,1.15-.14,.3-.36,1.04-.74,1.38-1.24-.02,.2-.58,.97-.91,1.18,.26,.45,.83,.51,1.11,.3,.28-.21,1.43-2.25,1.5-3.69,.07-1.44-.05-2.31-.05-2.31,0,0-1.02,2.64-1.59,2.81,.22-.74,1.02-1.82,1.03-2.33-.31,.41-1.23,1.76-1.49,1.68,.28-.83,1.59-2.25,1.64-2.63-.06-.62-.23-1.81,.2-3.45,.43-1.65,.5-3.1,.07-4.22,.03-.58,.06-.85,.06-.85Z"/><path class="cls-16" d="M34.03,66.71s-1.38,1.04-4.04,.88c-.73-.07-1.27-.49-1.27-.49h.51s.49,.26,1.6,.22,2.48-.53,2.72-.62c.24-.09,.48,0,.48,0Z"/><path class="cls-16" d="M30.94,74.79s1.3,1.33,2.23,1.37l.1-.26s1.23,.26,1.34,.26c-.78,.06-1,.03-1,.03l-.22,.23s-1.48,.12-2.46-1.63Z"/><path class="cls-16" d="M29.53,78.12s1.57,2.4,2.94,2.28c1.02-.1,1.2-.56,1.71-1s1.88-1.69,2.38-1.72c-.61,.52-2.43,1.82-2.54,2.4,.62,.29,1.18,.91,2.99-.41-.29-.31-.6-.58-.6-.58,.3-.03,1.37,.97,1.96,1.13,.6,.16,2.15-.03,2.65-1.49-.41,.1-.58-.02-.58-.02,0,0,.93-.42,2.06-.86,1.13-.45,1.77-.92,2.2-1.6,.43-.69,1.55-2.94,2.83-4.39,1.28-1.45,2.76-2.49,2.92-3.21,.16-.72,1.29-3.97,1.52-4.19l.17-.03s-1.04,2.8-1.56,4.41c-.4,.89-2,2.28-2.44,2.72-.43,.44-.99,.85-2.56,3.68-1.09,1.76-1.1,1.95-2.65,2.69-1.17,.41-1.55,.66-1.58,.78-.03,.11-.68,1.5-1.98,1.72-1.3,.22-2.18-.56-2.18-.56-.56,.18-1.54,1.66-3.35,.37-.89,.44-2.49,1.18-4.36-1.96,.06-.09,.05-.16,.05-.16Z"/><path class="cls-16" d="M53.7,63.92s-.48,.95-.89,1.45c-.41,.5-.9,.92-.89,1.33s-.39,1.2-1.22,1.43l.14-.27s.94-.58,.89-1.43l-.32-.09,.05-.27s.28,.26,.41,.16c.13-.1,1.33-1.64,1.41-2.08,.13-.16,.4-.23,.4-.23Z"/><path class="cls-16" d="M6.86,63.49s.74,2.49,1.53,3.18c-.23-.36-.26-.74-.24-.96,.09,.5,.31,1.01,.68,1.12-.41-.37-.27-.81-.33-1.06,.14,.58,.4,1.04,.67,1.15-.18,.12-.35,.08-.35,.08,0,0,.34,1.42,1.88,1.8l.28,.35s-1.58-.15-2.36-2.12c-.92-.45-1.47-1.99-1.92-3.21,0-.32,.16-.32,.16-.32Z"/><path class="cls-16" d="M38.68,80.41s-.05,.81-.37,1.08c-.32,.26-4.53,.34-5.59,.3-1.07-.04-2.34-.34-2.48-.57-.14-.23,.16-1.45,.41-1.55l.13,.14s-.54,1.01-.23,1.35c.31,.34,3.79,.45,5.65,.4s2.2-.09,2.28-1.17c.11,.04,.2,.03,.2,.03Z"/><path class="cls-16" d="M28.27,79.99s.4,.56,.17,.9c-.23,.34-2.25,.64-4.1,.49-1.86-.15-3.16-.75-3.26-.95-.1-.2,.01-.75,.01-.75l.19,.12s-.14,.52,.14,.66c.28,.14,1.95,.79,4.23,.73,2.28-.05,3.11-.23,2.5-1.18,.06,0,.11-.02,.11-.02Z"/><path class="cls-16" d="M28.11,81.01s1.01,1.51,.97,3.79c-.15,.74-1.85,.76-4.08,.76-2.23,0-4.96,.17-6.81,.22s-5.24-.21-5.49-1.21c-.25-1,2.84-2.04,3.73-2.37,.89-.34,4.36-1.67,4.7-1.87l.12,.14s-2.05,.91-3.68,1.51c-1.64,.6-4.31,1.51-4.64,2.58-.13,.5,3.06,1.23,6.18,.95,3.12-.28,5.51-.11,6.69-.11,1.18,0,2.92-.13,3.03-.64,.11-.52-.24-2.65-.92-3.67,.22-.08,.22-.07,.22-.07Z"/><path class="cls-16" d="M28.39,81.99s-.81,1.33-1.82,1.36-5.77,.53-6.82,.56-1.25-.22-2.15-.62c-.9-.4-1.45-.69-1.73-.74-.29,.08-.47,.18-.47,.18,0,0,1.26,.2,2.63,1.12,.65,.4,1.22,.37,1.81,.33,.59-.04,6.78-.55,7.2-.66,.42-.11,1.41-.85,1.46-1.31-.03-.11-.11-.22-.11-.22Z"/><path class="cls-16" d="M28.9,84.32s-1.01,.72-2.71,.54c-1.7-.19-3.37-.27-4.45-.21-1.08,.06-4.12,.4-5.52,.35-1.4-.05-2.83-.63-2.83-1.16l-.27,.12s.04,.79,2.31,1.11c2.27,.31,6.14-.37,8.1-.23,1.95,.14,3.38,.38,4.27,.15,.89-.23,1.07-.42,1.07-.42l.03-.24Z"/><path class="cls-16" d="M38.4,81.22s.32,.97,2.8,1.52c2.48,.54,2.7,.6,3.81,1.39,1.11,.79,2.42,2.56-1.18,2.76-3.61,.2-4.25-.71-7.19-.93-2.94-.22-5.95-.08-7.73-1.23,0-.2,.04-.2,.04-.2,0,0,1.62,.99,4.51,1.06,2.89,.07,4.56,.35,6.68,.77,2.12,.43,4.32,.45,5.35,.06,1.03-.39,.54-1.9-2.38-3.03-1-.19-4.31-.74-4.88-2.07,.14,.02,.18-.1,.18-.1Z"/><path class="cls-16" d="M30.64,81.33s-1.22,.92-1.72,2.43l-.13-.46s.71-1.46,1.67-2.05c.09,0,.18,.08,.18,.08Z"/><path class="cls-16" d="M29.79,82.13s1.06,1.55,3.79,1.48c2.73-.06,6.96,1.2,8.57-.49l.31,.1s-.99,1.11-3.21,1.01c-2.22-.11-4.58-.5-5.69-.47s-3.4-.3-3.95-1.52c.09-.05,.17-.12,.17-.12Z"/><path class="cls-16" d="M28.92,83.97s1.94,1.08,3.76,1.11c1.82,.03,4.7,.16,6.63,.59,1.92,.43,5.89,1.07,6.77,.06l-.08,.4s-1.39,.7-4.67,.1c-2.44-.46-4.94-.94-7.53-.9-2.59,.03-4.53-.93-4.85-1.14l-.03-.22Z"/><path class="cls-16" d="M4.11,39.09s-.32,2.38,.21,3.83l.17-.43s-.48-1.9-.22-3.28c-.03-.03-.16-.11-.16-.11Z"/></g></svg>