<?xml version="1.0" encoding="UTF-8"?><svg id="Capa_1" xmlns="http://www.w3.org/2000/svg" viewBox="0 0 156.44 101.54"><defs><style>.cls-1{fill:#fef860;}.cls-2{fill:#bd8100;}.cls-3{fill:#cc7507;}.cls-4{fill:#c85e03;}.cls-5{fill:#e1b402;}.cls-6{fill:#e0b401;}.cls-7{fill:#e1b504;}.cls-8{fill:#c96704;}</style></defs><path class="cls-1" d="M.16,48.91c.32-.05,.42-.36,.44-.69,.06-.8,.16-1.61,.25-2.41,.55-2.37,1.71-4.45,3.25-6.31,1.13-1,2.58-1.55,3.63-2.67,.09-.01,.17-.03,.26-.04,.95,1.47,1.77,3.02,3.12,4.2,1.06,.92,2.27,1.46,3.82,1.78-4.4-2.74-5.74-6.68-5.33-11.41,.38-1.13,.74-2.28,1.17-3.39,.12-.32,.28-.62,.11-.96,.21-.12,.25-.32,.26-.54,.28-.19,.55-.39,.83-.58,1.11-1.29,2.35-2.45,3.85-3.3,.46-.3,.8-.22,.96,.33,1.13,3.71,4.01,4.69,7.45,4.77-1.74-1.61-2.48-3.72-2.72-6-.35-3.28,.38-6.37,1.94-9.27,.28-.52,.64-1.03,.66-1.66h0c.09-.09,.17-.17,.26-.26,1.38-1.24,3.1-1.85,4.75-2.56,.42-.29,.91-.33,1.39-.33,2.17-.31,4.33-.4,6.5-.02,2.45,.41,4.67,1.39,6.76,2.68,.64,.39,1.06,.37,1.59-.04,1.25-.97,2.71-1.44,4.27-1.58,.62-.1,1.31,.29,1.87-.24,.29,.17,.58,.31,.94,.22,1.29,.45,2.59,.91,3.88,1.36,.09,.08,.16,.15,.25,.23,.66,.85,1.32,1.31,2.36,.42,.87-.74,2.03-.42,3.08-.46,1.34,.38,1.62,.19,2.34-1.5v.02c1.06-.93,2.24-1.74,2.84-3.1h0c.41,.23,.64-.11,.87-.31,2.03-1.75,4.37-2.96,6.85-3.91,2.7-.85,5.48-1,8.28-.93,3.37,.53,6.65,1.29,9.62,3.04,.53,.32,.86,.12,1.23-.21,1.41-.67,2.84-1.35,4.25-2.02,.21-.12,.41-.24,.62-.36h.55c2.22-.38,4.45-.68,6.7-.3,.24,.04,.5-.09,.74-.14,.49,.18,.97,.36,1.46,.54,1.34,.58,2.67,1.17,4,1.75,1.06,.78,2.09,1.56,3.16,2.32,.23,.17,.43,.6,.84,.28,.13,.13,.25,.25,.38,.38-.28,.35,.02,.5,.23,.68,.58,.43,1.23,.17,1.86,.19,2.18-.04,4.25,.69,6.41,.85,.22,.23,.51,.18,.78,.23,.1,.06,.21,.13,.3,.19,.06,.02,.13,.02,.19,.02,1.15,.74,2.33,1.44,3.66,1.83h-.02c.09,.03-.03,.32,.22,.17,.55,.5,1.31,.76,1.71,1.42,.99,1.03,1.86,2.18,3.01,3.03h-.01c.36,1.24,1.21,2.22,1.76,3.38,.81,1.71,1.45,3.46,1.8,5.32,.09,.45,.15,.78,.7,.91,2.76,.67,5.32,1.83,7.76,3.29,.1,.06,.25,0,.38,0h-.02c.08,.05-.06,.37,.23,.21,.28,.13,.51,.29,.6,.59,.84,.45,1.29,1.5,2.41,1.53,.12,.12,.25,.25,.37,.37l-.03-.05c-.09,.81,.49,1.12,1.06,1.41h-.03c.08,.06,.15,.13,.23,.19,.09,.28,.27,.47,.54,.59,.17,.35,.33,.7,.5,1.05,.47,1.01,.94,2.03,1.4,3.04,.42,1.55,.85,3.1,1.27,4.65,.01,.18,.02,.38,.02,.57-.14,2.73,.14,5.49-.59,8.18-.22,.79-.35,1.59-.52,2.37v-.03c-.06,.08-.15,.16-.23,.25-.09,.26-.17,.51-.26,.77-.87,1.47-1.75,2.95-2.62,4.41h.01c-.56,.12-.9,.41-.79,1.04h0c-.7-.1-.96,.54-1.41,.84-.7,.47-1.2,1.32-2.21,1.23,2.72-3.54,4.04-7.5,3.54-13.97-1.24,4.45-3.45,7.85-7.18,10.12,.02-.26,.05-.53,.08-.79,.77-1.36,.41-2.84,.4-4.29-.53,1.37-.83,2.79-1.75,4.03-2.37,3.18-5.59,4.79-9.41,5.43-3.44,.57-6.73,.33-9.72-1.68-2.21-1.5-3.58-3.64-4.56-6.06-.13-.31-.24-.64-.36-.95-.01-.02-.06-.04-.17-.11,.29,2,.4,3.94,.12,5.9-.1,.68,.78,.81,1.26,1.09,2.56,1.48,4.69,3.38,6.33,5.86,1.99,3,2.76,6.3,2.63,9.86-.01,.54-.03,1.07-.03,1.61-.57,2.51-1.12,5.03-2.6,7.22,.32-2.18,.93-4.32,.95-6.55,.01-.64-.06-1.22-.26-1.99-1.81,5.86-6.01,8.54-11.59,9.56-1.23,.23-2.47,.16-3.7,.31-.86,.1-1.44-.11-1.38-1.23,.06-1.17-.12-2.34-.27-3.56-.79,2.89-2.6,5.06-4.75,7.03-4.51,4.12-12.13,4.82-17.22,1.47-3.23-2.14-4.62-5.38-5.05-9.11-.17-1.5-.24-3.02,.05-4.79-1.71,1.32-2.7,2.85-3.84,4.35-.63-1.11-.37-2.2-.37-3.25,0-.74-.26-.79-.83-.53-2.27,1.05-4.21,2.47-5.48,4.66-.43,.74-.6,.76-1.06,.02-2.18-3.46-2.59-7.23-2.05-11.19,.22-1.6,.73-3.12,1.23-4.8-2.45,.43-4.2,1.58-5.6,3.4,.12-1.45,.7-2.71,1.46-3.91,.77-1.21,1.67-2.3,2.76-3.21,1.1-.91,2.3-1.73,3.49-2.6-6.04-1.05-11.62,2.65-15.57,10.37-1-2.32-1.52-4.64-1.44-7.1,.11-3.05,.9-5.89,2.67-8.42,.44-.64,.06-.71-.4-.8-1.74-.3-3.43-.02-4.99,.71-1,.47-1.38,.12-1.82-.63-2.04-3.41-1.83-6.9-.42-10.47,1.74-4.38,5.61-5.55,9.64-6.51,.16-.03,.32-.08,.5-.23-1.49-.41-3.02-.68-4.4-1.37-1.44-.71-2.61-1.75-3.41-3.25-.35,.4-.06,.71-.03,1,.08,.8-.13,1.28-.88,1.77-4.45,2.87-6.68,7.08-7.12,12.28-.25,2.99-.06,5.96,.8,8.85,.18,.6-.03,.73-.57,.8-1.91,.22-3.35,1.22-4.44,2.75-.53,.73-.92,.93-1.63,.1-1.13-1.34-2.41-2.57-4.41-3.18,2.63,5.56,3.96,10.99,.13,16.39,.25-2.63,.16-5.18-1.61-7.7-.21,2.13-.42,3.98-1.86,5.37-.05-.04-.11-.08-.15-.12-.06-2.62-.51-5.12-2.36-7.13-3.47-3.78-10.31-3.99-14.06-.46-.22,.21-.33,.51-.69,.53-.13-1.81,.74-3.1,4.82-7.12-1.79-.36-5.56,.78-7.38,2.13-2.17,1.61-3.57,3.74-4.63,6.19-.39-3.04,.4-5.74,2.47-8.35-3.3,1.03-5.26,3.08-6.32,6.11-.1-.15-.16-.21-.16-.26-.03-.92,.17-2.21-.76-2.46-.56-.14-.82,1.32-1.24,2.04-.18,.32-.23,.73-.33,1.1-.56-.68-.04-1.5-.35-2.24m137.73-24.08c.5,3.73-.46,7.03-2.95,9.85-.11,.02-.23,.04-.33,.06,.18,.25,.24,0,.32-.09,4.54-1.59,6-6.41,2.96-9.83ZM41.83,21.84c-3.58,1.05-5.6,3.63-6.95,7.26,4.26-4.81,9.45-5.58,15.12-4.49,1.18,.23,1.4,.04,1.51-1.2,.44-4.86,2.79-7.72,7.56-9.27,1-.32,2.05-.6,3.23-.57-2.4-.92-5.33-.51-8.02,1.07-1.88,.55-2.78,2.13-3.78,3.62-.28,.42-.58,.9-.66,1.38-.24,1.55-1.27,1.49-2.44,1.38-1.91-.19-3.8-.08-5.57,.81h-.01Zm27.45,11.32c1.55,.41,3,.74,4.35,1.42,.67,.33,.68-.46,.86-.81,1.64-3.09,4.05-5.12,7.56-5.77,2.95-.55,5.78-.12,8.61,.68,.09,.02,.16,.02,.45,.08-2.28-2.13-4.8-3.44-7.59-4.18-1.34-.36-2.07-1.1-2.82-2.14-3.16-4.37-7.45-6.92-12.82-7.7,3.04,2.18,5.41,4.83,5.64,8.71,.23,3.8-1.86,6.73-4.26,9.7h0Zm56.74,11.56c-4.05-1.65-5.1-5.09-5.07-8.87,.04-4.49,2.62-7.32,7.2-8.72-2.27-.21-4.19-.35-6.09,.1-.78,.18-1.42-.15-2.12-.36-2.83-.86-5.56-.83-8.08,.94-.21,.15-.47,.25-.41,.67,2-.23,3.95-.02,5.74,.97,1.82,1.01,2.73,2.64,3.08,4.64,.05,.28-.08,.5-.18,.72-.65,1.35-.66,2.79-.83,4.24-.27,2.27,1.06,3.37,2.68,4.35,1.25,.76,2.65,1.08,4.08,1.32h.01Zm-14.48,14.09c-4.49-.71-8.47,.5-12.02,3.17-.71,.53-1.22,.56-1.93,.23-1.46-.68-3-.92-4.68-.76,3.24,1.69,5.48,4.26,6.97,7.77,1.63-6.13,5.98-9.01,11.67-10.42h0Zm3.66-12.79c-.72-1.97-1.88-3.67-3.13-5.32-2.02-2.68-4.53-4.76-7.5-6.29-.27-.14-.58-.52-.9-.19-.23,.23,0,.56,.04,.85,.27,1.88,.36,3.74-.96,5.5,4.86,.41,8.9,2.32,12.44,5.45Zm-39.9,7.88c-.72,.92-1.15,1.99-1.38,3.13-.12,.58,.08,.88,.74,.7,2.5-.68,5.03-.43,7.68-.11-.95-2.51-.81-4.86,.97-7.2-3.27,.19-6.03,.96-8.02,3.47Z"/><path class="cls-4" d="M153.31,33.2c.7,.14,.56,.98,1.06,1.28,.18,.51,.36,1.01,.54,1.52-.06,.09-.13,.16-.19,.25-.47-1.01-.94-2.03-1.4-3.04h0Z"/><path class="cls-3" d="M155.89,38.39c-.13,.85,.66,1.65,.1,2.51-.42-1.55-.85-3.1-1.27-4.65,.06-.09,.13-.16,.19-.25,.56,.7,.49,1.66,.98,2.38Z"/><path class="cls-3" d="M156.01,41.49c.45,.02,.39,.35,.39,.65,.01,1.33,.03,2.64,.04,3.97-.18,1.26-.36,2.51-.54,3.78-.51,.64-.32,1.6-1,2.15,.17-.8,.3-1.6,.52-2.37,.73-2.7,.46-5.45,.59-8.18h0Z"/><path class="cls-3" d="M154.57,53.54c-.58,.97-1.31,1.9-1.69,2.95-.24,.64-.47,.91-1.08,.95,.87-1.47,1.75-2.95,2.62-4.41,.21,.13,.17,.32,.15,.52Z"/><path class="cls-3" d="M154.68,52.25c.08-.08,.16-.16,.24-.25-.08,.08-.16,.16-.24,.25Z"/><path class="cls-3" d="M151.02,58.47c-.39,.82-1.34,1.07-1.82,1.79-.67,.37-1.34,.73-1.87,1.28-.08-.02-.14-.04-.21-.05-.01-.11-.01-.21-.01-.3,.11-.23,.49-.32,.3-.67h-.01c1.01,.09,1.51-.76,2.21-1.23,.45-.31,.71-.94,1.41-.84v.02Z"/><path class="cls-3" d="M151.02,58.46c-.11-.63,.23-.92,.79-1.05,0,.55-.37,.82-.79,1.05Z"/><path class="cls-5" d="M.02,58.53c.29,.74-.23,1.56,.35,2.24-.01,.23-.06,.42-.28,.53"/><path class="cls-3" d="M68.24,4.6c.41-.38,.98-.54,1.28-1.04,.78-.45,1.54-.9,2.32-1.35,.97-.22,1.75-.93,2.77-1,.1,.05,.18,.12,.28,.17-2.48,.95-4.82,2.15-6.85,3.91-.24,.21-.46,.54-.87,.31,.16-.55,.78-.62,1.07-1.01h0Z"/><path class="cls-8" d="M74.63,1.19c.37-.17,.72-.36,1.08-.53,2.56-.52,5.13-.78,7.74-.52,.33,.03,.67,.06,1,.1-.39,.35-.85,.13-1.27,.21-2.81-.08-5.58,.08-8.28,.93-.1-.05-.18-.12-.28-.17h.01Z"/><path class="cls-8" d="M150.65,29.58c-1.11-.02-1.58-1.07-2.41-1.53,.37-.1,.68,.04,.97,.25,.47,.43,.96,.85,1.44,1.28Z"/><path class="cls-8" d="M152.09,31.4c-.58-.31-1.15-.63-1.06-1.42,.23,.22,.45,.43,.69,.65,.08,.27,.41,.43,.36,.77h.01Z"/><path class="cls-6" d="M.4,60.78c.11-.37,.15-.78,.33-1.1,.42-.72,.68-2.19,1.24-2.04,.94,.25,.72,1.54,.76,2.46,0,.05,.06,.11,.16,.26,1.06-3.03,3.01-5.08,6.32-6.11-2.07,2.61-2.86,5.31-2.47,8.35,1.06-2.45,2.47-4.59,4.63-6.19,1.82-1.35,5.6-2.48,7.38-2.13-4.08,4.03-4.95,5.32-4.82,7.12,.36-.02,.47-.33,.69-.53,3.76-3.53,10.59-3.31,14.06,.46,1.86,2.02,2.3,4.51,2.36,7.13-.13,.1-.26,.27-.11,.37,.18,.12,.18-.14,.25-.25,1.44-1.38,1.65-3.25,1.86-5.37,1.77,2.53,1.87,5.07,1.61,7.7,3.83-5.41,2.5-10.83-.13-16.39,2.02,.62,3.28,1.85,4.41,3.18,.71,.83,1.11,.65,1.63-.1,1.09-1.53,2.53-2.54,4.44-2.75,.54-.05,.76-.19,.57-.8-.87-2.89-1.06-5.86-.8-8.85,.44-5.2,2.68-9.41,7.12-12.28,.76-.47,.96-.97,.88-1.77-.03-.28-.32-.6,.03-1,.8,1.5,1.97,2.54,3.41,3.25,1.38,.68,2.91,.95,4.4,1.37-.18,.15-.33,.19-.5,.23-4.04,.96-7.9,2.13-9.64,6.51-1.41,3.56-1.62,7.05,.42,10.47,.44,.73,.83,1.09,1.82,.63,1.54-.73,3.25-1.01,4.99-.71,.47,.08,.85,.16,.4,.8-1.77,2.51-2.56,5.36-2.67,8.42-.09,2.45,.43,4.77,1.44,7.1,3.94-7.72,9.52-11.42,15.57-10.37-1.19,.87-2.37,1.68-3.49,2.6-1.1,.91-2,2-2.76,3.21-.76,1.2-1.34,2.45-1.46,3.91,1.4-1.82,3.15-2.98,5.6-3.4-.5,1.68-1.01,3.21-1.23,4.8-.55,3.96-.13,7.73,2.05,11.19,.46,.72,.63,.72,1.06-.02,1.27-2.19,3.22-3.62,5.48-4.66,.56-.27,.83-.22,.83,.53,0,1.05-.26,2.15,.37,3.25,1.14-1.5,2.14-3.04,3.84-4.35-.29,1.77-.23,3.29-.05,4.79,.42,3.72,1.81,6.97,5.05,9.11,5.08,3.36,12.7,2.67,17.22-1.47,2.15-1.95,3.96-4.13,4.75-7.03,.15,1.22,.32,2.4,.27,3.56-.06,1.12,.51,1.34,1.38,1.23,1.23-.15,2.46-.09,3.7-.31,5.58-1.03,9.78-3.7,11.59-9.56,.19,.76,.26,1.35,.26,1.99-.02,2.22-.63,4.37-.95,6.55-.13,.26-.62,.29-.47,.73-.58,.92-.91,2.02-2.08,2.48-.42,.16-.69,.69-1.04,1.05-.8-.41-1.13,.62-1.81,.59,.38-.88,1.15-1.59,1.31-2.59,.06-.09,.13-.18,.19-.28-.03-.02-.06-.04-.1-.06-.03,.12-.06,.23-.1,.35-1.35,.51-2.68,1.1-4.06,1.48-2.27,.62-4.59,.78-6.93,.72-.45-.01-.92,.06-1.37,.11-.1-.7,.52-1.36,.08-2.16-.19,1.63-.96,3.01-1.37,4.5-.85,.93-1.52,1.99-2.08,3.12-.23,.06-.29,.25-.3,.45-.28,0-.55,.02-.73,.28-2.58,.91-5.16,1.78-7.89,2.17-7.73,1.11-15.52-2.78-18.55-10.51-1.06,1.76-.91,3.68-.91,5.85-1.64-2.01-2.65-3.97-3.09-6.23-.05-.24,.08-.57-.23-.68-.36-.13-.54,.22-.72,.42-1.79,1.97-2.99,4.26-3.42,6.91-.11,.66-.3,.94-.98,1.08-7.39,1.58-14.31-1.28-17.15-9.09-.8-2.17-1.31-4.41-1.59-6.82-1.22,.5-2.09,1.35-2.9,2.27-1.8,2.04-2.76,4.5-3.39,7.09-.18,.79-.57,1-1.29,1.11-3.18,.45-5.97-.41-8.54-2.28-.71-.51-.26-.71,.04-1.05,1.73-1.89,3.06-3.99,3.67-6.52,.11-.42,.15-.83,.02-1.39-1.31,.53-2.24,1.55-3.39,2.23-2.45,1.48-5.02,2.64-7.89,2.78-3.78,.18-6.91-1.49-9.66-3.86-3.64-3.14-5.36-7.21-5.56-11.97-.01-.28,.14-.7-.25-.77-.24-.04-.56,.15-.8,.31-.78,.52-1.14,1.36-1.68,2.36-.06-.55-.11-.88-.15-1.22-.3,.7-.05,1.51-.47,2.23-2.13-.86-2.81-2.75-3.29-4.73-.16-.69-.41-1.4-.31-2.15,.03-.23,.11-.56-.21-.67-.31-.12-.42,.18-.56,.39-.42,.58-.84,1.18-1.26,1.76-.01-.41-.03-.82-.05-1.23h-.17c-.03,.5-.05,1-.08,1.5-.67-.78-.56-2.99-1.89-1.49,.06-.84-.3-.43-.43-1.06,.22-.12,.28-.31,.28-.53h.02Z"/><path class="cls-6" d="M143.85,55.87c-.88,1.5-1.94,2.89-2.63,4.5-.03,.04-.09,.09-.13,.13-.43-.1-.77,.14-1.06,.37-1.82,1.39-3.85,2.16-6.14,2.26-.4,.02-.8,.22-1.2,.42,3.16-.79,6.32,.7,9.49-.13,.63-.16,.84,.27,.84,.82v2.95c-1.85,2.31-3.72,4.58-6.26,6.17-2.02,1.27-4.22,1.99-6.63,2.13-.94,.05-1.19-.24-1.03-1.11,.05-.31-.02-.66-.04-1.08-.43,.56,.03,1.22-.43,1.65,.13-3.55-.65-6.86-2.63-9.86-1.63-2.48-3.78-4.38-6.33-5.86-.49-.27-1.36-.41-1.26-1.09,.28-1.96,.17-3.91-.12-5.9,.11,.06,.16,.08,.17,.11,.12,.31,.23,.64,.36,.95,.98,2.43,2.35,4.56,4.56,6.06,2.99,2.03,6.28,2.26,9.72,1.68,3.83-.63,7.04-2.24,9.41-5.43,.92-1.23,1.22-2.65,1.75-4.03,.01,1.46,.36,2.94-.4,4.29h-.01Z"/><path class="cls-5" d="M69.27,33.12c2.42-2.97,4.49-5.9,4.26-9.7-.24-3.87-2.61-6.53-5.64-8.71,5.37,.79,9.67,3.33,12.82,7.7,.74,1.04,1.48,1.78,2.82,2.14,2.78,.73,5.32,2.05,7.59,4.18-.29-.04-.38-.05-.45-.08-2.83-.8-5.67-1.23-8.61-.68-3.51,.66-5.92,2.69-7.56,5.77-.18,.35-.21,1.14-.86,.81-1.35-.68-2.79-1.01-4.35-1.42h0Z"/><path class="cls-2" d="M143.01,67.2c-.02,2.15-.59,4.17-1.48,6.11-.21,.45-.38,.94-.56,1.4-.23,.11-.26,.31-.22,.53h0c-.7,.01-.73,.55-.81,1.05-.09,.14-.17,.29-.26,.44l-1.5,1.32c-.57,.05-1.06,.24-1.35,.77-2.45,1.31-4.97,2.43-7.73,2.97-.46,.09-1,.31-1.34-.03-.31-.32,.06-.8,.21-1.18,.46-1.31,.7-2.64,.62-4.03,.01-.53,.03-1.07,.03-1.6,.47-.43,.01-1.09,.43-1.65,.02,.42,.1,.77,.04,1.08-.16,.87,.08,1.17,1.03,1.11,2.41-.14,4.61-.85,6.63-2.13,2.54-1.6,4.41-3.87,6.26-6.17h0Z"/><path class="cls-5" d="M41.84,21.81c1.69-.1,3.35-.7,5.08-.5,.59,.06,1.2-.09,1.78,.15,.51,.21,.84-.03,.99-.52,.83-2.61,2.47-4.65,4.6-6.32,2.7-1.58,5.62-1.97,8.02-1.07-1.18-.03-2.22,.25-3.23,.57-4.77,1.55-7.12,4.41-7.56,9.27-.11,1.24-.33,1.42-1.51,1.2-5.68-1.09-10.86-.32-15.12,4.49,1.35-3.64,3.36-6.22,6.95-7.26h0Z"/><path class="cls-7" d="M126,44.68c-1.42-.24-2.83-.56-4.08-1.32-1.61-.98-2.94-2.07-2.68-4.35,.17-1.46,.19-2.89,.83-4.24,.11-.23,.24-.43,.18-.72-.35-2.01-1.25-3.63-3.08-4.64-1.79-1-3.74-1.2-5.74-.97-.06-.43,.21-.53,.41-.67,2.53-1.77,5.26-1.8,8.08-.94,.69,.21,1.34,.54,2.12,.36,1.91-.44,3.83-.29,6.09-.1-4.58,1.4-7.15,4.23-7.2,8.72-.04,3.78,1.03,7.22,5.07,8.87h-.01Z"/><path class="cls-5" d="M143.77,56.66c3.72-2.29,5.92-5.69,7.18-10.12,.5,6.47-.82,10.44-3.54,13.97h.01c-.32,.12-.54,.31-.47,.7-3.39,1.99-7.87,2.68-9.92,1.73,1.5-.62,2.89-1.34,4.06-2.44,.05-.03,.14-.13,.14-.13,1.21-.99,1.74-2.45,2.55-3.71Z"/><path class="cls-7" d="M111.54,58.75c-5.68,1.41-10.04,4.29-11.67,10.42-1.5-3.5-3.73-6.06-6.97-7.77,1.68-.16,3.23,.08,4.68,.76,.72,.33,1.22,.31,1.93-.23,3.55-2.68,7.53-3.88,12.02-3.17h0Z"/><path class="cls-5" d="M103.7,35.02c-.04-.29-.27-.63-.04-.85,.31-.32,.63,.05,.9,.19,2.97,1.54,5.47,3.63,7.5,6.29,1.25,1.65,2.41,3.35,3.13,5.32-3.54-3.13-7.59-5.04-12.44-5.45,1.32-1.76,1.23-3.63,.96-5.5Z"/><path class="cls-5" d="M15.84,22.6v-.38c.09-.17,.23-.17,.39-.13,1.49-.56,2.47-.35,2.49,1.53,0,.3,.15,.74,.59,.87-1.26-4.24,.04-7.91,2.47-11.33,.27-.38,.58-.76,.54-1.27,.15-.19,.31-.39,.46-.58,.13-.09,.26-.17,.39-.26,.32-.09,.64-.17,.96-.26-.02,.63-.38,1.13-.66,1.65-1.56,2.9-2.29,5.99-1.94,9.27,.25,2.28,.98,4.38,2.72,6-3.43-.08-6.31-1.06-7.45-4.77-.16-.54-.5-.63-.96-.33h-.01Z"/><path class="cls-5" d="M82.34,57.58c-2.65-.33-5.18-.57-7.68,.11-.67,.18-.86-.12-.74-.7,.22-1.14,.66-2.21,1.38-3.13,1.99-2.51,4.75-3.28,8.02-3.47-1.78,2.35-1.92,4.69-.97,7.2Z"/><path class="cls-7" d="M134.77,44.29h.01c2.48-2.84,3.44-6.12,2.95-9.85,3.04,3.41,1.59,8.24-2.96,9.83v.02Z"/><path class="cls-6" d="M8.03,36.79c.1-.08,.21-.15,.3-.23,.39,.29,.83,.36,.8-.24-.05-1.13,.33-2.3-.18-3.4,.09-.52,.18-1.05,.27-1.58,.14,.01,.28,.02,.42,.02-.41,4.74,.93,8.67,5.33,11.41-1.55-.31-2.76-.85-3.82-1.78-1.34-1.18-2.17-2.73-3.12-4.2h0Z"/><path class="cls-3" d="M135.83,15.16c.58,1.06,1.18,2.1,1.76,3.16-.03,.29,.14,.5,.3,.7,.35,1.27,.7,2.56,1.05,3.84,.41,1.29,1.69,.84,2.54,1.27,1.29,.54,2.58,1.07,3.86,1.6,.57,.39,1.11,.84,1.8,1.03,.1,.16,.19,.33,.29,.5-.13,0-.29,.05-.38,0-2.44-1.46-5-2.62-7.76-3.29-.55-.13-.62-.45-.7-.91-.36-1.85-.98-3.62-1.8-5.32-.55-1.14-1.4-2.14-1.76-3.38,.41,.13,.56,.51,.81,.79h-.01Z"/><path class="cls-8" d="M136.87,78.83c.1,.01,.19,.01,.29,.01-.92,.82-2.05,1.25-3.11,1.83-.16-.03-.26,.04-.29,.19-1.28,.36-2.56,.72-3.84,1.09-.33,.06-.66,.21-.98,.21-1.11,.03-2.02,.31-2.42,1.5-.15,.43-.42,.84-.99,.84-.14-.44,.35-.47,.47-.74,1.47-2.19,2.03-4.7,2.6-7.22,.09,1.39-.14,2.72-.62,4.03-.14,.38-.52,.85-.21,1.18,.32,.35,.87,.12,1.34,.03,2.75-.54,5.27-1.66,7.73-2.97l.02,.02Z"/><path class="cls-8" d="M44.37,10.2c.13,.11,.32,0,.41-.18,1.23-.66,2.43-1.41,3.85-1.62,.16,.01,.31,.02,.46,.02,.18,.09,.37,.16,.55,.25-1.56,.14-3.02,.6-4.27,1.58-.54,.41-.95,.43-1.59,.04-2.08-1.28-4.32-2.28-6.76-2.68,.09-.08,.18-.15,.28-.23,1.26-.05,2.36,.55,3.54,.85,1.13,.73,2.45,1.11,3.52,1.96Z"/><path class="cls-4" d="M41.85,21.82c1.76-.87,3.65-.99,5.57-.81,1.17,.11,2.2,.16,2.44-1.38,.08-.49,.38-.96,.66-1.38,.98-1.48,1.9-3.05,3.78-3.62-2.13,1.67-3.77,3.71-4.6,6.32-.16,.47-.49,.72-.99,.52-.58-.23-1.19-.08-1.78-.15-1.73-.21-3.38,.4-5.08,.5h.01Z"/><path class="cls-3" d="M84.44,.26c.93,.16,1.87,.32,2.79,.49,1.22,.43,2.44,.85,3.66,1.28,.93,.45,1.72,1.25,2.88,1.07,.09,.06,.16,.13,.25,.19-.37,.32-.69,.52-1.23,.21-2.97-1.75-6.26-2.51-9.62-3.04,.43-.08,.9,.14,1.27-.21h-.01Z"/><path class="cls-3" d="M106.89,.47c-.25,.05-.51,.18-.74,.14-2.26-.38-4.48-.08-6.7,.3,.44-.8,1.27-.59,1.95-.74,1.75-.4,3.51,.05,5.27-.01,.15,.05,.26,.13,.22,.31h.01Z"/><path class="cls-3" d="M30.53,7.63c.01-.39,.26-.51,.59-.49,.69,.04,1.34-.16,2-.3,1.29,.09,2.59,.18,3.88,.27,.1,.1,.21,.18,.3,.27-.09,.08-.18,.15-.28,.23-2.17-.38-4.33-.29-6.5,.02Z"/><path class="cls-3" d="M.91,45.85l-.19-.52c.17-1.09,.69-2.06,1.04-3.1,.23-.36,.44-.7,.67-1.05,.49-.64,.86-1.37,1.54-1.83,.05,.06,.11,.12,.18,.16-1.55,1.87-2.7,3.94-3.25,6.31v.02Z"/><path class="cls-8" d="M.41,46.13c.29-.21,.16-.56,.29-.82l.19,.52c-.09,.8-.18,1.61-.25,2.41-.02,.32-.11,.63-.44,.69"/><path class="cls-8" d="M23.2,11.08c.74-.6,1.48-1.22,2.22-1.83,1.25-.4,2.27-1.49,3.73-1.25-1.65,.72-3.37,1.33-4.75,2.56-.09,.09-.17,.17-.26,.26h0c-.32,.09-.64,.17-.96,.26h.01Z"/><path class="cls-4" d="M118.8,6.6c.19-.27,.5-.19,.77-.23,.86,.03,1.75-.1,2.59,.23,1.05,.17,2.13,.23,3.05,.85-2.15-.16-4.23-.91-6.41-.85Z"/><path class="cls-3" d="M132.04,11.32c1.88,.16,2.07,1.97,3.01,3.05-1.15-.87-2.02-2.03-3.01-3.05Z"/><path class="cls-3" d="M62.02,10.18c-1.05,.04-2.2-.28-3.08,.46-1.04,.88-1.71,.43-2.36-.42,.99,.51,1.93,.43,2.83-.25,.15-.12,.39-.12,.58-.18,.6,.47,1.42-.11,2.03,.39Z"/><path class="cls-8" d="M15.85,22.25v.38c-1.5,.85-2.73,2.01-3.85,3.3-.16-.56,.27-.85,.57-1.19,.92-1.06,2.01-1.9,3.28-2.5h0Z"/><path class="cls-3" d="M9.22,31.35c.04-.26,.1-.51,.14-.77,.57-1.15,.64-2.54,1.55-3.55,.17,.35,.02,.63-.11,.96-.42,1.12-.78,2.26-1.17,3.39-.14-.01-.28-.02-.42-.02h0Z"/><path class="cls-3" d="M7.77,36.84c-1.04,1.12-2.49,1.67-3.63,2.67-.08-.04-.13-.1-.18-.16,.29-.33,.58-.66,.87-.99,.53-.08,.82-.52,1.23-.78,.57-.24,1.13-.49,1.71-.72h0Z"/><path class="cls-8" d="M115.5,5.08c-1.07-.76-2.12-1.54-3.16-2.32,.01-.11,.02-.22,.02-.32,.68,.38,1.35,.74,2.03,1.12,.65,.6,1.31,1.2,1.95,1.8-.41,.31-.6-.12-.84-.28Z"/><path class="cls-8" d="M141.21,60.37c.7-1.61,1.76-3,2.63-4.5-.02,.26-.05,.53-.08,.79-.81,1.26-1.34,2.72-2.55,3.71h-.01Z"/><path class="cls-8" d="M93.79,3.08c.42-.29,.84-.57,1.26-.86,1.12-.14,1.96-1.27,3.23-.95-1.41,.68-2.84,1.35-4.25,2.02-.09-.06-.16-.13-.25-.19h.01Z"/><path class="cls-8" d="M60.22,9.68c1.48,.05,3.08,.63,4.14-1-.72,1.69-1,1.88-2.34,1.5-.6-.49-1.42,.09-2.03-.39,.08-.05,.15-.09,.23-.11Z"/><path class="cls-3" d="M108.33,1.02c.83-.36,1.49,.23,2.21,.43,.6,.32,1.21,.66,1.81,.99-.01,.11-.02,.22-.02,.32-1.34-.58-2.67-1.17-4-1.75Z"/><path class="cls-3" d="M64.34,8.7c.47-1.47,1.89-2.08,2.85-3.11-.59,1.36-1.78,2.18-2.85,3.11Z"/><path class="cls-8" d="M130.15,9.74c-1.33-.4-2.5-1.09-3.66-1.83,1.28,.04,2.19,1.03,3.37,1.34,.1,.17,.19,.33,.29,.5Z"/><path class="cls-2" d="M51.51,8.44c-.56,.53-1.25,.13-1.87,.24-.18-.09-.37-.16-.55-.25,.81-.35,1.61-.41,2.42,0h0Z"/><path class="cls-2" d="M116.95,6.4c.09-.06,.18-.14,.28-.22,.36-.03,.7-.06,1.06-.1,.42,.12,.92-.08,1.28,.28-.27,.03-.57-.04-.77,.23-.63-.02-1.27,.24-1.86-.19Z"/><path class="cls-8" d="M116.95,6.41c-.21-.18-.52-.33-.23-.68,.16,.15,.33,.3,.51,.45-.09,.06-.18,.14-.28,.22h0Z"/><path class="cls-8" d="M130.12,9.72c.08,.06,.14,.12,.22,.18-.25,.15-.13-.14-.22-.18Z"/><path class="cls-7" d="M134.79,44.27h-.01c-.1,.08-.14,.32-.32,.08,.11-.02,.23-.04,.33-.06h0Z"/><path class="cls-3" d="M147.42,27.24c.08,.08,.15,.14,.23,.22-.29,.16-.14-.15-.23-.22Z"/><path class="cls-8" d="M152.05,31.37c.08,.06,.15,.13,.23,.19-.08-.06-.15-.13-.23-.19Z"/><path class="cls-5" d="M24.13,10.79c.09-.09,.17-.17,.26-.26-.09,.09-.17,.17-.26,.26Z"/><path class="cls-8" d="M145.36,62.48c-.16,.04-.33,.06-.5,.12-1.77,.65-1.89,.92-1.29,2.84-.1,1.26-.21,2.51-.3,3.78-.35,1.21-.68,2.42-1.03,3.63-.35,.47-.64,.97-.76,1.55-.16,.18-.33,.37-.5,.55v-.25c.18-.46,.36-.94,.56-1.4,.88-1.94,1.46-3.96,1.48-6.11v-2.95c0-.56-.22-.98-.84-.82-3.16,.83-6.32-.66-9.49,.13,.39-.21,.79-.4,1.2-.42,2.3-.1,4.33-.87,6.14-2.26,.29-.23,.63-.46,1.06-.37-1.17,1.1-2.56,1.82-4.06,2.44,2.04,.96,6.52,.26,9.92-1.73,.06,0,.13-.01,.18-.03,0,.11,.01,.21,.01,.3-.6,.33-1.2,.68-1.8,1.01v-.02Z"/><path class="cls-1" d="M147.43,60.51c.18,.35-.18,.44-.29,.67-.06,.02-.12,.03-.18,.03-.06-.38,.15-.57,.47-.7Z"/><path class="cls-2" d="M.1,61.29c.13,.64,.49,.23,.43,1.07,1.33-1.5,1.23,.7,1.89,1.48h0c.01,.22,.05,.43,.01,.64-.13,.65,.41,1.59-.56,1.89"/><path class="cls-4" d="M78.28,99.39c.22-.28,.44-.13,.68-.02,3.13,1.38,6.43,1.87,9.83,1.87,.71,0,1.46-.24,2.13,.21-1.2,.03-2.4,.05-3.59,.09-1.28-.11-2.58-.22-3.87-.32-1.27-.36-2.56-.7-3.83-1.06-.44-.25-.88-.5-1.33-.74h-.01Z"/><path class="cls-2" d="M78.3,99.4c-.3-.09-.62-.17-.8-.46-.62-.81-1.32-1.5-2.32-1.8-.06-.02-.12-.02-.18-.02-1.78,.3-3.35,1.22-5.06,1.73-4.61,1.35-9.2,1.67-13.82,.1-1.47-.51-2.81-1.25-4.13-2.02-.3-.17-.57-.37-.94-.31-.19-.18-.39-.38-.58-.56-.35-.32-.88-.42-1.08-.93,.02-.35-.1-.58-.49-.6-.03-.11-.08-.23-.11-.33-.03,.02-.1,.06-.1,.06,.05,.1,.12,.18,.18,.28-5.14,1.85-10.13,1.82-14.95-1.03-.39-.23-.85-.36-1.28-.54-.12-.62-.6-.7-1.1-.76-.08-.06-.15-.12-.23-.18,.03-.42-.16-.6-.57-.58-.65-.06-.69-.82-1.2-1.05-.27-.35-.53-.69-.8-1.04,.26-.66-.33-.98-.59-1.4-.9-1.46-.92-1.44,.58-2.12-.83,.03-1.66,.24-2.5,.21-.19-.01-.11,.25-.03,.4-.17,.02-.36,.03-.53,.04-.16-.69-.77-.28-1.05-.29-1.92-.08-3.74-.72-5.63-.93-.39-.08-.56-.63-1.06-.5-.26-.17-.53-.35-.79-.52-1.21-.21-1.96-1.11-2.84-1.85,.19-.59-.27-.45-.56-.51l-.98-.98c-.06-.12,.18-.51-.26-.3-.47-.33-.73-.84-1.04-1.31,.29-.26,.03-.5-.09-.67-1.52-2.29-2.4-4.79-2.6-7.54-.22,.76-.24,1.5,.09,2.36-1.35-.21-2.16-1.29-3.32-1.62-.27-.09-.44-.26-.53-.53-.09-1-.94-1.6-1.34-2.44-.81-1.68-1.13-3.45-.95-5.31,.42-.58,.85-1.17,1.26-1.76,.14-.21,.25-.51,.56-.39,.3,.11,.24,.44,.21,.67-.1,.74,.14,1.46,.31,2.15,.49,1.97,1.17,3.86,3.29,4.73,.42-.72,.17-1.52,.47-2.23,.04,.33,.08,.67,.15,1.22,.54-1,.92-1.83,1.68-2.36,.24-.16,.55-.36,.8-.31,.39,.06,.24,.49,.25,.77,.19,4.76,1.92,8.83,5.56,11.97,2.76,2.37,5.89,4.05,9.66,3.86,2.87-.15,5.44-1.32,7.89-2.78,1.14-.69,2.09-1.71,3.39-2.23,.12,.55,.09,.96-.02,1.39-.6,2.53-1.94,4.63-3.67,6.52-.3,.33-.74,.53-.04,1.05,2.57,1.87,5.35,2.73,8.54,2.28,.72-.11,1.1-.32,1.29-1.11,.63-2.59,1.59-5.05,3.39-7.09,.81-.92,1.68-1.77,2.9-2.27,.29,2.41,.8,4.64,1.59,6.82,2.85,7.8,9.76,10.66,17.15,9.09,.68-.14,.87-.42,.98-1.08,.43-2.64,1.63-4.92,3.42-6.91,.18-.21,.37-.55,.72-.42,.31,.11,.18,.44,.23,.68,.43,2.26,1.45,4.22,3.09,6.23,.01-2.17-.15-4.08,.91-5.85,3.02,7.73,10.82,11.62,18.55,10.51,2.74-.4,5.31-1.26,7.89-2.17,.01,.21,.02,.41,.02,.62-.24,.41-.6,.69-.99,.95-.13,.05-.5-.13-.28,.28-.17,.53-.9,.46-1.07,.99-.09,.01-.17,.02-.26,.02-.32-.3-.55,.01-.77,.15-2.99,1.89-6.23,3.05-9.74,3.44-.33,.04-.5,.1-.3,.44-.18,.04-.36,.09-.54,.13-.09-.03-.17-.05-.26-.09-.67-.44-1.42-.21-2.13-.21-3.4-.01-6.7-.49-9.83-1.87-.24-.11-.46-.25-.68,.02h.01Z"/><path class="cls-4" d="M102.54,97.4c-1.08,.92-2.35,1.5-3.6,2.12-1.24,.58-2.55,.95-3.86,1.26-1.09,.39-2.23,.46-3.36,.65-.19-.36-.02-.41,.3-.44,3.51-.4,6.76-1.55,9.74-3.44,.22-.14,.44-.45,.77-.15h.01Z"/><path class="cls-8" d="M74.98,97.14c-.92,.78-2.15,.93-3.14,1.55-1.82,.5-3.65,.99-5.47,1.49-.67,.02-1.34,.05-2.01,.08-1.38,.4-2.77,.04-4.15,0-1.33-.06-2.59-.43-3.86-.77-1.19-.54-2.38-1.08-3.58-1.62-.58-.42-1.15-.83-1.74-1.25,.37-.06,.64,.14,.94,.31,1.33,.77,2.68,1.52,4.13,2.02,4.62,1.58,9.22,1.26,13.82-.1,1.71-.51,3.28-1.42,5.06-1.73h0Z"/><path class="cls-2" d="M121.86,86.04h.01c-.15,1-.92,1.69-1.31,2.59v.02c-1.61,1.12-3.5,1.42-5.37,1.75-.29,.04-.6-.02-.8,.28-1.42-.09-2.86-.02-4.29-.25-1.39-.23-1.46-.23-.86-1.53,.09-.19,.19-.38,.29-.57,.45-.03,.92-.12,1.37-.11,2.34,.05,4.67-.12,6.93-.72,1.38-.38,2.71-.98,4.06-1.48l-.02,.02Z"/><path class="cls-4" d="M1.87,66.38c.98-.3,.44-1.23,.56-1.89,.04-.21-.01-.42-.01-.64,.03-.5,.05-1,.08-1.5h.17c.01,.41,.03,.82,.05,1.23-.18,1.86,.14,3.63,.95,5.31,.4,.84,1.24,1.44,1.34,2.44h0c-.7-.54-.99-1.4-1.56-2.05-.31-.77-.62-1.54-.92-2.31"/><path class="cls-4" d="M114.4,90.88v.08h-3.85c-.66-.28-1.36-.3-2.06-.28h-.25c.42-1.49,1.18-2.87,1.37-4.5,.43,.8-.17,1.46-.08,2.16-.1,.19-.21,.38-.29,.57-.59,1.31-.53,1.31,.86,1.53,1.44,.23,2.86,.16,4.29,.25v.19Z"/><path class="cls-3" d="M108.48,90.67c-.35,.6-.68,1.2-1.01,1.8-.22,.44-.8,.65-.82,1.22l-.51,.35v-.25c.56-1.13,1.23-2.19,2.08-3.12h.26Z"/><path class="cls-2" d="M120.91,88.88c-.11-.08-.22-.15-.32-.23v-.02c.68,.02,1.01-1,1.81-.59-.5,.29-.86,.8-1.5,.84h.01Z"/><path class="cls-4" d="M105.84,94.24l.06,.06c-.26,.27-.52,.55-.78,.83-.01-.21-.02-.41-.02-.62,.18-.26,.45-.28,.73-.28Z"/><path class="cls-2" d="M121.9,86.03h-.01c.03-.12,.06-.23,.1-.35,.03,.02,.06,.04,.1,.06-.06,.09-.13,.18-.19,.28h.01Z"/><path class="cls-1" d="M31.17,68.58c-.06,.11-.05,.37-.25,.25-.15-.09-.02-.27,.11-.37,.04,.04,.09,.09,.14,.12Z"/><path class="cls-4" d="M105.91,94.31l-.06-.06c.01-.21,.08-.39,.3-.45-.01,.08,0,.16,0,.25-.08,.1-.16,.18-.24,.27Z"/><path class="cls-4" d="M137.14,78.82c-.1-.01-.19-.01-.29-.01,.29-.53,.78-.71,1.35-.77-.28,.25-.57,.5-.85,.74-.06,.01-.14,.03-.21,.03Z"/><path class="cls-4" d="M140.75,75.24c-.12,.46-.46,.76-.81,1.05,.08-.5,.1-1.05,.81-1.05Z"/><path class="cls-4" d="M140.76,75.24c-.04-.23-.01-.42,.22-.54v.25c-.08,.1-.15,.19-.23,.29h.01Z"/><path class="cls-8" d="M17.65,21.31c1.28-.35,.8-1.47,.99-2.29,.44-1.29,.9-2.58,1.34-3.86,.52-.84,1.03-1.67,1.54-2.51,.27-.24,.53-.49,.8-.72,.04,.51-.26,.88-.53,1.26-2.44,3.42-3.73,7.09-2.47,11.33-.44-.13-.59-.57-.59-.87-.02-1.88-1-2.09-2.49-1.53,.37-.47,1.01-.42,1.42-.81h-.01Z"/><path class="cls-4" d="M8.96,32.94c.52,1.1,.12,2.27,.18,3.4,.03,.6-.42,.53-.8,.24,1.13-.45,.31-1.39,.51-2.08,.03-.52,.06-1.04,.1-1.55h.01Z"/><path class="cls-8" d="M75.71,97.86c-.18-.24-.37-.49-.55-.72,1,.3,1.71,1,2.32,1.8-.7-.17-1.17-.74-1.77-1.08Z"/><path class="cls-4" d="M36.98,95.37c-1.19-.53-2.38-1.07-3.57-1.61-.21-.32-.7-.3-.82-.72l.04-.04c.43,.17,.88,.3,1.28,.54,4.81,2.85,9.82,2.87,14.95,1.03l.02-.02c.39,.02,.51,.25,.49,.6-.25-.02-.5-.03-.74-.04-3.85,1.14-7.73,1.44-11.63,.26h-.01Z"/><path class="cls-4" d="M10.13,77.27c.03-.16-.05-.24-.21-.28-.35-2.29-1.78-3.63-3.85-4.42-.18-.24-.36-.47-.54-.71,1.15,.32,1.96,1.41,3.32,1.62-.31-.85-.29-1.61-.09-2.36,.21,2.75,1.08,5.26,2.6,7.54,.12,.17,.38,.41,.09,.67-.58-.59-.9-1.35-1.32-2.04h-.01Z"/><path class="cls-4" d="M21.54,86.27c-.81-.45-1.8-.41-2.56-.98,1.9,.19,3.71,.85,5.63,.93,.28,.01,.88-.4,1.05,.29-.09,.03-.16,.05-.25,.09-1.29-.11-2.58-.22-3.87-.32Z"/><path class="cls-4" d="M26.2,86.46c-.09-.14-.16-.4,.03-.4,.84,.04,1.67-.17,2.5-.21-1.51,.68-1.48,.66-.58,2.12,.26,.42,.85,.74,.59,1.4-.25-.26-.5-.52-.74-.78-.55-.77-.6-1.94-1.81-2.14h.01Z"/><path class="cls-4" d="M32.64,92.98l-.04,.04c-.33-.18-.66-.37-.99-.55-.01-.09-.03-.17-.06-.25,.51,.05,.98,.14,1.1,.76Z"/><path class="cls-4" d="M13.74,81.91c.29,.05,.77-.09,.56,.51-.17-.09-.33-.18-.5-.27-.01-.09-.03-.16-.06-.24Z"/><path class="cls-4" d="M31.31,92.04c-.18-.19-.38-.39-.57-.58,.4-.01,.6,.17,.57,.58Z"/><path class="cls-4" d="M12.76,80.93c-.08-.03-.15-.06-.24-.06-.02-.08-.02-.16-.02-.24,.44-.21,.19,.18,.26,.3Z"/><path class="cls-4" d="M48.88,94.51l-.02,.02c-.06-.09-.13-.18-.18-.28,0,0,.06-.04,.1-.06,.03,.11,.08,.23,.11,.33h0Z"/><path class="cls-4" d="M103.86,96.36c-.23-.42,.14-.23,.28-.28-.03,.09-.06,.16-.06,.25-.08,.01-.14,.02-.22,.03Z"/><path class="cls-8" d="M114.4,90.88v-.19c.19-.3,.51-.23,.8-.28,1.88-.31,3.76-.62,5.37-1.75,.11,.08,.22,.15,.32,.23-.71,.76-1.8,.79-2.63,1.32-1.29,.23-2.58,.45-3.87,.68h.01Z"/></svg>