<?xml version="1.0" encoding="UTF-8"?><svg id="Capa_1" xmlns="http://www.w3.org/2000/svg" viewBox="0 0 38.61 93.62"><defs><style>.cls-1{fill:#f3a9cb;}.cls-2{fill:#e64011;}.cls-3{fill:#fffbe4;}.cls-4{fill:#fff;}.cls-5{fill:#fff7bc;}.cls-6{fill:#e73178;}.cls-7{fill:#e6af68;}.cls-8{fill:#fddda8;}.cls-9{fill:#801625;}.cls-10{fill:#928885;}.cls-11{fill:#cdbc58;}.cls-12{fill:#ab982d;}.cls-13{fill:#d0cece;}.cls-14{fill:#d3d2d4;}.cls-15{fill:#e40046;}.cls-16{fill:#1d1d1b;}.cls-17{fill:#56331b;}.cls-18{fill:#2f2874;}.cls-19{fill:#7c3d13;}.cls-20{fill:#454c9a;}</style></defs><path class="cls-8" d="M18.59,35.19s.35-3.72,2.88-7.14c2.53-3.42,4.61-4.8,6.91-.27,2.3,4.53,1.03,6.02,.96,9.31-.5,1.02-.97,6.72-2.06,8.82-.37,.74-1.24,1.51-2.03,1.98-.79,.47-1.78,1.09-2.52,1.58-.87,.5-2.12,1.52-3.87,1.55-1.97-.22-3.7-1.31-4.84-2.35-1.71-1.29-3.22-2.35-3.42-5.89-.74-4.03-1.29-7.13-1.44-7.77-.15-.64,1.83-9.26,3.12-9.65,1.29-.4,5.39,5.44,6.31,9.82Z"/><path class="cls-4" d="M31.78,43.29s.72-.64,1.21-2.01c.49-1.37,.5-3.62,.31-4.81-.19-1.2-1.88-1.84-2.4-1.64-.5,.51-.6,1.1-.63,1.59-.52,.51-1.7,1.14-2.62,1.4,.21,.87,.4,2.02,.4,2.72s-.17,2.31-.24,2.85c.44,.15,1.28-.16,1.54-.3,.27-.13,.73,.03,1.32,.39,.58,.36,.85,.3,1.11-.18Z"/><path class="cls-14" d="M30.83,42.19s-.05,1.54,.74,1.3c-.99,.82-2.39,1.41-2.72,1.42-.12-.55,.28-1.6,.29-1.66,.29-.31,1.68-1.07,1.68-1.07Z"/><path class="cls-7" d="M12.16,25.56s-1.54,3.46-1.71,10.68c0,.1,1.17-.13,0,.3,.22,2.22,1.18,4.67,1.32,5.03,.71,.49-1.33-.44-.58,2.67,.76,3.11,2.35,3.28,4.38,5.64-1.54-.85-5.06-2.55-5.83-3.79-.59-1.2-3.32-2.29-4.42-3.73-1.1-1.45-.73-2.58-.68-3.98,.06-1.41,.62-2,1.94-1.16,.04-1.16,.08-1.18,.08-1.18,0,0-.37-1.24-.11-3.35,.26-2.11,1.79-5.29,2.55-5.9,.76-.61,1.68-1.26,3.06-1.21Z"/><path class="cls-6" d="M27.65,37.81s.47,1.18,.37,3.32c-.02,1.54-.17,2.18-.31,2.32-.14,.14-1.2,.62-3.41,.96-2.21,.34-3.23,.07-3.75-.4-.52-.47-.93-1.19-.99-2.68-.06-1.49,.25-2.57,.92-2.86,.67-.29,1.59-.48,2.49-.37,1.07-.31,3.37-.32,3.37-.32,0,0,.07,.08,1.31,.04Z"/><path class="cls-11" d="M13.63,52.39l-3.03-4.49s-4.91-3.24-9.09-1.97c1.66,.43,4.15,1.06,7.69,4.7,2.32,2.32,2.55,2.68,2.55,2.68,.57-.34,1.88-.92,1.88-.92Z"/><path class="cls-11" d="M37.9,46.02s-4.04,1.03-8.13,3.91c-4.09,2.87-3.88,3.47-4.21,3.49-.55-.25-1.56-.95-1.56-.95,.05-1.22-.03-1.56-.03-1.56l2.32-2.79s3.65-2,6.58-2.32c2.94-.32,3.88-.19,5.03,.23Z"/><path class="cls-4" d="M38.53,46.71s-.76-.04-2.43,.58c-1.67,.62-3.7,1.8-3.7,1.8l-2.23,1.43s-1.98,1.47-2.55,1.95c-.57,.48-2.54,2.44-2.42,3.38-.34,.63-1.16,1.97-1.17,1.99,0,.02-1.35,1.23-1.35,1.23l-1.37,1.22-1.94,1.12s-.97-3.01-2.71-3.98c-1.23,.42-1.87,.77-2.29,1.07-.19-.84-.41-1.79-1.02-2.42-.68-.38-.83-.5-1.05-.77-.21-.27-1.91-2.39-2.22-2.75-.31-.36-3.16-3.19-4.65-4.11-1.49-.92-3.75-1.98-5.17-1.66,.37-.57,.85-.92,2.1-.61,1.25,.3,2.81,1.11,3.91,1.91,1.1,.8,2.57,2.03,3.08,2.58,.52,.56,2.05,2.13,2.4,2.63,.51-.33,1.6-.81,1.9-.9,0-.48,.88-.76,.88-.76,0,0,.27,.62,1.52,.7,1.25,.08,4.26,0,4.74,0s1.82-.1,2.11-.32c.29-.22,.24-1.03,.24-1.03l.85-.47s.03,1.61,.07,1.87c.78,.54,1.48,1.07,1.48,1.07,0,0,1.32-1.43,2.07-2.02,.75-.59,2.64-1.92,3.12-2.22,.48-.3,2.08-1.2,3.24-1.75,1.16-.54,3.75-1.47,3.93-1.47,.2,0,.66,.43,.63,.69Z"/><path class="cls-18" d="M14.28,58.27s-2.41,.28-1.29,2.66c.52-1.33,1.39-2.56,1.39-2.56l-.1-.1Z"/><path class="cls-18" d="M15.74,57.76s1.62,2.76,1.58,3.87c-.03,1.11-2.57,1.32-3.76,1.08-1.19-.24-1.2,.03-2.36-1.17-1.16-1.2-1.82-2.36-2.01-3.6-.19-1.24-1.51-2.34-1.19-3.01,.32-.67,4.14,.73,4.53,.73-.68-1.2-3.55-4.18-3.55-4.18,0,0-2.41,2.04-2.27,4.25,.14,2.2,.59,.86,1.17,3.95,.47,2.04,.79,2.47,2.63,3.8,1.84,1.33,2.5,1.83,3.52,1.08,.3-.23,1.29-.09,2.17-.36,.88-.27,2.29-1.12,3.3-2.04-.19-1.35-.98-3.36-2.78-4.75-.59,.2-.99,.36-.99,.36Z"/><path class="cls-20" d="M25.37,55.02s1.26-1.96,2.73-1.86c1.46,.1,2.19,1.35,1.95,2.32-.24,.97,.19,1.36,.22,1.53,.03,.17,.08,2.24-.19,3.22-.27,.98-1.15,2.31-1.64,2.92-.5,.61-3.62,1.08-4.2,.99-.59-.09-2.55-1.64-2.46-2.36,.41-.83,.68-1.2,.68-1.2,0,0,.54-.64,.55-1.53,.39-.13,.94-.08,.94-.08,0,0,.23-1.8,1.53-3.41l-.23-.04s-.11-.1,.14-.51Z"/><path class="cls-19" d="M27.39,64.72s.66,.36,.48,1.25c.23,.19,.3,.43,.19,.61-.31-.04-.78,.15-.78,.15,0,0-2.16,1.27-3.78,1.33s-3.52,0-4.65-.03c-1.13-.03-2.99-.39-4.38-.41-1.38-.02-1.3-.51-1.27-1.04,.03-.53,.82-1.04,1.54-.94,.26-.11,.43-.28,.87,.03,.2-.19,.12-.28,.74,.02,.56-.17,1.02-.09,1.16-.01,.1-.16,.24-.18,.7-.04,.27,.02,.74-.03,.8-.03s.47-.26,.7-.2c.23,.06,.7,.32,.97,.27,.27-.05,.46-.25,.73-.34,.26-.09,.49,.23,.85,.23s.98,.03,1.31-.04c.33-.07,.83-.35,1.09-.37,.26-.02,2.73-.44,2.73-.44Z"/><path class="cls-17" d="M27.5,64.79s-2.47,1.35-3.37,1.35c-.64-.24-.62-.54-.62-.54,0,0,.39-.03,.46-.18,.07-.16,.28-.21,.42-.21-.06-.17,.06-.19,.35-.1,.09-.23,.38-.18,.65-.2,.29-.06,.51-.24,.79-.24s.84-.25,1.32,.11Z"/><path class="cls-4" d="M13.69,68.96s-4.09,5.93-8.45,7.51c-1.09,.29-1.5,.25-1.5-.1s.23-.68,.23-.68c0,0,.37,.23,1.22-.09s1.64-.94,2.39-1.49c.74-.55,2.08-1.78,2.08-1.78l1.83-1.95,1.15-1.47,1.04,.06Z"/><path class="cls-4" d="M32.93,75.72s.76,1.46-.48,1.27c-1.24-.19-4.13-1.92-6.46-4.71-1.2-1.77-1.96-3.17-1.96-3.17l.95-.36s1,2.11,2.74,3.96c1.75,1.85,4.35,3.81,5.04,3.33,.13-.19,.17-.31,.17-.31Z"/><path class="cls-4" d="M23.49,68.88s-.36,4.3-1.42,6.54c-1.06,2.24-2.07,2.95-3.85,2.81-1.77-.14-3.21-3.08-3.75-5.58-.41-3.5-.18-4.09-.18-4.09l.6-.09s.1,3.16,.76,5.37c.66,2.21,1.71,3.66,3.22,3.63,1.52-.04,2.71-2.5,3.11-5.11,.41-2.65,.41-3.38,.41-3.38l1.1-.09Z"/><path class="cls-11" d="M12.54,69.05s-2.28,3.29-6.14,5.94c-1.08,.55-2.27,.97-2.38,.63-.12-.35,.64-2.11,2.18-3.7,1.54-1.59,4.71-3.71,4.71-3.71l1.64,.84Z"/><path class="cls-11" d="M14.88,68.94s.28,6.56,2.67,8.11c2.39,1.55,3.75-1.69,4.21-3.85,.46-2.17,.6-4.09,.6-4.09l-7.49-.16Z"/><path class="cls-11" d="M28.07,67.4s2,2.6,3.22,4.79c1.22,2.19,1.66,3.19,1.63,3.69-.36,.44-1.16,.34-3.93-1.98-2.1-2.04-3.68-4.39-3.88-5.01,1.2-.63,2.97-1.49,2.97-1.49Z"/><path class="cls-5" d="M26.99,68.11s.71,2.66,4.52,6.43c-1.52-.86-3.52-2.49-5.48-5.92,.73-.39,.96-.51,.96-.51Z"/><path class="cls-20" d="M30.98,77.92s-1.01-.09-1.29-.57c-.28-.47-1.03-1.73-1.78-2.37-.76-.65-1.73-2.14-2.79-2.18-1.06-.04-2.87,.78-2.28,3.47,.59,2.7,2.43,3.7,3.59,4.88,1.16,1.18,2.13,4.25,2.13,4.25,0,0,1.62,.06,2.36-.43,.74-.5,1.41-1.17,1.42-1.54,.01-.37,.04-1.37-.2-1.67-.24-.3-.73-.55-.97-1.08-.24-.53-.11-1.52-.08-1.89,.02-.37-.1-.87-.1-.87Z"/><path class="cls-18" d="M16.17,76.77s-.84,1.11-1.63,2.52c-.74,.88-1.2,.57-1.92,1.41-.72,.84-.53,.98-.5,1.68,.03,.7,.21,1-.93,2.27-1.39,.22-3.42,.17-4.32-.05-.91-.22-1.6-1.05-1.61-1.42,.15-.65-.14-1.05,.05-1.58,.19-.53,.46-.98,.76-1.29,.29-.31,.39-.91,.24-1.63-.15-.72,.12-2.68,.41-2.88,.33-.24,2.33-1.24,5.18-4.51,1.8-2.3,2.25-2.76,2.25-2.76,0,0-.14,2.57,.7,5.34,.62,1.96,1.32,2.92,1.32,2.92Z"/><path class="cls-4" d="M11.72,84.05l-.52,.66c-1.64,.04-4.67,.48-5.76-1.14-.47,.51-.98,.62,.15,2.66-.02,1,.13,1.35-.31,1.38-.43,.03-1.29,.92-1.29,.92,0,0-1.13,.75-1.71,2.43-.26,1.07-.29,1.48,.05,1.76,.34,.28,.86,.29,1.55,.16,.89-.11,3.37-.95,3.71-1.12,.35-.17,2.13-1.19,2.32-1.86,.27-.27,.86-.48,.93-.77,.07-.29-.5-1.04-.5-1.04,0,0,.83-.65,.92-.91,.09-.26,.02-1.5,.02-1.5,0,0,.72-.54,.76-.94,.04-.39-.3-.7-.3-.7Z"/><path class="cls-4" d="M32.33,82.28s.8-.09,.94,.76c.14,.85-.01,1.16-.01,1.16,0,0,.76,.62,.37,1.9,.17,.2,.2,.8,.49,.97,.3,.17,.7,.55,.07,1.34,.46,1.28,1.44,3.08,1.6,3.98,.16,.9-.22,1.34-1.8,1.07-1.58-.27-2.77-.91-3.52-1.55-.75-.64-1.32-1.67-1.71-2.66-.39-.98-1.18-3.15-1.22-3.36-.04-.21,.22-.58,.22-.58,0,0,1.61,.27,2.66-.17,1.05-.44,1.8-1.27,1.88-1.61,.09-.35,.02-1.24,.02-1.24Z"/><path class="cls-13" d="M28.03,85.34s-.16,.59,.66,.6c.83,.01,2.33,.39,2.28,1.01-.05,.62-1.5,.75-1.64,1.34-.14,.59,.12,1.03,.36,1.03s2.48-2.27,3.51-1.76c.91,.49,1.13,.62,1.13,.62l-.18,.21c-.26-.21-1.12-.28-2.28-.2-.55,.48-1.91,1.66-2.28,1.66s-2.11-.54-2.27-1.03c-.16-.49-.04-.65-.04-.65,0,0-.73-.64-.87-.95-.15-.31-.02-1.01-.02-1.01,0,0-1.17-.91-1.05-1.22,.12-.31,.54-.71,.54-.71,0,0,.3,.53,.57,.64,.27,.11,1.58,.42,1.58,.42Z"/><path class="cls-13" d="M32.82,88.24s-2.28,1.16-2.4,1.64c-.12,.48-.14,1.11,.55,1.61-.17,.21-.17,.28-.17,.28,.58,.55,1.35,1.16,1.35,1.16-.97-.51-3.76-1.85-3.97-3.04-.05-.39,0-.42,0-.42,0,0,1.12,.47,1.49,.38,.37-.09,1.9-1.53,2.33-1.7,.28,.1,.63-.09,.81,.09Z"/><path class="cls-13" d="M5.46,83.76s-.56,.35-.34,.94c.22,.59,.79,1.3,.79,1.3,1.87-.56,3.04-.86,4.2-.4-.61,.57-1.06,.91-1.84,1.11-.78,.2-2.06,.22-1.75,1.32,.69,.52,1.7,1.4,1.84,1.5-.52,.15-.84,.05-1.28-.22-.44-.27-1.42-1.11-1.99-1-.57,.12-1.06,.25-1.06,.25,0,0-.72-.56-.57-.96,.15-.39,.38-.53,.22-.9-.16-.37-.31-.7,0-1.18,.3-.49,.77-1.08,.77-1.32s-.51-.95,.05-1.25c.56-.3,.84-.35,.84-.35,0,0-.12,.42-.05,.71,.07,.29,.17,.44,.17,.44Z"/><path class="cls-13" d="M8.36,89.57s.57,.46,.86,.77c-.65,.35-1.26,1.39-3.92,2.14-.95,.21-2.17,.17-2.39,.11-.13,.24-.11,.32-.1,.34,0,.02,.85,.21,2,0,1.15-.21,3.55-1.24,4.33-1.74,.79-.5,.94-1.11,.94-1.38,.1-.13,.1-.16,.1-.16,0,0-.96,.12-1.81-.09Z"/><path class="cls-13" d="M11.27,86.95s-1.75,1.06-2.24,1.32c.61,.35,.8,.36,.8,.36,.6-.61,1.38-1.18,1.43-1.38,.05-.2,.01-.31,.01-.31Z"/><path class="cls-18" d="M31.05,78.22s-.87,.07-1.68-.69c-.8-.77-1.7-2.35-2.44-2.86-.75-.51-1.66-2.17-2.66-1.48-1,.69-1.73,1.46-1.13,3.1,.6,1.64,1.24,3.1,2.81,3.74,1.57,.64,1.4,1.77,2.52,2.1,1.11,.33,1.95-1.29,1.68-2.44,.4,1.37,.31,2.01-.87,2.99-1.18,.98-1.5,.78-.35,2.7-1.04-.09-2.21-.35-2.55-.53-.69-.69-.97-1.35-.97-1.86s.24-1.33-.71-1.9c-.95-.57-2.33-1-3.5-3.9,.6-1.11,1.24-2.46,1.77-4.65,.53-2.19,.52-3.83,.68-4.01,.84,1.42,1.77,3.32,4.22,5.69,1.38,1.23,2.44,1.89,2.44,1.89,.12,.68,.36,1.05,.52,1.39,.16,.34,.22,.73,.22,.73Z"/><path class="cls-20" d="M8.24,75.62s2.54-2.66,3.43-2.66,2.08,.96,2.04,2.01c-.03,1.05-.22,3.04-1.66,4.29-1.44,1.25-2.35,2.04-3.26,2.04s-1.6-.91-1.42-2.63c.17-1.72,.87-3.05,.87-3.05Z"/><path class="cls-20" d="M9.93,82.31l-.26,2.47c-1.41,0-2.23-.14-2.23-.14l.12-1.44s1.27-.76,2.37-.89Z"/><path class="cls-12" d="M28.21,67.55s-2.5,1.33-3.05,1.52c-.37-.6-.38-.75-.38-.75,0,0,.85,.19,1.29-.46,.21,.19,.52,.1,.67-.35,.38,.06,.85-.1,.98-.38,.28,.19,.48,.43,.48,.43Z"/><path class="cls-5" d="M21.23,69.31s.43,5.15-2.55,7.24c1.16-1.7,1.74-2.53,1.56-7.2,.79-.1,.99-.04,.99-.04Z"/><path class="cls-12" d="M22.41,69.16s-2.64,.87-7.48-.07c-.07-.6,0-.64,0-.64,0,0,.37-.18,.96,.02,.59,.19,1.34,.08,1.63-.03,.29-.11,.91-.12,.91-.12,0,0,.38-.24,.45-.22,.1,.16,.45,.26,.45,.26l.32-.17c-.06,.29,.09,.35,.09,.35l.65-.08s.05,.2,.06,.2c.02,0,.6-.04,.65-.02,.06,.07,.43-.02,.53-.07,.09,.11,.34,.16,.64,.04,.18,.12,.14,.55,.14,.55Z"/><path class="cls-5" d="M12.03,68.96s-2.29,2.65-5.6,4.7c1.85-1.37,4.78-4.64,4.98-4.88,.38,.16,.62,.18,.62,.18Z"/><path class="cls-12" d="M12.47,69.1l-1.65-.52c-1.73,.98-4.15,3.33-6.56,6.16,.68-1.83,3.37-5.86,5.6-7.55,.94,.38,.9,.4,1.26,.52,.36,.12,1.01,.44,1.33,.42,.32-.01,.71,.15,.71,.15-.41,.55-.68,.82-.68,.82Z"/><path class="cls-14" d="M13.49,69.19l-.94-.14,.68-.89s.83,.17,.86,.18c.03,.01-.6,.85-.6,.85Z"/><path class="cls-14" d="M14.92,69.09s-.55,.06-.81-.16c0-.51,.07-.55,.07-.55,0,0,.18-.16,.48-.1,.29,.06,.32,.77,.27,.82Z"/><path class="cls-14" d="M22.41,69.16s.84-.03,1.08-.23c.03-.32,0-.39,0-.39,0,0-.26-.13-.39-.06-.04-.13-.27-.22-.61,.22-.03,.32-.08,.47-.08,.47Z"/><path class="cls-14" d="M25.14,69.03s-.75,.29-1.06,.3c-.28-.58-.35-.89-.35-.89l1.07-.15,.34,.74Z"/><path class="cls-17" d="M27.81,66.47s-1.21,.07-2.02,.5c-.81,.43-1.43,.54-1.8,.64-.17-.43-.17-.48-.17-.48l-.85,.45c-.1-.45-.07-.4-.07-.4,0,0-.28,.29-.64,.36-.36-.05-.31-.26-.31-.26,0,0-.5,.55-.61,.55-.12,0-.41-.14-.59-.09-.22-.35-.33-.29-1.28,.07-.41-.43-.86-.26-1.42-.09-.57,.1-.88-.54-1.5-.43-.62,.1-.81,.26-1.21,.24-.4-.02-.5-.31-.57-.31s-.59,.24-.47-.29c-.47-.14-.45-.73-.26-.95,.19-.22,.64-.31,.64-.31,0,0-.31-.24-.37-.25-.17,.02-.74-.42-.74-.42-.07,.18-.5-.17-.66-.17s-.83-.34-1.23-.65c-.48-.32-.68-.34-1.03-.14-.42,.19-.91,.33-1.08,.76-.17,.43-.1,.7-.21,.9-.11,.19-.22,.31,.09,.86,.32,.55,.55,.64,.96,.83,.42,.29,.77,.36,1.22,.51,.46,.15,.88,.27,1.12,.24,.56,.01,.88,.21,1.37,.17,.49-.04,.69,.07,1.09,.03,.4-.04,1.02,.32,1.56,.09,.62,.05,.79,.04,1.01-.06,.36,.04,.93-.15,.98-.22,.05-.07,.13-.11,.19,.01,.06,.13,.34,.19,.44,.14,.12-.05,.24-.02,.24-.02,0,0,.14,.21,.15,.21h.66s.06,.14,.29,.12c.22-.02,.37,.07,.49,.07,.12,0,.27-.09,.44-.03,.17,.06,.52,.03,.64-.01,.12-.04,.45-.14,.59-.27,.16,.04,.4,.19,.65,.15,.25-.05,.4-.17,.54-.18,.14,0,1.38-.06,1.38-.06,0,0,.52-.18,.61-.37,.18,.1,.52,.07,.71-.4,.34,.02,.88-.14,.89-.46,.01-.33,.13-.57,.13-.57Z"/><path class="cls-12" d="M15.24,64.36l-.15,1.1s.35,.05,.56,.19c.18-.23,.3-.14,.76,.07,.39,0,.68-.3,1.15,.01,0-.19,.08-.19,.61-.11,.53,.08,1.18-.12,1.26-.16,.08-.04,.53,0,1.02,.21,.43-.08,1.12-.42,1.36-.33,.23,.09,.56,.27,.81,.19-.05-.68-.03-1.41-.03-1.41l-.42-.15s-.13,.66-.96,.46c-.84-.21-1.68-.56-2.91-1.29-.66,.43-1.53,1.07-3.07,1.23Z"/><path class="cls-14" d="M22.6,64.11l.02,1.44c.31,.16,.89,.03,1.04-.03,.28-.1,.65-.4,.99-.4,.35-.1,.01-.27-.1-.36-.11-.09-1.67-.62-1.95-.64Z"/><path class="cls-14" d="M15.24,64.36l-.1,1.05c-.21,.14-.49,.29-.67,.06-.3,.01-.85-.48-.85-.55,.02-.16,.43-.47,.84-.5,.4-.03,.78-.07,.78-.07Z"/><path class="cls-18" d="M22.71,60.26s-.47,1.59-.48,1.98c.56,.56,3,1.49,4,1.45,.94-.25,2.57-1.47,2.91-1.56-.65,1.04-1.1,1.93-1.48,2.18-.38,.25-1.59,.63-2.91,.45-1.28-.39-3.43-1.23-3.43-1.23,.11-.46,.38-2.22,.38-2.22,0,0,.98-1.01,1.02-1.05Z"/><path class="cls-18" d="M24.37,57.62l.02,1.19s1.28,.29,1.39,1.39c-.37-.48-.99-1.01-1.85-1.22,.14-.84,.44-1.36,.44-1.36Z"/><path class="cls-18" d="M25.27,55.41s1.31-1.91,2.71-2.01c1.4-.09,2.49,1.18,1.52,2.68,.33,.68,.74,1.45,.74,1.45,0-1.08,0-1.45,.42-1.87,.08-.88,.24-3.01-1.99-4.01-2.35,1.73-3.13,2.73-3.41,3.75Z"/><path class="cls-20" d="M15.87,57.73s.59,.06,1.43,1.92c.84,1.85,.73,2.33,.27,2.73-.46,.4-2.15,.51-2.87,.76-.71,.25-.97,.75-1.57,.49-.6-.25-1.25-1.11-1.87-1.6-.62-.49-2-1.08-2.27-2.68-.27-1.6-.25-1.82-.76-2.31-.51-.49-1.6-1.58-.87-2.69,.73-1.11,2.23-1.81,3.28-.35,1.05,1.46,1.6,1.6,1.84,1.65,0,0,1.46,.24,1.92,2.8-.33-.06-1.63-.17-1.38,2.14,.33-.92,.68-1.28,.95-1.46,.3-.43,.22-.89,1.9-1.39Z"/><path class="cls-14" d="M24.58,56.85s-1.42,.86-1.42,.91c-.07-.7-.66-.91-.66-.91,.05,.68,.26,1.45,.26,1.45l-3.48,2.64s.19,.96,.19,1.26c-.23,.21-1.21,.94-1.21,.94,1.12,.61,2.76,1.54,3.41,1.31,.65-.23,.42-.58,.42-.58l-.7-.3,.29-2.27s1.42-1.32,1.3-2.35c.72,0,.94,.01,.94,.01,0,0,.09-.87,.65-2.13Z"/><path class="cls-14" d="M13.88,56.92s.94,.26,1.4,1c-.65,.42-.88,.52-.88,.52,0,0-.24-1.15-.52-1.52Z"/><path class="cls-14" d="M1.64,46.77c-.63-.17-1.47,.09-1.47,.09,.07-.19-.1-.56,.75-.68,.49,.28,.72,.59,.72,.59Z"/><path class="cls-14" d="M14.96,52.06l-1.31,.35c.06-1.21,.14-2.73,.14-2.73,0,0,.42-.47,.49-.47,.09,0,1.14,.57,1.14,.57-.48,.26-1.55,1.36-.46,2.28Z"/><path class="cls-14" d="M23.11,51.63l.9-.24s.14-2.25-.86-2c-.43,.22-.27,.5-.27,.5,0,0,.48,.8,.23,1.73Z"/><path class="cls-14" d="M12.13,53.8l.68-.41c0,.2,.31,1.56,1.24,1.88-.66,.37-.83,.43-.83,.43,0,0-.35-.86-1.09-1.9Z"/><path class="cls-12" d="M28.68,51.66c-.06-.02,6.76-5.14,9.8-4.88-.09,1.7-3.79,6.38-7.88,8.91,.32-.63-.03-3.28-1.93-4.03Z"/><path class="cls-12" d="M8.95,51.44S4.05,46.08,.22,46.85c-.29,.44,.17,1.19,2.06,3.66s3.71,4.58,4.44,4.9c.17-1.19,.49-2.24,2.23-3.96Z"/><path class="cls-5" d="M34.59,46.62s-3.1,.15-9.46,4.41c.15-1.17,.73-1.64,.73-1.64,0,0,5.87-3.06,8.73-2.77Z"/><path class="cls-5" d="M11.71,50.61s-2.19-4.34-7.51-4.39c1.4,.58,5.36,2.1,7.51,4.39Z"/><path class="cls-12" d="M10.25,47.68s.89,2.86,3.12,4.83l.25-.13,.15-2.5s-2.9-1.99-3.52-2.2Z"/><path class="cls-12" d="M26.41,48.15s-1.76,2.82-2.4,3.24c.03-1.14-.19-1.65-.19-1.65,0,0,1.75-1.35,2.59-1.59Z"/><path class="cls-18" d="M22.86,49.92s.54,1.02,.17,1.84c-.24,.65-1.82,.56-1.95,.57-.12,.01-3.94,.07-3.94,.07,0,0-1.48,.07-2.01-.22-.53-.29-.84-.83-.59-1.46,.25-.64,.57-.69,.86-.76-.25,.36-.35,1.11,.18,1.46,.53,.35,1.66,.49,2.27,.55,.61,.06,2.22-.04,2.88-.13,.65-.1,1.56-.42,1.84-.86,.28-.44,.29-1.06,.29-1.06Z"/><path class="cls-7" d="M22.18,49.78s1.04,.65,.24,1.43c-.8,.78-3.1,.79-4.42,.76-1.32-.03-2.77-.38-2.82-1.32,.01-.48,.4-.77,.4-.77,.94,.61,2.67,1.15,3.29,1.15s1.73-.14,3.32-1.25Z"/><path class="cls-4" d="M21.2,45.15s.37,1.84-1.21,2.21c-1.58,.37-3.09,.34-3.42-1.02,1.24-.09,3.53-.27,4.62-1.18Z"/><path class="cls-4" d="M16.73,40.7s-.26,1.78-1.01,1.92-4.07-.77-4.47-1.32c-.41-.56-.78-3.5-.73-3.76,1.96,.73,5.29,2.28,6.21,3.16Z"/><path class="cls-9" d="M25.69,37.87s-2.2,1.26-4.03,2.37c-1.67,1.03-1.99,1.25-2.38,1.13,.56-.6,3.55-3.07,3.97-3.46,.87-.28,2.44-.05,2.44-.05Z"/><path class="cls-1" d="M25.93,37.81s.51,3.49-.32,3.98c-1.03,.39-1.39,.24-2.07,.33-.69,.09-2.25,.41-2.43,.42-.23,0-.85-1.04-.85-1.4,.7-.57,4.42-2.88,5.68-3.34Z"/><path class="cls-15" d="M20.51,42.02l-.86,.2c-.11-.56-.03-.77-.03-.77l.63-.3,.26,.87Z"/><path class="cls-7" d="M21.7,36.64s-1.13,1.08-1.46,2.1c-.52,.81-.61,1.26-.61,1.26l-.36-.02s.05-1.33,.45-1.89c.41-.56,1.49-1.28,1.98-1.44Z"/><path class="cls-7" d="M18.36,43.34s-.54,.61-.9,.86c-.36,.25-.41,.97,.92,1.01-.5-.52-.5-.77-.11-1.06,.38-.29,.09-.81,.09-.81Z"/><path class="cls-7" d="M19.76,42.05s-2.95,.02-3.47,.02c-.29-.47,.56-1.31,.56-1.31,0,0,.99,.9,1.56,.95,.56,.04,1.1-.14,1.1-.14l.25,.47Z"/><path class="cls-3" d="M16.73,37.41s.78,.52,.81,.84c.03,.46,.14,.98-.2,.81-.29-.66,0-.84-.61-1.64Z"/><path class="cls-3" d="M25.93,30.29s.32,2.02,.66,2.8,.35,1.38-.43,1.76c.2-.63,.06-1.27-.12-1.73-.17-.46-.11-2.82-.11-2.82Z"/><path class="cls-2" d="M31.58,38.09l-1.19,.93c-.06,1.47,.04,2.01,.04,2.01,.66-.13,1.02-.43,1.02-.43,.1-.88,.13-2.5,.13-2.5Z"/><path class="cls-10" d="M30.9,34.82s-.62,.49-.63,1.59c-.47,.53-.78,.68-.94,.68-.17-.34,.06-1.57,.53-2.26,.47-.7,.94-.31,1.04,0Z"/><path class="cls-10" d="M32.45,36.87s-.08-.23-.14,1.44c-.11,1.46-.16,1.58-.32,2.24-.16,.66-.31,1.3,0,1.25,.31-.05,.6-1.32,.72-2.39,.12-1.07,.21-2.26-.08-2.52-.18-.2-.17-.02-.17-.02Z"/><path class="cls-10" d="M29.21,43.25s-.4,.75-.29,1.84c-.71,.32-1.16-.11-1.16-.11,0,0,.03-1.35,.45-1.53,.43-.1,.99-.19,.99-.19Z"/><g><path class="cls-16" d="M14.52,53.1s-.06-.27-.19-.37c.27,.02,.37,.29,.37,.41-.1,.02-.17-.04-.17-.04Z"/><path class="cls-16" d="M14.98,53.25s-.19-.45-.14-.45c.1,.06,.35,.45,.35,.53-.16-.02-.21-.08-.21-.08Z"/><path class="cls-16" d="M15.53,53.41l-.16-.35c.12,0,.31,.33,.31,.33l-.16,.02Z"/><path class="cls-16" d="M16.55,67.78c-.24-.24-.29-.55-.29-.55-.21,.21,.12,.76,.29,.55Zm-5-.29c-.1-.43-.36-.67-.52-1.02,0,0,.05,.69,.52,1.02Zm12.11-1.05s.12,.17,.12,.4-.17,.33-.21,.79c.29-.1,.31-.62,.31-.62l.19,.17c.02-.69-.4-.74-.4-.74Zm-3.38,1.59s.38-.14,.4-.48c-.17,0-.4,.48-.4,.48Zm4.12-1.57c.05,.07,.07,.52,.29,.57,0-.57-.29-.57-.29-.57Zm-2.48,1.48c.55-.29,.45-.88,.45-.88-.19,.5-.38,.64-.45,.88Zm-9.47-1.21l.02,.07s.05,.43,.43,.45c-.1-.29-.36-.52-.45-.52Zm19.35-11.7c4.01-2.97,6.37-6.26,6.76-7.84s-2.47-2.15-5.9-1.47c-5.97,1.04-8.87,3.83-8.87,3.83,0,0-.07-.25-.5-.25,0,0,.57-.39,1.47-.86,1.29-.72,2.11-1.75,2.11-1.75,0,0,2.68-.79,3.79-1.36,1.11-.57,3.04-2.29,4.37-3.54,0,0-1.47,.82-2.79,1.18,0,0,.5-.72,.75-1.4,1.72-1.68,2.54-2.47,3.18-4.01,.64-1.54,1.15-3.04,2.11-5.62-.57,.36-2.72,3.11-3.83,3.54,0,0,2.22-3.4,2.93-5.58,.72-2.18,.57-4.76,.54-8.19-.89,1.9-2.86,4.4-4.11,5.62,0,0,1.47-3.29,1.97-5.87,.5-2.58-.89-7.3-1.97-11.34-.54,2.79-3.01,6.41-3.9,7.01,0,0,.82-2.18,.79-4.29-.25-4.47-2.97-9.73-4.47-12.85-.29,6.8-2.58,9.59-3.58,11.2-.07-5.87-.72-7.8-.72-7.8-.11,.7-1.5,3.51-3.27,5.93-1.77,2.41-4.82,3.8-6.15,4.38-1.33,.58-2.47,3.38-3.08,5.07,.55-4.38,3.82-8.62,4.6-9.76-3.77,3.49-4.88,8.65-4.79,10.59-.69-1.41-.89-6.24-.47-7.84-1.08,.66-4.02,5.79-4.82,8.92-.8,3.13-.39,5.99,.19,8.37-.75-1-2.24-3.88-2.58-5.46-.42,1.03,.61,12.83,.69,13,.08,.17,.5,1.14,1.72,3.05-.11,0-2.22-1.16-3.46-1.75,.36,.89,4.38,5.88,5.13,6.43s1.52,.8,4.21,2.05c1.14,1.25,4.27,2.88,4.27,2.88l-.47,.42s-.89-.66-2.99-1.85c-4.19-2.82-8.24-2.53-10.03-1.75-1.63,.71,.3,2.77,1.41,4.32,1.11,1.55,3.16,4.21,4.6,5.18-.17,.64,.33,1.88,.55,2.11,.22,.22,.47,2,1,3.41,.53,1.41,2.47,2.63,2.47,2.63,0,0-.08,.28-.55,.47-.53,0-.72,.64-.83,1.33-.31,.5-.06,1.03,.39,1.63-.36,.25-2.08,1.91-3.49,3.96-1.41,2.05-3.13,5.46-2.24,5.57,.89,.11,2.02-.28,2.58-.69-.28,.64-.53,1.8-.39,2.41,.14,.61,.36,1.16-.39,2.02-.91,1.05-.55,2.08-.55,2.08,0,0-.61,.19-.86,.42-.25,.22-.05,.58-.05,1.08s-.11,.69-.5,1.19c-.39,.5-.42,.86-.22,1.33,.19,.47,.11,.42-.11,.83-.22,.42,0,.67,.36,1.14-.14,.14-1.39,1.3-1.61,2.52-.22,1.22-.58,1.94,1.44,2.08,2.02,.14,4.79-1.33,5.76-1.97,.97-.64,.83-1,.83-1.36,0-.08,.83-.44,.86-.64,0-.14-.33-.61-.58-1.05,0,0,.72-.53,.86-.78,0-.11,.06-.8,0-1.61,1.19-.8,.8-1.33,.44-1.72,0,0,.61-.55,.44-1.64-.17-1.08,.06-1.39,1.08-1.94,1.03-.55,1.69-1.41,1.91-1.91,.22-.5,.39-.8,.97-1.61,1.77,2.41,4.21,1.27,4.93,.47,1.03,2.19,1.91,3.02,3.08,3.58,1.16,.55,1.11,1.08,1.08,1.97-.06,1.03,.42,1.33,.42,1.33,0,0-.61,.67-.53,.91,.08,.25,1.08,1.08,1.08,1.08,0,0-.06,.67,.06,1.08,.08,.14,.86,.89,.86,.89,0,0-.03,.28,0,.58,.03,.3,.89,.72,.89,.72,0,0-.14,.22,.06,.69,2.36,2.69,6.35,3.82,7.4,3.3,1.05-.53-.61-3.69-1.22-4.93,.42-.53,.47-1.16,0-1.47-.47-.3-.31-.67-.55-1.03,.25-1.16,.14-1.36-.36-1.86,.22-2.02-.39-1.86-1-2.05-.14-.67-.53-.69-.89-1.27s-.3-.86-.3-1.47,.06-1.44-.25-1.83c-.3-.39-.44-1.27-.44-1.27,0,0,1.16,.86,2.16,.78,1-.08,.58-.97-.3-2.99-1.63-3.49-3.63-6.12-4.57-7.09v-.28l.36,.06c.03-.08,0-.55-.17-.89,0-.83-.03-.91-.68-1.27,0,0,.57-.11,.82-.64,.47-.82,1.11-1.4,1.79-2.97,.68-1.57,.43-3.69,.43-4.33s.47-.82,1.47-1.65Zm-1.04,.45c.15-2.73-1.3-3.55-1.91-3.87,.39-.29,.78-.57,1.16-.83,.54,.72,.65,1.83,.71,2.5,.16-1.58-.3-2.42-.47-2.67,.39-.26,.76-.51,1.13-.74,.71,1.13,.86,2.79,.91,3.47,.14-2.29-.47-3.3-.71-3.6,.53-.33,1.04-.64,1.53-.91,.71,.79,.93,2.29,.95,3.3,.21-2.21-.46-3.19-.67-3.45,.51-.28,.99-.52,1.43-.73,.12,.26,.78,1.73,.64,2.69,.44-1-.24-2.51-.38-2.81,.55-.25,1.05-.46,1.47-.61,.38,.35,.47,1.26,.57,1.7,.11-.81-.17-1.54-.28-1.8,.87-.29,1.39-.35,1.46-.22-1.79,4.93-7.54,8.58-7.54,8.58Zm7.66-8.86s-3.42,.21-8.73,4.1c-4.36,3.09-4.69,4.67-4.65,5.14,0,.02-.02,.03-.03,.05-.1-.13-.26-.35-.47-.56,.07-.7,.73-1.5,.98-1.76,.02,0,.03,0,.03,0,.62-.78,5.58-5.62,12.31-7.43,.29,.04,.49,.25,.56,.47Zm-15.46,10.39c.08,.35,.16,.66,.14,.8-.19-.17-.16-.7-.66-1.07,.26,.64,.65,1.45,.68,2.13-.05,0-.09,0-.12,0-.05-.22-.33-1.5-.85-1.87,.24,.59,.63,1.23,.72,2.06,0,.3-.09,.92-.78,1.67-.97,1.07-1.81,1.95-2.35,2.39-.64,.08-.8-.27-.8-.27l.64-.56c.02-.37-.49-3.66-3.38-5.33,.04,.06,.17,.21,.25,.51-.22,.07-.49,.16-.78,.27,0-.2,.03-1.1,.72-1.38,.78-.31,3.83-.86,4.63-.78,.12,.02,.86,.7,.95,.88,.04-.33-.43-.8-.6-.95,.06-.27,.25-.19,.91-.39,.66-.19,1.17-.17,1.5-.08,.28,.08,.9,.89,1.08,1.14-.34,.54-.9,1.46-1.06,2.75-.2-.01-.36-.02-.49-.03,.04-.31,.1-1.21-.35-1.87Zm-1.31,7.2c-.2-.22-.25-.35-.26-.51,.07,.09,.2,.13,.45,.22,.06,.02,.11,.04,.18,.06-.24,1.11-3.19-.62-3.6-.87l.28-.22s.55,.4,.93,.4c.45,0,1.36-1.21,1.88-1.71,0,0-.08,.6-.14,1.11-.08,.04-.19,.15-.19,.48,0,.5-.12,.95,.48,1.02Zm-6.38,.52l.02-.26c1.72-.17,2.98-1.24,2.98-1.24,1.83,1.17,2.93,1.33,3.36,1.33,.34,0,.52-.36,.57-.51,.1,.04,.21,.08,.33,.12l-.02,.49-7.24,.07Zm7.24,.14l-.02,.57c-.17,0-.33,0-.48-.07-.21-.21-.79-.14-.93-.02-.14,.12-.6,.14-.83,.14s-.45-.19-.71-.17c-.26,.02-1.02,.26-1.55,.21-.1-.17-.4-.31-.57,.05-.45-.45-.69,.12-1.29-.05-.48-.48-.52,.09-.86-.1-.02-.02-.04-.03-.06-.05l.05-.53h7.25Zm-9.65-10.15c-.05-.08-.1-.16-.16-.24,.15-.29,.41-.39,.66-.56-.45,0-.7,.2-.81,.33-.11-.15-.21-.3-.31-.42,.27-.25,1.37-.78,1.69-.94,.23,.18,.6,.39,1.2,.54,1.36,.35,2.68,.33,3.11,.33s.43,.4,.41,1.87c-.54,.08-1.11,.19-1.64,.32-.22-.25-1-1.09-1.39-1.19-.42-.1-1.82,.39-2.33,.77-.08-.2-.2-.42-.32-.63,.06-.13,.22-.31,.57-.45-.38,.01-.58,.16-.68,.28Zm-.7-1.01c-.13-.17-.24-.3-.29-.37,.44-.31,1.24-.66,1.72-.86,.02,.04,.07,.14,.18,.25-.45,.18-1.41,.83-1.61,.97Zm3.31,1.25c.42,.08,1,.79,1.21,1.06-.1,.03-.2,.05-.29,.08-.82,.26-.96,1.03-.95,1.71-.32,.13-.65,.27-.95,.43-.13-.73-.54-1.65-1.03-2.16,0-.08-.02-.17-.05-.27,.35-.21,1.62-.94,2.07-.86Zm9.48-1.02c-.07,.09-.14,.18-.2,.27-.09-.11-.26-.24-.51-.24,.2,.14,.34,.25,.41,.41-.04,.06-.07,.12-.09,.18-.1-.1-.29-.24-.57-.19,.18,.11,.38,.25,.48,.39-.06,.16-.1,.29-.12,.38-.28-.25-.6-.45-.92-.47-.72-.05-2.1,.33-2.39,.7-.3,.01-.8,.05-1.39,.12-.04-.27-.19-1.54,.3-1.72,.54-.19,1.81-.16,2.92-.39,.42-.09,.69-.24,.88-.39l1.21,.95Zm-1.05-1.12c.08-.1,.12-.19,.15-.25,.5,.29,1.05,.74,1.33,.92-.11,.09-.22,.19-.31,.29l-1.17-.97Zm11.14-7.11c.9-.01,1.78,.07,2.62,.29,0,0-1.14,.3-2.82,1.01-.07-.81,.08-1.16,.2-1.3Zm-.27,0c-.29,.58-.23,1.15-.18,1.4-.57,.24-1.19,.53-1.85,.87-.23-1.24,.18-1.89,.35-2.1,.56-.09,1.12-.15,1.68-.17Zm-1.97,.22c-.49,.7-.36,1.86-.31,2.18-.58,.31-1.19,.65-1.81,1.03-.27-1.09,.11-2.36,.26-2.77,.61-.18,1.24-.33,1.87-.44Zm-4.25,1.27c.68-.28,1.4-.54,2.15-.77-.54,1.32-.35,2.59-.3,2.87-.59,.37-1.18,.78-1.76,1.22-.38-1.59-.18-2.89-.09-3.33Zm-2.11,.98c.55-.29,1.17-.58,1.84-.87-.44,1.6,.02,3,.15,3.37-.53,.41-1.05,.85-1.56,1.32-.59-.85-.47-3.26-.44-3.83Zm-1.69,.98c.39-.25,.89-.56,1.49-.87-.41,1.9,.24,3.51,.43,3.92-.38,.36-.74,.74-1.1,1.13-.04-.03-.08-.05-.12-.08-.69-1.56-.7-3.69-.69-4.09Zm-.16,.11c-.16,1.9,.4,3.48,.5,3.75-.36-.24-.72-.47-.96-.62-.18-1.17,0-1.85-.19-2.61,.09-.11,.32-.29,.65-.52Zm3.27-4.42s.02-1.09,.32-1.23c.3-.14,.9-.21,.9-.21,0,0-.34,.59-.37,1.49-.62,.03-.85-.05-.85-.05Zm-4.69-6.78c1.4-.06,2.19-.08,2.19-.08,0,0-1.94,.97-3.18,1.84s-2.23,1.36-2.62,1.45c.45-.62,2.81-2.35,3.61-3.2Zm-3.55,2.72c.08-.89,.19-1.82,.8-2.19,.62-.37,1.67-.58,2.37-.45,0,0-2.52,2.29-3.18,2.64Zm6.38-1.58c0,.31-.01,.69-.04,1.16-.12,1.2-.16,1.4-.79,1.47l-.37,.04c-.85,.09-2.43,.26-3.67,.57-.24-.11-.64-.73-.75-1.27,.27-.17,.6-.38,.97-.63,.05,.32,.31,.62,.63,.55,.62-.31,.47-.98,.4-1.21,1.07-.68,2.31-1.42,3.46-1.97,.04,.05,.17,.29,.17,1.29Zm-.16-1.29s0,0,.01,0h0s0,0,0,0Zm-5.66,3.38c.13,.55,.55,1.25,.9,1.37h.03s.03,0,.03,0c1.23-.32,2.82-.49,3.68-.58l.37-.04c.82-.09,.86-.49,.98-1.67,.11-1.61,0-2.25-.12-2.51,.37-.01,1.39-.05,1.54-.02,.25,.52,.6,3.78,.14,5.37-.31,.58-3.47,1.24-5.24,1.24s-2.7-.76-2.79-2.91c.09-.03,.25-.12,.47-.25Zm7.56-3.46c2.06-.74,2.21-.99,2.56-1.4,1.47-.1,1.16,1.16,1.14,1.59,0,.12-1.09,.91-1.09,.91,0,0-.14,.8,0,2.13,.12,.04,.37,.02,.99-.25,.08,1.59-2.58,2.54-3.43,2.46,.6-4.09-.17-5.43-.17-5.43Zm3.75,.39s.05,1.83-.1,2.34c-.46,.34-.88,.34-.93,.34-.05-1.62,.02-1.89,.02-1.89,0,0,.77-.59,1.01-.78Zm1.39-2.25c.52,.78,.39,3.94-.08,5.53-.47,1.59-2.68,2.91-3.84,3.24,0-.08,.1-1.11,.25-1.42,0,0,.95-.56,1.55-1.03,0,.3,.08,1.01,.35,1.05-.21-.39-.22-.92-.2-1.17,.08-.07,.15-.13,.2-.19,.43-.47,.54-2.33,.58-4.19,.04-1.86-1.32-1.51-1.32-1.51,.02-.87,.45-1.36,.74-1.42,.23,0,1.26,.33,1.78,1.11Zm-2.54-1.49c.43,.04,.47,.35,.47,.35,0,0-.47,.27-.62,1.45-.35,.27-.62,.66-.81,.66-.14-.64,.52-2.5,.95-2.46ZM6.86,43.42c-1.17-1.09-1.93-1.24-2.04-3.68-.11-2.44,.4-4.01,2.32-1.15,0,0,1.53,4.36,1.8,5.82,.02,.4-.91,.11-2.08-.98Zm5.76,4.75c-1.33-.82-2.2-1.15-2.97-2.71-.77-1.56-1.71-5.48-2.38-7.24,.1-.64,1.15-1.71,1.15-1.71-.26,.03-.84,.77-1.18,1.18,.23-.72,1.18-1.74,1.18-1.74,0,0-1.97,.38-1.41-2.94,.56-3.33,2.23-7.37,4.91-6.99,2.69,.38,3.3,1.97,4.71,5.48,1.2,3.17,1.77,4.38,1.89,4.51,0,0,1.13-4.94,4.17-8.65,3.05-3.71,4.74-.23,6.42,4.3,.64,1.84,.44,3.92-1.28,3.69,.49,.82,1.23,1.84,1.23,1.84-.03,.02-.07,.03-.1,.05-.21-.32-1.02-1.5-1.51-1.79,.25,.47,1.17,1.45,1.37,1.86-.52,.24-1.13,.47-1.24,.47-.08,0-.16,0-.24,0-.06-.15-.56-1.33-1.04-1.62,.26,.43,.55,.95,.71,1.31-.2-.25-.92-1.13-1.07-1.24,.2,.4,.88,1.32,1.06,1.56-.25,0-.42,0-.42,0,0,0-.79-1.2-.97-1.28-.51-.08-2.25,1.18-2.69,1.54-.54-.08-2.15-.05-2.89,.69-.56,.56-.61,2.23-.61,2.23-.13,0-.49-.13-.13-1-.31,.03-.49,1.08-.18,1.56,.31,.18,.38,.13,.38,.13,0,0-.05,2.97,2.48,2.97s4.86-.44,5.89-1.15c-.18,1.2-.36,3.15-2.99,4.53-2.3,1.28-4.02,2.92-5.71,2.92s-5.22-1.92-6.55-2.74Zm5.81,3.9c3.92-.07,4.25-.75,4.45-1.84,.29,.42,.38,1.8-.44,1.91-.82,.11-5.36,.31-6.85,.11-1.17-.2-1.42-1.55-.35-2.19,0,0-1.28,2.08,3.19,2.01Zm4.13-1.21c-.22,.39-1.1,1.09-3.82,1.06-2.57-.03-3.32-.57-3.46-1.07l2.55,.15c.48,.12,.99,.19,1.47,.14,1.68-.16,2.48-1.09,2.72-1.15,.34,.09,.59,.42,.6,.66-.32,0-1.57,.07-2.29,.64,.42-.21,1.55-.45,2.23-.42Zm-7.31-.23c0-.06,.01-.11,.02-.16,.13-.4,.27-.4,.27-.4,0,0,.69,.41,1.59,.73-.57-.07-1.4-.16-1.89-.16Zm-1.41-.66c.06-.45,.49-.66,.49-.66,0,0,.84,.43,.87,.51-.33,.21-.99,.62-.78,1.67,.21,1.05,1.19,1.01,4.12,1.01s3.73-.12,4.22-.31c.49-.19,.66-1.07,.19-2.28,.12-.37,.19-.43,.45-.41,.25,.02,.45,.47,.49,1.54,.03,.86,.04,1.29,.04,1.43-.17,.3-.59,.51-1.12,.65-.05-.12-.12-.27-.2-.29,.04,.14,.05,.25,.07,.32-.14,.03-.28,.06-.43,.09-.05-.11-.11-.23-.18-.24,.03,.11,.04,.19,.06,.26-.18,.03-.36,.06-.54,.08-.05-.11-.12-.25-.19-.26,.03,.12,.05,.21,.06,.28-.1,.01-.19,.02-.29,.03-.05-.12-.12-.26-.2-.27,.03,.12,.05,.22,.06,.29-.57,.06-1.06,.1-1.27,.16-.55,.17-.43,1.57-.38,1.96-.17,.02-.34,.04-.51,.07,0-.29,0-1.21-.04-1.78-.1-.33-.53-.29-.78-.29s-3.56,.08-4.34-1.14c.04-.8,.08-1.99,.13-2.42Zm-.17,.07c.03,.69-.18,2.06-.13,2.36-.05,0-.11,.02-.17,.04,.14-1.4-.06-2.42-.13-2.71,.14,.1,.29,.2,.43,.31Zm-.66-.47c.32,2.04,.19,2.75,.12,2.96-.31,.12-.63,.29-.91,.44,.49-2.56-.11-3.83-.28-4.12,.35,.22,.7,.46,1.07,.72Zm-1.45-.95c1.04,1.99,.56,4.01,.43,4.48-.1,.05-.18,.09-.25,.12,0,0-.34-.45-.94-1.12,.18-2.71-.46-4.02-.62-4.3,.44,.24,.91,.51,1.39,.81Zm-1.73-.99c.83,1.19,.78,3.69,.76,4.25-.38-.42-.84-.9-1.38-1.42-.03-2.03-.76-3.24-1.04-3.62,.52,.22,1.07,.48,1.66,.79Zm-1.99-.92c1.14,1.5,1.2,3.14,1.19,3.58-.52-.5-1.11-1.01-1.74-1.51-.06-1.21-.86-2.34-1.09-2.63,.5,.14,1.04,.32,1.63,.55Zm-1.93-.63c1.06,1.42,1.16,2.29,1.17,2.53-.55-.42-1.12-.82-1.73-1.18-.01-.66-.62-1.4-.79-1.6,.41,.05,.86,.13,1.35,.25Zm-1.63-.28c.77,.83,.78,1.36,.77,1.45-.98-.56-2.02-1.01-3.08-1.25,.35-.13,1.12-.31,2.31-.2Zm3.51,3.59c2.61,2.37,3.93,4.07,3.93,4.07,.67,.85,1.21,1.98,1.4,2.4-.01,0-.03-.02-.04-.03-.51-.06-.54-.54-1.38-1.5-.84-.95-6.28-8.03-11.34-7.64-.19-.41,2.35-1.65,7.43,2.7ZM.27,47.21c-.07-.45,.72-.53,1.94-.18-.38,.42-.56,1.11-.44,1.5,.1-.8,.53-1.27,.7-1.42,.39,.13,.82,.29,1.27,.51-.53,.64-.92,2.15-.72,2.54,.06-1.23,.69-2.17,.9-2.45,.55,.27,1.12,.59,1.71,.99-.98,.92-1.43,2.52-1.13,3.02-.05-1.5,1.08-2.71,1.29-2.91,.48,.33,.96,.7,1.43,1.11-1.55,1.09-1.75,3.46-1.45,3.73-.02-2.04,1.3-3.42,1.54-3.65,.35,.31,.7,.65,1.04,1.02-.36,.36-1.04,1.46-.8,1.72,.33-.92,.76-1.4,.93-1.58,.11,.12,.21,.23,.31,.36,0,0-2.06,1.75-2.11,3.69-1.58-1.35-6.23-6.89-6.4-7.98Zm9.05,15.18c-.81-.68-.93-1.66-1.2-2.47-.26-.81-.44-2.01-.76-2.47-.33-.47-.79-1.66-.25-3.15,.54-1.49,1.9-2.61,1.9-2.61,0,0,1.91,1.77,3.09,3.59-.17,.08,.06,.42,.44,.5,.35,.07,1.4,.61,1.67,2.68-.23,.24-.99,1.08-1.13,1.98,.28-.4,.45-.87,.73-.99-.05,.37-.11,.81,0,1.12,.08-.65,.34-1.38,.48-1.78,.34-.41,.82-.73,2.43-1.22,1.34,.9,2.53,3.31,2.67,4.57-1.03,1.01-2.66,1.96-3.68,2.1-1.03,.14-1.38,.06-1.83,.33-.45,.26-.95,.4-1.71-.11-.76-.51-2.04-1.37-2.84-2.05Zm5.8,2.09c-.03,.21-.11,.72-.13,.9-.08,.03-.16,.08-.24,.1-.04,0-.1,0-.16-.02-.26-.4-.07-.87-.03-.96,.09-.01,.18-.02,.29-.02,.09,0,.18,0,.27,0Zm-.85,.86c-.23-.12-.46-.28-.5-.4,.08-.13,.21-.28,.5-.37-.04,.22,0,.66,0,.78Zm-4.5,1.99c1.13,.37,1.83,.68,2.68,.91,.37-.07,.61,.09,.61,.09,0,0-.18,.24-.49,.63-1.74-.43-2.85-1.17-3.12-1.37,.11-.09,.21-.18,.32-.26Zm-.48,.41c.26,.2,1.33,.97,3.12,1.42-.24,.3-.54,.66-.89,1.06-1.79-.62-2.8-1.39-3.07-1.62,.27-.31,.56-.6,.84-.86Zm-.98,1.02c.28,.23,1.25,.98,3.08,1.61-.26,.29-.54,.6-.84,.92-1.74-.56-2.79-1.48-2.97-1.66,.22-.28,.47-.58,.73-.88Zm-.87,1.05c.23,.21,1.23,1.07,2.97,1.64-.28,.29-.57,.59-.87,.88-1.73-.62-2.59-1.44-2.77-1.63,.14-.19,.38-.51,.67-.89Zm-.81,1.08s0,0,0,0c.23,.24,1.04,1,2.73,1.61-.42,.4-.85,.79-1.29,1.15-1.1-.58-2.07-1.28-2.28-1.44,.25-.39,.52-.82,.84-1.31Zm-.96,1.49c.24,.18,1.15,.83,2.23,1.39-.41,.33-.82,.63-1.24,.89-1.2-.22-1.71-.67-1.85-.83,.22-.4,.5-.88,.85-1.45Zm-.96,1.65c.16,.18,.63,.56,1.73,.78-.76,.46-1.53,.79-2.24,.89-.12,0-.22-.29,.51-1.67Zm-.74,2.53c-.3,0,.02-.81,.02-.81,.26,.02,1.36,.51,4.55-2.34,3.19-2.85,4.7-5.17,4.7-5.17,0,0,.62,.06,.7,.17,0,0-3.06,4.44-6.51,6.78-2.51,1.53-3.17,1.36-3.47,1.36Zm2.62,15.79c-2.49,.95-4.49,.71-4.47-.16,.29,.24,.83,.77,2.3,.52,1.48-.25,3.64-1.15,5.53-2.51,0,0-.21,.83-3.37,2.15Zm1.18-.98c-.06-.14-.31-.61-.79-.77,.26,.21,.55,.69,.6,.87-.16,.08-.33,.16-.5,.24-.14-.15-.82-.85-1.39-1.03,.33,.22,.99,.96,1.16,1.14-.17,.07-.34,.15-.51,.21-.12-.17-.95-1.27-1.91-1.34,.53,.23,1.23,.87,1.7,1.42-.89,.34-1.75,.56-2.36,.54-1.77-.05-1.65-.85-1.38-1.65,.12-.35,.27-.66,.44-.95,.94,0,1.13,.1,1.31,.12-.21-.3-1.06-.26-1.23-.25,.08-.13,.16-.25,.25-.37,1.11-.1,1.24,.07,1.51,.19-.27-.43-1.05-.42-1.36-.39,.72-.92,1.52-1.38,1.7-1.38,1.07,.07,2.83,1.54,3.37,1.68,.54,.14,1.68,.09,1.68,.09-.31,.45-1.21,1.07-2.28,1.62Zm3.8-6.17c-.61,.49-1.29,.97-1.65,1.6,.47-.47,1.04-.91,1.18-.97,.05,.52,.03,1.2,.02,1.36-.08,.21-1,.76-1.31,1.43,.34-.28,.49-.35,.49-.35,0,0,.43,.62,.4,.8-.03,.18-.24,.4-.57,.43-.34,.03-1.34,.21-2.03-.13-.69-.34-2.13-1.73-3.83-1.76,.12,.21,.32,.31,.32,.31-.31,.15-.68,.46-.68,.46,0,0-.72-.57-.28-1,.29-.37,.19-.63,.06-.92-.13-.29-.13-.75,.19-1.06,.32-.31,.47-.81,.47-.81,.07,.25,.18,.41,.18,.9,.13-.44,.01-1.45-.09-1.73-.1-.28-.26-.81,.78-.97-.09,.26-.09,.35-.07,.53,.01,.18,.59,1.23,2.13,1.5,1.54,.26,3.92-.03,4.04-.03,.12-.18,.37-.59,.4-.63,0,0,.47,.58-.15,1.07Zm3.41-6.94c-.49,.98-1.49,1.68-2.25,2.13-.77,.45-.87,1.17-.74,2.21,.13,1.04-.7,1.7-.89,1.98-.66,.13-3.23,.11-4.15-.09-.91-.19-1.6-1.25-1.6-1.25,.04-.74-.08-1.98,.57-2.57,.66-.6,.66-1.45,.47-2.04-.19-.6,.21-2.53,.47-2.76,.96-.57,3.38-1.93,7.14-7.06,0,.94,.06,2.77,.53,4.59-.34-.35-1.26-1.16-2.51-1.07,.72,.19,1.55,.41,2.59,1.37,.02,.06,.03,.12,.05,.18-.18-.14-.53-.35-.99-.38,.38,.18,.85,.53,1.11,.76,.3,.89,.7,1.75,1.26,2.47,0,0-.57,.57-1.06,1.55Zm4.24-.14c-3.79,.7-5.1-6.21-4.89-9.57,.04-.26,.43-.26,.47,0,0,.57,.23,8.8,3.78,9.02,1.25-.04,3.02-.13,3.98-8.82,.06-.21,.32-.45,.38-.23,.06,.21,.28-.02,.4,.13,0,0-.34,8.78-4.12,9.48Zm-.05-9.6c.09-.04,.34-.19,.34-.19l.13,.28c.13,.02,.47-.06,.47-.06,0,0,.13,.06,.19,.32,.17,.06,.21-.02,.55-.15,.09,.02,.36,.15,.55-.04,.11-.08,.19,.02,.36,.15,.11,0,.53-.11,.53-.11-.01,.21-.03,.41-.05,.61-4.19,.73-6.9,.01-7.25-.09-.03-.41-.04-.65-.04-.65,.13-.19,.45-.23,.83-.08,.38,.15,1.15,.11,1.55,.04,.23-.06,.77-.15,1.04-.13,.25-.08,.45-.3,.45-.3v.17s.19,.15,.34,.23Zm-2.13,7.91c-.26-.31-.49-.68-.69-1.1,2.29,.51,4.07,.2,4.58,.09-.18,.39-.36,.7-.54,.94-1.45,.44-2.88,.17-3.35,.06Zm3.13,.21c-.72,.82-1.34,.7-1.34,.7-.59,0-1.09-.23-1.51-.62,1.35,.25,2.42,.04,2.85-.08Zm-3.96-1.62c-.15-.36-.29-.74-.41-1.13,2.6,.78,4.98,.54,5.54,.47-.09,.26-.17,.5-.26,.72-1.69,.54-4.18,.09-4.87-.06Zm-.45-1.28c-.07-.24-.14-.49-.2-.74,.69,.09,4.46,.53,6.2-.21-.1,.47-.21,.9-.32,1.28-1.66,.49-5.21-.23-5.68-.33Zm-.26-1.04c-.11-.5-.2-1-.27-1.46,.73,.1,4.81,.64,6.82-.07-.07,.51-.15,.99-.24,1.42-.4,.12-2.53,.69-6.31,.12Zm-.32-1.79c-.07-.55-.12-1.04-.16-1.43,3.56,.85,6.55,.27,7.21,.12-.05,.49-.1,.96-.16,1.39-.5,.15-2.59,.63-6.89-.08Zm20.56,21.67s.29,1-1.18,.88c-1.46-.12-4.39-1.12-6.14-3.24,1.89,1.45,3.39,2.58,5.56,2.87,1.17,.12,1.59,.04,1.76-.51Zm-1.07-2.73c-.15-.05-.56-.11-1.09,.37,.57-.28,.99-.23,1.18-.17,.04,.1,.09,.2,.13,.3-.18-.03-.47-.02-.65,.26,.22-.13,.57-.09,.73-.06,.42,1.04,.75,2.08,.45,2.3-.46,.35-2.28,.05-3.87-.69,.11-.12,.37-.4,.8-.61-.45,.04-.89,.43-.98,.52-.17-.08-.33-.17-.49-.26,.59-.67,1.52-1.14,1.8-1.23-.82-.03-1.77,.9-1.98,1.12-.09-.06-.18-.12-.27-.18,.94-.95,1.47-1.17,1.84-1.42-.75,.01-1.77,1-2.04,1.27-.01-.01-.03-.02-.04-.03-.1-.08-.2-.16-.29-.23,.1-.18,.56-.56,.83-.76-.43,.02-.85,.48-.99,.63-1.05-.83-1.41-1.14-1.48-1.42,.79,.23,1.07,.4,1.45,.38,.3-.01,1.08-.88,2.21-1.66,.32-.03,1.49-.13,2.09,.12,.11,.26,.38,.81,.65,1.44Zm-1.56-5.99s-.01,0-.01,0c0,0-.03,1.12-.48,1.8,.23,0,.63-.8,.72-1.2,.53,.71,.17,1.49,.17,1.49,0,0,0,0,.01,.02-.07,.2-.18,.46-.35,.82,.25-.14,.4-.39,.46-.53,.04,.11,.08,.24,.14,.39,.16,.6,.46,.54,.63,.79,.13,.21,0,.6-.22,.81-.14-.09-.58-.26-1.98-.14,0,0-.01,0-.02,.01,.27-.18,.56-.34,.86-.49,0,0-.99,.22-1.78,.91-.79,.69-1.35,1.09-1.6,1.15-.25,.06-1.42-.36-1.42-.36h0c-.12-.05-.43-.21-.66-.4-.28-.24-.2-.69-.2-.69l.19,.02c-.09-.3-.91-.85-1.02-1.02-.09-.14-.09-.41-.05-.83,.12,.09,.31,.22,.49,.31-.09-.28-.58-.66-.58-.66h0c-.25-.22-.79-.68-.9-.85-.14-.22,.25-.78,.39-.82,0,0,.07,.18,.43,.54,.37,.27,1.87,.61,3.29,.52,1.42-.09,2.69-1.41,2.78-1.86,.09-.45-.01-1.2-.01-1.2,.91,.03,.8,.74,.73,1.46Zm-2.51-6.42c.34,.49,.42,1.04,.34,2.19-.09,1.15,.47,1.6,.91,2.02,.44,.42,.39,.8,.33,1.91-1.75,2.52-4.27,1.66-5.74,1.22-.5-.64-.83-.91-.94-1.69,.06-1.5,0-1.75-1.36-2.44-1.36-.69-2.22-2.08-2.83-3.46,.53-.9,.95-2,1.28-3.11,.8-.69,1.17-.96,1.73-1.23-.55-.09-1.41,.69-1.64,.92,.72-2.56,.96-5.06,.96-5.06,2,4.72,6.55,7.48,6.55,7.48,0,0,.06,.77,.4,1.25Zm-1.6-2.45c-4.04-3.42-5.1-6.51-5.1-6.51,0,0,.38-.06,.77-.11,2.02,4.17,4.47,5.74,5.81,6.8,1.34,1.06,2.13,1.08,2.47,.83,.7,1.81-1.68,.6-3.93-1.02Zm3.48-.03c.25,.49,.57,1.4-.6,.91-.25-.1-.62-.31-1.06-.62,.19-.09,1.08-.57,1.35-1.01,.11,.24,.21,.48,.31,.72Zm-.41-.94c-.23,.25-.93,.96-1.46,1.09-.28-.21-.6-.45-.92-.72,.2-.11,1.37-.77,1.87-1.42,.18,.34,.35,.7,.51,1.06Zm-.62-1.27c-.22,.24-1,1.05-1.96,1.46-.33-.29-.68-.61-1.03-.96,.35-.15,1.88-.82,2.41-1.57,.2,.34,.39,.7,.59,1.07Zm-.72-1.29c-.32,.35-1.36,1.38-2.49,1.58-.33-.34-.67-.71-1-1.11,.3-.1,2.16-.78,2.78-1.63,.23,.36,.47,.75,.71,1.15Zm-.85-1.37c-.17,.2-1.09,1.18-2.79,1.66-.24-.29-.47-.6-.7-.91,.41-.14,2.15-.79,2.89-1.65,.19,.27,.4,.57,.61,.9Zm-.75-1.1c-.18,.22-.97,1.04-2.89,1.65-.24-.34-.48-.7-.7-1.07,.39-.1,2.02-.56,2.93-1.46,.19,.25,.42,.55,.66,.89Zm-1.35-1.74s.21,.24,.56,.68c-.24,.2-1.38,1.1-2.94,1.39-.17-.29-.33-.59-.49-.9,.64,0,1.06-.15,1.15-.45,.21,.21,.42,.09,.74-.4,.34,.13,.55,.02,.98-.32Zm0-1.24c.29,.22,.26,.48,.26,.48-.32-.1-.48-.13-.48-.13,0,0,.1,.32,.03,.71l-.19-.19s.13,.42-.45,.51c0-.55,.12-.78,.12-.78,0,0-.1,.12-.55,1.19-.12,.17-.45,.07-.43-.19,0,.31-.24,.5-.69,.6,.36-.45,.69-.9,.76-1.38-.33,.76-.62,1.21-1.36,1.36,.07-.31,.81-.69,.67-1.24-.24,.5-.33,.5-.6,.24-.02,.4,.1,.93-.55,1.05,.19-.26,.24-.71,.24-.71,0,0-.59,.83-1.05,.83,.12-.38,.12-.67,.12-.67,0,0-.36,.57-.52,.59l-.02-.33s-.31,.55-.67,.6c.21-.36,.43-.67,.43-.67,0,0-.52,.71-.95,.74,.21-.33,.43-.31,.45-.62-.24,.19-.71,.59-1.12,.62,.24-.24,.55-.62,.64-1.17-.21,.38-.45,.93-1.29,1.07,.36-.26,.43-.57,.43-.57,0,0-.45,.48-1.26,.48,.24-.17,.26-.67,.26-.67-.17,.33-.6,.52-.71,.52,.33-.43,.48-.55,.48-.55,0,0-.83,.57-1.05,.21,.03-.07,.06-.12,.08-.17-.15,.15-.36,.36-.53,.48-.26-.05-.26-.29-.26-.29,0,0-.14,.24-.5,.1l-.12,.38s-.5-.19-.74-.5c.05,.29-.26,.48-.26,.48-.21,0-.43,0-.98-.62-.21,.02,.12,.45,.12,.45-.31-.12-.52-.31-.93-.86-.02,.29,.5,.86,.43,.86-.29-.02-.67-.31-.9-1.21-.26,.26,.14,.88,.14,1.14-.38,.12-.62-.12-1.05-1.19-.19,.19-.17,.59,.17,1.02-.36,0-.52-.31-.74-.57,0,.33,.14,.59,.14,.59,0,0-.5-.26-.71-1.05-.02,.1-.04,.2-.05,.3-.11-.03-.34-.15-.66-.66,0,0,.17,.69,.68,.91,.03,.15,.12,.3,.3,.44-.36,.05-1.17-.33-1.64-1.31-.19,.17,.29,.88,.29,.88,0,0-.29,.07-.81-.88,.02,.21,.1,.55,.02,.55s-.4-.43-.67-.67c-.26-.24-.24-.52,.05-.5-.14-.43,.05-.67,.05-.67,0,0,.12,.43,.38,.64,.1-.36-.57-.98-.19-1.45l.07,.52s.19-.6,.48-.83l.07,.33s.07-.31,.57-.55c-.17,.26-.24,.78-.24,.78,0,0,.14-.74,1.02-.48-.31,.19-.71,.14-1,1.09,.5-.5,.64-.83,1.19-.81-.38,.36-.48,.76-.48,.76,0,0,.45-.6,.69-.62,.24-.02,.48,.26,.48,.62,.33,.29,.4-.43,.4-.43,0,0,.45,.38,.55,.71,.21-.17-.02-.55-.02-.55,0,0,.45,.43,.64,.67l.12-.26s.43,.57,.95,.62c-.31-.38-.36-.62-.17-.62s.62,.5,.83,.55c-.14-.4-.21-.67,.14-.4s.57,.38,.57,.38c-.02-.09-.07-.36,.19-.29,.17-.1,.48-.26,1,.4,.17-.17-.26-.57-.26-.57,0,0,.5-.12,1.07,.43l-.12-.36s.45,.1,.76,.57c.07-.38-.31-.78,.14-.57,.45,.21,.81,.43,.93,.33-.29-.26-.95-.43-.76-.52,.19-.1,1.05,.48,1.17,.43,0-.33,.33-.36,.95,.17-.17-.31-.5-.67-.26-.69,.24-.02,.64,.38,.64,.38,0,0,.17-.29,.76,.12,.05-.38,.48-.19,.76-.14,.12-.36,.4-.14,.4-.14,0-.45,.36-.31,.76,.14-.07-.36-.4-.67-.4-.67,0,0,.64,.31,.71,.45-.17-.48-.29-.52-.29-.52,0,0,.55-.1,.74,.38-.05-.43,.14-.6,.48-.17,0-.31-.12-.45-.12-.45,0,0,.36,.12,.52,.29,.31,.12,0-.29,.55-.36,0,0,.9,.19,.74,1.28Zm-5.12-1.8c.21,.07,.43,.15,.66,.22l-.04,.95s-.08,0-.12,0c-.1,0-.28,.04-.48,.06l-.02-1.22Zm.84,1.18l.04-.9s.05,.01,.07,.02c.67,.19,.98,.36,.98,.5,0,0-.5,.07-.74,.26-.11,.1-.23,.12-.35,.12Zm6.91-9.78c-.48,.89-.23,1.17-.3,2.89-.06,1.73-.25,1.96-1.18,3.81-1.32,2.32-1.38,1.96-2.94,2.32-1.55,.36-3.28-.71-4.52-1.1-.03-.37,.26-2.16,.26-2.16,0,0,.17,0,.81-.82,.64-.82,.53-1.46,.53-1.46,0,0,.21,0,.92,.01,.24,.42,.83,1.49,1.21,1.57-.22-.25-.33-.61-.53-1.12,.47,.08,.84,.4,1.15,.85-.14-.91-1.43-1.41-1.75-1.52,.43-2.37,1.62-3.46,1.62-3.46,0,0-.16,.02-.4-.02,1.32-2.36,3.37-3.6,3.37-3.6,1.82,.84,2.13,3.14,1.74,3.81Zm-13.41,11.95c-.24-.24-.29-.55-.29-.55-.21,.21,.12,.76,.29,.55Zm14.07-30.56c-.62,.56-1.24,.87-2.42,1.14,2.21-.08,2.42-1.14,2.42-1.14Zm-12.57,8.22c-.33-.28-.23-.79-.08-1,.13-.18,.03-.9,.03-.9-.05,.56-.41,.85-.67,1.15-.26,.31,.28,.56,.72,.74Zm-.56-3.48c.23-.38-.05-1.69-.05-1.69-.03,.15-.18,.72-.33,.92-1.77-1.97-4.84-4.63-6.27-4.84-1.43-.21-2.35,.82-2.56,1.43,.59-.28,1.59-1.36,2-1.23,0,0-1.23,.82-1.69,1.36,.45-.01,.9,.03,1.35,.1,.09,.78,.42,3.28,.86,3.71,.5,.5,3.9,1.38,4.66,1.21h.01s.01,0,.01,0c.58-.28,.82-1.41,.89-1.78,.58,.42,.98,.74,1.14,.81Zm-2.11,.77c-.79,.17-4.02-.73-4.44-1.15-.36-.36-.7-2.7-.79-3.52,1.55,.3,2.98,1.12,4.22,1.88-.19,.1-.24,.27-.24,.51,0,.34,.25,.61,.56,.61s.48-.23,.48-.57c0-.01,0-.02,0-.04,.34,.22,.64,.44,.92,.64-.06,.41-.24,1.4-.71,1.64Zm-5.18,1.08c.87-.33,2.97-.36,2.97-.36-.97-.13-2.89-.03-2.97,.36Zm.67,.23c1.28-.61,3.28-.05,3.28-.05-1.05-.61-3.1-.33-3.28,.05Zm6.94,4.91c.64,.54,1.41-.08,1.41-.08-.36,.1-.79,.1-1.41,.08ZM6.9,86.88c.76,0,1.88-.22,1.88-.22-.37-.08-1.7-.02-1.88,.22Zm-.68-.28s.02-.22,.75-.22,2.04,.02,2.04,.02c-.22-.23-2.94-.37-2.78,.2Zm3.02-4.41c.61-.27,.97-.81,1.44-1.05,0,0-.91,.1-1.44,1.05Zm-1.83-3.04s-.76,1.41,.24,2.67c-.13-.6-.44-1-.24-2.67Zm12.69-31.67c1.77-.46,1.15-2.66,1.15-2.66-.74,1.28-4.02,1.36-4.86,1.41,.33,.95,.84,1.28,1.18,1.36,.33,.08,1.18,.2,2.53-.1Zm-3.39-1.05c1.64-.09,3.52-.31,4.41-1.11,.01,.1,.02,.22,.02,.34,0,.32-.05,.68-.23,.99-.18,.31-.47,.52-.86,.62-1.27,.29-2.07,.19-2.44,.1-.14-.03-.57-.19-.91-.94Zm10.76-3.37c.31-5.41-.08-4.91-.08-4.91,.14,1.16-.1,3.86,.08,4.91Zm-19.88-1.27s.33-.49-.47-1.75c-.8-1.26-2.01-3.46-1.71-.64,.11-.78-.05-1.91,.71-.56-.31,.16-.56,1.13,.04,2.42-.16-.93-.42-1.86,.02-2.32,.15,.18,.47,.78,.53,.97,.04,.27-.05,.42-.18,.53,.2,.07,.4-.38,.4-.38,.13,.18,.26,.62,.26,.62-.13,.2-.86,.91,.16,1.71,.13,.53,.26,1.15,.73,1.09,.47-.05,.18-1.18-.26-1.39-.26-.07-.16,.18-.46,.09-.29-.09-.62-.78-.09-1.37,.13,0,.2,.13,.33,.97Zm.06,.47c.13-.05,.32,.14,.43,.43,.1,.28,.08,.55-.05,.6-.13,.05-.32-.14-.43-.43-.1-.28-.08-.55,.05-.6Zm14.28,1.49c.95-.6,3.41-.66,3.41-.66-1.88-.19-3.32,.39-3.41,.66Zm.7,.08s.95-.43,3.57-.39c-.66-.19-2.81-.12-3.57,.39Zm9.36-1.92c.5-.14,.78-1.97,.86-3.73,.08-1.76-.45-1.55-.45-1.55-.3,.13-.11,1.76-.29,2.82-.18,1.06-.62,2.61-.13,2.47Zm.35-2.87c.11-1.39-.05-2.13,.18-2.1,0,0,.34-.16,.18,1.7-.16,1.86-.42,3.06-.74,3.06s.27-1.26,.38-2.66Zm-1.87,48.21c-.73-.6-2.05-.34-2.05-.34,.75,0,.99,.21,.99,.21,0,0-.52,0-.78,.21,1.01,0,1.3,.13,1.79,.21-.13-.16-.36-.23-.83-.36,0,0,.57-.03,.88,.08Zm-.57-8.06c.6,1.42,.19,1.72,.11,2.74,1-2-.11-2.74-.11-2.74Zm-1.74,3.4c-.55-.6-1.47-1.53-1.47-1.53,.04,.38,1.02,1.42,1.47,1.53Z"/></g></svg>