<?xml version="1.0" encoding="UTF-8"?><svg id="Capa_1" xmlns="http://www.w3.org/2000/svg" viewBox="0 0 184.59 184.65"><defs><style>.cls-1{fill:#f6a120;}.cls-2{fill:#ffb14a;}.cls-3{fill:#db123d;}</style></defs><circle class="cls-1" cx="92.3" cy="92.29" r="92.29"/><path class="cls-2" d="M3.66,66.73c-14.16,49.02,14.05,100.15,63.08,114.31,29.66,8.52,61.53,1.77,85.1-18.15-9.85,2.32-47.03,10.07-85.54-10.4C16.16,125.93,5.1,73.81,3.66,66.73Z"/><path class="cls-2" d="M99.71,29.1c26.12,1.99,40.06,20.25,50.57,42.16,4.43,9.3,18.37,1.22,13.83-8.08-13.28-27.55-32.42-47.7-64.4-50.13-10.29-.77-10.29,15.27,0,16.05h0Z"/><path class="cls-2" d="M156.59,94.39l1.77,3.43c2.21,3.87,7.19,5.09,10.96,2.88,1.77-1.11,3.1-2.77,3.65-4.76,.44-2.1,.22-4.32-.77-6.2l-1.77-3.43c-2.21-3.87-7.19-5.09-10.96-2.88-1.77,1.11-3.1,2.77-3.65,4.76-.44,2.1-.22,4.32,.77,6.2Z"/><polygon class="cls-3" points="95.84 88.64 103.7 89.86 97.94 95.28 99.16 103.14 92.19 99.37 85.1 102.92 86.65 95.17 81.01 89.53 88.87 88.53 92.52 81.45 95.84 88.64"/></svg>