<?xml version="1.0" encoding="UTF-8"?><svg id="Capa_1" xmlns="http://www.w3.org/2000/svg" viewBox="0 0 150.92 169.96"><defs><style>.cls-1{fill:none;}.cls-2{fill:#f7beaa;}.cls-3{fill:#eab796;}.cls-4{fill:#e63d11;}.cls-5{fill:#ea600a;}.cls-6{fill:#fff;}.cls-7{fill:#ffd500;}.cls-8{fill:#ffcf00;}.cls-9{fill:#fdece4;}.cls-10{fill:#86221b;}.cls-11{fill:#8d172f;}.cls-12{fill:#bba217;}.cls-13{fill:#bc1717;}.cls-14{fill:#af4b17;}.cls-15{fill:#aa7a1a;}.cls-16{fill:#a53318;}.cls-17{fill:#ce1342;}.cls-18{fill:#d2836c;}.cls-19{fill:#e0a300;}.cls-20{fill:#dec229;}.cls-21{fill:#e2a700;}.cls-22{fill:#dd840b;}.cls-23{fill:#223364;}.cls-24{fill:#433e3c;}.cls-25{fill:#12100b;}.cls-26{fill:#0f0500;}.cls-27{fill:#1b2138;}.cls-28{fill:#292b64;}.cls-29{fill:#494e9b;}</style></defs><g><path class="cls-21" d="M116.13,107.35s3.26-3.26,3.53-3.26c.27,.23,2.45,2.45,2.45,2.45,0,0,.69,10.89,.73,11.12,.04,.23-.61,.77-1.07,.88-.46,.12-4.25,.15-4.25,.15l-3.03-1.99-1.38-1.96s.61-1.04,.88-1.04c.27,0,3.72-3.72,3.72-3.72l-1.57-2.64Z"/><path class="cls-13" d="M102.86,88.8s14.22,12.87,16.48,15.07c.17,.34,0,.45,0,.45l-3.05,3.1,1.52,2.43-4.46,4.29s-4.23-3.56-4.46-3.5c-.23,.06-6.15-6.83-6.15-6.83l.96-2.99-1.41-7.39s.11-4.06,.56-4.63Z"/><path class="cls-4" d="M82.79,153.34s-1.16,1.83-3.51,2.16c-2.37,.23-4.23-.63-4.83-1.14-.53-.51-.02-1.04,.3-.98,.32,.07,2.11,.98,2.67,.98s3.02-.02,5.36-1.02Z"/><path class="cls-16" d="M74.71,154.75s.05-1.3,.37-1.3c-.63-.53-3.2-2.25-3.97-4.32-.28,.58,.09,1.86,.3,2.14,.21,.28,1.9,2.37,3.3,3.48Z"/><path class="cls-27" d="M71.04,146.39s-.63,2.41,.31,4.57c.91,1.97,2.44,3.28,4,3.91,1.03,1.94,.31,4.1,.31,4.5s-.28,6.69-.28,7.04-.97,1.69-.97,1.69c0,0-1.53-.81-2.6-4.25-1.06-3.44-2.06-5.38-2.13-11.73,.16-3.82,.56-6.54,1.34-5.72Z"/><path class="cls-27" d="M79.81,147.38s-4.42-2.23-5.95-3.6c-1.02-1.93-1.38-3.57-1.67-3.66-.29,.18-.59,1.03-.62,1.29-.03,.26-1.02,6.03-.32,8.08,.64,1.64,1.7,2.46,2.11,2.96,.41,.5,1.11,.91,1.46,1,.35,.09,5.04-4.45,4.98-6.06Z"/><path class="cls-27" d="M42.12,129.79s6.91,.81,7.3,.81c.46-.2,1.64-1.17,1.78-1.22,.15-.05,2.1-.61,2.32-.54,.22,.07,.34,1.07,.24,1.44-.1,.37-3.25,4.3-3.37,4.84-.12,.54-2.37,4.4-2.83,4.42-.54,.24-3.13,.76-3.3,.71s-1.37-3.49-1.39-4.18c-.02-.68-.85-4.27-.76-6.28Z"/><path class="cls-28" d="M79.54,105.52s3.72-5.1,3.77-6.47c-.97-1.94-2.74-4.94-3.97-6.17,0,0,.42-.26,1.09-.29,.63-.06,9.11-2.05,10.56-3.32,0-1.09-.21-1.48-.21-1.48l-.75-.88s-7,2.41-8.27,2.87c-1.27,.45-3.17,1.18-3.29,1.18s-6.91-1.03-7.73-1.33c-1-.06-1,0-1,0l-1.74,.78s-7.7-3.49-9.79-3.52c.91,1.15,3.62,3.47,4.04,3.65,.42,.18,6.13,1.96,6.13,1.96,0,0-1.36,1.18-2.05,1.81-.69,.63-5.18,6.35-5.26,7.23-.14,.85,1.46,2.66,1.46,2.66l2.78,1.09s3.47-7.7,4.28-8.69c.78-1.03,2.29-3.14,2.47-3.14,.24,.12,.97,1.27,1.51,1.27s.78-.27,.94-.27,.18,.39,.33,.39,.75-.51,1.09-.51c.36,.12,1.42,1.54,1.75,2.59,.33,1.06,1.9,4.83,1.85,8.59Z"/><path class="cls-5" d="M63.53,97.8s-2.87,3.66-3.57,4.94c-.71,1.28-7.28,12.35-7.23,12.96,.97-.53,4.01-1.19,5.16-.22,1.15,.97,2.34,2.29,2.34,2.29l1.37,1.54s.62-3.04,.97-5.07c.35-2.03,3.17-10.32,4.15-11.95,.97-1.63,2.86-7.34,5.44-8.74,.55,.45,.9,1.11,1.39,1.11,0,0,.7-.1,.91-.07,.21,.16,.37,.16,.37,.16,0,0,.85-.44,1.1-.57,.33-.06,1.73,2.79,2.02,3.61,.29,.82,1.29,4.8,1.48,6.2,.18,1.4,.79,5.49,.79,6.12s1.37,9.02,1.35,9.92c-.03,.9,.47,3.38,.47,3.38,0,0,2.85-2.9,3.56-2.96,.71-.05,1.64-.34,4.12,1.79,2.01,1.95,2.45,2.06,2.45,2.06,0,0-.11-2.69-1.35-6.36-1.27-3.64-4.49-11.24-4.49-11.24,0,0-2.74-6.83-2.8-7.23-.05-.4-.58-2.59-.58-2.59l-.71-3.59s2.11-1.45,2.59-1.66c.47-.21,2.74-.92,3.59-1.29,.84-.37,2.48-1.21,3.3-1.82,.82-.61,2.35-1.21,2.88-1.5,.53-.29,2.77-1.9,3.22-2.98,.45-1.08,.71-1.82,.71-1.82,0,0,.76,.74,1.45,1.53,.69,.79,2.4,3.35,2.64,4.04,.24,.71,.16,1.42,.05,2.45-.11,1.03-.63,3.72-.63,3.72,0,0,.63,.74,.82,2.01,.18,1.27,1.11,4.56,.82,5.12-.29,.71-1.08,3.43-1.08,3.43,0,0,.26,3.14,.24,3.8-.03,.66-.11,4.72-.16,5.54-.05,.82-.26,2.64-.29,3.19-.03,.55-.95,8.31-1.4,9.1-.45,.79-1.45,2.43-1.45,2.43l-.16,.69s-.58,5.28-.82,5.7c-.37,.48-2.98,2.56-2.98,2.56l-.34,1.32s-3.46,2.24-4.86,3.4c-1.4,1.16-4.96,4.43-4.96,4.43l-10.24-4.41-2.74-7.6s4.14-7.12,4.09-9.02c-.05-1.9-.69-8.29-.9-9.26-.21-.98-4.96-4.38-4.96-4.38l-2.08,2.19s-2.32,3.14-2.51,3.3c-.18,.29-3.51,5.78-4.01,7.05-.5,1.27-1.21,1.98-1.21,1.98,0,0-6.52,1.77-7.57,1.95-1.06,.18-5.7,1.45-6.1,1.35-.4-.11-6.07-2.3-7.39-3.06-1.32-.77-2.93-4.88-4.2-6.7-1.27-1.82-1.93-5.41-1.79-7.6,.13-2.19,1.06-3.35,2.3-5.83,1.24-2.48,4.09-4.04,4.99-6.39,.9-2.35,5.15-3.51,5.94-4.96,.79-1.45,4.8-4.62,5.65-4.59,.84,.03,9,3.67,9.42,4.01,.42,.34,1.43,2.58,1.46,3.1Z"/><path class="cls-14" d="M96.67,83.84s-.33,1.62-4.14,2.44c-3.4,.85-4.58,1.22-5.43,1.55,0,0-6.13,2.33-8.16,3.03-2.11,.26-2.84-.22-3.95-.41-1.11-.18-3.58-.85-4.32-.89-.78,.07-2.66,.85-2.66,.85,0,0-4.36-1.85-5.32-2.22-.96-.37-3.21-1.18-4.58-1.37-1.37-.18-5.17-.89-5.32-.89-.41-.22-4.47-6.46-4.47-6.46,0,0-3.73-1.15-4.62-2.18-.89-1.51-1.88-7.57-2.18-9.16-.3-1.59-.55-7.35-.33-10.38,.22-3.03,2.51-8.42,3.91-9.2,1.33,0,1.29-.07,1.29,.37,0,0-1.33,4.25-.41,8.72,.85,3.32,.81,2.99,1,3.18,.18,.18,1.92,1.66,1.96,1.81,.04,.15,1.22,3.69,2.25,5.69,1.03,1.99,4.69,7.98,5.91,9.31,1.14,1.37,3.95,3.07,5.47,3.95,1.51,.89,5.65,3.07,7.13,3.47,1.48,.41,7.64,1.51,9.71,1.55,2.07,.04,7.05,0,8.01-.22,1.07-.07,3.95-.44,6.8-1.51,2.09-.9,2.25-1.22,2.44-1.03Z"/><path class="cls-5" d="M63.52,75.92s8.73,6.01,10.7,6.17c1.68-.64,9.81-6.25,11.26-7.25,1.44-1,5.33-4.13,5.89-4.53,.56-.4,3.56-3.49,3.48-5.77,.88-.24,2.4-.08,3.12-.72,.76-.64,2.52-1.48,3.16-2.24,.64-.76,2.96-3.32,3.73-7.01-.12-2.32,.04-5.01-1.2-6.73,.36-.68,1.32-3.08,2.2-3.24,.92-.16,1.2,.16,1.2,.16,0,0,1.8,4.53,1.88,5.89,.08,1.36-.2,5.89-.4,7.49-.2,1.6-1.8,9.01-3.16,10.62-1.32,.8-2.28,2.32-2.36,2.2-.08-.12-.24,2.16-.24,2.32s-1.72,2.68-1.72,2.68c0,0-1.96-3-4.85-2.48-2.88,.52-4.61,.96-5.29,1.28-.68,.32-6.21,5.13-6.25,6.13-.04,1,1.2,3,1.52,3.2-.12,.2-1.63,.47-1.97,.7-.47,.14-7.68-.74-11.77-2.02-4.09-1.28-6.21-2.6-6.21-2.6l-2.72-2.88s-.72-1.48,0-1.36Z"/><path class="cls-9" d="M138.1,42.23s1.17,1.97,1.38,2.55c.21,.59,.24,3.8-.03,4.21-.28,.66-.9,4.18-1.1,4.52-.07,.52,1.1,1.69,1.76,1.93,.66,.24,5.7,0,5.83-.07,.14-.07,1.48-.72,2.35-.72,.86-.45,1.31-1.24,1.35-1.35,.03-.1,1.14-1.93,1.1-2.11-.03-.24-.86-1.28-1-1.62,.14-.59,.31-1.17,.31-1.48s.41-.97-1.31-2.52c-.83-.66-1-1.45-1.04-1.66-.03-.21-1.21-.55-2.21-.79-.9-1.28-1.69-1.79-1.79-1.79s-2.28-.07-5.59,.9Z"/><path class="cls-9" d="M114.59,41.92s1.58,2.98,1.81,4.42c.23,1.44,.68,8.73,.68,8.97-.14,.35-.45,1.04-.45,1.04l1.24,.41s2.59-.76,3.04-.86c.45-.1,2.97-1.8,3.14-1.8s7.53-.97,7.53-.97c0,0,1.1-2.69,1.04-4.49s-.02-5.31-4.26-7.92c-.26,.19-.58,.08-.58,.08,0,0-7.04-.21-8.97-.21s-3.24,.86-4.21,1.31Z"/><path class="cls-28" d="M128.19,56.05s2.02,1.3,2.53,1.46c.44-.23,1.46-1.11,1.46-1.11l2.53-.02s.76,.53,.93,.53,1.44-1.21,1.53-1.32c.09-.12,1.23-2.11,1.39-2.71-.19-.74-.9-1.37-1.69-1.92-.79-.56-1.27-.72-1.99-.53-.72,.19-2.53,.65-2.53,.65,0,0-1.34,3.99-1.88,4.57-.6,.09-2.23,.23-2.27,.42Z"/><path class="cls-28" d="M104.92,70.59s1.81-1.72,3.18-2.41c1.25-.95,2.79-1.76,3.05-1.93,.26-.17,3.18-5.5,4.04-6.71,.56-1.08,.56-1.33,.56-1.33,0,0-.04-4.17-.21-4.69-.17-.52-1.07-3.01-1.85-3.35-.77-.34-1.38-.64-1.93-.26-.56,.39-2.88,3.91-2.88,3.91,0,0-.34,4.08-.47,5.46-.13,1.38-1.07,4.26-1.29,5.12-.22,.86-2.88,6.45-2.19,6.19Z"/><path class="cls-28" d="M94.85,64.31s.03,1.98-1.51,3.93c-1.68,1.91-4.56,4.09-5.1,4.43-.54,.34-4.5,3.29-5.54,4.03-1.04,.74-7.82,5.37-8.36,5.4-.54,.03-7.35-3.89-8.69-4.73-1.34-.84-6.54-4.93-7.58-6.01-1.04-1.07-2.75-4.5-2.75-5.03,0-.5,.6-.2,.6-.2,0,0,1.48,2.42,4.23,4.09,2.75,1.68,9.56,5.07,11.41,5.57,1.85,.5,4.19,.6,6.24-.4,2.05-1.01,7.38-3.22,7.38-3.22l4.87-3.09s4.29-3.49,4.29-4.9c.24-.2,.5,.13,.5,.13Z"/><path class="cls-20" d="M62,77.83s6.68,3.59,8.92,4.25c2.24,.66,7.22,2.08,8.98,2.43,1.76,.35,4.32,.28,4.32,.28,0,0,.5-.35,3.28-.82,2.55-.95,4.76-1.58,4.76-1.58,0,0,3.72-1.23,5.14-2.46,1.42-1.23,2.9-2.27,2.99-2.55,.09-.28,1.01-.28,1.01,.38s-2.24,4.22-6.37,6.15c-4.13,1.92-7.06,1.8-7.5,1.95s-5.04,.25-6.81,.25-7.56-.63-10.75-1.61c-3.18-.98-8.6-4.03-8.76-4.92-.16-.88-1.17-1.83,.79-1.76Z"/><path class="cls-29" d="M33.17,56.13s1.56-8.03,2.27-8.82c0,0,1.84-.03,2.16,0,.14,.47-.85,5.75-.85,5.75,0,0,1.75-2.52,2.08-2.96,.33-.44,1.94-2.13,2.45-2.04,.51,.09,3.06,.97,3.06,.97,0,0-1.89,4.11-2,4.44-.11,.33-1.89,6.55-1.42,8.99-.77,.55-2.41-.41-3.73-1.07-1.32-.66-3.29-1.15-3.29-1.51s-.74-3.75-.74-3.75Z"/><path class="cls-29" d="M11.5,61.83s-2.25-2.27-2.16-5.48c.08-3.21,1.75-6.05,3.64-6.96,1.62-.52,1.84,.16,1.95,.16s2.25-1.07,2.96-1.15c.49-.3,1.51-.88,2.16-.71,.66,.16,.6,.71,.6,.71,0,0-2.79,1.42-3.64,3.59-.85,2.16-1.12,3.62-1.04,4,.08,.38,.04,2.7,1.06,4.35,.64,1.6,.28,2.23,.03,2.36-.25,.14-1.21,.44-1.84,.47-.63,.03-2.77,.19-3.73-1.34Z"/><path class="cls-9" d="M11.7,62.15s-2.23-2.71-2.2-5.32c.03-2.61,.64-4.84,1.91-6.15-1.18-.45-3.7,.26-5.54,1.53-1.72,1.24-2.01,1.47-2.01,1.47,0,0-.32,1.12-.48,1.4-.16,.29-2.29,1.82-2.23,2.36,.06,.54,.32,1.5,.32,1.78s-1.15,1.82-1.15,2.17-.13,.99,.06,1.4c.19,.41,.92,.89,.92,.89,0,0,6.09,.86,7.07,.83,.99-.03,2.99,.57,3.38-.03,.38-.61-.06-2.33-.06-2.33Z"/><path class="cls-9" d="M32.86,63.33s-.16-4.65,.19-6.05c.35-1.4,.73-5.45,2.01-9.02-.96-.26-3.76,.06-5.8,.45-1.98,0-1.91-.22-2.68-.38-.77-.16-4.97,.16-6.28,.51-1.31,.35-3.7,2.01-4.43,6.28-.03,3.41,1.21,5.32,1.59,5.8,.38,.48,4.94,1.4,5.26,1.27,.32-.13,3.09-.92,3.82-.67,.73,.25,2.26,1.05,2.45,1.08,.19,.03,3.86,.73,3.86,.73Z"/><path class="cls-9" d="M62.08,36.37s3.95-5.86,5.29-5.93c1.34,.64,.38,.32,.51,1.08,.13,.76,.51,9.43,.76,10.07,.26,.64,2.23,.76,2.87,.32,.64-.45,5.54-5.8,7.65-7.33,2.1-1.53,2.36-2.17,3.51-1.53,1.15,.64,4.72,2.49,5.42,2.1,.7-.38,4.4-4.08,4.46-4.27,.06-.19,1.98-1.98,2.93-.32,.96,1.66,4.27,10.96,4.21,12.68-.06,1.72,1.15,4.4,1.15,4.4,0,0,1.32-1.03,2.51-.08,1.1,.98,1.01,1.43,1.22,1.73,.21,.3,.33,3.3,.27,4.64-.06,1.34-.65,4.53-3.27,7-2.62,2.47-3.57,3.9-7.12,3.27-.83,.98-2.23,3.33-3.57,4.38-1.34,1.04-6.25,4.02-8.19,4.88-1.94,.86-6.49,3.01-8.54,2.83-2.05-.18-7.17-2.14-9.17-3.33-1.99-1.19-7.29-9.5-7.32-9.62-.03-.12-4.79-9.14-4.79-9.14,0,0,3.78-7.95,3.99-8.6,.21-.65,5.25-9.23,5.25-9.23Z"/><path class="cls-2" d="M70.57,47.94s.08-2.85,.11-3.11c-.19-.46-1.59-4.97-1.78-6.91-.19-1.94-.23-4.37,0-5.39,.23-1.03,1.18-5.16,1.25-5.28,.08-.11,.04-.3-1.48,.57-1.52,.87-4.71,3.76-5.43,5.32-.72,1.56-1.22,3.8-1.22,4.14s4.33-5.28,5.51-5.85c-.34,1.29-.8,6.8-.42,8.31-.84-.27-4.94-2.28-5.28-1.44-.34,.84-.11,1.59-.15,1.94-.04,.34-.11,4.25-.11,4.25,0,0-2.16-2.73-3.11-4.97-.95-2.24-1.44-4.29-1.44-4.29l.27-4.02s-1.97,1.48-3.95,5.09c-1.97,3.61-2.58,5.2-2.58,5.51s-.27,2.13,1.29,2.2c.95,.08,.95-.08,.95-.08l-.42,1.1,.76,.04s-2.35,2.39-2.2,4.82c-.57-.72-3.3-2.32-4.37-1.1-1.06,1.21-1.52,7.18-.53,10.63,.76,1.75,1.06,1.78,1.06,1.78,0,0,5.01,5.43,8.31,4.9l.42-.04s.38,1.14,2.32,2.81c1.94,1.67,7.71,4.78,11.43,6.11-1.21-1.29-7.52-5.09-8.47-9.11-.84-3.49,.04-6.04,.04-6.04,0,0,.23-7.21,1.1-8.35,.87-1.14,4.44-3.83,4.44-3.83,0,0,1.52,.42,2.32,2.09,0-1.4,.08-3.8,.08-3.8l1.29,2.01Z"/><path class="cls-8" d="M29.9,41.69s3.1-2.23,4.13-2.96c1.03-.73,3.66-3.2,3.86-3.43,.2-.23,5.23,.8,6.49,2-1.5,1.23-4.59,3.83-4.59,3.83,0,0-1.33,3-1.43,3.96-.8,.33-5.19,1.03-6.26-.1-1.06-1.13-2.06-2.06-2.23-2.4-.17-.33,.03-.9,.03-.9Z"/><path class="cls-3" d="M35.16,37.85s2.51-2.15,2.53-2.61c-.28-.41-4.38-.36-5.2-.2-.46,.49,1.43,3.97,2.66,2.82Z"/><path class="cls-3" d="M16.1,19.71s3.7-1.92,5.14-6.44c.48,.38,.51,.96,.51,.96,0,0,3.02,5.35,5.73,7.89,2.71,2.54,3.5,3.7,3.5,3.7,0,0-3.12,3.77-3.33,3.98-.21,.21-2.67-1.58-2.67-1.58l-8.09-7.4-.79-1.1Z"/><path class="cls-8" d="M16.34,19.65s3.26-1.85,4.53-5.35c.62-1.68,.58-2.91-1.17-3.6-.72-.03-.89,.31-.69,.65,.14,.41-.14,2.3-.99,3.33-.86,1.03-2.54,2.71-3.33,3.05-.58,.69,.24,2.68,1.65,1.92Z"/><path class="cls-17" d="M10.51,13.75s.69-4.11,5.01-4.22c2.81,.62,3.53,1.71,3.6,2.13,.07,.41-.58,3.98-4.66,6.17-2.02-.24-3.39-2.13-3.39-2.13l-.55-1.95Z"/><path class="cls-25" d="M97.42,50.97s2.5-3.68,4.58-3.68c1.86,.21,1.72,.39,1.72,.39l2-3.15s4.01,.11,5.19,.82c1.18,.72,3.9,2.54,4.26,2.65-.5-1.14-3.22-6.55-4.36-7.73-.93-.39-2.72-.89-2.72-.89,0,0,1.29-1.65,4.04-2.5,2.75-.86,6.15-.68,9.77-.14-1.11-.75-4.22-3.33-8.83-4.97-2.61,.29-5.47,1.39-5.47,1.39,0,0,.82-3.18,1.11-4.19,.29-1,.5-3.76,.43-4.08-.61-.32-6.55-3.08-6.69-3.29,.25-.25,2.54-1.57,7.94-1.93-.39-.47-2.86-1.22-8.26-.5,.36-.86,3.04-1.9,4.29-2.33,1.25-.43,3.97-1.07,3.97-1.07,0,0-.5-1.14-4.83-.86-4.22,.43-7.37,1.29-7.37,1.29l-.07-2.83-.39-3.15s-2.29-4.97-8.58-8.44c.14,.72,.29,.82,.46,1,.18,.18,2.25,3.97,2.72,5.62,.39,1.68,.18,3.61,.18,3.61,0,0-4.26-3.93-6.05-5.29-1.29-.68-5.94-.07-7.3,.25-1.36,.32-5.39,1.01-13.34,5.14,0,0-3.76-4.71-4.69-5.85-.93-1.15-3.76-5.04-9.84-5.9-5.29-.29-8.66,.14-10.16,.36-1.5,.21-4.69,.75-4.9,.93,.47,.18,.75,.36,1.11,.36s4.54,.97,6.55,2.5c2.18,1.5,4.58,3.26,5.87,4.83,1.29,1.57,4.69,8.05,4.69,8.51-.43,.36-1.61,.64-1.61,.64l-13.31,.29-5.08,3.97s-5.69,6.01-6.55,6.73c-.93,.68-1.65,2.58-2.22,3.29-.57,.72-3.58,6.01-3.58,7.37,.21-.25,.68-.57,.68-.57,0,0,5.51-5.08,12.27-4.76,6.69,.43,9.26,2.25,9.26,2.25,0,0-.86,.97-1.4,1.57-.75,.61-3.33,2.65-3.33,2.65,0,0-3,7.83-2.61,11.41,.57-.86,.86-1.29,.86-1.29,0,0,5.19-6.15,8.51-5.97,.21,.36,1.07,2.86,1.07,2.86,0,0,2.4,.11,3.54,1.4,.18-.93,.29-1.79,.64-2.18,.36-.39,1.18-1.97,1.57-2.32-.36-.04-.47-.18-.47-.18l-.07-.86s-2.04-.07-2-1.47c.14-1.54,.93-4.65,4.76-9.69,1.32-1.5,1.82-1.93,1.82-1.93,0,0-.25,3.08-.21,3.65,.04,.57,.18,1.32,.18,1.32,0,0,2.11,6.22,4.26,8.26,.18-.68,.11-1.65,.11-1.65,0,0,.18-5.69,1.18-8.23,1-2.54,3.47-5.51,7.33-7.37,.25-.04,0,.29,0,.29,0,0-1,4.33-1.22,5.65-.21,1.32-.25,3.4,.11,5.69,.36,2.29,2.18,7.3,2.83,8.12,.39-.21,.79-1.18,.79-1.18,0,0,2.36-6.9,5.11-9.66,2.58-2.75,5.44-5.58,6.3-5.76,.29,0,.11,.47,.11,.47,0,0,.75,6.51,.75,7.01,.04,.82-.04,2.11-.04,2.11l-1.4,3.79s.97-.75,3.08-2.72c2.11-1.97,3-3.4,3-3.4,0,0,3.15-5.19,3.76-6.9,.21-.82,.29-.43,.29-.43l.64,4.94,.29,5.29-1.72,5.11s1.36-.54,4.76-4.11c.11-.21,.21,.07,.21,.07l.54,5.51-.25,.21-1.93-.68,.61,1.61-.75,.25s.93,2.29,1.5,2.65Z"/><path class="cls-24" d="M56.73,22.23l-2.4-4.17s-6.85-2.61-13.48-.46c0,0-1.58,.67-3.33,1.99-1.74,1.32-5.48,5.18-6.76,6.5-1.29,1.32-4.8,6.2-5.74,7.81,.38-.43,10.6-11.6,16.45-13.21,3.49-.3,10.7,.1,15.27,1.54Z"/><path class="cls-24" d="M39.74,.9s12.6,.14,14.58,2.31c1.98,2.17,6.27,5.35,9.83,15.18,1.85-1.85,14.49-11.53,22.75-11.35-.6-.6-4.34-.65-8.03-.05-3.69,.78-7.2,2.31-13.06,5.12-2.08-2.4-4.8-6.09-6.41-7.75S55.52,.72,48.28,.12c-4.98,.05-7.48,.41-8.54,.78Z"/><path class="cls-24" d="M74.67,21.8s-5.12,5.12-5.54,5.72c-.65,.42-4.89,2.4-6.6,7.89-.46,2.63-1.15,4.43-.92,8.49-1.2-3-.6-13.33,.18-15.55,.88-2.08,11.3-6.51,12.87-6.55Z"/><path class="cls-24" d="M88.09,22.22l-4.38,8.26s-4.61,3.69-6.69,6.23c-2.08,2.54-4.98,9.97-4.98,9.97,0,0,1.11-12.32,3.37-16.15,2.26-2.81,11.12-8.4,12.69-8.31Z"/><path class="cls-1" d="M91.79,24.94s1.43,1.8,1.85,5.17c-.65,1.11-2.54,5.26-4.01,7.43-1.48,2.17-4.29,4.43-4.71,4.8,1.25-2.12,5.91-8.95,6.87-17.39Z"/><path class="cls-1" d="M98.71,33.2s-.37,7.15-.74,7.89c-.65,.6-4.66,4.24-4.66,4.24,0,0,3.6-4.52,5.4-12.13Z"/><path class="cls-11" d="M10.62,13s1.44,4.22,4.35,4.53c-1.34,.58-2.81,.96-3.33,.48-.51-.48-1.95-2.67-1.03-5.01Z"/><path class="cls-19" d="M14.9,17.66s.24,1.65,.99,2.09c-.1,.41-2.54,1.27-3.5,.82-.96-.45-1.03-2.09-.93-2.4,.1-.31,.62,.07,.89-.03,.27-.1,1.95-.21,2.54-.48Z"/><path class="cls-18" d="M16.58,19.47s8.23,6.72,11.38,10.11c-.72,1.06-1.23,1.37-1.23,1.37,0,0-5.49-5.52-7.47-6.89-1.99-1.37-3.53-2.37-5.21-3.12-.48-.38,1.65-.96,2.54-1.47Z"/><path class="cls-18" d="M32.73,35.03s1.97,2.53,2.02,3.15c-.49,.41-1.64,1.33-1.64,1.33,0,0-.54-2.64-1.92-3.92,.15-.51,1.05-.59,1.54-.56Z"/><path class="cls-19" d="M33,39.3s-2.5,1.93-2.76,2.2c-.17,.27,3.56,4.33,8.15,2.96,0,.67-.63,1.03-.63,1.03,0,0-2.03,1.36-6.39,.77-3.89-.97-3.89-1.63-4.76-2.83,0,0-.43-.1,.83-1.96,1.26-1.86,4.16-4.76,4.43-4.76,.3,.1,1,1.8,1.13,2.6Z"/><path class="cls-10" d="M41.29,48.06s2.98-2.63,5.01-2.53c1.09,1.14,1.04,2.59,1.12,2.76-.22,.17-.82,.47-.82,.47,0,0-1.24-.89-2.18,.35-.89-.3-3.13-1.04-3.13-1.04Z"/><path class="cls-6" d="M61.84,59.98s4.51,.39,6.53-1.81c.82-1.21,2.06-4.97-.5-10.57-1.74-3.12-5.14-2.55-5.85-2.2-.71,.35-4.12,2.45-4.22,6.88,.04,3.23-.18,6,4.04,7.7Z"/><path class="cls-6" d="M86.88,59.51s-4.95,.38-7.17-1.78c-.9-1.19-2.26-4.9,.54-10.42,1.91-3.08,5.65-2.52,6.43-2.17,.78,.35,4.52,2.41,4.64,6.78-.04,3.18,.19,5.91-4.44,7.59Z"/><path class="cls-2" d="M71.5,69.41s2.77-.38,3.28-.59c.46,.17-1.09,1.97-1.6,1.97s-1.22-.04-1.68-1.39Z"/><path class="cls-2" d="M72.47,62.15s-1.05-.97-.84-1.72c.29-.67,1.3-.42,1.51-.21-.04,.38-.84,1.18-.67,1.93Z"/><path class="cls-2" d="M98,47.15l-1.63-4.57,1.13-1.23s.42-1.04,.59,3.16c.29,2.31,.12,2.63-.09,2.64Z"/><path class="cls-2" d="M92.25,33.14s.73-2.5,1.28-3.02c.51,.24,.24,.81,.43,1.53,.19,.95,.49,8.62,.49,9.11-.23,.68-2.35,5.89-2.35,5.89,0,0,.65-5.62,.65-6.64s-.04-5.54-.49-6.87Z"/><path class="cls-2" d="M81.69,44.94l1.9-2.01s1.21-2.89,1.21-3.8-.23-3.27-.23-3.27c0,0-.22-5.51-.61-5.68-.53,.13-2.17,1.69-2.55,2.03-.38,.34-4.37,4.4-4.56,4.75,.57,.08,5.2-3,5.2-3,0,0,.49,3,.42,4.37-.08,1.37,.3,3.99-.8,6.61Z"/><path class="cls-2" d="M96.43,61.68s-.57-.83,.12-1.96c.57-.63,.89-.63,.89-.63,0,0,.83-1.49,.54-2.2-.45-.66-.63-1.28-.51-2.02,.12-.74,1.13-2.95,1.79-3.84,.65-.89,1.91-2.41,2.65-2.41s1.25,1.82,1.37,2.59c.12,.77,.06,.83,.06,.83,0,0-1.31-1.31-1.88-.27-.24,1.07-1.96,3.66-2.38,3.96,.06,.6,.3,2.56,.06,3.16-.24,.6-1.4,2.8-2.71,2.8Z"/><path class="cls-2" d="M17.02,60.34s6.09,1.41,7.51,.47c-.09-1.38-.32-4.12-.12-4.39,.15,.24,2.27,3.39,2.5,3.62,.24,.24,4.27,2.33,5.71,2.47,.35,.97,.68,3.44,.94,3.71-.18,.03-3.03-.12-6.45-2.8-1.15,.32-4.77,1.09-6.24,.56-1.47-.53-3-1.62-3.86-3.65Z"/><path class="cls-2" d="M11.43,61.87l-2.36,1.83-2.65-.56-3.65,.53-2.24-.85,1.83,1.91c.29,0,1.53,.15,1.53,.15,0,0,.65,.88,.82,1.12,.24,.24,2.38,1.47,3.06,1.88,.53-.09,3.24-.59,4.27-.59,.53-.68,2.15-2.94,2.5-2.94-.41-.44-1.71-1.15-3.12-2.47Z"/><path class="cls-28" d="M12.02,62.27l2.16-.19-.11-2.22,2.16,2.05s.77-.71,.77-1.21c.25,.44,1.37,1.75,1.67,1.92s1.73,1.45,2.33,1.45-.16,.55-.58,.66c-.41,.11-1.48-.03-2.14-.52-.66,.08-.82-.03-1.04,.41-.22,.44-.63,.47-.74,.41-.11-.05-2.85-.96-4.49-2.77Z"/><path class="cls-28" d="M33.25,55.69s6.19,6.22,7.73,6.27c.3,1.23,.27,2.22,.27,2.22,0,0,.11,4.49,.47,5.12,.36,.63,1.23,6.22,1.56,6.77-.66-.25-5.97-4.63-7.32-5.48-1.21-2.16-2.93-5.67-3.12-8.16-.19-2.52,.27-6.38,.41-6.74Z"/><path class="cls-12" d="M35.18,46.29s2.3-.6,2.87-1.22c.12,.78-.43,2.25-.43,2.25l-2.22-.1-.21-.93Z"/><path class="cls-12" d="M48.77,62.58s3.13,2.44,3.52,2.87c.39,.43,1.97,3.95,2.44,4.46,.47,.51,4.76,6.13,5.32,6.52,.56,.56,1.5,1.42,1.5,1.42,0,0,2.06,3.86,7.03,5.88,4.46,1.67,8.88,2.1,14.15,2.1s11.75-1.72,13.6-2.87c1.84-1.16,3.99-3.77,4.07-4.25,.09-.47,.26-1.89,.26-1.89,0,0,1.2-2.06,1.37-1.97,.17,.09,.34,2.49-.04,3.82,0,0-1.11,1.41-2.74,2.79-1.64,1.39-1.95,2.02-2.93,2.52-.98,.5-3.53,1.7-6.96,2.36-3.43,.66-7.66,.57-9.61,.47-1.95-.09-8.89-1.42-10.97-2.08-2.08-.66-6.71-3.53-8.35-4.51-1.64-.98-3.06-2.46-3.84-3.28-.79-.82-3.94-5.96-3.94-5.96l-3.03-6.3-.84-2.11Z"/><path class="cls-6" d="M100.99,76.13s-2.05-3.71-6.06-2.64c-4.01,1.07-4.84,1.9-5.71,2.47-.86,.56-4.73,3.92-4.34,6,.77,1.46,1.31,2.11,1.49,2.11s3.6-.68,4.31-.98c.71-.3,8.53-2.47,10.31-6.95Z"/><path class="cls-29" d="M78.24,75.35l-5.03,3.83,7.31-1.14,4.8-3.05,2.52-1.98,2.15-3.56s-7.68,4.33-8.82,4.73c-1.14,.4-2.92,1.17-2.92,1.17Z"/><path class="cls-29" d="M109.39,39.76s.13-.64,3.61-.52c1.08,1.85,3.1,5.42,3.4,7.09,.34,1.68,.77,7.35,.77,7.95s-.82,3.22-1.63,4.39c-1.07,.9-3.44,2.32-3.44,2.32l2.15-5.76-.6-3.31-4.69,4.17s.3-5.68-.39-7.09c-.52-1.85-1.38-4.39-1.38-4.39,0,0,2.49-.17,4.51,1.2,2.02,1.38,3.18,2.02,3.18,2.02,0,0-2.15-5.46-3.83-7.22-.95-.73-1.68-.86-1.68-.86Z"/><path class="cls-29" d="M131.96,51.59s.39,1.55,.56,1.59c.17,.04,2.41-.86,2.71-1.16,.43,.04,.17,1.03,.34,1.25,.17,.22,2.36,.22,2.92-.21,0,0,1.03-4.13,1.2-5.46,.17-1.33-.21-3.05-.82-4.17-.6-1.12-1.68-2.79-1.68-2.79,0,0-1.16,.22-1.44,.38-.49-.26-1.3-.86-4.24-.35-.86-.44-1.48-.97-1.48-.97,0,0-1.67,.7-1.69,1.04,.35,.35,1.41,1,1.85,1.55s1.9,2.29,2.06,3.62c.16,1.32,.66,3.87-.31,5.69Z"/><path class="cls-2" d="M116.66,56.11s4.52-1.26,6.51-4.96c1.23,.89,5.09,2.65,8.69,1.1-.11,.81-1.21,3.39-1.52,3.39s-3.7,.42-4.88,.95c-1.18-.24-3.57-.79-3.57-.79,0,0-1.08,1.42-2.49,2.52-1.42,1.1-5.28,3.62-5.67,3.6,.21-.53,.84-1.23,.84-1.23,0,0,1.79-3.49,2.1-4.57Z"/><path class="cls-2" d="M138.48,53.24s2.69,1.76,3.14,1.76,4.66-3.49,7.73-1.1c-.97,.69-1.17,1.24-2.76,1.24,.1,.73,.14,1.52,0,1.83-.14,.31-1.04,1.1-1.42,.9-.38-.21-2-1.21-4.35-.83-1.38,.35-1.55,.31-2.07,0-.52-.31-1.38-1.66-1.38-1.66,0,0,.86-1.79,1.1-2.14Z"/><path class="cls-14" d="M63.12,75.6s3.73,4.69,4.13,4.97c-.8-.44-6.33-3.08-7.45-4.25s-3.69-4.33-3.69-4.33c0,0-3.65-5.97-3.65-6.37,.76,.04,1.4,.48,1.88,.28,.48,.08,.76,.24,.76,.24,0,0,.88,2.76,1.88,3.93,1,1.16,4.17,4.45,6.13,5.53Z"/><path class="cls-5" d="M63.8,84.22s3.32,1.4,3.81,1.44c.48,.04,5.25,.68,5.73,1.56-1.32,.4-6.01,1.24-6.01,1.24,0,0-2.56-1.88-3.53-4.25Z"/><path class="cls-14" d="M102.98,69.11s2.44-1.28,2.92-1.72c-.04,.52-.92,2.76-1.16,3.08-.24,.36-1.84,2.44-1.84,2.44,0,0-.04-1.84,.08-3.81Z"/><path class="cls-14" d="M87.03,90.97l-3.62,3.07,7.46-1.4-7.28,7.31s-1.96-4.03-2.29-4.51c-.33-.48-1.63-2.25-1.96-2.55-.33-.3,.22-.11,.33-.15,.11-.04,6.02-1.26,7.35-1.77Z"/><path class="cls-14" d="M100.73,98.94c.04-.16,.41,3.73,.41,3.73l-5.35,3.1,3.91-3.91s.85-2.22,1.03-2.92Z"/><path class="cls-14" d="M79.13,102.3l-4.43,2.11s-5.8-4.76-6.46-4.87c.48-1.48,2.92-5.54,3.91-5.98,.44,.3,.33,.63,.52,.63s.81,1.33,3.25,0c.89,.59,1.4,1.92,1.62,2.4,.22,.48,1.55,4.32,1.59,5.72Z"/><path class="cls-14" d="M62.88,98.65s3.36-4.95,5.32-5.95c.22-.3-.15-.33-.41-.41-.26-.07-4.99-1.29-5.72-1.85-.74-.55-3.69-3.55-3.69-3.55,0,0-4.14-1-5.28-1,0,0-3.36,2.7-4.1,3.29,0,0-.44,.48-.81,.48-.48,.07-2.62,.96-2.62,.96-.11,.11-.81,2.14-.92,2.73-.37,.33-3.4,1.92-4.54,3.4-1.14,1.48-2.33,4.03-2.51,5.1-.52,.85-1.77,2.33-2.18,2.81-.41,.48-3.77,5.98-4.03,7.02-.26,1.07,.48,8.97,.81,9.75,.33,.78,3.84,3.95,6.17,7.68,1.74,.59,10.56,1.51,11.04,1.55,.55-.15,1.59-1.22,1.59-1.22,0,0,8.9-2.33,9.64-3.06-.63,0-4.54,.55-4.54,.55l1.88-1.96s-9.08,3.47-11.15,4.14c-2.29-.41-5.76-2.84-5.91-3.14-.26-.52-4.91-11.52-4.91-11.52,0,0,3.62-10.38,7.09-13.37,3.43-2.84,12.08-2.77,13.7-2.44-.66-.85-3.43-2.22-8.2-1.88,.7-.85,2.77-2.92,3.03-3.07,.26-.15,9.27,.52,11.26,4.95Z"/><path class="cls-14" d="M66.86,101.85s3.76,6.04,4.38,6.39c.85,.16,8.37-.23,8.71-.27,.19,.81,.58,4.45,.58,4.45l-2.56,3.25s2.44,12.51,4.26,14.76c1.63,1.7,8.48,5.03,9.14,6.93-1.32,.12-8.68-1.47-10.61-1.86-.46,.31-.77,.66-.77,.66l-4.61-3.8s.39,7.78,1.51,9.33c1.12,1.55,8.79,4.69,8.79,4.69l3.83-3.6s5-4.88,5.93-5.15c.04,.5-.31,1.32-.31,1.32l-3.52,6.2-6.08,2.09-2.13,1.78s-7.59-3.41-9.61-5.19c-.74-1.7-3.49-7.75-4.11-8.33,0-1.43,2.01-7.28,1.98-7.9-.04-.62-.19-2.9-.19-2.9l1.01-1.2s-1.59-7.4-2.36-8.83l-.54-.7-.74,.08s-2.32,2.59-3.29,4.3c-.77,.19-2.44,.04-2.44,.04l1.32-1.94-2.25,.12s5.07-3.68,5.42-3.87c-.19-.89-.89-8.02-1.55-9.22,.66-1.16,.81-1.63,.81-1.63Z"/><path class="cls-29" d="M61.08,101.55s3.77-3.01,4.14-3.01c-.18,.6-1.05,3.04-1.13,3.04s1.26,3.43,1.26,3.43c0,0-1.44,4.09-1.7,4.98-.26,.89-1.91,8.04-1.94,9.3-.81-.71-1.18-1.57-1.6-1.91-.42-.34-2.62-2.7-4.53-2.41-1.94,.29-2.51,.47-2.51,.47,0,0,1.52-3.48,1.91-4.19,.39-.71,5.26-8.8,6.1-9.69Z"/><path class="cls-29" d="M83.13,98.94s-3.49,5.75-3.49,6,1.4,9.87,1.49,10.77c.08,.89,.89,7.7,.89,7.7,0,0,2.67-2.63,3.48-2.88,.8-.25,2.33-.03,4.07,1.36,1.73,1.38,2.33,2.41,2.74,2.46-.1-.68-.78-4.97-1.41-6.55-.63-1.58-3.51-9.21-4.04-9.89,0,0-3.38-8.19-3.72-8.97Z"/><path class="cls-29" d="M88.13,89.23s1.88-2.06,2.08-2.26c.25-.25,2.51-.8,2.89-.95,.38-.15,2.66-.5,3.59-2.23,.53-.55,1.53-1.53,1.63-1.48,.1,.05-.15,.9-.28,1.15-.13,.25-1.13,1.86-2.46,3.04-1.51,.98-2.18,1.15-2.58,1.36-.4,.2-1.93,1.23-1.93,1.23,0,0-2.59,.33-2.94,.15Z"/><path class="cls-23" d="M47.69,139.46s1.78-7.07,5.61-10.45c2.47-.78,3.99-1.43,4.15-1.43s-.78,1.95-1.23,2.63c-.45,.68-3.31,6.23-8.53,9.25Z"/><path class="cls-23" d="M79.61,147.35l-3.35,.19s-1.69,4.65-1.5,5.77c.67,.7,3.31,1.34,5.13,.96,1.82-.38,2.9-1.08,2.9-1.08,0,0,3-2.23,3.47-2.9,.48-.67,2.23-3.22,2.2-4.01-1.05,.35-3.09,.96-3.09,.96,0,0-1.56,1.27-1.82,1.66-.54-.03-3.95-1.53-3.95-1.53Z"/><path class="cls-23" d="M74.81,154.64s2.38,1,3.62,.96c1.24-.03,3.17-.69,4.58-2,.1,.1,0,.03,.03,.89,.03,.86-1.24,4.89-1.82,6.3-.55,1.41-2.81,5.32-3.98,6.7-1.17,.86-3.29,.78-3.53,.19-.21-.59-.59-8.16,1.1-13.05Z"/><path class="cls-22" d="M47.06,141.68s.66-1.7,.63-2.22c-.53,.04-2.44,.79-3.1,.85-.62,.09,.91,1.62,.91,1.62,0,0,1.09-.03,1.56-.25Z"/><path class="cls-7" d="M58.94,127.29s-1.03,2.34-2.04,4.01c-1.01,1.67-2.78,4.04-3.84,5.22-1.06,1.18-4.48,4.6-6.11,4.88-.69-.62-.2-1.65-.02-1.75,.17-.1,2.24-.89,3.64-2.19,1.4-1.31,2.98-3.03,3.47-3.79,.49-.76,2.07-3.32,2.17-3.57,.1-.25,1.28-2.27,1.28-2.27,0,0,1.26-.86,1.45-.54Z"/><path class="cls-22" d="M74.02,169.69s-.24-1.36-.11-1.85c-.31-.73-1.61-2.2-2.44-4.54-.84-2.34-1.64-6.25-1.68-7.82,0,0-.09-4.81,.14-5.87,0,0,.33-2.51,.39-2.81,0,0-.56,.77-.85,1.56-.29,.79-.65,2.4-.65,3.16s-.05,2.99-.05,3.92,.2,4.01,.45,4.9c.26,.89,1.45,4.64,1.89,5.6,.44,.95,2.13,3.45,2.89,3.76Z"/><path class="cls-7" d="M76.78,167.97s-1.87,1.73-2.57,1.75c-.5-.33-.64-.4-.71-.62-.07-.23-.12-1.39,.24-1.32,.36,.07,1.65,.62,2.72,.03,.26-.05,.31,.16,.31,.16Z"/><polygon class="cls-10" points="103 102.58 113.79 113.9 111.96 115.52 109.86 114.37 107.5 116.1 102.84 111.02 102.58 104.52 103 102.58"/><path class="cls-15" d="M113.99,113.71s.15,1.34,.42,1.57c.27,.23,3.99,3.45,3.99,3.45,0,0-6.71,.08-7.21,.08s-1.92-.5-2.95-1.8c-1-1-.73-.91-.73-.91l2.19-1.78,2.15,1.19,2.15-1.8Z"/></g><g><path class="cls-26" d="M33.12,10.15s1.37-2.78,11.27,.32c5.15,1.96,8.17,5.98,9.53,6.52,.32,.5,.09,.5,.09,.5,0,0-2.37-1.64-3.79-2.96-1.41-1.32-9.03-6.52-17.11-4.38Z"/><path class="cls-26" d="M35,1.64s11.6-3.06,19.37-.83c5.42,1.59,9.81,9.69,11.47,11.02,0,0,8.23-5.11,17.1-5.49,0,0,2.98-.08,3.62,.11,.79,.23,5.43,5.06,5.85,5.43,.11-.83-.38-6.38-4.34-10.72,.79-.49,8.64,5.21,10.08,9.47,.15,3.17,.15,5.36,.15,5.36,0,0,9.47-2.6,13.36-.23-2.68,.53-8.57,1.96-9.25,3.28,2.08-.49,6.42-.64,9.25,.79-1.81,.23-6.72,.19-8.87,1.85,1.25,.45,6.11,2.3,6.57,2.98,.15,.72-.53,6.11-1.62,8.26,0,0,3.51-1.51,5.32-1.43,1.89,.3,8.57,4.3,9.32,5.62-1.36-.3-9.62-2.08-14.08,2.19,.64,.08,2.42,.53,3.02,1.32s4,6.53,4.04,7.92c-.94-.87-4.53-3.13-4.53-3.13,0,0-4.49-.98-5.06-.72-.68,.94-1.92,3.4-1.92,3.4l-.34-.26s1.7-3.32,2.15-3.55c.3-.08,3.32,.11,5.4,.79,1.32,.79,3.81,2.72,3.81,2.72,0,0-2.83-6.08-4.08-7.09-1.25-.68-2.6-1.17-3.06-1.17,.45-.79,4.68-5.02,13.47-3.02-1.28-1.06-6.68-4.34-8.08-4.53-1.51,.15-5.89,1.59-5.89,1.59,0,0,1.96-6.83,1.7-8.45-.49-.57-6.57-3.17-7.06-3.17,.11-.6,2.98-2.34,8.04-2.3-1.28-.53-3.21-.83-8.34-.19,0,0,.19-2.15,8.38-3.77,0,0-1.51-1.66-11.92,.79-.04-1.28,0-5.36-.79-6.64-.79-1.28-2.68-4.6-7.96-7.81,.94,1.17,4.34,6.75,3.36,10.42,0,0-5.7-5.06-6.23-5.51-.98,0-4.68-.79-11.58,1.51-6.11,2.04-9.17,4.11-9.17,4.11,0,0-5.7-8.53-10.41-10.87-4.19-1.4-10.3-1.85-18.42,0,1.55,.45,5.28-.38,12.79,7.13,3.55,4.11,5.02,8.15,5.36,9.51,0,0-7.21-2.11-12.94-.83-4.08,1.17-6.94,4.42-10.08,7.77-3.13,3.36-8,9.47-9.62,14.53,.98-1.21,8.57-9.47,22.6-2.87-.57,1.13-4.6,3.85-5.06,4.49-.49,.98-2.3,6.79-2.79,10.64,.68-1.43,4.72-6.19,9.4-7.06,.83,1.43,1.28,3.28,1.28,3.28l-.45,.08-1.02-2.68s-4.87,.49-9.77,8.11c-.11-2.64,1.62-10.49,2.68-12.57,1.02-1.21,4.98-4.04,4.98-4.04,0,0-5.96-2.57-11.09-2-4.57,.68-8.42,2.49-11.7,6.04,.3-2.49,3.77-8.87,6.91-12.53,3.09-3.66,7.66-9.02,10.91-10.76,3.09-1.55,9.62-2.15,14.91-.15-1.09-2.38-3.24-8.91-10.15-12.94-3.36-2.11-8.31-2.89-8.96-3.24Z"/><path class="cls-26" d="M105.87,10s-5.64,1.74-7.64,6.23c-.11-.37-.11-.89-.11-.89,0,0,2.23-4.56,7.75-5.34Z"/><path class="cls-26" d="M121.26,39.91s-5.75-2.8-11.69-1.72c-.49,.25-.69,.34-.69,.34,0,0,3.34-1.03,12.38,1.38Z"/><path class="cls-26" d="M31.17,25.68s-5.8-5.61-7.68-8.87c-1.23-2.11-1.42-2.19-2.19-4.23l-.15,.77s1.92,3.92,4.26,6.76c2.34,2.84,5.49,5.92,5.49,5.92l.27-.35Z"/><path class="cls-26" d="M26.94,30.83s-4.69-4.49-6.65-6.26c-1.96-1.77-4.84-3.5-6.15-3.73-.58,.12-.77,.12-.77,.12,0,0,3.84,1.34,7.03,4.26,3.19,2.92,6.22,5.95,6.22,5.95l.31-.35Z"/><path class="cls-26" d="M25.13,29.41s3.92-1.77,4.65-4.88c-.46-.46-.35-.31-.35-.31,0,0-.5,2.61-4.72,4.84l.42,.35Z"/><path class="cls-26" d="M23.29,27.6s2.8-1.46,3.8-3.07c.61-1.04,.92-1.92,.92-1.92l-.35-.27s-1.11,2.88-2.5,3.57c1.04-1.42,2.07-3.27,2.11-3.92-.23-.38-.42-.54-.42-.54,0,0-.12,2.61-3.88,5.88,.08,.12,.31,.27,.31,.27Z"/><path class="cls-26" d="M21.72,26.1s2.96-2.73,3.03-7.18c-.23-.31-.31-.46-.31-.46,0,0,.08,3.42-3.03,7.3,.19,.12,.31,.35,.31,.35Z"/><path class="cls-26" d="M20.14,24.76s1.04-.84,1.08-1.34c-.46,.23-1.11,1-1.46,1,.35,.19,.38,.35,.38,.35Z"/><path class="cls-26" d="M19.07,23.76s3.96-2.77,4.57-6.41l-.15-.27s-.69,3-4.72,6.45c.31,.12,.31,.23,.31,.23Z"/><path class="cls-26" d="M17.53,22.76s3.3-.77,5.84-5.99l-.27-.35s-1.65,4.11-5.88,6.03c.31,.12,.31,.31,.31,.31Z"/><path class="cls-26" d="M16.57,22.03s3.88-2.38,5.19-7.87l-.15-.31s-1.42,5.26-5.45,7.95l.42,.23Z"/><path class="cls-26" d="M18.84,11.05s-1.58-2.53-5.11-1.42c-2.92,1.11-5.11,5.42-2.07,8.37,.38,.08,.38-.04,.38-.04,0,0-2.23-2.07-.92-5.49,1.31-2.77,5.34-3.84,7.91-.81-.08-.38-.19-.61-.19-.61Z"/><path class="cls-26" d="M12.07,14.39s-1.29,.62-1.34,1.54c-.15-.54-.24-.69-.24-.69,0,0,.61-.96,1.57-.85Z"/><path class="cls-26" d="M12.25,14.97s-1.44,.85-1.44,1.51c.21,.23,.27,.43,.27,.43,0,0,.46-1.33,1.17-1.94Z"/><path class="cls-26" d="M12.52,16.13s-1.19,.78-1.14,1.14c.09,.16,.23,.3,.23,.3,0,0,.43-.85,.91-1.44Z"/><path class="cls-26" d="M21.39,11.97c-.53-1.67-2.61-1.58-2.63-1.01,.55,2.54-2.13,5.01-3.36,6.13-1.23,1.12-4.02,.69-4.02,.69-.39,1.92,.21,2.9,1.46,3.25,1.6,.41,4.59-1.69,6.1-3.27,1.51-1.58,2.86-4.16,2.45-5.78Zm-3.2,5.85c-1.69,1.65-4.89,3.54-6.01,2.1-.71-.89-.43-1.65-.43-1.65,0,0,3.02,.62,5.53-2.33,2.1-2.56,2.22-3.75,1.85-4.87,.32-.39,1.92,.02,1.94,1.62-.14,1.33-1.19,3.47-2.88,5.12Z"/><path class="cls-26" d="M13.57,18.69s-.05,1.39,.48,1.78c-.23,.18-.41,.11-.41,.11,0,0-.55-1.39-.07-1.9Z"/><path class="cls-26" d="M14.26,19.17s.16,1.05,.32,1.17c-.16,.11-.34,.14-.34,.14,0,0-.16-.98,.02-1.3Z"/><path class="cls-26" d="M13.18,20.66s-.53-1.26-.46-1.74c-.27,.11-.02,1.46,.09,1.62,.18,.11,.37,.11,.37,.11Z"/><path class="cls-26" d="M19.79,12.8s1.37-.23,1.46,0c-.05,.34-.21,.75-.21,.75,0,0-.3-.59-1.26-.75Z"/><path class="cls-26" d="M19.49,13.8s.73,1.23,.91,1.23c.21-.07,.21-.34,.21-.34,0,0-.27-.43-1.12-.89Z"/><path class="cls-26" d="M30.59,35.31s2.22,1.98,2.22,4.33l.33-.16s.29-1.61-1.9-4.16c-.21,.04-.66,0-.66,0Z"/><path class="cls-26" d="M31.87,36.46s1.52-.49,1.94-1.44h.33s-.49,1.36-2.1,1.69c-.04-.12-.17-.25-.17-.25Z"/><path class="cls-26" d="M32.76,38.13s2.56-1.66,3.35-3.03c-.24-.16-.42-.13-.42-.13,0,0-2,2.08-3.06,2.72,.08,.21,.13,.45,.13,.45Z"/><path class="cls-26" d="M38.09,35.28s-2.27,2.58-5.04,4.4c-2.24,1.4-4.38,3.38-5.35,3.27-.66-.26,.61-1.79,1.37-2.48-.24,.55-1.11,1.85-.87,1.87,.24,.03,4.25-2.74,5.25-3.51,0,0,3.59-2.64,4.19-3.69,.4,.05,.45,.13,.45,.13Z"/><path class="cls-26" d="M31.99,36.81s-4.69,4.43-5.3,6.22c-.11,.82,2.03,2.53,5.64,3.14,3.27,.37,5.33-1.03,5.91-1.53-.11,.53-.13,.87-.13,.87,0,0-4.98,2.82-10.18-.34-1.85-1.45-1.74-1.87-1.61-2.35,.13-.47,3.72-5.14,5.43-6.36,.24,.11,.24,.34,.24,.34Z"/><path class="cls-26" d="M27.41,46.81s5.69-8.77,16.49-9.17c.54-.61,.54-.48,.54-.48,0,0-4.96-.51-10.92,3.24,0,0-4.51,2.78-6.11,6.41Z"/><path class="cls-26" d="M34.31,42.18s1.85,2.33,4.05,2.42l-.18,.36s-3.06-.45-3.87-2.78Z"/><path class="cls-26" d="M32.89,42.73s2.51,2.15,4.81,2.48c-.21,.27-.36,.21-.36,.21,0,0-2.87-.48-4.45-2.69Z"/><path class="cls-26" d="M31.74,42.91s3.39,2.42,5.39,2.66c-.39,.24-.51,.18-.51,.18,0,0-3.75-1.09-4.87-2.84Z"/><path class="cls-26" d="M41.51,47.87s2.54,.91,3.09,.85l-.3,.45s-2.78-.64-3.18-1.03c.12-.12,.39-.27,.39-.27Z"/><path class="cls-26" d="M35.37,47.02s2.06,.24,2.3,0c0,.24-.15,.45-.15,.45,0,0-1.82,0-2.21-.12l.06-.33Z"/><path class="cls-26" d="M35.31,46.21s.36,.79,.24,1.36c-.3,.73-1.24,4.21-1.85,6.93-.6,2.72-.73,6.41-.51,8.8,.21,2.39,2.42,6.29,2.81,7.02,.45,.54,6.54,4.66,7.23,5.63,.24,.42,0,.45,0,.45,0,0-6.02-4.51-7.26-5.36-1.09-1.48-2.84-4.45-3.33-7.9-.42-3.24,.54-8.89,1.21-11.44,.67-2.54,1.15-3.9,1.24-4.24,.09-.33-.15-1.18-.15-1.18,.27-.03,.42-.09,.42-.09"/><path class="cls-26" d="M46.54,49.05s-.97-.51-1.39-.3c-.42,.21-3.27,4.24-3.75,10.01-.48,5.78,1.15,16.03,2.6,18.27,.67,.88,4.18,2.27,4.18,2.27l.39,.85s-4.54-1.91-5.05-2.69c-.48-.85-1.27-4.33-1.75-6.41-.48-2.09-1.15-8.83-1.06-10.71,.09-1.88,1.21-9.32,4.02-11.83,.79-.67,1.97,.24,1.97,.24l-.15,.3Z"/><path class="cls-26" d="M30.51,44.58s-.2,1.22-.16,1.38c.2,.08,.31,.12,.31,.12,0,0-.04-.9-.16-1.49Z"/><path class="cls-26" d="M31.17,44.54s-.28,1.53-.04,1.73c.12,.04,.24,.04,.24,.04,0,0-.2-1.34-.2-1.77Z"/><path class="cls-26" d="M31.92,44.66s-.31,1.34-.2,1.61l.2,.04s.12-1.22,0-1.65Z"/><path class="cls-26" d="M35.15,48.04s-3.34-.08-5.43,.28c-1.89,.35-2.48-.2-3.42-.2s-5.23,.32-5.54,.47c-.31,.16-.47,.27-.47,.27,0,0,5.54-.43,6.21-.16,.67,.28,2.79,.2,3.89-.08,.98-.16,4.21-.31,4.68-.12,.08-.16,.08-.47,.08-.47Z"/><path class="cls-26" d="M33.85,66.68s-6.65-1.02-7.04-3.97c.35,.16,1.49,2.32,6.84,3.46,.16,.2,.2,.51,.2,.51Z"/><path class="cls-26" d="M27.48,63.49s-3.15,1.06-5.98,.9c-2.83-.16-5.66-4.05-5.86-7.59-.12-3.22,1.53-7.08,4.68-8.46-.39-.31-.79-1.1-4.56,2.08,0,0,1.61-2.32,3.77-3.19,1.06,.08,1.65,1.18,1.65,1.49-.59,.24-3.34,.2-4.88,5.9-.55,3.34,1.1,6.96,3.34,8.49,1.85,.94,3.54,.98,7.55,.08,.2,.2,.28,.28,.28,.28Z"/><path class="cls-26" d="M25.2,57.59l1.26,4.64-2.32-3.07,1.49,1.26s-.59-2.28-.43-2.83Z"/><path class="cls-26" d="M18.67,48s-2.01,.28-3.66,1.38c-1.22-.75-3.34-.51-5.07,3.34-1.73,3.81,0,7.67,1.38,9.28s4.4,3.3,5.62,3.19c.59-.28,.24-1.02,1.65-.83-.35-.31-.47-.43-.47-.43,0,0-1.18,.16-1.49,.87-.79-.04-4.01-1.69-5.82-4.33-1.38-2.63-1.34-5.82-.31-7.71s2.52-4.09,4.4-2.99c.9-.35,2.4-1.18,3.19-1.3,.47-.28,.59-.47,.59-.47Z"/><path class="cls-26" d="M14.07,59.87s4.48,3.97,5.07,4.52c.59,.55,2.16-.28,2.16-.28l.28,.04s-1.26,1.38-2.4,.87c-1.14-.51-3.93-3.78-5.11-5.15Z"/><path class="cls-26" d="M14.82,64.32s-2.44,2.79-2.6,3.15c-.2,.04-2.67,.04-4.09,.83-1.42-.51-1.81-1.3-3.07-1.81-.79-.51-1.38-1.53-1.38-1.53l.35-.08s.83,1.14,1.1,1.14,2.16,1.26,2.71,1.69c.55-.12,2.95-.71,4.09-.59,.35-.79,2.16-2.83,2.44-2.99,.28,.04,.43,.2,.43,.2Z"/><path class="cls-26" d="M8.17,65.85s-.9-1.42-5.58-1.3c-1.14-.98-2.12-2.08-2.12-2.08,0,0-.04-1.18,1.26-2.87,0-.94-.31-1.73-.2-2.24,.2-.28,2.16-2.16,2.16-2.16,0,0,.04-.9,.24-1.18,0,0,2.2-1.49,2.71-2.05,.59-.55,3.78-1.45,4.64-1.22,.28-.24,.47-.55,.47-.55,0,0-2.87-.24-5.78,1.73-1.02,.87-1.3,1.02-1.85,1.3-.55,.27-.79,.83-.87,1.65-.43,.63-2.08,2.05-2.08,2.05,0,0-.39,.31,.04,2.44-.55,.83-1.38,2.91-1.18,3.26,.2,.35,2.12,2.24,2.44,2.4,.31,.16,3.42-.35,5.7,.83Z"/><path class="cls-26" d="M37.11,65.3s-1.97-4.84-1.97-5.07c.28-.12,4.68,6.25,7.16,12.31,.12,.59,.24,1.1,.24,1.1,0,0-4.44-8.61-5.74-10.58,0,.47,.31,2.24,.31,2.24Z"/><path class="cls-26" d="M51.84,75.52s-3.42-6.52-3.6-13.22c-.43-.46-.53-.57-.53-.57,0,0,.04,8.45,4.13,13.79Z"/><path class="cls-26" d="M45.28,74.17s7.13,11.05,7.66,11.51c.5,.04,7.84,.64,14.76,4.46,2.17-.61,7.27-3.21,9.98-2.25,0,0-2.6-.04-9.73,2.89-2.28-.68-6.27-3.78-15.29-4.46,0,0-5.35-6.59-7.38-12.16Z"/><path class="cls-26" d="M59.43,91.39s-4.14-2.53-5.06-2.82c-1.21-.11-6.38,.36-9.09,2.07-.61,1.57-1.1,2.99-1.1,2.99l.68-.36s.61-2.17,.96-2.46c.36-.29,5.2-1.96,8.48-1.82,2.17,1.07,4.71,2.25,5.13,2.39Z"/><polygon class="cls-26" points="48.92 89.46 53.23 86.15 52.73 85.86 47.96 89.67 48.92 89.46"/><path class="cls-26" d="M60.29,94.56s-3.31-2.53-7.2-3.67c-3.67,.14-8.13,1.57-12.26,4.71-2.64,2.03-3.74,6.09-3.81,6.77,.29-.21,.78-.57,.78-.57,0,0,1.35-4.14,4.06-6.31,2.71-2.1,7.84-4.1,10.94-4.17,2,.5,7.49,3.24,7.49,3.24Z"/><path class="cls-26" d="M56.83,98.73s-2.07-2.25-5.95-1.78c.39,.5,3.1,.25,5.95,1.78Z"/><path class="cls-26" d="M47.03,97.44s-8.16,2.6-10.3,6.13c-2,2.46-3.71,4.85-4.85,8.13,0,0-.36,5.1,.46,9.3,.89,1.21,5.24,6.27,6.31,7.95,.96,.36,10.05,1.5,10.69,1.46,0,0,3.17-2.92,7.24-4.45,0,0-4.95,3.21-6.92,4.85-1.57,0-11.3-1.21-11.3-1.21,0,0-5.13-7.06-6.35-8.02-.68-2.71-1-9.23-.93-10.05,.18-.89,3.24-6.95,7.2-10.34,3.56-2.78,7.81-3.78,8.73-3.74Z"/><path class="cls-26" d="M50.52,129.92s8.46-2.2,10.66-3.36c1.31-1.7,3.94-8.92,8.11-12.47l-1.08,.15s-4.4,5.25-7.45,11.82c-1.58,.85-8.65,2.97-9.19,3.01-.58,.27-1.04,.85-1.04,.85Z"/><path class="cls-26" d="M62.1,119.45s4.75-4.36,5.83-4.36l.23-.54s-4.09,1.04-6.06,4.91Z"/><path class="cls-26" d="M61.91,117.02s3.59-3.01,7.72-2.7c.15,.15,2.32,6.57,2.78,9.5,.46,2.47,.7,3.21,.7,3.21,0,0,.12,1.04,8.92,5.29,0,0-2.2-1.74-7.38-4.67-.77-.77-1.2-.7-1.93-4.64-.73-3.44-2.01-7.96-2.12-8.15,.19,.23,4.79,3.82,6.99,7.18,0,0-.81-3.09-7.11-7.84-.04-.15,3.79-.46,4.94-.12,0,0-.89-.73-3.36-.62,1.08-.54,7.72-2.86,8.27-3.17l.04-.35s-8.27,2.74-10.23,3.63c.19-.77,1.2-2.2,1.89-3.21,.7-1,2.47-4.06,2.63-4.83,.15-.77,1.12-8.34,0-11.43l-.27,.39s.85,4.29-.15,10.7c-1.24,2.66-3.67,6.45-3.98,6.45,.15-1.39,.58-6.8,.62-7.57,.12-.97,2.74-9.19,2.74-9.19l-.39-.23s-2.86,8.81-2.86,9.35c-.15,1.12-.73,9.81-.73,9.81h-.54s.15-6.3-1.93-9.62c.23,1,1.7,5.21,1.51,9.31-1.78,.54-5.37,1.35-6.57,3.01,0,.27-.19,.5-.19,.5Z"/><path class="cls-26" d="M55.92,121.19s4.33-3.28,4.67-3.28l-.35-.42s-3.55,2.05-4.33,3.71Z"/><path class="cls-26" d="M72.34,102.81s1.85-5.79,1.74-7.96c-.19,.04-.35-.04-.35-.04,0,0-1.08,6.22-1.39,7.99Z"/><path class="cls-26" d="M72.61,123.74l-.85,.85s2.16,11.43,2.7,12.78c0,0-2.24-5.64-3.28-12.78,.42-.7,1.27-1.35,1.27-1.35l.15,.5Z"/><path class="cls-26" d="M71.64,126.56s-1.85,7.96-2.28,8.77c.46,.66,3.86,7.18,4.17,8.61,.58,.62,7.94,5.04,9.98,5.25,1.39-.89,8.28-9.01,12.81-11.85,2.47-1.58,2.63-2.86,2.63-2.86l.89-6.26-.73,.85s-.54,5.48-.81,5.79c-.31,.31-2.78,2.2-4.25,3.44-1.47,1.24-7.07,6.26-10.66,10.39-2.32-.81-8.77-4.13-9.31-5.06-.5-1.2-3.67-7.92-4.09-8.3,.23-1.43,1.85-6.68,1.93-7.38,.08-.7-.27-1.39-.27-1.39Z"/><path class="cls-26" d="M86.78,134.67s4.83,1.93,5.37,2.97c0,0-6.76-.5-11.24-2.01-2.66-1.47-5.41-6.3-5.75-7.18,.42,.08,.93,.5,.93,.5,0,0,2.86,5.02,4.48,5.99,1.62,.93,9.5,2.28,10.04,2.05-.58-.5-2.55-1.31-3.82-2.32Z"/><path class="cls-26" d="M95.24,133.28s5.29-5.14,6.06-6.8c0,0,1.51-8.88,1.74-14.45,.27-4.71-.23-8.38-.23-8.38l-.43,1.39s.33,5.61,0,9.44c-.34,3.82-1.57,11.51-1.91,11.94-.34,.42-5.23,6.86-5.23,6.86Z"/><path class="cls-26" d="M100.47,110.61l3.48-9.52s-.72-7.26-1.57-8.07c-.13,.98-.26,1.19-.26,1.19,0,0,1.23,6.12,1.27,6.63-.51,.98-2.93,9.77-2.93,9.77Z"/><path class="cls-26" d="M95.37,106.11s3.95-3.02,4.97-4.76c.85-2.17,2.72-10.11,2.8-12.87-.38-1.57-3.91-6.63-4.38-6.63-.17,.34-.25,.55-.25,.55,0,0,3.7,4.42,3.99,5.52-.04,3.87-2.12,11.85-2.68,13.3-.89,1.1-4.46,4.89-4.46,4.89Z"/><polygon class="cls-26" points="102.89 88.4 119.63 103.99 119.12 104.29 102.84 89.08 102.89 88.4"/><path class="cls-26" d="M102.72,90.39s2.21,2.29,2.63,3.1l-2.68-2.21c-.13-.17,.04-.89,.04-.89Z"/><path class="cls-26" d="M106.24,94.3s2,1.15,4.21,3.82c0,0-2.55-1.32-4.21-3.82Z"/><path class="cls-26" d="M111.21,98.93s2,.72,4.29,3.48c0,0-2.55-1.57-4.29-3.48Z"/><path class="cls-26" d="M115.89,103.01s2.29,1.91,2.34,2.17c-.21,.25-.34,.34-.34,.34,0,0-1.44-1.36-2-2.51Z"/><path class="cls-26" d="M123.02,117.46c0-.21-.72-10.92-.72-10.92l-2.68-2.85s-3.19,2.93-3.82,3.87l1.74,2.29-5.61,5.4-2.08-1.4-2.38,2-4.63-5.27-.09,.93s5.91,6.8,7.31,7.43c1.15,.3,11.09,.21,12.28-.25,.89-.68,.68-1.02,.68-1.23Zm-1.66,.89c-.6,.09-9.64,.26-11,.17-1.06-.72-2.63-2.25-2.63-2.25l2.08-1.74,2.12,1.44,6.25-6.08-1.66-2.42,3.06-3.19,2.29,2.34s.72,9.98,.72,10.49c0,.55-.64,1.15-1.23,1.23Z"/><path class="cls-26" d="M121.11,107.26s.98,4.72,.55,5.78c-.51-1.1-.93-5.35-.55-5.78Z"/><path class="cls-26" d="M121.92,114.14s.3,2.89,0,2.89c0,0-.47-2.21,0-2.89Z"/><path class="cls-26" d="M118.73,104.67c.13,.04,1.66,2,1.66,2l-1.87-1.49,.21-.51Z"/><path class="cls-26" d="M110.45,116.39s-1.53,1.15-1.53,1.36c.17,.21,.38,.34,.38,.34,0,0,1.19-1.4,1.15-1.7Z"/><path class="cls-26" d="M111.04,117.12l-1.27,1.32-.17-.25s.89-1.11,1.44-1.06Z"/><path class="cls-26" d="M111.51,117.75s-.47,1.15-.59,1.1c-.13-.04-.43-.04-.43-.04,0,0,.6-1.1,1.02-1.06Z"/><path class="cls-26" d="M96.22,137.21s-2.72,6.25-4.38,8.03c-1.83,.64-6.12,2.25-7.05,2.55l.68-.76s5.35-2.04,5.86-2.08c.55-.3,4.04-7.22,4.04-7.22l.85-.51Z"/><path class="cls-26" d="M41.98,129.74s.04,9.77,3.41,12.4c1.33,.11,4.96-1.55,9.7-7.62,2.59-3.81,3.92-6,4.22-7.4l-.52,.22s-2.52,5-4.48,7.4c-1.96,2.41-4.85,5.63-8.62,7.03-1.18-1.22-2.96-4.26-3.29-11.92-.3-.11-.41-.11-.41-.11Z"/><path class="cls-26" d="M57.97,127.52c0,.11-2.66,5.37-5.74,8.62-3.22,3.07-5.29,4.37-7.77,4.26l-.22-.3s4.59-.37,8.51-5.07c2.74-3.59,4.4-7.22,4.4-7.22l.81-.3Z"/><path class="cls-26" d="M57.86,86.84s2,2.15,4.37,3.89c2.26,.89,5.66,1.92,6.18,1.92,.33-.11,.33-.26,.33-.26,0,0-5.44-1.52-6.14-1.89-.74-.7-3.74-3.15-3.92-3.66-.26,.07-.81,0-.81,0Z"/><path class="cls-26" d="M70.92,89.51s6.96,1.22,7.51,1.22,10.22-4.15,13.03-4.48c2.55-.44,4.63-1.41,5.03-2.44,.44-.3,.56-.33,.56-.33,0,0,0,1.48-1.7,2.15-1.7,.67-3.15,.89-4.15,1.26-1,.37-6.66,2.18-11.44,4.03l-1.37,.3-8.29-1.44,.81-.26Z"/><path class="cls-26" d="M78.69,90.95s-.3,1.44-.85,1.96c-.56,.52-2.74,2.22-3.07,2.22,.04-.3-.15-.44-.15-.44,0,0,1.33-.81,3-2.44,.59-.85,.63-1.22,.63-1.22l.44-.07Z"/><path class="cls-26" d="M77.03,90.77s-2.55,4.15-3.11,4.4c-.37,0-1.92-.81-1.96-1.74,.15-.93,.33-1.89,.11-3.44h.48s0,3.15,.04,3.63c.04,.48,1.18,.93,1.48,.85,0,0,1.62-2.39,1.39-3.94h.23"/><path class="cls-26" d="M72.22,93.5s-2.55,2.78-5.59,9.36c-2.11,5.18-3.66,9.66-4.44,14.81l-.41,2.11s-3.26-4.11-5-4.55c-1.59-.18-3.66,.63-4.44,.93,.18-1.48,5.11-9.88,6.59-11.99,1.48-2.11,5.89-9.81,9.55-11.88,2.29-1.74,3.44-2.33,3.44-2.33l.44,.18s-3.66,2.59-5.89,4.63c-2.22,2.04-10.73,14.73-12.95,20.32,1.11-.3,4.26-2.04,7.99,3.81,.44-2.18,.67-5.88,2.63-11.44,1.96-5.55,6.4-13.95,8.18-14.62-.07,.44-.11,.67-.11,.67Z"/><path class="cls-26" d="M66.28,97.49s5.08-5.18,6.01-5.55c.16-.36,.07-.96,.07-.96,0,0-4.46,3.2-6.07,6.5Z"/><path class="cls-26" d="M88.2,146.35c-.03,.46-1.82,3.43-3.53,5.12-1.72,1.68-4.56,2.9-7.16,2.64-2.64-.36-5.94-3.4-6.14-5.22-.56-3.73,.83-8.78,.83-8.78,0,0-.13-.26-.2-.26-.76,1.39-1.16,3.6-1.02,5.45-1.25,1.02-2.34,4.13-2.31,4.95,.03,.83-.69,8.12,1.25,13.4,1.95,5.28,4.23,6.27,4.23,6.27,.59,.16,1.45-.13,3.43-2.54,4.42-5.41,5.84-13.01,5.81-14.33,3.93-2.61,5.31-6.9,5.31-6.9,0,0-.13,.03-.49,.2Zm-10.17,8.29c2.87-.07,4.29-1.02,4.29-1.02,0,0-1.16,2.05-5.02,1.72-2.77-.56-5.25-2.38-6.17-5.58,0,0,1.98,4.29,6.9,4.89Zm-3.7,14.76c-.5-.03-1.82-1.02-3.37-4.39-1.55-3.37-1.82-6.8-1.91-9.9-.1-3.1,.07-6.17,.99-7.46,0,0-.66,3.33-.46,6.77,.2,3.43,.89,9.18,3.9,13.3,1.25,.99,1.85,.89,2.81,.33-.13,.43-1.45,1.39-1.95,1.35Zm2.81-2.18c-1.25,.92-2.81,.76-3.04,.56-.23-.2-2.28-3.43-3.5-8.45-1.22-5.02-.46-11.59-.03-12.48,0,1.49-.63,4.95,3.47,7.53,3.9,2.15,6.11,1.62,8.85-.53,0,0-1.19,8.29-5.74,13.37Z"/><path class="cls-26" d="M60.61,87.56s2.08,2.16,2.52,2.44c.44,.28,2.6,.88,2.6,.88,0,0-3.21-1.6-4.01-3.01-.76-.44-1.12-.32-1.12-.32Z"/><path class="cls-26" d="M68.67,90.21s1.88,.6,1.96,.84c-.28,.28-.56,.36-.56,.36,0,0-.36-.44-1.96-1,.24-.12,.56-.2,.56-.2Z"/><path class="cls-26" d="M86.86,89.73s-6.85,2.57-8.86,2.57c.12-.28,.2-.48,.2-.48,0,0,6.65-1.6,8.66-2.08Z"/><path class="cls-26" d="M75.68,94.29s2.32,1.76,3.29,8.7c.96,6.93,2.69,18.43,2.85,20.96,.72-.6,3.05-3.33,4.33-3.33s2.76,.76,6.49,4.69c0,0-.52-5.01-2.52-10.3-2-5.29-5.49-12.98-5.53-13.14-.04-.16-3.13-8.86-6.41-9.82-.16,.24-.16,.32-.16,.32,0,0,2.12,.88,4.45,5.81,2.32,4.93,3.53,8.17,4.09,9.7,.56,1.52,4.85,9.82,5.41,16.07-2.2-2.48-4.85-4.77-7.01-3.53-1.8,1.24-2.72,2.64-2.72,2.64,0,0-1.4-12.02-1.76-14.55-.36-2.52-1.6-12.62-4.33-14.51-.28,.2-.44,.28-.44,.28Z"/><path class="cls-26" d="M77.44,93.05s3.73,5.13,4.01,8.7c0,0-2.08-5.37-4.49-8.42,.36-.32,.48-.28,.48-.28Z"/><path class="cls-26" d="M79.21,92.97s6.01-.92,9.82-2.6l2.6-1.2s1.52,1.24,2.12,5.81c0,0,.76-3.13-1.64-6.25,.32-.36,1.16-.76,1.48-.76s2.12,2.44,2.44,3.29c0,0-.24-2.16-1.92-3.61,.4-.32,4.3-1.8,4.65-5.79-.29,.26-.61,.62-.61,.62,0,0-.88,3.09-3.53,4.09-2.4,.92-3.33,2.16-4.73,2.85-1.4,.68-4.77,2.32-11.1,3.21,0,.12,.4,.36,.4,.36Z"/><path class="cls-26" d="M51.36,50.05s-.82-1.93,2.68-5.49l-1.28,.35,.76-1.4s-2.63,1.23-2.68-1.28c-.06-2.51,4.84-9.69,6.25-10.8-.35,.82-.29,3.74-.29,4.2,.23,.53,2.33,7.24,4.9,9.28,.06-2.33,.12-8.17,1.75-11.56,1.63-3.21,5.19-5.43,6.48-6.01-.58,.93-1.58,6.48-1.58,8.23s.93,8.11,3.56,11.85c.82-1.87,3.74-8.64,4.79-9.98,1.05-1.34,5.72-6.19,7.18-6.94,.29,1.11,.82,7.47,.64,9.34-.35,1.52-2.04,4.84-2.04,4.84,0,0,3.97-3.03,6.71-6.25,2.74-3.21,4.03-7.41,4.2-8.11,.23,.29,.88,8.4,.88,10.04-.41,1.58-1.93,5.72-1.93,5.72,0,0,2.28-1.52,5.31-4.61,0,0,.47,5.25,.41,5.49-.47-.35-2.39-.93-2.39-.93l.93,2.04-1.11,.06,1.81,3.27,.23-.41-1.4-2.39,.88-.23s-.41-.93-.7-1.69c.23,.06,2.1,.93,2.1,.93l-.53-6.95s-4.14,4.03-4.84,4.55c.7-1.28,1.63-4.79,1.63-4.79,0,0-.7-10.91-.99-11.15-.58,.58-2.74,6.24-5.19,9.16-2.68,2.92-4.73,4.79-4.73,4.79l1.28-3.44-.7-10.21s-5.49,4.14-8,7.53c-2.22,3.27-4.44,9.4-4.44,9.4,0,0-3.09-5.31-2.98-12.14,.41-5.14,1.81-7.88,1.81-7.88,0,0-4.44,1.4-7.47,6.07-2.57,4.09-1.93,11.44-1.93,11.44,0,0-1.98-2.39-4.03-8.35-.18-2.63,.23-5.02,.23-5.02,0,0-2.68,1.58-6.24,8.58-1.46,3.33-1.28,5.02,1.17,5.08-.06,.58-.18,1.11-.18,1.11h.53s-2.33,2.1-1.81,4.61c.06,0,.35,.06,.35,.06Z"/><path class="cls-26" d="M66.25,44.51s-2.28-9.22,3.39-17.22l-.58,.17s-5.95,7.35-2.8,17.04Z"/><path class="cls-26" d="M83.93,30.21s-3.5,14.42-4.38,15.52c0,0,3.27-13.07,3.79-15.17,.41-.23,.58-.35,.58-.35Z"/><path class="cls-26" d="M92.92,31.2s0,8.75-4.26,13.37c.35-1.52,3.79-7,3.44-11.61,.41-.88,.82-1.75,.82-1.75Z"/><path class="cls-26" d="M69.69,45.27s-2.51-7.3-5.66-9.16c-1.69-.12-1.93,.18-1.93,.18l-.47,3.09s1.52-.41,1.93-.23c.41,.18,4.03,3.27,6.13,6.13Z"/><path class="cls-26" d="M58.08,37.97s-2.33,2.33-2.45,2.86c.29,.64,2.39,3.21,2.39,3.21,0,0,1.05-2.57,1.46-2.57-.29-.99-1.05-2.28-1.4-3.5Z"/><path class="cls-26" d="M77.34,44.45s2.39-5.02,4.79-6.6l2.39-1.58,.29,2.68s-3.21,.82-7.47,5.49Z"/><path class="cls-26" d="M90.12,36.74s2.22,1.75,2.28,3.5c-.64,1.17-2.04,3.33-2.04,3.33,0,0-1.52-3.85-2.74-3.79,1.05-1.11,2.51-3.04,2.51-3.04Z"/><path class="cls-26" d="M55.1,40.95s1.46,2.04,2.39,3.21c0,0-1.98-1.23-2.39-3.21Z"/><path class="cls-26" d="M54.81,41.82s1.87,2.28,2.57,2.68c0,0-2.16-.76-3.03-2.33,.47,0,1.11,.82,1.11,.82,0,0-.53-.88-.64-1.17Z"/><path class="cls-26" d="M91.46,44.62s1.75-2.68,1.87-3.33c-.12-.7-.64-.93-.64-.93,0,0-1.75,2.63-1.87,3.15,.41-.35,1.69-2.16,1.69-2.16l-1.28,2.51,1.4-1.87s-1.11,2.16-1.17,2.63Z"/><path class="cls-26" d="M52.07,59.91c-.99,.12-.76,.82-.76,.82,0,0,.82-.64,1.23,.17,.41,.82,.29,1.63,.12,1.63s-2.57-1.52-2.33-2.92c.23-1.4,.18-.82,.18-.82,0,0,1.93,.29,1.98-2.16-.06-2.39-2.51-4.9-3.56-6.54-.82-.88-1.52-.47-1.52-.47,0,0-.99,1.11-.23,3.85,0,0,.06-3.39,.47-3.39s1.75,1.17,1.75,1.4c-.35,.23-1.98,1.93-1.11,5.54,0,0-.12-4.73,1.52-4.96,.82,.35,1.11,2.45,.53,3.33,.06,0,.76-.64,.82-1.05,.12,0,.47,.99,.47,1.17-.12,.18-2.22,2.8-1.69,4.73,.53,1.93,2.98,2.8,3.21,2.86,.23-.06,.58-2.22-1.05-3.21Zm-.06-3.5c.23,2.1-1.28,1.75-1.28,1.75,.23-.64,.76-1.98,1.28-1.75Z"/><path class="cls-26" d="M67.12,46.43s-2.1-2.92-5.72-1.11c-3.21,1.87-4.32,5.95-3.74,10.21,.64,3.44,3.15,4.79,5.02,4.44,0,0-4.2-.06-4.79-5.37-.47-4.61,2.98-12.14,9.22-8.17Z"/><path class="cls-26" d="M80.9,46.55s2.39-3.15,6.68-1.52c3.31,1.85,4.45,5.89,3.85,10.1-.66,3.4-3.25,4.73-5.17,4.38,0,0,4.33-.06,4.93-5.31,.48-4.56-2.87-12.14-10.29-7.65Z"/><path class="cls-26" d="M72.43,61.96s-.06-1.05,.12-1.52c.18-.47,1.17-.41,1.34-.18,0,0-.7,.06-.88,.29-.17,.23-.58,1.4-.58,1.4Z"/><path class="cls-26" d="M70.33,65.69s6.77,.7,8.23-.82c0,0,.12,1.17-3.91,1.46-3.33,0-4.03-.18-4.32-.64Z"/><path class="cls-26" d="M70.27,52.24c0,.89-.54,1.61-1.2,1.61s-1.2-.72-1.2-1.61,.54-1.6,1.2-1.6,1.2,.72,1.2,1.6Z"/><path class="cls-26" d="M80.72,51.77c0,.89-.54,1.6-1.2,1.6s-1.2-.72-1.2-1.6,.54-1.61,1.2-1.61,1.2,.72,1.2,1.61Z"/><path class="cls-26" d="M66.31,61.78s-2.68,.18-4.32,.76c.12-.35,.53-.82,.53-.82,0,0-1.87,.64-2.16,.88-.06-.41,.7-.82,.7-.82,0,0-1.05,.29-1.46,.7-.47-.18-.06-.47-.06-.47,0,0-1.4,.41-1.81,.76,0,0,1.23-1.46,3.85-1.87l-.06,.47,1.52-.29v.41s2.92-.23,3.27,.29Z"/><path class="cls-26" d="M91.93,61.49s-2.68,.18-4.32,.76c.12-.35,.53-.82,.53-.82,0,0-1.87,.64-2.16,.88-.06-.41,.7-.82,.7-.82,0,0-1.05,.29-1.46,.7-.47-.18-.06-.47-.06-.47,0,0-1.4,.41-1.81,.76,0,0,1.23-1.46,3.85-1.87l-.06,.47,1.52-.29v.41s2.92-.23,3.27,.29Z"/><path class="cls-26" d="M55.45,66.13s1.66,4.08,3.44,5.67c1.78,1.59,9.11,7.58,15.29,10.07,3.19-1.78,14.78-9.81,15.93-10.96,1.15-1.15,4.42-3.98,4.38-6.39l.44-.15s.04,1.86-.86,3.35c-1.04,1.4-3.98,4.03-7.29,6.56-3.31,2.54-12.5,8.15-12.5,8.15,0,0-6.16-2.4-14.76-9.19-3.76-3.26-4.66-6.93-4.66-7.15,.36-.09,.58,.04,.58,.04Z"/><path class="cls-26" d="M48.51,62.39s1.27,5.04,5.87,11.9c2.99,4.1,3.49,4.43,3.49,4.43,0,0,4.37,3.16,5.98,3.99,1.61,.83,5.92,4.04,19.1,4.32,6.26-.11,7.58-.83,8.64-.94,1.05-.11,4.91-1.85,5.92-2.77,1.01-.91,3.27-2.99,4.43-4.21,.55-1,.66-4.21,.33-4.76-.17,.33-.44,.83-.44,.83,0,0,.66,1.05-.17,3.54-.83,1.27-.94,1.22-1.16,1.33-.22,.11-1.27,.94-1.88,1.61-.61,.66-1.99,1.88-2.44,2.05-.44,.17-2.88,1.88-7.31,2.38-4.43,.5-7.81,.66-12.34,.06-4.54-.66-7.09-1-11.85-3.6-2.93-1.66-4.1-2.44-4.1-2.44l3.16,.94s-3.76-1.49-5.31-2.44c-1.22-1.22-3.49-4.1-6.48-9.24-1.77-4.15-2.71-5.92-2.55-6.31-.22-.39-.89-.66-.89-.66Z"/><path class="cls-26" d="M52.05,65.27s2.1,4.71,3.65,6.53c1.49,1.88,3.65,4.76,4.26,5.2,.61,.44,6.59,3.76,8.97,4.76,0,0,5.54,2.49,15.28,3.38,4.87,.11,5.92-.33,7.31-1.38,0,0,1.23-.2-.68,2.25,.37-.1,.47-.13,.47-.13,0,0,1.41-1.34,.94-2.35-.47-.47-1.24,.17-2.01,.44-.77,.27-2.38,1.01-5.9,.7-2.72-.27-8.08-.91-11.67-2.18-3.59-1.17-8.39-3.62-9.33-4.23-.94-.6-2.35-1.21-3.05-1.95-.7-.74-3.79-4.39-4.23-4.93-.44-.54-3.22-5.4-3.32-5.7-.23-.3-.68-.41-.68-.41Z"/><path class="cls-26" d="M51.39,65.52s-.27,2.55-.1,3.05c-.4-.54-.4-1.14-.4-1.14,0,0,.17-1.85,.5-1.91Z"/><path class="cls-26" d="M50.79,64.71s-.34,1.85-.2,2.15c-.47-.27-.47-1.01-.47-1.01,0,0,.44-1.11,.67-1.14Z"/><path class="cls-26" d="M52.63,68.57s-.17,2.08,.27,2.72c-.3-.07-.77-1.07-.77-1.07,0,0,.23-1.61,.5-1.64Z"/><path class="cls-26" d="M56.29,72.09s.1,3.72,1.17,5.94c.4,.54,.57,.54,.57,.54,0,0-1.31-3.12-1.24-5.77-.37-.6-.5-.7-.5-.7Z"/><path class="cls-26" d="M57.56,73.64c0,.1,.6,4.46,1.71,5.54-.37,0-.64-.27-.64-.27,0,0-1.54-3.19-1.24-5.43l.17,.17Z"/><path class="cls-26" d="M58.87,76.65s1.07,2.89,1.54,3.19c-.27-.1-.57-.3-.57-.3,0,0-1.37-1.91-.97-2.89Z"/><path class="cls-26" d="M67.86,81.05s1.71,3.76,2.42,4.09c-.37-.07-.74-.2-.74-.2,0,0-2.28-3.45-2.08-4.16,.27,.17,.4,.27,.4,.27Z"/><path class="cls-26" d="M67.29,82.26s1.74,2.45,2.08,2.55c-.3,0-.81-.13-.81-.13,0,0-1.38-1.68-1.27-2.42Z"/><path class="cls-26" d="M73.16,84.64s1.07,1.41,1.31,1.41c-.57-.03-.74-.13-.74-.13,0,0-.54-.81-.57-1.27Z"/><path class="cls-26" d="M74.07,83.23c.03,.17,2.78,3.15,3.15,3.22,.4,.07,.37-.03,.37-.03,0,0-2.62-2.82-2.85-2.95-.24-.13-.67-.24-.67-.24Z"/><polygon class="cls-26" points="75.78 83.57 78.6 86.52 79.03 86.55 76.55 83.77 75.78 83.57"/><path class="cls-26" d="M78.73,85.04s2.05,1.51,2.25,1.61c-.34,.1-.7,0-.7,0,0,0-1.01-.74-1.54-1.61Z"/><path class="cls-26" d="M91.34,83.7s-.91,2.42-1.34,2.48c-.44,.07-.87,.07-.87,.07,0,0,1.61-1.68,1.74-2.28,.2-.3,.47-.27,.47-.27Z"/><path class="cls-26" d="M83.93,84.81s8.89-1.31,13.69-4.73c2.82-1.91,3.76-3.79,4.46-5,.7-1.21,1.48-2.78,2.15-3.52,.67-.74,2.38-2.62,6.71-4.86,0,0,.74-.77,1.24-1.44,.5-.67,.97-2.62,2.52-4.53,1.31-1.88,1.91-3.66,2.28-4.76,.37-1.11,.34-2.58-.34-9.09,0,0-.1-2.92-3.69-7.78-2.01-.17-4.39,.47-4.39,.47l.7,.2s2.89-.47,3.42-.37c.54,.6,3.35,5.53,3.62,7.35,.13,1.78,.74,7.98,.57,8.59-.2,.6-1.85,4.19-2.45,4.97-.6,.77-2.08,3.62-2.52,4.39-.44,.77-.57,1.17-1.24,1.58-.67,.4-4.53,2.68-6.27,4.43-1.74,1.74-1.98,3.15-2.75,4.19-.77,1.04-.87,2.11-3.99,4.76-3.12,1.91-6.21,2.89-7.51,3.29-1.31,.4-6.21,1.64-7.01,1.74,.57,.1,.8,.13,.8,.13Z"/><path class="cls-26" d="M103.83,47.6c-1.75-1.93-4.61,.53-6.19,2.63-1.58,2.1-2.92,9.28-3.15,11.44-.23,2.16-.64,3.09-1.98,4.73-4.49,5.43-15.47,9.05-15.47,9.05,0,0-1.69,.88-4.2,.41-2.51-.53-9.34-3.79-12.2-5.54-2.86-1.75-4.03-3.44-4.26-4.14-.23-.7-3.79-13.48-4.14-15-.35-.93-1.11-1.63-1.11-1.63-.29-.17-2.57-2.22-4.32-1.34-1.75,.93-1.75,9.86-.41,12.43,1.23,1.52,4.26,3.79,5.43,4.67,1.17,.88,2.68,1.34,4.03,1.11,2.68,4.67,12.14,8.46,12.14,8.46,1.52,.7,5.43,2.22,8.11,1.46,6.42-1.93,11.85-5.37,14.47-7.12,2.51-1.75,3.91-4.67,3.91-4.67,4.9,1.28,9.51-5.43,10.1-8.29,.82-2.68,.99-6.71-.76-8.64Zm-57.02,12.55c-1.34-4.03-1.05-10.74,.18-11.44,1.4-.41,4.03,.99,4.49,2.22,.47,1.23,4.09,15,4.09,15-2.74,.64-7.35-4.2-8.75-5.78Zm56.58-1.98c-1.74,2.89-3.96,4.53-3.96,4.53-2.95,2.25-4.76,1.31-4.76,1.31-.1-.4,1.01-8.62,2.31-11.37,1.34-2.75,3.49-5.13,5.3-5.2,1.81,.54,2.05,1.81,2.18,3.49,.13,1.68,.54,4.46-1.07,7.25Z"/><path class="cls-26" d="M103.02,49.42c-.94-1.74-1.58-.91-1.85-.7-.27,.2-3.69,3.12-3.86,6.61-.1,1.74,.74,1.81,1.64,1.48,.24,.44,.07,2.55-.44,2.78-.57-.37-1.07-1.01-1.78-.34-.7,.67-1.04,2.35-.3,2.82,.47,.13,2.55-2.11,2.75-2.38,0,0,.6-2.48,0-4.19-.57-.81-1.34-.87-1.34-.87,0,0,.67-2.28,1.04-2.62,.23,.1,.27,1.21,.23,1.51,0,0,.37-.97,.23-2.05,.2-.54,.64-.7,.77-.7,0,0,1.17-.07,1.17,1.31s.2,2.32-.07,2.92c0,0,.77-.87,.47-2.68-.3-1.81-.97-1.88-1.41-1.88,.07-.57,1.31-1.51,1.54-1.51s1.61,.54,1.27,5.6c0,.15,.84-2.82-.1-5.1Zm-6.44,12.08c-.64-.67,.44-2.01,.7-2.15,.27-.13,.91,.3,.94,.64-.03,.34-1.64,1.51-1.64,1.51Zm2.38-5.13c-.34,.3-1.64,.44-1.24-.97,0,0,1.04-.74,1.24,.97Z"/><path class="cls-26" d="M107.31,44.69s1.81,4.03,1.88,6.11c.07,2.08,.2,9.96-1.85,13.92,.44-.7,4.53-7.08,5.94-10.23,0,0-1.34,5.07-5.77,10.74-1.41,2.42-2.68,5.37-2.68,5.37l-.54,.47s2.11-4.96,2.58-6.61c.47-1.64,1.17-3.86,1.48-6.57,.3-2.72,.57-5.84,.2-7.75-.37-1.91-1.54-5.3-1.91-5.53,.3-.07,.67,.1,.67,.1Z"/><path class="cls-26" d="M102.95,73s.07-2.99,.5-4.06c.44-1.07,1.41-6.17,1.48-7.65,0,0-1.34,5.13-1.74,6.21-.13-.74-.03-4.23,.07-4.56,0,0-1.31,8.69-.77,10.87,.27-.64,.47-.81,.47-.81Z"/><path class="cls-26" d="M95.74,69.81s1.31-2.62,1.61-3.05c.34-.5,1.44-2.99,1.44-3.22-.34,.03-.84,.47-.84,.47,0,0-2.18,4.73-2.21,5.8Z"/><path class="cls-26" d="M101.34,75.75s-1.58-3.96-7.31-2.52c-.44-.34-.77-.64-.87-.91-.24,.2-.27,.7-.4,.94-.13,.23-7.78,3.56-8.52,8.35-1.04,.94-1.31,1.01-1.31,1.01,0,0,1.31,.27,1.71,.4,.37,.23,.97,1.17,1.34,1.17s.84-.13,.84-.13c0,0-1.44-1.24-1.38-2.45,.07-1.21,1.81-5.5,8.19-7.15,4.66-.87,5.4-.37,7.25,1.98,.1-.3,.47-.7,.47-.7Z"/><path class="cls-26" d="M98.49,74.91c.03-.2-.37-.57-.77-.44-1.01,.94-3.59,1.64-3.59,1.64,0,0,.1-.64-.37-.87-.57-.03-1.44,.34-1.24,.44,.2,.1,.2,.74,.2,.74-1.48,.7-3.19,.81-3.46,.81s-.7,.34-.84,.97c-.3,2.75-1.27,3.92-1.51,3.92s-.24-.13-.5,.27c0,.4,1.14,1.01,1.14,1.01,0,0,.44-.34,.74-.97,.3-.64,.87-3.59,1.14-4.39,.3-.23,1.27-.27,1.27-.27l-.13,.4s-.37,.34-.6,.34-.47,1.24-.4,1.51c.07,.27-.17,1.11-.3,1.51,.23,.07,1.04,0,1.04,0,0,0-.2,.81-.67,.94-.5,.1-.91-.13-1.17,.17-.24,.4,.44,.91,.44,.91,0,0,1.34-.13,1.64-.47,.3-.34,.94-1.64,.94-1.64,0,0,.27-.03,.57-.1,0,.17-.27,1.27-.27,1.27l.67-.2,.37-1.01,.6,.07s.6-.24,.84-.3c.24-.07,.34,.3,.34,.3l.27-.1,.44-.27s-.13-.37,.13-.57c.13-.24,1.14-.74,1.31-.77,.17,0,.57,.2,.57,.2l.6-.34s-.4-.3-.5-.34c-.1-.03-.1-1.41,0-1.58,.23,.03,.94-.6,.91-.84-.03-.24-.77-.13-.94-.17-.17-.03-.44-.37-.77-.2-.34,.17-.67,.23-.87,.2-.2-.03,0-.1,0-.4,.87-.17,2.72-1.17,2.75-1.38Zm-4.19,3.86s.24-.64,.57-.64,0,.74-.57,.64Zm-2.92,.2c.13-.2,.64-.07,.67,.13,.03,.2-.23,.6-.7,.3,0,0-.1-.24,.03-.44Zm-.67,.87c-.2,.17-.57-.03-.57-.03l-.1-.44s.5-.27,.67-.17c.17,.1,.2,.47,0,.64Zm1.71,.1c-.07,.13-.7,.34-.74,.47-.03,.13,.64-.1,.6,.23-.03,.34-.47,.17-.6,.17s0-.37-.64-.5c0,0,.23-.1,.44-.13,.17-.17,.17-.34,.17-.34,0,0,.84-.03,.77,.1Zm1.41-2.38c-.17,.47-.15,1.26-.15,1.26l-.32-.38s-.64,0-.81,.2c-.23-.13,0-.47,.1-.6-.07-.1-.91-.1-1.07-.1s-.17-.27-.17-.37c0,0,2.75-.94,3.25-.81,.1,.3-.6,.34-.84,.81Zm2.28-.03c.47,0,.37,.47,.17,.6-.2,.13-.4,.1-.57-.03,0,0-.07-.57,.4-.57Zm0,1.34c.07,.3-.34,.4-.23,.44,.1,.03,0,.4-.34,.54-.34,.13-1.64,.74-1.38-.1,.03-.1,.81,.03,.91-.1,.1-.13,.07-.81,.23-.81s.74-.27,.8,.03Z"/><path class="cls-26" d="M81.12,85.72s3.98,.62,5.71,.69c-.97,.31-1.42,.31-1.42,.31,0,0-2.98-.1-4.29-1Z"/><path class="cls-26" d="M94.75,84.68s2.35-3.01,2.98-4.77l.55-.55s-.42,1.28-.66,1.83c.28-.28,1.14-1.21,1.52-2.53l.35-.31s-.04,1.38-1.28,2.94c-1.25,1.56-2.25,2.59-2.25,2.73s-1.11,.66-1.21,.66Z"/><path class="cls-26" d="M98.83,81.57s1.59-2.7,1.45-4.05c.21-.42,.31-.35,.31-.35,0,0,.31,1-.35,2.39-.59,1.25-.87,1.63-.87,1.63l-.55,.38Z"/><path class="cls-26" d="M100.39,80.32s1.04-2.32,.45-3.49l.17-.38s.69,1.45,0,3.46c-.45,.38-.62,.42-.62,.42Z"/><path class="cls-26" d="M112.63,53.39s-2.57,6.35-3.39,7.31c.63-2.08,2.76-6.93,3.39-7.31Z"/><path class="cls-26" d="M122.66,53.83s-1.26,2.37-1.5,2.66c-.24,.29-6.01,4.89-7.41,5.18-.19,.53-.29,.73-.29,.73,0,0,4.17-2.13,7.8-5.33,.97-1.31,1.4-3.25,1.4-3.25Z"/><path class="cls-26" d="M121.88,55.57s2.62,.63,3.54,.58c.92-.05,4.51-.87,5.23-.68-.15,.29-.24,.44-.24,.44,0,0-3.68,.24-4.8,.82-1.02,.14-3.63-.58-3.88-.73,.1-.24,.15-.44,.15-.44Z"/><path class="cls-26" d="M134.38,53.73s-2.42,3.68-3.58,3.97c-1.16-.24-2.91-1.74-2.91-1.74l.29-.05s2.18,1.31,2.57,1.31c.39-.24,3.63-3.49,3.63-3.49Z"/><polygon class="cls-26" points="132.06 56.49 134.82 56.59 136.22 55.19 134.57 56.2 132.25 56.15 132.06 56.49"/><path class="cls-26" d="M130.07,56.35s1.84-1.99,2.52-5.62c.68-3.63,.1-7.75-3.97-10.07,1.02-.53,1.4-.63,1.7-.53s2.62,2.13,3.15,3c0,0-.77-1.94-3.54-3.78-1.16,.53-2.03,1.4-1.89,1.5,0,0,3.1,1.31,4.07,5.13,.39,3.44,.29,5.47-2.03,10.37Z"/><path class="cls-26" d="M114.71,42.15s1.7-1.23,3.3-1.27c1.6-.03,10.17,.1,11.3,.33-.6-.3-1.03-.47-1.03-.47,0,0-8.27-.57-10.63-.3-2,.43-3.13,1.23-3.13,1.23l.2,.47Z"/><path class="cls-26" d="M131.39,40.77s3.44-.2,4,.2c.56,.4,1.4,1.92,1.4,1.92,0,0-.4-1.6-1.56-2.44-1.08-.36-4.16-.04-4.16-.04l.32,.36Z"/><path class="cls-26" d="M135.87,41.21l-.36-.4,1.68-.48s2.36,3.76,2.56,4.68c.2,.92,.16,1.76,.12,2.4-.04,.64-.92,4.84-.92,4.84-.6,2.64-2.84,4.72-3.2,4.84-.36,0-1.28-.64-1.28-.64l.36-.04s.62,.27,.77,.27,1.93-1.62,2.9-4.18c.62-2.2,1.04-5.18,.89-6.96,0,0-.08-1.01-2.36-4.68-.85,.04-1.17,.35-1.17,.35Z"/><path class="cls-26" d="M137.15,55.4l1.55,2.01s.54,.15,1.24-.04c.7-.19,1.82-.46,2.75-.15,.93,.31,2.36,.66,2.63,.93,.39,.04,2.2-.85,1.39-2.94,.46,0,1.78-.23,2.44-.7,.58-.5,1.39-2.51,1.78-3.17-.15-.58-.58-1.24-.93-1.59-.04-.35,0-.7,.19-1.12,.19-.43,.19-1.89-.27-2.32-.62-.5-1.43-1.01-1.78-1.74-.19-.77-.27-.81-.5-1.04-.23-.23-1.39-.12-1.82-.46s-1.43-1.47-1.86-1.89c-.58-.12-4.64,.08-5.99,.89,.31,.46,.27,.31,.27,.31,0,0,2.13-.81,5.41-.81,.77,.58,1.31,1.59,1.66,1.82,.35,.23,1.24,.19,1.55,.27,.31,.08,.7,.12,.97,1.16,.19,.5,1.35,1.66,1.74,1.89,0,0,.54,.85,.12,1.97-.19,.62-.23,.89-.12,1.12,.12,.23,.97,1.12,.93,1.55-.23,.58-1.39,2.55-2.05,3.02-.66,.35-1.89,1.12-2.74-.12,.08-.23,1.66-.23,1.97-.23,0,0-.62-.85-2.94,.08-1.28,.7-1.08,1.35-1.08,1.35,0,0,1.04-1.01,1.62-.93,.58,.27,.85,.7,1.08,.81,0,0,.5,1.86-.93,2.32,0,0-1.59-.7-2.51-.81-.93-.12-2.01-.12-3.6,.35-.85-.35-1.62-1.97-1.82-2.05-.23,.04-.35,.27-.35,.27Z"/></g></svg>