<?xml version="1.0" encoding="UTF-8"?><svg id="Capa_1" xmlns="http://www.w3.org/2000/svg" viewBox="0 0 112.93 198.03"><defs><style>.cls-1{fill:#eae2d1;}.cls-2{fill:#f5b0ac;}.cls-3{fill:#f6ad81;}.cls-4{fill:#e64011;}.cls-5{fill:#fff;}.cls-6{fill:#eddb7f;}.cls-7{fill:#edac94;}.cls-8{fill:#fce2d7;}.cls-9{fill:#812c46;}.cls-10{fill:#8191c9;}.cls-11{fill:#992415;}.cls-12{fill:#b3b5b7;}.cls-13{fill:#b3adab;}.cls-14{fill:#b61918;}.cls-15{fill:#a7a9ab;}.cls-16{fill:#c57964;}.cls-17{fill:#d57489;}.cls-18{fill:#db0d15;}.cls-19{fill:#213a8e;}.cls-20{fill:#1d1d1b;}.cls-21{fill:#1c2445;}.cls-22{fill:#89807d;}.cls-23{fill:#3b3735;}.cls-24{fill:#3d287c;}.cls-25{fill:#591e11;}</style></defs><path class="cls-8" d="M52.6,40.58h.01c-3.6,.07-3.84,.3-4.89,2.4l-.11,.22c-1.07,1.81-1.11,2.53-1.11,2.6v.08l.06,.06c.46,.49,.76,.82,.76,1.31,0,.39-.19,.87-.65,1.62-1.05,1.7-1.82,3.04-1.82,3.98,0,.2,.03,.39,.11,.55l.05,.11h.12c.88,.09,1.12,.29,1.16,.44,0,.02,.01,.05,.01,.08,0,.3-.38,.98-2.3,2.42-.25-1.76-1.12-3.96-2.68-5.21-.94-.76-1.99-1.07-3.11-.93-1.56,.19-3.18,1.35-4.34,3.09-1.14,1.72-2.79,5.51-1.06,11.55,1.81,6.3,6,8.05,8.22,7.68,.5-.08,.89-.29,1.22-.56-.14,.25-.41,.73-.41,.73-.26,.56-.39,1.12-.39,1.69,0,.95,.39,1.88,1.13,2.68,.04,.26,.82,5.31,2.99,10.52,0,0,.01,.03,.02,.04-.33,.25-.66,.54-.99,.89l-.09,.1,.23,.57c.82,2.04,1.24,3.06,5.6,5.69l.36,.22-.04-.42c-.03-.36-.05-.7-.05-1.02,0-.04,0-.07,0-.11,.29,1.26,.97,2.37,2.12,2.84l.25,.1,.04-.26c.27-1.66,.39-2.19,2.08-5.7,1.82-3.8,3.49-9,3.67-9.59,.29-.92,1.51-1.99,2.17-2.57l.8-.75s4.8-4.53,5.07-4.81c.91-.23,2.89,.14,2.91,.14l.15,.03,.08-.13c.46-.8,.47-3.98,.44-6.3v-.38c.17-.46,.68-1.29,1.22-2.17,.6-.97,1.22-1.98,1.47-2.71,.01-.06,.28-.84,.28-.84l.38-1.25c.19-.53,.38-1.05,.38-1.53,0-.29-.07-.57-.25-.83-.7-1-2.97-1.45-7.54-1.51,1.05-1.18,4.27-2.09,4.3-2.1v-.41c-.07-.01-.14,0-.19-.02-.03-.1-.07-.24-.07-.24-.31-1.08-4.2-2.92-6.19-3.33l-2.9-1.56c-.49-1.32-1.56-2.18-2.51-2.94,0,0-.67-.59-.9-.79,1.21-1.17,1.62-1.21,1.79-1.21,.55,0,1.2,.52,1.93,1.54l.08,.1,4.1-.64-.42-.3s-4.9-3.5-12.75-2.96Z"/><path class="cls-7" d="M49.51,77.92s.83,6.75-.12,7.34c-.96,.6-2.27-1.31-2.27-1.31,.18,1.67,1.32,3.65,2.4,3.77,1.01-1.13,1.72-2.22,2.56-3.35,.84-1.13,.3-3.76,.3-3.76l-2.87-2.69Z"/><path class="cls-8" d="M44.26,85.37c-.01,.08-.34,1.89,.22,3.01l.08,.17,.86-.67-.06-.12s-.4-.75-.8-2.4h-.3Z"/><path class="cls-16" d="M49.28,87.66c-.38-.11-.76-.52-.76-.52-.42-.42-.33-.62-.33-.62l2.33-.06-1.24,1.2Z"/><path class="cls-8" d="M37.33,98.42c-1.08,1.44-.09,3.37-.04,3.46l.15,.27,3.03-.2-.16-.41c-1.35-.77-2.62-3.08-2.63-3.1l-.16-.29-.2,.26Z"/><path class="cls-17" d="M50.9,66.05s2.14,1.03,2.95,3.08c2.6,1.43,2.35,3.38,2.35,3.78-2.51-1.95-6.06-4.95-6.06-4.95,0,0,.19-2,.76-1.92Z"/><path class="cls-7" d="M39.5,53.14s-3.52-1.22-5.05,4c1.83-1.35,3.48-2.65,3.79-2.48,.35,.3,1,1.61,1,1.78-.3,.65-4.74,.83-3.61,5.35,1.57-1.52,2.59-1.16,2.99-.8,.18,.71-2.17,3.28-.16,5.76-1.44-.3-2.48-.52-2.48-.52,1.09,1.74,2.65,3.92,4.57,1.52,.22,2.04,1.22,3.39-.13,4.79,.35,.52,1.48,4.22,1.91,4.35,.52-1.78,.13-4.48,1.26-5.48,1.04-1.7,.13-4.13-.78-5.39,0,0-4.22-1.7-2.91-4.05,1.65-1.17,2.18-2.87,2.04-4.44-.13-1.57-.57-2.96-2.44-4.39Z"/><path class="cls-7" d="M46.11,54.05s1.83,.83-2.83,3.7c-.35-1.52-2.09-4.96-.61-5,1.48,.78,3.44,1.31,3.44,1.31Z"/><path class="cls-16" d="M39.93,66.99c0,.41,.11,.85,.41,.85s.41-.44,.41-.85-.11-.85-.41-.85-.41,.44-.41,.85Z"/><path class="cls-16" d="M39.19,67.02c0,.4,.19,.69,.45,.69s.45-.29,.45-.69-.19-.69-.45-.69-.45,.29-.45,.69Z"/><path class="cls-16" d="M38.62,60.99c-1.14,.56-1.4,3.04-1.4,3.86,0,1.16,1.55,2.79,1.62,2.86l.32,.33,.19-1.94-.09-.05s-.67-.58-.74-1.95c-.06-1.34,1.71-2.37,1.72-2.38l.27-.16-.24-.19c-.61-.48-1.17-.61-1.65-.38Z"/><path class="cls-5" d="M50.17,68.46c-.16,.58,.29,1.41,1.33,2.44,1.81,1.8,5.23,4.03,5.91,3.85l.18-.05-.02-.18c-.07-.55-4.45-4.1-7.06-6.17l-.25-.2-.08,.31Z"/><path class="cls-5" d="M57.28,59.63c-1.41,.09-2.45,.9-3.28,1.54-.43,.33-.8,.62-1.1,.71l-.12,.03-.03,.12c-.37,1.57,.98,2.26,.99,2.27l.3,.15v-.34s0-.43,.05-.83c.66,.85,1.17,.96,2.13,.55,0,0,.16-.07,.32-.13,3.49,1.54,4.69,4.78,4.89,5.43,.12,.38,.27,.66,.44,.88-.1-.02-.43-.03-1.29,.43l-.08,.04-.02,.09c-.13,.61,.04,1.18,.48,1.58,.34,.3,.79,.46,1.08,.36l.2-.07-.07-.2s-.04-.13-.08-.3c.21,.24,.45,.46,.73,.62l.05,.03h.06c.65,0,1.86-1.15,2.29-2.01l.03-.06v-.07c-.69-4.63-5.73-10.96-7.96-10.82Z"/><path class="cls-9" d="M59.27,66.51c.7,1.35,.94,2.23,.73,2.68-.17,.37-.66,.5-1.24,.65l-1.27,.35,.68,.21c1.52,.48,3.03,.25,3.37-.52l.02-.04v-.04c0-1.63-1.88-3.46-1.96-3.54l-.33,.25Z"/><path class="cls-9" d="M57.45,74.63c.02,.11,.1,.31,.39,.39h.02s.02,0,.02,0c1.28,.14,3.11-1,3.18-1.05l.1-.06v-.12c0-.39-.22-.68-.59-.78-.56-.15-1.41,.2-1.98,1.14-.05,.01-.14,.04-.23,.06,.06-.16,.22-.42,.34-.61l.35-.62-.32-.24c-.36,.27-1.38,1.27-1.27,1.88Z"/><path class="cls-13" d="M51.66,63.36s.78-1.25,3.52-.72c1.01,.84,1.61,1.19,1.61,1.19-1.37,.72-4.66,1.43-5.13-.48Z"/><path class="cls-13" d="M64.98,68.97s-1.61,1.67-2.33,1.67c-.66-.54-.83-.72-.83-.72-1.07,.66-1.97,.95-1.97,.95-.66,.24-2.21,.78-1.49,1.67,.78,.3,1.13,1.07,1.91,.42,1.19,.3,1.55,.96,1.97,.12,1.37-.84,3.76-2.03,2.75-4.12Z"/><path class="cls-7" d="M75.06,57.45c-.6-2.51-3.64-1.91-3.64-2.09,.48-2.45-1.73-3.76-3.28-4.48,0,0-2.75,.72-3.94,.95-1.97-2.63-4.18-6.39-5.25-6.69,.3,2.87-.54,3.82-.6,4.12-.96,.83-.24,4.36-5.79,2.92,7.46,5.67,7.7,7.28,7.64,9.13,2.81,2.63,5.55,7.82,4.9,9.31-.84,1.49-4.36,4.36-7.34,4.36-1.31-.36-5.79-3.4-5.79-3.4-.18,1.43,.78,7.52,5.61,7.64,2.27-1.61,4.48-1.91,5.37-2.21,1.43-1.79,4.12-4.24,4.12-4.24,2.75,.48,2.92,.3,2.92,.3,0,0,.72-4.12,.72-6.03,.6-2.21,4.95-7.1,4.36-9.61Zm-10.57,5.07c-.06-.72,.95-1.55,1.55-1.37,.6,.18,.95,1.37,.95,1.37,0,0,.18,.54,.24,1.37-2.27,1.55-2.69-.66-2.75-1.37Z"/><path class="cls-5" d="M71.42,61.33s.07,3.28-2.2,3.73c-.96-.5-2.45-1.94,.35-4.68,1.67-.6,1.85,.96,1.85,.96Z"/><path class="cls-5" d="M65.39,58.23s-.84,1.97-3.04,1.49c-1.85-.6-2.27-1.97-2.27-1.97-.24-.12-3.88-5.19-3.94-5.43,.06-1.43,2.21-6.21,5.97-3.76,2.45,3.52,3.16,8.24,3.28,9.67Z"/><path class="cls-16" d="M65.57,58.94l-1.85,.84c1.49,1.25,3.16,.18,3.16,.18,.3-.78,.96-1.37,.42-2.09-.89,1.19-1.25,2.03-1.73,1.07Z"/><path class="cls-16" d="M71.3,55.6s-3.04,1.25-3.28,1.61c3.52,.24,6.51,.9,6.51,.9,0,0,.18-2.51-3.22-2.51Z"/><path class="cls-16" d="M51.01,79.66l.72,4.36c1.79-1.61,2.39-2.33,2.39-2.33l-3.1-2.03Z"/><path class="cls-5" d="M54.77,81.39s-2.39,3.04-3.22,8.48l-1.43-1.91s1.13-3.82,4.66-6.57Z"/><path class="cls-7" d="M60.32,77.92s-5.73,4.48-6.21,6.86c-.48,2.39-.6,6.8-1.13,7.82-1.02,1.02-2.15,2.21-2.15,2.21-.56-2.07-.05-4.01-.05-4.01-1.13,1.01-2.03,3.41-2.03,3.41,2.86,1.97,4.5,2.41,4.54,2.29-.66-1.25,2.5-6.58,2.92-8.13,.42-1.55,2.87-8.98,4.84-9.73l1.61-1.55-2.33,.84Z"/><path class="cls-18" d="M9.64,74.72h0c-.29,2.27-.06,2.37,5.82,4.97l16.29,7.04v-1.07l-.13-.05c-.14-.06-11.26-4.6-17.22-7.41,.06,.02,.37,.15,.37,.15,2.02,.81,3.36,1.35,4.07,1.44,12.94,5.44,13.11,5.15,13.16,5.06l.04-.08-.03-.09c-.16-.57,1.77-2.93,2.62-3.5l.32-.21-.35-.15c-14.51-6.31-21.95-9.51-22.11-9.51-.63,0-2.49,.81-2.85,3.44Z"/><path class="cls-14" d="M32.41,84.17l-20.56-8.94c-.78,2.09-.78,2.57-.78,2.57,10.92,4.78,20.89,8.95,20.89,8.95,.18-1.61,.45-2.59,.45-2.59Z"/><path class="cls-2" d="M33.4,82.52l-21.31-9.67,1.37-1.19s-.48-.36-1.01-.36-4.42,1.97-2.33,5.91c.36-2.98,1.31-3.7,1.31-3.7,12.95,6.45,21.31,9.79,21.31,9.79l.66-.78Z"/><path class="cls-4" d="M32.25,84.05v.02s-.02,.02-.02,.02c-.8,1.68-.34,4.11,.28,5.15l.23,.38,.15-.42c.18-.5,.22-.95,.22-1.37,0-.19,0-.37-.02-.55,0-.17-.01-.34-.01-.51,0-.18,.01-.36,.04-.54,0,.36,.07,.69,.23,.94,.15,.24,.38,.35,.65,.39,.07,.05,.1,.14,.1,.23,0,.05-.01,.11-.02,.16-.04,.15-.16,.3-.3,.3h0c-.21,.05-.3,.16-.32,.3,0,.02,0,.03,0,.05,0,.58,1.25,1.64,2.45,2.41l.31,.2s.05-1.82,.06-2.49c.2,.31,.42,.89,.42,2.02,0,.15,0,.32-.01,.49v.11s.08,.07,.08,.07c.28,.21,.66,.27,1.03,.15,.52-.17,.93-.63,1.13-1.27,.21-1.72,.52-4.27,4.13-7.22l.26-.21-.3-.14c-.2-.09-4.84-2.25-5.59-2.45-1.27-.35-2.96,.9-5.17,3.8Z"/><path class="cls-3" d="M41.04,85.15l-5.73-3.04c1.67-.66,2.92-1.43,2.92-1.43-.89-.3-1.43-1.61-4.83,1.85-1.55,1.79-1.73,2.69-1.73,3.04s.24,3.82,1.13,4c0,0,.07-4.15,.9-5.12,2.14,.82,6.2,2.2,6.2,2.2l1.13-1.49Z"/><path class="cls-14" d="M39.07,89.03s-5.19-2.39-6.03-2.33c.18,1.73,0,2.39,1.19,3.46,2.03,1.07,3.64,1.55,3.64,1.55,1.43-.78,1.19-2.69,1.19-2.69Z"/><path class="cls-8" d="M74.88,62.44c-.77,.48-1.19,1.29-1.15,2.24h0c.06,1.79,1.31,2.39,2.88,3.15l.93,.46c2.05,.77,3.74,.32,4.33-1.14,.28-.68,.49-1.3,.24-1.89-.28-.66-1.1-1.21-2.82-1.88l-.19-.05c-.25-.05-.72-.15-1.74-1.01-.77-.41-1.73-.35-2.48,.12Z"/><path class="cls-8" d="M84.43,51.17c-2.12,.51-2.38,4.55-2.38,6.47,0,.6,.03,1,.03,1.01,.88,1.97,2.43,1.96,3.06,1.86,1.17-.18,2.16-1.02,2.27-1.92,.35-4.22,.09-6.28-.88-7.12-.5-.43-1.18-.53-2.09-.31Z"/><path class="cls-8" d="M86.97,59.57c-.2,.33-.83,.76-1.62,.9-.62,.11-1.55,.07-2.5-.71l-.31-.25-.04,.39c-.03,.3-.07,.79-.07,1.26,0,.42,.05,.77,.14,1.02-.75,.53-1.36,1.83-1.39,1.89l-.06,.14,.12,.1c.65,.56,.98,1.17,.98,1.82,0,.33-.09,.68-.26,1.03-.64,1.29-2.61,1.55-3.1,1.55h-.2v.2s0,.06,0,.09c0,1.34,.96,3.77,2.99,4.13,1.89,.33,4.65,.25,4.76,.24,0,0,.12,0,.22,0,.05,.05,.11,.1,.16,.15,1.05,.94,2.13,1.92,2.88,2.18,1.47,.38,4.73-.07,6.7-4.45l.19-.43-.45,.15c-1.98,.65-2.48,.18-3.13-1.04-.25-.31-.5-.45-.77-.51,.25-.04,.44-.09,.71-.13l.54-.07-.93-.64c-1.08-.74-1.1-.76-1.25-1.23-.21-.68-.59-.87-1.21-1.18l-.08-.04c-.57-.29-1.37-1.02-1.37-1.74,0-.03,0-.07,0-.1,.03-.32,.34-.83,.67-1.37,.48-.79,1.02-1.69,1.05-2.51v-.34s-.3,.14-.3,.14c-.53,.24-.88,.91-1.16,1.52-.15-.5-.34-.86-.64-.93-.09-.02-.17,.07-.26,.1-.05-.73-.34-1.12-.45-1.23l-.54-.29v.19Z"/><path class="cls-7" d="M87.57,52.8s-4.54-.97-2.42,5.98c0,2.27-1.15,1.66-1.15,1.66-.22,.47-.07,2.38,1.3,2.96,1.37,.58,2.92,.18,3.03,.18s-.86,2.24-2.27,2.99c.76,1.08,3.35,1.41,3.35,1.66-.14,.4-2.02,1.98-2.02,2.52,3.71-1.19,4.69-1.37,4.69-1.37,.22,0-1.19,1.59-2.05,2.56-.86,.97-1.48,1.19-1.48,1.19l-3.14-1.08c2.42,2.02,3.23,3.48,4.32,3.45,1.09-.03,3.25-2.66,4.77-3.7,1.51-1.05,3.75-1.87,3.75-4.15-.18-1.8-.4-1.77-.29-2.52,.11-.76,.69-4.29-2.09-4.11,0,0,.79-2.42-1.05-3.46-1.12-.65-3.53,.07-4.33,2.49-.86,.33-1.55,1.41-1.55,1.41-.36-.29-1.59-1.48-1.59-2.09,.11-.72,.22-5.44,.22-6.56Z"/><path class="cls-8" d="M93.67,57.34s-.25,1.87-1.33,3.17c-1.19,1.44-1.95,2.74-2.45,3.64-.72,.97-1.12,.79-1.12,.79,0-.29-.72-.76,.4-2.02,1.12-1.3,1.87-4.33,2.24-4.58,.36-.25,1.48-.97,2.27-1.01Z"/><path class="cls-7" d="M78.27,62.93s-2.52,.5-.58,2.52c1.3,1.12,2.99,2.34,3.97,2.16,.79-.76,1.26-1.91-.68-3.71-1.59-.68-2.7-.97-2.7-.97Z"/><path class="cls-16" d="M97.45,66.21s1.51,.4-2.42,5.05c-1.01,0-2.05-1.26-2.05-1.26-.58,1.01-.22,3.06-.22,3.06-.97,.32-3.71,2.23-3.71,2.23-.47-.83-1.98-2.16-2.96-1.87-1.08,.07-1.66,.11-1.66,.11,.76,1.15,2.7,1.87,5.08,2.16,2.38,.29,4.97-.11,6.92-4.69,1.62-.58,3.03-1.62,2.56-4.33-.32-1.51-1.44-1.44-1.55-.47Z"/><path class="cls-16" d="M84.76,65.78s2.42,.72,4.43,1.33c2.02,.61,2.31,.61,2.31,.61,.5,.58,.58,.72,.58,.72-.58,.07-2.49-.04-2.63-.04-1.87-.14-2.56-.29-2.56-.29-.54-.43-2.13-2.34-2.13-2.34Z"/><path class="cls-21" d="M98.81,69.73l-2.15,1.55-.02,.04c-1.21,2.17-2.8,4.49-6.47,4.53-3.71,.04-5.73-2.37-5.75-2.4l-.07-.08-1.33,.05,.02,.22c.25,2.64,1.78,3.36,1.78,3.36l.16,.54c.64,2.22,1.93,3.45,4.32,4.13,9.32,.99,11.42-4.3,11.9-6.62,.71-3.47-1.39-5.77-1.48-5.87l-.75-.67-.16,1.2Z"/><path class="cls-19" d="M88.51,75.68s.99,4.74,6.5,1.64c-.34,1.68,1.51,3.49,1.9,3.53-2.11,.86-5.64,1.46-7.1,.95-1.46-.52-5.81-4.87-5-7.88,1.29,.95,1.51,1.46,3.7,1.77Z"/><path class="cls-10" d="M84.9,73.78s.08,2.33,1.99,4.2c-.17,1.25,1.58,2.91,4.19,3.9-2.08,.04-5.52-1-6.4-4.9-1.74-1.74-1.62-3.61-1.62-3.61,1,.17,.95-.17,1.83,.41Z"/><path class="cls-8" d="M32.04,108.93l-.69,.13,.65,.27s1.1,.5,.68,3.82v.08s.04,.07,.04,.07c.25,.36,.32,.76,.41,1.32l.24,1.2c.29,1.1,.63,1.99,1.77,1.88,1.03-.1,1.55-1.27,1.55-1.89v-.36l-.31,.18s-.07,.03-.11,.04c.11-.08,.24-.15,.27-.25,.07-.24,.15-1.23,.15-2.15,0-.53-.03-1.04-.09-1.37-.22-1.03-1.54-3.36-4.56-2.98Z"/><path class="cls-8" d="M25.07,109.35c-1.04,1.09-1.34,2.08-1.6,2.96,0,0-.09,.29-.11,.38-1.07,.71-1.41,1.45-1.41,2.09,0,.31,.08,.61,.19,.86,.37,.85,1.37,1.73,1.89,2.02-.08,.26-.23,.86-.33,1.9-.01,.11-.02,.21-.02,.31,0,1.02,.59,1.19,1.21,1.37l.52,.17c.88,.35,1.27,.77,1.7,1.79,.5,1.19,1.49,1.31,1.54,1.31,.02,0,3.35-.09,3.35-.09,.7-.05,1.6-.78,1.6-1.48v-.25s.49-.61,.94-1.57c.21-.46,.29-.85,.29-1.17,0-.4-.12-.7-.26-.91-.26-.41-.68-.62-.95-.62,0,0-.52,.18-.37,.06,.36-.29,.56-.7,.57-1.2,0,0,0-.02,0-.02,0-.86-.54-1.75-.78-1.96,0,0,.24,.02,.24,.02v-.21c.02-.08,.02-.16,.02-.24,0-1.09-.47-1.89-.74-2.18,0,0-.14-.08-.22-.13,.08,0,.16,.02,.25,.02h.19l.02-.19c.12-1.21-.06-2.09-.58-2.69-.71-.84-1.88-.9-2.73-.95l-.76-.08c-1.67-.89-2.41-.59-3.65,.69Z"/><path class="cls-7" d="M23.91,120.82s2.25-.9,2.46-1.92c.15,1.5,.12,3.27,.12,3.27-.6-.72-2.1-1.32-2.58-1.35Z"/><path class="cls-7" d="M21.9,115.24s3.45-.75,3.33-.63c-.81,1.41-1.17,3.18-1.17,3.18-.87-.9-1.74-1.47-2.16-2.55Z"/><path class="cls-7" d="M36.7,112.44s-2.25-1.95-3.93,.3c.09-.6-.27-2.97-1.08-3.42-.75,1.02-1.17,2.97-.99,3.15l.78,.12s.3,1.95-1.05,2.94l1.26-.21s1.29,2.13-.45,2.88c-1.8,.09-2.88,.39-2.79,2.04,1.26-.63,1.47-.66,2.22-.81,.75-.15,2.25-.78,2.25-.78,.42,.03,.93,1.59-.09,2.28-1.02,.69-4.27,.33-4.83,3.24,.6,.3,.96,.27,1.5,.27,.6,0,2.67-.06,3.27-.09,.66-.06,2.97-1.23,3.96-2.64,.99-1.41-.03-9.28-.03-9.28Z"/><path class="cls-16" d="M36.25,117.55s-.66,1.08-1.59,1.59c-.69-.96-1.02-1.05-1.02-1.05,.06-.57,.24-.87,.24-.87,.72,.33,1.2,.9,2.25-.03,.18,.06,.12,.36,.12,.36Z"/><path class="cls-16" d="M36.09,117.31c0,.48,.24,.85,.55,.85s.55-.36,.55-.85-.24-.85-.55-.85-.55,.36-.55,.85Z"/><path class="cls-5" d="M30.07,108.84s.15,.98-.83,1.4c-.98-.31-5.48-.57-4.39,2.89-1.03,.41-2-.05-2-.05,.59-.53,.55-.78,.55-.78,0,0,1.35-4,3.68-4.06,1.56-.02,1.43,.13,1.94,.23,.51,.1,1.05,.37,1.05,.37Z"/><path class="cls-21" d="M36.24,111.08c.42,2.12,1.4,7.09,.51,7.34l-.26,.07,.14,.23c.43,.75,.55,1.47,.33,2.15-.44,1.39-2.09,2.22-2.42,2.37-.61,.08-1.17,.4-2.7,1.33l.11,.39c4.61,.08,5.22-1.37,5.22-1.37l2.31-.37,.07-.06,.19-.18c.68-.63,2.27-2.1,1.81-5.61-.51-3.9-3.5-6.18-3.62-6.27l-.3,.29c1.4,2.07-.02,.29-1.06-.51l-.44-.34,.11,.55Z"/><path class="cls-19" d="M36.65,113.02s2.71-.15,3.39,.28c.68,.43,1.11,2.35,1.11,2.62-.4,.22-1.48-.31-1.63,.19-.15,.52-.34,.31-2.62-.89-.22-1.61-.25-2.19-.25-2.19Z"/><path class="cls-10" d="M36.67,113.12l3.33,.51c-.61-1.57-2.18-2.92-3.85-2.82,.35,.9,.7,1.63,.51,2.31Z"/><path class="cls-16" d="M45.92,116.75c.01,.07,.28-1.74,.49-1.96l.52-.2c.17,0,.31,.09,.41,.25,.12,.19,.17,.48,.17,.79,0,.38-.08,.78-.21,1.04l-.18,.79c-.04,.32-.11,.58-.26,.75,0,.03-.02,.29-.02,.69,0,.57,.04,1.39,.24,2.12l.05,.17-.15,.08c-.54,.27-2.66,.85-6.49,1.79l-.59,.15,.38-.48,1.08-2.02c1.57-1.78,4.57-3.95,4.57-3.95Z"/><path class="cls-7" d="M41.25,121.04s4.96-1.85,5.02-3.45c-.17-1.88-.89-2.6-1.4-2.77-.61-.14-3.38,2.05-3.38,2.05-.07,1.13,.55,1.06-.24,4.17Z"/><path class="cls-8" d="M45.1,115.05s-.93,1.83-3.58,2.09c-.48-1.79-1.04-3.13-1.04-3.13,1.01-.97,3.39-2.09,3.39-2.09,0,1.01,.93,2.57,1.23,3.13Z"/><path class="cls-5" d="M44.02,112.33l-3.31,2.09c-1.34-2.09-2.05-2.72-2.05-2.72,.6-.78,3.24-3.28,5.36,.63Z"/><path class="cls-1" d="M42.42,84.37c-1.13,.15-2.49,2.29-2.49,3.06,0,.35-.17,.69-.39,1.13l-.74,1.7,.56-.34c.96-.56,1.22-1.06,1.36-1.55,0,.05-.01,.11-.01,.15,0,.23,.03,.37,.04,.39l.04,.14h.16s.32,.05,.54,.71c-.03,.08-.07,.15-.07,.25,0,.96,1.44,2.57,1.62,2.78l.13,.14,.15-.11c.1-.08,.63-.49,.63-.91v-.07l-.05-.06s-1.08-1.36-1.61-2.22c-.5-.81-.38-2.91-.38-2.93l.04-.64-.41,.49c-.12,.14-.2,.27-.28,.41,.67-1.51,1.32-2.14,1.33-2.15l.53-.46-.69,.09Zm2.13,8.47c-.67,0-.93,.58-.94,.6l-.05,.12,.08,.1c.15,.18,3.81,4.54,6.45,4.75h.19s.19-1.14,.19-1.14l-.14-.07s-1.35-.67-1.8-1l-.33-.24v.41c0,.05-.03,.08-.07,.1-.08-.17-.22-.5-.22-.5l-.04-.03s-2.22-1.69-3.14-3l-.06-.09h-.11Zm22.52,1.23l-.28,.07,.15,.24s1.06,1.76,1.06,4.56c0,.11-.02,.24-.02,.36-.02-.24-.21-.37-.46-.37h0c-.19,0-.38,.08-.52,.24,0-.01-.02-.31-.02-.31l-.27,.1c-.35,.14-.58,.49-.63,.99-.05,.54,.11,1.29,.41,1.48,.11,.07,.23,.07,.33,0h0c.06-.05,.16-.14,.19-.7,.24,.43,.6,.75,.99,.86,.24,0,.38-.08,.43-.24,.02-.05,.02-.09,.02-.14,0-.16-.08-.35-.18-.52,.1,.03,.2,.03,.31,.01-.05,.09-.12,.17-.12,.28,0,.38,.32,.68,.72,.68s.72-.31,.72-.68-.32-.69-.72-.69c0,0-.02,0-.03,.01,0-.08,0-.21,0-.21,.02-.49,.04-1.06,.04-1.66,0-1.65-.16-3.48-.99-4.15-.32-.26-.7-.33-1.15-.22Zm.86,6.21c-.05-.04-.07-.13-.07-.25,0-.16,.06-.36,.11-.53-.01,.24-.01,.47-.04,.72,.01,.06,.04,.08,.05,.12-.02-.02-.03-.04-.05-.06Zm-7.83-3.14h0c-.17,.25-.2,.47-.11,.67,.22,.46,1.07,.54,1.96,.63l.86,.11c.89,.19,2.61,1.51,2.63,1.52l.19,.14,.12-.2c.36-.62-.05-1.34-1.17-2.04-1.43-.9-3.93-1.64-4.47-.83Zm-9.46,.31s-.21,.24-.21,.81c0,.09,0,.19,.01,.3v.12s.12,.05,.12,.05c.86,.4,4.01,1.03,5.52,1.33,0,0,.29,.06,.37,.07,.05,.2,.14,.38,.33,.38,.17,0,.26-.14,.31-.3,.07,.17,.18,.3,.33,.3,.14,0,.24-.11,.32-.25,.05,.21,.16,.41,.42,.51h0c.69,.26,1.97,.69,2.85,.69h.3s-.03-.1-.06-.19c.32,.4,.78,.8,1.39,.8,.77,0,1.68-.35,1.79-.88,.04-.17,.01-.5-.55-.74-1.33-.35-2.88-.29-2.94-.29,0,0-.05,0-.08,0,0-.02-.08-.23-.08-.23l-.13-.04-2.81-.5-.06,.16s0,.06-.01,.08c-.07-.16-.18-.29-.33-.29-.11,0-.21,.06-.28,.16-.03-.24-.11-.56-.37-.56-.24,0-.32,.27-.35,.5-.09-.22-.24-.47-.51-.66l-.05-.03h-.06c-.91-.07-4.93-1.34-4.97-1.35l-.12-.04-.09,.09Zm20.01,2.74c-.11,.43-.05,.78,.18,1.05,.55,.62,1.87,.46,2.01,.44l.18-.02v-.18s.01-.09,.02-.15c.19,.22,.41,.41,.44,.44l.28,.24s.09-.54,.11-.69c.11,.15,.29,.4,.29,.4l.13,.03,5.25,.07,.04-.18c.03-.18,.5-.56,.91-.8l.66-.38-5.08-.08-.08,.11s-.16,.2-.19,.24c0,0,0,0,0-.01,0-.05-.04-.16-.04-.16l-.05-.14-.16-.04s-1.72,0-4.72-.34l-.18-.02-.05,.18Zm-5.9,.73c0,.38,.32,.69,.72,.69s.72-.31,.72-.69-.32-.68-.72-.68-.72,.31-.72,.68Z"/><path class="cls-6" d="M67.21,89.71c-.62,.41-.78,1.56-.78,2.12v.46l.67-.58c.41-.36,.8-.7,1.12-.6,.51,.16,1.02,1.35,1.53,3.55h.41s.07-.4,.12-.76c.47,.56,.78,1.2,.96,1.61l.15,.34c.45,.4,.76,.3,.91,.2,.08-.05,.26-.18,.22-.35-.04-.2-1.15-5.07-4.41-6.05-.41-.18-.72-.07-.91,.05Zm-2.95,.63c0,.31,.33,.55,.75,.55s.75-.24,.75-.55-.33-.55-.75-.55-.75,.24-.75,.55Zm-.57,.54c-.86,.16-1.87,1.88-1.8,3.07v.2h.21c.05,0,.09-.02,.14-.03-.06,.13-.13,.27-.13,.27-.16,.33-.23,.66-.23,.96,0,.59,.25,1.09,.58,1.38,.37,.33,.82,.39,1.17,.16l.25-.16-.24-.18c-.46-.36-.99-1.67-1.15-2.14,0,0-.06-.17-.11-.32,.43-.06,.8-.21,1.06-.52,.44-.52,.53-1.28,.53-1.83,0-.38-.04-.66-.05-.69l-.04-.21-.21,.04Zm1.81,.07c-1,.31-1.36,1.02-1.7,2.32l-.07,.28h.28c1.45-.07,1.79-1.6,1.76-2.4v-.28s-.27,.08-.27,.08Zm.47,1.93c-.14,.3-.1,.6,.11,.85l.06,.07h.09s1.13,.08,1.6-.49c.21-.26,.27-.59,.17-.99-.06-.15-.2-.34-.55-.34-.49,0-1.23,.38-1.48,.9Zm-1.85,.75c-.41,.25-.62,.69-.6,1.19v.2h.21c.19,0,1.84-.03,1.84-.95,0-.23-.12-.43-.32-.54-.3-.17-.77-.13-1.13,.1Zm3.81,.47c0,.32,.25,.58,.55,.58s.55-.26,.55-.58-.25-.58-.55-.58-.55,.26-.55,.58Zm-2.28,.6l-1.8,1.2,.12,.18s.37,.53,1.25,.29c1.08-.57,.76-1.55,.75-1.56l-.09-.26-.23,.15Zm4.65,.53c.03,.33,.32,3.19,1.54,3.76l.33,.15-.03-.36c-.07-.91-1.39-3.56-1.44-3.67l-.4,.11Zm-1.36,1.03c0,.36,.28,.65,.62,.65s.62-.29,.62-.65-.28-.65-.62-.65-.62,.29-.62,.65Zm-2.83-.24c-.24,.07-1.47,.46-1.7,.98-.06,.13-.06,.27,0,.4l.06,.12h.13c.77,0,1.3-.18,1.58-.54,.29-.37,.19-.79,.19-.8l-.05-.21-.21,.06Zm.42,1.08c-.06,.01-1.41,.3-1.55,.93l-.11,.31,.2,.18c1.79-.15,1.72-1.18,1.72-1.22v-.24s-.25,.05-.25,.05Zm2.95,.06c-.2,.09-.36,.25-.44,.44v.47s.35,.32,.35,.32c.19,.07,.42,.06,.62-.03,.2-.09,.36-.25,.44-.44v-.47s-.35-.32-.35-.32c-.19-.07-.42-.06-.62,.03Zm.61,1.39h0c-.63,.18-1.01,.57-.9,.93,.1,.36,.63,.5,1.26,.32,.63-.18,1.01-.57,.9-.94l-.24-.28c-.24-.13-.62-.15-1.02-.03Zm-6.36,1.24c.06,.3,.4,.84,1.25,.71l.18-.03v-.18c0-.46-.83-.68-1.19-.75l-.31-.06,.06,.31Z"/><path class="cls-25" d="M77.27,68.52c-.25,.33-.59,1.26-.59,2.04v.27l.26-.07s1.01-.27,1.45-.27h.23l-.02-.23c-.07-.97-.99-1.75-1.03-1.79l-.17-.15-.13,.18Z"/><path class="cls-7" d="M101.62,72.95l-.18,.03v.18s-.01,2.17-.81,3.66l-.09,.17-.32,.64-.12,.19c-2.47,4.08-7.88,4.25-7.93,4.25h-.3s.12,.32,.12,.32c0,0,.07,.17,.11,.29-.06-.07-.12-.14-.17-.2l-.36-.38-.05,.03s-1.25,0-2.76-.35l-.36-.08,.11,.35c1.49,4.7,3.85,6.5,9.01,6.88,4.44,.33,6.52-.99,6.87-1.25,.13,0,.76,.05,.76,.05,2.03-.59,2.01-1.78,1.83-2.44,0,0-.29-.98-.61-.89,0,0-.19,.12-.36,.23,.71-1.59,1.01-3.01,1.01-4.22,0-1.88-.66-3.33-1.4-4.35-1.53-2.12-3.86-3.14-4-3.12Z"/><path class="cls-16" d="M106.9,81.67l-2.85,2.15c1.26,1.45,2.15,1.63,2.75,.98-.37-.65-.33-.51-.33-.51,0,0,.37-1.03,.42-2.62Z"/><path class="cls-8" d="M97.8,80.36s4.29,4.06,3.13,5.84c-1.17,1.78-6.91,2.38-10.41-.05-1.63-2.1-2.19-4.53-2.19-4.53,2.8,.61,6.68,.37,9.48-1.26Z"/><path class="cls-5" d="M91.96,82.51s1.73,2.38,.28,2.94c-1.59-.23-2.33-.33-3.5-2.24l-.42-1.59s3.74,.05,3.64,.89Z"/><path class="cls-16" d="M80.65,86.99c-1.27,0-2,1.28-2.25,1.84l-.05,.12,.08,.1c.15,.18,1.45,1.71,2.41,1.79,1.23,.06,1.8-.93,1.93-1.46l.04-.15s-1.93-1.14-2.18-1.29c.07-.21,.31-.94,.31-.94h-.29Z"/><path class="cls-7" d="M76.2,71.36l-.03,.03-.02,.04c-.13,.31-3.1,7.52-3.17,9.66v.06s.02,.05,.02,.05c1.13,2.1,4.4,7.39,5.13,7.57l.15,.04,.08-.14c.65-1.12,1.3-1.93,2.71-1.68-.16,.15-.5,.46-.5,.46l.14,.18c1.72,1.52,8.12,5.13,14.82,1.81l.44-.22-.47-.17c-2.65-.95-5.95-2.12-7.26-7.45l-.03-.11-.1-.04c-1.65-.65-2.66-2.04-3.51-4.8l-.07-.23-.22,.09s-.05,.02-.07,.03c-.05-.06-.1-.12-.1-.12l-.25-.26c-.41-.42-.61-.62-1.07-2.79l-.03-.14-1.11-.2c-1.07-.16-1.72-.25-2.64-2.11-.12-.19-.34-.29-.63-.33-.62-.08-1.59,.16-2.23,.75Z"/><path class="cls-8" d="M75.34,73.17s6.68,.28,6.58,2.01c-.33,1.73-1.07,2.57-1.07,3.83,.84-.75,3.13-2.47,3.78-2.52,.28,1.45,.89,3.31,1.87,3.78-.93,.84-2.71,1.31-5.28,5.18-2.19-.19-5.84-.75-6.68-1.68-.89-.98-1.68-3.03-1.68-3.03,.47-2.05,2.47-7.56,2.47-7.56Z"/><path class="cls-4" d="M76.61,68.59c-1.02,.29-7.14,4.58-7.14,4.47,0-.03-.24-.24-.48-.21l-1.97,.07-.07,.07c-.55,.61-1.88,1.89-3.29,3.25-1.69,1.63-3.61,3.48-4.51,4.48l-.04,.05v.07c-.12,.98-2.38,6.19-3.6,8.99l-.66,1.53c-.96,2.23-1.55,3.64-1.57,5.18-8.38-3.23-9.61-8.19-9.61-10.79,0-.98,.17-1.62,.19-1.71l.1-.35-.35,.09c-.47,.12-.84,.77-1.12,1.95-.3,1.29-.47,3.4-.05,3.77l.26,.22s.05-.19,.07-.27c0,.08,0,.16,0,.24,1.55,3.33,4.14,5.8,7.71,7.43,3.2,1.46,11.07,3,12.28,3.07h.21s0-.2,0-.2c.05-1.42-1.2-1.63-2.1-1.79-.45-.08-.92-.16-.95-.35-.06-.4-.04-.62,.08-.78,.17-.22,.58-.37,1.3-.47l.23-.03-.05-.22c-.72-3.15,.75-5.41,2.36-6.47,1.89-1.24,4.26-1.2,6.05,.11,4.09,3,2.76,8.12,1.9,9.84l-.15,.3h.34c.27,0,6.61,.07,8.91-.2,1.42-.28,3.01-1.73,4.4-3.11,1.19-1.19,.86-1.71,.13-2.84l-.67-1.08-.18,.26s-.72,1.03-1.77,2.28c1.98-2.6,2.51-3.81,2.82-4.73l.05-.16-.14-.09s-.38-.22-1.94-.76l-.12-.04-.09,.08c-2.18,1.99-3.56,1.24-5.8-1.21-2.45-2.52-4.62-7.19-4.75-7.48,.03-1.76,2.54-8.36,4.05-12.15l.16-.4-.41,.12Z"/><path class="cls-11" d="M75.56,72.32s-4.13,1.4-7.09,2.09c-2.56,2.79-4.59,5-4.71,5.23-.81,1.34-3.02,7.56-3.02,7.56-.12-4.54-.23-5.06-.23-5.06,0,0,5.87-7.56,5.87-8.61,.7-.87,.81-.7,.81-.7,2.44,.17,2.58,.01,2.58,.01,1.14-.95,4.46-3.39,7.25-4.43-.47,1.22-1.45,3.9-1.45,3.9Z"/><path class="cls-11" d="M72.71,81.27s-1.98,0-1.98,.41c.81,1.69,4.59,5.23,5.93,5.29-2.03-2.21-3.95-5.7-3.95-5.7Z"/><path class="cls-11" d="M77.13,87.78s-3.66,3.64-4.12,3.69c-.58-1.28-3.55-9.8-3.55-9.8-1.22,2.38-1.45,4.59-1.45,4.59,.46,1.22,1.51,3.6,1.51,3.6,2.21,1.69,4.88,5.23,1.92,10.18,3.72,.23,8.37,.17,8.55,.12,1.28-.64,4.36-5,4.24-6.98-.12-1.98-1.34-3.2-1.34-3.2,0,0-2.03,2.97-5.76-2.21Z"/><path class="cls-25" d="M63.23,81.21s-2.27,.81-2.27,4.65c2.04-4.48,2.27-4.65,2.27-4.65Z"/><path class="cls-25" d="M69.34,80.69s-1.57,3.78-1.28,5.17c1.4-1.45,1.8-2.27,1.8-2.27l-.52-2.91Z"/><path class="cls-25" d="M73.7,91.8s2.33,4.19,3.66,4.01c1.4-.17,3.24-1.93,3.24-1.93-1.89-.02-3.92-.18-6.9-2.08Z"/><path class="cls-25" d="M82.71,90.28s1.34,.93,.35,2.85c-.99,1.92-1.74,3.84-2.44,4.59-1.51,.41-2.67-.06-2.67-.06-1.22,1.05-2.91,2.38-2.91,2.38,4.36,.12,5.58,0,6.8-.41,1.22-.41,4.48-3.37,4.42-4.19-.29-.87-1.28-2.38-1.28-2.67,0-.41,.81-1.86,.81-2.27-.12-.41-2.62-.99-2.62-.99l-.47,.76Z"/><path class="cls-4" d="M40.4,89.04c-.74,.74-4.4,4.93-4.4,5.98,0,.99,2.47,4.66,3.93,6.05,0,0,.29,.27,.34,.32,0,.14,0,.28,0,.41v.21s.22,0,.22,0c7.33-.33,12.14,2.74,13.22,5.03l.09,.2,.19-.1c3.97-2.07,4.64-1.16,5.76,.35l.45,.61,.15-.08c7.3-3.53,13.04-4.52,17.22-5.25l1.29-.23v-.41c-1.08-.22-7.35-.54-9.74-.41-1.08,.38-2.22,.29-3.22,.21-.83-.06-1.61-.12-2.25,.07-.7,.45-3.67-.47-6.81-1.46l-4.39-1.32c-4.65-1.31-4.86-1.52-7.48-4.14l-1.97-1.71s-2.26-4.23-2.29-4.28l-.13-.25-.2,.2Z"/><path class="cls-11" d="M40.74,93.17s-2.69,4.64-2.55,5.85c.84,1.67,2.13,2.27,2.13,2.27-.05-2.27,.42-8.12,.42-8.12Z"/><path class="cls-11" d="M45.42,95.49s-.05,2.37,.46,3.81c-.88-.7-2.64-3.94-2.41-5.75,.97,1.11,1.95,1.95,1.95,1.95Z"/><path class="cls-11" d="M48.49,101.89s4.5,.14,5.52,0c-1.44,1.44-1.49,2.23-1.49,2.23-1.72,0-3.9-2.09-4.04-2.23Z"/><path class="cls-11" d="M63.19,102.07s-4.13,2.27-1.48,4.04c-.05,.84-.46,1.58-.46,1.58,2.18-1.16,7.38-3.11,13.36-4.96l-.19-.97s-4.73-.05-5.34,0c-.65,.05-5.89,.32-5.89,.32Z"/><path class="cls-25" d="M73.54,101.89s-4.04,1.76-5.43,3.25c3.99-.97,11.23-2.88,11.23-2.88-.79-.46-4.13-.65-5.8-.37Z"/><path class="cls-4" d="M40.46,107.12h-.15s-.04,.16-.04,.16c-.04,.15-.06,.31-.06,.48,0,.81,.46,1.81,1.82,2.49,1.11,.55,1.87,1.16,1.87,1.16l.13,.64c.31,1.46,.69,3.28,1.72,3.11,.48-.08,1.09-.5,1.67-.91,.51-.35,1.03-.71,1.33-.74l.05-.41s-.15-.06-.25-.1c1.12-.23,3.22-.72,4.03-1.26l.17-.12-.12-.18c-.59-.89-1.66-1.61-1.71-1.64l-.36-.13-.24-.32c-.08-.11-2.1-2.75-9.88-2.24Z"/><path class="cls-4" d="M54.16,107.01l-.12,.07,.02,.14c0,.05,.24,1.31,1.15,2.06l.16,.14,.13-.16c.62-.75,.97-.65,1.5-.5l.86,.15c1.06,0,2.09-.73,2.13-.76l.15-.1-.08-.16c-.48-.97-1.16-1.58-1.99-1.82-1.07-.31-2.39,.01-3.91,.95Z"/><path class="cls-11" d="M54.63,106.8s4.14,.93,4.79,1.77l.7-.47s-1.3-3.77-5.49-1.3Z"/><path class="cls-11" d="M44.56,109.07s2.23,1.47,2.47,3.36c.55,.64,1.33,.6,1.33,.6,1.12-.2,3.81-1.03,4.44-1.5-.53-.73-2.01-2.08-2.01-2.08-.26,0-3.38,.44-6.23-.38Z"/><path class="cls-4" d="M50.1,115.87c-.75,.19-2.84,1.81-3.08,1.99l-.08,.06,.05,2.95,.16,.04c.69,.17,1.58-.21,2.3-.51l.46-.19v-.14c-.04-1.99,.44-3.92,.45-3.94l.09-.34-.34,.09Z"/><path class="cls-4" d="M53.1,114.38c-.65,.05-2.16,.72-2.62,1.35l-.02,.03v.03c-.49,1.38-.75,3.59-.75,4.06v.29l.28-.09c1.71-.57,2.5-1.1,3.14-1.52,.11-.07,2.67-1.79,2.03-3.61-.52-.6-1.51-.34-1.62-.31,0,0,0,0,0,0,0,0,0-.08,0-.08l-.05-.05c-.11-.11-.27-.11-.38-.1Z"/><path class="cls-24" d="M60.02,108.32l-.24,.2,1.31,.71,.09-.03s3.82-1.38,5.51-1.72l.11-.02,.04-.1c.16-.37,1.92-1.48,3.11-2.15l.52-.29-.59-.1c-1.65-.27-8.82,2.64-9.87,3.51Z"/><path class="cls-24" d="M28.05,98.5c0,1.62-.41,5.58-1.69,7.5l-.24,.35,.42-.03s3.47-.24,9.24-1.95c5.76-2.18,9.4-1.23,9.44-1.22l.17-.38c-1.8-1.22-6.23-.74-8.87-.46l-1.52,.13c-.68,0-1.85-.85-3.21-1.84-1.03-.75-2.2-1.6-3.44-2.3l-.31-.18v.36Z"/><path class="cls-24" d="M24.46,103.6c0,1.82,.5,2.92,.52,2.96l.11,.23,1.1-.77-.13-.17c-.83-1.1-1.18-2.29-1.19-2.3l-.41,.06Z"/><path class="cls-24" d="M49.98,104.54c.8,1.96,3.52,4.76,3.64,4.88l.15,.15,.81-.81-.03-.12c-.81-2.86-4.15-4.31-4.29-4.37l-.47-.2,.19,.47Z"/><path class="cls-24" d="M49.61,107.4c2,1.19,3.04,2.11,3.57,2.66l.34-.24c-1.11-2.3-3.7-2.82-3.81-2.84l-.1,.42Z"/><path class="cls-24" d="M59.53,109.57s-.35,.1-1.84,.8l-.34,.16,.32,.2c.77,.49,1.16,1.13,1.17,1.96,.07,4.3-9.91,11.97-12.38,13.64l-.06,.04-.02,.07s-.37,1.29-1.42,3.04l.3,.28c6.22-4.54,9.78-7.99,13.62-13.19,1.51-2.05,2.14-3.81,1.87-5.25-.23-1.2-1.03-1.71-1.06-1.73l-.07-.05-.09,.02Z"/><path class="cls-24" d="M56.93,111.41l-.23,.19,.26,.15c.5,.29,.78,.64,.85,1.05,.12,.72-.4,1.7-1.62,3.08-3.35,3.62-5.57,4.44-12.12,6.48l-5.89,1.54c-3.3,.8-4.8,1.17-7.11,2.87l-.6,.44,.74-.06c1.45-.12,2.51,.14,3.25,.81,1.23,1.11,1.44,3.28,1.48,5.45,.09,4.76,2.84,5.76,3.68,5.95l.18-.37c-1.84-1.56-2.32-3.64-2.32-5.87,0-1.19,.14-2.43,.27-3.65,0,0,.22-2.67,.24-2.95,8.36-2.5,14.57-5.86,18.99-10.28,1.1-1.1,1.65-2.15,1.65-3.14,0-.07,0-.13,0-.2-.09-1.14-.91-1.77-.95-1.79-.16-.16-.46,.05-.76,.3Z"/><path class="cls-24" d="M56.05,109.14c-.75,.61-1.29,2.06-1.14,2.7,.06,.27,.23,.34,.32,.36l.24,.05v-.25c.08-1.25,1.92-2.7,1.94-2.72l.27-.21-.31-.15c-.44-.21-.9-.14-1.33,.2Z"/><path class="cls-24" d="M53.22,110.46h0c-.74,1.26,.05,2.44,.18,2.56l.11,.1,1.1-.64v-.12c-.06-2.21,.47-2.44,.47-2.45l.19-.06-.03-.2c-.07-.24-.24-.39-.47-.42-.48-.06-1.08,.41-1.56,1.23Z"/><path class="cls-24" d="M47.28,114.53l-.12,.15,.15,.13c.5,.46,.37,.87,.23,1.3-.09,.28-.18,.57-.07,.84l.11,.29,.23-.2c1.32-1.19,5.36-2.96,5.4-2.98l.22-.1-.64-1.06-.16,.05s-1.06,.38-2.81,1.75c.35-.7,1.44-1.45,2.11-1.9,.55-.36,.7-.46,.7-.64v-.2l-.2-.03c-1.03-.08-4.17,1.41-5.14,2.59Z"/><path class="cls-4" d="M80.09,126.99l2.67,3.32s.34,1.26,.68,1.64c.48,.55,1.23,.62,1.83,.62,1.02,0,1.72-.04,1.72-.04l.7,.18c4.29,1.1,5.11,1.76,5.59,2.15l.49,.34,.04-.02c.51,0,.93-.51,1.52-1.22l1.48-1.67-.65,.15s1.85-.82,4.66-2.15c4.35-2.07,5.68-4.05,6.6-6.97l.69-2.47c.54-2.04,1.1-4.15,2.18-6.17,0,0-.43-.66,1.26-3.16,.72-1.64,1.07-3.34,1.07-5.04,0-2.86-1-5.71-2.96-8.25-3.09-4.02-7.94-6.4-11.8-5.81-6.96,1.08-19.39,7.3-23.33,15.38l-.61-.75-3.98,1.36-.55,.17s-.68,0-2.04,.43l-1.61,.45s-.41,.24-3.38,.95l-.24,.06,.09,.23c.21,.53,.32,1.08,.32,1.64,0,2.01-1.37,4.23-4.15,6.73l-.08,.07-3.25,3.16-2.55,2.21-.06,.41-.26,.21c-.08,.07-2.07,1.65-2.85,2.57l-.84,.62c-3.16,3.17-8.14,10.22-8.94,11.36-.21-.14-1.06-.74-1.06-.74v.39c-.02,.06-.11,1.38-.16,2.69l-.4-.1c-.26,.5-1.32,1.94-2.54,3.59-2.78,3.78-6.6,8.95-6.8,10.73-.02,.16-.03,.34-.03,.55,0,2.76,1.3,6.83,1.36,8.22,0,.04,0-.08,0-.12l-.4-.1c-.07,.15-1.8,3.62-1.28,5.31,.24,.56,.87,1.22,1.6,1.99,.85,.89,1.81,1.89,2.14,2.76,.6,1.54,1.61,2.24,3.36,2.32,.47-.1,.83-.12,.83-.12l.15,.19c.92,1.15,2.69,.87,5.9,.36,3.28,.45,3.95-.24,5.17-1.49,0,0-.93-.69,.77-1.64,7.92-4.92,10.72-11.93,12.39-16.11l.83-1.98-.33-.24s-.48,.36,.43-.47c2.19-1.98,4.75-5.94,7.41-9.78l2.56-3.66,2.12-2.06c1.66-1.66,2.04-2.79,2.04-3.48,0-.3-.07-.52-.14-.66-.04-.08-.14-.47-.14-.47l-.04-.14c-.16-.62-.23-1.21-.23-1.79,0-3.4,2.45-5.97,3.99-6.65l.25-.11,.28-.31,.49,.43Z"/><path class="cls-25" d="M49.29,128.23s1.59,2.59,2.19,3.84c-1.42-1.51-2.29-2.84-2.29-2.84,0,0-.42-.95,.1-1Z"/><path class="cls-25" d="M75.48,132.02s-5.65,7.18-5.85,8.51c1.57-.15,5.85-5.11,5.85-5.11v-3.39Z"/><path class="cls-11" d="M62.2,112.63s2.7-1.46,3.4,6.11c.33-7.13,1.35-8.38,1.35-8.38,.16,5.94,.43,10,.59,9.84,.59-3.84,1.73-7.4,3.89-10-1.03-1.3-4.32-1.51-6.11-1.08-1.78,.43-4.65,.32-3.13,3.51Z"/><path class="cls-25" d="M66.69,109.76s2.86,.22,3.62,1.73c1.89-2.27,3.89-4.32,3.89-4.32-2-.54-7.57,1.35-7.51,2.59Z"/><path class="cls-11" d="M91.28,102.48s-4.47,1.42-4.74,1.42c-.87,.44-2.94,5.34-2.83,6.37,2.02-2.83,2.78-3.38,4.58-4.47,1.8-1.09,5.72-3.32,5.94-3.92-.44-.49-2.94,.6-2.94,.6Z"/><path class="cls-11" d="M88.07,100.08l1.09-2.29c-.54,0-6.05,4.09-5.61,8.61,2.29-3.7,3.05-4.63,4.52-6.32Z"/><path class="cls-11" d="M82.46,111.64l-1.47-1.96c-.27,.65-1.03,4.19-.87,5.61,1.47-2.18,2.34-3.65,2.34-3.65Z"/><path class="cls-25" d="M92.6,130.52l-2.4,3.36c-1.92-.62-3.31-1.25-3.31-1.25,1.92-.72,5.71-2.11,5.71-2.11Z"/><path class="cls-11" d="M108.24,96.7s4.13,7.92-1.05,10.36c-4.13,.82-8.25-.86-8.25-.86-1.87,1.1-6.38,5.23-5.08,6.86,1.3,1.63,6.52,3.02,8.25,3.36-4.61,2.21-8.78,3.84-8.78,3.84,0,0-5.37,6.19-5.61,6.96-.77,.05-2.21-1.2-2.21-1.2-.58,1.3-1.97,5.23-2.54,6.04,1.78,1.2,4.08,.62,9.11-1.25-1.73,2.4-2.01,2.97-2.01,2.97,2.01,.72,3.5,1.44,3.93,1.44s2.01-2.16,2.97-2.97c1.97-.91,8.83-3.31,10.03-7.44,1.2-4.13,2.06-7.34,3.55-11.27,.91-2.25,3.26-4.03,1.54-10.94-1.73-4.75-3.84-5.9-3.84-5.9Z"/><path class="cls-25" d="M78.07,125.58s-2.5-1.01-2.73-.96c-1.01,1.01-2.35,4.94-2.35,4.94,3.41-3.45,5.09-3.98,5.09-3.98Z"/><path class="cls-25" d="M108,116.32s-.48,3.17-2.06,4.41c-2.45,.82-8.15,3.74-10.03,4.32,4.37-2.69,8.83-4.75,12.09-8.73Z"/><path class="cls-25" d="M66.9,144.27s-1.88,5.08-13.9,9.74c4.06-4.06,8.37-8.17,11.52-8.93,1.88-.76,2.39-.81,2.39-.81Z"/><path class="cls-25" d="M41.44,174.39s1.84,2.49,4.21,1.72c2.86-1.84,3.51-1.84,3.51-1.84-2.12,2.33-3.84,4.25-6.29,3.43-2.86,.45-6.37,.82-6.78-.61,2.53-1.55,5.35-2.7,5.35-2.7Z"/><path class="cls-25" d="M57.89,119.96c-.08,.03-.54,.23-1.65,1.69l-.07,.09,.03,.1c2.65,8.01,8.89,16.69,10.42,18.22l.33-.26c-7.51-12.09-8.78-19.61-8.79-19.68l-.04-.24-.23,.08Z"/><path class="cls-25" d="M55.73,122.02l-.38,.61v.06c-.07,2.51,0,5.22,.14,6.04,1.48,2.66,5.88,7.73,9.89,10.85l.3-.29c-4.34-5.96-7.47-10.77-8.65-14.89l-.16-.54-.24,.51c-.18,.39-.24,.88-.24,1.36,0,.08,0,.15,.01,.22-.23-1.14-.29-2.67-.29-3.55,0-.1,0-.18,0-.26v-.76s-.39,.64-.39,.64Z"/><path class="cls-11" d="M28.95,160.93s2.72,6.93,4.39,7.86c-.68,2.35-.73,3.88-.73,3.88-.76-.91-2.68-7.9-3.67-11.73Z"/><path class="cls-11" d="M32,174.96s1.77,.92,2.69,.48c1.07-.88,1.58-2.28,3.76-2.5,2.17-.22,7.81-.88,8.32-1.11,.52-.22,4.13-5.23,4.75-6.92,0,0-8.73,6.78-14.62,6.19-2.21-.63-2.58-6.26-2.5-9.98,2.32,4.6,3.24,7.07,4.16,7.29,1.1,.18,16.9-11.2,19.48-15.58-6.59,3.28-11.9,6.44-15.69,5.01-3.79-1.44-2.76-9.83-2.76-9.83,2.28,3.46,4.46,6.37,6.19,6.19,1.77-1.21,8.47-11.12,10.02-11.67,1.55-.55,8.91-.88,10.02-1.29-6.08-.41-14.77-3.94-16.65-12.3,3.02,4.01,6.15,7.59,13.07,8.18,2.84,2.32,3.76,2.98,5.3,3.17,.37-.51-.88-7.22-.88-7.22,1.03,.99,1.03,.63,1.03,.63,0,0,5.16-8.88,7.96-18.3-1.44,8.62-3.02,13.48-3.65,14.99,2.14-2.58,5.16-4.94,5.52-4.97,.37-.04,.88,0,.88,0,1.22,1.51,1.06,1.53,1.06,1.53-.98,.32-3.23,1.53-4.48,6.28-.74,.7-4.79,6.78-5.05,7.26,1.14-.88,5.3-4.71,5.49-4.82,.26,.15,1.18,2.13-2.8,5.3-2.03,.99-6.92,3.76-6.92,3.76-1.03,.33-4.46,2.25-4.79,2.54-1.95,1.69-6.26,6-6.78,6.22,5.08-2.69,10.53-5.93,12.12-8.76l.96-.63s-3.06,8.1-13.33,17.31c1.8-.55,3.24-1.95,3.24-1.95-1.14,3.79-3.5,9.72-6.52,13.3-1.69,1.92-7.62,4.9-9.35,4.46-1.1-.44-.7-1.25,.33-2.95-2.32,1.33-5.38,2.65-5.89,3.13-1.4-.04-3.71-.26-3.68-2.4Z"/><path class="cls-15" d="M79.86,127.52c-1.72,1.03-1.21,3.28-.67,5.67,.3,1.3,.6,2.65,.57,3.87h0c-.1,3.57,.11,5.05,1.58,6.83l.1,.12,.14-.05c2.33-.88,3.42-.26,4.93,.58l.11,.06,.11-.06c1.47-.89,2.26-4.75,2.68-7.83l.04-.29-.28,.05s-1.34,.23-3.73-.3c-1.63-.7-4.03-3.38-4.05-3.4,0,0-1.21-2.08-1.21-3.92,0-.34,0-.65,.02-.91l.02-.6-.33,.2Z"/><path class="cls-22" d="M83.05,137.33s1.77,1.63,4.54,.07c-1.47,1.34-2.19,1.93-2.91,2.19-.59-.52-1.28-1.11-1.64-2.26Z"/><path class="cls-5" d="M81.97,135.79s1.39,2.78,2.24,3.26c-1.55-.37-3.31-1.39-3.31-1.39,.32,1.28,.37,6.2,.37,6.2-1.71-2.3-1.55-3.79-1.5-5.88-.05-2.14-.43-3.95-.85-5.42-.43-1.47-.86-3.98,1.17-5.48,.53,2.72,0,4.43,1.87,8.71Z"/><path class="cls-12" d="M75.72,131.22c-1.21,1.11-.69,3.28-.08,5.78l.11,.47h0c.28,1.15,.15,2.22-.02,3.57-.21,1.71-.48,3.84-.03,7.11,.92,5.74,3.52,6.9,4.59,7.14,.68,.15,1.29,.04,1.49-.26l.2-.3-.36-.03c-.9-.07-1.73-.54-2.45-1.4-2.13-2.52-2.85-7.75-2.66-9.97l.24-2.23c.2-1.72,.35-2.96,.05-3.99-.96-3.81-.74-5.69-.74-5.71l.07-.57-.42,.39Z"/><path class="cls-19" d="M76.36,130.2c-.77,1.79-.09,4.48,.36,6.26,.19,.73,.36,1.43,.32,1.67,0,0-.04,.19-.04,.19-.93,5.14-.5,8.1,.04,10.26,1.14,4.53,3.15,5.76,3.73,6.03,.43,.2,.81,.24,1.08,.1,4.03-2.36,4.81-6.54,5.23-8.79l.22-1.07-.14-.08c-2.4-1.29-4.15-1.45-5.52-.56-1.26-.84-1.9-2.48-1.9-4.9,0,0,0-.9,0-1.05,0-2.08-.04-3.05-.6-5.73-.31-1.01-.42-1.84-.42-2.53,0-1.92,.89-2.67,.95-2.71l-.2-.36c-.08,.03-1.98,.71-3.1,3.29Z"/><path class="cls-10" d="M76.32,130.61l1.28-.68c.26,.81,0,2.47-1.53,3.44-.13-1.61,.26-2.76,.26-2.76Z"/><path class="cls-21" d="M78.51,135.36s-.45,2.08-1.47,2.98c-.3-1.4-.49-2.53-.49-2.53,0,0,1.21-.75,1.96-.45Z"/><path class="cls-21" d="M85.57,144.12s-4.12,1.85-4.23,2.3c-.6,1.47-.38,8.23-.38,8.23,.79,.26,3.06-1.13,4.23-3.29,1.17-2.15,2.04-5.74,2-6.72-.6-.3-1.62-.53-1.62-.53Z"/><path class="cls-15" d="M30.81,176.36c-1.12,.44-3.22,5.79-3.37,9.3v.23s.22-.01,.22-.01c3.92-.19,5.31,1.46,6.22,2.56l.3,.36,.16-.21s.39-.51,1.94-1.9c3.14-2.63,3.59-3.71,4.34-5.5l.87-2-.64,.49s-1.27,.61-1.27,.61h-.62c-.38,0-.98,.05-.98,.05h-.7c-5.76-.04-6.18-3.64-6.19-3.79l-.03-.28-.26,.1Z"/><path class="cls-5" d="M30.84,176.4s.1,3.31,1.33,6.62c1.33-.1,2.91-.1,2.91-.1,.35,.64-.1,2.17-5.04,3.06-.64-.1-2.72-.1-2.72-.1-.25-1.04,1.19-7.6,3.51-9.48Z"/><path class="cls-22" d="M31.23,179.46s.25,2.37,3.85,3.46c-2.76,.3-2.86,.3-2.86,.3,0,0-.94-.64-.99-3.75Z"/><path class="cls-19" d="M25.61,185.07s-.09,.28-.09,.29c-.79,1.86-1.65,4.25-1.65,6.89,0,.44,.02,.88,.08,1.33,.16,1.4,.55,2.28,1.21,2.68,.75,.47,1.72,.27,2.93-.17,5.01-2.24,7.98-4.47,8.82-6.65,.61-1.56,2.06-3.83,3.45-5.39,1.34-1.51,2.01-2.85,2.31-4.62l.03-.17-.16-.06s-.46-.15-1.11,.36l-.06,.05-.02,.07c-.71,3.14-2.89,5.16-5.43,7.5,0,0-1.48,1.4-1.77,1.67-2.17-3.15-5.35-3.13-6.64-3.06-.01-.15-.03-.3-.03-.46,0-2.91,1.97-7.27,1.99-7.32l-.35-.23c-1.76,1.99-2.77,5.06-3.52,7.29Z"/><path class="cls-10" d="M30.15,186.18s-4.25,4.2-5.43,7.6c.05-3.65,1.97-7.85,2.62-8.35,.05,.3,.2,.4,.2,.4,1.09,0,1.63,.35,2.62,.35Z"/><path class="cls-21" d="M33.65,188.25l-.79,2.03c-1.88-.94-3.16-1.78-3.85-1.43-.74,.84-3.51,6.81-3.46,7.75,1.38,.25,4.35-.84,6.17-2.12,1.83-1.28,4.89-3.01,5.53-5.97,2.17-2.86,3.9-5.13,4.54-5.97,.64-.84,1.28-2.81,.69-3.6l-1.23,.74c-.2,.99-.89,2.47-2.37,4.64-2.37,2.17-4.69,4.49-4.69,4.49-.15-.2-.54-.54-.54-.54Z"/><path class="cls-12" d="M23.33,191.65c-.09,1.28-.23,5.5,1.63,6.04h.02c1.99,.43,6.02-2.13,6.19-2.24l.61-.39h-.72c-.35,0-.97,.27-1.75,.62-1.19,.53-2.83,1.25-3.74,1.03-1.24-.29-1.48-2.33-1.72-4.31l-.09-.77h-.42Z"/><path class="cls-23" d="M66.78,4.47c3.85,15.41,1.7,21.58-.39,27.55l-.64,1.84,.19,.07c3.93,1.56,6.22,3.44,7.88,6.49l.22,.4,.16-.42c1.52-3.87,2.5-7.54,1.33-19.5-1.14-11.82-8.36-16.61-8.44-16.66l-.45-.29,.13,.52Z"/><path class="cls-23" d="M47.58,10.58c5.16,8.84,5.42,18.64,5.42,20.48,0,.07,0,.07,0,.12-.63,.02-1.95,.32-3.09,.6l.03,.41c1.32,.1,5.65,.77,9.85,2.62l.21,.09,.07-.22c3.86-11.86-12.03-24.25-12.19-24.37l-.31,.27Z"/><path class="cls-23" d="M30.15,44.93c-1.15-.06-13.17-.67-18.83-.17v.42c14.57,1.25,23.15,4.37,24.09,4.73l.71,.27-.47-.6s-1.61-2.05-2.49-3.42c1.93-13.23,16.09-15.96,16.23-15.99l-.04-.42c-12.84-.08-17.68,10.47-19.2,15.18Z"/><path class="cls-23" d="M1.73,52.41l-.44,.06,.33,.3c2.18,2,7.04,2.95,9.05,2.51l-.04-.42s-2.68-.02-5.21-1.35c7.53,1.62,26.48,1.35,27.34,1.33h.12s.87-1.41,.87-1.41l-.16-.11c-.05-.04-1.3-.91-5.24-2.14-8.81-.73-20.86,.42-26.6,1.22Z"/><path class="cls-23" d="M21.47,62.68l-10.27,2.02,.03,.42c.11,0,11.3,.7,16.77,.88l.09-.4-6.56-2.92h-.07Z"/><path class="cls-23" d="M33.43,71.49s-1.28,.81-5.85,2.88l.14,.39,8.52-2.37-.02-.41-2.72-.54-.07,.05Z"/><path class="cls-23" d="M83.17,49.95l-.1,.03-.04,.1s-.2,.48-1.48,2.6l-.36,.59,.63-.29c.52-.24,.94-.57,1.35-.88,.8-.61,1.49-1.14,2.75-1.03h.06s.05-.02,.05-.02c5.08-2.54,9.25-8.26,9.29-8.32l-.32-.27c-5.77,5.85-11.78,7.48-11.84,7.49Z"/><path class="cls-23" d="M76.03,52.49c-1.22,0-6.24,.81-8.47,2.59l.2,.36c4.13-1.38,8.57-1.22,8.62-1.22h.13s.06-.11,.06-.11c.04-.08,.43-.84,.15-1.3-.09-.15-.28-.32-.69-.32Z"/><path class="cls-23" d="M63.96,47.75l.02,.42c9.83,.85,11.24,1.84,11.3,1.89l.33,.25,.02-.41c.02-.58-.21-1.08-.68-1.48-2.04-1.75-8.07-1.2-10.98-.66Z"/><path class="cls-23" d="M65,44.42l.06,.41c2.9-.08,5.67,1.2,5.7,1.21l.43,.2-.14-.45c-.56-1.83-2.59-2.29-6.05-1.37Z"/><polygon class="cls-23" points="81.38 58.4 79.59 60.18 79.82 60.53 82.46 59.43 81.55 58.22 81.38 58.4"/><path class="cls-10" d="M80.15,144.55s-1.57,2.85-1.32,6.93c-.77-4.17-.81-8.97-.6-9.95,1.19,1.95,1.91,3.02,1.91,3.02Z"/><path class="cls-20" d="M103.26,124.72s-8.68,5.47-18.28,6.57c8.25-2.21,15.4-5.04,18.28-6.57Z"/><path class="cls-11" d="M85.22,110.69l-1.39,5.71-2.28-.33,3.67-5.38Z"/><path class="cls-5" d="M75.38,77.19s4.44-.89,5.14-1.68c-.14-.84-5.37-2.06-5.14,1.68Z"/><path class="cls-16" d="M83.27,67.98s.64,2.71-2.28,2.17c1.62-.54,1.99-.62,2.28-2.17Z"/><path class="cls-20" d="M70.01,83.54l-.87-3.3c0,.06,.5,5.75,2.85,10.57l-1.98-7.27Zm13.7-19.11c.3,.76,2.4,3.44,3.36,3.9l.43,.04c.99,.09,2.65,.24,3.24,.5-.03-.7-1.62-.83-3.16-.95l-.71-.06c-.5-.65-3.14-3.41-3.17-3.44Zm10.02-2.18c-.24-.71-1.56-1.14-1.57-1.14,0,0,.82,.96,1.57,1.14Zm-8.63,1.14c1.23,0,2.18-1.27,2.19-1.29-2.14,1.17-2.99,.64-3.62,.05,0,.17,.03,.5,.25,.78,.24,.3,.64,.46,1.18,.46Zm16.04,29.03c-5.47-1.14-12.26,2.95-15.07,4.23,0,0,.51-.65,.53-1.03-.2-1.06-1.06-1.87-1.25-2.49-.19-.62,0-1.62,.67-2.52,5.47,1.23,7.94-.24,10.22-1.47,4.89,.24,6.13-.05,7.98-1,3.66-.57,3.23-2.57,2.52-4.28,2-7.6-2.61-9.79-5.13-11.46-.95-3.04-1.57-2.9-2.38-4.04,.14-2.14,.09-2.85-1.14-3.04,.86-4.47-1.81-4.55-1.81-4.55,.35-1.25-.09-2.76-1.07-3.2-.98-.45-2.49-.71-3.65,.44-1.16,1.16-1.34,1.6-2.67,2.76,0,0-.53-.09-1.34-1.07,0,0,2.4-1.78,3.2-2.67,0,0-1.42,.8-3.11,.89v-1.96c5.07-5.7,8.63-13.08,10.86-18.07-2.05,2.22-6.94,6.14-12.99,9.34,7.56-10.14,8.99-20.38,7.83-23.85,.27,11.3-5.78,20.38-8.99,23.67,0,0,2.67-7.47,3.2-10.06,.53-2.58,.27-5.16-2.4-11.21C76.71,11.12,71.91,5.16,63.81,0c3.11,9.34,3.03,23.67,1.07,29.28,0,0,0-5.87-2.05-9.97-2.05-4.09-12.81-9.7-20.38-12.9,5.61,6.32,8.45,16.46,8.36,22.25-4.54-8.54-13.26-16.11-15.66-15.4,8.99,3.83,15.4,16.11,15.4,16.11-2.54-.51-9.24,.75-13.52,4.32-4.28,3.56-5.99,7.03-7.13,10.79-3.99-2.19-17.11-6.7-19.49-6.27,14.78,3.99,17.3,6.18,17.3,6.18,0,0-13.45-.14-21.29-.14,3.56,1.09,13.21,4.99,16.83,6.42,0,0-17.25,.76-23.24,1.66,6.46,4.37,20.44,10.27,20.44,10.27,0,0-4.04,.9-11.22,2.19,1.38,.86,20.01,5.51,23.81,6.56-.19,.48-5.09,2.33-8.46,3.94,0,0,13.93,.57,15.35,.57s1.95,.67,2.19,1.24c.19,.52,.67,3.04,1.28,5.47-.95-.05-5.32-2.61-6.04-2.66-.71-.05-1.33-.09-2.23,.71-.86,0-18.82-8.08-22.43-9.55,0,0-2.14-.24-3.14,2.52-1,2.76-.05,3.66,1.71,4.56,1.66,.76,20.48,8.7,20.48,8.84,0,0,0,1.81,.67,2.47,.66,.67,4.99,2.61,4.99,2.61,0,0-1.28,1.76-1.66,2.47-.38,.71-.19,1.14,1.33,3.28-1.05,2.66,.14,4.42,.14,4.42l-1.9-.1c-2.09-.48-5.61-3.9-7.46-4.37-.09,2.19-.9,5.09-1.38,7.46-1-.38-1.85-2.23-2.14-3.33-1.14,2.8,.24,5.13,1.62,6.32-1.47,1-2.85,3.52-2.85,3.9s-.71,.9-1.33,2.04c-.62,1.14,0,1.81,.95,2.57,.95,.76,.9,2.09,.76,3.23-.14,1.14,1.09,1.57,1.85,1.66,.76,.1,2.14,2.38,2.28,2.76,.14,.38,3.18,.14,3.75,.33,.1,.24,.33,.38,1.66,.57-1.76,.57-3.42,2.04-3.14,2.61,.66-.52,2.52-.71,4.09,.28,1.57,1,1.52,3.52,1.43,6.56-.09,3.04,2.8,4.47,2.8,4.47,0,0,0,.24-.09,1.9-1.95,1.95-9.7,13.55-9.89,15.11-.19,1.57,.48,5.28,1.09,7.22-.19,.57-1.28,4.28-1.38,5.61-.1,1.33,.29,2,1.33,3.09,1.05,1.09,1.24,1.95,1.38,3.61-2.33,1.76-4.28,5.51-4.85,7.7-.57,2.19-2.71,5.04-2.71,9.31s.95,4.99,1.52,5.18c.57,.19,2,.19,4.75-1.19,3.85-2.23,6.23-4.66,7.32-6.56,1.09-1.9,2.57-3.8,4.33-5.85,1.76-2.04,1.47-3.18,1.8-4.61,0-1.19,.29-1.33,.62-1.62,0,0,.71,.28,1.85-.05,.86-.33,3.37-2.47,8.03-7.32,4.66-4.85,6.56-10.31,8.79-14.83,2.19-3.56,7.94-10.98,9.55-12.98,1.24-1.95,2.9-3.71,4-4.42,.24,1.05-.63,4-.31,7.44,.62,6.69,2.82,9.08,5.11,9.56,2.28,.48,5.37-4.6,5.94-5.78,.57-1.19,.86-3.85,1.05-5.23,.9-1.85,2.04-6.13,2.28-7.94,.95-.47,2-.95,2.57-1.33,.57-.38,.81,.19,1.52,.19s1.43-.76,2.47-2.09c1.05-1.33,2.33-1.57,2.95-1.81,6.37-2.61,7.7-4.85,8.65-8.55,.95-4.71,2.33-7.03,2.66-8.79,.33-1.76,2.33-1.85,2.38-8.74,.05-6.89-6.32-11.88-11.79-13.02Zm-75.97,14.05s-.5-1.1-.5-2.87c0,.01,.37,1.23,1.22,2.37l-.72,.5Zm55.7-18.82l.41-.69c-1.87-.55-2.33,.41-3.07,1.68-.56-.14-3.64-4.95-5.03-7.53,.07-2.1,3.12-9.51,3.15-9.59,.59-.54,1.51-.76,2.06-.7,.23,.03,.4,.1,.47,.22,.98,1.95,1.7,2.06,2.8,2.22l.97,.18c.47,2.23,.76,2.46,1.2,2.9l.31,.26c-.27,0-1.91,1.01-2.95,1.84,0-.47,1.12-1.34,2.05-2.05-4.02,2.29-4.18,3.6-4.31,4.66,.73-.82,3.51-3.46,5.48-4.31,.86,2.83,1.92,4.26,3.63,4.93,1.52,5.57,5.09,6.98,7.7,7.43-6.6,3.27-13.19,.06-14.88-1.44Zm1.7,1.67s-.36,1.37-1.71,1.3c-.88-.07-2.25-1.7-2.26-1.71,.23-.51,.9-1.71,2.05-1.71l-.27,.82,2.19,1.3Zm-5.69-18.77c0-.78,.36-1.66,.55-1.92,0,0,.89,.76,.96,1.64-.47,0-1.5,.27-1.51,.27Zm24.77,2.6s2.29,.95,3.8,3.03c1.81,2.51,2.08,5.39,.31,8.87l.58-.65s.31,.51,.44,.94c.2,.71,.09,1.67-1.61,2.18l-.84-.06s-2.08,1.61-6.8,1.25c-5.06-.38-7.37-2.14-8.83-6.74,1.53,.35,2.79,.36,2.8,.36l.25,.27c.21,.26,.5,.62,.82,.74l-.64-1.07c.05,0,5.8-.17,8.34-4.35,.59,.41,1.66,2.35,2.09,3.46,0-1-1.48-3.67-1.49-3.7,.24,.12,1.79,2.34,2.21,4,.29-1.1-1.29-3.99-2.27-4.6,.83-1.53,.84-3.9,.84-3.92Zm-2.44-4.19s2.48,2.69,1.79,6.05c-.46,2.26-2.52,7.42-11.64,6.45-2.34-.66-3.55-1.81-4.18-3.98,2.12,1.37,3.24,1.35,5.1,1.31-1.84-.18-6.68-1.45-7.04-5.18l1.01-.04s2.09,2.51,5.91,2.48c3.78-.04,5.41-2.41,6.65-4.64l1.93-1.39s.23,.65,.23,1.25c0,.18-.02,.37-.07,.53,.56-1,.3-1.96,.3-2.85Zm-14.29,4.62h1.74s1.39,1.09,1.51,1.7c-1.49-.15-3.23-1.68-3.25-1.7Zm13.49-7.64c.27,.23,.41,.63,.42,1.19,.23,2.33-1.19,3.12-1.2,3.13-2.36,1.31-3.47,.87-3.98,.27-.2-.24-.52-.69-.4-1.1,.08-.27,.35-.47,.79-.6,1.95-.65,3.79-2.29,3.79-3.09,0,0,.31-.03,.58,.2Zm-1.35-4.43c.36,.25,.81,.87,.87,2.41,.1,2.39-2.56,3.89-3.43,4.39-.56,.31-1.38,.32-2.09,0-.57-.25-.96-.65-1.06-1.1-.17-.74,.31-1.03,.91-1.39l.76-.51s1,1.2,1.33,2c.14-1.08-.94-2.32-.95-2.34,1.89-1.09,2.32-2.32,2.62-3.58,.38-.13,.74-.09,1.04,.12Zm-5.75-2.55c.45-.95,1.99-1.59,3.1-1.29,.57,.15,1.5,.69,1.33,2.53-.33,3.63-3.92,5.51-3.96,5.53-.39,.05-1.69-1.12-2.34-2,0,.91,1.09,1.78,1.81,2.35l.1,.08c-1.11,0-2.36-.58-2.7-1.96,.99-1.61,1.6-2.82,2.1-4l.55-1.24Zm-3.53,2.29c.14-.19,.28-.28,.41-.25,.32,.07,.51,.84,.64,1.35l.07-.16c.27-.65,.65-1.53,1.22-1.79-.03,.76-.55,1.64-1.02,2.41-.35,.58-.66,1.09-.7,1.46-.09,.86,.81,1.71,1.48,2.05l.08,.04c.62,.31,.93,.46,1.11,1.05,.17,.55,.26,.61,1.33,1.34l.48,.33c-3.36,.47-4.9,1.28-5.96,2,.67,.04,2.41-.65,3.45-1.07l.55-.22c.76-.28,1.33-.43,1.86,.24,.72,1.35,1.49,1.85,3.52,1.19-1.91,4.25-5.18,4.65-6.57,4.3-.71-.25-1.78-1.21-2.81-2.14-1.13-1.02-2.2-1.98-2.77-2.01,.34,.48,1.4,1.3,2.24,1.81-.12,0-2.85,.09-4.72-.24-1.96-.34-2.86-2.75-2.81-4,.52,0,2.63-.31,3.32-1.7,.7-1.41-.04-2.54-.8-3.07,0-.02,.68-1.48,1.43-1.91-.28-.33-.1-2.32-.1-2.34,1.01,.83,2.01,.87,2.67,.76,.85-.15,1.52-.72,1.75-1.11l.21,.26c.11,.11,.46,.52,.42,1.43Zm-3.29-9.87c.84-.2,1.46-.12,1.91,.26,.91,.78,1.15,2.85,.81,6.93-.1,.81-1.02,1.57-2.1,1.73-.58,.09-2.01,.1-2.82-1.69-.01-.06-.38-6.63,2.19-7.25Zm-1.25-1.22c.06-.02,6.12-1.65,11.94-7.55-.04,.06-4.18,5.74-9.22,8.25-1.34-.12-2.1,.46-2.9,1.07-.4,.31-.81,.62-1.31,.86,1.3-2.17,1.49-2.63,1.49-2.63Zm-1.7,8.39l.6,.79-2.38,.99,1.79-1.79Zm-2.47,4.99l.15,.04c1.64,.64,2.45,1.17,2.71,1.77,.22,.52,.02,1.09-.24,1.73-.67,1.63-2.59,1.57-4.04,1.03l-.93-.46c-1.57-.75-2.71-1.3-2.77-2.96-.03-.87,.36-1.61,1.06-2.05,.69-.43,1.57-.49,2.23-.14,1.06,.89,1.56,1,1.83,1.06Zm-8.41,5.06c.66-.66,2.77-1.77,3.79-1.9,.02,.01,2.03,.99,2.09,1.7-1.58,.48-4.52,2.23-5.95,3.53,.19-1.81,.07-3.32,.07-3.33Zm5.89-15.67c.22,.37-.15,1.09-.16,1.1-.04,0-4.53-.16-8.69,1.23,2.19-1.75,7.14-2.55,8.34-2.55,.25,0,.42,.07,.51,.22Zm-1.73-4.35c.42,.36,.62,.8,.61,1.32-.01-.01-1.35-1.06-11.41-1.93,2.87-.53,8.83-1.08,10.81,.61Zm-9.75-3.95c3.33-.89,5.28-.47,5.79,1.23-.03-.01-2.84-1.32-5.79-1.23Zm1.54-12.53c2.1-6,4.26-12.2,.4-27.67,.07,.05,7.21,4.79,8.34,16.5,1.16,11.91,.19,15.55-1.32,19.4-1.69-3.1-4-5.01-7.99-6.58l.57-1.65Zm-13.39-.72s0-.12,0-.31c0-1.86-.26-11.7-5.45-20.58,.16,.12,15.93,12.43,12.11,24.14-4.23-1.86-8.59-2.53-9.92-2.63,2.81-.7,3.25-.62,3.25-.61ZM11.33,44.98c5.9-.52,18.83,.17,18.96,.18,1.45-4.59,6.21-15.27,19.05-15.19-.15,.03-14.51,2.79-16.42,16.24,.87,1.39,2.53,3.49,2.55,3.51-4.21-1.59-13.06-3.79-24.14-4.74Zm-.09,19.93l10.27-2.02,6.5,2.9c-5.47-.17-16.66-.87-16.77-.88Zm-7.11-11.94c2.86,2.08,6.46,2.11,6.5,2.11-1.97,.43-6.73-.5-8.87-2.46,5.73-.79,17.77-1.95,26.51-1.23,3.91,1.21,5.17,2.1,5.18,2.11l-.7,1.14c-.22,0-22.37,.33-28.62-1.67Zm23.53,21.6c4.6-2.08,5.87-2.89,5.88-2.9l2.63,.53-8.52,2.37Zm15.13,2.56c-1.16-1.22-1.43-2.75-.75-4.2l.52-.92c.36-.57,.58-.92,.3-1.73,.06,1.14-.64,1.97-1.85,2.17-2.15,.36-6.21-1.36-7.98-7.53-1.71-5.96-.09-9.68,1.03-11.37,1.12-1.69,2.69-2.81,4.19-3,1.07-.13,2.06,.17,2.96,.89,1.61,1.29,2.5,3.65,2.67,5.42,1.93-1.41,2.79-2.37,2.64-2.94-.09-.33-.52-.51-1.35-.59-.42-.9,.7-2.73,1.69-4.34,1.08-1.76,.76-2.22-.14-3.18,0,0,.01-.7,1.08-2.51l.11-.22c.98-1.97,1.1-2.22,4.7-2.28,7.77-.54,12.56,2.88,12.61,2.91l-3.46,.54c-.78-1.1-1.47-1.63-2.1-1.63-.22,0-.68,0-2.1,1.42l1.08,.95c.92,.74,1.97,1.58,2.44,2.85-2.53-.67-3.85,1.17-4.3,1.99-.68,1.24-.79,2.57-.44,2.89,.52-2.3,1.27-3.7,2.29-4.26,.95-.52,1.97-.23,2.93,.12,.81,.61,2.84,5.48,3.12,7.19,0,0-.31,.03-.55,.31-.22,.27-.31,.66-.26,1.19,.04,.52,.19,.84,.46,.96,.41,.19,.96-.21,.97-.21,0,0,0,.29,.27,1.69,.18,0,.83-.1,1.56-1.42,.21,.53-.16,1.23-.42,1.73l-.19,.37c.9-.69,1.21-2.21,1.08-2.98-.45,.1-.8,.57-1.12,.98-.29,.38-.55,.72-.78,.58,0-2.93-.78-6.96-1.56-9.42,1.89,.39,5.76,2.22,6.03,3.19-.87-.2-4.54-.08-4.81,.75,2.04-.51,3.85-.63,5.22-.34-.04,.01-3.94,1.1-4.68,2.51,4.73,.03,7.13,.47,7.8,1.43,.42,.6,.14,1.36-.16,2.17l-.39,1.28s-.14-1.83-.95-1.83-3.88,1.85-4.54,2.64c.02,0,2.31-.81,2.91-.54-.31,.26-.45,.91-.41,1.39,.02,.26,.1,.45,.21,.51,.35,.04,.63-.06,.84-.29,.46-.5,.43-1.51,.38-1.81,.58,0,.97,.12,1.16,.36,.16,.19,.12,.39,.12,.39-.25,.71-.86,1.71-1.45,2.67-.55,.89-1.06,1.73-1.26,2.28v.38c.02,1.32,.07,5.36-.41,6.2-.02,0-2.11-.4-3.05-.14-.02,.03-2.46,2.66-4.47,4.13-2.3,.63-3.56,1.45-5.15,2.48l-.88,.57c-1.16,.08-2.83-.79-4.43-1.64-1.21-.63-2.45-1.29-3.5-1.55l.34,.58c1.11,1.91,1.92,3.29,4.81,4.64-1.61,1.2-1.83,1.48-2.17,2.71-.25,.9-.5,1.18-1.26,2.01l-1.05,1.18s.73,.26,1.4,.26c1.41-6.04,9.5-10.23,10.87-10.15l-.42,.39c-.67,.59-1.92,1.68-2.23,2.66-.18,.58-1.84,5.78-3.66,9.56-1.92,3.99-1.91,4.59-2.1,5.76-1.91-.78-2.47-3.41-2.03-5.49l-.06,.28c-.15,.64-.45,1.96-.28,3.72-4.3-2.59-4.71-3.59-5.51-5.59l-.18-.44c1.32-1.38,2.62-1.97,4.34-1.97-1.17-.74-1.5-1.71-1.96-3.05,0,0-.14-.41-.14-.38,.07,.73,.14,1.55,.88,3.16l-.15,.04c-.39,.09-1.32,.3-1.95,1.05-2.21-5.29-2.97-10.45-2.98-10.51Zm1.83,11.18c-.54-1.07-.21-2.9-.2-2.91,.4,1.68,.81,2.43,.81,2.44l-.61,.48Zm-.95-4.34c-.02,.08-2.22,8.39,9.83,12.88-.07-1.63,.54-3.06,1.56-5.42l.66-1.53c1.31-3,3.5-8.03,3.61-9.05,.89-1,2.81-2.84,4.5-4.47,1.41-1.36,2.74-2.64,3.3-3.26l1.91-.07c.16-.02,.23-.03,.24,0,0,.02-.03,.06-.11,.14l-3.84,4.26c-1.04,1.1-1.66,1.77-1.99,2.38-.67,1.26-3.53,7.98-3.86,11.39l2.18-5.53c1.39-3.55,2.31-5.89,2.63-6.27,.26-.36,.83-.93,1.56-1.66,1.21-1.21,2.72-2.71,3.65-4.1,1.89-2.23,6.18-4.6,7.19-4.88-1.52,3.83-4.07,10.51-4.07,12.27,.02,.05,2.27,4.98,4.81,7.59,2.3,2.5,3.8,3.32,6.1,1.22,1.54,.53,1.9,.74,1.9,.74-.41,1.23-1.21,2.97-5.49,8,2.55-2.08,4.79-5.32,4.81-5.35l.51,.81c.72,1.13,.97,1.51-.1,2.57-1.28,1.28-2.92,2.78-4.27,3.05-2.28,.27-8.81,.2-8.88,.2,.88-1.76,2.25-7.01-1.97-10.1-1.86-1.36-4.33-1.41-6.29-.12-1.68,1.1-3.2,3.44-2.45,6.7-.8,.11-1.23,.27-1.44,.55-.16,.21-.19,.48-.12,.94,.05,.35,.55,.43,1.12,.53,.88,.15,1.97,.34,1.93,1.57-1.16-.06-9.09-1.63-12.2-3.05-3.53-1.61-6.08-4.05-7.59-7.25-.07-1,.2-1.49,.2-1.49-.33,.07-.61,1.14-.61,1.15-.29-.25-.23-2.08,.12-3.56,.25-1.06,.59-1.7,.97-1.79Zm17.28,16.4c.06,0,1.58-.06,2.85,.27,.32,.14,.47,.32,.43,.51-.08,.37-.85,.71-1.58,.71-1.07,0-1.69-1.48-1.69-1.49Zm.07,.88c-.88,0-2.24-.47-2.78-.68-.54-.2-.27-.94-.27-.95l2.64,.47,.41,1.15Zm4.54-10.1s.05,2.1-1.56,2.17c.32-1.22,.65-1.89,1.56-2.17Zm-1.08-.81c0-.19,.24-.34,.54-.34s.54,.15,.54,.34-.24,.34-.54,.34-.54-.15-.54-.34Zm.68,5.83c-.74,.2-1.01-.2-1.02-.2l1.63-1.08s.27,.82-.61,1.29Zm1.02,.07s.01,.06,.01,.14c0,.16-.05,.39-.26,.58-.26,.24-.7,.36-1.32,.36-.04-.07-.04-.14,0-.22,.2-.45,1.55-.86,1.56-.86Zm-1.94-2.43c.3-.19,.68-.23,.92-.09,.14,.08,.21,.2,.21,.35,0,.74-1.61,.74-1.63,.74-.03-.59,.3-.88,.5-1.01Zm-.93-.37c-.28,.33-.68,.5-1.19,.5-.07-1.06,.88-2.71,1.63-2.85,.01,.06,.25,1.54-.44,2.35Zm-.99,1.04s.62,1.77,1.22,2.24c-.28,.17-.62,.12-.92-.14-.44-.39-.72-1.21-.3-2.09Zm2.15,3.67c.99,.62,1.39,1.26,1.1,1.76-.02-.01-1.77-1.36-2.71-1.56l-.88-.11c-.76-.07-1.62-.15-1.79-.51-.06-.13-.03-.28,.09-.47,.42-.63,2.71-.04,4.18,.89Zm-.52,1.62s1.02,.21,1.02,.54c-.87,.13-1.02-.54-1.02-.54Zm1.53,.68c.28,0,.51,.21,.51,.47s-.23,.47-.51,.47-.51-.21-.51-.47,.23-.47,.51-.47Zm-.44-2.1c.27-.74,1.55-1.01,1.56-1.02,0,.04,.03,.88-1.56,1.02Zm1.27,1.63c.03-.3,.14-.68,.49-.82,0,.08,.13,1.97-.07,2.1-.04,.02-.07,.02-.11,0-.19-.12-.37-.73-.31-1.28Zm-.05-6.38c-.16-.19-.18-.4-.08-.63,.21-.44,.87-.79,1.28-.78,.18,0,.3,.07,.35,.19,.08,.33,.04,.6-.13,.8-.41,.48-1.42,.42-1.43,.42Zm5.35,2.17l-.14-.33c-.22-.52-.58-1.39-1.28-2.04l-.2,1.22c-.55-2.33-1.08-3.51-1.68-3.7-.44-.14-.87,.24-1.32,.64l-.32,.28c0-.6,.18-1.61,.69-1.94,.21-.14,.46-.15,.73-.02,3.15,.94,4.26,5.85,4.27,5.9,0,0-.05,.07-.13,.12-.13,.08-.33,.12-.62-.12Zm.34,3.05c-1.14-.54-1.42-3.56-1.42-3.59,.01,.03,1.36,2.72,1.42,3.59Zm-2.36-1.45c.15-.07,.32-.08,.46-.02l.22,.2v.3c-.05,.14-.17,.26-.32,.33-.15,.07-.32,.08-.46,.02l-.22-.2v-.3c.05-.14,.17-.26,.32-.33Zm-.42-1.09c0-.24,.18-.44,.41-.44s.41,.2,.41,.44-.18,.44-.41,.44-.41-.2-.41-.44Zm-.34-2.17c0,.21-.15,.37-.34,.37s-.34-.17-.34-.37,.15-.37,.34-.37,.34,.17,.34,.37Zm-1.02,6.34c.26,.2,.52,.64,.44,.85-.02,.07-.08,.1-.17,.1-.43-.12-1.08-.64-1.08-1.56,0-.51,.27-.69,.53-.69,.15,0,.28,.07,.28,.15,0,0-.09,.23-.13,.49-.05,.32,0,.55,.13,.66Zm.34-.21c.4-3.62-1-5.94-1.02-5.97,.38-.09,.7-.03,.96,.18,1.05,.85,.94,3.97,.88,5.64,0,0-.01,.28-.01,.28-.04,.02-.38,.22-.62,.12-.1-.04-.16-.13-.19-.25Zm1.05,.27c.28,0,.51,.21,.51,.47s-.23,.47-.51,.47-.51-.21-.51-.47,.23-.47,.51-.47Zm.2-1.07c-.07-.23,.27-.54,.76-.67,.34-.1,.67-.09,.86,.01l.14,.16c.07,.23-.27,.54-.76,.67-.48,.14-.93,.06-1-.17Zm1.46,.8c3.02,.33,4.73,.34,4.74,.34,0,.03,.06,.33,.22,.36,.11,.02,.24-.1,.39-.36l4.2,.07s-.95,.55-1.02,.95l-5.08-.07-.54-.74-.13,.81s-.48-.41-.61-.68c-.2,.2-.2,.54-.2,.54-.05,0-1.34,.18-1.83-.37-.19-.21-.23-.49-.14-.85Zm-13.21-.3c0,.21-.09,.37-.2,.37s-.2-.17-.2-.37,.09-.37,.2-.37,.2,.17,.2,.37Zm-.68-.2c0,.32-.08,.58-.17,.58s-.17-.26-.17-.58,.08-.58,.17-.58,.17,.26,.17,.58Zm-.61,.17l-.22-.04c-1.51-.3-4.64-.93-5.47-1.31-.07-.74,.13-.95,.14-.95,.04,.01,4.08,1.29,5.02,1.36,.47,.33,.54,.94,.54,.95Zm-6.1-2.51l-.14,.81c-2.55-.2-6.27-4.63-6.3-4.68,0,0,.21-.47,.74-.47,.94,1.34,3.16,3.03,3.19,3.05l.27,.61s.41,0,.41-.34c.47,.33,1.82,1.01,1.83,1.02Zm-9.29-8.54s-.26-1.03,.75-2.24c0,.02-.13,2.18,.41,3.05,.54,.87,1.62,2.22,1.63,2.24,0,.33-.54,.74-.54,.75-.56-.62-1.92-2.34-1.49-2.91-.27-.87-.74-.88-.75-.88Zm-.27-1.15l-.08,.32c-.13,.56-.26,1.08-1.34,1.71l.47-1.09c.22-.44,.41-.82,.41-1.22,0-.68,1.31-2.71,2.3-2.85,0,0-.96,.84-1.76,3.12Zm-21.82-8.13c-.69-.09-2.09-.65-4.02-1.42l-3.98-1.56c2.55,1.81,20.49,9.14,20.67,9.22v.61l-16-6.91c-5.85-2.59-5.96-2.64-5.69-4.74,.34-2.48,2.06-3.25,2.64-3.25,.2,0,21.81,9.39,22.03,9.49-.77,.51-2.92,2.97-2.7,3.74-.04,.07-7.45-2.85-12.95-5.16Zm18.03,11.66c.13-2.61-.8-3.05-.81-3.05l-.07,2.64c-1.51-.97-2.4-1.92-2.35-2.25,0-.06,.05-.1,.11-.12,.25,0,.44-.23,.5-.45,.08-.26,.01-.51-.17-.63-.25,0-.45-.11-.59-.32-.37-.58-.18-1.77,.18-2.6-.9,1.1-.86,1.95-.82,2.84,.02,.57,.05,1.17-.19,1.84-.61-1.02-1.01-3.4-.27-4.95,2.12-2.79,3.78-4.04,4.95-3.73,.74,.2,5.51,2.42,5.56,2.44-3.69,3-4.01,5.71-4.2,7.32-.18,.57-.54,.98-1,1.13-.3,.1-.61,.06-.84-.11Zm-.68,3.79c0-.86,3.32-4.81,4.34-5.83,.03,.05,2.66,5.05,3.73,8.07,1.12,3.16,4.7,6.11,7.66,6.3-2.88-1.19-6.86-3.47-8.2-9.42l1.11,1.1c2.6,2.59,2.87,2.86,7.57,4.19l4.38,1.32c3.47,1.08,6.21,1.94,6.94,1.46,.6-.18,1.36-.12,2.17-.06,1.03,.08,2.19,.17,3.25-.21,2.38-.13,8.62,.19,9.69,.41l-1.29,.23c-4.2,.73-9.95,1.72-17.28,5.26l-.35-.47c-1.14-1.55-1.89-2.57-6.02-.41-1.1-2.34-5.99-5.49-13.42-5.15-.13-4.42,.33-8.7,.34-8.74-.39,.33-.81,4.02-.74,7.86-1.52-1.45-3.86-5.03-3.86-5.9Zm20.61,32.48s-.49-1.98,0-3.03c1.19,4.15,4.33,8.98,8.68,14.96-4.35-3.39-8.56-8.5-9.81-10.73-.14-.8-.21-3.54-.14-6l.35-.56s-.06,4.53,.92,5.36Zm-.42-5.72c1.12-1.47,1.55-1.62,1.55-1.62,.01,.07,1.29,7.62,8.82,19.76-1.11-1.11-7.59-9.7-10.37-18.14Zm-11.26,7.82c1.07-1.78,1.43-3.08,1.44-3.09,2.65-1.79,12.54-9.38,12.47-13.82-.01-.89-.44-1.61-1.27-2.13,1.49-.71,1.79-.79,1.8-.79,.03,.02,.75,.48,.97,1.6,.26,1.38-.35,3.09-1.83,5.09-3.83,5.18-7.38,8.62-13.58,13.15Zm11.91-21.04c-.57-.16-1.01-.28-1.71,.57-.85-.71-1.07-1.93-1.08-1.94,1.47-.9,2.72-1.21,3.74-.93,.78,.22,1.4,.8,1.86,1.72-.01,0-1.02,.72-2.01,.72l-.8-.14Zm.23,.57s-1.94,1.52-2.01,2.87c-.08-.02-.14-.09-.16-.21-.12-.52,.33-1.9,1.07-2.49,.36-.29,.74-.35,1.11-.18Zm-7.58,10.95l-.33,.14c-.66,.28-1.55,.65-2.17,.5l-.04-2.68s2.28-1.77,3-1.95c0,.02-.5,1.98-.45,4Zm-2.82,1c-.51,.26-2.68,.85-6.45,1.77,2.03-2.57,1.49-6.57,.64-7.99,.53-.19,1.13-.55,1.04-1.18,0,0-.46,.73-1.27,.82-.63-1.39-1.8-2.67-1.82-2.68,0-.01,.33-1.09,1.73-1.36,1.44-.28,2.64,.7,3.04,2.5,.37,1.66,1.04,2.14,1.44,2.42l.1,.07c.17,.13,.27,.72,.38,1.34,.11,.67,.23,1.36,.44,1.43-.03-1.95,.1-2.96,.41-3.27l.37-.13c.09,0,.17,.05,.23,.15,.22,.35,.16,1.21-.05,1.62l-.2,.86c-.04,.35-.08,.66-.26,.73,0,0-.13,1.61,.23,2.91Zm-12.47-6.06c-.13,.16-.19,.33-.15,.52,.04,.22,.16,.38,.37,.48,.49,.24,1.34,.07,1.85-.21,0,.55-.46,1.59-1.36,1.68-.89,.09-1.22-.51-1.54-1.73l-.24-1.18c-.09-.57-.16-1.02-.44-1.41,.45-3.55-.8-4.04-.82-4.04,3.53-.69,4.31,2.78,4.31,2.82,.18,.87,.04,3.1-.05,3.41-.05,.16-.52,.4-.94,.43-.21,.02-.48-.02-.6-.25-.22-.44,.25-.71,.7-.96l.3-.18c-.12,0-1.02,.18-1.39,.62Zm-.61,2.97l.05-.41h0c.05,.03,1.33,.8,2.13-.09,.01,.02,1.08,2.51,.59,3.81-.5,1.32-2.35,1.91-2.77,1.91-.09-.72,.01-1.21,.77-1.68l.24,.46c.11-.26,1.02-2.6-1.02-4Zm2.84-.05c-.19,0-.34-.28-.34-.63s.15-.64,.34-.64,.34,.29,.34,.64-.15,.63-.34,.63Zm-.48-7.31c-.7-1.47-2.2-2.08-4.45-1.82-1.84-.05-3.7-.81-3.72-.82,.1-.01,10.51-.95,12.12-.59-.22,.76,.16,1.75,1,2.59-1.07-.13-1.92,.34-2.54,1.41-1-.52-1.6-.82-2.41-.77Zm17.17-.71c-.53-.57-1.59-1.49-3.66-2.73,.03,0,2.6,.53,3.66,2.73Zm-3.16-5.46s3.39,1.47,4.17,4.24l-.57,.57s-2.81-2.9-3.59-4.81Zm-2.73,10.2c.91-1.12,3.99-2.59,4.97-2.5,0,.06-.25,.23-.61,.46-.93,.62-2.5,1.66-2.35,2.61,2.06-1.71,3.22-2.08,3.23-2.08l.43,.72s-4.11,1.81-5.46,3.02c-.08-.21,0-.45,.08-.71,.14-.45,.3-.97-.29-1.52Zm2.73-5.17c-2.11,.07-3.86-.23-6.68-1.15,.99,1.41,6.75,1.8,7.33,1.65,.01,0,1.08,.73,1.65,1.58-1.06,.71-4.63,1.36-4.67,1.37l.93,.36c-.35,.03-.88,.4-1.43,.78-.57,.39-1.15,.8-1.59,.87-.83,.14-1.19-1.57-1.48-2.94l-.03-.15s1.24,.79,2.51,1.08c-.29-.36-2.91-2.03-4.6-2.87-2.02-1.01-1.7-2.56-1.65-2.73,7.67-.5,9.68,2.13,9.7,2.16Zm.48,6.36c.42-.56,1.88-1.22,2.47-1.26,.11,0,.18,0,.21,.04,.13,.96-.21,2.16-.51,3.23l-.08,.27c.75-1.06,.86-2.53,.86-3.31,.04-.01,.96-.26,1.36,.18,.58,1.66-1.93,3.34-1.95,3.36-.63,.42-1.41,.94-3.09,1.5,0-.45,.27-2.66,.73-4Zm3.76-3.49l-.86,.5s-.86-1.07-.14-2.3c.53-.89,1.06-1.17,1.35-1.13,.15,.02,.25,.11,.3,.27,0,0-.72,.1-.65,2.66Zm5.75-3.88c.95-.79,8.11-3.73,9.7-3.46-.03,.02-2.95,1.65-3.2,2.25-1.71,.34-5.5,1.72-5.54,1.73l-.95-.52Zm-22.66-9.94s1.3,2.38,2.71,3.19l-2.64,.2c-.04-.08-1.07-2.06-.07-3.39Zm-9.24-.04c1.24,.69,2.4,1.54,3.42,2.29,1.44,1.05,2.58,1.88,3.33,1.88l1.54-.14c2.44-.26,7-.75,8.73,.42-.02-.02-3.65-1.01-9.55,1.22-5.75,1.71-9.16,1.94-9.2,1.94,1.3-1.95,1.72-5.97,1.72-7.61Zm.42,25.8s-.91-.1-1.36-1.18c-.45-1.07-.89-1.54-1.82-1.91l-.54-.18c-.67-.2-1.16-.34-1.05-1.46,.13-1.39,.36-1.99,.36-2,0,0-1.45-.89-1.94-2.03-.44-1.02-.04-1.95,1.21-2.74l.13-.44c.26-.9,.54-1.82,1.55-2.87,1.2-1.24,1.83-1.49,3.45-.64l.8,.09c.81,.05,1.93,.11,2.58,.88,.47,.55,.64,1.4,.53,2.53-.29,0-.53,0-.71-.18-.2-.22-.27-.7-.2-1.5l-.13,.08c-.25,.33,0,1.59-.01,1.6-.18,.02-.47,.06-.74-.18-.38-.33-.57-1.1-.57-2.27-.22,.54-.32,2.12-.32,2.13l-.35-.08c-.89-.22-2.74-.67-3.33,.35,1.27-.38,1.32-.36,2.75,.04l.34,.1c1.12,.27,2.93,.27,2.95,.27l.14,.1c.27,.29,.75,1.12,.68,2.26-1.03-.08-5.11,.51-6.19,1.51-.17,.16-.26,.32-.26,.48,.57-.38,2.3-1.54,6.27-1.63,.19,.15,.72,1.02,.71,1.82,0,.44-.17,.79-.49,1.04-.46,.36-1.31,.59-2.21,.82-1.21,.32-2.47,.65-2.79,1.36l1.07-.45c.3-.16,.44-.23,1.83-.51,1.23-.33,1.77-.59,2.09-.75l.5-.16c.21,0,.56,.18,.77,.52,.22,.34,.39,.94-.05,1.88-.47,1.02-1.42,1.46-2.19,1.82-.49,.23-.88,.41-.99,.68,1.08-.4,2.21-.59,2.23-.59,0,.59-.81,1.23-1.41,1.27l-3.32,.09Zm3.27,.45c1.5-.91,2.05-1.23,2.68-1.32,.34-.16,2.07-1.03,2.53-2.5,.23-.74,.11-1.52-.35-2.32,.99-.28,.33-4.06-.36-7.58,1.13,.87,2.67,2.59,2.95,7.4,.52-1.09,.55-4-1.59-7.17,.03,.02,3.05,2.31,3.54,6.13,.44,3.41-1.09,4.83-1.75,5.43l-.2,.2-2.27,.36c1.75-1.26,1.86-2.44,1.86-2.45h-.64s-1.46,3.9-6.4,3.81Zm4.22,8.66c-.04-2.22-.26-4.44-1.55-5.61-.78-.71-1.9-.99-3.41-.86,2.27-1.68,3.76-2.04,7.03-2.84l5.9-1.54c6.58-2.05,8.83-2.87,12.21-6.54,1.28-1.45,1.8-2.45,1.67-3.25-.08-.48-.39-.87-.95-1.2,.43-.35,.5-.29,.5-.29,.03,.02,.78,.59,.86,1.64,.07,.98-.46,2.05-1.58,3.17-4.42,4.42-10.65,7.78-19.04,10.27l-.25,3.08c-.39,3.55-.8,7.23,2.12,9.7-1.03-.23-3.44-1.26-3.52-5.75Zm-5.28,43.15s.44,3.94,6.4,3.98c-.62,.4-1.97,1.35-1.97,1.56l2.3-1.08c.63-.33,1.02-.52,1.35-.52l-2.58,2.01c1.78-.53,4.57-2.65,4.6-2.67l-.55,1.27c-.74,1.76-1.18,2.82-4.29,5.42-1.58,1.42-1.97,1.92-1.97,1.93l-.13-.16c-.88-1.06-2.37-2.83-6.39-2.63,.16-3.59,2.29-8.74,3.24-9.11Zm-5.87,20.93c-1.36-.4-1.65-3.27-1.48-5.83l.09,.77c.24,2.05,.49,4.16,1.88,4.49,.98,.23,2.59-.47,3.87-1.04,.73-.32,1.36-.6,1.67-.6-.04,.03-4.13,2.62-6.03,2.22Zm15.18-13.58c-1.4,1.58-2.87,3.87-3.49,5.46-.57,1.46-2.54,3.77-8.7,6.53-1.16,.42-2.07,.61-2.75,.19-.59-.37-.96-1.2-1.11-2.53-.35-3.12,.65-5.98,1.56-8.12l.1-.29c.74-2.22,1.75-5.26,3.47-7.22-.02,.05-2.33,5.16-1.97,8.08,1.14-.07,4.61-.27,6.81,3.16l1.94-1.83c2.56-2.36,4.77-4.4,5.49-7.61,.57-.45,.9-.33,.9-.33-.29,1.73-.94,3.04-2.26,4.51Zm40.13-28.83c-.8-.17-3.5-1.19-4.43-6.96-.44-3.25-.18-5.36,.03-7.06,.17-1.37,.3-2.46,.02-3.65l-.11-.47c-.59-2.44-1.11-4.55,.01-5.58-.01,.08-.23,1.94,.74,5.8,.28,.99,.14,2.21-.06,3.91l-.24,2.24c-.19,2.25,.55,7.56,2.71,10.13,.76,.9,1.63,1.39,2.59,1.47-.13,.19-.64,.31-1.27,.17Zm6.53-9.21c-.41,2.21-1.18,6.33-5.11,8.64-.2,.1-.53,.06-.89-.11-.56-.26-2.49-1.45-3.61-5.89-.54-2.14-.98-5.64-.04-10.16l.04-.19c.05-.28-.12-.93-.32-1.76-.44-1.75-1.11-4.4-.37-6.12,1.08-2.5,2.95-3.17,2.97-3.17-.07,.06-1.8,1.53-.59,5.45,.6,2.86,.6,3.76,.59,6.17v.57c0,2.56,.7,4.29,2.08,5.15,1.31-.95,3.04-.79,5.45,.49l-.19,.93Zm-.26-1.52c-1.5-.84-2.68-1.51-5.1-.6-1.43-1.72-1.64-3.18-1.54-6.69,.04-1.25-.27-2.61-.57-3.92-.52-2.31-1.02-4.49,.57-5.44v.22c-.07,2.06-.19,6.33,4.01,10.68-1.67-2.77-2.24-4.1-2.78-5.7,.02,.03,2.45,2.73,4.16,3.47,2.45,.54,3.8,.3,3.81,.3-.33,2.49-1.11,6.79-2.58,7.68Zm16.19-23.64l-1.16,1.14c2.72-1.79,7.87-6.48,8.47-7.27-1.09,2.04-1.66,4.17-2.2,6.22l-.69,2.46c-.9,2.87-2.21,4.81-6.49,6.85-3.92,1.85-7.18,2.82-9.46,2.82,1.54,.56,4.91-.27,4.94-.28l-1.05,1.18c-.53,.64-.95,1.15-1.35,1.15l-.4-.27c-.5-.41-1.33-1.08-5.67-2.2l.75-.25c2.14-.7,5.71-1.87,7.08-2.93-2.89,.99-8.91,3.03-10.3,3.03-.55,0-1.24-.06-1.67-.55-.41-.48-.54-1.29-.38-2.48,.37-2.72,.11-3.64-.07-3.95-.21-.35-1.27-1.13-1.62-1.27-.34,1.09,.05,3.23,.71,3.88,.21-1.61-.21-2.95-.21-2.96,.72,.58,.77,1.63,.56,4.73l-2.33-2.89-.44-2.11c-.54-2.4-1.29-5.68-.83-6.92,.65-1.73,5.55-8.79,7.41-10.44,.89-.79,2.71-1.86,4.47-2.89,1.98-1.16,3.85-2.26,4-2.75-.08-.15-.19-.25-.35-.3-.74-.24-2.38,.55-4.8,1.79,2.51-.7,4.22-1.33,4.23-1.34-1.42,1.09-3.34,2.21-4.75,3.02l-1.11,.65c.35-.63,1.33-1.82,1.34-1.84-.6,.41-1.07,.95-1.52,1.47-.39,.45-.76,.87-1.16,1.14-.85,.57-3.11,2.76-3.33,3.75-.36-1.35-.8-3.03,5.87-11.3-1.16,.41-5.62,6.2-6.35,8.26-.7,1.95-.5,4.35-.49,4.38-.8,1.04-3.96,5.53-4.09,6.56-.14,1.03,.53,5.66,.92,7.9-1.02-1.15-2.12-2.76-2.12-3.81,.22-1.72,1.84-12.37,2.05-12.98-.72,1.01-2.68,12.32-2.4,13.9,.49,1.6,2.17,3.79,2.19,3.81-1.85,.81-4.99,4.3-3.88,8.68-1.81,1.26-4.84,4.55-4.87,4.59-1.47,.77-14.14,8.5-16.8,11.36l17.01-10.87,4.8-4.52s.02,.03,.05,.09c.16,.32,.51,1.54-1.82,3.86l-1.62,.86c-2.69,1.4-7.18,3.73-10.02,6.4l9.46-5.15-2.57,3.67c-2.65,3.83-5.66,8.18-7.38,9.74-3.64,3.31-7.87,6.3-12.56,8.89,1.68-.07,5.47-2.31,5.5-2.33-2.07,1.85-8.35,7.5-15.52,8.68-.73,.04-1.39-.21-1.96-.76-1.07-1.03-2.32-3.58-2.21-9.9-.67,1.35-.73,9.22,1.06,10.87,.43,.4,1.43,.57,2.72,.47,3.75-.3,12.01-3.21,19.15-12.25,2.51-1.81,3.66-2.88,3.67-2.89l-.83,1.99c-1.66,4.16-4.44,11.13-12.29,16.01-4.26,2.37-4.44,2.89-4.45,2.89,2.93-1.05,4.92-2.46,4.94-2.47l-1.31,1.25c-1.21,1.24-1.82,1.87-5.06,1.43-3.13,.5-4.86,.77-5.7-.28,2.02-1.26,5.05-2.39,5.08-2.4-.98,.91-.99,1.55-.99,1.55,1.53-1.4,1.55-2.46,1.55-2.47-1.19,.33-2.98,1.28-4.43,2.05-1.05,.56-1.96,1.04-2.35,1.13-1.68-.08-2.6-.71-3.18-2.19-.35-.9-1.33-1.93-2.19-2.83-.69-.72-1.33-1.4-1.55-1.9-.49-1.61,1.25-5.12,1.27-5.15-.07,1.95,1.5,6.15,2.89,7.76-2.03-6.1-4.09-13.83-3.81-16.37,.19-1.73,3.99-6.88,6.76-10.63,1.28-1.73,2.29-3.1,2.56-3.62-.12,3.68-.1,8.39,.35,9.53,0-4.26,.2-11.26,.21-12.21l.92,.64c.06-.08,5.62-8.08,9.03-11.5,.93,2.07,2.67,5.57,3.81,5.86-1.61-2.15-2.73-4.1-3.32-5.79l2.12,2.96c-.98-1.47-1.76-3.65-1.76-3.67,.77-.91,2.8-2.52,2.82-2.54,.39,1.71,.91,3.06,1.55,4.02-.63-2.16-1.12-4.7-1.13-4.73l2.12-1.83,.06,1.99c.07,2.79,.09,3.83,.79,4.99,.04,.06,3.89,6.4,11.22,10.94-1.24,.47-2.77,.06-5.3-.63l-1.61-.43c2.01,1.29,6.64,2.81,7.97,.99-2.81-3.86-8.4-13.3-9.46-21.38,3.63-3.28,4.9-6.09,3.88-8.61,3.21-.77,3.46-.99,3.46-.99-.01,0-.85,3.23-.28,8.96l.06-.68c.38-4.47,.63-7.43,1.78-8.71,1.32-.42,1.97-.42,1.97-.42-.03,.05-.91,1.33-.42,3.95,.77-3.35,1.13-4.16,1.13-4.16l3.11-1.06c-4.31,4.63-6.17,9.63-5.86,15.74,1.11-6.57,2.38-12.27,6.84-15.52-2.1,2.99-3.46,5.85-3.53,6.78,.05-.08,4.9-7.73,7.83-11.36,3.14-3.88,12.49-9.44,19.41-10.51,3.78-.59,8.55,1.77,11.6,5.73,3.08,3.99,3.76,8.75,1.88,13.04-1.8,2.66-2.44,3.29-8.57,9.3Zm-27.9-39.33h0c.36,.22,1.86,.34,2.33,.14-.8-.2-2.27-.14-2.33-.14Zm6.54-11.83c-.79,.34-1.51,.1-1.78-.02,.45,.82,1.54,.66,2.32,.46,1.53-.57,1.32-2.84,1.32-2.86-.44,1.26-1.07,2.07-1.85,2.41Zm10.65,8.79h-.02c5.39-.15,6.79-5.89,6.8-5.95-1.7,3.82-4.64,5.05-6.79,5.95Zm14.11,35.16c-.58-.19-3.59,.63-3.62,.64l-.1-.69c-.37,.47-1.48,.68-3.02,.97l-2.37,.49c.88,.39,3.01,.83,4.01,.83,2.42-.58,5.06-2.23,5.09-2.25Zm-5.68,3.82c9.1-3.39,10.51-6.09,10.53-6.12-3.37,2.39-5.49,3.42-7.19,4.24-1.19,.58-2.21,1.07-3.34,1.88Zm-24.43-3.87c-.07-.02-.21,.01-.49,.29-1,8.73-3.25,14.92-4.6,18.62-.64,1.77-1.07,2.94-1.05,3.54,5.58-12,6.2-22.27,6.21-22.37,0,0-.02-.06-.08-.07Zm-33.4,41.41c.23,1.78,.74,2.89,1.54,3.31,.7,.37,1.48,.11,2.01-.17-2.88-.59-3.54-3.12-3.55-3.14Zm-.46,2.55c-.97-1.11-1.91-6.41-1.77-8.26-.57,.78-.07,3.74,.28,4.73-1.13-1.31-1.09-5.77-1.06-8.43v-.95c-.04-.08-.11-.13-.2-.13-.16,0-.35,.13-.35,.13,0,.08,.09,8.17,1.55,13.27l.14-1.48s.59,1.63,2.33,1.83c-.74-1.74-1.21-3.41-1.27-4.59-.56,.91,.34,3.86,.35,3.88Zm15.75-82.19c1.6,0,3.63-1.06,6.37-3.32l.17-.16c.96-.93,1.78-1.74-.91-6.48-.03-.05-2.55-5.03-5.83-5.9-.8-.22-1.94,.09-3.13,.85-1.78,1.13-4.04,3.57-4.6,6.74l-.02,.25c-.18,1.94-.2,2.06,1.11,3.62,1.36,1.64,5.48,4.41,6.85,4.41Zm-.07-.41c-.14-.04-.22-.11-.24-.23-.09-.44,.74-1.34,1.19-1.67l-.33,.58c-.25,.38-.5,.78-.39,.92,.07,.08,.26,.06,.59-.07,.52-.91,1.3-1.25,1.8-1.12,.28,.07,.43,.28,.43,.58-.02,.01-1.84,1.15-3.05,1.02Zm1.56-8.4s1.9,1.85,1.9,3.39c-.26,.59-1.58,.9-3.12,.41l.58-.16c.63-.16,1.17-.3,1.38-.77,.24-.53,0-1.44-.74-2.87Zm.41,6.57c-.52-.13-1.19-.58-1.15-.87,.02-.11,.16-.24,.74-.22l.04-.14c.1-.37,.15-.54,.57-.54h0c.01,.06,.26,1.43-.2,1.76Zm.54-1.15c1.34,.94,1.49,1.42,1.49,1.42-.02,0-1.69-.42-1.49-1.42Zm-7.46-9.76c.34-.1,.73-.4,1.17-.74,.81-.63,1.82-1.41,3.17-1.49,2.16-.14,7.06,6.09,7.73,10.64-.39,.78-1.54,1.9-2.1,1.9-.6-.33-1.08-.93-1.15-1.42-.07,.54,.2,1.35,.2,1.36-.18,.06-.55-.03-.87-.32-.22-.2-.58-.65-.41-1.38,.87-.47,1.15-.41,1.15-.41,0,0,.31,.44,.81,.62,.36,.13,.73,.08,1.09-.14-1.02-.2-1.69-.34-2.1-1.63-.21-.67-1.46-4.12-5.15-5.63l-.56-.4c-.61-.42-.92-.63-.6-1.43-.05-.02-.11,0-.17,.05-.17,.14-.31,.49-.24,.87,.07,.35,.33,.83,1.23,1.11-.95,.41-1.35,.34-2.17-.88-.13,.47-.14,1.35-.14,1.36-.01,0-1.22-.63-.88-2.03Zm-1.01,1.15c.11-.08,.38-.24,.6-.13,0,0,.14,.48,0,.95-.47-.33-.61-.81-.61-.81h0Zm1.57,5.96s2.22,1.11,2.51,3.25c-1.7-1.26-5.62-4.44-5.62-4.44,0-1.18,.44-3.18,3.11,1.18Zm-3.13-.67c.07,.05,6.91,5.5,6.98,6.03-.49,.14-3.81-1.9-5.7-3.79-.97-.97-1.41-1.74-1.28-2.24Zm27.35-.7c.39,.29,.92,.35,1.32,.15,.33-1.51,1.09-3.27,1.1-3.29-.13-.25-.81-.49-1.47-.39-.46,.07-1.27,.35-1.48,1.49-.23,1.25,.24,1.81,.54,2.04Zm-.06-2.13c.61-1.32,1.94-.86,1.96-.86,0,.01-.67,1.54-.76,2.62-.15,.21-.42,.24-.71,.08-.41-.23-.9-.94-.48-1.84ZM26.45,114.17s-2,.42-2.04,1.86c.45-.04,2.03-1.84,2.04-1.86Zm42.18-55.56c-.01-.08-.02-.13-.02-.13-.33,1.04-.6,1.28-1.2,1.8l-.49,.44c1.82-.4,1.78-1.71,1.72-2.11Zm-27.27,8.07l-.05-.14c-.11-.33-.19-.57-.39-.67-.23-.11-.64-.03-1.4,.26-.44-.69-1.37-2.37-.41-3.19l.32-.26c1.02-.81,2.91-2.31,2.66-5.17-.18-2.11-1.06-3.83-2.31-4.5-.91-.49-1.96-.41-3.12,.23-1.56,.82-2.51,3.12-2.17,4,0-.04,1.11-4.07,3.79-4.07s2.85,3.49,2.85,3.52c-.69-.49-2.67-.54-4.17,.49-1.09,.74-2.24,2.27-1.52,5.27,.2-2.41,.44-5.42,4.47-5.69,.63,.03,1.16,.39,1.46,.99,.31,.62,.3,1.35-.04,1.85-1.04,.24-1.91-1.15-2.24-1.76-.15,.24-.11,.61,.11,.99,.33,.59,1.06,1.18,1.92,1.18,.05,.25,0,.45-.13,.58-.23,.23-.72,.29-1.43,.16-.51-.09-1-.14-1.41,.19-.63,.52-.96,1.88-1.03,4.28,.29,.97,.88,3,2.71,2.58-.09,.23-.29,.41-.6,.49-.53,.15-1.3,.02-1.7-.29-.6-.47-1.75-2.08-1.76-2.1,.87,1.88,1.66,3.11,2.71,2.98,1.05-.13,2.84-1.01,2.98-1.22,.6,.67,1.28,1.15,1.29,1.15-.26-.53-.54-.86-.79-1.16-.26-.32-.49-.59-.63-1.01Zm-2.37,.88s-1.56-1.64-1.56-2.71c0-.64,.22-3.15,1.28-3.67,.4-.2,.88-.08,1.43,.35-.02,.01-1.9,1.1-1.83,2.58,.07,1.47,.81,2.09,.81,2.1l-.14,1.36Zm.64-.07c-.13,0-.24-.21-.24-.47s.11-.47,.24-.47,.24,.21,.24,.47-.11,.47-.24,.47Zm.71,.14c-.11,0-.2-.29-.2-.64s.09-.64,.2-.64,.2,.29,.2,.64-.09,.64-.2,.64Zm28.88-2.58c0-.19-.19-.36-.41-.57-.27-.25-.57-.52-.68-.92-.2-.94,.53-2.14,.54-2.15-.72,.53-.98,1.42-.9,2.02,.11,.82,.94,1.43,1.44,1.62Zm11.04,28.81c-1.08,.05-3.15-.35-6.91-2.58-1.88-3.62-3.44-11.38-3.46-11.45-.2,2.79,2.04,10.7,3.05,12.06,1.78,.86,5.33,2.24,7.32,1.97Zm-12.26-28.74s.13,.48,.07,.95l1.29,1.42c.54-1.07-1.34-2.36-1.36-2.37ZM25.32,119.8c.25,.29,.5,.26,.66,.18,.41-.21,.68-.9,.57-1.45,0,0-.28,.91-1.23,1.27Zm61.69-61.65c-.05-.91-.98-1.48-2.43-1.48-.99,0-1.26,.55-1.33,.79-.1,.33-.02,.7,.19,.83,.03,0,3.2,.19,3.58-.14Zm-2.06-1.09c.78,.08,1.63,.72,1.63,.95h-2.86c.19-.88,.78-1,1.23-.95Zm-18.07,7.22c-.06,.3-.32,.57-.78,.85,.48,.03,.89-.09,1.13-.36,.21-.23,.29-.56,.23-.93-.14-.8-1.61-1.55-1.63-1.56l.81,1.22c.21,.29,.28,.54,.23,.78Zm19.75-10.27c-.03-.62-.72-1.33-1.43-1.46-.37-.07-1.05-.03-1.48,.98,.02,0,2.2-.28,2.91,.48Zm-31.98,.55l1.39,1.04,1.12,.86c.74,.47,1.29,.95,2.37,2.37-.34-1.62-2.61-4.59-4.47-5.42,.01,.01,1.08,1.16,.88,1.42-1.54-2.01-4.18-2.84-4.2-2.85l1.57,1.46c.54,.52,.86,.83,1.34,1.11Zm3.39-12.88s-1.5,1.36-1.83,2.17c.94-.47,1.82-2.15,1.83-2.17Zm2.58,17.01c-.4-1.61-4.03-5.59-4.07-5.63,1.11,1.72,2.19,3.14,3.14,4.39l.93,1.23Z"/></svg>