<?xml version="1.0" encoding="UTF-8"?><svg id="Capa_1" xmlns="http://www.w3.org/2000/svg" viewBox="0 0 134.18 183.61"><defs><style>.cls-1{fill:#facdb3;}.cls-2{fill:#fff;}.cls-3{fill:#ffeea3;}.cls-4{fill:#fff9d1;}.cls-5{fill:#ffcb00;}.cls-6{fill:#fbe4f0;}.cls-7{fill:#e6d4e9;}.cls-8{fill:#fdf6fa;}.cls-9{fill:#fdece4;}.cls-10{fill:#812a3a;}.cls-11{fill:#872e4a;}.cls-12{fill:#b94f74;}.cls-13{fill:#c14f62;}.cls-14{fill:#a7a9ab;}.cls-15{fill:#cd7168;}.cls-16{fill:#dee0e2;}.cls-17{fill:#d57489;}.cls-18{fill:#d5ad00;}.cls-19{fill:#ac4e18;}.cls-20{fill:#a8a09e;}.cls-21{fill:#a87018;}.cls-22{fill:#41b28e;}.cls-23{fill:#1d1d1b;}.cls-24{fill:#36639c;}.cls-25{fill:#9b97be;}.cls-26{fill:#575051;}.cls-27{fill:#612d16;}.cls-28{fill:none;stroke:#e20613;stroke-width:.36px;}</style></defs><path class="cls-8" d="M67.54,107.43c-.26,.26-.26,.87-.26,2.21v.43l.05,.03c10.61,4.85,19.25,3.94,19.34,3.93l.14-.02-.07-.12c-.23-.41-.44-1.18-.52-1.9l.23-.17,.02-.05c.33-.74,1.56-1.09,1.57-1.09h.05s.02-.06,.02-.06c.02-.06,0-.12-.02-.17-.26-.37-2.38-.51-5.6-.67-1.47-.08-2.86-.14-3.61-.25h-.03s-.63,.26-.63,.26c-.74,.33-1.99,.88-2.53,.88-.47-.04-2.67-1.88-4.08-3.19l-.02-.02h-.03c-.12,0-2.92-.18-3.57-.18-.2,0-.35,.05-.45,.15Z"/><path class="cls-8" d="M117.55,110.55c-1.87,.54-3.88,1.2-5.82,1.84-2.96,.97-6.02,1.97-8.5,2.54-4.18,.96-8.51,1.15-11.02,.47l-.21-.06s-1.22,.05-3.59-3.37c.11,.1,.22,.18,.31,.2h.1s.01-.33,.01-.33c.03-.89,.04-1.18-.19-1.26-.15-.05-.72,.26-1.12,.57-.38,.29-1,.86-1,1.5,0,.02,0,.04,0,.05,.03,.63,.56,1.59,.65,1.81l-.18,.05c.06,.9,.2,1.65,.42,2.18,.2,.5,3.83,3.96,5.39,4.32,.47,.11,1.87,.35,3.63,.66,4.07,.72,10.22,1.8,12.93,2.57l.15,.04-.03-.15c-.31-1.57,1.1-6.74,5.23-9.64,3.6-2.53,8.01-3.42,10.65-3.95l1.24-.26-.15-.12c-.83-.71-4.23-1.09-8.91,.34Z"/><path class="cls-8" d="M133.27,84.41c-8.04,1.01-13.22,6.15-17.39,10.28-1.23,1.22-2.39,2.37-3.45,3.22h0c-3.66,3.46-8.59,6.82-10.45,8.09l-.18,.12s-.45,.36-.45,.36c-1.56,1.26-4.48,3.62-5.29,3.99-.81,.37-1.46,.37-2.77,.36h-.61s.14,.15,.14,.15c0,0,.35,.4,.39,1.17v.09s.37,.82,.37,.82l.27-.04c.77-.12,1.65,.07,2.61,.57-.26,.04-.66,.08-1.05,.03l-.61-.11c-.94-.19-1.68-.31-1.95-.09-.07,.05-.1,.13-.1,.21,0,.12,.08,.25,.26,.38,.64,.5,2.51,1.08,3.23,.9,.46-.12,1.09-.63,1.81-1.23,.61-.5,1.3-1.08,2-1.49l1.29-.83c1.2-.81,2.84-1.91,6.51-3.81,3.44-1.62,6.29-3.43,8.57-4.89,1.9-1.21,3.53-2.25,4.94-2.83,3.03-1.23,4.7-1.03,6.63-.79l.27,.03-.03-.13c-.97-4.96,5.06-14.3,5.12-14.39l.11-.17-.2,.03Z"/><path class="cls-13" d="M31.81,76.05l-.2,.16,.21,.14c.85,.56,2.03,1.53,2.35,2.24-.83-.87-2.11-1.93-3-1.93h-.2v.2c.12,1.31,.37,1.88,.38,1.9l.03,.07,.07,.03c1.36,.59,4.2,3.91,3.12,8.63l-.02,.07,.04,.06c.92,1.55,1.22,2.35,1.23,2.36l.11,.3,.1,.08,.05,.09c.62,1.18,1.93,1.43,2.47,1.23,.49-.19,3.65-3.92,2.7-9.3-.63-3.56-3.3-5.75-5.4-6.54-1.61-.61-3.12-.53-4.04,.21Z"/><path class="cls-9" d="M28.78,62.93h0c-2.03,1.59-2.31,3.73-2.31,5.61,0,1.14-.21,2.1-.49,3.32-.23,1.05-.5,2.24-.7,3.86-.03,.25-.31,1.48-.31,1.48h-.14c-4.88-.25-8.25-7.82-8.88-9.33-.22-.54-1.41-3.23-2.65-2.94-.98,.23-1.94,1.87-1.78,4.12,.09,1.29,.9,2.48,1.69,3.63,.59,.86,1.14,1.68,1.35,2.47,.41,2.63,1.57,2.83,2.5,4.36l-.04-.02h-.04c-4.57-.15-9.18-1.76-10.99-2.86-1.57-.95-2.56-1.23-3.2-.92-.4,.2-.64,.64-.71,1.31,0,.05,0,.11,0,.16,0,2,3.67,4.71,6.33,5.11,1.69,.25,3.03,.87,4.02,1.31,.55,.25,.99,.45,1.34,.52,.17,.03-1.5-.22-4.48,1.85-2.52,1.75-4.5,1.7-5.89,1.56l-.31-.03c-1.28-.14-2.3-.25-2.7,.9-.12,.69,.1,1.3,.61,1.8,1.18,1.13,3.77,1.53,5.45,1.18,.92-.19,1.73-.45,2.51-.7,1.05-.34,2.03-.66,3.02-.68h.04s.03-.02,.03-.02c1.59-.72,1.13,.15,1.13,.15,0,0,.41,.14,.52,.2l.13,.34c.17,.09,.4,.38,.66,.72,.56,.71,1.32,1.69,2.54,2.13,1.77,.64,2.78,.35,4.04-.41,.74-.45,1.64-.54,2.3-.5-.26,.1-.54,.23-.77,.39l-.31,.23,.56,.16c.58,.17,1.92,.56,3.24,.19l.48-.13-.45-.22c-1.18-.57,1.24,.37,4.13,.6l.35,.03s1.07,.73,2.97,1.1l.31,.06s.13-.09,.18,.1c.3,1.16,1.61,2.63,4.31,2.93,2.66,.14,4.02-.91,4.59-1.55,.45-.51,.64-1,.64-1.3,0-.04,0-.07,0-.1-.08-.51-.51-.64-1.21-.87l-1.29-.46c-.77-.32-1.22-.65-1.63-.94-.4-.29-.78-.55-1.36-.76-1.07-.37-2.43-1.21-3.46-4.4-.76-2.35-.35-1.46-.35-1.46l.36-.07c-.05-5.73-2.89-6.74-3.01-6.78l-.13-.04s-.14,.18-.18,.24c-.68-1.46-.94-3.28-.94-5.19,0-2.51,.42-5.17,.83-7.31,.19-1.01,.29-1.86,.29-2.55,0-1.09-.24-1.79-.72-2.08-.34-.21-.97-.29-2.01,.52Z"/><path class="cls-3" d="M32.81,152.66s-.72,.86-.72,1.82c0,.08,0,.17,.02,.25h0c.25,1.56,2.15,4.5,3.46,4.99,1.08,.4,1.82,.82,1.82,.82,.7,.26,.51,.22,1.28,.76l-.11,.14c3.01,3.41,9.38,3.1,11.95,1.98,2.66-1.16,9.19-7.84,9.47-8.12l-.1-.15c-9.55,3.1-20.44,3.53-22.47,3.12-1.79-.36-2.87-1.41-3.74-2.25,0,0-.17-.16-.32-.3,.16,0,.45,.05,.45,.05l-.05-.19c-.31-.31-.66-.82-.76-2.86v-.23s-.16,.18-.16,.18Z"/><path class="cls-3" d="M52.42,124.94s-2.25,1.96-5.05,4.82l-.98,.99c-2.33,2.35-4.16,4.2-4.99,6.54-.77,2.16-.8,1.78-.8,1.78l-.22,.16c-1.78,1.29-6.7,6.19-7.21,7.48-.41,1.04-.29,2.64-.11,5.07l.13,1.86c.03,1.23,.49,2.26,1.38,3.04,1.31,1.16,3.17,1.45,4.09,1.36,0,0,.2,.02,.59,.09,.42,.07,7.34-.1,11.82-.99,4.36-.87,8.82-1.89,11.92-3.39,2.11-1.2,4.15-3.26,6.13-5.26l2.23-2.2-.14-.3c7.48-4.96,14.1-7.18,14.16-7.2l.13-.04-.09-.11s-.57-.66-1.24-1.15l-.03-.02-.27-.3-.74-.87h-.06c-1.73,.41-4.89,.97-4.89,.97-6.21,.57-14.27,1.01-14.97,.71-3.75-1.72-7.42-7.75-9.39-10.99-.55-.9-.98-1.61-1.28-2.02l-.06-.08-.08,.07Z"/><path class="cls-19" d="M117.56,119.13c-1.53,1.05-2.85,2.75-4.12,4.4-1.48,1.92-2.88,3.73-4.34,4.04-1.32,.28-3.12,.01-4.71-.22-1.75-.26-3.27-.48-4.04-.03-1.53,.88-3,6.34-3.22,8.97v.13s-5.1,1.69-6.09,2.49l-.19,.15,4.91,.79s1.41,.8,2.4,1.7l.03,.03s3.83-.7,4.63-.84c0,.05,.02,.14,.02,.14,.43,2.87,4.07,8.67,5.37,8.93,.86,.17,.38,.38,.34,.39l-.18,.04,.77,.72h.03c4.97,.43,8.69,.03,10.11-.26,1.29-.27,2.4-1.53,3.8-3.14l1.44-1.6-.11-.15c3.65-2.86,5.27-2.89,5.94-4.73,.53-1.45,.86-3.04,.86-6.04,0-.97-.03-2.08-.11-3.38-.06-1.16-.07-2.05-.07-2.77-.01-2.73-.01-2.96-3.18-5.31-3.93-2.93-10.19-4.45-10.25-4.46h-.04s-.03,.01-.03,.01Z"/><path class="cls-7" d="M67.1,110.09l-2.7,.53h-.01c-1.23,.66-6.41,7.05-6.41,7.05l-.31,.08c-2.24,.56-4.43,2.01-6.03,3.07l-1.25,.81,.12,.08c1.2,.77,1.97,2.05,5.03,7.32,3.17,4.85,6.03,7.93,8.06,8.67,4.83,.48,18.97-1.39,19.11-1.4l.12-.02-.05-.11s-.46-1.09-1.74-2.24l-.31-.1-.07-.13s-.41-.81-.94-1.43l-.02-.03h-.04c-2.68-.36-5.24-1.09-4.51-1.05l.29,.02-.23-.18s-5.01-4.06-5.83-6.08c-1.34-5.43,.46-13.18,.53-13.5l.03-.1h-.11c-.68-.08-1.02-.21-1.68-.48l-.84-.33-.03-.37-.2-.05Z"/><path class="cls-7" d="M74.14,112.94c-.09,.04-.15,.12-.2,.26-.5,1.52,1.48,11.53,4.8,16.97,3.01,4.93,7.3,8.65,8.92,10.06l.68,.6,.06-.1c.42-.76,1.91-3.39,3.64-5.46,6.41-7.67,8.38-8.69,9.3-8.79,.37-.04,1.14,.12,2.12,.33,1.07,.23,2.41,.51,3.89,.67,2.71-.05,3.07-.51,5.02-3.03l.53-.68c3.04-3.75,5.33-5.73,6.47-6.33l.13-.07-.12-.09c-1.47-1.06-4.94-2.06-5.09-2.1h-.05s-.04,.02-.04,.02c-3.63,3.39-4.42,5.95-4.58,9.42-2.04-.52-4.56-1.01-6.8-1.45l-3.07-.62s-.28,.2-.7-.07c-.84-.27-3.54-.69-4.95-.84l-1.03-.46h-.03c-1.61-.29-3.43-1.96-5.16-3.72-1.65-1.67-2.92-2.69-3.88-3.11-.04,0-1.02-.1-2.71-.13h-.26s-1.68-.23-1.72-.23l-.12-.02-.13,.04-1.13-.29c-1.2-.32-2.84-.77-3.75-.79h-.04Z"/><path class="cls-13" d="M114.59,85.32l-.4,.21s.15,.08-.51-.02l-.14,.34,.15,.1c1.5,1.02,4.28,2.92,3.47,6.61l-.12,.54,1.93-1.65,.17-.23c1.43-1.14,2.5-2.14,2.52-2.14l.09-.08-.04-.11c-.04-.12-1.01-3-3.29-3.93-1.16-.47-2.45-.35-3.83,.37Z"/><path class="cls-1" d="M101.97,82.2c-.54,.34-.85,.95-.91,1.83-.28,.47-2.1,3.64-2.1,5.49,0,.16,.01,.31,.04,.44,.24,1.14,.99,2.23,1.79,2.61,.36,.17,.7,.18,.99,.03l.09-.05v-.1c.09-.86,.09-1.43,.09-1.46v-.11s.43,.04,.29,.4c-.07,.18-.07,.36-.07,.53,0,.45,.15,.86,.45,1.2,.61,.71,1.69,.95,2.49,.87l.31-.03,.31-.55c.05,.56,.78,1.26,1.92,1.44,.54,.09,1.03,.02,1.47-.14,0,.05,.02,.12,.02,.12,0,.04,.21,.98,1.76,.89,.55-.09,.02,.24,.02,.24l.38,.19c.61,.3,2.27,.31,2.34,.31h.04l.04-.02c.25-.13,2.36-2.13,3-2.74l.03-.03,.02-.04s1.77-4.66-2.88-7.26c0,0-1.03-.63-1.03-.63-1.14-.71-1.96-1.22-4.01-1.93,0,0-1.18-.48-1.18-.48-1.95-.82-4.38-1.84-5.7-1.03Z"/><path class="cls-1" d="M96.44,78.11c-.45,.65-1.18,2.91-1.18,3.35v.28s-1.99,.7-3.94,3.4c-.45,.63-1,1.12-1.22,1.07-.41-.09-.99-.54-1.6-1.02-.66-.51-1.34-1.04-1.99-1.28-.95-.35-1.71-.12-2.38,.08l-.75,.19c-.91,.16-1.48,.08-2.92-.68l-.28-.15v.31c.04,3.82,4.09,9.77,5.55,11.5l.19,.06c1.33-.33,4.64-.73,5.25-.57l.07,.02,.41-.14c.13,0,3.11,.21,3.77,.12l.08-.03c.3-.2,.97-2.3,1.97-7.6,1.26-6.91-.78-8.99-.81-9l-.14-.06-.09,.13Z"/><path class="cls-7" d="M79.29,109.25l.61,.12c1.59,.31,2.57,.26,2.61,.25l.63-.15,.08,.35c2.77,.06,4.75,.28,5.29,.59l.11,.06,.1-.07c1.02-.78,2.42-.97,3.4-.99h.05s1.36-.86,1.36-.86c2.88-1.78,8.88-5.48,10.98-9.41,.92-1.89-1.73-3.76-1.84-3.84,0,0-.15-.1-.15-.1-1.67-1.12-2.18-1.46-2.05-2.57v-.08s-.04-.06-.04-.06c-.45-.54-.94-1.66-1.27-2.4l-.18-.4c-.27-.58-.06-1.61,.58-2.99,.27-.57,.58-1.11,.86-1.59,.39-.67,.7-1.2,.75-1.59,.05-.34,.21-.97,.82-1.36,.7-.45,1.78-.46,3.2-.02l.35,.11,1.14,.51,1.96,.54v-.25c-.02-.23-.16-5.72-.58-7.42-.44-1.76-.73-1.76-3.54-1.78h-.41c-3.42-.02-5.17,.15-5.83,.57l-.7,.42c-.49,.52-.81,1.9-.78,2.4v.03s.33,.8,.33,.8c.43,.99,.87,2.01,.76,4.83-.13,3.35-1.1,9.3-2.32,11.7-1.22,2.41-12.12,10.56-19.49,12.91-.73,.1-3.49,.16-3.51,.16h-.5s1.14,.96,1.14,.96c1.05,.89,2.13,1.81,2.9,1.81,0,0,2.07-.7,3.17-1.18Z"/><path class="cls-7" d="M64.81,101.95l-.03,3.15v.11c-.03,1.53,0,1.65,1.31,1.83h.06c1.87,.33,8.32,.51,9.83,.48,0,0,2.41-1.03,4.13-1.88,0,0,2.07-1.01,2.16-1.05,0,0,2.58-1.53,2.58-1.53,0,0,2.31-1.56,4.21-2.93l.16-.12-.13-.15c-7.93-9.35-9.48-16.64-9.49-16.72l-.02-.11-.11-.03c-.26-.08-.97-.51-1.6-.89l-1.02-.61-.56-.29-.08-.04s-.86-.51-2.19-1.43l-.48-.33s-.72-.38-.87-.38h-.19s-.1-.27-.13-.39l-.02-.06-.43-.31c-.67-.47-1.2-.85-1.41-1.83l-.23-1.03c-.26-1.14-.58-2.56-.74-3.75l-.02-.16h-.16c-.51,0-1.17-.86-1.33-1.24l-.05-.11h-.15c-.17,0-.48,0-.94,.36,0,0-.09,.07-.12,.09-1.48-1.25-4.95-2.48-6.61-2.31l-.44,.05,.35,.28c.29,.24,2.76,3.05,4.84,6.83,2.3,4.17,3.51,7.14,3.51,8.59s-2.6,5.33-3.7,6.99l-.24,.35c-.1,.15-.2,.27-.29,.38-.05-.1-1.37-2.78-1.37-2.78l-.18,.15c-.29,.24-1.58,.55-2.46,.52h-.24s.05,.23,.05,.23c.06,.27,1.43,3.99,1.43,3.99l-.07,.08c-.77,.9,.17,6.29,.43,6.67,.22,.33,.71,.28,1.39,.23,0,0,.82-.05,.92-.05l.75,1.16Z"/><path class="cls-5" d="M99.38,58.09l.09,.48v.02c.12,.17,.28,.51,.28,.51v.13s.14,1.27,.14,1.56c0,.23-.2,.38-1.05,.81l-.09,.04,1.35,2.29h.05c.05,0,.2-.04,.42-.43l.03-.05,.09-.06,.08-.09c1.29-1.42,2.19-2.27,2.2-2.28l.05-.05-.04-.06c-.93-1.62-3.36-2.86-3.47-2.92l-.17-.08,.03,.18Z"/><path class="cls-21" d="M110.73,60.41s-1.08,.56-2.92,1.39l-.06,.03v.06c.17,4.42-.31,5.07-1.38,6.5l-.16,.21-.22,.25s-1.79,2.09-3.34,3.51l.09,.15c9.9-3.56,15.69-9.4,15.74-9.46l-.1-.15c-2.49,.89-7.94,1.91-9.79,1.56,.04-.03,.1-.06,.1-.06,.92-.55,3.38-2.03,3.86-2.58l.05-.05-.04-.06c-.39-.61-1.72-1.28-1.77-1.3l-.04-.02-.04,.02Z"/><path class="cls-5" d="M129.3,41.69c-4.36,2.54-10.3,5.26-12.18,5.85h-.02s-.02,.03-.02,.03c-.66,.7-2.76,2.28-5.94,4.67l-.18,.35,.07,.1c.32,.51,1.64,3.74,1.88,4.79l.19,.3s.61,1.47,.89,2.91l.02,.11,.1-.04c7.79-2.96,15.25-18.8,15.32-18.96l.13-.27-.26,.15Z"/><path class="cls-5" d="M126.56,26.09c-10.19,6.04-17.81,9.21-21.47,10.73-1.31,.54-2.17,.9-2.55,1.14h-.01s-.01,.02-.01,.02c-.02,.03-.54,.74-1.57,2.9l-.15,.31s-1.42,2.2-1.56,2.63l-.03,.1,.1,.02c3.72,.8,7.51,2.51,8.62,3.2l.25,.34s.48,.23,.61,.79l.02,.08,.17,.19,.22,.33c.42,.64,1.54,2.33,1.58,3.12v.16s.14-.08,.14-.08c.05-.03,4.96-3.11,7.26-5.88,3.28-4.22,8.47-19.83,8.53-19.98l.08-.24-.21,.13Z"/><path class="cls-5" d="M64.86,51.97c-9.11,1.86-15.15,8.95-15.69,10.26l-.14,.34,.28-.23c8.12-6.58,14.64-3.79,15.86-3.16l.05,.02,.05-.03c.07-.05,.09-.13,.19-1.32,.12-1.36,.29-3.42,.64-4.31l.03-.09-.09-.03c-.09-.29-.39-.36-.35-.37l.13-.03-.07-.11s-.44-.7-.84-.92l-.03-.02h-.03Z"/><path class="cls-5" d="M80.53,6.6c-4.93,1.73-10,6.1-15.08,12.99-4.29,5.52-5.28,11.86-5.65,14.25l-.05,.29v.03c-.41-1.13-1.79-1.48-2.78-9.96-.12-1.06,.08-2.19,.27-3.35l.04-.27-.2,.19c-.87,.81-5.03,8.72-4.77,16.43,.16,4.66,1.86,8.34,5.06,10.94l.05,.04,.06-.04c2.09-1.3,5.33-2.06,5.36-2.07l.18-.04,.19-.09h.04c1.26-.1,1.55-.23,1.55-.23,0,0-.22,.64,0,5.29,.71,1.88,4.19,6.48,12.76,12.04l.12-.14s2.61,2.23,7.56,4.22l.1-.15c-10.47-11.52-9.94-18.59-9.94-18.59l.11-.15c.96-1.28,3.61-2.42,4.46-2.42,.63,0,5.66,2.54,14.25,14.62l.16-.09c-3.38-9.73-3.67-8.74-3.06-8.64,2.63,.46,11,1.73,21.97,10.36l.19,.15-.04-.23c-.38-2.38-2.01-9.46-4.89-13.56-1.39-1.76-4.74-3.2-9.7-4.15,0,0,.85-1.62,1.2-2.17,1.24-1.97,2.65-4.49,2.65-4.49l.28-.11c2.52-1.02,4.21-1.75,5.02-2.18,.78-.41,1.37-.57,1.37-.57l2.02-.88c2.19-.75,4.14-2.1,4.14-2.1l.28-.14c.22-.11,5.31-2.75,6.07-3.42l.02-.02v-.02c.67-1.88,3.04-15.4,3.18-21.21v-.17s-.36,.22-.36,.22c-5.96,3.67-11.75,5.56-17.23,5.62h-.03s4.79-3.48,8.53-5.12l-.05-.18c-1.69,.16-10.63,1.21-20.5,5.96l-.04,.02v.04c-.43,1.22-1.19,3.71-1.2,3.74l-.27,.58v.02c-.85,1.83-1.8,5.23-1.81,5.26,0,0-.26,.54-.56,1.54l-.1,.15s-10.03,1.96-14.59,7.16l-.04,.04s-1.03-1.56-1.31-6.1c0-4.47,1.01-10.36,4.43-17.43l.85-1.79-.3,.11Z"/><path class="cls-14" d="M104.42,165.51c-.08,.24,.2,.4,.65,.57h.02s.02,0,.02,0c4.87,.88,6.13,1.67,8.53,3.38,2.81,2.37,3.76,2.89,6.31,3.42,2.61,.55,6.67,.33,7.19,.23,.67-.13,.74-.88,.74-.91l.02-.23-.42,.06c-3.25,.52-5.85,.23-7.45-.1-2.8-.58-4.29-1.77-5.73-2.92-.57-.45-1.15-.92-1.81-1.35-1.96-1.26-4.38-1.77-5.83-2.08l-.7-.15c-.52-.13-1.42-.29-1.53,.06Z"/><path class="cls-2" d="M103.38,159.77c-.23,2.14,.13,3.63,1.07,4.44,.8,.69,1.89,.73,2.63,.53l.29-.08-.19-.23c-.96-1.14-3.43-4.73-3.46-4.76l-.28-.41-.05,.5Z"/><path class="cls-25" d="M114.04,162.48c-.7,.63-1.73,2.21-1.75,3.43v.07s.04,.05,.04,.05c.16,.2,3.87,4.84,8.12,5.79,2.52,.56,4.81,.49,6.45-.21l.45-.19-.36-.19c-2.39-1.14-6.83-3.27-12.17-9.03l-.05-.05h-.07c-.18-.02-.4,.08-.66,.32Z"/><path class="cls-14" d="M14.45,183.11h.02s.02,.02,.02,.02c2.03,.65,5.84,.32,8.67-.76l-.08-.36-2.08,.21c-2.63,.28-5.11,.55-5.77-.36-.84-1.16-.54-2.7-.53-2.71l-.35-.11c-.06,.13-1.37,3.21,.12,4.08Z"/><path class="cls-2" d="M15.7,182.08s-.41,1.23-.66,1.23c-1.4-.53-1.85-1.81-.41-4.6-.04,1.77,.12,3.08,1.07,3.37Z"/><path class="cls-25" d="M25.99,164.4h0c-.97,1.64-2.95,3.2-4.86,4.71l-.37,.29c-2.12,1.68-3.5,2.9-5.1,6.74-1.02,2.45-1.23,4.34-.61,5.45,.31,.55,.81,.88,1.47,.99,1.69,.26,4.42-.93,5.93-1.68,.38,.14,.74,.14,.99-.05,.23-.17,.35-.46,.35-.8,0-.03,0-.06,0-.09,.23-.11,.74-.4,1.33-.97,.56,.14,.87-.05,.97-.32,.03-.07,.04-.14,.04-.21,0-.17-.09-.33-.22-.45,.65-.87,.96-1.58,.96-2.25,0-.75-.38-1.47-1.02-2.31,.35,.18,.72,.46,1.04,.71,.49,.38,.76,.58,.98,.56l.25-.03-.1-.23s-.16-.39-.43-.89c.4,.28,.78,.73,1.06,1.07l.31,.36,.31-.2c-1.09-2.86-4.05-4.45-5.52-5.19,.18-.11,.51-.27,.87-.41,.16,.13,3.07,2.5,3.07,2.5l.12-.08c.05-.04,1.31-.89,2.14-1.8l.13-.14s-1.86-1.7-2.15-1.97c.03-.02,.24-.17,.24-.17l-.13-.15c-.71-.86-.95-1.66-.95-2.35,0-1.33,.88-2.24,.94-2.3l-.22-.3s-.81,.46-1.8,1.94Z"/><path class="cls-2" d="M23.59,180.15c0,.39-.32,.7-.72,.7s-.72-.31-.72-.7,.32-.7,.72-.7,.72,.31,.72,.7Z"/><path class="cls-2" d="M25.99,178.47c0,.27-.23,.49-.51,.49s-.51-.22-.51-.49,.23-.5,.51-.5,.51,.22,.51,.5Z"/><path class="cls-2" d="M24.04,169.67s-.82-.78-2.88,1.23c-2.05,2.01-5.01,6.61-5.59,9.94,.33,1.15,3.25,.9,4.03,.58-1.73-.33-3.25-.37-2.26-1.85,.99-1.48,6.45-8.67,8.79-5.92,2.75,2.22,3.62,2.05,3.7,1.44,.08-.62-4.27-5.5-5.79-5.42Z"/><path class="cls-2" d="M28.27,167.95l-1.77-1.97c-1.44,1.77-1.85,2.38-1.77,3.37,1.07,1.52,3.04,2.55,3.7,2.55,1.23-.86,1.69-2.3,1.69-2.3l-1.85-1.64Z"/><path class="cls-20" d="M31.95,155.24s-.89,1.09-1.35,2.31l-.03,.07,.03,.07c.59,1.39,2.02,3.09,4.38,5.19,3.52,2.16,6.49,2.27,7.05,2.27,.98,0,1.54-.22,2.02-.78l.25-.29-.38-.02s-1.72-.08-3.51-.92c-1.3-.87-3-2.1-3.62-2.99l-.04-.06-.07-.02s-.98-.19-1.89-.52c-.64-.23-1.5-1.19-2.19-1.99,.19,.13,.77,.52,.77,.52l-.13-.48c-.15-.61-.96-2.26-.99-2.33l-.13-.26-.18,.23Z"/><path class="cls-20" d="M30.34,158.25c-.29,.12-.39,.53-.28,1.2v.02c1.89,6.91,9.26,7.92,10.04,7.82,.49-.08,1.9-1.44,2.18-1.71l.27-.27-.38-.05c-7.24-1.01-9.22-4.04-10.28-5.66l-.21-.32c-.56-.83-1-1.16-1.34-1.03Z"/><path class="cls-20" d="M29.69,159.49c-.12,.14-.29,.45-.53,.88l-.85,1.47,.02,.08c1.33,4.55,5.16,6.38,8.04,6.57,2.34,.15,3.69-.9,3.74-.94l.35-.28-.45-.05c-7.22-.79-9.23-5.74-9.88-7.37l-.25-.6-.2,.23Z"/><path class="cls-20" d="M28.24,162.34l-1.02,1.59v.03c-.32,.99-.2,1.96,.33,2.88,.99,1.72,3.13,2.73,4.66,3.08,2.7,.61,6.04-.89,6.18-.95l-.08-.36c-2.32,.08-3.5-.29-3.51-.29-.15-.05-.24,0-.33,.04,.02-.1,.04-.22,.04-.22,0,0-.87-.28-.93-.3,0,0,.03-.01,.03-.01l-.33-.17c-3.2-1.65-4.19-3.3-4.69-5.27l-.11-.42-.24,.37Z"/><path class="cls-8" d="M32.75,157.83l-4.86,9.54c-.64-1.14-1.21-2.54-.44-3.75,.76-1.21,1.02-2.16,1.14-2.26,.48-.38,2.07-4,2.31-4.43,.25-.43,.9-1.76,1.34-1.78,.31,.97,1.08,2.31,1.13,2.58-.13,.3-.62,.11-.62,.11Z"/><path class="cls-26" d="M40.5,162.94s-3.81,5.56-8.07,7.18c2.45,.7,6.04-.67,6.33-1.52,.92-.76,4.67-3.85,5.43-4.48-1.37-.29-2-.35-3.69-1.18Z"/><path class="cls-20" d="M103.22,151.12c1.63,3.6,10.33,3.13,11.83,2.53,1.48-.59,2.18-1.96,2.21-2.02l.12-.23-.26-.03c-1.33-.17-2.3-.04-3.02,.06l-.8,.08c-.29,0-.86,.19-1.59,.44-.78,.27-1.76,.6-2.52,.71-.32-.02-1.16-.3-2.22-.66-.97-.33-2.18-.74-3.53-1.12l-.39-.11,.17,.37Z"/><path class="cls-20" d="M103.48,152.19l-.03,2.12,.04,.05c1.19,1.56,4.33,1.61,7.37,1.66h.17c3.87-.23,5.2-2.36,5.25-2.45l.26-.43-.48,.16c-2.28,.76-4.62,.91-5.76,.66l-.41-.09s.15,.26,.19,.33c-.14-.09-.28-.19-.41-.3l-.04-.04h-.06c-3.32-.37-4.36-.86-5.8-1.82l-.29-.19v.34Z"/><path class="cls-20" d="M115.52,154.4c-2.46,1.98-5.65,1.71-9.26,1.2l-.12,.35c2.94,1.62,5.48,2.22,7.55,1.79,1.46-.3,2.1-3.03,2.12-3.15l.12-.52-.42,.33Z"/><path class="cls-20" d="M103.45,154.9s.02,.37,0,2.19v.03c.56,3.17,6.03,3.06,8.66,3.01h.54s.02-.01,.02-.01c1.76-.41,2.28-2.52,2.3-2.6l.1-.42-.38,.22c-2.58,1.52-7.19-.62-8.2-1.33l-.48-.34,.19,.55c.05,.16,.17,.32,.33,.5-.03-.02-.05-.05-.08-.08-.78-.75-1.23-1.19-1.55-1.21l-.43-.04s.47,.59,.63,.79c-.5-.45-1.03-1.03-1.32-1.4l-.38-.48,.04,.61Z"/><path class="cls-20" d="M106.18,159.85c.15,.5,2.77,1.44,4.05,1.47,1.39,.03,2.54-.93,2.59-.97l.4-.33h-.52c-2.99,.03-4.61-.02-6.3-.4l-.31-.07,.09,.31Z"/><path class="cls-26" d="M105.1,151.23l-.32,8.04c-1-.24-1.45-.9-1.37-4.76,.13-1.53-.19-3.59-.21-3.73,.85,.26,1.9,.45,1.9,.45Z"/><path class="cls-26" d="M110.76,152.36s1.53,.74,1.8,1.45c-.53,2.59-1.77,7.27-1.82,7.51,2.51-.4,4.49-2.88,4.6-4.36-.5-.4-.11-.77,.48-2.35,.66-1.38,1.51-3.04,1.77-3.44-1.03-.05-4.86-.05-6.82,1.19Z"/><path class="cls-19" d="M73.91,137.56s-2.25,1.79-7.17,3.36c4.41-.69,5.84-1.15,5.84-1.15-1.93,1.29-9.98,5.01-13.7,6.21,4.97-.46,12.37-4.05,12.37-4.05-6.67,5.43-8.51,6.81-10.16,7.49-1.93,.69-9.84,1.7-12.37,1.7-2.02-.41-5.52-3.22-6.3-5.24,.32,2.9,2.07,6.25,3.86,6.81,3.03-.05,9.2-.64,10.9-1.01-.97,1.38-5.15,3.4-8.78,3.5-3.63,.09-6.9-1.7-7.82-2.39-.78,1.84-1.01,1.98-1.01,1.98l-1.84-1.93-.83-4.37c-.69,2.34-1.06,5.15-.41,6.53,.64,1.38,1.84,2.44,1.84,2.44-.87-.05-3.86-1.98-5.24-5.34,.05,3.04,.32,4.37,3.45,5.75,1.66,.55,7.04,.28,8.51,.14,1.47-.14,6.02-.78,6.02-.78-1.66,1.15-7.22,2.71-15.22,2.53,2.44,1.06,2.44,1.47,2.44,1.47,1.61,1.43,4.18,2.3,5.98,2.53,1.79,.23,4.69,.78,8-2.3,3.31-3.08,8.32-6.62,8.32-6.62,0,0,1.27-.54,2.14-.84,.9-.32,3.08-2.04,4.47-3.44,1.39-1.4,5.53-5.18,5.53-5.18,0,0,3.37-2.14,4.6-2.91,1.23-.77,4.6-2.94,4.95-3.24,.34-.3,1.65-1.88,1.15-2.12-.5-.24-2.38,.36-3.53,.39-1.15,.03-.59-.46-2.35-.29-1.76,.17-3.63,.39-3.63,.39Z"/><path class="cls-27" d="M47.33,160.97s-8.23-.32-10.21-.78c.97,1.33,3.31,3.22,5.52,3.77,2.21,.55,6.71,.32,8.32-.51,1.61-.83,9.52-8.46,9.61-8.64l-3.49,1.06s-5.65,6.48-8.55,7.4c-2.99,.64-5.84-.32-7.4-1.29,1.84-.09,6.21-1.01,6.21-1.01Z"/><path class="cls-27" d="M36.25,153.84s1.7,2.85,4.09,3.36c2.39,.51,9.52,.18,9.52,.18-5.56,.69-10.25,.87-10.67,.87-.46-.09-3.36-2.76-2.94-4.41Z"/><path class="cls-27" d="M47.56,155.17s-6.44-.41-7.04-1.06c-.6-.64-1.1-3.54-1.1-3.54,2.21,3.13,3.73,3.45,8.14,4.6Z"/><path class="cls-27" d="M41.95,144s.23,5.75,6.16,8.46c-1.43,.92-6.81-1.7-6.16-8.46Z"/><path class="cls-27" d="M67.7,148.14s-3.63,4.23-12.51,6.81c3.68-1.7,6.12-4.14,6.12-4.14,1.98-.64,2.39-.37,6.39-2.67Z"/><path class="cls-27" d="M83.48,137.47s-7.91,6.02-7.59,5.79c3.63-2.11,8-4,10.16-4.46-1.33-1.1-2.07-1.89-2.57-1.33Z"/><path class="cls-27" d="M79.89,136.92l-4.87,3.36c5.75-1.93,9.15-3.13,9.15-3.13-.74-.69-1.06-1.1-1.06-1.1-1.43,.55-3.22,.87-3.22,.87Z"/><path class="cls-7" d="M99.26,128.09c-.78,.41-5.39,5.23-6.24,6.53l-.1,.15h.18c.89-.06,2.02,.64,3.01,1.26l.78,.47v-.16c.21-4.34,2.47-8.1,2.49-8.14l.17-.28-.3,.15Z"/><path class="cls-19" d="M102.46,140.91s-1.74,.32-3.27,.75l-.06,.02v.06c-.14,1.23,.66,6.87,1.29,7.73,.31,.24,3.53,1.32,7.09,2.5l1.88,.63,.85-.27c.64-.22,1.36-.46,2.25-.61l.33-.05-.31-.12c-.68-.27-1.52-.24-2.33-.2,0,0-.66,.02-.71,.02-4.7-2.86-6.87-10.29-6.89-10.37l-.02-.08h-.08Z"/><path class="cls-27" d="M121.36,137.96s-3.67,2.45-5.64,2.79c-4.01-.14-8.8-.1-9.01-.37,1.6-.92,11.25-2.07,14.65-2.41Z"/><path class="cls-27" d="M101.75,141.09s.17,4.86,2.11,6.56c-1.02-.24-4.11-4.59-4.66-6.15,1.43-.2,2.55-.41,2.55-.41Z"/><path class="cls-28" d="M120.55,138.19c-.49,0-10.92,1.22-12.55,2.13l-.3,.17,8.12,.13c.83-.13,4.61-2.16,4.77-2.25l.33-.17h-.37Z"/><path class="cls-27" d="M109.47,137.69s-8.74,.9-11.01,.57c-.33-.57-.66-.57-.66-.57l7.33-2.7c-5.48,1.04-6.05,1.09-6.05,1.09,.71-2.13,.85-6.48,.99-6.52,1.46,.14,4.11,.76,5.96,.38,1.84-.38,4.25-1.04,11.3-9.31,6.33,1.09,12.43,4.96,10.63,7.85-1.98,2.46-7.66,6.14-7.66,6.14,4.16-1.04,4.49-1.28,4.49-1.28,1.04-.94,5.15-5.1,5.62-5.29-.71,2.55-1.65,4.11-1.65,4.11,.1,4.16-.19,7.75-1.28,9.12-1.09,1.37-9.59,6.71-12.67,8.27,5.53-1.8,6.24-2.17,6.24-2.17-2.93,2.5-3.92,3.31-3.92,3.31h-5.15l-1.18-1.32s5.2-1.23,6.52-3.12c-4.87,1.94-8.37,2.36-9.31,2.27-.85-.99-2.22-4.25-2.93-4.82,3.59,.8,8.66,.57,8.66,.57-7.34-1.75-10.32-3.78-11.03-3.36,.33,.8,1.51,6,5.62,9.22,.05,.75-.33,1.23-.85,1.23-1.89-.14-7.61-2.93-7.61-2.93,.42,.94,.41,1.02,.41,1.02,5.02,2.11,8.34,3.15,9.21,3.15,.99-.15,2.74-.73,3.58-1.19,1.47-.13,4.72-.24,5.97-.5,1.25-.26,2.44-1.1,5.97-5.43,2.76-1.59,5.11-2.82,5.91-4.94,.8-2.11,.22-9.4,.22-9.4,0,0,.45-3.9-.63-5.5-1.08-1.6-5.91-4.53-10.67-5.95-1.96-.76-2.31-.73-2.31-.73,0,0-2.03,1.49-5.11,5.67-1.77,2.16-2.54,2.89-4.57,2.89s-6.51-1.27-7.65-.3c-1.14,.97-3.04,5.48-3.11,9.36-1.06-.3-3.94-1.9-4.55-1.7-.6,.19-2.69,3.26-2.87,4.2,2.82,.52,6.6,.3,7.7,.3s9.1-.75,12.09-1.69Z"/><path class="cls-3" d="M126.71,131.47s-2.88,4.6-4.46,5.54c-3.74,.36-11.22,.36-11.22,.36,0,0,12.65-3.38,13.59-3.95,.93-.65,2.08-1.94,2.08-1.94Z"/><path class="cls-3" d="M114.34,125.65s3.67,.36,7.98,2.59c3.16,1.58,3.38,2.08,1.08,3.38-2.3,1.29-9.71,3.52-10.86,4.1-1.87-.36-7.05-2.16-7.33-2.95,5.11-3.52,9.13-7.12,9.13-7.12Z"/><path class="cls-24" d="M67.99,110.6s-1.4,2.38-1.28,2.68c2.14-1.52,2.8-2.11,2.8-2.11l-1.52-.57Z"/><path class="cls-24" d="M60.76,116.4s-1.75,4.67-.34,9.64c3.85,4.09,5.94,6.09,8.28,6.62,2.34,.54,8.67-.39,9.01-.78,1.46,.29,2.29,.29,2.29,.29,0,0,2.97,3.23,2.97,4.12l-1.67,.3c-.95-2.05-1.46-2.65-1.46-2.65-4.65,0-10.6-.06-11.79-.33-1.19-.27-8.61-6.04-9.59-7.8-.36-2.74-.21-5.18,0-6.07,.21-.89,1.78-2.81,2.3-3.34Z"/><path class="cls-24" d="M70.02,111.7c-.82,2.72-1.04,11.19-.35,13.13h0c.51,1.44,2.74,3.45,4.52,5.07,.69,.63,1.29,1.17,1.66,1.57l.02,.03,.14,.02c1.08,.12,1.19,.13,3.41,.52l.2,.03-.1-.17c-5.43-9.25-6.36-19.19-6.37-19.29v-.06s-1.75-.52-1.75-.52l-.04,.04c-.37,.4-.47,1.6-.59,3.12,0,0-.06,.59-.11,1.17-.03-.52-.04-1.01-.04-1.42,0-2.4,.4-2.96,.41-2.97l.11-.14h-.18s-.15-.02-.82-.18l-.09-.02-.03,.09Z"/><path class="cls-7" d="M77.12,129.79s-4.24-13.78-5.45-15.19c-.53,5.41-.19,9.54-.19,9.54,1.51,2.87,5.65,5.65,5.65,5.65Z"/><path class="cls-24" d="M97.62,132.86l-.62-1.89-2.75,4.31-1.48-.45,2.75-3.29c-1.73,.29-3.33,1.27-3.33,1.27-.25,0-4.31-4.52-4.15-6.66,1.32,.82,5.96,1.73,7.31,1.73-3.12-3.04-7.11-3.9-10.97-11.96-.82-.2-1.93-.16-1.93-.16,1.11,2.51,2.05,4.93,1.52,7.02-.94-3.9-2.71-6.45-3.25-7.02-.9,.12-1.31,.12-1.31,.12-.25,1.73,1.52,9.61,2.83,12.16,1.48,2.55,4.89,6.45,4.89,6.45-1.73-1.23-5.55-4.56-6.82-6.82-1.27-2.26-3.04-8.87-3.29-13.19-2.22-.94-2.59-1.68-2.59-1.68,3.66,.9,8.42,1.44,11.05,1.23,1.48,2.1,4.15,6.25,8.14,7.11,2.22,.37,14.96,3,15.88,3.18,.06-2.48,.8-5.89,4.74-9.34,3.37,1.15,5.3,2.26,5.3,2.26,0,0-1.43,1.1-2.08,1.81-.76,.52-2.9,2.51-4.21,4.54-1.65,2.08-2.72,3.9-5.09,3.96-2.35-.02-4.82-.75-6.1-.75s-2.15,.08-3.56,3.34c-.67,1.85-.89,2.71-.89,2.71Z"/><path class="cls-24" d="M84.59,114.25h-.3s.25,.17,.25,.17c.01,0,1.41,.89,2.22,1.67l.17,.17-.14-1.99-.07-.02s-.39-.09-2.15,0Z"/><path class="cls-8" d="M91.04,109.75c-.11,.03-.19,.1-.21,.2-.03,.11,.02,.22,.12,.31l-.02-.02c1.09,1.99,.57,2.95,.07,3.88l-.32,.61,.07,.04s.46,.29,.88,.09c.41-.19,1.26-1.51,1.26-2.59s-1.41-2.34-1.47-2.39c-.1-.12-.25-.17-.38-.14Z"/><path class="cls-8" d="M89.21,110.24c-.37,.43-.48,1.36-.3,2.47v.02s.02,.02,.02,.02c.96,1.14,1.56,1.76,1.56,1.77l.24,.26-.09-.34c-.03-.1-.09-1.08,.12-2.2,.16-.88,.07-1.59-.24-1.97-.17-.21-.41-.32-.7-.32-.25,0-.46,.1-.62,.29Z"/><path class="cls-20" d="M92.77,111.13s-1.56,2.18-3.12,2.63c.37,1.03,1.6,1.72,2.38,1.44,.78-.37,1.68-2.47,.74-4.07Z"/><path class="cls-20" d="M95.07,115.73s2.88,1.6,5.3,1.81c-2.01,.49-6.08,.78-8.67-2.26,1.77,.33,3.37,.45,3.37,.45Z"/><path class="cls-26" d="M108.18,115.97s-4.97-.12-6.12,.37c-1.15,.49-2.96,1.6-6.7,1.15,1.36,.62,6.41,1.52,12.82-1.52Z"/><path class="cls-26" d="M111.84,115.77s-3.94,1.97-4.31,3.04c-.37,1.07,.12,3.29,.49,3.78,1.36-3.29,3.82-6.82,3.82-6.82Z"/><path class="cls-20" d="M86.51,112.1s4.59,6.98,7.72,8.1c5.13,1.12,12.94,2.34,13.62,2.1,.19-2.05,.3-5.93,8.42-8.71-2.54,1.66-6.84,5.18-6.65,10.95-3.95-.94-9.64-2.24-13.89-2.83-2.59-.45-2.83-.67-3.15-.77-.35,.08-2.99-1.28-5.45-4.41-.35-2.14-.13-2-.4-2.83-.27-.83-.23-1.6-.23-1.6Z"/><path class="cls-24" d="M92.61,114.23s-.27,.4-.37,.77l-.02,.07,.07,.03c1.36,.68,3.35,.57,3.43,.57l.02-.18c-.65-.16-1.37-.53-1.95-.82-.47-.24-.85-.43-1.09-.47h-.06s-.03,.04-.03,.04Z"/><path class="cls-24" d="M106.14,108.76l.02-.02c-.16,.08-3.85,1.95-4.63,2.94l-.12,.15h.19c1.96,0,5.76,.88,6.86,1.39l.04,.02h.04s3.98-1.5,7.55-2.56l.18-.05-.15-.11c-3.21-2.41-9.82-1.92-9.98-1.76Z"/><path class="cls-24" d="M99.32,113.24l-.13,.14,.19,.02s2.08,.22,3.48,1.42l.03,.03h.05c2.73-.58,4.8-1.36,4.82-1.37l.11-.04-.07-.1c-.3-.41-2.43-.92-4.3-1.03-1.43-.08-3.32,0-4.19,.94Z"/><path class="cls-24" d="M98.45,113.7h-.02s-.01,.02-.01,.02c-.59,.65-1.02,.91-1.62,1.26l-.94,.57h.33c.9,0,4.03-.04,6.23-.53l.17-.04-.13-.12c-1.84-1.72-3.99-1.17-4.01-1.17Z"/><path class="cls-20" d="M129.83,92.35c-.08,.04-.76,.4-.71,.95v.11s.12-.03,.12-.03c.76-.22,.72-.95,.72-.96v-.14s-.14,.06-.14,.06Z"/><path class="cls-8" d="M130.73,89.69s-.58,1.45-1.07,2.46l-.06,.13h.14c.57,.03,1.11-.62,1.34-1.25,.21-.61,.14-1.12-.21-1.37l-.1-.07-.04,.11Z"/><path class="cls-26" d="M100.62,110.34s-2.49,2.54-4.44,3.32c-1.95-.39-3.12-.68-3.12-.68,.98-.44,6.74-2.05,7.57-2.64Z"/><path class="cls-20" d="M93.2,109.11h0c-.72,.13-1.09,.37-1.12,.69-.03,.31,.29,.57,.31,.58,.03,.02,1.07,.54,2.82,.18,1.74-.35,4.29-2.77,4.4-2.88l-.1-.15c-1.71,.64-4.77,1.3-6.31,1.58Z"/><path class="cls-20" d="M128.31,98.14s-2.3-2.29-3.71-2.39c-1.42-.1-15.38,8.84-19.92,12.16-2.49,1.61-6.4,3.61-8.11,3.61-1.12,0-1.27-.78-1.27-.78-1.9,0-2.73-.1-2.73-.1,0,0,.83,1.27,.59,2.1,1.17-.34,6.35-1.76,7.37-2.25-1.9,1.42-4.05,2.64-4.44,2.88-.78,.29-3.52-.88-3.32,.44,.44,.59,2.83,1.32,3.47,1.22,.64-.1,2.59-1.81,3.17-2.25,.59-.44,6.15-3.96,7.86-4.83,2-.98,9.28-4.79,11.43-6.74,2.1-1.07,4.64-2.83,9.81-2.15-.1-.59-.19-.93-.19-.93Z"/><path class="cls-26" d="M128.11,97.6s-2.2-3.08-3.86-2.93c-1.66,.15-13.04,8.59-13.48,9.08,0,0,12.6-7.27,13.87-7.52,1.12,.24,3.66,1.9,3.66,1.9l-.2-.54Z"/><path class="cls-20" d="M77.81,109.97s6.2,.83,7.83,1.93c-4.8,.37-14.56,.43-18.32-3.4-.33,.8-.3,1.73,.37,1.83,1.23,.83,5.33,2.07,8.2,2.8,2.87,.73,8.53,1.33,11.09,.87-.47-.9-.9-1.73-.3-2.23,.6-.5,1.4-1.07,1.73-1.17,.07-.47-1.67-.73-4.2-.73-2.16-.23-5.46-.5-5.46-.5-.37,.23-.93,.6-.93,.6Z"/><path class="cls-1" d="M25.25,78.29s-.27,1.06-1.18,.88c-.91-.18-6.28-3.34-7.34-6.31-1.06-2.97-2.64-7.01-4.86-6.28-.18-.64,2.12-3.55,3.52,.09,0,0,2.19,5.07,4.89,8.1,2.34,2.06,3.85,2.46,4.73,2.37,.52,.64,.24,1.15,.24,1.15Z"/><path class="cls-1" d="M18.97,80.38l-1.46,1.79c-.85-1.15-1.4-1.67-2.03-1.91-.64-.24-9.2-1.09-12.78-4.49,.82-.43,1.7,.12,3.79,1,0,0,2.4,1.21,4.7,1.79,2.31,.58,4.77,1.18,5.86,.7,.94,.76,1.91,1.12,1.91,1.12Z"/><path class="cls-1" d="M14,84.18c.09,.02-.55,.73-2.15,1.85-1.61,1.12-3.64,1.82-5.1,1.82s-4.89,.09-5.01,1.27c-.12,1.18,2.97,2.22,3.76,2.28-1.46,.09-5.67-.61-5.31-2.82,.36-1.15,1.24-1.21,3.19-1.09,0,0,2.64,.33,3.85-.58,1.21-.91,5.52-3.09,6.77-2.73Z"/><path class="cls-1" d="M28.17,63.45s1.75-.99,1.86,.93c.11,1.92-.55,3.45-.44,6.35-.38,3.4-1.04,8.82,1.1,11.5,2.03,2.96,2.36,5.09,3.51,7.56,1.21,2.46,2.74,2.3,4.11,3.29,1.37,.99,3.78,1.31,3.89,2.14,.11,.82-1.48,2.25-3.34,1.75-1.86-.49-4.16-1.31-4.77-2.79-.93,0-3.12-1.75-3.18-4-.93,.77-.77,1.97-.77,1.97-.6,.05-3.4,.66-4.77,.16,0,0-3.89-2.79-1.7-5.64,2.46-1.86,3.12-2.52,2.9-2.85-.44-.55-3.67,1.1-6.9,3.34-2.85,2.14-3.18,2.25-3.18,2.25,0,0-1.75-1.37-.05-3.83,1.7-2.47,.99-3.23,.99-3.23-.6,.6-1.44,2.2-3.1,1.83,.73,1.52,.91,2.1,.48,3.03-.52,1.06-1.91,2.39-1.64,2.97,.89,.52,2.26-.21,2.7-.35,.37,.4,.87,.37,1.08,.23,.46-.37,3.99-3.16,4.65-2.95,.67,.21,.21,2.66,.77,3.03,.56,.37,.19,1.45-.46,2.6,.75,.89,2.53,1.16,4.78,.64,2.18,.4,2.68,.54,3.93,.52,1.54,.56,2.22,1.23,3.22,1.16,.67,1.35,2.16,2.82,4.16,2.95,1.99,.13,4.59-.31,5.4-1.89,.81-1.58-.5-1.87-2.58-2.53-1.29-.66-1.89-1.39-2.47-1.62-.58-.23-2.06-.46-3.14-2.85-1.08-2.39-1.33-3.51-1.6-4.36-.27-.85,.04-2.85-.27-3.8-.31-.96-1.58-1.81-1.85-1.91-.29-.12-.71-2.08-.98-4.18-.27-2.1,.5-3.05,.42-4.32-.08-1.27,.23-3.41,.6-5.48,.37-2.08-.75-4.45-3.36-1.61Z"/><path class="cls-2" d="M14.32,85.64s-4.99,3.29-9.81,3.12c-3.96,0,.11,1.59,2.41,1.37,2.3-.22,6.79-1.64,7.45-1.64,.33-1.53,.33-1.64-.05-2.85Z"/><path class="cls-2" d="M2.43,78.36s-.16-1.42,1.7-.66c1.86,.77,4.44,2.63,6.79,2.85,2.36,.22,5.86,.93,5.81,1.97-.05,1.04-3.94,.66-5.09,.49-1.15-.16-2.41-.66-4.66-.99-1.92-.77-3.78-2.08-4.55-3.67Z"/><path class="cls-2" d="M21.12,88.06s1,1.88,1.25,2.01c-.96,.88-1.05,1.71-1.05,1.71,0,0-4.47-.71-4.72-1.09,1.92-1.25,4.51-2.63,4.51-2.63Z"/><path class="cls-2" d="M36.17,93.16s2.26,2.05,4.51,2.26c-1.51,.67-5.27-.13-4.51-2.26Z"/><path class="cls-2" d="M32.65,89.44s1.51,2.51,2.72,2.93c-1.17,1.09-1.34,1.21-1.34,1.21,0,0-1.76-1.3-1.88-1.67-.13-.38,.17-2.59,.5-2.47Z"/><path class="cls-2" d="M32.15,87.31s-1.76-3.6-2.42-4.01c-.92,.29-4.93,2.01-5.18,4.35,2.93,2.09,3.93,2.67,3.93,2.67,0,0,.75-1.17,3.68-3.01Z"/><path class="cls-2" d="M28.47,81.24c-.12,.17-4.68-.63-11.75,6.31,.46-1.88,2.3-4.26,2.01-6.1,1.21,.21,3.34-.84,4.01-1.75,4.18,.17,6.98-.17,5.73,1.55Z"/><path class="cls-2" d="M11.5,68.54s.17-1.09,1.21-1.09,2.13,5.27,4.51,7.27c2.38,2.01,5.56,3.59,3.76,5.31-1.88,.84-3.26,.08-4.97-2.09-1.63-2.26-1.42-2.63-1.59-3.3-.17-.67-1.55-2.51-2.22-3.55-.67-1.05-.71-2.55-.71-2.55Z"/><path class="cls-2" d="M27.05,64.98s1.3-1.25,2.18,.04c-.34,3.35-1.59,9.57-.54,13.88-2.01,.42-3.55-.63-3.59-1.88-.04-1.25,.75-3.68,1.04-5.98,.29-2.3,.92-6.06,.92-6.06Z"/><path class="cls-15" d="M32.53,79.78s.54,1.88,.59,3.55c1.05,2.8,1.63,3.43,1.63,3.43,.42-1.55-.5-5.31-2.22-6.98Z"/><path class="cls-15" d="M28.81,82.96s-3.51-1.34-7.82,2.22c2.38-1.09,4.39-1.17,5.52-.75,1.17-.79,2.3-1.46,2.3-1.46Z"/><path class="cls-9" d="M103.62,81.99s1.05,1.32,2.78,1.73c1.73,.41,2,.91,3.09,1.68,2.05,.55,2.96,1.91,2.64,2.91-.64,1.23-1.55,1.5-1.82,3-.27,1.5-2.05,2.59-3.19,2.46,0,0-.82-.23-1.05-.68,.59-1.18,2.23-4.28,2.23-4.64-.05-.46-.77-.59-1.27,.73-.5,1.32-1.23,3.46-2.32,3.41-1.09-.05-2.28-.59-2.28-1.5,.09-1.09,1.64-4.23,1.32-5.05-.77,.5-1.82,2.91-1.73,4.05-1.32-.09-2.91-.95-2.55-2.32,.36-1.55,2.64-5.69,2.64-5.69,0,0,.46-.5,1.5-.09Z"/><path class="cls-1" d="M108.22,85.59s-1.14,2.27-1.59,2.09c-.23-1.23,.5-2.46,1.59-2.09Z"/><path class="cls-2" d="M102.12,85c-.91,1.68-1.82,3.69-1.91,4.28l-1.05-1.32s1.55-3.64,2-4.1c.14-1.09,.68-1.64,1.27-1.77,.05,.5-.55,2.18-.32,2.91Z"/><path class="cls-2" d="M104.26,87.64l-.27,4.32-.96-.27,1.23-4.05Z"/><path class="cls-1" d="M100.73,92.85c-.16,.24-.1,.58,.19,1l.02,.03,.03,.02c.59,.38,1.14,.85,1.63,1.28l1.08,.88,.11-.12c.37-.34,.67-.5,.88-.46,.22,.04,.36,.3,.48,.52l.03,.06c.05,.08-.02,.16-.3,.38-.23,.17-.49,.37-.46,.66v.07s.05,.05,.05,.05c.45,.45,.99,.68,1.47,.63,.45-.05,.84-.33,1.16-.82,.82-1.28-1.42-3.09-1.52-3.16l-.08-.06-.1,.03c-1.48,.49-2.13-.1-2.7-.62-.29-.26-.56-.51-.9-.58-.55-.1-.91-.02-1.07,.23Z"/><path class="cls-1" d="M104.52,95.35l-.88,.49,.06,.15c.38,.94,.58,.94,.67,.94h.05l.04-.03s.56-.35,.83-.65l.04-.05v-.07c0-.37-.52-.71-.62-.77l-.09-.06-.1,.05Z"/><path class="cls-15" d="M104.81,93.96s1.41,1.46,1,2.59c-.41,1.14-1,.96-1,.96,1.14,.46,2.18,.41,2.46-1.64-.23-1.18-1.77-2.23-1.77-2.23l-.68,.32Z"/><path class="cls-15" d="M110.19,96.2c.1,.46,1.45,1.22,2.15,1.22,.75,0,1.03-.5,1.04-.52l.19-.34-.38,.09c-.18,.04-1.25-.25-1.88-.42l-1.18-.31,.07,.28Z"/><path class="cls-15" d="M114.63,92.87s-.82,2.18,.09,2.68c-.82,.96-2.59,1.59-3.73,.27,1.82-1.18,2.87-1.64,3.64-2.96Z"/><path class="cls-10" d="M120.05,90.55s-1.32-3.41-2-3.78l-.77,.18c.5,1.37,1.87,2.5,1.59,4.73,.82-.64,1.18-1.14,1.18-1.14Z"/><path class="cls-6" d="M119.5,85.32s-3.19,.5-3.41,1.23c-.36-.14-1.14,.36-1.14,.36-.41-.45-2.05-1.41-2.05-1.41,1.09-.09,4.51-2.05,6.6-.18Z"/><path class="cls-1" d="M118.22,84.27l-.27,.2,.31,.13c1.74,.72,3.28,2.36,3.84,4.08l.08,.25,.21-.16c2.9-2.17,5.39-3.05,5.41-3.05l.24-.08-.15-.2c-3.67-4.9-8.33-2.12-9.67-1.15Z"/><path class="cls-15" d="M126.51,84.5s-3.55-.82-5.55,2.23c-1.05-.77-1.82-1.5-1.82-1.5,0,0,3.19-2.05,7.37-.73Z"/><path class="cls-9" d="M117.73,84.36s.46,.36,1.77,.96c3.28-2.05,7.69-.64,7.69-.64-.27-1.46-5.19-3.78-9.46-.32Z"/><path class="cls-1" d="M108.49,77.21s.37,4.36,.25,6.09v.14s.12,.05,.12,.05c1.31,.46,2,.89,2.56,1.24l.84,.48c.92,.41,1.98-.09,2.83-.49,.55-.26,1.04-.33,1.52-.4l.71-.12c.19-.05,.54-.19,1.02-.39,1.25-.51,3.34-1.37,4.72-1.37h.3l-.13-.27c-.63-1.31-3.3-2.69-7.65-2.61,0,0-1.24,.13-1.24,.13-.54,.09-.69,.11-1.38-.27-.34-.19-.7-.45-1.09-.73-.87-.63-1.85-1.35-3.15-1.67l-.25-.06,.02,.26Z"/><path class="cls-15" d="M122.06,82.61s-3.18-2.9-6.87-1.98c-2.32,.47-3.44-.2-4.22-1.31-.78-1.12-1.54-1.03-1.54-1.03,.34,.5,.17,4.3-.82,5.18,.32-2.61-.18-6.47-.18-6.47,0,0,1.93,.25,3.46,1.68,1.37,1.14,1.82,1.03,2.65,.89,.84-.14,6.23-.5,8.94,2.71-.67,.17-1.42,.33-1.42,.33Z"/><path class="cls-9" d="M76.39,52.62l-.14,.08,.05,.15c.02,.06,2.1,6.06,6.43,11.11,0,0,.05,.06,.09,.1,0,0-.03,.02-.03,.02,0,0,.45,.38,.46,.38,0,.03,.05,.12,.05,.12,.4,.97,1.95,2.03,2.01,2.07l.1,.07,.1-.06c1.43-.88,6.4-4.19,7.22-4.89l.16-.14-1.3-1.22c-2.39-2.25-6.01-5.64-9.08-7.67l-.05-.03h-.06c-.1,0-.2,.03-.29,.07,0-.01-.02-.36-.02-.36-.17-.02-.43,.04-.71,.13,.05-.09,.08-.17,.08-.23,0-.09-.03-.15-.06-.2-.16-.22-.53-.22-.74-.15-.05,.02-.11,.04-.19,.07,0,0,0,0,0,0,.03-.11,.07-.22,.07-.31,0-.07-.02-.14-.08-.19-.13-.12-.28-.06-.67,.1l-.11,.05s-.09,.04-.14,.06c0-.01,.01-.03,.01-.04,0-.09-.05-.16-.07-.18-.12-.12-.35-.35-3.07,1.11Z"/><path class="cls-9" d="M91.49,52.13l-.25,.02,.1,.24c.02,.05,2.21,5.28,3.25,8.45l.04,.13s.11,0,.13,0c.02,.05,.04,.12,.04,.12,.1,.31,.61,1.59,1.15,2.95,0,0,.42,1.06,.77,1.94-1.29-1.48-2.45-2.58-2.46-2.59l-.12-.11-.54,.44c-.4,.3-.74,.56-1.05,1.53l-.26,1.09c-.27,1.3-.6,2.91-1.68,3.62-1.58,.31-6.96,1.02-8.03,.9-.25-1.09-.38-1.18-.43-1.22l-.09-.06-.1,.05c-.59,.28-1.67,.67-2.05,.51-.15-.06-.3-.34-.43-.7,.14,.16,.29,.25,.49,.29,.53,.12,4.35-2.42,4.39-2.45l.2-.15-.19-.15c-1.11-.86-2.45-1.32-2.51-1.34,0,0-.03,0-.05-.02,0,0-.03-.05-.03-.05-.14-.19-.37-.23-.47-.24,0-.01,.03-.13,.03-.13l-.26-.14c-2.76-1.43-9.68-5.36-14.2-10.97l-.06-.07h-.09c-.17,0-.29,.17-.33,.22-.61,.85-1.49,4.49-.61,7.05l.36-.04c.01-.12,.03-.2,.04-.31-.03,.26-.06,.53-.06,.78,0,.49,.06,.96,.22,1.35v.02s.02,.02,.02,.02c.81,1.22,3.66,8.49,4.08,12.79,.22,1.01,.4,1.26,.82,1.68,.35,.35,9.37,5.92,11.27,6.28,1.54,.28,3.24-.73,4.74-1.63l1.02-.59,.48-.25c2.34-1.24,8.44-4.49,9.17-9.22,.56,.55,1.17,1.05,2.03,1.04,1-.01,2.18-.74,3.61-2.22l1.14-1.12c2.05-1.98,2.82-2.73,2.85-6.71,.02-1.72-.44-2.86-1.31-3.23-.66-.28-1.84-.22-3.71,1.65-2.19,2.15-2.85,3.31-3.21,4.04-.33-.28-1.06-1.69-1.31-2.86,.08,0,.15-.02,.2-.06,.17-.1,.26-.32,.26-.57,0-.08-.03-.17-.05-.25,.13-.09,.47-.32,.47-.32,.61-.42,.95-.65,1-.96,.01-.04,.02-.1,.02-.18,0-.8-.62-3.48-2.34-5.61-1.61-1.99-3.65-2.89-6.09-2.67Zm3.71,8.83s.09,0,.14,0v.03s.01,.05,.02,.07c-.04-.04-.1-.08-.15-.11Z"/><path class="cls-1" d="M78.17,57.45s5.11,4.41,9.19,5.7c-4.62-3.5-8.17-8.55-7.85-9.36,1.99,.11,9.14,4.73,9.84,5.59,.65,1.34,.27,4.68,.27,4.68,2.74-1.77,2.26,.22,2.31,2.58,.05,2.37-5.86,3.71-5.86,3.98,2.21,.97,4.62,1.29,4.84,1.88,.22,.64,.88,4.69-2.7,8.99,4.8-2.53,8.46-4.2,9.8-8.88,1.67,1.34,4.46,.7,7.31-3.17,2.85-3.87,2.58-3.93,2.42-6.61,0,0-.11-2.9-1.88-3.23-1.77-.32-5.67,4.13-6.69,6.01-.59-1.99-.89-4.12-.17-4.07,1.07-.81,1.1-.78-.17-5.16-.96-3.31-6.31-5.98-7.82-4.15,.22,4.3-7.74-1.56-10.81-1.45-3.06,.11-4.73,2.37-4.62,3.44,.11,1.08,2.58,3.23,2.58,3.23Z"/><path class="cls-2" d="M67.79,63.36s2.96,5.16,3.5,6.88c1.45,.81,2.37,.75,3.33,.75-.38,.59-.86,1.56-.48,3.28,.38,1.72,2.1,5.59,2.69,6.13-3.06-1.34-5.27-3.87-5.27-4.03-.27-1.18-2.96-11.13-3.76-13.01Z"/><path class="cls-1" d="M74.51,71.21s1.4,.22,1.34,.75c-.05,.54-1.99-.27-1.34-.75Z"/><path class="cls-1" d="M79.73,69.92l-.7,.59c.91,.54,2.8,.49,3.55,.11,.48-.64-.27-1.67-2.85-.7Z"/><path class="cls-1" d="M78.44,64.76s-.27,2.42-.65,3.39c-.86-1.29-1.07-1.67-1.07-1.67,0,0,1.13-1.72,1.72-1.72Z"/><path class="cls-9" d="M102.79,66.27s.38-1.02,1.24,.21c.86,1.24,.65,2.64-.05,3.44-.7,.81-1.83,1.67-2.53,1.72-.91,.05-1.67,.16-2.15,.48-.7-.43-.11-1.99,1.35-2.47,1.45-.48,2.15-2.31,2.15-3.39Z"/><path class="cls-9" d="M106.94,60.35s-.32,.86-1.08,1.02c-.81,.05-1.02-.16-5.97,4.62-.91-.43-.05-1.67,1.02-2.63,1.08-.97,3.87-5,6.02-3.01Z"/><path class="cls-15" d="M101.61,66.21s0,2.42-.7,2.85c-.86,.21-1.4,.54-1.34,1.02,.59,.38,3.92-.32,3.66-2.9-1.99-2.26-1.61-.97-1.61-.97Z"/><path class="cls-15" d="M103.23,64.39s1.45,.16,1.56,.7c.11,.54,.64,1.77,.64,1.77,.7-1.18,.11-3.55-.81-4.41-1.45,.91-1.83,1.51-1.4,1.94Z"/><path class="cls-15" d="M95.27,64.33l-3.01,2.04c.54-2.2,1.02-3.01,2.04-3.33,.75,.91,.97,1.29,.97,1.29Z"/><path class="cls-15" d="M92.79,55.94s3.98,3.66,4.57,5.27c-1.02-4.41-3.5-7.69-3.5-7.69,1.78,.54,4.68,2.69,4.68,2.69-.21-1.67-3.33-4.73-7.47-4.14,1.4,2.96,1.72,3.87,1.72,3.87Z"/><path class="cls-2" d="M77.36,73.1s.97-.81,1.08-.97c-.48-.32-2.63-.11-2.42,1.61,.64-.11,1.34-.64,1.34-.64Z"/><path class="cls-9" d="M92.85,71.59s.59,1.29,.43,1.24c-.48-.65-2.31-1.13-2.31-1.13l1.88-.11Z"/><path class="cls-2" d="M88.82,71.64s-1.61,1.61-1.94,1.99c-.91-.59-2.74-1.56-2.74-1.56,3.12-1.07,4.68-.43,4.68-.43Z"/><path class="cls-2" d="M76.23,66.86c.16,0-2.85-3.76-1.94-6.24-4.95-3.06-6.99-6.13-6.99-6.13-.75,.59-1.51,3.71-.75,6.51,1.4-2.15,1.83-1.02,3.71,1.24,1.88,2.26,5.65,4.62,5.97,4.62Z"/><path class="cls-9" d="M66.14,63.59c-.51,2.42,1.19,5.71,2.28,6.88,.3,.32,.52,.45,.71,.42l.16-.02v-.16c0-.82-2.51-6.51-2.8-7.15l-.23-.53-.12,.57Z"/><path class="cls-21" d="M76.34,53.15s6.67,.22,6.94,.22c-.91-1.94-6.24-3.55-6.94-.22Z"/><path class="cls-5" d="M67.5,59.73l-.05,.05v.07c0,.45-.21,1.78-.21,1.79l-.03,.21h.22c1.55,0,1.76,0,1.95,.17,.06,.05,.46,.53,.93,1.09,5.14,6.11,6.34,7.15,6.77,6.94l.22-.11-.16-.18c-.05-.06-5.21-5.93-6.08-7.38-.88-1.47-2.01-2.59-2.42-2.75-.34-.13-1.03-.01-1.13,.09Z"/><path class="cls-5" d="M84.54,67.04c-.26,.42-2.87,1.85-3.86,2.34l-.05,.03c-.31,.15-.6,.3-.59,.55,.01,.21,.24,.29,.32,.32h.03s.03,.01,.03,.01c.79,0,4.99-2.26,5.46-2.52l.28-.15-.27-.17s-.58-.36-1.16-.49l-.13-.03-.07,.11Z"/><path class="cls-18" d="M82.7,68.37s-.3,1.11-.59,1.28c-.3,.2-2.1,.95-2.03,.23,.36-.26,2.62-1.51,2.62-1.51Z"/><path class="cls-18" d="M73.66,65.78l.1,1.31c1.77,2.19,2.95,3.08,3.54,2.95-.36-.85-3.64-4.26-3.64-4.26Z"/><path class="cls-5" d="M92.9,62.05c-.47,.13-6.12,3.82-7.25,4.55l-.19,.13,.82,.82,.13-.08c5.83-3.68,7.5-4.08,7.52-4.08l.25-.05-.13-.22c-.05-.09-.51-.87-1.03-1.06l-.06-.02-.06,.02Z"/><path class="cls-2" d="M92.1,64.18l-5.51,3.1v.1s-.09,1.47-.88,1.88c-.48,.25-1.38,.55-1.96-.28l-.1-.13-1.37,.74,.03,.14s.09,.41,.44,1.18l.05,.11h.12c.93,0,5.66-.6,7.83-1.06h.06s.04-.06,.04-.06c2.15-2.45,1.55-5.45,1.52-5.58l-.05-.25-.22,.12Z"/><path class="cls-2" d="M69.35,62.82c0,.16,.07,3.95,2.24,6.88l.05,.07h.09c1.25,.06,2.28,.35,3.03,.56l.85,.21c.24,.03,.44-.05,.54-.21,.11-.17,.09-.39-.03-.57-.16-.24-.47-.36-.82-.3-.2,.03-.7,.06-1.09-.31-.4-.37-.56-1.06-.47-1.99v-.06s-.03-.06-.03-.06c-.67-1.03-3.44-4.1-4.1-4.39l-.26-.11v.28Z"/><path class="cls-22" d="M86.36,67.41c-.49,.36-2.61,1.37-2.63,1.38l-.12,.06,.02,.14s.06,.38,.4,.58c.33,.19,.79,.17,1.37-.05,1.52-.6,1.26-1.98,1.26-1.99l-.06-.29-.23,.18Z"/><path class="cls-22" d="M73.63,67.57s-.14,.88,.36,1.46c.3,.35,.75,.53,1.35,.53h.33l-.17-.28c-.6-.99-1.52-1.79-1.56-1.82l-.25-.22-.06,.33Z"/><path class="cls-17" d="M83.88,77.03l-.04,.02h0c-.28,.15-.99,.23-2.11,.23h-.07c-.06,.04-.58,.28-1.4,1.52-.33,.61-.19,1.03-.02,1.28,.57,.8,2.24,.92,3.55,.7,2.49-.66,2.83-2.04,2.82-2.8,0-.03-.02-.81-.27-.87l.08,.04c-1.05-.96-2.06-.4-2.55-.13Z"/><path class="cls-12" d="M80.5,78.61s3.22-.75,4.07-.68c.86,.07,.43,2.64-3.9,2.4,1.29,1.07,5.08,.5,5.9-1.5,.5-1.72-.14-2.47-2.04-2.22-1.89,.25-3.25,.68-3.25,.68l-.79,1.32Z"/><path class="cls-11" d="M83.91,76.07l-1.12,.29c-1.75,.43-2.78,.41-3.39,.4-.37,0-.61-.01-.8,.08-.42,.21-.5,1.16-.33,1.65,.11,.33,.35,.49,.62,.44l.1-.02,.04-.1c.4-1.11,1.7-1.63,2.01-1.53,.54,.16,1.77,.14,3.2-.3,1.24-.5,1.88-.01,1.9,0l.37,.3-.07-.47c-.06-.38-.15-.76-.44-.94-.38-.25-.95-.09-2.1,.21Z"/><path class="cls-2" d="M80.3,75.2l-.07,.04c-.87,.53-1.83,.48-2.46,.45l-.5-.02-.04,.14s-.07,.24,.1,.47c.22,.31,.73,.47,1.52,.49,1.2,.03,6.81-.61,6.88-1.44,.04-.47-.07-1.31-1.22-1.72-1.04-.36-3.02,.86-4.2,1.59Z"/><path class="cls-2" d="M80.9,77.16h-.01s-.01,0-.01,0c-1.35,.38-2.14,1.56-2.08,2.43,.04,.75,.15,2.5,3.45,2.5s4.15-2.3,4.15-2.32c.06-.28-.02-.39-.1-.43-.17-.09-.32,.09-.38,.15-1.04,1.15-2.82,1.57-4.64,1.08-.61-.16-.98-.42-1.11-.77-.17-.46,.14-.96,.24-1.11l.38-.48c.38-.46,.6-.74,.48-.95-.06-.11-.18-.15-.36-.13Z"/><path class="cls-16" d="M81.07,77.79s-1.89,2.32-1.89,3.18c-.46-.93-.57-1.97,.36-3.04,.82-.72,2.22-1.18,1.54-.14Z"/><path class="cls-16" d="M78.64,75.72l-.5,1c-.61-.18-.95-.52-.87-1.05,.51,.05,.8,.12,1.37,.05Z"/><path class="cls-16" d="M84.22,73.5s.89,1.4,.29,2.5c1.29-.36,1.32-.75,1.04-1.5-.29-.75-.57-.75-1.32-1Z"/><path class="cls-21" d="M98.11,73.18s.09,.33-.3,.72l-.32,.32h.45c.23,0,.91-.3,1.19-.44l.59-.27-.65-.08c-.45-.06-.62-.38-.62-.39l-.34,.14Z"/><path class="cls-1" d="M86.05,95.36c-.12,.13-.13,.26-.12,.34l.03,.21,.2-.05c.07-.02,.16-.03,.23-.04,.11,.61,1.84,2.66,3.08,3.94l.1,.11,.13-.08c4.46-2.79,5.64-4.67,5.69-4.75l.16-.27-.31-.02c-5.05-.3-8.57-.06-9.2,.61Z"/><path class="cls-1" d="M96.43,76.1c-.37,.07-1.24,.84-2.62,2.08-.9,.81-1.83,1.64-2.34,1.97l-.81,.5c-1.23,.74-2.91,1.76-3.91,2.9l-.2,.23,.29,.08c.68,.18,1.31,.77,1.86,1.28,.54,.51,.98,.91,1.39,.91,.63,0,.95-.49,1.29-1l.42-.59c.2-.24,1.99-2.38,3.36-2.78l.11-.03,.02-.11c.73-3.75,1.34-5.17,1.34-5.18l.14-.33-.35,.07Z"/><path class="cls-9" d="M92.56,80.5s-.58,2.84-.81,3.01l-2.43,2.2-1.68-1.27,4.93-3.94Z"/><path class="cls-9" d="M95.63,83.4s-2.9,2.38-1.85,8.92c-.93,.75-1.22,.98-1.22,.98l-1.1-1.68v1.62c-.87,.06-5.51,.64-5.62,.41-.12-.23-4.63-5.56-5.68-8.75-.35-1.56,.17-1.56,1.1-1.22,.93,.35,2.38,.52,3.19,.06,0,0,3.07,1.28,3.88,2.78,.81,1.51,2.43,2.49,2.72,1.45,.29-1.04,.41-3.13,1.33-4.06,.93-.93,2.91-2.44,4.99-2.78-1.16,1.16-1.74,2.26-1.74,2.26Z"/><path class="cls-15" d="M92.44,94.64l1.74,1.79c.98-.64,1.33-1.79,1.33-1.79h-3.07Z"/><path class="cls-15" d="M97.25,81.43s-2.2,1.68-3.3,9.1c-.69-1.16-.64-7.19,3.3-9.1Z"/><path class="cls-2" d="M94.65,83.69s-2.37,6.26-3.01,7.24c-.46-3.01,.46-5.16,.46-5.16,0,0,2.14-2.49,2.55-2.09Z"/><path class="cls-2" d="M80.91,85.25s4.35-.06,5.45,.58c1.04,1.45,1.1,7.19,1.1,7.19l-1.56-.12s-3.77-4.75-4.98-7.65Z"/><path class="cls-24" d="M102.24,94.99c-1.02-.73-1.87-1.76-1.81-2.46-.11-.46-.56-.75-.56-.75,0,0-1.35,2.94-1.59,3.47-1.06,1.47-11.89,11.06-19.48,13.42-1.41,0-2.62-1.14-2.62-1.14-2.56,.02-3.98,.02-3.98,.02,1.88,2.29,3.29,3,3.82,3,0,0,3.24-1.29,3.47-1.35,.47,.41,3.24,.47,3.24,.47,1.12,.29,1.48,.03,2.05,.15,.57,.12,2.86,.05,3.89,.74,.68-.61,1.52-1.07,3.52-1.08,1.04-.66,1.33-.63,1.41-.65,1.34-.08,6.59-1.42,8.04-2.83,.32-1.83,.57-3.75,.57-3.75,.47-.57,2.41-2.91,2.76-3.87,.35-.96-1.76-2.87-2.73-3.38Zm-6.93,10.24c-3.3,.24-6.28,.6-7.6,.97,1.16-1.71,8.6-5.86,8.8-6.08,.2-.22,4.64-3.34,4.64-3.34,0,0-3.26,6.08-5.85,8.45Z"/><path class="cls-24" d="M97.07,77.73s2.85,3.5,3.99,6.25c.22-1.46,.72-2.59,3.09-1.97,2.37,.62,4.42,1.48,4.47,1.46-.03-1.27-.21-6.52-.47-7.27-1.07-.7-8,.03-9.72-1.35-1.19-.42-2.18,1.45-1.36,2.88Z"/><path class="cls-24" d="M82.19,104.58c-.7,.57-6.02,2.94-6.02,2.94l-2.63-.13s3.34-1.85,4.35-2.37c-.26-.53-1.36-.09-4.61-1.05l3.91-.17c1.36-.18,3.91,.17,5.01,.79Z"/><path class="cls-24" d="M67.88,103s2.99,.62,2.9,.75c-.75,1.1-2.63,1.49-3.47,1.36-.83-.13-1.93-3.34-1.93-3.34,.75,.09,2.5,1.23,2.5,1.23Z"/><path class="cls-24" d="M70.78,87.89l-2.55-.26c-1.45,2.68-3.16,5.53-3.73,5.58-1.05-.18-1.23-.66-1.23-.66,1.27-.48,.96-.92,.96-1.1s-1.32-2.41-1.32-2.41c-.53,.04-2.55,.79-3.25,.44,.61,1.36,2.02,4.48,2.02,4.48,.79,.26,1.45,.17,1.45,.17,.13,1.49-.83,5.8,7.6,7.07,0,0-4.48-3.34-6.37-6.63,1.49-.26,1.54-.39,1.54-.39,0,0,3.47-3.03,4.87-6.28Z"/><path class="cls-24" d="M72.01,88.07s-3.6,7.38-3.6,9.66c-1.32-.97-2.15-2.28-2.15-2.28,2.28-1.93,5.75-7.38,5.75-7.38Z"/><path class="cls-24" d="M77.8,82.05s3.6,13.39,8.34,18.88c-2.59-.48-4.65-1.49-4.65-1.49-1.54-1.01-6.89-8.43-6.89-8.43,2.5,4.96,4.57,8.43,5.49,9.22,2.59,1.76,4.22,2.81,4.83,2.85,2.33-1.54,4.39-3.07,4.39-3.07-1.93-3.38-7.2-7.16-9.44-16.82-1.54-1.01-2.06-1.14-2.06-1.14Z"/><path class="cls-24" d="M72.36,79.02s1.8,6.15,2.5,7.46c-.13-2.15-.44-3.82,.26-4.13,.7-.31,1.71,5.18,2.33,7.16,.61,2.15,2.5,4.39,2.99,4.7-1.58-4.13-3.56-8.91-3.73-12.78-2.33-1.71-4.3-2.99-4.35-2.41Z"/><path class="cls-24" d="M62.13,68.44s3.38,2.72,4.92,4.39c1.41,2.85,4.13,9.44,4.13,9.44-1.8-5.84-2.9-10.54-4.87-12.08-2.02-1.14-3.69-1.76-4.17-1.76Z"/><path class="cls-1" d="M66.08,88.24c-1.1,.53-2.57,.78-2.58,.78l-.31,.05,.19,.25s.53,.69,.92,1.69l.1,.25,.2-.18c.46-.41,1.6-2.36,1.73-2.58l.3-.52-.55,.26Z"/><path class="cls-24" d="M59.39,68.54c-1.25,1.91-1.41,4.26-1.42,4.36v.19s1.11,.07,1.11,.07l.06-.07c1.29-1.57,2.82-1.15,2.88-1.13l.49,.14-.28-.42c-1.21-1.82-1.68-2.29-2.4-3l-.32-.32-.13,.19Z"/><path class="cls-9" d="M62.58,72.08c-.25,0-2.42,.08-2.8,1.06l-.07,.18,.19,.06c.36,.12,1.05,.38,1.69,.71-3.57-1.39-7.42-.65-8.63-.35-.96,.24-2.07,.62-2.3,1l-.09,.15,.14,.1c.27,.18,.57,.42,.85,.66-3.67-2.44-9.69-2.27-12.27-1.54l-.41,.12,.37,.22c2.54,1.53,4.11,3.7,4.66,6.44,.75,3.68-.6,7.45-1.29,8.4l-.26,.36,.44-.06s.07,0,.17,0c-.48,.09-.9,.32-.93,.85v.13s.11,.05,.11,.05c1.49,.67,3.79,.28,4.15-.21,0,0,.1-.13,.19-.25,4.22,.13,5.8-1.45,6.88-2.54l.17-.17c1.83-1.48,2.39-2.71,2.39-3.84,0-.78-.27-1.52-.59-2.27,.55,.82,.78,1.57,.78,2.24,0,1.57-1.2,2.76-2.18,3.72l-.29,.29v.09c.09,.56,3.04,1.7,5.41,1.75,2.6,.05,6.14-1.04,7.59-1.81l.05-.03,.74-1.57,.84-1.8v-.03c.3-2.62-5.3-11.66-5.54-12.04l-.06-.09h-.11Zm-17.11,18.03c.13,.01,.26,.03,.38,.04-.11,0-.24,0-.38-.04Z"/><path class="cls-1" d="M67.1,80.12s-.52,2.5-.73,2.85c-.65,.78-4.66,3.67-8.71,3.32,.13-2.11-.17-3.92-1.77-5.43,.56-1.34,2.59-1.72,2.59-1.72l-3.71,.3c-.35-.39-.86-1.38-1.77-1.77,.91,1.29,1.16,5.39,.86,6.21-.47,1.17-3.15,4.27-9.06,3.23,.69-1.94-.86-6.12-.86-6.12-.17,2.68,.78,4.7-1.68,8.71-.73,.91-.09,.99-.09,.99,.13,.08,2.37,.69,4.4-.39,2.07,.04,5.82-.91,6.9-2.37,2.33,1.08,4.49,2.03,8.37,1.25,3.24-.69,4.92-1.51,4.92-1.51,1.16-2.07,1.68-3.67,1.68-3.67-.09-.17-.86-2.63-1.34-3.88Z"/><path class="cls-2" d="M60.37,73.3l2.2-.04,.35,1.77c-.69-.69-2.55-1.73-2.55-1.73Z"/><path class="cls-2" d="M52.26,75.24s2.59,2.11,2.67,3.32c3.54-1.47,8.15-1.55,8.15-1.55-1.34-1.73-6.99-4.27-10.83-1.77Z"/><path class="cls-15" d="M54.81,86.46s2.03,.91,2.72,1.42c-1.51,.3-4.23,.17-4.23,.17,.09-.13,1.51-1.6,1.51-1.6Z"/><path class="cls-15" d="M43.12,88.48s2.16,.95,3.93,.65c-1.42,.86-2.98,.65-4.23,.47-.78-.17,.04-.73,.3-1.12Z"/><path class="cls-13" d="M33.6,75.15l-.43,.37,.56-.04c.22-.02,5.53-.3,7.21,6.02,1.37,4.98-.24,7.61-2,9.87l.22,.28c1.73-.8,5.63-3.35,4.63-9.84-.54-3.51-2.65-6.43-5.38-7.44-1.76-.65-3.47-.38-4.82,.77Z"/><path class="cls-10" d="M41.29,86.3s-1.95,1.75-5.2-.03c-.24,2.26-.62,2.94-.62,2.94,.68,.92,2.94,2.16,4.24,1.23,.99-1.81,1.57-3.52,1.57-4.14Z"/><path class="cls-10" d="M43.62,86.1s-1.3-.14-1.37,.07c-.31,.89-1.78,4.11-2.09,4.86,2.05-.79,3.42-3.42,3.46-4.93Z"/><path class="cls-6" d="M32.54,77.13s3.52,2.98,3.63,5.85c-.24,1.06-1.57,.58-1.57,.58-.21-1.68-1.03-3.28-3.49-4.72-.17-2.16-.48-2.36-.48-2.36,0,0,1.16,.03,1.92,.65Z"/><path class="cls-6" d="M41.67,76.96s2.6,5.61-.27,5.68c-.44-1.85-1.71-4.59-3.63-5.71,1.03,2.33,2.6,3.9,2.6,4.17-.48,.38-2.09,1.37-2.7,1.33-.82-1.61-3.66-5.71-5.65-6.64l1.47-.41s.72-1.74,3.59-1.3c2.87,.44,4.14,1.71,4.59,2.87Z"/><path class="cls-21" d="M56.85,34.1s3.24,6.25,8.43,8.38c-.35,1.11-.35,2.62-.35,2.62-1.29-1.29-6.52-5.46-8.07-11Z"/><path class="cls-21" d="M71.8,41.55l2.04,.18c-1.24,4.48-.49,11.44,3.33,17.48-1.6-1.77-8.47-8.52-5.37-17.65Z"/><path class="cls-21" d="M76.41,37.25s1.38,3.99,2.62,4.88c-1.38,1.11-2.44,1.51-2.44,1.51,0-2.79-.18-6.39-.18-6.39Z"/><path class="cls-21" d="M77.35,14.77s-1.66,2.13-2.72,9.14c-1.06,7.01-.22,12.64-.34,12.68-.63-1.82-1.5-8.83-.56-13.33,.94-4.51,2-10.27,6.32-15.37,.16,.34-.81,2.16-.81,2.16-.53,.91-1.88,4.73-1.88,4.73Z"/><path class="cls-21" d="M69.12,30.83s-1.11-14.59,9.97-23.94c1.91-.74,1.92-.51,1.92-.51-1.82,2.47-2.16,2.88-2.16,2.88,0,0-2.79,1.97-5.57,8.33-2.79,6.35-3.79,12.8-3.85,14.52-.41-.44-.31-1.27-.31-1.27Z"/><path class="cls-21" d="M102.58,49.53s-5.37-.77-9.41-.15l-1.02-.15,3.84-1.84c.97-.05,4.3,.56,6.6,2.15Z"/><path class="cls-21" d="M110.76,51.89s-3.63-4.81-9.77-5.17c-1.38-.51-2.15-.72-3.53-.72,.77-.97,1.43-1.94,1.43-1.94,2.81,.2,8.59,2.2,9.87,4.04,1.28,1.84,2,3.79,2,3.79Z"/><path class="cls-21" d="M105.14,32.09s-4.65,10.08-12.74,13.76c3.38-2.61,7.93-7.11,9.05-10.59-4.6,5.47-6.7,7.72-13.81,10.89,.82,.92,2.35,3.48,2.35,3.48,1.64-.46,2.56-.72,2.56-.72,2.56-.97,5.73-2.76,7.47-7.01,2.2-3.63,4.5-7.11,5.11-9.82Z"/><path class="cls-21" d="M94.45,28.46s-6.85,6.8-7.21,9.97c1.89,.41,4.6,.1,4.6,.1-3.99,1.23-5.68,2-9.21,1.69,.56-2.3,7.98-9.05,11.82-11.76Z"/><path class="cls-21" d="M116.65,22.73s-1.07,7.52-3.79,10.64l-4.25,1.84s4.96-4.76,8.03-12.48Z"/><path class="cls-21" d="M123.81,18.84s-3.22,8.03-4.76,9c1.84-4.09,3.53-10.54,2.92-15.5-.92,5.32-3.43,14.17-6.8,19.69,2.66-1.38,6.7-3.68,6.7-3.68,.92-2.1,1.94-9.51,1.94-9.51Z"/><path class="cls-4" d="M78.22,46.52c-2.03,.98-2.76,2.15-2.79,2.19v.03s-.01,.03-.01,.03c0,.08,.14,2.07,.78,2.89l.06,.08,.07-.07c.96-.92,3.22-1.89,4.52-1.65-1.22,0-2.61,.12-4.44,2.02l.11,.15,.34-.17c1.82-.91,2.93-1.46,6.68,1.35,4.1,3.07,10.08,8.91,12.39,11.59l.16-.09c-1.23-3.24-2.96-6.67-11.58-15.74-3.31-2.84-4.2-3.6-6.29-2.6Z"/><path class="cls-5" d="M80.48,49.99s2.56-1.23,8.7,6.55c-3.38-2.97-6.24-4.04-7.16-4.2-1.38-.82-2.66-1.69-5.68,0-.2-.77,2.05-2.35,4.14-2.35Z"/><path class="cls-4" d="M92.4,50.15s8.64,2.81,11.66,5.88c6.44,3.79,8.9,6.19,9.87,6.39-.51-2.4-.87-3.48-.87-3.48,0,0-9.41-12.12-20.67-8.8Z"/><path class="cls-4" d="M98.28,47.69s5.78,1.12,8.24,1.94c2.25,2.15,5.63,8.59,5.63,8.59-2.56-3.12-6.7-8.13-13.86-10.54Z"/><path class="cls-4" d="M71.84,42.48s.26-1.33-.31-1.33c-.82,1.23-3.94,5.37-.56,11.3-1.48-1.28-4.45-9.56-.46-11.36-3.33,.05-5.32,.36-5.37,2.51-.41,2.05-.66,6.65-.26,7.83,2.2,3.43,4.04,5.27,8.39,8.69-1.74-1.74-3.17-5.01-3.17-5.01,3.68,4.4,8.34,9.16,14.22,11.77-6.34-6.09-6.85-7.16-8.44-8.85-.21-.51-4.5-6.24-4.81-10.69-.21-1.94,.77-4.86,.77-4.86Z"/><path class="cls-4" d="M63.04,46s-6.45-4.76-7.98-10.08c.66,4.09,3.27,8.9,6.14,10.64-2.51,1.33-3.84,1.79-3.84,1.79-1.64-1.28-6.14-5.99-5.27-13.45,.87-7.47,3.73-12.69,4.66-13.81-1.18,3.84-1.28,3.38-1.07,6.29,0,0-1.23,9,9.31,17.54l-.15,.97-1.79,.1Z"/><path class="cls-4" d="M79,7.08s-7.93,7.52-8.95,17.39c-1.02,9.87,.92,16.47,.92,16.47l-.87,.15s-2.15-6.14-2.25-8.44c-.1,3.02,.36,8.54,.36,8.54-1.48,.41-2.35,.87-4.5-1.54-1.02-3.22-1.99-10.95,3.84-20.05,2.51-3.63,3.38-4.6,3.38-4.6-3.33,2.66-9.41,9.72-9.97,20.97-.92-.51-1.33-2.1-1.33-2.1,.61-1.89,.46-9.62,9.92-19.54,4.45-4.81,9.46-7.26,9.46-7.26Z"/><path class="cls-4" d="M100.74,35.93s-11.61,4.45-13.61,4.81c-.56,1.58-1.02,3.78-1.02,3.78,1.33,1.64,1.53,1.64,1.53,1.64,1.74-.77,4.5-1.84,8.03-4.76,3.53-2.92,5.06-5.47,5.06-5.47Z"/><path class="cls-4" d="M79.2,37.56s10.08-9.31,20.77-12.94c-3.89-.2-15.55-.97-23.38,7.32l.26,.72s6.96-6.39,16.68-7.31c-6.85,1.94-10.03,3.17-15.96,8.95,.56,2.35,1.64,3.27,1.64,3.27Z"/><path class="cls-4" d="M94.9,14.64s7.79-3.31,9.81-3.5c-5.4,2.66-9.01,4.94-10.95,6.73-.65,1.75-1.03,2.96-1.03,2.96,2.77-1.29,15.47-11.44,22.8-13.64-6.69,.65-16.68,3.95-20.29,6.16-.19,.72-.34,1.29-.34,1.29Z"/><path class="cls-4" d="M97.05,23.1s10.02-8.79,22.49-9.95c-6.66,7.37-14.93,15.57-14.93,15.57,8.14-6.27,10.53-8.14,10.53-8.14-5.17,8.92-5.36,11.25-10.73,13.31,1.16-2.84,1.1-3.68,1.1-3.68-2.46,2-8.08,6.01-9.24,6.27-1.03-.26-5.82,.26-5.82,.26,0,0,2.71-6.08,16.8-16.8-2.71,.65-10.21,3.17-10.21,3.17Z"/><path class="cls-1" d="M98.32,62.55c.04,.14,.15,.46,.31,.85-.1-.2-.19-.39-.3-.62l-.03-.06h-.07c-.07,.03-.18,.09-.16,.34,.06,.59,.97,2.4,1.28,2.4h.06l.03-.05s0-.03,0-.05c0-.14-.14-.51-.39-1.07,.14,.25,.28,.48,.44,.67l.2,.25-.04-.32c-.17-1.37-1.13-2.38-1.17-2.42l-.16,.09Z"/><path class="cls-5" d="M98.53,61.87c-.06,.31,.31,1,.76,1.79,.16,.29,.33,.58,.34,.65h.18c.18-.56-.98-2.29-1.11-2.48l-.13-.19-.04,.22Z"/><path class="cls-5" d="M96.12,52.99h-.29s.24,.17,.24,.17c1.82,1.19,2.53,2.91,3.05,4.44v.03s.64,.39,.64,.39c1.23,.75,2.75,1.67,3.17,2.8l.05,.12,.1-.09c2.65-2.24,3.44-1.39,4.02-.77l.03,.04h.05c.56-.09,1.88-.92,1.94-.95l.12-.08-.12-.08c-3.59-2.43-10.79-6.12-13.01-6.03Z"/><path class="cls-21" d="M105.06,59.65s-3.34-2.49-4.74,4.35c2.76-2.99,2.8-3.26,4.74-4.35Z"/><path class="cls-21" d="M99.85,54.02l2.99,3.3c4.04,.12,3.3-.15,3.3-.15-2.18-1.32-4.58-2.56-6.29-3.15Z"/><path class="cls-5" d="M109.99,64.43l-2.37,.82c-.5,1.28-.47,2.02-.47,2.02,3.26-.85,8.86-3.03,10.41-4.16-3.3,.82-4.43,1.28-7.58,1.32Z"/><path class="cls-21" d="M109.37,59.31s-.86,.51-2.02,.97l-.14,.06,.11,.1s.35,.32,.35,.99v.14l2.89-1.3-1.14-.99-.06,.04Z"/><path class="cls-5" d="M59.92,62.86l-.31,.17h.35c.99,0,4.25,1.42,5.68,2.11l.13,.06,.18-2.94h-.09c-.75-.05-4.94,.03-5.94,.6Z"/><path class="cls-4" d="M60.93,58.41h-.03s-.02,.02-.02,.02c-.55,.43-2.07,3.17-2.15,4.56v.15s.13-.06,.13-.06c2.22-.94,5.12-.9,6.51-.89h.52s-.04-.12-.04-.12c-.25-.79-.63-2.76-.63-2.78v-.04s-.05-.02-.05-.02c-1.4-.7-3.2-.94-4.24-.81Z"/><path class="cls-4" d="M60.11,55.38s-2.76,2.25-3.42,3.19c-2.18,.62-5.48,2.14-7.69,4.16-.47-.82,3.84-4.86,11.11-7.34Z"/><path class="cls-21" d="M65.28,53.28s-1.71-.47-6.06,.58c1.32-.82,5.3-1.95,5.68-2,.54,.06,1.04,1.38,1.04,1.38-.35,0-.66,.04-.66,.04Z"/><path class="cls-21" d="M65.74,53.24l-2.02,5.36c1.01,.43,1.67,.54,1.67,.54,.19-2.8,.85-5.71,.85-5.71l-.5-.19Z"/><path class="cls-4" d="M64.48,45.92c-.14,.02-14.11,2.46-16.21,16.51l-.05,.34,.21-.26c5.75-7.09,12.13-9.7,16.46-10.64l.13-.03s-.45-.77-.48-.81c0-.05,.04-5.12,.04-5.12l-.11,.02Z"/><path class="cls-5" d="M64.58,48.93s-5.52,2.56-6.95,4.55c4.12-2.25,6.95-3.07,6.95-3.07v-1.48Z"/><path class="cls-4" d="M124.25,46.14s-3.53,5.8-6.06,6.54c-2.53,.74-6.96,.74-7.03,.63l-.3-.71s5.58-1.3,13.39-6.47Z"/><path class="cls-21" d="M128.52,43.76s-6.58,8.7-12.46,11.9c-1.67,1.19-3.42,2.08-3.42,2.08,.52,1.9,1.23,3.57,1.23,3.57,2.64-1.64,4.5-2.79,6.62-5.1,2.12-2.31,6.14-8.48,8.03-12.46Z"/><path class="cls-4" d="M102.35,37.8s6.18-2.41,13.95-6.22l2.41-1.27,3.85-.49-11.21,11.87s-7.69,3.44-8.1,3.44c-3.68-.86-4.3-1.1-4.3-1.1,1.39-2.5,1.88-2.95,1.88-2.95,0,0,3.72-1.92,6.87-3.15-1.51,0-6.18,1.55-6.18,1.55,.29-.33,.82-1.68,.82-1.68Z"/><path class="cls-21" d="M121.79,33.34s-1.64,6.1-6.26,10.64c-2.7,1.96-6.3,4.5-6.71,4.5-.65-.86-.94-1.19-.94-1.19,0,0,7.49-3.48,13.91-13.95Z"/><path class="cls-21" d="M123.34,35.51s-6.06,9.41-11.25,13.42c-1.15,.45-2.62,.49-2.62,.49,1.06,1.88,1.31,3.11,1.31,3.11,1.23-.29,10.3-3.45,15.21-7.64,0,0-9.57,4.85-11.9,4.98,2.86-2.13,4.01-3.19,4.95-4.66,.94-1.47,4.17-8.96,4.3-9.7Z"/><path class="cls-4" d="M100.72,1.12c-12.76,4.55-22.88,14.85-23.87,16.15h0s0,.03,0,.03c-.39,1.11-.95,5.36-.81,7.27l.18,.03c2.54-6.86,10.8-14.45,16.32-18.62-13.15,10.6-16.5,18.98-16.64,19.36v.02s0,.03,0,.03c.04,.32,.4,3.16,.85,5.58l.03,.15,.12-.1c.88-.69,6.35-4.38,8.66-4.95h.03s.02-.04,.02-.04c3.85-5.35,6.36-10.49,8.38-14.7-3.21,7.97-7.54,14.05-7.59,14.12l-.11,.15h.18s.26,0,1.2-.24l.06-.02v-.07c.04-.37,1.48-2.46,2.42-3.7-.66,1.25-1.52,3.13-1.65,3.41l-.08,.18,.19-.05s1-.28,2.54-.42h.06s.02-.07,.02-.07c3.36-11.96,9.53-23.27,9.59-23.38l.12-.21-.23,.08Z"/><path class="cls-5" d="M92,6.27s-9.7,5.97-15.91,13.77c-.55,4.62-.28,5-.28,5,.66-.62,1.48-2.55,1.48-2.55,.17-.21,4.59-8.14,14.7-16.22Z"/><path class="cls-5" d="M100.66,.82s-5.1,5.27-12.48,18.03c-4.83,7.1-8.49,10.04-9.82,10.04s.39-7.1,5.21-13.09c-3.22,3.27-6.77,8.99-7.77,10.32,.33,3.83,.67,5.55,.67,5.55,2.61-2.27,6.49-4.66,11.37-6.27,2.61-1.05,4.83-4.94,4.99-5.21,1.78-4.94,2.96-9.11,8.49-19.58-.39,.11-.67,.22-.67,.22Z"/><path class="cls-21" d="M92.84,13.91l-2.27,7.27c2.11-3.16,3.94-5.66,3.94-5.66-1.94,5.05-2.61,7.77-2.61,7.99,1.72-1.39,5.21-3.61,7.38-3.61-2.94,1.78-4.71,3.22-5.55,4.6-2,.22-6.82,1-7.77,1.28,1.78-2.72,5.44-8.21,6.88-11.87Z"/><path class="cls-23" d="M118.08,118.92c-.26-.52,1.35-1.4,1.74-1.62-.26-.48-4.14-2.05-5.1-2.4,1.13-1,3.01-2.79,12.78-4.45-.48-.74-4.14-2.05-10.86,.09-1.96-1.05-2.05-1.44-4.14-1.88-2.09-.44-5.63-.22-5.63-.22,1.09-.78,3.88-1.96,6.98-3.88,3.1-1.92,7.02-4.62,9.12-5.06,2.1-.44,5.98,0,5.98,0-.44-.83-.92-3.05,.22-5.76,.65-.48,.87-.74,.92-1.09,.44-.48,2.09-1.05,1-3.4,1.13-2.22,3.1-5.41,3.1-5.41-3.14,.35-5.58,1.31-5.8,1.35-.31-.74-2.01-2.09-3.45-2.57-1.13-.39-.83-.04-1.88-1.09-1.05-1.05-2.57-2.53-8.07-2.18-1.22,.04-1.96,.04-2.7-.7-.74-.74-2.44-1.66-3.79-1.88-.44-1.57-.39-2.44-.96-2.79-.57-.35-6.59-.26-6.59-.26,2.35-1.05,8.68-2.53,18.71-11.3-.87,.13-5.76,1.61-9.55,1.79,1.66-1,2.97-2.01,2.97-2.01,.26,0,1.09,1.18,1.09,1.18,.17-1.05-.04-1.92-.04-1.92,2.36-1.66,4.41-2.88,5.71-4.01,1.31-1.13,6.76-8.72,10.16-16.4-1.7,.57-5.06,3.01-11.52,5.28,1.4-1.88,1.66-2.27,3.01-5.58,1.35-3.32,5.84-14.18,6.02-15.79-2.14,1.35-5.36,3.1-5.36,3.1,1.44-2.71,2.09-9.25,3.49-21.72-5.02,2.57-7.11,4.06-17.4,6.06,2.23-1.48,6.54-4.32,10.12-5.58-.7-.65-13.44,1.44-22.38,5.89,1.05-3.27,3.45-8.55,5.85-12.7,0,0-13.96,5.19-24.51,15.92,.74-2.79,2.88-8.42,4.27-10.03-2.57,.31-7.9,3.71-11.73,7.77-3.84,4.06-9.64,10.95-10.42,19.54-1.53-2.88-2.62-7.29-1.66-14.35-2.88,4.36-11.17,20.42-1,29.53-2.27,1.05-8.38,6.2-9.16,15.66,2.14-1.13,5.8-5.76,12.82-5.54-1.09,1.66-1.61,2.53-1.96,4.71,1.88,.22,6.41,2.01,7.37,2.4,.35,1.13,1.26,3.27,1.74,4.28-.83,.17-.96,.22-.96,.22-1.53-.96-4.28-2.49-7.24-2.22-.74,.22-1.61,3.27-1.79,5.06-1.13-.22-4.84,.35-6.89,1.48-.74,.13-.83,.04-1.53-.22-.7-.26-8.38-2.09-10.73-.13-.96-.65-4.84-.44-6.11,1.48-.39,.26-1.48,.35-1.48,.35,.04-1.53,.22-3.05,.39-5.67,.18-2.62,.18-4.06,.44-4.88,.26-.83,.74-3.23-.74-3.45-1.48-.22-4.32,.92-4.67,4.67-.13,2.22-.3,4.62-.87,6.72-.57,2.09-.61,3.75-.61,3.75-.92,0-2.62-.61-4.62-3.1-2.01-2.49-3.58-4.84-4.28-6.68-.7-1.83-1.61-3.1-3.14-2.49-1.53,.61-2.18,4.45-.44,7.02,1.13,1.57,1.83,2.49,2.31,4.36,.48,1.88,2.05,3.14,2.05,3.14-1.13-.09-5.45-.83-7.15-1.44-1.7-.61-3.1-1.22-4.75-2.14-1.66-.92-2.92-.44-2.97,1.53-.04,1.96,2.71,4.1,4.45,4.67,1.74,.57,3.75,.48,6.54,2.23-1.66,.13-3.62,1.57-5.54,2.44-1.92,.87-4.01,.65-4.84,.57-.83-.09-2.36,.17-2.4,1.61-.04,1.44,1.96,2.97,4.93,2.97s6.85-2.05,7.98-1.48c1.13,.57,2.31,3.4,4.97,3.79,2.66,.39,2.49-.74,3.97-.57,1.48,.48,2.66,.48,5.06,.3,2.22,.26,3.49,.44,3.88,.39,.31,.65,2.31,1.44,3.01,1.18,.31,1.31,2.01,2.84,3.97,2.92,1.96,.09,6.02-.52,6.32-2.84,.13-1.26-1.53-1.48-2.7-2.05-1.18-.57-2.05-1.22-2.18-1.35,.83-.13,1.96-1,1.96-1,2.53,0,8.64,0,11.34-2.1,1.22-.48,1.53-.39,2.53-.09,1,.3,3.36,.92,4.58,.92,.44,1.22,1,2.84,1.22,3.4-.13,1.53,.3,6.76,.65,7.5,.35,.74,2.22,.26,2.53,.52,.3,.26,.44,2.31,.44,3.93s.04,2.05,2.01,2.05c1,.52,.17,2.53,.17,2.53-.61,.13-2.4,.26-2.92,.83-.52,.57-4.97,6.15-5.5,6.54-.96,.35-3.01,.87-7.89,4.14-.61,.3,0,.96,.52,1.53,.52,.57,1.48,1.7,1.4,2.09-.61,.39-8.94,7.81-10.29,9.81-.74,1.92-.92,3.32-1.44,3.75-.7,.65-6.94,6.8-7.63,8.03-.7,1.22-.26,5.93-.26,5.93-.39,.61-1.09,1.75-.57,2.71-.65,.48-1.53,1.96-2.27,3.66-.74,1.44-.87,2.23-1.35,2.57-.65,.7-3.05,2.97-4.01,4.54-1.05,1.44-3.49,3.14-4.67,4.1-1.18,.96-3.66,3.79-4.76,6.98-1.31,2.92-2.18,4.75-1.22,5.93,.96,1.18,5.28,.74,7.94,.18,2.75-.79,5.93-2.49,6.76-3.45,.83-.96,4.36-4.62,6.11-5.5,1.74-.87,4.45-4.06,4.49-5.54,1.57-1.13,4.75-4.1,5.36-4.23,1.92-.04,5.67,.13,6.94-.74,1.26-.87,8.11-6.67,9.99-9.03,2.44-.87,2.22-.52,3.1-1.22,.87-.7,6.37-6.24,8.85-8.03,2.49-1.79,5.71-4.27,12.61-6.28,1.7,1.57,2.53,2.14,2.53,2.14,1.05-1.35,1.13-1.61,1.13-1.61,0,0,5.19-.35,8.37,2.31,.61,.09,.83,.04,.83,.04,0,1.7,.57,6.11,1.35,7.63,1.53,.57,2.71,1.13,2.71,1.13,.3,.61,.74,3.1,.26,4.54-.52,1.22-1.48,2.66-1.31,4.62,.18,1.96,1.13,4.01,1.4,4.76,.26,.74,1.13,1.57,2.22,1.66,1.09,.09,5.02,1.05,7.41,2.84,2.4,1.79,3.14,3.4,7.07,3.93,3.93,.52,7.81,.52,8.16-.26,.35-.79-.22-5.19-2.75-7.68-2.53-2.49-6.63-4.97-7.55-6.06-.92-1.09-2.44-2.53-2.44-2.53-.13-.44,1.92-4.8,2.23-4.97,.83-.17,2.44-.35,3.14-.96,.7-.61,3.75-3.97,4.67-5.15,1.53-.57,4.67-2.14,5.8-4.76,.44-1.35,.79-12.39-.04-14.74-.52-1.53-6.59-5.32-13.04-6.98Zm-.5-8.28c4.65-1.41,8.01-1.05,8.83-.35l-1.05,.22c-2.64,.53-7.07,1.42-10.68,3.96-4.16,2.92-5.58,8.15-5.27,9.74-2.71-.77-8.87-1.86-12.94-2.57-1.76-.31-3.16-.56-3.63-.66-1.54-.36-5.12-3.78-5.33-4.27-.21-.52-.35-1.26-.41-2.15,.22,.45,2.27,2.98,3.33,4-.35-.71-1.1-1.7-1.82-2.66-.96-1.27-1.94-2.59-1.98-3.2-.03-.62,.59-1.19,.97-1.48,.47-.36,.95-.58,1.04-.55,.16,.05,.15,.38,.12,1.17v.24c-.21-.03-.59-.52-.6-.53,.21,1.07,3.46,5.63,8.86,6.56,4.98,.86,9.1-.85,11.68-2.44-9.6,4.77-15.88,.99-16.51-.18,2.52,.68,6.86,.5,11.06-.47,2.48-.57,5.54-1.57,8.51-2.54,1.95-.64,3.96-1.3,5.82-1.84Zm-46.94,6.85l.23-2.31c.12-1.44,.22-2.68,.57-3.07l1.63,.48c0,.1,.94,10.06,6.38,19.33-2.22-.38-2.33-.39-3.42-.52h-.11c-.38-.41-.98-.96-1.67-1.58-1.68-1.53-3.99-3.62-4.49-5.03-.69-1.94-.46-10.37,.35-13.08,.7,.17,.84,.18,.84,.18,0,0-.7,.94-.31,5.59Zm-3.26-7.48v-.37c0-1.31,0-1.91,.23-2.14,.09-.09,.21-.13,.38-.13,.65,0,3.54,.17,3.57,.18,1.36,1.27,3.62,3.17,4.14,3.22,.56,0,1.77-.53,2.57-.89l.6-.26c.76,.11,2.15,.18,3.62,.25,2.47,.13,5.27,.27,5.52,.63,.02,.03,.02,.06,.01,.08-.01,0-1.28,.36-1.63,1.14-1.38,.09-7.32,.35-8.67,.13,.24,.36,2.31,.86,8.41,.13,.08,.75,.29,1.51,.53,1.94-.08,.01-8.7,.92-19.29-3.92Zm19.34,4.34l.12,1.68c-.81-.79-2.22-1.67-2.24-1.68,1.75-.09,2.12,0,2.12,0Zm3.85,.12s-.6-.63-1.56-1.76c-.14-.84-.14-1.91,.28-2.39,.14-.17,.33-.25,.55-.25,.26,0,.48,.09,.63,.28,.3,.36,.38,1.05,.22,1.89-.2,1.08-.15,2.1-.12,2.24Zm.44-4.27c-.08-.07-.11-.15-.09-.22,.02-.06,.07-.12,.14-.14,.1-.03,.21,.02,.3,.12,.01,.01,1.44,1.31,1.44,2.33s-.82,2.32-1.21,2.5c-.38,.18-.79-.08-.79-.09l.27-.53c.52-.95,1.05-1.93-.07-3.97Zm8.53-2.59s-2.64,2.5-4.36,2.85c-1.72,.35-2.75-.17-2.77-.18,0,0-.28-.23-.25-.48,.03-.28,.38-.48,1.05-.6,1.54-.29,4.61-.95,6.33-1.59Zm-5.49,.93c2.11-1.22,5.6-3.67,7.93-5.83,0,.03-.37,2.6-.78,3.37-.91,.67-2.04,1.51-7.15,2.47Zm-.3,6.21c.58,.3,1.3,.66,1.97,.83-.02,0-2.05,.11-3.38-.56,.09-.35,.35-.73,.35-.74,.23,.04,.62,.24,1.06,.46Zm8.64,.18c-2.19,.49-5.31,.53-6.21,.53l.65-.4c.61-.36,1.05-.62,1.64-1.28,.02,0,2.15-.51,3.91,1.15Zm-3.01-1.63c.88-.95,2.96-.98,4.11-.91,1.97,.12,3.97,.64,4.23,.99-.02,0-2.09,.79-4.81,1.36-1.42-1.22-3.51-1.44-3.53-1.44Zm16.68-2.71c-3.57,1.06-7.52,2.53-7.56,2.55-1.11-.51-4.93-1.4-6.9-1.4,.77-.98,4.56-2.9,4.6-2.92,.03-.03,6.65-.65,9.86,1.77Zm13.15-17.3c-.05-.5,.63-.85,.66-.86,0,0,.03,.66-.66,.86Zm1.78-2.31c-.21,.6-.72,1.22-1.25,1.2,.49-1.01,1.06-2.45,1.07-2.47,.31,.23,.38,.7,.18,1.27Zm2.29-6.48c-.06,.09-6.11,9.47-5.14,14.46l-.14-.02c-1.95-.24-3.63-.45-6.68,.8-1.41,.58-3.05,1.62-4.95,2.84-2.28,1.46-5.12,3.27-8.56,4.89-3.68,1.9-5.32,3-6.52,3.81l-1.28,.83c-.71,.42-1.4,.99-2.01,1.5-.71,.59-1.33,1.1-1.77,1.21-.69,.17-2.52-.39-3.15-.88-.15-.12-.22-.22-.22-.31,0-.06,.02-.11,.07-.14,.25-.21,1.19-.02,1.87,.11l.61,.11c.65,.08,1.35-.08,1.36-.08-1.08-.6-2.06-.84-2.92-.7,.19-.21,.86-.39,1.86-.67,1.92-.53,5.14-1.43,8.25-3.48-.53,.16-1.31,.5-2.22,.89-2.43,1.05-5.75,2.48-8.42,2.48-.04-.81-.41-1.23-.41-1.23h.4c1.32,0,1.98,0,2.81-.37,.82-.37,3.63-2.64,5.31-4l.44-.36,.18-.12c1.86-1.27,6.8-4.63,10.46-8.09,1.07-.85,2.23-2,3.46-3.22,4.16-4.12,9.33-9.25,17.33-10.25Zm-28.29,12.08c.24-.18,.49-.37,.35-.62l-.03-.06c-.14-.25-.31-.57-.62-.62-.28-.04-.62,.12-1.04,.51l-.94-.76c-.49-.43-1.05-.91-1.65-1.29-.23-.35-.3-.63-.19-.8,.12-.18,.42-.23,.88-.15,.29,.05,.53,.27,.81,.53,.58,.53,1.3,1.19,2.89,.66,.02,.02,2.21,1.78,1.48,2.92-.29,.45-.63,.7-1.03,.74-.42,.04-.9-.16-1.31-.58-.02-.19,.19-.34,.39-.49Zm-.63,.16c-.16,0-.49-.81-.49-.82l.74-.41s.53,.33,.53,.62c-.24,.28-.78,.61-.78,.62Zm.74,1.56c1.22-.17,2.58-.68,2.26-3.04,.54,.23,1.14,.58,1.77,.96,1.17,.69,2.38,1.41,3.37,1.38-.07,.06-7.51,6.51-10.48,8.09l.22-1.93c.09-.85,.13-1.2,.24-1.65,.26-.32,2.59-3.16,2.63-3.82Zm5.18-2.18l.95,.25c.87,.24,1.86,.51,2.09,.45,0,0-.25,.45-.94,.45s-2.01-.77-2.1-1.15Zm3.52-10.33l-.15-.1c1.33,.21,1.82,.54,2.71,1.15,0,0-.51-.99-1.68-1.36,1.33-.69,2.57-.81,3.68-.36,2.2,.9,3.17,3.78,3.18,3.81-.01,0-1.08,1-2.51,2.14-.03-1.27-.45-2.49-1.05-3.05-.21-.2-.42-.29-.64-.28,1.5,1.46,1.44,3.59,1.44,3.62l-1.44,1.23c.83-3.81-2.02-5.76-3.55-6.8Zm13.94-.27s-2.54,.89-5.46,3.08c-.57-1.77-2.16-3.45-3.94-4.19,1.31-.95,5.84-3.66,9.41,1.11Zm-15.98-6.7c.39,.28,.76,.55,1.11,.75,.74,.41,.93,.38,1.5,.29l1.21-.13c4.92-.09,7.04,1.6,7.48,2.51-1.41,0-3.53,.87-4.79,1.39-.46,.19-.82,.34-1,.38l-.69,.12c-.47,.07-1,.14-1.57,.42-.82,.39-1.83,.87-2.67,.49l-.81-.46c-.56-.36-1.26-.8-2.6-1.26,.12-1.75-.24-6.08-.25-6.12,1.26,.31,2.23,1.01,3.08,1.64Zm-2.96,5.06c2.03,.71,2.85,1.21,3.98,1.91l1.03,.63c4.51,2.52,2.81,6.98,2.79,7.03-.03,.03-2.71,2.59-2.96,2.71-.02,0-1.69,0-2.26-.29,.45-.17,.76-.43,1.12-.73l.53-.42c.82,0,1.46-.3,1.77-.82,0,0-.58,.25-1.35,.49,.07-.17,.43-.51,.84-.9l.88-.87c-.51,.08-1.29,.72-1.85,1.31l-.06,.06c-.56,.6-1.13,1.22-2.37,1.42-1.38,.08-1.56-.73-1.56-.74,0,0,.63-.18,1.64-1.68,.52-.85,.83-1.26,1.03-1.53,.25-.32,.34-.44,.45-.9-.72-.24-1.54,1.48-2.09,2.61l-.05,.1c-.47,.99-1.46,1.46-2.63,1.27-1.04-.17-1.73-.79-1.77-1.27,.62,.66,1.31,.75,1.6,.66,0,0-.79-.33-1.23-.74l1.08-2.43c.51-1.1,1.03-2.25,1.26-2.87-.61-.03-1.36,1.82-1.96,3.3-.36,.9-.68,1.68-.88,1.83-.53,.33-2.28-.55-2.84-1.11,.08,.56,.84,.97,1.45,1.31,.32,.18,.6,.33,.69,.46-.75,.07-1.76-.15-2.33-.81-.37-.42-.48-.97-.34-1.57,.35-1.47,1.05-3.07,1.39-3.84l.13-.31c.21-.5-.05-1.48-.29-1.6,0,0,.12,.82-.08,1.36l-.35,.79c-.37,.81-.92,2.04-1.21,2.99-.69-.16-1.67-.73-2.63-1.52,.33,.83,2.13,1.77,2.38,1.81,0,0,0,.59-.08,1.44-.24,.12-.52,.11-.82-.03-.73-.35-1.46-1.41-1.68-2.48-.35-1.69,1.81-5.41,2.05-5.83,.05-.84,.33-1.42,.83-1.73,1.24-.77,3.62,.23,5.53,1.04l1.2,.49Zm-3.4-2.34c-.29-.59-1.05-2.15-2.2-3.6,.02,.02,2.44,2.12,3.17,4.41-.42-.08-.75-.38-.88-.62l-.1-.2Zm-1.28-7.53h.41c2.79,.02,2.96,.02,3.36,1.64,.41,1.68,.56,7.32,.56,7.38l-1.62-.45c-.71-2.38-4.04-6.1-5.24-5.85,1.61,1.42,3.4,4.47,3.65,5.21-1.48-.45-2.61-.44-3.36,.04-.67,.43-.86,1.12-.91,1.49-.05,.35-.35,.87-.73,1.52-.28,.48-.59,1.02-.86,1.6-.68,1.45-.88,2.51-.59,3.15l.18,.4c.33,.75,.83,1.89,1.3,2.45-.14,1.22,.48,1.63,2.14,2.74l.15,.1s2.64,1.85,1.78,3.6c-2.08,3.89-8.05,7.57-10.92,9.34l-1.32,.83c-1.01,.03-2.45,.23-3.51,1.03-.58-.33-2.54-.55-5.38-.61l.88-.4c1.42-.63,3.8-1.68,3.86-2.11-1.89,.36-5.43,2.29-5.46,2.31-.01,0-.99,.05-2.56-.25,9.7-3.97,15.4-7.81,16.16-8.89-5.16,3.64-19.06,9.95-19.98,9.95-.7,0-1.81-.94-2.78-1.77l-.75-.63s2.8-.06,3.57-.17c7.57-2.41,18.27-10.73,19.59-12.99,1.38-2.35,2.21-8.42,2.34-11.79,.11-2.87-.34-3.91-.77-4.91l-.31-.77c-.03-.46,.29-1.79,.73-2.26,.49,.35,1.97,2.98,3.18,5.63-.08-2.04-2.48-5.98-2.51-6.02,.62-.4,2.39-.57,5.73-.54Zm-18,21.66c0-.07,.02-.13,.07-.19,.44-.47,3.07-.9,9.05-.55-.01,.02-1.2,1.92-5.63,4.68-1.37-1.41-3-3.41-3.04-3.86,.99-.15,5.6-.45,6.98-.53-.57-.2-4.96-.16-7.44,.45Zm2.27-10.34c.63,.49,1.23,.95,1.68,1.05,.32,.07,.75-.41,1.4-1.13,1.17-1.31,2.94-3.29,5.91-4.13-1.34,.08-1.92,.33-1.93,.33,0-.37,.7-2.59,1.15-3.25,.02,0,1.92,2.13,.7,8.79-1.1,5.83-1.74,7.38-1.89,7.48-.65,.08-3.71-.12-3.74-.12,.05-.62,.17-2.72-.33-3.49l.02,.97c.03,1.12,.07,2.52-.14,2.64-.64-.16-3.96,.23-5.34,.58-1.46-1.72-5.47-7.61-5.51-11.38,1.49,.78,2.09,.86,3.04,.7l.77-.2c.68-.2,1.37-.41,2.27-.09,.62,.23,1.29,.75,1.94,1.25Zm-1.49-1.66c.98-1.12,2.65-2.13,3.87-2.86l.82-.5c.52-.34,1.46-1.18,2.36-1.99,1.13-1.01,2.19-1.97,2.53-2.04,0,.01-.63,1.44-1.36,5.22-1.43,.42-3.25,2.59-3.45,2.84l-.43,.6c-.32,.49-.6,.92-1.13,.92-.35,0-.77-.4-1.27-.86-.57-.53-1.22-1.13-1.94-1.32Zm11.39-10.55s.22,.42,.77,.49c0,0-.91,.42-1.12,.42,.48-.48,.35-.9,.35-.91Zm10.38-8.8l-.31,.19c1.68,.5,7.47-.6,10.08-1.53-.06,.06-5.83,5.88-15.71,9.44,1.55-1.42,3.33-3.49,3.34-3.51,1.47-.33,4.35-1.43,5.5-2.41-1.18,.63-4.1,1.69-5.12,1.95,1.08-1.45,1.57-2.11,1.4-6.56,1.84-.84,2.91-1.39,2.92-1.4,.01,0,1.36,.68,1.73,1.27-.47,.54-2.92,2.01-3.84,2.57Zm-8.18-.87c-.21,.38-.34,.38-.34,.38l-1.27-2.16c.85-.43,1.1-.59,1.1-.89s-.13-1.55-.13-1.57c.21,.05,.58,.35,.98,.66,.31,.25,.64,.52,.89,.65-.07-.27-.72-.78-1.29-1.23-.39-.31-.77-.6-.87-.76l-.08-.46s2.51,1.29,3.43,2.88c0,0-.9,.86-2.2,2.29l-.42-.63c-.26-.42-.45-.72-.68-.81,0,.25,.88,1.64,.89,1.65Zm-2.08-.93s.98,1.03,1.14,2.37c-.59-.72-1.05-2.05-1.14-2.37Zm.93,2.84c-.21,0-1.12-1.7-1.18-2.32-.01-.14,.01-.21,.08-.22,.01,.02,1.18,2.37,1.1,2.54Zm.03-1.74c-.34-.6-.81-1.43-.75-1.73,.01,.02,1.27,1.87,1.1,2.41-.02-.09-.16-.35-.35-.68Zm.44-5.68l-.6-.37c-.53-1.54-1.24-3.29-3.09-4.49,2.04-.08,8.94,3.29,12.96,6.01-.01,0-1.36,.85-1.91,.93-.57-.61-1.43-1.53-4.15,.76-.43-1.16-1.97-2.09-3.21-2.85Zm9.6,1.45l.97,.85-2.63,1.19c0-.71-.38-1.05-.38-1.06,1.17-.46,2.02-.97,2.03-.97Zm19.93-17.62c-.07,.16-7.51,15.97-15.27,18.91-.28-1.45-.89-2.92-.9-2.93,.23-.2,.73-.5,1.31-.85,1.22-.74,2.75-1.65,3.13-2.41-2.82,1.88-4.38,2.88-4.63,2.98-.24-1.06-1.57-4.31-1.89-4.82,3.67-1.06,8.68-2.89,14.89-7.75l-.85,.55c-2.12,1.4-6.54,4.3-13.95,6.88,3.19-2.39,5.29-3.97,5.96-4.68,1.88-.6,7.84-3.32,12.2-5.86Zm-2.74-15.6c-.05,.16-5.24,15.75-8.51,19.95-2.29,2.76-7.19,5.83-7.23,5.86-.04-.82-1.13-2.47-1.6-3.17l-.15-.24c1.19-.44,5.3-3.45,5.44-4.26l-.67,.51c-1.64,1.26-4.39,3.37-5,3.41-.14-.61-.66-.85-.66-.85,1-.56,9.89-5.78,15.32-17.07l-.6,.96c-2.05,3.32-6.84,11.09-14.95,15.78-1.12-.7-4.92-2.41-8.65-3.22,.14-.41,1.31-2.36,1.61-2.6,.34-.29,3.2-1.79,7.99-3.64-.53-.24-6.07,2.08-7.9,3.31,1.03-2.15,1.56-2.88,1.56-2.88,.37-.23,1.24-.59,2.54-1.13,3.66-1.52,11.28-4.69,21.48-10.74ZM100.75,1.2c-.06,.11-6.23,11.44-9.6,23.4-1.54,.14-2.54,.42-2.55,.42,.02-.04,1.66-3.65,2.22-4.4-.5,.46-3.12,4.11-3.17,4.64-.93,.23-1.18,.24-1.18,.24,.05-.07,5.19-7.29,8.42-16.26l-.73,1.52c-2.06,4.3-4.63,9.66-8.63,15.22-2.32,.57-7.82,4.27-8.7,4.96-.47-2.52-.85-5.55-.85-5.58,.15-.4,3.97-9.99,19.62-21.65-4.81,3.03-16.39,12.49-19.48,20.85-.14-1.91,.42-6.13,.8-7.23,.99-1.3,11.09-11.58,23.83-16.12ZM52.41,37.18c-.26-7.68,3.88-15.55,4.74-16.36-1.89,11.87,6.77,19.18,6.86,19.24-2.89-11.64,2.95-19.56,6.8-24.8l.71-.97c-10.39,10.24-8.91,21.96-8.51,24.21-.02-.02-1.91-2.01-3.17-4.4l.04-.26c.37-2.38,1.36-8.71,5.63-14.21,5.07-6.87,10.12-11.23,15.03-12.95-4.39,5.61-7.23,12.9-7.42,19.01-.18,5.7,.74,13.3,1.71,14.27,.07,.07,.15,.11,.22,.11-4.41-17.49,2.68-29.55,4.82-31.82-7.05,14.54-3.88,24.09-2.74,26.67,5.38-6.18,12.01-8.19,15.58-9.27l1.21-.38c-9.31,1.61-15.49,7.28-16.31,8.65l-.24-.9s2.18-1.81,2.74-2.6c-.39,.1-2.74,1.81-2.84,2.32l-.33-.9c9.35-9.39,24.39-6.79,24.54-6.76-8.14,1.68-15.13,9.64-15.29,10.56,0,.04,0,.07,.02,.08,8.04-8.81,14.56-10.28,17.02-10.83-2.87-.57-6.66-.69-11.58-.38,1.82-2.87,6.58-4.45,8.87-5.21l.25-.08c-4.4,.79-6.12,2.01-8.1,3.42l-.45,.32s.95-3.43,1.8-5.25c3.54-2.63,7.34-4.74,10.92-6.67-1.89,.42-7.86,3.81-10.64,6.05,0-.03,.76-2.52,1.18-3.74,9.86-4.75,18.78-5.8,20.47-5.96-4.02,1.76-13.1,7.81-14.33,8.89,1.13-.14,4.09-2.3,5.86-3.59,5.49-.06,11.3-1.96,17.27-5.63l.22-.13c-.14,5.8-2.51,19.3-3.17,21.18-.75,.65-6,3.38-6.05,3.4,3.93-6.96,6.72-18.39,6.28-19.86-1.02,6.17-5.01,16.86-6.19,18.96-.94,1.66-2.51,2.31-4.5,3.14l-2.02,.88c5.06-4.77,7.68-11.58,7.33-12.58-3.25,8.79-7.92,12.73-8.7,13.14-.81,.42-2.49,1.16-5.01,2.18,1.37-2.08,3.12-6.83,2.93-7.94-7.2,6.71-14.79,9.28-18.87,10.65l-.66,.22c9.5-1.87,17.03-7.81,18.91-9.74-.45,2.51-1.35,4.07-2.71,6.45-.78,1.36-1.65,2.89-2.68,4.99-2.42,4.97-5.47,6.03-7.7,6.8l-1.05,.38c.07,.15,.86,.26,1.61,.29,.73,.03,1.62,0,1.75-.2,0,0-.45,.09-1.8-.19,.62-.09,2.54-1.08,3.36-1.56,6.86,.19,13.79,8.08,16.4,11.05l.1,.11c-7.87-10.21-12.74-10.93-15.96-11.4l-.26-.04c.39-.19,1.06-.78,1.42-1.14,2.15,.28,2.56,.47,3.03,.69,.25,.12,.52,.24,1.08,.39-.36-.68-2.39-1.37-4.02-1.37,0,0,.95-.81,.99-1.51,4.94,.95,8.27,2.37,9.64,4.11,2.87,4.08,4.49,11.15,4.87,13.52-10.99-8.65-19-10.03-21.64-10.49-.49-.08-.79-.14-.87-.2,0,0,1.04-.52,1.04-.66,0,0-.67,.28-1.13,.33,0-.02-.67-1.62-1.7-3.07,.48,0,4.39-1.59,4.73-2.6-.66,.52-3.81,1.98-4.92,2.22,0,0-.52-.95-.9-1.32,7.58-2.37,14-10.94,13.85-11.44-7.48,8.58-10.35,9.66-13.98,11.03l-.34,.13c-2.15-2.6-4.33-4-6.46-4.15-2.07-.15-3.6,.94-4.32,1.6v-.44c-.1-3.62-.23-8.57-1.28-9.39,.92,2.52,1.03,9.96,.9,10.31,0,0-.47,.43-.57,.9,3.91-3.04,8.26,.35,9.5,1.47-1.5-2.74-5.29-3.19-6.86-3.26,1.54-.68,3.11-.69,4.66-.02,3.91,1.7,7.9,7.89,11.23,17.47-8.57-12.05-13.55-14.66-14.33-14.66-.86,0-3.57,1.16-4.54,2.46,0-.02-.52-1.81-.71-3.02,.26,11.63,9.49,20.87,10.54,21.89-8.49-3.28-14.11-10.71-16.81-14.29l-.07-.09c1.87,4.02,6.48,7.95,8.44,9.62l.77,.68c-8.55-5.54-12.02-10.13-12.72-11.96-.24-5.05,.48-8.23,1.04-8.79,.59-.6,3.36-1.09,5.06-.76-1.62,2.26-1.91,5.06-1.6,6.23,.07,.26,.17,.43,.28,.48-.47-3.07,1.02-6.08,2.22-7.23-1.52-.29-3.83,.03-5.44,.47-1.76,.49-1.83,2.52-1.7,3.26-8.56-7.89-8.79-12.93-9.04-18.27l-.04-.87c-1.59,11.83,8.88,19.31,8.98,19.38,0,0,.05,.2,.05,.76,0,0-.2,.1-1.47,.19-3.76-3.18-4.66-4.33-5.91-5.92l-.9-1.13c1.21,2.82,4.22,5.35,5.67,6.57l.71,.62s-3.29,.77-5.39,2.08c-3.18-2.58-4.87-6.25-5.03-10.87Zm32.13,26.26c-.44,.34-.9,.7-1.21,.86l-.25-.21s2.2-1.66,2.33-2.2l-2.54,1.95c-4.31-5.02-6.37-10.99-6.39-11.05,1.65-.89,2.69-1.3,2.85-1.14,.03,.03,.03,.09-.02,.17-1.18,.46-1.86,.86-1.92,1.15-.01,.06,0,.12,.05,.17,.33-.47,1.96-1.14,2.29-1.27l.11-.05c.3-.12,.43-.17,.48-.13,.04,.03,0,.14-.04,.31l-.08,.04c-.72,.4-1.62,.89-1.67,1.23,0,.06,.01,.12,.06,.16,.68-.76,1.88-1.19,2.12-1.27,.17-.06,.44-.03,.53,.09,.05,.07,.03,.18-.06,.3-.39,.14-.85,.46-.86,.67,0,.06,.03,.1,.1,.14,.21-.38,1.26-.76,1.65-.72-.1,.02-.29,.16-.39,.35-.07,.13-.08,.25-.04,.37,0,0,.43-.42,.76-.42,3.06,2.02,6.67,5.41,9.06,7.65l1.15,1.07c-.82,.69-5.78,3.99-7.2,4.87-.02-.01-1.57-1.07-1.95-1.99,.02-.01,1.66-1.23,2.16-1.82-.18,.04-.61,.39-1.08,.75Zm-4.13,6.66c-.13-.05-.19-.1-.2-.16,0-.12,.25-.25,.49-.37l.05-.02s3.58-1.83,3.94-2.41c.54,.13,1.09,.46,1.1,.47-.05,.03-4.62,2.5-5.38,2.5Zm6.05-2.54s.24,1.23-1.14,1.78c-.53,.21-.93,.23-1.21,.07-.27-.16-.31-.45-.31-.45,.02-.01,2.17-1.02,2.67-1.4Zm-2.88,1.53c.5,.7,1.28,.82,2.2,.34,.88-.46,.97-2.02,.97-2.03l5.42-3.05c.03,.12,.61,3.04-1.48,5.42-2.11,.45-6.89,1.06-7.79,1.06-.33-.75-.42-1.14-.42-1.14l1.1-.59Zm2.71-1.78l-.55-.55c.07-.04,6.74-4.41,7.2-4.53,.46,.17,.93,.97,.93,.97-.02,0-1.68,.38-7.58,4.11Zm-2.71-14.02c-3.8-2.84-4.92-2.28-6.77-1.35l-.34,.17c1.94-2.01,3.37-2,4.65-1.99h.27c-1.15-.73-4.01,.41-5.12,1.48-.63-.8-.76-2.82-.76-2.84,0-.01,.74-1.2,2.75-2.16,2.03-.97,2.91-.22,6.18,2.58,8.61,9.06,10.33,12.48,11.56,15.71-2.31-2.68-8.3-8.53-12.41-11.6Zm-19.1-7.28l-.04,5.04,.42,.72c-4.35,.94-10.74,3.56-16.51,10.67,2.09-13.98,15.99-16.4,16.13-16.43Zm-15.24,16.26c.53-1.3,6.55-8.35,15.62-10.2,.38,.21,.8,.88,.8,.89-.04,0-3.79,.78-5.76,2.41l1.69-.69c2.16-.89,3.59-1.48,4.4-1.17-.36,.9-.53,2.97-.65,4.33-.06,.71-.1,1.23-.15,1.26-1.23-.63-7.79-3.44-15.96,3.18Zm11.69-3.77c1.04-.12,2.81,.11,4.19,.8,0,.02,.38,2,.64,2.79h-.39c-1.4-.02-4.31-.06-6.55,.89,.09-1.37,1.57-4.07,2.12-4.49Zm4.74,6.56c-1.14-.55-4.63-2.12-5.72-2.12,.98-.56,5.14-.63,5.89-.59l-.17,2.71Zm.88-10.7c.07-.09,.13-.14,.18-.14,4.54,5.64,11.48,9.59,14.26,11.02l.14,.07c-.02,.1-.2,.22-.43,.39-.27,.19-.61,.44-.8,.71,.54-.08,1.35-.88,1.35-.89,0,0,.26,0,.38,.17,0,.16-.7,.67-1.31,1.12l-.08,.06c.33-.04,1.44-.68,1.57-1.06,.01,0,1.37,.48,2.46,1.31-.17,.13-3.86,2.5-4.23,2.41-.38-.08-.54-.32-1.1-1.61,0,.02,.35,2.12,.93,2.37,.59,.25,2.19-.5,2.2-.51,0,0,.13,.1,.38,1.23,.85,.21,6.83-.6,8.26-.89,1.16-.74,1.51-2.41,1.78-3.76l.25-1.07c.29-.92,.59-1.15,.98-1.44l.42-.34s1.63,1.55,3.18,3.43l-1.18-2.99c-.54-1.36-1.06-2.64-1.15-2.94,.36,.13,.52,.52,.68,.93,.11,.28,.23,.57,.42,.8,0-.32-.16-.7-.31-1.03-.12-.28-.24-.55-.24-.74,.28,.12,.75,.95,1.1,2.29-.33-2.57-.9-2.55-1.77-2.5h-.1c-1.05-3.18-3.24-8.41-3.26-8.46,2.37-.21,4.36,.66,5.93,2.6,1.82,2.26,2.42,5.23,2.29,5.66-.03,.23-.37,.46-.92,.84l-.56,.39c.13,.34,.05,.65-.11,.74-.11,.07-.24,.03-.36-.11,.15,1.19,1.04,3.06,1.51,3.38l.14,.05c.35-.7,.93-1.86,3.26-4.15,1.4-1.4,2.65-1.98,3.51-1.61,.79,.33,1.21,1.41,1.19,3.05-.04,3.91-.79,4.63-2.79,6.58l-1.14,1.13c-1.39,1.45-2.53,2.16-3.47,2.17-.91,0-1.54-.62-2.16-1.24-.45,4.83-6.76,8.18-9.13,9.44l-.48,.26-1.02,.6c-1.47,.88-3.14,1.88-4.61,1.61-1.88-.35-10.83-5.88-11.18-6.22-.37-.37-.55-.58-.76-1.57-.42-4.29-3.19-11.5-4.11-12.87-.39-.99-.15-2.44,.13-3.73-.46,.29-.55,.74-.68,1.95-.85-2.46,0-6.08,.59-6.89Zm-.24,9.26c.03,.06,2.78,6.28,2.78,7.07-.12,.02-.31-.11-.55-.37-1.07-1.14-2.72-4.35-2.23-6.71Zm-6.77,5.01l.16,.16c.71,.7,1.17,1.17,2.38,2.97-.07-.02-1.71-.47-3.08,1.19l-.84-.05s.16-2.41,1.39-4.27Zm-27.62,7.55c.87-.7,2.31-.76,3.85-.18,2.06,.77,4.67,2.91,5.29,6.39,.93,5.28-2.11,8.91-2.58,9.09-.38,.14-1.64,0-2.24-1.14,2.76-5.24,.89-9.2-1.04-10.58,3.28,4.26,1.44,9.36,.8,10.13,0,0-.31-.81-1.24-2.38,1.1-4.82-1.82-8.23-3.23-8.84,0,0-.25-.56-.35-1.84,.91,0,2.44,1.34,3.23,2.29,.39-1.03-2.45-2.91-2.48-2.93Zm7.43,16.78c.41,.29,.88,.63,1.66,.96l1.3,.47c.68,.22,1.02,.33,1.08,.72,.04,.24-.15,.75-.59,1.24-.55,.61-1.85,1.62-4.43,1.49-2.61-.29-3.87-1.69-4.16-2.79-.19-.75,.02-1.44,.58-1.83-.81,.19-1.2,.71-1.14,1.54h-.08c-1.83-.37-2.92-1.03-3.24-1.97-.32-.95,.18-2.16,1.48-3.6-.08-.06-.37,.1-.69,.37-1,.86-1.83,2.44-.9,4.05-2.84-.23-4.85-1.01-5.97-2.34-.8-.94-1.15-2.16-1.03-3.62,1.14-1.57,3.75-3.61,6.21-4.87-.81-.2-5.97,3.13-6.41,4.77-.43,1.63,.36,4.55,2.98,5.81-1.26,.35-2.58-.03-3.13-.19l-.19-.05c.54-.39,1.48-.59,1.49-.6-.54-.22-2.13-.27-3.23,.4-1.23,.75-2.16,1.01-3.87,.4-1.17-.42-1.91-1.37-2.45-2.07-.29-.37-.52-.66-.73-.77,1.26,.14,2.43-.34,3.58-1.49l.04-.04c.64-.64,2.57-2.58,5.97-4.08-.47-.11-1.96,.28-6.66,4.07-1.38,1.14-2.58,1.05-3.29,1h-.09c.11-.24,.32-.54,.56-.89,.63-.92,1.42-2.06,.88-2.64l-.13,.25c-.9,1.76-1.24,2.42-2.8,3.13-1.02,.03-2.02,.35-3.07,.69-.78,.25-1.58,.51-2.49,.7-1.64,.33-4.15-.04-5.28-1.13-.47-.46-.67-1-.57-1.6,.35-1.01,1.21-.92,2.5-.78l.31,.03c1.42,.15,3.38,.1,6.01-1.59,1.67-1.07,3.36-2.02,4.44-1.68,.43,.13,.75,.46,.97,.99,.34-.59-.19-1.14-.2-1.14,.86,0,1.91-.08,2.5-.72,.33-.35,.47-.85,.43-1.47-.26,.71-.87,2.37-3.73,1.84-.33-.07-.76-.26-1.3-.51-.99-.45-2.35-1.07-4.07-1.33-2.6-.39-6.36-3.18-6.16-5.07,.06-.61,.26-.99,.61-1.16,.57-.28,1.52,0,3.01,.91,1.83,1.11,6.47,2.73,11.08,2.88,2.04,1.09,3.6,1.49,4.57-.1-.63,.42-1.36,.65-2.09,.65-1.04,0-4.32-2.54-4.72-5.12-.22-.82-.78-1.65-1.38-2.52-.77-1.13-1.57-2.3-1.65-3.54-.15-2.27,.85-3.74,1.64-3.93,.85-.2,1.84,1.4,2.43,2.83,.89,2.15,4.18,9.2,9.04,9.44,.32,1.42,.79,2.09,1.49,2.09-.25-.39-.25-.69-.25-.7,.22,.22,1.26,.91,1.99,.55-.01,0-1.21-.03-1.98-.92-.54-.63-.75-1.52-.6-2.66,.21-1.61,.47-2.8,.7-3.84,.27-1.23,.49-2.2,.49-3.36,0-1.84,.27-3.92,2.24-5.47,.75-.59,1.37-.77,1.79-.51,.7,.42,.81,1.96,.34,4.44-.75,3.91-1.53,9.51,.25,12.92l.3-.4s2.83,1.01,2.88,6.61l-.04-.09c-.66-1.69-1.67-4.24-2.55-4.68,1.08,2.12,1.52,3.08,2.58,6.36,1.06,3.27,2.47,4.13,3.58,4.52,.56,.19,.91,.45,1.32,.73Zm-.28-1.48c1.71-2.2,3.43-4.98,2.04-10.04-1.72-6.48-7.35-6.17-7.4-6.16,1.29-1.1,2.94-1.37,4.63-.74,2.66,.99,4.72,3.85,5.26,7.3,.98,6.36-2.83,8.86-4.52,9.64Zm19.97-2.24c-2.52-.05-5.17-1.27-5.22-1.59l.23-.23c1.52-1.5,3.83-3.78,.57-7.28l.37,.9c.85,1.97,1.58,3.67-1.61,6.26l-.17,.18c-1.19,1.2-2.98,3.02-8.42,2.36,.34,.64,1.33,.45,1.34,.45-.29,.39-2.66,.59-3.92,.15,.05-.75,1.08-.75,1.77-.75h.12c-.69-.39-1.34-.3-1.34-.3,.7-.97,2.08-4.81,1.32-8.54-.57-2.79-2.16-5-4.75-6.56,2.83-.8,9.84-.94,13.21,2.38,0-.64-1.72-1.83-1.74-1.84,.16-.26,1.05-.64,2.18-.91,1.39-.34,6.21-1.26,10.09,1.11-.54-.98-3.1-1.83-3.13-1.84,.34-.88,2.61-.94,2.63-.94,.06,.09,5.81,9.37,5.51,11.92l-.82,1.77-.72,1.51c-1.46,.78-5.03,1.84-7.5,1.79Zm7.11-.84s-1.25,2.14-1.69,2.53c-.39-1.03-.94-1.73-.94-1.74,.01,0,1.5-.25,2.63-.79Zm.02,18.46h-.06q-1.18-.17-1.15-1.65v-.11s.03-3.03,.03-3.03c.34-.14,.97-.05,1.65,.47,.64,.5,2.01,.88,2.24,.88-.32-.43-1.24-.88-2.22-1.36-.93-.46-1.89-.93-2.55-1.46l-.99,.06c-.59,.05-1.06,.09-1.22-.14-.26-.39-1.1-5.67-.44-6.44l1.62,.3c.16,.17,.39,.5,.64,.87,.57,.84,1.28,1.88,1.89,2.04-.92-.97-1.75-2.5-1.82-2.68l.47,.06c.03,.05,3.42,5.23,7,6.86-1.97-1.59-4.43-3.58-6.56-6.86,1.04-.06,1.56-.56,2.58-1.55l.04-.04c1.06-1.03,3.15-3.63,3.41-5.27-.16,.12-.34,.45-.59,.9-.64,1.13-1.82,3.24-4.44,5.31-.92,.03-3.36-.18-3.77-.35-.41-.18-1.7-3.43-1.79-3.82,.88,.03,2.23-.26,2.59-.56l1.3,2.62c-.06,.21-.68,.76-1.68,.5,.08,.14,.28,.24,.52,.25,.22,.01,1-.04,1.75-1.16l.24-.35c1.12-1.66,3.74-5.56,3.74-7.09s-1.19-4.42-3.53-8.68c-2.09-3.81-4.59-6.64-4.88-6.88,1.64-.17,5.29,1.14,6.62,2.38,.98,.92,2.12,4.41,3.03,7.22l.83,2.46c-.3-1.77-2-7.34-3.65-9.89,.41-.33,.67-.33,.85-.32,.14,.33,.85,1.35,1.5,1.35,.15,1.2,.48,2.62,.74,3.76l.23,1.03c.22,1.05,.81,1.46,1.48,1.94l.37,.27c.4,1.42,2.28,7.42,2.85,8.39l-.69-2.18c-.78-2.46-1.67-5.26-1.67-5.68,.35,0,1.31,1.95,2.59,5.21-.12-1.05-1.34-4.5-1.35-4.53,1.34,.93,2.2,1.44,2.21,1.44,.28,1.84,2.26,10.05,5,14.06-1.66-3.78-4.12-10.52-4.09-13.56l.74,.44c.67,.41,1.36,.83,1.64,.91,.01,.07,1.56,7.41,9.53,16.8-1.89,1.37-4.21,2.84-4.24,2.85-1.14-.3-4.45-2.59-4.8-3-.38-.53-4.31-6.59-5.68-9.65,.51,2.54,4.42,8.66,5.41,9.74,.99,1.08,4.79,3.13,4.82,3.15l-2.21,1.32c-1.43-.57-3.55-1.12-7.3-.35l1.33-.07c1.67-.12,3.56-.26,5.59,.6l-1.86,.91c-1.72,.85-3.34,1.64-4.05,1.86-1.51,.03-7.93-.15-9.8-.47Zm-15.62,14.76l1.13-.73c1.59-1.05,3.77-2.5,6-3.05-.62,.66-1.31,2.06-1.63,2.77l.15-.19c2.07-2.7,6.93-9.03,8.22-9.71l2.69-.53-.48,.42c-.8,.67-2.28,1.93-3.96,4.02,.56-.12,.96-.6,1.52-1.26,.65-.77,1.55-1.83,3.15-2.75l.8,.32c.68,.27,1.02,.41,1.71,.48-.08,.33-1.87,8.09-.53,13.56,.83,2.04,5.81,6.08,5.86,6.12-.72-.04-1.88-.4-3.11-.78-1.29-.4-2.63-.81-3.5-.85,.47,.65,8.05,2.46,11.09,2.86,.52,.61,.92,1.4,.93,1.41h-1.41c-3.04,.03-8.7,.07-10.92-.26-1.69-.8-9.12-6.22-9.55-7.71-.44-1.48,.04-5.11,.04-5.15-.53,.22-.71,3.72-.4,5.46,1.5,2.13,8.65,7.5,9.86,7.79,1.26,.3,12.65,.13,12.77,.13,1.26,1.13,1.71,2.19,1.72,2.2-.14,.02-14.27,1.88-19.06,1.41-2.02-.74-4.86-3.8-8.01-8.63-3.08-5.29-3.85-6.57-5.06-7.35ZM14.55,182.95c-1.34-.78-.05-3.81-.04-3.84-.01,.07-.33,1.64,.57,2.86,.73,1,3.14,.74,5.94,.43l2.08-.21c-2.8,1.06-6.55,1.39-8.55,.75Zm13.14-11.48l-3.05-2.49s-1.2,.46-1.2,.68c1.36,.68,4.53,2.27,5.65,5.2l-.3-.35c-.41-.49-1.02-1.24-1.66-1.38,.45,.74,.71,1.39,.72,1.39-.16,.01-.48-.23-.84-.52-.51-.4-1.16-.9-1.68-.95,1.47,1.8,1.98,2.87,.34,4.97,.21,.09,.33,.36,.25,.57-.04,.1-.2,.4-.85,.18-.78,.78-1.46,1.05-1.47,1.05,.05,.38-.04,.69-.26,.86-.22,.17-.55,.17-.91,0-1.48,.74-4.21,1.95-5.87,1.69-.6-.09-1.06-.39-1.34-.89-.59-1.06-.38-2.89,.62-5.28,1.58-3.79,2.95-5,5.04-6.67l.37-.29c1.92-1.52,3.91-3.09,4.9-4.75,.97-1.45,1.73-1.88,1.73-1.88,0,0-.17,.17-.36,.46-.55,.83-1.23,2.51,.36,4.44l-.26,.19,2.18,2c-.82,.89-2.1,1.76-2.11,1.77Zm4.56-1.73c-1.97-.44-3.75-1.62-4.54-2.99-.5-.87-.61-1.79-.32-2.73l1.02-1.58c.51,2.02,1.52,3.7,4.78,5.38-.37,.19-.64,.41-.64,.41,.41,.11,.94-.22,.94-.23l.94,.3s-1.2,.04-1.2,.53c.88-.1,1.15-.23,1.3-.31,.08-.04,.12-.06,.21-.03,.32,.11,1.6,.37,3.58,.3-.03,.01-3.42,1.54-6.06,.94Zm4.14-1.43c-1.02-.07-6.19-.69-7.87-6.44l.81-1.41c.22-.4,.39-.72,.5-.85l.13,.31c.67,1.65,2.71,6.68,10.04,7.48-.01,.01-1.34,1.05-3.61,.9Zm3.69-1.21c-.76,.1-7.97-.89-9.83-7.68-.09-.55-.03-.92,.16-1,.24-.09,.63,.25,1.12,.96l.21,.31c1.08,1.65,3.08,4.73,10.41,5.75-.02,.02-1.62,1.58-2.07,1.66Zm1.96-2.15c-.55,0-3.47-.11-6.93-2.22-2.33-2.08-3.75-3.75-4.33-5.12,.45-1.19,1.31-2.25,1.32-2.26,0,.02,.83,1.7,.98,2.3l-.73-.49c-.26-.19-.45-.34-.63-.34l.56,.64c.76,.89,1.71,1.99,2.45,2.26,.93,.33,1.91,.52,1.92,.53,.63,.91,2.35,2.16,3.69,3.05,1.82,.86,3.56,.94,3.58,.94-.45,.52-.96,.72-1.88,.72Zm8.42-1.62c-2.55,1.11-8.86,1.42-11.85-1.96,.77,.39,1.68,.66,2.16,.72-.37-.51-3.33-1.64-3.36-1.65,2.82,.44,6.08,.63,8.93,.52-3.77-.2-9.4-.84-10.75-1.34-1.28-.47-3.15-3.37-3.4-4.91-.14-1.02,.68-1.98,.69-1.99,.1,1.87,.37,2.5,.79,2.92l-.58-.03,.5,.47c.88,.85,1.97,1.9,3.79,2.27,2.04,.41,12.95-.02,22.52-3.13-.07,.07-6.79,6.95-9.44,8.1Zm20.71-17.44l-4.6,2.46c-2.95,1.61-3.65,1.99-5.88,2.34l-2.62,.5c-3.65,.74-8.65,1.77-11.86,1.08-.84-.66-1.36-1.55-1.41-2.38-.12,.45,.02,1.19,.11,1.68l.02,.13-.12-.02c-.21-.14-.32-.81-.45-1.58-.12-.7-.25-1.5-.48-1.97,.09,1.05,.39,3.24,.4,3.26-.39-.56-1.06-2.63-1.19-3.7,.09,1.56,.3,2.12,.53,2.73-.47-.35-1.11-2.69-1.4-5.1-.26,.65-.09,2.84,.78,4.67,.46,.98,1.31,2.25,2.72,2.68,1.46,.45,8.5-.28,12.89-1.17l.24-.05q3.75-.76,4.68-1.1l.39-.14c.8-.28,2.8-1.44,4.56-2.46,1.31-.76,2.44-1.41,2.82-1.56l-2.23,2.2c-1.97,1.99-4.01,4.05-6.11,5.24-3.09,1.5-7.54,2.51-11.9,3.38-4.62,.92-11.49,1.04-11.78,.99-.37-.06-2.74-2.32-2.92-3.62-.18-1.33,.38-5.83,.96-7.03-.55,.32-1.89,5.74-1.19,7.58,.69,1.84,2.52,2.96,2.54,2.97-.91,.09-2.73-.2-4.02-1.34-.86-.77-1.32-1.77-1.35-2.98l-.13-1.86c-.18-2.41-.3-4.01,.1-5.02,.5-1.28,5.41-6.15,7.17-7.44l-.09,.32c-.66,2.3-1.48,5.17-1.37,9.83,.24-2.73,1.6-9.58,2.51-12.13,.82-2.31,2.65-4.16,4.97-6.5l.98-.99c2.8-2.85,5.02-4.79,5.05-4.81,.3,.41,.73,1.12,1.27,2.01,2.11,3.47,5.65,9.29,9.43,11.02,.73,.32,8.67-.11,15.02-.7-.9,.52-6.42,2.3-7.9,2.71,.75,.13,3.52-.78,6.45-1.75,2.27-.75,4.62-1.52,6.35-1.93l.61,.73c-.14,.05-14.85,5.22-22.37,8.57,1.12-.34,4.27-1.53,7.91-2.89,5.88-2.21,13.2-4.95,14.86-5.24,.66,.49,1.22,1.13,1.22,1.14-.07,.02-6.69,2.25-14.18,7.21Zm17.16-5.21l-.6-.53c-1.62-1.4-5.91-5.12-8.9-10.03-3.31-5.42-5.29-15.38-4.79-16.89,.04-.11,.09-.18,.15-.2,.9,.02,2.6,.48,3.73,.79l1.07,.27c.24,2.4,1.23,9.96,2.62,13.03,1.42,3.13,4.6,6.79,6.27,8.12l-1.57-1.96c-2.11-2.58-4.1-5.02-5.08-8.25-1.22-4.01-1.91-10.88-1.91-10.94,.01,0,1.09,.18,1.59,.32,.5,.15,2.83,3.38,2.71,5.77,.51-.91-.54-4.4-2.29-5.86,1.69,.03,2.67,.12,2.68,.12,.94,.41,2.24,1.45,3.85,3.09,1.74,1.77,3.57,3.45,5.21,3.74l1.47,1.28c.43,.37,.65,.55,.65,.63,0-.24-.54-1.13-1.06-1.44,1.41,.15,4.1,.56,4.91,.82,.41,.26,.85,.78,1.31,1.32,.45,.53,.93,1.09,1.37,1.38,.05,.03,5.29,2.61,6.94-.15l-.3,.18c-.76,.47-1.8,1.11-4.23,.41-2.22-.64-2.45-.73-2.44-.74-.41-.7-1.64-2.14-1.91-2.32l3.07,.62c2.27,.44,4.85,.94,6.9,1.47,.15-3.51,.92-6.06,4.56-9.47,.04,0,3.61,1.04,5.06,2.09-1.15,.6-3.46,2.59-6.5,6.36l-.53,.69c-1.93,2.49-2.28,2.94-4.94,2.99-1.48-.17-2.81-.45-3.88-.67-1.02-.22-1.76-.37-2.15-.33-.93,.1-2.92,1.13-9.36,8.83-1.73,2.08-3.23,4.71-3.65,5.47Zm4.77-6c.85-1.3,5.43-6.1,6.21-6.5-.02,.04-2.3,3.82-2.5,8.18l-.64-.39c-1.01-.63-2.15-1.33-3.07-1.29Zm.26,.65s-.59,1.68-2.55,2.16c1.04-1.65,1.8-2.24,1.81-2.25,.01-.01,.32-.26,.75,.09Zm-3.26,3.04s0-.03,0-.05c3.4-1.18,3.52-2.71,3.52-2.73,.25-.14,.86-.09,2.42,.97-1.21,.49-5.75,2.04-5.95,1.81Zm10.39,11.05c-.62-.84-1.41-6.44-1.28-7.66,1.52-.44,3.24-.75,3.26-.75,.02,.08,2.21,7.56,6.96,10.44l.74-.02c.8-.03,1.63-.07,2.3,.2-.9,.15-1.62,.4-2.26,.62l-.82,.26-1.85-.61c-2.52-.84-6.74-2.23-7.04-2.47Zm3.07,10.37s2.5,3.64,3.47,4.78c-.7,.18-1.72,.15-2.46-.49-.89-.77-1.23-2.21-1-4.28Zm.08-4.91c.31,.39,1.61,1.89,2.34,2.08l-1.08-1.36c.26,.02,.81,.55,1.43,1.16,.76,.74,1.61,1.57,2.14,1.64-.37-.42-.76-.79-1.1-1.12-.49-.47-.88-.84-.98-1.14,1.03,.72,5.74,2.9,8.4,1.34,0,.02-.51,2.09-2.16,2.47h-.52c-2.58,.06-7.94,.16-8.47-2.85,.03-1.85,0-2.21,0-2.21Zm9.07,5.32s-1.15,.95-2.47,.92c-1.33-.03-3.77-.99-3.88-1.34,1.71,.38,3.34,.44,6.35,.41Zm14.98,12s-.06,.65-.59,.75c-.51,.1-4.53,.31-7.12-.23-2.54-.53-3.42-1.01-6.24-3.39-2.42-1.73-3.7-2.53-8.61-3.42-.37-.14-.56-.26-.53-.34,.04-.12,.55-.13,1.31,.06l.71,.15c1.43,.3,3.83,.81,5.76,2.05,.65,.42,1.23,.88,1.8,1.33,1.46,1.16,2.96,2.37,5.81,2.96,1.62,.34,4.24,.63,7.52,.11l.19-.03Zm-.77-.8l-.09,.03c-1.61,.68-3.86,.75-6.34,.2-4.19-.94-7.98-5.68-8.02-5.73,.02-1.12,1-2.67,1.69-3.29,.22-.19,.4-.29,.52-.28,5.37,5.78,9.83,7.92,12.23,9.07Zm-13.26-13.85c-2.03,.42-4.53-.18-7.42-1.77,3.65,.52,6.88,.79,9.4-1.23,0,.03-.63,2.73-1.98,3.01Zm-2.62-1.72h-.17c-2.99-.05-6.09-.11-7.23-1.59l.03-2.06c1.59,1.06,2.72,1.5,5.88,1.85,.58,.48,1.27,.77,1.85,.77-.94-.35-1.13-.66-1.13-.67,1.16,.25,3.54,.1,5.86-.67-.01,.02-1.33,2.14-5.09,2.36Zm3.95-2.36c-1.43,.57-10.03,1-11.59-2.43,1.35,.38,2.55,.79,3.52,1.12,1.12,.38,1.92,.65,2.31,.67,.78-.12,1.72-.43,2.55-.72,.68-.23,1.27-.43,1.53-.43l.83-.08c.7-.1,1.66-.23,2.97-.06,0,.01-.7,1.37-2.11,1.93Zm15.32-12.42c-.68,1.85-2.87,3.16-12.37,7.4,0,0,.47,.36,6.56-2.55l-1.44,1.61c-1.39,1.59-2.49,2.84-3.75,3.11-1.41,.3-5.13,.69-10.08,.26l-.62-.57s4.27-.87,7.93-3.43l-1.73,.73c-2.38,1.02-5.09,2.17-6.55,2.13-1.19-.04-4.82-5.77-5.28-8.85,1.77,.97,6.04,2.77,10.79,3.39l-.55-.15c-3.2-.91-8.04-2.29-9.49-3.41,2.12-.14,5.31,0,7.87,.12,2.19,.1,4.08,.18,4.63,.06,1.3-.51,5.31-2.45,6.03-3.13-2.57-.16-13.65,1.86-21.74,3.33l-2.25,.41c-1-.91-2.41-1.71-2.42-1.72,6.18-.41,11.96-1.33,17.17-2.73,7.73-2.07,11.55-3.42,11.58-3.43,.5-.12,3.13-2.83,2.95-4.1-1.23,1.89-1.99,3-3.26,3.88-1.13,.41-8.87,2.66-14.97,4.18-6.67,1.34-11.94,1.75-18.18,1.41,.97-.78,5.83-2.34,14.22-3.92-1.43-.5-5.39,.53-7.76,1.14l-.35,.09c.21-2.54,1.69-8.04,3.17-8.89,.74-.43,2.31-.2,3.98,.05,1.6,.23,3.4,.5,4.74,.22,1.49-.31,2.9-2.14,4.4-4.07,1.27-1.64,2.58-3.34,4.1-4.38,.06,.02,6.3,1.53,10.21,4.45,3.13,2.33,3.13,2.55,3.14,5.24,0,.72,0,1.62,.07,2.78,.3,5.32-.05,7.47-.75,9.38Zm-22.25-.65c1.56-.87,12.02-2.12,12.5-2.12-.04,.02-3.93,2.12-4.73,2.24l-7.78-.12ZM70.93,47.83c.19,5.63,7.84,13.35,7.92,13.42l-1.65-2.21c-2.68-3.58-4.62-6.16-5.51-9.56-1.04-3.99,.65-8.08,.72-8.26-.02,.01-1.65,1.54-1.48,6.6Zm28.57,7.63c-.41-.04-.69,.03-.79,.2,1.97,.13,2.28,.5,2.29,.51-.11-.33-.88-.64-1.5-.71Zm3,13.91c.86-.84,1-2.03,.95-2.53-.4-.04-.95-.49-1.69-1.35,0-.13,.83-1.05,1.1-1.31,0,.11,.42,.7,.85,.96,.22,.14,.4,.17,.54,.1-.66-.31-.93-.92-.97-1.4,.13-.35,1.03-1.02,1.44-1.19,1.39,1.96,.7,3.92,.17,4.91,.6-.44,.94-1.38,.92-2.59-.02-1.15-.37-2.21-.83-2.53,.08-.25,.84-.42,.85-.42-.26-.1-.68,0-1.21,.25-1.24,.61-3,2.18-3.28,3.13-.19,.62-.1,1.24,.23,1.68,.24,.32,.58,.52,.91,.52-.37-.37-.76-1.04-.8-1.61l.17,.11c.41,.26,.96,.62,1.14,.99,.25,.49,0,1.25-.68,2.07-.89-.34-1.71-.33-2.3,.03-.4,.24-.66,.63-.71,1.03,1.39,.16,2.46-.13,3.2-.85Zm-.58,.05s-1.57,.8-2.03,.42c.84-1.17,2.02-.43,2.03-.42Zm-32.64-7.11c-.39,3.14,1.7,7,2.24,7.54,2.76,.29,3.78,.71,4.15,1.02,.24,0,.36-.13,.56-.37l.32-.35s.85,.34,1.4,.25c-.71-.38-.52-2.98-.51-3.09,0,0-.51,.82-.38,1.86-1.61-1.19-4.44-4.97-6.13-7.23l-.13-.18c-1.58-2.1-2.21-2.63-2.96-2.46-.41,.1-.51,.64-.6,1.17-.07,.41-.14,.79-.34,.99,.22-.6,.29-1.81,.25-2.37-.22,.44-.42,1.97-.47,2.79h.42c.84-.02,1.99-.05,2.17,.42Zm6.71,7.92c-.07,.11-.19,.15-.36,.13l-.82-.2c-.76-.21-1.8-.5-3.07-.56-2.13-2.89-2.2-6.74-2.2-6.77,.59,.25,3.32,3.24,4.02,4.32-.1,.99,.09,1.73,.53,2.15,.45,.42,1.02,.39,1.25,.35,.28-.04,.51,.04,.63,.22,.08,.12,.09,.27,.03,.37Zm-2.18-2.62s.94,.82,1.52,1.78c-.54,0-.95-.16-1.21-.47-.44-.52-.32-1.3-.32-1.31Zm-6.18-7.75s.59-.17,.93-.04c.33,.12,1.42,1.15,2.33,2.67,.88,1.47,6.05,7.35,6.1,7.41-.53,.26-4.59-4.57-6.54-6.89-.54-.64-.89-1.06-.95-1.11-.25-.21-.5-.21-2.07-.21,0-.01,.21-1.36,.21-1.82Zm10.59,8.26s-.25,1.82,.21,2.16c.37-.45-.19-2.09-.21-2.16Zm9.27,3.26c-.15,.05-.5,.1-.94,.17-1.05,.16-2.48,.39-2.66,.72-.02,.04-.02,.08,0,.13,1.48-.51,7.05-1.35,8.21-.93-3.08,0-6.31,.36-6.39,.97,2.96-1,7.39-.73,7.58-.72-1.57-1.11-8.94-.53-10.57,.05-.19,.07-.3,.14-.31,.2l.51-.08c1.25-.2,4.18-.66,4.57-.51Zm-14.21-.17l2.49,.22s-1.6-.76-4.87-.55c.08,.88,1.62,1,3.58,1.16l.36,.03c-.03-.24-1.04-.38-1.94-.5-.53-.07-1.03-.14-1.24-.22l.06-.15c.13-.12,.55-.08,1.57,.02Zm2.61,2.29c-.06,.22,0,.43,.16,.61,.33,.36,1.04,.56,1.62,.45-.54-1.33,.3-2.05,.34-2.08-.02,0-1.91,.3-2.12,1.02Zm1.19,.85s-.08,.04-.12,.02c-.09-.04-.18-.2-.2-.4-.03-.25,.02-.45,.15-.55,0,0,.13,.23,.21,.46,.07,.23,.06,.39-.04,.47Zm-.82-.81c.05-.13,.29-.54,1.16-.54,0,0-.93,.18-.93,.97-.08,.03-.15,.02-.2-.03-.08-.08-.09-.24-.03-.4Zm.4,1.41l.43,.98c.56,1.26,1.4,3.17,1.65,4.02l.11,.43c.23,.96,.42,1.78,3.24,1.82,3.24,.04,4.62-1.1,4.74-3.94,.12-2.78-1.5-4.82-2.67-5-.7-.11-1.91,.57-3.09,1.23-.69,.39-1.35,.75-1.91,.97-1.52,.59-2.49-.5-2.5-.51Zm9.57,4.78s-.88,2.2-3.98,2.2-3.22-1.63-3.26-2.33c-.04-.67,.55-1.85,1.95-2.24,.09-.01,.15,0,.17,.03,.06,.1-.2,.41-.46,.74l-.39,.49c-.11,.16-.46,.73-.26,1.28,.15,.41,.57,.7,1.24,.88,1.88,.51,3.73,.07,4.83-1.14,.08-.09,.13-.12,.16-.11,.05,.03,.01,.19,.01,.19Zm.21-1.72c.01,.71-.32,1.99-2.66,2.61-1.51,.26-2.92,0-3.36-.63-.21-.3-.21-.65,.02-1.07,.79-1.21,1.31-1.44,1.31-1.44,.43,0,1.74,0,2.2-.25l.04-.02c.48-.27,1.38-.76,2.33,.11,0,0,.12,.28,.12,.69Zm-.17-1.16s-.75-.58-2.07-.04c-1.6,.49-2.72,.41-3.09,.3-.43-.13-1.82,.46-2.24,1.65-.23,.05-.35-.15-.41-.32-.15-.45-.05-1.27,.24-1.42,.15-.07,.37-.07,.71-.06,.62,.01,1.66,.04,3.44-.4l1.12-.29c1.1-.29,1.65-.43,1.95-.23,.18,.12,.28,.35,.35,.82Zm-5.93-1.44l.07-.04c1.08-.66,3.09-1.9,4.04-1.57,1.04,.36,1.14,1.11,1.1,1.52-.04,.51-5.01,1.31-6.69,1.27-.9-.02-1.24-.24-1.37-.41-.11-.16-.07-.3-.07-.3h.35c.66,.05,1.66,.1,2.57-.47Zm24.83,10.84c.04,.25,.13,.41,.18,.41,.16,0,.17-.35,.19-.76l.02-.39c.04-.53,1.3-1.55,1.32-1.56-1.87,.61-1.75,2.03-1.7,2.3Zm7.37,2.09s-.88,.53-.98,.96c-.02,.09,0,.16,.03,.23,.85-.12,.94-1.18,.94-1.19Zm-10.02-3.66c.07-.48,.25-.73,.41-.95,.11-.16,.21-.3,.25-.49-.58,.46-.98,1.24-.86,1.68,.49-.08,1.02-.98,1.03-.99,0,0-.58,.25-.82,.74Zm4.64,2.67c.45,0,.53-.65,.53-.66,0,0-.53,.25-.53,.66Zm-80.94-4.59s-4.27,.06-8.64,5.17l.32-.26c1.4-1.15,3.75-3.07,7.24-3.72-.47-.16-2.64,.3-3.53,1.04,.51-.81,2.14-1.38,4.62-2.24Z"/><path class="cls-2" d="M52.48,78.99s-4.92,2.8-6.64,2.85c-.65-2.8-2.5-5.95-4.74-7.42,4.1,0,11.86,1.16,11.39,4.57Z"/><path class="cls-2" d="M56.75,81.11l2.11-1.08c-.6,1.08-1.51,2.33-1.51,2.33-.09-.22-.6-1.25-.6-1.25Z"/><polygon class="cls-9" points="92.33 96.2 90.24 98.23 87.87 96.15 92.33 96.2"/><path class="cls-15" d="M116.05,90.41s-1.05,2.37-2.64,.64c1.64-.14,1.82,.05,2.64-.64Z"/><path class="cls-2" d="M109.04,89.82s-1.09,2.55-1,3.59l-.73-.46s.55-2.14,1.73-3.14Z"/><path class="cls-2" d="M114.89,163.31s2.34,5.03,9.82,8.03c-2.85,.04-6.61-.13-11.44-5.35,.34-1.69,1.62-2.68,1.62-2.68Z"/></svg>