<?xml version="1.0" encoding="UTF-8"?><svg id="Capa_1" xmlns="http://www.w3.org/2000/svg" viewBox="0 0 125.13 199.03"><defs><style>.cls-1{fill:#f3eff7;}.cls-2{fill:#f7f1f8;}.cls-3{fill:#f3a7b6;}.cls-4{fill:#fff;}.cls-5{fill:#fcd49a;}.cls-6{fill:#fcc200;}.cls-7{fill:#7d4e1e;}.cls-8{fill:#b3aeb3;}.cls-9{fill:#c14f62;}.cls-10{fill:#a4b4dd;}.cls-11{fill:#c09618;}.cls-12{fill:#c89464;}.cls-13{fill:#c99b47;}.cls-14{fill:#422918;}.cls-15{fill:#40413f;}.cls-16{fill:#1d1d1b;}.cls-17{fill:#36639c;}.cls-18{fill:#392c1b;}</style></defs><path class="cls-12" d="M124.57,111.57s.27-.6-.22-2.16c.6-.12,.76-.7,.46-1.78-.3-1.08-.9-1.87-.9-1.87,.44-.23,.58-.95-.45-1.98,.25-.34,.41-.41,.06-.87-.35-.46-.89-.78-.89-.78-.23-.85-.56-1.19-2.23-1.68,.13-.52-.66-1.31-2.99-1.1-.48-.56-1.34-.92-3.19-.69-.03-.43-1.19-.98-4.01,.89-.26-.51-.67-.69-3.11,1.51-.37-.3-1.45,.68-2.8,3.21-.9,.75-1.16,1.97-1.19,3.78-.66-.09-.76,1.03-.68,2.85-.37,.28-.82,.36-.34,2.04-.43-.14-.71,1.31,.04,2.83-.59-.32-.82,.3-.16,2.53-.18,.34-.25,.75,.37,2.44,.03,1.37,.12,1.41,.12,1.41-.18,.13-.41,.47-.18,.91,.23,.44,.66,1.48,.66,1.66l-.46,.04s.76,1.36,.77,2.48c-.54-.29-.87-.53-.71,2.31-.37-.19-.73-.16-.82,2.07-.62-.12-.91,.99-.94,1.83-.33-.21-.65-.36-1.19,.93-.46-.2-.66-.02-1.32,1.07-.54-.18-1.04,.16-1.92,1.09-.45-.27-1.1-.19-2.37-.13-.55-.49-.54-.61-3.29,.05,.18-.77-.08-1.02-.08-1.02-.21,.02-1.92,.44-2.78,.14,.36-.41-.08-.75-.43-.89-.35-.14-2.9-.14-2.9-.14l.36,1.77s3,2.66,4.83,3.24c1.83,.58,4.55,1.3,6.59,.81,0,0,5.19-1.07,6.54-3.08,1.35-2.01,1.43-4.43,2.03-5.31,.6-.88,.87-2.79,.84-4.35-.03-1.56-.2-2.8-.2-4.98s-.6-3.31-.6-5.67,.05-4.6,.52-6.49c.46-1.89-.45-3.81,2.27-6.2,2.72-2.38,3.63-2.56,6.61-2.01,2.99,.55,4.22,.68,4.97,2.11,.75,1.43,.98,1.53,.98,3.52s.69,3.34,1.44,3.59c.75,.25,2.55,.49,2.89,.08Z"/><path class="cls-7" d="M124.43,111.59s-5.21-1.12-2.37-3.58c-.45-.67-1.96-2.37-1.75-2.54,.49-.58,1.7-.97-1.3-2.09l.46-.79-1.83-.04c.13-1.33-.03-1.42-.03-1.42,0,0-1.54,.1-2.21,.59-.92-.18-1.21-.21-1.21-.21,0,0-.18-.76-.18-.97-.96,.13-1.61,.96-2.28,1l-.25-.62s-1.2,.5-2.29,.96c-1.46,.83-2.16,1.63-2.16,1.63l-.25-.59s-.49,1.04-.96,2.09l-.71-.79s.16,2.33-.04,2.95c-.75,.58-.34,1.71-.42,2.09-.41,.49-.34,1.37-.37,2.21-.91,.84-.96,1.2-.49,3.24-.37-.16-.46-.21-.46-.21,0,0-.21,.91,.42,1.58,.63,.67,.18,1.33,.04,1.42-.21,.09-.16,.97,.84,2.55-.09,1.12-.43,1.51,.49,2.96-.29,1.83-.24,2.41,.13,3.49-.04,1.46,.08,3.99-.25,4.75-.54,.09-.5,0-.5,0,0,0-.21,2.79-1.12,3.58h-.58s-.34,1.21-.84,1.79c-.91,.46-.41,1.09-1.08,1.46l-1.04-.29s-.55,1.41-1.88,1.7c-1.33,.3-.9,.36-2.08,.7-1.25-.16-.66-1.11-4-.66-1.51-.46-2.09-1.45-3.25-1.37-.96-1.21-3.28-2.13-3.79-2.13,0,0,.79,3.26,.42,3.92-.79,.49-.83,.75,1.21,1.58,2.04,.83,4.79,2.87,9.54,1.91,4.75-.96,9.04-2.55,11.04-8,1.42-4.95,1.54-10.33,1.54-10.33,0,0-.09-5.3-.88-7.46-.79-2.17-1.01-6.03-.04-7.49,.97-1.46,4.5-6.3,8.67-4.25,3,1.76,2.59,3.34,2.04,5.29-.55,1.96-1.55,4.67-.09,5.37,1.46,.7,4.39-1.04,4.76-1.61,.4-.26,.92-.73,1.08-1.65,.15,0,.54-.41,.33-1.74Z"/><path class="cls-14" d="M123.46,114.57s-1.59,.12-1.8,.36c-.21,.31-.68,.64-1.14,.65l.03-.77s-.53,.69-1.22,.67c.09-.75,.09-.8,.09-.8,0,0-.3,.14-.95-.03,.63-.87,.63-1.71,.63-1.71-.43,0-.88,.23-.88,.23,0,0,1.53-1.81,1.33-2.63-.55,.07-.57,0-.57,0,0,0,.9-1.04,.74-1.79-.16-.75-.74-.19-.74-.19,0,0,.48-1.43-.08-2.03-.56-.6-.71-.26-.71-.26,0,0,.64-.68,.32-1.31-.32-.63-1.54-.36-1.54-.36,0,0,.34-.9-.32-1.02-.66-.12-.63,.45-.99,.4,.03-.68-.35-1.05-.81-.92-.46,.13-.23,.46-.79,.46-.46-.38-.79-.1-1.36,.1,.02-.48-.2-.84-1.36,.31-.51-.28-1.92-.29-1.82,.97-1.01,.01-1.55,.86-1.59,1.35,.31,.36,.24,.65,.24,.65,0,0-1.32,.46-1.57,1.83,.47-.35,.43-.07,.43-.07,0,0-.38,.9-.65,2.15-.36,.63-.67,1.22-.25,2.2,.1,1.08,.07,1.59,.21,2.08-.52,.43-.86,1.12-.51,1.77,.29,.77-.19,2.59,1.07,2.38,.24,1.34,.13,1.2,.59,1.82,.07,1.09,.7,2.5,.66,3.35-.04,.85-.87,1.55-.71,2,.68,.64,.54,1.52,.38,2.34-.15,.82,.22,1.16,.22,1.31-.48,.24-.63,1.16-.6,1.57-.01,.44-.45,2.12-.47,2.51-.25,.7-.42,1.81-.81,2.37-.4,.56-1.27,2.19-3.17,2.91,.08,.37,.48,.3,.48,.3,0,0-.6,.41-2.04,.89-1.25,.88-1.44,1.01-2.1,1.01s-1.51,1.04-2.39,1.08c-.89,.03-1.82,0-2.75-.03-.67,.2-.37,.66-.37,.66,0,0-2.43-.09-4.21-1.14-1.78-1.05-4.26-2.2-4.26-2.2l-2.35,.47c-.07,1,.7,2.6,.7,2.6,.53-.07,.63-.11,1.56,.36,.93,.47,1.18,.45,1.56,.3,.53,.56,1.54,1.34,2.4,.81,.99,.51,1.48,.65,2.53,.24,1.01,.33,1.74,.4,2.27,.07,.67,.4,1.57,.02,1.83-.46,.84,.13,2.15,.08,2.4-.85,1.6-.04,3.5-.45,2.94-1.24,1.27-.3,2.5-.73,2.35-1.71,.9-.3,1.76-1.18,1.94-1.6,.61-.32,1.25-1.13,1.24-2.25,.71-1.08,1.34-1.88,.78-2.53,.86-1.43,1.08-1.73,.56-2.26,.35-1.49,.57-2.99,.58-3.07,.01-.08,.02-.68,.03-1.27,.26-.79-.02-1.8-.09-2.11,.46-.77,.67-1.68,.33-3.18-.16-1.04-.22-1.87-.47-2.44,.01-.87-.03-2.46-.23-3.09-.2-.63-.84-2.58-.84-2.71-.11-.59,.37-.85,.35-2.22,.18-1.15,1.13-3.72,3.72-4.61,0,0,2.53-.47,4.23,.33,1.7,.8,1.71,2.34,1.29,3.06-.43,.73-.43,1.06-.43,1.06l.35,.29s-.91,1.19-.88,1.42c.46,.13,.75,.16,.75,.16,0,0-.93,1.3-.63,1.74,.56,.1,.73,.02,.73,.02,0,0-.41,1.65,.54,2.16,.38,.92,.55,.97,.81,.99,.36-.04,1-.54,1.1-.57,.1-.03,1.6-.91,1.6-.91,0,0,1.12-.48,1.43-1.34,.38,.63,.54,.7,.54,.66s.58-1.59,.6-1.71Z"/><path class="cls-1" d="M39,114.43s7.47-3.02,14.32-2.35c1.18-.76,2.36-2.48,3.66-.04,.46-.63,1.43-.58,1.89,.04,.37,.67,4.04-.04,8.15,.46,4.11,.5,6.12,1.05,6.76,1.56,.64,.5,.64,3.78,.64,3.78-5.89-1.64-9.49-1.81-11.93-1.77,2.56,3.27,3.48,4.49,3.74,5.04,.25,.55,2.98,11.71,2.81,16.59-.51,1.26-1.7,2.76-2.62,3.12-1.12-2.82-1.14-3.63-1.14-3.63,0,0-.98-.08-5.19,2.99,.33-3.41,.16-8.7-.59-12.9-.76-4.2-1.42-8.87-2.01-9.54-.76-.21-2.55-.69-2.75-.52,0,0-4.27,13.12-4.19,14.8,.09,1.68,.21,15.7,0,15.58-1.56-.58-2.44-1.71-2.44-1.71-2.81,0-4.95-.04-4.95-.04,.42-7.99,1.63-14.55,2.26-17.98,.64-3.44,3.7-9.33,6.01-11.89-3.74,.43-7.59,1.43-9.15,2.19,.16-1.25,.53-3.33-2.2-2.69-.7-.63-1.08-1.09-1.08-1.09Z"/><path class="cls-8" d="M59.53,114.86l-2.58-.1c.8-.81,.43-1.89,.43-1.89-.54,1.02-1.67,2.22-2.8,2.48,.16-1.14-.91-1.63-.87-1.76,.08-1.64-.97-1.67-1.68-1.64-.71,.03,.76,.76,.76,2.1-1.05-.3-3.16-.09-5.89,1.09,2.35-.37,3.54,0,3.54,0l-1.01,1.01c2.1-.12,2.93-.38,3.44-.55-.46,2.32-1.22,4.83-1.64,6.52-1.18,2.39-2.32,6.93-2.69,9.03,1.26-2.02,1.68-2.1,1.68-2.1,0,0-1.34,6.55-1.34,10.33,1.09-1.55,1.26-1.76,1.26-1.76l-.64,9.4c.97,.63,2.23,1.01,2.23,1.01,.46-3.99,1.55-16.72,1.55-16.72,0,0,1.36-11.08,1.46-14.04,1.61,.18,2.93,.74,2.93,.74,.27,1.09,.86,2.85,.86,2.85,2.11,3.2,6.1,10.37,6.1,10.37-1.38-5.83-3.14-11.1-3.27-11.13-.64-.79-3.11-3.23-3.11-3.23,1-1.26,1.29-2.01,1.29-2.01Z"/><path class="cls-10" d="M51.58,115.96s-4.77,4.25-6.79,15.28c-2.02,11.03-1.6,12.72-1.6,12.72-.52,0-1.65,.28-2.07,.52-.42,.23-1.02,.76-1.82,.52-.8-.24-.47-2.4-.47-2.4-2.11-.37-10.14-1.26-10.51-1.36,.43-3.52,4.12-14.31,6.24-15.44,1.32,1.87,4.27,1.95,4.93,.98,.66-.98,3.63-4.46,4.09-4.98,.46-.52,1.64-1.55,1.78-3.1,.14-1.55,3.82-2.78,6.23-2.75Z"/><path class="cls-10" d="M69.23,118.63s4.23-.03,6.27,1.85c2.04,1.88,3.48,4.82,3.35,8.42-.13,3.59-.17,8.99-.17,9.49s-.37,3.06-.37,3.06c.1,1.6,0,2.16-.16,2.34-.77,.14-7.84,.54-9.56,.54s-6.78,.27-7.78,.27-3.32,.83-4.05,.83-3.42-.41-4.46-1.24c-.13-4.33,1.27-15.16,1.27-15.16l1.78-8.81,2.85,.03c.7,1.54,1.71,8.11,1.85,11.87,.13,3.76,.13,8.12,.13,8.12,.83-.91,3.82-2.66,5.1-2.99,.57,1.71,1.04,3.63,1.14,3.63,.57-.27,2.78-2.25,2.78-3.49s-1.01-9.38-2.42-14.35c-.03-4.59,.34-5.06,.34-5.06l2.11,.67Z"/><path class="cls-17" d="M51.11,116.34s-2.99,.07-4.09,3.5c-1.1,3.44-3.02,8.55-3.02,8.55,.32-4.98,.77-6.36,.77-6.36,0,0-1.77,1.25-2.32,2.64-.57,1.47-2.19,2.88-3.41,3.24,.16-1.89,.16-2.09,.16-2.09,0,0,.64-1.31,.77-1.57,.77-.23,2.09-.81,1.67-2.38,1.45-.03,2.22-.57,2.12-1.67-.1-1.1-1.25-1.75-1.67-1.93,1.07-.83,7.71-2.39,9.48-2.31-.09,0-.47,.39-.47,.39Z"/><path class="cls-10" d="M67.24,81.81l-4.36,11.16-2.79,6.43c-1.76,1.85-3.66,3.79-3.66,3.79-5.29-3.86-6.11-4.46-6.11-4.46l-4.33-4.28s-1.13-6.39-1.36-9.23c1.75-.89,4.86-1.93,4.86-1.93,0,0-3.88-2.31-5.05-2.18-1.24,.9-4.04,4.08-4.3,4.08-.73,0-2.24-.83-5.21,.86-2.97,1.69-7.6,4.23-7.6,4.23,1.87,2.83,5.89,9.82,7.57,10.91-.55,2.7-1.98,8.24-1.41,10.09,2.23,1.85,4.57,2.85,5.41,3.19,.77-.35,5.51-2.25,10.79-2.42,2.99-.13,4.07,.19,4.07,.19,.42-.95,1.18-1.49,1.85-1.49s1.34,1.17,1.34,1.17c1.14-.67,1.66-.35,1.88,.29,1.14,.03,7.1-.07,9.77,.6,3.75-.54,6.48-.75,6.48-4.4s-.73-4.8-.73-5.98,1.49-3.37,1.49-3.37c-1.27-.57-2.67-2.02-3.37-5.85-.7-3.82-.42-5.32,.25-6.81,.67-1.49,3.49-5.74,3.78-6.21-1.3-.25-3.47,2.14-3.98,2.3-.5,.15-5.27-.67-5.27-.67Z"/><path class="cls-17" d="M70.94,96.4s-.54-2.72-.87-3.66c-.47,.93-.26,2.1-.26,2.1-.6-.11-.9-.11-.9-.11,0,0,1.47,4.56,2.13,5.89-.18,2.23,.03,4.76,.03,4.76,0,0,2.39,1.24,2.46,1.83,.03,.66-.74,1.68-2,2.09,0,0-4.63,1.18-5.89,3.07,4.39,.63,9.14,1.61,9.91,2.12,2.59-1.09,4.97-2.22,5.63-3.22,.66-1-.88-8.14-1.54-9.91,0,0,.37-.14-.59-.54-.97-.4-3.66-1.92-3.66-1.92,0,0-4.01,.74-4.45-2.49Z"/><path class="cls-5" d="M71.9,89.38s.02-1.49,.43-2.31c.41-.81,1.85-3.58,2.88-4.56,1.03-.98,3.69-1.9,5.67,.11,.28-.22-.44-3.45-.92-4.91-.48-1.46-1.21-5.04-1.24-5.91s.32-2.34,1.59-2.47c1.27-.13,2.36,.37,3.23,4.12,.87,3.75,2.01,8.14,2.01,8.14,.98-2.42,3.04-5.39,4.15-7.3,1.11-1.9,2.57-4.55,3.9-4.06,1.33,.48,.7,3-.52,5.88-1.22,2.88-2.57,5.24-2.57,5.24,1.22,.43,2.21,1.79,1.85,2.95-.14,.59,.86-.92,2.63,1.33,1.03,1.44-.14,2.36-1.44,4.75-2.31,1.46-5.11-.11-6.65-.41-1.54-.3-7.13,.9-8.05,.9s-1.75,1.24-3.34,1.24-3.6-2.74-3.6-2.74Z"/><path class="cls-13" d="M91.08,96.49s-.34,3.97-4.57,4.69c-1.4,.24-2.02,.21-2.34,.83-.32,.63-.53,1.04-.95,1.04s-1.37-1.24-1.92-1.29c-.55-.04-4.92-2.27-6.14-3.04-1.22-.77-2.66-3.49-2.87-6.25-.21-2.76-.42-4.41-.27-4.5,.21-.14-.03,1.81,.8,1.36,.84-.45,1.89-.97,1.75-.1-.14,.87-.6,1.99,.07,2.23,.67,.24,1.04-1.79,1.39-1.3,.35,.49,.77,1.57,.77,1.57,.28,1.15,.85,5.31,5.53,6.6,4.68,1.3,6.8,.05,8.76-1.86Z"/><path class="cls-13" d="M78.51,84.6s1.09,2.01,2.1,2.01c1.37,0,4.06,1.6,6.26-.04,.65,.64,1.75,1.32,2.43,1.14,.68-.18,1.1-2.51,3.15-3.52-1.29,2.88-2.92,4.8-2.92,4.8,1.19,1.1,2.23,2.69,4.38,.72-.64,1.24-.77,1.7-2.33,2.7-.55,1.64-2.69,3.78-8,3.05-5.31-.73-6.67-5.35-6.03-7.77,.41-1.14,1.23-1.42,1.23-1.42-.64-.41-.28-1.69-.28-1.69Z"/><path class="cls-9" d="M93.18,91.17s-.49,6.38-5.97,7.57c-2.86,.33-6.81-.16-8.93-3.55,1.83,.15,4.44-.31,4.44-.31,2.3,.73,4.11,.14,4.67,.02,.97,.15,2.87-.23,3.83-2.78,.19-.12,.53-.06,1.02-.4,.49-.33,.93-.56,.93-.56Z"/><path class="cls-5" d="M35.08,114.48s-3.86,3.3-4.97,7.66c2.31,2.79,2.84,3.13,5.6,3.18,2.77,.04,2.52-.52,4-1.29,1.48-.77,2.15-2.14,2.15-2.14,.85-.13,1.81-.42,2.01-1.33,.2-.91-.58-1.59-1.56-2.08,.12-1.63,.54-3.56-2.24-2.97-1.16-1.19-2.3-1.74-2.81-1.74s-2.19,.7-2.19,.7Z"/><path class="cls-3" d="M24.37,115.47s5.57-7.31,6.43-4.13c1.53,1.09,2.58,1.99,2.58,1.99,.47-.39,2.04-.55,1.68,1.26-1.39,.93-2.34,2.22-3.41,4.03-3.49-.15-7.28-3.15-7.28-3.15Z"/><path class="cls-5" d="M34.05,100.45s1.76,2.19-2.59,3.98c-3.72,2.86-4.66,4.86-4.66,4.86,1.07,1.59,1,2.32,1,2.32,0,0-2.76,1.87-4.9,6.83-4.07-1.11-5.42-2.44-6.14-3.97-1.9-1.56-2.59-2.83-2.42-3.53,.18-.69,2.1-.84,2.27-2.42,.18-1.58,1.1-4.51,4.11-7,3.01-2.48,5.72-2.66,5.83-2.9,.11-.24,1.82-4.34,3.42-4.24,.97,1.89,4.08,6.06,4.08,6.06Z"/><path class="cls-5" d="M66.61,83.67l-5.35,12.78c-3.9,1.56-9.69,3.12-9.87,3.12-3.01-2.16-5.6-5.22-5.6-5.22-.35-2.52-1.27-9.01-1.27-9.01,.78-.67,4.47-1.91,4.97-2.05h.6l-.04-3.02c6.25,2.59,3.55,2.16,7.56,2.77,4.01,.6,9.01,.64,9.01,.64Z"/><path class="cls-13" d="M50.11,80.72s3.19,2.15,3.25,2.37c.18,1.71,.6,4.87,3.1,5.45,0,0,.58,.37,1.43-.91,.85-1.29,1.98-1.57,2.97-1.9,.99-.33,4.37-1.47,5.55-1.36,.63-1.79,.7-2.26,.7-2.26,0-.18-1.8-.96-3.41-.33-.11-1.9-.11-2.01-.11-2.01,0,0-3.39,1.98-6.1,1.98s-7.32-1.65-7.46-1.65c.11,.3,.08,.63,.08,.63Z"/><path class="cls-5" d="M76.24,58.83s2.59-1.88,4.02,1.3c1.43,3.18,1.57,5.84,.4,7.66-1.18,1.81-5.51,5.65-7.07,5.65-1.63-.07-4.6,.83-4.8,1.1-.2,.26-2.68,4.55-7.46,6.31-3.24,1.25-4.16,.81-6.95,.47-2.79-.34-7.57-2.49-8.51-2.77-.94-.28-3.26-2.16-3.46-3.79-2.18,.08-5.6-.53-6.92-2.18-1.32-1.65-2.2-3.32-2.85-5.42-.65-2.1-2.1-5.46-.4-6.68,1.7-1.22,4.02,.71,5.36,2.55,1.29-2.74,1.81-3.27,1.81-3.27,0,0-2.55-2.23-1.96-3.37,1.59,1.18,2.3-.4,2.3-.4,0,0,.86-2.61,1.36-4.3,.51-1.68,2.32-8.01,3.97-8.46,1.65-.45,6.89-4.13,8.12-3.6,.12,3.6-1.63,11.61-.36,15.33,4.61-6.72,11.57-10.98,13.66-10.72,2.09,.25,9.76,14.6,9.76,14.6Z"/><path class="cls-13" d="M45.19,43.26s-3.64,4.56-3.19,9.29c.45,4.74,1.33,5.08,1.33,5.08-2.47-1.52-3.56-2.16-4.36-3.68-.8-1.52-.72-2.02-.31-3.26,.42-1.24,3.59-9.55,6.67-9.62-.34,1.78-.14,2.2-.14,2.2Z"/><path class="cls-13" d="M33.38,63.32s.4-1.19,1.14-.88c.72,.42,3.57,3.97,5.28,4.16,.44,.62,2.21,5.28,2.23,6.36-1.13-.2-3.27-.16-4.73-1.74-.6-1.73-1.81-2.47-1.81-2.47,0,0-1.08-2.08-.95-3.81-.68-.39-1.16-1.63-1.16-1.63Z"/><path class="cls-13" d="M61.99,80.55s4.69-2.81,6.13-8.11c1.44-5.3,.65-4.8-1.21-6.47,2.15-1.17-.8-10.04-.8-10.3,.68-3.18,5.8-10.31,5.8-10.31,0,0,2.92,5.64,2.99,11.26,1.18,2.55,1.82,3.39,2.22,3.39,1.37,.33,1.83,1.77,1.31,4.85-.53,3.08-1.9,2.68-1.9,2.68-.91,1.37,.79,2.61-3.06,3.86-.26,1.37,.91,1.63,1.22,1.63-.6,.68-2.24,1.14-3.34,.91-.3,1.39-3.85,4.1-9.35,6.61Z"/><path class="cls-4" d="M53.12,63.07s-1.59-2.81-2.07-3.75c-.47-.93-3.11-4.79-6.66-2.1-3.27,2.64-.22,9.55,.71,10.16,2.24-.28,6.35-.64,8.05-.59-.12-2.86-.04-3.72-.04-3.72Z"/><path class="cls-15" d="M39.16,34.48s-8.5-4.24-16.63-4.1c-8.13,.14-18.56,7.99-18.56,7.99,8.05-.65,26.69,1.87,29.78,3.38,3.6-5.54,5.41-7.27,5.41-7.27Z"/><path class="cls-15" d="M30.95,1.96s8.06,12.45,9.79,28.56c5.9,4.11,8.92,2.95,9.06,2.02,.14-3.24-6.98-27.49-18.85-30.59Z"/><path class="cls-15" d="M49.73,18.73c3.16,13.67,4.46,15.69,4.46,15.69,0,0,2.88,.65,4.03-1.44,1.15-2.09-7.2-13.67-8.49-14.25Z"/><path class="cls-15" d="M64.84,25.7l-1.58,2.88s6.55,.29,16.62,11.88c.21-4.75-3.81-13.32-15.04-14.76Z"/><path class="cls-15" d="M81.53,42.97c-4.24,5.83-3.59,5.9-3.59,5.9,9.06-1.08,23.09-2.8,23.09-2.8-11.22-2.52-19.5-3.1-19.5-3.1Z"/><path class="cls-15" d="M80.31,59.17s20.22,1.66,22.16,.87c-3.31-2.53-17.62-5.04-18.27-5.04-3.6,2.59-3.89,4.17-3.89,4.17Z"/><path class="cls-15" d="M81.89,66.79c-2.01,2.38-2.15,2.59-2.15,2.59,0,0,1.14-.65,7.12,.79-1.15-2.3-3.67-2.96-4.97-3.38Z"/><path class="cls-15" d="M36.28,43.55s-2.46,2.1-3.03,8.35c1.74,2.37,2.96,2.88,2.96,2.88,.22-9.28,.08-11.23,.08-11.23Z"/><path class="cls-15" d="M50.66,36.64s-3.15,9.36-4.96,9.79c-.58-4.9,.57-8.35,.57-8.35,.71-.51,3.44-1.87,4.38-1.44Z"/><path class="cls-15" d="M62.11,34.7s-7.78,16.19-9,16.7c-.93-5.76,1.01-13.54,1.94-14.47,2.01-1.01,7.05-2.23,7.05-2.23Z"/><path class="cls-15" d="M32.73,56.5l-22.84-1.92c5.13-3.21,17.75-4.59,20.47-3.7,1.29,4.34,2.37,5.63,2.37,5.63Z"/><path class="cls-15" d="M30.95,63.89s-7.69,1.82-8.88,4.64c3.85-.64,9.71-2.36,9.71-2.36-.98-1.29-.84-2.27-.84-2.27Z"/><path class="cls-4" d="M60.25,63.53s-.24-.87,.28-2.59c.53-1.72,1.45-1.9,1.87-3.07,.42-1.16,4.13-3.7,6.58-1.22s.51,8.41,.16,9.42c-1.23-.13-4.38-.04-6.05,.54-1.87,.11-2.47,0-2.56-.73-.09-.72-.28-2.35-.28-2.35Z"/><path class="cls-4" d="M49.07,68.8s-1.47,3.87,.99,9.21c-2.04-1.41-6.09-3.6-6.36-8.11,2.99-.83,5.37-1.1,5.37-1.1Z"/><path class="cls-5" d="M68.64,53.81s1.08,.68,.88,2.38c-.72-.82-1.64-1.32-1.64-1.32,.49-.68,.76-1.07,.76-1.07Z"/><path class="cls-15" d="M74.25,52.97l-3.9,6.59c1.35-.25,2.56-.39,2.56-.39l3.92-5.87-2.58-.34Z"/><path class="cls-15" d="M66.99,44.66l-.02,6.42c2.21-3.09,2.21-3.17,2.21-3.17l-2.19-3.24Z"/><path class="cls-13" d="M57.73,70.41s-.73,.71-1.48,.3c.04-.6,.8-1.02,.8-1.02,.22,.04,.68,.73,.68,.73Z"/><path class="cls-13" d="M59.78,75.03s-1.29,1.75-2.04,1.59c-.76-.15-1.34-1.47-1.22-1.67,.99-.2,3.26,.08,3.26,.08Z"/><path class="cls-13" d="M66.99,47.88l-1.44-1.59c-3.68,5.01-10.84,12.5-11.15,12.55,.26-4.74,.15-4.74,.15-4.74,0,0,11.12-13.13,12.1-13.01,.34,2.09,.34,6.79,.34,6.79Z"/><path class="cls-13" d="M52.51,46.21s-3.61,3.9-3.91,10.27c-1.21-2.57-2.42-4.89-2.23-5.49,.22-1.1,4.05-10.88,7.27-11.56-.99,2.91-1.13,6.78-1.13,6.78Z"/><path class="cls-18" d="M41.58,51.67l1.18,2.01c-.76,.49-1.71,1.25-1.71,1.25l-.9-1.98s.8-.87,1.44-1.29Z"/><path class="cls-5" d="M58.66,84.37s-.29,2.52-2.59,2.67c-1.21-1.2-1.13-3.07-1.13-3.07,1.16,.4,2.01,1.31,3.72,.4Z"/><path class="cls-5" d="M60.27,84.19l.22,1.65-.74,.4s.19-1.73,.52-2.04Z"/><path class="cls-4" d="M62.97,86.75s-3.32,3.74-3.47,3.8c-1.1-1.13-1.68-1.51-1.68-1.51,0,0,2.49-3.25,4.02-3.18,.69-.08,1.13,.88,1.13,.88Z"/><path class="cls-4" d="M54.89,91.61s.45-2.75-.21-3.58c-.66-.83-2.98-1.21-4.39-.91,.19,1.43,3.91,4.57,4.02,4.57s.58-.08,.58-.08Z"/><path class="cls-13" d="M62.11,94.81s-1.64,.75-2.77,.29c-.18-2.45-2.04-4.5-3.04-4.54,.38,2.34,.51,4.89,.43,5.17-.6,.89-3.34,3.02-3.34,3.02-1.21,.14-2.91-.25-2.91-.25,1.18,1.07,5.86,4.82,5.86,4.82,2.74-2.98,3.87-4.17,3.9-4.29,.36-1.21,1.88-4.23,1.88-4.23Z"/><path class="cls-13" d="M46.78,84.27s-.67,2.4-.67,2.67c-1.07,.35-1.31,.32-1.31,.32l-.11-1.99c.38-.25,2.09-1,2.09-1Z"/><path class="cls-4" d="M30.21,94.98s-2.2-.78-3.49,6.95c-1.82-1.64-2.31-1.6-2.31-1.6,0,0-6.32,4.5-6.88,6.36-.37,1.82,.08,2.79,.08,2.79-.86,.26-4.21,.71-2.01,3.27-1.12-.45-2.57-1.68-1.82-2.46,.75-.78,1.53-1.41,1.53-1.41,.14-1.64-.1-4.07,3.65-7.48,3.75-3.42,6.77-4.87,6.77-4.87,0,0,.43-3.23,2.97-4.16,.56,1.3,1.53,2.6,1.53,2.6Z"/><path class="cls-4" d="M18.71,107.46s2.38-.14,4.42,1.03c2.03,1.18,4.14,3.77,4.14,3.77,1.11-1.18,1.23-1.46,1.23-1.46,0,0-3.79-4.44-5.09-4.57-1.3-.13-3.5,.65-4.7,1.23Z"/><path class="cls-13" d="M32.28,98.28s1.08,2.48,1.11,2.9c.03,1.48-1.13,2.16-1.24,2.24-2.38-.27-3.61-1.58-3.72-1.58-.59,1.87-.07,3.49-1.24,4.08-1.18,.58-3,.92-2.87,.92,1.55,.8,3.97,3.69,3.97,3.69,1.24-1.2,4.11-4.08,4.38-4.42,.55-.52,1.35-.82,1.35-.82,.31-1.69,1.07-3.97,1.07-3.97-.63-.63-2.8-3.04-2.8-3.04Z"/><path class="cls-13" d="M15.17,112.51s2.45,.86,3.73,1.86c-1.56,0-1.87,.03-1.87,.03,0,0,1.63,2.98,6.04,3.59-.21,.69-.45,1.07-.45,1.07-1.93-.61-5.11-1.58-5.87-2.07-.76-.48-2-4.63-2-4.63l.42,.14Z"/><path class="cls-9" d="M24.98,114.91l1.11-.39c1.16,1.3,3.57,3.34,3.95,3.44,.96-.08,1.91,.36,1.91,.36-1.01,1.11-2.16,3.35-2.01,4.08,.64,.29,.64,.78,.64,.78-.77,.42-1.58,.83-2.14,.65-.56-.19-1.29-1.47-1.29-1.47-.8-.21-2.22-.75-2.87-1.83-1.16,.25-1.68,.25-1.68,.25,0,0-.53-2.44,2.37-5.86Z"/><path class="cls-4" d="M34.66,116.66c.09,0,5,2.14,5.75,2.14-2.54-1.97-3.46-3.08-3.55-3.34-.93-.22-2.2,1.2-2.2,1.2Z"/><path class="cls-13" d="M30.83,120.22s.42,3.32,3.04,3.66c2.63,.34,3.64,1.96,4.24,.07,1.22-.53,1.42-.19,3.02-1.94,1.01,.08,.7,.5,.57,1.03-.13,.53-.9,1.25-1.85,1.25,.18,.88-1.13,3.09-2.98,2.56-1.71-.41-2.11-1.25-3.86-1.51-1.75-.25-2.35-1.82-2.58-2.37l-.6-.95,.99-1.8Z"/><path class="cls-5" d="M81.91,89.57s.7,.99,.7,1.48c-1.15,.61-2.1,.37-2.22,.33-.78-.58-.86-1.89-.86-1.89l2.37,.08Z"/><path class="cls-5" d="M82.97,99.14s-.07,1.4-1.1,1.89c-1.44-.58-1.56-.87-1.56-.87,0,0,1.46,.21,2.66-1.02Z"/><path class="cls-3" d="M83.49,95.11s.43,1.2,.43,1.29c-1.31,.02-4.45-.6-5.8-1.06-1.15-1.39-2.33-5.34-.49-7.44,.02,2.08,.89,4.24,1,4.46,1.19,.35,1.75,.77,2.12,1.36,.37,.59,1.61,1.2,2.75,1.39Z"/><path class="cls-4" d="M78.95,83.84s-.85-1.64-4.32,.35c1.93,.63,2.71,.96,2.71,.96,.74-.16,1.01-.52,1.01-.52l.59-.79Z"/><path class="cls-13" d="M85.56,82.19l2.4,.73c-.68,.87-1.38,2.12-1.38,2.12-1.33-1.03-2.63-1.9-3.36-1.9-.74-.16-1.01-.47-.14-.79,.96-.41,1.56-.57,.96-2.33-.6-1.76-.66-3.99-1.25-4.91-.59-.92-.67-.74-.65-1.63,.02-.89-.24-3.82-.24-3.82,1,.54,1.52,3.66,1.52,3.66l2.16,8.88Z"/><path class="cls-13" d="M93.28,70.18s1.27,.36,0,2.92c-.85,1.93-.99,2.19-1.42,3.32-.43,1.13-1.03,2.12-1.44,2.49-.41,.37-.59,2.34-.59,2.47l.89-.22s2.87-5.12,3.43-7c.56-1.88,.77-3.93-.87-3.99Z"/><path class="cls-17" d="M66.55,83.36l1.72-1.1c1.07,1.6,1.57,2.77,1.57,2.77-.87,2.19-4.72,9.47-4.72,9.47-.1,.8-.33,1.97-.33,1.97,1.79-3.43,6.04-10.54,6.75-11.57,.83-1.2,3.09-4.12,5.12-4.66-1.03,1.43-1.36,2.3-1.36,2.3,.9-1,2.99-1.82,5.48-.07,.41-1.16-.16-2.6-.59-3-.87-.56-1.96-1.26-2.66-1.26s-5.56,2.77-5.99,3c-1-.67-3.07-2-3.56-1.97-.49,.03-2.62,2.16-2.66,2.3,.97,.17,1.69,.35,1.79,.57-.07,.4-.56,1.25-.56,1.25Z"/><path class="cls-17" d="M62.02,108.2l-2.79,4.07h-.46l-.67-.9c1.87-1.69,3.92-3.16,3.92-3.16Z"/><path class="cls-17" d="M59.69,106.41s-3.36,3.83-3.66,4.53c-.07-.47-.87-.53-2.56,1.23-.69-.28-2.53-.18-2.53-.18,1.33-1.23,5.15-4.35,8.75-5.58Z"/><path class="cls-17" d="M46.76,112.3s-4.22-2.13-5.45-2.13-3.13,1.23-3.13,1.23c.36,1.4,1.07,2.86,1.07,2.86,2.76-1.07,7.51-1.95,7.51-1.95Z"/><path class="cls-17" d="M53.08,106.77s-2.39,.28-7.28-4.58c1.83,1.09,6.86,3.24,8.22,3.58-.4,.57-.93,1-.93,1Z"/><path class="cls-17" d="M42.64,89.68s2.36,3.77,2.79,6.59c-1.76-1.53-1.56-1.08-2.49-3.03-.93-1.96-1.63-5.37-1.63-5.88,.96,1.23,1.33,2.32,1.33,2.32Z"/><path class="cls-17" d="M38.54,91.97s-2.46,1.62-4.22,5.2c-1.16,.46-2.95-.57-2.95-.57,1.59,2.43,2.77,4.3,3.72,4.56,.46-1.1,1.87-4.67,2.72-5.36-.77,.41-1.8,.77-1.8,.77,0,0,2.05-4.26,2.53-4.59Z"/><path class="cls-17" d="M34.19,126.05s.81,3.01,3.67,2.34c-.3,2.57-.41,6.11-3.44,10.61,1.67-1.22,3.14-3.09,3.14-3.09-.74,2.28-1.89,6.24-1.89,6.24,1.32,.1,3.05,.45,3.05,.45,.29-4.57,.45-16.69,.45-16.69,0,0-.86,.92-2.57,.7-1.71-.22-2.12-.87-2.25-.87s-.16,.3-.16,.3Z"/><path class="cls-17" d="M58.4,121.26l-2.15,.12c-.52,2.25-1.64,7.14-.52,11.13l-.87-.52s.43,4.52,3.22,7.72c.12,1.74,.09,2.21,.09,2.21-1.89-.8-3.43-5.91-4.04-7.26,.22,2.77,1.09,10.2,1.6,10.58-1.29-.16-3.47-.93-3.47-.93-.16-1.54,1-12.67,1-12.67,0,0,.48-5.79,.74-6.98,.25-1.19,.74-7.39,.74-7.39,0,0,2.2-.13,2.93,.74,.54,1.15,.74,3.25,.74,3.25Z"/><path class="cls-17" d="M62.29,115.92c4.89-.03,10.8,1.64,12.12,1.96,1.32,.32,2.8,.45,3.52,1.9,.71,1.45,2.96,4.95,4.21,7.26,1.25,2.31,3.76,12.28,3.15,12.83-.6,.38-4.22,.55-6.86,1.48l-.48-8.78s.13-5.86-1.7-9.55c-1.83-3.69-4.56-3.93-6.46-3.48,.77,.67,3.12,6.92,3.57,9.36,.45,2.44,0,3.28,.52,4.92,0,.32-2.07-2.6-2.07-2.6,0,0-.57-3.86-.67-6.43-.1-2.57-1.67-3.77-3.67-6.21,0,.81-.35,5.46-.35,5.46-.48-2.37-1.35-3.92-2.74-5.59-1.38-1.67-2.09-2.54-2.09-2.54Z"/><path class="cls-10" d="M79.88,128.37s2.8,6.94,2.83,8.58c-.71,1.77-1.75,2.53-1.68,2.44,.1-5.21-1.15-11.02-1.15-11.02Z"/><path class="cls-8" d="M63.99,112.29s-2.19,.97-2.05,1.68c2.65,.16,4.03,1,6.64,2.56-2.6-.42-6.43-.54-6.43-.54l-3.27-3.62s2.72-.22,5.12-.09Z"/><path class="cls-8" d="M71.34,113.3l1.4,1.38c-1.52,.09-1.81,.13-1.81,.13,2.44,1.3,3.02,2.72,3.02,2.72,1.43,.71,1.93,.8,1.93,.8,0-2.14-.32-3.86-.32-3.86-.73-.43-4.22-1.19-4.22-1.19Z"/><path class="cls-6" d="M84.7,176.22c.23,0,.77-1.77,1-6.31,.23-4.54,.77-7.69-.85-11.84-1.61-4.15-1.92-7.39-5.77-11.09-3.84-3.69-19.08-1.39-23.62-1.15l-3.23,1.23-.38,1.61c-3.61-2-5.69-2.46-5.69-2.46,0,0-2.88,1.56-4.68-1.23-.68-.1-.49,.02-2.2,.27-.47-1.36-.47-1.86-.47-1.86,0,0-2.1-.61-3.27-.12-1.18,.49-4.71-1.14-4.99-.87-.27,.28-2.66,6.41-3.37,13.06-.07,.46-.63,.47-1.09,.93s-.86,.8-2.47,6.74c-1.27,4.21-2.2,6.63-2.2,6.63,.49,1.09,4.46,6.23,6.97,8.33,2.66,1.42,4.25-.27,6.5-.34,2.25-.07,3.8,.93,7.86,.15,4.05-.78,6.9-5.17,7.31-5.3,.41-.12,4.43-3.39,4.65-4.48,.22-1.09,.93-11.12,.93-11.12,0,0,.07-5.25,.46-6.22,.62,2.54,1.77,7.25,3.93,9.69,.02,2.41,.8,13.06,1.82,14.36,1.02,1.3,5.91,2.26,8.29,3.75,2.66,1.18,4.42,.31,5.88,.28,1.46-.03,2.33-.8,4.53-.31,2.2,.49,2.29,.19,2.29,.19l1.87-2.54Z"/><path class="cls-11" d="M51.25,157.18s-8.68,10.18-9.36,11.5c1.85-.11,3.96-1.25,4.44-1.92-.45,2.3-.71,2.94-.71,2.94l-2.93,2.64c-1.66-.19-2.36-.18-3.12-.56-1.02-.57-4.75-4.36-4.75-4.36,2.19,4.1,4.52,6.54,4.52,6.54-.64,.64-1.88,1.35-1.88,1.35,0,0-6.09-3.79-7.29-5.18-1.21-1.4-2.41-4.63-2.41-4.63,.37,2.19,1.21,5.08,1.77,5.79,.56,.71,3.8,3.29,5.23,5.46-1.77,.98-2.57,1.46-4.22,1.46s-3.42-1.39-3.42-1.39c1.54,1.55,3.15,3.35,3.6,3.35s1.88-.77,2.14-.91c.76,.54,.89,.75,1.65,.75s2.08,.16,2.69-.27c1.6,.07,2.21,.15,2.82,.11,.62-.04,5.14-.43,5.9-.59s1.77-.86,2.55-2.19c.78-1.33,1.85-3.65,2.2-4.66,1.98-2.04,3.76-3.06,3.93-3.77,.18-.7,.82-9.78,.82-9.78l.46-7.02-4.64,5.36Z"/><path class="cls-2" d="M41.84,179.61s-.78,3.43-1.99,5.19c-1.21,1.76-3.5,4.24-3.65,4.26-.14,.02-10.09-.23-11.37-3.23,.42-.81,1.93-1.76,2.03-1.88,.18-1.22-.49-2.42,.87-2.58,.3-2.03,.57-3.32,.57-3.32,2.05,1.98,2.27,2.11,2.27,2.11,.82-.3,2.29-.92,2.29-.92,.67,.85,2.63,1.01,4.07,.49,.75-.32,.53-.39,1.14-.17,.62,.22,2.14,.12,3.77,.04Z"/><path class="cls-2" d="M82.11,179.22l1.9,8.31c-1.23,.57-9.59,2.47-11.25,.91-.99-.84-.57-1.77-.49-1.84-.25-.83-.95-1.88-1.04-2.37-.3-.95-2.08-4.79-2.08-4.79,2.03-.36,2.8-.14,2.8-.14,1.9,.02,3.46,.3,7.03-1.17,2.26,.59,3.13,1.09,3.13,1.09Z"/><path class="cls-15" d="M100.22,195.27s-9.84-1.05-13.12-2.35l-4.14-4.43s5.34-1.64,6.26-1.73c2.67,.69,11.87,6.03,11,8.5Z"/><path class="cls-15" d="M29.47,189.13s-3.44,4.59-4.13,4.79c-3.56,.92-9.61,2.63-12,1.24,4.16-2.93,7.31-4.77,7.66-5.14,.35-.37,4.05-2.76,4.05-2.76l4.42,1.87Z"/><path class="cls-8" d="M40.18,179.85s1.42,.66,.37,1.86h-.76s.81,1.11,.29,1.58l-1,.04s-.38,1.71-1.06,2.05c-.14,.63-1.11,1.77-1.44,1.77-.43,0-1.43-.14-1.43-.14,0,0,.77,1.82,.67,2.25,4.07,.47,6.05,.24,6.05,.24,0,0,.9-3.04,1.25-3.9,.35-.86,1.68-3.65,1.68-3.65l1.32-2.81s-2.3,.26-2.53,.26-1.87,.15-1.87,.15l-1.56,.29Z"/><path class="cls-8" d="M71.95,179.14s-1.35,3.38-.59,5.03c-1.71-2.53-2.79-5.97-2.79-6.2,1.65,.54,2.71,1.16,3.38,1.16Z"/><path class="cls-8" d="M79.37,178.28s.82,1.66,1.01,2.03c.51,.47,1.22,.5,1.42,.76-.06,.64-1.96,1.23-1.96,1.23,.63,.92,.38,.72,1.11,1.3,1.04,.2,1.6-.79,1.38-.47-.76,1.21-1.11,1.61-1.11,1.61,.99,.54,1.68,2.39,1.65,3.13,2.79-.41,6.46-1.43,6.49-1.87,.03-.44-.24-1.48-1.77-2.56,.19-1.8-.21-2.6-.49-2.97,.07-1.14-.02-2.38-.3-2.87,.01-1.18-.22-3-.22-3l-3.46,4.48-3.76-.81Z"/><path class="cls-11" d="M30.37,142.83s2.66,1.47,4.15,.99c-.58,1.88-1.68,7.01-.58,10.36,.96-3.03,1.19-10,2.38-10.44,1.2-.44,2.39,.19,2.64,.39,0-1.8-.12-1.47-.12-1.47,0,0-5.44-1.07-7.75-1.04-.73,.78-.73,1.21-.73,1.21Z"/><path class="cls-11" d="M38.99,144.86s.34,4.79-.1,6.39c1.04-2.92,1.23-6.19,1.23-6.19-.52,.17-1.13-.21-1.13-.21Z"/><path class="cls-11" d="M40.57,144.94s.97,1.93,2.2,2.2c1.23,.26,3.93-.03,4.68,.09,.75,.12,4.47,3.81,5.57,4.42-.26-3.57-.21-3.99-.21-3.99,0,0,3.79-1.76,4.21-1.86-.59,1.32-.52,2.28-.52,2.28,2.76,2.89,2.63,2.8,2.63,2.8l-1.23-4.49s6.87-.12,11.11-.56c4.24-.44,9.09-.81,9.83,4.14l.93-.45s1.67,1.41,1.69,1.69c.13,.66,.09,2.83,.3,3.37,.21,.54-.25,10.03-.25,10.03,0,0-2.02,4.65-3.71,4.98-2.36-.23-8.26-1.6-8.35-1.6,.8,1.32,.87,1.36,1.14,1.47,2.87,.97,7.57,2.97,7.93,2.92,2.11-2.19,6.46-8.98,7.04-9.74-.12,2.41-2.35,5.58-3.2,7.82-.82,1.85-1.71,2.22-2.78,2.22,2.35,.73,3.52,1.68,4.39,1.34,.99-1.12,3.6-3.98,4.7-6.15,1.1-2.18,1.66-2.93,1.59-4.37-.07-1.44-1-3.94-2.34-6.6-1.34-2.66-1.85-2.82-1.85-2.82,0,0-.85-4.02-1.2-5.75-.35-1.73-1.8-7.79-1.93-8.01-.99,.11-4.09,.53-4.63,1.25-.05,1.6-.13,2.19-.19,2.21-.16,.07-7.53,.53-9.16,.53s-5.79,.19-7.13,.19-3.81,.65-4.83,.8c-1.02,.15-3.74-.68-4.83-1.07-.18,1.53-.51,3.88-.51,3.88,0,0-2.15-.75-3.59-2.33-2.32,.11-4.93,.12-4.93,.12l.18-2.19s-1.96,.56-2.76,1.23Z"/><path class="cls-11" d="M60.29,151.93s5.76,3.28,7.75,5.72c1.99,2.44,2.19,4.03,1.22,4.14-1.05,.09-4.27-3.97-6-6.18-1.73-2.21-2.97-3.69-2.97-3.69Z"/><path class="cls-11" d="M59.05,154.93s2.19,4.63,2.65,5.36c.46,.74,3.74,5.3,7.47,7.53-4.56-5.77-10.34-14.29-10.34-14.29,0,.64,.22,1.41,.22,1.41Z"/><path class="cls-11" d="M62.58,165.34s-.23,5.44-.14,5.66c1.32,1.85,5.14,3.88,5.14,3.88-2.45-5.47-5-9.54-5-9.54Z"/><path class="cls-11" d="M78.63,178.17l-9.19-2.11c2.29,2.03,3.96,3.41,4.17,3.41,1.15,.02,4.35-.53,5.01-1.3Z"/><path class="cls-11" d="M84.7,173.72s.82,1.04-.55,1.59c-1.37,.55-7.25,.71-7.25,.71,3.35,1.65,4.08,2.66,4.65,2.8,1.26,.33,1.07,.35,1.73,.22,.86-1.43,4.57-6.11,5.01-7.39,.44-1.29,.08-1.36-.64-1.67-1.37,.79-2.94,3.74-2.94,3.74Z"/><path class="cls-6" d="M52.83,160.48s-1.72,6.47-2.59,7.48c-.87,1.01-3.76,3.09-3.76,3.09,2.93-6.13,6.35-10.57,6.35-10.57Z"/><path class="cls-16" d="M106.21,115.12s-.64,1.92-.04,4.08c.03-1.58-.12-1.44,.04-4.08Z"/><g><path class="cls-16" d="M86.62,141.14s1.19,1.52,1.82,1.77l.3-.44s.06,.58,1.09,.84c-.95-1.43-1.29-1.47-1.29-1.47l-.1,.54-1.82-1.23Z"/><path class="cls-16" d="M101.23,140.38s-1.31-.57-2.69,.52c.61,.03,1.03-.59,2.69-.52Z"/><path class="cls-16" d="M100.01,140.9s-.22,.63-1.6,.63c.75-.1,1.6-.63,1.6-.63Z"/><path class="cls-16" d="M103.37,138.31s.2,.91-1.51,1.27c.36-.54,.65-.31,1.51-1.27Z"/><path class="cls-16" d="M106.76,121.12s-.88,.92-.71,2.66c.47-.57,.71-2.66,.71-2.66Z"/><path class="cls-16" d="M107.27,123.08s-.76,.29-.9,2.07c.44-.64,.31-.97,.9-2.07Z"/><path class="cls-16" d="M107.61,124.23s.13,.88-.63,1.21c.29-.46,.51-1.06,.63-1.21Z"/><path class="cls-16" d="M111.59,103.99s.41,1.05-.1,1.7c.1-.57,.1-1.7,.1-1.7Z"/><path class="cls-16" d="M112.61,103.83s-.79,.36-.59,1.15c.21-.46,.2-.47,.59-1.15Z"/><path class="cls-16" d="M125.08,107.76c-.23-1.06-.95-1.95-.95-1.95,0,0,.87-.6-.45-2.03,.3-.41,.03-1.05-.87-1.69-.33-.86-.57-1.05-2.14-1.69-.53-1.01-.44-1.15-3-1.2-.31-.53-1.16-.76-3.04-.76-.83-.11-1.05-1.01-4.25,.76-.26-.53-1.47-.34-3.2,1.46-.48-.14-1.47,.68-2.67,2.56-.93,.98-1.24,1.38-1.61,4.05-.67,.76-.82,1.76-.75,3.23-.71,.49-.48,1.58-.3,2.19-.53,.34-.41,1.71,0,2.81-.65-.37-.37,1.57-.15,2.59-.08,1.17,.11,1.74,.45,2.71,.15,1.04,.03,1.46,.03,1.46-.22,.15,.11,1.18,.45,2.19l-.41,.03s.81,1.55,.86,2.56c-.67-.31-.84-.42-.71,2.25l-.56,.03-.19,1.95c-.75,0-.8,.38-1.13,1.77-.59,0-.68,.19-1.09,1.09-.71,.03-1.15,.64-1.2,1.09-.57-.03-.89-.21-1.99,1.02-1.13-.2-1.4-.14-2.19,0-.03-.57-.67-.69-1.01-.65-.34,.04-2.14,.68-2.14,.68,.26-.75,.07-1.05-.6-1.05s-2.14,.31-2.14,.31c.3-.79-.03-1.2-3.6-1.24-.42-2.67-1.16-5.91-3.38-9.51-2.22-3.6-2.94-5.23-3.27-5.71-.33-.48-1.8-.86-1.8-.86,0,0-.22-3.38-.22-3.54s5.25-2.29,5.52-3.23c.26-.94,.25-4.51-1.43-9.81,.79,.08,1.76,.3,2.41,1.09,.65,.79,1.09,.83,1.58,.15,.49-.68,.54-1.24,1.66-1.24s5.21-1.06,5.7-5c1.18-1.69,2.38-3.19,2.08-5.59,1.73-2.79,2.45-3.83,2.41-4.44-.04-.6-1.77-2.67-2.48-2.67-.52,0-.66,.08-.7,.13,.06-.12,.25-.59-.17-1.25-.48-.76-1.43-1.51-1.54-1.51,.82-1.47,5.59-9.63,3.26-10.94,.53-.26,.71-.45,.71-.45-2.02-.59-5.12-1.57-8.31-2.81,3.46-1.24,17.71-4.9,20.15-6.55-2.93-2.28-10.98-5.64-17.96-6.91,3.04-2.36,14.59-5.87,15.79-6.96-2.14-2.14-16.08-4.7-20.9-4.74,2.25-2.67,15.86-3.75,19.02-4.5-2.56-.49-14.06,.82-19.25,4.02-1.32-3.04-3.9-15.79-19.13-16.71,0,0-2.58-10.87-5.8-14.62C55.25,6.38,44.11-1.52,26.8,.26c2.51,4.28,9.22,9.49,11.79,26.54-1.85-1.98-13.44-17.92-23.45-16.86,3.82,.92,11.39,1.99,23.12,17.59-3.03-.79-10-3.1-15.8-1.78-5.8,1.32-16.66,5.38-22.46,13.29,10.34,2.77,17.84,3.61,27.72,10.67-3.68-.4-14.29-.12-23.58,5.87,7.12,1.78,20.48,5.66,24.43,8.03-2.24,.73-10.34,5-11.92,6.65,6.13-.26,10.35-.07,17.19,.73,1.12,1.38,1.71,3.82,8.29,4.02,.86,2.11,1.44,3.31,7.7,5.21v3.02c-.79-.4-3.35-2.15-5.42-2.34-.9,.26-3.54,3.82-4.36,3.98-1.32-.14-2.48-.15-3.65,.19-1.16,.34-8.69,4.59-9.36,5.04,.49,1.12,1.29,2.17,1.29,2.17-1.4,.68-2.25,1.5-2.67,3.94-1.66,.79-7.33,4.92-8.94,7.14-1.62,2.22-1.58,5.42-1.58,5.42-.9,.75-1.8,1.2-1.8,2.07s1.38,1.43,1.38,1.8,1.16,4.25,2.41,4.81c1.24,.56,5.31,1.77,5.31,1.77-.08,1.06,0,1.73,0,1.73,.82,.11,1.88-.15,1.88-.15,.26,.68,2.03,1.61,2.78,1.69,.41,.71,.87,1.51,1.43,1.51s1.91-.59,1.91-.59c.04,.78,.78,1.64,1.8,1.94,1.02,.31,1.85,.53,1.85,.53,0,0-2.41,1.85-4.1,8.09-1.43,5.19-1.88,7.11-1.88,7.41,.49,.52,2.59,.37,2.59,.37,0,0-1.88,2.66-2.97,9.05-.56,3.76-.76,4.54-1.05,4.84-.3,.31-1.62,.2-3.49,7.82-1.46,5.22-1.99,6.43-1.99,6.43,.34,1.2,4.12,5.94,6.83,8.2-.11,1.57-.41,2.97-.41,2.97,0,0-1.09,.04-1.09,1.16s.03,1.65,.03,1.65c0,0-1.04,.46-2.07,1.74-.19,.45-.23,.67-.49,.82-.48,.15-2.63,1.65-4.13,3.15-1.51,1.51-3.01,2.1-4.36,2.59-1.35,.49-5.38,2.82-5,4.89,.38,2.07,6.35,2.03,12.14,1.96,5.79-.08,16.13-1.84,17.48-3.23,1.35-1.4,1.27-3.62,2.52-7.9,1.24-4.29,3.61-8.34,3.65-8.6,1.16-.15,1.72-.89,2.59-2.44,.87-1.55,1.33-3.27,1.85-4.1,1.12-1.32,3.6-3.15,3.98-3.94,.37-1.29,1.43-14.95,1.32-17.33,.9,3.76,1.5,5.53,3.57,8.94,.37,5,1.12,13.04,1.83,14.39,1.05,1.32,6.22,2.66,6.81,3.42,.59,1.29,1.43,4.25,2.7,5.87,.19,1.61,.89,1.89,.93,2.48,.04,.67-.33,1.58,.57,2.14,.11,1.27-.24,4.59,.14,6.43,.38,1.83,1.57,2.33,9.66,2.63,8.09,.3,19.24,.53,19.92-.9,.68-1.43-1.98-5.34-5.07-6.61-3.09-1.27-6.76-3.42-7.59-4.1-.12-1.16,.11-1.36-1.58-2.56-.11-2.47-.37-3.01-.64-3.23,0-1.96-.12-2.63-.34-2.81,.03-1.69-.11-2.98-.11-2.98,0,0,1.9-3.03,1.83-3.56-.07-.53-.78-1.24-.78-1.24,0,0,2.59-4.13,2.63-5.98,.03-1.85-1.72-6.81-4.29-10.15-.75-4.05-2.13-9.73-2.36-10.45,.93-.07,1.94,1.05,2.81,.68,1.16,1.24,2.17,1.01,2.59,.82,.6,.53,1.69,.56,2.41,.26,.82,.3,1.62,.34,2.22,.15,1.24,.19,1.69-.26,1.96-.53,2.18-.03,2.37-.38,2.48-.94,1.68-.03,3.11-.26,3.11-1.27,1.32-.3,2.41-.93,2.3-1.73,.87-.53,1.72-.77,1.99-1.74,1.16-.9,1.47-1.87,1.02-2.1,.98-1.09,1.4-1.76,1.43-2.7-.31,.11-.6,.14-.6,.14,0,0,1.01-1.54,1.01-2.36-.33-.13-.39-.04-.4,0,.03-.07,.44-1.19,.4-1.84-.03-.67,.38-1.1,.38-1.51s-.45-.79,0-1.35c.45-.56,0-1.13,0-1.69s.31-1.49,.26-2.17c-.04-.68-.26-1.1-.23-1.66,.03-.56-.33-1.09-.37-1.91-.04-.82-.27-1.99-.31-2.78-.03-.79-1.01-2.51-.82-3.42,.23-.53,.49-1.05,.34-1.66,.11-.71,.14-1.65,1.65-3.31,1.51-1.66,3.42-1.44,5.19-1.13,1.77,.31,2.66,2.1,2.14,2.86-.52,.76-.67,1.69-.67,1.69,.15,0,.42-.11,.42-.11,0,0-.99,1.01-.84,1.69l.53,.08s-.75,.9-.45,1.8c.49,.15,.68,.08,.68,.08,0,0-.26,1.39,.64,2.1,.56,.9,.98,1.02,.98,1.02,0,0,1.76-.88,2.7-1.47,.94-.59,1.43-1.17,1.43-1.17,0,0,.53,.69,.64,.57,.45-.76,.56-1.74,.56-1.74,0,0,.68-.3,.68-1.27,.37-.26,.45-.79,.45-1.77,.26-.98,.08-2.1,.08-2.1,0,0,.65-.9,.42-1.96Zm-48.62,11.1c.98,.43,1.02,.92,3.72,5.39,3.67,5.01,5.12,14.95,4.8,15.49-.22,.21-2.86,.54-6.26,1.24,0,0-.65-12.47-1.13-15.16-.48-2.69-2.32-5.08-4.1-5.93,0,0,2.91,2.86,3.45,5.34,.54,2.48,1.41,13.44,1.02,18.18-1.74,.76-17.53,.54-19.64,1.3s-3.67,.11-5.77-.48c-.04-2.64,.45-7.67,.88-11.44,2.4,8.59,3.72,9.18,4.79,9.18-2.07-1.12-4.57-10.15-4.64-10.4,.18-1.5,.34-2.69,.44-3.25,.38,1.57,1.62,4.8,2.21,5.02-.43-.91-1.24-3.3-2.16-6.15-.05-.26,.92-9.67,.92-9.67,0,0,1.35,0,2.32,.55,2.26,6.54,2.86,17.96,2.7,22.66,2.87-2.8,5.07-3.13,5.07-3.13,0,0,.22,1.45,1.2,3.5,.7,0,2.26-1.56,2.75-2.65,.48-1.09,.48-1.62-.65-8.95-1.35-9.06-2.48-9.71-5.5-13.27,.71,.02,1.39,.05,2.05,.1,.51,.59,1.87,2.69,2.1,4.59,.29-2.71-.86-4.06-1.4-4.54,.48,.04,.95,.09,1.4,.14,.98,.97,5.21,5.69,6.54,16.17,.84-1.9-1.15-11-5.55-16.04,4.83,.67,7.72,1.89,8.47,2.22Zm-36.32-3.54c-.21,0-.87-.84-.87-.84,5-2.13,13.07-2.54,13.58-2.33,.5,.21,.79,.96,.49,1.37-.05,.05-.13,.11-.22,.19-.31,.03-.52,.4-.4,.42-.31,.35-.7,.84-1.18,1.55-1.42,0-6.12,1.09-9,1.88,.42-2.88-1.63-2.3-2.42-2.25Zm6.42,1.68c-3.03,3.52-3.06,13.4-2.32,12.87,.43-9.42,2.46-12.42,2.93-12.99,1.2-.23,2.5-.4,3.81-.44-6.75,5.88-7.66,22.72-8.09,27.26-2.15,.28-2.59,1.73-3.46,1.13-.87-.59,.16-19,.16-19,0,0,.37-.65,.59-1.41,1.41-.06,1.78-1.61,1.78-2.26,0,0,.76,.32,1.52-.48,1.09-1.24,.43-2.59-.81-3.46,.9-.41,2.28-.86,3.88-1.21Zm-1.68,15.57c.97-11.33,8.58-18.4,8.58-18.4,0,0,.24,.95,.61,1.83-4.19,6.63-6.53,16.11-5.52,17.01,.05-5.55,4.89-15.16,5.67-16.67,.05,.11,.11,.22,.17,.33,0,0-.11,2.26-.87,9.88-.76,7.61-1.73,17.37-1.94,21.2-.81-.22-2.8-1.24-3.34-2.15,0,0-2.59,0-4.86-.06-.06-.48,.26-3.83,1.51-12.95Zm30.75-15.98c0,.31,.01,.74,.01,1.35-4.86-1.4-10.14-2.11-13.38-2.22,0,0-.54-.6-1.31-1.4,2.14-.04,4.43,.46,5.26,.86-1.46-1.32-5.07-1.39-5.77-1.39-.39-.4-.82-.83-1.25-1.24,7.5-.59,14.9,1.51,16.19,2.1,.22,.25,.22,.89,.21,1.14-.4-.17-1.33-.48-2.64-.32,1.51,.27,2.43,.93,2.68,1.13Zm-15.26,23.21c.65-11.66-2.54-22.13-2.54-22.13,.14-.19,.27-.36,.39-.53,.56,.59,2.39,2.51,2.8,3.01,.48,.59,2.26,7.82,3.56,10.79-.16-2.05-2.59-10.14-3.23-11.01-.39-.59-2.45-2.74-2.85-3.16,1.16-1.53,1.29-1.65,1.06-3,.37,.48,4.05,3.78,6.05,6.86,1.63,3.19,2.8,11.93,3.13,16.62-1.51-1.63-5.67,.16-8.37,2.54Zm8.47-1.94s-1.35,2.38-2.37,2.65c-.76-2.26-.86-3.08-.86-3.08,0,0,1.88-1.03,3.23,.43Zm-9.62-22.86c-.12,.83-1.88,2.54-1.88,2.54,0,0-.7-.04-1-.49,0,0-.04-.5,.75-2,.79-1.5,.59-2.16-.03-3,0,0,.54-.21,1.29-.13,.46,.54,1,2.25,.88,3.09Zm-1.92-1.88s.31,1.09-.45,1.5c.33-.88,.45-1.5,.45-1.5Zm-.45,.58c-.37,.75-.55,2.63-1.04,3.42h-.92l-.24-4.63s-.25,.83-.21,2.63c-.83-.25-.67-2.04-.55-3,.08-.13,1.09-1.24,1.67-1.24s1.67,2.03,1.3,2.82Zm24.12-2.58c-.29,.79-5.63,3.13-5.63,3.13-2.09-.86-4.61-1.39-7.07-1.71,.72-.4,3.11-1.67,4.99-1.92-.24-.61-3.74,.51-5.74,1.83-.48-.05-.95-.1-1.42-.14,.47-.47,2.17-1.97,5.81-3.01-1.07-.17-5.57,1.43-6.51,2.96-2.84-.22-5.3-.21-6.44-.21-.96-1.25-.75-1.04-1.88-.37-1.25-1.91-2.37-.97-3.58,.21-.55-.03-1.23-.03-1.94-.02,.39-.39,3.15-3.02,8.2-5.44-1.62,.16-6.88,2.72-9.02,5.46-.85,.03-1.73,.09-2.51,.19,.6-.6,3.93-3.96,5.32-5.4,1.14-1.18,2.31-2.49,2.84-3.09,.29-.3,2.06-2.16,3.7-3.91,.12-.12,.25-.58,1.76-3.71,1.51-3.13,6.21-15,6.08-16.03-.16-.03-.66,1.41-.91,1.91,0,0-.3-.12-1.37-.5,.42-.39,2-1.82,2.42-1.82,.16,0,1.95,1,3.08,1.82-.27,.75-1.94,5.3-6.08,13.18,.36-.04,5.77-10.14,6.45-13.02,.93-.23,4.18-2.15,6.21-3.02-1.42,1.51-5.49,7.91-5.79,9.08-.3,1.16-.12,4.3,.75,7.55,.87,3.25,3.17,4.61,6.67,6,0,.03,.01,.05,.02,.07-6.53-.1-7.28-.57-7.69-2.91-.42-2.37-1.41-5.75-1.96-6.29,0,0,.96,2.97,.96,4.76-.34-.87-1.54-2.42-2.03-2.3,2.25,2.91,2.49,5.42,3.16,6.12,.67,.7,4.33,1.09,7.21,1.18-.79,1.3-3.46,3.08-4.92,4.21,1.59-.07,4.7-3.18,5.49-3.98,1.53,5.63,1.66,8.43,1.39,9.18Zm-24.62-8.21s-1.15-.87-2.67-2.05c.61-.27,3.49-1.49,6.08-1.6-.82,1.01-3.4,3.65-3.4,3.65Zm18.68-34.24c-.26,.73-.56,1.26-.88,1.66-.38-.25-.9-.67-1.14-.86,.22-.74,.44-1.52,.65-2.27,.36,.62,1.08,1.25,1.37,1.48Zm-1.2-2.07c.1-.35,.2-.7,.29-1.03,.91,.43,1.29,1.63,1.1,2.49-.03,.1-.06,.2-.09,.29-.46-.28-1.07-1.34-1.3-1.75Zm-.06,4.15c-.55,.5-1.06,.63-1.33,.67,.15-.51,.31-1.06,.48-1.64,.21,.32,.63,.76,.84,.98Zm1.96-.5s-.51,.32-1.36,.63c0,0,.27-.31,1.09-2.46,.8-2.12-1.14-3.27-1.2-3.3,.14-.51,.27-.97,.39-1.38,.2-.21,.4-.42,.58-.6,0,1.76,1.41,2.36,2.27,2.24-2.01-.76-1.96-2.46-1.96-2.56,.51-.51,.92-.9,1.25-1.19,2.17,0,2.06,2.91,1.69,4.62,1.64-3.65-.63-4.77-1.22-5,.87-.65,1.05-.35,1.46-.05-.27-2.12-3.1,1.02-3.89,1.94,.17-.6,.27-.96,.27-.96,.63-2.03,2.42-3.67,3.2-3.44,2.49,.58,2.58,5.58,2.34,7.11-.24,1.53-1.44,2.85-4.05,5.43-2.61,2.58-3.75,2.69-4.88,2.54,.12-.28,.34-.99,.63-1.92,2.05-.08,3.43-1.64,3.43-1.64Zm-7.02-17.83l1.21,.47c.04-.23,.78-1.99,.78-1.99l.46,.26c0,.35-.93,1.37-.97,2.26,.2,0,.89-1.75,1.21-1.95,0,0-.4,1.59-.58,2.38,0,0,1.01-1.6,.93-2.19,0-.15-.78-.98-1.68-1.68,0,0,.63-1.21,1.44-3.52,0,0,1.45,3.94,2.11,7.22,0,0-1.05,1.8-3.27,5.31-.63-3.75-4.02-3.66-4.02-3.66,.2-.31,2.38-2.93,2.38-2.93Zm-1.56-2.07c0-3.04,.08-4.96,.08-4.96l1.32,2.69c-.54,.98-1.4,2.26-1.4,2.26Zm6.99,3.54c1.75-.08,1.97-.15,1.97-.15,0,0-3.33,4.78-4.09,5.46l-1.21,.14s3.41-4.77,3.33-5.45Zm9.14,32.83c.32,.67,.83,.96,1.51,.88,.47-.15,.84-.8,1.11-1.52,.27-.71,.64-.79,.76-.59,.36,2.1-.4,2.34-.4,2.34-1.71,1.07-3.1-.08-3.54-.27-.44-.2-1.31-.47-2.93-.47-1.43-1.19-1.52-2.11-.76-3.1,.76-.99,1.99-1.11,2.82-.83,.83,.28,2.74,.44,2.89,1.07,.08,.63-.59,1.32-1.46,2.51Zm1.7-2.26c.68-.08,1.03,.71,1.03,.71,0,0-.43,1.56-1.19,1.91-.84,.15-1.08-.32-1.08-.32,.47-.64,1.23-1.59,1.23-2.31Zm1.03,6s-1.27,1.82-2.7,3.05c.8,.96,2.62,.67,2.98,1.43-1.31,.16-3.68,.6-5.39-1.5,.71-.04,1.24,.32,1.35,.2-.2-.59-1.24-.91-1.83-1.03-.59-.12-1.35-.15-1.63-.79-.28-.64-1.78-3.43-.28-5.21,.44,.48,.21,1.16,3.54,1.12,.11,.28-1.32,.79-2.63,.79,1.63,.15,2.78,.04,3.3-.2,.91,0,2.62,.82,2.5,1.9-.36,1.08-2.58,2.86-2.58,2.98,.83-.2,2.3-1.7,3.37-2.74Zm4.92,2.02s-.91,2.3-3.1,2.14c-2.19-.15-3.68-.88-4.04-1.11,.75-.67,2.34-2.66,2.54-3.18,.99,0,1.27,.12,1.27,.12,0,0-.68,2.97,3.33,2.02Zm-9.69-10.01c0-.32-.79-3.77-1.63-7.26-.84-3.49-.91-5.24,.47-5.56,1.38-.32,2.31,.24,2.9,2.82,.59,2.58,2.31,9.6,2.31,9.6-1.99,1.4-3.86,.71-4.05,.4Zm-.59-13.5l1.28-1.13s3.34,.37,4.1,1.66c-1.67-.22-5.38-.53-5.38-.53Zm-5.39,4c2.04-.45,3.25-.41,3.25-.41,0,0,.89,3.88,1.55,6.58-1.09-.46-2.09-1.22-2.71-1.13-.63,.09-5.46,2.75-5.83,2.96-1.42-.87-3.11-2.08-3.45-2.08s-2.91,2.45-3.04,2.49c-.67,.09-1.09,.09-1.09,.09l-.12-1.54s6.75-3.3,7.58-5.67c1.7,.16,3.06-.71,3.87-1.3Zm5.47,9.11c-1.91-1.43-3.89-.79-4.8-.23,.27-.79,1.59-3.14,2.74-2.82,1.94,.32,2.06,3.05,2.06,3.05Zm4.49,19.06c-.16-.03-1.19,.56-1.43,1.15-.24,.59-.47,1.03-1.87-.52-.88-.52-2.07,.12-6.08-4.8-.24,.23,1.03,2.19,1.03,2.19-1-.29-2.63-.89-3.46-2.99-.83-2.1-1.23-6.14-1.23-7.22s.87-3.02,2.14-4.97c1.27-1.94,3.61-3.29,5.92-1.35-1.11,.79-1.58,1.03-1.94,1.82-.91,.52-3.78,2.25-4.25,5.83-.47,3.58,1.03,5.01,1.03,5.01-.44-1.94-.83-3.74-.39-5.88,.44-2.14,2.73-4.3,3.49-4.25,.08,.64,.08,1.03,.08,1.03,0,0-1.82,.8-1.7,4.81,.12,4.01,2.54,7.22,7.06,7.86,4.53,.64,5.72-.52,6.83-1.43,0,0-.2,3.41-5.24,3.69Zm-.12-2.38c-4.89-.15-9.81-5.01-7.63-10.21,.35,2.03,.7,6.72,5.83,8.63,1.43,.39,3.45,.52,3.89-.4-1.14,.4-5.76,1.03-8.22-4.01,.64,.03,1.39,1.1,1.91,1.46,.52,.36,3.25,1.99,6.94,.88,.68,.12,2.38,.26,3.61-2.94,.64,.04,1.43-.63,1.43-.63,0,0-.55,6.58-7.78,7.22Zm9.45-13.1c.68,.75,.92,1.35-.35,3.3-1.27,1.95-1.12,2.7-3.38,2.98-2.26,.28-2.43,.16-2.66-.52-.23-.68-.32-1.31,.52-1.63,.79,.63,1.68,1.23,2.23,1.23,0,0-1.79-1.15-1.79-1.39,.76-.47,1.44-.95,3.14-4.68,.75-.92,1.62-.03,2.3,.71Zm-3.65-3.81c1.59,1,1.43,1.55,.59,3.49-.84,1.94-2.34,3.69-2.46,3.77-2.34,1.63-3.07,.88-3.86-.28,.52,0,1.63-.44,1.63-.44,0,0,.36,.59,1.08,.71-.15-.32-1.08-.83-.91-1.23,.28,.32,1.75,.76,1.75,.76,0,0-.59-.48-1.63-1.03,0-.67,.11-1.83-.32-2.55,1.75-3.3,3.37-3.89,4.13-3.21Zm2.69-11.4c2.34,.79-1.26,7.47-3.09,10.6-1.7,.12-3.14,2.15-4.02,3.66-.71-.99-2.62-1.5-2.62-1.5,0,0,1.63-.29,1.75-.8,.12-.52,.99-2.42,3.05-6.03,2.07-3.61,3.58-6.56,4.92-5.92Zm-2.37,.64s-3.5,5.56-5.48,9.81c-.83-1.78-2.14-8.66-2.14-8.66,0,0,3.85-.59,7.62-1.15Zm10.03-11.43c-4.09,0-19.02-.54-20.15-.91,1.37-1.81,3.42-2.96,3.42-2.96,0,0,11.43,1.67,16.73,3.87Zm-1.97-13.56c-5.6-.15-20.91,2.35-20.91,2.35,.15-.9,3.26-4.47,3.26-4.47,0,0,11.66,.37,17.64,2.12Zm-34.39-19.47c8.33,.6,14.24,9.24,14.32,12.43-5.99-9.39-15.15-10.99-15.15-10.99,0,0,.31-.76,.84-1.44Zm-4.01,8.94s-5.23,7.65-7.43,14.69c-.37-5,1.89-12.13,2.12-12.35,.23-.22,3.79-2.26,5.31-2.34Zm-3.79-3.03c-.53,.83-2.12,.68-2.12,.68-1.89-5.08-3.56-11.75-3.56-11.75,0,0,5,7.35,5.68,11.06Zm-5.37,25.12s-3.49-4.25-4.79-5.93c.34-3.47,3.4-9.14,5.89-11.36-1.01,3.59-1.92,9.37-1.1,17.29Zm-5.46-12.39c-.53-2.51,.6-6.21,.6-6.21,0,0,1.75-1.75,3.03-1.9,0,0-1.67,1.67-3.64,8.11ZM32.18,2.67c13.49,10.45,16.66,29.32,16.66,29.32-.99,.46-5.14,.14-6.81-2.74-2.12-13.79-5.83-20.6-9.84-26.59ZM5.67,37.68c6.44-3.79,13.94-6.45,18.63-6.14,4.69,.31,13.17,3.48,13.17,3.48,0,0-2.34,1.45-4.09,5.46-5.91-1.82-14.99-4.24-27.72-2.8Zm30.29,16.44l-2.34-2.74s1.05-5.98,2.57-6.89c0,0-1.3,5.38-.23,9.62Zm-12.92,13.91c1.45-1.71,7.05-3.7,7.49-3.55,.27,.63,.63,1.41,.63,1.41,0,0-6.33,1.44-8.12,2.14Zm-11.39-13.91c3.71-1.59,15.14-2.58,17.8-2.35,0,0,2.27,3.25,2.27,4.24-2.2-.31-12.5-2.03-20.07-1.89Zm25.52,19.53c-2.54-.97-4.99-8.16-5.31-10.15-.32-1.99,.67-3.27,1.64-3.24,3.7,1.6,5.93,5.86,5.93,5.86,.04,.1,.09,.21,.13,.31-.26-.09-.87-.38-1.88-1.24-1.37-1.18-2.77-2.97-3.32-2.97s-.98,1.01-.98,1.01c.58-.55,1.05-.58,1.05-.58,0,0,.15,.16,.4,.41-1.37,1.44,.02,5.65,.85,6.11-1.47-3.82-.9-5.44-.64-5.9,.53,.52,1.34,1.3,2.23,2.02,0,0-.02,0-.02-.01,.47,1.25-.12,2.06-.7,2.61,1.34-.32,1.25-1.77,1.19-2.24,.51,.39,1.04,.75,1.54,1.01-.57,.16-2.9,1.11-.27,5.52-.51-.09-1.6-.91-1.83-.95,.27,.74,2.26,1.91,4.66,1.73,.14,.6,.23,1.14,.26,1.56-.15,.08-2.38,.11-4.92-.86Zm2.23-1.73c-.55-.55-.7-1.76-.7-1.99,.59,.31,1.73,.16,2.14-.26,.12,.35,.24,.69,.34,1.02l-1.79,1.23Zm1.93-.77c.15,.48,.28,.94,.39,1.37-.38-.08-1.47-.28-1.82-.28-.13-.1,1.03-.84,1.43-1.09Zm-2.4-1.57c-1.07-.35-.73-2.32,.86-2.64,.32,.76,.62,1.53,.89,2.28-.27,.21-.92,.63-1.75,.36Zm10.35,9.95c-6.55-2.26-6.13-3.5-7.23-7.25-1.1-4.18-2.36-6.48-3.22-7.85,.43-.48,1.78-2.88,1.78-2.88-.57,.75-1.75,2.08-2.06,2.44-.09-.14-.17-.27-.25-.38,.45-.61,1.73-3.22,1.73-3.22-.55,.84-1.7,2.33-2.02,2.74-.03-.06-.06-.12-.09-.17,.27-.63,1.16-2.46,1.91-3.21,0,0-2.02-1.95-2.25-2.88,.92,.75,2.59,1.79,5.19,2.59-.18,4.38,.98,6.8,2.2,8.18,1.15-.23,2.93-.41,3.91-.64-.58-.05-1.96,0-3.8,.23-2.25-2.77-1.96-7.72-1.96-7.72,0,0,.06,.18,.69,.41,0,0,0-.41-.46-.87,0-.69,1.55-2.65,3.63-2.65s3.87,2.93,4.26,3.16c-1.36-2.69-2.89-3.57-4.27-3.56-.05-.13-.26-.11-.31,.02-1.83,.18-3.33,1.84-3.72,2.74-.41-.11-4.21-5.08-4.03-6.63,.81-6.11,5.7-10.26,5.7-10.26,0,0-.3,4.37,.33,8.67-1.58-.1-2.83,.6-3.66,1.28,.14,.41,.6,1.79,.89,2.28,.89-.55,1.89-.94,3.16-1.1,.41,1.43,1.08,2.62,1.32,3.01,.1-.01,.21-.02,.31-.02-.09-.37-.28-1.35-.19-2.18,.86,.2,4.8,4.37,6.01,5.9,0,0-.15-.63-.63-1.57,5.81-7.58,13.67-15.69,13.67-15.69-1.41,5.34-5.82,12.46-7.26,15.11,4.02-4.65,6.48-11.71,7.65-14.86,0,0,.4,.74,.47,7.17-3.79,.74-6.13,6.68-6.28,8.39,3.24-5.7,5.74-5.54,5.74-5.54l-.31,2.65c-2.11,.08-3.99,2.26-3.67,3.04,1.05-1.53,2.57-3.2,5.58-2.3,3.01,.9,2.07,6.94,1.33,9.71-1.29-.08-5.35,.24-5.93,.75,2.93-.55,4.68-.4,6.09-.35,.75-.47,1.16-5.43,1.16-6.59,.35-.08,1.96-.27,3.91-.47l-.9,1.36s.78,.12,1.36,.98c-.02,.08-.06,.25-.11,.47-.48-.52-1.6-.94-1.6-.94,.85,.71,1.28,1.18,1.48,1.43-.63,2.52-2.31,8.95-3.24,10.96-1.1,2.38-2.89,3.32-7.8,6.2-4.91,2.88-7.66,2.19-14.21-.08Zm.91,4.5s.04-2.21,.04-3.63c0,0,4.7,1.54,7.12,1.54s6.16-1.91,6.16-1.91c0,0-.08,.49,.04,2.21,.58-.67,2.3-.63,3.21-.16-.02,.32-.24,1.04-.59,2.01-1.53,.12-5.14,1.19-6.11,1.82-.16,.13,.33-1.76,.29-2.55-.51,.54-.63,2-.7,2.37,0,0-.96,.34-1.76,1.55s-1.33,1.16-2.45,.66c.21,.7,1.29,1.21,1.87,.76,1.48-3.09,7.65-3.98,8.68-4.11-1.55,4.14-4.97,11.83-5.9,14.07-.7,.02-4,.2-6.74,1.93-2.8-2.19-6.62-5.27-7.12-6.18-.48-.74-.77-4.14-1.08-6.79,5.96-2.22,8.59-.74,9.92-.07-1.04-.71-1.8-5.46-1.8-5.46-.16,.79-.21,1.7,.58,4.42-3.15-1.22-7.81,.02-8.8,.32-.06-.48-.13-.91-.19-1.28,1.51-1.09,4.87-2.08,4.87-2.08l.46,.58Zm-22.53,6.33s5.79-3.24,8-4.33c2.21-1.09,3.49-.58,4.58-.63,.63-.04,3.33-3.42,4.21-4.04,.71,0,2.7,.84,4.42,1.92,0,0-2.09,.45-4,1.58-.87-2.33-.3-2.34,.04-2.54,0,0-.76-.38-.84,.45-.03,.79,1,8.54,1.58,11.92,1.15,1.88,7.7,6.47,10.35,8.62-.45,.48-1.24,1.3-2.18,2.26-.98-.36-5.29-1.95-7.93-3.39,.52,.88,6.26,3.19,7.6,3.72-2.52,2.55-5.82,5.84-6.25,6.27-.8-.14-4.96-2.29-6.01-2.2-1.08,.09-2.54,.83-3.09,1.51,.83,0,2.34-1.18,3.04-1.18,1,.03,3.79,1.25,4.83,2-1.12,.03-5.33,1.21-7.04,1.88-.88-.12-2.91-1.21-5.28-3-.45-8.29,4.42-15.67,5.42-17.46-.82,.37-2.55,3.79-3.38,5.55,.08-3.21,2.38-6.37,3.58-8.13-3.88,3.63-4.2,7.37-4.54,9.55-1.51-1-5.66-8.34-7.12-10.34Zm5.54,20.8c.41,.76,3.44,2.53,3.44,2.53l-1.47,.51c-.1-.8-.24-1.53-1.66-1.16-1.01-.86-2.42-1.41-2.47-1.66-.1-.56-.46-1.31-2.27-.76,.76-1.21,2.93-2.16,4.24-4.34l.66-.6s-.87,4.73-.46,5.49Zm-10.8,7.68c-3.08-1.11-5.24-1.73-5.65-2.33-.41-.6-1.16-3.27-1.62-3.68h.91s-2.44-1.21-2.08-2.22c.36-1.01,1.57-1.11,1.57-1.97s.05-3.44,2.63-6.11c2.57-2.67,7.21-5.45,7.36-5.6-.55,1.26-.3,2.18-.3,2.18,0,0,.86-2.38,1.11-3.79,.25-1.41,2.26-2.57,2.26-2.57,0,0,3.65,6.36,6.16,8.58-.41,1.01-.9,3.29-.86,3.58,0,0-1.36,.41-1.87,1.61-.91,1.11-3.68,3.59-3.83,3.64-1.47-1.67-3.69-4.04-5.05-4.14-1.36-.1-4.04,.91-4.59,1.52,2.68-1.07,4.34-1.16,5.35-.81,1.01,.35,4.3,4.04,4.3,4.04-.62,.8-3.65,3.19-5.81,8.08Zm5.12,3.21c-1.86-.04-2.76-1.3-3.27-1.73-.25-.09-1.16,.04-1.43,.13-.04-4.53,6.17-9.71,7-9.76,.82-.04,.77,.9,.77,.9,1.51,.43,1.99,1.43,2.72,1.9,.91-.69,1.9-.12,1.59,.91-1.9,1.25-5.39,7.21-5.44,8.33,0,0,.69-.18,.87,.22-2.2,1.38-2.64,.18-2.81-.91Zm5.36,2.86c-2.33-.25-1.9-2.12-2.5-2.68-.04-.18,.13-1.25,1.34-3.24,2.38-4.83,5.31-5.35,6.04-4.97,.74,.38,1.59,1.04,2.15,1.69,0,0,1.08-.26,1.77,.12,.77,.64,.44,2.08,.44,2.08-.47,0-1.47-.34-2.64-.94,.47,.82,4.01,2.15,4.14,2.85,.13,.69,.09,1.51-1.12,1.68-1.21,.18-1.56,.6-1.56,.6h.44s.43,.18,.13,.96c-.3,.78-1.65,1.25-2.59,1.16,0,0,.47,.34,.81,.21-.44,1.55-1.21,1.9-2.37,1.99-1.17,.09-2.67-.99-4.48-1.51Zm-4.05,16.13c2.43-11.77,5.66-14.94,5.66-14.94,2.58,1.74,3.57,.91,4.43,.37-.06,.87-.43,12.84-.43,15.81-.48-.05-6.53-.87-9.66-1.24Zm-7.15,28.77c1.04-2.97,2.44-7.45,2.97-9.46,.46-1.75,.92-3.4,2.11-4.12,.22,1.16-.64,2.52-.6,3.21,.04,.73,1.3,8.84,3.1,11.73,1.62,2.6,6.94,5.23,7.98,5.73-1.42,1.19-2.63,1.94-4.37,2.11-1.57,.68-2.13,1-2.25,1-1.2-1.04-8.1-7.83-8.94-10.2Zm3.45,18.02c.64-.04,2.57,.92,2.57,.92l-2.81,2.48c-2.29-1-2.53-1.24-2.53-1.24,0,0,2.33-2.12,2.77-2.16Zm-6.7,4.61c1.04-.73,1.89-1.71,3.93-1,2.04,.71,3.25,1.6,3.25,1.6,0,0-2.04-.41-4.93,.88-3.54,1.04-5.47,1.12-6.67,1.12,2.33-1,3.37-1.88,4.42-2.6Zm7.87,6.02c-9.95,.88-14.12,.07-15.08-1.13-.29-.36,.2-.64,.2-.64,1.48,.48,5.97,1.88,13.07,.88,7.11-1,4.37-1.24,8.35-1.6,3.98-.36,7.19-.64,7.19-.64,0,0-3.77,2.25-13.72,3.13Zm17.87-15.74c-4.88,.56-10.66,.12-13.81-.39,3.7,1.56,12.11,.96,13.69,.83-.35,1.26-1.29,2.65-1.58,3.22,0,.03-.01,.06-.02,.09-1.39,.25-8.84,1.36-14.1-1.93-.24,.64,6.39,3.99,13.98,2.38-.33,1.21-.79,2.4-.79,2.4-.64-.8-1-.8-1-.8,0,0-10.5,1.09-15.36-2.65,.32-.76,1.53-1.64,1.85-1.8,.03-1.11-.3-2.23,.4-2.49,3.52,3.58,11.55,4.12,11.75,3.69-6.76-.59-10.29-3.06-11.12-3.72,.24-2.21,.45-3.17,.45-3.17,1.12,1.29,1.87,1.89,2.2,1.89,.41,0,1.65-.68,2.21-.68,.39,.28,.58,.43,1.27,.5,.5,.7,1.88,1.73,3.83,1.87,2.16,.15,4.98-.2,5.3-.96-.8,.36-3.13,.59-5.01,.59-1.69,0-3.19-1.22-3.48-1.47,.5,.01,1.17,0,2.11-.02,.6-.36,.48-.33,1.77-.12,1.29,.21,3.54-.59,6.87-.4,0,0-1.12,2.46-1.39,3.16Zm11.26-28.44c-.2,3.98-1.04,12.65-.97,14.21,0,0-1.16,1.32-2.85,2.6-1.68,1.29-6.05,4.69-6.34,5.42,1.8-1.12,4.3-2.97,4.98-3.53,0,0-1.89,5.45-4.05,5.93-2.16,.48-4.24,.18-4.57,.33-.4,.25-1.65,.59-3.52,.07,.69-.59,3.88-3.27,6.79-4.97-.87,.14-6.28,3.32-7.33,4.8-.56,.24-.86,.63-1.33,.66-.51,.03-1.76,.3-2.98-.52,.34,0,1.59-.05,2.51-.76,1.08-.82,8.7-6.84,9.97-8.66,1.26-1.81,2.1-5.65,5.05-9.11,2.25-3.05,3.07-5.66,3.22-6.21,.64-.78,1.2-1.49,1.54-2-.05,.54-.09,1.11-.13,1.73Zm.23-2.67c-1.5,1.73-10.22,11.82-10.72,13.1,0,0,4.37-4.33,5.49-5.81,.53-.71,1.67-2.04,2.77-3.36-.6,1.38-1.79,3.55-3.42,5.84-1.96,2.75-3.25,5.75-3.54,6.65-.29,.9-.58,1.78-5.13,5.53-.21,.18-.42,.35-.62,.52-.6-.16-2.68-1.3-6.88-9.22,0,0,3.03,8.62,6.43,9.61-.93,.8-1.72,1.52-2.43,2.14-1.56-.51-6.55-4.05-7.54-5.2-1.04-1.22-3.11-9.17-3.36-10.69-.25-1.52,.36-2.16,.61-2.92,.19-.57,.09-1.46,.03-1.86,.75-3.28,1.16-10.25,3.95-14.07,1.16,.09,2.36,.19,3.44,.3-1.21,2.45-1.89,11.05-.75,12.05-.63-4.66,.83-11.11,1.05-12.02,1.8,.2,3.23,.44,3.52,.76,.15,1.71,.1,2.67,1.38,2.32-.08,.94-.59,4.65-1,6.02,.88-1.24,1.32-5.35,1.39-6.15,.05-.02,.1-.04,.16-.06,1.85-.77,2.42-.81,2.42-.81,0,0,.03,1.6,.03,1.85,2.57,.16,5.22,.16,5.22,.16,2.24,1.89,3.72,2.16,3.72,2.16,.53-1.56,.45-3.93,.45-3.93,2.32,1.01,4.45,1.09,4.45,1.09-.36,1.84-.84,3.58-1.14,6.03Zm46.17,44.74s-1.22,1.63-9.94,1.15c-8.72-.47-15.46-.75-16.72-.85-1.26-.1-2.21-1.46-2.15-1.99,.42-.69,8.79,1.16,12.89,1.63,4.1,.47,11.83,1.16,15.93,.05Zm-2.11-1.68s-3.85-2.48-8.83-2.37c-.06-.89,.32-1.05,.32-1.05,0,0-1.42-.06-3.21,1,1.68-1.83,2.63-2.68,3.63-2.68s8.4,3.69,8.1,5.11Zm-9.67-6.42s-2.36,2.05-2.68,2.21c-1.47-1.11-2.69-2.11-2.69-2.11,0,0,3.27-1.04,3.9-1.16,.63-.11,1.47,1.06,1.47,1.06Zm-2.85-7.47s.37,1.47-.06,2.21c-.43,.42-4.46,.79-5.99,1.68,1.95,0,4.04-1.36,6.15-1.21,0,0,1.21,1,1.63,1.79,.42,.79-.42,1.05-1.74,1.26,0,0,.53-.26,.32-.74-3.79,2.05-10.36,2.84-13.1,2.74-2.74-.1-1.95-1.69-1.95-1.69,4.36,.36,7.57-.04,8.94-.63,1.37-.58,3.99-.73,4.72-1.74,0,0-3.04,.74-4.72,1.42-1.68,.68-3.64,.58-3.64,.58,0,0,.06-.32,.43-.85-.36,.15-1.47,.94-2.05,1l.79-1.15s-.85,.53-1.37,.94c-.69-.05-2.1,.11-2.72,0-.63-.11-1.17-1.63-1.17-1.63,0,0,1.74,.42,7.32-.79,5.58-1.21,7.04-2.83,8.2-3.21Zm-.29-.34s-5.57,4.25-15.24,3.77c-1.41-2.29-1.6-2.92-1.6-2.92,2.29,.64,8.19,2.68,12.76,.03-2.53,.73-4.28,1.8-12.76-.44-.92-1.32-1.13-2.65-1.13-2.65,1.72,.89,3.89,2.36,10.27,.32,2.41,.41,3.53,.77,3.53,.77-.4,.4-3.16,1.17-3.48,1.41,1.36-.04,6.19-1.69,7.5-2.69,.27,.68,.19,1.97,.15,2.41Zm-3.33-1.44c.92-1.33,2.64-3.14,2.97-3.78v2.37c-.52,.36-1.97,1.33-2.97,1.41Zm6.5-15.39c0,1.93-3.05,7.37-6.32,10.28-1.01-.31-2.73-.91-4.61-1.59,.8-.9,5.01-5.75,6.39-9.23,1.44-3.63,2.06-4.33,1.26-7.56,1.43,2.11,3.28,6.44,3.28,8.1Zm-3.94-8.94s0,0,0,0c.16,.87,.58,3.4,.29,4.74-.22,1.04-1.29,3.69-3.42,6.85,.73-8.87-1.33-11.98-1.33-11.98,1.21,5.68,1.07,10.78,.97,12.49-1.17,1.67-2.62,3.46-4.4,5.22-3.23-1.17-6.65-2.45-7.59-2.84-2.27-2.71-11.32-14.72-12.45-17.19-.34,1.68,1.83,5.69,3.16,7.71-.75-1.98-1.83-3.96-1.83-4.6,2.18,3.06,9.39,13.79,10.88,14.48,1.48,.69,12.2,4.59,13.18,4.69,1.19,0,2.57-.93,2.57-.93-.89,.2-1.33,.44-1.33,.44,0,0,2.43-2.33,2.77-3.36,.58-.1,.74,.49,.74,.49,0,0-.41,2.03-5.34,8.01-1.84-.42-2.65-.63-3.36-.78,.02-.02-.23-.05-.23-.05,0,0-7.42-1.6-10.09-2,3.43,.93,7.24,1.69,8.67,2.06-.82,.62-3.59,1.61-6.65,.61-3.46-1.13-6.91-2.87-8.39-3.4-1.48-.54-1.53-1.92-1.88-4.1-.31-1.9-.76-8.05-.93-10.11,1.05,2.03,5.62,10.56,7.45,13.81-.72-2.97-6.64-13.1-7.69-14.89-.89-1.92-4.27-7.74-3.3-11.43,.91,.91,5.39,5.4,7.74,8.62,2.63,3.6,4.14,4.84,4.99,4.55-1.09,0-2.97-2.87-6.13-6.82-2.69-3.37-5.67-6.15-6.49-6.91,.38-2.04,.41-2.48,.41-2.48,0,0,4-1.09,9.44-.99,4.57,.08,8.89-.21,10.95-.55,.97,2.41,1.31,8.35,1.6,9.98,.22-4.37-.72-9.21-.9-10.12,.08-.02,.15-.04,.21-.05,.35-.99,.1-2.27,.1-2.27,0,0,.71-.32,1.64-.59,.21,.55,.92,2.52,1.17,4.25,.2-2.22-.33-3.89-.52-4.42,.67-.15,1.38-.25,2-.18,.69,2.67,3.32,14.03,3.32,14.03Zm38.44-45.6c-.55-.32-.88-.69-.88-.69,.6,1.21,.88,2,.88,2.88-.38-.58-.51-.77-.54-.82,.09,.13,.65,1.07,.22,2.66-.32-.93-.4-1.19-.41-1.27,.04,.21,.26,1.62-.38,2.52-.09-1.02-.14-1.21-.14-1.21,0,0,.1,1.58-.55,2.65l-.33-1.25s-.36,1.86-1.43,2.13l.04-.75s-.32,1.39-1.71,1.71l-.19-.78s-.18,1.43-1.11,1.43c-.14-1.34-.29-2.22-.29-2.22-.36,.98-.65,.92-.65,.92,0,0-.45-1.01,.29-2.26-.6,.42-.74,.42-1.07,.42,.19-.88,.92-1.68,.97-2.23-.65,.56-1.02,.33-1.02,.33,.89-1.16,1.71-1.86,1.71-2.27-.69,.42-1.24,.7-1.24,.7,0,0,.88-1.25,1.11-2.09,.23-.83-.5-1.25-.46-1.63-.56,.23-.6-1.66-1.4-2.49,.28,.92,.65,2.22,.42,2.45-.6-.37-1.58-2.13-2.55-2.55,.52,.83,.6,1.53,.6,1.53,0,0-.23,.42-1.48-.69-.09,.42-.09,.74-.09,.74,0,0-.89,0-1.63-.65l-.19,.65h-1.9l.93,.65s.06,.32-1.53,.42c.32,.6,.18,.75,.18,.75,0,0-1.1,.28-1.24,.37l1.11,.04s-.42,.87-1.3,1.15c.42,.46,.51,.75-.33,2.04,.56,.19,.83,.18-.27,2.03,.6-.23,1.02,.01,.19,2.27l.74-.69s.37,.97-.23,2.41l.75-.88s.32,.49-.29,2.49c.65-.09,.66,.79,.56,1.63,.37,.74,.42,1.81,.42,2.51s-.65,1.37-1.07,1.85c.88-.04,.82,.8,.55,1.77,.29,1.01-.05,1.84-.23,2.45-.23,.74-.32,1.99-.32,1.99,.79,.37-.38,1.47-.52,1.95,.19,.56,.46,.85-.69,2.46-.19,1.07-.29,1.56-1.25,2.26-.74,.89-.82,1.49-2.68,1.58,.19,.37,.69,.42,.69,.42,0,0-.19,1.44-3.43,1.25,.6,.46,1.11,.55,1.11,.55-.09,.42-1.35,.79-4.03,.56,.47,.55,1.02,.55,1.02,.55,0,0-.87,.8-3.33,.06-.06,.36,.78,.69,.78,.69-.69,.42-2.26-.2-3.28-.52,1.02,.56,1.39,.69,1.25,.79-.14,.1-2.03-.03-3.2-.97,0,.51,1.02,.92,1.02,.92-.7,.23-2.09-.19-2.92-1.25,.51,.75,.65,.88,.65,.88-1.07,.14-.7-.03-2.97-1.2l.29,.51s-1.3-.32-2.09-1.99c.04,.83-.42,1.15-.42,1.15-.42-2.22-.52-2.22-.52-2.22,0,0,1.9,.19,2.32-.6,.04-1.3-.92-5.33-.92-5.33,0,0,3.57,0,3.15,.6-.42,.19-.98,.28-.98,.28,1.02,.33,2.41,.27,3.7,.04,.1,.52-1.24,.93-1.24,.93,1.94,.55,3.93-.85,4.12-.1-.37,.33-1.44,.69-1.44,.69,1.44-.23,3.61-.83,3.8-.46-.65,.37-1.63,.88-1.63,.88,1.07-.23,2.45-.65,2.82-1.3,.37-.65,1.54-1.07,.52,.19,.79-.28,1.63-1.89,1.86-1.85,.13,.5,.13,.97,.13,.97,.19,0,.24-1.94,.98-1.94,.13,.42-.06,1.21-.06,1.21,0,0,.42-.66,.6-1.81,.19-1.15,.79-1.58,.75-.65,.23-1.53,0-2.23,.46-2.74,.19,.19,.37,.98,.37,.98,.09-1.94-.22-3.25,.19-3.34,.41-.09,.46,1.02,.46,1.02,0,0,.55-1.96-.52-3.15,.19-.04,.75,.1,.75,.1-.23-.69-1.11-1.94-1.11-2.78,.46,.51,.97,.6,.97,.6,0,0-.79-1.08-.79-2,.26-.03,.36,0,.4,.03-.14-.19-.99-1.33-.99-2.52,.46,.6,.65,.46,.65,.46,0,0-1.11-2.04-.88-3.11,.32-.13,.82,.56,.82,.56-.42-1.07-.93-2.04-.65-2.97,.29-.65,.6,.46,.6,.46-.28-1.48-.74-1.57-.23-2.59,.23,.42,.46,.46,.46,.46,0,0-.69-3.66,.56-3.47,0,0-.04-4.12,1.3-3.66,.27-1.9,1.39-2.75,2.13-3.57-.19,.79-.37,1.21-.37,1.21,0,0,1.63-2.36,3.38-2.97-.14,.52-.23,.88-.23,.88,0,0,2.74-2.21,4.31-1.85-.27,.42-.92,1.11-.92,1.11,1.2-.6,3.07-1.15,4.08-.23-.56,.04-.75,.32-.75,.32,0,0,3.15-.65,3.85,.65l-.51,.14s2.35,.24,2.68,1.44c-.69-.1-1.01-.1-1.01-.1,.42,.65,1.12,0,2.36,1.44-.23,.27-1.44-.23-1.44-.23,1.53,.83,1.91,1.77,1.86,2.51-.56,0-1.25-.47-1.25-.47,.88,1.12,2.22,1.99,1.8,4.08ZM40.74,52.3c.19,.55,.61,1.77,.87,2.17,.1-.07,.2-.14,.3-.21-.21-.49-.72-1.66-.89-2.23-.1,.09-.19,.18-.28,.26Zm14.33,35.24c.05,.03,.1,.06,.16,.08-.05-.02-.1-.05-.16-.08Zm-14.94-34.54l.9,1.91c.11-.09,.22-.17,.33-.26-.17-.39-.63-1.46-.86-2.1-.24,.27-.37,.45-.37,.45Zm11.02,72.54c-2,4.91-3.08,15.44-2.15,18.08-.75-5.23,2.15-18.08,2.15-18.08Zm-4.38-10.48c2.23-.43,4.09-1.02,5.97-.93,.16-.18,.29-.31,.4-.42-.73-.05-3.66-.14-6.36,1.34Zm19.04-20.86c-.96,1.58-3.33,6.21-4.04,7.88,.29,0,.79-.79,3.33-5.83,4-6.95,6.46-12.58,6.46-12.58-.42,.71-4.79,8.95-5.75,10.54Zm-22.12,.54c-.97-2.54-2.09-5.54-2.13-6.7,.83,1.63,1.8,3.87,2.55,4.33,0,0-2.59-6.29-3.38-6.58,.21,1.79,1.72,8.12,2.97,8.95Zm15.33,2.92c-1.79-.21-6.09,1.75-6.09,1.75,2.49-.58,5.5-1.37,6.09-1.75Zm-30.42,24.05c1.04-3.88,3.83-6.82,3.83-6.82-2.12,1.16-4.79,6.43-3.83,6.82Zm1.81-9.8c-2.55,.82-6.52,6.56-6,7.59,1.99-4.32,6-7.59,6-7.59Zm5.22,6.73c0,.9,2.86,2.51,3.93,2.51,0,0-2.77-1.38-3.93-2.51Zm3.02,5.01c-.6-.65-1.51-.82-1.51-.82,0,0,.69,.69,1.51,.82Zm25.37-54.27c-.98,.89-3.35,2.46-6.59,2.89-3.24,.43-5.11-.28-5.86-1.36,.08,1.29,1.41,2.26,5.58,1.76,5.58-.51,6.87-3.29,6.87-3.29Zm-6.09,.12c-.12-.12-1.01-1.09-1.71-.43-.7,.66,.12,1.6,.12,1.6,.78-1.32,1.59-1.18,1.59-1.18Zm-.7-.15s-.62,.26-.81,.73c-.35-.35,.19-1.09,.81-.73Zm-13.03,.55c.4-.03,1.83-.43,3.75-.78,1.91-.35,4.37-.24,4.37-.24-2.11-.78-7.18,.32-8.12,1.02Zm7.02-1.68c-1.18-1.16-7.77,.63-7.57,1.29,4.3-1.91,7.57-1.29,7.57-1.29Zm1.92-1.33c.6,0,1.09-.92,1.09-2.05s-.49-2.05-1.09-2.05-1.09,.92-1.09,2.05,.49,2.05,1.09,2.05Zm7.9-.5c.62,0,1.11-.88,1.11-1.97s-.5-1.97-1.11-1.97-1.12,.88-1.12,1.97,.5,1.97,1.12,1.97Zm7.28,.98c-1.21,0-3.08,.31-4.8,.93,.7-.15,1.8-.4,2.54-.28,0,0-.9,0-1.25,.4,3.12-.15,6.37,0,6.37,0-.31-.19-4.37-.47-4.37-.47,0,0,.58,0,1.52-.58Zm-2.46-.24c-.78,.32-2.14,.87-2.14,.87,2.11-.7,3.83-.95,5.08-1.3,0,0-4.65-.08-6.83,1.18,3.47-.86,3.9-.75,3.9-.75Z"/></g></svg>