<?xml version="1.0" encoding="UTF-8"?><svg id="Capa_1" xmlns="http://www.w3.org/2000/svg" viewBox="0 0 70.66 91.13"><defs><style>.cls-1{fill:#f2e9f4;}.cls-2{fill:#fff;}.cls-3{fill:#e73178;}.cls-4{fill:#fcc200;}.cls-5{fill:#e6d4e9;}.cls-6{fill:#a11834;}.cls-7{fill:#c8e7fa;}.cls-8{fill:#ce1342;}.cls-9{fill:#1d70b7;}.cls-10{fill:#41b28e;}.cls-11{fill:#1d1d1b;}.cls-12{fill:#81cff4;}</style></defs><path class="cls-1" d="M13.53,85.37s1.35,1.04,1.37,2.03c-1.61,.18-4.43,.53-6.61,.59-2.18,.06-3.71,.13-3.76-.57-.05-.7,3.24-2.2,4.88-2.61,2.3,.21,4.11,.56,4.11,.56Z"/><path class="cls-5" d="M52.97,90.18s-.05-.87-2.54-2.78c-2.95,.02-10.23,.11-10.23,.11,.48,.39,1.39,.65,1.91,.76,.59,.21,3.64,1.12,3.84,1.16,.3,.06,7.02,.74,7.02,.74Z"/><path class="cls-4" d="M37.46,60.5c0,6.38-5.22,11.55-11.65,11.55s-11.65-5.17-11.65-11.55,5.22-11.55,11.65-11.55,11.65,5.17,11.65,11.55Z"/><path class="cls-8" d="M57.21,36.44s3.28,.37,7.22,3.79c3.55,3.3,4.73,5.99,5.49,8.3,.76,2.31,.94,6.39-.16,8.78-1.09,2.4-4.19,6.5-10.19,6.46-1.04-2.59-2.67-4.31-2.67-4.31l-4.74-4.48c-.32-.59-.91-1.47-.91-1.47-.19-.97,.69-4.62,1.13-6.46,.44-1.84,1.79-5.01,2.78-7.03,.99-2.03,2.05-3.58,2.05-3.58Z"/><path class="cls-3" d="M54.13,42.16s1.89-1.68,3.33-1.05c1.45,.63,2.37,3.21,1.08,7-1.29,3.79-5.65,3.46-6.73,.9,.78-3.21,2.32-6.85,2.32-6.85Z"/><path class="cls-8" d="M5.43,51.19l-1.82,5.63c-.55-.28-1.92-1.16-2.38-2.5-.47-1.35,1.39-6.98,1.95-7.33,.32,.88,1.18,3.02,2.25,4.2Z"/><path class="cls-4" d="M41.06,29.72s.21-.1,.69,.35c.48,.45,1.48,1.8,1.74,3.35,.26,1.55-.03,3.53-.41,4.45-.38,.92-1.06,2.52-2.8,4.23-1.74,1.71-4.41,3.16-6.74,3.93-2.33,.77-6.78,1.55-9.37,1.08-2.59-.47-5.48-1.58-7.42-3.92-1.94-2.34-2.91-5.16-1.13-6.57,.34,.41,.47,.7,.47,.7-.13,.41,.38,2.06,.99,3.03,.61,.97,2.38,2.67,5.49,3.58,3.11,.91,6.7,.85,8.7,.36,2.01-.49,4.45-1.29,6.12-2.73,1.67-1.44,2.96-2.95,3.54-4.6,.58-1.65,.78-2.75,.36-4.24-.41-1.49-.95-1.97-.95-1.97l.72-1.04Z"/><path class="cls-8" d="M16.01,37.3s-.04,2.59,2.55,4.61c2.6,2.02,6.49,3.14,10.76,2.67,4.27-.46,7.92-2.23,9.98-4.87,2.06-2.63,3.17-6.1,1.06-8.93-.13,.23-.38,.48-.38,.48,.23,.75,.38,4.29-1.38,6.44-.73,1.23-2.05,2.79-6.51,4.12-3.46,.75-6.46,1.13-8.86,.42-2.4-.71-5.07-1.63-6.13-3.82-.85-.77-1.08-1.11-1.08-1.11Z"/><path class="cls-7" d="M39.91,31.25s1.26-1.3,1.76-3.5c.5-2.31,1.09-5.37,.62-7.59-1.41,.66-2.88,2.47-3.72,3.67-1.55-1.26-5.84-3.48-10.37-3.89-4.53-.41-7.09,1.57-7.09,1.57-.47,.84-1.04,1.76-1.69,3.87-.26-.5-2.08-4.48-2.27-4.63-.36,.19-.67,2.46-.39,5.23,.31,2.27,.51,3.27,.51,3.27-.26,.26-2.45,1.91-2.34,4.78-2.18,1.1-2.46,1.62-3.18,2.58-.72,.96-.64,1.77-.21,1.77s.47-.89,.47-.94c.09-.45,1.48-2.55,2.91-2.67,.41,1.25,.8,2.93,3.46,4.54,1.46,1.51,4.97,2.66,6.85,2.66s5.41-1.02,6.85-1.74c1.45-.72,5.04-3.7,5.04-3.7,.33,.45,1.13,1.93,1.22,2.41,.09,.48,.09,1.07,.36,1,.27-.07,.16-1.45-.17-2.12,.39-.47,1.51-2.19,1.53-4.22,.02-2.03-.14-2.36-.14-2.36Z"/><path class="cls-12" d="M35.05,21.84s.81,5.38-3.31,7.68c1.15,.36,1.37,1.64,1.37,3.05,1.44,.38,4.35,1.63,5.42,5.27,1.03-.94,2.07-4.44,1.39-6.58-.53,.19-1.47,.73-1.76,.7s-.1-1.18,.53-1.81c.63-.64,2.04-1.63,2.3-3.36,.21-1.48,.27-1.38,.27-1.58s.57-2.61,.31-3.07c0,0-2.43,2.39-3.74,5.59-.19,.27-.31,.59-.29,.74-.22,.08-1.15,.42-1.15,.42,0,0,.68-3.01,2.24-5.17-1.32-1.65-3.58-1.87-3.58-1.87Z"/><path class="cls-9" d="M37.23,26.24l-6.86,.82c.01-.72-.52-2.36-2.12-2.54-1.6-.18-2.65,.77-2.91,2.32-.59-.05-.64-.05-.64-.05,0,0-.29-1.96-2.17-2-1.88-.03-2.15,1.57-2.26,1.98-.35-.16-1.09-.46-1.09-.46l-.1,.34,1.19,.5c.07,.39,.37,2.02,2.15,2.16,1.78,.06,2.28-1.68,2.32-2.18,.65,.06,.6,.04,.6,.04,.13,.81,.61,2.16,2.27,2.3,1.66,.14,2.62-1.31,2.74-2.13,.57-.03,6.74-.79,6.74-.79l.13-.3Z"/><path class="cls-10" d="M27.02,27.2s.28-1.92,.84-2.25c-.78-.19-2.47,.7-2.09,2.56,.96,.01,1.25-.31,1.25-.31Z"/><path class="cls-10" d="M20.98,27.52s1.49-1.07,1.39-2.29c-.23-.16-1.58,.23-1.63,1.69,.04,.65,.24,.6,.24,.6Z"/><path class="cls-6" d="M23.34,32.67l-.95,.98c-.15,0-1.09-.61-.9-1.17,.19-.56,.9-.09,1.85,.19Z"/><path class="cls-8" d="M23.33,32.63l-.95,1.02c.47,.17,1.46,.45,2.77,.15,1.31-.3,2.27-.96,2.15-1.62-.12-.66-.8-.46-1.11-.24-.31,.22-1.48,1.02-2.86,.69Z"/><path class="cls-12" d="M32.84,33.57s-1.95,6.42-6,7.42c-2.48,.69-3.97,.84-5.11-1.09-.67,.27-.92,.38-1.64,.08-.72-.3-2.41-.96-2.76-1.34,.31,1.07,2.71,3.1,6.38,3.68,.22,.67,.44,1.51,.44,1.51,.4-.46,.81-1.28,.92-1.33,.22-.05,1.96,.24,4.9-.27,2.94-.51,6.85-1.72,8.17-3.78-.1-1.02-2.38-4.28-5.3-4.87Z"/><path class="cls-12" d="M17.73,23.34s-.95,.77-.36,2.31c.04,1.11,.71,2.81,.71,2.81,.42-.6,.9-1.3,.95-1.59-.18-.44-1.3-3.53-1.3-3.53Z"/><path class="cls-3" d="M16.32,38.65l1.06,.36c.62,.87,2.62,2.23,3.06,2.36,.29,.67,2.75,2.71,2.75,2.71-1.12-.19-5.56-1.47-6.87-5.44Z"/><path class="cls-4" d="M61.76,38.25s.58-1.12,1.05-4.61c.42-3.33,.47-3.98,.24-4.28-.33-.26-2.36-.79-2.85-.75-.66,.24-6.03,6.51-7.72,11.31-1.69,4.8-3.61,10.72-3.02,13.47,.49,1.97,2.72,1.76,2.72,1.76-.1-.44-.89-1.54-.89-1.59-.12-.58,.18-3.21,1.02-6.49,.83-3.28,3.12-7.37,3.87-8.92,.75-1.55,1.08-1.69,1.08-1.69,.4,0,3.35,.89,4.49,1.78Z"/><path class="cls-4" d="M5.48,27.4s-1,.71-1.81,2.88c-.81,2.17-.9,6.75,.17,12.04,1.05,4.14,2.24,7.04,2.24,7.04-.2,.68-.66,1.83-.66,1.83-.9-.97-2.61-4.22-3.76-9.36-1.15-5.14-.51-12.16,1.9-14.6,1.88-.07,1.91,.17,1.91,.17Z"/><path class="cls-3" d="M3.28,47.05s-2.23,4.41-1.74,7.86c-.6-.89-1.22-2.43-.8-5.47,.41-3.04,1.41-5.06,1.52-5.13,.18,.55,1.02,2.74,1.02,2.74Z"/><path class="cls-2" d="M35.41,60.53c0,5.27-4.38,9.54-9.77,9.54s-9.77-4.27-9.77-9.54,4.38-9.54,9.77-9.54,9.77,4.27,9.77,9.54Z"/><path class="cls-4" d="M61.6,82.6s.31,1.6-.12,2.96c-.9,.46-4.79,1.18-7.1,1.41-2.31,.23-5.41,.53-7.21,.53s-7.09-.02-9.51-.12c-2.42-.1-9.17-.41-11.5-.64-2.33-.23-8.42-1.01-8.42-1.01l-8.44-.94s-8.55-1.35-8.82-1.58c-.29-.29-.34-2.42-.22-2.45,1.14,.28,18.36,3.03,19.58,3.17,1.22,.14,9.35,.76,9.35,.76l7.23,.34,6.76,.2,6.41-.38,5.71-.6,6.31-1.65Z"/><path class="cls-1" d="M53.08,90.29c-.02-.09-.76-1.4-4.35-1.84-2.26-.25-3.17,.58-3.37,.83,1.24,.45,5.14,1.74,6.29,1.77,1.15,.03,1.59-.05,1.44-.76Z"/><path class="cls-5" d="M12.73,85.22c.09,0,2.16,.96,1.78,2.23,1.89-.28,5.49-.86,6.11-1.33-2.62-.27-7.89-.9-7.89-.9Z"/><path class="cls-11" d="M67.79,60.45c3.62-3.64,3.42-9.31,1.58-13.77-1.83-4.46-5.64-7.24-7.45-8.39,.36-1,1.55-7.14,1.33-8.92-1.2-.87-5.61-1.25-9.71-1.23-6.63,.05-12.44,1.53-12.44,1.53,1.2-1.86,1.71-9.26,1.38-9.72-.53,.1-2.15,1.46-2.86,2.35-.97-3.88-4.01-5.56-5.25-6.04,1.68-5.38,4.33-9.46,5.61-10.78,.89,3.21,1.06,5.78,.96,8.02,.44-1.18,.16-5.41-.84-8.21,5.66-6.84,9.02-4.48,10.26-3.05,2.95,3.51,2.61,12.6,2.61,12.6C53.63,3.45,50.05,.36,47.12,.03c-2.93-.33-5.83,2.47-7.16,4.18-.12-.44-.56-3.42-3.34-3.85-2.78-.44-5.02,1.4-7.6,5.87-2.58,4.46-4.51,8.9-4.87,11.6-3.16,2.7-4.36,6.07-4.72,7.32-.28-.2-1.81-4.18-2.24-4.59-1.48,1.91,0,8.21-.08,8.77-4.46-1.38-13.28-2.43-13.67-2.11-.33,.28-1.89,2.6-2.17,5.33-.59,6.53,.31,9.84,.89,11.73-.36,.41-1.53,3.34-1.63,6.83-.1,3.49,1.81,5.25,2.88,5.71-.16,.99-3.16,11.01-3.34,16.8-.18,5.79-.05,9.18,.25,9.67,1.15,.59,8.62,1.61,8.62,1.61,0,0-.95,.28-2.88,1.17-1.93,.89-2.09,1.78-.84,1.96,1.25,.18,4.62,.1,8.21-.36,4.81-.51,6.86-1.2,7.32-1.46,7.16,1.07,19.23,1.4,19.23,1.4,0,0,.25,.23,2.42,.87,2.17,.64,4.64,1.48,6.55,2.11,1.91,.64,3.93,.66,4.13,.33,.61-.97-1.27-2.52-2.45-3.47,5.18-.16,10.61-1.48,10.96-1.83,.15-.36,.31-3.24,0-8.29-.66-7.78-1.48-11.29-1.78-13.41,0,0,4.36,.18,7.98-3.47Zm-4.71-30.81c-.15,4.77-1.37,8.47-1.37,8.47-.92-.73-3.32-1.53-4.26-1.75,2.13-3.84,5.11-6.42,5.56-6.8,.03,.03,.06,.06,.07,.08Zm-.23-.2c-3.21,2.29-5.74,6.95-5.74,6.95,0,0,0,0,.02,0-.6,.77-3.33,5.81-4.45,9.12-1.18,3.48-1.7,7.44-1.44,8.09,.12,.34,.32,.61,.49,.85-.27-.13-.82-.42-.93-.62-.15-.26-.61-1.37,.31-5.17,.91-3.79,2.11-7.54,4.51-12.01,2.21-4.12,5.57-7.2,6.09-7.67,.49,.14,.89,.31,1.13,.46Zm-13.05,20.18c.59-3.51,2.05-7.87,4.07-12.09,2.03-4.22,5.27-7.73,6.54-8.79,.36,.03,.72,.09,1.05,.17-1.08,.8-3.41,3.46-4.99,5.87-1.64,2.5-3.17,5.9-4.49,9.89-1.32,3.99-1.87,7.72-1.64,8.75,.2,.91,1.27,1.17,1.52,1.21,.07,.12,.13,.23,.14,.34-2.73-.9-2.78-1.91-2.19-5.36Zm-8.62-19.84s2.96,1.95,2.14,6.83c-.82,4.88-6.84,9.99-16.15,10.55-9.32,.56-14.4-7.65-11.59-10.42,.03,.04,.06,.08,.08,.12-1.72,3.27,3.02,9.61,12.33,9.01,8.91-.6,12.79-4.85,14.24-9.04,1.33-3.85-.79-6.5-1.15-6.9,.07-.09,.11-.15,.11-.15Zm-4.17,30.77c0,6.12-5.02,11.08-11.21,11.08s-11.21-4.96-11.21-11.08,5.02-11.08,11.21-11.08,11.21,4.96,11.21,11.08Zm-13.59-16.22c7.9,2.15,16.72-2.24,17.98-8.63,0,0,.84-2.33-.89-4.94,.15-.23,.3-.45,.41-.61,1.56,2,3.14,6.76-2.33,11.61-5.54,4.91-14.36,4.5-17.7,2.8-6.3-3.05-5.32-6.86-5.1-7.5q.16,.22,.16,.22s-.44,4.91,7.47,7.05Zm15.27-6.2l-.06-.21,.4-.39c.62-.97,1.01-2.1,1.1-3.4,.09-2.05,.09-2.36-.09-2.83,.17-.17,.36-.38,.36-.38,0,0,2,2.96,.26,6.3-1.73,3.34-4.34,6.74-12.75,7.37,0,0-10.45,.29-11.81-6.96,.41,.44,.85,.79,.85,.79,.12,.76,1.79,3.15,6.64,4.06,0,0,.28,.89,.51,1.53,.39-.18,.9-1.37,.9-1.37,3.76,.25,9.62-.6,12.84-3.68l.32-.32c.38,1.08,.1,1.52,.45,1.5,.53-.03,.32-1.18,.06-2.02ZM29.65,6.56c3.34-5.47,5.43-6.06,7.42-5.59,1.99,.47,2.58,3.58,2.58,3.58,0,0-4,4.59-6.27,11.33-1.17-.57-5.22-1.04-8.41,1.52,.38-2.34,1.34-5.36,4.69-10.84Zm-9.17,16.3c.6-1.27,.88-1.41,1.25-1.57,.13-.06,.68-.32,1.57-.59-.42,.51-1.38,1.91-1.41,2.32,.8-1.49,1.57-2.22,1.83-2.43,.33-.09,.7-.17,1.1-.24,.38,.36,.37,1.41,.37,1.77,.21-1.19,0-1.66-.11-1.82,.51-.08,1.06-.14,1.65-.17-.41,.41-.92,1.43-.79,1.53,.09-.34,.79-1.25,1.01-1.54,.23,0,.47,0,.72,0-1.62,1.3-2.3,4.33-2.16,4.73,.87-3.34,2.28-4.53,2.53-4.71,.19,0,.37,.02,.57,.04,.69,1.05,.88,2.4,.9,3.69,.42-1.32-.31-3.22-.49-3.65,.22,.02,.44,.05,.66,.09,.45,.69,.53,1.7,.75,2.15,.08-.88-.33-1.79-.49-2.11,.36,.06,.73,.14,1.11,.24,4.44,1.13,6.82,2.84,7.4,3.3-.48,.68-.93,1.5-1.28,2.29l-6.71,.81c-.02-1.41-1.16-2.55-2.58-2.55-1.33,0-2.43,1.01-2.57,2.3l-.53-.03c-.16-1.14-1.12-2.01-2.29-2.01s-2.14,.88-2.29,2.03l-.88-.39c.37-1.14,.66-2.47,1.16-3.46Zm16.62,3.48s-.04,.08-.05,.13l-6.59,.81s0-.1,0-.15c2.38-.29,5.95-.7,6.64-.79Zm-8.51-1.43c-2.15-.7-3.32,1.44-2.86,2.78,.47,1.34,2.12,1.63,2.12,1.63-.57,.15-2.97-.73-2.32-3,.66-2.27,3.31-1.95,4.07-1.03,.76,.93,.86,1.85,.3,2.78,0,0,.83-2.46-1.32-3.17Zm-1.86,1.32c-.15,.22-.22,.66-.22,.66,0,0-.1-.25-.05-.54-.22,.17-.22,.44-.22,.44l-.2-.34-.09,.49c-.2-.05-.08-1.65,1.61-1.92,0,0-.73,.86-.78,1.9-.27-.03-.05-.68-.05-.68Zm0,.95s-.39,.29-.88,.17l.03-.22,.85,.05Zm-1.43-.13l-.49-.03s0-.07,0-.1c.24,0,.4,0,.5,.01,0,.03,0,.05,0,.08,0,.01,0,.02,0,.04Zm-.66,0c0,1.2-.95,2.18-2.13,2.18s-2.13-.97-2.13-2.18,.95-2.18,2.13-2.18,2.13,.97,2.13,2.18Zm-4.45-.21c0,.07,0,.13,0,.2l-.94-.48s.03-.08,.04-.12c.41,.18,.72,.31,.91,.39Zm-3.01-5.98c.64,1.1,2.15,4.56,2.15,4.56,0,0-.09,.44-.29,1.21-.3-.9-1.51-4.44-2.11-5.01,.07-.34,.16-.59,.25-.75Zm1.68,6.26c-.12,.25-.29,.5-.47,.75-.51-.42-.18-1.9-.04-2.45,.16,.5,.33,1.06,.51,1.7Zm-1.99-5.17c.12,.16,.37,.55,.73,1.4-.67,.45-.59,2.23-.19,2.29-.37-1.24,.08-1.89,.27-2.1,.17,.43,.37,.97,.59,1.63-.67,1.83-.22,2.62-.01,2.86-.31,.39-.67,.75-.96,.99-.62-3.59-.63-5.82-.43-7.08Zm.25,16.39c-.99-.95-1.85-2.18-2.08-3.58,0,0,.52-.18,.66-.29-.31-.05-2.47,.32-3.79,2.81-.11,.35-.04,1.06-.4,1.03-.36-.03-.13-1.09,.64-2.11,.77-1.02,2.43-2.01,3.77-2.47-.23-.11-.94,.23-.94,.23,0-.59,.13-1.21,.4-1.85,1.1-2.54,2.72-3.23,3.42-4.5,.14-.26,.26-.55,.38-.86l1.01,.42c.06,1.12,.9,2.03,1.97,2.19,.05,0,.22,.02,.22,.02h0s.08,0,.11,0c1.22,0,2.21-.95,2.31-2.16,.25,0,.41,0,.51,.01,.12,1.31,1.22,2.34,2.57,2.34s2.35-.94,2.55-2.16c2.33-.28,5.84-.7,6.54-.79-.46,1.11-.7,2.1-.58,2.47,.96-3.32,1.88-4.73,2.18-5.13,.02,.02,.03,.02,.03,.02,.6-.9,2.71-3.42,3.67-3.74,.32,1.54-.04,8.37-2.41,10.85,0,0-.02,0-.02,0,0,0-2.08,1.66-2.43-.03-.11,.41,.31,1.82,2.45,.27,.14,.74,.51,3.42-1.09,5.98l-.22,.3c-1.43-4.89-5.88-5.12-5.88-5.12,0,0,2.25,.25,4.21,2.56,2.1,2.48,1.87,4.77,1.79,4.78-.23,.05-.19-1.26-1.04-2.77-1.54-2.64-4.91-3.94-5.35-3.56,0,0,2.43,.19,4.57,2.9,.59,.74,.97,1.43,1.19,1.94l-.33,.39c-.61,.63-1.4,1.16-2.35,1.69,0,0-3.99,2.21-10.22,1.94,0,0,.13-.2,.3-.29-.63,.06-.84,1.02-1.26,1.6-.11-.17-.39-1.47-.39-1.47-2.44-.46-5.05-1.59-6.32-3.37M5.29,27.45s-2.47,1.85-2.41,7.77c.06,5.93,1.66,10.75,2.97,14.17,0,.18-.09,.49-.18,.79-2.41-4.04-3.45-11.5-3.28-15.88,.15-3.93,1.88-6.45,2.25-6.95,.2,.02,.41,.05,.65,.09Zm-3.58,14.06c-.79-4.63-.56-8.68,.34-11.42,.62-1.69,1.54-2.75,1.54-2.75,0,0,.33-.04,.87,0-2.04,2.8-2.93,6.75-1.84,13.6,.99,6.23,2.63,9.08,2.94,9.57-.1,.29-.19,.52-.19,.52-.55-.64-2.87-4.9-3.65-9.53Zm-1.02,9.64c.15-4.05,1.51-6.64,1.51-6.64,0,0,1.46,4.78,3.08,6.7,0,0-.83,2.27-1.43,4.38l-.92,.77c-.9-.59-2.19-2.06-2.24-5.21Zm2.42,5.32l.67-.61c-.08,.28-.15,.55-.21,.81-.12-.03-.28-.1-.46-.2Zm5.26,28.8c.18,.08,.85,.39,1.4,.5-.26,.12-1.41-.25-1.77-.38,.12-.04,.25-.09,.37-.13Zm9.9,1.43c-.88,.18-2.04,.38-3.51,.59,0-.13-.03-.34-.14-.5,0,0,.05,.3,.03,.51-.09,.01-.19,.03-.28,.04-.01-.16-.05-.52-.09-.71,0,0-.08,.46-.2,.75-.69,.09-1.45,.18-2.27,.26,.14-.31,.16-.83,.16-.83-.1,.35-.3,.68-.42,.86-.22,.02-.43,.04-.66,.06,.21-.26,.34-.79,.34-.79-.13,.33-.42,.66-.56,.81-.21,.02-.42,.04-.64,.06-2.95,.2-5.34,.16-5.4-.38-.03-.3,.88-.93,2.05-1.49,.2,.1,.69,.32,1.11,.2-.38,0-.79-.35-.79-.35,.19-.08,.38-.17,.58-.24,.31,.08,2.31,.59,2.95,.3-.63-.16-1.65-.54-1.98-.64,.12-.04,.25-.07,.37-.1,1.26,.28,2.33,.9,2.7,1.09-.35-.56-1.93-1.04-2.38-1.16,.12-.03,.24-.05,.36-.07,.27,.04,.56,.08,.88,.12,.97,.34,1.73,.75,2.07,1.04-.1-.45-1.03-.82-1.41-.95,2.25,.28,5.26,.59,7.28,.81-.06,.14-.12,.52-.14,.72Zm.2-.04c.02-.19,.11-.52,.15-.66,.78,.09,1.39,.16,1.72,.21,0,0-.61,.19-1.87,.45Zm22.64,1.27c-.62-.23-.57-.29-.57-.29,.22,.02,.46,.03,.69,.04l-.13,.25Zm.22,.08l.09-.32c.15,0,.29,.01,.44,.01l-.31,.38h0c-.08-.02-.16-.05-.22-.07Zm.44,.15l.24-.45c.09,0,.19,0,.29,0l-.38,.49c-.05-.02-.1-.03-.15-.05Zm.32,.1l.4-.54c.12,0,.25,0,.37,0-.09,.15-.27,.56-.33,.68-.16-.05-.31-.09-.45-.14Zm.62,.19c.04-.18,.27-.56,.38-.72,.12,0,.25,0,.37,0-.13,.16-.49,.62-.53,.79-.08-.02-.15-.04-.23-.07Zm.42,.12s0,0,0,0c0,0,.29-.57,.56-.84,.1,0,.21,0,.31,0-.15,.16-.51,.57-.68,.91-.07-.02-.13-.04-.19-.05Zm7.58-.76c.1,.08,.2,.17,.31,.27-.39-.02-1.43-.03-2.11,.52,.65-.21,1.65-.42,2.33-.32,.08,.07,.16,.14,.23,.21-.26,.03-.91,.14-1,.41,.24-.14,1.01-.19,1.25-.18,.04,.04,.09,.08,.13,.13-.17-.02-.45,0-.7,.2,.23-.03,.66-.03,.87-.04,.74,.77,1.26,1.53,.79,1.85-.56,.37-2.27-.03-4.25-.65,.03-.14,.11-.41,.19-.53-.17,0-.34,.29-.43,.46-.23-.07-.46-.15-.69-.23-.02-.11-.02-.33,.24-.5-.15-.05-.4,.19-.48,.42-.52-.17-1.04-.35-1.56-.53-.13-.03-.26-.07-.39-.1,.01-.09,.1-.27,.47-.61-.32,0-.61,.4-.65,.57-.06-.02-.12-.03-.18-.05,.01-.16,.1-.52,.55-.77-.22,0-.6,.29-.68,.73-.15-.04-.29-.08-.43-.12,.02-.14,.14-.52,.88-1.06-.33,.07-.89,.54-1.06,1.02-.29-.08-.55-.15-.8-.22,0,0,.01,0,.01,0,0,0,.09-.42,.77-.97,1.62-.03,3.25-.1,4.49-.14-.4,.09-1.47,.36-1.83,.88,.64-.3,1.86-.74,2.55-.9,.34,0,.63-.01,.87-.01,.02,.02,.05,.04,.07,.06-.33,.02-1.65,.15-2.52,.87,.62-.25,1.57-.56,2.76-.67Zm10.73-2.41c-.62,.25-4.63,1.68-15.02,2.02-8.55-.03-19.03-.36-26.23-1.43-7.2-1.07-11.83-1.04-19.65-2.8-.25-.76-.2-.93-.2-.93,0,0,3.39,.98,16.73,2.58,13.26,1.6,15.59,1.79,26.1,1.85,10.51,.06,17.21-1.88,18.41-2.55,0,0-.03,1.01-.14,1.26Zm.14-2.35v.87c-.87,.37-6.68,2.33-16.31,2.52-8.91,.2-15.11-.22-22.11-1.04-7.01-.81-19.14-2.36-22.76-3.34l-.14-1.04s6.75,1.6,16.96,2.78c10.2,1.18,20.33,1.71,27.47,1.57,7.15-.14,15.22-1.62,16.9-2.33Zm-2.35-21.42c.26-.02,.53-.05,.8-.1,.34,.66,2.85,.26,3.05-.1-2.07,.35-2.63,.17-2.78,.05,2.32-.47,5.06-1.84,5.04-2.31-2.79,1.62-5.56,2.17-6.27,2.29-.01-.01-.03-.02-.04-.03-.2-.12-.53-.88-.87-1.45,.34,.17,1.01,.68,1.44,.73,.5,0,2.66-.91,2.91-1.36-.33,.12-2.26,1.03-2.74,1.03-.37-.02-1.41-.54-1.85-.77-.03-.04-.06-.08-.09-.11-.8-.4-4.73-3.57-5.6-4.57,0,0-.03-.4-.87-1.33,0-.2,.01-.39,.03-.59,.85-.09,3.11-.15,3.74-.29-.86-.18-3.18-.02-3.72,.02,.02-.34,.05-.67,.09-1.01,1.22,.24,4.47-.05,4.71-.42-2.63,.33-4.32,.24-4.69,.21,.96-8.03,5.78-14.92,5.78-14.92,1.93,.2,7.69,2.59,11.33,9.13,3.4,6.7,.87,11.9,.87,11.9-2.6,5.1-7.83,6-9.7,6.13-.05-1.16-.32-1.82-.57-2.14Zm-44.18-1.27c0,5.8,4.75,10.51,10.6,10.51s10.6-4.71,10.6-10.51-4.75-10.51-10.6-10.51-10.6,4.71-10.6,10.51Zm20.96-.01c0,5.67-4.65,10.27-10.39,10.27s-10.39-4.6-10.39-10.27,4.65-10.27,10.39-10.27,10.39,4.6,10.39,10.27Zm-20.23,.03c0,5.41,4.41,9.8,9.85,9.8s9.85-4.39,9.85-9.8-4.41-9.8-9.85-9.8-9.85,4.39-9.85,9.8Zm.88-2.72c.4,0,3.05,.08,3.05,.08,0,0-.88,1.03-3.63,1.94,.07-1.5,.18-2.02,.59-2.02Zm-.59,3.27s2.93-1.14,3.34-1.51l-.04,2.13-3.26-.04-.04-.59Zm.26,2.09c2.67,.04,7.82,.04,7.82,.04v1.76h-7.12s-.62-1.43-.69-1.8Zm8,5.87c-2.24-.11-4.07-1.65-4.07-1.65,0,0-.04,.26-.4,.88-.22,0-1.1-1.1-1.87-1.83,0,0,5.32,.11,6.35,.22v2.38Zm-3.49-7.3l-.29-2.93c.66-.52,1.17-.92,1.17-.92,2.94-.22,6.38-.15,6.38-.15,0,0,.99,.8,1.29,.92l.11,2.9c-3.04,.07-8.66,.18-8.66,.18Zm10.97,6.2s-.33-.4-.88-.73c-1.03,1.36-3.56,2.02-4.36,1.91-.22-.37-.3-2.49-.3-2.49,0,0,5.21-.3,7.01-.37,0,0-.69,1.03-1.47,1.68Zm2.57-3.48s-4.37,.37-8.29,.48l-.04-1.73s5.83-.33,8.84-.22c0,.74-.51,1.47-.51,1.47Zm.8-2.93s-2.42,0-4.15,.04l-.04-2.24c1.65,.99,3.23,1.39,4.15,1.72,.36,.33,.04,.48,.04,.48Zm-.44-4.15s.59,1.43,.51,2.12c-2.23-.4-4.59-2.02-4.59-2.02,0,0,3.52-.11,4.07-.11Zm-3.31-2.57c.25,.37,1.03,1.18,1.03,1.18,0,0-5.29,.4-6.79,.22-.07-.3,0-1.28,0-1.28,0,0,4.07-.15,5.76-.11Zm-1.13-1.5l-4.7,.15s-.15-.59-.15-1.39c2.67-.22,4.62,1.06,4.85,1.25Zm-6.38-1.25v1.5s-1.25,.22-3.27,.15c1.25-1.24,3.01-1.69,3.27-1.65Zm.04,3.05l.04,1.21s-3.96,.19-5.87,.19c.04-.11,1.06-1.25,1.06-1.25,0,0,2.28-.07,4.77-.15Zm-1.49-29.81c-1.05,0-1.89,.87-1.89,1.94s.85,1.94,1.89,1.94,1.89-.87,1.89-1.94-.85-1.94-1.89-1.94Zm-.4,.99s-.95,1.15-1.07,1.24c-.12-.29,.49-1.18,.7-1.44-.39,.34-.71,.9-.83,1.07-.17-.22,.36-.78,.88-1.29-.63,.46-.85,.78-.85,.78,0,0,.14-1.06,1.32-1.22-.07,.34-.59,1.12-.78,1.44,.47-.51,.64-.59,.64-.59Zm-4.67,12.69l.09,.05c1.44,1.07,3.35,1.48,3.51,1.23-1.8-.28-3.59-1.54-3.88-1.75l-.03-.02,.31,.48Zm20.02-8.65c-.2,.44,.31,.66,.82,.28,.76-.48,.59-1.56,.54-1.83,.03-.08,.05-.18,.05-.27,0-.4-.32-.72-.71-.72-.06,0-.12,0-.17,.02,.06-.14,.17-.39,.33-.73,.37,.86,1.26,.27,1.31-.08-.71,.78-1.13,.14-1.23-.07,.15-.31,.34-.67,.57-1.06,.24-.05,.83-.09,1.29,.57,.59,.84-.1,2.2-.21,2.42,.41-.26,.74-1.28,.61-2.08-.12-.75-.83-1.19-1.56-1.11,.27-.45,.58-.92,.94-1.4,1.18-1.64,1.54-1.79,1.54-1.79,0,.23-.17,2.5-.39,3.08,.48-.38,.67-2.97,.48-3.45-.51,.14-3.4,3.89-3.92,5.83-.17,.13-.28,.34-.28,.57,0,.4,.32,.72,.71,.72,.2,0,.38-.08,.51-.21,.1,.37,.03,.68-.06,.9,0,0-.95-.03-1.15,.41Zm.23,.32c-.23-.04-.14-.54,.84-.59,0,0-.17,.61-.84,.59Zm.45-1.6c-.3,0-.55-.24-.55-.53s.25-.53,.55-.53,.55,.24,.55,.53-.25,.53-.55,.53Zm-13.9-8.13c.58-.01,.36,2.54,.22,4.11,0,0,.57-2.6,.25-3.74-.21-.57-.86-1.54-2.8,2.88,.66-1.08,1.76-3.23,2.33-3.24Zm-2.57,19c.62,2.78,4.99,1.85,5.21,1.18-3.96,1.53-5.21-1.18-5.21-1.18Zm-.16-7.47c-.28,.38-.28,1.73,2.58,1.72,2.87-.02,3.65-1.56,3.21-2.06-.43-.49-.91-.3-1.53,.14-.62,.44-1.52,.54-1.52,.54,0,0-.42,.08-1.03-.09s-1.43-.62-1.72-.24Zm1.86,.44c.24,.04,.51,.06,.83,.06,.05,0,.69,.03,1.49-.44,.8-.47,1.13-.65,1.45-.3,.32,.35-.31,1.63-2.87,1.78-.79,.05-1.36-.04-1.78-.18l.87-.92Zm-.18-.03l-.85,.88s-.09-.04-.13-.06l.57-.61c-.09,.05-.53,.4-.69,.53-.03-.02-.06-.04-.09-.06l.69-.81c.14,.04,.31,.09,.5,.12Zm-.58-.15l-.73,.73s-.07-.06-.1-.1l.66-.69c.05,.02,.11,.04,.17,.06Zm-.27-.09l-.63,.64s-.05-.07-.07-.11l.51-.6c.05,.02,.11,.04,.18,.07Zm-.69-.02c.12-.13,.24-.14,.41-.08l-.44,.57c-.08-.2-.06-.39,.03-.48Zm-1.9,1.04c.11-.83,.11-1.38,.9-2.09,0,0-1.34,.57-.9,2.09Zm.74,.91c-.16-.96-.25-1.87,1.27-2.91,0,0-2.62,.93-1.27,2.91Zm-.23-4.38s.35-.12,1.2-.3c.84-.17,.93-.34,.93-.34-.08,0-.13,0-.21-.02-.21,.06-.77,.22-1.06,.23-.36,.02-.65,.18-.87,.43Zm-1.35-.32c-.07,.02-.19,.09-.2,.37,.33-.33,1.12-.43,1.12-.43,0,0-.13,.05-.11,.33,.56-.42,1.12-.47,1.12-.47-.44-.11-.88,.16-.88,.16,0,0,0-.08,.12-.2-.22-.02-.87,.19-.91,.19s.09-.09,.09-.23c-.38,0-1.31,.5-1.21,.66,.16-.22,.71-.34,.86-.37Zm9.74,3.49c.45-.22,.18-2.39-1.48-2.17,0,0,1.62,.16,1.48,2.17Zm1.18-.41c0-1.24-1.03-1.77-.94-1.68,.47,.44,.73,1.2,.94,1.68Zm.33-2.85c.33-.47,.73-.27,.73-.27l-.22,.33c.85-.38,1.44-.52,2.18-.47-.42-.15-1.17-.01-1.17-.01l.08-.16c-1.89-.23-2.57,.53-2.57,.53,.5-.2,.86-.27,.86-.27,0,0-.05,.1,.11,.32Zm.15,8.24c.36,.05,.38-.22,.38-.22,0,0-.23,.03-.38,.22Z"/></svg>