<?xml version="1.0" encoding="UTF-8"?><svg id="Capa_1" xmlns="http://www.w3.org/2000/svg" viewBox="0 0 197.97 94.09"><defs><style>.cls-1{fill:#fef860;}.cls-2{fill:#bd8100;}.cls-3{fill:#cc7507;}.cls-4{fill:#c85e03;}.cls-5{fill:#e1b402;}.cls-6{fill:#e0b401;}.cls-7{fill:#e1b504;}.cls-8{fill:#c96704;}</style></defs><path class="cls-1" d="M5.02,27.76c.11-.11,.23-.23,.34-.34,1.03-.03,1.45-1,2.23-1.42,.09-.28,.3-.43,.56-.55,.27,.15,.14-.14,.21-.2,0,0-.02,.01-.02,.01,.12,0,.26,.06,.35,0,2.26-1.35,4.63-2.43,7.19-3.05,.51-.12,.57-.42,.65-.84,.33-1.72,.92-3.35,1.67-4.93,.51-1.07,1.3-1.98,1.63-3.13h-.01c1.07-.79,1.87-1.86,2.79-2.81,.37-.62,1.07-.86,1.58-1.32,.23,.14,.12-.13,.2-.17,0,0-.02,.01-.02,.01,1.23-.37,2.32-1.01,3.39-1.7,.06,0,.12,0,.18-.02,.09-.06,.19-.12,.28-.18,.25-.04,.52,0,.72-.21,2-.15,3.92-.83,5.94-.79,.58-.02,1.18,.22,1.72-.18,.19-.17,.47-.31,.21-.63,.12-.12,.23-.23,.35-.35,.38,.3,.57-.1,.78-.26,.99-.7,1.95-1.43,2.93-2.15,1.24-.54,2.47-1.08,3.71-1.62,.45-.17,.9-.33,1.35-.5,.23,.05,.47,.17,.69,.13,2.09-.35,4.15-.07,6.21,.28,.17,0,.34,0,.51,0,.19,.11,.38,.22,.57,.33,1.31,.62,2.63,1.25,3.94,1.87,.34,.3,.65,.49,1.14,.19,2.75-1.62,5.79-2.33,8.91-2.82,2.59-.07,5.17,.07,7.67,.86,2.3,.88,4.47,2,6.35,3.62,.22,.19,.43,.5,.81,.29h0c.55,1.26,1.65,2.01,2.64,2.87,0,0-.01-.02-.01-.02,.67,1.57,.93,1.74,2.17,1.39,.97,.04,2.04-.26,2.85,.43,.97,.82,1.58,.4,2.19-.39,.08-.07,.15-.14,.23-.21,1.2-.42,2.4-.84,3.6-1.26,.33,.09,.6-.04,.87-.2,.52,.49,1.16,.13,1.73,.22,1.45,.13,2.8,.56,3.96,1.46,.49,.38,.88,.4,1.47,.04,1.93-1.19,3.99-2.1,6.26-2.48,2.01-.35,4.01-.27,6.02,.02,.45,0,.9,.04,1.29,.31,1.53,.66,3.12,1.22,4.4,2.37,.08,.08,.16,.16,.24,.24h0c.02,.59,.35,1.06,.61,1.54,1.45,2.69,2.12,5.55,1.8,8.59-.22,2.11-.91,4.07-2.52,5.56,3.18-.07,5.85-.98,6.9-4.42,.15-.51,.46-.59,.89-.31,1.39,.79,2.54,1.86,3.57,3.06,.26,.18,.51,.36,.77,.54,.01,.2,.05,.39,.24,.5-.16,.32-.01,.59,.1,.89,.39,1.03,.73,2.09,1.08,3.14,.38,4.38-.86,8.03-4.94,10.57,1.44-.3,2.56-.8,3.54-1.65,1.25-1.09,2.01-2.53,2.89-3.89,.08,.01,.16,.03,.24,.04,.97,1.03,2.31,1.54,3.36,2.47,1.43,1.73,2.5,3.65,3.01,5.85,.08,.74,.17,1.49,.23,2.23,.02,.31,.11,.59,.41,.64,.75,.14,1.42,.7,2.25,.45,.86,.37,1.78,.49,2.7,.54,0,.3,.19,.38,.44,.42,.87,.15,1.74,.32,2.61,.48,.18,.02,.36,.04,.54,.06,.11,.04,.21,.11,.33,.13,6.51,1.12,13.08,1.46,19.67,1.23,3.29-.12,6.54-.64,9.82-.88,3.29-.24,6.57-.02,9.78,.86,.08,0,.17,0,.25,0,.19,.11,.38,.22,.57,.33,2.46,1.22,4.15,2.94,3.8,5.95-1.57-2.4-3.96-2.87-6.6-2.91-4-.06-7.83,.93-11.72,1.62-3.54,.63-7.06,1.35-10.59,2-3.43,.63-6.9,.82-10.39,1-3.11,.16-6.19,.09-9.26-.32-1.55-.21-3.16-.51-4.05-2.06-.28,.69,.2,1.45-.32,2.08-.1-.34-.14-.72-.31-1.02-.39-.67-.63-2.02-1.15-1.89-.86,.23-.67,1.43-.7,2.28,0,.05-.06,.1-.15,.24-.99-2.81-2.8-4.71-5.86-5.66,1.92,2.42,2.65,4.92,2.29,7.74-.98-2.27-2.28-4.25-4.29-5.74-1.69-1.25-5.18-2.3-6.84-1.97,3.78,3.73,4.59,4.92,4.47,6.6-.33-.02-.44-.3-.64-.49-3.48-3.27-9.81-3.07-13.03,.43-1.72,1.87-2.13,4.18-2.19,6.61-.04,.04-.09,.07-.14,.11-1.33-1.29-1.53-3.01-1.72-4.98-1.64,2.34-1.72,4.7-1.49,7.14-3.55-5.01-2.32-10.04,.12-15.19-1.86,.57-3.04,1.71-4.09,2.95-.66,.77-1.02,.59-1.51-.09-1.01-1.42-2.34-2.35-4.11-2.55-.5-.06-.7-.18-.53-.74,.8-2.68,.97-5.43,.74-8.2-.41-4.82-2.48-8.72-6.6-11.38-.7-.45-.89-.9-.82-1.64,.03-.27,.29-.56-.03-.93-.74,1.39-1.83,2.35-3.16,3.01-1.28,.64-2.7,.89-4.08,1.27,.16,.14,.31,.18,.46,.21,3.73,.89,7.32,1.97,8.93,6.03,1.31,3.31,1.5,6.54-.39,9.7-.41,.69-.76,1.02-1.69,.58-1.44-.68-3.01-.94-4.62-.66-.43,.08-.78,.15-.37,.74,1.64,2.34,2.37,4.97,2.47,7.8,.08,2.28-.4,4.43-1.33,6.58-3.66-7.15-8.83-10.58-14.43-9.61,1.1,.81,2.21,1.57,3.23,2.41,1.01,.84,1.85,1.85,2.56,2.97,.7,1.11,1.24,2.28,1.35,3.62-1.3-1.69-2.92-2.75-5.19-3.15,.46,1.56,.94,2.97,1.14,4.45,.5,3.67,.12,7.16-1.9,10.37-.42,.68-.58,.67-.98-.02-1.18-2.03-2.98-3.35-5.08-4.32-.53-.24-.77-.2-.77,.49,0,.97,.24,1.98-.34,3.01-1.06-1.39-1.98-2.81-3.56-4.03,.27,1.64,.21,3.05,.05,4.44-.4,3.45-1.69,6.46-4.68,8.44-4.72,3.11-11.78,2.46-15.96-1.36-1.99-1.82-3.67-3.83-4.4-6.51-.14,1.13-.31,2.22-.25,3.3,.05,1.04-.48,1.23-1.28,1.14-1.14-.14-2.29-.08-3.43-.29-5.17-.95-9.06-3.43-10.74-8.86-.18,.71-.25,1.25-.24,1.84,.02,2.07,.58,4.05,.88,6.07-1.37-2.03-1.88-4.36-2.41-6.69,0-.5-.02-.99-.03-1.49-.12-3.3,.6-6.36,2.44-9.14,1.52-2.3,3.5-4.06,5.87-5.43,.45-.26,1.26-.38,1.17-1.01-.26-1.82-.16-3.62,.11-5.47-.1,.06-.15,.08-.16,.1-.11,.29-.21,.59-.33,.88-.91,2.25-2.18,4.23-4.23,5.62-2.77,1.87-5.82,2.09-9.01,1.56-3.54-.59-6.52-2.08-8.72-5.03-.85-1.14-1.13-2.46-1.62-3.73-.01,1.35-.34,2.72,.37,3.98,.02,.24,.05,.49,.07,.73-3.45-2.11-5.5-5.26-6.65-9.38-.46,6,.76,9.67,3.28,12.95-.94,.08-1.4-.7-2.05-1.14-.42-.28-.66-.87-1.31-.78,0,0,0,0,0,0,.1-.58-.21-.85-.73-.97,0,0,.01,.01,.01,.01-.81-1.36-1.62-2.73-2.43-4.09-.08-.24-.16-.47-.24-.71-.07-.08-.15-.16-.22-.23,0,0,.01,.03,.01,.03-.16-.73-.28-1.47-.48-2.2-.68-2.49-.42-5.05-.55-7.58,0-.18,.01-.36,.02-.53,.39-1.44,.79-2.87,1.18-4.31,.43-.94,.86-1.88,1.3-2.82,.15-.32,.3-.65,.46-.97,.25-.11,.42-.29,.5-.55,.07-.06,.14-.12,.21-.18h-.03c.53-.27,1.06-.56,.98-1.31Zm15.06,13.26c.08,.08,.13,.31,.3,.08-.1-.02-.21-.04-.31-.06-2.3-2.62-3.19-5.67-2.73-9.13-2.82,3.17-1.47,7.64,2.74,9.11ZM106.2,20.22c-1.64-.82-3.39-.93-5.16-.75-1.08,.1-2.04,.16-2.26-1.28-.07-.45-.35-.89-.61-1.28-.92-1.38-1.76-2.84-3.5-3.35-2.49-1.46-5.21-1.84-7.43-.99,1.09-.03,2.06,.23,2.99,.53,4.42,1.44,6.6,4.09,7.01,8.59,.1,1.15,.31,1.32,1.4,1.11,5.25-1.01,10.06-.3,14.01,4.16-1.25-3.37-3.12-5.76-6.44-6.73Zm-25.43,10.48c-2.23-2.75-4.16-5.47-3.95-8.99,.22-3.59,2.41-6.05,5.23-8.07-4.98,.73-8.95,3.09-11.88,7.14-.69,.96-1.37,1.65-2.61,1.98-2.58,.68-4.92,1.9-7.03,3.87,.27-.05,.34-.05,.42-.07,2.62-.74,5.25-1.14,7.98-.63,3.26,.61,5.49,2.49,7.01,5.35,.17,.32,.18,1.06,.8,.75,1.25-.63,2.59-.94,4.03-1.32Zm-52.57,10.71c1.32-.22,2.62-.52,3.78-1.22,1.5-.91,2.73-1.93,2.48-4.03-.16-1.34-.17-2.68-.77-3.93-.1-.21-.22-.41-.17-.67,.32-1.85,1.16-3.36,2.85-4.3,1.66-.92,3.47-1.11,5.32-.9,.06-.39-.19-.48-.38-.62-2.34-1.64-4.87-1.67-7.49-.87-.64,.19-1.24,.5-1.96,.33-1.76-.41-3.54-.28-5.64-.09,4.24,1.3,6.63,3.92,6.67,8.08,.03,3.5-.95,6.69-4.7,8.22Zm13.41,13.05c5.27,1.31,9.3,3.98,10.81,9.66,1.38-3.25,3.46-5.63,6.46-7.2-1.56-.15-2.99,.07-4.34,.7-.66,.31-1.13,.28-1.79-.21-3.29-2.48-6.98-3.6-11.14-2.94Zm8.14-16.9c-1.22-1.63-1.14-3.36-.89-5.1,.04-.27,.25-.58,.04-.79-.29-.3-.58,.05-.83,.18-2.75,1.42-5.08,3.35-6.95,5.83-1.16,1.53-2.23,3.1-2.9,4.93,3.28-2.9,7.03-4.67,11.53-5.05Zm18.01,9.13c1.65,2.17,1.78,4.34,.9,6.67,2.46-.3,4.8-.53,7.12,.1,.62,.17,.8-.11,.69-.65-.21-1.06-.61-2.05-1.28-2.9-1.84-2.33-4.4-3.04-7.43-3.22Z"/><path class="cls-4" d="M2.9,30.77c-.43,.94-.86,1.88-1.3,2.82-.06-.08-.12-.15-.18-.23,.17-.47,.33-.94,.5-1.41,.46-.28,.33-1.06,.98-1.19Z"/><path class="cls-3" d="M1.42,33.36c.06,.08,.12,.15,.18,.23-.39,1.44-.79,2.87-1.18,4.31-.52-.8,.21-1.54,.09-2.33,.46-.67,.39-1.56,.91-2.21Z"/><path class="cls-3" d="M.4,38.43c.12,2.53-.13,5.08,.55,7.58,.2,.72,.32,1.46,.48,2.2-.63-.51-.46-1.4-.93-1.99-.17-1.17-.33-2.33-.5-3.5,.01-1.23,.03-2.45,.04-3.68,0-.28-.06-.58,.36-.6Z"/><path class="cls-3" d="M1.87,49.13c.81,1.36,1.62,2.73,2.43,4.09-.56-.04-.78-.29-1-.88-.36-.97-1.03-1.83-1.57-2.73-.02-.18-.05-.36,.14-.48Z"/><path class="cls-3" d="M1.41,48.18c.07,.08,.15,.16,.22,.23-.07-.08-.15-.16-.22-.23Z"/><path class="cls-3" d="M5.01,54.16c.65-.09,.89,.49,1.31,.78,.65,.44,1.11,1.22,2.05,1.14,0,0-.01,0-.01,0-.17,.32,.18,.41,.28,.62,0,.09,0,.18-.01,.28-.06,.01-.12,.03-.19,.05-.49-.51-1.11-.85-1.73-1.19-.45-.67-1.33-.9-1.69-1.66Z"/><path class="cls-3" d="M4.29,53.2c.52,.12,.83,.39,.73,.97-.39-.21-.73-.46-.73-.97Z"/><path class="cls-8" d="M193.74,48.95c1.32-.05,2.07,.95,2.99,1.63,.57,.88,1.02,1.81,1.24,2.85,.02,1.26-.2,2.46-.72,3.61-.17,.18-.33,.35-.5,.53,.11-.93,.77-1.71,.79-2.67,.35-3.01-1.34-4.73-3.8-5.95Z"/><path class="cls-5" d="M197.54,54.9c-.03,.96-.68,1.73-.79,2.67,.01,.05,0,.1-.01,.15-.66,.35-.9,1.2-1.68,1.4-.31-.45-.69,.11-1.06-.08,.16-.38,.64-.58,.55-1.06,.97-1,.92-2.08-.17-3.37-.29-.41-.72-.6-1.18-.71-2.51-.6-4.86,.04-7.16,.98-1.76,.25-3.46,.69-5.07,1.47-2.6,.43-5.09,1.28-7.65,1.88-1.28-.09-2.5,.32-3.75,.49-2.86,.39-5.73,.59-8.6,.79-4.28,.3-8.54,.03-12.81-.16-1.9-.08-3.09-.53-3.27-2.55-.2-.1-.25-.28-.26-.49,.53-.63,.05-1.39,.32-2.08,.89,1.55,2.49,1.85,4.05,2.06,3.07,.41,6.15,.48,9.26,.32,3.48-.18,6.95-.37,10.39-1,3.53-.65,7.06-1.37,10.59-2,3.88-.69,7.72-1.68,11.72-1.62,2.64,.04,5.03,.51,6.6,2.91Z"/><path class="cls-3" d="M81.73,4.25c.27,.37,.84,.43,.99,.94-.38,.21-.59-.1-.81-.29-1.88-1.63-4.05-2.74-6.35-3.62,.09-.05,.17-.11,.26-.16,.95,.07,1.67,.73,2.57,.93,.72,.42,1.43,.83,2.15,1.25,.28,.46,.81,.61,1.19,.96Z"/><path class="cls-8" d="M75.82,1.11c-.09,.05-.17,.11-.26,.16-2.5-.79-5.07-.93-7.67-.86-.39-.07-.82,.13-1.18-.19,.31-.03,.62-.06,.93-.09,2.42-.24,4.8,0,7.17,.48,.33,.16,.66,.33,1,.49Z"/><path class="cls-8" d="M6.7,26.22c.27-.19,.56-.32,.9-.23-.77,.43-1.2,1.4-2.23,1.42,.44-.4,.89-.79,1.33-1.19Z"/><path class="cls-8" d="M4.04,29.08c-.05-.31,.26-.46,.33-.71,.22-.2,.43-.4,.64-.6,.09,.74-.44,1.03-.98,1.32Z"/><path class="cls-6" d="M144.62,56.31c0,.2,.06,.38,.26,.49-.12,.58,.14,1.14,.2,1.92-1.23-1.39-1.73-.28-2.35,.44-.02-.46-.04-.93-.07-1.39-.05,0-.11,0-.16,0-.02,.38-.04,.76-.05,1.14-.39-.54-.78-1.09-1.17-1.63-.13-.19-.23-.47-.52-.36-.29,.1-.22,.41-.19,.62,.09,.69-.14,1.35-.29,1.99-.45,1.83-1.08,3.58-3.05,4.38-.39-.67-.16-1.42-.44-2.07-.04,.31-.08,.62-.14,1.13-.5-.93-.84-1.71-1.56-2.19-.22-.15-.52-.33-.74-.29-.36,.06-.22,.45-.23,.71-.18,4.41-1.78,8.18-5.15,11.09-2.55,2.2-5.45,3.75-8.95,3.58-2.66-.13-5.04-1.21-7.31-2.58-1.06-.63-1.93-1.58-3.14-2.07-.12,.52-.08,.9,.02,1.29,.56,2.34,1.8,4.29,3.4,6.04,.28,.31,.7,.5,.04,.97-2.38,1.73-4.96,2.53-7.91,2.11-.67-.1-1.03-.3-1.2-1.03-.58-2.4-1.47-4.68-3.14-6.57-.75-.85-1.56-1.64-2.69-2.1-.26,2.23-.73,4.31-1.47,6.32-2.63,7.23-9.04,9.88-15.89,8.42-.63-.13-.81-.39-.91-1-.4-2.45-1.51-4.57-3.17-6.4-.17-.19-.34-.51-.67-.39-.28,.1-.16,.41-.21,.63-.4,2.09-1.34,3.91-2.86,5.77,0-2.01,.14-3.79-.84-5.42-2.81,7.16-10.03,10.77-17.19,9.74-2.53-.36-4.92-1.17-7.31-2.01-.17-.24-.42-.26-.68-.26-.01-.19-.07-.36-.28-.42-.52-1.05-1.14-2.03-1.93-2.89-.38-1.38-1.09-2.66-1.27-4.17-.41,.74,.16,1.35,.07,2-.42-.04-.85-.11-1.27-.1-2.17,.05-4.32-.1-6.42-.67-1.28-.35-2.51-.9-3.76-1.37-.03-.11-.06-.21-.09-.32-.03,.02-.06,.04-.09,.06,.06,.09,.12,.18,.18,.26,.14,.93,.86,1.58,1.21,2.4-.63,.02-.94-.93-1.68-.55-.32-.33-.57-.82-.96-.97-1.09-.43-1.39-1.45-1.93-2.3,.13-.41-.32-.44-.44-.68-.3-2.02-.86-4.01-.88-6.07,0-.59,.06-1.14,.24-1.84,1.68,5.43,5.57,7.91,10.74,8.86,1.15,.21,2.29,.15,3.43,.29,.81,.1,1.34-.1,1.28-1.14-.05-1.08,.11-2.17,.25-3.3,.73,2.68,2.41,4.7,4.4,6.51,4.19,3.83,11.25,4.47,15.96,1.36,3-1.98,4.29-4.99,4.68-8.44,.16-1.39,.22-2.8-.05-4.44,1.58,1.21,2.5,2.64,3.56,4.03,.58-1.02,.34-2.04,.34-3.01,0-.69,.25-.74,.77-.49,2.1,.97,3.9,2.29,5.08,4.32,.4,.69,.55,.69,.98,.02,2.02-3.21,2.41-6.7,1.9-10.37-.2-1.48-.68-2.89-1.14-4.45,2.27,.39,3.89,1.46,5.19,3.15-.11-1.35-.65-2.51-1.35-3.62-.71-1.12-1.54-2.13-2.56-2.97-1.03-.85-2.13-1.6-3.23-2.41,5.61-.97,10.78,2.46,14.43,9.61,.93-2.16,1.41-4.31,1.33-6.58-.1-2.83-.83-5.47-2.47-7.8-.42-.59-.07-.67,.37-.74,1.61-.28,3.19-.02,4.62,.66,.92,.43,1.28,.1,1.69-.58,1.89-3.17,1.7-6.4,.39-9.7-1.61-4.06-5.19-5.14-8.93-6.03-.15-.03-.29-.07-.46-.21,1.38-.39,2.8-.64,4.08-1.27,1.33-.66,2.42-1.62,3.16-3.01,.33,.37,.06,.67,.03,.93-.07,.74,.12,1.2,.82,1.64,4.12,2.66,6.19,6.56,6.6,11.38,.24,2.77,.07,5.52-.74,8.2-.17,.56,.03,.69,.53,.74,1.77,.2,3.1,1.13,4.11,2.55,.48,.69,.85,.86,1.51,.09,1.05-1.24,2.22-2.38,4.09-2.95-2.44,5.15-3.67,10.18-.12,15.19-.24-2.44-.15-4.8,1.49-7.14,.19,1.97,.39,3.7,1.72,4.98,.06,.1,.06,.34,.23,.23,.14-.09,.02-.25-.1-.34,.06-2.43,.47-4.74,2.19-6.61,3.22-3.5,9.55-3.7,13.03-.43,.2,.18,.31,.47,.64,.49,.12-1.67-.69-2.87-4.47-6.6,1.65-.33,5.15,.72,6.84,1.97,2,1.49,3.31,3.47,4.29,5.74,.36-2.82-.37-5.32-2.29-7.74,3.07,.95,4.88,2.85,5.86,5.66,.09-.14,.15-.19,.15-.24,.03-.85-.17-2.05,.7-2.28,.52-.14,.76,1.22,1.15,1.89,.17,.3,.21,.68,.31,1.02Z"/><path class="cls-6" d="M11.66,51.77c-.7-1.26-.38-2.63-.37-3.98,.49,1.27,.77,2.59,1.62,3.73,2.2,2.95,5.17,4.45,8.72,5.03,3.19,.53,6.24,.32,9.01-1.56,2.05-1.39,3.32-3.37,4.23-5.62,.12-.29,.22-.59,.33-.88,.01-.03,.06-.04,.16-.1-.27,1.85-.37,3.65-.11,5.47,.09,.63-.72,.76-1.17,1.01-2.37,1.37-4.36,3.13-5.87,5.43-1.84,2.78-2.56,5.85-2.44,9.14-.43-.4,0-1.01-.4-1.53-.02,.39-.09,.71-.04,1,.15,.81-.08,1.08-.95,1.03-2.23-.13-4.27-.79-6.14-1.97-2.35-1.48-4.09-3.58-5.8-5.72,0-.91,0-1.82,0-2.73,0-.51,.2-.91,.78-.76,2.93,.77,5.86-.61,8.79,.12-.37-.19-.74-.37-1.11-.39-2.12-.09-4-.8-5.69-2.09-.27-.21-.58-.43-.98-.34-.04-.04-.09-.08-.12-.12-.64-1.49-1.62-2.78-2.44-4.17Z"/><path class="cls-5" d="M80.78,30.7c-1.44,.38-2.78,.69-4.03,1.32-.61,.31-.63-.43-.8-.75-1.52-2.86-3.76-4.74-7.01-5.35-2.73-.51-5.36-.11-7.98,.63-.07,.02-.15,.03-.42,.07,2.1-1.97,4.45-3.19,7.03-3.87,1.24-.33,1.92-1.02,2.61-1.98,2.92-4.05,6.9-6.41,11.88-7.14-2.81,2.02-5.01,4.48-5.23,8.07-.21,3.52,1.71,6.24,3.95,8.99Z"/><path class="cls-2" d="M12.45,62.26c1.71,2.13,3.45,4.24,5.8,5.72,1.87,1.18,3.91,1.84,6.14,1.97,.88,.05,1.1-.22,.95-1.03-.05-.29,.02-.61,.04-1,.39,.52-.04,1.13,.4,1.53,0,.49,.02,.99,.03,1.48-.08,1.28,.14,2.52,.57,3.73,.13,.35,.48,.79,.19,1.09-.31,.32-.81,.11-1.24,.03-2.55-.5-4.89-1.54-7.16-2.75-.27-.49-.72-.66-1.25-.71l-1.39-1.22c-.08-.14-.16-.28-.24-.41-.07-.46-.1-.96-.75-.97h0c.04-.2,.01-.39-.2-.49-.17-.43-.33-.88-.52-1.3-.82-1.8-1.35-3.67-1.37-5.66Z"/><path class="cls-5" d="M106.2,20.22c3.33,.97,5.19,3.36,6.44,6.73-3.95-4.46-8.75-5.17-14.01-4.16-1.09,.21-1.3,.04-1.4-1.11-.41-4.5-2.59-7.15-7.01-8.59-.93-.3-1.9-.56-2.99-.53,2.22-.84,4.93-.47,7.43,.99,1.97,1.55,3.49,3.44,4.26,5.86,.14,.45,.45,.67,.92,.48,.54-.22,1.1-.08,1.65-.14,1.61-.19,3.14,.37,4.71,.46Z"/><path class="cls-7" d="M28.2,41.4c3.75-1.53,4.74-4.72,4.7-8.22-.04-4.16-2.43-6.78-6.67-8.08,2.09-.18,3.87-.32,5.64,.09,.72,.17,1.32-.14,1.96-.33,2.62-.8,5.15-.77,7.49,.87,.19,.13,.44,.22,.38,.62-1.85-.21-3.66-.03-5.32,.9-1.69,.94-2.53,2.44-2.85,4.3-.05,.27,.07,.46,.17,.67,.59,1.25,.61,2.58,.77,3.93,.24,2.11-.99,3.12-2.48,4.03-1.16,.7-2.46,1-3.78,1.22Z"/><path class="cls-5" d="M14.1,55.94s.08,.09,.13,.12c1.08,1.02,2.37,1.69,3.76,2.26-1.9,.88-6.05,.24-9.19-1.6,.06-.36-.14-.54-.44-.65,0,0,.01,0,.01,0-2.52-3.28-3.74-6.95-3.28-12.95,1.16,4.11,3.2,7.26,6.65,9.38,.75,1.17,1.24,2.52,2.36,3.44Z"/><path class="cls-7" d="M41.61,54.45c4.16-.66,7.85,.46,11.14,2.94,.66,.5,1.12,.52,1.79,.21,1.35-.63,2.78-.85,4.34-.7-3,1.58-5.07,3.96-6.46,7.2-1.51-5.68-5.55-8.35-10.81-9.66Z"/><path class="cls-5" d="M49.76,37.55c-4.5,.38-8.25,2.15-11.53,5.05,.67-1.83,1.74-3.4,2.9-4.93,1.88-2.47,4.2-4.4,6.95-5.83,.25-.13,.54-.48,.83-.18,.21,.21,0,.52-.04,.79-.25,1.74-.33,3.47,.89,5.1Z"/><path class="cls-5" d="M130.28,20.95c-.43-.27-.74-.19-.89,.31-1.05,3.44-3.72,4.35-6.9,4.42,1.61-1.5,2.29-3.45,2.52-5.56,.32-3.04-.35-5.9-1.8-8.59-.26-.48-.59-.95-.61-1.53,.3,.08,.59,.16,.89,.24,.12,.08,.24,.16,.36,.24,.14,.18,.29,.36,.43,.54-.04,.48,.25,.83,.5,1.18,2.25,3.17,3.46,6.57,2.29,10.5,.41-.12,.55-.53,.55-.81,.02-1.74,.93-1.94,2.31-1.42,.15-.04,.28-.04,.36,.12,0,.12,0,.24,0,.35Z"/><path class="cls-5" d="M67.77,46.68c3.03,.18,5.59,.89,7.43,3.22,.67,.85,1.08,1.84,1.28,2.9,.11,.54-.07,.82-.69,.65-2.32-.63-4.66-.41-7.12-.1,.88-2.32,.75-4.49-.9-6.67Z"/><path class="cls-3" d="M192.92,48.62c-3.21-.88-6.49-1.11-9.78-.86-3.28,.24-6.53,.77-9.82,.88-6.6,.23-13.16-.11-19.67-1.23-.11-.02-.22-.08-.33-.13,.14-.1,.27-.21,.41-.31,1.18,.24,2.35,.5,3.56,.52,1.17,.32,2.36,.5,3.57,.42,1.2,.12,2.4,.42,3.62,.24,1.2-.07,2.4,.4,3.61,.07,1.17,.29,2.34,.17,3.51,0,1.2-.02,2.41-.05,3.61-.07,1.18-.24,2.4-.04,3.56-.41,1.22,.09,2.41-.2,3.61-.31,1.2-.23,2.41-.19,3.62-.24,1.2,.06,2.39,.36,3.6,.27,.27,.29,.66,.16,.98,.26,.79,.26,1.79,.03,2.35,.9Z"/><path class="cls-7" d="M20.08,41.02c-4.21-1.47-5.56-5.95-2.74-9.11-.46,3.46,.43,6.5,2.73,9.13h.01Z"/><path class="cls-6" d="M137.53,34.1c-.88,1.36-1.65,2.8-2.89,3.89-.98,.86-2.1,1.36-3.54,1.65,4.08-2.54,5.32-6.18,4.94-10.57,.13,0,.26-.01,.39-.02,.08,.49,.17,.98,.25,1.46-.48,1.02-.12,2.1-.17,3.15-.03,.55,.38,.49,.74,.22,.09,.07,.19,.14,.28,.21Z"/><path class="cls-3" d="M19.09,14.03c.23-.26,.37-.61,.75-.73-.33,1.15-1.12,2.07-1.63,3.13-.76,1.58-1.34,3.22-1.67,4.93-.08,.42-.14,.72-.65,.84-2.56,.62-4.93,1.7-7.19,3.05-.08,.05-.23,0-.35,0,.09-.15,.18-.31,.27-.46,.64-.17,1.14-.59,1.67-.95,1.19-.49,2.38-.98,3.58-1.48,.78-.4,1.97,.02,2.35-1.18,.32-1.19,.65-2.38,.97-3.56,.15-.19,.31-.38,.28-.65,.54-.98,1.09-1.95,1.63-2.93Z"/><path class="cls-8" d="M18.16,73.03c2.28,1.21,4.61,2.25,7.16,2.75,.43,.08,.94,.29,1.24-.03,.29-.3-.06-.74-.19-1.09-.44-1.21-.65-2.44-.57-3.73,.53,2.33,1.05,4.66,2.41,6.69,.12,.25,.57,.28,.44,.69-.53,0-.78-.38-.92-.78-.37-1.1-1.21-1.36-2.24-1.39-.3,0-.6-.13-.91-.19-1.19-.34-2.37-.68-3.56-1.01-.03-.14-.12-.21-.27-.18-.98-.54-2.03-.94-2.88-1.7,.09,0,.18,0,.27-.01Z"/><path class="cls-8" d="M107.11,7.63c1.09-.28,2.11-.84,3.28-.79,.09,.07,.18,.14,.26,.21-2.26,.37-4.33,1.29-6.26,2.48-.59,.36-.97,.34-1.47-.04-1.16-.9-2.51-1.33-3.96-1.46,.17-.08,.34-.15,.51-.23,.14,0,.28-.01,.43-.02,1.32,.19,2.43,.89,3.57,1.5,.08,.17,.26,.27,.38,.17,.99-.79,2.21-1.14,3.26-1.82Z"/><path class="cls-4" d="M106.2,20.22c-1.58-.09-3.11-.65-4.71-.46-.55,.07-1.11-.07-1.65,.14-.47,.19-.77-.04-.92-.48-.77-2.42-2.29-4.31-4.26-5.86,1.74,.52,2.59,1.98,3.5,3.35,.26,.39,.54,.83,.61,1.28,.22,1.43,1.18,1.38,2.26,1.28,1.78-.17,3.53-.06,5.16,.75Z"/><path class="cls-3" d="M66.71,.23c.35,.32,.78,.12,1.18,.19-3.11,.49-6.16,1.2-8.91,2.82-.5,.29-.8,.11-1.14-.19,.08-.06,.15-.12,.23-.18,1.08,.17,1.81-.57,2.67-.99,1.13-.4,2.26-.79,3.39-1.19,.86-.15,1.73-.3,2.59-.45Z"/><path class="cls-3" d="M45.93,.43c-.04-.17,.06-.24,.2-.29,1.63,.06,3.26-.36,4.88,.01,.63,.14,1.4-.05,1.81,.69-2.06-.35-4.12-.63-6.21-.28-.22,.04-.46-.08-.69-.13Z"/><path class="cls-3" d="M110.66,7.05c-.09-.07-.18-.14-.26-.21,.09-.08,.19-.16,.28-.25,1.2-.08,2.4-.17,3.6-.25,.61,.13,1.21,.32,1.85,.28,.31-.02,.54,.09,.55,.45-2.01-.29-4.01-.37-6.02-.02Z"/><path class="cls-3" d="M144.14,42.46c-.51-2.2-1.57-4.12-3.01-5.85,.07-.04,.12-.09,.17-.15,.63,.43,.98,1.11,1.43,1.7,.21,.32,.41,.64,.62,.97,.32,.96,.8,1.86,.96,2.87-.06,.16-.12,.32-.18,.48Z"/><path class="cls-8" d="M144.14,42.46c.06-.16,.12-.32,.18-.48,.12,.24,0,.57,.27,.76,.12,2.37,.15,2.41,1.87,2.61,.19,.14,.38,.29,.57,.43-.83,.25-1.5-.31-2.25-.45-.31-.06-.39-.34-.41-.64-.06-.74-.15-1.49-.23-2.23Z"/><path class="cls-8" d="M123.48,10.25c-.3-.08-.59-.16-.89-.24,0,0,0,0,0,0-.08-.08-.16-.16-.24-.24-1.28-1.14-2.87-1.7-4.4-2.37,1.36-.22,2.3,.79,3.46,1.16,.69,.57,1.37,1.14,2.06,1.7Z"/><path class="cls-4" d="M28.94,6.9c.86-.58,1.86-.63,2.83-.79,.78-.3,1.6-.18,2.4-.21,.25,.03,.53-.04,.71,.21-2.02-.05-3.95,.64-5.94,.79Z"/><path class="cls-3" d="M19.82,13.32c.87-1,1.05-2.68,2.79-2.83-.92,.95-1.72,2.02-2.79,2.83Z"/><path class="cls-3" d="M89.38,9.07c.18,.06,.4,.06,.54,.17,.83,.63,1.7,.7,2.62,.23-.61,.79-1.23,1.21-2.19,.39-.81-.69-1.88-.39-2.85-.43,.56-.46,1.32,.08,1.88-.36Z"/><path class="cls-8" d="M130.28,20.6c1.18,.56,2.19,1.34,3.04,2.32,.28,.31,.68,.58,.53,1.1-1.04-1.2-2.18-2.27-3.57-3.06,0-.12,0-.24,0-.35Z"/><path class="cls-3" d="M136.43,29.06c-.13,0-.26,.01-.39,.02-.36-1.05-.69-2.1-1.08-3.14-.12-.31-.26-.57-.1-.89,.85,.94,.91,2.22,1.44,3.29,.04,.24,.09,.47,.13,.71Z"/><path class="cls-3" d="M137.77,34.14c.53,.22,1.05,.45,1.58,.67,.38,.24,.65,.65,1.14,.72,.27,.31,.54,.61,.81,.92-.05,.06-.1,.11-.17,.15-1.05-.92-2.4-1.43-3.36-2.47Z"/><path class="cls-8" d="M37.16,4.96c.6-.56,1.21-1.11,1.81-1.67,.63-.35,1.25-.69,1.88-1.04,0,.1,.01,.2,.02,.3-.97,.72-1.94,1.45-2.93,2.15-.22,.15-.4,.55-.78,.26Z"/><path class="cls-8" d="M14.1,55.94c-1.12-.92-1.61-2.27-2.36-3.44-.02-.24-.05-.49-.07-.73,.81,1.39,1.79,2.68,2.44,4.17Z"/><path class="cls-8" d="M58.07,2.86c-.08,.06-.15,.12-.23,.18-1.31-.62-2.63-1.24-3.94-1.87,1.17-.3,1.95,.75,2.99,.88,.39,.27,.78,.53,1.17,.8Z"/><path class="cls-8" d="M89.38,9.07c-.56,.44-1.32-.09-1.88,.36-1.24,.35-1.5,.18-2.17-1.39,.99,1.51,2.47,.98,3.84,.93,.07,.02,.14,.05,.21,.1Z"/><path class="cls-3" d="M40.87,2.56c0-.1-.01-.2-.02-.3,.56-.31,1.12-.62,1.68-.92,.67-.19,1.28-.73,2.05-.4-1.24,.54-2.47,1.08-3.71,1.62Z"/><path class="cls-3" d="M82.71,5.18c.89,.95,2.2,1.52,2.64,2.88-.99-.86-2.09-1.62-2.64-2.88Z"/><path class="cls-8" d="M24.63,8.56c1.09-.29,1.93-1.2,3.12-1.24-1.07,.69-2.16,1.33-3.39,1.7,.09-.15,.18-.3,.27-.46Z"/><path class="cls-3" d="M150.62,46.47c.73,.21,1.64-.07,2.16,.75-.87-.16-1.74-.33-2.61-.48-.25-.04-.45-.12-.44-.42,.13-.02,.27-.05,.4-.07,.16,.07,.32,.15,.48,.22Z"/><path class="cls-2" d="M97.24,7.81c.75-.38,1.49-.32,2.24,0-.17,.08-.34,.15-.51,.23-.57-.1-1.21,.27-1.73-.22Z"/><path class="cls-2" d="M34.88,6.11c-.18-.25-.46-.18-.71-.21,.34-.33,.8-.15,1.19-.26,.33,.03,.65,.06,.98,.09,.09,.07,.18,.14,.26,.2-.54,.4-1.14,.16-1.72,.18Z"/><path class="cls-8" d="M36.6,5.93c-.09-.07-.18-.14-.26-.2,.16-.14,.32-.28,.47-.42,.27,.32-.02,.46-.21,.63Z"/><path class="cls-8" d="M24.19,9.17c.07-.06,.13-.11,.2-.17-.08,.04,.03,.31-.2,.17Z"/><path class="cls-7" d="M20.06,41.03c.1,.02,.21,.04,.31,.06-.17,.23-.21,0-.3-.08,0,0-.01,.01-.01,.01Z"/><path class="cls-3" d="M8.15,25.44c.07-.07,.14-.13,.21-.2-.08,.06,.06,.35-.21,.2Z"/><path class="cls-8" d="M3.86,29.25c.07-.06,.14-.12,.21-.18-.07,.06-.14,.12-.21,.18Z"/><path class="cls-5" d="M122.37,9.75c.08,.08,.16,.16,.24,.24-.08-.08-.16-.16-.24-.24Z"/><path class="cls-8" d="M10.28,57.91c-.56-.31-1.11-.63-1.67-.94,0-.09,.01-.18,.01-.28,.05,.02,.11,.03,.17,.03,3.15,1.84,7.3,2.49,9.19,1.6-1.39-.57-2.68-1.24-3.76-2.26,.4-.09,.71,.13,.98,.34,1.68,1.28,3.56,2,5.69,2.09,.38,.02,.75,.2,1.11,.39-2.93-.73-5.86,.65-8.79-.12-.58-.15-.78,.24-.78,.76,0,.91,0,1.82,0,2.73,.02,1.99,.55,3.86,1.37,5.66,.19,.43,.35,.87,.52,1.3,0,.08,0,.16,0,.23-.15-.17-.31-.34-.46-.51-.11-.54-.38-1-.7-1.44-.32-1.12-.63-2.24-.95-3.36-.09-1.17-.19-2.33-.28-3.5,.55-1.78,.44-2.03-1.2-2.63-.15-.05-.31-.07-.46-.11Z"/><path class="cls-1" d="M8.79,56.72c-.06,0-.11-.01-.17-.03-.1-.21-.44-.3-.27-.62,.3,.12,.5,.3,.44,.65Z"/><path class="cls-2" d="M142.73,59.15c.61-.72,1.12-1.83,2.35-.44-.05-.78-.32-1.33-.2-1.92,.18,2.02,1.37,2.47,3.27,2.55,4.27,.18,8.53,.45,12.81,.16,2.87-.2,5.74-.4,8.6-.79,1.25-.17,2.47-.58,3.75-.49-.28,.32-.66,.38-1.05,.49-3.69,1.03-7.41,1.84-11.24,2.16-3.38,.28-6.75,.69-10.16,.25-.94-.12-1.95-.28-2.89,.16-.17-.02-.33-.03-.5-.05-.17-.86-1.06-.1-1.41-.63-.24-.36-.34-.21-.6,.12-.54,.67-1.36,1.04-2.22,.77-.9-.28-.4-1.15-.52-1.75-.04-.19,0-.39,.01-.59Z"/><path class="cls-8" d="M147.96,61.29c.94-.44,1.96-.28,2.89-.16,3.41,.44,6.78,.03,10.16-.25,3.83-.32,7.55-1.12,11.24-2.16,.39-.11,.77-.17,1.05-.49,2.56-.6,5.05-1.45,7.65-1.88,0,.05,0,.1,0,.14-.42,.18-.84,.35-1.26,.53-.3,.04-.64-.1-.89,.17-1.19,.36-2.38,.71-3.57,1.07-1.29,.36-2.57,.72-3.86,1.08-1.68,.41-3.36,.83-5.04,1.24-.63,.01-1.26,.02-1.85,.3-1.21,.09-2.42,.18-3.61,.47-1.2-.14-2.37,.16-3.56,.24h-3.61c-1.2-.01-2.41-.02-3.61-.03-.67-.37-1.41-.17-2.12-.28Z"/><path class="cls-8" d="M186.03,54.88c2.3-.94,4.65-1.58,7.16-.98,.47,.11,.9,.3,1.18,.71-.07,.07-.13,.13-.2,.2-.23-.18-.44-.41-.77-.44-1.26-.69-2.56-.37-3.86-.17-1.1,.23-2.2,.46-3.29,.7-.08-.01-.15-.02-.23-.02Z"/><path class="cls-3" d="M186.03,54.88c.08,0,.15,0,.23,.02-.09,.08-.19,.17-.28,.25-1.28,.37-2.56,.73-3.84,1.1-.39,.08-.79,.17-1.18,.25,0-.05,0-.1,0-.14,1.61-.77,3.31-1.22,5.07-1.47Z"/><path class="cls-4" d="M195.05,59.12c-.66,.39-1.38,.58-2.15,.57-.53-.47,.4-.22,.25-.5,.42-.4,.84-.8,1.26-1.21,.04,0,.09,0,.13,0,.09,.48-.39,.69-.55,1.06,.37,.19,.75-.37,1.06,.08Z"/><path class="cls-8" d="M194.55,57.98s-.09,0-.13,0c.12-.33,.25-.65,.37-.97,.16-.83-.02-1.57-.6-2.2,.07-.07,.13-.13,.2-.2,1.09,1.3,1.14,2.37,.17,3.37Z"/><path class="cls-4" d="M72.42,92.11c-.41,.23-.82,.46-1.23,.69-1.18,.33-2.37,.65-3.55,.98-1.2,.1-2.4,.2-3.59,.3-1.11-.03-2.22-.05-3.33-.08,.62-.41,1.31-.19,1.97-.19,3.15,0,6.21-.45,9.11-1.73,.22-.1,.43-.24,.63,.02Z"/><path class="cls-2" d="M72.42,92.11c-.2-.25-.41-.12-.63-.02-2.9,1.28-5.96,1.72-9.11,1.73-.65,0-1.35-.22-1.97,.19-.08,.03-.16,.05-.24,.08-.17-.04-.33-.08-.5-.12,.18-.32,.03-.37-.28-.41-3.26-.36-6.26-1.44-9.03-3.19-.2-.13-.41-.42-.71-.14-.08,0-.16-.01-.24-.02-.16-.49-.83-.43-.99-.92,.2-.38-.14-.21-.26-.26-.36-.24-.7-.5-.92-.88,0-.19,.01-.38,.02-.57,2.39,.84,4.77,1.64,7.31,2.01,7.16,1.03,14.39-2.58,17.19-9.74,.98,1.64,.83,3.41,.84,5.42,1.52-1.86,2.46-3.68,2.86-5.77,.04-.22-.08-.53,.21-.63,.33-.12,.5,.2,.67,.39,1.66,1.84,2.77,3.95,3.17,6.4,.1,.61,.28,.87,.91,1,6.85,1.46,13.25-1.19,15.89-8.42,.73-2.02,1.2-4.09,1.47-6.32,1.13,.46,1.94,1.25,2.69,2.1,1.67,1.89,2.56,4.17,3.14,6.57,.18,.73,.53,.93,1.2,1.03,2.95,.42,5.53-.38,7.91-2.11,.65-.48,.24-.66-.04-.97-1.6-1.75-2.84-3.7-3.4-6.04-.1-.4-.13-.78-.02-1.29,1.2,.49,2.08,1.43,3.14,2.07,2.27,1.36,4.65,2.44,7.31,2.58,3.49,.17,6.39-1.38,8.95-3.58,3.37-2.91,4.97-6.68,5.15-11.09,.01-.26-.13-.65,.23-.71,.23-.04,.52,.14,.74,.29,.71,.49,1.06,1.26,1.56,2.19,.07-.51,.1-.82,.14-1.13,.28,.66,.05,1.4,.44,2.07,1.97-.8,2.6-2.55,3.05-4.38,.16-.64,.38-1.3,.29-1.99-.03-.21-.09-.52,.19-.62,.29-.11,.39,.17,.52,.36,.38,.55,.78,1.09,1.17,1.63,.17,1.72-.13,3.36-.88,4.92-.37,.78-1.16,1.33-1.24,2.26-.08,.25-.24,.41-.49,.49-1.08,.3-1.83,1.31-3.08,1.5,.3-.8,.28-1.49,.08-2.19-.19,2.55-1,4.87-2.41,6.99-.11,.16-.35,.38-.08,.62-.28,.43-.52,.9-.96,1.21-.41-.19-.18,.17-.24,.28-.3,.3-.61,.61-.91,.91-.27,.05-.7-.08-.52,.47-.81,.68-1.51,1.52-2.63,1.71-.24,.16-.49,.32-.73,.48-.46-.12-.62,.39-.98,.46-1.75,.19-3.44,.79-5.22,.86-.26,.01-.82-.37-.97,.27-.16-.01-.33-.02-.49-.04,.07-.14,.15-.38-.03-.37-.78,.03-1.55-.16-2.32-.19,1.39,.63,1.37,.61,.54,1.96-.24,.39-.79,.69-.55,1.3-.25,.32-.49,.64-.74,.96-.47,.21-.51,.91-1.11,.97-.38-.02-.56,.15-.53,.54-.07,.06-.14,.11-.21,.17-.46,.05-.91,.13-1.02,.7-.4,.17-.83,.29-1.19,.5-4.46,2.64-9.09,2.66-13.85,.95,.06-.09,.12-.17,.17-.26,0,0-.06-.04-.09-.06-.03,.1-.07,.21-.1,.31-.36,.02-.47,.24-.45,.56-.18,.47-.68,.56-1,.86-.18,.17-.36,.35-.54,.52-.34-.05-.59,.13-.87,.29-1.23,.71-2.47,1.4-3.83,1.87-4.28,1.46-8.54,1.16-12.81-.09-1.59-.47-3.04-1.32-4.69-1.6-.06,0-.11,0-.17,.02-.93,.28-1.58,.92-2.15,1.67-.17,.27-.46,.35-.74,.43Z"/><path class="cls-4" d="M49.96,90.24c.3-.28,.51,.01,.71,.14,2.77,1.75,5.78,2.82,9.03,3.19,.3,.03,.46,.08,.28,.41-1.04-.17-2.1-.24-3.11-.6-1.22-.29-2.43-.63-3.58-1.17-1.16-.57-2.34-1.11-3.34-1.96Z"/><path class="cls-8" d="M75.49,90c1.65,.28,3.11,1.13,4.69,1.6,4.27,1.26,8.53,1.55,12.81,.09,1.35-.46,2.6-1.16,3.83-1.87,.28-.16,.53-.35,.87-.29-.54,.39-1.07,.77-1.61,1.16-1.11,.5-2.22,1-3.32,1.5-1.18,.31-2.35,.65-3.58,.71-1.28,.04-2.57,.37-3.85,0-.62-.02-1.24-.05-1.86-.07-1.69-.46-3.38-.92-5.07-1.38-.92-.58-2.06-.72-2.91-1.44Z"/><path class="cls-2" d="M32.03,79.71c1.25,.46,2.48,1.02,3.76,1.37,2.09,.56,4.25,.72,6.42,.67,.42-.01,.85,.07,1.27,.1,.09,.18,.19,.35,.27,.53,.55,1.21,.49,1.21-.8,1.42-1.33,.21-2.66,.15-3.98,.23-.18-.28-.47-.22-.74-.26-1.74-.3-3.49-.58-4.98-1.62v-.02c-.36-.83-1.07-1.47-1.21-2.4,0,0,.01,0,.01,0Z"/><path class="cls-4" d="M140.33,66.1c.09-.93,.87-1.48,1.24-2.26,.75-1.56,1.05-3.2,.88-4.92,.02-.38,.04-.76,.05-1.14,.05,0,.11,0,.16,0,.02,.46,.04,.93,.07,1.39,0,.2-.05,.4-.01,.59,.11,.61-.39,1.47,.52,1.75,.86,.27,1.68-.1,2.22-.77,.26-.33,.37-.48,.6-.12,.35,.53,1.24-.23,1.41,.63-.31-.04-.63-.08-.94-.11-1.35,.08-2.54,.85-3.9,.92-.28,.71-.56,1.43-.85,2.14-.53,.6-.8,1.4-1.45,1.91Z"/><path class="cls-4" d="M38.96,84.03c1.33-.08,2.65-.02,3.98-.23,1.29-.21,1.35-.21,.8-1.42-.08-.18-.18-.35-.27-.53,.09-.65-.47-1.26-.07-2,.18,1.51,.88,2.79,1.27,4.17-.08,0-.15,0-.23,0-.65-.02-1.3,0-1.91,.26-1.19,0-2.38,0-3.57,0v-.07c0-.06,0-.12,0-.18Z"/><path class="cls-3" d="M44.45,84.02c.08,0,.15,0,.23,0,.79,.86,1.41,1.84,1.93,2.89,0,.08,0,.16,0,.23l-.47-.32c-.02-.53-.56-.72-.76-1.13-.31-.56-.62-1.11-.94-1.67Z"/><path class="cls-2" d="M32.94,82.36c-.59-.04-.93-.51-1.39-.78,.74-.38,1.05,.57,1.68,.55,0,0,0,.02,0,.02-.1,.07-.2,.14-.3,.21Z"/><path class="cls-4" d="M47.57,87.59c0,.19-.01,.38-.02,.57-.24-.26-.48-.52-.72-.77l.06-.06c.26,0,.51,.02,.68,.26Z"/><path class="cls-2" d="M32.02,79.72c-.06-.09-.12-.18-.18-.26,.03-.02,.06-.04,.09-.06,.03,.11,.06,.21,.09,.32,0,0-.01,0-.01,0Z"/><path class="cls-1" d="M116.22,63.44c.12,.09,.24,.26,.1,.34-.18,.11-.17-.13-.23-.23,.05-.03,.09-.07,.13-.11Z"/><path class="cls-4" d="M46.61,87.14c0-.08,.01-.16,0-.23,.21,.06,.27,.23,.28,.42,0,0-.06,.06-.06,.06-.07-.08-.15-.16-.22-.25Z"/><path class="cls-4" d="M17.7,73.01c-.26-.23-.53-.46-.79-.69,.53,.05,.98,.22,1.25,.71-.09,0-.18,0-.27,.01-.06,0-.13-.02-.19-.03Z"/><path class="cls-4" d="M15.29,70.69c-.32-.27-.64-.54-.75-.97,.66,0,.68,.51,.75,.97Z"/><path class="cls-4" d="M14.54,69.72c-.07-.09-.14-.18-.21-.27,0-.08,0-.16,0-.23,.21,.11,.24,.29,.2,.5Z"/><path class="cls-8" d="M128.6,19.73c.38,.36,.98,.31,1.32,.75-1.38-.52-2.29-.32-2.31,1.42,0,.28-.14,.69-.55,.81,1.17-3.93-.03-7.33-2.29-10.5-.25-.35-.53-.7-.49-1.17,.25,.22,.49,.45,.74,.67,.48,.78,.95,1.55,1.43,2.33,.41,1.19,.83,2.38,1.24,3.58,.18,.76-.27,1.8,.92,2.12Z"/><path class="cls-4" d="M136.68,30.52c.03,.48,.06,.96,.09,1.44,.18,.64-.58,1.51,.47,1.93-.35,.27-.77,.34-.74-.22,.06-1.05-.31-2.13,.17-3.15Z"/><path class="cls-8" d="M73.17,91.68c.57-.74,1.22-1.39,2.15-1.67-.17,.22-.34,.45-.51,.67-.56,.31-.99,.84-1.64,1Z"/><path class="cls-4" d="M110.69,88.36c-3.62,1.09-7.21,.82-10.78-.24-.23,.01-.46,.02-.69,.04-.02-.33,.09-.54,.45-.56l.02,.02c4.75,1.71,9.39,1.69,13.85-.95,.37-.22,.79-.34,1.19-.5,0,0,.04,.04,.04,.04-.11,.39-.57,.37-.76,.67-1.1,.5-2.21,1-3.31,1.49Z"/><path class="cls-4" d="M135.57,71.61c-.39,.64-.68,1.34-1.22,1.89-.27-.24-.03-.46,.08-.62,1.41-2.12,2.22-4.44,2.41-6.99,.19,.7,.21,1.4-.08,2.19,1.26-.19,2.01-1.2,3.08-1.5-.17,.22-.33,.44-.5,.66-1.92,.74-3.25,1.98-3.57,4.1-.14,.04-.22,.11-.19,.26Z"/><path class="cls-4" d="M121.42,80.24c-.08-.03-.15-.05-.23-.08,.15-.64,.71-.26,.97-.27,1.78-.07,3.46-.68,5.22-.86-.7,.53-1.62,.49-2.37,.91-1.2,.1-2.39,.2-3.59,.3Z"/><path class="cls-4" d="M120.7,80.12c-1.12,.18-1.17,1.27-1.68,1.98-.23,.24-.46,.48-.69,.72-.24-.61,.31-.91,.55-1.3,.83-1.35,.86-1.33-.54-1.96,.77,.03,1.54,.23,2.32,.19,.18,0,.11,.24,.03,.37Z"/><path class="cls-4" d="M115.74,85.46c-.03,.07-.05,.15-.06,.23-.31,.17-.61,.34-.92,.51,0,0-.04-.04-.04-.04,.11-.57,.55-.65,1.02-.7Z"/><path class="cls-4" d="M132.18,76.12c-.15,.08-.3,.17-.46,.25-.19-.55,.25-.42,.52-.47-.03,.07-.05,.14-.06,.22Z"/><path class="cls-4" d="M116.49,84.75c-.18,.18-.36,.36-.53,.54-.03-.38,.16-.55,.53-.54Z"/><path class="cls-4" d="M133.39,74.71c0,.07,0,.15-.02,.22-.08,0-.15,.03-.22,.06,.06-.11-.17-.47,.24-.28Z"/><path class="cls-4" d="M99.67,87.59c.03-.1,.07-.21,.1-.31,.03,.02,.09,.06,.09,.06-.05,.09-.11,.18-.17,.26,0,0-.02-.02-.02-.02Z"/><path class="cls-4" d="M48.53,89.26c0-.08-.03-.15-.06-.23,.13,.05,.47-.13,.26,.26-.07-.01-.13-.02-.2-.03Z"/><path class="cls-8" d="M38.97,84.21c-1.2-.21-2.39-.42-3.59-.63-.77-.49-1.78-.52-2.44-1.22,.1-.07,.2-.14,.3-.21,1.5,1.05,3.24,1.33,4.98,1.62,.27,.05,.56-.02,.74,.26,0,.06,0,.12,0,.18Z"/></svg>