<?xml version="1.0" encoding="UTF-8"?><svg id="Capa_1" xmlns="http://www.w3.org/2000/svg" viewBox="0 0 61.92 85.31"><defs><style>.cls-1{fill:#eaf4f2;}.cls-2{fill:#f6bed8;}.cls-3{fill:#fff1c3;}.cls-4{fill:#fff;}.cls-5{fill:#ffe8c0;}.cls-6{fill:#e67aad;}.cls-7{fill:#fcd38f;}.cls-8{fill:#a23017;}.cls-9{fill:#c0dfcc;}.cls-10{fill:#df3b13;}.cls-11{fill:#20ad83;}.cls-12{fill:#1d1d1b;}.cls-13{fill:#2e2a26;}</style></defs><path class="cls-3" d="M27.66,41.5c0,.12-.26,.46-.42,.67l-.17,.22,.09,.05c3.61,1.95,7.21-.06,7.24-.09l.04-.04-.02-.05s-.1-.22-.48-.8l-.05-.08-.08,.06c-2.96,2.32-4.63,1.05-5.84,.11l-.3-.23v.19Z"/><path class="cls-3" d="M32.34,36.77c.03,.25-.03,.44-.18,.52-.16,.08-.37,.02-.55-.15h0s-.01-.02-.01-.02c-.19-.09-.35,.03-.5,.14-.13,.1-.26,.19-.4,.17-.1-.02-.16-.09-.23-.17-.15-.17-.34-.37-.85-.05-.09,.04-.18,.04-.26,0-.16-.09-.21-.34-.21-.34l-.05-.24-.16,.28c-.25,.43-.59,1.01-.81,2.73-.24,1.4-.37,1.65-.37,1.66l-.03,.06,.05,.05c.1,.1,.62,.59,.95,.46,.02,0,.05-.02,.07-.04,.06,.31,.11,.45,.23,.46,.07,0,.12-.04,.17-.13,.17,.37,.64,.54,1.47,.54,.88,0,1.36-.31,1.56-.61,.05,.1,.12,.17,.2,.17,.09,0,.2-.08,.27-.39,.01,.04,.03,.1,.03,.15v.14s.13-.07,.13-.07c.08-.04,.8-.43,.94-.67l.02-.03-.06-.24c-.12-.53-.27-1.13-.27-1.88,0-.9-.1-2.14-1-2.61l-.16-.08,.02,.18Z"/><path class="cls-7" d="M29.5,37.27s-.8,.86-1.34,2.07c0-.93,.81-2.63,.92-2.69,.15,.47,.06,.64,.42,.62Z"/><path class="cls-3" d="M23.41,31.26c-1.9,2.05-2.73,6.32-2.92,8.51v.03s.01,.03,.01,.03c.9,1.34,3.29,2.55,4.26,2.57,.39,0,.66,.02,.66,.02l.14,.02c.31,.05,.7-.05,.7-.05l.25-.02c1.24-.1,1.43-1.6,1.6-2.92,.08-.65,.16-1.27,.35-1.7,.22-.56,.64-1.09,.63-1.07-.02,.04-.03,.08-.03,.12,0,.04,0,.07,.02,.1,.12,.21,.23,.31,.35,.34,.14,.03,.26-.06,.36-.13,.09-.07,.17-.12,.26-.11,.1,.02,.2,.11,.29,.2,.12,.11,.24,.23,.4,.22,.1,0,.19-.06,.28-.17,.22-.23,.43-.16,.67-.07,.11,.04,.23,.08,.35,.08,.11,0,.18-.05,.22-.14,.02-.04,.02-.09,.02-.14,0-.14-.06-.32-.14-.47,1.19,.51,1.26,1.64,1.32,2.85l.06,.94c.22,1.97,1.61,2.33,1.77,2.36l.26,.06s.03-.11,.37,.04c.25,.11,.47,.12,.59,.02l.25-.05c4.63-.65,5.49-2.37,5.42-5.11-.07-2.43-1.42-5.54-1.43-5.58l-.02-.05h-.06c-10.34-.02-12.92-.3-15.2-.55-.64-.07-1.25-.14-2-.19h-.04s-.03,.03-.03,.03Z"/><path class="cls-7" d="M38.79,42.34s2.51-1.38,2.42-3.24c-.1-1.85-.7-2.51-.72-2.61-.02-.1,.27-.35,.27-.35l-.72-.99c-.64,.53-2.57,.99-4.74,.94,.49,.84,1.66,.88,1.66,.88-1.19,.02-2.75-.18-3.88-.99-.39-.21-1.09-.02-.92,.51,1.03,.58,1.27,1.46,1.31,2.34-.37-.74-1.21-1.58-1.21-1.58-.57,.04-.82-.21-.97-.06-.16,.16-.27,.18-.27,.18,0,0,.06-1.52,.04-1.62-.02-.1-1.34,.43-1.73,.06-1.13,.41-.76,.72-3.16,.29-1.62-.04-2.67-.64-3.53-1.19-.86,.53-1.58,1.52-1.58,1.52,.18-.9,1.23-4.35,2.48-5.22,1.97,.21,8.75,.72,11.28,.72s6,.08,6,.08c.29,.6,1.99,5.16,1.21,7.62-.78,2.46-3.24,2.73-3.24,2.73Z"/><path class="cls-4" d="M32.75,33.7l-.07,.02v.07s0,0,0,.02c0,.06-.01,.23-.13,.37-.12,.06-.21,.08-.28,.04-.1-.05-.14-.22-.14-.28v-.1s-.09,.01-.09,.01l-.15,.03-.55,.11v.08c0,.32,.21,.85,.73,1.29,.46,.38,1.28,.8,2.62,.62,1.46-.2,2.31-1.15,2.62-1.98,.15-.39,.16-.73,.04-.87l-.03-.03h-.04c-2.64-.05-4.51,.59-4.53,.6Z"/><path class="cls-4" d="M25.6,32.93c-.29,.48-.27,1.12,.06,1.71,.37,.66,1.2,1.37,2.43,1.39,1.98,.02,2.69-1.84,2.69-1.86l.02-.06-.04-.04c-.23-.23-.75-.28-.77-.29h-.08s-.02,.07-.02,.07c-.02,.1-.09,.28-.17,.28-.07,0-.14-.04-.17-.09-.03-.06-.02-.13,.03-.22l.06-.09-.1-.04c-1.14-.47-3.02-.79-3.87-.81h-.05s-.03,.04-.03,.04Z"/><path class="cls-13" d="M22.23,24.36c-.27,0-2.67,.19-9.98,1.02-6.68,.76-11.92,2.15-11.98,2.84-.05,.57,1.37,.92,5.06,1.23l4.27,.34,7.85,.63c5.4,.91,16.79,1.44,19.55,1.54h.19s-1.82-2.42-1.82-2.42h-.05c-7.59,.15-13.37-1.7-13.65-2.06-.15-.25,.13-1.57,.64-3l.04-.12h-.13Z"/><path class="cls-13" d="M33.81,1.54c-.41,.29-.81,.56-1.08,.71-1.08,.58-2.48,1.71-5.56,7.8-2.89,6.99-3.62,10.37-3.63,10.4v.06s.04,.03,.04,.03c.07,.04,1.84,1.08,10.56,1.42h.1s0-.1,0-.1c-.05-.77,.07-1.65,.38-2.61,.33-1.03,.47-3.03,0-4.96-.42-1.72-.34-2.36-.34-2.36l.05-.34-.25,.32c-.19,.24-.3,.39-.68,1.86-.11-.86-.32-2.72-.32-4.12,0-.5,.03-.93,.1-1.25,.14-.64,.91-1.95,1.73-3.34,1.03-1.75,2.1-3.55,2.1-4.37,0-.08,0-.14-.03-.2-.06-.17-.16-.28-.31-.33-.6-.2-1.79,.64-2.85,1.37Z"/><path class="cls-10" d="M23.38,20.62c-.12,.08-.18,.25-.2,.55h0s-.05,.7-.16,.8c-.18,.17-.2,.46-.2,.84,0,.04-.07,.44-.07,.44l-.29,.92c-.45,1.35-.84,2.6-.84,3.05,0,.03,0,.06,0,.09,.12,.66,4.75,1.62,7.88,2,4.07,.39,7.05,.16,8.85-.11,1.88-.28,2.36-.7,2.36-1.3,0-.07,0-.88,0-.96,0-.17-.04-.32-.2-.44-.11-4.16-.25-4.41-.56-4.62l-.03-.02h-.04s-1.29,.21-5.44,.14c-5.55-.09-9.14-.84-10.06-1.13l-.39-.15c-.26-.11-.46-.19-.61-.09Z"/><path class="cls-8" d="M34.16,22.01s.59,4.1,.52,6.38c.57,.84,.71,1.09,.71,1.09,2.26,.21,5.22-.25,5.4-1.23,.18-.98,0-2.28-.09-2.6-.27-.52-.32-1.12-.32-1.78s-.02-1.98-.66-2.16c-.64-.18-5.56,.3-5.56,.3Z"/><path class="cls-2" d="M23.3,31.23l-.15-.02s-1.13-.16-2.92-.36h-.05s-.03,.03-.03,.03c-.02,.02-.04,.04-.06,.07l-.1-.03c-1.49-.42-5.5-.68-7.21-.79l-.47-.03-.03,.02c-.15,.12-1.43,1.24-1.48,1.83l-.02,.22s-.33,.9-.33,1.28c0,.07,0,.14,.01,.2,.06,.43,.3,.73,.51,.8l.12,.04s.11,.56,.22,.72l.1,.14,.06-.16c.07-.18,.15-.35,.23-.52-.15,.35-.2,.66-.2,.91,0,.2,.03,.37,.07,.52l.1,.35,.08-.36c.23-1.02,1.12-2.31,1.8-2.96-.73,1.02-.91,1.74-.91,2.3,0,.29,.05,.54,.09,.76,0,0,.24,1.29,.98,2.08,0,0,.93,.86,1.27,1.01l.2,.09-.08-.21c-.08-.23-.15-.45-.2-.68,.13,.36,.32,.7,.59,1.02l.06,.08s.31,.18,.34,.23c0,0,.43-.47,.75-.07l.22,.28s.49,.59,.73,.74l.29,.17s.34,.08,.39,.12l.14,.1v-.18s.11,.03,.18,.03h.13s.47,.96,.8,1.04l.17,.04-.06-.16c-.07-.18-.18-.59-.21-.95,.23,.45,.68,.84,.98,1.05l.17,.12-.02-.21c-.64-5.8,2.62-10.54,2.65-10.59l.09-.12Z"/><path class="cls-6" d="M21.21,35.75s-.33-2.01-.79-2.06c-.45-.05-1.1,1.31-1.24,1.31-.66,.05-1.57,.21-2.2,.31l.19-.56s-1.73-2.26-5.49-4.06c.54-.58,.65-.61,.65-.61,0,0,5.88,.44,7.97,.77,2.29,.3,3.04,.35,3.04,.35-.51,.75-1.59,2.34-2.13,4.55Z"/><path class="cls-6" d="M50.78,34.93l.18-.04c-.09-1.58-1.81-3.18-1.88-3.25l-.03-.03h-.04s-2.67,.14-4.7,.16h-.2s-3.17,.25-3.2,.25h-.13s.05,.13,.05,.13c1.87,4.61,1.33,7.19,1,8.73v.04s.16,.07,.16,.07c.77,.17,1.5-.85,1.5-.85,.45-1.17,.75,1.45,.75,1.45l.29-.21,.28-.15c.76-.41,1.03-.33,1.03-.33,.35-.23,.61-.19,.61-.19,.61-.3,1.1-.76,1.1-.76l.21-.19c.79-.7,1.08-1.54,1.08-2.4,0-.63-.16-1.26-.4-1.87,0,0,0,.01,.01,.02l.17-.07c-.23-1.15-.77-2.36-1.29-3.18,.5,.39,1.34,1.28,1.91,1.9l.68,.73-.08-.34c-.19-.81-.88-1.62-1.39-2.21,0,0-.05-.06-.09-.1,1.13,.44,1.92,1.32,2.41,2.68Z"/><path class="cls-2" d="M48.34,34.3s-3.93,2.87-4.12,2.99c-.13-1.55-.94-2.53-.98-2.53s-.29-.03-.29,0-.03,1.36-.15,1.55c-.11,.2-.65,.75-.65,.75,0,.23,.18,2.15-.45,3.78,.36,1.01,1.53,.39,2-.21,.47-.6-.22,1.56,1.22,1.09,1.44-.47,2.98-2.07,3.26-2.45,.29-.38,.79-1.26,.57-2.51-.11-.73-.13-.87-.13-.87,0,0-.15-1.18-.29-1.6Z"/><g><ellipse class="cls-11" cx="29.83" cy="67.46" rx="17.91" ry="17.86"/><path class="cls-9" d="M15,57.43s-.5,2.4,3.53,3.67c4.04,1.28,5.06-1.04,11.18-1.25,6.12-.21,8.67,7.79,9.16,9.69,0,0,1.76,6.93-5.91,11.5-7.68,4.57-14.57,.14-14.57,.14,0,0-4.68-3.49-6.05-9.84-1.37-6.36,.86-11.32,2.67-13.91Z"/><ellipse class="cls-1" cx="35.61" cy="64.38" rx="4.52" ry="4.47"/><path class="cls-1" d="M43.79,74.45s-2.38,3.78-4.38,4.81l-1.08-.81s3.57-3.46,4.11-4.97c.97,.49,1.35,.97,1.35,.97Z"/><path class="cls-1" d="M16.4,64.29s-1.08,4.97,1.24,9.24c-1.3,.59-2.22,1.13-2.22,1.13,0,0-2.92-3.94-1.62-10.64,1.08,0,2.59,.27,2.59,.27Z"/><path class="cls-1" d="M18.08,60.67s-1.08,1.46-1.08,2.32c-1.4-.22-2.59-.65-2.59-.65,0,0,.86-2.38,1.46-2.97,1.03,.81,2.22,1.3,2.22,1.3Z"/></g><path class="cls-13" d="M13.06,37.86c-.44,.34-1.05,2.97-1.05,5.68,0,.64,.03,1.29,.11,1.91,.42,3.25,1.3,4.6,3.37,5.14,2.64,.44,4.16,2.05,4.54,2.49-.22,.03-.69,.06-1.35-.09l-.05,.17c.69,.27,1.09,.55,1.44,.79,.26,.18,.49,.34,.78,.45,.69,.26,4.82,.31,5.59,.21h.07s.01-.08,.01-.08c.13-.79,1.07-2.34,1.64-3.27l.35-.58v-.02c.1-.58,.18-.72,.31-.96l.5-.24c1.03-.47,1.34-.35,2.02-.09l.39,.12c.5,.44,.91,1.64,1.34,2.91,.21,.61,.42,1.24,.65,1.8l.02,.05h.06c.07,0,1.8,.07,2.5,.02h.01s.01,0,.01,0c3.87-1.49,5.21-3.29,5.8-4.1,.22,.04,.94,.13,1.21-.18,.07-.08,.1-.19,.1-.32s-.03-.29-.1-.48c0,0-.06-.18-.13-.34,.48,.17,1.37,.45,1.6,.32l.08-.1c.22-4.04-.75-6.97-1.81-7.48l-.04-.02-.04,.02c-6.85,3.91-11.31,3.61-12.52,3.43-1.05-.16-1.84-.63-2.68-1.13-.89-.53-1.82-1.09-3.11-1.26-1.99-.33-3.99-1.76-4.01-1.77l-.16-.11v.19s.05,.59,.05,1.11c0,.12,0,.23,0,.34-.21-.16-.51-.56-.67-.83l-.17-.27v.73c-.33-.04-.64-.3-.96-.58-.25-.22-.5-.44-.78-.57h0s0,0,0,0c-.59-.13-1.44-1.28-1.79-2.05l-.18,.04s.03,.87,.04,1.09c-.11-.04-.28-.13-.52-.32h-.01s-.01-.01-.01-.01c-.39-.15-.96-.65-1.46-1.09-.3-.27-.59-.52-.83-.68l-.05-.04-.05,.04Z"/><path class="cls-5" d="M33.35,53.62c-.03-.12-.74-3.05-1.42-3.71-.72-.7-1.89-1.02-2.87-.17h0c-.44,.42-.63,.79-.51,1,.03,.05-.2,.19-.2,.19-.12,.41-1.04,1.96-1.27,2.19-.28,.28-.34,.71-.34,.77v.06l.05,.02s.28,.12,.49-.03c.06-.06,.08-.15,.09-.25,0,0,0-.02,0-.02,.14,.83,.78,1.31,1.18,1.54,.47,.26,.98,.39,1.18,.28l.05-.02s0,.1,.05,.2c.05,.09,.27,.38,.97,.33,1.06-.07,1.96-1,2-1.73,.01-.22,.07-.37,.18-.46,.12-.1,.27-.08,.28-.08l.13,.02-.03-.13Z"/><path class="cls-12" d="M40.53,24.98c-.03-2.23-.09-2.83-.63-3.39-.41-1.57-2.45-10.27-3.61-12.69-.06-.79,1.16-4.68,1.23-6.5,.06-1.82-.36-2.21-.38-2.23,0,0-.41-.72-2.83,.88-2.67,1.57-3.46,2.04-5.72,6-2.2,3.99-2.95,5.87-4.02,9.42-1.04,3.27-1.19,4.11-1.19,4.11-.16,0-.47,.16-.31,1.1-.35,.47-.38,.85-.38,1.48-.38,.63-.44,1.19-.44,1.19-1.1-.09-19.13,1.44-22.17,3.71-.72,.88,3.83,1.57,12.12,2.01-.82,.72-1.85,1.51-1.85,3.11s.72,.82,1.26,3.71c.31-1.1,.69-2.14,1.22-2.61-.63,1.54-.22,2.23,.16,3.3-.44,.91-1.22,2.67-1.04,6.69,.19,4.02,1.01,5.28,2.7,7-.5,1.73-.57,6.31,3.71,6.88,4.27,.57,4.77-1.29,12.56-.91,7.79,.38,3.67,1.48,10.8,1.38,2.73-.09,4.05-4.21,3.2-7.22,1.22-.94,4.49-5.72,3.27-12,.69-.88,1.04-2.04,.47-3.39,.28-.66-.44-2.45-1.04-3.33,1.35,1.07,2.58,2.36,2.76,5.28,.47-.88-.25-4.08-1.66-5.4,1.26,.57,2.32,2.42,2.36,3.74,.22-2.04-1.07-3.93-1.79-4.52,2.26-.25,12.31-.66,12.63-2.32,.31-1.67-15.23-3.77-21.39-4.46Zm-4.64,17.04c.19,.37,.44,.66,.59,.69-.09,.07-.29,.06-.5-.04-.49-.21-1.06-.83-1.18-1.93-.04,.02-.07,.07-.09,.14-.07,.37,.3,1.33,.61,1.69-.15-.03-1.48-.38-1.7-2.28l-.06-.94c-.06-1.33-.12-2.59-1.65-3.04,.18,.18,.35,.59,.27,.77-.02,.06-.07,.09-.14,.09-.1,0-.2-.04-.31-.08-.24-.08-.51-.18-.77,.1-.07,.09-.15,.13-.22,.14-.12,0-.22-.09-.33-.19-.1-.09-.21-.19-.33-.22-.12-.03-.23,.05-.33,.12-.09,.07-.18,.14-.29,.11-.09-.02-.19-.11-.29-.28-.02-.04-.02-.09,0-.14,.1-.23,.59-.47,.76-.52-.09-.02-.89-.17-1.55,1.52-.19,.44-.27,1.07-.36,1.73-.17,1.35-.35,2.75-1.52,2.84,.34-.34,.67-1.23,.41-1.83l-.02,.19c-.05,.42-.13,1.22-.59,1.56-.19,.15-.44,.2-.72,.15,.3-.45,.59-.92,.57-1.27l-.06,.15c-.2,.46-.46,1.09-1.32,1.07-.95-.02-3.3-1.22-4.18-2.53,.19-2.18,1.01-6.43,2.89-8.46,.75,.06,1.35,.12,2,.19,2.28,.25,4.87,.54,15.21,.55,.01,.03,1.36,3.13,1.42,5.54,.06,2.24-.3,4.31-5.34,5.02-.05,.02-.11,.01-.19-.03-.28-.14-.68-.68-.9-1.74-.11,.26-.04,.69,.2,1.14Zm-3.46-5.26c.85,.45,.95,1.66,.95,2.53,0,.76,.14,1.37,.27,1.9l.05,.2c-.13,.22-.9,.63-.9,.63,0,0-.02-.34-.18-.34-.03,.31-.11,.49-.2,.49-.09,0-.17-.17-.18-.38-.02,.34-.53,.81-1.58,.81-.96,0-1.42-.24-1.45-.75-.07,.23-.13,.34-.18,.33-.09,0-.15-.36-.19-.64v-.06c-.02,.15-.06,.25-.15,.29-.2,.08-.57-.17-.85-.44,0,0,.14-.24,.38-1.7,.21-1.69,.55-2.27,.8-2.69l.04-.07s.06,.3,.26,.41c.1,.05,.22,.05,.35,0,.44-.28,.59-.13,.74,.03,.08,.08,.16,.17,.28,.19,.18,.03,.33-.08,.47-.18,.14-.1,.27-.2,.41-.13,.21,.2,.46,.26,.65,.16,.18-.09,.27-.32,.23-.61Zm-4.53,4.86c1.24,.95,2.94,2.25,5.96-.11,.38,.58,.47,.79,.48,.79-.02,.03-3.57,1.99-7.12,.07l.11-.14c.19-.25,.44-.57,.44-.72l.15,.11Zm-7.43,.34c-.38-.28-1.03-.85-1.09-1.47-.18,.45,.18,1.46,.18,1.47-.3-.08-1.06-1.08-1.04-3.01,.02-1.94,1.19-5.19,2.08-6.29-.18,.05-.56,.62-.94,1.38-.99,1.97-1.79,4.82-1.05,6.88-.22,0-.27-.13-.27-.14v.2c-.08-.05-1.92-1.36-.45-5.02-.48,.34-1.26,2.78-.23,4.73-.23-.14-.56-.56-.72-1.3-.17-.77-.25-2.39,1.15-4.49-.39,.34-1.76,2.17-1.36,4.8-.64-.81-1.57-3.28,3.48-8.75,1.79,.2,2.91,.36,2.92,.36-.03,.05-3.32,4.82-2.67,10.65Zm6.78-31.87c3.06-6.06,4.46-7.18,5.52-7.76,.28-.15,.67-.43,1.09-.72,.99-.69,2.21-1.54,2.77-1.36,.12,.04,.21,.13,.26,.27,.21,.64-.94,2.6-2.06,4.49-.82,1.4-1.6,2.71-1.74,3.37-.33,1.51,.28,5.83,.29,5.87,.48-1.9,.59-2.04,.79-2.29l.04-.05s-.09,.64,.34,2.4c.47,1.91,.33,3.89,0,4.91-.31,.97-.44,1.86-.38,2.65-8.7-.34-10.5-1.39-10.52-1.4,0-.03,.73-3.41,3.62-10.38Zm-4.71,14.1l.27-.86c.54-.09,1.15,0,2,.12,1.08,.16,2.56,.37,4.85,.37-.08,.04-.31,.06-.56,.09-.33,.03-.7,.06-.77,.16-.01,.02-.01,.03,0,.05,.07,0,1.67,.19,2.02-.11,.04-.04,.07-.08,.07-.13-.12-.12-1.05-.2-2.45-.31-1.34-.1-3.19-.25-5.06-.51v-.13c0-.41,0-.73,.17-.89,.09-.08,.23-.11,.42-.09,.3,.03,.66,.12,1.01,.21,.38,.09,.73,.18,.96,.18-.24-.08-.51-.15-.78-.21-.75-.17-1.45-.33-1.42-.94,.01-.27,.06-.42,.16-.48,.12-.07,.3,0,.53,.1l.4,.15c.92,.29,4.53,1.05,10.09,1.13,4.16,.07,5.44-.13,5.45-.14,.28,.19,.41,.44,.52,4.59,.23,.15,.21,.34,.19,.62-.01,.15-.03,.33,0,.53,.1,.66-.24,1.1-2.26,1.4-1.78,.27-4.76,.51-8.82,.11-3.77-.45-7.71-1.42-7.8-1.92-.07-.36,.48-2.01,.83-3.09Zm-12.94,5.52l-4.27-.34c-3.53-.3-5.01-.64-4.98-1.13,.05-.57,5.06-1.98,11.9-2.76,7.31-.83,9.71-1.02,9.97-1.02-.46,1.29-.83,2.75-.63,3.08,.21,.36,6,2.26,13.73,2.1l1.67,2.24c-2.75-.09-14.13-.63-19.54-1.54l-7.86-.63Zm3.24,6.51v-.04c-.15-.69-.33-1.63,1.18-3.49-.67,.29-2.05,2.04-2.35,3.39-.13-.47-.54-1.91,3.66-5.18-.35-.05-2.92,1.64-3.94,4.25-.42-.6-.17-2.57,2.31-4.61-.46,.19-2.65,1.77-2.69,3.82-.14-.04-.39-.28-.45-.72-.08-.56,.14-1.71,2.39-3.17-.43,.11-1.19,.76-1.7,1.19l-.36,.3c.04-.56,1.43-1.75,1.45-1.76l.43,.03c1.71,.11,5.71,.37,7.19,.79-.05,.05-4.85,5.04-3.98,8.75-.21-.29-1.97-2.9,1.33-6.42-.27,.06-1.09,.87-1.64,2.03-.48,1.02-.88,2.58-.03,4.16l-.07-.08c-1.75-2.09-.26-5.09,1.29-7.24-.42,.27-3.2,3.27-1.83,6.99-.2-.09-1.06-.74-1.25-2.02-.18-1.27,.31-3.4,3.69-6.33-.13-.04-1.03,.62-1.92,1.61-1.06,1.18-2.69,3.49-1.77,5.74-.48-.45-.72-1.02-.74-1.72-.03-1.55,1.09-3.5,3.34-5.79-.22,0-2.86,2.04-3.55,5.52Zm16.84,19.2c-.15,.08-.62-.02-1.09-.28-.41-.23-1.11-.76-1.16-1.68-.03-.01-.06,0-.08,0-.05,.03-.07,.13-.08,.23-.01,.08-.02,.15-.05,.19-.16,.12-.39,.02-.4,.02,0-.05,.06-.45,.31-.71,.24-.24,1.16-1.79,1.29-2.23,.49,.02,.65-.03,.92-.27,.08-.07,.77-.69,1.25-.42,.15,.09,.23,.2,.22,.33-.02,.24-.33,.5-.89,.73-.87,.26-1.02,.52-.98,.85,.02,.16,.16,.34,.36,.47,.26,.17,.56,.22,.81,.14l.29-.1c.45-.17,.91-.34,1.08,.02,.06,.12,.05,.23-.03,.35-.16,.25-.63,.44-.93,.44h-.12c-.45,0-1.2-.01-1.24,.5-.02,.22,.06,.42,.22,.59,.21,.23,.55,.37,.91,.37,.33,0,.52-.11,.67-.19,.13-.07,.23-.13,.37-.1,.08,.01,.12,.05,.12,.11,0,.15-.31,.42-.78,.49l-.36-.02c-.24-.02-.48-.05-.58,.04-.04,.03-.06,.07-.06,.13Zm3.24-1.67c-.13,.1-.2,.28-.22,.53-.04,.69-.9,1.58-1.92,1.64-.64,.04-.84-.21-.88-.29-.04-.07-.04-.14-.01-.19,.03-.04,.07-.05,.13-.05,.7,.18,1.49-.17,1.65-.48,.05-.1,.04-.2-.05-.27-.22-.2-.33-.15-.55-.05-.16,.07-.37,.16-.72,.2-.5,.02-.71-.22-.79-.36-.11-.2-.11-.45,0-.62,.07-.11,.18-.16,.31-.15,.45,.05,1.29,.15,1.71-.48,.17-.26,.17-.53,0-.73-.17-.2-.46-.27-.71-.17l-.18,.08c-.46,.2-.93,.41-1.32,.03-.15-.15-.21-.29-.18-.41,.05-.2,.34-.38,.95-.57,.53-.15,.84-.46,.82-.84,0-.29-.22-.54-.49-.6-.35-.07-.64,.17-.92,.4-.19,.16-.37,.31-.57,.37-.18,.05-.3,.03-.35-.05-.07-.12,.02-.43,.5-.88,.94-.82,2.06-.5,2.75,.17,.66,.64,1.39,3.63,1.4,3.66,0,0-.19-.03-.34,.1Zm11.86-4.66l-.04,.04c-.26,.14-1.73-.4-1.75-.41,0,0,.14,.25,.24,.53,.12,.34,.12,.58,.01,.71-.27,.31-1.17,.14-1.18,.14-.56,.78-1.87,2.61-5.79,4.12-.69,.05-2.47-.02-2.49-.02-.23-.55-.44-1.19-.65-1.8-.44-1.28-.85-2.5-1.36-2.95l.6-.24c1.68-.67,2.9-1.16,4.81-.47-.6-.51-1.1-.86-1.11-.86,0,0,.05-.11,.23-.18,.24-.09,.73-.09,1.67,.38l.19,.07c.98,.35,1.69,.6,2.05,.43,.11-.05,.18-.14,.22-.27l-.29,.14-.99-1c.45,.02,.72-.02,.72-.02-.25-.16-2.51-.05-2.53-.05,.02-.02,1.56-2.04,1.67-2.47-.44,.51-1.25,1.56-1.68,2.13l-.31,.4h-.04c-.45-.07-.75-.11-1.59,.63l-.33,.07c-.93,.2-1.99,.43-3.58,1.19l-.13-.05c-.68-.26-1.02-.4-2.09,.09-.42-.74-2.3-1.88-5.02-1.95l-.03-.14c-.02-.26-.07-.74-1.31-.63l-.29-.46c-.46-.75-1.03-1.68-2.11-2.12,.86,.75,1.2,1.33,1.06,1.83-.2,.15-.58,.38-.97,.63-.67,.41-1.35,.84-1.38,.98,.05,.05,.46-.06,1.02-.21,1.21-.33,3.04-.82,3.55-.34,.12,.11,.16,.27,.11,.48-.66-.11-2.3,.31-3.89,1.9,.51-.29,.83-.5,1.07-.66,.34-.23,.5-.33,.74-.33l.53,.03c.64,.05,1.51,.12,1.75-.03,.34-.2,.68-.58,.68-.59,.02,0,1.97,0,4.14,1.52l-.2,.37c-.14,.24-.23,.39-.32,.99l-.34,.56c-.57,.94-1.52,2.5-1.65,3.3-.87,.12-4.91,.04-5.54-.2-.28-.11-.5-.26-.76-.44-.35-.25-.76-.53-1.46-.8,.96,.22,1.53,.07,1.54,.07-.02-.02-1.6-2.13-4.68-2.65-2.05-.54-2.89-1.82-3.3-5.07-.43-3.39,.44-7.15,.91-7.51,.23,.17,.52,.41,.82,.68,.51,.45,1.09,.95,1.49,1.11,.42,.34,.68,.38,.68,.38l-.04-1.22c.35,.77,1.22,1.97,1.85,2.1,.27,.12,.52,.34,.76,.55,.35,.31,.71,.62,1.12,.62v-.52s.52,.84,.84,.93c.04-.56-.02-1.6-.02-1.61,.02,.01,2.04,1.45,4.05,1.79,1.28,.18,2.19,.72,3.08,1.25,.84,.5,1.64,.98,2.71,1.14,1.21,.19,5.7,.49,12.58-3.44,.88,.42,2,2.98,1.76,7.37Zm1-8.26c.17-.29,1.6-2.98-1.24-7.4l.25,.59c.78,1.71,2.59,5.72-.03,7.13,.05-.1,1.29-2.4-.2-5.9l.07,.27c.38,1.36,1.09,3.89-.3,5.8,0-.17,.03-.36,.07-.6,.16-1.08,.46-3.08-1.13-7.86l.25,1.06c.43,1.76,.88,3.59-.11,6.2,.51-2.09,.21-5.9-.95-7.87l.05,.13c.65,1.84,1.74,4.91-.09,8.6l.06-.26c.29-1.32,.82-3.77,.1-5.73,.41,2.77,.21,4.55-.66,5.97v-.04c.34-1.55,.89-4.14-1-8.78,1.16-.09,3.07-.21,3.23-.16,0,0,1.41,1.66,2.22,3.6,.97,2.31,.77,4.08-.59,5.26Zm5.09-5.93c-.54-1.52-1.45-2.45-2.78-2.85l.31,.37c.5,.58,1.18,1.38,1.37,2.17l-.44-.48c-.73-.8-1.74-1.89-2.2-2.05,.63,.82,1.17,2.09,1.42,3.42-.16-.26-.31-.55-.47-.85-.39-.75-.83-1.61-1.55-2.22,.92,1.24,3.74,5.03,1.18,7.31l.03-.14c.49-2.29,.27-4.03-.66-5.17,.33,.5,.8,2.01,.59,2.99-.1-.65-.54-2.91-2.08-4.5,.27,.41,2.62,4.09,1.99,6.38-.17,.63-.56,1.09-1.15,1.38,.66-1.2,.81-2.59,.45-4.14-.43-1.84-1.99-3.95-2.56-4.61,2.03-.02,4.68-.16,4.7-.16,.02,.02,1.77,1.65,1.85,3.19Zm-12.47-7.74c-.33,.08-.49,.12-.67,.27,1.34-.09,2.34-.78,2.35-.79-.86,.31-1.36,.44-1.68,.52Zm-1.25,1.14c-.42,.08-.82,.15-1.38,.29,3.58-.34,4.31-.97,4.32-.97-1.53,.43-2.24,.56-2.94,.69Zm-16.99,13.06c-1.25-3.13,2.36-9.57,2.4-9.64-3.71,5.82-2.94,9.2-2.4,9.64Zm-.88-1.3c.02,.08,.05,.13,.09,.15-.16-3.4,2.57-8.57,2.6-8.62-2.16,2.89-2.92,7.57-2.69,8.47Zm-.05-6.61c-1.82,2.94-1.84,5.41-1.3,6.65,.13,.29,.28,.48,.4,.5-1.99-3.82,2.53-9.09,2.58-9.14-.19,.03-.67,.32-1.67,1.99Zm18.95,3.07c.08-.1,.11-.2,.09-.28-.72,.71-1.92,.67-2.58,.58-1-.13-1.86-.51-2.02-.77,2.3,.08,3.65-.11,3.72-.52-.43,.33-1.7,.48-1.91,.37-.02,0-.03-.02-.03-.04,1.82-.51,2.1-2.23,2.01-2.68,.72-.08,.85-.33,.87-.47,.02-.2-.15-.39-.32-.46,.1,.23,.12,.38,.05,.49-.11,.17-.44,.25-1.07,.25-2.2-.04-4.03,.45-5.12,.73-.34,.09-.61,.16-.8,.19-.1-.24-.04-.65,.14-1.09-.37,.18-.42,.54-.47,.91l-.03,.18c-2.62-.94-5.95-1.25-6.7-1.28-.13,0-.21-.05-.24-.13-.1-.25,.26-.76,.26-.77-.3,.3-.45,.53-.45,.71,0,.03,0,.07,.02,.1,.11,.3,.74,.36,1.35,.42l.48,.05c-.05,.25-.08,.48-.08,.68,0,1.39,1.08,1.87,1.9,2.24l.45,.21c-1.26,0-1.95-.2-2.37-.69,0,.13,.04,.24,.13,.34,.37,.39,1.37,.46,1.67,.47-1.6,.43-1.79,.33-2.02,.22l-.11-.05c0,.06,0,.13,.08,.18,.2,.17,.83,.14,1.94-.07,2.27-.4,3.39-1.3,3.69-2.01,.11-.25,.22-.38,.34-.38,.13,0,.28,.17,.42,.5,.5,1.07,2.14,2.01,4.07,2.34,1.55,.27,2.39-.18,2.64-.48Zm-10.07-.58c-1.19-.01-2-.7-2.35-1.34-.31-.57-.34-1.17-.06-1.62,.84,.02,2.71,.34,3.84,.81-.07,.11-.08,.22-.03,.31,.05,.08,.14,.14,.25,.14,.19,0,.26-.35,.26-.36,0,0,.5,.05,.71,.26,0,.02-.69,1.82-2.61,1.8Zm3.34-1.87l.49-.1,.13-.02s.02,.26,.19,.35c.1,.05,.23,.04,.38-.05,.19-.21,.17-.47,.17-.47,.02,0,1.88-.64,4.5-.59,.1,.12,.08,.43-.05,.78-.3,.8-1.13,1.72-2.55,1.92-1.3,.18-2.1-.23-2.54-.6-.5-.42-.69-.92-.7-1.23Zm-10.02,2.01c.45-.07,.93-.12,1.42-.14-1.04-.28-1.42,.14-1.42,.14Zm2.61,.38c-.02-.21-.28-.59-.28-.59,0,0-.11,.36,.28,.59Zm.17-.33s-.05,.15,.04,.26c.09,.12,.29,.17,.6,.14-.01-.02-.05-.03-.11-.04-.14-.02-.36-.06-.53-.37Zm.9-.43l-.17-.17c-.15-.13-.28-.24-.4-.85,0,0-.2,.74,.57,1.02Zm16.28,.88c.01-.08,0-.14,0-.14-.25,.22-.31,.24-.4,.27l-.27,.13c.51,.04,.65-.12,.67-.26Zm-1.31-.09s-.06,0-.1,.05c-.03,.05-.03,.12,0,.21,.26-.26,.68-.31,.69-.31-.04-.1-.2-.15-.43-.13-.37,.03-.8,.22-.85,.44,.45-.35,.68-.26,.69-.26Zm-2.07-1.16c-.07,.04-.12,.07-.18,.14,.61-.12,.61-.48,.6-.59,0-.01,0-.02,0-.02-.15,.32-.3,.41-.42,.48Zm.18,1.37c-.07,.05-.15,.1-.29,.24,.75-.28,.66-.66,.66-.66-.2,.3-.27,.35-.38,.42Z"/></svg>