<?xml version="1.0" encoding="UTF-8"?><svg id="Capa_1" xmlns="http://www.w3.org/2000/svg" viewBox="0 0 115.9 193.03"><defs><style>.cls-1{fill:#e64011;}.cls-2{fill:#e9b492;}.cls-3{fill:#fff;}.cls-4{fill:#ffe964;}.cls-5{fill:#fdece4;}.cls-6{fill:#825e47;}.cls-7{fill:#7ea7cf;}.cls-8{fill:#991915;}.cls-9{fill:#8c4b46;}.cls-10{fill:#9d7493;}.cls-11{fill:#c2a94b;}.cls-12{fill:#936e54;}.cls-13{fill:#b1a7cc;}.cls-14{fill:#d0b1cf;}.cls-15{fill:#d2b2cf;}.cls-16{fill:#e20613;}.cls-17{fill:#e37c96;}.cls-18{fill:#1d1d1b;}.cls-19{fill:#35b08d;}.cls-20{fill:#6f523d;}.cls-21{fill:#72625c;}.cls-22{fill:#867d73;}.cls-23{fill:#2c5145;}.cls-24{fill:#3b2015;}.cls-25{fill:#84746e;}.cls-26{fill:#785a43;}.cls-27{stroke-width:1.99px;}.cls-27,.cls-28,.cls-29{fill:none;stroke:#1d1d1b;stroke-linecap:round;}.cls-28{stroke-width:1.33px;}.cls-29{stroke-width:.33px;}</style></defs><g><path class="cls-8" d="M48.86,134.19s-1.62,.39-1.75,.58c-.13,.19-.58,.19-.84,.19s-.52,0-.84,.26c-.32,.26-.58,.07-.65,.26-.07,.19-1.43,.65-1.43,.65,0,0,.45,.19-.71,.39-1.17,.19-.91,.13-1.69,.13s-1.04,.13-1.23,.2c-.19,.06-.65-.2-.91,.13-.26,.32-.58,.65-.97,.65s-1.04-.07-1.69,.06c-.65,.13-.84,.06-.84,.39s-.26,.26-.78,.33c-.52,.06-.65-.2-.84,.06-.19,.26-.13,0-.65,.26-.52,.26-1.04,.32-1.23,.32h-.52c-.26,0-.65,.19-.65,.19,0,0-.39,.26-.78,.26h-1.62s-.72,.32-.72,.58,.07,.32-.52,.32h-.91l-.71,.13s-.19,.39-.32,.65c-.13,.26,.39,.13-.39,.19-.78,.06-.97,.06-.97,.06h-1.23l-1.04,.19-1.17,.39h-.39l-.84,.39s-1.62,.91-1.95,.91-.71,.26-.71,.26l-.71,.45s.13,.07-.19,.07h-.84s-.52,.58-.72,.84c-.19,.26-.33,.19-.58,.19s-.84,.39-.84,.39c0,0-.13,.13-.39,.13s-1.04,.13-1.04,.13l-1.75,.97-.26,.19s-.06,0-.32,.07c-.26,.06-1.36,.65-1.36,.65,0,0-.26,.07-.39,.33-.13,.26-.78,.71-.78,.71l-.19,.52-.58,.33-.26,.58-.71,.2-.52,1.17-.33,.26s-.33,.07-.39,.26c-.06,.2-.06,.78-.06,.78l-.26,.26s.06,.13-.13,.32c-.19,.19-.58,.13-.58,.52v1.1s-.58,.52-.58,.84-.13,.45,0,.97c.13,.52-.2,.78-.2,.78l-.13,.13-.13,.97v.65c0,.26,0-.26,0,.26v1.1c0,.2-.45,.65-.45,.84s.19,.65,.19,.91-.06,.97-.06,.97c0,0,.58,2.4,.78,2.4s.39,.71,.45,.91c.06,.19,.32,.45,.32,.45l.45,.2,.19,.58,.52,.2,.45,.13,.26,.19s.13-.13,.32,.13c.19,.26,2.2,1.23,2.2,1.23,0,0,.65,.32,.84,.32s.39-.13,.39,.06-.26-.06,.13,.46c.39,.52,.91,.52,.91,.52l.45,.13s.13-.78,.32,0c.19,.78,.32,.84,.58,.91,.26,.06,.58,0,.58,0l.39,.13,.33,.52,2.08,1.04s.06,.13,.45,.26c.39,.13,1.1,.32,1.1,.32h.32s-.39,.26,.06,.45c.45,.19,.97,.13,1.17,.26,.2,.13,.58,.71,.58,.71,0,0,.45,0,.65,.07,.19,.06,.26-.07,.26,.26s.06,.39,.39,.39,1.3-.19,1.49-.06c.19,.13,.46,.32,.71,.32h.91s.26,.2,.52,.26c.26,.06,.52,.58,.71,.06l.2-.52s.26,0,.39-.32c.13-.33,.19-.78,.26-.97,.07-.19,.26-.07,.32-.71,.06-.65,.06-.97,.06-.97,0,0,.19,.13,0-.65-.19-.78-.65-.91-.39-1.17,.26-.26,.45-.26,.45-.78s.19,0,0-.97-.26-.78-.32-1.3c-.06-.52-.19-.91-.19-.91,0,0,.52-.19-.06-.19s-.52,.52-.58,0c-.07-.52-.2-.65-.2-.65l-.39-.13c-.39-.13-.91,.07-1.04-.58-.13-.65-.06-.84-.32-.91-.26-.07-.84-.39-.84-.39,0,0,.52-.52,0-.39-.52,.13-.71,.13-.71,.13l-.91-.26s-.19-.32,0-.45c.2-.13,.26-.33,.2-.72-.06-.39,.19-.58-.26-.58h-.65c-.39,0-.52,.13-.97,0-.45-.13-.97-.45-.97-.45,0,0,.07-.33-.52-.45-.58-.13-.58-.13-.91-.13h-.72l-.71-.45-.06-.32-.32-.19s-.78-.78-.78-.97,.39-.71,0-.91c-.39-.19-.71-.19-.71-.19,0,0-.13,.52-.06-.32,.06-.84,.06-1.49,.26-1.56,.2-.06,.26-.26,.26-.52s-.39-.58,.13-.58,.45,.13,.65-.39l.19-.52,.39-.71,.52-.26,1.69-2.07c.84-.32,1.3-.78,1.3-.78,0,0,.06-.52,.32-.52s.39-.52,.65-.45c.26,.07,.52-.65,.84-.65s.58-.71,.78-.45c.19,.26,.39-.13,.65-.13s0-.52,.26-.52,.91-.52,.97-.32c.06,.19,1.95-1.1,1.95-1.1l1.36,.13s-.07,0,.52,0,.97,.06,1.3,0c.32-.07,.71-.13,.97-.39,.26-.26,.13-.39,.45-.32,.32,.06,.65,0,.84,.13,.19,.13-.07-.26,.52-.39l.58-.13,1.3-.58s-.13,0,.58,0h2.14s.2,.06,.32-.2c.13-.26,.2-.39,.2-.39l.97,.2s.52,.26,.91,0c.39-.26,.45-.2,.91-.39,.45-.19,.65-.26,.97-.26s2.92-.26,2.92-.26l1.36-.91s.32-.13,.91-.19c.58-.06,.58,0,.84-.13,.26-.13,.52-.39,.52-.39l.19,.19c.32-.13,.52-.19,.52-.19l3.57-8.24Z"/><path class="cls-16" d="M15.06,164.35s1.43-.19,1.75-.19,.58,.39,.39,.52c-.19,.13-.19,.65-.19,.65,0,0,.13,.39,.58,.39s1.1-.07,1.1-.07l.2,.2s.07-.19,.71-.13c.65,.06,.65,.52,.65,.71s.19,.26,.39,.26,2.21,.78,2.21,.78l-.07,.65,.46,.58c.13,.52,.19,1.56,.19,1.56,0,0-.39-.26-.26-.06,.13,.2,.19,.97,.19,1.17s.45,.13,0,.2c-.45,.06-1.1-.07-1.1-.07,0,0,.06-.06-.2,.26-.26,.32-.45,.65-.97,0-.52-.65,.19-.78-.65-.78h-1.04c-.33,0-1.1-.13-1.36-.58-.26-.45,.71-.45-.45-.58-1.17-.13-2.27,.06-2.46-.13-.2-.19-.2-.52-.39-.78-.19-.26-.58-.58-.58-.58,0,0-.13-.06-.33-.06s-1.81-.39-2.2-.65c-.39-.26-.78-1.04-.78-1.04l-1.88-.13s.06,.2-.19,0c-.26-.19-.65-.06-.84-.58-.19-.52,.19-.91-.39-.91s-2.08,.45-1.75-.2c.32-.65,.58-1.62,.58-1.62v-.65s.13,.13-.13-.2c-.26-.32-.78-.84-.78-.84,0,0,.07-.52,.07-.91s.52-.45,0-.71c-.52-.26-1.1-.13-.97-.65,.13-.52,.13-1.49,.13-1.49,0,0,.26-.13,.07-.32-.19-.19-1.04-.2-.26-.91,.78-.71,.84-1.1,.84-1.1,0,0-.32,.06-.32-.45s-.26-.84,0-1.23c.26-.39,.06-.78,.26-1.04,.19-.26-.06-.78,.26-.78s.84-1.23,.84-1.23c0,0,.52-1.17,.78-1.36,.26-.19,.39-.84,1.04-1.04,.65-.2,.33-.52,.91-.52s.71,.52,1.04-.13c.33-.65,.26-.78,.58-.84,.33-.07,.45-.46,.45-.46,0,0,2.21-.58,2.72-.65,.52-.06,.45-.26,.84-.58,.39-.32,.71-.45,1.23-.39,.52,.07,.52,.32,1.3,0,.78-.32,.97-.58,1.23-.58s1.3-.07,1.49,0c.19,.07,.84,.26,.84-.26s.97-.97,.97-.97c0,0,.07-.32,.65-.32h1.23c.26,0-.07-.26,.32-.45,.39-.2,.91-.32,.91-.32h.58s.26,0,.46-.07c.19-.06,.45-.39,.45-.39l2.46-.13s-.65,.06,.13-.26c.78-.32,1.88-.84,1.88-.84,0,0-.26,.06,.45-.13,.71-.19,1.62-.06,1.62-.06l1.17-.71h.65l1.04,.45s.19-.2,.19,.19,.19,.78,.19,.97-.06,.65-.06,.91-.13,.19-.39,.45c-.26,.26,.13,.45-.33,.71-.45,.26-.71,.06-.84,.45-.13,.39-.39,.06-.58,.39-.19,.32-.84,.32-.84,.32h-.26l-.65-.26-1.49,.13v.26c0,.26,0,.26-.26,.39-.26,.13-.71,.13-.71,.13,0,0,.39-.06,0-.32-.39-.26-.65-.78-.91-.52-.26,.26-.65,.97-.65,.97,0,0,0,.2-.32,.26-.32,.07-.46,.07-.46,.07l-.06-.13s.32-.07-.33,0c-.65,.06-1.17-.39-1.17,.13s-.26,.52-.26,.52c0,0-.33,.2-.91,.26-.58,.06-.52-.2-.58,.06-.06,.26,.46-.13-.06,.26-.52,.39,.39,.39-.52,.39s-.71-.26-1.1,0c-.39,.26-1.62-.13-1.62,.26s.45,.26,0,.39c-.45,.13-2.59,1.17-2.59,1.17l-1.04,.32-1.1,1.56-1.04,.26-.58,.71s.58-.13-.06,.19c-.65,.32-.84,.78-.84,.78v.19c0,.19-.91,0-.91,.32v1.23s.13,.06-.39,.13c-.52,.07-.91,.32-.91,.32l-.78,.91,.19,.39s.13-.07-.13,.65c-.26,.71-.39,1.04-.32,1.3,.07,.26,.07,.84,.07,1.04s-.06,.33,.26,.52c.33,.19,.52-.13,.58,.45,.06,.58,.06,.97,.06,.97,0,0,.07,.07,.26,.26,.2,.19,.2,.39,.2,.71s1.04,.65,1.04,.65c0,0-.39,.39,.39,.39s.97-.26,1.1,0c.13,.26,.13,.71,.13,.71,0,0,.26,.13,.26,.52v.39l.39,.07Z"/><path class="cls-28" d="M48.86,134.19s-1.62,.39-1.75,.58c-.13,.19-.58,.19-.84,.19s-.52,0-.84,.26c-.32,.26-.58,.07-.65,.26-.07,.19-1.43,.65-1.43,.65,0,0,.45,.19-.71,.39-1.17,.19-.91,.13-1.69,.13s-1.04,.13-1.23,.2c-.19,.06-.65-.2-.91,.13-.26,.32-.58,.65-.97,.65s-1.04-.07-1.69,.06c-.65,.13-.84,.06-.84,.39s-.26,.26-.78,.33c-.52,.06-.65-.2-.84,.06-.19,.26-.13,0-.65,.26-.52,.26-1.04,.32-1.23,.32h-.52c-.26,0-.65,.19-.65,.19,0,0-.39,.26-.78,.26h-1.62s-.72,.32-.72,.58,.07,.32-.52,.32h-.91l-.71,.13s-.19,.39-.32,.65c-.13,.26,.39,.13-.39,.19-.78,.06-.97,.06-.97,.06h-1.23l-1.04,.19-1.17,.39h-.39l-.84,.39s-1.62,.91-1.95,.91-.71,.26-.71,.26l-.71,.45s.13,.07-.19,.07h-.84s-.52,.58-.72,.84c-.19,.26-.33,.19-.58,.19s-.84,.39-.84,.39c0,0-.13,.13-.39,.13s-1.04,.13-1.04,.13l-1.75,.97-.26,.19s-.06,0-.32,.07c-.26,.06-1.36,.65-1.36,.65,0,0-.26,.07-.39,.33-.13,.26-.78,.71-.78,.71l-.19,.52-.58,.33-.26,.58-.71,.2-.52,1.17-.33,.26s-.33,.07-.39,.26c-.06,.2-.06,.78-.06,.78l-.26,.26s.06,.13-.13,.32c-.19,.19-.58,.13-.58,.52v1.1s-.58,.52-.58,.84-.13,.45,0,.97c.13,.52-.2,.78-.2,.78l-.13,.13-.13,.97v.65c0,.26,0-.26,0,.26v1.1c0,.2-.45,.65-.45,.84s.19,.65,.19,.91-.06,.97-.06,.97c0,0,.58,2.4,.78,2.4s.39,.71,.45,.91c.06,.19,.32,.45,.32,.45l.45,.2,.19,.58,.52,.2,.45,.13,.26,.19s.13-.13,.32,.13c.19,.26,2.2,1.23,2.2,1.23,0,0,.65,.32,.84,.32s.39-.13,.39,.06-.26-.06,.13,.46c.39,.52,.91,.52,.91,.52l.45,.13s.13-.78,.32,0c.19,.78,.32,.84,.58,.91,.26,.06,.58,0,.58,0l.39,.13,.33,.52,2.08,1.04s.06,.13,.45,.26c.39,.13,1.1,.32,1.1,.32h.32s-.39,.26,.06,.45c.45,.19,.97,.13,1.17,.26,.2,.13,.58,.71,.58,.71,0,0,.45,0,.65,.07,.19,.06,.26-.07,.26,.26s.06,.39,.39,.39,1.3-.19,1.49-.06c.19,.13,.46,.32,.71,.32h.91s.26,.2,.52,.26c.26,.06,.52,.58,.71,.06l.2-.52s.26,0,.39-.32c.13-.33,.19-.78,.26-.97,.07-.19,.26-.07,.32-.71,.06-.65,.06-.97,.06-.97,0,0,.19,.13,0-.65-.19-.78-.65-.91-.39-1.17,.26-.26,.45-.26,.45-.78s.19,0,0-.97-.26-.78-.32-1.3c-.06-.52-.19-.91-.19-.91,0,0,.52-.19-.06-.19s-.52,.52-.58,0c-.07-.52-.2-.65-.2-.65l-.39-.13c-.39-.13-.91,.07-1.04-.58-.13-.65-.06-.84-.32-.91-.26-.07-.84-.39-.84-.39,0,0,.52-.52,0-.39-.52,.13-.71,.13-.71,.13l-.91-.26s-.19-.32,0-.45c.2-.13,.26-.33,.2-.72-.06-.39,.19-.58-.26-.58h-.65c-.39,0-.52,.13-.97,0-.45-.13-.97-.45-.97-.45,0,0,.07-.33-.52-.45-.58-.13-.58-.13-.91-.13h-.72l-.71-.45-.06-.32-.32-.19s-.78-.78-.78-.97,.39-.71,0-.91c-.39-.19-.71-.19-.71-.19,0,0-.13,.52-.06-.32,.06-.84,.06-1.49,.26-1.56,.2-.06,.26-.26,.26-.52s-.39-.58,.13-.58,.45,.13,.65-.39l.19-.52,.39-.71,.52-.26,1.69-2.07c.84-.32,1.3-.78,1.3-.78,0,0,.06-.52,.32-.52s.39-.52,.65-.45c.26,.07,.52-.65,.84-.65s.58-.71,.78-.45c.19,.26,.39-.13,.65-.13s0-.52,.26-.52,.91-.52,.97-.32c.06,.19,1.95-1.1,1.95-1.1l1.36,.13s-.07,0,.52,0,.97,.06,1.3,0c.32-.07,.71-.13,.97-.39,.26-.26,.13-.39,.45-.32,.32,.06,.65,0,.84,.13,.19,.13-.07-.26,.52-.39l.58-.13,1.3-.58s-.13,0,.58,0h2.14s.2,.06,.32-.2c.13-.26,.2-.39,.2-.39l.97,.2s.52,.26,.91,0c.39-.26,.45-.2,.91-.39,.45-.19,.65-.26,.97-.26s2.92-.26,2.92-.26l1.36-.91s.32-.13,.91-.19c.58-.06,.58,0,.84-.13,.26-.13,.52-.39,.52-.39l.19,.19c.32-.13,.52-.19,.52-.19l3.57-8.24Z"/><line class="cls-27" x1="21.62" y1="170.25" x2="24.02" y2="174.6"/><line class="cls-27" x1="22.07" y1="171.75" x2="23.63" y2="176.29"/><line class="cls-27" x1="21.62" y1="172.07" x2="22.85" y2="177"/><line class="cls-27" x1="21.1" y1="172.13" x2="21.23" y2="173.56"/><line class="cls-27" x1="19.22" y1="170.19" x2="22.01" y2="176.48"/><line class="cls-27" x1="19.86" y1="173.17" x2="20.51" y2="176.09"/><line class="cls-27" x1="19.67" y1="175.38" x2="19.67" y2="176.41"/><line class="cls-27" x1="18.63" y1="170.45" x2="18.83" y2="175.38"/><line class="cls-27" x1="17.92" y1="170.64" x2="18.05" y2="175.51"/><line class="cls-27" x1="17.01" y1="171.16" x2="17.14" y2="175.18"/><line class="cls-27" x1="15.78" y1="173.11" x2="15.84" y2="173.56"/><line class="cls-27" x1="16.17" y1="173.76" x2="16.3" y2="174.34"/><line class="cls-27" x1="15.52" y1="169.73" x2="15.39" y2="174.21"/><line class="cls-27" x1="14.74" y1="167.79" x2="14.61" y2="174.27"/><line class="cls-27" x1="17.66" y1="166.69" x2="18.37" y2="166.49"/><line class="cls-27" x1="18.24" y1="167.33" x2="18.63" y2="167.33"/><line class="cls-27" x1="22.13" y1="169.15" x2="23.3" y2="169.93"/><line class="cls-27" x1="13.96" y1="163.96" x2="15.91" y2="162.92"/><line class="cls-27" x1="15.06" y1="164.35" x2="17.34" y2="163.57"/><line class="cls-27" x1="16.88" y1="164.68" x2="17.79" y2="164.42"/><line class="cls-27" x1="17.4" y1="165.39" x2="18.89" y2="165.39"/><line class="cls-27" x1="10.78" y1="165.58" x2="10.59" y2="171.23"/><line class="cls-27" x1="11.24" y1="168.63" x2="11.24" y2="172.07"/><line class="cls-27" x1="11.82" y1="166.94" x2="11.82" y2="167.85"/><line class="cls-27" x1="12.34" y1="167.27" x2="12.34" y2="168.96"/><line class="cls-27" x1="13.18" y1="168.44" x2="12.79" y2="169.54"/><path class="cls-27" d="M13.44,170.64s.45,2.66,.19,2.66"/><line class="cls-27" x1="12.47" y1="170.06" x2="12.53" y2="173.11"/><line class="cls-27" x1="11.82" y1="170.51" x2="11.82" y2="172.52"/><line class="cls-27" x1="9.68" y1="168.11" x2="9.68" y2="170.9"/><line class="cls-27" x1="9.03" y1="167.33" x2="9.03" y2="170.51"/><line class="cls-27" x1="8.19" y1="167.01" x2="8.12" y2="168.7"/><line class="cls-27" x1="8.32" y1="169.6" x2="8.06" y2="170.45"/><line class="cls-27" x1="7.02" y1="166.68" x2="7.09" y2="168.83"/><line class="cls-27" x1="6.7" y1="165.65" x2="6.7" y2="167.79"/><line class="cls-27" x1="5.98" y1="166.62" x2="5.98" y2="169.35"/><line class="cls-27" x1="5.2" y1="165.39" x2="5.2" y2="167.46"/><line class="cls-27" x1="4.49" y1="165.52" x2="4.04" y2="167.27"/><line class="cls-27" x1="4.88" y1="163.31" x2="3.19" y2="166.75"/><line class="cls-27" x1="3.65" y1="163.77" x2="2.74" y2="166.49"/><line class="cls-27" x1="3.58" y1="162.4" x2="2.16" y2="165.58"/><line class="cls-27" x1="4.62" y1="160.59" x2="3.58" y2="162.01"/><line class="cls-27" x1="3.45" y1="160.33" x2="1.57" y2="163.9"/><line class="cls-27" x1="4.23" y1="158.64" x2="3.45" y2="159.81"/><line class="cls-27" x1="2.09" y1="159.75" x2="1.12" y2="161.63"/><line class="cls-27" x1="3.19" y1="158.71" x2="4.3" y2="157.6"/><line class="cls-27" x1="1.7" y1="159.23" x2="2.22" y2="158.77"/><line class="cls-27" x1="1.83" y1="158.06" x2="4.43" y2="155.98"/><line class="cls-27" x1="5.01" y1="157.67" x2="5.79" y2="155.79"/><line class="cls-27" x1="5.46" y1="154.75" x2="6.37" y2="154.04"/><line class="cls-27" x1="7.22" y1="154.42" x2="8.38" y2="153.52"/><line class="cls-27" x1="7.54" y1="152.93" x2="8.71" y2="151.96"/><line class="cls-27" x1="7.15" y1="151.83" x2="8.19" y2="151.51"/><line class="cls-27" x1="10.46" y1="154.04" x2="10.46" y2="155.01"/><line class="cls-27" x1="10.98" y1="153.26" x2="11.37" y2="155.01"/><line class="cls-27" x1="9.62" y1="156.05" x2="10.2" y2="157.09"/><line class="cls-27" x1="9.55" y1="158.19" x2="10.2" y2="158.51"/><line class="cls-27" x1="9.62" y1="159.23" x2="10.2" y2="159.36"/><line class="cls-27" x1="9.94" y1="159.94" x2="10.85" y2="160.46"/><line class="cls-27" x1="13.38" y1="151.12" x2="13.38" y2="152.54"/><line class="cls-27" x1="12.02" y1="153.19" x2="12.14" y2="154.49"/><line class="cls-27" x1="13.9" y1="151.9" x2="13.64" y2="153.32"/><line class="cls-27" x1="14.55" y1="148.91" x2="14.61" y2="150.21"/><line class="cls-27" x1="15.45" y1="148.46" x2="15.45" y2="149.82"/><line class="cls-27" x1="16.1" y1="148.52" x2="15.97" y2="149.89"/><line class="cls-27" x1="8.06" y1="149.82" x2="8.84" y2="149.43"/><line class="cls-27" x1="2.41" y1="156.31" x2="4.04" y2="155.2"/><line class="cls-27" x1="2.87" y1="154.95" x2="4.3" y2="153.58"/><line class="cls-27" x1="3.58" y1="153.52" x2="4.75" y2="152.54"/><line class="cls-27" x1="4.23" y1="151.83" x2="5.46" y2="151.31"/><line class="cls-27" x1="5.01" y1="150.66" x2="5.92" y2="150.4"/><path class="cls-27" d="M5.85,149.69c.32-.06,.91-.26,.91-.26"/><line class="cls-27" x1="6.57" y1="149.04" x2="7.41" y2="148.52"/><line class="cls-27" x1="7.15" y1="148.13" x2="8.32" y2="147.94"/><line class="cls-27" x1="8.97" y1="148.52" x2="9.88" y2="148.72"/><line class="cls-27" x1="10.13" y1="147.94" x2="11.11" y2="147.75"/><line class="cls-27" x1="12.14" y1="147.49" x2="12.79" y2="147.55"/><line class="cls-27" x1="13.25" y1="146.45" x2="12.73" y2="146.84"/><line class="cls-27" x1="18.57" y1="145.22" x2="19.99" y2="144.76"/><line class="cls-27" x1="16.49" y1="143.79" x2="17.79" y2="143.79"/><path class="cls-27" d="M18.57,143.2c.78,0,2.72,.39,2.72,.39"/><path class="cls-27" d="M19.99,142.82h1.81"/><line class="cls-27" x1="21.75" y1="142.04" x2="23.3" y2="141.97"/><line class="cls-27" x1="27.19" y1="141.26" x2="26.03" y2="141.26"/><line class="cls-27" x1="27.39" y1="140.74" x2="29.07" y2="140.67"/><path class="cls-27" d="M28.36,140.16c.39-.06,2.27-.33,2.27-.33"/><line class="cls-27" x1="19.22" y1="146.77" x2="19.41" y2="146.06"/><line class="cls-27" x1="17.14" y1="150.28" x2="17.2" y2="149.04"/><path class="cls-27" d="M18.31,149.56c0-.26,.58-1.62,.58-1.62"/><path class="cls-27" d="M14.87,152.61c0-.33,.19-1.17,.19-1.43"/><line class="cls-27" x1="15.91" y1="151.57" x2="15.91" y2="150.86"/><line class="cls-27" x1="21.16" y1="147.61" x2="22.52" y2="147.1"/><line class="cls-27" x1="21.03" y1="146.51" x2="21.16" y2="145.6"/><line class="cls-27" x1="22.13" y1="146.45" x2="23.3" y2="145.48"/><line class="cls-27" x1="23.56" y1="145.86" x2="24.21" y2="144.57"/><line class="cls-27" x1="24.47" y1="145.93" x2="24.73" y2="143.85"/><path class="cls-27" d="M25.44,146.97c0-.19,.32-2.6,.32-2.6"/><line class="cls-27" x1="26.09" y1="146.64" x2="26.55" y2="145.35"/><line class="cls-27" x1="27.58" y1="146.12" x2="27.58" y2="143.79"/><line class="cls-27" x1="28.56" y1="145.6" x2="28.56" y2="143.14"/><line class="cls-27" x1="29.2" y1="145.28" x2="30.18" y2="143.14"/><line class="cls-27" x1="30.24" y1="145.35" x2="31.02" y2="144.31"/><line class="cls-27" x1="31.99" y1="145.22" x2="32.12" y2="143.85"/><line class="cls-27" x1="33.16" y1="144.83" x2="35.62" y2="142.75"/><line class="cls-27" x1="32.9" y1="142.75" x2="33.88" y2="141.91"/><line class="cls-27" x1="34.39" y1="142.3" x2="34.52" y2="141.39"/><line class="cls-27" x1="33.55" y1="139.83" x2="34.33" y2="139.77"/><line class="cls-27" x1="35.43" y1="138.47" x2="36.27" y2="138.99"/><line class="cls-27" x1="36.02" y1="138.34" x2="37.12" y2="138.86"/><line class="cls-27" x1="37.9" y1="137.82" x2="38.68" y2="137.82"/><line class="cls-27" x1="40.68" y1="137.43" x2="42.24" y2="138.02"/><line class="cls-27" x1="42.83" y1="137.24" x2="43.99" y2="137.37"/><line class="cls-27" x1="43.99" y1="136.72" x2="44.45" y2="136.65"/><line class="cls-27" x1="44.45" y1="136.26" x2="45.29" y2="136.26"/><line class="cls-27" x1="45.29" y1="135.75" x2="46.13" y2="135.62"/><line class="cls-27" x1="34.78" y1="144.83" x2="37.12" y2="142.49"/><line class="cls-27" x1="36.34" y1="144.5" x2="38.94" y2="141.32"/><line class="cls-27" x1="38.29" y1="143.85" x2="40.23" y2="140.81"/><line class="cls-27" x1="39.52" y1="143.59" x2="40.82" y2="142.43"/><line class="cls-27" x1="41.21" y1="141.32" x2="41.21" y2="140.67"/><line class="cls-27" x1="42.63" y1="140.81" x2="42.63" y2="139.7"/><line class="cls-27" x1="41.59" y1="143.01" x2="43.8" y2="139.77"/><line class="cls-27" x1="42.89" y1="142.36" x2="43.86" y2="140.67"/><line class="cls-27" x1="45.03" y1="139.9" x2="44.84" y2="138.99"/><line class="cls-27" x1="45.36" y1="140.03" x2="46.14" y2="137.56"/><line class="cls-27" x1="44.19" y1="141.97" x2="44.45" y2="140.81"/><path class="cls-27" d="M44.84,142.3c0-.58,.39-1.56,.39-1.56"/><line class="cls-27" x1="46.91" y1="136.98" x2="47.04" y2="136.46"/><line class="cls-27" x1="5.53" y1="162.53" x2="6.05" y2="160.98"/><line class="cls-27" x1="5.92" y1="164.29" x2="6.96" y2="162.21"/><line class="cls-27" x1="6.83" y1="164.68" x2="7.28" y2="163.12"/><line class="cls-27" x1="7.41" y1="165.71" x2="7.67" y2="164.48"/><line class="cls-27" x1="21.23" y1="167.14" x2="21.23" y2="167.72"/><line class="cls-27" x1="15.97" y1="169.22" x2="15.97" y2="170.12"/><path class="cls-27" d="M20.51,170.45c.06,.26,.06,1.3,.06,1.3"/><line class="cls-27" x1="4.69" y1="162.15" x2="5.66" y2="160.72"/><line class="cls-27" x1="4.75" y1="159.1" x2="5.27" y2="158.97"/><line class="cls-27" x1="8.9" y1="147.16" x2="10.2" y2="147.1"/><line class="cls-27" x1="10.33" y1="146.38" x2="11.17" y2="146.58"/></g><path class="cls-29" d="M69.42,10.85s-1.17-4.62-1.65-8.56c-2.52,4.43-13.75,14.54-15.86,16.35-2.24,1.92-4.28,5.22-5.64,7.41l-.78,1.25c-.01-.07-1.17-6.87-1.46-12.06-.05,.09-5.38,8.91-7.49,13.62-2.04,4.54-1.74,11.9-1.07,15.47-2.79-.96-8.61-9.9-9.63-12.65-.91,5.88-.34,12.74-.1,15.67,0,1.88,3.23,10.15,4.96,13.52-1.1-.3-6.15-4.78-7.98-6.52,.66,9.18,5.35,14.28,7.6,16.73l.18,.19c-4.29,1.4-8.06,6.57-9.05,8.27,6.56-2.37,9.91-.45,11.71,.58l.35,.2c-2.56,.62-4.51,1.49-6.77,2.5l-.73,.32c3.54,0,6.65,.2,7.78,.39-3.53,1.17-9.89,5.9-11.29,7.39,4.33-.86,10.45-.78,10.51-.78-1.01,.94-3.88,2.72-5.97,4.02l-2.11,1.33c-1.21,.84-1.66,3.59-1.56,4.77-.02,.02-2.34,2.05-2.53,2.34-.21,.31-.48,5.49-.39,6.32,.12,1.05,.49,1.7,1.17,2.04l.19,1.07c-1.21,.88-1.62,2.13-1.75,3.02-.22,1.5,.18,3.02,.68,3.69v3.5c.1,.88,3.88,6.22,5.06,6.91,.02,0,1.89,.58,5.84,.29,3.91-.29,6.01-2.75,6.62-4.77,1.66-.55,2.56-2.32,3.02-3.7,.19,6.16,2.02,9.31,2.04,9.34l4.18-5.16,.1,4.28,2.63-2.92,.29,3.89-5.74,12.36c-.03,.06-2.82,6.15-2.43,7.49,.3,1.05,.62,2.29,.41,2.57-.5,.06-.79,1.21-.8,1.22,0,.01,.48,1.37-.29,1.95-.77,.58-1.85,2.53-1.95,2.82l-.05,.54c-.04,.71-.11,1.77-.53,1.99-.5,.05-.99,.44-1.18,.93-.2,.49-.09,1.02,.31,1.5-2.34,3.71-2.01,8.51-1.56,9.24-.45-.03-.78,.16-.98,.57-.26,.54-.19,1.28-.19,1.28-.03,.06-2.93,5.59-3.99,9.15-.58,3.57,2.48,7.16,4.18,8.56,1.65,1.36,8.07-2.82,9.92-4.57,2-1.9,2.72-10.52,2.72-10.61l.45-1.15,.13-.5c1.49,0,3.08-4.34,4.03-6.93l.55-1.43c.42-.42,.64-1.14,.54-1.71-.06-.31-.21-.53-.44-.63-.08-.04-.14-.09-.16-.17-.07-.3,.37-.84,.72-1.27l.41-.6-.02-.46c-.04-.92-.14-2.83,.02-3.14,.01-.01,1.17-1.17,1.26-1.65,.1-.52,.16-.84,1.36-2.04,2.8-1.59,5.53-4.84,7.69-9.15l2.63-.68c.04,.08,3.71,7.8,4.77,9.24l.67,.88,.17,.25s-.15,.14-.15,.14c-.19,.3,.2,1.66,.39,1.95,0,.01,.91,1.38,.58,2.04-.27,.53-.78,1.83-.68,2.43l.42,.68c.24,.28,.47,.54,.36,.88-.4,.1-.66,.34-.76,.69-.15,.55,.13,1.21,.47,1.55,0,.04,.21,4.31,1.07,6.71,.87,2.4,2.42,2.72,2.43,2.72l-.19,.49c-.48,.14-.77,.39-.84,.69-.05,.26,.08,.54,.35,.77-.04,.07-.98,1.69-.29,5.25,1.88,4.36,11.03,7.49,14.89,7.39,.96-.02,1.63-.45,2-1.27,.87-1.93-.23-5.42-.25-5.45-.02-.05-1.86-4.99-3.02-7.2,.09-.12,.08-.33-.02-.58-.19-.47-.69-1.01-1.15-1.08,.48,0,1.35-1.64,1.36-1.65,0-.08,.19-8.09,.1-9.34-.1-1.26-.11-1.36-1.65-1.46,.1-2.35-.39-4.09-1.46-5.16,1.06-1.33,1-3.35-.19-5.84,.73-4.02-2.87-9.78-4.81-12.87l-.35-.56s-.49-1.85-1.07-2.24l-.29-1.07s-.1-.79-.68-1.56q.1-1.46-.58-1.95c.17-1.68,.25-3.73-.58-4.67,0,0,.59-.7,.88-2.14,.29-2.6,1.74-4.76,2.63-5.25,.3,2.59,4.27,4.89,6.32,5.55,2.2,.09,3.87,.71,5.74,2.14,1.65,1.26,2.43,.97,2.92,.58,.6-.48,1.65-.82,2.63-.2,3.59,0,6.57-3.08,7.1-4.67,.02,0,1.77,.17,3.31-2.34,2.23-3.57,2.61-5.15,2.53-5.84,0,0,.68-.6,.58-2.04,1.7-1.3,1.84-2.59,1.75-3.79,.51-.49,.77-1.02,.78-1.62,.03-1.63-1.77-3.48-3.85-5.62l-.34-.35c-2.65-2.74-3.36-2.28-4.44-1.57l-.33,.21c-.99-1.8-2.1-1.99-2.93-1.78-1.17,.31-2.11,1.64-2.12,2.09-.06,2.12-.28,2.66-.5,3.19-.44,1.05-.24,1.4,.15,2.09l.14,.24c-.88,.49-1.36,2.05-1.46,2.72-1.9,.72-2.62,2.2-3.1,3.19l-.11,.22c-1.01,.29-1.79,.76-2.24,1.36-.29-2.04-2.46-3.71-3.7-4.38,.69-4.25-.94-6.08-2.43-7.2,.01-.03,.97-2.93,.97-3.6,0-.42-.43-1.54-.88-2.73l-.77-2.13c1.62,.1,4.43,2.18,5.94,3.99,0-3.99-2.68-7.56-4.28-9.34,2.72-2.21,9.82-6.45,12.06-7.2-1.06-.77-7.43-.97-7.49-.97l5.55-5.74c.04-.13,4.09-13.47,4.77-17.51-.06,.05-6.15,4.78-7.98,5.94,1.74-2.22,4.38-13.81,4.67-17.03-2.19,3.91-5.57,7.05-7.02,8.39,1.77-4.53,2.68-13.99-3.47-32.84l-.12-.35c-1.11,4.68-3.44,8.83-4.7,11.06l-.66,1.2s-.1-3.9-.29-4.38l-1.07-2.37c-2.85-6.29-10.41-22.98-11.29-25.84,0,.89-2.55,9.58-3.02,10.8Z"/><path class="cls-3" d="M76.7,183.53s2.46,4.18,11.09,6.51c3.52,1.05,5.1,.57,5.3-1.75-.53,.53-2.05,2.02-6.36,.95,0,0-4.28-1.07-9.77-6.23l-.26,.51Z"/><path class="cls-3" d="M31.77,185.11s.63,3.7,3.4,6.52c1.07,.92,1.61,1.07,3.36,.39,1.75-.68,6.71-3.65,7.1-4.52-.34-.19-3.02,1.41-4.96,2.48-1.95,1.07-3.45,2.19-5.16,.73-1.6-1.51-3.79-6.03-3.75-5.59Z"/><path class="cls-4" d="M84.8,186.86s-.71,.65-.07,1.1c.65,.46,4.09,1.88,6.62,1.17,1.36-.45,2.33-1.88,1.49-3.7-.84-1.82-2.92-2.47-4.99-1.17-1.49,.84-3.05,2.59-3.05,2.59Z"/><path class="cls-4" d="M33.47,184.82s-1.02,.34-.58,1.41c.44,1.07,2.58,3.89,3.21,4.43,.63,.54,1.56,.54,3.65-.68,2.09-1.07,3.31-1.46,3.06-2.38-.24-.92-4.18-4.86-9.34-2.77Z"/><path class="cls-4" d="M82.71,178.29s1.43-.66,2.69-.77c.82-.28,1.87-.72,2.2-.6-.6,.77-1.92,1.15-2.31,1.15-.77,.17-2.25,.39-2.58,.22Z"/><polyline class="cls-10" points="76.77 179.55 76.77 180.14 79.56 182.27 80.03 184.86 80.49 185.32 79.89 182.2 76.77 179.55"/><path class="cls-13" d="M31.54,185.04s1.56,5.25,2.98,6.42c-.45-1.69-.45-2.34,.26-2.14-1.17-2.14-3.31-5.38-3.24-4.28Z"/><path class="cls-13" d="M85.51,188.55v.91s-6.75-1.69-9.02-6.23l.28-.36s5.43,5.03,8.74,5.68Z"/><polygon class="cls-11" points="76.77 182.53 79.56 184.99 79.3 182.73 76.84 180.81 76.74 180.75 76.77 182.53"/><path class="cls-11" d="M38.38,175.52s0,1.07,1.51,.92c-.19-.29-1.17-.54-1.51-.92Z"/><path class="cls-11" d="M37.41,173.63s-.24-.05-.24,.29,1.41,1.41,2.29,1.85c.88,.44,5.69,2.63,8.22,.63-.05-.24-.49-.2-1.02,0-.54,.19-2.09,.83-5.16-.34-2-.73-2.92-1.27-4.09-2.43Z"/><path class="cls-11" d="M39.41,174.79s2.87,.24,4.52,1.27c-.1,.44-2-.1-4.52-1.27Z"/><path class="cls-11" d="M78.65,176.47s-.22-.38,.99-.38,3.24-.17,3.57,.11c.11,.27,.33,.22-.44,.33-.77,.11-3.9-.05-4.12-.05Z"/><path class="cls-11" d="M78.15,176.69s-.49,.38-.11,.55c.38,.17,.99,.39,1.43,.17,.44-.22,5.71-.22,6.1-.22s3.27-.98,3.24-1.54c0-.44-.11-.33-.66-.16-.55,.16-1.76,.99-2.64,.99s-3.13,.49-5.17,.44c-1.54-.11-2.03-.16-2.2-.22Z"/><path class="cls-11" d="M34.13,184.2s-.32,3.11-.19,4.09c-1.36-2.4-2.66-3.24,.19-4.09Z"/><path class="cls-7" d="M77.39,164.98s.77,1.41,2.01,1.03c-.51-.51-2.01-1.03-2.01-1.03Z"/><path class="cls-14" d="M85.6,185.32l.27-1.33,3.25-1.66,.07,1.13s-.53-.33-3.59,1.86Z"/><path class="cls-14" d="M37.65,182.43s-.68-.2-.97,.15c-.29,.34-.78,.97-.29,1.07,.49,.1,3.89,1.07,4.33,1.46,.44,.39,.83,.39,.83-.15s.1-1.12-.88-1.61c-.97-.49-2.38-.92-3.02-.92Z"/><path class="cls-14" d="M32.4,184.52s-.19,.54,.24,.39c.44-.15,2.29-.83,2.53-1.02,.24-.19,.97-.92,.88-1.41-.44-.1-.88,.39-1.27,.88-1.17,.39-1.95,.78-2.38,1.17Z"/><path class="cls-14" d="M37.51,179.61s-.83,1.36-.49,1.36,4.38,.97,5.11,1.41c.73,.44,.78,.63,.73,1.17-.05,.54-.15,1.46,.15,1.9,.29,.44,.97,1.95,1.22,1.95s1.65-.14,2.58-3.26c.93-3.11,1.61-6.47,1.07-6.28-.54,.19-2.63,1.27-4.14,.97-1.51-.29-4.91-1.31-5.11-1.12-.19,.19-1.12,1.9-1.12,1.9Z"/><path class="cls-14" d="M48.06,176.64s.78,0,.05,.73c-.83,.49-2.97,1.22-3.94,1.12-.97-.1-4.77-1.07-5.4-1.27-.49,.24-2.29,3.94-2.29,3.94,.78,.2,5.94,1.12,5.98,2.04-.05,.92-.15,1.99,.15,2.29,.29,.29,1.17,2.04,1.12,2.29-.2,.24-1.36-1.51-1.61-1.9-.24-.39-.15-1.99-.24-2.38-.1-.39-3.21-1.56-5.98-1.56-.49-.1-.44-.24-.14-1.07,.29-.83,2.58-4.43,2.87-4.48,.49,.19,4.96,1.61,5.69,1.51,.88-.1,3.75-1.26,3.75-1.26Z"/><path class="cls-14" d="M48.55,167.89l4.18-.19s-2.14,6.81-3.75,7.83c-1.7,.39-3.7,.34-3.45-.49,.24-.83,.83-2.04,.78-2.29-.05-.24-.49-.05-.63,.39-.15,.44-.44,1.65-.68,1.61-.24-.05-4.77-.54-5.21-1.65,.15-1.17,.83-5.25,1.41-5.11,.58,.15,3.84,1.22,5.35,1.31,.19,.49-.58,2.58-.44,2.73,.15,.15,.44,.1,.44-.24s1.36-3.55,2-3.89Z"/><path class="cls-14" d="M44.12,175.67s1.41,1.02,1.41,.39c-.68-.73-1.07-1.02-1.61-1.12-.54-.1-4.14-.73-4.57-1.56,0-.93,.83-5.5,1.31-5.89,.54-.1,5.01,1.41,6.08,1.51,.58-.1,1.46-1.51,1.46-1.51,1.02-.1,4.28-.1,5.25-.63,.44-.58,.19-1.51-.24-1.61-.49-.05,.1,.92-.49,1.12-.58,.19-4.91,.34-4.91,.34-.49,.88-1.12,1.51-1.36,1.51s-5.98-1.9-6.18-1.61c-.19,.29-1.8,5.5-1.6,7.25,.54,.49,5.4,1.65,5.45,1.8Z"/><path class="cls-14" d="M41.4,164.09s-.15,.73,.1,.78c.24,.05,.54-.39,.73-.24,.2,.15,4.87,1.07,4.91,1.26,.05,.19,1.17,.83,1.22,.24,.05-.58,.15-.73-1.31-.97-1.46-.44-5.59-1.61-5.64-1.07Z"/><path class="cls-14" d="M41.84,165.6s-.29,.92,.63,1.02c.92,.1,3.07,1.22,3.41,1.26,.34,.05,1.8-.83,1.31-1.51-.49-.68-5.3-1.56-5.35-.78Z"/><path class="cls-14" d="M83.68,186.66s0,1.12,.24,.78c.24-.34,.53-.97,1.02-1.51,.24-.68,.19-2.09,.54-2.34,.34-.24,2.19-1.17,3.26-1.41,1.07-.24,1.9-.1,1.41-1.07-.49-.97-1.51-3.26-1.95-3.36-.44-.1-3.5,1.02-5.01,.83-1.51-.19-3.21-.34-5.93-1.31-.49-.2-.68,.34,.05,.68,.73,.34,5.21,1.41,6.28,1.31,1.07-.1,3.84-.83,4.04-.83s.24-.39,.92,.68c.68,1.07,1.31,2.19,.83,2.29-.78,.1-4.62,1.27-4.72,2.38-.1,1.12,.24,1.75-.97,2.87Z"/><path class="cls-14" d="M88,177.28s1.02-1.51,1.26-1.51c.34,.19,.29,.58,.1,.78-.19,.2-1.02,.93-1.36,.73Z"/><path class="cls-14" d="M89.61,177.08s-.97,.1-.78,.49c.19,.39,1.8,4.04,1.8,4.04-.1,.15-.34,.54-.24,.88,.1,.34,1.61,.68,1.56,.2-.05-.49-2.14-5.59-2.34-5.59Z"/><path class="cls-14" d="M90.15,182.68c-.12-.09-.73-.49-.73-.24s.24,.83,.49,.83,1.17,.19,1.46,.34,.88,.54,.97,.29c.1-.24,0-.54-.63-.73-.63-.19-1.22-.24-1.56-.49Z"/><path class="cls-14" d="M76.77,178.83l.53-.49s2.43,.88,2.77,.88c-.44,.15-.58,.63-.34,.58,.24-.05,.97-.54,.97-.54l.19,.05s-1.07,1.17-.78,1.17,1.46-.93,1.61-1.02c.63,.2,1.6,.2,1.85,.2,.83-.1,4.23-.73,4.23-.73,.83,1.22,1.12,2.04,1.12,2.04,0,0-4.48,1.61-4.57,2.19-.1,.58,.15,1.75-.44,2.34-.58,.58-.63,.73-.63,1.31s-.34,.1-.92-.1c-.58-.19-1.22-.54-1.46-1.9-.24-1.36-.14-2.53-1.26-3.36-1.12-.83-2.87-2.63-2.87-2.63Z"/><path class="cls-14" d="M88.64,165.36s1.26-.97,1.26-.78v8.47c-.05,.44-.97,1.6-1.22,1.46-.24-.15,.05-2.77-.24-4.09-.29-1.31-1.22-4.18-.78-4.38,.44-.19,.97-.68,.97-.68Z"/><path class="cls-14" d="M80.37,166.28s-.63,.1-.54-.44c.1-.53,.39-.44,1.65-.58,1.26-.15,2.67-.49,3.55-.73,.88-.24,2.43-.68,2.43-.34s-.34,.97-.83,.83c-.49-.15-3.89,.73-4.87,.78-.97,.05-1.41,.49-1.41,.49Z"/><path class="cls-14" d="M81.29,166.23s-.58,.34-.44,1.07c.15,.73,.83,.68,1.75,.63,.92-.05,3.6-.58,3.6-1.07s.58-1.56-.05-1.56-4.86,.93-4.86,.93Z"/><path class="cls-14" d="M89.03,163.02s-.73-.24-.39,.39c.34,.39,.68,.58-.63,1.31-1.12,.68-1.46,1.17-1.31,2.04,.24,.49,.49,.29,.49-.24s-.05-.73,.39-.97c.44-.24,1.75-1.07,2.04-1.46,.29-.39-.29-1.02-.58-1.07Z"/><path class="cls-14" d="M74.48,164.53s-1.22,1.12-.34,1.61c.88,.49,2.33,.73,2.87,.73s2.38,.44,2.48,.78c.1,.34,.49,1.46,2.19,1.36,1.7-.1,3.7-.68,4.28-.68s1.27,.1,1.51,1.61c.24,1.51,.54,3.84-.19,4.57-.73,.58-2.72,.73-4.18,.58-1.46-.14-3.21,0-4.23,.68,.92-.1,2.09-.53,3.5-.34,1.41,.2,5.3,.78,5.69-1.26,.39-2.04,.1-6.57-1.46-6.62-1.75,.15-4.33,1.22-5.84,.54-.78-1.17-.93-1.36-1.61-1.51-.68-.15-5.4-.24-4.67-2.04Z"/><path class="cls-14" d="M74.19,166.72s.68,7.15,2.48,8.71c.97,.58,1.12,.39,1.9-.05,.78-.44,1.46-.68,1.99-.68s3.79,.1,4.43,.1,2.63,.1,2.33-2.68c-.29-2.77-.29-3.45-1.85-3.36-1.51,.29-3.31,.88-4.96,.53-1.12-.39-1.17-1.65-2.43-1.7-1.27-.05-3.89-.88-3.89-.88Z"/><path class="cls-10" d="M32.4,182.82s-.34,1.26-.19,1.26c.19-.1,3.11-1.41,3.02-1.61-.1-.19-.44-.92,.34-2.19,.78-1.26,2.09-3.02,1.95-3.21-.49-.63-1.22-1.51-1.51-1.17-.29,.34-3.16,5.98-3.6,6.91Z"/><path class="cls-10" d="M36.54,173.72s-.49-.05-.34,.78c.15,.83,1.36,2.34,1.75,2.14,.15-.34-.39-1.22-1.41-2.92Z"/><path class="cls-10" d="M38.43,164.24l1.75,1.65s-1.9,4.77-1.99,7.49l-1.36-1.31s-.39-3.6,1.6-7.83Z"/><path class="cls-10" d="M39.36,161.46l-.05,.92s-.49,.44,.05,1.02c.54,.58,1.8,1.65,1.8,1.65,0,0,.15,1.36-.19,1.27-.34-.58-2.38-2.68-2.38-2.68-.58-.97-.1-1.7,.78-2.19Z"/><path class="cls-10" d="M41.98,162.99s-.19,1.95,3.5,4.86c-3.18-1.1-3.89-.52-4.09-2.79-.78-1.36-.65-2.2,.58-2.08Z"/><path class="cls-10" d="M36.79,178.75s1.56-1.49,2.53-1.17c.97,.33,3.96,.84,4.67,.26-6.24-1.44-5.58-1.82-5.58-1.82l-1.62,2.72Z"/><path class="cls-10" d="M75.71,165.32l4.09,1.23,.26,2.27-1.56-1.3-4.6-1.17s-.97-1.62,.52-2.21c1.49-.58,1.3,1.17,1.3,1.17Z"/><path class="cls-10" d="M82.39,178.23l-1.17,.91s-2.66,.84-1.49,2.08c1.17,1.23,4.34,4.48,4.34,4.48l.58,.91-.58,1.3-.78-.32s-2.14-1.23-2.46-2.08c-.32-.84-.84-3.5-.84-3.5l-3.5-2.92,.39-1.17s-.36-1.12,.45-1.17c.78,.78,2.66,1.36,5.06,1.49Z"/><path class="cls-10" d="M34.46,183.16s-.91,.97,.39,.97c-2.53,1.23-3.08,1.03-2.45,.39,.63-.65,2.06-1.36,2.06-1.36Z"/><path class="cls-10" d="M79.86,168.63s.33,6.16,.84,6.29c.52,.13,3.24,.59,1.49,.72-1.75,.13-3.63,.39-3.63,.39-1.49-.13-2.4-.07-3.31-2.4-.91-2.33-1.3-7.13-1.3-7.13,0,0,5.19,.26,5.9,2.14Z"/><path class="cls-7" d="M85.02,160.78s-.38,.56-1.33-.13c-.94-.68-2.66-1.46-1.97-.34,.26,.47-.04,.64-.3,.34-.26-.3-1.89-1.07-1.59-.77,.3,.3,1.41,1.24,1.37,1.37-.04,.13,.04,.64,.26,.77,.21,.13,1.03,.81,.9,.98-.13,.17-1.03,0-1.93-.69-.9-.68-.94,.17,.26,1.11-.77-.13-1.71-.26-1.71,.17s.21,1.33,.73,1.33,3.3-.34,4.8-.64c1.5-.3,3.56-.94,2.74-1.84-.81-.9-1.37-1.2-1.16-1.63,.22-.43,1.11-2.1-1.07-.04Z"/><path class="cls-7" d="M85.02,154.18s-2.53,.73-2.4,.94c.13,.21,.68,.3,.98,.39,.3,.09,.21,.6,.04,.6s-1.03,.17-.9,.26c.13,.08,1.07,.13,1.11,.26,.04,.13,.73,.94,.69,1.24-.04,.3-.56,1.24-.04,1.11,.51-.13,1.28-.99,1.46-1.33,.17-.34,1.71-4.24-.94-3.47Z"/><path class="cls-7" d="M54.83,137.76s5.64,2.01,8.5,5.9c-.39-.78-1.43-2.98-1.88-3.76,.78,.32,3.05,1.36,3.05,1.36-.52-.78-1.75-2.14-1.75-2.14,1.17,.45,7.59,1.04,9.53,.07-1.1,1.04-1.3,1.56-1.3,1.56l1.88-.52-2.6,3.31c1.3-.97,7.53-6.29,7.53-6.29l-2.21,.06s2.59-1.82,2.46-3.11c-.91-.06-2.53,.07-2.53,.07,0,0,1.69-1.1,1.62-1.49l-.65-.19s.59-.78-.26-1.04c-.84-.26-2.08-.39-2.33-.52,.06,.39,.84,.33,.84,1.17-.84,.13-4.93,.58-10.38-.39-1.49-.33-3.05,0-3.05,0,1.17,.13,2.08,.91,2.08,.91-1.43,0-5.77-1.04-5.77-1.04-.45,0-1.62,.07-.13,.97,1.49,.91,9.15,2.46,11.48,2.08-2.46,.65-7.72,1.82-12.32-.52-.45-.26-.97,.19-.91,1.56l.06,1.36s-1.23-.13-.97,.65Z"/><path class="cls-7" d="M49.64,160.39s1.49-.2,2.08-.58c.58-.39,3.18-3.05,3.11-3.31-.06-.26-.59-.78,.13-1.1,.71-.32,4.08-2.46,6.55-7.07,.32-.65,1.49-1.62,1.49-1.62,0,0-1.23-3.24-6.88-6.42,.65,1.04,.91,2.01,.91,2.01-.78-.33-2.34-1.3-2.34-1.3,1.49,1.69,2.4,2.66,2.4,5.13-.71-.65-2.14-2.01-2.14-2.01,0,0,1.3,2.79,1.3,3.31s-2.01,4.8-2.33,5.32c-.65-.84-2.72-2.14-3.76-2.27,1.04,.65,2.08,2.14,2.34,4.67-.97-1.04-1.1-.84-1.1-.84,0,0,1.43,2.92-1.75,6.1Z"/><path class="cls-7" d="M73.77,142.95s5.58-5.45,5.64-5c.06,.45-1.1,2.85-.71,2.72,.39-.13,1.43-1.69,1.36-1.17-.07,.52-.33,1.1,.13,1.56,.78,.65,4.61,7.33,4.8,8.76-.13,1.3-.19,2.66-.19,2.66-1.75,1.17-1.69,.33-1.69-.06-.39-.26-1.56,.97-1.56,.39,.13-.84,0-1.75-1.88-4.93-2.08-2.85-2.08-3.89-3.7-3.57,.32-.32,.65-.91,.65-.91-.78,0-.78-.84-.78-.84-1.17,.45-1.95,.78-2.08,.39Z"/><path class="cls-7" d="M42.7,161.56s-.52,2.14,.2,2.34c.71,.2,1.49,.2,1.49,.2l-1.69-2.53Z"/><path class="cls-7" d="M47.17,162.27s-1.56-2.08-.97-2.08c1.1,.65,2.08,1.95,2.6,1.95s3.11-.39,3.44-.39c.07,.32-1.04,1.49-1.04,1.49,.78,.58,1.1,.78,.39,1.95-.72,1.17-2.21,1.75-2.6,1.1-.39-.65-.06-1.23-1.69-1.3-1.62-.07-1.3-1.04-.97-1.1-1.82-3.44-.59-2.27,.84-1.62Z"/><path class="cls-11" d="M66.37,125.3l.19,5.38,6.55,.91-.19-5.32s-2.01-1.17-6.55-.97Z"/><path class="cls-4" d="M66.83,125.73c.02,.7,.14,3.98,.16,4.57,.6,.08,4.84,.67,5.66,.79-.03-.81-.15-4.09-.16-4.52-.49-.23-2.27-.91-5.66-.83Z"/><polygon class="cls-15" points="68.94 126.84 68.94 128.66 71.6 129.02 71.67 127.2 68.94 126.84"/><path class="cls-8" d="M21.16,119.72l.07,2.59s3.37,5.64,5.19,6.68c1.95,.26,7.2,.46,8.76-1.04,1.56-1.49,2.85-2.73,2.4-2.66-.78,.26-4.8,1.56-8.5,.58-3.7-.97-5.84-2.34-7.91-6.16Z"/><path class="cls-16" d="M45.49,107.07s2.14,1.95,1.04,4.8c-.78,2.14-1.1,2.72-1.1,2.72-1.04,1.56-2.01,3.89-2.27,4.28-.26,.39-.97,.59-.91,.91,.06,.32,.91,1.3,.97,1.04,.06-.26,.39-1.56,.58-1.56s-.32,1.88-.19,2.34c.13,.45,.45,.39,.45,0s.65-2.72,.65-2.14-.32,2.59-.13,2.59,.32-1.3,.52-1.75c.32-.07,.2,1.69,.45,1.82,.26,.13,1.04,.45,1.04-.58,.2-.52,.2-.07,.33,.45,.13,.52,1.04,.45,1.3,.26,.26-.19,.45-2.01,.45-1.75s.07,2.01,.07,2.01l.52,.07s.78,.65,1.49,4.41c.91-.45,6.88-2.47,15.05-2.53,5.45-.06,9.21,.71,11.42,1.69,1.04,.32,1.3,.52,1.69-.91,.39-1.43,.39-3.5,1.62-4.93,1.23-1.43,3.31-2.08,3.96-5.13,.45-1.62,.32-2.85,.39-3.5,0-1.75-.58-4.28-1.1-5.12,.91,.71,2.92,6.36-.13,11.55-.91,1.1-.52,1.36-.13,1.82,.39,.45,.13,1.17,.26,1.43,.13,.26,1.1,.13,1.69,.33,.58,.19,1.04,1.88,1.43,2.01,.39,.13,1.04,.45,1.56,.45s.84,.39,1.49,.39,1.1-.52,1.3-.59c.19-.06,1.17,.84,1.88,1.62,.71,.78,2.79,2.07,4.02,1.36,1.1-.71,1.82-.26,2.4-.26s4.35,.71,6.36-3.31c-1.17-.19-6.23,.2-8.76-4.15-.97-2.14-1.82-3.18-.39-6.94-1.23,.97-3.56,1.75-4.09,6.16-.06-1.62-.06-3.18,1.82-5.06-.39-1.43-2.27-3.96-4.15-4.35-1.88-.39-3.76,1.1-3.76,1.1,.26-.58,1.82-1.94,4.02-1.43,.13-1.88,1.36-4.67-5.19-9.28,.19,.39,.19,1.49,.19,1.49,.58,.13,2.4,1.75,2.6,3.37-.65-1.1-2.01-2.72-3.05-2.85-.59,.91-3.05,3.18-3.05,3.18,.97,1.69,3.05,5.12,.26,8.43-1.23,1.23-2.34,1.62-5.38-.13,1.23,1.75,2.4,3.24,.78,4.93,.07,2.47,.59,4.87-1.81,4.74-1.36-.26-2.79-.91-3.5-.19-1.56,1.3-1.49,1.17-2.53,.45-1.43-1.36-3.5-2.66-6.1-1.49-1.62,.84-2.08,1.56-3.05,.71-1.23-1.04-2.07-1.62-1.56-2.72,.52-1.1,1.43-2.01,1.43-2.01-1.88,.78-2.85,1.17-2.85-.26s.58-2.92,1.17-3.44c1.17-.78,2.53-1.36,2.53-1.36-1.95,.39-4.02,1.04-6.23,1.56-2.21,.52-3.5,.52-5.77-1.56-2.01-1.81-2.53-2.73-2.53-3.83-.2-.91-.71-1.69-1.43-1.36Z"/><path class="cls-16" d="M36,125.51l-2.24,3.33s1.73,0,3.64-2.45l.72-1.49-2.12,.61Z"/><path class="cls-8" d="M40.99,96.45l1.35,1.28c.73-.43,.86-.49,.86-.49l.12,.24-1.04,1.22s.12,1.22-2.08,2.14c.06,.12,.67,.31,.98,.37,.31,.06,2.69,2.26,3,4.58,.98,.98,.98,.73,.98,.73l-.12-1.47,.31-.06,.37,.86s-.12-2.38,.06-2.38c.31-.37,.98-1.04,.98-1.04l.24,1.34,.49-.8,.49-.12s-3.12-2.81-4.64-7.09l-2.32,.67Z"/><path class="cls-8" d="M83.76,106.56s1.42,.37,2.37,2.88c.18-.96,3.28-3.05,4.54-.54-1.02-.24-4.78,.36-4.84,3.35-.12,1.79,.12,2.81,.95,3.46,.84,.66,4.12,2.33,5.97,.83,.06,.54,.24,1.55,.54,1.61,.3,.06,2.87-1.31,2.99-1.97,.18,1.61,2.27,6.45,8.72,6.99-.78,1.31-1.26,3.17-5.14,3.88-1.43-.24-2.03-.3-2.63,.12-.6,.42-1.97,.54-3.82-1.07-2.09-1.19-.6-.9-4.9-1.55-1.97-.6-1.79-.78-2.75-1.49-.95-.72-2.87-1.91-2.99-2.87-.12-.95-.06-1.43-.06-1.43,0,0,4.68-3.85,1.03-12.2Z"/><path class="cls-8" d="M45.23,107.11s3.58,2.15-.42,7.7c-2.81,4.96-3.64,4.9-2.09,6.33,1.55,1.43,6.09,1.97,6.09,1.97,.24,1.08,1.79,2.63,1.79,4.36l4.54-1.61s-.6-.36-.9-2.21c-.48-1.73-1.55-3.16-1.55-3.16,.54-.95,3.76-4.89,2.98-4.6-.77,.3-2.33,.6-2.39-.12-.06-.72,.18-.72,4.84-2.69-2.87,.54-4.9,1.55-7.11,0-2.21-1.55-4-3.28-4-5.31-.78-1.25-1.91-1.79-1.79-.66Z"/><path class="cls-14" d="M22.33,113.3s-.45-1.17-.97,0c-.52,1.17-1.3,2.2-.52,4.41,.78,2.2,2.53,5.9,7.78,7.65,2.47,.52,7.85,.78,10.83-1.88,.91-.91,1.75-2.72,1.69-3.18-.84,.13-4.35,1.56-9.15,.13-4.8-1.43-7.33-3.24-9.66-7.14Z"/><path class="cls-14" d="M22.98,111.1s-2.08-.65-2.08-1.95,.45-5.77,.45-5.77c2.14-2.6,6.81-7.65,7.72-7.91,.91-.26,2.92-.91,4.93,1.88,.19,.52,.39,.78-1.36,2.27-1.75,1.49-5.32,6.03-5.25,6.81,.45,.13,.71-.58,1.3-1.49,.58-.91,3.57-5.25,7.01-6.49,1.17-.33,4.35,1.75,4.02,3.57-.72,1.56-5.32,8.24-5.32,8.24,.06,.26,.45,.33,.78-.06,.32-.39,4.86-7.65,4.99-7.98,.13-.32,1.36-.32,2.53,1.23,.78,1.1,1.56,3.31-1.88,8.69-.39,.84,.06,1.1,.65-.07,.58-1.17,1.81-3.44,2.33-5.25,0-.91,.52-.32,1.04,.39,.52,.71,2.92,2.47,.32,6.49-2.01,3.24-2.92,5.45-4.15,5.97-1.23,.52-7.2,2.27-13.3-1.56-2.34-1.04-7.13-6.42-4.73-7.01Z"/><path class="cls-14" d="M23.69,99.75s4.35-4.67,5.97-4.99c1.62-.33,3.31-.07,4.8,2.01,.58,1.17,.91,1.1,1.43,1.1s2.08,.39,2.98,1.23c.91,.84,.78,1.23,1.17,1.23s2.4-1.75,1.62-2.4c-.78-.65-1.82-1.04-2.59-1.49-.78-.45-2.66-1.95-3.76-4.09-1.04-.45-3.7-.46-4.35-.13-.65,.33-3.05,2.14-4.02,2.59-.97,.45-3.05,1.62-3.24,4.93Z"/><path class="cls-14" d="M101.48,103.7s-.33,1.26,.6,1.73c.93,.47,1.6,.47,2.79-1.59,1.2-2.06,2.06-3.98,.6-4.92-1.46-.6-2.99,0-3.26,1.66-.27,1.66-.73,3.12-.73,3.12Z"/><path class="cls-14" d="M111.9,115.19s-.87,3.39-4.98,3.99c-2.99,.26-7.44-2.13-7.5-5.98,.13-.93,.13-1.46,.07-1.66,0-.6,.6-1.66,.73-2.06,.13-.4,.07-.86-.99,0-1.06,.86-3.25,3.46-2.46,7.77,.86,2.79,3.98,5.71,8.37,5.45,2.06-.13,5.38-.87,6.77-7.51Z"/><path class="cls-14" d="M102.28,106.29s.2,1.59-.2,1.93c-.4,.33-.27,1.4-.07,1.53,.2,.13,.4,.6,.07,1-.33,.4-.87,1.19-.73,2.32,.13,1.13,2.66,4.05,3.19,3.85,0-.4-.47-1,0-.86,.8,.27,1.26-.07,.33-.66-.93-.6-2.72-.86-3.06-1.86-.33-1,.27-3.32,2.13-2.66,1.86,.66,3.19,1.73,4.25,1.73-.33-.47-2.52-1.79-3.72-2.33-1.26-.13-2.06,.33-2.13-.73,.27-1.26,1.2-2.39,1.99-2.59,.8-.2,1.92,0,3.79,1.93,1.79,1.26,3.19,1.86,1.26,.4-1.99-1.79-3.59-3.19-4.58-2.99-1,.2-1.6,1.2-1.73,.93-.13-.27-.27-.73,.33-1,.6-.27,1.93-1.46,2.33-2.32,.4-.86,1.73-.8,2.59,.13,.86,.93,2.26,2.13,2.52,2.52,.27,.4,1.2,.47,.73,.07-.47-.4-3.05-3.19-3.32-3.45-.27-.27-1.06-.73-2.39-.2,.46-1.06,1.26-3.45,2.92-2.99,1.66,.47,5.38,4.72,6.04,5.71,.66,1,.4,2.66-.53,3.19-.93-.27-.46,.13-.07,.46,.46,.67,.07,2.19-.86,2.39-.6,.07-.86-.13-.86-.13,.13,.66,1,3.12-1.46,3.19,.06,.93-.33,3.46-4.38,3.99-2.59,.07-5.38-1.46-6.64-4.85-.26-1.79,.53-3.25,1.26-3.72-.53-.8-1.06-4.58,1-3.92Z"/><path class="cls-10" d="M101.33,103.43s.54,2.24,2.19,1.17c1.51-1.07,1.85-1.31,1.85-1.31-.34,1.7-.14,3.02-.78,3.55-.63,.54-1.02,.88-.88,1.85,.15,.97,1.17,2.19,1.17,2.19-.92-.34-1.95,.63-1.95,1.41s.2,1.36,1.31,1.95c1.12,.58,4.67,2.68,4.38,3.4-.29,.73-4.04,5.35-4.04,5.35-2.72-.29-7.1-.97-8.12-6.91,.05-2.24,3.55-4.72,3.55-4.72,.29-.97,.58-1.31,.58-1.31-.29-1.65-.1-3.7,.92-4.13-.29-.73-.19-2.48-.19-2.48Z"/><path class="cls-10" d="M25.35,98.76s-.44-.83,3.55-5.25c-2.33,1.12-4.23,2.53-4.52,2.92-.29,.39-1.17,1.56-.73,3.84l1.7-1.51Z"/><path class="cls-10" d="M33.03,95.55s1.7,.97,2.48,1.61c.78,.44,3.94,1.75,4.33,2.14,.39,.39,.49,.78,.83,.78l-.83,.58s-1.46-2.09-2.82-2.29c-1.36-.19-2.33-.24-2.33-.24l-1.65-2.58Z"/><path class="cls-10" d="M21.16,119.09s-1.02-2.34,1.41-5.69c-.49-.92-.68-2.04-.49-2.29-.83-.58-1.65-1.07-1.31-3.45,.39,.63,.83,2.14,1.65,2.14s3.16,.97,3.45,1.31c.29,.68,.78,2.82,1.8,2.87,1.02,.05,2.58,.29,2.72,.58,.15,.29,1.61,.73,2.68-.24,1.07-.97,1.36-.92,1.36-.92,0,0-1.12,2.04-.97,2.63,.15,.58,1.12,1.75,1.7,1.51,.59-.24,1.95-1.07,1.95-1.07,.1,.29-.1,1.31,.29,1.26,.39-.05,1.7-.78,1.8-.19,.1,.58,0,1.46,.88,1.46s2.24-.15,2.24-.15c0,0-.63,1.36-3.06,1.6-.63,1.17-3.26,5.06-3.26,5.06-2.34,.49-10.22,2.63-14.84-6.42Z"/><path class="cls-2" d="M76.1,109.48s.84-7.07,.39-7.46c-.46-.39-3.37-1.75-8.89,.26-1.04,.91-1.23,.97-.71,1.75,.52,.78,1.36,1.62,1.36,1.62,.19,.58,.84,1.23,.97,1.56,.13,.33,0,2.01,.19,2.33,.19,.33,1.49,1.75,2.21,1.82,.71,.07,3.31,.2,6.16,1.62,2.01,.97,3.7,1.17,4.86-.97,.78-2.01,1.3-3.95-1.04-7.2-1.23,1.17-5.51,4.67-5.51,4.67Z"/><path class="cls-2" d="M63.33,110.12s-8.56-3.24-14.34-6.81c-.39-.13-1.49,.26-2.46,2.4-.26,.91,.32,2.27,.71,2.27,0,.45,.13,1.93,2.07,3.9,2.07,2.05,3.32,2.13,5.2,1.68,1.95-.65,5.97-1.55,9.21-1.81,3.24-.26,5.9-1.17,5.19-3.89-.71-1.69-2.01-3.05-2.4-3.11-.39-.06-2.47-.13-2.47-.13,0-.26,.13-.32,1.3-.32h1.17c0-.39-.65-1.69-3.18-2.85-2.21-1.04-5.51-1.56-6.03-1.23,.13,.39,2.98,6.55,6.03,9.93Z"/><path class="cls-5" d="M68.96,110.36s-1.31,1.66-4.69,1.66c-2.07,.21-4.9,1.59-5.52,2.55-.62,.97-.83,2.96,0,2.9,.9-.41,2.41-.97,2.76-.62-.76,.76-2.21,2.69-1.86,3.31,.34,.62,1.79,2,2.35,1.65,.55-.34,5.79-2.62,7.79-1.79-.69,.14-2.28,.34-1.86,.55,.41,.21,2.55,2.48,2.9,2.34,.34-.14,1.72-1.1,2.48-1.1s2.21-.07,1.1-.62c.69,.07,.69,.97,.96,.97s2,.42,2.07-1.17c.07-1.59,.14-3.1-.62-3.93,1.17,.07,2-.76,.41-3.1-1.45-1.45-2.07-1.86-6.34-2.48-.69-.48-1.52-1.45-1.52-1.45l-.41,.35Z"/><path class="cls-5" d="M54.88,107.61s2.92,.15,3.79,.49c.88,.34,3.94,1.65,3.94,1.65-2.39,.24-8.81,.97-10.07,.58-1.26-.39-3.16-2.19-2.58-3.36,.58-1.17,2.77-.73,4.91,.63Z"/><path class="cls-5" d="M57.31,100.85s3.94,7.78,5.55,8.81c1.17,.29,6.67,.63,6.37-.88-.39-1.95-1.22-2.97-2.38-4.23-1.17-1.26-4.67-4.38-9.53-3.7Z"/><path class="cls-5" d="M66.74,103.38s5.64-3.7,9.97-1.7c.68,2.58-.34,7.15-.34,7.15,2.29-2.24,5.4-4.43,5.4-4.43,0,0,3.55,4.52,.63,8.17-1.17-.29-5.64-2.77-7.83-2.87-2.19-.1-3.55,.34-4.33-.88-.78-1.22-2.29-3.16-2.43-3.36-.15-.19-1.26-1.6-1.07-2.09Z"/><path class="cls-2" d="M70.39,113.35s1.75-.34,6.66,2.58c.39,.29,1.07,.68,.97-.58,.29,1.46,.24,1.95-.83,1.9-.68-.15-2.68-2.34-3.65-2.72-.97-.39-3.16-1.17-3.16-1.17Z"/><path class="cls-2" d="M61.05,99.36s.45,1.04,1.75,1.43c1.3,.39,2.2,1.17,2.79,1.82,.59,.65,1.04,0,1.43-.33,.39-.33,3.57-2.01,8.11-1.17,.97,.06,.91-.2-.84-2.27-1.75-2.08-2.01-2.01-2.33-1.69-.33,.32-.59,.65,.06,1.49-.58-.39-.91-.45-.65-1.36,.13-.45-.58-.2-1.1,.19-.52,.39-1.1,.91-1.49,1.75-.39,.84-1.95,2.14-1.95,2.14,.39-.45,1.95-2.4,1.95-3.11-.13-.13-1.3,.46-2.08,.91-.78,.45-1.75,.71-5.64,.19Z"/><path class="cls-2" d="M61.3,112.57s-.97,1.8-.05,1.6c.93-.19,5.55-.88,6.76-.63-2.63,.2-5.3,0-6.96,3.31-1.6,.83-3.07,1.61-3.11-.05-.05-1.65,1.02-3.26,3.36-4.23Z"/><path class="cls-2" d="M61.05,116.85s-.58,2.82,.63,2.92c1.22,.1,8.13-1.41,9-1.41s4.09,.97,5.25,1.9c1.17,.92,1.27,1.8,.97,1.95-.29,.15-1.36,.34-2.43-.24-1.02,0-1.26-.44-3.02,.83-.83,.49-1.17,.1-1.7-.24-.54-.34-2.87-2.09-2.87-2.09-2.04,.2-3.7,.83-5.16,1.8-1.8-.83-2.58-1.56-2.43-2.43,.15-.88,1.51-2.87,1.75-2.97Z"/><path class="cls-2" d="M67.04,104.25s4.14-1.12,3.16,.54c-1.46,.15-2.24,.92-2.24,.92l-.92-1.46Z"/><path class="cls-3" d="M57.29,101.04s5.84-.33,8.76,3.5c.84,.91,2.92,2.34,2.79,5.58,.52-1.3,.39-2.66-.52-3.89-.91-1.23-1.43-1.95-1.69-2.21-.26-.26-.45-.78-.45-.78,0,0-2.33-3.37-9.6-3.24l.71,1.04Z"/><path class="cls-3" d="M66.89,104.03s.7-1.98,3.7-1.62c2.99,.36,5.1,.64,4.46-.25-.64-.89-.94-1.16-2.99-1.05-2.05,.11-5.57,1.05-5.57,2.3,.22,.64,.41,.62,.41,.62Z"/><path class="cls-3" d="M61.93,112.43s.34,.15,1.41,.39c1.07,.24,2.43,.05,3.55-.68,1.12-.73,1.46-1.61,1.46-1.61,0,0-1.65,1.31-3.5,1.31s-2.77,.44-2.92,.58Z"/><path class="cls-3" d="M71.76,111.5s.44,.63,.73,.83c.29,.19,2.34,1.22,3.5,.49-.83-.73-.63-1.36-4.23-1.31Z"/><path class="cls-3" d="M65.67,115.05s-1.02,.15-.15,.73c.88,.58,1.66,.97,2.29,.97s1.6-.49,.97-1.65c-.78-.49-1.7-.44-3.11-.05Z"/><path class="cls-3" d="M72.73,116.27s-.54-.83,.44-.58c.97,.24,2.04,1.27,2.04,1.7s-2.29,.19-2.48-1.12Z"/><path class="cls-3" d="M76.18,109.26s5.11-3.75,5.55-3.55c.39,.39,1.85,3.21,.73,6.67,.78-1.17,2.14-3.94-.68-7.98-1.12,.73-5.59,4.86-5.59,4.86Z"/><path class="cls-3" d="M68.11,102.11s1.75-3.26,2.82-3.16c1.07,.1,2.63,1.75,2.77,2.14-.97-.24-4.33,.29-5.6,1.02Z"/><path class="cls-5" d="M62.43,70.57s.68,1.69,1.24,.22c.56-1.47,3.78-8.85,9.25-14.94,2.42-2.65,3.22-3.67,6.04-1.81,2.82,1.86,6.15,7.22,6.48,9.53,.34,2.31,.28,7.05-.45,7.73-.73,.68-1.75,.9-1.75,.9,.9,.84,2.2,2.48,1.81,3.72-.56,1.24-3.61,9.08-4.23,10.55-.62,1.47-1.24,3.89-3.84,5.81-2.59,1.92-9.36,6.49-11.17,6.82-1.81,.34-4.11-.11-6.37-1.58-2.09-1.58-7-4.4-9.36-6.71-2.37-2.31-2.09-2.31-3.1-5.7-1.02-3.38-1.86-6.54-2.43-8.23-.56-1.69-1.02-1.97-.51-2.71,.51-.73,1.69-2.88,1.24-3.1-.45-.22-2.42-.45-1.86-4.62,.56-4.17,4-9.93,7.05-12.75,1.58-1.18,3.22-.34,4.96,2.82,1.75,3.16,6.99,14.04,6.99,14.04Z"/><path class="cls-2" d="M56.32,57.46s-3.37-3.89-5.06-2.66c-.97,.72-1.17,2.01-1.23,5.39-.06,3.37-.52,6.29-.91,6.87-.39,.58-1.56,1.23-.71,5.06,.19,3.83,1.23,10.44,3.7,10.77,2.46,.33,6.55,.71,6.55,.71,0,0,.71-1.56,1.23-1.56s1.95,.65,2.66,.65,2.27-.26,2.86-.32c.58-.07,1.78-.44,1.78-.44,0,0,.55,1.54,3.21,1.09,2.66-.45,7.13-2.46,7.13-2.46l1.88-5.71,2.08,1.1s-.97,.58-3.83,5.64c-2.59,2.59-3.83,3.57-8.43,3.83-1.56,.45-2.08,.39-3.37-.39-1.3-.78-3.13-.28-3.32,1.34-.19,1.62,.21,3.72,.73,3.98,.52,.26,.26,.91-.39,1.17-.91,1.17-.32,3.83,.39,3.89,.71,.06,3.72,.04,3.45,.64-.79,.59-3.06,1.5-2.87,2.22,.19,.71,.71,1.3,2.08,.97-1.75,.45-2.85,.91-5.58-.85,.97,1.82,.84,2.21,.84,2.21-4.41-.91-4.73-1.1-4.73-1.1,0,0-2.27-5.25-2.53-5.25-6.36-4.61-7.2-7.39-7.2-7.39-4.28-.65-7.13-2.53-7.13-2.53l-2.92-5.9,.45-8.69,1.88-1.36s2.72-4.28,2.72-4.74,3.89-7.4,3.89-7.4c0,0,2.72-2.79,3.7-3.5,.97-.71,1.3-1.94,2.33-1.43,1.04,.52,4.35,4.22,4.67,6.16Z"/><path class="cls-5" d="M52.49,85.04s-.54,.49,.54,1.22c1.07,.73,2.53,2.14,3.06,2.04,.54-.1,3.94-2.04,2.38-2.87-2.33-.34-4.18-.68-5.98-.39Z"/><path class="cls-5" d="M92.99,72.27c-.56-1.24-.85-1.3-2.59-.4-1.75,.9-4.23,2.43-5.7,5.81-1.47,3.38-3.33,8.07-3.38,8.52,0,0-.79,2.59,1.3,1.41,2.09-1.18,8.29-5.87,8.91-6.88s2.03-7.22,1.47-8.46Z"/><path class="cls-2" d="M81.13,86.08s1.39,.99,4.23-.25c-3.23,2.39-4.43,3.78-4.23,.25Z"/><path class="cls-2" d="M83.86,84.53c.65-.35,1.34-1.89,1.34-1.89,.45,0,1.39-.2,1.39-1.49s.1-1.79,.1-1.79c.3-.7,1.54-3.53,4.78-4.53,.05-1.09-.05-1.79-.05-1.79-.85,.25-3.04,1.64-4.08,2.94-1.39,1.09-2.19,3.23-2.24,3.78,0,0-1.64,2.98-1.64,3.48s-.15,1.04,.4,1.29Z"/><path class="cls-2" d="M65.06,77.72s-.95-3.53,5.77-6.02c-1.74,1.74-5.77,6.02-5.77,6.02Z"/><path class="cls-2" d="M68.84,87.52s1.54,1.04,1.54,2.14c.4-.35,.95-.05,.2-2.04-.8-.3-1.29-.03-1.74-.1Z"/><path class="cls-3" d="M79.2,58.52s.54-1.7,.78,.63c.24,2.34,.49,8.81,.58,9,.1,.19,1.75,2.14,1.56,2.24-.19,.1-3.55,.68-3.55-1.12s.53-10.51,.63-10.75Z"/><path class="cls-3" d="M56.38,72.29s2.63,5.16,3.16,6.18c.54,1.02,1.56,1.46,1.07,.34-.49-1.12-.34-2.72-4.23-6.52Z"/><path class="cls-3" d="M61.98,80.48s-.44,2.03-.29,2.13c.15,.1,1.36,.1,1.46-.39,.1-.49-.24-1.12-.39-.63-.15,.49-.58,.56-.78-1.11Z"/><path class="cls-3" d="M64.51,81.44s.05,.83-.29,1.07c.58-.2,.73-.54,.29-1.07Z"/><path class="cls-3" d="M63.92,81.39s-.92,.39-.29,1.07c.05-.29,.19-.92,.29-1.07Z"/><path class="cls-3" d="M79.35,81.88s1.65-2.48,1.36-.78-1.46,6.28-3.36,8.71c-1.9,2.43-5.45,5.89-5.3,4.28,.34-.97,2.09-2.34,2.24-3.5,.15-1.17,.49-2.58-.05-2.97-.54-.39-2.97-1.99-1.8-1.99s5.69,.05,6.91-3.75Z"/><path class="cls-3" d="M37.51,71.6s1.36-1.62,3.11,1.1c1.75,2.33,2.47,3.24,1.82,.78-1.04-2.47-4.74-6.42-4.93-1.88Z"/><path class="cls-3" d="M63.26,86.58s.26,1.49,.32,.78c.06-.71,.2-.97,.52-.26,.32,.71,.91,2.07,.52,2.27-.39,.2-1.95,.78-1.95-.19s.45-3.05,.58-2.59Z"/><path class="cls-3" d="M55.16,85.48s.75,1.64,1.29,1.64,1.64-.6,1.39-.95c-.25-.35-3.18-1.29-2.69-.7Z"/><path class="cls-3" d="M67.18,81.92s.34,2.14,1.85,1.85c1.51-.29,7.83-1.7,8.32-2.87,.49-1.17,1.65-4.13,1.22-5.01-1.51-.15-7.59,2.82-11.38,6.03Z"/><path class="cls-3" d="M47.53,74.87s2.38,7.88,3.45,8.12c1.07,.24,7.69,1.27,7.78,.97,.19-.29,.73-1.7,.73-1.7,0,0-8.22-6.81-11.97-7.39Z"/><path class="cls-20" d="M63.49,83.4l.23,.25-.32-1.42-.27-1.26c-.18-.01-.64,1.32,.36,2.43Z"/><path class="cls-20" d="M61.56,83.34c.26,.42,.73,.64,1.39,.66h.06s.02-.05,.02-.05c.07-.14-.08-.22-.25-.31-.49-.27-1.5-.83-.81-3.15-.2,.01-1.05,1.84-.42,2.86Z"/><path class="cls-2" d="M61.85,88.92l-.32,.48c.1,.07,.97,.7,1.49,.7,.24,0,.56-.17,.83-.36-.79-.02-1.21-.06-1.4-.34,0,0-.12-1.21-.12-1.21,0-.05,0-.14,0-.2-.2,.38-.48,.93-.48,.93Z"/><path class="cls-3" d="M63.49,91.64h-.01c-1.9,.14-3.36-.12-4.31-.39,.39,.56,.93,1.28,1.67,2.06,1.5,1.6,4.64,.84,5.92,.45,1.22-.55,2.09-2.52,2.4-4.07-1.37,1.32-3.51,1.72-5.67,1.95Z"/><path class="cls-17" d="M60.89,92.35c.63,.47,1.3,.97,1.3,.97,.41,.2,4.16,0,4.67-.26,.29-.15,.51-.47,.88-1.02,0,0,.17-.24,.33-.48-2.92,1.28-5.66,1.13-7.18,.79Zm-1.06-.73"/><path class="cls-26" d="M57.38,91.31s-1.13-1.75-.62-2c.51-.26,1.7-.46,1.7-.31-.41,.41-1.18,.67-1.08,2.31Z"/><path class="cls-26" d="M68.38,87.45s2.16-.15,2.52,1.75c.31-1.85,.26-2.52-2.52-1.75Z"/><path class="cls-12" d="M56.83,89.42h0s0,0,0,0c0,0,0,0,0,0l-.05,.07s0,.06,0,.09c0,.29,.26,.82,.52,1.27,.06-1.03,.5-1.46,.86-1.75,0,0,0,0,0,0-.34,.03-.95,.15-1.31,.33Zm0,0h0Z"/><path class="cls-12" d="M69.24,87.43c.58,.13,1.23,.5,1.58,1.3,.03-.22,.07-.47,.07-.64,0-.29-.05-.52-.2-.65-.21-.19-.76-.14-1.46,0Zm-.87-.11h0Z"/><path class="cls-21" d="M57.34,71.79s.86,1.73,1.32,2.26c.46,.53,2.63,4.23,3.03,4.08-.4-1.13-2.63-4.91-4.35-6.34Z"/><path class="cls-23" d="M54.92,80.39c0,.8,.65,1.46,1.46,1.46s1.46-.65,1.46-1.46-.65-1.46-1.46-1.46-1.46,.65-1.46,1.46Z"/><path class="cls-19" d="M55.23,80.39c0,.63,.51,1.15,1.15,1.15s1.15-.52,1.15-1.15-.51-1.15-1.15-1.15-1.15,.52-1.15,1.15Z"/><path class="cls-18" d="M57.18,80.39c0,.44-.36,.8-.8,.8s-.8-.36-.8-.8,.36-.8,.8-.8,.8,.36,.8,.8Z"/><path class="cls-23" d="M68.67,80.28c0,.8,.65,1.46,1.46,1.46s1.46-.65,1.46-1.46-.65-1.46-1.46-1.46-1.46,.65-1.46,1.46Z"/><path class="cls-19" d="M68.98,80.28c0,.63,.51,1.15,1.15,1.15s1.15-.52,1.15-1.15-.51-1.15-1.15-1.15-1.15,.52-1.15,1.15Z"/><path class="cls-18" d="M70.93,80.28c0,.44-.36,.8-.8,.8s-.8-.36-.8-.8,.36-.8,.8-.8,.8,.36,.8,.8Z"/><path class="cls-24" d="M46.69,74.86s3.03,8.53,3.55,8.58c.51,.05,6.94,.98,7.76,.98s1.34,.25,2.16-1.9l-.67-.46-.31-.21s-.41,1.75-1.13,1.49c-.72-.26-6.32-.57-6.89-1.18-.57-.62-.62-.56-2.93-6.99l-1.54-.31Z"/><path class="cls-1" d="M50.32,83.23c.1,.02,1.6,.21,1.6,.21,2.06,.28,5.51,.76,6.08,.76h.24c.62,.02,1,0,1.64-1.61-.18-.12-.56-.38-.57-.39-.12,.4-.39,1.08-.8,1.3l-.53,.04-2.17-.3c-2.57-.29-4.42-.52-4.8-.94-.6-.65-.71-.78-2.93-6.95-.15-.03-.65-.13-1.04-.21,1.34,3.75,2.9,7.73,3.28,8.08Z"/><path class="cls-24" d="M67.51,81.95s.56,1.54,1.44,1.39c.87-.15,7.3-1.59,7.92-2.67,.62-1.08,1.03-4.68,1.03-4.68l1.39-.21s-.41,4.94-1.75,6.17c-1.34,.41-8.17,2.36-8.53,2.36s-1.18,.41-2.36-1.85l.88-.51Z"/><path class="cls-1" d="M78.09,76.19c-.06,.52-.44,3.56-1.03,4.59-.74,1.29-8,2.77-8.07,2.78-.82,.15-1.37-.83-1.58-1.29-.17,.1-.3,.18-.46,.27,.91,1.64,1.54,1.61,1.89,1.57,.58-.04,7.16-1.91,8.64-2.37,1.01-.96,1.46-4.67,1.56-5.7-.3,.04-.74,.11-.94,.14Z"/><path class="cls-25" d="M44.59,75.17s2.11-4.11,4.73-2.83c2.62,1.28,5.29,5.19,9.09,7.35,2.06,1.39,2.62,1.7,3.19,1.39,.26-.2,.72,2.31-.82,1.8-1.54-.51-7.53-4.33-9.71-5.91-2.13-1.54-3.51-2.22-6.48-1.8Z"/><path class="cls-25" d="M64.99,82.06s.05-1.44,.26-1.34c.21,.1,0,.82,.31,.82s4.42-3.96,7.35-6.12c2.93-2.16,6.32-4.06,7.3-3.34,.98,.72,2.98,4.27,2.72,4.27s-3.75-1.34-9.31,1.54c-2.98,1.75-8.79,6.48-8.63,5.55,.15-.93,0-1.39,0-1.39Z"/><path class="cls-18" d="M49.32,72.34c2.91,1.44,5.29,5.19,9.09,7.35,2.06,1.39,2.62,1.7,3.19,1.39,.26-.2,.65,2.38-.89,1.87-1.54-.51-7.44-4.43-9.65-5.98,0,0-2.25-2-5.21-1.9,.75-1.01,2-2.88,3.47-2.72Z"/><path class="cls-18" d="M73.63,77.89c-2.91,1.82-8.79,6.48-8.63,5.55,.15-.93,0-1.39,0-1.39,0,0,.05-1.44,.26-1.34,.21,.1,0,.82,.31,.82s4.42-3.96,7.35-6.12c0,0,5.27-3.96,6.42-3.14,1.12,1.33,2.36,3.77,1.92,3.73-.42-.03-3.25-.2-7.63,1.87Z"/><path class="cls-9" d="M62.14,16.37c-1.26,1.83-7.53,11.03-7.33,12.23,0,0,0,0,0,.01,.15,.67,2.96,10.86,4.11,11.43,.07,.03,.15,.03,.21-.01,.06-.04,.1-.11,.1-.19,0-2.93,2.41-19.91,3.3-23.29,.03-.1-.02-.21-.12-.26-.1-.05-.21-.01-.28,.08Z"/><path class="cls-9" d="M73.44,7.91c-.11,.03-.17,.15-.15,.26,.03,.11,2.66,11.49-1.44,19.11-.05,.09-.03,.2,.05,.27,.08,.07,.19,.08,.27,.02,1.36-.94,3.39-2.91,3.97-3.48,.64,1.72,3.27,7.23,3.39,7.48,0,0,0,.05,0,.15,0,.95,.08,6.08,.08,6.08,0,.09,.05,.17,.13,.2,.08,.03,.17,.02,.24-.04l3.21-3.02,.07-4.05-9.55-22.85c-.04-.11-.16-.16-.27-.13Z"/><path class="cls-9" d="M43.32,18.11c-.1,.56-2.43,13.73-1.16,19.16,1.26,5.41,1.93,6.89,1.96,6.95,.04,.09,.14,.14,.24,.12,.1-.02,.17-.1,.18-.2,0,0,.28-3.95,.35-4.93,.5,.81,1.11,2.26,1.47,3.24,.41,1.13,3.48,4.21,4.84,4.42,.08,.01,.16-.02,.21-.08,.05-.06,.06-.15,.03-.22-2.42-6.06-7.49-20.98-7.67-28.43,0-.11-.09-.2-.2-.21-.11,0-.21,.07-.23,.18Z"/><path class="cls-9" d="M90.43,28.29c-1.5,4.13-4.93,11.76-5.12,12.18-3.17,1.75-9.25,4.73-10.39,5.29-.31-1.21-1.89-7.23-3.54-11.92-.03-.1-.14-.16-.24-.15-.1,.01-.18,.1-.19,.2-.16,2.78-1.94,10.65-2.47,12.92-.43-1.01-2.36-5.6-2.36-5.6-.04-.09-.14-.15-.24-.13-.1,.02-.18,.1-.19,.2l-1.85,24.62c0,.11,.06,.2,.16,.23,.1,.03,.21-.02,.26-.11,.06-.11,5.86-11.16,10.61-13.62l6.08-2.79c2.18-.93,3.46-1.5,4.08-1.97-.06,1.52-.3,3.7-.54,4.17-.02,.03-.02,.06-.02,.1,0,.06,.03,.13,.08,.17,.08,.07,.2,.06,.28,0l.75-.61c1.02-.83,1.7-1.45,2.11-1.97,0,.12,0,.21,0,.34,0,3-.51,8.91-2.97,11.45-.04,.04-.06,.1-.06,.15,0,.04,.01,.09,.04,.13l1.17,1.65c.04,.06,.12,.1,.2,.09,.08,0,.14-.05,.18-.12l6.13-11.68c.05-.78,.49-17.04-1.54-23.23-.03-.09-.11-.15-.21-.15-.09,0-.18,.06-.21,.14Z"/><path class="cls-9" d="M103.48,56.95c-.54,.93-5.9,5.04-7.92,6.55-.02,.02-.05,.04-.06,.07l-1.07,1.95c-.05,.09-.03,.2,.04,.27,.08,.07,.19,.08,.27,.02,0,0,5.81-3.98,6.63-4.54-.48,1.68-2.29,7.03-3.56,10.71l-5.5,6.15c-.04,.07-1.5,3.96-1.5,3.96-.01,.03-.01,.05-.01,.08,0,.05,.02,.11,.05,.15,.05,.06,.13,.09,.21,.07,.06-.01,6.15-1.36,8.54-1.65,.11-.01,.19-.11,.19-.22h0c0-.12-.1-.21-.21-.22l-3.99-.24s-1.5-.09-2.04-.13c.42-.61,2.07-2.44,5.89-6.26,.06-.11,.78-2.64,.78-2.64,1.13-3.9,3.23-11.17,3.66-13.93,0-.01,0-.02,0-.04,0-.09-.06-.18-.14-.21-.1-.03-.21,0-.27,.1Z"/><path class="cls-9" d="M80.71,87.71c-2.09,3.95-2.91,4.26-3.11,4.26-.1,0-.18,.06-.21,.16-.03,.09,0,.19,.09,.25,.24,.16,5.91,4.07,1.97,11.49-.05,.09-.03,.21,.05,.27,.08,.07,.2,.07,.28,0l.17-.13c1.68-1.32,4.63-3.65,4.63-7.68,0-1.64-.53-3.57-1.8-5.82,1.14-.23,2.78-.24,2.8-.24,.08,0,.15-.05,.19-.13,.01-.03,.02-.06,.02-.09,0-.05-.02-.1-.05-.14l-.22-.29c-.44-.63-.93-1.34-4.58-2.02-.1-.02-.19,.03-.24,.11Z"/><path class="cls-9" d="M46.95,90.72c-.09,.04-.14,.13-.13,.23,.04,.25,.89,6.19,1.68,7.57,.79,1.37,7.93,7.37,11,8.75,.1,.04,.22,0,.28-.08,.06-.09,.04-.21-.04-.29-1.88-1.6-5.83-11.58-5.87-11.68-.04-.1-.14-.15-.24-.14-.1,.02-.18,.1-.19,.2-.02,.25-.13,.87-.29,1.27-.67-.24-3.46-3.03-5.94-5.78-.06-.07-.17-.09-.26-.05Z"/><path class="cls-6" d="M70.89,71.53s-6.37,4.46-6.03,6.71c.56-.06,6.03-6.71,6.03-6.71Z"/><path class="cls-22" d="M56.32,72.16s2.94,3.81,3.77,5.1c-.43-1.21-2.14-4.12-3.77-5.1Z"/><path class="cls-18" d="M111.55,101.14c-2.92-3.02-3.5-2.14-4.77-1.36-2.04-3.7-4.94-.78-5.01,.24-.03,.49-.05,2.09-.53,3.26-.49,1.17-.19,1.46,.29,2.34-.88,.49-1.36,2.04-1.46,2.72-2.04,.78-2.72,2.43-3.21,3.41-.68,.19-1.65,.58-2.24,1.36-.29-2.04-2.43-3.7-3.7-4.38,.68-4.18-.88-6.03-2.43-7.2,0,0,.97-2.92,.97-3.6s-1.17-3.31-1.65-4.86c1.65,.1,4.48,2.24,5.94,3.99,0-3.89-2.53-7.4-4.28-9.34,2.63-2.14,9.73-6.42,12.06-7.2-1.07-.78-7.49-.97-7.49-.97,0,0,3.31-3.6,5.55-5.74,0,0,4.09-13.43,4.77-17.51,0,0-6.13,4.77-7.98,5.94,1.75-2.24,4.38-13.82,4.67-17.03-2.24,3.99-5.74,7.2-7.1,8.46,4.18-10.41-2.34-29.68-3.5-33.28-1.36,5.74-4.57,10.7-5.35,12.26,0,0-.1-3.89-.29-4.38-.19-.49-11.29-24.71-12.36-28.22,0,.88-2.53,9.53-3.02,10.8,0,0-1.17-4.57-1.65-8.56-2.43,4.28-13.13,14.01-15.86,16.35-2.73,2.33-5.16,6.71-6.42,8.66,0,0-1.17-6.81-1.46-12.06,0,0-5.35,8.85-7.49,13.62-2.14,4.77-1.65,12.36-1.07,15.47-2.82-.97-8.66-10.02-9.63-12.65-.88,5.64-.39,12.16-.1,15.67,0,1.85,3.21,10.12,4.96,13.52-1.07-.29-6.03-4.67-7.98-6.52,.68,9.44,5.64,14.59,7.78,16.93-4.18,1.36-7.98,6.42-9.05,8.27,7.01-2.53,10.31-.19,12.07,.78-2.82,.68-4.86,1.65-7.49,2.82,3.5,0,6.62,.2,7.78,.39-3.5,1.17-9.83,5.84-11.29,7.39,4.38-.88,10.51-.78,10.51-.78-1.46,1.36-6.81,4.48-8.08,5.35-1.26,.88-1.65,3.7-1.56,4.77,0,0-2.34,2.04-2.53,2.34-.19,.29-.49,5.45-.39,6.32,.1,.88,.39,1.65,1.17,2.04,0,0,0,.68,.19,1.07-2.53,1.85-1.95,5.55-1.07,6.71,0,0-.1,2.63,0,3.5,.1,.88,3.89,6.23,5.06,6.91,0,0,1.85,.58,5.84,.29,3.99-.29,6.03-2.82,6.62-4.77,1.46-.49,2.43-1.95,3.02-3.7,.19,6.23,2.04,9.34,2.04,9.34l4.18-5.16,.1,4.28,2.63-2.92s.19,2.82,.29,3.89l-5.74,12.36s-2.82,6.13-2.43,7.49c.39,1.36,.68,2.63,.29,2.63s-.68,1.17-.68,1.17c0,0,.49,1.36-.29,1.95-.78,.58-1.85,2.53-1.95,2.82-.1,.29,0,2.24-.58,2.53-.88,.1-1.85,1.26-.88,2.43-2.33,3.7-2.04,8.47-1.56,9.24-1.36-.1-1.17,1.85-1.17,1.85,0,0-2.92,5.55-3.99,9.15-.58,3.6,2.53,7.2,4.18,8.56,1.65,1.36,8.07-2.82,9.92-4.57,1.85-1.75,2.63-9.34,2.72-10.61,.29-.29,.39-.97,.58-1.65,1.85,0,3.89-6.81,4.57-8.37,.68-.68,.78-2.04,.1-2.34-.68-.29,.97-1.75,.97-2.04s-.19-3.21,0-3.6c0,0,1.17-1.17,1.26-1.65,.1-.49,.1-.78,1.36-2.04,4.28-2.43,7-7.78,7.69-9.15,0,0,.78-.1,2.63-.68,0,0,3.7,7.78,4.77,9.24,1.07,1.46,.88,.97,.68,1.26-.19,.29,.2,1.66,.39,1.95,.19,.29,.88,1.46,.58,2.04-.29,.58-.78,1.85-.68,2.43,.1,.58,.97,.97,.78,1.56-1.17,.29-.88,1.65-.29,2.24,0,0,.19,4.28,1.07,6.71,.88,2.43,2.43,2.72,2.43,2.72l-.19,.49c-.97,.29-1.07,.97-.49,1.46-.29,.49-.88,2.24-.29,5.25,1.85,4.28,10.99,7.49,14.89,7.39,3.89-.1,1.75-6.71,1.75-6.71,0,0-1.85-4.96-3.02-7.2,.29-.39-.49-1.56-1.17-1.65,.49,0,1.36-1.65,1.36-1.65,0,0,.19-8.08,.1-9.34-.1-1.27-.1-1.36-1.65-1.46,.1-2.33-.39-4.09-1.46-5.16,1.17-1.46,.88-3.6-.19-5.84,.78-4.28-3.41-10.61-5.16-13.43,0,0-.49-1.85-1.07-2.24l-.29-1.07s-.1-.78-.68-1.56q.1-1.46-.58-1.95c.19-1.95,.19-3.8-.58-4.67,0,0,.58-.68,.88-2.14,.29-2.63,1.75-4.77,2.63-5.25,.29,2.53,4.18,4.86,6.32,5.55,2.43,.1,4.09,.88,5.74,2.14,1.65,1.26,2.43,.97,2.92,.58,.49-.39,1.56-.88,2.63-.2,3.7,0,6.62-3.21,7.1-4.67,0,0,1.75,.19,3.31-2.34,1.95-3.11,2.63-4.96,2.53-5.84,0,0,.68-.58,.58-2.04,1.65-1.26,1.85-2.53,1.75-3.79,2.14-2.04-.49-4.57-3.4-7.59Zm-10.07,2.56s.46-1.46,.73-3.12c.27-1.66,1.79-2.26,3.26-1.66,1.46,.93,.6,2.86-.6,4.92-1.19,2.06-1.86,2.06-2.79,1.59-.93-.47-.6-1.73-.6-1.73Zm-6.86-38.07l1.07-1.95s7.3-5.45,7.98-6.62c-.58,3.7-4.18,15.57-4.38,16.44-.88,.88-5.94,5.94-6.13,6.62,1.66,.1,5.94,.39,6.42,.39-2.43,.29-8.56,1.65-8.56,1.65,.49-1.27,1.46-3.89,1.46-3.89l5.55-6.23s3.7-10.7,3.7-11.29l-7.1,4.86Zm-1.63,6.64c.56,1.24-.85,7.45-1.47,8.46s-6.83,5.7-8.91,6.88c-2.09,1.18-1.3-1.41-1.3-1.41,.06-.45,1.92-5.13,3.38-8.52,1.47-3.38,3.95-4.91,5.7-5.81,1.75-.9,2.03-.85,2.59,.4Zm-13.36,31.7c4.09-7.69-2.04-11.77-2.04-11.77,.88,0,2.43-2.72,3.31-4.38,4.18,.78,4.09,1.56,4.67,2.24,0,0-1.95,0-3.11,.29,4.67,7.98-.49,11.77-2.82,13.62Zm-2.2,17.02c-.07,1.59-1.95,1.42-2.07,1.17-.8-1.59-2.71-2.37-3.49-2.3-.78,.07-1.3-.2-.71-.97,.58-.78-.45-4.02-.78-4.93-.32-.91,3.83,1.23,4.74,1.56-.45-.84-4.22-2.14-4.54-2.27-.32-.13-.45-.52-.45-1.36s.75-.41,.75-.41c4.28,.62,4.9,1.03,6.34,2.48,1.59,2.35,.76,3.17-.41,3.1,.76,.83,.69,2.34,.62,3.93Zm-16.06-5.28c-.45,1.04-2.63,1.76-2.63,1.76-.83,.07-.62-1.93,0-2.9,.62-.96,3.45-2.34,5.52-2.55,3.38,0,4.69-1.66,4.69-1.66,.57,.04,.79,2.29,.72,3-.06,.71,.71,1.82,.97,3.7,.13,2.85-.39,2.79-2.27,2.72-1.88-.06-6.39,2.02-6.39,2.02-.55,.34-2-1.03-2.35-1.65-.35-.62,1.1-2.55,1.86-3.31,.19-2.75,6.49-3.22,6.49-3.22-4.15-.33-6.16,1.04-6.62,2.08Zm-10.77-10.32c-1.04,.06-3.18,1.82-3.44,1.95-.26,.13-.65-1.62-.65-1.62,.97-2.14,2.07-2.53,2.46-2.4,5.77,3.57,14.34,6.81,14.34,6.81-3.05-3.37-5.9-9.54-6.03-9.93,.52-.32,3.83,.2,6.03,1.23,2.53,1.17,3.18,2.46,3.18,2.85h-1.17c-1.17,0-1.3,.07-1.3,.32,0,0,2.08,.07,2.47,.13,.39,.06,1.69,1.43,2.4,3.11,.71,2.72-1.95,3.63-5.19,3.89-3.24,.26-7.26,1.17-9.21,1.81-1.88,.45-3.17,.21-5.12-1.75-.26-.26-1.23-1.42-1.88-2.79-.65-1.36,2.01-2.46,3.05-2.92,1.04-.45,1.1-.78,.06-.71Zm-4.91,.47l-.37-.86-.31,.06,.12,1.47s0,.25-.98-.73c-.31-2.32-2.69-4.52-3-4.58-.31-.06-.92-.24-.98-.37,2.2-.92,2.08-2.14,2.08-2.14l1.04-1.22-.12-.24s-.12,.06-.86,.49l-1.35-1.28,2.32-.67c1.53,4.28,4.64,7.09,4.64,7.09l-.49,.12-.49,.8-.24-1.34s-.67,.67-.98,1.04c-.18,0-.06,2.38-.06,2.38Zm13.89,1.21c-3.02-1.36-10.12-7.3-10.9-8.66-.78-1.36-1.65-7.49-1.65-7.49,0,0,5.35,5.94,6.23,5.94,.29-.49,.39-1.56,.39-1.56,0,0,3.99,10.12,5.94,11.77Zm-3.99-11.54c3.5,1.3,5.19,4.09,5.32,4.48,.13,.39-2.66-.13-3.5-.39-.84-.26-1.81-4.09-1.81-4.09Zm13.17,3.7c.39-.84,.97-1.36,1.49-1.75,.52-.39,1.23-.65,1.1-.19-.26,.91,.06,.97,.65,1.36-.65-.84-.39-1.17-.06-1.49,.32-.32,.58-.39,2.33,1.69,1.75,2.08,1.82,2.33,.84,2.27-4.54-.84-7.72,.84-8.11,1.17-.39,.33-.84,.97-1.43,.33-.58-.65-1.49-1.43-2.79-1.82-1.3-.39-1.75-1.43-1.75-1.43,3.89,.52,4.86,.26,5.64-.19,.78-.45,1.95-1.04,2.08-.91,0,.71-1.56,2.66-1.95,3.11,0,0,1.56-1.3,1.95-2.14Zm1.01,20.79c4.13,.16,4.62,1.17,4.62,1.17,1.1,.55-.35,.62-1.1,.62s-2.14,.97-2.48,1.1c-.34,.14-2.48-2.14-2.9-2.34-.41-.21,1.17-.41,1.86-.55Zm-.36-10.48c-.19-.33-.06-2.01-.19-2.33,0,0-.45-1.23-.84-1.49-.39-.26,1.1-.71,1.75-.91,.07-.58-1.56-.06-1.95,.39-.39,.45-1.3-1.17-1.3-1.17-.52-.78-.32-.84,.71-1.75,5.51-2.01,8.43-.65,8.89-.26,.45,.39-.39,7.46-.39,7.46,0,0,4.28-3.5,5.51-4.67,2.33,3.25,1.82,5.19,1.04,7.2-1.17,2.14-2.85,1.95-4.86,.97-2.85-1.43-5.45-1.56-6.16-1.62-.71-.06-2.01-1.49-2.21-1.82Zm4.09-101.42l9.53,22.77v3.89l-3.21,3.02s-.1-5.06-.1-6.32c0,0-3.11-6.52-3.5-7.78,0,0-2.63,2.63-4.18,3.7,4.18-7.78,1.46-19.26,1.46-19.26Zm-7.59,33.18l2.63,6.23s2.43-10.31,2.63-13.62c1.85,5.25,3.6,12.16,3.6,12.16,0,0,7.2-3.5,10.7-5.45,0,0,3.6-7.98,5.16-12.26,2.04,6.23,1.56,23.06,1.56,23.06l-6.13,11.68-1.17-1.65c2.92-3.02,3.11-10.41,3.02-12.55-.19,.68-2.04,2.04-3.21,3.02,.29-.58,.58-3.41,.58-4.86-.1,.88-5.64,2.63-10.51,5.16-4.86,2.53-10.7,13.72-10.7,13.72l1.85-24.62Zm-3.6-24.81c-.88,3.31-3.31,20.24-3.31,23.35-.97-.49-3.7-10.02-3.99-11.29-.19-1.17,7.3-12.06,7.3-12.06Zm-6.88,40.04c1.75,3.16,6.99,14.04,6.99,14.04,0,0,.68,1.69,1.24,.22,.56-1.47,3.78-8.85,9.25-14.94,2.42-2.65,3.22-3.67,6.04-1.81,2.82,1.86,6.15,7.22,6.48,9.53,.34,2.31,.28,7.05-.45,7.73-.73,.68-1.75,.9-1.75,.9,.9,.84,2.2,2.48,1.81,3.72-.56,1.24-3.61,9.08-4.23,10.55-.62,1.47-1.24,3.89-3.84,5.81-2.59,1.92-9.36,6.49-11.17,6.82-1.81,.34-4.11-.11-6.37-1.58-2.09-1.58-7-4.4-9.36-6.71-2.37-2.31-2.09-2.31-3.1-5.7-1.02-3.38-1.86-6.54-2.43-8.23-.56-1.69-1.02-1.97-.51-2.71,.51-.73,1.69-2.88,1.24-3.1-.45-.22-2.42-.45-1.86-4.62,.56-4.17,4-9.93,7.05-12.75,1.58-1.18,3.22-.34,4.96,2.82Zm-11.9-38.38c.2,7.98,5.74,23.64,7.69,28.51-1.26-.19-4.28-3.21-4.67-4.28-.39-1.07-1.26-3.21-1.85-3.79l-.39,5.55s-.68-1.46-1.95-6.91c-1.26-5.45,1.17-19.07,1.17-19.07Zm-4.89,52.06c1.65,.17,5.82,6.25,6.51,9.64,.44,1.82-.69,1.22-.69,1.22l-1.04,.35s1.48-.35,1.74,.69c.26,1.04-.17,1.48-.61,1.13-.43-.35,.35-1.04-1.3-1.04-.7,0-1.22-.78-.87-1.65,.35-.87,1.3-1.65,1.3-1.65l.35,.69s-.8,.61-.61,.84c.19,.11,1.06-.68,1.02-.95-.41-.79-1.89-3.97-4.61-6.84-1.06-1.21-1.7-.38-1.55,1.66,.15,2.04,.64,2.42,1.02,2.42,.23-.26-.38-.98-.38-1.4s-.38-2.31,.08-2.57c.42,.15,1.55,1.13,1.43,1.66-.45,.23-1.47,2.23-.34,4.76,.57,.42,.41-.57,.19-.79-.23-.23-.38-2-.11-2.68,.26-.68,.64-.72,.91-.64,.26,.08,.6,1.06,.45,1.36-.15,.3-.41,.61-.41,.83s.45,0,.61-.3c.15-.3,.11-.79,.23-.79s1.28,1.74,1.32,2c.04,.26-1.21,1.63-1.44,2.15-.23,.53-.23,1.85,.45,2,.87,.45,1.28,.11,1.51,.45,.23,.34,.3,1.17,.94,1.1,.64-.08,.83-.91,.83-.91,0,0,0-.37,.19-.33,0,0,2,4.78-.87,3.3-2.87-1.48-5.82-3.3-6.69-6.69-.87-3.39-1.22-9.21,.43-9.03Zm-11.72,24.61c.97-.45,3.37-2.27,4.02-2.59,.65-.33,3.31-.32,4.35,.13,1.1,2.14,2.98,3.63,3.76,4.09,.78,.45,1.82,.84,2.59,1.49,.78,.65-1.23,2.4-1.62,2.4s-.26-.39-1.17-1.23c-.91-.84-2.46-1.23-2.98-1.23s-.84,.07-1.43-1.1c-1.49-2.07-3.18-2.33-4.8-2.01-1.62,.33-5.97,4.99-5.97,4.99,.19-3.31,2.27-4.48,3.24-4.93Zm8.24,33.15c-1.56,1.49-6.81,1.3-8.76,1.04-1.82-1.04-5.19-6.68-5.19-6.68l-.07-2.59c2.07,3.83,4.21,5.19,7.91,6.16,3.7,.97,7.72-.32,8.5-.58,.45-.06-.84,1.17-2.4,2.66Zm4.28-4.48c-2.98,2.66-8.37,2.4-10.83,1.88-5.25-1.75-7-5.45-7.78-7.65-.78-2.21,0-3.24,.52-4.41,.52-1.17,.97,0,.97,0,2.34,3.89,4.87,5.71,9.66,7.14,4.8,1.43,8.3,0,9.15-.13,.07,.45-.78,2.27-1.69,3.18Zm1.56-3.83c-1.23,.52-7.2,2.27-13.3-1.56-2.34-1.04-7.13-6.42-4.73-7.01,0,0-2.08-.65-2.08-1.95s.45-5.77,.45-5.77c2.14-2.6,6.81-7.65,7.72-7.91,.91-.26,2.92-.91,4.93,1.88,.19,.52,.39,.78-1.36,2.27-1.75,1.49-5.32,6.03-5.25,6.81,.45,.13,.71-.58,1.3-1.49,.58-.91,3.57-5.25,7.01-6.49,1.17-.33,4.35,1.75,4.02,3.57-.72,1.56-5.32,8.24-5.32,8.24,.06,.26,.45,.33,.78-.06,.32-.39,4.86-7.65,4.99-7.98,.13-.32,1.36-.32,2.53,1.23,.78,1.1,1.56,3.31-1.88,8.69-.39,.84,.06,1.1,.65-.07,.58-1.17,1.81-3.44,2.33-5.25,0-.91,.52-.32,1.04,.39,.52,.71,2.92,2.47,.32,6.49-2.01,3.24-2.92,5.45-4.15,5.97Zm6.16,42.62s-1.56-2.08-.97-2.08c1.1,.65,2.08,1.95,2.6,1.95s3.11-.39,3.44-.39c.07,.32-1.04,1.49-1.04,1.49,.78,.58,1.1,.78,.39,1.95-.72,1.17-2.21,1.75-2.6,1.1-.39-.65-.06-1.23-1.69-1.3-1.62-.07-1.3-1.04-.97-1.1-1.82-3.44-.59-2.27,.84-1.62Zm-4.48-.71l1.69,2.53s-.78,0-1.49-.2c-.72-.19-.2-2.34-.2-2.34Zm-1.3,2.53c.05-.54,4.18,.63,5.64,1.07,1.46,.24,1.36,.39,1.31,.97-.05,.58-1.17-.05-1.22-.24-.05-.19-4.72-1.12-4.91-1.26-.19-.15-.49,.29-.73,.24-.24-.05-.1-.78-.1-.78Zm4.48,3.79c-.34-.05-2.48-1.17-3.41-1.26-.92-.1-.63-1.02-.63-1.02,.05-.78,4.86,.1,5.35,.78,.49,.68-.97,1.56-1.31,1.51Zm-6.52-6.42l-.05,.92s-.49,.44,.05,1.02c.54,.58,1.8,1.65,1.8,1.65,0,0,.15,1.36-.19,1.27-.34-.58-2.38-2.68-2.38-2.68-.58-.97-.1-1.7,.78-2.19Zm-.92,2.77l1.75,1.65s-1.9,4.77-1.99,7.49l-1.36-1.31s-.39-3.6,1.6-7.83Zm3.07,11.82c3.06,1.17,4.62,.54,5.16,.34,.54-.2,.97-.24,1.02,0-2.53,1.99-7.35-.2-8.22-.63-.88-.44-2.29-1.51-2.29-1.85s.24-.29,.24-.29c1.17,1.17,2.09,1.7,4.09,2.43Zm-2.09-1.27s2.87,.24,4.52,1.27c-.1,.44-2-.1-4.52-1.27Zm.49,1.65c-1.51,.15-1.51-.92-1.51-.92,.34,.39,1.31,.63,1.51,.92Zm-3.36-2.72c1.02,1.7,1.56,2.58,1.41,2.92-.39,.19-1.61-1.31-1.75-2.14-.15-.83,.34-.78,.34-.78Zm-4.14,9.1c.44-.92,3.31-6.57,3.6-6.91,.29-.34,1.02,.54,1.51,1.17,.15,.2-1.17,1.95-1.95,3.21-.78,1.27-.44,1.99-.34,2.19,.1,.2-2.82,1.51-3.02,1.61-.15,0,.19-1.26,.19-1.26Zm10.41,4.77c.24,.92-.97,1.31-3.06,2.38-2.09,1.22-3.02,1.22-3.65,.68-.63-.54-2.77-3.36-3.21-4.43-.44-1.07,.58-1.41,.58-1.41,5.16-2.09,9.1,1.85,9.34,2.77Zm-6.13-5.01c.29-.34,.97-.15,.97-.15,.63,0,2.04,.44,3.02,.92,.97,.49,.88,1.07,.88,1.61s-.39,.54-.83,.15c-.44-.39-3.84-1.36-4.33-1.46-.49-.1,0-.73,.29-1.07Zm-1.51,1.31c-.24,.19-2.09,.88-2.53,1.02-.44,.15-.24-.39-.24-.39,.44-.39,1.22-.78,2.38-1.17,.39-.49,.83-.97,1.27-.88,.1,.49-.63,1.22-.88,1.41Zm3.36,8.12c-1.75,.68-2.29,.54-3.36-.39-2.77-2.82-3.4-6.52-3.4-6.52-.05-.44,2.14,4.09,3.75,5.59,1.7,1.46,3.21,.34,5.16-.73,1.95-1.07,4.62-2.68,4.96-2.48-.39,.88-5.35,3.84-7.1,4.52Zm8.27-7.88c-.92,3.11-2.33,3.26-2.58,3.26s-.92-1.51-1.22-1.95c-.29-.44-.19-1.36-.15-1.9,.05-.53,0-.73-.73-1.17-.73-.44-4.77-1.41-5.11-1.41s.49-1.36,.49-1.36c0,0,.92-1.7,1.12-1.9,.2-.2,3.6,.83,5.11,1.12,1.51,.29,3.6-.78,4.14-.97,.53-.19-.15,3.16-1.07,6.28Zm1.31-6.76c-.83,.49-2.97,1.22-3.94,1.12-.97-.1-4.77-1.07-5.4-1.27-.49,.24-2.29,3.94-2.29,3.94,.78,.2,5.94,1.12,5.98,2.04-.05,.92-.15,1.99,.15,2.29,.29,.29,1.17,2.04,1.12,2.29-.2,.24-1.36-1.51-1.61-1.9-.24-.39-.15-1.99-.24-2.38-.1-.39-3.21-1.56-5.98-1.56-.49-.1-.44-.24-.14-1.07,.29-.83,2.58-4.43,2.87-4.48,.49,.19,4.96,1.61,5.69,1.51,.88-.1,3.75-1.26,3.75-1.26,0,0,.78,0,.05,.73Zm.88-1.85c-1.7,.39-3.7,.34-3.45-.49,.24-.83,.83-2.04,.78-2.29-.05-.24-.49-.05-.63,.39-.15,.44-.44,1.65-.68,1.61-.24-.05-4.77-.54-5.21-1.65,.15-1.17,.83-5.25,1.41-5.11,.58,.15,3.84,1.22,5.35,1.31,.19,.49-.58,2.58-.44,2.73,.15,.15,.44,.1,.44-.24s1.36-3.55,2-3.89l4.18-.19s-2.14,6.81-3.75,7.83Zm4.48-8.66c-.97,.54-4.23,.54-5.25,.63,0,0-.88,1.41-1.46,1.51-1.07-.1-5.55-1.61-6.08-1.51-.49,.39-1.31,4.96-1.31,5.89,.44,.83,4.04,1.46,4.57,1.56,.54,.1,.92,.39,1.61,1.12,0,.63-1.41-.39-1.41-.39-.05-.15-4.91-1.31-5.45-1.8-.19-1.75,1.41-6.96,1.6-7.25,.19-.29,5.94,1.61,6.18,1.61s.88-.63,1.36-1.51c0,0,4.33-.15,4.91-.34,.58-.19,0-1.17,.49-1.12,.44,.1,.68,1.02,.24,1.61Zm8.04-18.53c-2.47,4.61-5.84,6.75-6.55,7.07-.72,.32-.19,.84-.13,1.1,.06,.26-2.53,2.92-3.11,3.31-.58,.39-2.08,.58-2.08,.58,3.18-3.18,1.75-6.1,1.75-6.1,0,0,.13-.2,1.1,.84-.26-2.53-1.3-4.02-2.34-4.67,1.04,.13,3.11,1.43,3.76,2.27,.32-.52,2.33-4.8,2.33-5.32s-1.3-3.31-1.3-3.31c0,0,1.43,1.36,2.14,2.01,0-2.46-.91-3.44-2.4-5.13,0,0,1.56,.97,2.34,1.3,0,0-.26-.97-.91-2.01,5.64,3.18,6.88,6.42,6.88,6.42,0,0-1.17,.97-1.49,1.62Zm-8.82-17.51l.06-2.59,6.55-1.49v2.98l-6.62,1.1Zm17.58,12.71l2.6-3.31-1.88,.52s.19-.52,1.3-1.56c-1.95,.97-8.37,.39-9.53-.07,0,0,1.23,1.36,1.75,2.14,0,0-2.27-1.04-3.05-1.36,.45,.78,1.49,2.98,1.88,3.76-2.85-3.89-8.5-5.9-8.5-5.9-.26-.78,.97-.65,.97-.65l-.06-1.36c-.06-1.36,.45-1.82,.91-1.56,4.6,2.34,9.86,1.17,12.32,.52-2.33,.39-9.99-1.17-11.48-2.08-1.49-.91-.32-.97,.13-.97,0,0,4.35,1.04,5.77,1.04,0,0-.91-.78-2.08-.91,0,0,1.56-.33,3.05,0,5.45,.97,9.54,.52,10.38,.39,0-.84-.78-.78-.84-1.17,.26,.13,1.49,.26,2.33,.52,.84,.26,.26,1.04,.26,1.04l.65,.19c.07,.39-1.62,1.49-1.62,1.49,0,0,1.62-.13,2.53-.07,.13,1.3-2.46,3.11-2.46,3.11l2.21-.06s-6.23,5.32-7.53,6.29Zm-6.1-14.33v-2.6h1.75l.06,2.4-1.82,.19Zm6.06-2.55l-1.72-.16v2.61l1.5,.1-.04,1.97,.57,.08,.04-2.01,1.44,.1-.03-2.53-1.25-.12-.07-1.13h0c1.53,.3,2.26,.71,2.26,.71l.19,5.32-6.55-.91-.19-5.38c1.63-.11,3.83,.19,3.83,.19,0,0,.04,0,0,0l.02,1.16Zm1.32,.57c0,.44,.01,1.15,.02,1.65-.62-.04-2.08-.14-2.62-.18v-1.71c.62,.06,2.08,.19,2.6,.24Zm1.9-.16l1.1,.45-.13,2.66-.84-.52-.13-2.59Zm1.04,37.48c-.73,1.8,3.99,1.9,4.67,2.04,.68,.15,.83,.34,1.61,1.51,1.51,.68,4.09-.39,5.84-.54,1.56,.05,1.85,4.57,1.46,6.62-.39,2.04-4.28,1.46-5.69,1.26-1.41-.19-2.58,.24-3.5,.34,1.02-.68,2.77-.83,4.23-.68,1.46,.15,3.45,0,4.18-.58,.73-.73,.44-3.06,.19-4.57-.24-1.51-.92-1.61-1.51-1.61s-2.58,.58-4.28,.68c-1.7,.1-2.09-1.02-2.19-1.36-.1-.34-1.95-.78-2.48-.78s-1.99-.24-2.87-.73c-.88-.49,.34-1.61,.34-1.61Zm2.91,.45s1.5,.51,2.01,1.03c-1.24,.39-2.01-1.03-2.01-1.03Zm3.46,2.32c-.15-.73,.44-1.07,.44-1.07,0,0,4.23-.93,4.86-.93s.05,1.07,.05,1.56-2.68,1.02-3.6,1.07c-.92,.05-1.61,.1-1.75-.63Zm1.92,9.23c-.77,.11-3.9-.05-4.12-.05,0,0-.22-.38,.99-.38s3.24-.17,3.57,.11c.11,.27,.33,.22-.44,.33Zm-6.1-1.1c-1.8-1.56-2.48-8.71-2.48-8.71,0,0,2.63,.83,3.89,.88,1.26,.05,1.31,1.31,2.43,1.7,1.65,.34,3.45-.24,4.96-.53,1.56-.1,1.56,.58,1.85,3.36,.29,2.77-1.7,2.68-2.33,2.68s-3.89-.1-4.43-.1-1.22,.24-1.99,.68c-.78,.44-.92,.63-1.9,.05Zm.58,1.85c2.72,.97,4.43,1.12,5.93,1.31,1.51,.2,4.57-.92,5.01-.83,.44,.1,1.46,2.38,1.95,3.36,.49,.97-.34,.83-1.41,1.07-1.07,.24-2.92,1.17-3.26,1.41-.34,.24-.29,1.65-.54,2.34-.49,.53-.78,1.17-1.02,1.51-.24,.34-.24-.78-.24-.78,1.22-1.12,.88-1.75,.97-2.87,.1-1.12,3.94-2.29,4.72-2.38,.49-.1-.15-1.22-.83-2.29-.68-1.07-.73-.68-.92-.68s-2.97,.73-4.04,.83c-1.07,.1-5.55-.97-6.28-1.31-.73-.34-.53-.88-.05-.68Zm5.46,1.01s1.43-.66,2.69-.77c.82-.28,1.87-.72,2.2-.6-.6,.77-1.92,1.15-2.31,1.15-.77,.17-2.25,.39-2.58,.22Zm6.48,5.18s-.53-.33-3.59,1.86l.27-1.33,3.25-1.66,.07,1.13Zm-11.89-5.12s2.43,.88,2.77,.88c-.44,.15-.58,.63-.34,.58,.24-.05,.97-.54,.97-.54l.19,.05s-1.07,1.17-.78,1.17,1.46-.93,1.61-1.02c.63,.2,1.6,.2,1.85,.2,.83-.1,4.23-.73,4.23-.73,.83,1.22,1.12,2.04,1.12,2.04,0,0-4.48,1.61-4.57,2.19-.1,.58,.15,1.75-.44,2.34-.58,.58-.63,.73-.63,1.31s-.34,.1-.92-.1c-.58-.19-1.22-.54-1.46-1.9-.24-1.36-.14-2.53-1.26-3.36-1.12-.83-2.87-2.63-2.87-2.63l.53-.49Zm3.19,6.98l-.46-.46-.46-2.59-2.79-2.13v-.6l3.12,2.66,.6,3.12Zm-3.65-4.52l2.46,1.93,.27,2.26-2.79-2.46-.03-1.78,.09,.05Zm10.96,9.23c-8.63-2.32-11.09-6.51-11.09-6.51l.26-.51c5.5,5.16,9.77,6.23,9.77,6.23,4.32,1.06,5.45,.13,5.98-.4-.2,2.32-2.46,1.59-4.92,1.19Zm3.55-.91c-2.53,.71-5.97-.71-6.62-1.17-.65-.45,.07-1.1,.07-1.1,0,0,1.56-1.75,3.05-2.59,2.07-1.3,4.15-.65,4.99,1.17,.84,1.81-.13,3.24-1.49,3.7Zm.99-5.24c-.1,.24-.68-.15-.97-.29s-1.22-.34-1.46-.34-.49-.58-.49-.83,.61,.15,.73,.24c.34,.24,.92,.29,1.56,.49,.63,.19,.73,.49,.63,.73Zm-2.72-6.81c.19,0,2.29,5.11,2.34,5.59,.05,.49-1.46,.15-1.56-.2-.1-.34,.15-.73,.24-.88,0,0-1.61-3.65-1.8-4.04-.19-.39,.78-.49,.78-.49Zm-.34-1.31c.34,.19,.29,.58,.1,.78-.19,.2-1.02,.93-1.36,.73,0,0,1.02-1.51,1.26-1.51Zm-.46-.12c.03,.56-2.86,1.54-3.24,1.54s-5.66,0-6.1,.22c-.44,.22-1.05,0-1.43-.17-.39-.17,.11-.55,.11-.55,.16,.05,.66,.11,2.2,.22,2.03,.06,4.29-.44,5.17-.44s2.09-.82,2.64-.99c.55-.16,.66-.28,.66,.16Zm1.09-11.07v8.47c-.05,.44-.97,1.6-1.22,1.46-.24-.15,.05-2.77-.24-4.09-.29-1.31-1.22-4.18-.78-4.38,.44-.19,.97-.68,.97-.68,0,0,1.26-.97,1.26-.78Zm-1.26-1.17c-.34-.63,.39-.39,.39-.39,.29,.05,.88,.68,.58,1.07-.29,.39-1.6,1.22-2.04,1.46-.44,.24-.39,.44-.39,.97s-.24,.73-.49,.24c-.15-.88,.19-1.36,1.31-2.04,1.31-.73,.97-.92,.63-1.31Zm-1.99,1.61c-.49-.15-3.89,.73-4.87,.78-.97,.05-1.41,.49-1.41,.49,0,0-.63,.1-.54-.44,.1-.53,.39-.44,1.65-.58,1.26-.15,2.67-.49,3.55-.73,.88-.24,2.43-.68,2.43-.34s-.34,.97-.83,.83Zm.6-2.56c.82,.9-1.24,1.54-2.74,1.84-1.5,.3-4.28,.64-4.8,.64s-.73-.9-.73-1.33,.94-.3,1.71-.17c-1.2-.94-1.16-1.8-.26-1.11,.9,.69,1.8,.86,1.93,.69,.13-.17-.68-.86-.9-.98-.21-.13-.3-.64-.26-.77,.04-.13-1.07-1.07-1.37-1.37-.3-.3,1.33,.47,1.59,.77,.26,.3,.56,.13,.3-.34-.68-1.11,1.03-.34,1.97,.34,.94,.69,1.33,.13,1.33,.13,2.18-2.06,1.29-.39,1.07,.04-.21,.43,.34,.73,1.16,1.63Zm-1.28-4.8c-.17,.34-.94,1.2-1.46,1.33-.51,.13,0-.81,.04-1.11,.04-.3-.64-1.11-.69-1.24-.04-.13-.98-.17-1.11-.26-.13-.09,.73-.26,.9-.26s.26-.51-.04-.6c-.3-.08-.86-.17-.98-.39-.13-.21,2.4-.94,2.4-.94,2.66-.77,1.11,3.13,.94,3.47Zm-6.55-19.7c.06,.45-1.1,2.85-.71,2.72,.39-.13,1.43-1.69,1.36-1.17-.07,.52-.33,1.1,.13,1.56,.78,.65,4.61,7.33,4.8,8.76-.13,1.3-.19,2.66-.19,2.66-1.75,1.17-1.69,.33-1.69-.06-.39-.26-1.56,.97-1.56,.39,.13-.84,0-1.75-1.88-4.93-2.08-2.85-2.08-3.89-3.7-3.57,.32-.32,.65-.91,.65-.91-.78,0-.78-.84-.78-.84-1.17,.45-1.95,.78-2.08,.39,0,0,5.58-5.45,5.64-5Zm-.52-9.08v2.34l-1.36-.65-.13-2.6,1.49,.91Zm20.63-2.21c-.58,0-1.3-.45-2.4,.26-1.23,.71-3.31-.58-4.02-1.36-.71-.78-1.69-1.69-1.88-1.62-.2,.07-.65,.59-1.3,.59s-.97-.39-1.49-.39-1.17-.32-1.56-.45c-.39-.13-.84-1.82-1.43-2.01-.58-.2-1.56-.06-1.69-.33-.13-.26,.13-.97-.26-1.43-.39-.45-.78-.71,.13-1.82,3.05-5.19,1.04-10.83,.13-11.55,.52,.84,1.1,3.37,1.1,5.12-.06,.65,.06,1.88-.39,3.5-.65,3.05-2.72,3.7-3.96,5.13-1.23,1.43-1.23,3.5-1.62,4.93-.39,1.43-.65,1.23-1.69,.91-2.21-.97-5.97-1.75-11.42-1.69-8.17,.06-14.14,2.08-15.05,2.53-.71-3.76-1.49-4.41-1.49-4.41l-.52-.07s-.07-1.75-.07-2.01-.19,1.56-.45,1.75c-.26,.2-1.17,.26-1.3-.26-.13-.52-.13-.97-.33-.45,0,1.04-.78,.71-1.04,.58-.26-.13-.13-1.88-.45-1.82-.19,.45-.32,1.75-.52,1.75s.13-2.01,.13-2.59-.65,1.75-.65,2.14-.32,.45-.45,0c-.13-.45,.39-2.34,.19-2.34s-.52,1.3-.58,1.56c-.06,.26-.91-.71-.97-1.04-.06-.32,.65-.52,.91-.91,.26-.39,1.23-2.72,2.27-4.28,0,0,.33-.58,1.1-2.72,1.1-2.85-1.04-4.8-1.04-4.8,.71-.32,1.23,.45,1.43,1.36,0,1.1,.52,2.01,2.53,3.83,2.27,2.07,3.57,2.08,5.77,1.56,2.21-.52,4.28-1.17,6.23-1.56,0,0-1.36,.58-2.53,1.36-.58,.52-1.17,2.01-1.17,3.44s.97,1.04,2.85,.26c0,0-.91,.91-1.43,2.01-.52,1.1,.32,1.69,1.56,2.72,.97,.84,1.43,.13,3.05-.71,2.6-1.17,4.67,.13,6.1,1.49,1.04,.71,.97,.84,2.53-.45,.71-.71,2.14-.07,3.5,.19,2.4,.13,1.88-2.27,1.81-4.74,1.62-1.69,.46-3.18-.78-4.93,3.05,1.75,4.15,1.36,5.38,.13,2.79-3.31,.71-6.75-.26-8.43,0,0,2.46-2.27,3.05-3.18,1.04,.13,2.4,1.75,3.05,2.85-.19-1.62-2.01-3.24-2.6-3.37,0,0,0-1.1-.19-1.49,6.55,4.61,5.32,7.39,5.19,9.28-2.21-.52-3.76,.84-4.02,1.43,0,0,1.88-1.49,3.76-1.1,1.88,.39,3.76,2.92,4.15,4.35-1.88,1.88-1.88,3.44-1.82,5.06,.52-4.41,2.85-5.19,4.09-6.16-1.43,3.76-.58,4.8,.39,6.94,2.53,4.35,7.59,3.96,8.76,4.15-2.01,4.02-5.77,3.31-6.36,3.31Zm5.61-3.97c-4.39,.27-7.5-2.66-8.37-5.45-.8-4.32,1.39-6.91,2.46-7.77,1.06-.86,1.13-.4,.99,0-.13,.4-.73,1.46-.73,2.06,.07,.2,.07,.73-.07,1.66,.07,3.85,4.52,6.24,7.5,5.98,4.12-.6,4.98-3.99,4.98-3.99-1.4,6.64-4.71,7.37-6.77,7.51Zm9.1-13.35c.46,.67,.07,2.19-.86,2.39-.6,.07-.86-.13-.86-.13,.13,.66,1,3.12-1.46,3.19,.06,.93-.33,3.46-4.38,3.99-2.59,.07-5.38-1.46-6.64-4.85-.26-1.79,.53-3.25,1.26-3.72-.53-.8-1.06-4.58,1-3.92,0,0,.2,1.59-.2,1.93-.4,.33-.27,1.4-.07,1.53,.2,.13,.4,.6,.07,1-.33,.4-.87,1.19-.73,2.32,.13,1.13,2.66,4.05,3.19,3.85,0-.4-.47-1,0-.86,.8,.27,1.26-.07,.33-.66-.93-.6-2.72-.86-3.06-1.86-.33-1,.27-3.32,2.13-2.66,1.86,.66,3.19,1.73,4.25,1.73-.33-.47-2.52-1.79-3.72-2.33-1.26-.13-2.06,.33-2.13-.73,.27-1.26,1.2-2.39,1.99-2.59,.8-.2,1.92,0,3.79,1.93,1.79,1.26,3.19,1.86,1.26,.4-1.99-1.79-3.59-3.19-4.58-2.99-1,.2-1.6,1.2-1.73,.93-.13-.27-.27-.73,.33-1,.6-.27,1.93-1.46,2.33-2.32,.4-.86,1.73-.8,2.59,.13,.86,.93,2.26,2.13,2.52,2.52,.27,.4,1.2,.47,.73,.07-.47-.4-3.05-3.19-3.32-3.45-.27-.27-1.06-.73-2.39-.2,.46-1.06,1.26-3.45,2.92-2.99,1.66,.47,5.38,4.72,6.04,5.71,.66,1,.4,2.66-.53,3.19-.93-.27-.46,.13-.07,.46Zm-11.03,5.8c.07-.13,.32-.12,.56,0,.24,.13,.38,.34,.31,.47-.07,.13-.32,.12-.57,0-.24-.13-.38-.34-.31-.47Zm-17.6-37.52c-1.13,2.2-.39,3.1,.06,2.99,.23-.28-.28-.51-.22-1.01,.06-.51,.17-.9,.17-.9,.34,0,1.24,.73,.67,2.59-.22,.96-.39,1.07-.96,1.07-.34,0-.51,.28-.68,.9-.17,.62-.56,1.02-1.01,.96,.05-.51-.11-1.18,1.13-2.26,0,0,.62-.28-.06-.34-.68-.06-1.58,1.41-1.52,2.54,.06,1.13,1.24,.73,1.69-.17,.45-.9,.34-1.18,.84-1.18s.96-.85,1.02-1.52c.06-.68,.62-2.25-1.02-3.1,.28-.4,.73-1.35,1.58-1.97,0,.62-.11,1.19,.17,1.19s.73,.17,.62-.11c-.11-.28-.23-.11-.34-.28-.11-.17,0-1.41,0-1.41,.9-.73,1.02-.96,1.18-.73,.17,.22,.73,1.02,.56,2.26-.17,1.24-.4,1.75-.28,2.48,.11,.51,.28,.06,.28-.62s.45-1.52,.45-2.03-.17-1.81-.56-2.54c.34-.45,1.24-1.07,1.8-1.07,.23,.73,.06,2.31-.11,2.88-.17,.56,.28,.17,.4-.22,.11-.4,.23-2.37,.17-2.76,.34-.28,.4-.45-.17-.45s-4.34,2.03-5.87,4.85Zm-37.57-13.08c-.04,1.93-1.76,4.03-1.76,4.03,.39,.39,1.63-1.59,1.97-2.4,.34-.81,.6-2.61,.39-4.03-.21-1.41-.56,.47-.6,2.4Zm34.14,5.63c-.11-.56-1.19-1.35-1.3-2.37-.11-1.02,.22-7.44-.62-6.2,0,0-.28,6.15,.28,6.94,.56,.79,1.75,2.2,1.64,1.64Zm-5.47,14.77c-.9-.9-7.61-.68-9.02,.62,0,0,5.19-1.18,9.02-.62Zm-17.6,.82c-.79-1-7.49-1.53-9.04-.4,0,0,5.29-.59,9.04,.4Zm4.35,5.44c-3.39,.26-5.35-.82-5.35-.82,0,0,.77,1.49,2.42,3.24,1.64,1.75,4.88,1.03,6.37,.57,1.95-.87,3.03-4.53,2.83-5.96-.98,2.16-3.44,2.67-6.27,2.98Zm3.31,2.56c-1.28,.4-4.42,1.15-5.92-.45-.74-.79-1.28-1.5-1.67-2.06,.95,.27,2.41,.53,4.31,.39h.01c2.15-.23,4.29-.63,5.67-1.95-.31,1.55-1.18,3.52-2.4,4.07Zm-3.72-12.79s-.46,1.29,.52,2.37c-.1-.72-.47-1.7-.52-2.37Zm21.97-5.33c-.23-.58-1.51-2.52-2.49-3.26,0,0,.49,.89,.76,1.16,.26,.27,1.51,2.17,1.73,2.1Zm-23.04,20.7c2.62-.36,3.39-.15,4.16-.31-2.57-1.13-4.16,.31-4.16,.31Zm9.8,39.72c.26-.97-.52-.91-1.43-.58-1.69,1.69-6.36,1.49-6.36,1.49,.58,1.1,6.68,1.17,7.52,1.1,.84-.06,2.08-1.49,2.21-2.14,.13-.65-1.04,0-1.95,.13Zm-8.73-45.52c.73,0,1.79-.93,1.79-1.2-.6-.07-1.86,0-1.99-.2-.13-.2,.13-3.45-.4-3.06,0,0-.26,.86-.33,1.46-.07,.6-1,1.46-1,1.79s1.19,1.2,1.93,1.2Zm-1.17-1.63s.28-.55,.48-.93c0,.06,0,.15,0,.2,0,0,.12,1.21,.12,1.21,.19,.28,.61,.32,1.4,.34-.28,.19-.6,.36-.83,.36-.52,0-1.39-.63-1.49-.7l.32-.48Zm47.46,27.4c.53-.66-.07-1.46-.07-1.93,0,0-.93,1.2,.07,1.93Zm1.13-3.52s.6,.27,.53,.6c-.07,.33-.07,.73,.47,.47,.07-.27-.13-.33-.13-.73s-.13-.6-.86-.33Zm1.46-3.06s.33,.99,1.06,1.13c0-.46-.73-1.06-1.06-1.13Zm1.33-3.59s-.33,1.53,1.06,2.06c-.07-.66-.4-1.66-1.06-2.06Zm-50.28-22.25c.13-.27-1.99-.33-1.06-3.45,0,0-1.59,3.39,1.06,3.45Zm17.41,90.31s.05-2.38,0-3.06c-.24-.73-.54-1.75-.54-1.75,0,0-.29,3.11,.1,3.89,.39,.78,.44,.92,.44,.92ZM21.9,106.76s2.47-1.81,2.18-2.25c-.29-.43-2.98,.87-2.18,2.25Zm13.79,5.88c-1.09,0-3.56,1.38-3.7,3.27-.07,2.4,3.19,2.03,3.19,2.03-1.53,0-2.54-1.16-2.47-2.25,.07-1.09,2.25-2.25,2.98-3.05Zm2.47,1.45c0,.73-1.31,2.98-1.31,2.98,.87-.44,1.52-1.81,1.31-2.98Zm-.29,3.7c.44,1.31,2.61-1.09,2.76-1.81-.65-.65-2.76,1.81-2.76,1.81Zm-8.49-6.39c.73,1.24-.22,2.25-.22,2.25,.8,.15,.8-1.16,.8-1.6s-.07-1.52-.58-.65Zm-.36-2.98c-.29-.15-3.12,2.18-3.7,3.12-.58,.94,0,2.03,.29,2.69-.07,.58,.42,2.02,.36,1.74-.07-.36-.07-1.31,.14-1.52,.51,.51,2.11,1.02,2.03,.36-2.47-.14-2.54-2.25-2.32-2.54,.22-.29,3.34-3.48,3.19-3.85Zm-.89,.93c-.25,.32-1.58,1.9-2.28,2.18,0,0,1.83-2.04,2.28-2.18Zm31.7-17.52s1.75,1.43,2.27,1.69c.52,.26,4.34,0,4.86-.26,.52-.26,.78-.91,1.69-2.14-4.61,2.4-8.82,.71-8.82,.71Zm7.91,.21c-.36,.54-.58,.87-.88,1.02-.51,.25-4.26,.46-4.67,.26,0,0-.67-.5-1.3-.97,1.52,.34,4.26,.5,7.18-.79-.16,.24-.33,.48-.33,.48Z"/><path class="cls-29" d="M33.03,90.15s-6.13-.1-10.51,.78c1.46-1.56,7.78-6.23,11.29-7.39-1.17-.19-4.28-.39-7.78-.39,2.63-1.17,4.67-2.14,7.49-2.82-1.75-.97-5.06-3.31-12.07-.78,1.07-1.85,4.87-6.91,9.05-8.27-2.14-2.34-7.1-7.49-7.78-16.93,1.95,1.85,6.91,6.23,7.98,6.52-1.75-3.41-4.96-11.68-4.96-13.52-.29-3.5-.78-10.02,.1-15.67,.97,2.63,6.81,11.68,9.63,12.65-.58-3.11-1.07-10.7,1.07-15.47,2.14-4.77,7.49-13.62,7.49-13.62,.29,5.25,1.46,12.06,1.46,12.06,1.27-1.95,3.7-6.32,6.42-8.66,2.72-2.34,13.43-12.07,15.86-16.35,.49,3.99,1.65,8.56,1.65,8.56,.49-1.27,3.02-9.92,3.02-10.8,1.07,3.5,12.16,27.73,12.36,28.22,.19,.49,.29,4.38,.29,4.38,.78-1.56,3.99-6.52,5.35-12.26,1.17,3.6,7.69,22.87,3.5,33.28,1.36-1.26,4.86-4.48,7.1-8.46-.29,3.21-2.92,14.79-4.67,17.03,1.85-1.17,7.98-5.94,7.98-5.94-.68,4.09-4.77,17.51-4.77,17.51-2.24,2.14-5.55,5.74-5.55,5.74,0,0,6.42,.2,7.49,.97-2.33,.78-9.44,5.06-12.06,7.2,1.75,1.95,4.28,5.45,4.28,9.34-1.46-1.75-4.28-3.89-5.94-3.99,.49,1.56,1.65,4.18,1.65,4.86s-.97,3.6-.97,3.6c1.56,1.17,3.11,3.02,2.43,7.2,1.27,.68,3.41,2.34,3.7,4.38,.58-.78,1.56-1.17,2.24-1.36,.49-.97,1.17-2.63,3.21-3.41,.1-.68,.58-2.24,1.46-2.72-.49-.88-.78-1.17-.29-2.34,.49-1.17,.45-2.77,.53-3.26,.19-1.12,2.97-3.94,5.01-.24,1.27-.78,1.85-1.66,4.77,1.36,2.92,3.02,5.55,5.55,3.4,7.59,.1,1.26-.1,2.53-1.75,3.79,.1,1.46-.58,2.04-.58,2.04,.1,.88-.58,2.72-2.53,5.84-1.56,2.53-3.31,2.34-3.31,2.34-.49,1.46-3.4,4.67-7.1,4.67-1.07-.68-2.14-.19-2.63,.2-.49,.39-1.27,.68-2.92-.58-1.65-1.27-3.31-2.04-5.74-2.14-2.14-.68-6.03-3.02-6.32-5.55-.88,.49-2.34,2.63-2.63,5.25-.29,1.46-.88,2.14-.88,2.14,.78,.88,.78,2.72,.58,4.67q.68,.49,.58,1.95c.58,.78,.68,1.56,.68,1.56l.29,1.07c.58,.39,1.07,2.24,1.07,2.24,1.75,2.82,5.94,9.15,5.16,13.43,1.07,2.24,1.36,4.38,.19,5.84,1.07,1.07,1.56,2.82,1.46,5.16,1.56,.1,1.56,.19,1.65,1.46,.1,1.26-.1,9.34-.1,9.34,0,0-.88,1.65-1.36,1.65,.68,.1,1.46,1.27,1.17,1.65,1.17,2.24,3.02,7.2,3.02,7.2,0,0,2.14,6.62-1.75,6.71-3.89,.1-13.04-3.11-14.89-7.39-.58-3.02,0-4.77,.29-5.25-.58-.49-.49-1.17,.49-1.46l.19-.49s-1.56-.29-2.43-2.72c-.88-2.43-1.07-6.71-1.07-6.71-.58-.58-.88-1.95,.29-2.24,.19-.58-.68-.97-.78-1.56-.1-.58,.39-1.85,.68-2.43,.29-.58-.39-1.75-.58-2.04-.19-.29-.58-1.65-.39-1.95,.2-.29,.39,.19-.68-1.26-1.07-1.46-4.77-9.24-4.77-9.24-1.85,.58-2.63,.68-2.63,.68-.68,1.36-3.41,6.71-7.69,9.15-1.26,1.27-1.26,1.56-1.36,2.04-.1,.49-1.26,1.65-1.26,1.65-.19,.39,0,3.31,0,3.6s-1.65,1.75-.97,2.04c.68,.29,.58,1.65-.1,2.34-.68,1.56-2.72,8.37-4.57,8.37-.19,.68-.29,1.36-.58,1.65-.1,1.26-.88,8.85-2.72,10.61-1.85,1.75-8.27,5.93-9.92,4.57-1.65-1.36-4.77-4.96-4.18-8.56,1.07-3.6,3.99-9.15,3.99-9.15,0,0-.19-1.95,1.17-1.85-.49-.78-.78-5.55,1.56-9.24-.97-1.17,0-2.34,.88-2.43,.58-.29,.49-2.24,.58-2.53,.1-.29,1.17-2.24,1.95-2.82,.78-.58,.29-1.95,.29-1.95,0,0,.29-1.17,.68-1.17s.1-1.27-.29-2.63c-.39-1.36,2.43-7.49,2.43-7.49l5.74-12.36c-.1-1.07-.29-3.89-.29-3.89l-2.63,2.92-.1-4.28-4.18,5.16s-1.85-3.11-2.04-9.34c-.58,1.75-1.56,3.21-3.02,3.7-.58,1.95-2.63,4.48-6.62,4.77-3.99,.29-5.84-.29-5.84-.29-1.17-.68-4.96-6.03-5.06-6.91-.1-.88,0-3.5,0-3.5-.88-1.17-1.46-4.86,1.07-6.71-.19-.39-.19-1.07-.19-1.07-.78-.39-1.07-1.17-1.17-2.04-.1-.88,.19-6.03,.39-6.32,.19-.29,2.53-2.34,2.53-2.34-.1-1.07,.29-3.89,1.56-4.77,1.27-.88,6.62-3.99,8.08-5.35Z"/><path class="cls-3" d="M92.99,72.27c-.56-1.24-.85-1.3-2.59-.4-1.75,.9-4.23,2.43-5.7,5.81-1.47,3.38-3.33,8.07-3.38,8.52,0,0-.79,2.59,1.3,1.41,2.09-1.18,8.29-5.87,8.91-6.88s2.03-7.22,1.47-8.46Zm-1.65,8.34c-.58,.94-6.75,5.63-8.83,6.81-.46,.26-.82,.35-.97,.23-.24-.19-.15-.92,0-1.42,.05-.39,1.83-4.91,3.37-8.45,1.39-3.21,3.72-4.73,5.6-5.7,.86-.44,1.38-.67,1.68-.56,.22,.08,.4,.38,.61,.86,.52,1.16-.89,7.34-1.45,8.25Z"/><path class="cls-12" d="M67.67,86.02s5.19-1.18,9.02-.62c-.9-.9-7.61-.68-9.02,.62Z"/><path class="cls-12" d="M50.1,85.78s5.29-.59,9.04,.4c-.79-1-7.49-1.53-9.04-.4Z"/><polygon class="cls-15" points="52.75 128.22 52.69 130.82 59.3 129.71 59.3 126.73 52.75 128.22"/><polygon class="cls-15" points="64.17 126.6 64.17 129.19 65.98 129 65.92 126.6 64.17 126.6"/><polygon class="cls-15" points="77.4 127.96 77.53 130.56 78.89 131.2 78.89 128.87 77.4 127.96"/><polygon class="cls-15" points="73.44 127.05 73.57 129.65 74.42 130.17 74.55 127.51 73.44 127.05"/><line class="cls-27" x1="50.42" y1="119.83" x2="50.6" y2="118.33"/><line class="cls-27" x1="46.24" y1="115.53" x2="46.36" y2="113.32"/><line class="cls-27" x1="47.02" y1="115.23" x2="47.07" y2="113.5"/><line class="cls-27" x1="47.73" y1="114.63" x2="47.97" y2="112.96"/><line class="cls-27" x1="48.45" y1="113.74" x2="48.99" y2="112.9"/><line class="cls-27" x1="51.49" y1="120.18" x2="51.49" y2="118.75"/><line class="cls-27" x1="51.79" y1="118.99" x2="52.27" y2="116.78"/><line class="cls-27" x1="52.45" y1="119.59" x2="53.34" y2="116.9"/><line class="cls-27" x1="53.58" y1="118.27" x2="54.12" y2="116.96"/><line class="cls-27" x1="50.9" y1="124.36" x2="50.24" y2="121.92"/><line class="cls-27" x1="51.61" y1="124.42" x2="51.19" y2="122.39"/><line class="cls-27" x1="52.69" y1="124.24" x2="51.97" y2="122.57"/><line class="cls-27" x1="53.28" y1="124.12" x2="52.63" y2="122.39"/><line class="cls-27" x1="51.14" y1="126.27" x2="51.08" y2="125.86"/><line class="cls-27" x1="49.34" y1="122.27" x2="49.34" y2="121.38"/><line class="cls-27" x1="55.73" y1="125.38" x2="55.73" y2="124.84"/><line class="cls-27" x1="56.51" y1="125.26" x2="56.45" y2="124.36"/><line class="cls-27" x1="57.4" y1="124.96" x2="57.4" y2="124.12"/><line class="cls-27" x1="64.87" y1="124.36" x2="64.87" y2="123.83"/><line class="cls-27" x1="65.41" y1="124.43" x2="65.47" y2="123.53"/><line class="cls-27" x1="80.45" y1="116.66" x2="80.04" y2="115.53"/><line class="cls-27" x1="81.23" y1="117.32" x2="81.29" y2="116.18"/><line class="cls-27" x1="83.8" y1="116.84" x2="83.8" y2="114.15"/><line class="cls-27" x1="81.89" y1="119.05" x2="81.89" y2="118.39"/><line class="cls-27" x1="80.81" y1="119.89" x2="80.81" y2="119.05"/><line class="cls-27" x1="74.42" y1="124.96" x2="74.78" y2="124.36"/><line class="cls-27" x1="74.96" y1="125.26" x2="75.38" y2="124.84"/><line class="cls-27" x1="84.1" y1="120.18" x2="84.1" y2="121.38"/><line class="cls-27" x1="86.07" y1="121.32" x2="86.07" y2="122.03"/><line class="cls-27" x1="87.14" y1="122.69" x2="87.32" y2="123.77"/><line class="cls-27" x1="87.92" y1="123.17" x2="88.76" y2="124.01"/><line class="cls-27" x1="89.17" y1="123.47" x2="89.83" y2="124.3"/><line class="cls-27" x1="90.61" y1="123.05" x2="90.61" y2="124.3"/><line class="cls-27" x1="91.2" y1="123.11" x2="91.22" y2="123.94"/><line class="cls-27" x1="100.82" y1="125.44" x2="102.31" y2="125.68"/><line class="cls-27" x1="102.07" y1="125.14" x2="102.97" y2="125.14"/><line class="cls-27" x1="102.25" y1="124.54" x2="103.44" y2="124.6"/><line class="cls-27" x1="102.79" y1="123.94" x2="103.86" y2="124.06"/><line class="cls-27" x1="103.44" y1="123.41" x2="104.16" y2="123.47"/><line class="cls-27" x1="97.29" y1="126.63" x2="97.29" y2="126.15"/><line class="cls-27" x1="98.01" y1="126.45" x2="98.01" y2="126.03"/><line class="cls-27" x1="99.52" y1="126.66" x2="99.38" y2="125.91"/><line class="cls-27" x1="96.64" y1="120.78" x2="96.7" y2="122.45"/><line class="cls-27" x1="97.41" y1="121.56" x2="97.23" y2="122.33"/><line class="cls-27" x1="98.07" y1="121.8" x2="98.13" y2="122.27"/><line class="cls-27" x1="95.98" y1="121.5" x2="95.92" y2="122.63"/><line class="cls-27" x1="95.32" y1="121.5" x2="95.32" y2="122.45"/><line class="cls-27" x1="94.67" y1="120.9" x2="94.67" y2="122.09"/><line class="cls-27" x1="94.07" y1="121.2" x2="94.07" y2="121.68"/><line class="cls-27" x1="93.05" y1="120.42" x2="93.53" y2="121.2"/><line class="cls-27" x1="84.94" y1="117.2" x2="85.65" y2="115.41"/><line class="cls-27" x1="85.53" y1="118.33" x2="85.71" y2="116.9"/><line class="cls-27" x1="86.37" y1="118.93" x2="86.25" y2="116.42"/><line class="cls-27" x1="86.96" y1="119.29" x2="86.91" y2="117.02"/><line class="cls-27" x1="87.68" y1="119.11" x2="87.5" y2="117.97"/><line class="cls-27" x1="88.04" y1="119.23" x2="87.68" y2="117.14"/><line class="cls-27" x1="88.88" y1="119.23" x2="88.46" y2="117.8"/><line class="cls-27" x1="89.65" y1="119.94" x2="89.65" y2="118.63"/><line class="cls-27" x1="90.37" y1="120.06" x2="90.07" y2="118.57"/><line class="cls-27" x1="91.38" y1="120.06" x2="90.31" y2="117.8"/><line class="cls-27" x1="91.92" y1="119.11" x2="91.74" y2="117.5"/><line class="cls-27" x1="92.46" y1="118.75" x2="92.46" y2="117.26"/><line class="cls-27" x1="87.26" y1="109.14" x2="87.26" y2="108.6"/><line class="cls-27" x1="88.22" y1="108.9" x2="88.28" y2="108.18"/><line class="cls-27" x1="89.29" y1="108.54" x2="89.29" y2="108.06"/><line class="cls-27" x1="22.71" y1="124.66" x2="22.71" y2="124.06"/><line class="cls-27" x1="23.55" y1="126.09" x2="24.2" y2="124.54"/><line class="cls-27" x1="24.14" y1="127.17" x2="24.86" y2="125.2"/><line class="cls-27" x1="24.86" y1="127.76" x2="25.1" y2="126.33"/><line class="cls-27" x1="29.4" y1="129.38" x2="30.47" y2="128.24"/><line class="cls-27" x1="30.65" y1="129.2" x2="31.96" y2="127.88"/><line class="cls-27" x1="31.61" y1="129.14" x2="32.68" y2="127.82"/><line class="cls-27" x1="33.16" y1="128.78" x2="34.23" y2="127.17"/></svg>